%TF.GenerationSoftware,KiCad,Pcbnew,10.0.3*%
%TF.CreationDate,2026-07-04T10:19:25+10:00*%
%TF.ProjectId,arduino-delay,61726475-696e-46f2-9d64-656c61792e6b,rev?*%
%TF.SameCoordinates,Original*%
%TF.FileFunction,Profile,NP*%
%FSLAX46Y46*%
G04 Gerber Fmt 4.6, Leading zero omitted, Abs format (unit mm)*
G04 Created by KiCad (PCBNEW 10.0.3) date 2026-07-04 10:19:25*
%MOMM*%
%LPD*%
G01*
G04 APERTURE LIST*
%TA.AperFunction,Profile*%
%ADD10C,0.050000*%
%TD*%
G04 APERTURE END LIST*
D10*
X138496755Y-119638901D02*
G75*
G02*
X131769943Y-119638901I-3363406J0D01*
G01*
X131769943Y-119638901D02*
G75*
G02*
X138496755Y-119638901I3363406J0D01*
G01*
X101969962Y-119596672D02*
G75*
G02*
X95243150Y-119596672I-3363406J0D01*
G01*
X95243150Y-119596672D02*
G75*
G02*
X101969962Y-119596672I3363406J0D01*
G01*
X102133956Y-99000000D02*
G75*
G02*
X95133956Y-99000000I-3500000J0D01*
G01*
X95133956Y-99000000D02*
G75*
G02*
X102133956Y-99000000I3500000J0D01*
G01*
X101993836Y-141987714D02*
G75*
G02*
X95267024Y-141987714I-3363406J0D01*
G01*
X95267024Y-141987714D02*
G75*
G02*
X101993836Y-141987714I3363406J0D01*
G01*
X120290063Y-119644569D02*
G75*
G02*
X113563251Y-119644569I-3363406J0D01*
G01*
X113563251Y-119644569D02*
G75*
G02*
X120290063Y-119644569I3363406J0D01*
G01*
X120436889Y-99000000D02*
G75*
G02*
X113436889Y-99000000I-3500000J0D01*
G01*
X113436889Y-99000000D02*
G75*
G02*
X120436889Y-99000000I3500000J0D01*
G01*
X107500000Y-37375000D02*
X89500000Y-37375000D01*
X89500000Y-177500000D01*
X144633956Y-177500000D01*
X144633956Y-37378199D01*
X126500000Y-37375000D01*
X126500000Y-83750000D01*
X107500000Y-83750000D01*
X107500000Y-37375000D01*
X111285302Y-99000000D02*
G75*
G02*
X104285302Y-99000000I-3500000J0D01*
G01*
X104285302Y-99000000D02*
G75*
G02*
X111285302Y-99000000I3500000J0D01*
G01*
X120381778Y-141993382D02*
G75*
G02*
X113654966Y-141993382I-3363406J0D01*
G01*
X113654966Y-141993382D02*
G75*
G02*
X120381778Y-141993382I3363406J0D01*
G01*
X138573088Y-97265599D02*
G75*
G02*
X131846276Y-97265599I-3363406J0D01*
G01*
X131846276Y-97265599D02*
G75*
G02*
X138573088Y-97265599I3363406J0D01*
G01*
X138578111Y-74914255D02*
G75*
G02*
X131851299Y-74914255I-3363406J0D01*
G01*
X131851299Y-74914255D02*
G75*
G02*
X138578111Y-74914255I3363406J0D01*
G01*
X138588470Y-141987714D02*
G75*
G02*
X131861658Y-141987714I-3363406J0D01*
G01*
X131861658Y-141987714D02*
G75*
G02*
X138588470Y-141987714I3363406J0D01*
G01*
X138565931Y-52547458D02*
G75*
G02*
X131839119Y-52547458I-3363406J0D01*
G01*
X131839119Y-52547458D02*
G75*
G02*
X138565931Y-52547458I3363406J0D01*
G01*
M02*
