%TF.GenerationSoftware,KiCad,Pcbnew,9.0.6*%
%TF.CreationDate,2026-05-04T10:57:11+10:00*%
%TF.ProjectId,diode-ladder-filter,64696f64-652d-46c6-9164-6465722d6669,rev?*%
%TF.SameCoordinates,Original*%
%TF.FileFunction,Profile,NP*%
%FSLAX46Y46*%
G04 Gerber Fmt 4.6, Leading zero omitted, Abs format (unit mm)*
G04 Created by KiCad (PCBNEW 9.0.6) date 2026-05-04 10:57:11*
%MOMM*%
%LPD*%
G01*
G04 APERTURE LIST*
%TA.AperFunction,Profile*%
%ADD10C,0.050000*%
%TD*%
G04 APERTURE END LIST*
D10*
X196090509Y-99090378D02*
G75*
G02*
X188028251Y-99090378I-4031129J0D01*
G01*
X188028251Y-99090378D02*
G75*
G02*
X196090509Y-99090378I4031129J0D01*
G01*
X195954987Y-73348881D02*
G75*
G02*
X187892729Y-73348881I-4031129J0D01*
G01*
X187892729Y-73348881D02*
G75*
G02*
X195954987Y-73348881I4031129J0D01*
G01*
X162122894Y-38929862D02*
X247116814Y-38929862D01*
X247116814Y-168978185D01*
X162122894Y-168978185D01*
X162122894Y-38929862D01*
X191311814Y-121205935D02*
X217187984Y-121205935D01*
X217187984Y-134538790D01*
X191311814Y-134538790D01*
X191311814Y-121205935D01*
X222243407Y-74238515D02*
G75*
G02*
X214181149Y-74238515I-4031129J0D01*
G01*
X214181149Y-74238515D02*
G75*
G02*
X222243407Y-74238515I4031129J0D01*
G01*
X222241326Y-99090378D02*
G75*
G02*
X214179068Y-99090378I-4031129J0D01*
G01*
X214179068Y-99090378D02*
G75*
G02*
X222241326Y-99090378I4031129J0D01*
G01*
X208654023Y-52485152D02*
G75*
G02*
X200591765Y-52485152I-4031129J0D01*
G01*
X200591765Y-52485152D02*
G75*
G02*
X208654023Y-52485152I4031129J0D01*
G01*
X221801055Y-148792568D02*
G75*
G02*
X213738797Y-148792568I-4031129J0D01*
G01*
X213738797Y-148792568D02*
G75*
G02*
X221801055Y-148792568I4031129J0D01*
G01*
X195856322Y-148820670D02*
G75*
G02*
X187794064Y-148820670I-4031129J0D01*
G01*
X187794064Y-148820670D02*
G75*
G02*
X195856322Y-148820670I4031129J0D01*
G01*
X234393328Y-68482890D02*
X242769498Y-68482890D01*
X242769498Y-81815745D01*
X234393328Y-81815745D01*
X234393328Y-68482890D01*
M02*
