%TF.GenerationSoftware,KiCad,Pcbnew,9.0.6*%
%TF.CreationDate,2026-05-15T18:41:46+10:00*%
%TF.ProjectId,diode-ladder-filter,64696f64-652d-46c6-9164-6465722d6669,rev?*%
%TF.SameCoordinates,Original*%
%TF.FileFunction,Copper,L1,Top*%
%TF.FilePolarity,Positive*%
%FSLAX46Y46*%
G04 Gerber Fmt 4.6, Leading zero omitted, Abs format (unit mm)*
G04 Created by KiCad (PCBNEW 9.0.6) date 2026-05-15 18:41:46*
%MOMM*%
%LPD*%
G01*
G04 APERTURE LIST*
G04 Aperture macros list*
%AMRoundRect*
0 Rectangle with rounded corners*
0 $1 Rounding radius*
0 $2 $3 $4 $5 $6 $7 $8 $9 X,Y pos of 4 corners*
0 Add a 4 corners polygon primitive as box body*
4,1,4,$2,$3,$4,$5,$6,$7,$8,$9,$2,$3,0*
0 Add four circle primitives for the rounded corners*
1,1,$1+$1,$2,$3*
1,1,$1+$1,$4,$5*
1,1,$1+$1,$6,$7*
1,1,$1+$1,$8,$9*
0 Add four rect primitives between the rounded corners*
20,1,$1+$1,$2,$3,$4,$5,0*
20,1,$1+$1,$4,$5,$6,$7,0*
20,1,$1+$1,$6,$7,$8,$9,0*
20,1,$1+$1,$8,$9,$2,$3,0*%
G04 Aperture macros list end*
%TA.AperFunction,ComponentPad*%
%ADD10C,8.000000*%
%TD*%
%TA.AperFunction,ComponentPad*%
%ADD11R,1.700000X1.700000*%
%TD*%
%TA.AperFunction,ComponentPad*%
%ADD12C,1.700000*%
%TD*%
%TA.AperFunction,ComponentPad*%
%ADD13C,1.600000*%
%TD*%
%TA.AperFunction,ComponentPad*%
%ADD14RoundRect,0.750000X0.750000X-1.250000X0.750000X1.250000X-0.750000X1.250000X-0.750000X-1.250000X0*%
%TD*%
%TA.AperFunction,ComponentPad*%
%ADD15C,1.800000*%
%TD*%
%TA.AperFunction,ComponentPad*%
%ADD16R,1.800000X1.800000*%
%TD*%
%TA.AperFunction,ComponentPad*%
%ADD17O,3.750000X2.000000*%
%TD*%
%TA.AperFunction,ComponentPad*%
%ADD18RoundRect,0.250000X-0.550000X-0.550000X0.550000X-0.550000X0.550000X0.550000X-0.550000X0.550000X0*%
%TD*%
%TA.AperFunction,ComponentPad*%
%ADD19RoundRect,0.250000X0.650000X0.650000X-0.650000X0.650000X-0.650000X-0.650000X0.650000X-0.650000X0*%
%TD*%
%TA.AperFunction,ComponentPad*%
%ADD20RoundRect,0.250000X-0.650000X-0.650000X0.650000X-0.650000X0.650000X0.650000X-0.650000X0.650000X0*%
%TD*%
%TA.AperFunction,ComponentPad*%
%ADD21RoundRect,0.250000X0.650000X-0.650000X0.650000X0.650000X-0.650000X0.650000X-0.650000X-0.650000X0*%
%TD*%
%TA.AperFunction,ComponentPad*%
%ADD22RoundRect,0.250000X0.600000X-0.600000X0.600000X0.600000X-0.600000X0.600000X-0.600000X-0.600000X0*%
%TD*%
%TA.AperFunction,ComponentPad*%
%ADD23RoundRect,0.250000X-0.650000X0.650000X-0.650000X-0.650000X0.650000X-0.650000X0.650000X0.650000X0*%
%TD*%
%TA.AperFunction,Conductor*%
%ADD24C,0.200000*%
%TD*%
G04 APERTURE END LIST*
D10*
%TO.P,J9,1,Pin_1*%
%TO.N,Net-(J13-Pin_2)*%
X164759813Y-91073468D03*
%TD*%
%TO.P,J8,1,Pin_1*%
%TO.N,Net-(J13-Pin_1)*%
X164807108Y-71085822D03*
%TD*%
%TO.P,J10,1,Pin_1*%
%TO.N,Net-(J10-Pin_1)*%
X164661915Y-132020581D03*
%TD*%
%TO.P,J11,1,Pin_1*%
%TO.N,Net-(J11-Pin_1)*%
X214161915Y-132130526D03*
%TD*%
D11*
%TO.P,J13,1,Pin_1*%
%TO.N,Net-(J13-Pin_1)*%
X185545018Y-149993699D03*
D12*
%TO.P,J13,2,Pin_2*%
%TO.N,Net-(J13-Pin_2)*%
X188085018Y-149993699D03*
%TO.P,J13,3,Pin_3*%
%TO.N,Net-(J10-Pin_1)*%
X190625018Y-149993699D03*
%TO.P,J13,4,Pin_4*%
%TO.N,Net-(J11-Pin_1)*%
X193165018Y-149993699D03*
%TD*%
D13*
%TO.P,R23,2*%
%TO.N,GND*%
X108250000Y-130250000D03*
%TO.P,R23,1*%
%TO.N,Net-(U2C-+)*%
X118410000Y-130250000D03*
%TD*%
%TO.P,C10,2*%
%TO.N,-12V*%
X75750000Y-119000000D03*
%TO.P,C10,1*%
%TO.N,GND*%
X75750000Y-114000000D03*
%TD*%
D14*
%TO.P,RV7,MP*%
%TO.N,N/C*%
X104000000Y-138750000D03*
X95200000Y-138750000D03*
D15*
%TO.P,RV7,3,3*%
%TO.N,Net-(C8-Pad1)*%
X102100000Y-145750000D03*
%TO.P,RV7,2,2*%
X99600000Y-145750000D03*
D16*
%TO.P,RV7,1,1*%
%TO.N,Net-(U2B--)*%
X97100000Y-145750000D03*
%TD*%
D17*
%TO.P,SW4,3,C*%
%TO.N,Net-(SW1A-C)*%
X99000000Y-124000000D03*
%TO.P,SW4,2,B*%
%TO.N,Net-(SW4A-B)*%
X99000000Y-119500000D03*
%TO.P,SW4,1,A*%
%TO.N,GND*%
X99000000Y-115000000D03*
%TD*%
D13*
%TO.P,C9,2*%
%TO.N,12V*%
X62356646Y-119001488D03*
%TO.P,C9,1*%
%TO.N,GND*%
X62356646Y-114001488D03*
%TD*%
%TO.P,R5,2*%
%TO.N,GND*%
X90340000Y-152250000D03*
%TO.P,R5,1*%
%TO.N,Net-(C1-Pad2)*%
X100500000Y-152250000D03*
%TD*%
%TO.P,R8,2*%
%TO.N,Net-(U1C-+)*%
X87917241Y-127742504D03*
%TO.P,R8,1*%
%TO.N,GND*%
X98077241Y-127742504D03*
%TD*%
%TO.P,R3,2*%
%TO.N,Net-(U1B-+)*%
X90420000Y-149000000D03*
%TO.P,R3,1*%
%TO.N,Net-(C1-Pad2)*%
X100580000Y-149000000D03*
%TD*%
%TO.P,U2,14*%
%TO.N,Net-(D1-A)*%
X116060000Y-111635000D03*
%TO.P,U2,13,-*%
%TO.N,Net-(D1-K)*%
X116060000Y-114175000D03*
%TO.P,U2,12,+*%
%TO.N,Net-(U2D-+)*%
X116060000Y-116715000D03*
%TO.P,U2,11,V-*%
%TO.N,-12V*%
X116060000Y-119255000D03*
%TO.P,U2,10,+*%
%TO.N,Net-(U2C-+)*%
X116060000Y-121795000D03*
%TO.P,U2,9,-*%
%TO.N,Net-(U2C--)*%
X116060000Y-124335000D03*
%TO.P,U2,8*%
X116060000Y-126875000D03*
%TO.P,U2,7*%
%TO.N,Net-(C8-Pad1)*%
X108440000Y-126875000D03*
%TO.P,U2,6,-*%
%TO.N,Net-(U2B--)*%
X108440000Y-124335000D03*
%TO.P,U2,5,+*%
%TO.N,GND*%
X108440000Y-121795000D03*
%TO.P,U2,4,V+*%
%TO.N,12V*%
X108440000Y-119255000D03*
%TO.P,U2,3,+*%
%TO.N,Net-(D5-K)*%
X108440000Y-116715000D03*
%TO.P,U2,2,-*%
%TO.N,Net-(U2A--)*%
X108440000Y-114175000D03*
D18*
%TO.P,U2,1*%
X108440000Y-111635000D03*
%TD*%
D10*
%TO.P,J1,1,Pin_1*%
%TO.N,Net-(J1-Pin_1)*%
X65500000Y-138274938D03*
%TD*%
D13*
%TO.P,C1,2*%
%TO.N,Net-(C1-Pad2)*%
X90500000Y-145750000D03*
%TO.P,C1,1*%
%TO.N,Net-(C1-Pad1)*%
X90500000Y-140750000D03*
%TD*%
D17*
%TO.P,SW3,3,C*%
%TO.N,Net-(SW1A-C)*%
X90400000Y-124000000D03*
%TO.P,SW3,2,B*%
%TO.N,Net-(SW3A-B)*%
X90400000Y-119500000D03*
%TO.P,SW3,1,A*%
%TO.N,GND*%
X90400000Y-115000000D03*
%TD*%
D13*
%TO.P,R21,2*%
%TO.N,Net-(J12-Pin_4)*%
X87920000Y-130750000D03*
%TO.P,R21,1*%
%TO.N,Net-(U2C--)*%
X98080000Y-130750000D03*
%TD*%
%TO.P,R1,2*%
%TO.N,Net-(D3-A)*%
X85830000Y-111250000D03*
%TO.P,R1,1*%
%TO.N,Net-(U1C--)*%
X75670000Y-111250000D03*
%TD*%
D10*
%TO.P,J4,1,Pin_1*%
%TO.N,Net-(J12-Pin_4)*%
X115000000Y-138409821D03*
%TD*%
D13*
%TO.P,R2,2*%
%TO.N,Net-(D3-A)*%
X98160000Y-111250000D03*
%TO.P,R2,1*%
%TO.N,Net-(R2-Pad1)*%
X88000000Y-111250000D03*
%TD*%
D12*
%TO.P,J12,4,Pin_4*%
%TO.N,Net-(J12-Pin_4)*%
X94000000Y-156250000D03*
%TO.P,J12,3,Pin_3*%
%TO.N,Net-(J1-Pin_1)*%
X91460000Y-156250000D03*
%TO.P,J12,2,Pin_2*%
%TO.N,Net-(J12-Pin_2)*%
X88920000Y-156250000D03*
D11*
%TO.P,J12,1,Pin_1*%
%TO.N,Net-(J12-Pin_1)*%
X86380000Y-156250000D03*
%TD*%
D15*
%TO.P,D9,2,A*%
%TO.N,Net-(D9-A)*%
X65250000Y-108000000D03*
D19*
%TO.P,D9,1,K*%
%TO.N,Net-(D9-K)*%
X72870000Y-108000000D03*
%TD*%
D14*
%TO.P,RV1,MP*%
%TO.N,N/C*%
X85300000Y-138750000D03*
X76500000Y-138750000D03*
D15*
%TO.P,RV1,3,3*%
%TO.N,Net-(J1-Pin_1)*%
X83400000Y-145750000D03*
%TO.P,RV1,2,2*%
%TO.N,Net-(C1-Pad1)*%
X80900000Y-145750000D03*
D16*
%TO.P,RV1,1,1*%
%TO.N,GND*%
X78400000Y-145750000D03*
%TD*%
D13*
%TO.P,C12,2*%
%TO.N,-12V*%
X119000000Y-119295000D03*
%TO.P,C12,1*%
%TO.N,GND*%
X119000000Y-124295000D03*
%TD*%
D17*
%TO.P,SW1,3,C*%
%TO.N,Net-(SW1A-C)*%
X81500000Y-124000000D03*
%TO.P,SW1,2,B*%
%TO.N,Net-(SW1A-B)*%
X81500000Y-119500000D03*
%TO.P,SW1,1,A*%
%TO.N,GND*%
X81500000Y-115000000D03*
%TD*%
D13*
%TO.P,R6,2*%
%TO.N,GND*%
X77840000Y-149000000D03*
%TO.P,R6,1*%
%TO.N,Net-(U1B-+)*%
X88000000Y-149000000D03*
%TD*%
%TO.P,C8,2*%
%TO.N,Net-(U2C-+)*%
X105553581Y-127355348D03*
%TO.P,C8,1*%
%TO.N,Net-(C8-Pad1)*%
X105553581Y-122355348D03*
%TD*%
%TO.P,R20,2*%
%TO.N,Net-(U2B--)*%
X120500000Y-116910000D03*
%TO.P,R20,1*%
%TO.N,Net-(U2A--)*%
X120500000Y-106750000D03*
%TD*%
%TO.P,R18,2*%
%TO.N,Net-(D9-K)*%
X75590000Y-130750000D03*
%TO.P,R18,1*%
%TO.N,Net-(U1D--)*%
X85750000Y-130750000D03*
%TD*%
%TO.P,R7,2*%
%TO.N,Net-(D9-K)*%
X63090000Y-130000000D03*
%TO.P,R7,1*%
%TO.N,Net-(U1C-+)*%
X73250000Y-130000000D03*
%TD*%
%TO.P,R14,2*%
%TO.N,Net-(SW1A-B)*%
X85830000Y-108000000D03*
%TO.P,R14,1*%
%TO.N,Net-(U1D--)*%
X75670000Y-108000000D03*
%TD*%
%TO.P,U1,14*%
%TO.N,Net-(R16-Pad1)*%
X72870000Y-111380000D03*
%TO.P,U1,13,-*%
%TO.N,Net-(U1D--)*%
X72870000Y-113920000D03*
%TO.P,U1,12,+*%
%TO.N,GND*%
X72870000Y-116460000D03*
%TO.P,U1,11,V-*%
%TO.N,-12V*%
X72870000Y-119000000D03*
%TO.P,U1,10,+*%
%TO.N,Net-(U1C-+)*%
X72870000Y-121540000D03*
%TO.P,U1,9,-*%
%TO.N,Net-(U1C--)*%
X72870000Y-124080000D03*
%TO.P,U1,8*%
%TO.N,Net-(R2-Pad1)*%
X72870000Y-126620000D03*
%TO.P,U1,7*%
%TO.N,Net-(SW1A-C)*%
X65250000Y-126620000D03*
%TO.P,U1,6,-*%
X65250000Y-124080000D03*
%TO.P,U1,5,+*%
%TO.N,Net-(U1B-+)*%
X65250000Y-121540000D03*
%TO.P,U1,4,V+*%
%TO.N,12V*%
X65250000Y-119000000D03*
%TO.P,U1,3,+*%
%TO.N,Net-(D10-A)*%
X65250000Y-116460000D03*
%TO.P,U1,2,-*%
%TO.N,Net-(D9-A)*%
X65250000Y-113920000D03*
D18*
%TO.P,U1,1*%
X65250000Y-111380000D03*
%TD*%
D13*
%TO.P,C11,2*%
%TO.N,12V*%
X105500000Y-115000000D03*
%TO.P,C11,1*%
%TO.N,GND*%
X105500000Y-120000000D03*
%TD*%
%TO.P,R4,2*%
%TO.N,Net-(U1C--)*%
X75590000Y-127750000D03*
%TO.P,R4,1*%
%TO.N,Net-(SW1A-B)*%
X85750000Y-127750000D03*
%TD*%
%TO.P,C2,2*%
%TO.N,Net-(D1-A)*%
X117750000Y-103500000D03*
%TO.P,C2,1*%
%TO.N,Net-(D3-K)*%
X117750000Y-108500000D03*
%TD*%
%TO.P,C6,2*%
%TO.N,Net-(D1-A)*%
X117750000Y-101000000D03*
%TO.P,C6,1*%
%TO.N,Net-(D7-K)*%
X117750000Y-96000000D03*
%TD*%
%TO.P,C4,2*%
%TO.N,Net-(D5-K)*%
X117750000Y-93500000D03*
%TO.P,C4,1*%
%TO.N,Net-(SW4A-B)*%
X117750000Y-88500000D03*
%TD*%
%TO.P,C5,1*%
%TO.N,Net-(SW3A-B)*%
X112617003Y-87750000D03*
%TO.P,C5,2*%
%TO.N,Net-(D6-K)*%
X107617003Y-87750000D03*
%TD*%
D19*
%TO.P,D7,1,K*%
%TO.N,Net-(D7-K)*%
X115310000Y-94237646D03*
D15*
%TO.P,D7,2,A*%
%TO.N,Net-(D6-K)*%
X107690000Y-94237646D03*
%TD*%
D14*
%TO.P,RV6,MP*%
%TO.N,N/C*%
X104115996Y-97953715D03*
X95315996Y-97953715D03*
D15*
%TO.P,RV6,3,3*%
%TO.N,Net-(C7-Pad2)*%
X102215996Y-104953715D03*
%TO.P,RV6,2,2*%
%TO.N,Net-(D10-A)*%
X99715996Y-104953715D03*
D16*
%TO.P,RV6,1,1*%
X97215996Y-104953715D03*
%TD*%
D19*
%TO.P,D3,1,K*%
%TO.N,Net-(D3-K)*%
X115295277Y-108118720D03*
D15*
%TO.P,D3,2,A*%
%TO.N,Net-(D3-A)*%
X107675277Y-108118720D03*
%TD*%
D20*
%TO.P,D6,1,K*%
%TO.N,Net-(D6-K)*%
X107692348Y-97667780D03*
D15*
%TO.P,D6,2,A*%
%TO.N,Net-(D5-K)*%
X115312348Y-97667780D03*
%TD*%
D20*
%TO.P,D8,1,K*%
%TO.N,Net-(D8-K)*%
X107698035Y-90785562D03*
D15*
%TO.P,D8,2,A*%
%TO.N,Net-(D7-K)*%
X115318035Y-90785562D03*
%TD*%
D13*
%TO.P,C7,2*%
%TO.N,Net-(C7-Pad2)*%
X95000000Y-107487646D03*
%TO.P,C7,1*%
%TO.N,GND*%
X90000000Y-107487646D03*
%TD*%
D14*
%TO.P,RV4,MP*%
%TO.N,N/C*%
X85214935Y-97990210D03*
X76414935Y-97990210D03*
D15*
%TO.P,RV4,3,3*%
%TO.N,Net-(J12-Pin_2)*%
X83314935Y-104990210D03*
%TO.P,RV4,2,2*%
%TO.N,Net-(R13-Pad2)*%
X80814935Y-104990210D03*
D16*
%TO.P,RV4,1,1*%
%TO.N,GND*%
X78314935Y-104990210D03*
%TD*%
D10*
%TO.P,J3,1,Pin_1*%
%TO.N,Net-(J12-Pin_2)*%
X65597898Y-97352763D03*
%TD*%
D13*
%TO.P,R22,2*%
%TO.N,Net-(D12-K)*%
X90250000Y-72840000D03*
%TO.P,R22,1*%
%TO.N,GND*%
X90250000Y-83000000D03*
%TD*%
D19*
%TO.P,D5,1,K*%
%TO.N,Net-(D5-K)*%
X115298710Y-101135836D03*
D15*
%TO.P,D5,2,A*%
%TO.N,Net-(D4-K)*%
X107678710Y-101135836D03*
%TD*%
D20*
%TO.P,D4,1,K*%
%TO.N,Net-(D4-K)*%
X107675277Y-104618720D03*
D15*
%TO.P,D4,2,A*%
%TO.N,Net-(D3-K)*%
X115295277Y-104618720D03*
%TD*%
D13*
%TO.P,C3,1*%
%TO.N,Net-(SW3A-B)*%
X99750000Y-107487646D03*
%TO.P,C3,2*%
%TO.N,Net-(D4-K)*%
X104750000Y-107487646D03*
%TD*%
D16*
%TO.P,RV2,1,1*%
%TO.N,GND*%
X97229308Y-84966069D03*
D15*
%TO.P,RV2,2,2*%
%TO.N,Net-(U2D-+)*%
X99729308Y-84966069D03*
%TO.P,RV2,3,3*%
%TO.N,Net-(U2A--)*%
X102229308Y-84966069D03*
D14*
%TO.P,RV2,MP*%
%TO.N,N/C*%
X95329308Y-77966069D03*
X104129308Y-77966069D03*
%TD*%
D13*
%TO.P,R15,1*%
%TO.N,Net-(D8-K)*%
X87750000Y-89500000D03*
%TO.P,R15,2*%
%TO.N,Net-(U1D--)*%
X77590000Y-89500000D03*
%TD*%
%TO.P,R19,1*%
%TO.N,GND*%
X81500000Y-58500000D03*
%TO.P,R19,2*%
%TO.N,Net-(D10-A)*%
X71340000Y-58500000D03*
%TD*%
%TO.P,R17,1*%
%TO.N,Net-(D10-A)*%
X71340000Y-55000000D03*
%TO.P,R17,2*%
%TO.N,Net-(R17-Pad2)*%
X81500000Y-55000000D03*
%TD*%
%TO.P,R12,1*%
%TO.N,Net-(D10-A)*%
X61500000Y-86000000D03*
%TO.P,R12,2*%
%TO.N,Net-(R12-Pad2)*%
X71660000Y-86000000D03*
%TD*%
D16*
%TO.P,RV3,1,1*%
%TO.N,GND*%
X78407652Y-85000000D03*
D15*
%TO.P,RV3,2,2*%
%TO.N,Net-(R12-Pad2)*%
X80907652Y-85000000D03*
%TO.P,RV3,3,3*%
%TO.N,Net-(J12-Pin_1)*%
X83407652Y-85000000D03*
D14*
%TO.P,RV3,MP*%
%TO.N,N/C*%
X76507652Y-78000000D03*
X85307652Y-78000000D03*
%TD*%
D13*
%TO.P,R9,1*%
%TO.N,GND*%
X106500000Y-65350000D03*
%TO.P,R9,2*%
%TO.N,Net-(SW2A-A)*%
X106500000Y-55190000D03*
%TD*%
%TO.P,R11,1*%
%TO.N,Net-(D1-A)*%
X109500923Y-55189998D03*
%TO.P,R11,2*%
%TO.N,Net-(D1-K)*%
X109500923Y-65349998D03*
%TD*%
D19*
%TO.P,D10,1,K*%
%TO.N,Net-(D10-K)*%
X81500000Y-62000000D03*
D15*
%TO.P,D10,2,A*%
%TO.N,Net-(D10-A)*%
X73880000Y-62000000D03*
%TD*%
D13*
%TO.P,R13,1*%
%TO.N,Net-(D10-A)*%
X61520156Y-89039805D03*
%TO.P,R13,2*%
%TO.N,Net-(R13-Pad2)*%
X71680156Y-89039805D03*
%TD*%
%TO.P,R10,1*%
%TO.N,GND*%
X103500000Y-65350000D03*
%TO.P,R10,2*%
%TO.N,Net-(SW2A-C)*%
X103500000Y-55190000D03*
%TD*%
D21*
%TO.P,D1,1,K*%
%TO.N,Net-(D1-K)*%
X116500000Y-65310000D03*
D15*
%TO.P,D1,2,A*%
%TO.N,Net-(D1-A)*%
X116500000Y-57690000D03*
%TD*%
D16*
%TO.P,RV5,1,1*%
%TO.N,GND*%
X87770065Y-63550000D03*
D15*
%TO.P,RV5,2,2*%
%TO.N,Net-(R17-Pad2)*%
X90270065Y-63550000D03*
%TO.P,RV5,3,3*%
%TO.N,12V*%
X92770065Y-63550000D03*
D14*
%TO.P,RV5,MP*%
%TO.N,N/C*%
X85870065Y-56550000D03*
X94670065Y-56550000D03*
%TD*%
D20*
%TO.P,D11,1,K*%
%TO.N,Net-(D11-K)*%
X73880000Y-65500000D03*
D15*
%TO.P,D11,2,A*%
%TO.N,Net-(D10-K)*%
X81500000Y-65500000D03*
%TD*%
D22*
%TO.P,J5,1,Pin_1*%
%TO.N,12V*%
X76424429Y-36425314D03*
D12*
%TO.P,J5,2,Pin_2*%
%TO.N,-12V*%
X76424429Y-33885314D03*
%TO.P,J5,3,Pin_3*%
%TO.N,GND*%
X78964429Y-36425314D03*
%TO.P,J5,4,Pin_4*%
X78964429Y-33885314D03*
%TO.P,J5,5,Pin_5*%
%TO.N,5V*%
X81504429Y-36425314D03*
%TO.P,J5,6,Pin_6*%
%TO.N,unconnected-(J5-Pin_6-Pad6)*%
X81504429Y-33885314D03*
%TD*%
D17*
%TO.P,SW2,1,A*%
%TO.N,Net-(SW2A-A)*%
X113562434Y-82156087D03*
%TO.P,SW2,2,B*%
%TO.N,Net-(D1-K)*%
X113562434Y-77656087D03*
%TO.P,SW2,3,C*%
%TO.N,Net-(SW2A-C)*%
X113562434Y-73156087D03*
%TD*%
D23*
%TO.P,D2,1,K*%
%TO.N,Net-(D1-A)*%
X113000000Y-57690000D03*
D15*
%TO.P,D2,2,A*%
%TO.N,Net-(D1-K)*%
X113000000Y-65310000D03*
%TD*%
D19*
%TO.P,D12,1,K*%
%TO.N,Net-(D12-K)*%
X81500000Y-69000000D03*
D15*
%TO.P,D12,2,A*%
%TO.N,Net-(D11-K)*%
X73880000Y-69000000D03*
%TD*%
D22*
%TO.P,J6,1,Pin_1*%
%TO.N,12V*%
X99354429Y-36425314D03*
D12*
%TO.P,J6,2,Pin_2*%
%TO.N,-12V*%
X99354429Y-33885314D03*
%TO.P,J6,3,Pin_3*%
%TO.N,GND*%
X101894429Y-36425314D03*
%TO.P,J6,4,Pin_4*%
X101894429Y-33885314D03*
%TO.P,J6,5,Pin_5*%
%TO.N,5V*%
X104434429Y-36425314D03*
%TO.P,J6,6,Pin_6*%
%TO.N,unconnected-(J6-Pin_6-Pad6)*%
X104434429Y-33885314D03*
%TD*%
D10*
%TO.P,J2,1,Pin_1*%
%TO.N,Net-(J12-Pin_1)*%
X65645193Y-77365117D03*
%TD*%
D13*
%TO.P,R16,1*%
%TO.N,Net-(R16-Pad1)*%
X90500000Y-103830000D03*
%TO.P,R16,2*%
%TO.N,Net-(D8-K)*%
X90500000Y-93670000D03*
%TD*%
D24*
%TO.N,Net-(U2A--)*%
X108440000Y-111635000D02*
X108440000Y-114175000D01*
%TO.N,Net-(SW1A-C)*%
X65250000Y-126620000D02*
X65250000Y-124080000D01*
%TO.N,Net-(U1B-+)*%
X90420000Y-149000000D02*
X88000000Y-149000000D01*
%TO.N,-12V*%
X75750000Y-119000000D02*
X72870000Y-119000000D01*
%TO.N,GND*%
X101894429Y-33885314D02*
X100743429Y-35036314D01*
X100743429Y-35036314D02*
X80115429Y-35036314D01*
X80115429Y-35036314D02*
X78964429Y-33885314D01*
X101894429Y-33885314D02*
X101894429Y-36425314D01*
X78964429Y-33885314D02*
X78964429Y-36425314D01*
%TO.N,-12V*%
X76424429Y-33885314D02*
X77575429Y-32734314D01*
X77575429Y-32734314D02*
X98203429Y-32734314D01*
X98203429Y-32734314D02*
X99354429Y-33885314D01*
%TO.N,Net-(U1C-+)*%
X87917241Y-127742504D02*
X86808745Y-128851000D01*
X86808745Y-128851000D02*
X74399000Y-128851000D01*
X74399000Y-128851000D02*
X73250000Y-130000000D01*
%TO.N,Net-(D10-A)*%
X61500000Y-86000000D02*
X61500000Y-89019649D01*
X61500000Y-89019649D02*
X61520156Y-89039805D01*
%TO.N,Net-(U2C--)*%
X116060000Y-126875000D02*
X116060000Y-124335000D01*
%TO.N,Net-(U2B--)*%
X108440000Y-124335000D02*
X107339000Y-123234000D01*
X107339000Y-121338950D02*
X107983950Y-120694000D01*
X107339000Y-123234000D02*
X107339000Y-121338950D01*
X107983950Y-120694000D02*
X116556000Y-120694000D01*
X116556000Y-120694000D02*
X117899000Y-119351000D01*
X117899000Y-119351000D02*
X117899000Y-118379630D01*
X117899000Y-118379630D02*
X119368630Y-116910000D01*
X119368630Y-116910000D02*
X120500000Y-116910000D01*
%TO.N,Net-(C8-Pad1)*%
X105553581Y-122355348D02*
X105553581Y-123988581D01*
X105553581Y-123988581D02*
X108440000Y-126875000D01*
%TO.N,GND*%
X108250000Y-130250000D02*
X106649000Y-131851000D01*
X106649000Y-131851000D02*
X97623950Y-131851000D01*
X97623950Y-131851000D02*
X96979000Y-131206050D01*
X96979000Y-131206050D02*
X96979000Y-128840745D01*
X96979000Y-128840745D02*
X98077241Y-127742504D01*
%TO.N,Net-(U2C--)*%
X98080000Y-130750000D02*
X99681000Y-129149000D01*
X99681000Y-129149000D02*
X113786000Y-129149000D01*
X113786000Y-129149000D02*
X116060000Y-126875000D01*
%TO.N,Net-(J1-Pin_1)*%
X83400000Y-145750000D02*
X83400000Y-148190000D01*
X83400000Y-148190000D02*
X87160331Y-151950331D01*
%TO.N,GND*%
X77840000Y-149000000D02*
X77840000Y-146310000D01*
X77840000Y-146310000D02*
X78400000Y-145750000D01*
%TO.N,Net-(C1-Pad2)*%
X100580000Y-149000000D02*
X100580000Y-152170000D01*
X100580000Y-152170000D02*
X100500000Y-152250000D01*
X90500000Y-145750000D02*
X93750000Y-149000000D01*
X93750000Y-149000000D02*
X100580000Y-149000000D01*
%TO.N,Net-(R17-Pad2)*%
X81500000Y-55000000D02*
X81500000Y-56131370D01*
X81500000Y-56131370D02*
X87717630Y-62349000D01*
X87717630Y-62349000D02*
X89069065Y-62349000D01*
X89069065Y-62349000D02*
X90270065Y-63550000D01*
%TO.N,GND*%
X81500000Y-58500000D02*
X80399000Y-57399000D01*
X80399000Y-57399000D02*
X80399000Y-37859885D01*
X80399000Y-37859885D02*
X78964429Y-36425314D01*
%TO.N,Net-(D1-A)*%
X113000000Y-57690000D02*
X116500000Y-57690000D01*
X109500923Y-55189998D02*
X112000925Y-57690000D01*
X112000925Y-57690000D02*
X113000000Y-57690000D01*
%TO.N,Net-(D1-K)*%
X118851000Y-67661000D02*
X118851000Y-72367521D01*
X113562434Y-77656087D02*
X118851000Y-72367521D01*
X116500000Y-65310000D02*
X113000000Y-65310000D01*
X109500923Y-65349998D02*
X112960002Y-65349998D01*
X112960002Y-65349998D02*
X113000000Y-65310000D01*
%TO.N,GND*%
X106500000Y-65350000D02*
X103500000Y-65350000D01*
%TO.N,Net-(SW2A-A)*%
X113562434Y-82156087D02*
X107601000Y-76194653D01*
X107601000Y-76194653D02*
X107601000Y-56291000D01*
X107601000Y-56291000D02*
X106500000Y-55190000D01*
%TO.N,Net-(D12-K)*%
X81500000Y-69000000D02*
X86410000Y-69000000D01*
X86410000Y-69000000D02*
X90250000Y-72840000D01*
%TO.N,Net-(D10-K)*%
X81500000Y-65500000D02*
X81500000Y-62000000D01*
%TO.N,Net-(D11-K)*%
X73880000Y-65500000D02*
X73880000Y-69000000D01*
%TO.N,Net-(D10-A)*%
X71340000Y-58500000D02*
X73880000Y-61040000D01*
X73880000Y-61040000D02*
X73880000Y-62000000D01*
X71340000Y-55000000D02*
X71340000Y-58500000D01*
%TO.N,GND*%
X87770065Y-63550000D02*
X86550000Y-63550000D01*
X86550000Y-63550000D02*
X81500000Y-58500000D01*
X103500000Y-65350000D02*
X89570065Y-65350000D01*
X89570065Y-65350000D02*
X87770065Y-63550000D01*
%TO.N,Net-(D7-K)*%
X115310000Y-94237646D02*
X115987646Y-94237646D01*
X115987646Y-94237646D02*
X117750000Y-96000000D01*
X115318035Y-90785562D02*
X115318035Y-94229611D01*
X115318035Y-94229611D02*
X115310000Y-94237646D01*
%TO.N,Net-(D8-K)*%
X90500000Y-93670000D02*
X90500000Y-92250000D01*
X90500000Y-92250000D02*
X87750000Y-89500000D01*
X107698035Y-90785562D02*
X93384438Y-90785562D01*
X93384438Y-90785562D02*
X90500000Y-93670000D01*
%TO.N,Net-(D6-K)*%
X107690000Y-94237646D02*
X108899035Y-93028611D01*
X108899035Y-93028611D02*
X108899035Y-89032032D01*
X108899035Y-89032032D02*
X107617003Y-87750000D01*
X107692348Y-97667780D02*
X107692348Y-94239994D01*
X107692348Y-94239994D02*
X107690000Y-94237646D01*
%TO.N,Net-(D5-K)*%
X115298710Y-101135836D02*
X115298710Y-97681418D01*
X115298710Y-97681418D02*
X115312348Y-97667780D01*
%TO.N,Net-(D1-A)*%
X117750000Y-103500000D02*
X117750000Y-101000000D01*
X116060000Y-111635000D02*
X116496277Y-111198723D01*
X116496277Y-111198723D02*
X116496277Y-104753723D01*
X116496277Y-104753723D02*
X117750000Y-103500000D01*
%TO.N,Net-(D3-K)*%
X115295277Y-104618720D02*
X115295277Y-108118720D01*
X115676557Y-108500000D02*
X115295277Y-108118720D01*
%TO.N,Net-(D4-K)*%
X107675277Y-104618720D02*
X107675277Y-101139269D01*
X107675277Y-101139269D02*
X107678710Y-101135836D01*
X104750000Y-107487646D02*
X107618926Y-104618720D01*
X107618926Y-104618720D02*
X107675277Y-104618720D01*
%TO.N,Net-(SW3A-B)*%
X90400000Y-119500000D02*
X91467050Y-119500000D01*
X91467050Y-119500000D02*
X101582074Y-109384976D01*
X101582074Y-109384976D02*
X101582074Y-109319720D01*
%TO.N,Net-(C7-Pad2)*%
X102215996Y-104953715D02*
X101014996Y-106154715D01*
X101014996Y-106154715D02*
X96332931Y-106154715D01*
X96332931Y-106154715D02*
X95000000Y-107487646D01*
%TO.N,Net-(D10-A)*%
X97215996Y-104953715D02*
X99715996Y-104953715D01*
%TO.N,Net-(D3-A)*%
X85830000Y-111250000D02*
X86931000Y-110149000D01*
X86931000Y-110149000D02*
X97059000Y-110149000D01*
X97059000Y-110149000D02*
X98160000Y-111250000D01*
%TO.N,Net-(SW1A-B)*%
X81500000Y-119500000D02*
X84729000Y-116271000D01*
X84729000Y-116271000D02*
X84729000Y-109101000D01*
X84729000Y-109101000D02*
X85830000Y-108000000D01*
%TO.N,Net-(U1D--)*%
X75670000Y-108000000D02*
X73971000Y-109699000D01*
X73971000Y-109699000D02*
X73971000Y-112819000D01*
X73971000Y-112819000D02*
X72870000Y-113920000D01*
%TO.N,GND*%
X78314935Y-104990210D02*
X78314935Y-111814935D01*
X78314935Y-111814935D02*
X81500000Y-115000000D01*
%TO.N,Net-(U1D--)*%
X77590000Y-89500000D02*
X78215935Y-90125935D01*
X78215935Y-90125935D02*
X78215935Y-102687210D01*
X78215935Y-102687210D02*
X75670000Y-105233145D01*
X75670000Y-105233145D02*
X75670000Y-108000000D01*
%TO.N,GND*%
X78407652Y-85000000D02*
X78691000Y-85283348D01*
X78691000Y-85283348D02*
X78691000Y-104614145D01*
X78691000Y-104614145D02*
X78314935Y-104990210D01*
%TO.N,Net-(U1C--)*%
X75670000Y-111250000D02*
X76851000Y-112431000D01*
X76851000Y-112431000D02*
X76851000Y-120099000D01*
X76851000Y-120099000D02*
X72870000Y-124080000D01*
%TO.N,Net-(U1C-+)*%
X73250000Y-130000000D02*
X73250000Y-128557050D01*
X71769000Y-127076050D02*
X71769000Y-122641000D01*
X73250000Y-128557050D02*
X71769000Y-127076050D01*
X71769000Y-122641000D02*
X72870000Y-121540000D01*
%TO.N,Net-(R2-Pad1)*%
X72870000Y-126620000D02*
X78689000Y-120801000D01*
X78689000Y-120801000D02*
X82913892Y-120801000D01*
X82913892Y-120801000D02*
X88000000Y-115714892D01*
X88000000Y-115714892D02*
X88000000Y-111250000D01*
%TO.N,Net-(U1B-+)*%
X65250000Y-121540000D02*
X72149000Y-128439000D01*
X72149000Y-128439000D02*
X72149000Y-130912660D01*
X72149000Y-130912660D02*
X88000000Y-146763660D01*
X88000000Y-146763660D02*
X88000000Y-149000000D01*
%TO.N,Net-(J12-Pin_4)*%
X87920000Y-130750000D02*
X93619000Y-136449000D01*
X93619000Y-136449000D02*
X113039179Y-136449000D01*
X113039179Y-136449000D02*
X115000000Y-138409821D01*
%TO.N,Net-(D1-K)*%
X116500000Y-65310000D02*
X118851000Y-67661000D01*
X118851000Y-72367521D02*
X118851000Y-111384000D01*
X118851000Y-111384000D02*
X116060000Y-114175000D01*
%TO.N,12V*%
X116750000Y-118000000D02*
X119399000Y-115351000D01*
X119399000Y-115351000D02*
X119399000Y-105849000D01*
X119399000Y-105849000D02*
X121498000Y-103750000D01*
%TO.N,Net-(U2D-+)*%
X116060000Y-116715000D02*
X113718003Y-114373003D01*
X113718003Y-114373003D02*
X113718003Y-90531997D01*
X113718003Y-90531997D02*
X115250000Y-89000000D01*
X115250000Y-89000000D02*
X115250000Y-88250000D01*
X115250000Y-88250000D02*
X110765069Y-83765069D01*
X110765069Y-83765069D02*
X100930308Y-83765069D01*
X100930308Y-83765069D02*
X99729308Y-84966069D01*
%TO.N,Net-(U2A--)*%
X113018003Y-89250000D02*
X113718003Y-88550000D01*
X113718003Y-88550000D02*
X113718003Y-87293950D01*
X113718003Y-87293950D02*
X111390122Y-84966069D01*
X111390122Y-84966069D02*
X102229308Y-84966069D01*
X113018003Y-107056997D02*
X113018003Y-89250000D01*
X108440000Y-111635000D02*
X113018003Y-107056997D01*
%TO.N,GND*%
X99000000Y-115000000D02*
X100500000Y-115000000D01*
X100500000Y-115000000D02*
X105500000Y-120000000D01*
%TO.N,Net-(SW3A-B)*%
X99750000Y-107487646D02*
X101582074Y-109319720D01*
X101582074Y-109319720D02*
X108172748Y-109319720D01*
X108172748Y-109319720D02*
X112617003Y-104875465D01*
X112617003Y-104875465D02*
X112617003Y-87750000D01*
%TO.N,12V*%
X121498000Y-103750000D02*
X121498000Y-58568885D01*
X121498000Y-58568885D02*
X99354429Y-36425314D01*
X109695000Y-118000000D02*
X116750000Y-118000000D01*
X108440000Y-119255000D02*
X109695000Y-118000000D01*
%TO.N,-12V*%
X119000000Y-119295000D02*
X120131370Y-119295000D01*
X120131370Y-119295000D02*
X121899000Y-117527370D01*
X121899000Y-49722125D02*
X104911189Y-32734314D01*
X104911189Y-32734314D02*
X100505429Y-32734314D01*
X100505429Y-32734314D02*
X99354429Y-33885314D01*
%TO.N,Net-(J12-Pin_4)*%
X99000000Y-156250000D02*
X102000000Y-153250000D01*
X102000000Y-153250000D02*
X102000000Y-151409821D01*
X102000000Y-151409821D02*
X115000000Y-138409821D01*
X94000000Y-156250000D02*
X99000000Y-156250000D01*
%TO.N,Net-(J1-Pin_1)*%
X91460000Y-156250000D02*
X87160331Y-151950331D01*
X87160331Y-151950331D02*
X79175393Y-151950331D01*
X79175393Y-151950331D02*
X65500000Y-138274938D01*
%TO.N,Net-(J12-Pin_2)*%
X88920000Y-156250000D02*
X85021331Y-152351331D01*
X85021331Y-152351331D02*
X73351331Y-152351331D01*
X61000000Y-140000000D02*
X61000000Y-101950661D01*
X73351331Y-152351331D02*
X61000000Y-140000000D01*
X61000000Y-101950661D02*
X65597898Y-97352763D01*
%TO.N,Net-(J12-Pin_1)*%
X65645193Y-77365117D02*
X58607080Y-84403230D01*
X58607080Y-84403230D02*
X58607080Y-140678175D01*
X58607080Y-140678175D02*
X74182236Y-156253331D01*
X74182236Y-156253331D02*
X86376669Y-156253331D01*
X86376669Y-156253331D02*
X86380000Y-156250000D01*
%TO.N,GND*%
X78407652Y-85000000D02*
X80407652Y-83000000D01*
X80407652Y-83000000D02*
X90250000Y-83000000D01*
%TO.N,Net-(D9-A)*%
X65250000Y-113920000D02*
X65250000Y-108000000D01*
%TO.N,Net-(D10-A)*%
X61520156Y-89039805D02*
X63367473Y-89039805D01*
X63367473Y-89039805D02*
X69898898Y-95571230D01*
X69898898Y-111811102D02*
X65250000Y-116460000D01*
X69898898Y-95571230D02*
X69898898Y-111811102D01*
%TO.N,12V*%
X73250000Y-77338412D02*
X73250000Y-90750000D01*
X69599000Y-73687412D02*
X73250000Y-77338412D01*
X69599000Y-43250743D02*
X69599000Y-73687412D01*
X76424429Y-36425314D02*
X69599000Y-43250743D01*
X71268000Y-112982000D02*
X65250000Y-119000000D01*
X73250000Y-90750000D02*
X71268000Y-92732000D01*
X71268000Y-92732000D02*
X71268000Y-112982000D01*
%TO.N,-12V*%
X70000000Y-73521312D02*
X70000000Y-47250000D01*
X73750000Y-77271312D02*
X70000000Y-73521312D01*
X72870000Y-119000000D02*
X71669000Y-117799000D01*
X73750000Y-91250000D02*
X73750000Y-77271312D01*
X71669000Y-117799000D02*
X71669000Y-93331000D01*
X77575429Y-35036314D02*
X76424429Y-33885314D01*
X71669000Y-93331000D02*
X73750000Y-91250000D01*
X70000000Y-47250000D02*
X77575429Y-39674571D01*
X77575429Y-39674571D02*
X77575429Y-35036314D01*
%TO.N,12V*%
X99354429Y-36425314D02*
X99354429Y-56965636D01*
X99354429Y-56965636D02*
X92770065Y-63550000D01*
X62356646Y-119001488D02*
X65248512Y-119001488D01*
X65248512Y-119001488D02*
X65250000Y-119000000D01*
%TO.N,GND*%
X75750000Y-114000000D02*
X73290000Y-116460000D01*
X73290000Y-116460000D02*
X72870000Y-116460000D01*
%TO.N,Net-(SW1A-C)*%
X90400000Y-124000000D02*
X81500000Y-124000000D01*
%TO.N,GND*%
X108440000Y-121795000D02*
X109879000Y-123234000D01*
X109879000Y-123234000D02*
X117939000Y-123234000D01*
X117939000Y-123234000D02*
X119000000Y-124295000D01*
%TO.N,-12V*%
X121899000Y-117527370D02*
X121899000Y-49722125D01*
%TO.N,12V*%
X105500000Y-115000000D02*
X105500000Y-116315000D01*
X105500000Y-116315000D02*
X108440000Y-119255000D01*
%TD*%
M02*
