M48
; DRILL file {KiCad 9.0.6} date 2026-05-15T18:41:43+1000
; FORMAT={-:-/ absolute / metric / decimal}
; #@! TF.CreationDate,2026-05-15T18:41:43+10:00
; #@! TF.GenerationSoftware,Kicad,Pcbnew,9.0.6
; #@! TF.FileFunction,Plated,1,2,PTH
FMAT,2
METRIC
; #@! TA.AperFunction,Plated,PTH,ComponentDrill
T1C0.800
; #@! TA.AperFunction,Plated,PTH,ComponentDrill
T2C0.900
; #@! TA.AperFunction,Plated,PTH,ComponentDrill
T3C1.000
; #@! TA.AperFunction,Plated,PTH,ComponentDrill
T4C1.800
; #@! TA.AperFunction,Plated,PTH,ComponentDrill
T5C6.000
%
G90
G05
T1
X61.5Y-86.0
X61.52Y-89.04
X62.357Y-114.001
X62.357Y-119.001
X63.09Y-130.0
X65.25Y-111.38
X65.25Y-113.92
X65.25Y-116.46
X65.25Y-119.0
X65.25Y-121.54
X65.25Y-124.08
X65.25Y-126.62
X71.34Y-55.0
X71.34Y-58.5
X71.66Y-86.0
X71.68Y-89.04
X72.87Y-111.38
X72.87Y-113.92
X72.87Y-116.46
X72.87Y-119.0
X72.87Y-121.54
X72.87Y-124.08
X72.87Y-126.62
X73.25Y-130.0
X75.59Y-127.75
X75.59Y-130.75
X75.67Y-108.0
X75.67Y-111.25
X75.75Y-114.0
X75.75Y-119.0
X77.59Y-89.5
X77.84Y-149.0
X81.5Y-55.0
X81.5Y-58.5
X85.75Y-127.75
X85.75Y-130.75
X85.83Y-108.0
X85.83Y-111.25
X87.75Y-89.5
X87.917Y-127.743
X87.92Y-130.75
X88.0Y-111.25
X88.0Y-149.0
X90.0Y-107.488
X90.25Y-72.84
X90.25Y-83.0
X90.34Y-152.25
X90.42Y-149.0
X90.5Y-93.67
X90.5Y-103.83
X90.5Y-140.75
X90.5Y-145.75
X95.0Y-107.488
X98.077Y-127.743
X98.08Y-130.75
X98.16Y-111.25
X99.75Y-107.488
X100.5Y-152.25
X100.58Y-149.0
X103.5Y-55.19
X103.5Y-65.35
X104.75Y-107.488
X105.5Y-115.0
X105.5Y-120.0
X105.554Y-122.355
X105.554Y-127.355
X106.5Y-55.19
X106.5Y-65.35
X107.617Y-87.75
X108.25Y-130.25
X108.44Y-111.635
X108.44Y-114.175
X108.44Y-116.715
X108.44Y-119.255
X108.44Y-121.795
X108.44Y-124.335
X108.44Y-126.875
X109.501Y-55.19
X109.501Y-65.35
X112.617Y-87.75
X116.06Y-111.635
X116.06Y-114.175
X116.06Y-116.715
X116.06Y-119.255
X116.06Y-121.795
X116.06Y-124.335
X116.06Y-126.875
X117.75Y-88.5
X117.75Y-93.5
X117.75Y-96.0
X117.75Y-101.0
X117.75Y-103.5
X117.75Y-108.5
X118.41Y-130.25
X119.0Y-119.295
X119.0Y-124.295
X120.5Y-106.75
X120.5Y-116.91
T2
X65.25Y-108.0
X72.87Y-108.0
X73.88Y-62.0
X73.88Y-65.5
X73.88Y-69.0
X81.5Y-62.0
X81.5Y-65.5
X81.5Y-69.0
X107.675Y-104.619
X107.675Y-108.119
X107.679Y-101.136
X107.69Y-94.238
X107.692Y-97.668
X107.698Y-90.786
X113.0Y-57.69
X113.0Y-65.31
X115.295Y-104.619
X115.295Y-108.119
X115.299Y-101.136
X115.31Y-94.238
X115.312Y-97.668
X115.318Y-90.786
X116.5Y-57.69
X116.5Y-65.31
T3
X76.424Y-33.885
X76.424Y-36.425
X78.315Y-104.99
X78.4Y-145.75
X78.408Y-85.0
X78.964Y-33.885
X78.964Y-36.425
X80.815Y-104.99
X80.9Y-145.75
X80.908Y-85.0
X81.504Y-33.885
X81.504Y-36.425
X83.315Y-104.99
X83.4Y-145.75
X83.408Y-85.0
X86.38Y-156.25
X87.77Y-63.55
X88.92Y-156.25
X90.27Y-63.55
X91.46Y-156.25
X92.77Y-63.55
X94.0Y-156.25
X97.1Y-145.75
X97.216Y-104.954
X97.229Y-84.966
X99.354Y-33.885
X99.354Y-36.425
X99.6Y-145.75
X99.716Y-104.954
X99.729Y-84.966
X101.894Y-33.885
X101.894Y-36.425
X102.1Y-145.75
X102.216Y-104.954
X102.229Y-84.966
X104.434Y-33.885
X104.434Y-36.425
X185.545Y-149.994
X188.085Y-149.994
X190.625Y-149.994
X193.165Y-149.994
T5
X65.5Y-138.275
X65.598Y-97.353
X65.645Y-77.365
X115.0Y-138.41
X164.662Y-132.021
X164.76Y-91.073
X164.807Y-71.086
X214.162Y-132.131
T3
G00X82.375Y-115.0
M15
G01X80.625Y-115.0
M16
G05
G00X82.375Y-119.5
M15
G01X80.625Y-119.5
M16
G05
G00X82.375Y-124.0
M15
G01X80.625Y-124.0
M16
G05
G00X91.275Y-115.0
M15
G01X89.525Y-115.0
M16
G05
G00X91.275Y-119.5
M15
G01X89.525Y-119.5
M16
G05
G00X91.275Y-124.0
M15
G01X89.525Y-124.0
M16
G05
G00X99.875Y-115.0
M15
G01X98.125Y-115.0
M16
G05
G00X99.875Y-119.5
M15
G01X98.125Y-119.5
M16
G05
G00X99.875Y-124.0
M15
G01X98.125Y-124.0
M16
G05
G00X112.687Y-73.156
M15
G01X114.437Y-73.156
M16
G05
G00X112.687Y-77.656
M15
G01X114.437Y-77.656
M16
G05
G00X112.687Y-82.156
M15
G01X114.437Y-82.156
M16
G05
T4
G00X76.415Y-98.14
M15
G01X76.415Y-97.84
M16
G05
G00X76.5Y-138.9
M15
G01X76.5Y-138.6
M16
G05
G00X76.508Y-78.15
M15
G01X76.508Y-77.85
M16
G05
G00X85.215Y-98.14
M15
G01X85.215Y-97.84
M16
G05
G00X85.3Y-138.9
M15
G01X85.3Y-138.6
M16
G05
G00X85.308Y-78.15
M15
G01X85.308Y-77.85
M16
G05
G00X85.87Y-56.7
M15
G01X85.87Y-56.4
M16
G05
G00X94.67Y-56.7
M15
G01X94.67Y-56.4
M16
G05
G00X95.2Y-138.9
M15
G01X95.2Y-138.6
M16
G05
G00X95.316Y-98.104
M15
G01X95.316Y-97.804
M16
G05
G00X95.329Y-78.116
M15
G01X95.329Y-77.816
M16
G05
G00X104.0Y-138.9
M15
G01X104.0Y-138.6
M16
G05
G00X104.116Y-98.104
M15
G01X104.116Y-97.804
M16
G05
G00X104.129Y-78.116
M15
G01X104.129Y-77.816
M16
G05
M30
