%TF.GenerationSoftware,KiCad,Pcbnew,9.0.6*%
%TF.CreationDate,2026-05-15T18:41:46+10:00*%
%TF.ProjectId,diode-ladder-filter,64696f64-652d-46c6-9164-6465722d6669,rev?*%
%TF.SameCoordinates,Original*%
%TF.FileFunction,Profile,NP*%
%FSLAX46Y46*%
G04 Gerber Fmt 4.6, Leading zero omitted, Abs format (unit mm)*
G04 Created by KiCad (PCBNEW 9.0.6) date 2026-05-15 18:41:46*
%MOMM*%
%LPD*%
G01*
G04 APERTURE LIST*
%TA.AperFunction,Profile*%
%ADD10C,0.050000*%
%TD*%
G04 APERTURE END LIST*
D10*
X184193044Y-71245643D02*
G75*
G02*
X176130786Y-71245643I-4031129J0D01*
G01*
X176130786Y-71245643D02*
G75*
G02*
X184193044Y-71245643I4031129J0D01*
G01*
X193443044Y-49745643D02*
G75*
G02*
X185380786Y-49745643I-4031129J0D01*
G01*
X185380786Y-49745643D02*
G75*
G02*
X193443044Y-49745643I4031129J0D01*
G01*
X157165600Y-36743865D02*
X221659520Y-36743865D01*
X221659520Y-152042188D01*
X157165600Y-152042188D01*
X157165600Y-36743865D01*
X176344834Y-106412788D02*
X202500000Y-106412788D01*
X202500000Y-120087211D01*
X176344834Y-120087211D01*
X176344834Y-106412788D01*
X202943044Y-91214514D02*
G75*
G02*
X194880786Y-91214514I-4031129J0D01*
G01*
X194880786Y-91214514D02*
G75*
G02*
X202943044Y-91214514I4031129J0D01*
G01*
X202943044Y-71245643D02*
G75*
G02*
X194880786Y-71245643I-4031129J0D01*
G01*
X194880786Y-71245643D02*
G75*
G02*
X202943044Y-71245643I4031129J0D01*
G01*
X183943044Y-91214514D02*
G75*
G02*
X175880786Y-91214514I-4031129J0D01*
G01*
X175880786Y-91214514D02*
G75*
G02*
X183943044Y-91214514I4031129J0D01*
G01*
X202724173Y-131995643D02*
G75*
G02*
X194661915Y-131995643I-4031129J0D01*
G01*
X194661915Y-131995643D02*
G75*
G02*
X202724173Y-131995643I4031129J0D01*
G01*
X184193044Y-131995643D02*
G75*
G02*
X176130786Y-131995643I-4031129J0D01*
G01*
X176130786Y-131995643D02*
G75*
G02*
X184193044Y-131995643I4031129J0D01*
G01*
X208536264Y-64745643D02*
X216912434Y-64745643D01*
X216912434Y-78078498D01*
X208536264Y-78078498D01*
X208536264Y-64745643D01*
X58006080Y-29500000D02*
X122500000Y-29500000D01*
X122500000Y-158298323D01*
X58006080Y-158298323D01*
X58006080Y-29500000D01*
M02*
