%TF.GenerationSoftware,KiCad,Pcbnew,9.0.6*%
%TF.CreationDate,2026-05-04T10:57:11+10:00*%
%TF.ProjectId,diode-ladder-filter,64696f64-652d-46c6-9164-6465722d6669,rev?*%
%TF.SameCoordinates,Original*%
%TF.FileFunction,Legend,Top*%
%TF.FilePolarity,Positive*%
%FSLAX46Y46*%
G04 Gerber Fmt 4.6, Leading zero omitted, Abs format (unit mm)*
G04 Created by KiCad (PCBNEW 9.0.6) date 2026-05-04 10:57:11*
%MOMM*%
%LPD*%
G01*
G04 APERTURE LIST*
%ADD10C,0.100000*%
%ADD11C,0.250000*%
%ADD12C,0.300000*%
%ADD13C,0.000000*%
G04 APERTURE END LIST*
D10*
X190116814Y-114954024D02*
X218116814Y-114954024D01*
X218116814Y-135954024D01*
X190116814Y-135954024D01*
X190116814Y-114954024D01*
X164001099Y-87825451D02*
X199001099Y-87825451D01*
X199001099Y-106255809D01*
X164001099Y-106255809D01*
X164001099Y-87825451D01*
X181906243Y-138580801D02*
X190116814Y-125454024D01*
X210116814Y-61954024D02*
X245116814Y-61954024D01*
X245116814Y-84954024D01*
X210116814Y-84954024D01*
X210116814Y-61954024D01*
X164003201Y-62042272D02*
X199003201Y-62042272D01*
X199003201Y-82491095D01*
X164003201Y-82491095D01*
X164003201Y-62042272D01*
X164406243Y-138580801D02*
X199406243Y-138580801D01*
X199406243Y-156529189D01*
X164406243Y-156529189D01*
X164406243Y-138580801D01*
X210116814Y-138543681D02*
X245116814Y-138543681D01*
X245116814Y-156364367D01*
X210116814Y-156364367D01*
X210116814Y-138543681D01*
D11*
X211019382Y-119818643D02*
X211019382Y-118818643D01*
X211019382Y-119294833D02*
X211590810Y-119294833D01*
X211590810Y-119818643D02*
X211590810Y-118818643D01*
X212067001Y-119818643D02*
X212067001Y-118818643D01*
X212067001Y-118818643D02*
X212447953Y-118818643D01*
X212447953Y-118818643D02*
X212543191Y-118866262D01*
X212543191Y-118866262D02*
X212590810Y-118913881D01*
X212590810Y-118913881D02*
X212638429Y-119009119D01*
X212638429Y-119009119D02*
X212638429Y-119151976D01*
X212638429Y-119151976D02*
X212590810Y-119247214D01*
X212590810Y-119247214D02*
X212543191Y-119294833D01*
X212543191Y-119294833D02*
X212447953Y-119342452D01*
X212447953Y-119342452D02*
X212067001Y-119342452D01*
X213400334Y-119294833D02*
X213067001Y-119294833D01*
X213067001Y-119818643D02*
X213067001Y-118818643D01*
X213067001Y-118818643D02*
X213543191Y-118818643D01*
D12*
X213099896Y-90183424D02*
X213314182Y-90254852D01*
X213314182Y-90254852D02*
X213671324Y-90254852D01*
X213671324Y-90254852D02*
X213814182Y-90183424D01*
X213814182Y-90183424D02*
X213885610Y-90111995D01*
X213885610Y-90111995D02*
X213957039Y-89969138D01*
X213957039Y-89969138D02*
X213957039Y-89826281D01*
X213957039Y-89826281D02*
X213885610Y-89683424D01*
X213885610Y-89683424D02*
X213814182Y-89611995D01*
X213814182Y-89611995D02*
X213671324Y-89540566D01*
X213671324Y-89540566D02*
X213385610Y-89469138D01*
X213385610Y-89469138D02*
X213242753Y-89397709D01*
X213242753Y-89397709D02*
X213171324Y-89326281D01*
X213171324Y-89326281D02*
X213099896Y-89183424D01*
X213099896Y-89183424D02*
X213099896Y-89040566D01*
X213099896Y-89040566D02*
X213171324Y-88897709D01*
X213171324Y-88897709D02*
X213242753Y-88826281D01*
X213242753Y-88826281D02*
X213385610Y-88754852D01*
X213385610Y-88754852D02*
X213742753Y-88754852D01*
X213742753Y-88754852D02*
X213957039Y-88826281D01*
X214885610Y-88754852D02*
X215171324Y-88754852D01*
X215171324Y-88754852D02*
X215314181Y-88826281D01*
X215314181Y-88826281D02*
X215457038Y-88969138D01*
X215457038Y-88969138D02*
X215528467Y-89254852D01*
X215528467Y-89254852D02*
X215528467Y-89754852D01*
X215528467Y-89754852D02*
X215457038Y-90040566D01*
X215457038Y-90040566D02*
X215314181Y-90183424D01*
X215314181Y-90183424D02*
X215171324Y-90254852D01*
X215171324Y-90254852D02*
X214885610Y-90254852D01*
X214885610Y-90254852D02*
X214742753Y-90183424D01*
X214742753Y-90183424D02*
X214599895Y-90040566D01*
X214599895Y-90040566D02*
X214528467Y-89754852D01*
X214528467Y-89754852D02*
X214528467Y-89254852D01*
X214528467Y-89254852D02*
X214599895Y-88969138D01*
X214599895Y-88969138D02*
X214742753Y-88826281D01*
X214742753Y-88826281D02*
X214885610Y-88754852D01*
X216671324Y-89469138D02*
X216171324Y-89469138D01*
X216171324Y-90254852D02*
X216171324Y-88754852D01*
X216171324Y-88754852D02*
X216885610Y-88754852D01*
X217242753Y-88754852D02*
X218099896Y-88754852D01*
X217671324Y-90254852D02*
X217671324Y-88754852D01*
X219742752Y-89469138D02*
X220242752Y-89469138D01*
X220457038Y-90254852D02*
X219742752Y-90254852D01*
X219742752Y-90254852D02*
X219742752Y-88754852D01*
X219742752Y-88754852D02*
X220457038Y-88754852D01*
X221099895Y-90254852D02*
X221099895Y-88754852D01*
X221099895Y-88754852D02*
X221957038Y-90254852D01*
X221957038Y-90254852D02*
X221957038Y-88754852D01*
X222457039Y-88754852D02*
X222957039Y-90254852D01*
X222957039Y-90254852D02*
X223457039Y-88754852D01*
X223957038Y-90111995D02*
X224028467Y-90183424D01*
X224028467Y-90183424D02*
X223957038Y-90254852D01*
X223957038Y-90254852D02*
X223885610Y-90183424D01*
X223885610Y-90183424D02*
X223957038Y-90111995D01*
X223957038Y-90111995D02*
X223957038Y-90254852D01*
X165912752Y-89983422D02*
X165841324Y-90054851D01*
X165841324Y-90054851D02*
X165627038Y-90126279D01*
X165627038Y-90126279D02*
X165484181Y-90126279D01*
X165484181Y-90126279D02*
X165269895Y-90054851D01*
X165269895Y-90054851D02*
X165127038Y-89911993D01*
X165127038Y-89911993D02*
X165055609Y-89769136D01*
X165055609Y-89769136D02*
X164984181Y-89483422D01*
X164984181Y-89483422D02*
X164984181Y-89269136D01*
X164984181Y-89269136D02*
X165055609Y-88983422D01*
X165055609Y-88983422D02*
X165127038Y-88840565D01*
X165127038Y-88840565D02*
X165269895Y-88697708D01*
X165269895Y-88697708D02*
X165484181Y-88626279D01*
X165484181Y-88626279D02*
X165627038Y-88626279D01*
X165627038Y-88626279D02*
X165841324Y-88697708D01*
X165841324Y-88697708D02*
X165912752Y-88769136D01*
X166341324Y-88626279D02*
X166841324Y-90126279D01*
X166841324Y-90126279D02*
X167341324Y-88626279D01*
X167769895Y-88769136D02*
X167841323Y-88697708D01*
X167841323Y-88697708D02*
X167984181Y-88626279D01*
X167984181Y-88626279D02*
X168341323Y-88626279D01*
X168341323Y-88626279D02*
X168484181Y-88697708D01*
X168484181Y-88697708D02*
X168555609Y-88769136D01*
X168555609Y-88769136D02*
X168627038Y-88911993D01*
X168627038Y-88911993D02*
X168627038Y-89054851D01*
X168627038Y-89054851D02*
X168555609Y-89269136D01*
X168555609Y-89269136D02*
X167698466Y-90126279D01*
X167698466Y-90126279D02*
X168627038Y-90126279D01*
D11*
X189969891Y-89466792D02*
X190112748Y-89514411D01*
X190112748Y-89514411D02*
X190350843Y-89514411D01*
X190350843Y-89514411D02*
X190446081Y-89466792D01*
X190446081Y-89466792D02*
X190493700Y-89419172D01*
X190493700Y-89419172D02*
X190541319Y-89323934D01*
X190541319Y-89323934D02*
X190541319Y-89228696D01*
X190541319Y-89228696D02*
X190493700Y-89133458D01*
X190493700Y-89133458D02*
X190446081Y-89085839D01*
X190446081Y-89085839D02*
X190350843Y-89038220D01*
X190350843Y-89038220D02*
X190160367Y-88990601D01*
X190160367Y-88990601D02*
X190065129Y-88942982D01*
X190065129Y-88942982D02*
X190017510Y-88895363D01*
X190017510Y-88895363D02*
X189969891Y-88800125D01*
X189969891Y-88800125D02*
X189969891Y-88704887D01*
X189969891Y-88704887D02*
X190017510Y-88609649D01*
X190017510Y-88609649D02*
X190065129Y-88562030D01*
X190065129Y-88562030D02*
X190160367Y-88514411D01*
X190160367Y-88514411D02*
X190398462Y-88514411D01*
X190398462Y-88514411D02*
X190541319Y-88562030D01*
X191541319Y-89419172D02*
X191493700Y-89466792D01*
X191493700Y-89466792D02*
X191350843Y-89514411D01*
X191350843Y-89514411D02*
X191255605Y-89514411D01*
X191255605Y-89514411D02*
X191112748Y-89466792D01*
X191112748Y-89466792D02*
X191017510Y-89371553D01*
X191017510Y-89371553D02*
X190969891Y-89276315D01*
X190969891Y-89276315D02*
X190922272Y-89085839D01*
X190922272Y-89085839D02*
X190922272Y-88942982D01*
X190922272Y-88942982D02*
X190969891Y-88752506D01*
X190969891Y-88752506D02*
X191017510Y-88657268D01*
X191017510Y-88657268D02*
X191112748Y-88562030D01*
X191112748Y-88562030D02*
X191255605Y-88514411D01*
X191255605Y-88514411D02*
X191350843Y-88514411D01*
X191350843Y-88514411D02*
X191493700Y-88562030D01*
X191493700Y-88562030D02*
X191541319Y-88609649D01*
X191922272Y-89228696D02*
X192398462Y-89228696D01*
X191827034Y-89514411D02*
X192160367Y-88514411D01*
X192160367Y-88514411D02*
X192493700Y-89514411D01*
X193303224Y-89514411D02*
X192827034Y-89514411D01*
X192827034Y-89514411D02*
X192827034Y-88514411D01*
X193636558Y-88990601D02*
X193969891Y-88990601D01*
X194112748Y-89514411D02*
X193636558Y-89514411D01*
X193636558Y-89514411D02*
X193636558Y-88514411D01*
X193636558Y-88514411D02*
X194112748Y-88514411D01*
X215742123Y-140271024D02*
X215884980Y-140318643D01*
X215884980Y-140318643D02*
X216123075Y-140318643D01*
X216123075Y-140318643D02*
X216218313Y-140271024D01*
X216218313Y-140271024D02*
X216265932Y-140223404D01*
X216265932Y-140223404D02*
X216313551Y-140128166D01*
X216313551Y-140128166D02*
X216313551Y-140032928D01*
X216313551Y-140032928D02*
X216265932Y-139937690D01*
X216265932Y-139937690D02*
X216218313Y-139890071D01*
X216218313Y-139890071D02*
X216123075Y-139842452D01*
X216123075Y-139842452D02*
X215932599Y-139794833D01*
X215932599Y-139794833D02*
X215837361Y-139747214D01*
X215837361Y-139747214D02*
X215789742Y-139699595D01*
X215789742Y-139699595D02*
X215742123Y-139604357D01*
X215742123Y-139604357D02*
X215742123Y-139509119D01*
X215742123Y-139509119D02*
X215789742Y-139413881D01*
X215789742Y-139413881D02*
X215837361Y-139366262D01*
X215837361Y-139366262D02*
X215932599Y-139318643D01*
X215932599Y-139318643D02*
X216170694Y-139318643D01*
X216170694Y-139318643D02*
X216313551Y-139366262D01*
X217313551Y-140223404D02*
X217265932Y-140271024D01*
X217265932Y-140271024D02*
X217123075Y-140318643D01*
X217123075Y-140318643D02*
X217027837Y-140318643D01*
X217027837Y-140318643D02*
X216884980Y-140271024D01*
X216884980Y-140271024D02*
X216789742Y-140175785D01*
X216789742Y-140175785D02*
X216742123Y-140080547D01*
X216742123Y-140080547D02*
X216694504Y-139890071D01*
X216694504Y-139890071D02*
X216694504Y-139747214D01*
X216694504Y-139747214D02*
X216742123Y-139556738D01*
X216742123Y-139556738D02*
X216789742Y-139461500D01*
X216789742Y-139461500D02*
X216884980Y-139366262D01*
X216884980Y-139366262D02*
X217027837Y-139318643D01*
X217027837Y-139318643D02*
X217123075Y-139318643D01*
X217123075Y-139318643D02*
X217265932Y-139366262D01*
X217265932Y-139366262D02*
X217313551Y-139413881D01*
X217694504Y-140032928D02*
X218170694Y-140032928D01*
X217599266Y-140318643D02*
X217932599Y-139318643D01*
X217932599Y-139318643D02*
X218265932Y-140318643D01*
X219075456Y-140318643D02*
X218599266Y-140318643D01*
X218599266Y-140318643D02*
X218599266Y-139318643D01*
X219408790Y-139794833D02*
X219742123Y-139794833D01*
X219884980Y-140318643D02*
X219408790Y-140318643D01*
X219408790Y-140318643D02*
X219408790Y-139318643D01*
X219408790Y-139318643D02*
X219884980Y-139318643D01*
X189971763Y-140271024D02*
X190114620Y-140318643D01*
X190114620Y-140318643D02*
X190352715Y-140318643D01*
X190352715Y-140318643D02*
X190447953Y-140271024D01*
X190447953Y-140271024D02*
X190495572Y-140223404D01*
X190495572Y-140223404D02*
X190543191Y-140128166D01*
X190543191Y-140128166D02*
X190543191Y-140032928D01*
X190543191Y-140032928D02*
X190495572Y-139937690D01*
X190495572Y-139937690D02*
X190447953Y-139890071D01*
X190447953Y-139890071D02*
X190352715Y-139842452D01*
X190352715Y-139842452D02*
X190162239Y-139794833D01*
X190162239Y-139794833D02*
X190067001Y-139747214D01*
X190067001Y-139747214D02*
X190019382Y-139699595D01*
X190019382Y-139699595D02*
X189971763Y-139604357D01*
X189971763Y-139604357D02*
X189971763Y-139509119D01*
X189971763Y-139509119D02*
X190019382Y-139413881D01*
X190019382Y-139413881D02*
X190067001Y-139366262D01*
X190067001Y-139366262D02*
X190162239Y-139318643D01*
X190162239Y-139318643D02*
X190400334Y-139318643D01*
X190400334Y-139318643D02*
X190543191Y-139366262D01*
X191543191Y-140223404D02*
X191495572Y-140271024D01*
X191495572Y-140271024D02*
X191352715Y-140318643D01*
X191352715Y-140318643D02*
X191257477Y-140318643D01*
X191257477Y-140318643D02*
X191114620Y-140271024D01*
X191114620Y-140271024D02*
X191019382Y-140175785D01*
X191019382Y-140175785D02*
X190971763Y-140080547D01*
X190971763Y-140080547D02*
X190924144Y-139890071D01*
X190924144Y-139890071D02*
X190924144Y-139747214D01*
X190924144Y-139747214D02*
X190971763Y-139556738D01*
X190971763Y-139556738D02*
X191019382Y-139461500D01*
X191019382Y-139461500D02*
X191114620Y-139366262D01*
X191114620Y-139366262D02*
X191257477Y-139318643D01*
X191257477Y-139318643D02*
X191352715Y-139318643D01*
X191352715Y-139318643D02*
X191495572Y-139366262D01*
X191495572Y-139366262D02*
X191543191Y-139413881D01*
X191924144Y-140032928D02*
X192400334Y-140032928D01*
X191828906Y-140318643D02*
X192162239Y-139318643D01*
X192162239Y-139318643D02*
X192495572Y-140318643D01*
X193305096Y-140318643D02*
X192828906Y-140318643D01*
X192828906Y-140318643D02*
X192828906Y-139318643D01*
X193638430Y-139794833D02*
X193971763Y-139794833D01*
X194114620Y-140318643D02*
X193638430Y-140318643D01*
X193638430Y-140318643D02*
X193638430Y-139318643D01*
X193638430Y-139318643D02*
X194114620Y-139318643D01*
X236876525Y-82818643D02*
X237447953Y-82818643D01*
X237162239Y-83818643D02*
X237162239Y-82818643D01*
X237733668Y-83532928D02*
X238209858Y-83532928D01*
X237638430Y-83818643D02*
X237971763Y-82818643D01*
X237971763Y-82818643D02*
X238305096Y-83818643D01*
X238638430Y-83818643D02*
X238638430Y-82818643D01*
X238638430Y-82818643D02*
X238971763Y-83532928D01*
X238971763Y-83532928D02*
X239305096Y-82818643D01*
X239305096Y-82818643D02*
X239305096Y-83818643D01*
X239781287Y-83294833D02*
X240114620Y-83294833D01*
X240257477Y-83818643D02*
X239781287Y-83818643D01*
X239781287Y-83818643D02*
X239781287Y-82818643D01*
X239781287Y-82818643D02*
X240257477Y-82818643D01*
D12*
X202028467Y-43611995D02*
X201957039Y-43683424D01*
X201957039Y-43683424D02*
X201742753Y-43754852D01*
X201742753Y-43754852D02*
X201599896Y-43754852D01*
X201599896Y-43754852D02*
X201385610Y-43683424D01*
X201385610Y-43683424D02*
X201242753Y-43540566D01*
X201242753Y-43540566D02*
X201171324Y-43397709D01*
X201171324Y-43397709D02*
X201099896Y-43111995D01*
X201099896Y-43111995D02*
X201099896Y-42897709D01*
X201099896Y-42897709D02*
X201171324Y-42611995D01*
X201171324Y-42611995D02*
X201242753Y-42469138D01*
X201242753Y-42469138D02*
X201385610Y-42326281D01*
X201385610Y-42326281D02*
X201599896Y-42254852D01*
X201599896Y-42254852D02*
X201742753Y-42254852D01*
X201742753Y-42254852D02*
X201957039Y-42326281D01*
X201957039Y-42326281D02*
X202028467Y-42397709D01*
X202671324Y-42254852D02*
X202671324Y-43469138D01*
X202671324Y-43469138D02*
X202742753Y-43611995D01*
X202742753Y-43611995D02*
X202814182Y-43683424D01*
X202814182Y-43683424D02*
X202957039Y-43754852D01*
X202957039Y-43754852D02*
X203242753Y-43754852D01*
X203242753Y-43754852D02*
X203385610Y-43683424D01*
X203385610Y-43683424D02*
X203457039Y-43611995D01*
X203457039Y-43611995D02*
X203528467Y-43469138D01*
X203528467Y-43469138D02*
X203528467Y-42254852D01*
X204028468Y-42254852D02*
X204885611Y-42254852D01*
X204457039Y-43754852D02*
X204457039Y-42254852D01*
X205671325Y-42254852D02*
X205957039Y-42254852D01*
X205957039Y-42254852D02*
X206099896Y-42326281D01*
X206099896Y-42326281D02*
X206242753Y-42469138D01*
X206242753Y-42469138D02*
X206314182Y-42754852D01*
X206314182Y-42754852D02*
X206314182Y-43254852D01*
X206314182Y-43254852D02*
X206242753Y-43540566D01*
X206242753Y-43540566D02*
X206099896Y-43683424D01*
X206099896Y-43683424D02*
X205957039Y-43754852D01*
X205957039Y-43754852D02*
X205671325Y-43754852D01*
X205671325Y-43754852D02*
X205528468Y-43683424D01*
X205528468Y-43683424D02*
X205385610Y-43540566D01*
X205385610Y-43540566D02*
X205314182Y-43254852D01*
X205314182Y-43254852D02*
X205314182Y-42754852D01*
X205314182Y-42754852D02*
X205385610Y-42469138D01*
X205385610Y-42469138D02*
X205528468Y-42326281D01*
X205528468Y-42326281D02*
X205671325Y-42254852D01*
X207457039Y-42969138D02*
X206957039Y-42969138D01*
X206957039Y-43754852D02*
X206957039Y-42254852D01*
X206957039Y-42254852D02*
X207671325Y-42254852D01*
X208742753Y-42969138D02*
X208242753Y-42969138D01*
X208242753Y-43754852D02*
X208242753Y-42254852D01*
X208242753Y-42254852D02*
X208957039Y-42254852D01*
X211528467Y-64254852D02*
X211028467Y-63540566D01*
X210671324Y-64254852D02*
X210671324Y-62754852D01*
X210671324Y-62754852D02*
X211242753Y-62754852D01*
X211242753Y-62754852D02*
X211385610Y-62826281D01*
X211385610Y-62826281D02*
X211457039Y-62897709D01*
X211457039Y-62897709D02*
X211528467Y-63040566D01*
X211528467Y-63040566D02*
X211528467Y-63254852D01*
X211528467Y-63254852D02*
X211457039Y-63397709D01*
X211457039Y-63397709D02*
X211385610Y-63469138D01*
X211385610Y-63469138D02*
X211242753Y-63540566D01*
X211242753Y-63540566D02*
X210671324Y-63540566D01*
X212171324Y-63469138D02*
X212671324Y-63469138D01*
X212885610Y-64254852D02*
X212171324Y-64254852D01*
X212171324Y-64254852D02*
X212171324Y-62754852D01*
X212171324Y-62754852D02*
X212885610Y-62754852D01*
X213457039Y-64183424D02*
X213671325Y-64254852D01*
X213671325Y-64254852D02*
X214028467Y-64254852D01*
X214028467Y-64254852D02*
X214171325Y-64183424D01*
X214171325Y-64183424D02*
X214242753Y-64111995D01*
X214242753Y-64111995D02*
X214314182Y-63969138D01*
X214314182Y-63969138D02*
X214314182Y-63826281D01*
X214314182Y-63826281D02*
X214242753Y-63683424D01*
X214242753Y-63683424D02*
X214171325Y-63611995D01*
X214171325Y-63611995D02*
X214028467Y-63540566D01*
X214028467Y-63540566D02*
X213742753Y-63469138D01*
X213742753Y-63469138D02*
X213599896Y-63397709D01*
X213599896Y-63397709D02*
X213528467Y-63326281D01*
X213528467Y-63326281D02*
X213457039Y-63183424D01*
X213457039Y-63183424D02*
X213457039Y-63040566D01*
X213457039Y-63040566D02*
X213528467Y-62897709D01*
X213528467Y-62897709D02*
X213599896Y-62826281D01*
X213599896Y-62826281D02*
X213742753Y-62754852D01*
X213742753Y-62754852D02*
X214099896Y-62754852D01*
X214099896Y-62754852D02*
X214314182Y-62826281D01*
X215242753Y-62754852D02*
X215528467Y-62754852D01*
X215528467Y-62754852D02*
X215671324Y-62826281D01*
X215671324Y-62826281D02*
X215814181Y-62969138D01*
X215814181Y-62969138D02*
X215885610Y-63254852D01*
X215885610Y-63254852D02*
X215885610Y-63754852D01*
X215885610Y-63754852D02*
X215814181Y-64040566D01*
X215814181Y-64040566D02*
X215671324Y-64183424D01*
X215671324Y-64183424D02*
X215528467Y-64254852D01*
X215528467Y-64254852D02*
X215242753Y-64254852D01*
X215242753Y-64254852D02*
X215099896Y-64183424D01*
X215099896Y-64183424D02*
X214957038Y-64040566D01*
X214957038Y-64040566D02*
X214885610Y-63754852D01*
X214885610Y-63754852D02*
X214885610Y-63254852D01*
X214885610Y-63254852D02*
X214957038Y-62969138D01*
X214957038Y-62969138D02*
X215099896Y-62826281D01*
X215099896Y-62826281D02*
X215242753Y-62754852D01*
X216528467Y-64254852D02*
X216528467Y-62754852D01*
X216528467Y-62754852D02*
X217385610Y-64254852D01*
X217385610Y-64254852D02*
X217385610Y-62754852D01*
X218028468Y-63826281D02*
X218742754Y-63826281D01*
X217885611Y-64254852D02*
X218385611Y-62754852D01*
X218385611Y-62754852D02*
X218885611Y-64254852D01*
X219385610Y-64254852D02*
X219385610Y-62754852D01*
X219385610Y-62754852D02*
X220242753Y-64254852D01*
X220242753Y-64254852D02*
X220242753Y-62754852D01*
X221814182Y-64111995D02*
X221742754Y-64183424D01*
X221742754Y-64183424D02*
X221528468Y-64254852D01*
X221528468Y-64254852D02*
X221385611Y-64254852D01*
X221385611Y-64254852D02*
X221171325Y-64183424D01*
X221171325Y-64183424D02*
X221028468Y-64040566D01*
X221028468Y-64040566D02*
X220957039Y-63897709D01*
X220957039Y-63897709D02*
X220885611Y-63611995D01*
X220885611Y-63611995D02*
X220885611Y-63397709D01*
X220885611Y-63397709D02*
X220957039Y-63111995D01*
X220957039Y-63111995D02*
X221028468Y-62969138D01*
X221028468Y-62969138D02*
X221171325Y-62826281D01*
X221171325Y-62826281D02*
X221385611Y-62754852D01*
X221385611Y-62754852D02*
X221528468Y-62754852D01*
X221528468Y-62754852D02*
X221742754Y-62826281D01*
X221742754Y-62826281D02*
X221814182Y-62897709D01*
X222457039Y-63469138D02*
X222957039Y-63469138D01*
X223171325Y-64254852D02*
X222457039Y-64254852D01*
X222457039Y-64254852D02*
X222457039Y-62754852D01*
X222457039Y-62754852D02*
X223171325Y-62754852D01*
X191171324Y-116469138D02*
X190671324Y-116469138D01*
X190671324Y-117254852D02*
X190671324Y-115754852D01*
X190671324Y-115754852D02*
X191385610Y-115754852D01*
X191957038Y-117254852D02*
X191957038Y-115754852D01*
X193385610Y-117254852D02*
X192671324Y-117254852D01*
X192671324Y-117254852D02*
X192671324Y-115754852D01*
X193671325Y-115754852D02*
X194528468Y-115754852D01*
X194099896Y-117254852D02*
X194099896Y-115754852D01*
X195028467Y-116469138D02*
X195528467Y-116469138D01*
X195742753Y-117254852D02*
X195028467Y-117254852D01*
X195028467Y-117254852D02*
X195028467Y-115754852D01*
X195028467Y-115754852D02*
X195742753Y-115754852D01*
X197242753Y-117254852D02*
X196742753Y-116540566D01*
X196385610Y-117254852D02*
X196385610Y-115754852D01*
X196385610Y-115754852D02*
X196957039Y-115754852D01*
X196957039Y-115754852D02*
X197099896Y-115826281D01*
X197099896Y-115826281D02*
X197171325Y-115897709D01*
X197171325Y-115897709D02*
X197242753Y-116040566D01*
X197242753Y-116040566D02*
X197242753Y-116254852D01*
X197242753Y-116254852D02*
X197171325Y-116397709D01*
X197171325Y-116397709D02*
X197099896Y-116469138D01*
X197099896Y-116469138D02*
X196957039Y-116540566D01*
X196957039Y-116540566D02*
X196385610Y-116540566D01*
X198814182Y-115754852D02*
X199671325Y-115754852D01*
X199242753Y-117254852D02*
X199242753Y-115754852D01*
X200457039Y-116540566D02*
X200457039Y-117254852D01*
X199957039Y-115754852D02*
X200457039Y-116540566D01*
X200457039Y-116540566D02*
X200957039Y-115754852D01*
X201457038Y-117254852D02*
X201457038Y-115754852D01*
X201457038Y-115754852D02*
X202028467Y-115754852D01*
X202028467Y-115754852D02*
X202171324Y-115826281D01*
X202171324Y-115826281D02*
X202242753Y-115897709D01*
X202242753Y-115897709D02*
X202314181Y-116040566D01*
X202314181Y-116040566D02*
X202314181Y-116254852D01*
X202314181Y-116254852D02*
X202242753Y-116397709D01*
X202242753Y-116397709D02*
X202171324Y-116469138D01*
X202171324Y-116469138D02*
X202028467Y-116540566D01*
X202028467Y-116540566D02*
X201457038Y-116540566D01*
X202957038Y-116469138D02*
X203457038Y-116469138D01*
X203671324Y-117254852D02*
X202957038Y-117254852D01*
X202957038Y-117254852D02*
X202957038Y-115754852D01*
X202957038Y-115754852D02*
X203671324Y-115754852D01*
X191671324Y-165754852D02*
X191671324Y-164254852D01*
X191671324Y-164254852D02*
X192028467Y-164254852D01*
X192028467Y-164254852D02*
X192242753Y-164326281D01*
X192242753Y-164326281D02*
X192385610Y-164469138D01*
X192385610Y-164469138D02*
X192457039Y-164611995D01*
X192457039Y-164611995D02*
X192528467Y-164897709D01*
X192528467Y-164897709D02*
X192528467Y-165111995D01*
X192528467Y-165111995D02*
X192457039Y-165397709D01*
X192457039Y-165397709D02*
X192385610Y-165540566D01*
X192385610Y-165540566D02*
X192242753Y-165683424D01*
X192242753Y-165683424D02*
X192028467Y-165754852D01*
X192028467Y-165754852D02*
X191671324Y-165754852D01*
X193171324Y-165754852D02*
X193171324Y-164254852D01*
X194171325Y-164254852D02*
X194457039Y-164254852D01*
X194457039Y-164254852D02*
X194599896Y-164326281D01*
X194599896Y-164326281D02*
X194742753Y-164469138D01*
X194742753Y-164469138D02*
X194814182Y-164754852D01*
X194814182Y-164754852D02*
X194814182Y-165254852D01*
X194814182Y-165254852D02*
X194742753Y-165540566D01*
X194742753Y-165540566D02*
X194599896Y-165683424D01*
X194599896Y-165683424D02*
X194457039Y-165754852D01*
X194457039Y-165754852D02*
X194171325Y-165754852D01*
X194171325Y-165754852D02*
X194028468Y-165683424D01*
X194028468Y-165683424D02*
X193885610Y-165540566D01*
X193885610Y-165540566D02*
X193814182Y-165254852D01*
X193814182Y-165254852D02*
X193814182Y-164754852D01*
X193814182Y-164754852D02*
X193885610Y-164469138D01*
X193885610Y-164469138D02*
X194028468Y-164326281D01*
X194028468Y-164326281D02*
X194171325Y-164254852D01*
X195457039Y-165754852D02*
X195457039Y-164254852D01*
X195457039Y-164254852D02*
X195814182Y-164254852D01*
X195814182Y-164254852D02*
X196028468Y-164326281D01*
X196028468Y-164326281D02*
X196171325Y-164469138D01*
X196171325Y-164469138D02*
X196242754Y-164611995D01*
X196242754Y-164611995D02*
X196314182Y-164897709D01*
X196314182Y-164897709D02*
X196314182Y-165111995D01*
X196314182Y-165111995D02*
X196242754Y-165397709D01*
X196242754Y-165397709D02*
X196171325Y-165540566D01*
X196171325Y-165540566D02*
X196028468Y-165683424D01*
X196028468Y-165683424D02*
X195814182Y-165754852D01*
X195814182Y-165754852D02*
X195457039Y-165754852D01*
X196957039Y-164969138D02*
X197457039Y-164969138D01*
X197671325Y-165754852D02*
X196957039Y-165754852D01*
X196957039Y-165754852D02*
X196957039Y-164254852D01*
X196957039Y-164254852D02*
X197671325Y-164254852D01*
X200171325Y-165754852D02*
X199457039Y-165754852D01*
X199457039Y-165754852D02*
X199457039Y-164254852D01*
X200599897Y-165326281D02*
X201314183Y-165326281D01*
X200457040Y-165754852D02*
X200957040Y-164254852D01*
X200957040Y-164254852D02*
X201457040Y-165754852D01*
X201957039Y-165754852D02*
X201957039Y-164254852D01*
X201957039Y-164254852D02*
X202314182Y-164254852D01*
X202314182Y-164254852D02*
X202528468Y-164326281D01*
X202528468Y-164326281D02*
X202671325Y-164469138D01*
X202671325Y-164469138D02*
X202742754Y-164611995D01*
X202742754Y-164611995D02*
X202814182Y-164897709D01*
X202814182Y-164897709D02*
X202814182Y-165111995D01*
X202814182Y-165111995D02*
X202742754Y-165397709D01*
X202742754Y-165397709D02*
X202671325Y-165540566D01*
X202671325Y-165540566D02*
X202528468Y-165683424D01*
X202528468Y-165683424D02*
X202314182Y-165754852D01*
X202314182Y-165754852D02*
X201957039Y-165754852D01*
X203457039Y-165754852D02*
X203457039Y-164254852D01*
X203457039Y-164254852D02*
X203814182Y-164254852D01*
X203814182Y-164254852D02*
X204028468Y-164326281D01*
X204028468Y-164326281D02*
X204171325Y-164469138D01*
X204171325Y-164469138D02*
X204242754Y-164611995D01*
X204242754Y-164611995D02*
X204314182Y-164897709D01*
X204314182Y-164897709D02*
X204314182Y-165111995D01*
X204314182Y-165111995D02*
X204242754Y-165397709D01*
X204242754Y-165397709D02*
X204171325Y-165540566D01*
X204171325Y-165540566D02*
X204028468Y-165683424D01*
X204028468Y-165683424D02*
X203814182Y-165754852D01*
X203814182Y-165754852D02*
X203457039Y-165754852D01*
X204957039Y-164969138D02*
X205457039Y-164969138D01*
X205671325Y-165754852D02*
X204957039Y-165754852D01*
X204957039Y-165754852D02*
X204957039Y-164254852D01*
X204957039Y-164254852D02*
X205671325Y-164254852D01*
X207171325Y-165754852D02*
X206671325Y-165040566D01*
X206314182Y-165754852D02*
X206314182Y-164254852D01*
X206314182Y-164254852D02*
X206885611Y-164254852D01*
X206885611Y-164254852D02*
X207028468Y-164326281D01*
X207028468Y-164326281D02*
X207099897Y-164397709D01*
X207099897Y-164397709D02*
X207171325Y-164540566D01*
X207171325Y-164540566D02*
X207171325Y-164754852D01*
X207171325Y-164754852D02*
X207099897Y-164897709D01*
X207099897Y-164897709D02*
X207028468Y-164969138D01*
X207028468Y-164969138D02*
X206885611Y-165040566D01*
X206885611Y-165040566D02*
X206314182Y-165040566D01*
X209457039Y-164969138D02*
X208957039Y-164969138D01*
X208957039Y-165754852D02*
X208957039Y-164254852D01*
X208957039Y-164254852D02*
X209671325Y-164254852D01*
X210242753Y-165754852D02*
X210242753Y-164254852D01*
X211671325Y-165754852D02*
X210957039Y-165754852D01*
X210957039Y-165754852D02*
X210957039Y-164254852D01*
X211957040Y-164254852D02*
X212814183Y-164254852D01*
X212385611Y-165754852D02*
X212385611Y-164254852D01*
X213314182Y-164969138D02*
X213814182Y-164969138D01*
X214028468Y-165754852D02*
X213314182Y-165754852D01*
X213314182Y-165754852D02*
X213314182Y-164254852D01*
X213314182Y-164254852D02*
X214028468Y-164254852D01*
X215528468Y-165754852D02*
X215028468Y-165040566D01*
X214671325Y-165754852D02*
X214671325Y-164254852D01*
X214671325Y-164254852D02*
X215242754Y-164254852D01*
X215242754Y-164254852D02*
X215385611Y-164326281D01*
X215385611Y-164326281D02*
X215457040Y-164397709D01*
X215457040Y-164397709D02*
X215528468Y-164540566D01*
X215528468Y-164540566D02*
X215528468Y-164754852D01*
X215528468Y-164754852D02*
X215457040Y-164897709D01*
X215457040Y-164897709D02*
X215385611Y-164969138D01*
X215385611Y-164969138D02*
X215242754Y-165040566D01*
X215242754Y-165040566D02*
X214671325Y-165040566D01*
X217099897Y-164254852D02*
X217599897Y-165754852D01*
X217599897Y-165754852D02*
X218099897Y-164254852D01*
X219385611Y-165754852D02*
X218528468Y-165754852D01*
X218957039Y-165754852D02*
X218957039Y-164254852D01*
X218957039Y-164254852D02*
X218814182Y-164469138D01*
X218814182Y-164469138D02*
X218671325Y-164611995D01*
X218671325Y-164611995D02*
X218528468Y-164683424D01*
D11*
X202852715Y-119294833D02*
X202995572Y-119342452D01*
X202995572Y-119342452D02*
X203043191Y-119390071D01*
X203043191Y-119390071D02*
X203090810Y-119485309D01*
X203090810Y-119485309D02*
X203090810Y-119628166D01*
X203090810Y-119628166D02*
X203043191Y-119723404D01*
X203043191Y-119723404D02*
X202995572Y-119771024D01*
X202995572Y-119771024D02*
X202900334Y-119818643D01*
X202900334Y-119818643D02*
X202519382Y-119818643D01*
X202519382Y-119818643D02*
X202519382Y-118818643D01*
X202519382Y-118818643D02*
X202852715Y-118818643D01*
X202852715Y-118818643D02*
X202947953Y-118866262D01*
X202947953Y-118866262D02*
X202995572Y-118913881D01*
X202995572Y-118913881D02*
X203043191Y-119009119D01*
X203043191Y-119009119D02*
X203043191Y-119104357D01*
X203043191Y-119104357D02*
X202995572Y-119199595D01*
X202995572Y-119199595D02*
X202947953Y-119247214D01*
X202947953Y-119247214D02*
X202852715Y-119294833D01*
X202852715Y-119294833D02*
X202519382Y-119294833D01*
X203519382Y-119818643D02*
X203519382Y-118818643D01*
X203519382Y-118818643D02*
X203900334Y-118818643D01*
X203900334Y-118818643D02*
X203995572Y-118866262D01*
X203995572Y-118866262D02*
X204043191Y-118913881D01*
X204043191Y-118913881D02*
X204090810Y-119009119D01*
X204090810Y-119009119D02*
X204090810Y-119151976D01*
X204090810Y-119151976D02*
X204043191Y-119247214D01*
X204043191Y-119247214D02*
X203995572Y-119294833D01*
X203995572Y-119294833D02*
X203900334Y-119342452D01*
X203900334Y-119342452D02*
X203519382Y-119342452D01*
X204852715Y-119294833D02*
X204519382Y-119294833D01*
X204519382Y-119818643D02*
X204519382Y-118818643D01*
X204519382Y-118818643D02*
X204995572Y-118818643D01*
D12*
X165475260Y-64184860D02*
X165403832Y-64256289D01*
X165403832Y-64256289D02*
X165189546Y-64327717D01*
X165189546Y-64327717D02*
X165046689Y-64327717D01*
X165046689Y-64327717D02*
X164832403Y-64256289D01*
X164832403Y-64256289D02*
X164689546Y-64113431D01*
X164689546Y-64113431D02*
X164618117Y-63970574D01*
X164618117Y-63970574D02*
X164546689Y-63684860D01*
X164546689Y-63684860D02*
X164546689Y-63470574D01*
X164546689Y-63470574D02*
X164618117Y-63184860D01*
X164618117Y-63184860D02*
X164689546Y-63042003D01*
X164689546Y-63042003D02*
X164832403Y-62899146D01*
X164832403Y-62899146D02*
X165046689Y-62827717D01*
X165046689Y-62827717D02*
X165189546Y-62827717D01*
X165189546Y-62827717D02*
X165403832Y-62899146D01*
X165403832Y-62899146D02*
X165475260Y-62970574D01*
X165903832Y-62827717D02*
X166403832Y-64327717D01*
X166403832Y-64327717D02*
X166903832Y-62827717D01*
X168189546Y-64327717D02*
X167332403Y-64327717D01*
X167760974Y-64327717D02*
X167760974Y-62827717D01*
X167760974Y-62827717D02*
X167618117Y-63042003D01*
X167618117Y-63042003D02*
X167475260Y-63184860D01*
X167475260Y-63184860D02*
X167332403Y-63256289D01*
X236957039Y-139254852D02*
X237242753Y-139254852D01*
X237242753Y-139254852D02*
X237385610Y-139326281D01*
X237385610Y-139326281D02*
X237528467Y-139469138D01*
X237528467Y-139469138D02*
X237599896Y-139754852D01*
X237599896Y-139754852D02*
X237599896Y-140254852D01*
X237599896Y-140254852D02*
X237528467Y-140540566D01*
X237528467Y-140540566D02*
X237385610Y-140683424D01*
X237385610Y-140683424D02*
X237242753Y-140754852D01*
X237242753Y-140754852D02*
X236957039Y-140754852D01*
X236957039Y-140754852D02*
X236814182Y-140683424D01*
X236814182Y-140683424D02*
X236671324Y-140540566D01*
X236671324Y-140540566D02*
X236599896Y-140254852D01*
X236599896Y-140254852D02*
X236599896Y-139754852D01*
X236599896Y-139754852D02*
X236671324Y-139469138D01*
X236671324Y-139469138D02*
X236814182Y-139326281D01*
X236814182Y-139326281D02*
X236957039Y-139254852D01*
X238242753Y-139254852D02*
X238242753Y-140469138D01*
X238242753Y-140469138D02*
X238314182Y-140611995D01*
X238314182Y-140611995D02*
X238385611Y-140683424D01*
X238385611Y-140683424D02*
X238528468Y-140754852D01*
X238528468Y-140754852D02*
X238814182Y-140754852D01*
X238814182Y-140754852D02*
X238957039Y-140683424D01*
X238957039Y-140683424D02*
X239028468Y-140611995D01*
X239028468Y-140611995D02*
X239099896Y-140469138D01*
X239099896Y-140469138D02*
X239099896Y-139254852D01*
X239599897Y-139254852D02*
X240457040Y-139254852D01*
X240028468Y-140754852D02*
X240028468Y-139254852D01*
X240957039Y-140754852D02*
X240957039Y-139254852D01*
X240957039Y-139254852D02*
X241528468Y-139254852D01*
X241528468Y-139254852D02*
X241671325Y-139326281D01*
X241671325Y-139326281D02*
X241742754Y-139397709D01*
X241742754Y-139397709D02*
X241814182Y-139540566D01*
X241814182Y-139540566D02*
X241814182Y-139754852D01*
X241814182Y-139754852D02*
X241742754Y-139897709D01*
X241742754Y-139897709D02*
X241671325Y-139969138D01*
X241671325Y-139969138D02*
X241528468Y-140040566D01*
X241528468Y-140040566D02*
X240957039Y-140040566D01*
X242457039Y-139254852D02*
X242457039Y-140469138D01*
X242457039Y-140469138D02*
X242528468Y-140611995D01*
X242528468Y-140611995D02*
X242599897Y-140683424D01*
X242599897Y-140683424D02*
X242742754Y-140754852D01*
X242742754Y-140754852D02*
X243028468Y-140754852D01*
X243028468Y-140754852D02*
X243171325Y-140683424D01*
X243171325Y-140683424D02*
X243242754Y-140611995D01*
X243242754Y-140611995D02*
X243314182Y-140469138D01*
X243314182Y-140469138D02*
X243314182Y-139254852D01*
X243814183Y-139254852D02*
X244671326Y-139254852D01*
X244242754Y-140754852D02*
X244242754Y-139254852D01*
X165460753Y-140881629D02*
X165460753Y-139381629D01*
X166175039Y-140881629D02*
X166175039Y-139381629D01*
X166175039Y-139381629D02*
X167032182Y-140881629D01*
X167032182Y-140881629D02*
X167032182Y-139381629D01*
X167746468Y-140881629D02*
X167746468Y-139381629D01*
X167746468Y-139381629D02*
X168317897Y-139381629D01*
X168317897Y-139381629D02*
X168460754Y-139453058D01*
X168460754Y-139453058D02*
X168532183Y-139524486D01*
X168532183Y-139524486D02*
X168603611Y-139667343D01*
X168603611Y-139667343D02*
X168603611Y-139881629D01*
X168603611Y-139881629D02*
X168532183Y-140024486D01*
X168532183Y-140024486D02*
X168460754Y-140095915D01*
X168460754Y-140095915D02*
X168317897Y-140167343D01*
X168317897Y-140167343D02*
X167746468Y-140167343D01*
X169246468Y-139381629D02*
X169246468Y-140595915D01*
X169246468Y-140595915D02*
X169317897Y-140738772D01*
X169317897Y-140738772D02*
X169389326Y-140810201D01*
X169389326Y-140810201D02*
X169532183Y-140881629D01*
X169532183Y-140881629D02*
X169817897Y-140881629D01*
X169817897Y-140881629D02*
X169960754Y-140810201D01*
X169960754Y-140810201D02*
X170032183Y-140738772D01*
X170032183Y-140738772D02*
X170103611Y-140595915D01*
X170103611Y-140595915D02*
X170103611Y-139381629D01*
X170603612Y-139381629D02*
X171460755Y-139381629D01*
X171032183Y-140881629D02*
X171032183Y-139381629D01*
D11*
X236924144Y-66318643D02*
X237162239Y-67318643D01*
X237162239Y-67318643D02*
X237352715Y-66604357D01*
X237352715Y-66604357D02*
X237543191Y-67318643D01*
X237543191Y-67318643D02*
X237781287Y-66318643D01*
X238162239Y-67318643D02*
X238162239Y-66318643D01*
X239114619Y-67318643D02*
X238638429Y-67318643D01*
X238638429Y-67318643D02*
X238638429Y-66318643D01*
X239447953Y-67318643D02*
X239447953Y-66318643D01*
X239447953Y-66318643D02*
X239686048Y-66318643D01*
X239686048Y-66318643D02*
X239828905Y-66366262D01*
X239828905Y-66366262D02*
X239924143Y-66461500D01*
X239924143Y-66461500D02*
X239971762Y-66556738D01*
X239971762Y-66556738D02*
X240019381Y-66747214D01*
X240019381Y-66747214D02*
X240019381Y-66890071D01*
X240019381Y-66890071D02*
X239971762Y-67080547D01*
X239971762Y-67080547D02*
X239924143Y-67175785D01*
X239924143Y-67175785D02*
X239828905Y-67271024D01*
X239828905Y-67271024D02*
X239686048Y-67318643D01*
X239686048Y-67318643D02*
X239447953Y-67318643D01*
X194495572Y-119818643D02*
X194019382Y-119818643D01*
X194019382Y-119818643D02*
X194019382Y-118818643D01*
X194828906Y-119818643D02*
X194828906Y-118818643D01*
X194828906Y-118818643D02*
X195209858Y-118818643D01*
X195209858Y-118818643D02*
X195305096Y-118866262D01*
X195305096Y-118866262D02*
X195352715Y-118913881D01*
X195352715Y-118913881D02*
X195400334Y-119009119D01*
X195400334Y-119009119D02*
X195400334Y-119151976D01*
X195400334Y-119151976D02*
X195352715Y-119247214D01*
X195352715Y-119247214D02*
X195305096Y-119294833D01*
X195305096Y-119294833D02*
X195209858Y-119342452D01*
X195209858Y-119342452D02*
X194828906Y-119342452D01*
X196162239Y-119294833D02*
X195828906Y-119294833D01*
X195828906Y-119818643D02*
X195828906Y-118818643D01*
X195828906Y-118818643D02*
X196305096Y-118818643D01*
X189858150Y-63771024D02*
X190001007Y-63818643D01*
X190001007Y-63818643D02*
X190239102Y-63818643D01*
X190239102Y-63818643D02*
X190334340Y-63771024D01*
X190334340Y-63771024D02*
X190381959Y-63723404D01*
X190381959Y-63723404D02*
X190429578Y-63628166D01*
X190429578Y-63628166D02*
X190429578Y-63532928D01*
X190429578Y-63532928D02*
X190381959Y-63437690D01*
X190381959Y-63437690D02*
X190334340Y-63390071D01*
X190334340Y-63390071D02*
X190239102Y-63342452D01*
X190239102Y-63342452D02*
X190048626Y-63294833D01*
X190048626Y-63294833D02*
X189953388Y-63247214D01*
X189953388Y-63247214D02*
X189905769Y-63199595D01*
X189905769Y-63199595D02*
X189858150Y-63104357D01*
X189858150Y-63104357D02*
X189858150Y-63009119D01*
X189858150Y-63009119D02*
X189905769Y-62913881D01*
X189905769Y-62913881D02*
X189953388Y-62866262D01*
X189953388Y-62866262D02*
X190048626Y-62818643D01*
X190048626Y-62818643D02*
X190286721Y-62818643D01*
X190286721Y-62818643D02*
X190429578Y-62866262D01*
X191429578Y-63723404D02*
X191381959Y-63771024D01*
X191381959Y-63771024D02*
X191239102Y-63818643D01*
X191239102Y-63818643D02*
X191143864Y-63818643D01*
X191143864Y-63818643D02*
X191001007Y-63771024D01*
X191001007Y-63771024D02*
X190905769Y-63675785D01*
X190905769Y-63675785D02*
X190858150Y-63580547D01*
X190858150Y-63580547D02*
X190810531Y-63390071D01*
X190810531Y-63390071D02*
X190810531Y-63247214D01*
X190810531Y-63247214D02*
X190858150Y-63056738D01*
X190858150Y-63056738D02*
X190905769Y-62961500D01*
X190905769Y-62961500D02*
X191001007Y-62866262D01*
X191001007Y-62866262D02*
X191143864Y-62818643D01*
X191143864Y-62818643D02*
X191239102Y-62818643D01*
X191239102Y-62818643D02*
X191381959Y-62866262D01*
X191381959Y-62866262D02*
X191429578Y-62913881D01*
X191810531Y-63532928D02*
X192286721Y-63532928D01*
X191715293Y-63818643D02*
X192048626Y-62818643D01*
X192048626Y-62818643D02*
X192381959Y-63818643D01*
X193191483Y-63818643D02*
X192715293Y-63818643D01*
X192715293Y-63818643D02*
X192715293Y-62818643D01*
X193524817Y-63294833D02*
X193858150Y-63294833D01*
X194001007Y-63818643D02*
X193524817Y-63818643D01*
X193524817Y-63818643D02*
X193524817Y-62818643D01*
X193524817Y-62818643D02*
X194001007Y-62818643D01*
D10*
%TO.C,J9*%
X178000000Y-97475062D02*
G75*
G02*
X166000000Y-97475062I-6000000J0D01*
G01*
X166000000Y-97475062D02*
G75*
G02*
X178000000Y-97475062I6000000J0D01*
G01*
%TO.C,J8*%
X178014798Y-73361012D02*
G75*
G02*
X166014798Y-73361012I-6000000J0D01*
G01*
X166014798Y-73361012D02*
G75*
G02*
X178014798Y-73361012I6000000J0D01*
G01*
%TO.C,J10*%
X177908523Y-148796624D02*
G75*
G02*
X165908523Y-148796624I-6000000J0D01*
G01*
X165908523Y-148796624D02*
G75*
G02*
X177908523Y-148796624I6000000J0D01*
G01*
D13*
%TO.C,G\u002A\u002A\u002A*%
G36*
X204447619Y-143670488D02*
G01*
X204608467Y-143844936D01*
X204653743Y-143941231D01*
X204588791Y-143940010D01*
X204418954Y-143821907D01*
X204408294Y-143812998D01*
X204157441Y-143601919D01*
X203379808Y-143770485D01*
X202908998Y-143874613D01*
X202593334Y-143952916D01*
X202422008Y-144013230D01*
X202384212Y-144063395D01*
X202469138Y-144111247D01*
X202665980Y-144164625D01*
X202795552Y-144194177D01*
X203116393Y-144257270D01*
X203328522Y-144271890D01*
X203485231Y-144238842D01*
X203557552Y-144205691D01*
X203910754Y-144097560D01*
X204232431Y-144153120D01*
X204477011Y-144332847D01*
X204656986Y-144496967D01*
X204845824Y-144591993D01*
X205079441Y-144621285D01*
X205393757Y-144588203D01*
X205824689Y-144496108D01*
X205934784Y-144469233D01*
X206380079Y-144361894D01*
X206694234Y-144298124D01*
X206909773Y-144278049D01*
X207059219Y-144301791D01*
X207175099Y-144369475D01*
X207283500Y-144474357D01*
X207418094Y-144650807D01*
X207419747Y-144733070D01*
X207303732Y-144708845D01*
X207128827Y-144598910D01*
X206875863Y-144411886D01*
X206053886Y-144629629D01*
X205707293Y-144723438D01*
X205429817Y-144802322D01*
X205256935Y-144855974D01*
X205217270Y-144872698D01*
X205162917Y-144949628D01*
X205041095Y-145116880D01*
X204960123Y-145227048D01*
X204776030Y-145500667D01*
X204596046Y-145807538D01*
X204444492Y-146101356D01*
X204345689Y-146335817D01*
X204320834Y-146444191D01*
X204375281Y-146509425D01*
X204555661Y-146511373D01*
X204653074Y-146497841D01*
X204945454Y-146491409D01*
X205337297Y-146535725D01*
X205770675Y-146619064D01*
X206187662Y-146729703D01*
X206530331Y-146855918D01*
X206606480Y-146893199D01*
X206825508Y-146997071D01*
X207144326Y-147133277D01*
X207503451Y-147276658D01*
X207601313Y-147313979D01*
X207989866Y-147477208D01*
X208222374Y-147623601D01*
X208308799Y-147769711D01*
X208259106Y-147932090D01*
X208088147Y-148122772D01*
X207914227Y-148388541D01*
X207892772Y-148704789D01*
X208003480Y-149004357D01*
X208104275Y-149204022D01*
X208104505Y-149319523D01*
X207997838Y-149407388D01*
X207955734Y-149430587D01*
X207761735Y-149477304D01*
X207680568Y-149445794D01*
X207519926Y-149363079D01*
X207386715Y-149320079D01*
X207257796Y-149314586D01*
X207154966Y-149396056D01*
X207040780Y-149597869D01*
X207015415Y-149651074D01*
X206881292Y-149892201D01*
X206757733Y-149999792D01*
X206658514Y-150011867D01*
X206433571Y-150021149D01*
X206267813Y-150053510D01*
X206121758Y-150126365D01*
X206058645Y-150272159D01*
X206045987Y-150426390D01*
X206016082Y-150663593D01*
X205946929Y-150993070D01*
X205853018Y-151346514D01*
X205845392Y-151372048D01*
X205654956Y-152004072D01*
X205834384Y-152123208D01*
X205974836Y-152263076D01*
X206006737Y-152394878D01*
X205924217Y-152470894D01*
X205877755Y-152475691D01*
X205784230Y-152519743D01*
X205802694Y-152623857D01*
X205895557Y-152904674D01*
X205887606Y-153049962D01*
X205779325Y-153059199D01*
X205571198Y-152931861D01*
X205539649Y-152907466D01*
X205406962Y-152814909D01*
X205288405Y-152789719D01*
X205119896Y-152830431D01*
X204947013Y-152893895D01*
X204705392Y-153001741D01*
X204532892Y-153108153D01*
X204491497Y-153150299D01*
X204384961Y-153214497D01*
X204256067Y-153128303D01*
X204123919Y-152905503D01*
X204111030Y-152875694D01*
X204002969Y-152618693D01*
X203846180Y-152864692D01*
X203714763Y-153050648D01*
X203608125Y-153168819D01*
X203602769Y-153172894D01*
X203439067Y-153232272D01*
X203263282Y-153224570D01*
X203148036Y-153158533D01*
X203135147Y-153116579D01*
X203063103Y-153011458D01*
X202945511Y-152968412D01*
X202766540Y-152896754D01*
X202727964Y-152782673D01*
X202744164Y-152763788D01*
X202925921Y-152763788D01*
X202928751Y-152822887D01*
X203050577Y-152876468D01*
X203248602Y-152863633D01*
X203416119Y-152840270D01*
X203442834Y-152872713D01*
X203407667Y-152914370D01*
X203317491Y-153040991D01*
X203304480Y-153088269D01*
X203354598Y-153122910D01*
X203475921Y-153062927D01*
X203624900Y-152938218D01*
X203757988Y-152778680D01*
X203760108Y-152775462D01*
X203918966Y-152598333D01*
X204058981Y-152588406D01*
X204187226Y-152746589D01*
X204228040Y-152835524D01*
X204310276Y-153000317D01*
X204361899Y-153011613D01*
X204378956Y-152966961D01*
X204371506Y-152775610D01*
X204330961Y-152664608D01*
X204283716Y-152475691D01*
X204320480Y-152475691D01*
X204394165Y-152534693D01*
X204572184Y-152560324D01*
X204579477Y-152560357D01*
X204756157Y-152584482D01*
X204781588Y-152652400D01*
X204663042Y-152711326D01*
X204571259Y-152704316D01*
X204460563Y-152706970D01*
X204465490Y-152788428D01*
X204514138Y-152858825D01*
X204609519Y-152871800D01*
X204788223Y-152823026D01*
X205063114Y-152717712D01*
X205286275Y-152651825D01*
X205448033Y-152678487D01*
X205507614Y-152711166D01*
X205634644Y-152762377D01*
X205675147Y-152735405D01*
X205613567Y-152620016D01*
X205590480Y-152602691D01*
X205507165Y-152495477D01*
X205569724Y-152410157D01*
X205675147Y-152391024D01*
X205812727Y-152355568D01*
X205844480Y-152306357D01*
X205775903Y-152231243D01*
X205717480Y-152221691D01*
X205621802Y-152148120D01*
X205592590Y-151943812D01*
X205628916Y-151633375D01*
X205729849Y-151241414D01*
X205757731Y-151155333D01*
X205851021Y-150820513D01*
X205908311Y-150500972D01*
X205926325Y-150235826D01*
X205901788Y-150064192D01*
X205852793Y-150020357D01*
X205804891Y-150097251D01*
X205755426Y-150297837D01*
X205718727Y-150549524D01*
X205640614Y-151096706D01*
X205536828Y-151572334D01*
X205415634Y-151947277D01*
X205285298Y-152192408D01*
X205238216Y-152242857D01*
X205000037Y-152354411D01*
X204692100Y-152391024D01*
X204468155Y-152408238D01*
X204335793Y-152451680D01*
X204320480Y-152475691D01*
X204283716Y-152475691D01*
X204268570Y-152415129D01*
X204270328Y-152131781D01*
X204379449Y-152131781D01*
X204381049Y-152138686D01*
X204489085Y-152261787D01*
X204689374Y-152309416D01*
X204922124Y-152280637D01*
X205127541Y-152174513D01*
X205153400Y-152150770D01*
X205257145Y-151981780D01*
X205364925Y-151705771D01*
X205461391Y-151379351D01*
X205531192Y-151059126D01*
X205558980Y-150801704D01*
X205547751Y-150696445D01*
X205546674Y-150543644D01*
X205587036Y-150488152D01*
X205650890Y-150371846D01*
X205675147Y-150187957D01*
X205655190Y-150027709D01*
X205565291Y-149932014D01*
X205360403Y-149858026D01*
X205315313Y-149845708D01*
X205077376Y-149776262D01*
X204909496Y-149717107D01*
X204878658Y-149702215D01*
X204842556Y-149746953D01*
X204842189Y-149923653D01*
X204856667Y-150055260D01*
X204868028Y-150422880D01*
X204782712Y-150704333D01*
X204656554Y-150989753D01*
X204538899Y-151326092D01*
X204443998Y-151662467D01*
X204386098Y-151947991D01*
X204379449Y-152131781D01*
X204270328Y-152131781D01*
X204270780Y-152058868D01*
X204332213Y-151643243D01*
X204447490Y-151215669D01*
X204516428Y-151029714D01*
X204632183Y-150694406D01*
X204709316Y-150367722D01*
X204744437Y-150084284D01*
X204734160Y-149878717D01*
X204675097Y-149785642D01*
X204637980Y-149787353D01*
X204572245Y-149887965D01*
X204512584Y-150122930D01*
X204472971Y-150408241D01*
X204358270Y-151001913D01*
X204148006Y-151572733D01*
X203864560Y-152071201D01*
X203564375Y-152417959D01*
X203339718Y-152593448D01*
X203136580Y-152706517D01*
X203045239Y-152729691D01*
X202925921Y-152763788D01*
X202744164Y-152763788D01*
X202824526Y-152670110D01*
X202988151Y-152612028D01*
X203317264Y-152466402D01*
X203636663Y-152158966D01*
X203939428Y-151697220D01*
X204068102Y-151441728D01*
X204208118Y-151115038D01*
X204291131Y-150830739D01*
X204332854Y-150516053D01*
X204348127Y-150144821D01*
X204349969Y-149777517D01*
X204333871Y-149544150D01*
X204294364Y-149409785D01*
X204225978Y-149339484D01*
X204221644Y-149336992D01*
X204097100Y-149228267D01*
X203920376Y-149028579D01*
X203774902Y-148841502D01*
X203617278Y-148607533D01*
X203513521Y-148387853D01*
X203443738Y-148124446D01*
X203388033Y-147759299D01*
X203379043Y-147687111D01*
X203344236Y-147265608D01*
X207029813Y-147265608D01*
X207066333Y-147354399D01*
X207160306Y-147544139D01*
X207246320Y-147708710D01*
X207375653Y-147992494D01*
X207436084Y-148262916D01*
X207445073Y-148604233D01*
X207443330Y-148659441D01*
X207439404Y-148962284D01*
X207461485Y-149138654D01*
X207519500Y-149230648D01*
X207586656Y-149267324D01*
X207824975Y-149332381D01*
X207947882Y-149300234D01*
X207961147Y-149255378D01*
X207918230Y-149125831D01*
X207826664Y-148962486D01*
X207736762Y-148678676D01*
X207795305Y-148352652D01*
X207996706Y-148012545D01*
X208021188Y-147982753D01*
X208146203Y-147810868D01*
X208194117Y-147695810D01*
X208189004Y-147679992D01*
X208091533Y-147628013D01*
X207893759Y-147546465D01*
X207642953Y-147452247D01*
X207386389Y-147362259D01*
X207171338Y-147293397D01*
X207045072Y-147262562D01*
X207029813Y-147265608D01*
X203344236Y-147265608D01*
X203329638Y-147088838D01*
X203348055Y-146609155D01*
X203438262Y-146209821D01*
X203561537Y-145928540D01*
X203648992Y-145722603D01*
X203868029Y-145722603D01*
X203950407Y-145778056D01*
X204115557Y-145787024D01*
X204323458Y-145762070D01*
X204447603Y-145701522D01*
X204450961Y-145696724D01*
X204480351Y-145604394D01*
X204408463Y-145535609D01*
X204204644Y-145463806D01*
X204170931Y-145454031D01*
X203989429Y-145417605D01*
X203907116Y-145469017D01*
X203874840Y-145583644D01*
X203868029Y-145722603D01*
X203648992Y-145722603D01*
X203692726Y-145619619D01*
X203719468Y-145390323D01*
X203639647Y-145264177D01*
X203621980Y-145256802D01*
X203471484Y-145258945D01*
X203216098Y-145310763D01*
X202907338Y-145397039D01*
X202596720Y-145502558D01*
X202335762Y-145612107D01*
X202235878Y-145666179D01*
X201906499Y-145906263D01*
X201599011Y-146191465D01*
X201366504Y-146470207D01*
X201305415Y-146570190D01*
X201170955Y-146733648D01*
X201017912Y-146802550D01*
X200894655Y-146769277D01*
X200852448Y-146651310D01*
X200987036Y-146651310D01*
X201058898Y-146644328D01*
X201170151Y-146521640D01*
X201189387Y-146492558D01*
X201361548Y-146249840D01*
X201539876Y-146031764D01*
X201799730Y-145811666D01*
X202170148Y-145585256D01*
X202595965Y-145380984D01*
X203022016Y-145227298D01*
X203178409Y-145186748D01*
X203430726Y-145127665D01*
X203599507Y-145083129D01*
X203643146Y-145066518D01*
X203617389Y-144972901D01*
X203557803Y-144804581D01*
X203490918Y-144632003D01*
X203443261Y-144525607D01*
X203436205Y-144517024D01*
X203327403Y-144557866D01*
X203113149Y-144666278D01*
X202832210Y-144821087D01*
X202523353Y-145001121D01*
X202304076Y-145135340D01*
X202044946Y-145325683D01*
X201767813Y-145574212D01*
X201498093Y-145851675D01*
X201261202Y-146128815D01*
X201082555Y-146376379D01*
X200987569Y-146565112D01*
X200987036Y-146651310D01*
X200852448Y-146651310D01*
X200849146Y-146642080D01*
X200904129Y-146477815D01*
X201048758Y-146233837D01*
X201252559Y-145949783D01*
X201485054Y-145665288D01*
X201715768Y-145419989D01*
X201914225Y-145253521D01*
X201919427Y-145250117D01*
X202098630Y-145120789D01*
X202196609Y-145024222D01*
X202202765Y-145008337D01*
X202166566Y-144906001D01*
X202072561Y-144707074D01*
X201992146Y-144551227D01*
X201872422Y-144309209D01*
X201866613Y-144295017D01*
X203709566Y-144295017D01*
X203727296Y-144369592D01*
X203894511Y-144437529D01*
X203981813Y-144455991D01*
X204233755Y-144496248D01*
X204360674Y-144498060D01*
X204402907Y-144459457D01*
X204405147Y-144435336D01*
X204331413Y-144319580D01*
X204153257Y-144238560D01*
X203935249Y-144216245D01*
X203850352Y-144229376D01*
X203709566Y-144295017D01*
X201866613Y-144295017D01*
X201795690Y-144121737D01*
X201780480Y-144057700D01*
X201859864Y-144006228D01*
X202081740Y-143932974D01*
X202421692Y-143844711D01*
X202855303Y-143748215D01*
X203008286Y-143717016D01*
X204236092Y-143471769D01*
X204447619Y-143670488D01*
G37*
D10*
%TO.C,J11*%
X243615589Y-148657227D02*
G75*
G02*
X231615589Y-148657227I-6000000J0D01*
G01*
X231615589Y-148657227D02*
G75*
G02*
X243615589Y-148657227I6000000J0D01*
G01*
%TD*%
M02*
