%TF.GenerationSoftware,KiCad,Pcbnew,9.0.6*%
%TF.CreationDate,2026-05-21T23:58:28+10:00*%
%TF.ProjectId,note-sequencer,6e6f7465-2d73-4657-9175-656e6365722e,rev?*%
%TF.SameCoordinates,Original*%
%TF.FileFunction,Copper,L2,Bot*%
%TF.FilePolarity,Positive*%
%FSLAX46Y46*%
G04 Gerber Fmt 4.6, Leading zero omitted, Abs format (unit mm)*
G04 Created by KiCad (PCBNEW 9.0.6) date 2026-05-21 23:58:28*
%MOMM*%
%LPD*%
G01*
G04 APERTURE LIST*
G04 Aperture macros list*
%AMRoundRect*
0 Rectangle with rounded corners*
0 $1 Rounding radius*
0 $2 $3 $4 $5 $6 $7 $8 $9 X,Y pos of 4 corners*
0 Add a 4 corners polygon primitive as box body*
4,1,4,$2,$3,$4,$5,$6,$7,$8,$9,$2,$3,0*
0 Add four circle primitives for the rounded corners*
1,1,$1+$1,$2,$3*
1,1,$1+$1,$4,$5*
1,1,$1+$1,$6,$7*
1,1,$1+$1,$8,$9*
0 Add four rect primitives between the rounded corners*
20,1,$1+$1,$2,$3,$4,$5,0*
20,1,$1+$1,$4,$5,$6,$7,0*
20,1,$1+$1,$6,$7,$8,$9,0*
20,1,$1+$1,$8,$9,$2,$3,0*%
G04 Aperture macros list end*
%TA.AperFunction,ComponentPad*%
%ADD10R,2.000000X2.000000*%
%TD*%
%TA.AperFunction,ComponentPad*%
%ADD11C,2.000000*%
%TD*%
%TA.AperFunction,ComponentPad*%
%ADD12R,2.000000X3.200000*%
%TD*%
%TA.AperFunction,ComponentPad*%
%ADD13C,1.600000*%
%TD*%
%TA.AperFunction,ComponentPad*%
%ADD14O,3.750000X2.000000*%
%TD*%
%TA.AperFunction,ComponentPad*%
%ADD15RoundRect,0.250000X-0.550000X-0.550000X0.550000X-0.550000X0.550000X0.550000X-0.550000X0.550000X0*%
%TD*%
%TA.AperFunction,ComponentPad*%
%ADD16C,2.200000*%
%TD*%
%TA.AperFunction,ComponentPad*%
%ADD17R,1.700000X1.700000*%
%TD*%
%TA.AperFunction,ComponentPad*%
%ADD18C,1.700000*%
%TD*%
%TA.AperFunction,ComponentPad*%
%ADD19R,1.600000X1.600000*%
%TD*%
%TA.AperFunction,ComponentPad*%
%ADD20O,1.600000X1.600000*%
%TD*%
%TA.AperFunction,ComponentPad*%
%ADD21C,1.440000*%
%TD*%
%TA.AperFunction,ComponentPad*%
%ADD22C,8.000000*%
%TD*%
%TA.AperFunction,ComponentPad*%
%ADD23RoundRect,0.250000X0.600000X-0.600000X0.600000X0.600000X-0.600000X0.600000X-0.600000X-0.600000X0*%
%TD*%
%TA.AperFunction,ComponentPad*%
%ADD24R,1.800000X1.800000*%
%TD*%
%TA.AperFunction,ComponentPad*%
%ADD25C,1.800000*%
%TD*%
%TA.AperFunction,ComponentPad*%
%ADD26RoundRect,0.250000X-0.550000X0.550000X-0.550000X-0.550000X0.550000X-0.550000X0.550000X0.550000X0*%
%TD*%
%TA.AperFunction,Conductor*%
%ADD27C,0.200000*%
%TD*%
G04 APERTURE END LIST*
D10*
%TO.P,SW7,A,A*%
%TO.N,Net-(A2-A1)*%
X133900000Y-80500000D03*
D11*
%TO.P,SW7,B,B*%
%TO.N,Net-(A2-A2)*%
X128900000Y-80500000D03*
%TO.P,SW7,C,C*%
%TO.N,GND*%
X131400000Y-80500000D03*
D12*
%TO.P,SW7,MP*%
%TO.N,N/C*%
X137000000Y-88000000D03*
X125800000Y-88000000D03*
D11*
%TO.P,SW7,S1,S1*%
%TO.N,Net-(A2-A0)*%
X128900000Y-95000000D03*
%TO.P,SW7,S2,S2*%
%TO.N,GND*%
X133900000Y-95000000D03*
%TD*%
D13*
%TO.P,C3,1*%
%TO.N,GND*%
X140500000Y-50000000D03*
%TO.P,C3,2*%
%TO.N,5V*%
X145500000Y-50000000D03*
%TD*%
D14*
%TO.P,SW9,1,C*%
%TO.N,Net-(D2-A)*%
X150250000Y-92500000D03*
%TO.P,SW9,2,B*%
%TO.N,Net-(A2-D2)*%
X150250000Y-88000000D03*
%TO.P,SW9,3,A*%
%TO.N,unconnected-(SW9-A-Pad3)*%
X150250000Y-83500000D03*
%TD*%
D15*
%TO.P,D30,1,K*%
%TO.N,Net-(A2-D10)*%
X129010495Y-169912305D03*
D13*
%TO.P,D30,2,A*%
%TO.N,Net-(D30-A)*%
X136630495Y-169912305D03*
%TD*%
D16*
%TO.P,SW4,1,1*%
%TO.N,Net-(D5-A)*%
X50064337Y-82915669D03*
%TO.P,SW4,2,2*%
%TO.N,Net-(A2-D2)*%
X43714337Y-85455669D03*
%TD*%
D15*
%TO.P,D26,1,K*%
%TO.N,Net-(A2-D11)*%
X90450495Y-169912305D03*
D13*
%TO.P,D26,2,A*%
%TO.N,Net-(D26-A)*%
X98070495Y-169912305D03*
%TD*%
D15*
%TO.P,D21,1,K*%
%TO.N,Net-(A2-D10)*%
X31690000Y-189162305D03*
D13*
%TO.P,D21,2,A*%
%TO.N,Net-(D21-A)*%
X39310000Y-189162305D03*
%TD*%
%TO.P,R2,1*%
%TO.N,Net-(J1-Pin_1)*%
X22340000Y-47500000D03*
%TO.P,R2,2*%
%TO.N,Net-(R2-Pad2)*%
X32500000Y-47500000D03*
%TD*%
D15*
%TO.P,D23,1,K*%
%TO.N,Net-(A2-D8)*%
X51950495Y-169912305D03*
D13*
%TO.P,D23,2,A*%
%TO.N,Net-(D23-A)*%
X59570495Y-169912305D03*
%TD*%
D15*
%TO.P,SW1,1*%
%TO.N,Net-(U3-Lite)*%
X127880000Y-48574973D03*
D13*
%TO.P,SW1,2*%
%TO.N,Net-(A1-D2)*%
X135500000Y-48574973D03*
%TD*%
D16*
%TO.P,SW33,1,1*%
%TO.N,Net-(D29-A)*%
X126982656Y-175726989D03*
%TO.P,SW33,2,2*%
%TO.N,Net-(A2-D3)*%
X120632656Y-178266989D03*
%TD*%
D17*
%TO.P,U2,1,OUT*%
%TO.N,Net-(U1A-+)*%
X35393572Y-44863002D03*
D18*
%TO.P,U2,2,GND*%
%TO.N,GND*%
X37933572Y-44863002D03*
%TO.P,U2,3,SCL*%
%TO.N,Net-(A1-A5)*%
X40473572Y-44863002D03*
%TO.P,U2,4,SDA*%
%TO.N,Net-(A1-A4)*%
X43013572Y-44863002D03*
%TO.P,U2,5,VCC*%
%TO.N,5V*%
X45553572Y-44863002D03*
%TO.P,U2,6,GND*%
%TO.N,GND*%
X48093572Y-44863002D03*
%TD*%
D15*
%TO.P,D25,1,K*%
%TO.N,Net-(A2-D10)*%
X80884560Y-189175201D03*
D13*
%TO.P,D25,2,A*%
%TO.N,Net-(D25-A)*%
X88504560Y-189175201D03*
%TD*%
%TO.P,R7,1*%
%TO.N,Net-(A2-A3)*%
X64000000Y-58920000D03*
%TO.P,R7,2*%
%TO.N,Net-(J6-Pin_4)*%
X64000000Y-69080000D03*
%TD*%
D16*
%TO.P,SW19,1,1*%
%TO.N,Net-(D16-A)*%
X107733595Y-129404711D03*
%TO.P,SW19,2,2*%
%TO.N,Net-(A2-D6)*%
X101383595Y-131944711D03*
%TD*%
D15*
%TO.P,D32,1,K*%
%TO.N,Net-(A2-D12)*%
X151690000Y-189175201D03*
D13*
%TO.P,D32,2,A*%
%TO.N,Net-(D32-A)*%
X159310000Y-189175201D03*
%TD*%
D16*
%TO.P,SW32,1,1*%
%TO.N,Net-(D28-A)*%
X107745826Y-175734711D03*
%TO.P,SW32,2,2*%
%TO.N,Net-(A2-D4)*%
X101395826Y-178274711D03*
%TD*%
D15*
%TO.P,D22,1,K*%
%TO.N,Net-(A2-D9)*%
X61654101Y-189174035D03*
D13*
%TO.P,D22,2,A*%
%TO.N,Net-(D22-A)*%
X69274101Y-189174035D03*
%TD*%
D16*
%TO.P,SW28,1,1*%
%TO.N,Net-(D21-A)*%
X30798507Y-175721815D03*
%TO.P,SW28,2,2*%
%TO.N,Net-(A2-D5)*%
X24448507Y-178261815D03*
%TD*%
%TO.P,SW30,1,1*%
%TO.N,Net-(D22-A)*%
X69272166Y-175733545D03*
%TO.P,SW30,2,2*%
%TO.N,Net-(A2-D4)*%
X62922166Y-178273545D03*
%TD*%
D13*
%TO.P,R9,1*%
%TO.N,Net-(A1-A4)*%
X158080000Y-47000000D03*
%TO.P,R9,2*%
%TO.N,5V*%
X147920000Y-47000000D03*
%TD*%
%TO.P,R5,1*%
%TO.N,Net-(A2-D1{slash}TX)*%
X64000000Y-44250000D03*
%TO.P,R5,2*%
%TO.N,Net-(J2-Pin_1)*%
X64000000Y-34090000D03*
%TD*%
%TO.P,R8,1*%
%TO.N,Net-(A1-A5)*%
X158080000Y-50000000D03*
%TO.P,R8,2*%
%TO.N,5V*%
X147920000Y-50000000D03*
%TD*%
D19*
%TO.P,A2,1,D1/TX*%
%TO.N,Net-(A2-D1{slash}TX)*%
X130594126Y-68557720D03*
D20*
%TO.P,A2,2,D0/RX*%
%TO.N,Net-(A2-D0{slash}RX)*%
X133134126Y-68557720D03*
%TO.P,A2,3,~{RESET}*%
%TO.N,unconnected-(A2-~{RESET}-Pad3)*%
X135674126Y-68557720D03*
%TO.P,A2,4,GND*%
%TO.N,GND*%
X138214126Y-68557720D03*
%TO.P,A2,5,D2*%
%TO.N,Net-(A2-D2)*%
X140754126Y-68557720D03*
%TO.P,A2,6,D3*%
%TO.N,Net-(A2-D3)*%
X143294126Y-68557720D03*
%TO.P,A2,7,D4*%
%TO.N,Net-(A2-D4)*%
X145834126Y-68557720D03*
%TO.P,A2,8,D5*%
%TO.N,Net-(A2-D5)*%
X148374126Y-68557720D03*
%TO.P,A2,9,D6*%
%TO.N,Net-(A2-D6)*%
X150914126Y-68557720D03*
%TO.P,A2,10,D7*%
%TO.N,Net-(A2-D7)*%
X153454126Y-68557720D03*
%TO.P,A2,11,D8*%
%TO.N,Net-(A2-D8)*%
X155994126Y-68557720D03*
%TO.P,A2,12,D9*%
%TO.N,Net-(A2-D9)*%
X158534126Y-68557720D03*
%TO.P,A2,13,D10*%
%TO.N,Net-(A2-D10)*%
X161074126Y-68557720D03*
%TO.P,A2,14,D11*%
%TO.N,Net-(A2-D11)*%
X163614126Y-68557720D03*
%TO.P,A2,15,D12*%
%TO.N,Net-(A2-D12)*%
X166154126Y-68557720D03*
%TO.P,A2,16,D13*%
%TO.N,Net-(A2-D13)*%
X166154126Y-53317720D03*
%TO.P,A2,17,3V3*%
%TO.N,unconnected-(A2-3V3-Pad17)*%
X163614126Y-53317720D03*
%TO.P,A2,18,AREF*%
%TO.N,unconnected-(A2-AREF-Pad18)*%
X161074126Y-53317720D03*
%TO.P,A2,19,A0*%
%TO.N,Net-(A2-A0)*%
X158534126Y-53317720D03*
%TO.P,A2,20,A1*%
%TO.N,Net-(A2-A1)*%
X155994126Y-53317720D03*
%TO.P,A2,21,A2*%
%TO.N,Net-(A2-A2)*%
X153454126Y-53317720D03*
%TO.P,A2,22,A3*%
%TO.N,Net-(A2-A3)*%
X150914126Y-53317720D03*
%TO.P,A2,23,A4*%
%TO.N,Net-(A1-A4)*%
X148374126Y-53317720D03*
%TO.P,A2,24,A5*%
%TO.N,Net-(A1-A5)*%
X145834126Y-53317720D03*
%TO.P,A2,25,A6*%
%TO.N,unconnected-(A2-A6-Pad25)*%
X143294126Y-53317720D03*
%TO.P,A2,26,A7*%
%TO.N,unconnected-(A2-A7-Pad26)*%
X140754126Y-53317720D03*
%TO.P,A2,27,+5V*%
%TO.N,5V*%
X138214126Y-53317720D03*
%TO.P,A2,28,~{RESET}*%
%TO.N,unconnected-(A2-~{RESET}-Pad28)*%
X135674126Y-53317720D03*
%TO.P,A2,29,GND*%
%TO.N,GND*%
X133134126Y-53317720D03*
%TO.P,A2,30,VIN*%
%TO.N,unconnected-(A2-VIN-Pad30)*%
X130594126Y-53317720D03*
%TD*%
D16*
%TO.P,SW26,1,1*%
%TO.N,Net-(D27-A)*%
X117359971Y-156518022D03*
%TO.P,SW26,2,2*%
%TO.N,Net-(A2-D3)*%
X111009971Y-159058022D03*
%TD*%
D15*
%TO.P,D28,1,K*%
%TO.N,Net-(A2-D12)*%
X100127995Y-189175201D03*
D13*
%TO.P,D28,2,A*%
%TO.N,Net-(D28-A)*%
X107747995Y-189175201D03*
%TD*%
D15*
%TO.P,D24,1,K*%
%TO.N,Net-(A2-D12)*%
X42433769Y-189174081D03*
D13*
%TO.P,D24,2,A*%
%TO.N,Net-(D24-A)*%
X50053769Y-189174081D03*
%TD*%
D15*
%TO.P,D16,1,K*%
%TO.N,Net-(A2-D10)*%
X100260711Y-142882820D03*
D13*
%TO.P,D16,2,A*%
%TO.N,Net-(D16-A)*%
X107880711Y-142882820D03*
%TD*%
D21*
%TO.P,RV1,1,1*%
%TO.N,unconnected-(RV1-Pad1)*%
X24960000Y-55505000D03*
%TO.P,RV1,2,2*%
%TO.N,Net-(R2-Pad2)*%
X27500000Y-55505000D03*
%TO.P,RV1,3,3*%
%TO.N,Net-(U1B--)*%
X30040000Y-55505000D03*
%TD*%
D16*
%TO.P,SW14,1,1*%
%TO.N,Net-(D11-A)*%
X136594550Y-110188022D03*
%TO.P,SW14,2,2*%
%TO.N,Net-(A2-D5)*%
X130244550Y-112728022D03*
%TD*%
D15*
%TO.P,SW2,1*%
%TO.N,Net-(A1-~{RESET}-Pad3)*%
X163769446Y-48574973D03*
D13*
%TO.P,SW2,2*%
%TO.N,Net-(A2-D13)*%
X171389446Y-48574973D03*
%TD*%
D22*
%TO.P,J2,1,Pin_1*%
%TO.N,Net-(J2-Pin_1)*%
X56250000Y-37750000D03*
%TD*%
D23*
%TO.P,J3,1,Pin_1*%
%TO.N,12V*%
X44000000Y-19540000D03*
D18*
%TO.P,J3,2,Pin_2*%
%TO.N,-12V*%
X44000000Y-17000000D03*
%TO.P,J3,3,Pin_3*%
%TO.N,GND*%
X46540000Y-19540000D03*
%TO.P,J3,4,Pin_4*%
X46540000Y-17000000D03*
%TO.P,J3,5,Pin_5*%
%TO.N,5V*%
X49080000Y-19540000D03*
%TO.P,J3,6,Pin_6*%
%TO.N,unconnected-(J3-Pin_6-Pad6)*%
X49080000Y-17000000D03*
%TD*%
D15*
%TO.P,D29,1,K*%
%TO.N,Net-(A2-D9)*%
X119363634Y-189167479D03*
D13*
%TO.P,D29,2,A*%
%TO.N,Net-(D29-A)*%
X126983634Y-189167479D03*
%TD*%
D17*
%TO.P,U3,1,Vin*%
%TO.N,unconnected-(U3-Vin-Pad1)*%
X75505671Y-35528789D03*
D18*
%TO.P,U3,2,3v3*%
%TO.N,Net-(A1-3V3)*%
X75505671Y-38068789D03*
%TO.P,U3,3,Gnd*%
%TO.N,GND*%
X75505671Y-40608789D03*
%TO.P,U3,4,SCK*%
%TO.N,Net-(A1-D13)*%
X75505671Y-43148789D03*
%TO.P,U3,5,SO*%
%TO.N,unconnected-(U3-SO-Pad5)*%
X75505671Y-45688789D03*
%TO.P,U3,6,SI*%
%TO.N,Net-(A1-D11)*%
X75505671Y-48228789D03*
%TO.P,U3,7,TCS*%
%TO.N,Net-(A1-D10)*%
X75505671Y-50768789D03*
%TO.P,U3,8,RST*%
%TO.N,Net-(A1-D9)*%
X75505671Y-53308789D03*
%TO.P,U3,9,D/C*%
%TO.N,Net-(A1-D8)*%
X75505671Y-55848789D03*
%TO.P,U3,10,CCS*%
%TO.N,unconnected-(U3-CCS-Pad10)*%
X75505671Y-58388789D03*
%TO.P,U3,11,Lite*%
%TO.N,Net-(U3-Lite)*%
X75505671Y-60928789D03*
%TD*%
D17*
%TO.P,J6,1,Pin_1*%
%TO.N,Net-(J1-Pin_1)*%
X69000000Y-42840000D03*
D18*
%TO.P,J6,2,Pin_2*%
%TO.N,Net-(J2-Pin_1)*%
X69000000Y-45380000D03*
%TO.P,J6,3,Pin_3*%
%TO.N,Net-(J6-Pin_3)*%
X69000000Y-47920000D03*
%TO.P,J6,4,Pin_4*%
%TO.N,Net-(J6-Pin_4)*%
X69000000Y-50460000D03*
%TO.P,J6,5,Pin_5*%
%TO.N,Net-(A2-D1{slash}TX)*%
X69000000Y-53000000D03*
%TO.P,J6,6,Pin_6*%
%TO.N,Net-(D1-K)*%
X69000000Y-55540000D03*
%TD*%
D16*
%TO.P,SW3,1,1*%
%TO.N,Net-(D3-A)*%
X30800711Y-82915669D03*
%TO.P,SW3,2,2*%
%TO.N,Net-(A2-D2)*%
X24450711Y-85455669D03*
%TD*%
D15*
%TO.P,D5,1,K*%
%TO.N,Net-(A2-D9)*%
X42440000Y-96250000D03*
D13*
%TO.P,D5,2,A*%
%TO.N,Net-(D5-A)*%
X50060000Y-96250000D03*
%TD*%
D16*
%TO.P,SW29,1,1*%
%TO.N,Net-(D24-A)*%
X50035337Y-175733591D03*
%TO.P,SW29,2,2*%
%TO.N,Net-(A2-D5)*%
X43685337Y-178273591D03*
%TD*%
D17*
%TO.P,U4,1,OUT*%
%TO.N,Net-(U1B-+)*%
X35420000Y-77250000D03*
D18*
%TO.P,U4,2,GND*%
%TO.N,GND*%
X37960000Y-77250000D03*
%TO.P,U4,3,SCL*%
%TO.N,Net-(A1-A5)*%
X40500000Y-77250000D03*
%TO.P,U4,4,SDA*%
%TO.N,Net-(A1-A4)*%
X43040000Y-77250000D03*
%TO.P,U4,5,VCC*%
%TO.N,5V*%
X45580000Y-77250000D03*
%TO.P,U4,6,GND*%
%TO.N,GND*%
X48120000Y-77250000D03*
%TD*%
D23*
%TO.P,J4,1,Pin_1*%
%TO.N,12V*%
X93112934Y-19500000D03*
D18*
%TO.P,J4,2,Pin_2*%
%TO.N,-12V*%
X93112934Y-16960000D03*
%TO.P,J4,3,Pin_3*%
%TO.N,GND*%
X95652934Y-19500000D03*
%TO.P,J4,4,Pin_4*%
X95652934Y-16960000D03*
%TO.P,J4,5,Pin_5*%
%TO.N,5V*%
X98192934Y-19500000D03*
%TO.P,J4,6,Pin_6*%
%TO.N,unconnected-(J4-Pin_6-Pad6)*%
X98192934Y-16960000D03*
%TD*%
D15*
%TO.P,D18,1,K*%
%TO.N,Net-(A2-D9)*%
X138700711Y-142882820D03*
D13*
%TO.P,D18,2,A*%
%TO.N,Net-(D18-A)*%
X146320711Y-142882820D03*
%TD*%
D16*
%TO.P,SW13,1,1*%
%TO.N,Net-(D10-A)*%
X117347740Y-110188022D03*
%TO.P,SW13,2,2*%
%TO.N,Net-(A2-D6)*%
X110997740Y-112728022D03*
%TD*%
D15*
%TO.P,D4,1,K*%
%TO.N,Net-(A2-D10)*%
X61696226Y-96248700D03*
D13*
%TO.P,D4,2,A*%
%TO.N,Net-(D4-A)*%
X69316226Y-96248700D03*
%TD*%
D15*
%TO.P,D15,1,K*%
%TO.N,Net-(A2-D8)*%
X80700711Y-143132820D03*
D13*
%TO.P,D15,2,A*%
%TO.N,Net-(D15-A)*%
X88320711Y-143132820D03*
%TD*%
D16*
%TO.P,SW35,1,1*%
%TO.N,Net-(D32-A)*%
X165456315Y-175734711D03*
%TO.P,SW35,2,2*%
%TO.N,Net-(A2-D3)*%
X159106315Y-178274711D03*
%TD*%
%TO.P,SW22,1,1*%
%TO.N,Net-(D19-A)*%
X165444084Y-129404711D03*
%TO.P,SW22,2,2*%
%TO.N,Net-(A2-D5)*%
X159094084Y-131944711D03*
%TD*%
D13*
%TO.P,R6,1*%
%TO.N,GND*%
X64000000Y-46500000D03*
%TO.P,R6,2*%
%TO.N,Net-(D1-K)*%
X64000000Y-56660000D03*
%TD*%
D16*
%TO.P,SW20,1,1*%
%TO.N,Net-(D17-A)*%
X126970425Y-129404711D03*
%TO.P,SW20,2,2*%
%TO.N,Net-(A2-D6)*%
X120620425Y-131944711D03*
%TD*%
D15*
%TO.P,D20,1,K*%
%TO.N,Net-(A2-D11)*%
X32700495Y-169912305D03*
D13*
%TO.P,D20,2,A*%
%TO.N,Net-(D20-A)*%
X40320495Y-169912305D03*
%TD*%
D21*
%TO.P,RV2,1,1*%
%TO.N,unconnected-(RV2-Pad1)*%
X53960000Y-55500000D03*
%TO.P,RV2,2,2*%
%TO.N,Net-(R3-Pad2)*%
X56500000Y-55500000D03*
%TO.P,RV2,3,3*%
%TO.N,Net-(U1A--)*%
X59040000Y-55500000D03*
%TD*%
D16*
%TO.P,SW24,1,1*%
%TO.N,Net-(D23-A)*%
X59643533Y-156518022D03*
%TO.P,SW24,2,2*%
%TO.N,Net-(A2-D4)*%
X53293533Y-159058022D03*
%TD*%
%TO.P,SW31,1,1*%
%TO.N,Net-(D25-A)*%
X88508996Y-175734711D03*
%TO.P,SW31,2,2*%
%TO.N,Net-(A2-D4)*%
X82158996Y-178274711D03*
%TD*%
%TO.P,SW15,1,1*%
%TO.N,Net-(D12-A)*%
X30786276Y-129404711D03*
%TO.P,SW15,2,2*%
%TO.N,Net-(A2-D7)*%
X24436276Y-131944711D03*
%TD*%
%TO.P,SW21,1,1*%
%TO.N,Net-(D18-A)*%
X146207254Y-129404711D03*
%TO.P,SW21,2,2*%
%TO.N,Net-(A2-D5)*%
X139857254Y-131944711D03*
%TD*%
D14*
%TO.P,SW8,1,C*%
%TO.N,GND*%
X163500000Y-92500000D03*
%TO.P,SW8,2,B*%
%TO.N,Net-(A2-D0{slash}RX)*%
X163500000Y-88000000D03*
%TO.P,SW8,3,A*%
%TO.N,unconnected-(SW8-A-Pad3)*%
X163500000Y-83500000D03*
%TD*%
D15*
%TO.P,D19,1,K*%
%TO.N,Net-(A2-D10)*%
X158010711Y-142882820D03*
D13*
%TO.P,D19,2,A*%
%TO.N,Net-(D19-A)*%
X165630711Y-142882820D03*
%TD*%
D15*
%TO.P,D6,1,K*%
%TO.N,Net-(A2-D11)*%
X81195215Y-96245669D03*
D13*
%TO.P,D6,2,A*%
%TO.N,Net-(D6-A)*%
X88815215Y-96245669D03*
%TD*%
%TO.P,C2,1*%
%TO.N,GND*%
X43560000Y-48190000D03*
%TO.P,C2,2*%
%TO.N,-12V*%
X38560000Y-48190000D03*
%TD*%
D24*
%TO.P,D1,1,K*%
%TO.N,Net-(D1-K)*%
X56260294Y-48722353D03*
D25*
%TO.P,D1,2,A*%
%TO.N,Net-(A2-D1{slash}TX)*%
X56260294Y-46182353D03*
%TD*%
D16*
%TO.P,SW10,1,1*%
%TO.N,Net-(D7-A)*%
X40408264Y-110188022D03*
%TO.P,SW10,2,2*%
%TO.N,Net-(A2-D7)*%
X34058264Y-112728022D03*
%TD*%
D15*
%TO.P,D3,1,K*%
%TO.N,Net-(A2-D8)*%
X23200711Y-96251300D03*
D13*
%TO.P,D3,2,A*%
%TO.N,Net-(D3-A)*%
X30820711Y-96251300D03*
%TD*%
D16*
%TO.P,SW27,1,1*%
%TO.N,Net-(D30-A)*%
X136606781Y-156518022D03*
%TO.P,SW27,2,2*%
%TO.N,Net-(A2-D3)*%
X130256781Y-159058022D03*
%TD*%
%TO.P,SW23,1,1*%
%TO.N,Net-(D20-A)*%
X40420495Y-156518022D03*
%TO.P,SW23,2,2*%
%TO.N,Net-(A2-D5)*%
X34070495Y-159058022D03*
%TD*%
D22*
%TO.P,J7,1,Pin_1*%
%TO.N,Net-(J6-Pin_3)*%
X27500000Y-65000000D03*
%TD*%
D23*
%TO.P,J5,1,Pin_1*%
%TO.N,12V*%
X141920000Y-19500000D03*
D18*
%TO.P,J5,2,Pin_2*%
%TO.N,-12V*%
X141920000Y-16960000D03*
%TO.P,J5,3,Pin_3*%
%TO.N,GND*%
X144460000Y-19500000D03*
%TO.P,J5,4,Pin_4*%
X144460000Y-16960000D03*
%TO.P,J5,5,Pin_5*%
%TO.N,5V*%
X147000000Y-19500000D03*
%TO.P,J5,6,Pin_6*%
%TO.N,unconnected-(J5-Pin_6-Pad6)*%
X147000000Y-16960000D03*
%TD*%
D15*
%TO.P,D13,1,K*%
%TO.N,Net-(A2-D10)*%
X42450711Y-142882820D03*
D13*
%TO.P,D13,2,A*%
%TO.N,Net-(D13-A)*%
X50070711Y-142882820D03*
%TD*%
D15*
%TO.P,D9,1,K*%
%TO.N,Net-(A2-D9)*%
X90480930Y-123636385D03*
D13*
%TO.P,D9,2,A*%
%TO.N,Net-(D9-A)*%
X98100930Y-123636385D03*
%TD*%
D16*
%TO.P,SW34,1,1*%
%TO.N,Net-(D31-A)*%
X146219485Y-175734711D03*
%TO.P,SW34,2,2*%
%TO.N,Net-(A2-D3)*%
X139869485Y-178274711D03*
%TD*%
%TO.P,SW25,1,1*%
%TO.N,Net-(D26-A)*%
X98113161Y-156518022D03*
%TO.P,SW25,2,2*%
%TO.N,Net-(A2-D4)*%
X91763161Y-159058022D03*
%TD*%
D13*
%TO.P,R1,1*%
%TO.N,GND*%
X35500000Y-47750000D03*
%TO.P,R1,2*%
%TO.N,Net-(U1B--)*%
X35500000Y-57910000D03*
%TD*%
D16*
%TO.P,SW17,1,1*%
%TO.N,Net-(D15-A)*%
X88496765Y-129404711D03*
%TO.P,SW17,2,2*%
%TO.N,Net-(A2-D6)*%
X82146765Y-131944711D03*
%TD*%
D15*
%TO.P,D11,1,K*%
%TO.N,Net-(A2-D8)*%
X128974550Y-123649542D03*
D13*
%TO.P,D11,2,A*%
%TO.N,Net-(D11-A)*%
X136594550Y-123649542D03*
%TD*%
D16*
%TO.P,SW11,1,1*%
%TO.N,Net-(D8-A)*%
X59631302Y-110188022D03*
%TO.P,SW11,2,2*%
%TO.N,Net-(A2-D7)*%
X53281302Y-112728022D03*
%TD*%
D13*
%TO.P,C1,1*%
%TO.N,GND*%
X41310000Y-61440000D03*
%TO.P,C1,2*%
%TO.N,12V*%
X46310000Y-61440000D03*
%TD*%
D15*
%TO.P,D27,1,K*%
%TO.N,Net-(A2-D8)*%
X109760495Y-170162305D03*
D13*
%TO.P,D27,2,A*%
%TO.N,Net-(D27-A)*%
X117380495Y-170162305D03*
%TD*%
D15*
%TO.P,D17,1,K*%
%TO.N,Net-(A2-D12)*%
X119380000Y-142882820D03*
D13*
%TO.P,D17,2,A*%
%TO.N,Net-(D17-A)*%
X127000000Y-142882820D03*
%TD*%
D15*
%TO.P,D14,1,K*%
%TO.N,Net-(A2-D12)*%
X61510711Y-142882820D03*
D13*
%TO.P,D14,2,A*%
%TO.N,Net-(D14-A)*%
X69130711Y-142882820D03*
%TD*%
D16*
%TO.P,SW16,1,1*%
%TO.N,Net-(D13-A)*%
X50023106Y-129404711D03*
%TO.P,SW16,2,2*%
%TO.N,Net-(A2-D7)*%
X43673106Y-131944711D03*
%TD*%
D15*
%TO.P,D7,1,K*%
%TO.N,Net-(A2-D9)*%
X32788264Y-123632820D03*
D13*
%TO.P,D7,2,A*%
%TO.N,Net-(D7-A)*%
X40408264Y-123632820D03*
%TD*%
%TO.P,R4,1*%
%TO.N,GND*%
X49500000Y-60580000D03*
%TO.P,R4,2*%
%TO.N,Net-(U1A--)*%
X49500000Y-50420000D03*
%TD*%
D26*
%TO.P,U1,1*%
%TO.N,Net-(R3-Pad2)*%
X46310000Y-50940000D03*
D13*
%TO.P,U1,2,-*%
%TO.N,Net-(U1A--)*%
X43770000Y-50940000D03*
%TO.P,U1,3,+*%
%TO.N,Net-(U1A-+)*%
X41230000Y-50940000D03*
%TO.P,U1,4,V-*%
%TO.N,-12V*%
X38690000Y-50940000D03*
%TO.P,U1,5,+*%
%TO.N,Net-(U1B-+)*%
X38690000Y-58560000D03*
%TO.P,U1,6,-*%
%TO.N,Net-(U1B--)*%
X41230000Y-58560000D03*
%TO.P,U1,7*%
%TO.N,Net-(R2-Pad2)*%
X43770000Y-58560000D03*
%TO.P,U1,8,V+*%
%TO.N,12V*%
X46310000Y-58560000D03*
%TD*%
D16*
%TO.P,SW5,1,1*%
%TO.N,Net-(D6-A)*%
X88591589Y-82915669D03*
%TO.P,SW5,2,2*%
%TO.N,Net-(A2-D2)*%
X82241589Y-85455669D03*
%TD*%
D15*
%TO.P,D31,1,K*%
%TO.N,Net-(A2-D11)*%
X138614867Y-189175201D03*
D13*
%TO.P,D31,2,A*%
%TO.N,Net-(D31-A)*%
X146234867Y-189175201D03*
%TD*%
D22*
%TO.P,J1,1,Pin_1*%
%TO.N,Net-(J1-Pin_1)*%
X27500000Y-37750000D03*
%TD*%
D15*
%TO.P,D12,1,K*%
%TO.N,Net-(A2-D8)*%
X23200711Y-142882820D03*
D13*
%TO.P,D12,2,A*%
%TO.N,Net-(D12-A)*%
X30820711Y-142882820D03*
%TD*%
D19*
%TO.P,A1,1,D1/TX*%
%TO.N,unconnected-(A1-D1{slash}TX-Pad1)*%
X130590000Y-43784000D03*
D20*
%TO.P,A1,2,D0/RX*%
%TO.N,unconnected-(A1-D0{slash}RX-Pad2)*%
X133130000Y-43784000D03*
%TO.P,A1,3,~{RESET}*%
%TO.N,Net-(A1-~{RESET}-Pad3)*%
X135670000Y-43784000D03*
%TO.P,A1,4,GND*%
%TO.N,GND*%
X138210000Y-43784000D03*
%TO.P,A1,5,D2*%
%TO.N,Net-(A1-D2)*%
X140750000Y-43784000D03*
%TO.P,A1,6,D3*%
%TO.N,unconnected-(A1-D3-Pad6)*%
X143290000Y-43784000D03*
%TO.P,A1,7,D4*%
%TO.N,unconnected-(A1-D4-Pad7)*%
X145830000Y-43784000D03*
%TO.P,A1,8,D5*%
%TO.N,unconnected-(A1-D5-Pad8)*%
X148370000Y-43784000D03*
%TO.P,A1,9,D6*%
%TO.N,unconnected-(A1-D6-Pad9)*%
X150910000Y-43784000D03*
%TO.P,A1,10,D7*%
%TO.N,unconnected-(A1-D7-Pad10)*%
X153450000Y-43784000D03*
%TO.P,A1,11,D8*%
%TO.N,Net-(A1-D8)*%
X155990000Y-43784000D03*
%TO.P,A1,12,D9*%
%TO.N,Net-(A1-D9)*%
X158530000Y-43784000D03*
%TO.P,A1,13,D10*%
%TO.N,Net-(A1-D10)*%
X161070000Y-43784000D03*
%TO.P,A1,14,D11*%
%TO.N,Net-(A1-D11)*%
X163610000Y-43784000D03*
%TO.P,A1,15,D12*%
%TO.N,unconnected-(A1-D12-Pad15)*%
X166150000Y-43784000D03*
%TO.P,A1,16,D13*%
%TO.N,Net-(A1-D13)*%
X166150000Y-28544000D03*
%TO.P,A1,17,3V3*%
%TO.N,Net-(A1-3V3)*%
X163610000Y-28544000D03*
%TO.P,A1,18,AREF*%
%TO.N,unconnected-(A1-AREF-Pad18)*%
X161070000Y-28544000D03*
%TO.P,A1,19,A0*%
%TO.N,unconnected-(A1-A0-Pad19)*%
X158530000Y-28544000D03*
%TO.P,A1,20,A1*%
%TO.N,unconnected-(A1-A1-Pad20)*%
X155990000Y-28544000D03*
%TO.P,A1,21,A2*%
%TO.N,unconnected-(A1-A2-Pad21)*%
X153450000Y-28544000D03*
%TO.P,A1,22,A3*%
%TO.N,unconnected-(A1-A3-Pad22)*%
X150910000Y-28544000D03*
%TO.P,A1,23,A4*%
%TO.N,Net-(A1-A4)*%
X148370000Y-28544000D03*
%TO.P,A1,24,A5*%
%TO.N,Net-(A1-A5)*%
X145830000Y-28544000D03*
%TO.P,A1,25,A6*%
%TO.N,unconnected-(A1-A6-Pad25)*%
X143290000Y-28544000D03*
%TO.P,A1,26,A7*%
%TO.N,unconnected-(A1-A7-Pad26)*%
X140750000Y-28544000D03*
%TO.P,A1,27,+5V*%
%TO.N,5V*%
X138210000Y-28544000D03*
%TO.P,A1,28,~{RESET}*%
%TO.N,unconnected-(A1-~{RESET}-Pad28)*%
X135670000Y-28544000D03*
%TO.P,A1,29,GND*%
%TO.N,GND*%
X133130000Y-28544000D03*
%TO.P,A1,30,VIN*%
%TO.N,unconnected-(A1-VIN-Pad30)*%
X130590000Y-28544000D03*
%TD*%
D13*
%TO.P,R3,1*%
%TO.N,Net-(J6-Pin_3)*%
X22340000Y-51000000D03*
%TO.P,R3,2*%
%TO.N,Net-(R3-Pad2)*%
X32500000Y-51000000D03*
%TD*%
D16*
%TO.P,SW18,1,1*%
%TO.N,Net-(D14-A)*%
X69259935Y-129404711D03*
%TO.P,SW18,2,2*%
%TO.N,Net-(A2-D7)*%
X62909935Y-131944711D03*
%TD*%
D15*
%TO.P,D8,1,K*%
%TO.N,Net-(A2-D11)*%
X52011302Y-123622070D03*
D13*
%TO.P,D8,2,A*%
%TO.N,Net-(D8-A)*%
X59631302Y-123622070D03*
%TD*%
D26*
%TO.P,D2,1,K*%
%TO.N,Net-(A2-D12)*%
X157000000Y-84880000D03*
D13*
%TO.P,D2,2,A*%
%TO.N,Net-(D2-A)*%
X157000000Y-92500000D03*
%TD*%
D16*
%TO.P,SW12,1,1*%
%TO.N,Net-(D9-A)*%
X98100930Y-110188022D03*
%TO.P,SW12,2,2*%
%TO.N,Net-(A2-D6)*%
X91750930Y-112728022D03*
%TD*%
D22*
%TO.P,J8,1,Pin_1*%
%TO.N,Net-(J6-Pin_4)*%
X56250000Y-65000000D03*
%TD*%
D16*
%TO.P,SW6,1,1*%
%TO.N,Net-(D4-A)*%
X69327963Y-82915669D03*
%TO.P,SW6,2,2*%
%TO.N,Net-(A2-D2)*%
X62977963Y-85455669D03*
%TD*%
D15*
%TO.P,D10,1,K*%
%TO.N,Net-(A2-D11)*%
X109719626Y-123645482D03*
D13*
%TO.P,D10,2,A*%
%TO.N,Net-(D10-A)*%
X117339626Y-123645482D03*
%TD*%
D27*
%TO.N,Net-(A1-D8)*%
X147557562Y-35351562D02*
X155990000Y-43784000D01*
X75505671Y-55848789D02*
X96002898Y-35351562D01*
X96002898Y-35351562D02*
X147557562Y-35351562D01*
%TO.N,Net-(A1-D9)*%
X93863898Y-34950562D02*
X149696562Y-34950562D01*
X149696562Y-34950562D02*
X158530000Y-43784000D01*
X75505671Y-53308789D02*
X93863898Y-34950562D01*
%TO.N,Net-(A1-~{RESET}-Pad3)*%
X135670000Y-43784000D02*
X140460973Y-48574973D01*
X140460973Y-48574973D02*
X163769446Y-48574973D01*
%TO.N,Net-(A1-3V3)*%
X80227898Y-33346562D02*
X158807438Y-33346562D01*
X158807438Y-33346562D02*
X163610000Y-28544000D01*
X75505671Y-38068789D02*
X80227898Y-33346562D01*
%TO.N,GND*%
X37933572Y-44863002D02*
X41260570Y-48190000D01*
X64031000Y-46531000D02*
X64000000Y-46500000D01*
X75505671Y-40608789D02*
X69583460Y-46531000D01*
X45076812Y-46014002D02*
X44402572Y-45339762D01*
X37960000Y-77250000D02*
X39111000Y-76099000D01*
X94501934Y-15809000D02*
X95652934Y-16960000D01*
X95652934Y-16960000D02*
X96803934Y-15809000D01*
X42411000Y-62541000D02*
X41310000Y-61440000D01*
X96803934Y-15809000D02*
X143309000Y-15809000D01*
X142201000Y-86699000D02*
X157699000Y-86699000D01*
X157699000Y-86699000D02*
X163500000Y-92500000D01*
X133134126Y-53317720D02*
X133134126Y-63477720D01*
X69583460Y-46531000D02*
X64031000Y-46531000D01*
X49500000Y-60580000D02*
X47539000Y-62541000D01*
X144460000Y-16960000D02*
X144460000Y-19500000D01*
X133134126Y-63477720D02*
X138214126Y-68557720D01*
X46969000Y-76099000D02*
X48120000Y-77250000D01*
X95652934Y-16960000D02*
X95652934Y-19500000D01*
X46942572Y-46014002D02*
X45076812Y-46014002D01*
X47731000Y-15809000D02*
X94501934Y-15809000D01*
X37933572Y-45316428D02*
X37933572Y-44863002D01*
X46540000Y-17000000D02*
X47731000Y-15809000D01*
X39111000Y-76099000D02*
X46969000Y-76099000D01*
X43560000Y-48190000D02*
X44766574Y-48190000D01*
X47539000Y-75529000D02*
X47539000Y-62541000D01*
X35500000Y-47750000D02*
X37933572Y-45316428D01*
X41260570Y-48190000D02*
X43560000Y-48190000D01*
X44402572Y-21677428D02*
X46540000Y-19540000D01*
X44766574Y-48190000D02*
X48093572Y-44863002D01*
X144460000Y-16960000D02*
X143309000Y-15809000D01*
X47539000Y-62541000D02*
X42411000Y-62541000D01*
X44402572Y-45339762D02*
X44402572Y-21677428D01*
X46969000Y-76099000D02*
X47539000Y-75529000D01*
X133900000Y-95000000D02*
X142201000Y-86699000D01*
X48093572Y-44863002D02*
X46942572Y-46014002D01*
%TO.N,Net-(A1-D10)*%
X91724898Y-34549562D02*
X151835562Y-34549562D01*
X75505671Y-50768789D02*
X91724898Y-34549562D01*
X151835562Y-34549562D02*
X161070000Y-43784000D01*
%TO.N,Net-(A1-D11)*%
X89585898Y-34148562D02*
X153974562Y-34148562D01*
X153974562Y-34148562D02*
X163610000Y-43784000D01*
X75505671Y-48228789D02*
X89585898Y-34148562D01*
%TO.N,5V*%
X49080000Y-41336574D02*
X49080000Y-19540000D01*
X45553572Y-44863002D02*
X49080000Y-41336574D01*
%TO.N,Net-(D2-A)*%
X150250000Y-92500000D02*
X157000000Y-92500000D01*
%TO.N,Net-(D3-A)*%
X30820711Y-96251300D02*
X30820711Y-82941300D01*
X30820711Y-82941300D02*
X30800711Y-82921300D01*
%TO.N,Net-(D4-A)*%
X69316226Y-82973774D02*
X69370000Y-82920000D01*
X69316226Y-96248700D02*
X69316226Y-82973774D01*
%TO.N,Net-(D5-A)*%
X50060000Y-82960000D02*
X50100000Y-82920000D01*
X50060000Y-96250000D02*
X50060000Y-82960000D01*
%TO.N,Net-(D6-A)*%
X88815215Y-96245669D02*
X88815215Y-83115215D01*
X88815215Y-83115215D02*
X88620000Y-82920000D01*
%TO.N,Net-(D7-A)*%
X40408264Y-110171300D02*
X40408264Y-123632820D01*
%TO.N,Net-(D13-A)*%
X50019550Y-129403591D02*
X50019550Y-142831659D01*
X50019550Y-142831659D02*
X50070711Y-142882820D01*
%TO.N,Net-(D14-A)*%
X69239882Y-142773649D02*
X69130711Y-142882820D01*
X69239882Y-129403545D02*
X69239882Y-142773649D01*
%TO.N,Net-(D16-A)*%
X107880711Y-142882820D02*
X107750000Y-142752109D01*
X107750000Y-142752109D02*
X107750000Y-129440935D01*
X107750000Y-129440935D02*
X107713776Y-129404711D01*
%TO.N,Net-(D17-A)*%
X126949415Y-142832235D02*
X127000000Y-142882820D01*
X126949415Y-129396989D02*
X126949415Y-142832235D01*
%TO.N,Net-(D18-A)*%
X146320711Y-129524774D02*
X146200648Y-129404711D01*
X146320711Y-142882820D02*
X146320711Y-129524774D01*
%TO.N,Net-(D23-A)*%
X59643533Y-169839267D02*
X59570495Y-169912305D01*
X59643533Y-156490550D02*
X59643533Y-169839267D01*
%TO.N,Net-(D24-A)*%
X50031781Y-189152093D02*
X50053769Y-189174081D01*
X50031781Y-175733591D02*
X50031781Y-189152093D01*
%TO.N,Net-(D25-A)*%
X88482572Y-175734711D02*
X88482572Y-189153213D01*
X88482572Y-189153213D02*
X88504560Y-189175201D01*
%TO.N,Net-(D28-A)*%
X107726007Y-175734711D02*
X107726007Y-189153213D01*
X107726007Y-189153213D02*
X107747995Y-189175201D01*
%TO.N,Net-(D30-A)*%
X136606781Y-169888591D02*
X136630495Y-169912305D01*
X136606781Y-156518022D02*
X136606781Y-169888591D01*
%TO.N,Net-(D31-A)*%
X146212879Y-175734711D02*
X146212879Y-189153213D01*
X146212879Y-189153213D02*
X146234867Y-189175201D01*
%TO.N,Net-(A2-D6)*%
X101363776Y-131944711D02*
X105304776Y-128003711D01*
X105304776Y-128003711D02*
X116666137Y-128003711D01*
X110989626Y-122327200D02*
X116666137Y-128003711D01*
X116666137Y-128003711D02*
X120599415Y-131936989D01*
X110989626Y-112723962D02*
X110989626Y-122327200D01*
%TO.N,Net-(A2-D10)*%
X120397441Y-160397022D02*
X129010495Y-169010076D01*
X41198550Y-132433277D02*
X41198550Y-141630659D01*
X61696226Y-96248700D02*
X44207409Y-113737517D01*
X44207409Y-113737517D02*
X44207409Y-129424418D01*
X129010495Y-169010076D02*
X129010495Y-169912305D01*
X100260711Y-142882820D02*
X117774913Y-160397022D01*
X41198550Y-141630659D02*
X42450711Y-142882820D01*
X44207409Y-129424418D02*
X41198550Y-132433277D01*
X117774913Y-160397022D02*
X120397441Y-160397022D01*
%TO.N,Net-(A2-D4)*%
X53293533Y-168664965D02*
X62902113Y-178273545D01*
X82131406Y-178273545D02*
X82132572Y-178274711D01*
X62902113Y-178273545D02*
X82131406Y-178273545D01*
X53293533Y-159030550D02*
X53293533Y-168664965D01*
X91763161Y-159044865D02*
X91763161Y-168661865D01*
X91763161Y-168661865D02*
X101376007Y-178274711D01*
%TO.N,Net-(A2-D8)*%
X80700711Y-143344042D02*
X80700711Y-143132820D01*
X23200711Y-162298681D02*
X31915335Y-171013305D01*
X50849495Y-171013305D02*
X51950495Y-169912305D01*
X107518974Y-170162305D02*
X80700711Y-143344042D01*
X31915335Y-171013305D02*
X50849495Y-171013305D01*
X23200711Y-142882820D02*
X23200711Y-162298681D01*
X109760495Y-170162305D02*
X107518974Y-170162305D01*
%TO.N,Net-(A2-A1)*%
X144733126Y-71381770D02*
X144733126Y-64578720D01*
X144733126Y-64578720D02*
X155994126Y-53317720D01*
X135614896Y-80500000D02*
X144733126Y-71381770D01*
X133900000Y-80500000D02*
X135614896Y-80500000D01*
%TO.N,Net-(A2-D11)*%
X51171711Y-151671614D02*
X32931020Y-169912305D01*
X52011302Y-123622070D02*
X52011302Y-130738698D01*
X52011302Y-123622070D02*
X52062070Y-123622070D01*
X32931020Y-169912305D02*
X32700495Y-169912305D01*
X81195215Y-96245669D02*
X79410999Y-96245669D01*
X79438471Y-96245669D02*
X81195215Y-96245669D01*
X51171711Y-131578289D02*
X51171711Y-151671614D01*
X72209804Y-151671614D02*
X51171711Y-151671614D01*
X52011302Y-130738698D02*
X51171711Y-131578289D01*
X52062070Y-123622070D02*
X79438471Y-96245669D01*
X90450495Y-169912305D02*
X72209804Y-151671614D01*
%TO.N,Net-(A2-D3)*%
X124552646Y-174325989D02*
X120611646Y-178266989D01*
X143811601Y-174325989D02*
X139325989Y-174325989D01*
X130256781Y-159058022D02*
X130256781Y-165256781D01*
X159106315Y-178274711D02*
X155157593Y-174325989D01*
X130256781Y-165256781D02*
X139325989Y-174325989D01*
X155157593Y-174325989D02*
X143811601Y-174325989D01*
X139325989Y-174325989D02*
X124552646Y-174325989D01*
X139862879Y-178274711D02*
X143811601Y-174325989D01*
%TO.N,Net-(A2-D9)*%
X62756267Y-190276201D02*
X118254912Y-190276201D01*
X118254912Y-190276201D02*
X119363634Y-189167479D01*
X90480930Y-123636385D02*
X90480930Y-127040089D01*
X31587264Y-107102736D02*
X31587264Y-122431820D01*
X107424661Y-143983820D02*
X137599711Y-143983820D01*
X61654101Y-189174035D02*
X62756267Y-190276201D01*
X31587264Y-122431820D02*
X32788264Y-123632820D01*
X137599711Y-143983820D02*
X138700711Y-142882820D01*
X42440000Y-96250000D02*
X31587264Y-107102736D01*
X90480930Y-127040089D02*
X107424661Y-143983820D01*
%TO.N,Net-(A2-D12)*%
X157000000Y-84880000D02*
X157000000Y-77711846D01*
X157000000Y-77711846D02*
X166154126Y-68557720D01*
%TO.N,Net-(A2-A0)*%
X128900000Y-92294896D02*
X149500000Y-71694896D01*
X149500000Y-71694896D02*
X149500000Y-62351846D01*
X149500000Y-62351846D02*
X158534126Y-53317720D01*
X128900000Y-95000000D02*
X128900000Y-92294896D01*
%TO.N,Net-(A2-D5)*%
X24448507Y-178261815D02*
X43670005Y-178261815D01*
X160553084Y-133403711D02*
X159094084Y-131944711D01*
X130244550Y-112728022D02*
X130244550Y-122338613D01*
X151608701Y-187370340D02*
X153000000Y-187370340D01*
X155153084Y-128003711D02*
X159094084Y-131944711D01*
X60553101Y-189959195D02*
X61271107Y-190677201D01*
X60553101Y-184270041D02*
X60553101Y-189959195D01*
X43670005Y-178261815D02*
X43681781Y-178273591D01*
X61271107Y-190677201D02*
X148301840Y-190677201D01*
X148301840Y-190677201D02*
X151608701Y-187370340D01*
X43685337Y-178273591D02*
X47626337Y-174332591D01*
X50615651Y-174332591D02*
X60553101Y-184270041D01*
X139850648Y-131944711D02*
X143791648Y-128003711D01*
X160553084Y-179817256D02*
X160553084Y-133403711D01*
X153000000Y-187370340D02*
X160553084Y-179817256D01*
X143791648Y-128003711D02*
X155153084Y-128003711D01*
X47626337Y-174332591D02*
X50615651Y-174332591D01*
X130244550Y-122338613D02*
X139850648Y-131944711D01*
%TO.N,Net-(A2-D1{slash}TX)*%
X69000000Y-53000000D02*
X68942950Y-53000000D01*
X130594126Y-68557720D02*
X124536406Y-62500000D01*
X124536406Y-62500000D02*
X75449122Y-62500000D01*
X74354671Y-58354671D02*
X69000000Y-53000000D01*
X74354671Y-61405549D02*
X74354671Y-58354671D01*
X62899000Y-45351000D02*
X64000000Y-44250000D01*
X68942950Y-53000000D02*
X62899000Y-46956050D01*
X62899000Y-46956050D02*
X62899000Y-45351000D01*
X75449122Y-62500000D02*
X74354671Y-61405549D01*
%TO.N,Net-(A2-A2)*%
X135162896Y-78750000D02*
X142193126Y-71719770D01*
X130650000Y-78750000D02*
X135162896Y-78750000D01*
X128900000Y-80500000D02*
X130650000Y-78750000D01*
X142193126Y-64578720D02*
X153454126Y-53317720D01*
X142193126Y-71719770D02*
X142193126Y-64578720D01*
%TO.N,Net-(A2-D13)*%
X166646699Y-53317720D02*
X166154126Y-53317720D01*
X171389446Y-48574973D02*
X166646699Y-53317720D01*
%TO.N,Net-(A2-D2)*%
X59036963Y-81514669D02*
X62977963Y-85455669D01*
X43714337Y-85455669D02*
X47655337Y-81514669D01*
X47655337Y-81514669D02*
X59036963Y-81514669D01*
X24450711Y-85455669D02*
X28391711Y-81514669D01*
X82241589Y-85455669D02*
X86182589Y-81514669D01*
X128361108Y-96301000D02*
X141949000Y-96301000D01*
X39773337Y-81514669D02*
X43714337Y-85455669D01*
X28391711Y-81514669D02*
X39773337Y-81514669D01*
X78300589Y-81514669D02*
X82241589Y-85455669D01*
X66918963Y-81514669D02*
X78300589Y-81514669D01*
X62977963Y-85455669D02*
X66918963Y-81514669D01*
X113574777Y-81514669D02*
X128361108Y-96301000D01*
X141949000Y-96301000D02*
X150250000Y-88000000D01*
X86182589Y-81514669D02*
X113574777Y-81514669D01*
%TO.N,Net-(D1-K)*%
X64000000Y-56660000D02*
X56260294Y-48920294D01*
X56260294Y-48920294D02*
X56260294Y-48722353D01*
%TO.N,Net-(D32-A)*%
X159310000Y-187745842D02*
X159310000Y-189175201D01*
X165456315Y-181599527D02*
X159310000Y-187745842D01*
X165456315Y-175734711D02*
X165456315Y-181599527D01*
%TO.N,Net-(J2-Pin_1)*%
X64000000Y-34090000D02*
X64000000Y-40380000D01*
X64000000Y-34090000D02*
X59910000Y-34090000D01*
X59910000Y-34090000D02*
X56250000Y-37750000D01*
X64000000Y-40380000D02*
X69000000Y-45380000D01*
%TO.N,Net-(J6-Pin_4)*%
X60330000Y-69080000D02*
X56250000Y-65000000D01*
X64000000Y-69080000D02*
X60330000Y-69080000D01*
%TO.N,Net-(U1B--)*%
X39780001Y-57110001D02*
X41230000Y-58560000D01*
X36299999Y-57110001D02*
X39780001Y-57110001D01*
X35500000Y-57910000D02*
X36299999Y-57110001D01*
%TO.N,Net-(R2-Pad2)*%
X31399000Y-51456050D02*
X31399000Y-48601000D01*
X41710000Y-56500000D02*
X36442950Y-56500000D01*
X31399000Y-48601000D02*
X32500000Y-47500000D01*
X36442950Y-56500000D02*
X31399000Y-51456050D01*
X43770000Y-58560000D02*
X41710000Y-56500000D01*
%TO.N,Net-(R3-Pad2)*%
X44808000Y-52442000D02*
X46310000Y-50940000D01*
X33942000Y-52442000D02*
X44808000Y-52442000D01*
X32500000Y-51000000D02*
X33942000Y-52442000D01*
%TO.N,Net-(U1A--)*%
X43770000Y-50940000D02*
X45089999Y-49620001D01*
X48700001Y-49620001D02*
X49500000Y-50420000D01*
X45089999Y-49620001D02*
X48700001Y-49620001D01*
%TO.N,Net-(U3-Lite)*%
X127880000Y-48574973D02*
X87859487Y-48574973D01*
X87859487Y-48574973D02*
X75505671Y-60928789D01*
%TO.N,-12V*%
X38560000Y-48190000D02*
X38560000Y-50810000D01*
X38560000Y-50810000D02*
X38690000Y-50940000D01*
%TO.N,12V*%
X46310000Y-58560000D02*
X50601000Y-54269000D01*
X50601000Y-54269000D02*
X50601000Y-19433240D01*
X45151000Y-18389000D02*
X44000000Y-19540000D01*
X49556760Y-18389000D02*
X45151000Y-18389000D01*
X46310000Y-61440000D02*
X46310000Y-58560000D01*
X50601000Y-19433240D02*
X49556760Y-18389000D01*
%TO.N,Net-(U1A-+)*%
X34399000Y-45857574D02*
X35393572Y-44863002D01*
X34399000Y-48206050D02*
X34399000Y-45857574D01*
X38233950Y-52041000D02*
X34399000Y-48206050D01*
X40129000Y-52041000D02*
X38233950Y-52041000D01*
X41230000Y-50940000D02*
X40129000Y-52041000D01*
%TO.N,Net-(A1-A5)*%
X145834126Y-53317720D02*
X146159330Y-53317720D01*
X146159330Y-53317720D02*
X149477050Y-50000000D01*
X149477050Y-50000000D02*
X158080000Y-50000000D01*
%TO.N,Net-(U1B-+)*%
X38690000Y-58560000D02*
X38690000Y-73980000D01*
X38690000Y-73980000D02*
X35420000Y-77250000D01*
%TO.N,Net-(A1-D13)*%
X84906898Y-33747562D02*
X160946438Y-33747562D01*
X160946438Y-33747562D02*
X166150000Y-28544000D01*
X75505671Y-43148789D02*
X84906898Y-33747562D01*
%TD*%
M02*
