M48
; DRILL file {KiCad 9.0.6} date 2026-05-21T23:58:30+1000
; FORMAT={-:-/ absolute / metric / decimal}
; #@! TF.CreationDate,2026-05-21T23:58:30+10:00
; #@! TF.GenerationSoftware,Kicad,Pcbnew,9.0.6
; #@! TF.FileFunction,NonPlated,1,2,NPTH
FMAT,2
METRIC
; #@! TA.AperFunction,NonPlated,NPTH,ComponentDrill
T1C1.700
; #@! TA.AperFunction,NonPlated,NPTH,ComponentDrill
T2C2.700
; #@! TA.AperFunction,NonPlated,NPTH,ComponentDrill
T3C3.200
; #@! TA.AperFunction,NonPlated,NPTH,ComponentDrill
T4C4.000
%
G90
G05
T1
X23.166Y-134.485
X23.179Y-180.802
X23.181Y-87.996
X32.788Y-115.268
X32.8Y-161.598
X33.326Y-134.485
X33.339Y-180.802
X33.341Y-87.996
X42.403Y-134.485
X42.415Y-180.814
X42.444Y-87.996
X42.948Y-115.268
X42.96Y-161.598
X52.011Y-115.268
X52.024Y-161.598
X52.563Y-134.485
X52.575Y-180.814
X52.604Y-87.996
X61.64Y-134.485
X61.652Y-180.814
X61.708Y-87.996
X62.171Y-115.268
X62.184Y-161.598
X71.8Y-134.485
X71.812Y-180.814
X71.868Y-87.996
X80.877Y-134.485
X80.889Y-180.815
X80.972Y-87.996
X90.481Y-115.268
X90.493Y-161.598
X91.037Y-134.485
X91.049Y-180.815
X91.132Y-87.996
X100.114Y-134.485
X100.126Y-180.815
X100.641Y-115.268
X100.653Y-161.598
X109.728Y-115.268
X109.74Y-161.598
X110.274Y-134.485
X110.286Y-180.815
X119.35Y-134.485
X119.363Y-180.807
X119.888Y-115.268
X119.9Y-161.598
X128.975Y-115.268
X128.987Y-161.598
X129.51Y-134.485
X129.523Y-180.807
X138.587Y-134.485
X138.599Y-180.815
X139.135Y-115.268
X139.147Y-161.598
X148.747Y-134.485
X148.759Y-180.815
X157.824Y-134.485
X157.836Y-180.815
X167.984Y-134.485
X167.996Y-180.815
T2
X76.202Y-67.229
X76.252Y-29.229
X115.252Y-67.279
X115.302Y-29.229
T3
X20.5Y-30.5
X24.5Y-121.0
X24.523Y-167.275
X33.5Y-194.0
X69.0Y-30.5
X69.0Y-74.5
X76.326Y-167.519
X76.328Y-121.031
X95.658Y-194.0
X147.5Y-121.0
X147.5Y-167.5
X157.5Y-194.0
X170.72Y-75.753
T4
X28.246Y-134.485
X28.259Y-180.802
X28.261Y-87.996
X37.868Y-115.268
X37.88Y-161.598
X47.483Y-134.485
X47.495Y-180.814
X47.524Y-87.996
X57.091Y-115.268
X57.104Y-161.598
X66.72Y-134.485
X66.732Y-180.814
X66.788Y-87.996
X85.957Y-134.485
X85.969Y-180.815
X86.052Y-87.996
X95.561Y-115.268
X95.573Y-161.598
X105.194Y-134.485
X105.206Y-180.815
X114.808Y-115.268
X114.82Y-161.598
X124.43Y-134.485
X124.443Y-180.807
X134.055Y-115.268
X134.067Y-161.598
X143.667Y-134.485
X143.679Y-180.815
X162.904Y-134.485
X162.916Y-180.815
M30
