%TF.GenerationSoftware,KiCad,Pcbnew,9.0.6*%
%TF.CreationDate,2026-05-21T23:58:28+10:00*%
%TF.ProjectId,note-sequencer,6e6f7465-2d73-4657-9175-656e6365722e,rev?*%
%TF.SameCoordinates,Original*%
%TF.FileFunction,Copper,L1,Top*%
%TF.FilePolarity,Positive*%
%FSLAX46Y46*%
G04 Gerber Fmt 4.6, Leading zero omitted, Abs format (unit mm)*
G04 Created by KiCad (PCBNEW 9.0.6) date 2026-05-21 23:58:28*
%MOMM*%
%LPD*%
G01*
G04 APERTURE LIST*
G04 Aperture macros list*
%AMRoundRect*
0 Rectangle with rounded corners*
0 $1 Rounding radius*
0 $2 $3 $4 $5 $6 $7 $8 $9 X,Y pos of 4 corners*
0 Add a 4 corners polygon primitive as box body*
4,1,4,$2,$3,$4,$5,$6,$7,$8,$9,$2,$3,0*
0 Add four circle primitives for the rounded corners*
1,1,$1+$1,$2,$3*
1,1,$1+$1,$4,$5*
1,1,$1+$1,$6,$7*
1,1,$1+$1,$8,$9*
0 Add four rect primitives between the rounded corners*
20,1,$1+$1,$2,$3,$4,$5,0*
20,1,$1+$1,$4,$5,$6,$7,0*
20,1,$1+$1,$6,$7,$8,$9,0*
20,1,$1+$1,$8,$9,$2,$3,0*%
G04 Aperture macros list end*
%TA.AperFunction,Conductor*%
%ADD10C,0.200000*%
%TD*%
%TA.AperFunction,ComponentPad*%
%ADD11R,2.000000X2.000000*%
%TD*%
%TA.AperFunction,ComponentPad*%
%ADD12C,2.000000*%
%TD*%
%TA.AperFunction,ComponentPad*%
%ADD13R,2.000000X3.200000*%
%TD*%
%TA.AperFunction,ComponentPad*%
%ADD14C,1.600000*%
%TD*%
%TA.AperFunction,ComponentPad*%
%ADD15O,3.750000X2.000000*%
%TD*%
%TA.AperFunction,ComponentPad*%
%ADD16RoundRect,0.250000X-0.550000X-0.550000X0.550000X-0.550000X0.550000X0.550000X-0.550000X0.550000X0*%
%TD*%
%TA.AperFunction,ComponentPad*%
%ADD17C,2.200000*%
%TD*%
%TA.AperFunction,ComponentPad*%
%ADD18R,1.700000X1.700000*%
%TD*%
%TA.AperFunction,ComponentPad*%
%ADD19C,1.700000*%
%TD*%
%TA.AperFunction,ComponentPad*%
%ADD20R,1.600000X1.600000*%
%TD*%
%TA.AperFunction,ComponentPad*%
%ADD21O,1.600000X1.600000*%
%TD*%
%TA.AperFunction,ComponentPad*%
%ADD22C,1.440000*%
%TD*%
%TA.AperFunction,ComponentPad*%
%ADD23C,8.000000*%
%TD*%
%TA.AperFunction,ComponentPad*%
%ADD24RoundRect,0.250000X0.600000X-0.600000X0.600000X0.600000X-0.600000X0.600000X-0.600000X-0.600000X0*%
%TD*%
%TA.AperFunction,ComponentPad*%
%ADD25R,1.800000X1.800000*%
%TD*%
%TA.AperFunction,ComponentPad*%
%ADD26C,1.800000*%
%TD*%
%TA.AperFunction,ComponentPad*%
%ADD27RoundRect,0.250000X-0.550000X0.550000X-0.550000X-0.550000X0.550000X-0.550000X0.550000X0.550000X0*%
%TD*%
G04 APERTURE END LIST*
D10*
%TO.N,GND*%
X46545000Y-19500000D02*
X46545000Y-17000000D01*
%TD*%
D11*
%TO.P,SW7,A,A*%
%TO.N,Net-(A2-A1)*%
X133900000Y-80500000D03*
D12*
%TO.P,SW7,B,B*%
%TO.N,Net-(A2-A2)*%
X128900000Y-80500000D03*
%TO.P,SW7,C,C*%
%TO.N,GND*%
X131400000Y-80500000D03*
D13*
%TO.P,SW7,MP*%
%TO.N,N/C*%
X137000000Y-88000000D03*
X125800000Y-88000000D03*
D12*
%TO.P,SW7,S1,S1*%
%TO.N,Net-(A2-A0)*%
X128900000Y-95000000D03*
%TO.P,SW7,S2,S2*%
%TO.N,GND*%
X133900000Y-95000000D03*
%TD*%
D14*
%TO.P,C3,1*%
%TO.N,GND*%
X140500000Y-50000000D03*
%TO.P,C3,2*%
%TO.N,5V*%
X145500000Y-50000000D03*
%TD*%
D15*
%TO.P,SW9,1,C*%
%TO.N,Net-(D2-A)*%
X150250000Y-92500000D03*
%TO.P,SW9,2,B*%
%TO.N,Net-(A2-D2)*%
X150250000Y-88000000D03*
%TO.P,SW9,3,A*%
%TO.N,unconnected-(SW9-A-Pad3)*%
X150250000Y-83500000D03*
%TD*%
D16*
%TO.P,D30,1,K*%
%TO.N,Net-(A2-D10)*%
X129010495Y-169912305D03*
D14*
%TO.P,D30,2,A*%
%TO.N,Net-(D30-A)*%
X136630495Y-169912305D03*
%TD*%
D17*
%TO.P,SW4,1,1*%
%TO.N,Net-(D5-A)*%
X50064337Y-82915669D03*
%TO.P,SW4,2,2*%
%TO.N,Net-(A2-D2)*%
X43714337Y-85455669D03*
%TD*%
D16*
%TO.P,D26,1,K*%
%TO.N,Net-(A2-D11)*%
X90450495Y-169912305D03*
D14*
%TO.P,D26,2,A*%
%TO.N,Net-(D26-A)*%
X98070495Y-169912305D03*
%TD*%
D16*
%TO.P,D21,1,K*%
%TO.N,Net-(A2-D10)*%
X31690000Y-189162305D03*
D14*
%TO.P,D21,2,A*%
%TO.N,Net-(D21-A)*%
X39310000Y-189162305D03*
%TD*%
%TO.P,R2,1*%
%TO.N,Net-(J1-Pin_1)*%
X22340000Y-47500000D03*
%TO.P,R2,2*%
%TO.N,Net-(R2-Pad2)*%
X32500000Y-47500000D03*
%TD*%
D16*
%TO.P,D23,1,K*%
%TO.N,Net-(A2-D8)*%
X51950495Y-169912305D03*
D14*
%TO.P,D23,2,A*%
%TO.N,Net-(D23-A)*%
X59570495Y-169912305D03*
%TD*%
D16*
%TO.P,SW1,1*%
%TO.N,Net-(U3-Lite)*%
X127880000Y-48574973D03*
D14*
%TO.P,SW1,2*%
%TO.N,Net-(A1-D2)*%
X135500000Y-48574973D03*
%TD*%
D17*
%TO.P,SW33,1,1*%
%TO.N,Net-(D29-A)*%
X126982656Y-175726989D03*
%TO.P,SW33,2,2*%
%TO.N,Net-(A2-D3)*%
X120632656Y-178266989D03*
%TD*%
D18*
%TO.P,U2,1,OUT*%
%TO.N,Net-(U1A-+)*%
X35393572Y-44863002D03*
D19*
%TO.P,U2,2,GND*%
%TO.N,GND*%
X37933572Y-44863002D03*
%TO.P,U2,3,SCL*%
%TO.N,Net-(A1-A5)*%
X40473572Y-44863002D03*
%TO.P,U2,4,SDA*%
%TO.N,Net-(A1-A4)*%
X43013572Y-44863002D03*
%TO.P,U2,5,VCC*%
%TO.N,5V*%
X45553572Y-44863002D03*
%TO.P,U2,6,GND*%
%TO.N,GND*%
X48093572Y-44863002D03*
%TD*%
D16*
%TO.P,D25,1,K*%
%TO.N,Net-(A2-D10)*%
X80884560Y-189175201D03*
D14*
%TO.P,D25,2,A*%
%TO.N,Net-(D25-A)*%
X88504560Y-189175201D03*
%TD*%
%TO.P,R7,1*%
%TO.N,Net-(A2-A3)*%
X64000000Y-58920000D03*
%TO.P,R7,2*%
%TO.N,Net-(J6-Pin_4)*%
X64000000Y-69080000D03*
%TD*%
D17*
%TO.P,SW19,1,1*%
%TO.N,Net-(D16-A)*%
X107733595Y-129404711D03*
%TO.P,SW19,2,2*%
%TO.N,Net-(A2-D6)*%
X101383595Y-131944711D03*
%TD*%
D16*
%TO.P,D32,1,K*%
%TO.N,Net-(A2-D12)*%
X151690000Y-189175201D03*
D14*
%TO.P,D32,2,A*%
%TO.N,Net-(D32-A)*%
X159310000Y-189175201D03*
%TD*%
D17*
%TO.P,SW32,1,1*%
%TO.N,Net-(D28-A)*%
X107745826Y-175734711D03*
%TO.P,SW32,2,2*%
%TO.N,Net-(A2-D4)*%
X101395826Y-178274711D03*
%TD*%
D16*
%TO.P,D22,1,K*%
%TO.N,Net-(A2-D9)*%
X61654101Y-189174035D03*
D14*
%TO.P,D22,2,A*%
%TO.N,Net-(D22-A)*%
X69274101Y-189174035D03*
%TD*%
D17*
%TO.P,SW28,1,1*%
%TO.N,Net-(D21-A)*%
X30798507Y-175721815D03*
%TO.P,SW28,2,2*%
%TO.N,Net-(A2-D5)*%
X24448507Y-178261815D03*
%TD*%
%TO.P,SW30,1,1*%
%TO.N,Net-(D22-A)*%
X69272166Y-175733545D03*
%TO.P,SW30,2,2*%
%TO.N,Net-(A2-D4)*%
X62922166Y-178273545D03*
%TD*%
D14*
%TO.P,R9,1*%
%TO.N,Net-(A1-A4)*%
X158080000Y-47000000D03*
%TO.P,R9,2*%
%TO.N,5V*%
X147920000Y-47000000D03*
%TD*%
%TO.P,R5,1*%
%TO.N,Net-(A2-D1{slash}TX)*%
X64000000Y-44250000D03*
%TO.P,R5,2*%
%TO.N,Net-(J2-Pin_1)*%
X64000000Y-34090000D03*
%TD*%
%TO.P,R8,1*%
%TO.N,Net-(A1-A5)*%
X158080000Y-50000000D03*
%TO.P,R8,2*%
%TO.N,5V*%
X147920000Y-50000000D03*
%TD*%
D20*
%TO.P,A2,1,D1/TX*%
%TO.N,Net-(A2-D1{slash}TX)*%
X130594126Y-68557720D03*
D21*
%TO.P,A2,2,D0/RX*%
%TO.N,Net-(A2-D0{slash}RX)*%
X133134126Y-68557720D03*
%TO.P,A2,3,~{RESET}*%
%TO.N,unconnected-(A2-~{RESET}-Pad3)*%
X135674126Y-68557720D03*
%TO.P,A2,4,GND*%
%TO.N,GND*%
X138214126Y-68557720D03*
%TO.P,A2,5,D2*%
%TO.N,Net-(A2-D2)*%
X140754126Y-68557720D03*
%TO.P,A2,6,D3*%
%TO.N,Net-(A2-D3)*%
X143294126Y-68557720D03*
%TO.P,A2,7,D4*%
%TO.N,Net-(A2-D4)*%
X145834126Y-68557720D03*
%TO.P,A2,8,D5*%
%TO.N,Net-(A2-D5)*%
X148374126Y-68557720D03*
%TO.P,A2,9,D6*%
%TO.N,Net-(A2-D6)*%
X150914126Y-68557720D03*
%TO.P,A2,10,D7*%
%TO.N,Net-(A2-D7)*%
X153454126Y-68557720D03*
%TO.P,A2,11,D8*%
%TO.N,Net-(A2-D8)*%
X155994126Y-68557720D03*
%TO.P,A2,12,D9*%
%TO.N,Net-(A2-D9)*%
X158534126Y-68557720D03*
%TO.P,A2,13,D10*%
%TO.N,Net-(A2-D10)*%
X161074126Y-68557720D03*
%TO.P,A2,14,D11*%
%TO.N,Net-(A2-D11)*%
X163614126Y-68557720D03*
%TO.P,A2,15,D12*%
%TO.N,Net-(A2-D12)*%
X166154126Y-68557720D03*
%TO.P,A2,16,D13*%
%TO.N,Net-(A2-D13)*%
X166154126Y-53317720D03*
%TO.P,A2,17,3V3*%
%TO.N,unconnected-(A2-3V3-Pad17)*%
X163614126Y-53317720D03*
%TO.P,A2,18,AREF*%
%TO.N,unconnected-(A2-AREF-Pad18)*%
X161074126Y-53317720D03*
%TO.P,A2,19,A0*%
%TO.N,Net-(A2-A0)*%
X158534126Y-53317720D03*
%TO.P,A2,20,A1*%
%TO.N,Net-(A2-A1)*%
X155994126Y-53317720D03*
%TO.P,A2,21,A2*%
%TO.N,Net-(A2-A2)*%
X153454126Y-53317720D03*
%TO.P,A2,22,A3*%
%TO.N,Net-(A2-A3)*%
X150914126Y-53317720D03*
%TO.P,A2,23,A4*%
%TO.N,Net-(A1-A4)*%
X148374126Y-53317720D03*
%TO.P,A2,24,A5*%
%TO.N,Net-(A1-A5)*%
X145834126Y-53317720D03*
%TO.P,A2,25,A6*%
%TO.N,unconnected-(A2-A6-Pad25)*%
X143294126Y-53317720D03*
%TO.P,A2,26,A7*%
%TO.N,unconnected-(A2-A7-Pad26)*%
X140754126Y-53317720D03*
%TO.P,A2,27,+5V*%
%TO.N,5V*%
X138214126Y-53317720D03*
%TO.P,A2,28,~{RESET}*%
%TO.N,unconnected-(A2-~{RESET}-Pad28)*%
X135674126Y-53317720D03*
%TO.P,A2,29,GND*%
%TO.N,GND*%
X133134126Y-53317720D03*
%TO.P,A2,30,VIN*%
%TO.N,unconnected-(A2-VIN-Pad30)*%
X130594126Y-53317720D03*
%TD*%
D17*
%TO.P,SW26,1,1*%
%TO.N,Net-(D27-A)*%
X117359971Y-156518022D03*
%TO.P,SW26,2,2*%
%TO.N,Net-(A2-D3)*%
X111009971Y-159058022D03*
%TD*%
D16*
%TO.P,D28,1,K*%
%TO.N,Net-(A2-D12)*%
X100127995Y-189175201D03*
D14*
%TO.P,D28,2,A*%
%TO.N,Net-(D28-A)*%
X107747995Y-189175201D03*
%TD*%
D16*
%TO.P,D24,1,K*%
%TO.N,Net-(A2-D12)*%
X42433769Y-189174081D03*
D14*
%TO.P,D24,2,A*%
%TO.N,Net-(D24-A)*%
X50053769Y-189174081D03*
%TD*%
D16*
%TO.P,D16,1,K*%
%TO.N,Net-(A2-D10)*%
X100260711Y-142882820D03*
D14*
%TO.P,D16,2,A*%
%TO.N,Net-(D16-A)*%
X107880711Y-142882820D03*
%TD*%
D22*
%TO.P,RV1,1,1*%
%TO.N,unconnected-(RV1-Pad1)*%
X24960000Y-55505000D03*
%TO.P,RV1,2,2*%
%TO.N,Net-(R2-Pad2)*%
X27500000Y-55505000D03*
%TO.P,RV1,3,3*%
%TO.N,Net-(U1B--)*%
X30040000Y-55505000D03*
%TD*%
D17*
%TO.P,SW14,1,1*%
%TO.N,Net-(D11-A)*%
X136594550Y-110188022D03*
%TO.P,SW14,2,2*%
%TO.N,Net-(A2-D5)*%
X130244550Y-112728022D03*
%TD*%
D16*
%TO.P,SW2,1*%
%TO.N,Net-(A1-~{RESET}-Pad3)*%
X163769446Y-48574973D03*
D14*
%TO.P,SW2,2*%
%TO.N,Net-(A2-D13)*%
X171389446Y-48574973D03*
%TD*%
D23*
%TO.P,J2,1,Pin_1*%
%TO.N,Net-(J2-Pin_1)*%
X56250000Y-37750000D03*
%TD*%
D24*
%TO.P,J3,1,Pin_1*%
%TO.N,12V*%
X44000000Y-19540000D03*
D19*
%TO.P,J3,2,Pin_2*%
%TO.N,-12V*%
X44000000Y-17000000D03*
%TO.P,J3,3,Pin_3*%
%TO.N,GND*%
X46540000Y-19540000D03*
%TO.P,J3,4,Pin_4*%
X46540000Y-17000000D03*
%TO.P,J3,5,Pin_5*%
%TO.N,5V*%
X49080000Y-19540000D03*
%TO.P,J3,6,Pin_6*%
%TO.N,unconnected-(J3-Pin_6-Pad6)*%
X49080000Y-17000000D03*
%TD*%
D16*
%TO.P,D29,1,K*%
%TO.N,Net-(A2-D9)*%
X119363634Y-189167479D03*
D14*
%TO.P,D29,2,A*%
%TO.N,Net-(D29-A)*%
X126983634Y-189167479D03*
%TD*%
D18*
%TO.P,U3,1,Vin*%
%TO.N,unconnected-(U3-Vin-Pad1)*%
X75505671Y-35528789D03*
D19*
%TO.P,U3,2,3v3*%
%TO.N,Net-(A1-3V3)*%
X75505671Y-38068789D03*
%TO.P,U3,3,Gnd*%
%TO.N,GND*%
X75505671Y-40608789D03*
%TO.P,U3,4,SCK*%
%TO.N,Net-(A1-D13)*%
X75505671Y-43148789D03*
%TO.P,U3,5,SO*%
%TO.N,unconnected-(U3-SO-Pad5)*%
X75505671Y-45688789D03*
%TO.P,U3,6,SI*%
%TO.N,Net-(A1-D11)*%
X75505671Y-48228789D03*
%TO.P,U3,7,TCS*%
%TO.N,Net-(A1-D10)*%
X75505671Y-50768789D03*
%TO.P,U3,8,RST*%
%TO.N,Net-(A1-D9)*%
X75505671Y-53308789D03*
%TO.P,U3,9,D/C*%
%TO.N,Net-(A1-D8)*%
X75505671Y-55848789D03*
%TO.P,U3,10,CCS*%
%TO.N,unconnected-(U3-CCS-Pad10)*%
X75505671Y-58388789D03*
%TO.P,U3,11,Lite*%
%TO.N,Net-(U3-Lite)*%
X75505671Y-60928789D03*
%TD*%
D18*
%TO.P,J6,1,Pin_1*%
%TO.N,Net-(J1-Pin_1)*%
X69000000Y-42840000D03*
D19*
%TO.P,J6,2,Pin_2*%
%TO.N,Net-(J2-Pin_1)*%
X69000000Y-45380000D03*
%TO.P,J6,3,Pin_3*%
%TO.N,Net-(J6-Pin_3)*%
X69000000Y-47920000D03*
%TO.P,J6,4,Pin_4*%
%TO.N,Net-(J6-Pin_4)*%
X69000000Y-50460000D03*
%TO.P,J6,5,Pin_5*%
%TO.N,Net-(A2-D1{slash}TX)*%
X69000000Y-53000000D03*
%TO.P,J6,6,Pin_6*%
%TO.N,Net-(D1-K)*%
X69000000Y-55540000D03*
%TD*%
D17*
%TO.P,SW3,1,1*%
%TO.N,Net-(D3-A)*%
X30800711Y-82915669D03*
%TO.P,SW3,2,2*%
%TO.N,Net-(A2-D2)*%
X24450711Y-85455669D03*
%TD*%
D16*
%TO.P,D5,1,K*%
%TO.N,Net-(A2-D9)*%
X42440000Y-96250000D03*
D14*
%TO.P,D5,2,A*%
%TO.N,Net-(D5-A)*%
X50060000Y-96250000D03*
%TD*%
D17*
%TO.P,SW29,1,1*%
%TO.N,Net-(D24-A)*%
X50035337Y-175733591D03*
%TO.P,SW29,2,2*%
%TO.N,Net-(A2-D5)*%
X43685337Y-178273591D03*
%TD*%
D18*
%TO.P,U4,1,OUT*%
%TO.N,Net-(U1B-+)*%
X35420000Y-77250000D03*
D19*
%TO.P,U4,2,GND*%
%TO.N,GND*%
X37960000Y-77250000D03*
%TO.P,U4,3,SCL*%
%TO.N,Net-(A1-A5)*%
X40500000Y-77250000D03*
%TO.P,U4,4,SDA*%
%TO.N,Net-(A1-A4)*%
X43040000Y-77250000D03*
%TO.P,U4,5,VCC*%
%TO.N,5V*%
X45580000Y-77250000D03*
%TO.P,U4,6,GND*%
%TO.N,GND*%
X48120000Y-77250000D03*
%TD*%
D24*
%TO.P,J4,1,Pin_1*%
%TO.N,12V*%
X93112934Y-19500000D03*
D19*
%TO.P,J4,2,Pin_2*%
%TO.N,-12V*%
X93112934Y-16960000D03*
%TO.P,J4,3,Pin_3*%
%TO.N,GND*%
X95652934Y-19500000D03*
%TO.P,J4,4,Pin_4*%
X95652934Y-16960000D03*
%TO.P,J4,5,Pin_5*%
%TO.N,5V*%
X98192934Y-19500000D03*
%TO.P,J4,6,Pin_6*%
%TO.N,unconnected-(J4-Pin_6-Pad6)*%
X98192934Y-16960000D03*
%TD*%
D16*
%TO.P,D18,1,K*%
%TO.N,Net-(A2-D9)*%
X138700711Y-142882820D03*
D14*
%TO.P,D18,2,A*%
%TO.N,Net-(D18-A)*%
X146320711Y-142882820D03*
%TD*%
D17*
%TO.P,SW13,1,1*%
%TO.N,Net-(D10-A)*%
X117347740Y-110188022D03*
%TO.P,SW13,2,2*%
%TO.N,Net-(A2-D6)*%
X110997740Y-112728022D03*
%TD*%
D16*
%TO.P,D4,1,K*%
%TO.N,Net-(A2-D10)*%
X61696226Y-96248700D03*
D14*
%TO.P,D4,2,A*%
%TO.N,Net-(D4-A)*%
X69316226Y-96248700D03*
%TD*%
D16*
%TO.P,D15,1,K*%
%TO.N,Net-(A2-D8)*%
X80700711Y-143132820D03*
D14*
%TO.P,D15,2,A*%
%TO.N,Net-(D15-A)*%
X88320711Y-143132820D03*
%TD*%
D17*
%TO.P,SW35,1,1*%
%TO.N,Net-(D32-A)*%
X165456315Y-175734711D03*
%TO.P,SW35,2,2*%
%TO.N,Net-(A2-D3)*%
X159106315Y-178274711D03*
%TD*%
%TO.P,SW22,1,1*%
%TO.N,Net-(D19-A)*%
X165444084Y-129404711D03*
%TO.P,SW22,2,2*%
%TO.N,Net-(A2-D5)*%
X159094084Y-131944711D03*
%TD*%
D14*
%TO.P,R6,1*%
%TO.N,GND*%
X64000000Y-46500000D03*
%TO.P,R6,2*%
%TO.N,Net-(D1-K)*%
X64000000Y-56660000D03*
%TD*%
D17*
%TO.P,SW20,1,1*%
%TO.N,Net-(D17-A)*%
X126970425Y-129404711D03*
%TO.P,SW20,2,2*%
%TO.N,Net-(A2-D6)*%
X120620425Y-131944711D03*
%TD*%
D16*
%TO.P,D20,1,K*%
%TO.N,Net-(A2-D11)*%
X32700495Y-169912305D03*
D14*
%TO.P,D20,2,A*%
%TO.N,Net-(D20-A)*%
X40320495Y-169912305D03*
%TD*%
D22*
%TO.P,RV2,1,1*%
%TO.N,unconnected-(RV2-Pad1)*%
X53960000Y-55500000D03*
%TO.P,RV2,2,2*%
%TO.N,Net-(R3-Pad2)*%
X56500000Y-55500000D03*
%TO.P,RV2,3,3*%
%TO.N,Net-(U1A--)*%
X59040000Y-55500000D03*
%TD*%
D17*
%TO.P,SW24,1,1*%
%TO.N,Net-(D23-A)*%
X59643533Y-156518022D03*
%TO.P,SW24,2,2*%
%TO.N,Net-(A2-D4)*%
X53293533Y-159058022D03*
%TD*%
%TO.P,SW31,1,1*%
%TO.N,Net-(D25-A)*%
X88508996Y-175734711D03*
%TO.P,SW31,2,2*%
%TO.N,Net-(A2-D4)*%
X82158996Y-178274711D03*
%TD*%
%TO.P,SW15,1,1*%
%TO.N,Net-(D12-A)*%
X30786276Y-129404711D03*
%TO.P,SW15,2,2*%
%TO.N,Net-(A2-D7)*%
X24436276Y-131944711D03*
%TD*%
%TO.P,SW21,1,1*%
%TO.N,Net-(D18-A)*%
X146207254Y-129404711D03*
%TO.P,SW21,2,2*%
%TO.N,Net-(A2-D5)*%
X139857254Y-131944711D03*
%TD*%
D15*
%TO.P,SW8,1,C*%
%TO.N,GND*%
X163500000Y-92500000D03*
%TO.P,SW8,2,B*%
%TO.N,Net-(A2-D0{slash}RX)*%
X163500000Y-88000000D03*
%TO.P,SW8,3,A*%
%TO.N,unconnected-(SW8-A-Pad3)*%
X163500000Y-83500000D03*
%TD*%
D16*
%TO.P,D19,1,K*%
%TO.N,Net-(A2-D10)*%
X158010711Y-142882820D03*
D14*
%TO.P,D19,2,A*%
%TO.N,Net-(D19-A)*%
X165630711Y-142882820D03*
%TD*%
D16*
%TO.P,D6,1,K*%
%TO.N,Net-(A2-D11)*%
X81195215Y-96245669D03*
D14*
%TO.P,D6,2,A*%
%TO.N,Net-(D6-A)*%
X88815215Y-96245669D03*
%TD*%
%TO.P,C2,1*%
%TO.N,GND*%
X43560000Y-48190000D03*
%TO.P,C2,2*%
%TO.N,-12V*%
X38560000Y-48190000D03*
%TD*%
D25*
%TO.P,D1,1,K*%
%TO.N,Net-(D1-K)*%
X56260294Y-48722353D03*
D26*
%TO.P,D1,2,A*%
%TO.N,Net-(A2-D1{slash}TX)*%
X56260294Y-46182353D03*
%TD*%
D17*
%TO.P,SW10,1,1*%
%TO.N,Net-(D7-A)*%
X40408264Y-110188022D03*
%TO.P,SW10,2,2*%
%TO.N,Net-(A2-D7)*%
X34058264Y-112728022D03*
%TD*%
D16*
%TO.P,D3,1,K*%
%TO.N,Net-(A2-D8)*%
X23200711Y-96251300D03*
D14*
%TO.P,D3,2,A*%
%TO.N,Net-(D3-A)*%
X30820711Y-96251300D03*
%TD*%
D17*
%TO.P,SW27,1,1*%
%TO.N,Net-(D30-A)*%
X136606781Y-156518022D03*
%TO.P,SW27,2,2*%
%TO.N,Net-(A2-D3)*%
X130256781Y-159058022D03*
%TD*%
%TO.P,SW23,1,1*%
%TO.N,Net-(D20-A)*%
X40420495Y-156518022D03*
%TO.P,SW23,2,2*%
%TO.N,Net-(A2-D5)*%
X34070495Y-159058022D03*
%TD*%
D23*
%TO.P,J7,1,Pin_1*%
%TO.N,Net-(J6-Pin_3)*%
X27500000Y-65000000D03*
%TD*%
D24*
%TO.P,J5,1,Pin_1*%
%TO.N,12V*%
X141920000Y-19500000D03*
D19*
%TO.P,J5,2,Pin_2*%
%TO.N,-12V*%
X141920000Y-16960000D03*
%TO.P,J5,3,Pin_3*%
%TO.N,GND*%
X144460000Y-19500000D03*
%TO.P,J5,4,Pin_4*%
X144460000Y-16960000D03*
%TO.P,J5,5,Pin_5*%
%TO.N,5V*%
X147000000Y-19500000D03*
%TO.P,J5,6,Pin_6*%
%TO.N,unconnected-(J5-Pin_6-Pad6)*%
X147000000Y-16960000D03*
%TD*%
D16*
%TO.P,D13,1,K*%
%TO.N,Net-(A2-D10)*%
X42450711Y-142882820D03*
D14*
%TO.P,D13,2,A*%
%TO.N,Net-(D13-A)*%
X50070711Y-142882820D03*
%TD*%
D16*
%TO.P,D9,1,K*%
%TO.N,Net-(A2-D9)*%
X90480930Y-123636385D03*
D14*
%TO.P,D9,2,A*%
%TO.N,Net-(D9-A)*%
X98100930Y-123636385D03*
%TD*%
D17*
%TO.P,SW34,1,1*%
%TO.N,Net-(D31-A)*%
X146219485Y-175734711D03*
%TO.P,SW34,2,2*%
%TO.N,Net-(A2-D3)*%
X139869485Y-178274711D03*
%TD*%
%TO.P,SW25,1,1*%
%TO.N,Net-(D26-A)*%
X98113161Y-156518022D03*
%TO.P,SW25,2,2*%
%TO.N,Net-(A2-D4)*%
X91763161Y-159058022D03*
%TD*%
D14*
%TO.P,R1,1*%
%TO.N,GND*%
X35500000Y-47750000D03*
%TO.P,R1,2*%
%TO.N,Net-(U1B--)*%
X35500000Y-57910000D03*
%TD*%
D17*
%TO.P,SW17,1,1*%
%TO.N,Net-(D15-A)*%
X88496765Y-129404711D03*
%TO.P,SW17,2,2*%
%TO.N,Net-(A2-D6)*%
X82146765Y-131944711D03*
%TD*%
D16*
%TO.P,D11,1,K*%
%TO.N,Net-(A2-D8)*%
X128974550Y-123649542D03*
D14*
%TO.P,D11,2,A*%
%TO.N,Net-(D11-A)*%
X136594550Y-123649542D03*
%TD*%
D17*
%TO.P,SW11,1,1*%
%TO.N,Net-(D8-A)*%
X59631302Y-110188022D03*
%TO.P,SW11,2,2*%
%TO.N,Net-(A2-D7)*%
X53281302Y-112728022D03*
%TD*%
D14*
%TO.P,C1,1*%
%TO.N,GND*%
X41310000Y-61440000D03*
%TO.P,C1,2*%
%TO.N,12V*%
X46310000Y-61440000D03*
%TD*%
D16*
%TO.P,D27,1,K*%
%TO.N,Net-(A2-D8)*%
X109760495Y-170162305D03*
D14*
%TO.P,D27,2,A*%
%TO.N,Net-(D27-A)*%
X117380495Y-170162305D03*
%TD*%
D16*
%TO.P,D17,1,K*%
%TO.N,Net-(A2-D12)*%
X119380000Y-142882820D03*
D14*
%TO.P,D17,2,A*%
%TO.N,Net-(D17-A)*%
X127000000Y-142882820D03*
%TD*%
D16*
%TO.P,D14,1,K*%
%TO.N,Net-(A2-D12)*%
X61510711Y-142882820D03*
D14*
%TO.P,D14,2,A*%
%TO.N,Net-(D14-A)*%
X69130711Y-142882820D03*
%TD*%
D17*
%TO.P,SW16,1,1*%
%TO.N,Net-(D13-A)*%
X50023106Y-129404711D03*
%TO.P,SW16,2,2*%
%TO.N,Net-(A2-D7)*%
X43673106Y-131944711D03*
%TD*%
D16*
%TO.P,D7,1,K*%
%TO.N,Net-(A2-D9)*%
X32788264Y-123632820D03*
D14*
%TO.P,D7,2,A*%
%TO.N,Net-(D7-A)*%
X40408264Y-123632820D03*
%TD*%
%TO.P,R4,1*%
%TO.N,GND*%
X49500000Y-60580000D03*
%TO.P,R4,2*%
%TO.N,Net-(U1A--)*%
X49500000Y-50420000D03*
%TD*%
D27*
%TO.P,U1,1*%
%TO.N,Net-(R3-Pad2)*%
X46310000Y-50940000D03*
D14*
%TO.P,U1,2,-*%
%TO.N,Net-(U1A--)*%
X43770000Y-50940000D03*
%TO.P,U1,3,+*%
%TO.N,Net-(U1A-+)*%
X41230000Y-50940000D03*
%TO.P,U1,4,V-*%
%TO.N,-12V*%
X38690000Y-50940000D03*
%TO.P,U1,5,+*%
%TO.N,Net-(U1B-+)*%
X38690000Y-58560000D03*
%TO.P,U1,6,-*%
%TO.N,Net-(U1B--)*%
X41230000Y-58560000D03*
%TO.P,U1,7*%
%TO.N,Net-(R2-Pad2)*%
X43770000Y-58560000D03*
%TO.P,U1,8,V+*%
%TO.N,12V*%
X46310000Y-58560000D03*
%TD*%
D17*
%TO.P,SW5,1,1*%
%TO.N,Net-(D6-A)*%
X88591589Y-82915669D03*
%TO.P,SW5,2,2*%
%TO.N,Net-(A2-D2)*%
X82241589Y-85455669D03*
%TD*%
D16*
%TO.P,D31,1,K*%
%TO.N,Net-(A2-D11)*%
X138614867Y-189175201D03*
D14*
%TO.P,D31,2,A*%
%TO.N,Net-(D31-A)*%
X146234867Y-189175201D03*
%TD*%
D23*
%TO.P,J1,1,Pin_1*%
%TO.N,Net-(J1-Pin_1)*%
X27500000Y-37750000D03*
%TD*%
D16*
%TO.P,D12,1,K*%
%TO.N,Net-(A2-D8)*%
X23200711Y-142882820D03*
D14*
%TO.P,D12,2,A*%
%TO.N,Net-(D12-A)*%
X30820711Y-142882820D03*
%TD*%
D20*
%TO.P,A1,1,D1/TX*%
%TO.N,unconnected-(A1-D1{slash}TX-Pad1)*%
X130590000Y-43784000D03*
D21*
%TO.P,A1,2,D0/RX*%
%TO.N,unconnected-(A1-D0{slash}RX-Pad2)*%
X133130000Y-43784000D03*
%TO.P,A1,3,~{RESET}*%
%TO.N,Net-(A1-~{RESET}-Pad3)*%
X135670000Y-43784000D03*
%TO.P,A1,4,GND*%
%TO.N,GND*%
X138210000Y-43784000D03*
%TO.P,A1,5,D2*%
%TO.N,Net-(A1-D2)*%
X140750000Y-43784000D03*
%TO.P,A1,6,D3*%
%TO.N,unconnected-(A1-D3-Pad6)*%
X143290000Y-43784000D03*
%TO.P,A1,7,D4*%
%TO.N,unconnected-(A1-D4-Pad7)*%
X145830000Y-43784000D03*
%TO.P,A1,8,D5*%
%TO.N,unconnected-(A1-D5-Pad8)*%
X148370000Y-43784000D03*
%TO.P,A1,9,D6*%
%TO.N,unconnected-(A1-D6-Pad9)*%
X150910000Y-43784000D03*
%TO.P,A1,10,D7*%
%TO.N,unconnected-(A1-D7-Pad10)*%
X153450000Y-43784000D03*
%TO.P,A1,11,D8*%
%TO.N,Net-(A1-D8)*%
X155990000Y-43784000D03*
%TO.P,A1,12,D9*%
%TO.N,Net-(A1-D9)*%
X158530000Y-43784000D03*
%TO.P,A1,13,D10*%
%TO.N,Net-(A1-D10)*%
X161070000Y-43784000D03*
%TO.P,A1,14,D11*%
%TO.N,Net-(A1-D11)*%
X163610000Y-43784000D03*
%TO.P,A1,15,D12*%
%TO.N,unconnected-(A1-D12-Pad15)*%
X166150000Y-43784000D03*
%TO.P,A1,16,D13*%
%TO.N,Net-(A1-D13)*%
X166150000Y-28544000D03*
%TO.P,A1,17,3V3*%
%TO.N,Net-(A1-3V3)*%
X163610000Y-28544000D03*
%TO.P,A1,18,AREF*%
%TO.N,unconnected-(A1-AREF-Pad18)*%
X161070000Y-28544000D03*
%TO.P,A1,19,A0*%
%TO.N,unconnected-(A1-A0-Pad19)*%
X158530000Y-28544000D03*
%TO.P,A1,20,A1*%
%TO.N,unconnected-(A1-A1-Pad20)*%
X155990000Y-28544000D03*
%TO.P,A1,21,A2*%
%TO.N,unconnected-(A1-A2-Pad21)*%
X153450000Y-28544000D03*
%TO.P,A1,22,A3*%
%TO.N,unconnected-(A1-A3-Pad22)*%
X150910000Y-28544000D03*
%TO.P,A1,23,A4*%
%TO.N,Net-(A1-A4)*%
X148370000Y-28544000D03*
%TO.P,A1,24,A5*%
%TO.N,Net-(A1-A5)*%
X145830000Y-28544000D03*
%TO.P,A1,25,A6*%
%TO.N,unconnected-(A1-A6-Pad25)*%
X143290000Y-28544000D03*
%TO.P,A1,26,A7*%
%TO.N,unconnected-(A1-A7-Pad26)*%
X140750000Y-28544000D03*
%TO.P,A1,27,+5V*%
%TO.N,5V*%
X138210000Y-28544000D03*
%TO.P,A1,28,~{RESET}*%
%TO.N,unconnected-(A1-~{RESET}-Pad28)*%
X135670000Y-28544000D03*
%TO.P,A1,29,GND*%
%TO.N,GND*%
X133130000Y-28544000D03*
%TO.P,A1,30,VIN*%
%TO.N,unconnected-(A1-VIN-Pad30)*%
X130590000Y-28544000D03*
%TD*%
D14*
%TO.P,R3,1*%
%TO.N,Net-(J6-Pin_3)*%
X22340000Y-51000000D03*
%TO.P,R3,2*%
%TO.N,Net-(R3-Pad2)*%
X32500000Y-51000000D03*
%TD*%
D17*
%TO.P,SW18,1,1*%
%TO.N,Net-(D14-A)*%
X69259935Y-129404711D03*
%TO.P,SW18,2,2*%
%TO.N,Net-(A2-D7)*%
X62909935Y-131944711D03*
%TD*%
D16*
%TO.P,D8,1,K*%
%TO.N,Net-(A2-D11)*%
X52011302Y-123622070D03*
D14*
%TO.P,D8,2,A*%
%TO.N,Net-(D8-A)*%
X59631302Y-123622070D03*
%TD*%
D27*
%TO.P,D2,1,K*%
%TO.N,Net-(A2-D12)*%
X157000000Y-84880000D03*
D14*
%TO.P,D2,2,A*%
%TO.N,Net-(D2-A)*%
X157000000Y-92500000D03*
%TD*%
D17*
%TO.P,SW12,1,1*%
%TO.N,Net-(D9-A)*%
X98100930Y-110188022D03*
%TO.P,SW12,2,2*%
%TO.N,Net-(A2-D6)*%
X91750930Y-112728022D03*
%TD*%
D23*
%TO.P,J8,1,Pin_1*%
%TO.N,Net-(J6-Pin_4)*%
X56250000Y-65000000D03*
%TD*%
D17*
%TO.P,SW6,1,1*%
%TO.N,Net-(D4-A)*%
X69327963Y-82915669D03*
%TO.P,SW6,2,2*%
%TO.N,Net-(A2-D2)*%
X62977963Y-85455669D03*
%TD*%
D16*
%TO.P,D10,1,K*%
%TO.N,Net-(A2-D11)*%
X109719626Y-123645482D03*
D14*
%TO.P,D10,2,A*%
%TO.N,Net-(D10-A)*%
X117339626Y-123645482D03*
%TD*%
D10*
%TO.N,GND*%
X139311000Y-42683000D02*
X141206050Y-42683000D01*
X133130000Y-38704000D02*
X138210000Y-43784000D01*
X141206050Y-42683000D02*
X141851000Y-43327950D01*
X136517000Y-27443000D02*
X144460000Y-19500000D01*
X138210000Y-43784000D02*
X139311000Y-42683000D01*
X133130000Y-28544000D02*
X133130000Y-38704000D01*
X134231000Y-27443000D02*
X136517000Y-27443000D01*
X55403913Y-60580000D02*
X61599000Y-54384913D01*
X133130000Y-28544000D02*
X134231000Y-27443000D01*
X50751923Y-47521353D02*
X48093572Y-44863002D01*
X61599000Y-54384913D02*
X61599000Y-48901000D01*
X49500000Y-60580000D02*
X55403913Y-60580000D01*
X61599000Y-48901000D02*
X64000000Y-46500000D01*
X140500000Y-50000000D02*
X136451846Y-50000000D01*
X133900000Y-95000000D02*
X131400000Y-92500000D01*
X64000000Y-46500000D02*
X62978647Y-47521353D01*
X131400000Y-92500000D02*
X131400000Y-80500000D01*
X131400000Y-80500000D02*
X138214126Y-73685874D01*
X141851000Y-48649000D02*
X140500000Y-50000000D01*
X136451846Y-50000000D02*
X133134126Y-53317720D01*
X141851000Y-43327950D02*
X141851000Y-48649000D01*
X62978647Y-47521353D02*
X50751923Y-47521353D01*
X138214126Y-73685874D02*
X138214126Y-68557720D01*
%TO.N,Net-(A1-D2)*%
X140290973Y-43784000D02*
X140750000Y-43784000D01*
X135500000Y-48574973D02*
X140290973Y-43784000D01*
%TO.N,5V*%
X145849000Y-18349000D02*
X147000000Y-19500000D01*
X99343934Y-18349000D02*
X145849000Y-18349000D01*
X97041934Y-18349000D02*
X98192934Y-19500000D01*
X45209000Y-76879000D02*
X45209000Y-45207574D01*
X145500000Y-50000000D02*
X144000000Y-51500000D01*
X144500000Y-44711370D02*
X144500000Y-34834000D01*
X138210000Y-28290000D02*
X147000000Y-19500000D01*
X138210000Y-28544000D02*
X138210000Y-28290000D01*
X45580000Y-77250000D02*
X45209000Y-76879000D01*
X147920000Y-47000000D02*
X146788630Y-47000000D01*
X50271000Y-18349000D02*
X97041934Y-18349000D01*
X98192934Y-19500000D02*
X99343934Y-18349000D01*
X147920000Y-50000000D02*
X147920000Y-47000000D01*
X140031846Y-51500000D02*
X138214126Y-53317720D01*
X144500000Y-34834000D02*
X138210000Y-28544000D01*
X144000000Y-51500000D02*
X140031846Y-51500000D01*
X146788630Y-47000000D02*
X144500000Y-44711370D01*
X45209000Y-45207574D02*
X45553572Y-44863002D01*
X145500000Y-50000000D02*
X147920000Y-50000000D01*
X49080000Y-19540000D02*
X50271000Y-18349000D01*
%TO.N,Net-(D8-A)*%
X59631302Y-110160550D02*
X59631302Y-123622070D01*
%TO.N,Net-(D9-A)*%
X98100930Y-110174865D02*
X98100930Y-123636385D01*
%TO.N,Net-(D10-A)*%
X117339626Y-110183962D02*
X117339626Y-123645482D01*
%TO.N,Net-(D11-A)*%
X136594550Y-110188022D02*
X136594550Y-123649542D01*
%TO.N,Net-(D12-A)*%
X30786276Y-129391815D02*
X30786276Y-142848385D01*
X30786276Y-142848385D02*
X30820711Y-142882820D01*
%TO.N,Net-(D15-A)*%
X88320711Y-143132820D02*
X88320711Y-129554341D01*
X88320711Y-129554341D02*
X88470341Y-129404711D01*
%TO.N,Net-(D19-A)*%
X165444084Y-129404711D02*
X165444084Y-142696193D01*
X165444084Y-142696193D02*
X165630711Y-142882820D01*
%TO.N,Net-(D20-A)*%
X40320495Y-156601300D02*
X40420495Y-156501300D01*
X40320495Y-169912305D02*
X40320495Y-156601300D01*
%TO.N,Net-(D21-A)*%
X30798507Y-180650812D02*
X39310000Y-189162305D01*
X30798507Y-175721815D02*
X30798507Y-180650812D01*
%TO.N,Net-(D22-A)*%
X69252113Y-189152047D02*
X69274101Y-189174035D01*
X69252113Y-175733545D02*
X69252113Y-189152047D01*
%TO.N,Net-(D26-A)*%
X98113161Y-169869639D02*
X98070495Y-169912305D01*
X98113161Y-156504865D02*
X98113161Y-169869639D01*
%TO.N,Net-(D27-A)*%
X117351857Y-170133667D02*
X117380495Y-170162305D01*
X117351857Y-156513962D02*
X117351857Y-170133667D01*
%TO.N,Net-(D29-A)*%
X126983634Y-189167479D02*
X126983634Y-175748977D01*
X126983634Y-175748977D02*
X126961646Y-175726989D01*
%TO.N,Net-(A2-D6)*%
X122797000Y-90837200D02*
X122797000Y-72451546D01*
X148610126Y-66253720D02*
X150914126Y-68557720D01*
X128994826Y-66253720D02*
X148610126Y-66253720D01*
X91750930Y-112714865D02*
X104729744Y-99736051D01*
X82120341Y-131944711D02*
X86061341Y-128003711D01*
X104729744Y-99736051D02*
X113898149Y-99736051D01*
X110989626Y-112723962D02*
X110989626Y-102644574D01*
X110989626Y-102644574D02*
X113898149Y-99736051D01*
X113898149Y-99736051D02*
X122797000Y-90837200D01*
X122797000Y-72451546D02*
X128994826Y-66253720D01*
X97422776Y-128003711D02*
X101363776Y-131944711D01*
X86061341Y-128003711D02*
X97422776Y-128003711D01*
%TO.N,Net-(A2-D0{slash}RX)*%
X155199000Y-96301000D02*
X133361108Y-96301000D01*
X163500000Y-88000000D02*
X155199000Y-96301000D01*
X127599000Y-90538892D02*
X127599000Y-74092846D01*
X133361108Y-96301000D02*
X127599000Y-90538892D01*
X127599000Y-74092846D02*
X133134126Y-68557720D01*
%TO.N,Net-(A2-D10)*%
X158010711Y-142882820D02*
X160495084Y-140398447D01*
X79784726Y-190275035D02*
X32802730Y-190275035D01*
X61696226Y-96248700D02*
X63579577Y-98132051D01*
X161074126Y-73074126D02*
X161074126Y-68557720D01*
X157166126Y-64649720D02*
X161074126Y-68557720D01*
X121193000Y-90172800D02*
X121193000Y-71787146D01*
X128330426Y-64649720D02*
X157166126Y-64649720D01*
X32802730Y-190275035D02*
X31690000Y-189162305D01*
X80884560Y-189175201D02*
X79784726Y-190275035D01*
X21977507Y-163356024D02*
X21977507Y-177902345D01*
X31690000Y-187614838D02*
X31690000Y-189162305D01*
X63579577Y-98132051D02*
X113233749Y-98132051D01*
X121193000Y-71787146D02*
X128330426Y-64649720D01*
X129077314Y-169912305D02*
X129010495Y-169912305D01*
X42450711Y-142882820D02*
X21977507Y-163356024D01*
X158010711Y-142882820D02*
X156106799Y-142882820D01*
X113233749Y-98132051D02*
X121193000Y-90172800D01*
X169651000Y-116849000D02*
X169651000Y-81651000D01*
X160495084Y-140398447D02*
X160495084Y-126004916D01*
X169651000Y-81651000D02*
X161074126Y-73074126D01*
X156106799Y-142882820D02*
X129077314Y-169912305D01*
X21977507Y-177902345D02*
X31690000Y-187614838D01*
X160495084Y-126004916D02*
X169651000Y-116849000D01*
%TO.N,Net-(A2-D4)*%
X144332126Y-67055720D02*
X145834126Y-68557720D01*
X82132572Y-178274711D02*
X101376007Y-178274711D01*
X124499000Y-124707481D02*
X124499000Y-71883746D01*
X91763161Y-157443320D02*
X124499000Y-124707481D01*
X124499000Y-71883746D02*
X129327026Y-67055720D01*
X129327026Y-67055720D02*
X144332126Y-67055720D01*
X91763161Y-159044865D02*
X91763161Y-157443320D01*
%TO.N,Net-(A2-D7)*%
X53270552Y-112711300D02*
X53281302Y-112700550D01*
X113732049Y-99335051D02*
X122396000Y-90671100D01*
X128828726Y-65852720D02*
X150749126Y-65852720D01*
X34058264Y-115696492D02*
X34058264Y-112728022D01*
X24436276Y-131944711D02*
X24436276Y-125318480D01*
X62889836Y-131943591D02*
X62889882Y-131943545D01*
X34058264Y-112728022D02*
X34058264Y-114782838D01*
X34058264Y-114782838D02*
X43669550Y-124394124D01*
X53281302Y-112700550D02*
X66646801Y-99335051D01*
X150749126Y-65852720D02*
X153454126Y-68557720D01*
X43669550Y-131943591D02*
X62889836Y-131943591D01*
X24436276Y-125318480D02*
X34058264Y-115696492D01*
X34058264Y-112711300D02*
X53270552Y-112711300D01*
X122396000Y-90671100D02*
X122396000Y-72285446D01*
X66646801Y-99335051D02*
X113732049Y-99335051D01*
X122396000Y-72285446D02*
X128828726Y-65852720D01*
X43669550Y-124394124D02*
X43669550Y-131943591D01*
%TO.N,Net-(A2-D8)*%
X19049000Y-138731109D02*
X19049000Y-100403011D01*
X131500000Y-124750000D02*
X130075008Y-124750000D01*
X113565949Y-98934051D02*
X121995000Y-90505000D01*
X131500542Y-124750542D02*
X131500000Y-124750000D01*
X137050600Y-124750542D02*
X131500542Y-124750542D01*
X155994126Y-71263720D02*
X168849000Y-84118594D01*
X25883462Y-98934051D02*
X113565949Y-98934051D01*
X23200711Y-96251300D02*
X25883462Y-98934051D01*
X155994126Y-71263720D02*
X155994126Y-68557720D01*
X152888126Y-65451720D02*
X155994126Y-68557720D01*
X51950495Y-169912305D02*
X52143308Y-169912305D01*
X121995000Y-90505000D02*
X121995000Y-72119346D01*
X121995000Y-72119346D02*
X128662626Y-65451720D01*
X168849000Y-84118594D02*
X168849000Y-92952142D01*
X52143308Y-169912305D02*
X78922793Y-143132820D01*
X130075008Y-124750000D02*
X128974550Y-123649542D01*
X128662626Y-65451720D02*
X152888126Y-65451720D01*
X19049000Y-100403011D02*
X23200711Y-96251300D01*
X168849000Y-92952142D02*
X137050600Y-124750542D01*
X78922793Y-143132820D02*
X80700711Y-143132820D01*
X23200711Y-142882820D02*
X19049000Y-138731109D01*
%TO.N,Net-(A2-D11)*%
X171951000Y-83383900D02*
X163614126Y-75047026D01*
X138614867Y-189175201D02*
X139695465Y-189175201D01*
X147558485Y-180253921D02*
X171951000Y-155861406D01*
X109719626Y-123645482D02*
X108627723Y-124737385D01*
X159305126Y-64248720D02*
X163614126Y-68557720D01*
X171951000Y-155861406D02*
X171951000Y-83383900D01*
X53126617Y-124737385D02*
X52011302Y-123622070D01*
X81195215Y-96245669D02*
X82680597Y-97731051D01*
X139695465Y-189175201D02*
X147558485Y-181312181D01*
X147558485Y-181312181D02*
X147558485Y-180253921D01*
X113067649Y-97731051D02*
X120792000Y-90006700D01*
X108627723Y-124737385D02*
X53126617Y-124737385D01*
X120792000Y-71621046D02*
X128164326Y-64248720D01*
X82680597Y-97731051D02*
X113067649Y-97731051D01*
X163614126Y-75047026D02*
X163614126Y-68557720D01*
X128164326Y-64248720D02*
X159305126Y-64248720D01*
X120792000Y-90006700D02*
X120792000Y-71621046D01*
%TO.N,Net-(A2-D3)*%
X127198000Y-123759152D02*
X130711425Y-127272577D01*
X114942857Y-155112962D02*
X126311721Y-155112962D01*
X126311721Y-155112962D02*
X130256781Y-159058022D01*
X130711425Y-150713258D02*
X126311721Y-155112962D01*
X129493126Y-67456720D02*
X127198000Y-69751846D01*
X142193126Y-67456720D02*
X129493126Y-67456720D01*
X111001857Y-159053962D02*
X114942857Y-155112962D01*
X127198000Y-69751846D02*
X127198000Y-123759152D01*
X130711425Y-127272577D02*
X130711425Y-150713258D01*
X143294126Y-68557720D02*
X142193126Y-67456720D01*
%TO.N,Net-(A2-D9)*%
X169250000Y-112276889D02*
X138700711Y-142826178D01*
X119363634Y-189167479D02*
X119363634Y-182540185D01*
X158534126Y-71263720D02*
X169250000Y-81979594D01*
X121594000Y-71953246D02*
X128496526Y-65050720D01*
X124775830Y-177127989D02*
X124775830Y-167564157D01*
X169250000Y-81979594D02*
X169250000Y-112276889D01*
X155027126Y-65050720D02*
X158534126Y-68557720D01*
X158534126Y-71263720D02*
X158534126Y-68557720D01*
X133092965Y-159247022D02*
X133092965Y-148490566D01*
X44723051Y-98533051D02*
X113399849Y-98533051D01*
X124775830Y-167564157D02*
X133092965Y-159247022D01*
X42440000Y-96250000D02*
X44723051Y-98533051D01*
X121594000Y-90338900D02*
X121594000Y-71953246D01*
X128496526Y-65050720D02*
X155027126Y-65050720D01*
X119363634Y-182540185D02*
X124775830Y-177127989D01*
X113399849Y-98533051D02*
X121594000Y-90338900D01*
X138700711Y-142826178D02*
X138700711Y-142882820D01*
X133092965Y-148490566D02*
X138700711Y-142882820D01*
%TO.N,Net-(A2-D12)*%
X48357850Y-183250000D02*
X60914181Y-183250000D01*
X101228995Y-190276201D02*
X150589000Y-190276201D01*
X111486826Y-161516191D02*
X111486826Y-177915241D01*
X72708360Y-174332545D02*
X86450016Y-188074201D01*
X119380000Y-142882820D02*
X109608971Y-152653849D01*
X166154126Y-77019926D02*
X166154126Y-68557720D01*
X61510711Y-142882820D02*
X46446765Y-157946765D01*
X99026995Y-188074201D02*
X100127995Y-189175201D01*
X67871166Y-175153231D02*
X68691852Y-174332545D01*
X151690000Y-176689506D02*
X172352000Y-156027506D01*
X100226866Y-189175201D02*
X100127995Y-189175201D01*
X86450016Y-188074201D02*
X99026995Y-188074201D01*
X42433769Y-189174081D02*
X45086337Y-186521513D01*
X109608971Y-159638336D02*
X111486826Y-161516191D01*
X150589000Y-190276201D02*
X151690000Y-189175201D01*
X46446765Y-157946765D02*
X45082781Y-159310750D01*
X109608971Y-152653849D02*
X109608971Y-159638336D01*
X100127995Y-189175201D02*
X101228995Y-190276201D01*
X172352000Y-156027506D02*
X172352000Y-83217800D01*
X60914181Y-183250000D02*
X67871166Y-176293015D01*
X111486826Y-177915241D02*
X100226866Y-189175201D01*
X68691852Y-174332545D02*
X72708360Y-174332545D01*
X172352000Y-83217800D02*
X166154126Y-77019926D01*
X45086337Y-186521513D02*
X45086337Y-159307193D01*
X67871166Y-176293015D02*
X67871166Y-175153231D01*
X45086337Y-159307193D02*
X46446765Y-157946765D01*
X151690000Y-189175201D02*
X151690000Y-176689506D01*
X42433769Y-189174081D02*
X48357850Y-183250000D01*
%TO.N,Net-(A2-D5)*%
X34070495Y-159041300D02*
X26859331Y-159041300D01*
X163809406Y-86699000D02*
X164913892Y-86699000D01*
X165676000Y-93038892D02*
X149964892Y-108750000D01*
X148374126Y-71263720D02*
X148374126Y-68557720D01*
X148374126Y-71263720D02*
X163809406Y-86699000D01*
X22500000Y-163400631D02*
X22500000Y-176313308D01*
X164913892Y-86699000D02*
X165676000Y-87461108D01*
X134222572Y-108750000D02*
X130244550Y-112728022D01*
X26859331Y-159041300D02*
X22500000Y-163400631D01*
X22500000Y-176313308D02*
X24448507Y-178261815D01*
X165676000Y-87461108D02*
X165676000Y-93038892D01*
X149964892Y-108750000D02*
X134222572Y-108750000D01*
%TO.N,Net-(A2-D1{slash}TX)*%
X64000000Y-44250000D02*
X58192647Y-44250000D01*
X58192647Y-44250000D02*
X56260294Y-46182353D01*
%TO.N,Net-(A2-A3)*%
X144511847Y-59719999D02*
X150914126Y-53317720D01*
X64000000Y-58920000D02*
X64799999Y-59719999D01*
X64799999Y-59719999D02*
X144511847Y-59719999D01*
%TO.N,Net-(A2-D2)*%
X150250000Y-88000000D02*
X140754126Y-78504126D01*
X140754126Y-78504126D02*
X140754126Y-68557720D01*
%TO.N,Net-(D1-K)*%
X64000000Y-56660000D02*
X67880000Y-56660000D01*
X67880000Y-56660000D02*
X69000000Y-55540000D01*
%TO.N,Net-(J1-Pin_1)*%
X23441000Y-48601000D02*
X22340000Y-47500000D01*
X23441000Y-55941000D02*
X23441000Y-48601000D01*
X24026000Y-56526000D02*
X23441000Y-55941000D01*
X50500000Y-78401000D02*
X39785240Y-78401000D01*
X22340000Y-47500000D02*
X22340000Y-42910000D01*
X67849000Y-48503900D02*
X62097000Y-54255900D01*
X69000000Y-42840000D02*
X67849000Y-43991000D01*
X39111000Y-70528467D02*
X25108533Y-56526000D01*
X62097000Y-54255900D02*
X62097000Y-66804000D01*
X62097000Y-66804000D02*
X50500000Y-78401000D01*
X39111000Y-77726760D02*
X39111000Y-70528467D01*
X25108533Y-56526000D02*
X24026000Y-56526000D01*
X39785240Y-78401000D02*
X39111000Y-77726760D01*
X67849000Y-43991000D02*
X67849000Y-48503900D01*
X22340000Y-42910000D02*
X27500000Y-37750000D01*
%TO.N,Net-(J6-Pin_4)*%
X62899000Y-67979000D02*
X64000000Y-69080000D01*
X69000000Y-50460000D02*
X67797919Y-50460000D01*
X67797919Y-50460000D02*
X62899000Y-55358919D01*
X62899000Y-55358919D02*
X62899000Y-67979000D01*
%TO.N,Net-(J6-Pin_3)*%
X51194000Y-78802000D02*
X62498000Y-67498000D01*
X27500000Y-65000000D02*
X36809000Y-74309000D01*
X36809000Y-77726760D02*
X37884240Y-78802000D01*
X37884240Y-78802000D02*
X51194000Y-78802000D01*
X22340000Y-59840000D02*
X22340000Y-51000000D01*
X62498000Y-54422000D02*
X62498000Y-67498000D01*
X36809000Y-74309000D02*
X36809000Y-77726760D01*
X27500000Y-65000000D02*
X22340000Y-59840000D01*
X69000000Y-47920000D02*
X62498000Y-54422000D01*
%TO.N,Net-(U1B--)*%
X33095000Y-55505000D02*
X35500000Y-57910000D01*
X30040000Y-55505000D02*
X33095000Y-55505000D01*
%TO.N,Net-(R2-Pad2)*%
X27500000Y-55505000D02*
X27500000Y-52500000D01*
X27500000Y-52500000D02*
X32500000Y-47500000D01*
%TO.N,Net-(R3-Pad2)*%
X55479000Y-54479000D02*
X49849000Y-54479000D01*
X49849000Y-54479000D02*
X46310000Y-50940000D01*
X56500000Y-55500000D02*
X55479000Y-54479000D01*
%TO.N,Net-(U1A--)*%
X53960000Y-50420000D02*
X49500000Y-50420000D01*
X59040000Y-55500000D02*
X53960000Y-50420000D01*
%TO.N,-12V*%
X38560000Y-48190000D02*
X39322572Y-47427428D01*
X39322572Y-21677428D02*
X44000000Y-17000000D01*
X45151000Y-15849000D02*
X92001934Y-15849000D01*
X93112934Y-16960000D02*
X94263934Y-15809000D01*
X140769000Y-15809000D02*
X141920000Y-16960000D01*
X39322572Y-47427428D02*
X39322572Y-21677428D01*
X44000000Y-17000000D02*
X45151000Y-15849000D01*
X92001934Y-15849000D02*
X93112934Y-16960000D01*
X94263934Y-15809000D02*
X140769000Y-15809000D01*
%TO.N,12V*%
X93112934Y-19500000D02*
X94263934Y-20651000D01*
X45460000Y-21000000D02*
X91612934Y-21000000D01*
X140769000Y-20651000D02*
X141920000Y-19500000D01*
X91612934Y-21000000D02*
X93112934Y-19500000D01*
X44000000Y-19540000D02*
X45460000Y-21000000D01*
X94263934Y-20651000D02*
X140769000Y-20651000D01*
%TO.N,Net-(A1-A4)*%
X66389000Y-43149000D02*
X67849000Y-41689000D01*
X70151000Y-41689000D02*
X71500000Y-43038000D01*
X42459000Y-45417574D02*
X42459000Y-76669000D01*
X148374126Y-53317720D02*
X154691846Y-47000000D01*
X148370000Y-28544000D02*
X154691846Y-34865846D01*
X67849000Y-41689000D02*
X70151000Y-41689000D01*
X144777846Y-56914000D02*
X148374126Y-53317720D01*
X154691846Y-34865846D02*
X154691846Y-47000000D01*
X44727574Y-43149000D02*
X66389000Y-43149000D01*
X43013572Y-44863002D02*
X44727574Y-43149000D01*
X71500000Y-49000000D02*
X74657789Y-52157789D01*
X75982431Y-52157789D02*
X80738642Y-56914000D01*
X42459000Y-76669000D02*
X43040000Y-77250000D01*
X43013572Y-44863002D02*
X42459000Y-45417574D01*
X154691846Y-47000000D02*
X158080000Y-47000000D01*
X71500000Y-43038000D02*
X71500000Y-49000000D01*
X80738642Y-56914000D02*
X144777846Y-56914000D01*
X74657789Y-52157789D02*
X75982431Y-52157789D01*
%TO.N,Net-(A1-A5)*%
X40500000Y-77250000D02*
X39791000Y-76541000D01*
X75982431Y-49617789D02*
X74018789Y-49617789D01*
X146159330Y-53317720D02*
X149471000Y-50006050D01*
X67682900Y-41288000D02*
X66222900Y-42748000D01*
X145834126Y-53317720D02*
X146159330Y-53317720D01*
X74018789Y-49617789D02*
X71901000Y-47500000D01*
X71901000Y-47500000D02*
X71901000Y-42871900D01*
X39791000Y-76541000D02*
X39791000Y-45545574D01*
X71901000Y-42871900D02*
X70317100Y-41288000D01*
X66222900Y-42748000D02*
X42588574Y-42748000D01*
X42588574Y-42748000D02*
X40473572Y-44863002D01*
X149471000Y-50006050D02*
X149471000Y-32185000D01*
X39791000Y-45545574D02*
X40473572Y-44863002D01*
X142651846Y-56500000D02*
X82864642Y-56500000D01*
X70317100Y-41288000D02*
X67682900Y-41288000D01*
X145834126Y-53317720D02*
X142651846Y-56500000D01*
X82864642Y-56500000D02*
X75982431Y-49617789D01*
X149471000Y-32185000D02*
X145830000Y-28544000D01*
%TD*%
M02*
