%TF.GenerationSoftware,KiCad,Pcbnew,10.0.3*%
%TF.CreationDate,2026-07-04T09:18:55+10:00*%
%TF.ProjectId,audio-mixer,61756469-6f2d-46d6-9978-65722e6b6963,rev?*%
%TF.SameCoordinates,Original*%
%TF.FileFunction,Legend,Top*%
%TF.FilePolarity,Positive*%
%FSLAX46Y46*%
G04 Gerber Fmt 4.6, Leading zero omitted, Abs format (unit mm)*
G04 Created by KiCad (PCBNEW 10.0.3) date 2026-07-04 09:18:55*
%MOMM*%
%LPD*%
G01*
G04 APERTURE LIST*
%ADD10C,0.100000*%
%ADD11C,0.250000*%
%ADD12C,0.150000*%
%ADD13C,0.120000*%
%ADD14C,0.000000*%
G04 APERTURE END LIST*
D10*
X19476191Y-23329547D02*
X19952381Y-23329547D01*
X19380953Y-23615262D02*
X19714286Y-22615262D01*
X19714286Y-22615262D02*
X20047619Y-23615262D01*
X20380953Y-22615262D02*
X20380953Y-23424785D01*
X20380953Y-23424785D02*
X20428572Y-23520023D01*
X20428572Y-23520023D02*
X20476191Y-23567643D01*
X20476191Y-23567643D02*
X20571429Y-23615262D01*
X20571429Y-23615262D02*
X20761905Y-23615262D01*
X20761905Y-23615262D02*
X20857143Y-23567643D01*
X20857143Y-23567643D02*
X20904762Y-23520023D01*
X20904762Y-23520023D02*
X20952381Y-23424785D01*
X20952381Y-23424785D02*
X20952381Y-22615262D01*
X21428572Y-23615262D02*
X21428572Y-22615262D01*
X21428572Y-22615262D02*
X21666667Y-22615262D01*
X21666667Y-22615262D02*
X21809524Y-22662881D01*
X21809524Y-22662881D02*
X21904762Y-22758119D01*
X21904762Y-22758119D02*
X21952381Y-22853357D01*
X21952381Y-22853357D02*
X22000000Y-23043833D01*
X22000000Y-23043833D02*
X22000000Y-23186690D01*
X22000000Y-23186690D02*
X21952381Y-23377166D01*
X21952381Y-23377166D02*
X21904762Y-23472404D01*
X21904762Y-23472404D02*
X21809524Y-23567643D01*
X21809524Y-23567643D02*
X21666667Y-23615262D01*
X21666667Y-23615262D02*
X21428572Y-23615262D01*
X22428572Y-23615262D02*
X22428572Y-22615262D01*
X23095238Y-22615262D02*
X23285714Y-22615262D01*
X23285714Y-22615262D02*
X23380952Y-22662881D01*
X23380952Y-22662881D02*
X23476190Y-22758119D01*
X23476190Y-22758119D02*
X23523809Y-22948595D01*
X23523809Y-22948595D02*
X23523809Y-23281928D01*
X23523809Y-23281928D02*
X23476190Y-23472404D01*
X23476190Y-23472404D02*
X23380952Y-23567643D01*
X23380952Y-23567643D02*
X23285714Y-23615262D01*
X23285714Y-23615262D02*
X23095238Y-23615262D01*
X23095238Y-23615262D02*
X23000000Y-23567643D01*
X23000000Y-23567643D02*
X22904762Y-23472404D01*
X22904762Y-23472404D02*
X22857143Y-23281928D01*
X22857143Y-23281928D02*
X22857143Y-22948595D01*
X22857143Y-22948595D02*
X22904762Y-22758119D01*
X22904762Y-22758119D02*
X23000000Y-22662881D01*
X23000000Y-22662881D02*
X23095238Y-22615262D01*
X19500000Y-25225206D02*
X19500000Y-24225206D01*
X19500000Y-24225206D02*
X19833333Y-24939491D01*
X19833333Y-24939491D02*
X20166666Y-24225206D01*
X20166666Y-24225206D02*
X20166666Y-25225206D01*
X20642857Y-25225206D02*
X20642857Y-24225206D01*
X21023809Y-24225206D02*
X21690475Y-25225206D01*
X21690475Y-24225206D02*
X21023809Y-25225206D01*
X22071428Y-24701396D02*
X22404761Y-24701396D01*
X22547618Y-25225206D02*
X22071428Y-25225206D01*
X22071428Y-25225206D02*
X22071428Y-24225206D01*
X22071428Y-24225206D02*
X22547618Y-24225206D01*
X23547618Y-25225206D02*
X23214285Y-24749015D01*
X22976190Y-25225206D02*
X22976190Y-24225206D01*
X22976190Y-24225206D02*
X23357142Y-24225206D01*
X23357142Y-24225206D02*
X23452380Y-24272825D01*
X23452380Y-24272825D02*
X23499999Y-24320444D01*
X23499999Y-24320444D02*
X23547618Y-24415682D01*
X23547618Y-24415682D02*
X23547618Y-24558539D01*
X23547618Y-24558539D02*
X23499999Y-24653777D01*
X23499999Y-24653777D02*
X23452380Y-24701396D01*
X23452380Y-24701396D02*
X23357142Y-24749015D01*
X23357142Y-24749015D02*
X22976190Y-24749015D01*
X20690476Y-25835150D02*
X21023809Y-26835150D01*
X21023809Y-26835150D02*
X21357142Y-25835150D01*
X22119047Y-26168483D02*
X22119047Y-26835150D01*
X21880952Y-25787531D02*
X21642857Y-26501816D01*
X21642857Y-26501816D02*
X22261904Y-26501816D01*
X57999089Y-173297142D02*
X58570517Y-173297142D01*
X58284803Y-174297142D02*
X58284803Y-173297142D01*
X57999089Y-181749523D02*
X58141946Y-181797142D01*
X58141946Y-181797142D02*
X58380041Y-181797142D01*
X58380041Y-181797142D02*
X58475279Y-181749523D01*
X58475279Y-181749523D02*
X58522898Y-181701903D01*
X58522898Y-181701903D02*
X58570517Y-181606665D01*
X58570517Y-181606665D02*
X58570517Y-181511427D01*
X58570517Y-181511427D02*
X58522898Y-181416189D01*
X58522898Y-181416189D02*
X58475279Y-181368570D01*
X58475279Y-181368570D02*
X58380041Y-181320951D01*
X58380041Y-181320951D02*
X58189565Y-181273332D01*
X58189565Y-181273332D02*
X58094327Y-181225713D01*
X58094327Y-181225713D02*
X58046708Y-181178094D01*
X58046708Y-181178094D02*
X57999089Y-181082856D01*
X57999089Y-181082856D02*
X57999089Y-180987618D01*
X57999089Y-180987618D02*
X58046708Y-180892380D01*
X58046708Y-180892380D02*
X58094327Y-180844761D01*
X58094327Y-180844761D02*
X58189565Y-180797142D01*
X58189565Y-180797142D02*
X58427660Y-180797142D01*
X58427660Y-180797142D02*
X58570517Y-180844761D01*
X58618136Y-176797142D02*
X58284803Y-176320951D01*
X58046708Y-176797142D02*
X58046708Y-175797142D01*
X58046708Y-175797142D02*
X58427660Y-175797142D01*
X58427660Y-175797142D02*
X58522898Y-175844761D01*
X58522898Y-175844761D02*
X58570517Y-175892380D01*
X58570517Y-175892380D02*
X58618136Y-175987618D01*
X58618136Y-175987618D02*
X58618136Y-176130475D01*
X58618136Y-176130475D02*
X58570517Y-176225713D01*
X58570517Y-176225713D02*
X58522898Y-176273332D01*
X58522898Y-176273332D02*
X58427660Y-176320951D01*
X58427660Y-176320951D02*
X58046708Y-176320951D01*
X59570517Y-176797142D02*
X58999089Y-176797142D01*
X59284803Y-176797142D02*
X59284803Y-175797142D01*
X59284803Y-175797142D02*
X59189565Y-175939999D01*
X59189565Y-175939999D02*
X59094327Y-176035237D01*
X59094327Y-176035237D02*
X58999089Y-176082856D01*
X58618136Y-179297142D02*
X58284803Y-178820951D01*
X58046708Y-179297142D02*
X58046708Y-178297142D01*
X58046708Y-178297142D02*
X58427660Y-178297142D01*
X58427660Y-178297142D02*
X58522898Y-178344761D01*
X58522898Y-178344761D02*
X58570517Y-178392380D01*
X58570517Y-178392380D02*
X58618136Y-178487618D01*
X58618136Y-178487618D02*
X58618136Y-178630475D01*
X58618136Y-178630475D02*
X58570517Y-178725713D01*
X58570517Y-178725713D02*
X58522898Y-178773332D01*
X58522898Y-178773332D02*
X58427660Y-178820951D01*
X58427660Y-178820951D02*
X58046708Y-178820951D01*
X58999089Y-178392380D02*
X59046708Y-178344761D01*
X59046708Y-178344761D02*
X59141946Y-178297142D01*
X59141946Y-178297142D02*
X59380041Y-178297142D01*
X59380041Y-178297142D02*
X59475279Y-178344761D01*
X59475279Y-178344761D02*
X59522898Y-178392380D01*
X59522898Y-178392380D02*
X59570517Y-178487618D01*
X59570517Y-178487618D02*
X59570517Y-178582856D01*
X59570517Y-178582856D02*
X59522898Y-178725713D01*
X59522898Y-178725713D02*
X58951470Y-179297142D01*
X58951470Y-179297142D02*
X59570517Y-179297142D01*
D11*
X26652381Y-171945865D02*
X27604762Y-171945865D01*
X26461905Y-172517294D02*
X27128571Y-170517294D01*
X27128571Y-170517294D02*
X27795238Y-172517294D01*
X28461905Y-170517294D02*
X28461905Y-172136341D01*
X28461905Y-172136341D02*
X28557143Y-172326817D01*
X28557143Y-172326817D02*
X28652381Y-172422056D01*
X28652381Y-172422056D02*
X28842857Y-172517294D01*
X28842857Y-172517294D02*
X29223810Y-172517294D01*
X29223810Y-172517294D02*
X29414286Y-172422056D01*
X29414286Y-172422056D02*
X29509524Y-172326817D01*
X29509524Y-172326817D02*
X29604762Y-172136341D01*
X29604762Y-172136341D02*
X29604762Y-170517294D01*
X30557143Y-172517294D02*
X30557143Y-170517294D01*
X30557143Y-170517294D02*
X31033333Y-170517294D01*
X31033333Y-170517294D02*
X31319048Y-170612532D01*
X31319048Y-170612532D02*
X31509524Y-170803008D01*
X31509524Y-170803008D02*
X31604762Y-170993484D01*
X31604762Y-170993484D02*
X31700000Y-171374436D01*
X31700000Y-171374436D02*
X31700000Y-171660151D01*
X31700000Y-171660151D02*
X31604762Y-172041103D01*
X31604762Y-172041103D02*
X31509524Y-172231579D01*
X31509524Y-172231579D02*
X31319048Y-172422056D01*
X31319048Y-172422056D02*
X31033333Y-172517294D01*
X31033333Y-172517294D02*
X30557143Y-172517294D01*
X32557143Y-172517294D02*
X32557143Y-170517294D01*
X33890476Y-170517294D02*
X34271429Y-170517294D01*
X34271429Y-170517294D02*
X34461905Y-170612532D01*
X34461905Y-170612532D02*
X34652381Y-170803008D01*
X34652381Y-170803008D02*
X34747619Y-171183960D01*
X34747619Y-171183960D02*
X34747619Y-171850627D01*
X34747619Y-171850627D02*
X34652381Y-172231579D01*
X34652381Y-172231579D02*
X34461905Y-172422056D01*
X34461905Y-172422056D02*
X34271429Y-172517294D01*
X34271429Y-172517294D02*
X33890476Y-172517294D01*
X33890476Y-172517294D02*
X33700000Y-172422056D01*
X33700000Y-172422056D02*
X33509524Y-172231579D01*
X33509524Y-172231579D02*
X33414286Y-171850627D01*
X33414286Y-171850627D02*
X33414286Y-171183960D01*
X33414286Y-171183960D02*
X33509524Y-170803008D01*
X33509524Y-170803008D02*
X33700000Y-170612532D01*
X33700000Y-170612532D02*
X33890476Y-170517294D01*
X26700000Y-175737182D02*
X26700000Y-173737182D01*
X26700000Y-173737182D02*
X27366667Y-175165753D01*
X27366667Y-175165753D02*
X28033333Y-173737182D01*
X28033333Y-173737182D02*
X28033333Y-175737182D01*
X28985714Y-175737182D02*
X28985714Y-173737182D01*
X29747619Y-173737182D02*
X31080952Y-175737182D01*
X31080952Y-173737182D02*
X29747619Y-175737182D01*
X31842857Y-174689563D02*
X32509524Y-174689563D01*
X32795238Y-175737182D02*
X31842857Y-175737182D01*
X31842857Y-175737182D02*
X31842857Y-173737182D01*
X31842857Y-173737182D02*
X32795238Y-173737182D01*
X34795238Y-175737182D02*
X34128571Y-174784801D01*
X33652381Y-175737182D02*
X33652381Y-173737182D01*
X33652381Y-173737182D02*
X34414286Y-173737182D01*
X34414286Y-173737182D02*
X34604762Y-173832420D01*
X34604762Y-173832420D02*
X34700000Y-173927658D01*
X34700000Y-173927658D02*
X34795238Y-174118134D01*
X34795238Y-174118134D02*
X34795238Y-174403848D01*
X34795238Y-174403848D02*
X34700000Y-174594324D01*
X34700000Y-174594324D02*
X34604762Y-174689563D01*
X34604762Y-174689563D02*
X34414286Y-174784801D01*
X34414286Y-174784801D02*
X33652381Y-174784801D01*
D12*
X51774996Y-26346620D02*
X52489281Y-26346620D01*
X52489281Y-26346620D02*
X52632138Y-26394239D01*
X52632138Y-26394239D02*
X52727377Y-26489477D01*
X52727377Y-26489477D02*
X52774996Y-26632334D01*
X52774996Y-26632334D02*
X52774996Y-26727572D01*
X51774996Y-25965667D02*
X51774996Y-25346620D01*
X51774996Y-25346620D02*
X52155948Y-25679953D01*
X52155948Y-25679953D02*
X52155948Y-25537096D01*
X52155948Y-25537096D02*
X52203567Y-25441858D01*
X52203567Y-25441858D02*
X52251186Y-25394239D01*
X52251186Y-25394239D02*
X52346424Y-25346620D01*
X52346424Y-25346620D02*
X52584519Y-25346620D01*
X52584519Y-25346620D02*
X52679757Y-25394239D01*
X52679757Y-25394239D02*
X52727377Y-25441858D01*
X52727377Y-25441858D02*
X52774996Y-25537096D01*
X52774996Y-25537096D02*
X52774996Y-25822810D01*
X52774996Y-25822810D02*
X52727377Y-25918048D01*
X52727377Y-25918048D02*
X52679757Y-25965667D01*
X62242412Y-101222606D02*
X61909079Y-100746415D01*
X61670984Y-101222606D02*
X61670984Y-100222606D01*
X61670984Y-100222606D02*
X62051936Y-100222606D01*
X62051936Y-100222606D02*
X62147174Y-100270225D01*
X62147174Y-100270225D02*
X62194793Y-100317844D01*
X62194793Y-100317844D02*
X62242412Y-100413082D01*
X62242412Y-100413082D02*
X62242412Y-100555939D01*
X62242412Y-100555939D02*
X62194793Y-100651177D01*
X62194793Y-100651177D02*
X62147174Y-100698796D01*
X62147174Y-100698796D02*
X62051936Y-100746415D01*
X62051936Y-100746415D02*
X61670984Y-100746415D01*
X63194793Y-101222606D02*
X62623365Y-101222606D01*
X62909079Y-101222606D02*
X62909079Y-100222606D01*
X62909079Y-100222606D02*
X62813841Y-100365463D01*
X62813841Y-100365463D02*
X62718603Y-100460701D01*
X62718603Y-100460701D02*
X62623365Y-100508320D01*
X63575746Y-100317844D02*
X63623365Y-100270225D01*
X63623365Y-100270225D02*
X63718603Y-100222606D01*
X63718603Y-100222606D02*
X63956698Y-100222606D01*
X63956698Y-100222606D02*
X64051936Y-100270225D01*
X64051936Y-100270225D02*
X64099555Y-100317844D01*
X64099555Y-100317844D02*
X64147174Y-100413082D01*
X64147174Y-100413082D02*
X64147174Y-100508320D01*
X64147174Y-100508320D02*
X64099555Y-100651177D01*
X64099555Y-100651177D02*
X63528127Y-101222606D01*
X63528127Y-101222606D02*
X64147174Y-101222606D01*
X61334580Y-130406666D02*
X61382200Y-130454285D01*
X61382200Y-130454285D02*
X61429819Y-130597142D01*
X61429819Y-130597142D02*
X61429819Y-130692380D01*
X61429819Y-130692380D02*
X61382200Y-130835237D01*
X61382200Y-130835237D02*
X61286961Y-130930475D01*
X61286961Y-130930475D02*
X61191723Y-130978094D01*
X61191723Y-130978094D02*
X61001247Y-131025713D01*
X61001247Y-131025713D02*
X60858390Y-131025713D01*
X60858390Y-131025713D02*
X60667914Y-130978094D01*
X60667914Y-130978094D02*
X60572676Y-130930475D01*
X60572676Y-130930475D02*
X60477438Y-130835237D01*
X60477438Y-130835237D02*
X60429819Y-130692380D01*
X60429819Y-130692380D02*
X60429819Y-130597142D01*
X60429819Y-130597142D02*
X60477438Y-130454285D01*
X60477438Y-130454285D02*
X60525057Y-130406666D01*
X60429819Y-129501904D02*
X60429819Y-129978094D01*
X60429819Y-129978094D02*
X60906009Y-130025713D01*
X60906009Y-130025713D02*
X60858390Y-129978094D01*
X60858390Y-129978094D02*
X60810771Y-129882856D01*
X60810771Y-129882856D02*
X60810771Y-129644761D01*
X60810771Y-129644761D02*
X60858390Y-129549523D01*
X60858390Y-129549523D02*
X60906009Y-129501904D01*
X60906009Y-129501904D02*
X61001247Y-129454285D01*
X61001247Y-129454285D02*
X61239342Y-129454285D01*
X61239342Y-129454285D02*
X61334580Y-129501904D01*
X61334580Y-129501904D02*
X61382200Y-129549523D01*
X61382200Y-129549523D02*
X61429819Y-129644761D01*
X61429819Y-129644761D02*
X61429819Y-129882856D01*
X61429819Y-129882856D02*
X61382200Y-129978094D01*
X61382200Y-129978094D02*
X61334580Y-130025713D01*
X71840089Y-148857857D02*
X71363898Y-149191190D01*
X71840089Y-149429285D02*
X70840089Y-149429285D01*
X70840089Y-149429285D02*
X70840089Y-149048333D01*
X70840089Y-149048333D02*
X70887708Y-148953095D01*
X70887708Y-148953095D02*
X70935327Y-148905476D01*
X70935327Y-148905476D02*
X71030565Y-148857857D01*
X71030565Y-148857857D02*
X71173422Y-148857857D01*
X71173422Y-148857857D02*
X71268660Y-148905476D01*
X71268660Y-148905476D02*
X71316279Y-148953095D01*
X71316279Y-148953095D02*
X71363898Y-149048333D01*
X71363898Y-149048333D02*
X71363898Y-149429285D01*
X71840089Y-147905476D02*
X71840089Y-148476904D01*
X71840089Y-148191190D02*
X70840089Y-148191190D01*
X70840089Y-148191190D02*
X70982946Y-148286428D01*
X70982946Y-148286428D02*
X71078184Y-148381666D01*
X71078184Y-148381666D02*
X71125803Y-148476904D01*
X71840089Y-146953095D02*
X71840089Y-147524523D01*
X71840089Y-147238809D02*
X70840089Y-147238809D01*
X70840089Y-147238809D02*
X70982946Y-147334047D01*
X70982946Y-147334047D02*
X71078184Y-147429285D01*
X71078184Y-147429285D02*
X71125803Y-147524523D01*
D10*
X69551937Y-185124800D02*
X69694794Y-185172419D01*
X69694794Y-185172419D02*
X69932889Y-185172419D01*
X69932889Y-185172419D02*
X70028127Y-185124800D01*
X70028127Y-185124800D02*
X70075746Y-185077180D01*
X70075746Y-185077180D02*
X70123365Y-184981942D01*
X70123365Y-184981942D02*
X70123365Y-184886704D01*
X70123365Y-184886704D02*
X70075746Y-184791466D01*
X70075746Y-184791466D02*
X70028127Y-184743847D01*
X70028127Y-184743847D02*
X69932889Y-184696228D01*
X69932889Y-184696228D02*
X69742413Y-184648609D01*
X69742413Y-184648609D02*
X69647175Y-184600990D01*
X69647175Y-184600990D02*
X69599556Y-184553371D01*
X69599556Y-184553371D02*
X69551937Y-184458133D01*
X69551937Y-184458133D02*
X69551937Y-184362895D01*
X69551937Y-184362895D02*
X69599556Y-184267657D01*
X69599556Y-184267657D02*
X69647175Y-184220038D01*
X69647175Y-184220038D02*
X69742413Y-184172419D01*
X69742413Y-184172419D02*
X69980508Y-184172419D01*
X69980508Y-184172419D02*
X70123365Y-184220038D01*
X70456699Y-184172419D02*
X70694794Y-185172419D01*
X70694794Y-185172419D02*
X70885270Y-184458133D01*
X70885270Y-184458133D02*
X71075746Y-185172419D01*
X71075746Y-185172419D02*
X71313842Y-184172419D01*
X71742413Y-185172419D02*
X71932889Y-185172419D01*
X71932889Y-185172419D02*
X72028127Y-185124800D01*
X72028127Y-185124800D02*
X72075746Y-185077180D01*
X72075746Y-185077180D02*
X72170984Y-184934323D01*
X72170984Y-184934323D02*
X72218603Y-184743847D01*
X72218603Y-184743847D02*
X72218603Y-184362895D01*
X72218603Y-184362895D02*
X72170984Y-184267657D01*
X72170984Y-184267657D02*
X72123365Y-184220038D01*
X72123365Y-184220038D02*
X72028127Y-184172419D01*
X72028127Y-184172419D02*
X71837651Y-184172419D01*
X71837651Y-184172419D02*
X71742413Y-184220038D01*
X71742413Y-184220038D02*
X71694794Y-184267657D01*
X71694794Y-184267657D02*
X71647175Y-184362895D01*
X71647175Y-184362895D02*
X71647175Y-184600990D01*
X71647175Y-184600990D02*
X71694794Y-184696228D01*
X71694794Y-184696228D02*
X71742413Y-184743847D01*
X71742413Y-184743847D02*
X71837651Y-184791466D01*
X71837651Y-184791466D02*
X72028127Y-184791466D01*
X72028127Y-184791466D02*
X72123365Y-184743847D01*
X72123365Y-184743847D02*
X72170984Y-184696228D01*
X72170984Y-184696228D02*
X72218603Y-184600990D01*
D12*
X53218603Y-77627367D02*
X53170984Y-77674987D01*
X53170984Y-77674987D02*
X53028127Y-77722606D01*
X53028127Y-77722606D02*
X52932889Y-77722606D01*
X52932889Y-77722606D02*
X52790032Y-77674987D01*
X52790032Y-77674987D02*
X52694794Y-77579748D01*
X52694794Y-77579748D02*
X52647175Y-77484510D01*
X52647175Y-77484510D02*
X52599556Y-77294034D01*
X52599556Y-77294034D02*
X52599556Y-77151177D01*
X52599556Y-77151177D02*
X52647175Y-76960701D01*
X52647175Y-76960701D02*
X52694794Y-76865463D01*
X52694794Y-76865463D02*
X52790032Y-76770225D01*
X52790032Y-76770225D02*
X52932889Y-76722606D01*
X52932889Y-76722606D02*
X53028127Y-76722606D01*
X53028127Y-76722606D02*
X53170984Y-76770225D01*
X53170984Y-76770225D02*
X53218603Y-76817844D01*
X53551937Y-76722606D02*
X54170984Y-76722606D01*
X54170984Y-76722606D02*
X53837651Y-77103558D01*
X53837651Y-77103558D02*
X53980508Y-77103558D01*
X53980508Y-77103558D02*
X54075746Y-77151177D01*
X54075746Y-77151177D02*
X54123365Y-77198796D01*
X54123365Y-77198796D02*
X54170984Y-77294034D01*
X54170984Y-77294034D02*
X54170984Y-77532129D01*
X54170984Y-77532129D02*
X54123365Y-77627367D01*
X54123365Y-77627367D02*
X54075746Y-77674987D01*
X54075746Y-77674987D02*
X53980508Y-77722606D01*
X53980508Y-77722606D02*
X53694794Y-77722606D01*
X53694794Y-77722606D02*
X53599556Y-77674987D01*
X53599556Y-77674987D02*
X53551937Y-77627367D01*
X53218603Y-98127367D02*
X53170984Y-98174987D01*
X53170984Y-98174987D02*
X53028127Y-98222606D01*
X53028127Y-98222606D02*
X52932889Y-98222606D01*
X52932889Y-98222606D02*
X52790032Y-98174987D01*
X52790032Y-98174987D02*
X52694794Y-98079748D01*
X52694794Y-98079748D02*
X52647175Y-97984510D01*
X52647175Y-97984510D02*
X52599556Y-97794034D01*
X52599556Y-97794034D02*
X52599556Y-97651177D01*
X52599556Y-97651177D02*
X52647175Y-97460701D01*
X52647175Y-97460701D02*
X52694794Y-97365463D01*
X52694794Y-97365463D02*
X52790032Y-97270225D01*
X52790032Y-97270225D02*
X52932889Y-97222606D01*
X52932889Y-97222606D02*
X53028127Y-97222606D01*
X53028127Y-97222606D02*
X53170984Y-97270225D01*
X53170984Y-97270225D02*
X53218603Y-97317844D01*
X54075746Y-97222606D02*
X53885270Y-97222606D01*
X53885270Y-97222606D02*
X53790032Y-97270225D01*
X53790032Y-97270225D02*
X53742413Y-97317844D01*
X53742413Y-97317844D02*
X53647175Y-97460701D01*
X53647175Y-97460701D02*
X53599556Y-97651177D01*
X53599556Y-97651177D02*
X53599556Y-98032129D01*
X53599556Y-98032129D02*
X53647175Y-98127367D01*
X53647175Y-98127367D02*
X53694794Y-98174987D01*
X53694794Y-98174987D02*
X53790032Y-98222606D01*
X53790032Y-98222606D02*
X53980508Y-98222606D01*
X53980508Y-98222606D02*
X54075746Y-98174987D01*
X54075746Y-98174987D02*
X54123365Y-98127367D01*
X54123365Y-98127367D02*
X54170984Y-98032129D01*
X54170984Y-98032129D02*
X54170984Y-97794034D01*
X54170984Y-97794034D02*
X54123365Y-97698796D01*
X54123365Y-97698796D02*
X54075746Y-97651177D01*
X54075746Y-97651177D02*
X53980508Y-97603558D01*
X53980508Y-97603558D02*
X53790032Y-97603558D01*
X53790032Y-97603558D02*
X53694794Y-97651177D01*
X53694794Y-97651177D02*
X53647175Y-97698796D01*
X53647175Y-97698796D02*
X53599556Y-97794034D01*
X67242412Y-119127367D02*
X67194793Y-119174987D01*
X67194793Y-119174987D02*
X67051936Y-119222606D01*
X67051936Y-119222606D02*
X66956698Y-119222606D01*
X66956698Y-119222606D02*
X66813841Y-119174987D01*
X66813841Y-119174987D02*
X66718603Y-119079748D01*
X66718603Y-119079748D02*
X66670984Y-118984510D01*
X66670984Y-118984510D02*
X66623365Y-118794034D01*
X66623365Y-118794034D02*
X66623365Y-118651177D01*
X66623365Y-118651177D02*
X66670984Y-118460701D01*
X66670984Y-118460701D02*
X66718603Y-118365463D01*
X66718603Y-118365463D02*
X66813841Y-118270225D01*
X66813841Y-118270225D02*
X66956698Y-118222606D01*
X66956698Y-118222606D02*
X67051936Y-118222606D01*
X67051936Y-118222606D02*
X67194793Y-118270225D01*
X67194793Y-118270225D02*
X67242412Y-118317844D01*
X68194793Y-119222606D02*
X67623365Y-119222606D01*
X67909079Y-119222606D02*
X67909079Y-118222606D01*
X67909079Y-118222606D02*
X67813841Y-118365463D01*
X67813841Y-118365463D02*
X67718603Y-118460701D01*
X67718603Y-118460701D02*
X67623365Y-118508320D01*
X69147174Y-119222606D02*
X68575746Y-119222606D01*
X68861460Y-119222606D02*
X68861460Y-118222606D01*
X68861460Y-118222606D02*
X68766222Y-118365463D01*
X68766222Y-118365463D02*
X68670984Y-118460701D01*
X68670984Y-118460701D02*
X68575746Y-118508320D01*
D10*
X34565476Y-116855964D02*
X34708333Y-116903583D01*
X34708333Y-116903583D02*
X34946428Y-116903583D01*
X34946428Y-116903583D02*
X35041666Y-116855964D01*
X35041666Y-116855964D02*
X35089285Y-116808344D01*
X35089285Y-116808344D02*
X35136904Y-116713106D01*
X35136904Y-116713106D02*
X35136904Y-116617868D01*
X35136904Y-116617868D02*
X35089285Y-116522630D01*
X35089285Y-116522630D02*
X35041666Y-116475011D01*
X35041666Y-116475011D02*
X34946428Y-116427392D01*
X34946428Y-116427392D02*
X34755952Y-116379773D01*
X34755952Y-116379773D02*
X34660714Y-116332154D01*
X34660714Y-116332154D02*
X34613095Y-116284535D01*
X34613095Y-116284535D02*
X34565476Y-116189297D01*
X34565476Y-116189297D02*
X34565476Y-116094059D01*
X34565476Y-116094059D02*
X34613095Y-115998821D01*
X34613095Y-115998821D02*
X34660714Y-115951202D01*
X34660714Y-115951202D02*
X34755952Y-115903583D01*
X34755952Y-115903583D02*
X34994047Y-115903583D01*
X34994047Y-115903583D02*
X35136904Y-115951202D01*
X35470238Y-115903583D02*
X35708333Y-116903583D01*
X35708333Y-116903583D02*
X35898809Y-116189297D01*
X35898809Y-116189297D02*
X36089285Y-116903583D01*
X36089285Y-116903583D02*
X36327381Y-115903583D01*
X37232142Y-116903583D02*
X36660714Y-116903583D01*
X36946428Y-116903583D02*
X36946428Y-115903583D01*
X36946428Y-115903583D02*
X36851190Y-116046440D01*
X36851190Y-116046440D02*
X36755952Y-116141678D01*
X36755952Y-116141678D02*
X36660714Y-116189297D01*
X37851190Y-115903583D02*
X37946428Y-115903583D01*
X37946428Y-115903583D02*
X38041666Y-115951202D01*
X38041666Y-115951202D02*
X38089285Y-115998821D01*
X38089285Y-115998821D02*
X38136904Y-116094059D01*
X38136904Y-116094059D02*
X38184523Y-116284535D01*
X38184523Y-116284535D02*
X38184523Y-116522630D01*
X38184523Y-116522630D02*
X38136904Y-116713106D01*
X38136904Y-116713106D02*
X38089285Y-116808344D01*
X38089285Y-116808344D02*
X38041666Y-116855964D01*
X38041666Y-116855964D02*
X37946428Y-116903583D01*
X37946428Y-116903583D02*
X37851190Y-116903583D01*
X37851190Y-116903583D02*
X37755952Y-116855964D01*
X37755952Y-116855964D02*
X37708333Y-116808344D01*
X37708333Y-116808344D02*
X37660714Y-116713106D01*
X37660714Y-116713106D02*
X37613095Y-116522630D01*
X37613095Y-116522630D02*
X37613095Y-116284535D01*
X37613095Y-116284535D02*
X37660714Y-116094059D01*
X37660714Y-116094059D02*
X37708333Y-115998821D01*
X37708333Y-115998821D02*
X37755952Y-115951202D01*
X37755952Y-115951202D02*
X37851190Y-115903583D01*
X83765476Y-116855964D02*
X83908333Y-116903583D01*
X83908333Y-116903583D02*
X84146428Y-116903583D01*
X84146428Y-116903583D02*
X84241666Y-116855964D01*
X84241666Y-116855964D02*
X84289285Y-116808344D01*
X84289285Y-116808344D02*
X84336904Y-116713106D01*
X84336904Y-116713106D02*
X84336904Y-116617868D01*
X84336904Y-116617868D02*
X84289285Y-116522630D01*
X84289285Y-116522630D02*
X84241666Y-116475011D01*
X84241666Y-116475011D02*
X84146428Y-116427392D01*
X84146428Y-116427392D02*
X83955952Y-116379773D01*
X83955952Y-116379773D02*
X83860714Y-116332154D01*
X83860714Y-116332154D02*
X83813095Y-116284535D01*
X83813095Y-116284535D02*
X83765476Y-116189297D01*
X83765476Y-116189297D02*
X83765476Y-116094059D01*
X83765476Y-116094059D02*
X83813095Y-115998821D01*
X83813095Y-115998821D02*
X83860714Y-115951202D01*
X83860714Y-115951202D02*
X83955952Y-115903583D01*
X83955952Y-115903583D02*
X84194047Y-115903583D01*
X84194047Y-115903583D02*
X84336904Y-115951202D01*
X84670238Y-115903583D02*
X84908333Y-116903583D01*
X84908333Y-116903583D02*
X85098809Y-116189297D01*
X85098809Y-116189297D02*
X85289285Y-116903583D01*
X85289285Y-116903583D02*
X85527381Y-115903583D01*
X86432142Y-116903583D02*
X85860714Y-116903583D01*
X86146428Y-116903583D02*
X86146428Y-115903583D01*
X86146428Y-115903583D02*
X86051190Y-116046440D01*
X86051190Y-116046440D02*
X85955952Y-116141678D01*
X85955952Y-116141678D02*
X85860714Y-116189297D01*
X86813095Y-115998821D02*
X86860714Y-115951202D01*
X86860714Y-115951202D02*
X86955952Y-115903583D01*
X86955952Y-115903583D02*
X87194047Y-115903583D01*
X87194047Y-115903583D02*
X87289285Y-115951202D01*
X87289285Y-115951202D02*
X87336904Y-115998821D01*
X87336904Y-115998821D02*
X87384523Y-116094059D01*
X87384523Y-116094059D02*
X87384523Y-116189297D01*
X87384523Y-116189297D02*
X87336904Y-116332154D01*
X87336904Y-116332154D02*
X86765476Y-116903583D01*
X86765476Y-116903583D02*
X87384523Y-116903583D01*
D12*
X44004819Y-131789215D02*
X43528628Y-132122548D01*
X44004819Y-132360643D02*
X43004819Y-132360643D01*
X43004819Y-132360643D02*
X43004819Y-131979691D01*
X43004819Y-131979691D02*
X43052438Y-131884453D01*
X43052438Y-131884453D02*
X43100057Y-131836834D01*
X43100057Y-131836834D02*
X43195295Y-131789215D01*
X43195295Y-131789215D02*
X43338152Y-131789215D01*
X43338152Y-131789215D02*
X43433390Y-131836834D01*
X43433390Y-131836834D02*
X43481009Y-131884453D01*
X43481009Y-131884453D02*
X43528628Y-131979691D01*
X43528628Y-131979691D02*
X43528628Y-132360643D01*
X43004819Y-131503500D02*
X44004819Y-131170167D01*
X44004819Y-131170167D02*
X43004819Y-130836834D01*
X44004819Y-129979691D02*
X44004819Y-130551119D01*
X44004819Y-130265405D02*
X43004819Y-130265405D01*
X43004819Y-130265405D02*
X43147676Y-130360643D01*
X43147676Y-130360643D02*
X43242914Y-130455881D01*
X43242914Y-130455881D02*
X43290533Y-130551119D01*
X43004819Y-129360643D02*
X43004819Y-129265405D01*
X43004819Y-129265405D02*
X43052438Y-129170167D01*
X43052438Y-129170167D02*
X43100057Y-129122548D01*
X43100057Y-129122548D02*
X43195295Y-129074929D01*
X43195295Y-129074929D02*
X43385771Y-129027310D01*
X43385771Y-129027310D02*
X43623866Y-129027310D01*
X43623866Y-129027310D02*
X43814342Y-129074929D01*
X43814342Y-129074929D02*
X43909580Y-129122548D01*
X43909580Y-129122548D02*
X43957200Y-129170167D01*
X43957200Y-129170167D02*
X44004819Y-129265405D01*
X44004819Y-129265405D02*
X44004819Y-129360643D01*
X44004819Y-129360643D02*
X43957200Y-129455881D01*
X43957200Y-129455881D02*
X43909580Y-129503500D01*
X43909580Y-129503500D02*
X43814342Y-129551119D01*
X43814342Y-129551119D02*
X43623866Y-129598738D01*
X43623866Y-129598738D02*
X43385771Y-129598738D01*
X43385771Y-129598738D02*
X43195295Y-129551119D01*
X43195295Y-129551119D02*
X43100057Y-129503500D01*
X43100057Y-129503500D02*
X43052438Y-129455881D01*
X43052438Y-129455881D02*
X43004819Y-129360643D01*
X53218603Y-56627367D02*
X53170984Y-56674987D01*
X53170984Y-56674987D02*
X53028127Y-56722606D01*
X53028127Y-56722606D02*
X52932889Y-56722606D01*
X52932889Y-56722606D02*
X52790032Y-56674987D01*
X52790032Y-56674987D02*
X52694794Y-56579748D01*
X52694794Y-56579748D02*
X52647175Y-56484510D01*
X52647175Y-56484510D02*
X52599556Y-56294034D01*
X52599556Y-56294034D02*
X52599556Y-56151177D01*
X52599556Y-56151177D02*
X52647175Y-55960701D01*
X52647175Y-55960701D02*
X52694794Y-55865463D01*
X52694794Y-55865463D02*
X52790032Y-55770225D01*
X52790032Y-55770225D02*
X52932889Y-55722606D01*
X52932889Y-55722606D02*
X53028127Y-55722606D01*
X53028127Y-55722606D02*
X53170984Y-55770225D01*
X53170984Y-55770225D02*
X53218603Y-55817844D01*
X54170984Y-56722606D02*
X53599556Y-56722606D01*
X53885270Y-56722606D02*
X53885270Y-55722606D01*
X53885270Y-55722606D02*
X53790032Y-55865463D01*
X53790032Y-55865463D02*
X53694794Y-55960701D01*
X53694794Y-55960701D02*
X53599556Y-56008320D01*
X72164190Y-139973428D02*
X71830857Y-139497237D01*
X71592762Y-139973428D02*
X71592762Y-138973428D01*
X71592762Y-138973428D02*
X71973714Y-138973428D01*
X71973714Y-138973428D02*
X72068952Y-139021047D01*
X72068952Y-139021047D02*
X72116571Y-139068666D01*
X72116571Y-139068666D02*
X72164190Y-139163904D01*
X72164190Y-139163904D02*
X72164190Y-139306761D01*
X72164190Y-139306761D02*
X72116571Y-139401999D01*
X72116571Y-139401999D02*
X72068952Y-139449618D01*
X72068952Y-139449618D02*
X71973714Y-139497237D01*
X71973714Y-139497237D02*
X71592762Y-139497237D01*
X73116571Y-139973428D02*
X72545143Y-139973428D01*
X72830857Y-139973428D02*
X72830857Y-138973428D01*
X72830857Y-138973428D02*
X72735619Y-139116285D01*
X72735619Y-139116285D02*
X72640381Y-139211523D01*
X72640381Y-139211523D02*
X72545143Y-139259142D01*
X73688000Y-139401999D02*
X73592762Y-139354380D01*
X73592762Y-139354380D02*
X73545143Y-139306761D01*
X73545143Y-139306761D02*
X73497524Y-139211523D01*
X73497524Y-139211523D02*
X73497524Y-139163904D01*
X73497524Y-139163904D02*
X73545143Y-139068666D01*
X73545143Y-139068666D02*
X73592762Y-139021047D01*
X73592762Y-139021047D02*
X73688000Y-138973428D01*
X73688000Y-138973428D02*
X73878476Y-138973428D01*
X73878476Y-138973428D02*
X73973714Y-139021047D01*
X73973714Y-139021047D02*
X74021333Y-139068666D01*
X74021333Y-139068666D02*
X74068952Y-139163904D01*
X74068952Y-139163904D02*
X74068952Y-139211523D01*
X74068952Y-139211523D02*
X74021333Y-139306761D01*
X74021333Y-139306761D02*
X73973714Y-139354380D01*
X73973714Y-139354380D02*
X73878476Y-139401999D01*
X73878476Y-139401999D02*
X73688000Y-139401999D01*
X73688000Y-139401999D02*
X73592762Y-139449618D01*
X73592762Y-139449618D02*
X73545143Y-139497237D01*
X73545143Y-139497237D02*
X73497524Y-139592475D01*
X73497524Y-139592475D02*
X73497524Y-139782951D01*
X73497524Y-139782951D02*
X73545143Y-139878189D01*
X73545143Y-139878189D02*
X73592762Y-139925809D01*
X73592762Y-139925809D02*
X73688000Y-139973428D01*
X73688000Y-139973428D02*
X73878476Y-139973428D01*
X73878476Y-139973428D02*
X73973714Y-139925809D01*
X73973714Y-139925809D02*
X74021333Y-139878189D01*
X74021333Y-139878189D02*
X74068952Y-139782951D01*
X74068952Y-139782951D02*
X74068952Y-139592475D01*
X74068952Y-139592475D02*
X74021333Y-139497237D01*
X74021333Y-139497237D02*
X73973714Y-139449618D01*
X73973714Y-139449618D02*
X73878476Y-139401999D01*
X27930237Y-142412320D02*
X27882618Y-142459940D01*
X27882618Y-142459940D02*
X27739761Y-142507559D01*
X27739761Y-142507559D02*
X27644523Y-142507559D01*
X27644523Y-142507559D02*
X27501666Y-142459940D01*
X27501666Y-142459940D02*
X27406428Y-142364701D01*
X27406428Y-142364701D02*
X27358809Y-142269463D01*
X27358809Y-142269463D02*
X27311190Y-142078987D01*
X27311190Y-142078987D02*
X27311190Y-141936130D01*
X27311190Y-141936130D02*
X27358809Y-141745654D01*
X27358809Y-141745654D02*
X27406428Y-141650416D01*
X27406428Y-141650416D02*
X27501666Y-141555178D01*
X27501666Y-141555178D02*
X27644523Y-141507559D01*
X27644523Y-141507559D02*
X27739761Y-141507559D01*
X27739761Y-141507559D02*
X27882618Y-141555178D01*
X27882618Y-141555178D02*
X27930237Y-141602797D01*
X28882618Y-142507559D02*
X28311190Y-142507559D01*
X28596904Y-142507559D02*
X28596904Y-141507559D01*
X28596904Y-141507559D02*
X28501666Y-141650416D01*
X28501666Y-141650416D02*
X28406428Y-141745654D01*
X28406428Y-141745654D02*
X28311190Y-141793273D01*
X29501666Y-141507559D02*
X29596904Y-141507559D01*
X29596904Y-141507559D02*
X29692142Y-141555178D01*
X29692142Y-141555178D02*
X29739761Y-141602797D01*
X29739761Y-141602797D02*
X29787380Y-141698035D01*
X29787380Y-141698035D02*
X29834999Y-141888511D01*
X29834999Y-141888511D02*
X29834999Y-142126606D01*
X29834999Y-142126606D02*
X29787380Y-142317082D01*
X29787380Y-142317082D02*
X29739761Y-142412320D01*
X29739761Y-142412320D02*
X29692142Y-142459940D01*
X29692142Y-142459940D02*
X29596904Y-142507559D01*
X29596904Y-142507559D02*
X29501666Y-142507559D01*
X29501666Y-142507559D02*
X29406428Y-142459940D01*
X29406428Y-142459940D02*
X29358809Y-142412320D01*
X29358809Y-142412320D02*
X29311190Y-142317082D01*
X29311190Y-142317082D02*
X29263571Y-142126606D01*
X29263571Y-142126606D02*
X29263571Y-141888511D01*
X29263571Y-141888511D02*
X29311190Y-141698035D01*
X29311190Y-141698035D02*
X29358809Y-141602797D01*
X29358809Y-141602797D02*
X29406428Y-141555178D01*
X29406428Y-141555178D02*
X29501666Y-141507559D01*
D10*
X35041667Y-164749800D02*
X35184524Y-164797419D01*
X35184524Y-164797419D02*
X35422619Y-164797419D01*
X35422619Y-164797419D02*
X35517857Y-164749800D01*
X35517857Y-164749800D02*
X35565476Y-164702180D01*
X35565476Y-164702180D02*
X35613095Y-164606942D01*
X35613095Y-164606942D02*
X35613095Y-164511704D01*
X35613095Y-164511704D02*
X35565476Y-164416466D01*
X35565476Y-164416466D02*
X35517857Y-164368847D01*
X35517857Y-164368847D02*
X35422619Y-164321228D01*
X35422619Y-164321228D02*
X35232143Y-164273609D01*
X35232143Y-164273609D02*
X35136905Y-164225990D01*
X35136905Y-164225990D02*
X35089286Y-164178371D01*
X35089286Y-164178371D02*
X35041667Y-164083133D01*
X35041667Y-164083133D02*
X35041667Y-163987895D01*
X35041667Y-163987895D02*
X35089286Y-163892657D01*
X35089286Y-163892657D02*
X35136905Y-163845038D01*
X35136905Y-163845038D02*
X35232143Y-163797419D01*
X35232143Y-163797419D02*
X35470238Y-163797419D01*
X35470238Y-163797419D02*
X35613095Y-163845038D01*
X35946429Y-163797419D02*
X36184524Y-164797419D01*
X36184524Y-164797419D02*
X36375000Y-164083133D01*
X36375000Y-164083133D02*
X36565476Y-164797419D01*
X36565476Y-164797419D02*
X36803572Y-163797419D01*
X37089286Y-163797419D02*
X37755952Y-163797419D01*
X37755952Y-163797419D02*
X37327381Y-164797419D01*
X30041666Y-61331587D02*
X30041666Y-62045872D01*
X30041666Y-62045872D02*
X29994047Y-62188729D01*
X29994047Y-62188729D02*
X29898809Y-62283968D01*
X29898809Y-62283968D02*
X29755952Y-62331587D01*
X29755952Y-62331587D02*
X29660714Y-62331587D01*
X30946428Y-61331587D02*
X30755952Y-61331587D01*
X30755952Y-61331587D02*
X30660714Y-61379206D01*
X30660714Y-61379206D02*
X30613095Y-61426825D01*
X30613095Y-61426825D02*
X30517857Y-61569682D01*
X30517857Y-61569682D02*
X30470238Y-61760158D01*
X30470238Y-61760158D02*
X30470238Y-62141110D01*
X30470238Y-62141110D02*
X30517857Y-62236348D01*
X30517857Y-62236348D02*
X30565476Y-62283968D01*
X30565476Y-62283968D02*
X30660714Y-62331587D01*
X30660714Y-62331587D02*
X30851190Y-62331587D01*
X30851190Y-62331587D02*
X30946428Y-62283968D01*
X30946428Y-62283968D02*
X30994047Y-62236348D01*
X30994047Y-62236348D02*
X31041666Y-62141110D01*
X31041666Y-62141110D02*
X31041666Y-61903015D01*
X31041666Y-61903015D02*
X30994047Y-61807777D01*
X30994047Y-61807777D02*
X30946428Y-61760158D01*
X30946428Y-61760158D02*
X30851190Y-61712539D01*
X30851190Y-61712539D02*
X30660714Y-61712539D01*
X30660714Y-61712539D02*
X30565476Y-61760158D01*
X30565476Y-61760158D02*
X30517857Y-61807777D01*
X30517857Y-61807777D02*
X30470238Y-61903015D01*
X29666666Y-81881556D02*
X29666666Y-82595841D01*
X29666666Y-82595841D02*
X29619047Y-82738698D01*
X29619047Y-82738698D02*
X29523809Y-82833937D01*
X29523809Y-82833937D02*
X29380952Y-82881556D01*
X29380952Y-82881556D02*
X29285714Y-82881556D01*
X30285714Y-82310127D02*
X30190476Y-82262508D01*
X30190476Y-82262508D02*
X30142857Y-82214889D01*
X30142857Y-82214889D02*
X30095238Y-82119651D01*
X30095238Y-82119651D02*
X30095238Y-82072032D01*
X30095238Y-82072032D02*
X30142857Y-81976794D01*
X30142857Y-81976794D02*
X30190476Y-81929175D01*
X30190476Y-81929175D02*
X30285714Y-81881556D01*
X30285714Y-81881556D02*
X30476190Y-81881556D01*
X30476190Y-81881556D02*
X30571428Y-81929175D01*
X30571428Y-81929175D02*
X30619047Y-81976794D01*
X30619047Y-81976794D02*
X30666666Y-82072032D01*
X30666666Y-82072032D02*
X30666666Y-82119651D01*
X30666666Y-82119651D02*
X30619047Y-82214889D01*
X30619047Y-82214889D02*
X30571428Y-82262508D01*
X30571428Y-82262508D02*
X30476190Y-82310127D01*
X30476190Y-82310127D02*
X30285714Y-82310127D01*
X30285714Y-82310127D02*
X30190476Y-82357746D01*
X30190476Y-82357746D02*
X30142857Y-82405365D01*
X30142857Y-82405365D02*
X30095238Y-82500603D01*
X30095238Y-82500603D02*
X30095238Y-82691079D01*
X30095238Y-82691079D02*
X30142857Y-82786317D01*
X30142857Y-82786317D02*
X30190476Y-82833937D01*
X30190476Y-82833937D02*
X30285714Y-82881556D01*
X30285714Y-82881556D02*
X30476190Y-82881556D01*
X30476190Y-82881556D02*
X30571428Y-82833937D01*
X30571428Y-82833937D02*
X30619047Y-82786317D01*
X30619047Y-82786317D02*
X30666666Y-82691079D01*
X30666666Y-82691079D02*
X30666666Y-82500603D01*
X30666666Y-82500603D02*
X30619047Y-82405365D01*
X30619047Y-82405365D02*
X30571428Y-82357746D01*
X30571428Y-82357746D02*
X30476190Y-82310127D01*
X55325476Y-170807419D02*
X55325476Y-171521704D01*
X55325476Y-171521704D02*
X55277857Y-171664561D01*
X55277857Y-171664561D02*
X55182619Y-171759800D01*
X55182619Y-171759800D02*
X55039762Y-171807419D01*
X55039762Y-171807419D02*
X54944524Y-171807419D01*
X56325476Y-171807419D02*
X55754048Y-171807419D01*
X56039762Y-171807419D02*
X56039762Y-170807419D01*
X56039762Y-170807419D02*
X55944524Y-170950276D01*
X55944524Y-170950276D02*
X55849286Y-171045514D01*
X55849286Y-171045514D02*
X55754048Y-171093133D01*
X56658810Y-170807419D02*
X57277857Y-170807419D01*
X57277857Y-170807419D02*
X56944524Y-171188371D01*
X56944524Y-171188371D02*
X57087381Y-171188371D01*
X57087381Y-171188371D02*
X57182619Y-171235990D01*
X57182619Y-171235990D02*
X57230238Y-171283609D01*
X57230238Y-171283609D02*
X57277857Y-171378847D01*
X57277857Y-171378847D02*
X57277857Y-171616942D01*
X57277857Y-171616942D02*
X57230238Y-171712180D01*
X57230238Y-171712180D02*
X57182619Y-171759800D01*
X57182619Y-171759800D02*
X57087381Y-171807419D01*
X57087381Y-171807419D02*
X56801667Y-171807419D01*
X56801667Y-171807419D02*
X56706429Y-171759800D01*
X56706429Y-171759800D02*
X56658810Y-171712180D01*
X29791666Y-40781618D02*
X29791666Y-41495903D01*
X29791666Y-41495903D02*
X29744047Y-41638760D01*
X29744047Y-41638760D02*
X29648809Y-41733999D01*
X29648809Y-41733999D02*
X29505952Y-41781618D01*
X29505952Y-41781618D02*
X29410714Y-41781618D01*
X30791666Y-41781618D02*
X30220238Y-41781618D01*
X30505952Y-41781618D02*
X30505952Y-40781618D01*
X30505952Y-40781618D02*
X30410714Y-40924475D01*
X30410714Y-40924475D02*
X30315476Y-41019713D01*
X30315476Y-41019713D02*
X30220238Y-41067332D01*
D12*
X61359580Y-157881666D02*
X61407200Y-157929285D01*
X61407200Y-157929285D02*
X61454819Y-158072142D01*
X61454819Y-158072142D02*
X61454819Y-158167380D01*
X61454819Y-158167380D02*
X61407200Y-158310237D01*
X61407200Y-158310237D02*
X61311961Y-158405475D01*
X61311961Y-158405475D02*
X61216723Y-158453094D01*
X61216723Y-158453094D02*
X61026247Y-158500713D01*
X61026247Y-158500713D02*
X60883390Y-158500713D01*
X60883390Y-158500713D02*
X60692914Y-158453094D01*
X60692914Y-158453094D02*
X60597676Y-158405475D01*
X60597676Y-158405475D02*
X60502438Y-158310237D01*
X60502438Y-158310237D02*
X60454819Y-158167380D01*
X60454819Y-158167380D02*
X60454819Y-158072142D01*
X60454819Y-158072142D02*
X60502438Y-157929285D01*
X60502438Y-157929285D02*
X60550057Y-157881666D01*
X60883390Y-157310237D02*
X60835771Y-157405475D01*
X60835771Y-157405475D02*
X60788152Y-157453094D01*
X60788152Y-157453094D02*
X60692914Y-157500713D01*
X60692914Y-157500713D02*
X60645295Y-157500713D01*
X60645295Y-157500713D02*
X60550057Y-157453094D01*
X60550057Y-157453094D02*
X60502438Y-157405475D01*
X60502438Y-157405475D02*
X60454819Y-157310237D01*
X60454819Y-157310237D02*
X60454819Y-157119761D01*
X60454819Y-157119761D02*
X60502438Y-157024523D01*
X60502438Y-157024523D02*
X60550057Y-156976904D01*
X60550057Y-156976904D02*
X60645295Y-156929285D01*
X60645295Y-156929285D02*
X60692914Y-156929285D01*
X60692914Y-156929285D02*
X60788152Y-156976904D01*
X60788152Y-156976904D02*
X60835771Y-157024523D01*
X60835771Y-157024523D02*
X60883390Y-157119761D01*
X60883390Y-157119761D02*
X60883390Y-157310237D01*
X60883390Y-157310237D02*
X60931009Y-157405475D01*
X60931009Y-157405475D02*
X60978628Y-157453094D01*
X60978628Y-157453094D02*
X61073866Y-157500713D01*
X61073866Y-157500713D02*
X61264342Y-157500713D01*
X61264342Y-157500713D02*
X61359580Y-157453094D01*
X61359580Y-157453094D02*
X61407200Y-157405475D01*
X61407200Y-157405475D02*
X61454819Y-157310237D01*
X61454819Y-157310237D02*
X61454819Y-157119761D01*
X61454819Y-157119761D02*
X61407200Y-157024523D01*
X61407200Y-157024523D02*
X61359580Y-156976904D01*
X61359580Y-156976904D02*
X61264342Y-156929285D01*
X61264342Y-156929285D02*
X61073866Y-156929285D01*
X61073866Y-156929285D02*
X60978628Y-156976904D01*
X60978628Y-156976904D02*
X60931009Y-157024523D01*
X60931009Y-157024523D02*
X60883390Y-157119761D01*
X44004819Y-110513056D02*
X43528628Y-110846389D01*
X44004819Y-111084484D02*
X43004819Y-111084484D01*
X43004819Y-111084484D02*
X43004819Y-110703532D01*
X43004819Y-110703532D02*
X43052438Y-110608294D01*
X43052438Y-110608294D02*
X43100057Y-110560675D01*
X43100057Y-110560675D02*
X43195295Y-110513056D01*
X43195295Y-110513056D02*
X43338152Y-110513056D01*
X43338152Y-110513056D02*
X43433390Y-110560675D01*
X43433390Y-110560675D02*
X43481009Y-110608294D01*
X43481009Y-110608294D02*
X43528628Y-110703532D01*
X43528628Y-110703532D02*
X43528628Y-111084484D01*
X43004819Y-110227341D02*
X44004819Y-109894008D01*
X44004819Y-109894008D02*
X43004819Y-109560675D01*
X44004819Y-109179722D02*
X44004819Y-108989246D01*
X44004819Y-108989246D02*
X43957200Y-108894008D01*
X43957200Y-108894008D02*
X43909580Y-108846389D01*
X43909580Y-108846389D02*
X43766723Y-108751151D01*
X43766723Y-108751151D02*
X43576247Y-108703532D01*
X43576247Y-108703532D02*
X43195295Y-108703532D01*
X43195295Y-108703532D02*
X43100057Y-108751151D01*
X43100057Y-108751151D02*
X43052438Y-108798770D01*
X43052438Y-108798770D02*
X43004819Y-108894008D01*
X43004819Y-108894008D02*
X43004819Y-109084484D01*
X43004819Y-109084484D02*
X43052438Y-109179722D01*
X43052438Y-109179722D02*
X43100057Y-109227341D01*
X43100057Y-109227341D02*
X43195295Y-109274960D01*
X43195295Y-109274960D02*
X43433390Y-109274960D01*
X43433390Y-109274960D02*
X43528628Y-109227341D01*
X43528628Y-109227341D02*
X43576247Y-109179722D01*
X43576247Y-109179722D02*
X43623866Y-109084484D01*
X43623866Y-109084484D02*
X43623866Y-108894008D01*
X43623866Y-108894008D02*
X43576247Y-108798770D01*
X43576247Y-108798770D02*
X43528628Y-108751151D01*
X43528628Y-108751151D02*
X43433390Y-108703532D01*
X93068853Y-142415893D02*
X93021234Y-142463513D01*
X93021234Y-142463513D02*
X92878377Y-142511132D01*
X92878377Y-142511132D02*
X92783139Y-142511132D01*
X92783139Y-142511132D02*
X92640282Y-142463513D01*
X92640282Y-142463513D02*
X92545044Y-142368274D01*
X92545044Y-142368274D02*
X92497425Y-142273036D01*
X92497425Y-142273036D02*
X92449806Y-142082560D01*
X92449806Y-142082560D02*
X92449806Y-141939703D01*
X92449806Y-141939703D02*
X92497425Y-141749227D01*
X92497425Y-141749227D02*
X92545044Y-141653989D01*
X92545044Y-141653989D02*
X92640282Y-141558751D01*
X92640282Y-141558751D02*
X92783139Y-141511132D01*
X92783139Y-141511132D02*
X92878377Y-141511132D01*
X92878377Y-141511132D02*
X93021234Y-141558751D01*
X93021234Y-141558751D02*
X93068853Y-141606370D01*
X94021234Y-142511132D02*
X93449806Y-142511132D01*
X93735520Y-142511132D02*
X93735520Y-141511132D01*
X93735520Y-141511132D02*
X93640282Y-141653989D01*
X93640282Y-141653989D02*
X93545044Y-141749227D01*
X93545044Y-141749227D02*
X93449806Y-141796846D01*
X94402187Y-141606370D02*
X94449806Y-141558751D01*
X94449806Y-141558751D02*
X94545044Y-141511132D01*
X94545044Y-141511132D02*
X94783139Y-141511132D01*
X94783139Y-141511132D02*
X94878377Y-141558751D01*
X94878377Y-141558751D02*
X94925996Y-141606370D01*
X94925996Y-141606370D02*
X94973615Y-141701608D01*
X94973615Y-141701608D02*
X94973615Y-141796846D01*
X94973615Y-141796846D02*
X94925996Y-141939703D01*
X94925996Y-141939703D02*
X94354568Y-142511132D01*
X94354568Y-142511132D02*
X94973615Y-142511132D01*
X58053333Y-80672606D02*
X57720000Y-80196415D01*
X57481905Y-80672606D02*
X57481905Y-79672606D01*
X57481905Y-79672606D02*
X57862857Y-79672606D01*
X57862857Y-79672606D02*
X57958095Y-79720225D01*
X57958095Y-79720225D02*
X58005714Y-79767844D01*
X58005714Y-79767844D02*
X58053333Y-79863082D01*
X58053333Y-79863082D02*
X58053333Y-80005939D01*
X58053333Y-80005939D02*
X58005714Y-80101177D01*
X58005714Y-80101177D02*
X57958095Y-80148796D01*
X57958095Y-80148796D02*
X57862857Y-80196415D01*
X57862857Y-80196415D02*
X57481905Y-80196415D01*
X58386667Y-79672606D02*
X59005714Y-79672606D01*
X59005714Y-79672606D02*
X58672381Y-80053558D01*
X58672381Y-80053558D02*
X58815238Y-80053558D01*
X58815238Y-80053558D02*
X58910476Y-80101177D01*
X58910476Y-80101177D02*
X58958095Y-80148796D01*
X58958095Y-80148796D02*
X59005714Y-80244034D01*
X59005714Y-80244034D02*
X59005714Y-80482129D01*
X59005714Y-80482129D02*
X58958095Y-80577367D01*
X58958095Y-80577367D02*
X58910476Y-80624987D01*
X58910476Y-80624987D02*
X58815238Y-80672606D01*
X58815238Y-80672606D02*
X58529524Y-80672606D01*
X58529524Y-80672606D02*
X58434286Y-80624987D01*
X58434286Y-80624987D02*
X58386667Y-80577367D01*
X62704819Y-178357857D02*
X62228628Y-178691190D01*
X62704819Y-178929285D02*
X61704819Y-178929285D01*
X61704819Y-178929285D02*
X61704819Y-178548333D01*
X61704819Y-178548333D02*
X61752438Y-178453095D01*
X61752438Y-178453095D02*
X61800057Y-178405476D01*
X61800057Y-178405476D02*
X61895295Y-178357857D01*
X61895295Y-178357857D02*
X62038152Y-178357857D01*
X62038152Y-178357857D02*
X62133390Y-178405476D01*
X62133390Y-178405476D02*
X62181009Y-178453095D01*
X62181009Y-178453095D02*
X62228628Y-178548333D01*
X62228628Y-178548333D02*
X62228628Y-178929285D01*
X62704819Y-177405476D02*
X62704819Y-177976904D01*
X62704819Y-177691190D02*
X61704819Y-177691190D01*
X61704819Y-177691190D02*
X61847676Y-177786428D01*
X61847676Y-177786428D02*
X61942914Y-177881666D01*
X61942914Y-177881666D02*
X61990533Y-177976904D01*
X62038152Y-176548333D02*
X62704819Y-176548333D01*
X61657200Y-176786428D02*
X62371485Y-177024523D01*
X62371485Y-177024523D02*
X62371485Y-176405476D01*
X63504819Y-89713025D02*
X63028628Y-90046358D01*
X63504819Y-90284453D02*
X62504819Y-90284453D01*
X62504819Y-90284453D02*
X62504819Y-89903501D01*
X62504819Y-89903501D02*
X62552438Y-89808263D01*
X62552438Y-89808263D02*
X62600057Y-89760644D01*
X62600057Y-89760644D02*
X62695295Y-89713025D01*
X62695295Y-89713025D02*
X62838152Y-89713025D01*
X62838152Y-89713025D02*
X62933390Y-89760644D01*
X62933390Y-89760644D02*
X62981009Y-89808263D01*
X62981009Y-89808263D02*
X63028628Y-89903501D01*
X63028628Y-89903501D02*
X63028628Y-90284453D01*
X62504819Y-89427310D02*
X63504819Y-89093977D01*
X63504819Y-89093977D02*
X62504819Y-88760644D01*
X62504819Y-87951120D02*
X62504819Y-88427310D01*
X62504819Y-88427310D02*
X62981009Y-88474929D01*
X62981009Y-88474929D02*
X62933390Y-88427310D01*
X62933390Y-88427310D02*
X62885771Y-88332072D01*
X62885771Y-88332072D02*
X62885771Y-88093977D01*
X62885771Y-88093977D02*
X62933390Y-87998739D01*
X62933390Y-87998739D02*
X62981009Y-87951120D01*
X62981009Y-87951120D02*
X63076247Y-87903501D01*
X63076247Y-87903501D02*
X63314342Y-87903501D01*
X63314342Y-87903501D02*
X63409580Y-87951120D01*
X63409580Y-87951120D02*
X63457200Y-87998739D01*
X63457200Y-87998739D02*
X63504819Y-88093977D01*
X63504819Y-88093977D02*
X63504819Y-88332072D01*
X63504819Y-88332072D02*
X63457200Y-88427310D01*
X63457200Y-88427310D02*
X63409580Y-88474929D01*
D10*
X34565476Y-137655933D02*
X34708333Y-137703552D01*
X34708333Y-137703552D02*
X34946428Y-137703552D01*
X34946428Y-137703552D02*
X35041666Y-137655933D01*
X35041666Y-137655933D02*
X35089285Y-137608313D01*
X35089285Y-137608313D02*
X35136904Y-137513075D01*
X35136904Y-137513075D02*
X35136904Y-137417837D01*
X35136904Y-137417837D02*
X35089285Y-137322599D01*
X35089285Y-137322599D02*
X35041666Y-137274980D01*
X35041666Y-137274980D02*
X34946428Y-137227361D01*
X34946428Y-137227361D02*
X34755952Y-137179742D01*
X34755952Y-137179742D02*
X34660714Y-137132123D01*
X34660714Y-137132123D02*
X34613095Y-137084504D01*
X34613095Y-137084504D02*
X34565476Y-136989266D01*
X34565476Y-136989266D02*
X34565476Y-136894028D01*
X34565476Y-136894028D02*
X34613095Y-136798790D01*
X34613095Y-136798790D02*
X34660714Y-136751171D01*
X34660714Y-136751171D02*
X34755952Y-136703552D01*
X34755952Y-136703552D02*
X34994047Y-136703552D01*
X34994047Y-136703552D02*
X35136904Y-136751171D01*
X35470238Y-136703552D02*
X35708333Y-137703552D01*
X35708333Y-137703552D02*
X35898809Y-136989266D01*
X35898809Y-136989266D02*
X36089285Y-137703552D01*
X36089285Y-137703552D02*
X36327381Y-136703552D01*
X37232142Y-137703552D02*
X36660714Y-137703552D01*
X36946428Y-137703552D02*
X36946428Y-136703552D01*
X36946428Y-136703552D02*
X36851190Y-136846409D01*
X36851190Y-136846409D02*
X36755952Y-136941647D01*
X36755952Y-136941647D02*
X36660714Y-136989266D01*
X38184523Y-137703552D02*
X37613095Y-137703552D01*
X37898809Y-137703552D02*
X37898809Y-136703552D01*
X37898809Y-136703552D02*
X37803571Y-136846409D01*
X37803571Y-136846409D02*
X37708333Y-136941647D01*
X37708333Y-136941647D02*
X37613095Y-136989266D01*
X84241667Y-75265087D02*
X84384524Y-75312706D01*
X84384524Y-75312706D02*
X84622619Y-75312706D01*
X84622619Y-75312706D02*
X84717857Y-75265087D01*
X84717857Y-75265087D02*
X84765476Y-75217467D01*
X84765476Y-75217467D02*
X84813095Y-75122229D01*
X84813095Y-75122229D02*
X84813095Y-75026991D01*
X84813095Y-75026991D02*
X84765476Y-74931753D01*
X84765476Y-74931753D02*
X84717857Y-74884134D01*
X84717857Y-74884134D02*
X84622619Y-74836515D01*
X84622619Y-74836515D02*
X84432143Y-74788896D01*
X84432143Y-74788896D02*
X84336905Y-74741277D01*
X84336905Y-74741277D02*
X84289286Y-74693658D01*
X84289286Y-74693658D02*
X84241667Y-74598420D01*
X84241667Y-74598420D02*
X84241667Y-74503182D01*
X84241667Y-74503182D02*
X84289286Y-74407944D01*
X84289286Y-74407944D02*
X84336905Y-74360325D01*
X84336905Y-74360325D02*
X84432143Y-74312706D01*
X84432143Y-74312706D02*
X84670238Y-74312706D01*
X84670238Y-74312706D02*
X84813095Y-74360325D01*
X85146429Y-74312706D02*
X85384524Y-75312706D01*
X85384524Y-75312706D02*
X85575000Y-74598420D01*
X85575000Y-74598420D02*
X85765476Y-75312706D01*
X85765476Y-75312706D02*
X86003572Y-74312706D01*
X86813095Y-74646039D02*
X86813095Y-75312706D01*
X86575000Y-74265087D02*
X86336905Y-74979372D01*
X86336905Y-74979372D02*
X86955952Y-74979372D01*
D12*
X50459819Y-144761904D02*
X51269342Y-144761904D01*
X51269342Y-144761904D02*
X51364580Y-144714285D01*
X51364580Y-144714285D02*
X51412200Y-144666666D01*
X51412200Y-144666666D02*
X51459819Y-144571428D01*
X51459819Y-144571428D02*
X51459819Y-144380952D01*
X51459819Y-144380952D02*
X51412200Y-144285714D01*
X51412200Y-144285714D02*
X51364580Y-144238095D01*
X51364580Y-144238095D02*
X51269342Y-144190476D01*
X51269342Y-144190476D02*
X50459819Y-144190476D01*
X51459819Y-143190476D02*
X51459819Y-143761904D01*
X51459819Y-143476190D02*
X50459819Y-143476190D01*
X50459819Y-143476190D02*
X50602676Y-143571428D01*
X50602676Y-143571428D02*
X50697914Y-143666666D01*
X50697914Y-143666666D02*
X50745533Y-143761904D01*
D10*
X23190476Y-136203552D02*
X23190476Y-136917837D01*
X23190476Y-136917837D02*
X23142857Y-137060694D01*
X23142857Y-137060694D02*
X23047619Y-137155933D01*
X23047619Y-137155933D02*
X22904762Y-137203552D01*
X22904762Y-137203552D02*
X22809524Y-137203552D01*
X23619048Y-136298790D02*
X23666667Y-136251171D01*
X23666667Y-136251171D02*
X23761905Y-136203552D01*
X23761905Y-136203552D02*
X24000000Y-136203552D01*
X24000000Y-136203552D02*
X24095238Y-136251171D01*
X24095238Y-136251171D02*
X24142857Y-136298790D01*
X24142857Y-136298790D02*
X24190476Y-136394028D01*
X24190476Y-136394028D02*
X24190476Y-136489266D01*
X24190476Y-136489266D02*
X24142857Y-136632123D01*
X24142857Y-136632123D02*
X23571429Y-137203552D01*
X23571429Y-137203552D02*
X24190476Y-137203552D01*
X25095238Y-136203552D02*
X24619048Y-136203552D01*
X24619048Y-136203552D02*
X24571429Y-136679742D01*
X24571429Y-136679742D02*
X24619048Y-136632123D01*
X24619048Y-136632123D02*
X24714286Y-136584504D01*
X24714286Y-136584504D02*
X24952381Y-136584504D01*
X24952381Y-136584504D02*
X25047619Y-136632123D01*
X25047619Y-136632123D02*
X25095238Y-136679742D01*
X25095238Y-136679742D02*
X25142857Y-136774980D01*
X25142857Y-136774980D02*
X25142857Y-137013075D01*
X25142857Y-137013075D02*
X25095238Y-137108313D01*
X25095238Y-137108313D02*
X25047619Y-137155933D01*
X25047619Y-137155933D02*
X24952381Y-137203552D01*
X24952381Y-137203552D02*
X24714286Y-137203552D01*
X24714286Y-137203552D02*
X24619048Y-137155933D01*
X24619048Y-137155933D02*
X24571429Y-137108313D01*
X29305476Y-150387481D02*
X29305476Y-151101766D01*
X29305476Y-151101766D02*
X29257857Y-151244623D01*
X29257857Y-151244623D02*
X29162619Y-151339862D01*
X29162619Y-151339862D02*
X29019762Y-151387481D01*
X29019762Y-151387481D02*
X28924524Y-151387481D01*
X30305476Y-151387481D02*
X29734048Y-151387481D01*
X30019762Y-151387481D02*
X30019762Y-150387481D01*
X30019762Y-150387481D02*
X29924524Y-150530338D01*
X29924524Y-150530338D02*
X29829286Y-150625576D01*
X29829286Y-150625576D02*
X29734048Y-150673195D01*
X30924524Y-150387481D02*
X31019762Y-150387481D01*
X31019762Y-150387481D02*
X31115000Y-150435100D01*
X31115000Y-150435100D02*
X31162619Y-150482719D01*
X31162619Y-150482719D02*
X31210238Y-150577957D01*
X31210238Y-150577957D02*
X31257857Y-150768433D01*
X31257857Y-150768433D02*
X31257857Y-151006528D01*
X31257857Y-151006528D02*
X31210238Y-151197004D01*
X31210238Y-151197004D02*
X31162619Y-151292242D01*
X31162619Y-151292242D02*
X31115000Y-151339862D01*
X31115000Y-151339862D02*
X31019762Y-151387481D01*
X31019762Y-151387481D02*
X30924524Y-151387481D01*
X30924524Y-151387481D02*
X30829286Y-151339862D01*
X30829286Y-151339862D02*
X30781667Y-151292242D01*
X30781667Y-151292242D02*
X30734048Y-151197004D01*
X30734048Y-151197004D02*
X30686429Y-151006528D01*
X30686429Y-151006528D02*
X30686429Y-150768433D01*
X30686429Y-150768433D02*
X30734048Y-150577957D01*
X30734048Y-150577957D02*
X30781667Y-150482719D01*
X30781667Y-150482719D02*
X30829286Y-150435100D01*
X30829286Y-150435100D02*
X30924524Y-150387481D01*
D12*
X44004819Y-89713025D02*
X43528628Y-90046358D01*
X44004819Y-90284453D02*
X43004819Y-90284453D01*
X43004819Y-90284453D02*
X43004819Y-89903501D01*
X43004819Y-89903501D02*
X43052438Y-89808263D01*
X43052438Y-89808263D02*
X43100057Y-89760644D01*
X43100057Y-89760644D02*
X43195295Y-89713025D01*
X43195295Y-89713025D02*
X43338152Y-89713025D01*
X43338152Y-89713025D02*
X43433390Y-89760644D01*
X43433390Y-89760644D02*
X43481009Y-89808263D01*
X43481009Y-89808263D02*
X43528628Y-89903501D01*
X43528628Y-89903501D02*
X43528628Y-90284453D01*
X43004819Y-89427310D02*
X44004819Y-89093977D01*
X44004819Y-89093977D02*
X43004819Y-88760644D01*
X43004819Y-88522548D02*
X43004819Y-87903501D01*
X43004819Y-87903501D02*
X43385771Y-88236834D01*
X43385771Y-88236834D02*
X43385771Y-88093977D01*
X43385771Y-88093977D02*
X43433390Y-87998739D01*
X43433390Y-87998739D02*
X43481009Y-87951120D01*
X43481009Y-87951120D02*
X43576247Y-87903501D01*
X43576247Y-87903501D02*
X43814342Y-87903501D01*
X43814342Y-87903501D02*
X43909580Y-87951120D01*
X43909580Y-87951120D02*
X43957200Y-87998739D01*
X43957200Y-87998739D02*
X44004819Y-88093977D01*
X44004819Y-88093977D02*
X44004819Y-88379691D01*
X44004819Y-88379691D02*
X43957200Y-88474929D01*
X43957200Y-88474929D02*
X43909580Y-88522548D01*
D10*
X84241667Y-164749800D02*
X84384524Y-164797419D01*
X84384524Y-164797419D02*
X84622619Y-164797419D01*
X84622619Y-164797419D02*
X84717857Y-164749800D01*
X84717857Y-164749800D02*
X84765476Y-164702180D01*
X84765476Y-164702180D02*
X84813095Y-164606942D01*
X84813095Y-164606942D02*
X84813095Y-164511704D01*
X84813095Y-164511704D02*
X84765476Y-164416466D01*
X84765476Y-164416466D02*
X84717857Y-164368847D01*
X84717857Y-164368847D02*
X84622619Y-164321228D01*
X84622619Y-164321228D02*
X84432143Y-164273609D01*
X84432143Y-164273609D02*
X84336905Y-164225990D01*
X84336905Y-164225990D02*
X84289286Y-164178371D01*
X84289286Y-164178371D02*
X84241667Y-164083133D01*
X84241667Y-164083133D02*
X84241667Y-163987895D01*
X84241667Y-163987895D02*
X84289286Y-163892657D01*
X84289286Y-163892657D02*
X84336905Y-163845038D01*
X84336905Y-163845038D02*
X84432143Y-163797419D01*
X84432143Y-163797419D02*
X84670238Y-163797419D01*
X84670238Y-163797419D02*
X84813095Y-163845038D01*
X85146429Y-163797419D02*
X85384524Y-164797419D01*
X85384524Y-164797419D02*
X85575000Y-164083133D01*
X85575000Y-164083133D02*
X85765476Y-164797419D01*
X85765476Y-164797419D02*
X86003572Y-163797419D01*
X86527381Y-164225990D02*
X86432143Y-164178371D01*
X86432143Y-164178371D02*
X86384524Y-164130752D01*
X86384524Y-164130752D02*
X86336905Y-164035514D01*
X86336905Y-164035514D02*
X86336905Y-163987895D01*
X86336905Y-163987895D02*
X86384524Y-163892657D01*
X86384524Y-163892657D02*
X86432143Y-163845038D01*
X86432143Y-163845038D02*
X86527381Y-163797419D01*
X86527381Y-163797419D02*
X86717857Y-163797419D01*
X86717857Y-163797419D02*
X86813095Y-163845038D01*
X86813095Y-163845038D02*
X86860714Y-163892657D01*
X86860714Y-163892657D02*
X86908333Y-163987895D01*
X86908333Y-163987895D02*
X86908333Y-164035514D01*
X86908333Y-164035514D02*
X86860714Y-164130752D01*
X86860714Y-164130752D02*
X86813095Y-164178371D01*
X86813095Y-164178371D02*
X86717857Y-164225990D01*
X86717857Y-164225990D02*
X86527381Y-164225990D01*
X86527381Y-164225990D02*
X86432143Y-164273609D01*
X86432143Y-164273609D02*
X86384524Y-164321228D01*
X86384524Y-164321228D02*
X86336905Y-164416466D01*
X86336905Y-164416466D02*
X86336905Y-164606942D01*
X86336905Y-164606942D02*
X86384524Y-164702180D01*
X86384524Y-164702180D02*
X86432143Y-164749800D01*
X86432143Y-164749800D02*
X86527381Y-164797419D01*
X86527381Y-164797419D02*
X86717857Y-164797419D01*
X86717857Y-164797419D02*
X86813095Y-164749800D01*
X86813095Y-164749800D02*
X86860714Y-164702180D01*
X86860714Y-164702180D02*
X86908333Y-164606942D01*
X86908333Y-164606942D02*
X86908333Y-164416466D01*
X86908333Y-164416466D02*
X86860714Y-164321228D01*
X86860714Y-164321228D02*
X86813095Y-164273609D01*
X86813095Y-164273609D02*
X86717857Y-164225990D01*
X91241666Y-82131556D02*
X91241666Y-82845841D01*
X91241666Y-82845841D02*
X91194047Y-82988698D01*
X91194047Y-82988698D02*
X91098809Y-83083937D01*
X91098809Y-83083937D02*
X90955952Y-83131556D01*
X90955952Y-83131556D02*
X90860714Y-83131556D01*
X91765476Y-83131556D02*
X91955952Y-83131556D01*
X91955952Y-83131556D02*
X92051190Y-83083937D01*
X92051190Y-83083937D02*
X92098809Y-83036317D01*
X92098809Y-83036317D02*
X92194047Y-82893460D01*
X92194047Y-82893460D02*
X92241666Y-82702984D01*
X92241666Y-82702984D02*
X92241666Y-82322032D01*
X92241666Y-82322032D02*
X92194047Y-82226794D01*
X92194047Y-82226794D02*
X92146428Y-82179175D01*
X92146428Y-82179175D02*
X92051190Y-82131556D01*
X92051190Y-82131556D02*
X91860714Y-82131556D01*
X91860714Y-82131556D02*
X91765476Y-82179175D01*
X91765476Y-82179175D02*
X91717857Y-82226794D01*
X91717857Y-82226794D02*
X91670238Y-82322032D01*
X91670238Y-82322032D02*
X91670238Y-82560127D01*
X91670238Y-82560127D02*
X91717857Y-82655365D01*
X91717857Y-82655365D02*
X91765476Y-82702984D01*
X91765476Y-82702984D02*
X91860714Y-82750603D01*
X91860714Y-82750603D02*
X92051190Y-82750603D01*
X92051190Y-82750603D02*
X92146428Y-82702984D01*
X92146428Y-82702984D02*
X92194047Y-82655365D01*
X92194047Y-82655365D02*
X92241666Y-82560127D01*
D12*
X62242412Y-122222606D02*
X61909079Y-121746415D01*
X61670984Y-122222606D02*
X61670984Y-121222606D01*
X61670984Y-121222606D02*
X62051936Y-121222606D01*
X62051936Y-121222606D02*
X62147174Y-121270225D01*
X62147174Y-121270225D02*
X62194793Y-121317844D01*
X62194793Y-121317844D02*
X62242412Y-121413082D01*
X62242412Y-121413082D02*
X62242412Y-121555939D01*
X62242412Y-121555939D02*
X62194793Y-121651177D01*
X62194793Y-121651177D02*
X62147174Y-121698796D01*
X62147174Y-121698796D02*
X62051936Y-121746415D01*
X62051936Y-121746415D02*
X61670984Y-121746415D01*
X63194793Y-122222606D02*
X62623365Y-122222606D01*
X62909079Y-122222606D02*
X62909079Y-121222606D01*
X62909079Y-121222606D02*
X62813841Y-121365463D01*
X62813841Y-121365463D02*
X62718603Y-121460701D01*
X62718603Y-121460701D02*
X62623365Y-121508320D01*
X63528127Y-121222606D02*
X64194793Y-121222606D01*
X64194793Y-121222606D02*
X63766222Y-122222606D01*
X81084819Y-169024523D02*
X81799104Y-169024523D01*
X81799104Y-169024523D02*
X81941961Y-169072142D01*
X81941961Y-169072142D02*
X82037200Y-169167380D01*
X82037200Y-169167380D02*
X82084819Y-169310237D01*
X82084819Y-169310237D02*
X82084819Y-169405475D01*
X82084819Y-168024523D02*
X82084819Y-168595951D01*
X82084819Y-168310237D02*
X81084819Y-168310237D01*
X81084819Y-168310237D02*
X81227676Y-168405475D01*
X81227676Y-168405475D02*
X81322914Y-168500713D01*
X81322914Y-168500713D02*
X81370533Y-168595951D01*
X81180057Y-167643570D02*
X81132438Y-167595951D01*
X81132438Y-167595951D02*
X81084819Y-167500713D01*
X81084819Y-167500713D02*
X81084819Y-167262618D01*
X81084819Y-167262618D02*
X81132438Y-167167380D01*
X81132438Y-167167380D02*
X81180057Y-167119761D01*
X81180057Y-167119761D02*
X81275295Y-167072142D01*
X81275295Y-167072142D02*
X81370533Y-167072142D01*
X81370533Y-167072142D02*
X81513390Y-167119761D01*
X81513390Y-167119761D02*
X82084819Y-167691189D01*
X82084819Y-167691189D02*
X82084819Y-167072142D01*
D10*
X35041667Y-75265087D02*
X35184524Y-75312706D01*
X35184524Y-75312706D02*
X35422619Y-75312706D01*
X35422619Y-75312706D02*
X35517857Y-75265087D01*
X35517857Y-75265087D02*
X35565476Y-75217467D01*
X35565476Y-75217467D02*
X35613095Y-75122229D01*
X35613095Y-75122229D02*
X35613095Y-75026991D01*
X35613095Y-75026991D02*
X35565476Y-74931753D01*
X35565476Y-74931753D02*
X35517857Y-74884134D01*
X35517857Y-74884134D02*
X35422619Y-74836515D01*
X35422619Y-74836515D02*
X35232143Y-74788896D01*
X35232143Y-74788896D02*
X35136905Y-74741277D01*
X35136905Y-74741277D02*
X35089286Y-74693658D01*
X35089286Y-74693658D02*
X35041667Y-74598420D01*
X35041667Y-74598420D02*
X35041667Y-74503182D01*
X35041667Y-74503182D02*
X35089286Y-74407944D01*
X35089286Y-74407944D02*
X35136905Y-74360325D01*
X35136905Y-74360325D02*
X35232143Y-74312706D01*
X35232143Y-74312706D02*
X35470238Y-74312706D01*
X35470238Y-74312706D02*
X35613095Y-74360325D01*
X35946429Y-74312706D02*
X36184524Y-75312706D01*
X36184524Y-75312706D02*
X36375000Y-74598420D01*
X36375000Y-74598420D02*
X36565476Y-75312706D01*
X36565476Y-75312706D02*
X36803572Y-74312706D01*
X37089286Y-74312706D02*
X37708333Y-74312706D01*
X37708333Y-74312706D02*
X37375000Y-74693658D01*
X37375000Y-74693658D02*
X37517857Y-74693658D01*
X37517857Y-74693658D02*
X37613095Y-74741277D01*
X37613095Y-74741277D02*
X37660714Y-74788896D01*
X37660714Y-74788896D02*
X37708333Y-74884134D01*
X37708333Y-74884134D02*
X37708333Y-75122229D01*
X37708333Y-75122229D02*
X37660714Y-75217467D01*
X37660714Y-75217467D02*
X37613095Y-75265087D01*
X37613095Y-75265087D02*
X37517857Y-75312706D01*
X37517857Y-75312706D02*
X37232143Y-75312706D01*
X37232143Y-75312706D02*
X37136905Y-75265087D01*
X37136905Y-75265087D02*
X37089286Y-75217467D01*
X84241667Y-54502587D02*
X84384524Y-54550206D01*
X84384524Y-54550206D02*
X84622619Y-54550206D01*
X84622619Y-54550206D02*
X84717857Y-54502587D01*
X84717857Y-54502587D02*
X84765476Y-54454967D01*
X84765476Y-54454967D02*
X84813095Y-54359729D01*
X84813095Y-54359729D02*
X84813095Y-54264491D01*
X84813095Y-54264491D02*
X84765476Y-54169253D01*
X84765476Y-54169253D02*
X84717857Y-54121634D01*
X84717857Y-54121634D02*
X84622619Y-54074015D01*
X84622619Y-54074015D02*
X84432143Y-54026396D01*
X84432143Y-54026396D02*
X84336905Y-53978777D01*
X84336905Y-53978777D02*
X84289286Y-53931158D01*
X84289286Y-53931158D02*
X84241667Y-53835920D01*
X84241667Y-53835920D02*
X84241667Y-53740682D01*
X84241667Y-53740682D02*
X84289286Y-53645444D01*
X84289286Y-53645444D02*
X84336905Y-53597825D01*
X84336905Y-53597825D02*
X84432143Y-53550206D01*
X84432143Y-53550206D02*
X84670238Y-53550206D01*
X84670238Y-53550206D02*
X84813095Y-53597825D01*
X85146429Y-53550206D02*
X85384524Y-54550206D01*
X85384524Y-54550206D02*
X85575000Y-53835920D01*
X85575000Y-53835920D02*
X85765476Y-54550206D01*
X85765476Y-54550206D02*
X86003572Y-53550206D01*
X86336905Y-53645444D02*
X86384524Y-53597825D01*
X86384524Y-53597825D02*
X86479762Y-53550206D01*
X86479762Y-53550206D02*
X86717857Y-53550206D01*
X86717857Y-53550206D02*
X86813095Y-53597825D01*
X86813095Y-53597825D02*
X86860714Y-53645444D01*
X86860714Y-53645444D02*
X86908333Y-53740682D01*
X86908333Y-53740682D02*
X86908333Y-53835920D01*
X86908333Y-53835920D02*
X86860714Y-53978777D01*
X86860714Y-53978777D02*
X86289286Y-54550206D01*
X86289286Y-54550206D02*
X86908333Y-54550206D01*
X90741666Y-61581587D02*
X90741666Y-62295872D01*
X90741666Y-62295872D02*
X90694047Y-62438729D01*
X90694047Y-62438729D02*
X90598809Y-62533968D01*
X90598809Y-62533968D02*
X90455952Y-62581587D01*
X90455952Y-62581587D02*
X90360714Y-62581587D01*
X91122619Y-61581587D02*
X91789285Y-61581587D01*
X91789285Y-61581587D02*
X91360714Y-62581587D01*
X84241667Y-96027587D02*
X84384524Y-96075206D01*
X84384524Y-96075206D02*
X84622619Y-96075206D01*
X84622619Y-96075206D02*
X84717857Y-96027587D01*
X84717857Y-96027587D02*
X84765476Y-95979967D01*
X84765476Y-95979967D02*
X84813095Y-95884729D01*
X84813095Y-95884729D02*
X84813095Y-95789491D01*
X84813095Y-95789491D02*
X84765476Y-95694253D01*
X84765476Y-95694253D02*
X84717857Y-95646634D01*
X84717857Y-95646634D02*
X84622619Y-95599015D01*
X84622619Y-95599015D02*
X84432143Y-95551396D01*
X84432143Y-95551396D02*
X84336905Y-95503777D01*
X84336905Y-95503777D02*
X84289286Y-95456158D01*
X84289286Y-95456158D02*
X84241667Y-95360920D01*
X84241667Y-95360920D02*
X84241667Y-95265682D01*
X84241667Y-95265682D02*
X84289286Y-95170444D01*
X84289286Y-95170444D02*
X84336905Y-95122825D01*
X84336905Y-95122825D02*
X84432143Y-95075206D01*
X84432143Y-95075206D02*
X84670238Y-95075206D01*
X84670238Y-95075206D02*
X84813095Y-95122825D01*
X85146429Y-95075206D02*
X85384524Y-96075206D01*
X85384524Y-96075206D02*
X85575000Y-95360920D01*
X85575000Y-95360920D02*
X85765476Y-96075206D01*
X85765476Y-96075206D02*
X86003572Y-95075206D01*
X86813095Y-95075206D02*
X86622619Y-95075206D01*
X86622619Y-95075206D02*
X86527381Y-95122825D01*
X86527381Y-95122825D02*
X86479762Y-95170444D01*
X86479762Y-95170444D02*
X86384524Y-95313301D01*
X86384524Y-95313301D02*
X86336905Y-95503777D01*
X86336905Y-95503777D02*
X86336905Y-95884729D01*
X86336905Y-95884729D02*
X86384524Y-95979967D01*
X86384524Y-95979967D02*
X86432143Y-96027587D01*
X86432143Y-96027587D02*
X86527381Y-96075206D01*
X86527381Y-96075206D02*
X86717857Y-96075206D01*
X86717857Y-96075206D02*
X86813095Y-96027587D01*
X86813095Y-96027587D02*
X86860714Y-95979967D01*
X86860714Y-95979967D02*
X86908333Y-95884729D01*
X86908333Y-95884729D02*
X86908333Y-95646634D01*
X86908333Y-95646634D02*
X86860714Y-95551396D01*
X86860714Y-95551396D02*
X86813095Y-95503777D01*
X86813095Y-95503777D02*
X86717857Y-95456158D01*
X86717857Y-95456158D02*
X86527381Y-95456158D01*
X86527381Y-95456158D02*
X86432143Y-95503777D01*
X86432143Y-95503777D02*
X86384524Y-95551396D01*
X86384524Y-95551396D02*
X86336905Y-95646634D01*
D12*
X68218603Y-98127367D02*
X68170984Y-98174987D01*
X68170984Y-98174987D02*
X68028127Y-98222606D01*
X68028127Y-98222606D02*
X67932889Y-98222606D01*
X67932889Y-98222606D02*
X67790032Y-98174987D01*
X67790032Y-98174987D02*
X67694794Y-98079748D01*
X67694794Y-98079748D02*
X67647175Y-97984510D01*
X67647175Y-97984510D02*
X67599556Y-97794034D01*
X67599556Y-97794034D02*
X67599556Y-97651177D01*
X67599556Y-97651177D02*
X67647175Y-97460701D01*
X67647175Y-97460701D02*
X67694794Y-97365463D01*
X67694794Y-97365463D02*
X67790032Y-97270225D01*
X67790032Y-97270225D02*
X67932889Y-97222606D01*
X67932889Y-97222606D02*
X68028127Y-97222606D01*
X68028127Y-97222606D02*
X68170984Y-97270225D01*
X68170984Y-97270225D02*
X68218603Y-97317844D01*
X68551937Y-97222606D02*
X69218603Y-97222606D01*
X69218603Y-97222606D02*
X68790032Y-98222606D01*
D10*
X90991666Y-40531618D02*
X90991666Y-41245903D01*
X90991666Y-41245903D02*
X90944047Y-41388760D01*
X90944047Y-41388760D02*
X90848809Y-41483999D01*
X90848809Y-41483999D02*
X90705952Y-41531618D01*
X90705952Y-41531618D02*
X90610714Y-41531618D01*
X91944047Y-40531618D02*
X91467857Y-40531618D01*
X91467857Y-40531618D02*
X91420238Y-41007808D01*
X91420238Y-41007808D02*
X91467857Y-40960189D01*
X91467857Y-40960189D02*
X91563095Y-40912570D01*
X91563095Y-40912570D02*
X91801190Y-40912570D01*
X91801190Y-40912570D02*
X91896428Y-40960189D01*
X91896428Y-40960189D02*
X91944047Y-41007808D01*
X91944047Y-41007808D02*
X91991666Y-41103046D01*
X91991666Y-41103046D02*
X91991666Y-41341141D01*
X91991666Y-41341141D02*
X91944047Y-41436379D01*
X91944047Y-41436379D02*
X91896428Y-41483999D01*
X91896428Y-41483999D02*
X91801190Y-41531618D01*
X91801190Y-41531618D02*
X91563095Y-41531618D01*
X91563095Y-41531618D02*
X91467857Y-41483999D01*
X91467857Y-41483999D02*
X91420238Y-41436379D01*
D12*
X68218603Y-77627367D02*
X68170984Y-77674987D01*
X68170984Y-77674987D02*
X68028127Y-77722606D01*
X68028127Y-77722606D02*
X67932889Y-77722606D01*
X67932889Y-77722606D02*
X67790032Y-77674987D01*
X67790032Y-77674987D02*
X67694794Y-77579748D01*
X67694794Y-77579748D02*
X67647175Y-77484510D01*
X67647175Y-77484510D02*
X67599556Y-77294034D01*
X67599556Y-77294034D02*
X67599556Y-77151177D01*
X67599556Y-77151177D02*
X67647175Y-76960701D01*
X67647175Y-76960701D02*
X67694794Y-76865463D01*
X67694794Y-76865463D02*
X67790032Y-76770225D01*
X67790032Y-76770225D02*
X67932889Y-76722606D01*
X67932889Y-76722606D02*
X68028127Y-76722606D01*
X68028127Y-76722606D02*
X68170984Y-76770225D01*
X68170984Y-76770225D02*
X68218603Y-76817844D01*
X69075746Y-77055939D02*
X69075746Y-77722606D01*
X68837651Y-76674987D02*
X68599556Y-77389272D01*
X68599556Y-77389272D02*
X69218603Y-77389272D01*
X42840089Y-165156666D02*
X42363898Y-165489999D01*
X42840089Y-165728094D02*
X41840089Y-165728094D01*
X41840089Y-165728094D02*
X41840089Y-165347142D01*
X41840089Y-165347142D02*
X41887708Y-165251904D01*
X41887708Y-165251904D02*
X41935327Y-165204285D01*
X41935327Y-165204285D02*
X42030565Y-165156666D01*
X42030565Y-165156666D02*
X42173422Y-165156666D01*
X42173422Y-165156666D02*
X42268660Y-165204285D01*
X42268660Y-165204285D02*
X42316279Y-165251904D01*
X42316279Y-165251904D02*
X42363898Y-165347142D01*
X42363898Y-165347142D02*
X42363898Y-165728094D01*
X41840089Y-164299523D02*
X41840089Y-164489999D01*
X41840089Y-164489999D02*
X41887708Y-164585237D01*
X41887708Y-164585237D02*
X41935327Y-164632856D01*
X41935327Y-164632856D02*
X42078184Y-164728094D01*
X42078184Y-164728094D02*
X42268660Y-164775713D01*
X42268660Y-164775713D02*
X42649612Y-164775713D01*
X42649612Y-164775713D02*
X42744850Y-164728094D01*
X42744850Y-164728094D02*
X42792470Y-164680475D01*
X42792470Y-164680475D02*
X42840089Y-164585237D01*
X42840089Y-164585237D02*
X42840089Y-164394761D01*
X42840089Y-164394761D02*
X42792470Y-164299523D01*
X42792470Y-164299523D02*
X42744850Y-164251904D01*
X42744850Y-164251904D02*
X42649612Y-164204285D01*
X42649612Y-164204285D02*
X42411517Y-164204285D01*
X42411517Y-164204285D02*
X42316279Y-164251904D01*
X42316279Y-164251904D02*
X42268660Y-164299523D01*
X42268660Y-164299523D02*
X42221041Y-164394761D01*
X42221041Y-164394761D02*
X42221041Y-164585237D01*
X42221041Y-164585237D02*
X42268660Y-164680475D01*
X42268660Y-164680475D02*
X42316279Y-164728094D01*
X42316279Y-164728094D02*
X42411517Y-164775713D01*
D10*
X35041667Y-54502587D02*
X35184524Y-54550206D01*
X35184524Y-54550206D02*
X35422619Y-54550206D01*
X35422619Y-54550206D02*
X35517857Y-54502587D01*
X35517857Y-54502587D02*
X35565476Y-54454967D01*
X35565476Y-54454967D02*
X35613095Y-54359729D01*
X35613095Y-54359729D02*
X35613095Y-54264491D01*
X35613095Y-54264491D02*
X35565476Y-54169253D01*
X35565476Y-54169253D02*
X35517857Y-54121634D01*
X35517857Y-54121634D02*
X35422619Y-54074015D01*
X35422619Y-54074015D02*
X35232143Y-54026396D01*
X35232143Y-54026396D02*
X35136905Y-53978777D01*
X35136905Y-53978777D02*
X35089286Y-53931158D01*
X35089286Y-53931158D02*
X35041667Y-53835920D01*
X35041667Y-53835920D02*
X35041667Y-53740682D01*
X35041667Y-53740682D02*
X35089286Y-53645444D01*
X35089286Y-53645444D02*
X35136905Y-53597825D01*
X35136905Y-53597825D02*
X35232143Y-53550206D01*
X35232143Y-53550206D02*
X35470238Y-53550206D01*
X35470238Y-53550206D02*
X35613095Y-53597825D01*
X35946429Y-53550206D02*
X36184524Y-54550206D01*
X36184524Y-54550206D02*
X36375000Y-53835920D01*
X36375000Y-53835920D02*
X36565476Y-54550206D01*
X36565476Y-54550206D02*
X36803572Y-53550206D01*
X37708333Y-54550206D02*
X37136905Y-54550206D01*
X37422619Y-54550206D02*
X37422619Y-53550206D01*
X37422619Y-53550206D02*
X37327381Y-53693063D01*
X37327381Y-53693063D02*
X37232143Y-53788301D01*
X37232143Y-53788301D02*
X37136905Y-53835920D01*
D12*
X58242412Y-122222606D02*
X57909079Y-121746415D01*
X57670984Y-122222606D02*
X57670984Y-121222606D01*
X57670984Y-121222606D02*
X58051936Y-121222606D01*
X58051936Y-121222606D02*
X58147174Y-121270225D01*
X58147174Y-121270225D02*
X58194793Y-121317844D01*
X58194793Y-121317844D02*
X58242412Y-121413082D01*
X58242412Y-121413082D02*
X58242412Y-121555939D01*
X58242412Y-121555939D02*
X58194793Y-121651177D01*
X58194793Y-121651177D02*
X58147174Y-121698796D01*
X58147174Y-121698796D02*
X58051936Y-121746415D01*
X58051936Y-121746415D02*
X57670984Y-121746415D01*
X59194793Y-122222606D02*
X58623365Y-122222606D01*
X58909079Y-122222606D02*
X58909079Y-121222606D01*
X58909079Y-121222606D02*
X58813841Y-121365463D01*
X58813841Y-121365463D02*
X58718603Y-121460701D01*
X58718603Y-121460701D02*
X58623365Y-121508320D01*
X60099555Y-121222606D02*
X59623365Y-121222606D01*
X59623365Y-121222606D02*
X59575746Y-121698796D01*
X59575746Y-121698796D02*
X59623365Y-121651177D01*
X59623365Y-121651177D02*
X59718603Y-121603558D01*
X59718603Y-121603558D02*
X59956698Y-121603558D01*
X59956698Y-121603558D02*
X60051936Y-121651177D01*
X60051936Y-121651177D02*
X60099555Y-121698796D01*
X60099555Y-121698796D02*
X60147174Y-121794034D01*
X60147174Y-121794034D02*
X60147174Y-122032129D01*
X60147174Y-122032129D02*
X60099555Y-122127367D01*
X60099555Y-122127367D02*
X60051936Y-122174987D01*
X60051936Y-122174987D02*
X59956698Y-122222606D01*
X59956698Y-122222606D02*
X59718603Y-122222606D01*
X59718603Y-122222606D02*
X59623365Y-122174987D01*
X59623365Y-122174987D02*
X59575746Y-122127367D01*
D10*
X35041667Y-96027587D02*
X35184524Y-96075206D01*
X35184524Y-96075206D02*
X35422619Y-96075206D01*
X35422619Y-96075206D02*
X35517857Y-96027587D01*
X35517857Y-96027587D02*
X35565476Y-95979967D01*
X35565476Y-95979967D02*
X35613095Y-95884729D01*
X35613095Y-95884729D02*
X35613095Y-95789491D01*
X35613095Y-95789491D02*
X35565476Y-95694253D01*
X35565476Y-95694253D02*
X35517857Y-95646634D01*
X35517857Y-95646634D02*
X35422619Y-95599015D01*
X35422619Y-95599015D02*
X35232143Y-95551396D01*
X35232143Y-95551396D02*
X35136905Y-95503777D01*
X35136905Y-95503777D02*
X35089286Y-95456158D01*
X35089286Y-95456158D02*
X35041667Y-95360920D01*
X35041667Y-95360920D02*
X35041667Y-95265682D01*
X35041667Y-95265682D02*
X35089286Y-95170444D01*
X35089286Y-95170444D02*
X35136905Y-95122825D01*
X35136905Y-95122825D02*
X35232143Y-95075206D01*
X35232143Y-95075206D02*
X35470238Y-95075206D01*
X35470238Y-95075206D02*
X35613095Y-95122825D01*
X35946429Y-95075206D02*
X36184524Y-96075206D01*
X36184524Y-96075206D02*
X36375000Y-95360920D01*
X36375000Y-95360920D02*
X36565476Y-96075206D01*
X36565476Y-96075206D02*
X36803572Y-95075206D01*
X37660714Y-95075206D02*
X37184524Y-95075206D01*
X37184524Y-95075206D02*
X37136905Y-95551396D01*
X37136905Y-95551396D02*
X37184524Y-95503777D01*
X37184524Y-95503777D02*
X37279762Y-95456158D01*
X37279762Y-95456158D02*
X37517857Y-95456158D01*
X37517857Y-95456158D02*
X37613095Y-95503777D01*
X37613095Y-95503777D02*
X37660714Y-95551396D01*
X37660714Y-95551396D02*
X37708333Y-95646634D01*
X37708333Y-95646634D02*
X37708333Y-95884729D01*
X37708333Y-95884729D02*
X37660714Y-95979967D01*
X37660714Y-95979967D02*
X37613095Y-96027587D01*
X37613095Y-96027587D02*
X37517857Y-96075206D01*
X37517857Y-96075206D02*
X37279762Y-96075206D01*
X37279762Y-96075206D02*
X37184524Y-96027587D01*
X37184524Y-96027587D02*
X37136905Y-95979967D01*
D12*
X45840089Y-162085238D02*
X45363898Y-162418571D01*
X45840089Y-162656666D02*
X44840089Y-162656666D01*
X44840089Y-162656666D02*
X44840089Y-162275714D01*
X44840089Y-162275714D02*
X44887708Y-162180476D01*
X44887708Y-162180476D02*
X44935327Y-162132857D01*
X44935327Y-162132857D02*
X45030565Y-162085238D01*
X45030565Y-162085238D02*
X45173422Y-162085238D01*
X45173422Y-162085238D02*
X45268660Y-162132857D01*
X45268660Y-162132857D02*
X45316279Y-162180476D01*
X45316279Y-162180476D02*
X45363898Y-162275714D01*
X45363898Y-162275714D02*
X45363898Y-162656666D01*
X44840089Y-161799523D02*
X45840089Y-161466190D01*
X45840089Y-161466190D02*
X44840089Y-161132857D01*
X44840089Y-160894761D02*
X44840089Y-160228095D01*
X44840089Y-160228095D02*
X45840089Y-160656666D01*
D10*
X96015476Y-115403583D02*
X96015476Y-116117868D01*
X96015476Y-116117868D02*
X95967857Y-116260725D01*
X95967857Y-116260725D02*
X95872619Y-116355964D01*
X95872619Y-116355964D02*
X95729762Y-116403583D01*
X95729762Y-116403583D02*
X95634524Y-116403583D01*
X96396429Y-115403583D02*
X97015476Y-115403583D01*
X97015476Y-115403583D02*
X96682143Y-115784535D01*
X96682143Y-115784535D02*
X96825000Y-115784535D01*
X96825000Y-115784535D02*
X96920238Y-115832154D01*
X96920238Y-115832154D02*
X96967857Y-115879773D01*
X96967857Y-115879773D02*
X97015476Y-115975011D01*
X97015476Y-115975011D02*
X97015476Y-116213106D01*
X97015476Y-116213106D02*
X96967857Y-116308344D01*
X96967857Y-116308344D02*
X96920238Y-116355964D01*
X96920238Y-116355964D02*
X96825000Y-116403583D01*
X96825000Y-116403583D02*
X96539286Y-116403583D01*
X96539286Y-116403583D02*
X96444048Y-116355964D01*
X96444048Y-116355964D02*
X96396429Y-116308344D01*
X97634524Y-115403583D02*
X97729762Y-115403583D01*
X97729762Y-115403583D02*
X97825000Y-115451202D01*
X97825000Y-115451202D02*
X97872619Y-115498821D01*
X97872619Y-115498821D02*
X97920238Y-115594059D01*
X97920238Y-115594059D02*
X97967857Y-115784535D01*
X97967857Y-115784535D02*
X97967857Y-116022630D01*
X97967857Y-116022630D02*
X97920238Y-116213106D01*
X97920238Y-116213106D02*
X97872619Y-116308344D01*
X97872619Y-116308344D02*
X97825000Y-116355964D01*
X97825000Y-116355964D02*
X97729762Y-116403583D01*
X97729762Y-116403583D02*
X97634524Y-116403583D01*
X97634524Y-116403583D02*
X97539286Y-116355964D01*
X97539286Y-116355964D02*
X97491667Y-116308344D01*
X97491667Y-116308344D02*
X97444048Y-116213106D01*
X97444048Y-116213106D02*
X97396429Y-116022630D01*
X97396429Y-116022630D02*
X97396429Y-115784535D01*
X97396429Y-115784535D02*
X97444048Y-115594059D01*
X97444048Y-115594059D02*
X97491667Y-115498821D01*
X97491667Y-115498821D02*
X97539286Y-115451202D01*
X97539286Y-115451202D02*
X97634524Y-115403583D01*
D12*
X58218603Y-101222606D02*
X57885270Y-100746415D01*
X57647175Y-101222606D02*
X57647175Y-100222606D01*
X57647175Y-100222606D02*
X58028127Y-100222606D01*
X58028127Y-100222606D02*
X58123365Y-100270225D01*
X58123365Y-100270225D02*
X58170984Y-100317844D01*
X58170984Y-100317844D02*
X58218603Y-100413082D01*
X58218603Y-100413082D02*
X58218603Y-100555939D01*
X58218603Y-100555939D02*
X58170984Y-100651177D01*
X58170984Y-100651177D02*
X58123365Y-100698796D01*
X58123365Y-100698796D02*
X58028127Y-100746415D01*
X58028127Y-100746415D02*
X57647175Y-100746415D01*
X59123365Y-100222606D02*
X58647175Y-100222606D01*
X58647175Y-100222606D02*
X58599556Y-100698796D01*
X58599556Y-100698796D02*
X58647175Y-100651177D01*
X58647175Y-100651177D02*
X58742413Y-100603558D01*
X58742413Y-100603558D02*
X58980508Y-100603558D01*
X58980508Y-100603558D02*
X59075746Y-100651177D01*
X59075746Y-100651177D02*
X59123365Y-100698796D01*
X59123365Y-100698796D02*
X59170984Y-100794034D01*
X59170984Y-100794034D02*
X59170984Y-101032129D01*
X59170984Y-101032129D02*
X59123365Y-101127367D01*
X59123365Y-101127367D02*
X59075746Y-101174987D01*
X59075746Y-101174987D02*
X58980508Y-101222606D01*
X58980508Y-101222606D02*
X58742413Y-101222606D01*
X58742413Y-101222606D02*
X58647175Y-101174987D01*
X58647175Y-101174987D02*
X58599556Y-101127367D01*
X70774996Y-26331120D02*
X71489281Y-26331120D01*
X71489281Y-26331120D02*
X71632138Y-26378739D01*
X71632138Y-26378739D02*
X71727377Y-26473977D01*
X71727377Y-26473977D02*
X71774996Y-26616834D01*
X71774996Y-26616834D02*
X71774996Y-26712072D01*
X71108329Y-25426358D02*
X71774996Y-25426358D01*
X70727377Y-25664453D02*
X71441662Y-25902548D01*
X71441662Y-25902548D02*
X71441662Y-25283501D01*
X50718603Y-148705251D02*
X50385270Y-148229060D01*
X50147175Y-148705251D02*
X50147175Y-147705251D01*
X50147175Y-147705251D02*
X50528127Y-147705251D01*
X50528127Y-147705251D02*
X50623365Y-147752870D01*
X50623365Y-147752870D02*
X50670984Y-147800489D01*
X50670984Y-147800489D02*
X50718603Y-147895727D01*
X50718603Y-147895727D02*
X50718603Y-148038584D01*
X50718603Y-148038584D02*
X50670984Y-148133822D01*
X50670984Y-148133822D02*
X50623365Y-148181441D01*
X50623365Y-148181441D02*
X50528127Y-148229060D01*
X50528127Y-148229060D02*
X50147175Y-148229060D01*
X51051937Y-147705251D02*
X51718603Y-147705251D01*
X51718603Y-147705251D02*
X51290032Y-148705251D01*
X63504819Y-110989246D02*
X63028628Y-111322579D01*
X63504819Y-111560674D02*
X62504819Y-111560674D01*
X62504819Y-111560674D02*
X62504819Y-111179722D01*
X62504819Y-111179722D02*
X62552438Y-111084484D01*
X62552438Y-111084484D02*
X62600057Y-111036865D01*
X62600057Y-111036865D02*
X62695295Y-110989246D01*
X62695295Y-110989246D02*
X62838152Y-110989246D01*
X62838152Y-110989246D02*
X62933390Y-111036865D01*
X62933390Y-111036865D02*
X62981009Y-111084484D01*
X62981009Y-111084484D02*
X63028628Y-111179722D01*
X63028628Y-111179722D02*
X63028628Y-111560674D01*
X62504819Y-110703531D02*
X63504819Y-110370198D01*
X63504819Y-110370198D02*
X62504819Y-110036865D01*
X63504819Y-109179722D02*
X63504819Y-109751150D01*
X63504819Y-109465436D02*
X62504819Y-109465436D01*
X62504819Y-109465436D02*
X62647676Y-109560674D01*
X62647676Y-109560674D02*
X62742914Y-109655912D01*
X62742914Y-109655912D02*
X62790533Y-109751150D01*
X63504819Y-108227341D02*
X63504819Y-108798769D01*
X63504819Y-108513055D02*
X62504819Y-108513055D01*
X62504819Y-108513055D02*
X62647676Y-108608293D01*
X62647676Y-108608293D02*
X62742914Y-108703531D01*
X62742914Y-108703531D02*
X62790533Y-108798769D01*
X63218603Y-80722606D02*
X62885270Y-80246415D01*
X62647175Y-80722606D02*
X62647175Y-79722606D01*
X62647175Y-79722606D02*
X63028127Y-79722606D01*
X63028127Y-79722606D02*
X63123365Y-79770225D01*
X63123365Y-79770225D02*
X63170984Y-79817844D01*
X63170984Y-79817844D02*
X63218603Y-79913082D01*
X63218603Y-79913082D02*
X63218603Y-80055939D01*
X63218603Y-80055939D02*
X63170984Y-80151177D01*
X63170984Y-80151177D02*
X63123365Y-80198796D01*
X63123365Y-80198796D02*
X63028127Y-80246415D01*
X63028127Y-80246415D02*
X62647175Y-80246415D01*
X64075746Y-80055939D02*
X64075746Y-80722606D01*
X63837651Y-79674987D02*
X63599556Y-80389272D01*
X63599556Y-80389272D02*
X64218603Y-80389272D01*
X36218603Y-145669819D02*
X35885270Y-145193628D01*
X35647175Y-145669819D02*
X35647175Y-144669819D01*
X35647175Y-144669819D02*
X36028127Y-144669819D01*
X36028127Y-144669819D02*
X36123365Y-144717438D01*
X36123365Y-144717438D02*
X36170984Y-144765057D01*
X36170984Y-144765057D02*
X36218603Y-144860295D01*
X36218603Y-144860295D02*
X36218603Y-145003152D01*
X36218603Y-145003152D02*
X36170984Y-145098390D01*
X36170984Y-145098390D02*
X36123365Y-145146009D01*
X36123365Y-145146009D02*
X36028127Y-145193628D01*
X36028127Y-145193628D02*
X35647175Y-145193628D01*
X36790032Y-145098390D02*
X36694794Y-145050771D01*
X36694794Y-145050771D02*
X36647175Y-145003152D01*
X36647175Y-145003152D02*
X36599556Y-144907914D01*
X36599556Y-144907914D02*
X36599556Y-144860295D01*
X36599556Y-144860295D02*
X36647175Y-144765057D01*
X36647175Y-144765057D02*
X36694794Y-144717438D01*
X36694794Y-144717438D02*
X36790032Y-144669819D01*
X36790032Y-144669819D02*
X36980508Y-144669819D01*
X36980508Y-144669819D02*
X37075746Y-144717438D01*
X37075746Y-144717438D02*
X37123365Y-144765057D01*
X37123365Y-144765057D02*
X37170984Y-144860295D01*
X37170984Y-144860295D02*
X37170984Y-144907914D01*
X37170984Y-144907914D02*
X37123365Y-145003152D01*
X37123365Y-145003152D02*
X37075746Y-145050771D01*
X37075746Y-145050771D02*
X36980508Y-145098390D01*
X36980508Y-145098390D02*
X36790032Y-145098390D01*
X36790032Y-145098390D02*
X36694794Y-145146009D01*
X36694794Y-145146009D02*
X36647175Y-145193628D01*
X36647175Y-145193628D02*
X36599556Y-145288866D01*
X36599556Y-145288866D02*
X36599556Y-145479342D01*
X36599556Y-145479342D02*
X36647175Y-145574580D01*
X36647175Y-145574580D02*
X36694794Y-145622200D01*
X36694794Y-145622200D02*
X36790032Y-145669819D01*
X36790032Y-145669819D02*
X36980508Y-145669819D01*
X36980508Y-145669819D02*
X37075746Y-145622200D01*
X37075746Y-145622200D02*
X37123365Y-145574580D01*
X37123365Y-145574580D02*
X37170984Y-145479342D01*
X37170984Y-145479342D02*
X37170984Y-145288866D01*
X37170984Y-145288866D02*
X37123365Y-145193628D01*
X37123365Y-145193628D02*
X37075746Y-145146009D01*
X37075746Y-145146009D02*
X36980508Y-145098390D01*
X32774996Y-26331120D02*
X33489281Y-26331120D01*
X33489281Y-26331120D02*
X33632138Y-26378739D01*
X33632138Y-26378739D02*
X33727377Y-26473977D01*
X33727377Y-26473977D02*
X33774996Y-26616834D01*
X33774996Y-26616834D02*
X33774996Y-26712072D01*
X32870234Y-25902548D02*
X32822615Y-25854929D01*
X32822615Y-25854929D02*
X32774996Y-25759691D01*
X32774996Y-25759691D02*
X32774996Y-25521596D01*
X32774996Y-25521596D02*
X32822615Y-25426358D01*
X32822615Y-25426358D02*
X32870234Y-25378739D01*
X32870234Y-25378739D02*
X32965472Y-25331120D01*
X32965472Y-25331120D02*
X33060710Y-25331120D01*
X33060710Y-25331120D02*
X33203567Y-25378739D01*
X33203567Y-25378739D02*
X33774996Y-25950167D01*
X33774996Y-25950167D02*
X33774996Y-25331120D01*
X30718603Y-146211488D02*
X30385270Y-145735297D01*
X30147175Y-146211488D02*
X30147175Y-145211488D01*
X30147175Y-145211488D02*
X30528127Y-145211488D01*
X30528127Y-145211488D02*
X30623365Y-145259107D01*
X30623365Y-145259107D02*
X30670984Y-145306726D01*
X30670984Y-145306726D02*
X30718603Y-145401964D01*
X30718603Y-145401964D02*
X30718603Y-145544821D01*
X30718603Y-145544821D02*
X30670984Y-145640059D01*
X30670984Y-145640059D02*
X30623365Y-145687678D01*
X30623365Y-145687678D02*
X30528127Y-145735297D01*
X30528127Y-145735297D02*
X30147175Y-145735297D01*
X31194794Y-146211488D02*
X31385270Y-146211488D01*
X31385270Y-146211488D02*
X31480508Y-146163869D01*
X31480508Y-146163869D02*
X31528127Y-146116249D01*
X31528127Y-146116249D02*
X31623365Y-145973392D01*
X31623365Y-145973392D02*
X31670984Y-145782916D01*
X31670984Y-145782916D02*
X31670984Y-145401964D01*
X31670984Y-145401964D02*
X31623365Y-145306726D01*
X31623365Y-145306726D02*
X31575746Y-145259107D01*
X31575746Y-145259107D02*
X31480508Y-145211488D01*
X31480508Y-145211488D02*
X31290032Y-145211488D01*
X31290032Y-145211488D02*
X31194794Y-145259107D01*
X31194794Y-145259107D02*
X31147175Y-145306726D01*
X31147175Y-145306726D02*
X31099556Y-145401964D01*
X31099556Y-145401964D02*
X31099556Y-145640059D01*
X31099556Y-145640059D02*
X31147175Y-145735297D01*
X31147175Y-145735297D02*
X31194794Y-145782916D01*
X31194794Y-145782916D02*
X31290032Y-145830535D01*
X31290032Y-145830535D02*
X31480508Y-145830535D01*
X31480508Y-145830535D02*
X31575746Y-145782916D01*
X31575746Y-145782916D02*
X31623365Y-145735297D01*
X31623365Y-145735297D02*
X31670984Y-145640059D01*
D10*
X23190476Y-115403583D02*
X23190476Y-116117868D01*
X23190476Y-116117868D02*
X23142857Y-116260725D01*
X23142857Y-116260725D02*
X23047619Y-116355964D01*
X23047619Y-116355964D02*
X22904762Y-116403583D01*
X22904762Y-116403583D02*
X22809524Y-116403583D01*
X23619048Y-115498821D02*
X23666667Y-115451202D01*
X23666667Y-115451202D02*
X23761905Y-115403583D01*
X23761905Y-115403583D02*
X24000000Y-115403583D01*
X24000000Y-115403583D02*
X24095238Y-115451202D01*
X24095238Y-115451202D02*
X24142857Y-115498821D01*
X24142857Y-115498821D02*
X24190476Y-115594059D01*
X24190476Y-115594059D02*
X24190476Y-115689297D01*
X24190476Y-115689297D02*
X24142857Y-115832154D01*
X24142857Y-115832154D02*
X23571429Y-116403583D01*
X23571429Y-116403583D02*
X24190476Y-116403583D01*
X25047619Y-115736916D02*
X25047619Y-116403583D01*
X24809524Y-115355964D02*
X24571429Y-116070249D01*
X24571429Y-116070249D02*
X25190476Y-116070249D01*
X91380476Y-150387481D02*
X91380476Y-151101766D01*
X91380476Y-151101766D02*
X91332857Y-151244623D01*
X91332857Y-151244623D02*
X91237619Y-151339862D01*
X91237619Y-151339862D02*
X91094762Y-151387481D01*
X91094762Y-151387481D02*
X90999524Y-151387481D01*
X92380476Y-151387481D02*
X91809048Y-151387481D01*
X92094762Y-151387481D02*
X92094762Y-150387481D01*
X92094762Y-150387481D02*
X91999524Y-150530338D01*
X91999524Y-150530338D02*
X91904286Y-150625576D01*
X91904286Y-150625576D02*
X91809048Y-150673195D01*
X93332857Y-151387481D02*
X92761429Y-151387481D01*
X93047143Y-151387481D02*
X93047143Y-150387481D01*
X93047143Y-150387481D02*
X92951905Y-150530338D01*
X92951905Y-150530338D02*
X92856667Y-150625576D01*
X92856667Y-150625576D02*
X92761429Y-150673195D01*
D12*
X48473133Y-140110667D02*
X48139800Y-139634476D01*
X47901705Y-140110667D02*
X47901705Y-139110667D01*
X47901705Y-139110667D02*
X48282657Y-139110667D01*
X48282657Y-139110667D02*
X48377895Y-139158286D01*
X48377895Y-139158286D02*
X48425514Y-139205905D01*
X48425514Y-139205905D02*
X48473133Y-139301143D01*
X48473133Y-139301143D02*
X48473133Y-139444000D01*
X48473133Y-139444000D02*
X48425514Y-139539238D01*
X48425514Y-139539238D02*
X48377895Y-139586857D01*
X48377895Y-139586857D02*
X48282657Y-139634476D01*
X48282657Y-139634476D02*
X47901705Y-139634476D01*
X49425514Y-140110667D02*
X48854086Y-140110667D01*
X49139800Y-140110667D02*
X49139800Y-139110667D01*
X49139800Y-139110667D02*
X49044562Y-139253524D01*
X49044562Y-139253524D02*
X48949324Y-139348762D01*
X48949324Y-139348762D02*
X48854086Y-139396381D01*
X50282657Y-139110667D02*
X50092181Y-139110667D01*
X50092181Y-139110667D02*
X49996943Y-139158286D01*
X49996943Y-139158286D02*
X49949324Y-139205905D01*
X49949324Y-139205905D02*
X49854086Y-139348762D01*
X49854086Y-139348762D02*
X49806467Y-139539238D01*
X49806467Y-139539238D02*
X49806467Y-139920190D01*
X49806467Y-139920190D02*
X49854086Y-140015428D01*
X49854086Y-140015428D02*
X49901705Y-140063048D01*
X49901705Y-140063048D02*
X49996943Y-140110667D01*
X49996943Y-140110667D02*
X50187419Y-140110667D01*
X50187419Y-140110667D02*
X50282657Y-140063048D01*
X50282657Y-140063048D02*
X50330276Y-140015428D01*
X50330276Y-140015428D02*
X50377895Y-139920190D01*
X50377895Y-139920190D02*
X50377895Y-139682095D01*
X50377895Y-139682095D02*
X50330276Y-139586857D01*
X50330276Y-139586857D02*
X50282657Y-139539238D01*
X50282657Y-139539238D02*
X50187419Y-139491619D01*
X50187419Y-139491619D02*
X49996943Y-139491619D01*
X49996943Y-139491619D02*
X49901705Y-139539238D01*
X49901705Y-139539238D02*
X49854086Y-139586857D01*
X49854086Y-139586857D02*
X49806467Y-139682095D01*
D10*
X83765476Y-137655933D02*
X83908333Y-137703552D01*
X83908333Y-137703552D02*
X84146428Y-137703552D01*
X84146428Y-137703552D02*
X84241666Y-137655933D01*
X84241666Y-137655933D02*
X84289285Y-137608313D01*
X84289285Y-137608313D02*
X84336904Y-137513075D01*
X84336904Y-137513075D02*
X84336904Y-137417837D01*
X84336904Y-137417837D02*
X84289285Y-137322599D01*
X84289285Y-137322599D02*
X84241666Y-137274980D01*
X84241666Y-137274980D02*
X84146428Y-137227361D01*
X84146428Y-137227361D02*
X83955952Y-137179742D01*
X83955952Y-137179742D02*
X83860714Y-137132123D01*
X83860714Y-137132123D02*
X83813095Y-137084504D01*
X83813095Y-137084504D02*
X83765476Y-136989266D01*
X83765476Y-136989266D02*
X83765476Y-136894028D01*
X83765476Y-136894028D02*
X83813095Y-136798790D01*
X83813095Y-136798790D02*
X83860714Y-136751171D01*
X83860714Y-136751171D02*
X83955952Y-136703552D01*
X83955952Y-136703552D02*
X84194047Y-136703552D01*
X84194047Y-136703552D02*
X84336904Y-136751171D01*
X84670238Y-136703552D02*
X84908333Y-137703552D01*
X84908333Y-137703552D02*
X85098809Y-136989266D01*
X85098809Y-136989266D02*
X85289285Y-137703552D01*
X85289285Y-137703552D02*
X85527381Y-136703552D01*
X86432142Y-137703552D02*
X85860714Y-137703552D01*
X86146428Y-137703552D02*
X86146428Y-136703552D01*
X86146428Y-136703552D02*
X86051190Y-136846409D01*
X86051190Y-136846409D02*
X85955952Y-136941647D01*
X85955952Y-136941647D02*
X85860714Y-136989266D01*
X86765476Y-136703552D02*
X87384523Y-136703552D01*
X87384523Y-136703552D02*
X87051190Y-137084504D01*
X87051190Y-137084504D02*
X87194047Y-137084504D01*
X87194047Y-137084504D02*
X87289285Y-137132123D01*
X87289285Y-137132123D02*
X87336904Y-137179742D01*
X87336904Y-137179742D02*
X87384523Y-137274980D01*
X87384523Y-137274980D02*
X87384523Y-137513075D01*
X87384523Y-137513075D02*
X87336904Y-137608313D01*
X87336904Y-137608313D02*
X87289285Y-137655933D01*
X87289285Y-137655933D02*
X87194047Y-137703552D01*
X87194047Y-137703552D02*
X86908333Y-137703552D01*
X86908333Y-137703552D02*
X86813095Y-137655933D01*
X86813095Y-137655933D02*
X86765476Y-137608313D01*
D12*
X68218603Y-56627367D02*
X68170984Y-56674987D01*
X68170984Y-56674987D02*
X68028127Y-56722606D01*
X68028127Y-56722606D02*
X67932889Y-56722606D01*
X67932889Y-56722606D02*
X67790032Y-56674987D01*
X67790032Y-56674987D02*
X67694794Y-56579748D01*
X67694794Y-56579748D02*
X67647175Y-56484510D01*
X67647175Y-56484510D02*
X67599556Y-56294034D01*
X67599556Y-56294034D02*
X67599556Y-56151177D01*
X67599556Y-56151177D02*
X67647175Y-55960701D01*
X67647175Y-55960701D02*
X67694794Y-55865463D01*
X67694794Y-55865463D02*
X67790032Y-55770225D01*
X67790032Y-55770225D02*
X67932889Y-55722606D01*
X67932889Y-55722606D02*
X68028127Y-55722606D01*
X68028127Y-55722606D02*
X68170984Y-55770225D01*
X68170984Y-55770225D02*
X68218603Y-55817844D01*
X68599556Y-55817844D02*
X68647175Y-55770225D01*
X68647175Y-55770225D02*
X68742413Y-55722606D01*
X68742413Y-55722606D02*
X68980508Y-55722606D01*
X68980508Y-55722606D02*
X69075746Y-55770225D01*
X69075746Y-55770225D02*
X69123365Y-55817844D01*
X69123365Y-55817844D02*
X69170984Y-55913082D01*
X69170984Y-55913082D02*
X69170984Y-56008320D01*
X69170984Y-56008320D02*
X69123365Y-56151177D01*
X69123365Y-56151177D02*
X68551937Y-56722606D01*
X68551937Y-56722606D02*
X69170984Y-56722606D01*
X44004819Y-48088025D02*
X43528628Y-48421358D01*
X44004819Y-48659453D02*
X43004819Y-48659453D01*
X43004819Y-48659453D02*
X43004819Y-48278501D01*
X43004819Y-48278501D02*
X43052438Y-48183263D01*
X43052438Y-48183263D02*
X43100057Y-48135644D01*
X43100057Y-48135644D02*
X43195295Y-48088025D01*
X43195295Y-48088025D02*
X43338152Y-48088025D01*
X43338152Y-48088025D02*
X43433390Y-48135644D01*
X43433390Y-48135644D02*
X43481009Y-48183263D01*
X43481009Y-48183263D02*
X43528628Y-48278501D01*
X43528628Y-48278501D02*
X43528628Y-48659453D01*
X43004819Y-47802310D02*
X44004819Y-47468977D01*
X44004819Y-47468977D02*
X43004819Y-47135644D01*
X44004819Y-46278501D02*
X44004819Y-46849929D01*
X44004819Y-46564215D02*
X43004819Y-46564215D01*
X43004819Y-46564215D02*
X43147676Y-46659453D01*
X43147676Y-46659453D02*
X43242914Y-46754691D01*
X43242914Y-46754691D02*
X43290533Y-46849929D01*
X58158333Y-59708590D02*
X57825000Y-59232399D01*
X57586905Y-59708590D02*
X57586905Y-58708590D01*
X57586905Y-58708590D02*
X57967857Y-58708590D01*
X57967857Y-58708590D02*
X58063095Y-58756209D01*
X58063095Y-58756209D02*
X58110714Y-58803828D01*
X58110714Y-58803828D02*
X58158333Y-58899066D01*
X58158333Y-58899066D02*
X58158333Y-59041923D01*
X58158333Y-59041923D02*
X58110714Y-59137161D01*
X58110714Y-59137161D02*
X58063095Y-59184780D01*
X58063095Y-59184780D02*
X57967857Y-59232399D01*
X57967857Y-59232399D02*
X57586905Y-59232399D01*
X59110714Y-59708590D02*
X58539286Y-59708590D01*
X58825000Y-59708590D02*
X58825000Y-58708590D01*
X58825000Y-58708590D02*
X58729762Y-58851447D01*
X58729762Y-58851447D02*
X58634524Y-58946685D01*
X58634524Y-58946685D02*
X58539286Y-58994304D01*
X63504819Y-131789215D02*
X63028628Y-132122548D01*
X63504819Y-132360643D02*
X62504819Y-132360643D01*
X62504819Y-132360643D02*
X62504819Y-131979691D01*
X62504819Y-131979691D02*
X62552438Y-131884453D01*
X62552438Y-131884453D02*
X62600057Y-131836834D01*
X62600057Y-131836834D02*
X62695295Y-131789215D01*
X62695295Y-131789215D02*
X62838152Y-131789215D01*
X62838152Y-131789215D02*
X62933390Y-131836834D01*
X62933390Y-131836834D02*
X62981009Y-131884453D01*
X62981009Y-131884453D02*
X63028628Y-131979691D01*
X63028628Y-131979691D02*
X63028628Y-132360643D01*
X62504819Y-131503500D02*
X63504819Y-131170167D01*
X63504819Y-131170167D02*
X62504819Y-130836834D01*
X63504819Y-129979691D02*
X63504819Y-130551119D01*
X63504819Y-130265405D02*
X62504819Y-130265405D01*
X62504819Y-130265405D02*
X62647676Y-130360643D01*
X62647676Y-130360643D02*
X62742914Y-130455881D01*
X62742914Y-130455881D02*
X62790533Y-130551119D01*
X62600057Y-129598738D02*
X62552438Y-129551119D01*
X62552438Y-129551119D02*
X62504819Y-129455881D01*
X62504819Y-129455881D02*
X62504819Y-129217786D01*
X62504819Y-129217786D02*
X62552438Y-129122548D01*
X62552438Y-129122548D02*
X62600057Y-129074929D01*
X62600057Y-129074929D02*
X62695295Y-129027310D01*
X62695295Y-129027310D02*
X62790533Y-129027310D01*
X62790533Y-129027310D02*
X62933390Y-129074929D01*
X62933390Y-129074929D02*
X63504819Y-129646357D01*
X63504819Y-129646357D02*
X63504819Y-129027310D01*
X63504819Y-48088025D02*
X63028628Y-48421358D01*
X63504819Y-48659453D02*
X62504819Y-48659453D01*
X62504819Y-48659453D02*
X62504819Y-48278501D01*
X62504819Y-48278501D02*
X62552438Y-48183263D01*
X62552438Y-48183263D02*
X62600057Y-48135644D01*
X62600057Y-48135644D02*
X62695295Y-48088025D01*
X62695295Y-48088025D02*
X62838152Y-48088025D01*
X62838152Y-48088025D02*
X62933390Y-48135644D01*
X62933390Y-48135644D02*
X62981009Y-48183263D01*
X62981009Y-48183263D02*
X63028628Y-48278501D01*
X63028628Y-48278501D02*
X63028628Y-48659453D01*
X62504819Y-47802310D02*
X63504819Y-47468977D01*
X63504819Y-47468977D02*
X62504819Y-47135644D01*
X62600057Y-46849929D02*
X62552438Y-46802310D01*
X62552438Y-46802310D02*
X62504819Y-46707072D01*
X62504819Y-46707072D02*
X62504819Y-46468977D01*
X62504819Y-46468977D02*
X62552438Y-46373739D01*
X62552438Y-46373739D02*
X62600057Y-46326120D01*
X62600057Y-46326120D02*
X62695295Y-46278501D01*
X62695295Y-46278501D02*
X62790533Y-46278501D01*
X62790533Y-46278501D02*
X62933390Y-46326120D01*
X62933390Y-46326120D02*
X63504819Y-46897548D01*
X63504819Y-46897548D02*
X63504819Y-46278501D01*
X90242412Y-146169819D02*
X89909079Y-145693628D01*
X89670984Y-146169819D02*
X89670984Y-145169819D01*
X89670984Y-145169819D02*
X90051936Y-145169819D01*
X90051936Y-145169819D02*
X90147174Y-145217438D01*
X90147174Y-145217438D02*
X90194793Y-145265057D01*
X90194793Y-145265057D02*
X90242412Y-145360295D01*
X90242412Y-145360295D02*
X90242412Y-145503152D01*
X90242412Y-145503152D02*
X90194793Y-145598390D01*
X90194793Y-145598390D02*
X90147174Y-145646009D01*
X90147174Y-145646009D02*
X90051936Y-145693628D01*
X90051936Y-145693628D02*
X89670984Y-145693628D01*
X91194793Y-146169819D02*
X90623365Y-146169819D01*
X90909079Y-146169819D02*
X90909079Y-145169819D01*
X90909079Y-145169819D02*
X90813841Y-145312676D01*
X90813841Y-145312676D02*
X90718603Y-145407914D01*
X90718603Y-145407914D02*
X90623365Y-145455533D01*
X91528127Y-145169819D02*
X92147174Y-145169819D01*
X92147174Y-145169819D02*
X91813841Y-145550771D01*
X91813841Y-145550771D02*
X91956698Y-145550771D01*
X91956698Y-145550771D02*
X92051936Y-145598390D01*
X92051936Y-145598390D02*
X92099555Y-145646009D01*
X92099555Y-145646009D02*
X92147174Y-145741247D01*
X92147174Y-145741247D02*
X92147174Y-145979342D01*
X92147174Y-145979342D02*
X92099555Y-146074580D01*
X92099555Y-146074580D02*
X92051936Y-146122200D01*
X92051936Y-146122200D02*
X91956698Y-146169819D01*
X91956698Y-146169819D02*
X91670984Y-146169819D01*
X91670984Y-146169819D02*
X91575746Y-146122200D01*
X91575746Y-146122200D02*
X91528127Y-146074580D01*
X63504819Y-158360238D02*
X63028628Y-158693571D01*
X63504819Y-158931666D02*
X62504819Y-158931666D01*
X62504819Y-158931666D02*
X62504819Y-158550714D01*
X62504819Y-158550714D02*
X62552438Y-158455476D01*
X62552438Y-158455476D02*
X62600057Y-158407857D01*
X62600057Y-158407857D02*
X62695295Y-158360238D01*
X62695295Y-158360238D02*
X62838152Y-158360238D01*
X62838152Y-158360238D02*
X62933390Y-158407857D01*
X62933390Y-158407857D02*
X62981009Y-158455476D01*
X62981009Y-158455476D02*
X63028628Y-158550714D01*
X63028628Y-158550714D02*
X63028628Y-158931666D01*
X62504819Y-158074523D02*
X63504819Y-157741190D01*
X63504819Y-157741190D02*
X62504819Y-157407857D01*
X62933390Y-156931666D02*
X62885771Y-157026904D01*
X62885771Y-157026904D02*
X62838152Y-157074523D01*
X62838152Y-157074523D02*
X62742914Y-157122142D01*
X62742914Y-157122142D02*
X62695295Y-157122142D01*
X62695295Y-157122142D02*
X62600057Y-157074523D01*
X62600057Y-157074523D02*
X62552438Y-157026904D01*
X62552438Y-157026904D02*
X62504819Y-156931666D01*
X62504819Y-156931666D02*
X62504819Y-156741190D01*
X62504819Y-156741190D02*
X62552438Y-156645952D01*
X62552438Y-156645952D02*
X62600057Y-156598333D01*
X62600057Y-156598333D02*
X62695295Y-156550714D01*
X62695295Y-156550714D02*
X62742914Y-156550714D01*
X62742914Y-156550714D02*
X62838152Y-156598333D01*
X62838152Y-156598333D02*
X62885771Y-156645952D01*
X62885771Y-156645952D02*
X62933390Y-156741190D01*
X62933390Y-156741190D02*
X62933390Y-156931666D01*
X62933390Y-156931666D02*
X62981009Y-157026904D01*
X62981009Y-157026904D02*
X63028628Y-157074523D01*
X63028628Y-157074523D02*
X63123866Y-157122142D01*
X63123866Y-157122142D02*
X63314342Y-157122142D01*
X63314342Y-157122142D02*
X63409580Y-157074523D01*
X63409580Y-157074523D02*
X63457200Y-157026904D01*
X63457200Y-157026904D02*
X63504819Y-156931666D01*
X63504819Y-156931666D02*
X63504819Y-156741190D01*
X63504819Y-156741190D02*
X63457200Y-156645952D01*
X63457200Y-156645952D02*
X63409580Y-156598333D01*
X63409580Y-156598333D02*
X63314342Y-156550714D01*
X63314342Y-156550714D02*
X63123866Y-156550714D01*
X63123866Y-156550714D02*
X63028628Y-156598333D01*
X63028628Y-156598333D02*
X62981009Y-156645952D01*
X62981009Y-156645952D02*
X62933390Y-156741190D01*
X63504819Y-68900525D02*
X63028628Y-69233858D01*
X63504819Y-69471953D02*
X62504819Y-69471953D01*
X62504819Y-69471953D02*
X62504819Y-69091001D01*
X62504819Y-69091001D02*
X62552438Y-68995763D01*
X62552438Y-68995763D02*
X62600057Y-68948144D01*
X62600057Y-68948144D02*
X62695295Y-68900525D01*
X62695295Y-68900525D02*
X62838152Y-68900525D01*
X62838152Y-68900525D02*
X62933390Y-68948144D01*
X62933390Y-68948144D02*
X62981009Y-68995763D01*
X62981009Y-68995763D02*
X63028628Y-69091001D01*
X63028628Y-69091001D02*
X63028628Y-69471953D01*
X62504819Y-68614810D02*
X63504819Y-68281477D01*
X63504819Y-68281477D02*
X62504819Y-67948144D01*
X62504819Y-67186239D02*
X62504819Y-67376715D01*
X62504819Y-67376715D02*
X62552438Y-67471953D01*
X62552438Y-67471953D02*
X62600057Y-67519572D01*
X62600057Y-67519572D02*
X62742914Y-67614810D01*
X62742914Y-67614810D02*
X62933390Y-67662429D01*
X62933390Y-67662429D02*
X63314342Y-67662429D01*
X63314342Y-67662429D02*
X63409580Y-67614810D01*
X63409580Y-67614810D02*
X63457200Y-67567191D01*
X63457200Y-67567191D02*
X63504819Y-67471953D01*
X63504819Y-67471953D02*
X63504819Y-67281477D01*
X63504819Y-67281477D02*
X63457200Y-67186239D01*
X63457200Y-67186239D02*
X63409580Y-67138620D01*
X63409580Y-67138620D02*
X63314342Y-67091001D01*
X63314342Y-67091001D02*
X63076247Y-67091001D01*
X63076247Y-67091001D02*
X62981009Y-67138620D01*
X62981009Y-67138620D02*
X62933390Y-67186239D01*
X62933390Y-67186239D02*
X62885771Y-67281477D01*
X62885771Y-67281477D02*
X62885771Y-67471953D01*
X62885771Y-67471953D02*
X62933390Y-67567191D01*
X62933390Y-67567191D02*
X62981009Y-67614810D01*
X62981009Y-67614810D02*
X63076247Y-67662429D01*
X53218603Y-119127367D02*
X53170984Y-119174987D01*
X53170984Y-119174987D02*
X53028127Y-119222606D01*
X53028127Y-119222606D02*
X52932889Y-119222606D01*
X52932889Y-119222606D02*
X52790032Y-119174987D01*
X52790032Y-119174987D02*
X52694794Y-119079748D01*
X52694794Y-119079748D02*
X52647175Y-118984510D01*
X52647175Y-118984510D02*
X52599556Y-118794034D01*
X52599556Y-118794034D02*
X52599556Y-118651177D01*
X52599556Y-118651177D02*
X52647175Y-118460701D01*
X52647175Y-118460701D02*
X52694794Y-118365463D01*
X52694794Y-118365463D02*
X52790032Y-118270225D01*
X52790032Y-118270225D02*
X52932889Y-118222606D01*
X52932889Y-118222606D02*
X53028127Y-118222606D01*
X53028127Y-118222606D02*
X53170984Y-118270225D01*
X53170984Y-118270225D02*
X53218603Y-118317844D01*
X53694794Y-119222606D02*
X53885270Y-119222606D01*
X53885270Y-119222606D02*
X53980508Y-119174987D01*
X53980508Y-119174987D02*
X54028127Y-119127367D01*
X54028127Y-119127367D02*
X54123365Y-118984510D01*
X54123365Y-118984510D02*
X54170984Y-118794034D01*
X54170984Y-118794034D02*
X54170984Y-118413082D01*
X54170984Y-118413082D02*
X54123365Y-118317844D01*
X54123365Y-118317844D02*
X54075746Y-118270225D01*
X54075746Y-118270225D02*
X53980508Y-118222606D01*
X53980508Y-118222606D02*
X53790032Y-118222606D01*
X53790032Y-118222606D02*
X53694794Y-118270225D01*
X53694794Y-118270225D02*
X53647175Y-118317844D01*
X53647175Y-118317844D02*
X53599556Y-118413082D01*
X53599556Y-118413082D02*
X53599556Y-118651177D01*
X53599556Y-118651177D02*
X53647175Y-118746415D01*
X53647175Y-118746415D02*
X53694794Y-118794034D01*
X53694794Y-118794034D02*
X53790032Y-118841653D01*
X53790032Y-118841653D02*
X53980508Y-118841653D01*
X53980508Y-118841653D02*
X54075746Y-118794034D01*
X54075746Y-118794034D02*
X54123365Y-118746415D01*
X54123365Y-118746415D02*
X54170984Y-118651177D01*
X71840089Y-145797571D02*
X71363898Y-146130904D01*
X71840089Y-146368999D02*
X70840089Y-146368999D01*
X70840089Y-146368999D02*
X70840089Y-145988047D01*
X70840089Y-145988047D02*
X70887708Y-145892809D01*
X70887708Y-145892809D02*
X70935327Y-145845190D01*
X70935327Y-145845190D02*
X71030565Y-145797571D01*
X71030565Y-145797571D02*
X71173422Y-145797571D01*
X71173422Y-145797571D02*
X71268660Y-145845190D01*
X71268660Y-145845190D02*
X71316279Y-145892809D01*
X71316279Y-145892809D02*
X71363898Y-145988047D01*
X71363898Y-145988047D02*
X71363898Y-146368999D01*
X71840089Y-144845190D02*
X71840089Y-145416618D01*
X71840089Y-145130904D02*
X70840089Y-145130904D01*
X70840089Y-145130904D02*
X70982946Y-145226142D01*
X70982946Y-145226142D02*
X71078184Y-145321380D01*
X71078184Y-145321380D02*
X71125803Y-145416618D01*
X70840089Y-144226142D02*
X70840089Y-144130904D01*
X70840089Y-144130904D02*
X70887708Y-144035666D01*
X70887708Y-144035666D02*
X70935327Y-143988047D01*
X70935327Y-143988047D02*
X71030565Y-143940428D01*
X71030565Y-143940428D02*
X71221041Y-143892809D01*
X71221041Y-143892809D02*
X71459136Y-143892809D01*
X71459136Y-143892809D02*
X71649612Y-143940428D01*
X71649612Y-143940428D02*
X71744850Y-143988047D01*
X71744850Y-143988047D02*
X71792470Y-144035666D01*
X71792470Y-144035666D02*
X71840089Y-144130904D01*
X71840089Y-144130904D02*
X71840089Y-144226142D01*
X71840089Y-144226142D02*
X71792470Y-144321380D01*
X71792470Y-144321380D02*
X71744850Y-144368999D01*
X71744850Y-144368999D02*
X71649612Y-144416618D01*
X71649612Y-144416618D02*
X71459136Y-144464237D01*
X71459136Y-144464237D02*
X71221041Y-144464237D01*
X71221041Y-144464237D02*
X71030565Y-144416618D01*
X71030565Y-144416618D02*
X70935327Y-144368999D01*
X70935327Y-144368999D02*
X70887708Y-144321380D01*
X70887708Y-144321380D02*
X70840089Y-144226142D01*
D10*
X96004897Y-136203552D02*
X96004897Y-136917837D01*
X96004897Y-136917837D02*
X95957278Y-137060694D01*
X95957278Y-137060694D02*
X95862040Y-137155933D01*
X95862040Y-137155933D02*
X95719183Y-137203552D01*
X95719183Y-137203552D02*
X95623945Y-137203552D01*
X96385850Y-136203552D02*
X97004897Y-136203552D01*
X97004897Y-136203552D02*
X96671564Y-136584504D01*
X96671564Y-136584504D02*
X96814421Y-136584504D01*
X96814421Y-136584504D02*
X96909659Y-136632123D01*
X96909659Y-136632123D02*
X96957278Y-136679742D01*
X96957278Y-136679742D02*
X97004897Y-136774980D01*
X97004897Y-136774980D02*
X97004897Y-137013075D01*
X97004897Y-137013075D02*
X96957278Y-137108313D01*
X96957278Y-137108313D02*
X96909659Y-137155933D01*
X96909659Y-137155933D02*
X96814421Y-137203552D01*
X96814421Y-137203552D02*
X96528707Y-137203552D01*
X96528707Y-137203552D02*
X96433469Y-137155933D01*
X96433469Y-137155933D02*
X96385850Y-137108313D01*
X97957278Y-137203552D02*
X97385850Y-137203552D01*
X97671564Y-137203552D02*
X97671564Y-136203552D01*
X97671564Y-136203552D02*
X97576326Y-136346409D01*
X97576326Y-136346409D02*
X97481088Y-136441647D01*
X97481088Y-136441647D02*
X97385850Y-136489266D01*
D12*
X63218603Y-59722606D02*
X62885270Y-59246415D01*
X62647175Y-59722606D02*
X62647175Y-58722606D01*
X62647175Y-58722606D02*
X63028127Y-58722606D01*
X63028127Y-58722606D02*
X63123365Y-58770225D01*
X63123365Y-58770225D02*
X63170984Y-58817844D01*
X63170984Y-58817844D02*
X63218603Y-58913082D01*
X63218603Y-58913082D02*
X63218603Y-59055939D01*
X63218603Y-59055939D02*
X63170984Y-59151177D01*
X63170984Y-59151177D02*
X63123365Y-59198796D01*
X63123365Y-59198796D02*
X63028127Y-59246415D01*
X63028127Y-59246415D02*
X62647175Y-59246415D01*
X63599556Y-58817844D02*
X63647175Y-58770225D01*
X63647175Y-58770225D02*
X63742413Y-58722606D01*
X63742413Y-58722606D02*
X63980508Y-58722606D01*
X63980508Y-58722606D02*
X64075746Y-58770225D01*
X64075746Y-58770225D02*
X64123365Y-58817844D01*
X64123365Y-58817844D02*
X64170984Y-58913082D01*
X64170984Y-58913082D02*
X64170984Y-59008320D01*
X64170984Y-59008320D02*
X64123365Y-59151177D01*
X64123365Y-59151177D02*
X63551937Y-59722606D01*
X63551937Y-59722606D02*
X64170984Y-59722606D01*
X44004819Y-68900525D02*
X43528628Y-69233858D01*
X44004819Y-69471953D02*
X43004819Y-69471953D01*
X43004819Y-69471953D02*
X43004819Y-69091001D01*
X43004819Y-69091001D02*
X43052438Y-68995763D01*
X43052438Y-68995763D02*
X43100057Y-68948144D01*
X43100057Y-68948144D02*
X43195295Y-68900525D01*
X43195295Y-68900525D02*
X43338152Y-68900525D01*
X43338152Y-68900525D02*
X43433390Y-68948144D01*
X43433390Y-68948144D02*
X43481009Y-68995763D01*
X43481009Y-68995763D02*
X43528628Y-69091001D01*
X43528628Y-69091001D02*
X43528628Y-69471953D01*
X43004819Y-68614810D02*
X44004819Y-68281477D01*
X44004819Y-68281477D02*
X43004819Y-67948144D01*
X43338152Y-67186239D02*
X44004819Y-67186239D01*
X42957200Y-67424334D02*
X43671485Y-67662429D01*
X43671485Y-67662429D02*
X43671485Y-67043382D01*
%TO.C,J3*%
D13*
X53530177Y-21453287D02*
X69030177Y-21453287D01*
X53530177Y-30573287D02*
X53530177Y-21453287D01*
X54830177Y-22763287D02*
X67730177Y-22763287D01*
X54830177Y-29263287D02*
X54830177Y-22763287D01*
X58240177Y-31963287D02*
X59240177Y-31963287D01*
X58740177Y-30963287D02*
X58240177Y-31963287D01*
X59230177Y-29263287D02*
X54830177Y-29263287D01*
X59230177Y-30573287D02*
X59230177Y-29263287D01*
X59240177Y-31963287D02*
X58740177Y-30963287D01*
X63330177Y-29263287D02*
X63330177Y-30573287D01*
X67730177Y-22763287D02*
X67730177Y-29263287D01*
X67730177Y-29263287D02*
X63330177Y-29263287D01*
X69030177Y-21453287D02*
X69030177Y-30573287D01*
X69030177Y-30573287D02*
X53530177Y-30573287D01*
%TO.C,R12*%
X66583302Y-100882734D02*
X67353302Y-100882734D01*
X74663302Y-100882734D02*
X73893302Y-100882734D01*
X67353302Y-99512734D02*
X73893302Y-99512734D01*
X73893302Y-102252734D01*
X67353302Y-102252734D01*
X67353302Y-99512734D01*
%TO.C,C5*%
X59905000Y-137260000D02*
X59905000Y-132720000D01*
X59961000Y-137260000D02*
X59905000Y-137260000D01*
X61989000Y-132720000D02*
X62045000Y-132720000D01*
X62045000Y-132720000D02*
X62045000Y-137260000D01*
%TO.C,R11*%
X74522283Y-148214999D02*
X75292283Y-148214999D01*
X82602283Y-148214999D02*
X81832283Y-148214999D01*
X75292283Y-146844999D02*
X81832283Y-146844999D01*
X81832283Y-149584999D01*
X75292283Y-149584999D01*
X75292283Y-146844999D01*
%TO.C,SW9*%
D10*
X66700000Y-170715000D02*
X74700000Y-170715000D01*
X74700000Y-183715000D01*
X66700000Y-183715000D01*
X66700000Y-170715000D01*
%TO.C,C3*%
D13*
X46430000Y-76047787D02*
X50970000Y-76047787D01*
X46430000Y-76103787D02*
X46430000Y-76047787D01*
X50970000Y-78131787D02*
X50970000Y-78187787D01*
X50970000Y-78187787D02*
X46430000Y-78187787D01*
%TO.C,C6*%
X46429672Y-96671770D02*
X50969672Y-96671770D01*
X46429672Y-96727770D02*
X46429672Y-96671770D01*
X50969672Y-98755770D02*
X50969672Y-98811770D01*
X50969672Y-98811770D02*
X46429672Y-98811770D01*
%TO.C,C11*%
X70946821Y-117530778D02*
X75486821Y-117530778D01*
X70946821Y-117586778D02*
X70946821Y-117530778D01*
X75486821Y-119614778D02*
X75486821Y-119670778D01*
X75486821Y-119670778D02*
X70946821Y-119670778D01*
%TO.C,SW10*%
D10*
X32375000Y-101946164D02*
X40375000Y-101946164D01*
X40375000Y-114946164D01*
X32375000Y-114946164D01*
X32375000Y-101946164D01*
%TO.C,SW12*%
X81575000Y-101946164D02*
X89575000Y-101946164D01*
X89575000Y-114946164D01*
X81575000Y-114946164D01*
X81575000Y-101946164D01*
%TO.C,RV10*%
D13*
X46179000Y-123647787D02*
X56220000Y-123647787D01*
X46179000Y-127583787D02*
X46179000Y-123647787D01*
X46179000Y-135887787D02*
X46179000Y-131950787D01*
X46179000Y-135887787D02*
X47500000Y-135887787D01*
X49950000Y-135887787D02*
X50330000Y-135887787D01*
X52071000Y-135887787D02*
X52830000Y-135887787D01*
X54570000Y-135887787D02*
X56220000Y-135887787D01*
X56220000Y-127583787D02*
X56220000Y-123647787D01*
X56220000Y-135887787D02*
X56220000Y-131950787D01*
%TO.C,C1*%
X46430000Y-55072787D02*
X50970000Y-55072787D01*
X46430000Y-55128787D02*
X46430000Y-55072787D01*
X50970000Y-57156787D02*
X50970000Y-57212787D01*
X50970000Y-57212787D02*
X46430000Y-57212787D01*
%TO.C,R18*%
X74496823Y-141966069D02*
X75266823Y-141966069D01*
X82576823Y-141966069D02*
X81806823Y-141966069D01*
X75266823Y-140596069D02*
X81806823Y-140596069D01*
X81806823Y-143336069D01*
X75266823Y-143336069D01*
X75266823Y-140596069D01*
%TO.C,C10*%
X31479702Y-141056567D02*
X36019702Y-141056567D01*
X31479702Y-141112567D02*
X31479702Y-141056567D01*
X36019702Y-143140567D02*
X36019702Y-143196567D01*
X36019702Y-143196567D02*
X31479702Y-143196567D01*
%TO.C,SW7*%
D10*
X32375000Y-149840000D02*
X40375000Y-149840000D01*
X40375000Y-162840000D01*
X32375000Y-162840000D01*
X32375000Y-149840000D01*
%TO.C,J6*%
X30625000Y-66817818D02*
G75*
G02*
X18625000Y-66817818I-6000000J0D01*
G01*
X18625000Y-66817818D02*
G75*
G02*
X30625000Y-66817818I6000000J0D01*
G01*
%TO.C,J8*%
X30500000Y-87617787D02*
G75*
G02*
X18500000Y-87617787I-6000000J0D01*
G01*
X18500000Y-87617787D02*
G75*
G02*
X30500000Y-87617787I6000000J0D01*
G01*
%TO.C,J13*%
D13*
X54755000Y-172470000D02*
X56135000Y-172470000D01*
X54755000Y-173850000D02*
X54755000Y-172470000D01*
X54755000Y-175120000D02*
X54755000Y-182850000D01*
X54755000Y-175120000D02*
X57515000Y-175120000D01*
X54755000Y-182850000D02*
X57515000Y-182850000D01*
X57515000Y-175120000D02*
X57515000Y-182850000D01*
%TO.C,J1*%
D10*
X30625000Y-46017849D02*
G75*
G02*
X18625000Y-46017849I-6000000J0D01*
G01*
X18625000Y-46017849D02*
G75*
G02*
X30625000Y-46017849I6000000J0D01*
G01*
%TO.C,C8*%
D13*
X59930000Y-155235000D02*
X59930000Y-150695000D01*
X59986000Y-155235000D02*
X59930000Y-155235000D01*
X62014000Y-150695000D02*
X62070000Y-150695000D01*
X62070000Y-150695000D02*
X62070000Y-155235000D01*
%TO.C,RV9*%
X46179000Y-102847818D02*
X56220000Y-102847818D01*
X46179000Y-106783818D02*
X46179000Y-102847818D01*
X46179000Y-115087818D02*
X46179000Y-111150818D01*
X46179000Y-115087818D02*
X47500000Y-115087818D01*
X49950000Y-115087818D02*
X50330000Y-115087818D01*
X52071000Y-115087818D02*
X52830000Y-115087818D01*
X54570000Y-115087818D02*
X56220000Y-115087818D01*
X56220000Y-106783818D02*
X56220000Y-102847818D01*
X56220000Y-115087818D02*
X56220000Y-111150818D01*
%TO.C,C12*%
X86132985Y-140912734D02*
X90672985Y-140912734D01*
X86132985Y-140968734D02*
X86132985Y-140912734D01*
X90672985Y-142996734D02*
X90672985Y-143052734D01*
X90672985Y-143052734D02*
X86132985Y-143052734D01*
%TO.C,R3*%
X46960000Y-80117787D02*
X47730000Y-80117787D01*
X55040000Y-80117787D02*
X54270000Y-80117787D01*
X47730000Y-78747787D02*
X54270000Y-78747787D01*
X54270000Y-81487787D01*
X47730000Y-81487787D01*
X47730000Y-78747787D01*
%TO.C,R14*%
X64500000Y-173595000D02*
X64500000Y-174365000D01*
X64500000Y-181675000D02*
X64500000Y-180905000D01*
X63130000Y-174365000D02*
X65870000Y-174365000D01*
X65870000Y-180905000D01*
X63130000Y-180905000D01*
X63130000Y-174365000D01*
%TO.C,RV5*%
X65679000Y-82047787D02*
X75720000Y-82047787D01*
X65679000Y-85983787D02*
X65679000Y-82047787D01*
X65679000Y-94287787D02*
X65679000Y-90350787D01*
X65679000Y-94287787D02*
X67000000Y-94287787D01*
X69450000Y-94287787D02*
X69830000Y-94287787D01*
X71571000Y-94287787D02*
X72330000Y-94287787D01*
X74070000Y-94287787D02*
X75720000Y-94287787D01*
X75720000Y-85983787D02*
X75720000Y-82047787D01*
X75720000Y-94287787D02*
X75720000Y-90350787D01*
%TO.C,SW11*%
D10*
X32375000Y-122746133D02*
X40375000Y-122746133D01*
X40375000Y-135746133D01*
X32375000Y-135746133D01*
X32375000Y-122746133D01*
%TO.C,SW4*%
X81575000Y-60355287D02*
X89575000Y-60355287D01*
X89575000Y-73355287D01*
X81575000Y-73355287D01*
X81575000Y-60355287D01*
%TO.C,U1*%
D13*
X52005000Y-141350000D02*
X52005000Y-143000000D01*
X52005000Y-145000000D02*
X52005000Y-146650000D01*
X52005000Y-146650000D02*
X69905000Y-146650000D01*
X69905000Y-141350000D02*
X52005000Y-141350000D01*
X69905000Y-146650000D02*
X69905000Y-141350000D01*
X51945000Y-138860000D02*
X69965000Y-138860000D01*
X69965000Y-149140000D01*
X51945000Y-149140000D01*
X51945000Y-138860000D01*
X52005000Y-143000000D02*
G75*
G02*
X52005000Y-145000000I0J-1000000D01*
G01*
%TO.C,J25*%
D10*
X30500000Y-129246133D02*
G75*
G02*
X18500000Y-129246133I-6000000J0D01*
G01*
X18500000Y-129246133D02*
G75*
G02*
X30500000Y-129246133I6000000J0D01*
G01*
%TO.C,J10*%
X30500000Y-156340000D02*
G75*
G02*
X18500000Y-156340000I-6000000J0D01*
G01*
X18500000Y-156340000D02*
G75*
G02*
X30500000Y-156340000I6000000J0D01*
G01*
%TO.C,RV3*%
D13*
X46179000Y-82047787D02*
X56220000Y-82047787D01*
X46179000Y-85983787D02*
X46179000Y-82047787D01*
X46179000Y-94287787D02*
X46179000Y-90350787D01*
X46179000Y-94287787D02*
X47500000Y-94287787D01*
X49950000Y-94287787D02*
X50330000Y-94287787D01*
X52071000Y-94287787D02*
X52830000Y-94287787D01*
X54570000Y-94287787D02*
X56220000Y-94287787D01*
X56220000Y-85983787D02*
X56220000Y-82047787D01*
X56220000Y-94287787D02*
X56220000Y-90350787D01*
%TO.C,SW8*%
D10*
X81575000Y-149840000D02*
X89575000Y-149840000D01*
X89575000Y-162840000D01*
X81575000Y-162840000D01*
X81575000Y-149840000D01*
%TO.C,J9*%
X103325000Y-87617787D02*
G75*
G02*
X91325000Y-87617787I-6000000J0D01*
G01*
X91325000Y-87617787D02*
G75*
G02*
X103325000Y-87617787I6000000J0D01*
G01*
%TO.C,R17*%
D13*
X66577727Y-121529384D02*
X67347727Y-121529384D01*
X74657727Y-121529384D02*
X73887727Y-121529384D01*
X67347727Y-120159384D02*
X73887727Y-120159384D01*
X73887727Y-122899384D01*
X67347727Y-122899384D01*
X67347727Y-120159384D01*
%TO.C,J12*%
X41970000Y-166885000D02*
X41970000Y-169545000D01*
X77590000Y-166885000D02*
X41970000Y-166885000D01*
X77590000Y-166885000D02*
X77590000Y-169545000D01*
X77590000Y-169545000D02*
X41970000Y-169545000D01*
X80190000Y-168215000D02*
X80190000Y-169545000D01*
X80190000Y-169545000D02*
X78860000Y-169545000D01*
%TO.C,SW3*%
D10*
X32375000Y-60355287D02*
X40375000Y-60355287D01*
X40375000Y-73355287D01*
X32375000Y-73355287D01*
X32375000Y-60355287D01*
%TO.C,SW2*%
X81575000Y-39592787D02*
X89575000Y-39592787D01*
X89575000Y-52592787D01*
X81575000Y-52592787D01*
X81575000Y-39592787D01*
%TO.C,J7*%
X103325000Y-66817818D02*
G75*
G02*
X91325000Y-66817818I-6000000J0D01*
G01*
X91325000Y-66817818D02*
G75*
G02*
X103325000Y-66817818I6000000J0D01*
G01*
D14*
%TO.C,G\u002A\u002A\u002A*%
G36*
X84830805Y-171931464D02*
G01*
X84991653Y-172105912D01*
X85036929Y-172202207D01*
X84971977Y-172200986D01*
X84802140Y-172082883D01*
X84791480Y-172073974D01*
X84540627Y-171862895D01*
X83762994Y-172031461D01*
X83292184Y-172135589D01*
X82976520Y-172213892D01*
X82805194Y-172274206D01*
X82767398Y-172324371D01*
X82852324Y-172372223D01*
X83049166Y-172425601D01*
X83178738Y-172455153D01*
X83499579Y-172518246D01*
X83711708Y-172532866D01*
X83868417Y-172499818D01*
X83940738Y-172466667D01*
X84293940Y-172358536D01*
X84615617Y-172414096D01*
X84860197Y-172593823D01*
X85040172Y-172757943D01*
X85229010Y-172852969D01*
X85462627Y-172882261D01*
X85776943Y-172849179D01*
X86207875Y-172757084D01*
X86317970Y-172730209D01*
X86763265Y-172622870D01*
X87077420Y-172559100D01*
X87292959Y-172539025D01*
X87442405Y-172562767D01*
X87558285Y-172630451D01*
X87666686Y-172735333D01*
X87801280Y-172911783D01*
X87802933Y-172994046D01*
X87686918Y-172969821D01*
X87512013Y-172859886D01*
X87259049Y-172672862D01*
X86437072Y-172890605D01*
X86090479Y-172984414D01*
X85813003Y-173063298D01*
X85640121Y-173116950D01*
X85600456Y-173133674D01*
X85546103Y-173210604D01*
X85424281Y-173377856D01*
X85343309Y-173488024D01*
X85159216Y-173761643D01*
X84979232Y-174068514D01*
X84827678Y-174362332D01*
X84728875Y-174596793D01*
X84704020Y-174705167D01*
X84758467Y-174770401D01*
X84938847Y-174772349D01*
X85036260Y-174758817D01*
X85328640Y-174752385D01*
X85720483Y-174796701D01*
X86153861Y-174880040D01*
X86570848Y-174990679D01*
X86913517Y-175116894D01*
X86989666Y-175154175D01*
X87208694Y-175258047D01*
X87527512Y-175394253D01*
X87886637Y-175537634D01*
X87984499Y-175574955D01*
X88373052Y-175738184D01*
X88605560Y-175884577D01*
X88691985Y-176030687D01*
X88642292Y-176193066D01*
X88471333Y-176383748D01*
X88297413Y-176649517D01*
X88275958Y-176965765D01*
X88386666Y-177265333D01*
X88487461Y-177464998D01*
X88487691Y-177580499D01*
X88381024Y-177668364D01*
X88338920Y-177691563D01*
X88144921Y-177738280D01*
X88063754Y-177706770D01*
X87903112Y-177624055D01*
X87769901Y-177581055D01*
X87640982Y-177575562D01*
X87538152Y-177657032D01*
X87423966Y-177858845D01*
X87398601Y-177912050D01*
X87264478Y-178153177D01*
X87140919Y-178260768D01*
X87041700Y-178272843D01*
X86816757Y-178282125D01*
X86650999Y-178314486D01*
X86504944Y-178387341D01*
X86441831Y-178533135D01*
X86429173Y-178687366D01*
X86399268Y-178924569D01*
X86330115Y-179254046D01*
X86236204Y-179607490D01*
X86228578Y-179633024D01*
X86038142Y-180265048D01*
X86217570Y-180384184D01*
X86358022Y-180524052D01*
X86389923Y-180655854D01*
X86307403Y-180731870D01*
X86260941Y-180736667D01*
X86167416Y-180780719D01*
X86185880Y-180884833D01*
X86278743Y-181165650D01*
X86270792Y-181310938D01*
X86162511Y-181320175D01*
X85954384Y-181192837D01*
X85922835Y-181168442D01*
X85790148Y-181075885D01*
X85671591Y-181050695D01*
X85503082Y-181091407D01*
X85330199Y-181154871D01*
X85088578Y-181262717D01*
X84916078Y-181369129D01*
X84874683Y-181411275D01*
X84768147Y-181475473D01*
X84639253Y-181389279D01*
X84507105Y-181166479D01*
X84494216Y-181136670D01*
X84386155Y-180879669D01*
X84229366Y-181125668D01*
X84097949Y-181311624D01*
X83991311Y-181429795D01*
X83985955Y-181433870D01*
X83822253Y-181493248D01*
X83646468Y-181485546D01*
X83531222Y-181419509D01*
X83518333Y-181377555D01*
X83446289Y-181272434D01*
X83328697Y-181229388D01*
X83149726Y-181157730D01*
X83111150Y-181043649D01*
X83127350Y-181024764D01*
X83309107Y-181024764D01*
X83311937Y-181083863D01*
X83433763Y-181137444D01*
X83631788Y-181124609D01*
X83799305Y-181101246D01*
X83826020Y-181133689D01*
X83790853Y-181175346D01*
X83700677Y-181301967D01*
X83687666Y-181349245D01*
X83737784Y-181383886D01*
X83859107Y-181323903D01*
X84008086Y-181199194D01*
X84141174Y-181039656D01*
X84143294Y-181036438D01*
X84302152Y-180859309D01*
X84442167Y-180849382D01*
X84570412Y-181007565D01*
X84611226Y-181096500D01*
X84693462Y-181261293D01*
X84745085Y-181272589D01*
X84762142Y-181227937D01*
X84754692Y-181036586D01*
X84714147Y-180925584D01*
X84666902Y-180736667D01*
X84703666Y-180736667D01*
X84777351Y-180795669D01*
X84955370Y-180821300D01*
X84962663Y-180821333D01*
X85139343Y-180845458D01*
X85164774Y-180913376D01*
X85046228Y-180972302D01*
X84954445Y-180965292D01*
X84843749Y-180967946D01*
X84848676Y-181049404D01*
X84897324Y-181119801D01*
X84992705Y-181132776D01*
X85171409Y-181084002D01*
X85446300Y-180978688D01*
X85669461Y-180912801D01*
X85831219Y-180939463D01*
X85890800Y-180972142D01*
X86017830Y-181023353D01*
X86058333Y-180996381D01*
X85996753Y-180880992D01*
X85973666Y-180863667D01*
X85890351Y-180756453D01*
X85952910Y-180671133D01*
X86058333Y-180652000D01*
X86195913Y-180616544D01*
X86227666Y-180567333D01*
X86159089Y-180492219D01*
X86100666Y-180482667D01*
X86004988Y-180409096D01*
X85975776Y-180204788D01*
X86012102Y-179894351D01*
X86113035Y-179502390D01*
X86140917Y-179416309D01*
X86234207Y-179081489D01*
X86291497Y-178761948D01*
X86309511Y-178496802D01*
X86284974Y-178325168D01*
X86235979Y-178281333D01*
X86188077Y-178358227D01*
X86138612Y-178558813D01*
X86101913Y-178810500D01*
X86023800Y-179357682D01*
X85920014Y-179833310D01*
X85798820Y-180208253D01*
X85668484Y-180453384D01*
X85621402Y-180503833D01*
X85383223Y-180615387D01*
X85075286Y-180652000D01*
X84851341Y-180669214D01*
X84718979Y-180712656D01*
X84703666Y-180736667D01*
X84666902Y-180736667D01*
X84651756Y-180676105D01*
X84653514Y-180392757D01*
X84762635Y-180392757D01*
X84764235Y-180399662D01*
X84872271Y-180522763D01*
X85072560Y-180570392D01*
X85305310Y-180541613D01*
X85510727Y-180435489D01*
X85536586Y-180411746D01*
X85640331Y-180242756D01*
X85748111Y-179966747D01*
X85844577Y-179640327D01*
X85914378Y-179320102D01*
X85942166Y-179062680D01*
X85930937Y-178957421D01*
X85929860Y-178804620D01*
X85970222Y-178749128D01*
X86034076Y-178632822D01*
X86058333Y-178448933D01*
X86038376Y-178288685D01*
X85948477Y-178192990D01*
X85743589Y-178119002D01*
X85698499Y-178106684D01*
X85460562Y-178037238D01*
X85292682Y-177978083D01*
X85261844Y-177963191D01*
X85225742Y-178007929D01*
X85225375Y-178184629D01*
X85239853Y-178316236D01*
X85251214Y-178683856D01*
X85165898Y-178965309D01*
X85039740Y-179250729D01*
X84922085Y-179587068D01*
X84827184Y-179923443D01*
X84769284Y-180208967D01*
X84762635Y-180392757D01*
X84653514Y-180392757D01*
X84653966Y-180319844D01*
X84715399Y-179904219D01*
X84830676Y-179476645D01*
X84899614Y-179290690D01*
X85015369Y-178955382D01*
X85092502Y-178628698D01*
X85127623Y-178345260D01*
X85117346Y-178139693D01*
X85058283Y-178046618D01*
X85021166Y-178048329D01*
X84955431Y-178148941D01*
X84895770Y-178383906D01*
X84856157Y-178669217D01*
X84741456Y-179262889D01*
X84531192Y-179833709D01*
X84247746Y-180332177D01*
X83947561Y-180678935D01*
X83722904Y-180854424D01*
X83519766Y-180967493D01*
X83428425Y-180990667D01*
X83309107Y-181024764D01*
X83127350Y-181024764D01*
X83207712Y-180931086D01*
X83371337Y-180873004D01*
X83700450Y-180727378D01*
X84019849Y-180419942D01*
X84322614Y-179958196D01*
X84451288Y-179702704D01*
X84591304Y-179376014D01*
X84674317Y-179091715D01*
X84716040Y-178777029D01*
X84731313Y-178405797D01*
X84733155Y-178038493D01*
X84717057Y-177805126D01*
X84677550Y-177670761D01*
X84609164Y-177600460D01*
X84604830Y-177597968D01*
X84480286Y-177489243D01*
X84303562Y-177289555D01*
X84158088Y-177102478D01*
X84000464Y-176868509D01*
X83896707Y-176648829D01*
X83826924Y-176385422D01*
X83771219Y-176020275D01*
X83762229Y-175948087D01*
X83727422Y-175526584D01*
X87412999Y-175526584D01*
X87449519Y-175615375D01*
X87543492Y-175805115D01*
X87629506Y-175969686D01*
X87758839Y-176253470D01*
X87819270Y-176523892D01*
X87828259Y-176865209D01*
X87826516Y-176920417D01*
X87822590Y-177223260D01*
X87844671Y-177399630D01*
X87902686Y-177491624D01*
X87969842Y-177528300D01*
X88208161Y-177593357D01*
X88331068Y-177561210D01*
X88344333Y-177516354D01*
X88301416Y-177386807D01*
X88209850Y-177223462D01*
X88119948Y-176939652D01*
X88178491Y-176613628D01*
X88379892Y-176273521D01*
X88404374Y-176243729D01*
X88529389Y-176071844D01*
X88577303Y-175956786D01*
X88572190Y-175940968D01*
X88474719Y-175888989D01*
X88276945Y-175807441D01*
X88026139Y-175713223D01*
X87769575Y-175623235D01*
X87554524Y-175554373D01*
X87428258Y-175523538D01*
X87412999Y-175526584D01*
X83727422Y-175526584D01*
X83712824Y-175349814D01*
X83731241Y-174870131D01*
X83821448Y-174470797D01*
X83944723Y-174189516D01*
X84032178Y-173983579D01*
X84251215Y-173983579D01*
X84333593Y-174039032D01*
X84498743Y-174048000D01*
X84706644Y-174023046D01*
X84830789Y-173962498D01*
X84834147Y-173957700D01*
X84863537Y-173865370D01*
X84791649Y-173796585D01*
X84587830Y-173724782D01*
X84554117Y-173715007D01*
X84372615Y-173678581D01*
X84290302Y-173729993D01*
X84258026Y-173844620D01*
X84251215Y-173983579D01*
X84032178Y-173983579D01*
X84075912Y-173880595D01*
X84102654Y-173651299D01*
X84022833Y-173525153D01*
X84005166Y-173517778D01*
X83854670Y-173519921D01*
X83599284Y-173571739D01*
X83290524Y-173658015D01*
X82979906Y-173763534D01*
X82718948Y-173873083D01*
X82619064Y-173927155D01*
X82289685Y-174167239D01*
X81982197Y-174452441D01*
X81749690Y-174731183D01*
X81688601Y-174831166D01*
X81554141Y-174994624D01*
X81401098Y-175063526D01*
X81277841Y-175030253D01*
X81235634Y-174912286D01*
X81370222Y-174912286D01*
X81442084Y-174905304D01*
X81553337Y-174782616D01*
X81572573Y-174753534D01*
X81744734Y-174510816D01*
X81923062Y-174292740D01*
X82182916Y-174072642D01*
X82553334Y-173846232D01*
X82979151Y-173641960D01*
X83405202Y-173488274D01*
X83561595Y-173447724D01*
X83813912Y-173388641D01*
X83982693Y-173344105D01*
X84026332Y-173327494D01*
X84000575Y-173233877D01*
X83940989Y-173065557D01*
X83874104Y-172892979D01*
X83826447Y-172786583D01*
X83819391Y-172778000D01*
X83710589Y-172818842D01*
X83496335Y-172927254D01*
X83215396Y-173082063D01*
X82906539Y-173262097D01*
X82687262Y-173396316D01*
X82428132Y-173586659D01*
X82150999Y-173835188D01*
X81881279Y-174112651D01*
X81644388Y-174389791D01*
X81465741Y-174637355D01*
X81370755Y-174826088D01*
X81370222Y-174912286D01*
X81235634Y-174912286D01*
X81232332Y-174903056D01*
X81287315Y-174738791D01*
X81431944Y-174494813D01*
X81635745Y-174210759D01*
X81868240Y-173926264D01*
X82098954Y-173680965D01*
X82297411Y-173514497D01*
X82302613Y-173511093D01*
X82481816Y-173381765D01*
X82579795Y-173285198D01*
X82585951Y-173269313D01*
X82549752Y-173166977D01*
X82455747Y-172968050D01*
X82375332Y-172812203D01*
X82255608Y-172570185D01*
X82249799Y-172555993D01*
X84092752Y-172555993D01*
X84110482Y-172630568D01*
X84277697Y-172698505D01*
X84364999Y-172716967D01*
X84616941Y-172757224D01*
X84743860Y-172759036D01*
X84786093Y-172720433D01*
X84788333Y-172696312D01*
X84714599Y-172580556D01*
X84536443Y-172499536D01*
X84318435Y-172477221D01*
X84233538Y-172490352D01*
X84092752Y-172555993D01*
X82249799Y-172555993D01*
X82178876Y-172382713D01*
X82163666Y-172318676D01*
X82243050Y-172267204D01*
X82464926Y-172193950D01*
X82804878Y-172105687D01*
X83238489Y-172009191D01*
X83391472Y-171977992D01*
X84619278Y-171732745D01*
X84830805Y-171931464D01*
G37*
%TO.C,SW6*%
D10*
X81575000Y-81117787D02*
X89575000Y-81117787D01*
X89575000Y-94117787D01*
X81575000Y-94117787D01*
X81575000Y-81117787D01*
%TO.C,C7*%
D13*
X70929591Y-96827524D02*
X75469591Y-96827524D01*
X70929591Y-96883524D02*
X70929591Y-96827524D01*
X75469591Y-98911524D02*
X75469591Y-98967524D01*
X75469591Y-98967524D02*
X70929591Y-98967524D01*
%TO.C,J5*%
D10*
X103325000Y-46017849D02*
G75*
G02*
X91325000Y-46017849I-6000000J0D01*
G01*
X91325000Y-46017849D02*
G75*
G02*
X103325000Y-46017849I6000000J0D01*
G01*
%TO.C,C4*%
D13*
X70930000Y-75997787D02*
X75470000Y-75997787D01*
X70930000Y-76053787D02*
X70930000Y-75997787D01*
X75470000Y-78081787D02*
X75470000Y-78137787D01*
X75470000Y-78137787D02*
X70930000Y-78137787D01*
%TO.C,R6*%
X42500000Y-153450000D02*
X42500000Y-154220000D01*
X42500000Y-161530000D02*
X42500000Y-160760000D01*
X41130000Y-154220000D02*
X43870000Y-154220000D01*
X43870000Y-160760000D01*
X41130000Y-160760000D01*
X41130000Y-154220000D01*
%TO.C,SW1*%
D10*
X32375000Y-39592787D02*
X40375000Y-39592787D01*
X40375000Y-52592787D01*
X32375000Y-52592787D01*
X32375000Y-39592787D01*
%TO.C,R15*%
D13*
X47173092Y-121747897D02*
X47943092Y-121747897D01*
X55253092Y-121747897D02*
X54483092Y-121747897D01*
X47943092Y-120377897D02*
X54483092Y-120377897D01*
X54483092Y-123117897D01*
X47943092Y-123117897D01*
X47943092Y-120377897D01*
%TO.C,SW5*%
D10*
X32375000Y-81117787D02*
X40375000Y-81117787D01*
X40375000Y-94117787D01*
X32375000Y-94117787D01*
X32375000Y-81117787D01*
%TO.C,RV7*%
D13*
X46179000Y-150695000D02*
X56220000Y-150695000D01*
X46179000Y-154631000D02*
X46179000Y-150695000D01*
X46179000Y-162935000D02*
X46179000Y-158998000D01*
X46179000Y-162935000D02*
X47500000Y-162935000D01*
X49950000Y-162935000D02*
X50330000Y-162935000D01*
X52071000Y-162935000D02*
X52830000Y-162935000D01*
X54570000Y-162935000D02*
X56220000Y-162935000D01*
X56220000Y-154631000D02*
X56220000Y-150695000D01*
X56220000Y-162935000D02*
X56220000Y-158998000D01*
%TO.C,J30*%
D10*
X103325000Y-108446164D02*
G75*
G02*
X91325000Y-108446164I-6000000J0D01*
G01*
X91325000Y-108446164D02*
G75*
G02*
X103325000Y-108446164I6000000J0D01*
G01*
%TO.C,R5*%
D13*
X47248717Y-100736653D02*
X48018717Y-100736653D01*
X55328717Y-100736653D02*
X54558717Y-100736653D01*
X48018717Y-99366653D02*
X54558717Y-99366653D01*
X54558717Y-102106653D01*
X48018717Y-102106653D01*
X48018717Y-99366653D01*
%TO.C,J4*%
X72610177Y-21437787D02*
X88110177Y-21437787D01*
X72610177Y-30557787D02*
X72610177Y-21437787D01*
X73910177Y-22747787D02*
X86810177Y-22747787D01*
X73910177Y-29247787D02*
X73910177Y-22747787D01*
X77320177Y-31947787D02*
X78320177Y-31947787D01*
X77820177Y-30947787D02*
X77320177Y-31947787D01*
X78310177Y-29247787D02*
X73910177Y-29247787D01*
X78310177Y-30557787D02*
X78310177Y-29247787D01*
X78320177Y-31947787D02*
X77820177Y-30947787D01*
X82410177Y-29247787D02*
X82410177Y-30557787D01*
X86810177Y-22747787D02*
X86810177Y-29247787D01*
X86810177Y-29247787D02*
X82410177Y-29247787D01*
X88110177Y-21437787D02*
X88110177Y-30557787D01*
X88110177Y-30557787D02*
X72610177Y-30557787D01*
%TO.C,R7*%
X39485807Y-148250432D02*
X40255807Y-148250432D01*
X47565807Y-148250432D02*
X46795807Y-148250432D01*
X40255807Y-146880432D02*
X46795807Y-146880432D01*
X46795807Y-149620432D01*
X40255807Y-149620432D01*
X40255807Y-146880432D01*
%TO.C,RV11*%
X65679000Y-102847818D02*
X75720000Y-102847818D01*
X65679000Y-106783818D02*
X65679000Y-102847818D01*
X65679000Y-115087818D02*
X65679000Y-111150818D01*
X65679000Y-115087818D02*
X67000000Y-115087818D01*
X69450000Y-115087818D02*
X69830000Y-115087818D01*
X71571000Y-115087818D02*
X72330000Y-115087818D01*
X74070000Y-115087818D02*
X75720000Y-115087818D01*
X75720000Y-106783818D02*
X75720000Y-102847818D01*
X75720000Y-115087818D02*
X75720000Y-111150818D01*
%TO.C,R4*%
X66596614Y-80065227D02*
X67366614Y-80065227D01*
X74676614Y-80065227D02*
X73906614Y-80065227D01*
X67366614Y-78695227D02*
X73906614Y-78695227D01*
X73906614Y-81435227D01*
X67366614Y-81435227D01*
X67366614Y-78695227D01*
%TO.C,R8*%
X39469625Y-145139704D02*
X40239625Y-145139704D01*
X47549625Y-145139704D02*
X46779625Y-145139704D01*
X40239625Y-143769704D02*
X46779625Y-143769704D01*
X46779625Y-146509704D01*
X40239625Y-146509704D01*
X40239625Y-143769704D01*
%TO.C,J2*%
X34530177Y-21437787D02*
X50030177Y-21437787D01*
X34530177Y-30557787D02*
X34530177Y-21437787D01*
X35830177Y-22747787D02*
X48730177Y-22747787D01*
X35830177Y-29247787D02*
X35830177Y-22747787D01*
X39240177Y-31947787D02*
X40240177Y-31947787D01*
X39740177Y-30947787D02*
X39240177Y-31947787D01*
X40230177Y-29247787D02*
X35830177Y-29247787D01*
X40230177Y-30557787D02*
X40230177Y-29247787D01*
X40240177Y-31947787D02*
X39740177Y-30947787D01*
X44330177Y-29247787D02*
X44330177Y-30557787D01*
X48730177Y-22747787D02*
X48730177Y-29247787D01*
X48730177Y-29247787D02*
X44330177Y-29247787D01*
X50030177Y-21437787D02*
X50030177Y-30557787D01*
X50030177Y-30557787D02*
X34530177Y-30557787D01*
%TO.C,R9*%
X27123338Y-148256669D02*
X27893338Y-148256669D01*
X35203338Y-148256669D02*
X34433338Y-148256669D01*
X27893338Y-146886669D02*
X34433338Y-146886669D01*
X34433338Y-149626669D01*
X27893338Y-149626669D01*
X27893338Y-146886669D01*
%TO.C,J24*%
D10*
X30500000Y-108446164D02*
G75*
G02*
X18500000Y-108446164I-6000000J0D01*
G01*
X18500000Y-108446164D02*
G75*
G02*
X30500000Y-108446164I6000000J0D01*
G01*
%TO.C,J11*%
X103325000Y-156340000D02*
G75*
G02*
X91325000Y-156340000I-6000000J0D01*
G01*
X91325000Y-156340000D02*
G75*
G02*
X103325000Y-156340000I6000000J0D01*
G01*
%TO.C,R16*%
D13*
X39472170Y-142145196D02*
X40242170Y-142145196D01*
X47552170Y-142145196D02*
X46782170Y-142145196D01*
X40242170Y-140775196D02*
X46782170Y-140775196D01*
X46782170Y-143515196D01*
X40242170Y-143515196D01*
X40242170Y-140775196D01*
%TO.C,SW13*%
D10*
X81575000Y-122746133D02*
X89575000Y-122746133D01*
X89575000Y-135746133D01*
X81575000Y-135746133D01*
X81575000Y-122746133D01*
%TO.C,C2*%
D13*
X70977637Y-55014715D02*
X75517637Y-55014715D01*
X70977637Y-55070715D02*
X70977637Y-55014715D01*
X75517637Y-57098715D02*
X75517637Y-57154715D01*
X75517637Y-57154715D02*
X70977637Y-57154715D01*
%TO.C,RV1*%
X46179000Y-40422787D02*
X56220000Y-40422787D01*
X46179000Y-44358787D02*
X46179000Y-40422787D01*
X46179000Y-52662787D02*
X46179000Y-48725787D01*
X46179000Y-52662787D02*
X47500000Y-52662787D01*
X49950000Y-52662787D02*
X50330000Y-52662787D01*
X52071000Y-52662787D02*
X52830000Y-52662787D01*
X54570000Y-52662787D02*
X56220000Y-52662787D01*
X56220000Y-44358787D02*
X56220000Y-40422787D01*
X56220000Y-52662787D02*
X56220000Y-48725787D01*
%TO.C,R1*%
X46960000Y-59253771D02*
X47730000Y-59253771D01*
X55040000Y-59253771D02*
X54270000Y-59253771D01*
X47730000Y-57883771D02*
X54270000Y-57883771D01*
X54270000Y-60623771D01*
X47730000Y-60623771D01*
X47730000Y-57883771D01*
%TO.C,RV12*%
X65679000Y-123647787D02*
X75720000Y-123647787D01*
X65679000Y-127583787D02*
X65679000Y-123647787D01*
X65679000Y-135887787D02*
X65679000Y-131950787D01*
X65679000Y-135887787D02*
X67000000Y-135887787D01*
X69450000Y-135887787D02*
X69830000Y-135887787D01*
X71571000Y-135887787D02*
X72330000Y-135887787D01*
X74070000Y-135887787D02*
X75720000Y-135887787D01*
X75720000Y-127583787D02*
X75720000Y-123647787D01*
X75720000Y-135887787D02*
X75720000Y-131950787D01*
%TO.C,RV2*%
X65679000Y-40422787D02*
X75720000Y-40422787D01*
X65679000Y-44358787D02*
X65679000Y-40422787D01*
X65679000Y-52662787D02*
X65679000Y-48725787D01*
X65679000Y-52662787D02*
X67000000Y-52662787D01*
X69450000Y-52662787D02*
X69830000Y-52662787D01*
X71571000Y-52662787D02*
X72330000Y-52662787D01*
X74070000Y-52662787D02*
X75720000Y-52662787D01*
X75720000Y-44358787D02*
X75720000Y-40422787D01*
X75720000Y-52662787D02*
X75720000Y-48725787D01*
%TO.C,R13*%
X86876535Y-148180275D02*
X87646535Y-148180275D01*
X94956535Y-148180275D02*
X94186535Y-148180275D01*
X87646535Y-146810275D02*
X94186535Y-146810275D01*
X94186535Y-149550275D01*
X87646535Y-149550275D01*
X87646535Y-146810275D01*
%TO.C,RV8*%
X65679000Y-150695000D02*
X75720000Y-150695000D01*
X65679000Y-154631000D02*
X65679000Y-150695000D01*
X65679000Y-162935000D02*
X65679000Y-158998000D01*
X65679000Y-162935000D02*
X67000000Y-162935000D01*
X69450000Y-162935000D02*
X69830000Y-162935000D01*
X71571000Y-162935000D02*
X72330000Y-162935000D01*
X74070000Y-162935000D02*
X75720000Y-162935000D01*
X75720000Y-154631000D02*
X75720000Y-150695000D01*
X75720000Y-162935000D02*
X75720000Y-158998000D01*
%TO.C,RV6*%
X65679000Y-61235287D02*
X75720000Y-61235287D01*
X65679000Y-65171287D02*
X65679000Y-61235287D01*
X65679000Y-73475287D02*
X65679000Y-69538287D01*
X65679000Y-73475287D02*
X67000000Y-73475287D01*
X69450000Y-73475287D02*
X69830000Y-73475287D01*
X71571000Y-73475287D02*
X72330000Y-73475287D01*
X74070000Y-73475287D02*
X75720000Y-73475287D01*
X75720000Y-65171287D02*
X75720000Y-61235287D01*
X75720000Y-73475287D02*
X75720000Y-69538287D01*
%TO.C,C9*%
X46381093Y-117806994D02*
X50921093Y-117806994D01*
X46381093Y-117862994D02*
X46381093Y-117806994D01*
X50921093Y-119890994D02*
X50921093Y-119946994D01*
X50921093Y-119946994D02*
X46381093Y-119946994D01*
%TO.C,R10*%
X74533625Y-145154714D02*
X75303625Y-145154714D01*
X82613625Y-145154714D02*
X81843625Y-145154714D01*
X75303625Y-143784714D02*
X81843625Y-143784714D01*
X81843625Y-146524714D01*
X75303625Y-146524714D01*
X75303625Y-143784714D01*
%TO.C,J31*%
D10*
X103314421Y-129246133D02*
G75*
G02*
X91314421Y-129246133I-6000000J0D01*
G01*
X91314421Y-129246133D02*
G75*
G02*
X103314421Y-129246133I6000000J0D01*
G01*
%TO.C,R2*%
D13*
X66460000Y-59267787D02*
X67230000Y-59267787D01*
X74540000Y-59267787D02*
X73770000Y-59267787D01*
X67230000Y-57897787D02*
X73770000Y-57897787D01*
X73770000Y-60637787D01*
X67230000Y-60637787D01*
X67230000Y-57897787D01*
%TO.C,RV4*%
X46179000Y-61235287D02*
X56220000Y-61235287D01*
X46179000Y-65171287D02*
X46179000Y-61235287D01*
X46179000Y-73475287D02*
X46179000Y-69538287D01*
X46179000Y-73475287D02*
X47500000Y-73475287D01*
X49950000Y-73475287D02*
X50330000Y-73475287D01*
X52071000Y-73475287D02*
X52830000Y-73475287D01*
X54570000Y-73475287D02*
X56220000Y-73475287D01*
X56220000Y-65171287D02*
X56220000Y-61235287D01*
X56220000Y-73475287D02*
X56220000Y-69538287D01*
%TD*%
M02*
