%TF.GenerationSoftware,KiCad,Pcbnew,10.0.3*%
%TF.CreationDate,2026-07-04T09:18:55+10:00*%
%TF.ProjectId,audio-mixer,61756469-6f2d-46d6-9978-65722e6b6963,rev?*%
%TF.SameCoordinates,Original*%
%TF.FileFunction,Copper,L1,Top*%
%TF.FilePolarity,Positive*%
%FSLAX46Y46*%
G04 Gerber Fmt 4.6, Leading zero omitted, Abs format (unit mm)*
G04 Created by KiCad (PCBNEW 10.0.3) date 2026-07-04 09:18:55*
%MOMM*%
%LPD*%
G01*
G04 APERTURE LIST*
G04 Aperture macros list*
%AMRoundRect*
0 Rectangle with rounded corners*
0 $1 Rounding radius*
0 $2 $3 $4 $5 $6 $7 $8 $9 X,Y pos of 4 corners*
0 Add a 4 corners polygon primitive as box body*
4,1,4,$2,$3,$4,$5,$6,$7,$8,$9,$2,$3,0*
0 Add four circle primitives for the rounded corners*
1,1,$1+$1,$2,$3*
1,1,$1+$1,$4,$5*
1,1,$1+$1,$6,$7*
1,1,$1+$1,$8,$9*
0 Add four rect primitives between the rounded corners*
20,1,$1+$1,$2,$3,$4,$5,0*
20,1,$1+$1,$4,$5,$6,$7,0*
20,1,$1+$1,$6,$7,$8,$9,0*
20,1,$1+$1,$8,$9,$2,$3,0*%
G04 Aperture macros list end*
%TA.AperFunction,ComponentPad*%
%ADD10RoundRect,0.250000X0.600000X-0.600000X0.600000X0.600000X-0.600000X0.600000X-0.600000X-0.600000X0*%
%TD*%
%TA.AperFunction,ComponentPad*%
%ADD11C,1.700000*%
%TD*%
%TA.AperFunction,ComponentPad*%
%ADD12C,1.600000*%
%TD*%
%TA.AperFunction,ComponentPad*%
%ADD13O,3.750000X2.000000*%
%TD*%
%TA.AperFunction,ComponentPad*%
%ADD14R,1.800000X1.800000*%
%TD*%
%TA.AperFunction,ComponentPad*%
%ADD15C,1.800000*%
%TD*%
%TA.AperFunction,ComponentPad*%
%ADD16RoundRect,0.750000X0.750000X-1.250000X0.750000X1.250000X-0.750000X1.250000X-0.750000X-1.250000X0*%
%TD*%
%TA.AperFunction,ComponentPad*%
%ADD17C,8.000000*%
%TD*%
%TA.AperFunction,ComponentPad*%
%ADD18R,1.700000X1.700000*%
%TD*%
%TA.AperFunction,ComponentPad*%
%ADD19RoundRect,0.250000X0.550000X-0.550000X0.550000X0.550000X-0.550000X0.550000X-0.550000X-0.550000X0*%
%TD*%
%TA.AperFunction,Conductor*%
%ADD20C,0.200000*%
%TD*%
G04 APERTURE END LIST*
D10*
%TO.P,J3,1,Pin_1_1*%
%TO.N,12V*%
X58740177Y-27283287D03*
D11*
%TO.P,J3,2,Pin_2_2*%
%TO.N,-12V*%
X58740177Y-24743287D03*
%TO.P,J3,3,Pin_3_3*%
%TO.N,GND*%
X61280177Y-27283287D03*
%TO.P,J3,4,Pin_4_4*%
X61280177Y-24743287D03*
%TO.P,J3,5,Pin_5_5*%
%TO.N,5V*%
X63820177Y-27283287D03*
%TO.P,J3,6,Pin_6_6*%
%TO.N,unconnected-(J3-Pin_6-Pad6)*%
X63820177Y-24743287D03*
%TD*%
D12*
%TO.P,R12,1*%
%TO.N,Net-(C7-Pad2)*%
X75703302Y-100882734D03*
%TO.P,R12,2*%
%TO.N,Net-(U1C--)*%
X65543302Y-100882734D03*
%TD*%
%TO.P,C5,1*%
%TO.N,GND*%
X60975000Y-132490000D03*
%TO.P,C5,2*%
%TO.N,-12V*%
X60975000Y-137490000D03*
%TD*%
%TO.P,R11,1*%
%TO.N,Net-(R11-Pad1)*%
X73482283Y-148214999D03*
%TO.P,R11,2*%
%TO.N,Net-(U1B--)*%
X83642283Y-148214999D03*
%TD*%
D13*
%TO.P,SW9,1,C_1*%
%TO.N,Net-(SW7-B)*%
X70700000Y-181715000D03*
%TO.P,SW9,2,B_2*%
%TO.N,Net-(SW9-B)*%
X70700000Y-177215000D03*
%TO.P,SW9,3,A_3*%
%TO.N,Net-(SW8-B)*%
X70700000Y-172715000D03*
%TD*%
D12*
%TO.P,C3,1*%
%TO.N,Net-(C3-Pad1)*%
X51200000Y-77117787D03*
%TO.P,C3,2*%
%TO.N,Net-(C3-Pad2)*%
X46200000Y-77117787D03*
%TD*%
%TO.P,C6,1*%
%TO.N,Net-(C6-Pad1)*%
X51199672Y-97741770D03*
%TO.P,C6,2*%
%TO.N,Net-(C6-Pad2)*%
X46199672Y-97741770D03*
%TD*%
%TO.P,C11,1*%
%TO.N,Net-(C11-Pad1)*%
X70716821Y-118600778D03*
%TO.P,C11,2*%
%TO.N,Net-(C11-Pad2)*%
X75716821Y-118600778D03*
%TD*%
D13*
%TO.P,SW10,1,C_1*%
%TO.N,Net-(J12-Pin_12)*%
X36375000Y-112946164D03*
%TO.P,SW10,2,B_2*%
%TO.N,Net-(SW10-B)*%
X36375000Y-108446164D03*
%TO.P,SW10,3,A_3*%
%TO.N,unconnected-(SW10-A-Pad3)*%
X36375000Y-103946164D03*
%TD*%
%TO.P,SW12,1,C_1*%
%TO.N,Net-(J12-Pin_4)*%
X85575000Y-112946164D03*
%TO.P,SW12,2,B_2*%
%TO.N,Net-(SW12-B)*%
X85575000Y-108446164D03*
%TO.P,SW12,3,A_3*%
%TO.N,unconnected-(SW12-A-Pad3)*%
X85575000Y-103946164D03*
%TD*%
D14*
%TO.P,RV10,1,1_1*%
%TO.N,GND*%
X48700000Y-136767787D03*
D15*
%TO.P,RV10,2,2_2*%
%TO.N,Net-(C10-Pad1)*%
X51200000Y-136767787D03*
%TO.P,RV10,3,3_3*%
%TO.N,Net-(SW11-B)*%
X53700000Y-136767787D03*
D16*
%TO.P,RV10,MP*%
%TO.N,N/C*%
X46800000Y-129767787D03*
X55600000Y-129767787D03*
%TD*%
D12*
%TO.P,C1,1*%
%TO.N,Net-(C1-Pad1)*%
X51200000Y-56142787D03*
%TO.P,C1,2*%
%TO.N,Net-(C1-Pad2)*%
X46200000Y-56142787D03*
%TD*%
%TO.P,R18,1*%
%TO.N,Net-(C12-Pad2)*%
X83616823Y-141966069D03*
%TO.P,R18,2*%
%TO.N,Net-(U1C--)*%
X73456823Y-141966069D03*
%TD*%
%TO.P,C10,1*%
%TO.N,Net-(C10-Pad1)*%
X31249702Y-142126567D03*
%TO.P,C10,2*%
%TO.N,Net-(C10-Pad2)*%
X36249702Y-142126567D03*
%TD*%
D13*
%TO.P,SW7,1,C_1*%
%TO.N,Net-(SW7-C)*%
X36375000Y-160840000D03*
%TO.P,SW7,2,B_2*%
%TO.N,Net-(SW7-B)*%
X36375000Y-156340000D03*
%TO.P,SW7,3,A_3*%
%TO.N,unconnected-(SW7-A-Pad3)*%
X36375000Y-151840000D03*
%TD*%
D17*
%TO.P,J6,1,Pin_1_1*%
%TO.N,Net-(J12-Pin_14)*%
X24625000Y-66842756D03*
%TD*%
%TO.P,J8,1,Pin_1_1*%
%TO.N,Net-(J12-Pin_13)*%
X24500000Y-87642725D03*
%TD*%
D11*
%TO.P,J13,R1*%
%TO.N,Net-(J12-Pin_8)*%
X56135000Y-176390000D03*
%TO.P,J13,R2*%
%TO.N,unconnected-(J13-PadR2)*%
X56135000Y-178930000D03*
%TO.P,J13,S*%
%TO.N,GND*%
X56135000Y-181470000D03*
D18*
%TO.P,J13,T*%
%TO.N,Net-(J12-Pin_7)*%
X56135000Y-173850000D03*
%TD*%
D17*
%TO.P,J1,1,Pin_1_1*%
%TO.N,Net-(J1-Pin_1)*%
X24625000Y-46042787D03*
%TD*%
D12*
%TO.P,C8,1*%
%TO.N,GND*%
X61000000Y-155465000D03*
%TO.P,C8,2*%
%TO.N,12V*%
X61000000Y-150465000D03*
%TD*%
D14*
%TO.P,RV9,1,1_1*%
%TO.N,GND*%
X48700000Y-115967818D03*
D15*
%TO.P,RV9,2,2_2*%
%TO.N,Net-(C9-Pad1)*%
X51200000Y-115967818D03*
%TO.P,RV9,3,3_3*%
%TO.N,Net-(SW10-B)*%
X53700000Y-115967818D03*
D16*
%TO.P,RV9,MP*%
%TO.N,N/C*%
X46800000Y-108967818D03*
X55600000Y-108967818D03*
%TD*%
D12*
%TO.P,C12,1*%
%TO.N,Net-(C12-Pad1)*%
X90902985Y-141982734D03*
%TO.P,C12,2*%
%TO.N,Net-(C12-Pad2)*%
X85902985Y-141982734D03*
%TD*%
%TO.P,R3,1*%
%TO.N,Net-(C3-Pad2)*%
X45920000Y-80117787D03*
%TO.P,R3,2*%
%TO.N,Net-(U1D--)*%
X56080000Y-80117787D03*
%TD*%
%TO.P,R14,1*%
%TO.N,Net-(SW9-B)*%
X64500000Y-172555000D03*
%TO.P,R14,2*%
%TO.N,Net-(J12-Pin_8)*%
X64500000Y-182715000D03*
%TD*%
D14*
%TO.P,RV5,1,1_1*%
%TO.N,GND*%
X68200000Y-95167787D03*
D15*
%TO.P,RV5,2,2_2*%
%TO.N,Net-(C7-Pad1)*%
X70700000Y-95167787D03*
%TO.P,RV5,3,3_3*%
%TO.N,Net-(SW6-B)*%
X73200000Y-95167787D03*
D16*
%TO.P,RV5,MP*%
%TO.N,N/C*%
X66300000Y-88167787D03*
X75100000Y-88167787D03*
%TD*%
D13*
%TO.P,SW11,1,C_1*%
%TO.N,Net-(J12-Pin_11)*%
X36375000Y-133746133D03*
%TO.P,SW11,2,B_2*%
%TO.N,Net-(SW11-B)*%
X36375000Y-129246133D03*
%TO.P,SW11,3,A_3*%
%TO.N,unconnected-(SW11-A-Pad3)*%
X36375000Y-124746133D03*
%TD*%
%TO.P,SW4,1,C_1*%
%TO.N,Net-(J12-Pin_2)*%
X85575000Y-71355287D03*
%TO.P,SW4,2,B_2*%
%TO.N,Net-(SW4-B)*%
X85575000Y-66855287D03*
%TO.P,SW4,3,A_3*%
%TO.N,unconnected-(SW4-A-Pad3)*%
X85575000Y-62355287D03*
%TD*%
D19*
%TO.P,U1,1*%
%TO.N,Net-(SW7-C)*%
X53335000Y-147810000D03*
D12*
%TO.P,U1,2,-_2*%
%TO.N,Net-(U1A--)*%
X55875000Y-147810000D03*
%TO.P,U1,3,+_3*%
%TO.N,GND*%
X58415000Y-147810000D03*
%TO.P,U1,4,V+_4*%
%TO.N,12V*%
X60955000Y-147810000D03*
%TO.P,U1,5,+_5*%
%TO.N,GND*%
X63495000Y-147810000D03*
%TO.P,U1,6,-_6*%
%TO.N,Net-(U1B--)*%
X66035000Y-147810000D03*
%TO.P,U1,7*%
%TO.N,Net-(SW8-C)*%
X68575000Y-147810000D03*
%TO.P,U1,8*%
%TO.N,Net-(R11-Pad1)*%
X68575000Y-140190000D03*
%TO.P,U1,9,-_9*%
%TO.N,Net-(U1C--)*%
X66035000Y-140190000D03*
%TO.P,U1,10,+_10*%
%TO.N,GND*%
X63495000Y-140190000D03*
%TO.P,U1,11,V-_11*%
%TO.N,-12V*%
X60955000Y-140190000D03*
%TO.P,U1,12,+_12*%
%TO.N,GND*%
X58415000Y-140190000D03*
%TO.P,U1,13,-_13*%
%TO.N,Net-(U1D--)*%
X55875000Y-140190000D03*
%TO.P,U1,14*%
%TO.N,Net-(R8-Pad1)*%
X53335000Y-140190000D03*
%TD*%
D17*
%TO.P,J25,1,Pin_1_1*%
%TO.N,Net-(J12-Pin_11)*%
X24500000Y-129271071D03*
%TD*%
%TO.P,J10,1,Pin_1_1*%
%TO.N,Net-(J10-Pin_1)*%
X24500000Y-156364938D03*
%TD*%
D14*
%TO.P,RV3,1,1_1*%
%TO.N,GND*%
X48700000Y-95167787D03*
D15*
%TO.P,RV3,2,2_2*%
%TO.N,Net-(C6-Pad1)*%
X51200000Y-95167787D03*
%TO.P,RV3,3,3_3*%
%TO.N,Net-(SW5-B)*%
X53700000Y-95167787D03*
D16*
%TO.P,RV3,MP*%
%TO.N,N/C*%
X46800000Y-88167787D03*
X55600000Y-88167787D03*
%TD*%
D13*
%TO.P,SW8,1,C_1*%
%TO.N,Net-(SW8-C)*%
X85575000Y-160840000D03*
%TO.P,SW8,2,B_2*%
%TO.N,Net-(SW8-B)*%
X85575000Y-156340000D03*
%TO.P,SW8,3,A_3*%
%TO.N,unconnected-(SW8-A-Pad3)*%
X85575000Y-151840000D03*
%TD*%
D17*
%TO.P,J9,1,Pin_1_1*%
%TO.N,Net-(J12-Pin_3)*%
X97325000Y-87642725D03*
%TD*%
D12*
%TO.P,R17,1*%
%TO.N,Net-(C11-Pad2)*%
X75697727Y-121529384D03*
%TO.P,R17,2*%
%TO.N,Net-(U1C--)*%
X65537727Y-121529384D03*
%TD*%
D18*
%TO.P,J12,1,Pin_1_1*%
%TO.N,Net-(J12-Pin_1)*%
X78860000Y-168215000D03*
D11*
%TO.P,J12,2,Pin_2_2*%
%TO.N,Net-(J12-Pin_2)*%
X76320000Y-168215000D03*
%TO.P,J12,3,Pin_3_3*%
%TO.N,Net-(J12-Pin_3)*%
X73780000Y-168215000D03*
%TO.P,J12,4,Pin_4_4*%
%TO.N,Net-(J12-Pin_4)*%
X71240000Y-168215000D03*
%TO.P,J12,5,Pin_5_5*%
%TO.N,Net-(J12-Pin_5)*%
X68700000Y-168215000D03*
%TO.P,J12,6,Pin_6_6*%
%TO.N,Net-(J11-Pin_1)*%
X66160000Y-168215000D03*
%TO.P,J12,7,Pin_7_7*%
%TO.N,Net-(J12-Pin_7)*%
X63620000Y-168215000D03*
%TO.P,J12,8,Pin_8_8*%
%TO.N,Net-(J12-Pin_8)*%
X61080000Y-168215000D03*
%TO.P,J12,9,Pin_9_9*%
%TO.N,GND*%
X58540000Y-168215000D03*
%TO.P,J12,10,Pin_10_10*%
%TO.N,Net-(J10-Pin_1)*%
X56000000Y-168215000D03*
%TO.P,J12,11,Pin_11_11*%
%TO.N,Net-(J12-Pin_11)*%
X53460000Y-168215000D03*
%TO.P,J12,12,Pin_12_12*%
%TO.N,Net-(J12-Pin_12)*%
X50920000Y-168215000D03*
%TO.P,J12,13,Pin_13_13*%
%TO.N,Net-(J12-Pin_13)*%
X48380000Y-168215000D03*
%TO.P,J12,14,Pin_14_14*%
%TO.N,Net-(J12-Pin_14)*%
X45840000Y-168215000D03*
%TO.P,J12,15,Pin_15_15*%
%TO.N,Net-(J1-Pin_1)*%
X43300000Y-168215000D03*
%TD*%
D13*
%TO.P,SW3,1,C_1*%
%TO.N,Net-(J12-Pin_14)*%
X36375000Y-71355287D03*
%TO.P,SW3,2,B_2*%
%TO.N,Net-(SW3-B)*%
X36375000Y-66855287D03*
%TO.P,SW3,3,A_3*%
%TO.N,unconnected-(SW3-A-Pad3)*%
X36375000Y-62355287D03*
%TD*%
%TO.P,SW2,1,C_1*%
%TO.N,Net-(J12-Pin_1)*%
X85575000Y-50592787D03*
%TO.P,SW2,2,B_2*%
%TO.N,Net-(SW2-B)*%
X85575000Y-46092787D03*
%TO.P,SW2,3,A_3*%
%TO.N,unconnected-(SW2-A-Pad3)*%
X85575000Y-41592787D03*
%TD*%
D17*
%TO.P,J7,1,Pin_1_1*%
%TO.N,Net-(J12-Pin_2)*%
X97325000Y-66842756D03*
%TD*%
D13*
%TO.P,SW6,1,C_1*%
%TO.N,Net-(J12-Pin_3)*%
X85575000Y-92117787D03*
%TO.P,SW6,2,B_2*%
%TO.N,Net-(SW6-B)*%
X85575000Y-87617787D03*
%TO.P,SW6,3,A_3*%
%TO.N,unconnected-(SW6-A-Pad3)*%
X85575000Y-83117787D03*
%TD*%
D12*
%TO.P,C7,1*%
%TO.N,Net-(C7-Pad1)*%
X70699591Y-97897524D03*
%TO.P,C7,2*%
%TO.N,Net-(C7-Pad2)*%
X75699591Y-97897524D03*
%TD*%
D17*
%TO.P,J5,1,Pin_1_1*%
%TO.N,Net-(J12-Pin_1)*%
X97325000Y-46042787D03*
%TD*%
D12*
%TO.P,C4,1*%
%TO.N,Net-(C4-Pad1)*%
X70700000Y-77067787D03*
%TO.P,C4,2*%
%TO.N,Net-(C4-Pad2)*%
X75700000Y-77067787D03*
%TD*%
%TO.P,R6,1*%
%TO.N,Net-(SW7-B)*%
X42500000Y-152410000D03*
%TO.P,R6,2*%
%TO.N,Net-(J12-Pin_7)*%
X42500000Y-162570000D03*
%TD*%
D13*
%TO.P,SW1,1,C_1*%
%TO.N,Net-(J1-Pin_1)*%
X36375000Y-50592787D03*
%TO.P,SW1,2,B_2*%
%TO.N,Net-(SW1-B)*%
X36375000Y-46092787D03*
%TO.P,SW1,3,A_3*%
%TO.N,unconnected-(SW1-A-Pad3)*%
X36375000Y-41592787D03*
%TD*%
D12*
%TO.P,R15,1*%
%TO.N,Net-(C9-Pad2)*%
X46133092Y-121747897D03*
%TO.P,R15,2*%
%TO.N,Net-(U1D--)*%
X56293092Y-121747897D03*
%TD*%
D13*
%TO.P,SW5,1,C_1*%
%TO.N,Net-(J12-Pin_13)*%
X36375000Y-92117787D03*
%TO.P,SW5,2,B_2*%
%TO.N,Net-(SW5-B)*%
X36375000Y-87617787D03*
%TO.P,SW5,3,A_3*%
%TO.N,unconnected-(SW5-A-Pad3)*%
X36375000Y-83117787D03*
%TD*%
D14*
%TO.P,RV7,1,1_1*%
%TO.N,Net-(U1D--)*%
X48700000Y-163815000D03*
D15*
%TO.P,RV7,2,2_2*%
%TO.N,Net-(R8-Pad1)*%
X51200000Y-163815000D03*
%TO.P,RV7,3,3_3*%
%TO.N,unconnected-(RV7-Pad3)*%
X53700000Y-163815000D03*
D16*
%TO.P,RV7,MP*%
%TO.N,N/C*%
X46800000Y-156815000D03*
X55600000Y-156815000D03*
%TD*%
D17*
%TO.P,J30,1,Pin_1_1*%
%TO.N,Net-(J12-Pin_4)*%
X97325000Y-108471102D03*
%TD*%
D12*
%TO.P,R5,1*%
%TO.N,Net-(C6-Pad2)*%
X46208717Y-100736653D03*
%TO.P,R5,2*%
%TO.N,Net-(U1D--)*%
X56368717Y-100736653D03*
%TD*%
D10*
%TO.P,J4,1,Pin_1_1*%
%TO.N,12V*%
X77820177Y-27267787D03*
D11*
%TO.P,J4,2,Pin_2_2*%
%TO.N,-12V*%
X77820177Y-24727787D03*
%TO.P,J4,3,Pin_3_3*%
%TO.N,GND*%
X80360177Y-27267787D03*
%TO.P,J4,4,Pin_4_4*%
X80360177Y-24727787D03*
%TO.P,J4,5,Pin_5_5*%
%TO.N,5V*%
X82900177Y-27267787D03*
%TO.P,J4,6,Pin_6_6*%
%TO.N,unconnected-(J4-Pin_6-Pad6)*%
X82900177Y-24727787D03*
%TD*%
D12*
%TO.P,R7,1*%
%TO.N,Net-(U1A--)*%
X48605807Y-148250432D03*
%TO.P,R7,2*%
%TO.N,Net-(SW7-C)*%
X38445807Y-148250432D03*
%TD*%
D14*
%TO.P,RV11,1,1_1*%
%TO.N,GND*%
X68200000Y-115967818D03*
D15*
%TO.P,RV11,2,2_2*%
%TO.N,Net-(C11-Pad1)*%
X70700000Y-115967818D03*
%TO.P,RV11,3,3_3*%
%TO.N,Net-(SW12-B)*%
X73200000Y-115967818D03*
D16*
%TO.P,RV11,MP*%
%TO.N,N/C*%
X66300000Y-108967818D03*
X75100000Y-108967818D03*
%TD*%
D12*
%TO.P,R4,1*%
%TO.N,Net-(C4-Pad2)*%
X75716614Y-80065227D03*
%TO.P,R4,2*%
%TO.N,Net-(U1C--)*%
X65556614Y-80065227D03*
%TD*%
%TO.P,R8,1*%
%TO.N,Net-(R8-Pad1)*%
X38429625Y-145139704D03*
%TO.P,R8,2*%
%TO.N,Net-(U1A--)*%
X48589625Y-145139704D03*
%TD*%
D10*
%TO.P,J2,1,Pin_1_1*%
%TO.N,12V*%
X39740177Y-27267787D03*
D11*
%TO.P,J2,2,Pin_2_2*%
%TO.N,-12V*%
X39740177Y-24727787D03*
%TO.P,J2,3,Pin_3_3*%
%TO.N,GND*%
X42280177Y-27267787D03*
%TO.P,J2,4,Pin_4_4*%
X42280177Y-24727787D03*
%TO.P,J2,5,Pin_5_5*%
%TO.N,5V*%
X44820177Y-27267787D03*
%TO.P,J2,6,Pin_6_6*%
%TO.N,unconnected-(J2-Pin_6-Pad6)*%
X44820177Y-24727787D03*
%TD*%
D12*
%TO.P,R9,1*%
%TO.N,Net-(SW7-B)*%
X36243338Y-148256669D03*
%TO.P,R9,2*%
%TO.N,Net-(J10-Pin_1)*%
X26083338Y-148256669D03*
%TD*%
D17*
%TO.P,J24,1,Pin_1_1*%
%TO.N,Net-(J12-Pin_12)*%
X24500000Y-108471102D03*
%TD*%
%TO.P,J11,1,Pin_1_1*%
%TO.N,Net-(J11-Pin_1)*%
X97325000Y-156364938D03*
%TD*%
D12*
%TO.P,R16,1*%
%TO.N,Net-(C10-Pad2)*%
X38432170Y-142145196D03*
%TO.P,R16,2*%
%TO.N,Net-(U1D--)*%
X48592170Y-142145196D03*
%TD*%
D13*
%TO.P,SW13,1,C_1*%
%TO.N,Net-(J12-Pin_5)*%
X85575000Y-133746133D03*
%TO.P,SW13,2,B_2*%
%TO.N,Net-(SW13-B)*%
X85575000Y-129246133D03*
%TO.P,SW13,3,A_3*%
%TO.N,unconnected-(SW13-A-Pad3)*%
X85575000Y-124746133D03*
%TD*%
D12*
%TO.P,C2,1*%
%TO.N,Net-(C2-Pad1)*%
X70747637Y-56084715D03*
%TO.P,C2,2*%
%TO.N,Net-(C2-Pad2)*%
X75747637Y-56084715D03*
%TD*%
D14*
%TO.P,RV1,1,1_1*%
%TO.N,GND*%
X48700000Y-53542787D03*
D15*
%TO.P,RV1,2,2_2*%
%TO.N,Net-(C1-Pad1)*%
X51200000Y-53542787D03*
%TO.P,RV1,3,3_3*%
%TO.N,Net-(SW1-B)*%
X53700000Y-53542787D03*
D16*
%TO.P,RV1,MP*%
%TO.N,N/C*%
X46800000Y-46542787D03*
X55600000Y-46542787D03*
%TD*%
D12*
%TO.P,R1,1*%
%TO.N,Net-(C1-Pad2)*%
X45920000Y-59253771D03*
%TO.P,R1,2*%
%TO.N,Net-(U1D--)*%
X56080000Y-59253771D03*
%TD*%
D14*
%TO.P,RV12,1,1_1*%
%TO.N,GND*%
X68200000Y-136767787D03*
D15*
%TO.P,RV12,2,2_2*%
%TO.N,Net-(C12-Pad1)*%
X70700000Y-136767787D03*
%TO.P,RV12,3,3_3*%
%TO.N,Net-(SW13-B)*%
X73200000Y-136767787D03*
D16*
%TO.P,RV12,MP*%
%TO.N,N/C*%
X66300000Y-129767787D03*
X75100000Y-129767787D03*
%TD*%
D14*
%TO.P,RV2,1,1_1*%
%TO.N,GND*%
X68200000Y-53542787D03*
D15*
%TO.P,RV2,2,2_2*%
%TO.N,Net-(C2-Pad1)*%
X70700000Y-53542787D03*
%TO.P,RV2,3,3_3*%
%TO.N,Net-(SW2-B)*%
X73200000Y-53542787D03*
D16*
%TO.P,RV2,MP*%
%TO.N,N/C*%
X66300000Y-46542787D03*
X75100000Y-46542787D03*
%TD*%
D12*
%TO.P,R13,1*%
%TO.N,Net-(SW8-B)*%
X85836535Y-148180275D03*
%TO.P,R13,2*%
%TO.N,Net-(J11-Pin_1)*%
X95996535Y-148180275D03*
%TD*%
D14*
%TO.P,RV8,1,1_1*%
%TO.N,Net-(U1C--)*%
X68200000Y-163815000D03*
D15*
%TO.P,RV8,2,2_2*%
%TO.N,Net-(R11-Pad1)*%
X70700000Y-163815000D03*
%TO.P,RV8,3,3_3*%
%TO.N,unconnected-(RV8-Pad3)*%
X73200000Y-163815000D03*
D16*
%TO.P,RV8,MP*%
%TO.N,N/C*%
X66300000Y-156815000D03*
X75100000Y-156815000D03*
%TD*%
D14*
%TO.P,RV6,1,1_1*%
%TO.N,GND*%
X68200000Y-74355287D03*
D15*
%TO.P,RV6,2,2_2*%
%TO.N,Net-(C4-Pad1)*%
X70700000Y-74355287D03*
%TO.P,RV6,3,3_3*%
%TO.N,Net-(SW4-B)*%
X73200000Y-74355287D03*
D16*
%TO.P,RV6,MP*%
%TO.N,N/C*%
X66300000Y-67355287D03*
X75100000Y-67355287D03*
%TD*%
D12*
%TO.P,C9,1*%
%TO.N,Net-(C9-Pad1)*%
X51151093Y-118876994D03*
%TO.P,C9,2*%
%TO.N,Net-(C9-Pad2)*%
X46151093Y-118876994D03*
%TD*%
%TO.P,R10,1*%
%TO.N,Net-(U1B--)*%
X73493625Y-145154714D03*
%TO.P,R10,2*%
%TO.N,Net-(SW8-C)*%
X83653625Y-145154714D03*
%TD*%
D17*
%TO.P,J31,1,Pin_1_1*%
%TO.N,Net-(J12-Pin_5)*%
X97314421Y-129271071D03*
%TD*%
D12*
%TO.P,R2,1*%
%TO.N,Net-(C2-Pad2)*%
X75580000Y-59267787D03*
%TO.P,R2,2*%
%TO.N,Net-(U1C--)*%
X65420000Y-59267787D03*
%TD*%
D14*
%TO.P,RV4,1,1_1*%
%TO.N,GND*%
X48700000Y-74355287D03*
D15*
%TO.P,RV4,2,2_2*%
%TO.N,Net-(C3-Pad1)*%
X51200000Y-74355287D03*
%TO.P,RV4,3,3_3*%
%TO.N,Net-(SW3-B)*%
X53700000Y-74355287D03*
D16*
%TO.P,RV4,MP*%
%TO.N,N/C*%
X46800000Y-67355287D03*
X55600000Y-67355287D03*
%TD*%
%TO.N,12V*%
D20*
X60955000Y-147810000D02*
X60955000Y-150420000D01*
X59855000Y-138855000D02*
X59855000Y-146710000D01*
X58740177Y-137740177D02*
X59855000Y-138855000D01*
X59855000Y-146710000D02*
X60955000Y-147810000D01*
X60955000Y-150420000D02*
X61000000Y-150465000D01*
X58740177Y-27283287D02*
X58740177Y-137740177D01*
%TO.N,-12V*%
X60955000Y-140190000D02*
X60955000Y-137510000D01*
X59875000Y-136390000D02*
X59875000Y-28133208D01*
X60955000Y-137510000D02*
X60975000Y-137490000D01*
X59875000Y-28133208D02*
X59890177Y-28118031D01*
X59890177Y-28118031D02*
X59890177Y-25893287D01*
X60975000Y-137490000D02*
X59875000Y-136390000D01*
X59890177Y-25893287D02*
X58740177Y-24743287D01*
%TO.N,GND*%
X61000000Y-155465000D02*
X58415000Y-152880000D01*
X42280177Y-24727787D02*
X43430177Y-23577787D01*
X58415000Y-140190000D02*
X58415000Y-147810000D01*
X58540000Y-168215000D02*
X61000000Y-165755000D01*
X68200000Y-53542787D02*
X68200000Y-74355287D01*
X60975000Y-132490000D02*
X63495000Y-135010000D01*
X48700000Y-33687610D02*
X48700000Y-53542787D01*
X43430177Y-23577787D02*
X60114677Y-23577787D01*
X68200000Y-95167787D02*
X68200000Y-115967818D01*
X63495000Y-140190000D02*
X63495000Y-147810000D01*
X62445677Y-23577787D02*
X79210177Y-23577787D01*
X68200000Y-74355287D02*
X68200000Y-95167787D01*
X61000000Y-155465000D02*
X63495000Y-152970000D01*
X42280177Y-27267787D02*
X48700000Y-33687610D01*
X42280177Y-24727787D02*
X42280177Y-27267787D01*
X68200000Y-115967818D02*
X68200000Y-136767787D01*
X61000000Y-165755000D02*
X61000000Y-155465000D01*
X61280177Y-24743287D02*
X61280177Y-27283287D01*
X63495000Y-152970000D02*
X63495000Y-147810000D01*
X58415000Y-152880000D02*
X58415000Y-147810000D01*
X80360177Y-24727787D02*
X80360177Y-27267787D01*
X60114677Y-23577787D02*
X61280177Y-24743287D01*
X61280177Y-24743287D02*
X62445677Y-23577787D01*
X63495000Y-135010000D02*
X63495000Y-140190000D01*
X79210177Y-23577787D02*
X80360177Y-24727787D01*
%TO.N,Net-(C7-Pad2)*%
X75699591Y-97897524D02*
X75699591Y-100879023D01*
X75699591Y-100879023D02*
X75703302Y-100882734D01*
%TO.N,Net-(U1C--)*%
X65537727Y-121529384D02*
X64500000Y-122567111D01*
X72393625Y-147106375D02*
X68200000Y-151300000D01*
X73456823Y-141966069D02*
X70580754Y-139090000D01*
X64500000Y-138655000D02*
X66035000Y-140190000D01*
X68200000Y-151300000D02*
X68200000Y-163815000D01*
X65543302Y-100882734D02*
X64500000Y-99839432D01*
X65537727Y-121529384D02*
X64500000Y-120491657D01*
X64500000Y-122567111D02*
X64500000Y-138655000D01*
X64500000Y-79008613D02*
X64500000Y-60187787D01*
X64500000Y-120491657D02*
X64500000Y-101926036D01*
X64500000Y-101926036D02*
X65543302Y-100882734D01*
X70580754Y-139090000D02*
X67135000Y-139090000D01*
X65556614Y-80065227D02*
X64500000Y-79008613D01*
X73456823Y-141966069D02*
X72393625Y-143029267D01*
X64500000Y-81121841D02*
X65556614Y-80065227D01*
X64500000Y-60187787D02*
X65420000Y-59267787D01*
X67135000Y-139090000D02*
X66035000Y-140190000D01*
X64500000Y-99839432D02*
X64500000Y-81121841D01*
X72393625Y-143029267D02*
X72393625Y-147106375D01*
%TO.N,Net-(R11-Pad1)*%
X70700000Y-150997282D02*
X70700000Y-163815000D01*
X73482283Y-148214999D02*
X70700000Y-150997282D01*
%TO.N,Net-(U1B--)*%
X83642283Y-148214999D02*
X76553910Y-148214999D01*
X76553910Y-148214999D02*
X73493625Y-145154714D01*
%TO.N,Net-(SW7-B)*%
X54276830Y-175240000D02*
X48401830Y-169365000D01*
X36243338Y-148256669D02*
X34200000Y-150300007D01*
X38550000Y-165500000D02*
X38550000Y-158515000D01*
X64225000Y-175240000D02*
X54276830Y-175240000D01*
X70700000Y-181715000D02*
X64225000Y-175240000D01*
X48401830Y-169365000D02*
X42415000Y-169365000D01*
X36375000Y-156340000D02*
X38570000Y-156340000D01*
X34200000Y-154165000D02*
X36375000Y-156340000D01*
X38570000Y-156340000D02*
X42500000Y-152410000D01*
X34200000Y-150300007D02*
X34200000Y-154165000D01*
X42415000Y-169365000D02*
X38550000Y-165500000D01*
X38550000Y-158515000D02*
X36375000Y-156340000D01*
%TO.N,Net-(SW8-B)*%
X85836535Y-148180275D02*
X87750000Y-150093740D01*
X83400000Y-165975000D02*
X83400000Y-158515000D01*
X76660000Y-172715000D02*
X83400000Y-165975000D01*
X87750000Y-154165000D02*
X85575000Y-156340000D01*
X70700000Y-172715000D02*
X76660000Y-172715000D01*
X87750000Y-150093740D02*
X87750000Y-154165000D01*
X83400000Y-158515000D02*
X85575000Y-156340000D01*
%TO.N,Net-(C3-Pad2)*%
X46200000Y-79837787D02*
X45920000Y-80117787D01*
X46200000Y-77117787D02*
X46200000Y-79837787D01*
%TO.N,Net-(C6-Pad2)*%
X46199672Y-97741770D02*
X46199672Y-100727608D01*
X46199672Y-100727608D02*
X46208717Y-100736653D01*
%TO.N,Net-(C11-Pad1)*%
X70700000Y-115967818D02*
X70700000Y-118583957D01*
X70700000Y-118583957D02*
X70716821Y-118600778D01*
%TO.N,Net-(C11-Pad2)*%
X75716821Y-118600778D02*
X75716821Y-121510290D01*
X75716821Y-121510290D02*
X75697727Y-121529384D01*
%TO.N,Net-(J12-Pin_12)*%
X24500000Y-108471102D02*
X31899938Y-108471102D01*
X31899938Y-108471102D02*
X36375000Y-112946164D01*
%TO.N,Net-(SW10-B)*%
X36375000Y-108446164D02*
X45096654Y-117167818D01*
X45096654Y-117167818D02*
X52500000Y-117167818D01*
X52500000Y-117167818D02*
X53700000Y-115967818D01*
%TO.N,Net-(J12-Pin_4)*%
X90050062Y-108471102D02*
X85575000Y-112946164D01*
X97325000Y-108471102D02*
X90050062Y-108471102D01*
%TO.N,Net-(SW12-B)*%
X80721654Y-108446164D02*
X73200000Y-115967818D01*
X85575000Y-108446164D02*
X80721654Y-108446164D01*
%TO.N,Net-(SW11-B)*%
X36375000Y-129246133D02*
X45128867Y-138000000D01*
X45128867Y-138000000D02*
X52467787Y-138000000D01*
X52467787Y-138000000D02*
X53700000Y-136767787D01*
%TO.N,Net-(C1-Pad2)*%
X46200000Y-56142787D02*
X46200000Y-58973771D01*
X46200000Y-58973771D02*
X45920000Y-59253771D01*
%TO.N,Net-(C12-Pad2)*%
X85902985Y-141982734D02*
X83633488Y-141982734D01*
X83633488Y-141982734D02*
X83616823Y-141966069D01*
%TO.N,Net-(C10-Pad2)*%
X36249702Y-142126567D02*
X38413541Y-142126567D01*
X38413541Y-142126567D02*
X38432170Y-142145196D01*
%TO.N,Net-(SW7-C)*%
X52675432Y-147150432D02*
X39545807Y-147150432D01*
X39545807Y-147150432D02*
X38445807Y-148250432D01*
X53335000Y-147810000D02*
X52675432Y-147150432D01*
%TO.N,Net-(J12-Pin_14)*%
X24625000Y-66842756D02*
X31862469Y-66842756D01*
X31862469Y-66842756D02*
X36375000Y-71355287D01*
%TO.N,Net-(J12-Pin_13)*%
X28975062Y-92117787D02*
X36375000Y-92117787D01*
X24500000Y-87642725D02*
X28975062Y-92117787D01*
%TO.N,Net-(J12-Pin_7)*%
X49530000Y-168691346D02*
X49530000Y-167738654D01*
X54688654Y-173850000D02*
X49530000Y-168691346D01*
X44361346Y-162570000D02*
X42500000Y-162570000D01*
X49530000Y-167738654D02*
X44361346Y-162570000D01*
X56135000Y-173850000D02*
X54688654Y-173850000D01*
%TO.N,Net-(J1-Pin_1)*%
X31825000Y-46042787D02*
X36375000Y-50592787D01*
X24625000Y-46042787D02*
X31825000Y-46042787D01*
%TO.N,Net-(C12-Pad1)*%
X70700000Y-136767787D02*
X71900000Y-137967787D01*
X71900000Y-137967787D02*
X86888038Y-137967787D01*
X86888038Y-137967787D02*
X90902985Y-141982734D01*
%TO.N,Net-(U1D--)*%
X56080000Y-80117787D02*
X57400000Y-81437787D01*
X57400000Y-120640989D02*
X56293092Y-121747897D01*
X48592170Y-142145196D02*
X53919804Y-142145196D01*
X57400000Y-101767936D02*
X57400000Y-120640989D01*
X56080000Y-59253771D02*
X57400000Y-60573771D01*
X56293092Y-121747897D02*
X57400000Y-122854805D01*
X57400000Y-99705370D02*
X56368717Y-100736653D01*
X53919804Y-142145196D02*
X55875000Y-140190000D01*
X57400000Y-81437787D02*
X57400000Y-99705370D01*
X57400000Y-78797787D02*
X56080000Y-80117787D01*
X57400000Y-122854805D02*
X57400000Y-138665000D01*
X56368717Y-100736653D02*
X57400000Y-101767936D01*
X57400000Y-60573771D02*
X57400000Y-78797787D01*
X57400000Y-138665000D02*
X55875000Y-140190000D01*
%TO.N,Net-(C7-Pad1)*%
X70700000Y-97897115D02*
X70699591Y-97897524D01*
X70700000Y-95167787D02*
X70700000Y-97897115D01*
%TO.N,Net-(SW6-B)*%
X80750000Y-87617787D02*
X73200000Y-95167787D01*
X85575000Y-87617787D02*
X80750000Y-87617787D01*
%TO.N,Net-(J12-Pin_11)*%
X31899938Y-129271071D02*
X36375000Y-133746133D01*
X24500000Y-129271071D02*
X31899938Y-129271071D01*
%TO.N,Net-(J12-Pin_2)*%
X92812469Y-71355287D02*
X85575000Y-71355287D01*
X97325000Y-66842756D02*
X92812469Y-71355287D01*
%TO.N,Net-(SW4-B)*%
X85575000Y-66855287D02*
X80700000Y-66855287D01*
X80700000Y-66855287D02*
X73200000Y-74355287D01*
%TO.N,Net-(U1A--)*%
X54775000Y-148910000D02*
X49265375Y-148910000D01*
X49265375Y-148910000D02*
X48605807Y-148250432D01*
X55875000Y-147810000D02*
X54775000Y-148910000D01*
%TO.N,Net-(R8-Pad1)*%
X48810000Y-140190000D02*
X43860296Y-145139704D01*
X43860296Y-145139704D02*
X38429625Y-145139704D01*
X53335000Y-140190000D02*
X48810000Y-140190000D01*
%TO.N,Net-(J10-Pin_1)*%
X26083338Y-148256669D02*
X26083338Y-154781600D01*
X26083338Y-154781600D02*
X24500000Y-156364938D01*
%TO.N,Net-(SW5-B)*%
X45257213Y-96500000D02*
X52367787Y-96500000D01*
X52367787Y-96500000D02*
X53700000Y-95167787D01*
X36375000Y-87617787D02*
X45257213Y-96500000D01*
%TO.N,Net-(J12-Pin_3)*%
X97325000Y-87642725D02*
X90050062Y-87642725D01*
X90050062Y-87642725D02*
X85575000Y-92117787D01*
%TO.N,Net-(J12-Pin_1)*%
X90125000Y-46042787D02*
X85575000Y-50592787D01*
X97325000Y-46042787D02*
X90125000Y-46042787D01*
%TO.N,Net-(J12-Pin_5)*%
X97314421Y-129271071D02*
X92839359Y-133746133D01*
X92839359Y-133746133D02*
X85575000Y-133746133D01*
%TO.N,Net-(J11-Pin_1)*%
X95996535Y-155036473D02*
X97325000Y-156364938D01*
X95996535Y-148180275D02*
X95996535Y-155036473D01*
%TO.N,Net-(SW3-B)*%
X45075000Y-75555287D02*
X52500000Y-75555287D01*
X52500000Y-75555287D02*
X53700000Y-74355287D01*
X36375000Y-66855287D02*
X45075000Y-75555287D01*
%TO.N,Net-(SW2-B)*%
X80650000Y-46092787D02*
X73200000Y-53542787D01*
X85575000Y-46092787D02*
X80650000Y-46092787D01*
%TO.N,Net-(C4-Pad1)*%
X70700000Y-74355287D02*
X70700000Y-77067787D01*
%TO.N,Net-(C4-Pad2)*%
X75700000Y-77067787D02*
X75700000Y-80048613D01*
X75700000Y-80048613D02*
X75716614Y-80065227D01*
%TO.N,Net-(SW1-B)*%
X36375000Y-46092787D02*
X45025000Y-54742787D01*
X52500000Y-54742787D02*
X53700000Y-53542787D01*
X45025000Y-54742787D02*
X52500000Y-54742787D01*
%TO.N,Net-(C9-Pad2)*%
X46151093Y-118876994D02*
X46151093Y-121729896D01*
X46151093Y-121729896D02*
X46133092Y-121747897D01*
%TO.N,Net-(SW13-B)*%
X85575000Y-129246133D02*
X80721654Y-129246133D01*
X80721654Y-129246133D02*
X73200000Y-136767787D01*
%TO.N,Net-(C2-Pad1)*%
X70747637Y-56084715D02*
X70747637Y-53590424D01*
X70747637Y-53590424D02*
X70700000Y-53542787D01*
%TO.N,Net-(C2-Pad2)*%
X75747637Y-59100150D02*
X75580000Y-59267787D01*
X75747637Y-56084715D02*
X75747637Y-59100150D01*
%TD*%
M02*
