M48
; DRILL file KiCad 10.0.3 date 2026-07-04T09:18:57
; FORMAT={-:-/ absolute / metric / decimal}
; #@! TF.CreationDate,2026-07-04T09:18:57+10:00
; #@! TF.GenerationSoftware,Kicad,Pcbnew,10.0.3
; #@! TF.FileFunction,Plated,1,2,PTH
FMAT,2
METRIC
; #@! TA.AperFunction,Plated,PTH,ComponentDrill
T1C0.800
; #@! TA.AperFunction,Plated,PTH,ComponentDrill
T2C1.000
; #@! TA.AperFunction,Plated,PTH,ComponentDrill
T3C1.800
; #@! TA.AperFunction,Plated,PTH,ComponentDrill
T4C6.000
%
G90
G05
T1
X26.083Y-148.257
X31.25Y-142.127
X36.243Y-148.257
X36.25Y-142.127
X38.43Y-145.14
X38.432Y-142.145
X38.446Y-148.25
X42.5Y-152.41
X42.5Y-162.57
X45.92Y-59.254
X45.92Y-80.118
X46.133Y-121.748
X46.151Y-118.877
X46.2Y-97.742
X46.2Y-56.143
X46.2Y-77.118
X46.209Y-100.737
X48.59Y-145.14
X48.592Y-142.145
X48.606Y-148.25
X51.151Y-118.877
X51.2Y-97.742
X51.2Y-56.143
X51.2Y-77.118
X53.335Y-140.19
X53.335Y-147.81
X55.875Y-140.19
X55.875Y-147.81
X56.08Y-59.254
X56.08Y-80.118
X56.293Y-121.748
X56.369Y-100.737
X58.415Y-140.19
X58.415Y-147.81
X60.955Y-140.19
X60.955Y-147.81
X60.975Y-132.49
X60.975Y-137.49
X61.0Y-150.465
X61.0Y-155.465
X63.495Y-140.19
X63.495Y-147.81
X64.5Y-172.555
X64.5Y-182.715
X65.42Y-59.268
X65.538Y-121.529
X65.543Y-100.883
X65.557Y-80.065
X66.035Y-140.19
X66.035Y-147.81
X68.575Y-140.19
X68.575Y-147.81
X70.7Y-97.898
X70.7Y-77.068
X70.717Y-118.601
X70.748Y-56.085
X73.457Y-141.966
X73.482Y-148.215
X73.494Y-145.155
X75.58Y-59.268
X75.698Y-121.529
X75.7Y-97.898
X75.7Y-77.068
X75.703Y-100.883
X75.717Y-80.065
X75.717Y-118.601
X75.748Y-56.085
X83.617Y-141.966
X83.642Y-148.215
X83.654Y-145.155
X85.837Y-148.18
X85.903Y-141.983
X90.903Y-141.983
X95.997Y-148.18
T2
X39.74Y-24.728
X39.74Y-27.268
X42.28Y-24.728
X42.28Y-27.268
X43.3Y-168.215
X44.82Y-24.728
X44.82Y-27.268
X45.84Y-168.215
X48.38Y-168.215
X48.7Y-53.543
X48.7Y-74.355
X48.7Y-95.168
X48.7Y-115.968
X48.7Y-136.768
X48.7Y-163.815
X50.92Y-168.215
X51.2Y-53.543
X51.2Y-74.355
X51.2Y-95.168
X51.2Y-115.968
X51.2Y-136.768
X51.2Y-163.815
X53.46Y-168.215
X53.7Y-53.543
X53.7Y-74.355
X53.7Y-95.168
X53.7Y-115.968
X53.7Y-136.768
X53.7Y-163.815
X56.0Y-168.215
X56.135Y-173.85
X56.135Y-176.39
X56.135Y-178.93
X56.135Y-181.47
X58.54Y-168.215
X58.74Y-24.743
X58.74Y-27.283
X61.08Y-168.215
X61.28Y-24.743
X61.28Y-27.283
X63.62Y-168.215
X63.82Y-24.743
X63.82Y-27.283
X66.16Y-168.215
X68.2Y-53.543
X68.2Y-74.355
X68.2Y-95.168
X68.2Y-115.968
X68.2Y-136.768
X68.2Y-163.815
X68.7Y-168.215
X70.7Y-53.543
X70.7Y-74.355
X70.7Y-95.168
X70.7Y-115.968
X70.7Y-136.768
X70.7Y-163.815
X71.24Y-168.215
X73.2Y-53.543
X73.2Y-74.355
X73.2Y-95.168
X73.2Y-115.968
X73.2Y-136.768
X73.2Y-163.815
X73.78Y-168.215
X76.32Y-168.215
X77.82Y-24.728
X77.82Y-27.268
X78.86Y-168.215
X80.36Y-24.728
X80.36Y-27.268
X82.9Y-24.728
X82.9Y-27.268
T4
X24.5Y-87.643
X24.5Y-108.471
X24.5Y-129.271
X24.5Y-156.365
X24.625Y-46.043
X24.625Y-66.843
X97.314Y-129.271
X97.325Y-46.043
X97.325Y-66.843
X97.325Y-87.643
X97.325Y-108.471
X97.325Y-156.365
T2
G00X35.5Y-41.593
M15
G01X37.25Y-41.593
M16
G05
G00X35.5Y-46.093
M15
G01X37.25Y-46.093
M16
G05
G00X35.5Y-50.593
M15
G01X37.25Y-50.593
M16
G05
G00X35.5Y-62.355
M15
G01X37.25Y-62.355
M16
G05
G00X35.5Y-66.855
M15
G01X37.25Y-66.855
M16
G05
G00X35.5Y-71.355
M15
G01X37.25Y-71.355
M16
G05
G00X35.5Y-83.118
M15
G01X37.25Y-83.118
M16
G05
G00X35.5Y-87.618
M15
G01X37.25Y-87.618
M16
G05
G00X35.5Y-92.118
M15
G01X37.25Y-92.118
M16
G05
G00X35.5Y-103.946
M15
G01X37.25Y-103.946
M16
G05
G00X35.5Y-108.446
M15
G01X37.25Y-108.446
M16
G05
G00X35.5Y-112.946
M15
G01X37.25Y-112.946
M16
G05
G00X35.5Y-124.746
M15
G01X37.25Y-124.746
M16
G05
G00X35.5Y-129.246
M15
G01X37.25Y-129.246
M16
G05
G00X35.5Y-133.746
M15
G01X37.25Y-133.746
M16
G05
G00X35.5Y-151.84
M15
G01X37.25Y-151.84
M16
G05
G00X35.5Y-156.34
M15
G01X37.25Y-156.34
M16
G05
G00X35.5Y-160.84
M15
G01X37.25Y-160.84
M16
G05
G00X69.825Y-172.715
M15
G01X71.575Y-172.715
M16
G05
G00X69.825Y-177.215
M15
G01X71.575Y-177.215
M16
G05
G00X69.825Y-181.715
M15
G01X71.575Y-181.715
M16
G05
G00X84.7Y-41.593
M15
G01X86.45Y-41.593
M16
G05
G00X84.7Y-46.093
M15
G01X86.45Y-46.093
M16
G05
G00X84.7Y-50.593
M15
G01X86.45Y-50.593
M16
G05
G00X84.7Y-62.355
M15
G01X86.45Y-62.355
M16
G05
G00X84.7Y-66.855
M15
G01X86.45Y-66.855
M16
G05
G00X84.7Y-71.355
M15
G01X86.45Y-71.355
M16
G05
G00X84.7Y-83.118
M15
G01X86.45Y-83.118
M16
G05
G00X84.7Y-87.618
M15
G01X86.45Y-87.618
M16
G05
G00X84.7Y-92.118
M15
G01X86.45Y-92.118
M16
G05
G00X84.7Y-103.946
M15
G01X86.45Y-103.946
M16
G05
G00X84.7Y-108.446
M15
G01X86.45Y-108.446
M16
G05
G00X84.7Y-112.946
M15
G01X86.45Y-112.946
M16
G05
G00X84.7Y-124.746
M15
G01X86.45Y-124.746
M16
G05
G00X84.7Y-129.246
M15
G01X86.45Y-129.246
M16
G05
G00X84.7Y-133.746
M15
G01X86.45Y-133.746
M16
G05
G00X84.7Y-151.84
M15
G01X86.45Y-151.84
M16
G05
G00X84.7Y-156.34
M15
G01X86.45Y-156.34
M16
G05
G00X84.7Y-160.84
M15
G01X86.45Y-160.84
M16
G05
T3
G00X46.8Y-46.693
M15
G01X46.8Y-46.393
M16
G05
G00X46.8Y-67.505
M15
G01X46.8Y-67.205
M16
G05
G00X46.8Y-88.318
M15
G01X46.8Y-88.018
M16
G05
G00X46.8Y-109.118
M15
G01X46.8Y-108.818
M16
G05
G00X46.8Y-129.918
M15
G01X46.8Y-129.618
M16
G05
G00X46.8Y-156.965
M15
G01X46.8Y-156.665
M16
G05
G00X55.6Y-46.693
M15
G01X55.6Y-46.393
M16
G05
G00X55.6Y-67.505
M15
G01X55.6Y-67.205
M16
G05
G00X55.6Y-88.318
M15
G01X55.6Y-88.018
M16
G05
G00X55.6Y-109.118
M15
G01X55.6Y-108.818
M16
G05
G00X55.6Y-129.918
M15
G01X55.6Y-129.618
M16
G05
G00X55.6Y-156.965
M15
G01X55.6Y-156.665
M16
G05
G00X66.3Y-46.693
M15
G01X66.3Y-46.393
M16
G05
G00X66.3Y-67.505
M15
G01X66.3Y-67.205
M16
G05
G00X66.3Y-88.318
M15
G01X66.3Y-88.018
M16
G05
G00X66.3Y-109.118
M15
G01X66.3Y-108.818
M16
G05
G00X66.3Y-129.918
M15
G01X66.3Y-129.618
M16
G05
G00X66.3Y-156.965
M15
G01X66.3Y-156.665
M16
G05
G00X75.1Y-46.693
M15
G01X75.1Y-46.393
M16
G05
G00X75.1Y-67.505
M15
G01X75.1Y-67.205
M16
G05
G00X75.1Y-88.318
M15
G01X75.1Y-88.018
M16
G05
G00X75.1Y-109.118
M15
G01X75.1Y-108.818
M16
G05
G00X75.1Y-129.918
M15
G01X75.1Y-129.618
M16
G05
G00X75.1Y-156.965
M15
G01X75.1Y-156.665
M16
G05
M30
