%TF.GenerationSoftware,KiCad,Pcbnew,10.0.3*%
%TF.CreationDate,2026-07-04T09:18:55+10:00*%
%TF.ProjectId,audio-mixer,61756469-6f2d-46d6-9978-65722e6b6963,rev?*%
%TF.SameCoordinates,Original*%
%TF.FileFunction,Soldermask,Bot*%
%TF.FilePolarity,Negative*%
%FSLAX46Y46*%
G04 Gerber Fmt 4.6, Leading zero omitted, Abs format (unit mm)*
G04 Created by KiCad (PCBNEW 10.0.3) date 2026-07-04 09:18:55*
%MOMM*%
%LPD*%
G01*
G04 APERTURE LIST*
G04 Aperture macros list*
%AMRoundRect*
0 Rectangle with rounded corners*
0 $1 Rounding radius*
0 $2 $3 $4 $5 $6 $7 $8 $9 X,Y pos of 4 corners*
0 Add a 4 corners polygon primitive as box body*
4,1,4,$2,$3,$4,$5,$6,$7,$8,$9,$2,$3,0*
0 Add four circle primitives for the rounded corners*
1,1,$1+$1,$2,$3*
1,1,$1+$1,$4,$5*
1,1,$1+$1,$6,$7*
1,1,$1+$1,$8,$9*
0 Add four rect primitives between the rounded corners*
20,1,$1+$1,$2,$3,$4,$5,0*
20,1,$1+$1,$4,$5,$6,$7,0*
20,1,$1+$1,$6,$7,$8,$9,0*
20,1,$1+$1,$8,$9,$2,$3,0*%
G04 Aperture macros list end*
%ADD10RoundRect,0.250000X0.600000X-0.600000X0.600000X0.600000X-0.600000X0.600000X-0.600000X-0.600000X0*%
%ADD11C,1.700000*%
%ADD12C,1.600000*%
%ADD13C,3.200000*%
%ADD14O,3.750000X2.000000*%
%ADD15R,1.800000X1.800000*%
%ADD16C,1.800000*%
%ADD17RoundRect,0.750000X0.750000X-1.250000X0.750000X1.250000X-0.750000X1.250000X-0.750000X-1.250000X0*%
%ADD18C,8.000000*%
%ADD19R,1.700000X1.700000*%
%ADD20RoundRect,0.250000X0.550000X-0.550000X0.550000X0.550000X-0.550000X0.550000X-0.550000X-0.550000X0*%
G04 APERTURE END LIST*
D10*
%TO.C,J3*%
X58740177Y-27283287D03*
D11*
X58740177Y-24743287D03*
X61280177Y-27283287D03*
X61280177Y-24743287D03*
X63820177Y-27283287D03*
X63820177Y-24743287D03*
%TD*%
D12*
%TO.C,R12*%
X75703302Y-100882734D03*
X65543302Y-100882734D03*
%TD*%
D13*
%TO.C,REF\u002A\u002A*%
X97700000Y-181715000D03*
%TD*%
D12*
%TO.C,C5*%
X60975000Y-132490000D03*
X60975000Y-137490000D03*
%TD*%
%TO.C,R11*%
X73482283Y-148214999D03*
X83642283Y-148214999D03*
%TD*%
D14*
%TO.C,SW9*%
X70700000Y-181715000D03*
X70700000Y-177215000D03*
X70700000Y-172715000D03*
%TD*%
D12*
%TO.C,C3*%
X51200000Y-77117787D03*
X46200000Y-77117787D03*
%TD*%
%TO.C,C6*%
X51199672Y-97741770D03*
X46199672Y-97741770D03*
%TD*%
%TO.C,C11*%
X70716821Y-118600778D03*
X75716821Y-118600778D03*
%TD*%
D14*
%TO.C,SW10*%
X36375000Y-112946164D03*
X36375000Y-108446164D03*
X36375000Y-103946164D03*
%TD*%
%TO.C,SW12*%
X85575000Y-112946164D03*
X85575000Y-108446164D03*
X85575000Y-103946164D03*
%TD*%
D15*
%TO.C,RV10*%
X48700000Y-136767787D03*
D16*
X51200000Y-136767787D03*
X53700000Y-136767787D03*
D17*
X46800000Y-129767787D03*
X55600000Y-129767787D03*
%TD*%
D12*
%TO.C,C1*%
X51200000Y-56142787D03*
X46200000Y-56142787D03*
%TD*%
%TO.C,R18*%
X83616823Y-141966069D03*
X73456823Y-141966069D03*
%TD*%
%TO.C,C10*%
X31249702Y-142126567D03*
X36249702Y-142126567D03*
%TD*%
D14*
%TO.C,SW7*%
X36375000Y-160840000D03*
X36375000Y-156340000D03*
X36375000Y-151840000D03*
%TD*%
D18*
%TO.C,J6*%
X24625000Y-66842756D03*
%TD*%
%TO.C,J8*%
X24500000Y-87642725D03*
%TD*%
D13*
%TO.C,REF\u002A\u002A*%
X24500000Y-98031976D03*
%TD*%
D11*
%TO.C,J13*%
X56135000Y-176390000D03*
X56135000Y-178930000D03*
X56135000Y-181470000D03*
D19*
X56135000Y-173850000D03*
%TD*%
D18*
%TO.C,J1*%
X24625000Y-46042787D03*
%TD*%
D12*
%TO.C,C8*%
X61000000Y-155465000D03*
X61000000Y-150465000D03*
%TD*%
D15*
%TO.C,RV9*%
X48700000Y-115967818D03*
D16*
X51200000Y-115967818D03*
X53700000Y-115967818D03*
D17*
X46800000Y-108967818D03*
X55600000Y-108967818D03*
%TD*%
D12*
%TO.C,C12*%
X90902985Y-141982734D03*
X85902985Y-141982734D03*
%TD*%
%TO.C,R3*%
X45920000Y-80117787D03*
X56080000Y-80117787D03*
%TD*%
%TO.C,R14*%
X64500000Y-172555000D03*
X64500000Y-182715000D03*
%TD*%
D15*
%TO.C,RV5*%
X68200000Y-95167787D03*
D16*
X70700000Y-95167787D03*
X73200000Y-95167787D03*
D17*
X66300000Y-88167787D03*
X75100000Y-88167787D03*
%TD*%
D14*
%TO.C,SW11*%
X36375000Y-133746133D03*
X36375000Y-129246133D03*
X36375000Y-124746133D03*
%TD*%
D13*
%TO.C,REF\u002A\u002A*%
X24625000Y-35767787D03*
%TD*%
D14*
%TO.C,SW4*%
X85575000Y-71355287D03*
X85575000Y-66855287D03*
X85575000Y-62355287D03*
%TD*%
D20*
%TO.C,U1*%
X53335000Y-147810000D03*
D12*
X55875000Y-147810000D03*
X58415000Y-147810000D03*
X60955000Y-147810000D03*
X63495000Y-147810000D03*
X66035000Y-147810000D03*
X68575000Y-147810000D03*
X68575000Y-140190000D03*
X66035000Y-140190000D03*
X63495000Y-140190000D03*
X60955000Y-140190000D03*
X58415000Y-140190000D03*
X55875000Y-140190000D03*
X53335000Y-140190000D03*
%TD*%
D18*
%TO.C,J25*%
X24500000Y-129271071D03*
%TD*%
%TO.C,J10*%
X24500000Y-156364938D03*
%TD*%
D15*
%TO.C,RV3*%
X48700000Y-95167787D03*
D16*
X51200000Y-95167787D03*
X53700000Y-95167787D03*
D17*
X46800000Y-88167787D03*
X55600000Y-88167787D03*
%TD*%
D14*
%TO.C,SW8*%
X85575000Y-160840000D03*
X85575000Y-156340000D03*
X85575000Y-151840000D03*
%TD*%
D18*
%TO.C,J9*%
X97325000Y-87642725D03*
%TD*%
D12*
%TO.C,R17*%
X75697727Y-121529384D03*
X65537727Y-121529384D03*
%TD*%
D19*
%TO.C,J12*%
X78860000Y-168215000D03*
D11*
X76320000Y-168215000D03*
X73780000Y-168215000D03*
X71240000Y-168215000D03*
X68700000Y-168215000D03*
X66160000Y-168215000D03*
X63620000Y-168215000D03*
X61080000Y-168215000D03*
X58540000Y-168215000D03*
X56000000Y-168215000D03*
X53460000Y-168215000D03*
X50920000Y-168215000D03*
X48380000Y-168215000D03*
X45840000Y-168215000D03*
X43300000Y-168215000D03*
%TD*%
D14*
%TO.C,SW3*%
X36375000Y-71355287D03*
X36375000Y-66855287D03*
X36375000Y-62355287D03*
%TD*%
D13*
%TO.C,REF\u002A\u002A*%
X97325000Y-35767787D03*
%TD*%
D14*
%TO.C,SW2*%
X85575000Y-50592787D03*
X85575000Y-46092787D03*
X85575000Y-41592787D03*
%TD*%
D18*
%TO.C,J7*%
X97325000Y-66842756D03*
%TD*%
D14*
%TO.C,SW6*%
X85575000Y-92117787D03*
X85575000Y-87617787D03*
X85575000Y-83117787D03*
%TD*%
D12*
%TO.C,C7*%
X70699591Y-97897524D03*
X75699591Y-97897524D03*
%TD*%
D18*
%TO.C,J5*%
X97325000Y-46042787D03*
%TD*%
D12*
%TO.C,C4*%
X70700000Y-77067787D03*
X75700000Y-77067787D03*
%TD*%
%TO.C,R6*%
X42500000Y-152410000D03*
X42500000Y-162570000D03*
%TD*%
D14*
%TO.C,SW1*%
X36375000Y-50592787D03*
X36375000Y-46092787D03*
X36375000Y-41592787D03*
%TD*%
D12*
%TO.C,R15*%
X46133092Y-121747897D03*
X56293092Y-121747897D03*
%TD*%
D14*
%TO.C,SW5*%
X36375000Y-92117787D03*
X36375000Y-87617787D03*
X36375000Y-83117787D03*
%TD*%
D15*
%TO.C,RV7*%
X48700000Y-163815000D03*
D16*
X51200000Y-163815000D03*
X53700000Y-163815000D03*
D17*
X46800000Y-156815000D03*
X55600000Y-156815000D03*
%TD*%
D18*
%TO.C,J30*%
X97325000Y-108471102D03*
%TD*%
D12*
%TO.C,R5*%
X46208717Y-100736653D03*
X56368717Y-100736653D03*
%TD*%
D10*
%TO.C,J4*%
X77820177Y-27267787D03*
D11*
X77820177Y-24727787D03*
X80360177Y-27267787D03*
X80360177Y-24727787D03*
X82900177Y-27267787D03*
X82900177Y-24727787D03*
%TD*%
D12*
%TO.C,R7*%
X48605807Y-148250432D03*
X38445807Y-148250432D03*
%TD*%
D15*
%TO.C,RV11*%
X68200000Y-115967818D03*
D16*
X70700000Y-115967818D03*
X73200000Y-115967818D03*
D17*
X66300000Y-108967818D03*
X75100000Y-108967818D03*
%TD*%
D12*
%TO.C,R4*%
X75716614Y-80065227D03*
X65556614Y-80065227D03*
%TD*%
%TO.C,R8*%
X38429625Y-145139704D03*
X48589625Y-145139704D03*
%TD*%
D10*
%TO.C,J2*%
X39740177Y-27267787D03*
D11*
X39740177Y-24727787D03*
X42280177Y-27267787D03*
X42280177Y-24727787D03*
X44820177Y-27267787D03*
X44820177Y-24727787D03*
%TD*%
D12*
%TO.C,R9*%
X36243338Y-148256669D03*
X26083338Y-148256669D03*
%TD*%
D18*
%TO.C,J24*%
X24500000Y-108471102D03*
%TD*%
D13*
%TO.C,REF\u002A\u002A*%
X97325000Y-98031976D03*
%TD*%
D18*
%TO.C,J11*%
X97325000Y-156364938D03*
%TD*%
D12*
%TO.C,R16*%
X38432170Y-142145196D03*
X48592170Y-142145196D03*
%TD*%
D13*
%TO.C,REF\u002A\u002A*%
X25000000Y-181715000D03*
%TD*%
D14*
%TO.C,SW13*%
X85575000Y-133746133D03*
X85575000Y-129246133D03*
X85575000Y-124746133D03*
%TD*%
D12*
%TO.C,C2*%
X70747637Y-56084715D03*
X75747637Y-56084715D03*
%TD*%
D15*
%TO.C,RV1*%
X48700000Y-53542787D03*
D16*
X51200000Y-53542787D03*
X53700000Y-53542787D03*
D17*
X46800000Y-46542787D03*
X55600000Y-46542787D03*
%TD*%
D12*
%TO.C,R1*%
X45920000Y-59253771D03*
X56080000Y-59253771D03*
%TD*%
D15*
%TO.C,RV12*%
X68200000Y-136767787D03*
D16*
X70700000Y-136767787D03*
X73200000Y-136767787D03*
D17*
X66300000Y-129767787D03*
X75100000Y-129767787D03*
%TD*%
D15*
%TO.C,RV2*%
X68200000Y-53542787D03*
D16*
X70700000Y-53542787D03*
X73200000Y-53542787D03*
D17*
X66300000Y-46542787D03*
X75100000Y-46542787D03*
%TD*%
D12*
%TO.C,R13*%
X85836535Y-148180275D03*
X95996535Y-148180275D03*
%TD*%
D15*
%TO.C,RV8*%
X68200000Y-163815000D03*
D16*
X70700000Y-163815000D03*
X73200000Y-163815000D03*
D17*
X66300000Y-156815000D03*
X75100000Y-156815000D03*
%TD*%
D15*
%TO.C,RV6*%
X68200000Y-74355287D03*
D16*
X70700000Y-74355287D03*
X73200000Y-74355287D03*
D17*
X66300000Y-67355287D03*
X75100000Y-67355287D03*
%TD*%
D12*
%TO.C,C9*%
X51151093Y-118876994D03*
X46151093Y-118876994D03*
%TD*%
%TO.C,R10*%
X73493625Y-145154714D03*
X83653625Y-145154714D03*
%TD*%
D18*
%TO.C,J31*%
X97314421Y-129271071D03*
%TD*%
D12*
%TO.C,R2*%
X75580000Y-59267787D03*
X65420000Y-59267787D03*
%TD*%
D15*
%TO.C,RV4*%
X48700000Y-74355287D03*
D16*
X51200000Y-74355287D03*
X53700000Y-74355287D03*
D17*
X46800000Y-67355287D03*
X55600000Y-67355287D03*
%TD*%
M02*
