M48
; DRILL file {KiCad 9.0.6} date 2026-05-22T00:00:36+1000
; FORMAT={-:-/ absolute / metric / decimal}
; #@! TF.CreationDate,2026-05-22T00:00:36+10:00
; #@! TF.GenerationSoftware,Kicad,Pcbnew,9.0.6
; #@! TF.FileFunction,Plated,1,2,PTH
FMAT,2
METRIC
; #@! TA.AperFunction,Plated,PTH,ComponentDrill
T1C1.000
; #@! TA.AperFunction,Plated,PTH,ComponentDrill
T2C6.000
%
G90
G05
T1
X24.687Y-313.451
X24.687Y-315.991
X24.937Y-263.421
X24.937Y-265.961
X43.926Y-313.451
X43.926Y-315.991
X44.14Y-263.421
X44.14Y-265.961
X59.042Y-344.192
X61.582Y-344.192
X63.164Y-313.451
X63.164Y-315.991
X63.342Y-263.421
X63.342Y-265.961
X64.122Y-344.192
X66.662Y-344.192
X69.202Y-344.192
X71.742Y-344.192
X74.282Y-344.192
X76.822Y-344.192
X79.362Y-344.192
X81.902Y-344.192
X82.402Y-313.451
X82.402Y-315.991
X82.545Y-263.421
X82.545Y-265.961
X84.442Y-344.192
X86.982Y-344.192
X89.522Y-344.192
X92.062Y-344.192
X94.602Y-344.192
X97.142Y-344.192
X99.682Y-344.192
X101.64Y-313.451
X101.64Y-315.991
X101.747Y-263.421
X101.747Y-265.961
X102.222Y-344.192
X104.762Y-344.192
X107.302Y-344.192
X109.842Y-344.192
X112.382Y-344.192
X114.922Y-344.192
X117.462Y-344.192
X120.002Y-344.192
X120.878Y-313.451
X120.878Y-315.991
X120.95Y-263.421
X120.95Y-265.961
X122.542Y-344.192
X125.082Y-344.192
X127.622Y-344.192
X130.162Y-344.192
X132.702Y-344.192
X135.242Y-344.192
X137.782Y-344.192
X140.116Y-313.451
X140.116Y-315.991
X140.152Y-263.421
X140.152Y-265.961
X140.322Y-344.192
X142.862Y-344.192
X159.355Y-263.421
X159.355Y-265.961
X159.355Y-313.451
X159.355Y-315.991
T2
X32.121Y-253.456
X32.165Y-303.59
X51.389Y-253.456
X51.599Y-303.59
X70.656Y-253.456
X71.033Y-303.59
X89.923Y-253.456
X90.468Y-303.59
X109.19Y-253.456
X109.902Y-303.59
X128.457Y-253.456
X129.336Y-303.59
X147.724Y-253.456
X148.771Y-303.59
X166.991Y-253.456
X168.205Y-303.59
X168.917Y-201.649
M30
