%TF.GenerationSoftware,KiCad,Pcbnew,9.0.6*%
%TF.CreationDate,2026-05-22T00:00:34+10:00*%
%TF.ProjectId,gate-sequencer,67617465-2d73-4657-9175-656e6365722e,rev?*%
%TF.SameCoordinates,Original*%
%TF.FileFunction,Copper,L2,Bot*%
%TF.FilePolarity,Positive*%
%FSLAX46Y46*%
G04 Gerber Fmt 4.6, Leading zero omitted, Abs format (unit mm)*
G04 Created by KiCad (PCBNEW 9.0.6) date 2026-05-22 00:00:34*
%MOMM*%
%LPD*%
G01*
G04 APERTURE LIST*
%TA.AperFunction,ComponentPad*%
%ADD10C,8.000000*%
%TD*%
%TA.AperFunction,ComponentPad*%
%ADD11R,1.700000X1.700000*%
%TD*%
%TA.AperFunction,ComponentPad*%
%ADD12C,1.700000*%
%TD*%
%TA.AperFunction,Conductor*%
%ADD13C,0.200000*%
%TD*%
G04 APERTURE END LIST*
D10*
%TO.P,J22,1,Pin_1*%
%TO.N,Net-(J22-Pin_1)*%
X168917490Y-201649337D03*
%TD*%
%TO.P,J40,1,Pin_1*%
%TO.N,Net-(J40-Pin_1)*%
X32164802Y-303590140D03*
%TD*%
D11*
%TO.P,J24,1,Pin_1*%
%TO.N,Net-(J24-Pin_1)*%
X24937490Y-263420865D03*
D12*
%TO.P,J24,2,Pin_2*%
%TO.N,Net-(J24-Pin_2)*%
X24937490Y-265960865D03*
%TD*%
D11*
%TO.P,J52,1,Pin_1*%
%TO.N,Net-(J52-Pin_1)*%
X159354651Y-313450871D03*
D12*
%TO.P,J52,2,Pin_2*%
%TO.N,Net-(J24-Pin_2)*%
X159354651Y-315990871D03*
%TD*%
D10*
%TO.P,J44,1,Pin_1*%
%TO.N,Net-(J44-Pin_1)*%
X71033373Y-303590140D03*
%TD*%
D11*
%TO.P,J32,1,Pin_1*%
%TO.N,Net-(J32-Pin_1)*%
X101747296Y-263420865D03*
D12*
%TO.P,J32,2,Pin_2*%
%TO.N,Net-(J24-Pin_2)*%
X101747296Y-265960865D03*
%TD*%
D10*
%TO.P,J37,1,Pin_1*%
%TO.N,Net-(J37-Pin_1)*%
X147724242Y-253456469D03*
%TD*%
D11*
%TO.P,J41,1,Pin_1*%
%TO.N,Net-(J41-Pin_1)*%
X43925610Y-313450871D03*
D12*
%TO.P,J41,2,Pin_2*%
%TO.N,Net-(J24-Pin_2)*%
X43925610Y-315990871D03*
%TD*%
D10*
%TO.P,J47,1,Pin_1*%
%TO.N,Net-(J47-Pin_1)*%
X109901945Y-303590140D03*
%TD*%
D11*
%TO.P,J27,1,Pin_1*%
%TO.N,Net-(J27-Pin_1)*%
X63342393Y-263420865D03*
D12*
%TO.P,J27,2,Pin_2*%
%TO.N,Net-(J24-Pin_2)*%
X63342393Y-265960865D03*
%TD*%
D10*
%TO.P,J34,1,Pin_1*%
%TO.N,Net-(J34-Pin_1)*%
X128457099Y-253456469D03*
%TD*%
D11*
%TO.P,J36,1,Pin_1*%
%TO.N,Net-(J36-Pin_1)*%
X140152199Y-263420865D03*
D12*
%TO.P,J36,2,Pin_2*%
%TO.N,Net-(J24-Pin_2)*%
X140152199Y-265960865D03*
%TD*%
D11*
%TO.P,J26,1,Pin_1*%
%TO.N,Net-(J26-Pin_1)*%
X44139942Y-263420865D03*
D12*
%TO.P,J26,2,Pin_2*%
%TO.N,Net-(J24-Pin_2)*%
X44139942Y-265960865D03*
%TD*%
D11*
%TO.P,J46,1,Pin_1*%
%TO.N,Net-(J46-Pin_1)*%
X101640130Y-313450871D03*
D12*
%TO.P,J46,2,Pin_2*%
%TO.N,Net-(J24-Pin_2)*%
X101640130Y-315990871D03*
%TD*%
D11*
%TO.P,J45,1,Pin_1*%
%TO.N,Net-(J45-Pin_1)*%
X82401957Y-313450871D03*
D12*
%TO.P,J45,2,Pin_2*%
%TO.N,Net-(J24-Pin_2)*%
X82401957Y-315990871D03*
%TD*%
D11*
%TO.P,J50,1,Pin_1*%
%TO.N,Net-(J50-Pin_1)*%
X120878304Y-313450871D03*
D12*
%TO.P,J50,2,Pin_2*%
%TO.N,Net-(J24-Pin_2)*%
X120878304Y-315990871D03*
%TD*%
D10*
%TO.P,J38,1,Pin_1*%
%TO.N,Net-(J38-Pin_1)*%
X166991385Y-253456469D03*
%TD*%
%TO.P,J31,1,Pin_1*%
%TO.N,Net-(J31-Pin_1)*%
X109189956Y-253456469D03*
%TD*%
%TO.P,J30,1,Pin_1*%
%TO.N,Net-(J30-Pin_1)*%
X89922814Y-253456469D03*
%TD*%
%TO.P,J49,1,Pin_1*%
%TO.N,Net-(J49-Pin_1)*%
X129336231Y-303590140D03*
%TD*%
%TO.P,J48,1,Pin_1*%
%TO.N,Net-(J48-Pin_1)*%
X90467659Y-303590140D03*
%TD*%
D11*
%TO.P,J33,1,Pin_1*%
%TO.N,Net-(J33-Pin_1)*%
X120949748Y-263420865D03*
D12*
%TO.P,J33,2,Pin_2*%
%TO.N,Net-(J24-Pin_2)*%
X120949748Y-265960865D03*
%TD*%
D11*
%TO.P,J35,1,Pin_1*%
%TO.N,Net-(J35-Pin_1)*%
X159354651Y-263420865D03*
D12*
%TO.P,J35,2,Pin_2*%
%TO.N,Net-(J24-Pin_2)*%
X159354651Y-265960865D03*
%TD*%
D11*
%TO.P,J53,1,Pin_1*%
%TO.N,Net-(J53-Pin_1)*%
X140116477Y-313450871D03*
D12*
%TO.P,J53,2,Pin_2*%
%TO.N,Net-(J24-Pin_2)*%
X140116477Y-315990871D03*
%TD*%
D11*
%TO.P,J43,1,Pin_1*%
%TO.N,Net-(J43-Pin_1)*%
X63163783Y-313450871D03*
D12*
%TO.P,J43,2,Pin_2*%
%TO.N,Net-(J24-Pin_2)*%
X63163783Y-315990871D03*
%TD*%
D10*
%TO.P,J29,1,Pin_1*%
%TO.N,Net-(J29-Pin_1)*%
X70655671Y-253456469D03*
%TD*%
D11*
%TO.P,J39,1,Pin_1*%
%TO.N,Net-(J39-Pin_1)*%
X24687436Y-313450871D03*
D12*
%TO.P,J39,2,Pin_2*%
%TO.N,Net-(J24-Pin_2)*%
X24687436Y-315990871D03*
%TD*%
D11*
%TO.P,J55,1,Pin_1*%
%TO.N,Net-(J23-Pin_1)*%
X59041848Y-344192497D03*
D12*
%TO.P,J55,2,Pin_2*%
%TO.N,Net-(J24-Pin_1)*%
X61581848Y-344192497D03*
%TO.P,J55,3,Pin_3*%
%TO.N,Net-(J40-Pin_1)*%
X64121848Y-344192497D03*
%TO.P,J55,4,Pin_4*%
%TO.N,Net-(J39-Pin_1)*%
X66661848Y-344192497D03*
%TO.P,J55,5,Pin_5*%
%TO.N,Net-(J25-Pin_1)*%
X69201848Y-344192497D03*
%TO.P,J55,6,Pin_6*%
%TO.N,Net-(J26-Pin_1)*%
X71741848Y-344192497D03*
%TO.P,J55,7,Pin_7*%
%TO.N,Net-(J42-Pin_1)*%
X74281848Y-344192497D03*
%TO.P,J55,8,Pin_8*%
%TO.N,Net-(J41-Pin_1)*%
X76821848Y-344192497D03*
%TO.P,J55,9,Pin_9*%
%TO.N,Net-(J29-Pin_1)*%
X79361848Y-344192497D03*
%TO.P,J55,10,Pin_10*%
%TO.N,Net-(J27-Pin_1)*%
X81901848Y-344192497D03*
%TO.P,J55,11,Pin_11*%
%TO.N,Net-(J44-Pin_1)*%
X84441848Y-344192497D03*
%TO.P,J55,12,Pin_12*%
%TO.N,Net-(J43-Pin_1)*%
X86981848Y-344192497D03*
%TO.P,J55,13,Pin_13*%
%TO.N,Net-(J30-Pin_1)*%
X89521848Y-344192497D03*
%TO.P,J55,14,Pin_14*%
%TO.N,Net-(J28-Pin_1)*%
X92061848Y-344192497D03*
%TO.P,J55,15,Pin_15*%
%TO.N,Net-(J48-Pin_1)*%
X94601848Y-344192497D03*
%TO.P,J55,16,Pin_16*%
%TO.N,Net-(J45-Pin_1)*%
X97141848Y-344192497D03*
%TO.P,J55,17,Pin_17*%
%TO.N,Net-(J31-Pin_1)*%
X99681848Y-344192497D03*
%TO.P,J55,18,Pin_18*%
%TO.N,Net-(J32-Pin_1)*%
X102221848Y-344192497D03*
%TO.P,J55,19,Pin_19*%
%TO.N,Net-(J47-Pin_1)*%
X104761848Y-344192497D03*
%TO.P,J55,20,Pin_20*%
%TO.N,Net-(J46-Pin_1)*%
X107301848Y-344192497D03*
%TO.P,J55,21,Pin_21*%
%TO.N,Net-(J34-Pin_1)*%
X109841848Y-344192497D03*
%TO.P,J55,22,Pin_22*%
%TO.N,Net-(J33-Pin_1)*%
X112381848Y-344192497D03*
%TO.P,J55,23,Pin_23*%
%TO.N,Net-(J49-Pin_1)*%
X114921848Y-344192497D03*
%TO.P,J55,24,Pin_24*%
%TO.N,Net-(J50-Pin_1)*%
X117461848Y-344192497D03*
%TO.P,J55,25,Pin_25*%
%TO.N,Net-(J37-Pin_1)*%
X120001848Y-344192497D03*
%TO.P,J55,26,Pin_26*%
%TO.N,Net-(J36-Pin_1)*%
X122541848Y-344192497D03*
%TO.P,J55,27,Pin_27*%
%TO.N,Net-(J51-Pin_1)*%
X125081848Y-344192497D03*
%TO.P,J55,28,Pin_28*%
%TO.N,Net-(J53-Pin_1)*%
X127621848Y-344192497D03*
%TO.P,J55,29,Pin_29*%
%TO.N,Net-(J38-Pin_1)*%
X130161848Y-344192497D03*
%TO.P,J55,30,Pin_30*%
%TO.N,Net-(J35-Pin_1)*%
X132701848Y-344192497D03*
%TO.P,J55,31,Pin_31*%
%TO.N,Net-(J54-Pin_1)*%
X135241848Y-344192497D03*
%TO.P,J55,32,Pin_32*%
%TO.N,Net-(J52-Pin_1)*%
X137781848Y-344192497D03*
%TO.P,J55,33,Pin_33*%
%TO.N,Net-(J22-Pin_1)*%
X140321848Y-344192497D03*
%TO.P,J55,34,Pin_34*%
%TO.N,Net-(J24-Pin_2)*%
X142861848Y-344192497D03*
%TD*%
D10*
%TO.P,J54,1,Pin_1*%
%TO.N,Net-(J54-Pin_1)*%
X168204802Y-303590140D03*
%TD*%
D11*
%TO.P,J28,1,Pin_1*%
%TO.N,Net-(J28-Pin_1)*%
X82544845Y-263420865D03*
D12*
%TO.P,J28,2,Pin_2*%
%TO.N,Net-(J24-Pin_2)*%
X82544845Y-265960865D03*
%TD*%
D10*
%TO.P,J42,1,Pin_1*%
%TO.N,Net-(J42-Pin_1)*%
X51599088Y-303590140D03*
%TD*%
%TO.P,J23,1,Pin_1*%
%TO.N,Net-(J23-Pin_1)*%
X32121385Y-253456469D03*
%TD*%
%TO.P,J25,1,Pin_1*%
%TO.N,Net-(J25-Pin_1)*%
X51388528Y-253456469D03*
%TD*%
%TO.P,J51,1,Pin_1*%
%TO.N,Net-(J51-Pin_1)*%
X148770516Y-303590140D03*
%TD*%
D13*
%TO.N,Net-(J24-Pin_1)*%
X33902918Y-249155469D02*
X30339852Y-249155469D01*
%TO.N,Net-(J36-Pin_1)*%
X174035089Y-346145497D02*
X124494848Y-346145497D01*
%TO.N,Net-(J24-Pin_1)*%
X30600886Y-257757469D02*
X33902918Y-257757469D01*
%TO.N,Net-(J36-Pin_1)*%
X178583638Y-258966189D02*
X178583638Y-341596948D01*
%TO.N,Net-(J31-Pin_1)*%
X174865589Y-348150497D02*
X103639848Y-348150497D01*
%TO.N,Net-(J27-Pin_1)*%
X79146848Y-346947497D02*
X81901848Y-344192497D01*
%TO.N,Net-(J30-Pin_1)*%
X19231550Y-257428271D02*
X19231550Y-341929974D01*
%TO.N,Net-(J27-Pin_1)*%
X63342393Y-263420865D02*
X66773808Y-263420865D01*
%TO.N,Net-(J30-Pin_1)*%
X29509352Y-247150469D02*
X19231550Y-257428271D01*
%TO.N,Net-(J27-Pin_1)*%
X19726550Y-257500371D02*
X19726550Y-341857874D01*
%TO.N,Net-(J29-Pin_1)*%
X65151671Y-247952469D02*
X29841552Y-247952469D01*
%TO.N,Net-(J24-Pin_2)*%
X45925817Y-317991078D02*
X61163576Y-317991078D01*
X167454382Y-307891140D02*
X169986335Y-307891140D01*
%TO.N,Net-(J29-Pin_1)*%
X24982273Y-346546497D02*
X77007848Y-346546497D01*
%TO.N,Net-(J24-Pin_2)*%
X44139942Y-265960865D02*
X46179257Y-268000180D01*
%TO.N,Net-(J26-Pin_1)*%
X55689528Y-255238002D02*
X55689528Y-251674936D01*
%TO.N,Net-(J27-Pin_1)*%
X74956671Y-251674936D02*
X70833204Y-247551469D01*
%TO.N,Net-(J31-Pin_1)*%
X109189956Y-253456469D02*
X115495956Y-247150469D01*
%TO.N,Net-(J26-Pin_1)*%
X55689528Y-251674936D02*
X52368061Y-248353469D01*
%TO.N,Net-(J30-Pin_1)*%
X83616814Y-247150469D02*
X29509352Y-247150469D01*
%TO.N,Net-(J26-Pin_1)*%
X44139942Y-263420865D02*
X49803338Y-257757469D01*
%TO.N,Net-(J30-Pin_1)*%
X86365848Y-347348497D02*
X89521848Y-344192497D01*
%TO.N,Net-(J24-Pin_2)*%
X99639923Y-317991078D02*
X101640130Y-315990871D01*
%TO.N,Net-(J34-Pin_1)*%
X169271218Y-247952469D02*
X179786638Y-258467889D01*
%TO.N,Net-(J29-Pin_1)*%
X29841552Y-247952469D02*
X20127550Y-257666471D01*
%TO.N,Net-(J38-Pin_1)*%
X166991385Y-253456469D02*
X178182638Y-264647722D01*
%TO.N,Net-(J33-Pin_1)*%
X174367289Y-346947497D02*
X115136848Y-346947497D01*
%TO.N,Net-(J24-Pin_2)*%
X138112884Y-268000180D02*
X140152199Y-265960865D01*
%TO.N,Net-(J33-Pin_1)*%
X122957597Y-261413016D02*
X128716328Y-261413016D01*
%TO.N,Net-(J28-Pin_1)*%
X94223814Y-255238002D02*
X94223814Y-251674936D01*
%TO.N,Net-(J24-Pin_2)*%
X177332550Y-321229455D02*
X177332550Y-341146736D01*
X65163990Y-317991078D02*
X80401750Y-317991078D01*
%TO.N,Net-(J23-Pin_1)*%
X21731550Y-263846304D02*
X21731550Y-341027374D01*
%TO.N,Net-(J24-Pin_2)*%
X177380638Y-300496837D02*
X177380638Y-271291360D01*
%TO.N,Net-(J23-Pin_1)*%
X21731550Y-341027374D02*
X24896673Y-344192497D01*
%TO.N,Net-(J24-Pin_2)*%
X80505530Y-268000180D02*
X82544845Y-265960865D01*
%TO.N,Net-(J23-Pin_1)*%
X32121385Y-253456469D02*
X21731550Y-263846304D01*
%TO.N,Net-(J24-Pin_2)*%
X157315336Y-268000180D02*
X159354651Y-265960865D01*
%TO.N,Net-(J32-Pin_1)*%
X174699489Y-347749497D02*
X105778848Y-347749497D01*
%TO.N,Net-(J24-Pin_2)*%
X103640337Y-317991078D02*
X118878097Y-317991078D01*
%TO.N,Net-(J35-Pin_1)*%
X132701848Y-344192497D02*
X133852848Y-345343497D01*
%TO.N,Net-(J36-Pin_1)*%
X124494848Y-346145497D02*
X122541848Y-344192497D01*
%TO.N,Net-(J28-Pin_1)*%
X88504848Y-347749497D02*
X92061848Y-344192497D01*
%TO.N,Net-(J36-Pin_1)*%
X168772918Y-249155469D02*
X178583638Y-258966189D01*
%TO.N,Net-(J28-Pin_1)*%
X82544845Y-263420865D02*
X86040951Y-263420865D01*
%TO.N,Net-(J36-Pin_1)*%
X178583638Y-341596948D02*
X174035089Y-346145497D01*
%TO.N,Net-(J24-Pin_2)*%
X61303078Y-268000180D02*
X63342393Y-265960865D01*
%TO.N,Net-(J28-Pin_1)*%
X89298347Y-246749469D02*
X29343252Y-246749469D01*
%TO.N,Net-(J24-Pin_2)*%
X84981774Y-268397794D02*
X99310367Y-268397794D01*
%TO.N,Net-(J35-Pin_1)*%
X161362500Y-261413016D02*
X159354651Y-263420865D01*
X133852848Y-345343497D02*
X173702889Y-345343497D01*
X168377785Y-261413016D02*
X161362500Y-261413016D01*
%TO.N,Net-(J32-Pin_1)*%
X105778848Y-347749497D02*
X102221848Y-344192497D01*
%TO.N,Net-(J34-Pin_1)*%
X179786638Y-342095248D02*
X174533389Y-347348497D01*
%TO.N,Net-(J33-Pin_1)*%
X141775875Y-248353469D02*
X169105118Y-248353469D01*
%TO.N,Net-(J28-Pin_1)*%
X86040951Y-263420865D02*
X94223814Y-255238002D01*
%TO.N,Net-(J24-Pin_2)*%
X99310367Y-268397794D02*
X101747296Y-265960865D01*
X157354444Y-317991078D02*
X159354651Y-315990871D01*
X142116684Y-317991078D02*
X157354444Y-317991078D01*
%TO.N,Net-(J26-Pin_1)*%
X52368061Y-248353469D02*
X30007652Y-248353469D01*
%TO.N,Net-(J24-Pin_2)*%
X63342393Y-265960865D02*
X65381708Y-268000180D01*
X24687436Y-315990871D02*
X26687643Y-317991078D01*
%TO.N,Net-(J34-Pin_1)*%
X174533389Y-347348497D02*
X112997848Y-347348497D01*
%TO.N,Net-(J24-Pin_2)*%
X174286789Y-344192497D02*
X142861848Y-344192497D01*
%TO.N,Net-(J34-Pin_1)*%
X133961099Y-247952469D02*
X169271218Y-247952469D01*
%TO.N,Net-(J38-Pin_1)*%
X178182638Y-264647722D02*
X178182638Y-341430848D01*
%TO.N,Net-(J33-Pin_1)*%
X169105118Y-248353469D02*
X179385638Y-258633989D01*
%TO.N,Net-(J32-Pin_1)*%
X169437318Y-247551469D02*
X180187638Y-258301789D01*
%TO.N,Net-(J35-Pin_1)*%
X173702889Y-345343497D02*
X177781638Y-341264748D01*
%TO.N,Net-(J27-Pin_1)*%
X66773808Y-263420865D02*
X74956671Y-255238002D01*
%TO.N,Net-(J24-Pin_2)*%
X61163576Y-317991078D02*
X63163783Y-315990871D01*
%TO.N,Net-(J32-Pin_1)*%
X101747296Y-263420865D02*
X107410692Y-257757469D01*
%TO.N,Net-(J27-Pin_1)*%
X74956671Y-255238002D02*
X74956671Y-251674936D01*
%TO.N,Net-(J24-Pin_2)*%
X164241177Y-320877397D02*
X176980492Y-320877397D01*
%TO.N,Net-(J37-Pin_1)*%
X178984638Y-258800089D02*
X178984638Y-341763048D01*
%TO.N,Net-(J26-Pin_1)*%
X69788848Y-346145497D02*
X71741848Y-344192497D01*
%TO.N,Net-(J38-Pin_1)*%
X173868989Y-345744497D02*
X131713848Y-345744497D01*
%TO.N,Net-(J24-Pin_2)*%
X169986335Y-307891140D02*
X177380638Y-300496837D01*
X138116270Y-317991078D02*
X140116477Y-315990871D01*
%TO.N,Net-(J28-Pin_1)*%
X29343252Y-246749469D02*
X18731550Y-257361171D01*
%TO.N,Net-(J29-Pin_1)*%
X20127550Y-257666471D02*
X20127550Y-341691774D01*
%TO.N,Net-(J24-Pin_2)*%
X24937490Y-265960865D02*
X26976805Y-268000180D01*
%TO.N,Net-(J24-Pin_1)*%
X36422385Y-255238002D02*
X36422385Y-251674936D01*
%TO.N,Net-(J24-Pin_2)*%
X118878097Y-317991078D02*
X120878304Y-315990871D01*
%TO.N,Net-(J25-Pin_1)*%
X20929550Y-257998671D02*
X20929550Y-341359574D01*
%TO.N,Net-(J26-Pin_1)*%
X49803338Y-257757469D02*
X53170061Y-257757469D01*
%TO.N,Net-(J31-Pin_1)*%
X169603418Y-247150469D02*
X180588638Y-258135689D01*
%TO.N,Net-(J37-Pin_1)*%
X174201189Y-346546497D02*
X122355848Y-346546497D01*
%TO.N,Net-(J25-Pin_1)*%
X51388528Y-253456469D02*
X46686528Y-248754469D01*
%TO.N,Net-(J24-Pin_2)*%
X120878304Y-315990871D02*
X122878511Y-317991078D01*
X26976805Y-268000180D02*
X42100627Y-268000180D01*
%TO.N,Net-(J36-Pin_1)*%
X145815595Y-257757469D02*
X156607852Y-257757469D01*
%TO.N,Net-(J37-Pin_1)*%
X122355848Y-346546497D02*
X120001848Y-344192497D01*
%TO.N,Net-(J24-Pin_2)*%
X140116477Y-315990871D02*
X142116684Y-317991078D01*
%TO.N,Net-(J28-Pin_1)*%
X18731550Y-257361171D02*
X18731550Y-341997074D01*
%TO.N,Net-(J27-Pin_1)*%
X29675452Y-247551469D02*
X19726550Y-257500371D01*
%TO.N,Net-(J24-Pin_2)*%
X118910433Y-268000180D02*
X120949748Y-265960865D01*
X103786611Y-268000180D02*
X118910433Y-268000180D01*
X46179257Y-268000180D02*
X61303078Y-268000180D01*
X82544845Y-265960865D02*
X84981774Y-268397794D01*
%TO.N,Net-(J26-Pin_1)*%
X20528550Y-257832571D02*
X20528550Y-341525674D01*
%TO.N,Net-(J32-Pin_1)*%
X128279566Y-247551469D02*
X169437318Y-247551469D01*
%TO.N,Net-(J35-Pin_1)*%
X177781638Y-270816869D02*
X168377785Y-261413016D01*
%TO.N,Net-(J29-Pin_1)*%
X70655671Y-253456469D02*
X65151671Y-247952469D01*
%TO.N,Net-(J24-Pin_2)*%
X174089458Y-268000180D02*
X161393966Y-268000180D01*
%TO.N,Net-(J30-Pin_1)*%
X24650073Y-347348497D02*
X86365848Y-347348497D01*
%TO.N,Net-(J28-Pin_1)*%
X18731550Y-341997074D02*
X24483973Y-347749497D01*
%TO.N,Net-(J24-Pin_2)*%
X41925403Y-317991078D02*
X43925610Y-315990871D01*
%TO.N,Net-(J28-Pin_1)*%
X24483973Y-347749497D02*
X88504848Y-347749497D01*
%TO.N,Net-(J24-Pin_2)*%
X101747296Y-265960865D02*
X103786611Y-268000180D01*
%TO.N,Net-(J29-Pin_1)*%
X20127550Y-341691774D02*
X24982273Y-346546497D01*
%TO.N,Net-(J24-Pin_2)*%
X159354651Y-315990871D02*
X167454382Y-307891140D01*
%TO.N,Net-(J29-Pin_1)*%
X77007848Y-346546497D02*
X79361848Y-344192497D01*
%TO.N,Net-(J23-Pin_1)*%
X24896673Y-344192497D02*
X59041848Y-344192497D01*
%TO.N,Net-(J24-Pin_2)*%
X122878511Y-317991078D02*
X138116270Y-317991078D01*
%TO.N,Net-(J25-Pin_1)*%
X25314473Y-345744497D02*
X67649848Y-345744497D01*
%TO.N,Net-(J24-Pin_2)*%
X177380638Y-271291360D02*
X174089458Y-268000180D01*
%TO.N,Net-(J27-Pin_1)*%
X19726550Y-341857874D02*
X24816173Y-346947497D01*
%TO.N,Net-(J36-Pin_1)*%
X165209852Y-249155469D02*
X168772918Y-249155469D01*
%TO.N,Net-(J26-Pin_1)*%
X53170061Y-257757469D02*
X55689528Y-255238002D01*
%TO.N,Net-(J36-Pin_1)*%
X156607852Y-257757469D02*
X165209852Y-249155469D01*
%TO.N,Net-(J26-Pin_1)*%
X20528550Y-341525674D02*
X25148373Y-346145497D01*
%TO.N,Net-(J36-Pin_1)*%
X140152199Y-263420865D02*
X145815595Y-257757469D01*
%TO.N,Net-(J26-Pin_1)*%
X25148373Y-346145497D02*
X69788848Y-346145497D01*
X30007652Y-248353469D02*
X20528550Y-257832571D01*
%TO.N,Net-(J37-Pin_1)*%
X152426242Y-248754469D02*
X168939018Y-248754469D01*
%TO.N,Net-(J25-Pin_1)*%
X67649848Y-345744497D02*
X69201848Y-344192497D01*
%TO.N,Net-(J24-Pin_2)*%
X42100627Y-268000180D02*
X44139942Y-265960865D01*
%TO.N,Net-(J25-Pin_1)*%
X20929550Y-341359574D02*
X25314473Y-345744497D01*
%TO.N,Net-(J24-Pin_2)*%
X120949748Y-265960865D02*
X122989063Y-268000180D01*
%TO.N,Net-(J24-Pin_1)*%
X33902918Y-257757469D02*
X36422385Y-255238002D01*
X25480573Y-345343497D02*
X60430848Y-345343497D01*
%TO.N,Net-(J24-Pin_2)*%
X82401957Y-315990871D02*
X84402164Y-317991078D01*
%TO.N,Net-(J33-Pin_1)*%
X115136848Y-346947497D02*
X112381848Y-344192497D01*
X120949748Y-263420865D02*
X122957597Y-261413016D01*
X179385638Y-258633989D02*
X179385638Y-341929148D01*
%TO.N,Net-(J38-Pin_1)*%
X178182638Y-341430848D02*
X173868989Y-345744497D01*
%TO.N,Net-(J32-Pin_1)*%
X180187638Y-258301789D02*
X180187638Y-342261348D01*
%TO.N,Net-(J34-Pin_1)*%
X179786638Y-258467889D02*
X179786638Y-342095248D01*
%TO.N,Net-(J24-Pin_2)*%
X65381708Y-268000180D02*
X80505530Y-268000180D01*
%TO.N,Net-(J32-Pin_1)*%
X107410692Y-257757469D02*
X118073566Y-257757469D01*
%TO.N,Net-(J35-Pin_1)*%
X177781638Y-341264748D02*
X177781638Y-270816869D01*
%TO.N,Net-(J25-Pin_1)*%
X46686528Y-248754469D02*
X30173752Y-248754469D01*
%TO.N,Net-(J31-Pin_1)*%
X180588638Y-342427448D02*
X174865589Y-348150497D01*
X180588638Y-258135689D02*
X180588638Y-342427448D01*
%TO.N,Net-(J37-Pin_1)*%
X168939018Y-248754469D02*
X178984638Y-258800089D01*
X147724242Y-253456469D02*
X152426242Y-248754469D01*
%TO.N,Net-(J32-Pin_1)*%
X118073566Y-257757469D02*
X128279566Y-247551469D01*
X180187638Y-342261348D02*
X174699489Y-347749497D01*
%TO.N,Net-(J33-Pin_1)*%
X128716328Y-261413016D02*
X141775875Y-248353469D01*
%TO.N,Net-(J24-Pin_1)*%
X21330550Y-258164771D02*
X21330550Y-341193474D01*
X21330550Y-341193474D02*
X25480573Y-345343497D01*
X36422385Y-251674936D02*
X33902918Y-249155469D01*
%TO.N,Net-(J24-Pin_2)*%
X140152199Y-265960865D02*
X142191514Y-268000180D01*
X122989063Y-268000180D02*
X138112884Y-268000180D01*
%TO.N,Net-(J34-Pin_1)*%
X112997848Y-347348497D02*
X109841848Y-344192497D01*
%TO.N,Net-(J28-Pin_1)*%
X94223814Y-251674936D02*
X89298347Y-246749469D01*
%TO.N,Net-(J30-Pin_1)*%
X19231550Y-341929974D02*
X24650073Y-347348497D01*
X89922814Y-253456469D02*
X83616814Y-247150469D01*
%TO.N,Net-(J34-Pin_1)*%
X128457099Y-253456469D02*
X133961099Y-247952469D01*
%TO.N,Net-(J25-Pin_1)*%
X30173752Y-248754469D02*
X20929550Y-257998671D01*
%TO.N,Net-(J31-Pin_1)*%
X103639848Y-348150497D02*
X99681848Y-344192497D01*
X115495956Y-247150469D02*
X169603418Y-247150469D01*
%TO.N,Net-(J24-Pin_2)*%
X159354651Y-315990871D02*
X164241177Y-320877397D01*
X176980492Y-320877397D02*
X177332550Y-321229455D01*
X142191514Y-268000180D02*
X157315336Y-268000180D01*
X177332550Y-341146736D02*
X174286789Y-344192497D01*
%TO.N,Net-(J37-Pin_1)*%
X178984638Y-341763048D02*
X174201189Y-346546497D01*
%TO.N,Net-(J38-Pin_1)*%
X131713848Y-345744497D02*
X130161848Y-344192497D01*
%TO.N,Net-(J27-Pin_1)*%
X24816173Y-346947497D02*
X79146848Y-346947497D01*
X70833204Y-247551469D02*
X29675452Y-247551469D01*
%TO.N,Net-(J24-Pin_2)*%
X161393966Y-268000180D02*
X159354651Y-265960865D01*
X80401750Y-317991078D02*
X82401957Y-315990871D01*
X63163783Y-315990871D02*
X65163990Y-317991078D01*
X26687643Y-317991078D02*
X41925403Y-317991078D01*
X84402164Y-317991078D02*
X99639923Y-317991078D01*
X43925610Y-315990871D02*
X45925817Y-317991078D01*
%TO.N,Net-(J24-Pin_1)*%
X30339852Y-249155469D02*
X21330550Y-258164771D01*
X24937490Y-263420865D02*
X30600886Y-257757469D01*
X60430848Y-345343497D02*
X61581848Y-344192497D01*
%TO.N,Net-(J33-Pin_1)*%
X179385638Y-341929148D02*
X174367289Y-346947497D01*
%TO.N,Net-(J24-Pin_2)*%
X101640130Y-315990871D02*
X103640337Y-317991078D01*
%TD*%
M02*
