%TF.GenerationSoftware,KiCad,Pcbnew,9.0.6*%
%TF.CreationDate,2026-05-22T00:00:34+10:00*%
%TF.ProjectId,gate-sequencer,67617465-2d73-4657-9175-656e6365722e,rev?*%
%TF.SameCoordinates,Original*%
%TF.FileFunction,Legend,Top*%
%TF.FilePolarity,Positive*%
%FSLAX46Y46*%
G04 Gerber Fmt 4.6, Leading zero omitted, Abs format (unit mm)*
G04 Created by KiCad (PCBNEW 9.0.6) date 2026-05-22 00:00:34*
%MOMM*%
%LPD*%
G01*
G04 APERTURE LIST*
%ADD10C,0.100000*%
%ADD11C,0.120000*%
G04 APERTURE END LIST*
D10*
%TO.C,J22*%
X174917490Y-201624399D02*
G75*
G02*
X162917490Y-201624399I-6000000J0D01*
G01*
X162917490Y-201624399D02*
G75*
G02*
X174917490Y-201624399I6000000J0D01*
G01*
%TO.C,J40*%
X38164802Y-303565202D02*
G75*
G02*
X26164802Y-303565202I-6000000J0D01*
G01*
X26164802Y-303565202D02*
G75*
G02*
X38164802Y-303565202I6000000J0D01*
G01*
D11*
%TO.C,J24*%
X23557490Y-262040865D02*
X24937490Y-262040865D01*
X23557490Y-263420865D02*
X23557490Y-262040865D01*
X23557490Y-264690865D02*
X23557490Y-267340865D01*
X23557490Y-264690865D02*
X26317490Y-264690865D01*
X23557490Y-267340865D02*
X26317490Y-267340865D01*
X26317490Y-264690865D02*
X26317490Y-267340865D01*
%TO.C,J52*%
X157974651Y-312070871D02*
X159354651Y-312070871D01*
X157974651Y-313450871D02*
X157974651Y-312070871D01*
X157974651Y-314720871D02*
X157974651Y-317370871D01*
X157974651Y-314720871D02*
X160734651Y-314720871D01*
X157974651Y-317370871D02*
X160734651Y-317370871D01*
X160734651Y-314720871D02*
X160734651Y-317370871D01*
D10*
%TO.C,J44*%
X77033373Y-303565202D02*
G75*
G02*
X65033373Y-303565202I-6000000J0D01*
G01*
X65033373Y-303565202D02*
G75*
G02*
X77033373Y-303565202I6000000J0D01*
G01*
D11*
%TO.C,J32*%
X100367296Y-262040865D02*
X101747296Y-262040865D01*
X100367296Y-263420865D02*
X100367296Y-262040865D01*
X100367296Y-264690865D02*
X100367296Y-267340865D01*
X100367296Y-264690865D02*
X103127296Y-264690865D01*
X100367296Y-267340865D02*
X103127296Y-267340865D01*
X103127296Y-264690865D02*
X103127296Y-267340865D01*
D10*
%TO.C,J37*%
X153724242Y-253431531D02*
G75*
G02*
X141724242Y-253431531I-6000000J0D01*
G01*
X141724242Y-253431531D02*
G75*
G02*
X153724242Y-253431531I6000000J0D01*
G01*
D11*
%TO.C,J41*%
X42545610Y-312070871D02*
X43925610Y-312070871D01*
X42545610Y-313450871D02*
X42545610Y-312070871D01*
X42545610Y-314720871D02*
X42545610Y-317370871D01*
X42545610Y-314720871D02*
X45305610Y-314720871D01*
X42545610Y-317370871D02*
X45305610Y-317370871D01*
X45305610Y-314720871D02*
X45305610Y-317370871D01*
D10*
%TO.C,J47*%
X115901945Y-303565202D02*
G75*
G02*
X103901945Y-303565202I-6000000J0D01*
G01*
X103901945Y-303565202D02*
G75*
G02*
X115901945Y-303565202I6000000J0D01*
G01*
D11*
%TO.C,J27*%
X61962393Y-262040865D02*
X63342393Y-262040865D01*
X61962393Y-263420865D02*
X61962393Y-262040865D01*
X61962393Y-264690865D02*
X61962393Y-267340865D01*
X61962393Y-264690865D02*
X64722393Y-264690865D01*
X61962393Y-267340865D02*
X64722393Y-267340865D01*
X64722393Y-264690865D02*
X64722393Y-267340865D01*
D10*
%TO.C,J34*%
X134457099Y-253431531D02*
G75*
G02*
X122457099Y-253431531I-6000000J0D01*
G01*
X122457099Y-253431531D02*
G75*
G02*
X134457099Y-253431531I6000000J0D01*
G01*
D11*
%TO.C,J36*%
X138772199Y-262040865D02*
X140152199Y-262040865D01*
X138772199Y-263420865D02*
X138772199Y-262040865D01*
X138772199Y-264690865D02*
X138772199Y-267340865D01*
X138772199Y-264690865D02*
X141532199Y-264690865D01*
X138772199Y-267340865D02*
X141532199Y-267340865D01*
X141532199Y-264690865D02*
X141532199Y-267340865D01*
%TO.C,J26*%
X42759942Y-262040865D02*
X44139942Y-262040865D01*
X42759942Y-263420865D02*
X42759942Y-262040865D01*
X42759942Y-264690865D02*
X42759942Y-267340865D01*
X42759942Y-264690865D02*
X45519942Y-264690865D01*
X42759942Y-267340865D02*
X45519942Y-267340865D01*
X45519942Y-264690865D02*
X45519942Y-267340865D01*
%TO.C,J46*%
X100260130Y-312070871D02*
X101640130Y-312070871D01*
X100260130Y-313450871D02*
X100260130Y-312070871D01*
X100260130Y-314720871D02*
X100260130Y-317370871D01*
X100260130Y-314720871D02*
X103020130Y-314720871D01*
X100260130Y-317370871D02*
X103020130Y-317370871D01*
X103020130Y-314720871D02*
X103020130Y-317370871D01*
%TO.C,J45*%
X81021957Y-312070871D02*
X82401957Y-312070871D01*
X81021957Y-313450871D02*
X81021957Y-312070871D01*
X81021957Y-314720871D02*
X81021957Y-317370871D01*
X81021957Y-314720871D02*
X83781957Y-314720871D01*
X81021957Y-317370871D02*
X83781957Y-317370871D01*
X83781957Y-314720871D02*
X83781957Y-317370871D01*
%TO.C,J50*%
X119498304Y-312070871D02*
X120878304Y-312070871D01*
X119498304Y-313450871D02*
X119498304Y-312070871D01*
X119498304Y-314720871D02*
X119498304Y-317370871D01*
X119498304Y-314720871D02*
X122258304Y-314720871D01*
X119498304Y-317370871D02*
X122258304Y-317370871D01*
X122258304Y-314720871D02*
X122258304Y-317370871D01*
D10*
%TO.C,J38*%
X172991385Y-253431531D02*
G75*
G02*
X160991385Y-253431531I-6000000J0D01*
G01*
X160991385Y-253431531D02*
G75*
G02*
X172991385Y-253431531I6000000J0D01*
G01*
%TO.C,J31*%
X115189956Y-253431531D02*
G75*
G02*
X103189956Y-253431531I-6000000J0D01*
G01*
X103189956Y-253431531D02*
G75*
G02*
X115189956Y-253431531I6000000J0D01*
G01*
%TO.C,J30*%
X95922814Y-253431531D02*
G75*
G02*
X83922814Y-253431531I-6000000J0D01*
G01*
X83922814Y-253431531D02*
G75*
G02*
X95922814Y-253431531I6000000J0D01*
G01*
%TO.C,J49*%
X135336231Y-303565202D02*
G75*
G02*
X123336231Y-303565202I-6000000J0D01*
G01*
X123336231Y-303565202D02*
G75*
G02*
X135336231Y-303565202I6000000J0D01*
G01*
%TO.C,J48*%
X96467659Y-303565202D02*
G75*
G02*
X84467659Y-303565202I-6000000J0D01*
G01*
X84467659Y-303565202D02*
G75*
G02*
X96467659Y-303565202I6000000J0D01*
G01*
D11*
%TO.C,J33*%
X119569748Y-262040865D02*
X120949748Y-262040865D01*
X119569748Y-263420865D02*
X119569748Y-262040865D01*
X119569748Y-264690865D02*
X119569748Y-267340865D01*
X119569748Y-264690865D02*
X122329748Y-264690865D01*
X119569748Y-267340865D02*
X122329748Y-267340865D01*
X122329748Y-264690865D02*
X122329748Y-267340865D01*
%TO.C,J35*%
X157974651Y-262040865D02*
X159354651Y-262040865D01*
X157974651Y-263420865D02*
X157974651Y-262040865D01*
X157974651Y-264690865D02*
X157974651Y-267340865D01*
X157974651Y-264690865D02*
X160734651Y-264690865D01*
X157974651Y-267340865D02*
X160734651Y-267340865D01*
X160734651Y-264690865D02*
X160734651Y-267340865D01*
%TO.C,J53*%
X138736477Y-312070871D02*
X140116477Y-312070871D01*
X138736477Y-313450871D02*
X138736477Y-312070871D01*
X138736477Y-314720871D02*
X138736477Y-317370871D01*
X138736477Y-314720871D02*
X141496477Y-314720871D01*
X138736477Y-317370871D02*
X141496477Y-317370871D01*
X141496477Y-314720871D02*
X141496477Y-317370871D01*
%TO.C,J43*%
X61783783Y-312070871D02*
X63163783Y-312070871D01*
X61783783Y-313450871D02*
X61783783Y-312070871D01*
X61783783Y-314720871D02*
X61783783Y-317370871D01*
X61783783Y-314720871D02*
X64543783Y-314720871D01*
X61783783Y-317370871D02*
X64543783Y-317370871D01*
X64543783Y-314720871D02*
X64543783Y-317370871D01*
D10*
%TO.C,J29*%
X76655671Y-253431531D02*
G75*
G02*
X64655671Y-253431531I-6000000J0D01*
G01*
X64655671Y-253431531D02*
G75*
G02*
X76655671Y-253431531I6000000J0D01*
G01*
D11*
%TO.C,J39*%
X23307436Y-312070871D02*
X24687436Y-312070871D01*
X23307436Y-313450871D02*
X23307436Y-312070871D01*
X23307436Y-314720871D02*
X23307436Y-317370871D01*
X23307436Y-314720871D02*
X26067436Y-314720871D01*
X23307436Y-317370871D02*
X26067436Y-317370871D01*
X26067436Y-314720871D02*
X26067436Y-317370871D01*
%TO.C,J55*%
X57661848Y-345572497D02*
X57661848Y-344192497D01*
X59041848Y-345572497D02*
X57661848Y-345572497D01*
X60311848Y-342812497D02*
X144241848Y-342812497D01*
X60311848Y-345572497D02*
X60311848Y-342812497D01*
X60311848Y-345572497D02*
X144241848Y-345572497D01*
X144241848Y-345572497D02*
X144241848Y-342812497D01*
D10*
%TO.C,J54*%
X174204802Y-303565202D02*
G75*
G02*
X162204802Y-303565202I-6000000J0D01*
G01*
X162204802Y-303565202D02*
G75*
G02*
X174204802Y-303565202I6000000J0D01*
G01*
D11*
%TO.C,J28*%
X81164845Y-262040865D02*
X82544845Y-262040865D01*
X81164845Y-263420865D02*
X81164845Y-262040865D01*
X81164845Y-264690865D02*
X81164845Y-267340865D01*
X81164845Y-264690865D02*
X83924845Y-264690865D01*
X81164845Y-267340865D02*
X83924845Y-267340865D01*
X83924845Y-264690865D02*
X83924845Y-267340865D01*
D10*
%TO.C,J42*%
X57599088Y-303565202D02*
G75*
G02*
X45599088Y-303565202I-6000000J0D01*
G01*
X45599088Y-303565202D02*
G75*
G02*
X57599088Y-303565202I6000000J0D01*
G01*
%TO.C,J23*%
X38121385Y-253431531D02*
G75*
G02*
X26121385Y-253431531I-6000000J0D01*
G01*
X26121385Y-253431531D02*
G75*
G02*
X38121385Y-253431531I6000000J0D01*
G01*
%TO.C,J25*%
X57388528Y-253431531D02*
G75*
G02*
X45388528Y-253431531I-6000000J0D01*
G01*
X45388528Y-253431531D02*
G75*
G02*
X57388528Y-253431531I6000000J0D01*
G01*
%TO.C,J51*%
X154770516Y-303565202D02*
G75*
G02*
X142770516Y-303565202I-6000000J0D01*
G01*
X142770516Y-303565202D02*
G75*
G02*
X154770516Y-303565202I6000000J0D01*
G01*
%TD*%
M02*
