%TF.GenerationSoftware,KiCad,Pcbnew,10.0.3*%
%TF.CreationDate,2026-07-04T09:42:58+10:00*%
%TF.ProjectId,audio-mixer,61756469-6f2d-46d6-9978-65722e6b6963,rev?*%
%TF.SameCoordinates,Original*%
%TF.FileFunction,Copper,L2,Bot*%
%TF.FilePolarity,Positive*%
%FSLAX46Y46*%
G04 Gerber Fmt 4.6, Leading zero omitted, Abs format (unit mm)*
G04 Created by KiCad (PCBNEW 10.0.3) date 2026-07-04 09:42:58*
%MOMM*%
%LPD*%
G01*
G04 APERTURE LIST*
%TA.AperFunction,ComponentPad*%
%ADD10C,8.000000*%
%TD*%
%TA.AperFunction,ComponentPad*%
%ADD11R,1.700000X1.700000*%
%TD*%
%TA.AperFunction,ComponentPad*%
%ADD12C,1.700000*%
%TD*%
%TA.AperFunction,Conductor*%
%ADD13C,0.200000*%
%TD*%
G04 APERTURE END LIST*
D10*
%TO.P,J21,1,Pin_1_1*%
%TO.N,Net-(J21-Pin_1)*%
X225391652Y-158361528D03*
%TD*%
%TO.P,J16,1,Pin_1_1*%
%TO.N,Net-(J16-Pin_1)*%
X152681427Y-68841650D03*
%TD*%
%TO.P,J15,1,Pin_1_1*%
%TO.N,Net-(J15-Pin_1)*%
X225400560Y-48031843D03*
%TD*%
D11*
%TO.P,J23,1,Pin_1_1*%
%TO.N,Net-(J22-Pin_7)*%
X188068138Y-181242652D03*
D12*
%TO.P,J23,2,Pin_2_2*%
%TO.N,Net-(J22-Pin_8)*%
X188068138Y-178702652D03*
%TO.P,J23,3,Pin_3_3*%
%TO.N,Net-(J22-Pin_9)*%
X188068138Y-176162652D03*
%TD*%
D10*
%TO.P,J14,1,Pin_1_1*%
%TO.N,Net-(J14-Pin_1)*%
X152709378Y-48052431D03*
%TD*%
%TO.P,J26,1,Pin_1_1*%
%TO.N,Net-(J22-Pin_12)*%
X152593166Y-110477163D03*
%TD*%
%TO.P,J29,1,Pin_1_1*%
%TO.N,Net-(J22-Pin_5)*%
X225384039Y-131284829D03*
%TD*%
%TO.P,J27,1,Pin_1_1*%
%TO.N,Net-(J22-Pin_11)*%
X152543557Y-131284829D03*
%TD*%
%TO.P,J19,1,Pin_1_1*%
%TO.N,Net-(J19-Pin_1)*%
X225397712Y-89635997D03*
%TD*%
D11*
%TO.P,J22,1,Pin_1_1*%
%TO.N,Net-(J15-Pin_1)*%
X206925676Y-170210600D03*
D12*
%TO.P,J22,2,Pin_2_2*%
%TO.N,Net-(J17-Pin_1)*%
X204385676Y-170210600D03*
%TO.P,J22,3,Pin_3_3*%
%TO.N,Net-(J19-Pin_1)*%
X201845676Y-170210600D03*
%TO.P,J22,4,Pin_4_4*%
%TO.N,Net-(J22-Pin_4)*%
X199305676Y-170210600D03*
%TO.P,J22,5,Pin_5_5*%
%TO.N,Net-(J22-Pin_5)*%
X196765676Y-170210600D03*
%TO.P,J22,6,Pin_6_6*%
%TO.N,Net-(J21-Pin_1)*%
X194225676Y-170210600D03*
%TO.P,J22,7,Pin_7_7*%
%TO.N,Net-(J22-Pin_7)*%
X191685676Y-170210600D03*
%TO.P,J22,8,Pin_8_8*%
%TO.N,Net-(J22-Pin_8)*%
X189145676Y-170210600D03*
%TO.P,J22,9,Pin_9_9*%
%TO.N,Net-(J22-Pin_9)*%
X186605676Y-170210600D03*
%TO.P,J22,10,Pin_10_10*%
%TO.N,Net-(J20-Pin_1)*%
X184065676Y-170210600D03*
%TO.P,J22,11,Pin_11_11*%
%TO.N,Net-(J22-Pin_11)*%
X181525676Y-170210600D03*
%TO.P,J22,12,Pin_12_12*%
%TO.N,Net-(J22-Pin_12)*%
X178985676Y-170210600D03*
%TO.P,J22,13,Pin_13_13*%
%TO.N,Net-(J18-Pin_1)*%
X176445676Y-170210600D03*
%TO.P,J22,14,Pin_14_14*%
%TO.N,Net-(J16-Pin_1)*%
X173905676Y-170210600D03*
%TO.P,J22,15,Pin_15_15*%
%TO.N,Net-(J14-Pin_1)*%
X171365676Y-170210600D03*
%TD*%
D10*
%TO.P,J20,1,Pin_1_1*%
%TO.N,Net-(J20-Pin_1)*%
X152569277Y-158344992D03*
%TD*%
%TO.P,J17,1,Pin_1_1*%
%TO.N,Net-(J17-Pin_1)*%
X225380037Y-68819438D03*
%TD*%
%TO.P,J18,1,Pin_1_1*%
%TO.N,Net-(J18-Pin_1)*%
X152559371Y-89659759D03*
%TD*%
%TO.P,J28,1,Pin_1_1*%
%TO.N,Net-(J22-Pin_4)*%
X225393704Y-110503475D03*
%TD*%
%TO.N,Net-(J22-Pin_11)*%
D13*
X181525676Y-170210600D02*
X174215076Y-162900000D01*
X151043166Y-162900000D02*
X148269277Y-160126111D01*
X148269277Y-135559109D02*
X152543557Y-131284829D01*
X174215076Y-162900000D02*
X151043166Y-162900000D01*
X148269277Y-160126111D02*
X148269277Y-135559109D01*
%TO.N,Net-(J22-Pin_4)*%
X206280943Y-163235333D02*
X227164652Y-163235333D01*
X230091652Y-115201423D02*
X225393704Y-110503475D01*
X227164652Y-163235333D02*
X230091652Y-160308332D01*
X199305676Y-170210600D02*
X206280943Y-163235333D01*
X230091652Y-160308332D02*
X230091652Y-115201423D01*
%TO.N,Net-(J19-Pin_1)*%
X227330338Y-163635333D02*
X230491652Y-160474017D01*
X230491652Y-160474017D02*
X230491652Y-94729937D01*
X201845676Y-170210600D02*
X208420943Y-163635333D01*
X208420943Y-163635333D02*
X227330338Y-163635333D01*
X230491652Y-94729937D02*
X225397712Y-89635997D01*
%TO.N,Net-(J20-Pin_1)*%
X184065676Y-170210600D02*
X176355076Y-162500000D01*
X156724285Y-162500000D02*
X152569277Y-158344992D01*
X176355076Y-162500000D02*
X156724285Y-162500000D01*
%TO.N,Net-(J22-Pin_5)*%
X204140943Y-162835333D02*
X226998966Y-162835333D01*
X229691652Y-135592442D02*
X225384039Y-131284829D01*
X229691652Y-160142647D02*
X229691652Y-135592442D01*
X196765676Y-170210600D02*
X204140943Y-162835333D01*
X226998966Y-162835333D02*
X229691652Y-160142647D01*
%TO.N,Net-(J17-Pin_1)*%
X227496024Y-164035333D02*
X230891652Y-160639702D01*
X210560943Y-164035333D02*
X227496024Y-164035333D01*
X230891652Y-74331053D02*
X225380037Y-68819438D01*
X230891652Y-160639702D02*
X230891652Y-74331053D01*
X204385676Y-170210600D02*
X210560943Y-164035333D01*
%TO.N,Net-(J18-Pin_1)*%
X176445676Y-170210600D02*
X169935076Y-163700000D01*
X169935076Y-163700000D02*
X150711796Y-163700000D01*
X147469277Y-94749853D02*
X152559371Y-89659759D01*
X150711796Y-163700000D02*
X147469277Y-160457481D01*
X147469277Y-160457481D02*
X147469277Y-94749853D01*
%TO.N,Net-(J14-Pin_1)*%
X156091025Y-170210600D02*
X146542635Y-160662210D01*
X146542635Y-160662210D02*
X146542635Y-54219174D01*
X171365676Y-170210600D02*
X156091025Y-170210600D01*
X146542635Y-54219174D02*
X152709378Y-48052431D01*
%TO.N,Net-(J22-Pin_9)*%
X186605676Y-170210600D02*
X188068138Y-171673062D01*
X188068138Y-171673062D02*
X188068138Y-176162652D01*
%TO.N,Net-(J22-Pin_8)*%
X189995676Y-176775114D02*
X188068138Y-178702652D01*
X189995676Y-171060600D02*
X189995676Y-176775114D01*
X189145676Y-170210600D02*
X189995676Y-171060600D01*
%TO.N,Net-(J22-Pin_7)*%
X188068138Y-181242652D02*
X191685676Y-177625114D01*
X191685676Y-177625114D02*
X191685676Y-170210600D01*
%TO.N,Net-(J16-Pin_1)*%
X147000000Y-74523077D02*
X152681427Y-68841650D01*
X167795076Y-164100000D02*
X150546110Y-164100000D01*
X150546110Y-164100000D02*
X147000000Y-160553890D01*
X173905676Y-170210600D02*
X167795076Y-164100000D01*
X147000000Y-160553890D02*
X147000000Y-74523077D01*
%TO.N,Net-(J21-Pin_1)*%
X202000943Y-162435333D02*
X221317847Y-162435333D01*
X221317847Y-162435333D02*
X225391652Y-158361528D01*
X194225676Y-170210600D02*
X202000943Y-162435333D01*
%TO.N,Net-(J15-Pin_1)*%
X231457365Y-160639678D02*
X231457365Y-54088648D01*
X231457365Y-54088648D02*
X225400560Y-48031843D01*
X206925676Y-170210600D02*
X221886443Y-170210600D01*
X221886443Y-170210600D02*
X231457365Y-160639678D01*
%TO.N,Net-(J22-Pin_12)*%
X147869277Y-160291796D02*
X147869277Y-115201052D01*
X150877480Y-163300000D02*
X147869277Y-160291796D01*
X172075076Y-163300000D02*
X150877480Y-163300000D01*
X147869277Y-115201052D02*
X152593166Y-110477163D01*
X178985676Y-170210600D02*
X172075076Y-163300000D01*
%TD*%
M02*
