M48
; DRILL file KiCad 10.0.3 date 2026-07-04T09:43:01
; FORMAT={-:-/ absolute / metric / decimal}
; #@! TF.CreationDate,2026-07-04T09:43:01+10:00
; #@! TF.GenerationSoftware,Kicad,Pcbnew,10.0.3
; #@! TF.FileFunction,Plated,1,2,PTH
FMAT,2
METRIC
; #@! TA.AperFunction,Plated,PTH,ComponentDrill
T1C1.000
; #@! TA.AperFunction,Plated,PTH,ComponentDrill
T2C6.000
%
G90
G05
T1
X171.366Y-170.211
X173.906Y-170.211
X176.446Y-170.211
X178.986Y-170.211
X181.526Y-170.211
X184.066Y-170.211
X186.606Y-170.211
X188.068Y-176.163
X188.068Y-178.703
X188.068Y-181.243
X189.146Y-170.211
X191.686Y-170.211
X194.226Y-170.211
X196.766Y-170.211
X199.306Y-170.211
X201.846Y-170.211
X204.386Y-170.211
X206.926Y-170.211
T2
X152.544Y-131.285
X152.559Y-89.66
X152.569Y-158.345
X152.593Y-110.477
X152.681Y-68.842
X152.709Y-48.052
X225.38Y-68.819
X225.384Y-131.285
X225.392Y-158.362
X225.394Y-110.503
X225.398Y-89.636
X225.401Y-48.032
M30
