%TF.GenerationSoftware,KiCad,Pcbnew,9.0.6*%
%TF.CreationDate,2026-05-21T23:56:24+10:00*%
%TF.ProjectId,diode-ladder-filter,64696f64-652d-46c6-9164-6465722d6669,rev?*%
%TF.SameCoordinates,Original*%
%TF.FileFunction,Profile,NP*%
%FSLAX46Y46*%
G04 Gerber Fmt 4.6, Leading zero omitted, Abs format (unit mm)*
G04 Created by KiCad (PCBNEW 9.0.6) date 2026-05-21 23:56:24*
%MOMM*%
%LPD*%
G01*
G04 APERTURE LIST*
%TA.AperFunction,Profile*%
%ADD10C,0.050000*%
%TD*%
G04 APERTURE END LIST*
D10*
X103346439Y-204933530D02*
G75*
G02*
X95284181Y-204933530I-4031129J0D01*
G01*
X95284181Y-204933530D02*
G75*
G02*
X103346439Y-204933530I4031129J0D01*
G01*
X76748229Y-240100675D02*
X102903395Y-240100675D01*
X102903395Y-253775098D01*
X76748229Y-253775098D01*
X76748229Y-240100675D01*
X103346439Y-224902401D02*
G75*
G02*
X95284181Y-224902401I-4031129J0D01*
G01*
X95284181Y-224902401D02*
G75*
G02*
X103346439Y-224902401I4031129J0D01*
G01*
X84346439Y-224902401D02*
G75*
G02*
X76284181Y-224902401I-4031129J0D01*
G01*
X76284181Y-224902401D02*
G75*
G02*
X84346439Y-224902401I4031129J0D01*
G01*
X93846439Y-183433530D02*
G75*
G02*
X85784181Y-183433530I-4031129J0D01*
G01*
X85784181Y-183433530D02*
G75*
G02*
X93846439Y-183433530I4031129J0D01*
G01*
X57568995Y-170431752D02*
X122062915Y-170431752D01*
X122062915Y-285730075D01*
X57568995Y-285730075D01*
X57568995Y-170431752D01*
X84596439Y-204933530D02*
G75*
G02*
X76534181Y-204933530I-4031129J0D01*
G01*
X76534181Y-204933530D02*
G75*
G02*
X84596439Y-204933530I4031129J0D01*
G01*
X103127568Y-265683530D02*
G75*
G02*
X95065310Y-265683530I-4031129J0D01*
G01*
X95065310Y-265683530D02*
G75*
G02*
X103127568Y-265683530I4031129J0D01*
G01*
X84596439Y-265683530D02*
G75*
G02*
X76534181Y-265683530I-4031129J0D01*
G01*
X76534181Y-265683530D02*
G75*
G02*
X84596439Y-265683530I4031129J0D01*
G01*
X108939659Y-198433530D02*
X117315829Y-198433530D01*
X117315829Y-211766385D01*
X108939659Y-211766385D01*
X108939659Y-198433530D01*
M02*
