%TF.GenerationSoftware,KiCad,Pcbnew,9.0.6*%
%TF.CreationDate,2026-05-21T23:56:02+10:00*%
%TF.ProjectId,diode-ladder-filter,64696f64-652d-46c6-9164-6465722d6669,rev?*%
%TF.SameCoordinates,Original*%
%TF.FileFunction,Soldermask,Top*%
%TF.FilePolarity,Negative*%
%FSLAX46Y46*%
G04 Gerber Fmt 4.6, Leading zero omitted, Abs format (unit mm)*
G04 Created by KiCad (PCBNEW 9.0.6) date 2026-05-21 23:56:02*
%MOMM*%
%LPD*%
G01*
G04 APERTURE LIST*
G04 Aperture macros list*
%AMRoundRect*
0 Rectangle with rounded corners*
0 $1 Rounding radius*
0 $2 $3 $4 $5 $6 $7 $8 $9 X,Y pos of 4 corners*
0 Add a 4 corners polygon primitive as box body*
4,1,4,$2,$3,$4,$5,$6,$7,$8,$9,$2,$3,0*
0 Add four circle primitives for the rounded corners*
1,1,$1+$1,$2,$3*
1,1,$1+$1,$4,$5*
1,1,$1+$1,$6,$7*
1,1,$1+$1,$8,$9*
0 Add four rect primitives between the rounded corners*
20,1,$1+$1,$2,$3,$4,$5,0*
20,1,$1+$1,$4,$5,$6,$7,0*
20,1,$1+$1,$6,$7,$8,$9,0*
20,1,$1+$1,$8,$9,$2,$3,0*%
G04 Aperture macros list end*
%ADD10C,3.200000*%
%ADD11C,1.600000*%
%ADD12RoundRect,0.250000X0.650000X0.650000X-0.650000X0.650000X-0.650000X-0.650000X0.650000X-0.650000X0*%
%ADD13C,1.800000*%
%ADD14R,1.800000X1.800000*%
%ADD15RoundRect,0.750000X0.750000X-1.250000X0.750000X1.250000X-0.750000X1.250000X-0.750000X-1.250000X0*%
%ADD16O,3.750000X2.000000*%
%ADD17RoundRect,0.250000X-0.550000X-0.550000X0.550000X-0.550000X0.550000X0.550000X-0.550000X0.550000X0*%
%ADD18C,8.000000*%
%ADD19RoundRect,0.250000X0.650000X-0.650000X0.650000X0.650000X-0.650000X0.650000X-0.650000X-0.650000X0*%
%ADD20RoundRect,0.250000X-0.650000X-0.650000X0.650000X-0.650000X0.650000X0.650000X-0.650000X0.650000X0*%
%ADD21R,1.700000X1.700000*%
%ADD22C,1.700000*%
%ADD23RoundRect,0.250000X0.600000X-0.600000X0.600000X0.600000X-0.600000X0.600000X-0.600000X-0.600000X0*%
%ADD24RoundRect,0.250000X-0.650000X0.650000X-0.650000X-0.650000X0.650000X-0.650000X0.650000X0.650000X0*%
G04 APERTURE END LIST*
D10*
%TO.C,H4*%
X105542125Y-154277637D03*
%TD*%
D11*
%TO.C,C1*%
X112617003Y-87750000D03*
X107617003Y-87750000D03*
%TD*%
D12*
%TO.C,D12*%
X115310000Y-94237646D03*
D13*
X107690000Y-94237646D03*
%TD*%
D11*
%TO.C,R20*%
X118410000Y-130250000D03*
X108250000Y-130250000D03*
%TD*%
D14*
%TO.C,RV3*%
X97229308Y-84966069D03*
D13*
X99729308Y-84966069D03*
X102229308Y-84966069D03*
D15*
X95329308Y-77966069D03*
X104129308Y-77966069D03*
%TD*%
D11*
%TO.C,C4*%
X75750000Y-114000000D03*
X75750000Y-119000000D03*
%TD*%
D10*
%TO.C,H1*%
X75002687Y-46996734D03*
%TD*%
D11*
%TO.C,R9*%
X87750000Y-89500000D03*
X77590000Y-89500000D03*
%TD*%
D14*
%TO.C,RV7*%
X97100000Y-145750000D03*
D13*
X99600000Y-145750000D03*
X102100000Y-145750000D03*
D15*
X95200000Y-138750000D03*
X104000000Y-138750000D03*
%TD*%
D16*
%TO.C,SW3*%
X99000000Y-115000000D03*
X99000000Y-119500000D03*
X99000000Y-124000000D03*
%TD*%
D11*
%TO.C,R2*%
X81500000Y-58500000D03*
X71340000Y-58500000D03*
%TD*%
%TO.C,C3*%
X62356646Y-114001488D03*
X62356646Y-119001488D03*
%TD*%
%TO.C,R22*%
X100500000Y-152250000D03*
X90340000Y-152250000D03*
%TD*%
%TO.C,R1*%
X71340000Y-55000000D03*
X81500000Y-55000000D03*
%TD*%
%TO.C,R4*%
X61500000Y-86000000D03*
X71660000Y-86000000D03*
%TD*%
%TO.C,R18*%
X98077241Y-127742504D03*
X87917241Y-127742504D03*
%TD*%
D14*
%TO.C,RV2*%
X78407652Y-85000000D03*
D13*
X80907652Y-85000000D03*
X83407652Y-85000000D03*
D15*
X76507652Y-78000000D03*
X85307652Y-78000000D03*
%TD*%
D11*
%TO.C,R23*%
X100580000Y-149000000D03*
X90420000Y-149000000D03*
%TD*%
D17*
%TO.C,U2*%
X108440000Y-111635000D03*
D11*
X108440000Y-114175000D03*
X108440000Y-116715000D03*
X108440000Y-119255000D03*
X108440000Y-121795000D03*
X108440000Y-124335000D03*
X108440000Y-126875000D03*
X116060000Y-126875000D03*
X116060000Y-124335000D03*
X116060000Y-121795000D03*
X116060000Y-119255000D03*
X116060000Y-116715000D03*
X116060000Y-114175000D03*
X116060000Y-111635000D03*
%TD*%
D14*
%TO.C,RV5*%
X97215996Y-104953715D03*
D13*
X99715996Y-104953715D03*
X102215996Y-104953715D03*
D15*
X95315996Y-97953715D03*
X104115996Y-97953715D03*
%TD*%
D18*
%TO.C,J5*%
X65500000Y-138274938D03*
%TD*%
D11*
%TO.C,R7*%
X106500000Y-65350000D03*
X106500000Y-55190000D03*
%TD*%
D12*
%TO.C,D11*%
X115295277Y-108118720D03*
D13*
X107675277Y-108118720D03*
%TD*%
D11*
%TO.C,R3*%
X109500923Y-55189998D03*
X109500923Y-65349998D03*
%TD*%
D12*
%TO.C,D1*%
X81500000Y-62000000D03*
D13*
X73880000Y-62000000D03*
%TD*%
D11*
%TO.C,C8*%
X117750000Y-108500000D03*
X117750000Y-103500000D03*
%TD*%
D16*
%TO.C,SW4*%
X90400000Y-115000000D03*
X90400000Y-119500000D03*
X90400000Y-124000000D03*
%TD*%
D11*
%TO.C,R19*%
X98080000Y-130750000D03*
X87920000Y-130750000D03*
%TD*%
%TO.C,R8*%
X61520156Y-89039805D03*
X71680156Y-89039805D03*
%TD*%
%TO.C,R10*%
X75670000Y-111250000D03*
X85830000Y-111250000D03*
%TD*%
%TO.C,R6*%
X103500000Y-65350000D03*
X103500000Y-55190000D03*
%TD*%
D18*
%TO.C,J6*%
X115000000Y-138409821D03*
%TD*%
D11*
%TO.C,R11*%
X88000000Y-111250000D03*
X98160000Y-111250000D03*
%TD*%
D19*
%TO.C,D5*%
X116500000Y-65310000D03*
D13*
X116500000Y-57690000D03*
%TD*%
D20*
%TO.C,D7*%
X107692348Y-97667780D03*
D13*
X115312348Y-97667780D03*
%TD*%
D20*
%TO.C,D8*%
X107698035Y-90785562D03*
D13*
X115318035Y-90785562D03*
%TD*%
D21*
%TO.C,J7*%
X86380000Y-156250000D03*
D22*
X88920000Y-156250000D03*
X91460000Y-156250000D03*
X94000000Y-156250000D03*
%TD*%
D14*
%TO.C,RV1*%
X87770065Y-63550000D03*
D13*
X90270065Y-63550000D03*
X92770065Y-63550000D03*
D15*
X85870065Y-56550000D03*
X94670065Y-56550000D03*
%TD*%
D12*
%TO.C,D6*%
X72870000Y-108000000D03*
D13*
X65250000Y-108000000D03*
%TD*%
D10*
%TO.C,H2*%
X105531547Y-46980157D03*
%TD*%
D14*
%TO.C,RV6*%
X78400000Y-145750000D03*
D13*
X80900000Y-145750000D03*
X83400000Y-145750000D03*
D15*
X76500000Y-138750000D03*
X85300000Y-138750000D03*
%TD*%
D11*
%TO.C,C11*%
X119000000Y-124295000D03*
X119000000Y-119295000D03*
%TD*%
%TO.C,C5*%
X90000000Y-107487646D03*
X95000000Y-107487646D03*
%TD*%
D16*
%TO.C,SW2*%
X81500000Y-115000000D03*
X81500000Y-119500000D03*
X81500000Y-124000000D03*
%TD*%
D11*
%TO.C,R21*%
X88000000Y-149000000D03*
X77840000Y-149000000D03*
%TD*%
%TO.C,C10*%
X105553581Y-122355348D03*
X105553581Y-127355348D03*
%TD*%
D14*
%TO.C,RV4*%
X78314935Y-104990210D03*
D13*
X80814935Y-104990210D03*
X83314935Y-104990210D03*
D15*
X76414935Y-97990210D03*
X85214935Y-97990210D03*
%TD*%
D11*
%TO.C,R14*%
X120500000Y-106750000D03*
X120500000Y-116910000D03*
%TD*%
D18*
%TO.C,J4*%
X65597898Y-97352763D03*
%TD*%
D11*
%TO.C,R5*%
X90250000Y-83000000D03*
X90250000Y-72840000D03*
%TD*%
D20*
%TO.C,D4*%
X73880000Y-65500000D03*
D13*
X81500000Y-65500000D03*
%TD*%
D23*
%TO.C,J1*%
X76424429Y-36425314D03*
D22*
X76424429Y-33885314D03*
X78964429Y-36425314D03*
X78964429Y-33885314D03*
X81504429Y-36425314D03*
X81504429Y-33885314D03*
%TD*%
D12*
%TO.C,D10*%
X115298710Y-101135836D03*
D13*
X107678710Y-101135836D03*
%TD*%
D11*
%TO.C,C12*%
X90500000Y-140750000D03*
X90500000Y-145750000D03*
%TD*%
%TO.C,C7*%
X117750000Y-96000000D03*
X117750000Y-101000000D03*
%TD*%
%TO.C,R15*%
X85750000Y-130750000D03*
X75590000Y-130750000D03*
%TD*%
D16*
%TO.C,SW1*%
X113562434Y-82156087D03*
X113562434Y-77656087D03*
X113562434Y-73156087D03*
%TD*%
D11*
%TO.C,R16*%
X73250000Y-130000000D03*
X63090000Y-130000000D03*
%TD*%
%TO.C,C2*%
X117750000Y-88500000D03*
X117750000Y-93500000D03*
%TD*%
D20*
%TO.C,D9*%
X107675277Y-104618720D03*
D13*
X115295277Y-104618720D03*
%TD*%
D24*
%TO.C,D2*%
X113000000Y-57690000D03*
D13*
X113000000Y-65310000D03*
%TD*%
D11*
%TO.C,C6*%
X99750000Y-107487646D03*
X104750000Y-107487646D03*
%TD*%
%TO.C,R12*%
X75670000Y-108000000D03*
X85830000Y-108000000D03*
%TD*%
D17*
%TO.C,U1*%
X65250000Y-111380000D03*
D11*
X65250000Y-113920000D03*
X65250000Y-116460000D03*
X65250000Y-119000000D03*
X65250000Y-121540000D03*
X65250000Y-124080000D03*
X65250000Y-126620000D03*
X72870000Y-126620000D03*
X72870000Y-124080000D03*
X72870000Y-121540000D03*
X72870000Y-119000000D03*
X72870000Y-116460000D03*
X72870000Y-113920000D03*
X72870000Y-111380000D03*
%TD*%
D10*
%TO.C,H3*%
X74990367Y-154302331D03*
%TD*%
D12*
%TO.C,D3*%
X81500000Y-69000000D03*
D13*
X73880000Y-69000000D03*
%TD*%
D11*
%TO.C,C9*%
X105500000Y-120000000D03*
X105500000Y-115000000D03*
%TD*%
D23*
%TO.C,J2*%
X99354429Y-36425314D03*
D22*
X99354429Y-33885314D03*
X101894429Y-36425314D03*
X101894429Y-33885314D03*
X104434429Y-36425314D03*
X104434429Y-33885314D03*
%TD*%
D18*
%TO.C,J3*%
X65645193Y-77365117D03*
%TD*%
D11*
%TO.C,R13*%
X90500000Y-103830000D03*
X90500000Y-93670000D03*
%TD*%
%TO.C,R17*%
X85750000Y-127750000D03*
X75590000Y-127750000D03*
%TD*%
M02*
