%TF.GenerationSoftware,KiCad,Pcbnew,9.0.6*%
%TF.CreationDate,2026-05-21T23:56:02+10:00*%
%TF.ProjectId,diode-ladder-filter,64696f64-652d-46c6-9164-6465722d6669,rev?*%
%TF.SameCoordinates,Original*%
%TF.FileFunction,Legend,Bot*%
%TF.FilePolarity,Positive*%
%FSLAX46Y46*%
G04 Gerber Fmt 4.6, Leading zero omitted, Abs format (unit mm)*
G04 Created by KiCad (PCBNEW 9.0.6) date 2026-05-21 23:56:02*
%MOMM*%
%LPD*%
G01*
G04 APERTURE LIST*
%ADD10C,0.100000*%
G04 APERTURE END LIST*
D10*
X64923817Y-35524093D02*
X65257150Y-35524093D01*
X65257150Y-36047903D02*
X65257150Y-35047903D01*
X65257150Y-35047903D02*
X64780960Y-35047903D01*
X63876198Y-36047903D02*
X64447626Y-36047903D01*
X64161912Y-36047903D02*
X64161912Y-35047903D01*
X64161912Y-35047903D02*
X64257150Y-35190760D01*
X64257150Y-35190760D02*
X64352388Y-35285998D01*
X64352388Y-35285998D02*
X64447626Y-35333617D01*
X64950931Y-150639710D02*
X65284264Y-150639710D01*
X65284264Y-151163520D02*
X65284264Y-150163520D01*
X65284264Y-150163520D02*
X64808074Y-150163520D01*
X64522359Y-150163520D02*
X63903312Y-150163520D01*
X63903312Y-150163520D02*
X64236645Y-150544472D01*
X64236645Y-150544472D02*
X64093788Y-150544472D01*
X64093788Y-150544472D02*
X63998550Y-150592091D01*
X63998550Y-150592091D02*
X63950931Y-150639710D01*
X63950931Y-150639710D02*
X63903312Y-150734948D01*
X63903312Y-150734948D02*
X63903312Y-150973043D01*
X63903312Y-150973043D02*
X63950931Y-151068281D01*
X63950931Y-151068281D02*
X63998550Y-151115901D01*
X63998550Y-151115901D02*
X64093788Y-151163520D01*
X64093788Y-151163520D02*
X64379502Y-151163520D01*
X64379502Y-151163520D02*
X64474740Y-151115901D01*
X64474740Y-151115901D02*
X64522359Y-151068281D01*
X116259765Y-150635071D02*
X116593098Y-150635071D01*
X116593098Y-151158881D02*
X116593098Y-150158881D01*
X116593098Y-150158881D02*
X116116908Y-150158881D01*
X115783574Y-150254119D02*
X115735955Y-150206500D01*
X115735955Y-150206500D02*
X115640717Y-150158881D01*
X115640717Y-150158881D02*
X115402622Y-150158881D01*
X115402622Y-150158881D02*
X115307384Y-150206500D01*
X115307384Y-150206500D02*
X115259765Y-150254119D01*
X115259765Y-150254119D02*
X115212146Y-150349357D01*
X115212146Y-150349357D02*
X115212146Y-150444595D01*
X115212146Y-150444595D02*
X115259765Y-150587452D01*
X115259765Y-150587452D02*
X115831193Y-151158881D01*
X115831193Y-151158881D02*
X115212146Y-151158881D01*
X116247144Y-35504790D02*
X116580477Y-35504790D01*
X116580477Y-36028600D02*
X116580477Y-35028600D01*
X116580477Y-35028600D02*
X116104287Y-35028600D01*
X115532858Y-35028600D02*
X115437620Y-35028600D01*
X115437620Y-35028600D02*
X115342382Y-35076219D01*
X115342382Y-35076219D02*
X115294763Y-35123838D01*
X115294763Y-35123838D02*
X115247144Y-35219076D01*
X115247144Y-35219076D02*
X115199525Y-35409552D01*
X115199525Y-35409552D02*
X115199525Y-35647647D01*
X115199525Y-35647647D02*
X115247144Y-35838123D01*
X115247144Y-35838123D02*
X115294763Y-35933361D01*
X115294763Y-35933361D02*
X115342382Y-35980981D01*
X115342382Y-35980981D02*
X115437620Y-36028600D01*
X115437620Y-36028600D02*
X115532858Y-36028600D01*
X115532858Y-36028600D02*
X115628096Y-35980981D01*
X115628096Y-35980981D02*
X115675715Y-35933361D01*
X115675715Y-35933361D02*
X115723334Y-35838123D01*
X115723334Y-35838123D02*
X115770953Y-35647647D01*
X115770953Y-35647647D02*
X115770953Y-35409552D01*
X115770953Y-35409552D02*
X115723334Y-35219076D01*
X115723334Y-35219076D02*
X115675715Y-35123838D01*
X115675715Y-35123838D02*
X115628096Y-35076219D01*
X115628096Y-35076219D02*
X115532858Y-35028600D01*
%TO.C,F1*%
X71090484Y-29590484D02*
X58090484Y-29590484D01*
X58090484Y-43090484D01*
X71090484Y-43090484D01*
X71090484Y-29590484D01*
%TO.C,F3*%
X71117598Y-144706101D02*
X58117598Y-144706101D01*
X58117598Y-158206101D01*
X71117598Y-158206101D01*
X71117598Y-144706101D01*
%TO.C,F2*%
X122426432Y-144701462D02*
X109426432Y-144701462D01*
X109426432Y-158201462D01*
X122426432Y-158201462D01*
X122426432Y-144701462D01*
%TO.C,F0*%
X122413811Y-29571181D02*
X109413811Y-29571181D01*
X109413811Y-43071181D01*
X122413811Y-43071181D01*
X122413811Y-29571181D01*
%TD*%
M02*
