%TF.GenerationSoftware,KiCad,Pcbnew,9.0.6*%
%TF.CreationDate,2026-05-21T23:56:02+10:00*%
%TF.ProjectId,diode-ladder-filter,64696f64-652d-46c6-9164-6465722d6669,rev?*%
%TF.SameCoordinates,Original*%
%TF.FileFunction,Copper,L2,Bot*%
%TF.FilePolarity,Positive*%
%FSLAX46Y46*%
G04 Gerber Fmt 4.6, Leading zero omitted, Abs format (unit mm)*
G04 Created by KiCad (PCBNEW 9.0.6) date 2026-05-21 23:56:02*
%MOMM*%
%LPD*%
G01*
G04 APERTURE LIST*
G04 Aperture macros list*
%AMRoundRect*
0 Rectangle with rounded corners*
0 $1 Rounding radius*
0 $2 $3 $4 $5 $6 $7 $8 $9 X,Y pos of 4 corners*
0 Add a 4 corners polygon primitive as box body*
4,1,4,$2,$3,$4,$5,$6,$7,$8,$9,$2,$3,0*
0 Add four circle primitives for the rounded corners*
1,1,$1+$1,$2,$3*
1,1,$1+$1,$4,$5*
1,1,$1+$1,$6,$7*
1,1,$1+$1,$8,$9*
0 Add four rect primitives between the rounded corners*
20,1,$1+$1,$2,$3,$4,$5,0*
20,1,$1+$1,$4,$5,$6,$7,0*
20,1,$1+$1,$6,$7,$8,$9,0*
20,1,$1+$1,$8,$9,$2,$3,0*%
G04 Aperture macros list end*
%TA.AperFunction,ComponentPad*%
%ADD10C,1.600000*%
%TD*%
%TA.AperFunction,ComponentPad*%
%ADD11RoundRect,0.250000X0.650000X0.650000X-0.650000X0.650000X-0.650000X-0.650000X0.650000X-0.650000X0*%
%TD*%
%TA.AperFunction,ComponentPad*%
%ADD12C,1.800000*%
%TD*%
%TA.AperFunction,ComponentPad*%
%ADD13R,1.800000X1.800000*%
%TD*%
%TA.AperFunction,ComponentPad*%
%ADD14RoundRect,0.750000X0.750000X-1.250000X0.750000X1.250000X-0.750000X1.250000X-0.750000X-1.250000X0*%
%TD*%
%TA.AperFunction,ComponentPad*%
%ADD15O,3.750000X2.000000*%
%TD*%
%TA.AperFunction,ComponentPad*%
%ADD16RoundRect,0.250000X-0.550000X-0.550000X0.550000X-0.550000X0.550000X0.550000X-0.550000X0.550000X0*%
%TD*%
%TA.AperFunction,ComponentPad*%
%ADD17C,8.000000*%
%TD*%
%TA.AperFunction,ComponentPad*%
%ADD18RoundRect,0.250000X0.650000X-0.650000X0.650000X0.650000X-0.650000X0.650000X-0.650000X-0.650000X0*%
%TD*%
%TA.AperFunction,ComponentPad*%
%ADD19RoundRect,0.250000X-0.650000X-0.650000X0.650000X-0.650000X0.650000X0.650000X-0.650000X0.650000X0*%
%TD*%
%TA.AperFunction,ComponentPad*%
%ADD20R,1.700000X1.700000*%
%TD*%
%TA.AperFunction,ComponentPad*%
%ADD21C,1.700000*%
%TD*%
%TA.AperFunction,ComponentPad*%
%ADD22RoundRect,0.250000X0.600000X-0.600000X0.600000X0.600000X-0.600000X0.600000X-0.600000X-0.600000X0*%
%TD*%
%TA.AperFunction,ComponentPad*%
%ADD23RoundRect,0.250000X-0.650000X0.650000X-0.650000X-0.650000X0.650000X-0.650000X0.650000X0.650000X0*%
%TD*%
%TA.AperFunction,Conductor*%
%ADD24C,0.200000*%
%TD*%
G04 APERTURE END LIST*
D10*
%TO.P,C1,1*%
%TO.N,Net-(SW4A-B)*%
X112617003Y-87750000D03*
%TO.P,C1,2*%
%TO.N,Net-(D12-A)*%
X107617003Y-87750000D03*
%TD*%
D11*
%TO.P,D12,1,K*%
%TO.N,Net-(D12-K)*%
X115310000Y-94237646D03*
D12*
%TO.P,D12,2,A*%
%TO.N,Net-(D12-A)*%
X107690000Y-94237646D03*
%TD*%
D10*
%TO.P,R20,1*%
%TO.N,Net-(U2C-+)*%
X118410000Y-130250000D03*
%TO.P,R20,2*%
%TO.N,GND*%
X108250000Y-130250000D03*
%TD*%
D13*
%TO.P,RV3,1,1*%
%TO.N,GND*%
X97229308Y-84966069D03*
D12*
%TO.P,RV3,2,2*%
%TO.N,Net-(U2D-+)*%
X99729308Y-84966069D03*
%TO.P,RV3,3,3*%
%TO.N,Net-(U2A--)*%
X102229308Y-84966069D03*
D14*
%TO.P,RV3,MP*%
%TO.N,N/C*%
X95329308Y-77966069D03*
X104129308Y-77966069D03*
%TD*%
D10*
%TO.P,C4,1*%
%TO.N,GND*%
X75750000Y-114000000D03*
%TO.P,C4,2*%
%TO.N,-12V*%
X75750000Y-119000000D03*
%TD*%
%TO.P,R9,1*%
%TO.N,Net-(D8-K)*%
X87750000Y-89500000D03*
%TO.P,R9,2*%
%TO.N,Net-(U1D--)*%
X77590000Y-89500000D03*
%TD*%
D13*
%TO.P,RV7,1,1*%
%TO.N,Net-(U2B--)*%
X97100000Y-145750000D03*
D12*
%TO.P,RV7,2,2*%
%TO.N,Net-(C10-Pad1)*%
X99600000Y-145750000D03*
%TO.P,RV7,3,3*%
X102100000Y-145750000D03*
D14*
%TO.P,RV7,MP*%
%TO.N,N/C*%
X95200000Y-138750000D03*
X104000000Y-138750000D03*
%TD*%
D15*
%TO.P,SW3,1,A*%
%TO.N,GND*%
X99000000Y-115000000D03*
%TO.P,SW3,2,B*%
%TO.N,Net-(SW3A-B)*%
X99000000Y-119500000D03*
%TO.P,SW3,3,C*%
%TO.N,Net-(SW2A-C)*%
X99000000Y-124000000D03*
%TD*%
D10*
%TO.P,R2,1*%
%TO.N,GND*%
X81500000Y-58500000D03*
%TO.P,R2,2*%
%TO.N,Net-(D1-A)*%
X71340000Y-58500000D03*
%TD*%
%TO.P,C3,1*%
%TO.N,GND*%
X62356646Y-114001488D03*
%TO.P,C3,2*%
%TO.N,12V*%
X62356646Y-119001488D03*
%TD*%
%TO.P,R22,1*%
%TO.N,Net-(C12-Pad2)*%
X100500000Y-152250000D03*
%TO.P,R22,2*%
%TO.N,GND*%
X90340000Y-152250000D03*
%TD*%
%TO.P,R1,1*%
%TO.N,Net-(D1-A)*%
X71340000Y-55000000D03*
%TO.P,R1,2*%
%TO.N,Net-(R1-Pad2)*%
X81500000Y-55000000D03*
%TD*%
%TO.P,R4,1*%
%TO.N,Net-(D1-A)*%
X61500000Y-86000000D03*
%TO.P,R4,2*%
%TO.N,Net-(R4-Pad2)*%
X71660000Y-86000000D03*
%TD*%
%TO.P,R18,1*%
%TO.N,GND*%
X98077241Y-127742504D03*
%TO.P,R18,2*%
%TO.N,Net-(U1C-+)*%
X87917241Y-127742504D03*
%TD*%
D13*
%TO.P,RV2,1,1*%
%TO.N,GND*%
X78407652Y-85000000D03*
D12*
%TO.P,RV2,2,2*%
%TO.N,Net-(R4-Pad2)*%
X80907652Y-85000000D03*
%TO.P,RV2,3,3*%
%TO.N,Net-(J3-Pin_1)*%
X83407652Y-85000000D03*
D14*
%TO.P,RV2,MP*%
%TO.N,N/C*%
X76507652Y-78000000D03*
X85307652Y-78000000D03*
%TD*%
D10*
%TO.P,R23,1*%
%TO.N,Net-(C12-Pad2)*%
X100580000Y-149000000D03*
%TO.P,R23,2*%
%TO.N,Net-(U1B-+)*%
X90420000Y-149000000D03*
%TD*%
D16*
%TO.P,U2,1*%
%TO.N,Net-(U2A--)*%
X108440000Y-111635000D03*
D10*
%TO.P,U2,2,-*%
X108440000Y-114175000D03*
%TO.P,U2,3,+*%
%TO.N,Net-(D10-K)*%
X108440000Y-116715000D03*
%TO.P,U2,4,V+*%
%TO.N,12V*%
X108440000Y-119255000D03*
%TO.P,U2,5,+*%
%TO.N,GND*%
X108440000Y-121795000D03*
%TO.P,U2,6,-*%
%TO.N,Net-(U2B--)*%
X108440000Y-124335000D03*
%TO.P,U2,7*%
%TO.N,Net-(C10-Pad1)*%
X108440000Y-126875000D03*
%TO.P,U2,8*%
%TO.N,Net-(U2C--)*%
X116060000Y-126875000D03*
%TO.P,U2,9,-*%
X116060000Y-124335000D03*
%TO.P,U2,10,+*%
%TO.N,Net-(U2C-+)*%
X116060000Y-121795000D03*
%TO.P,U2,11,V-*%
%TO.N,-12V*%
X116060000Y-119255000D03*
%TO.P,U2,12,+*%
%TO.N,Net-(U2D-+)*%
X116060000Y-116715000D03*
%TO.P,U2,13,-*%
%TO.N,Net-(D2-A)*%
X116060000Y-114175000D03*
%TO.P,U2,14*%
%TO.N,Net-(D2-K)*%
X116060000Y-111635000D03*
%TD*%
D13*
%TO.P,RV5,1,1*%
%TO.N,Net-(D1-A)*%
X97215996Y-104953715D03*
D12*
%TO.P,RV5,2,2*%
X99715996Y-104953715D03*
%TO.P,RV5,3,3*%
%TO.N,Net-(C5-Pad2)*%
X102215996Y-104953715D03*
D14*
%TO.P,RV5,MP*%
%TO.N,N/C*%
X95315996Y-97953715D03*
X104115996Y-97953715D03*
%TD*%
D17*
%TO.P,J5,1,Pin_1*%
%TO.N,Net-(J5-Pin_1)*%
X65500000Y-138274938D03*
%TD*%
D10*
%TO.P,R7,1*%
%TO.N,GND*%
X106500000Y-65350000D03*
%TO.P,R7,2*%
%TO.N,Net-(SW1A-A)*%
X106500000Y-55190000D03*
%TD*%
D11*
%TO.P,D11,1,K*%
%TO.N,Net-(D11-K)*%
X115295277Y-108118720D03*
D12*
%TO.P,D11,2,A*%
%TO.N,Net-(D11-A)*%
X107675277Y-108118720D03*
%TD*%
D10*
%TO.P,R3,1*%
%TO.N,Net-(D2-K)*%
X109500923Y-55189998D03*
%TO.P,R3,2*%
%TO.N,Net-(D2-A)*%
X109500923Y-65349998D03*
%TD*%
D11*
%TO.P,D1,1,K*%
%TO.N,Net-(D1-K)*%
X81500000Y-62000000D03*
D12*
%TO.P,D1,2,A*%
%TO.N,Net-(D1-A)*%
X73880000Y-62000000D03*
%TD*%
D10*
%TO.P,C8,1*%
%TO.N,Net-(D11-K)*%
X117750000Y-108500000D03*
%TO.P,C8,2*%
%TO.N,Net-(D2-K)*%
X117750000Y-103500000D03*
%TD*%
D15*
%TO.P,SW4,1,A*%
%TO.N,GND*%
X90400000Y-115000000D03*
%TO.P,SW4,2,B*%
%TO.N,Net-(SW4A-B)*%
X90400000Y-119500000D03*
%TO.P,SW4,3,C*%
%TO.N,Net-(SW2A-C)*%
X90400000Y-124000000D03*
%TD*%
D10*
%TO.P,R19,1*%
%TO.N,Net-(U2C--)*%
X98080000Y-130750000D03*
%TO.P,R19,2*%
%TO.N,Net-(J6-Pin_1)*%
X87920000Y-130750000D03*
%TD*%
%TO.P,R8,1*%
%TO.N,Net-(D1-A)*%
X61520156Y-89039805D03*
%TO.P,R8,2*%
%TO.N,Net-(R8-Pad2)*%
X71680156Y-89039805D03*
%TD*%
%TO.P,R10,1*%
%TO.N,Net-(U1C--)*%
X75670000Y-111250000D03*
%TO.P,R10,2*%
%TO.N,Net-(D11-A)*%
X85830000Y-111250000D03*
%TD*%
%TO.P,R6,1*%
%TO.N,GND*%
X103500000Y-65350000D03*
%TO.P,R6,2*%
%TO.N,Net-(SW1A-C)*%
X103500000Y-55190000D03*
%TD*%
D17*
%TO.P,J6,1,Pin_1*%
%TO.N,Net-(J6-Pin_1)*%
X115000000Y-138409821D03*
%TD*%
D10*
%TO.P,R11,1*%
%TO.N,Net-(R11-Pad1)*%
X88000000Y-111250000D03*
%TO.P,R11,2*%
%TO.N,Net-(D11-A)*%
X98160000Y-111250000D03*
%TD*%
D18*
%TO.P,D5,1,K*%
%TO.N,Net-(D2-A)*%
X116500000Y-65310000D03*
D12*
%TO.P,D5,2,A*%
%TO.N,Net-(D2-K)*%
X116500000Y-57690000D03*
%TD*%
D19*
%TO.P,D7,1,K*%
%TO.N,Net-(D12-A)*%
X107692348Y-97667780D03*
D12*
%TO.P,D7,2,A*%
%TO.N,Net-(D10-K)*%
X115312348Y-97667780D03*
%TD*%
D19*
%TO.P,D8,1,K*%
%TO.N,Net-(D8-K)*%
X107698035Y-90785562D03*
D12*
%TO.P,D8,2,A*%
%TO.N,Net-(D12-K)*%
X115318035Y-90785562D03*
%TD*%
D20*
%TO.P,J7,1,Pin_1*%
%TO.N,Net-(J3-Pin_1)*%
X86380000Y-156250000D03*
D21*
%TO.P,J7,2,Pin_2*%
%TO.N,Net-(J4-Pin_1)*%
X88920000Y-156250000D03*
%TO.P,J7,3,Pin_3*%
%TO.N,Net-(J5-Pin_1)*%
X91460000Y-156250000D03*
%TO.P,J7,4,Pin_4*%
%TO.N,Net-(J6-Pin_1)*%
X94000000Y-156250000D03*
%TD*%
D13*
%TO.P,RV1,1,1*%
%TO.N,GND*%
X87770065Y-63550000D03*
D12*
%TO.P,RV1,2,2*%
%TO.N,Net-(R1-Pad2)*%
X90270065Y-63550000D03*
%TO.P,RV1,3,3*%
%TO.N,12V*%
X92770065Y-63550000D03*
D14*
%TO.P,RV1,MP*%
%TO.N,N/C*%
X85870065Y-56550000D03*
X94670065Y-56550000D03*
%TD*%
D11*
%TO.P,D6,1,K*%
%TO.N,Net-(D6-K)*%
X72870000Y-108000000D03*
D12*
%TO.P,D6,2,A*%
%TO.N,Net-(D6-A)*%
X65250000Y-108000000D03*
%TD*%
D13*
%TO.P,RV6,1,1*%
%TO.N,GND*%
X78400000Y-145750000D03*
D12*
%TO.P,RV6,2,2*%
%TO.N,Net-(C12-Pad1)*%
X80900000Y-145750000D03*
%TO.P,RV6,3,3*%
%TO.N,Net-(J5-Pin_1)*%
X83400000Y-145750000D03*
D14*
%TO.P,RV6,MP*%
%TO.N,N/C*%
X76500000Y-138750000D03*
X85300000Y-138750000D03*
%TD*%
D10*
%TO.P,C11,1*%
%TO.N,GND*%
X119000000Y-124295000D03*
%TO.P,C11,2*%
%TO.N,-12V*%
X119000000Y-119295000D03*
%TD*%
%TO.P,C5,1*%
%TO.N,GND*%
X90000000Y-107487646D03*
%TO.P,C5,2*%
%TO.N,Net-(C5-Pad2)*%
X95000000Y-107487646D03*
%TD*%
D15*
%TO.P,SW2,1,A*%
%TO.N,GND*%
X81500000Y-115000000D03*
%TO.P,SW2,2,B*%
%TO.N,Net-(SW2A-B)*%
X81500000Y-119500000D03*
%TO.P,SW2,3,C*%
%TO.N,Net-(SW2A-C)*%
X81500000Y-124000000D03*
%TD*%
D10*
%TO.P,R21,1*%
%TO.N,Net-(U1B-+)*%
X88000000Y-149000000D03*
%TO.P,R21,2*%
%TO.N,GND*%
X77840000Y-149000000D03*
%TD*%
%TO.P,C10,1*%
%TO.N,Net-(C10-Pad1)*%
X105553581Y-122355348D03*
%TO.P,C10,2*%
%TO.N,Net-(U2C-+)*%
X105553581Y-127355348D03*
%TD*%
D13*
%TO.P,RV4,1,1*%
%TO.N,GND*%
X78314935Y-104990210D03*
D12*
%TO.P,RV4,2,2*%
%TO.N,Net-(R8-Pad2)*%
X80814935Y-104990210D03*
%TO.P,RV4,3,3*%
%TO.N,Net-(J4-Pin_1)*%
X83314935Y-104990210D03*
D14*
%TO.P,RV4,MP*%
%TO.N,N/C*%
X76414935Y-97990210D03*
X85214935Y-97990210D03*
%TD*%
D10*
%TO.P,R14,1*%
%TO.N,Net-(U2A--)*%
X120500000Y-106750000D03*
%TO.P,R14,2*%
%TO.N,Net-(U2B--)*%
X120500000Y-116910000D03*
%TD*%
D17*
%TO.P,J4,1,Pin_1*%
%TO.N,Net-(J4-Pin_1)*%
X65597898Y-97352763D03*
%TD*%
D10*
%TO.P,R5,1*%
%TO.N,GND*%
X90250000Y-83000000D03*
%TO.P,R5,2*%
%TO.N,Net-(D3-K)*%
X90250000Y-72840000D03*
%TD*%
D19*
%TO.P,D4,1,K*%
%TO.N,Net-(D3-A)*%
X73880000Y-65500000D03*
D12*
%TO.P,D4,2,A*%
%TO.N,Net-(D1-K)*%
X81500000Y-65500000D03*
%TD*%
D22*
%TO.P,J1,1,Pin_1*%
%TO.N,12V*%
X76424429Y-36425314D03*
D21*
%TO.P,J1,2,Pin_2*%
%TO.N,-12V*%
X76424429Y-33885314D03*
%TO.P,J1,3,Pin_3*%
%TO.N,GND*%
X78964429Y-36425314D03*
%TO.P,J1,4,Pin_4*%
X78964429Y-33885314D03*
%TO.P,J1,5,Pin_5*%
%TO.N,5V*%
X81504429Y-36425314D03*
%TO.P,J1,6,Pin_6*%
%TO.N,unconnected-(J1-Pin_6-Pad6)*%
X81504429Y-33885314D03*
%TD*%
D11*
%TO.P,D10,1,K*%
%TO.N,Net-(D10-K)*%
X115298710Y-101135836D03*
D12*
%TO.P,D10,2,A*%
%TO.N,Net-(D10-A)*%
X107678710Y-101135836D03*
%TD*%
D10*
%TO.P,C12,1*%
%TO.N,Net-(C12-Pad1)*%
X90500000Y-140750000D03*
%TO.P,C12,2*%
%TO.N,Net-(C12-Pad2)*%
X90500000Y-145750000D03*
%TD*%
%TO.P,C7,1*%
%TO.N,Net-(D12-K)*%
X117750000Y-96000000D03*
%TO.P,C7,2*%
%TO.N,Net-(D2-K)*%
X117750000Y-101000000D03*
%TD*%
%TO.P,R15,1*%
%TO.N,Net-(U1D--)*%
X85750000Y-130750000D03*
%TO.P,R15,2*%
%TO.N,Net-(D6-K)*%
X75590000Y-130750000D03*
%TD*%
D15*
%TO.P,SW1,1,A*%
%TO.N,Net-(SW1A-A)*%
X113562434Y-82156087D03*
%TO.P,SW1,2,B*%
%TO.N,Net-(D2-A)*%
X113562434Y-77656087D03*
%TO.P,SW1,3,C*%
%TO.N,Net-(SW1A-C)*%
X113562434Y-73156087D03*
%TD*%
D10*
%TO.P,R16,1*%
%TO.N,Net-(U1C-+)*%
X73250000Y-130000000D03*
%TO.P,R16,2*%
%TO.N,Net-(D6-K)*%
X63090000Y-130000000D03*
%TD*%
%TO.P,C2,1*%
%TO.N,Net-(SW3A-B)*%
X117750000Y-88500000D03*
%TO.P,C2,2*%
%TO.N,Net-(D10-K)*%
X117750000Y-93500000D03*
%TD*%
D19*
%TO.P,D9,1,K*%
%TO.N,Net-(D10-A)*%
X107675277Y-104618720D03*
D12*
%TO.P,D9,2,A*%
%TO.N,Net-(D11-K)*%
X115295277Y-104618720D03*
%TD*%
D23*
%TO.P,D2,1,K*%
%TO.N,Net-(D2-K)*%
X113000000Y-57690000D03*
D12*
%TO.P,D2,2,A*%
%TO.N,Net-(D2-A)*%
X113000000Y-65310000D03*
%TD*%
D10*
%TO.P,C6,1*%
%TO.N,Net-(SW4A-B)*%
X99750000Y-107487646D03*
%TO.P,C6,2*%
%TO.N,Net-(D10-A)*%
X104750000Y-107487646D03*
%TD*%
%TO.P,R12,1*%
%TO.N,Net-(U1D--)*%
X75670000Y-108000000D03*
%TO.P,R12,2*%
%TO.N,Net-(SW2A-B)*%
X85830000Y-108000000D03*
%TD*%
D16*
%TO.P,U1,1*%
%TO.N,Net-(D6-A)*%
X65250000Y-111380000D03*
D10*
%TO.P,U1,2,-*%
X65250000Y-113920000D03*
%TO.P,U1,3,+*%
%TO.N,Net-(D1-A)*%
X65250000Y-116460000D03*
%TO.P,U1,4,V+*%
%TO.N,12V*%
X65250000Y-119000000D03*
%TO.P,U1,5,+*%
%TO.N,Net-(U1B-+)*%
X65250000Y-121540000D03*
%TO.P,U1,6,-*%
%TO.N,Net-(SW2A-C)*%
X65250000Y-124080000D03*
%TO.P,U1,7*%
X65250000Y-126620000D03*
%TO.P,U1,8*%
%TO.N,Net-(R11-Pad1)*%
X72870000Y-126620000D03*
%TO.P,U1,9,-*%
%TO.N,Net-(U1C--)*%
X72870000Y-124080000D03*
%TO.P,U1,10,+*%
%TO.N,Net-(U1C-+)*%
X72870000Y-121540000D03*
%TO.P,U1,11,V-*%
%TO.N,-12V*%
X72870000Y-119000000D03*
%TO.P,U1,12,+*%
%TO.N,GND*%
X72870000Y-116460000D03*
%TO.P,U1,13,-*%
%TO.N,Net-(U1D--)*%
X72870000Y-113920000D03*
%TO.P,U1,14*%
%TO.N,Net-(R13-Pad1)*%
X72870000Y-111380000D03*
%TD*%
D11*
%TO.P,D3,1,K*%
%TO.N,Net-(D3-K)*%
X81500000Y-69000000D03*
D12*
%TO.P,D3,2,A*%
%TO.N,Net-(D3-A)*%
X73880000Y-69000000D03*
%TD*%
D10*
%TO.P,C9,1*%
%TO.N,GND*%
X105500000Y-120000000D03*
%TO.P,C9,2*%
%TO.N,12V*%
X105500000Y-115000000D03*
%TD*%
D22*
%TO.P,J2,1,Pin_1*%
%TO.N,12V*%
X99354429Y-36425314D03*
D21*
%TO.P,J2,2,Pin_2*%
%TO.N,-12V*%
X99354429Y-33885314D03*
%TO.P,J2,3,Pin_3*%
%TO.N,GND*%
X101894429Y-36425314D03*
%TO.P,J2,4,Pin_4*%
X101894429Y-33885314D03*
%TO.P,J2,5,Pin_5*%
%TO.N,5V*%
X104434429Y-36425314D03*
%TO.P,J2,6,Pin_6*%
%TO.N,unconnected-(J2-Pin_6-Pad6)*%
X104434429Y-33885314D03*
%TD*%
D17*
%TO.P,J3,1,Pin_1*%
%TO.N,Net-(J3-Pin_1)*%
X65645193Y-77365117D03*
%TD*%
D10*
%TO.P,R13,1*%
%TO.N,Net-(R13-Pad1)*%
X90500000Y-103830000D03*
%TO.P,R13,2*%
%TO.N,Net-(D8-K)*%
X90500000Y-93670000D03*
%TD*%
%TO.P,R17,1*%
%TO.N,Net-(SW2A-B)*%
X85750000Y-127750000D03*
%TO.P,R17,2*%
%TO.N,Net-(U1C--)*%
X75590000Y-127750000D03*
%TD*%
D24*
%TO.N,Net-(C12-Pad1)*%
X86701000Y-144549000D02*
X90500000Y-140750000D01*
X80900000Y-145750000D02*
X82101000Y-144549000D01*
X82101000Y-144549000D02*
X86701000Y-144549000D01*
%TO.N,Net-(D11-K)*%
X117750000Y-108500000D02*
X115676557Y-108500000D01*
X115676557Y-108500000D02*
X115295277Y-108118720D01*
%TO.N,Net-(D2-K)*%
X118851000Y-60041000D02*
X118851000Y-99899000D01*
X116060000Y-111635000D02*
X116496277Y-111198723D01*
X118851000Y-99899000D02*
X117750000Y-101000000D01*
X116500000Y-57690000D02*
X118851000Y-60041000D01*
%TO.N,Net-(SW4A-B)*%
X90400000Y-119500000D02*
X91500000Y-119500000D01*
%TO.N,Net-(SW3A-B)*%
X117750000Y-88500000D02*
X115750000Y-88500000D01*
X115750000Y-88500000D02*
X108893348Y-95356652D01*
X99000000Y-118492468D02*
X108893348Y-108599120D01*
X99000000Y-119500000D02*
X99000000Y-118492468D01*
X108893348Y-108599120D02*
X108893348Y-95356652D01*
%TO.N,Net-(D10-K)*%
X109541000Y-108647840D02*
X107339000Y-110849840D01*
X109541000Y-106893546D02*
X109541000Y-108647840D01*
X115312348Y-97667780D02*
X116511000Y-96469128D01*
X107339000Y-110849840D02*
X107339000Y-115614000D01*
X115298710Y-101135836D02*
X109541000Y-106893546D01*
X116511000Y-96469128D02*
X116511000Y-94739000D01*
X107339000Y-115614000D02*
X108440000Y-116715000D01*
X116511000Y-94739000D02*
X117750000Y-93500000D01*
%TO.N,GND*%
X90250000Y-83000000D02*
X95263239Y-83000000D01*
X99000000Y-115000000D02*
X100500000Y-115000000D01*
X77840000Y-149000000D02*
X81090000Y-152250000D01*
X63376158Y-115021000D02*
X62356646Y-114001488D01*
X71431000Y-115021000D02*
X63376158Y-115021000D01*
X93399000Y-136988050D02*
X99250000Y-131137050D01*
X80500000Y-114000000D02*
X81500000Y-115000000D01*
X90400000Y-115000000D02*
X99000000Y-115000000D01*
X102492496Y-127742504D02*
X108440000Y-121795000D01*
X72870000Y-116460000D02*
X71431000Y-115021000D01*
X90400000Y-115000000D02*
X90400000Y-107887646D01*
X81500000Y-115000000D02*
X90400000Y-115000000D01*
X90340000Y-152250000D02*
X93399000Y-149191000D01*
X98077241Y-127742504D02*
X102492496Y-127742504D01*
X103500000Y-74763239D02*
X95263239Y-83000000D01*
X90400000Y-107887646D02*
X90000000Y-107487646D01*
X99250000Y-128915263D02*
X98077241Y-127742504D01*
X99250000Y-131137050D02*
X99250000Y-128915263D01*
X105500000Y-120000000D02*
X106645000Y-120000000D01*
X81090000Y-152250000D02*
X90340000Y-152250000D01*
X75750000Y-114000000D02*
X80500000Y-114000000D01*
X103500000Y-65350000D02*
X103500000Y-74763239D01*
X93399000Y-149191000D02*
X93399000Y-136988050D01*
X106645000Y-120000000D02*
X108440000Y-121795000D01*
X95263239Y-83000000D02*
X97229308Y-84966069D01*
%TO.N,Net-(C10-Pad1)*%
X102100000Y-133215000D02*
X108440000Y-126875000D01*
X102100000Y-145750000D02*
X99600000Y-145750000D01*
X102100000Y-145750000D02*
X102100000Y-133215000D01*
%TO.N,12V*%
X76424429Y-36425314D02*
X77599743Y-35250000D01*
X77599743Y-35250000D02*
X98179115Y-35250000D01*
X98179115Y-35250000D02*
X99354429Y-36425314D01*
%TO.N,-12V*%
X119000000Y-119295000D02*
X116100000Y-119295000D01*
X116100000Y-119295000D02*
X116060000Y-119255000D01*
%TO.N,Net-(D11-A)*%
X107675277Y-108118720D02*
X104543997Y-111250000D01*
X104543997Y-111250000D02*
X98160000Y-111250000D01*
%TO.N,Net-(D6-K)*%
X61255646Y-113545438D02*
X61982084Y-112819000D01*
X61982084Y-112819000D02*
X68051000Y-112819000D01*
X74790001Y-131549999D02*
X64639999Y-131549999D01*
X64639999Y-131549999D02*
X63090000Y-130000000D01*
X68051000Y-112819000D02*
X72870000Y-108000000D01*
X75590000Y-130750000D02*
X74790001Y-131549999D01*
X63090000Y-130000000D02*
X61255646Y-128165646D01*
X61255646Y-128165646D02*
X61255646Y-113545438D01*
%TO.N,Net-(D1-A)*%
X80201086Y-87938805D02*
X62621156Y-87938805D01*
X61500000Y-86000000D02*
X60700001Y-85200001D01*
X60700001Y-85200001D02*
X60700001Y-75179999D01*
X62621156Y-87938805D02*
X61520156Y-89039805D01*
X97215996Y-104953715D02*
X80201086Y-87938805D01*
X60700001Y-75179999D02*
X73880000Y-62000000D01*
%TO.N,5V*%
X82655429Y-37576314D02*
X103283429Y-37576314D01*
X103283429Y-37576314D02*
X104434429Y-36425314D01*
X81504429Y-36425314D02*
X82655429Y-37576314D01*
%TO.N,Net-(U1C--)*%
X75590000Y-126800000D02*
X75590000Y-127750000D01*
X72870000Y-124080000D02*
X75590000Y-126800000D01*
%TO.N,Net-(SW2A-B)*%
X85750000Y-127750000D02*
X85750000Y-123750000D01*
X85750000Y-123750000D02*
X81500000Y-119500000D01*
%TO.N,Net-(SW1A-C)*%
X103500000Y-55190000D02*
X107601000Y-59291000D01*
X107601000Y-59291000D02*
X107601000Y-67194653D01*
X107601000Y-67194653D02*
X113562434Y-73156087D01*
%TO.N,Net-(R4-Pad2)*%
X72459999Y-86799999D02*
X79107653Y-86799999D01*
X79107653Y-86799999D02*
X80907652Y-85000000D01*
X71660000Y-86000000D02*
X72459999Y-86799999D01*
%TO.N,Net-(R8-Pad2)*%
X80814935Y-98174584D02*
X80814935Y-104990210D01*
X71680156Y-89039805D02*
X80814935Y-98174584D01*
%TO.N,Net-(U1D--)*%
X85750000Y-130750000D02*
X84649000Y-129649000D01*
X79751000Y-120801000D02*
X72870000Y-113920000D01*
X84649000Y-124434108D02*
X81015892Y-120801000D01*
X84649000Y-129649000D02*
X84649000Y-124434108D01*
X81015892Y-120801000D02*
X79751000Y-120801000D01*
%TO.N,Net-(R13-Pad1)*%
X72870000Y-111380000D02*
X73982950Y-111380000D01*
X87679000Y-106651000D02*
X90500000Y-103830000D01*
X73982950Y-111380000D02*
X78711950Y-106651000D01*
X78711950Y-106651000D02*
X87679000Y-106651000D01*
%TO.N,Net-(U2B--)*%
X97100000Y-145750000D02*
X97100000Y-137365979D01*
X106654581Y-127811398D02*
X106654581Y-126120419D01*
X106654581Y-126120419D02*
X108440000Y-124335000D01*
X97100000Y-137365979D02*
X106654581Y-127811398D01*
%TO.N,Net-(SW2A-C)*%
X90400000Y-124000000D02*
X99000000Y-124000000D01*
X81500000Y-124000000D02*
X80479000Y-122979000D01*
X80479000Y-122979000D02*
X66351000Y-122979000D01*
X66351000Y-122979000D02*
X65250000Y-124080000D01*
%TO.N,Net-(U2A--)*%
X114250000Y-106750000D02*
X109365000Y-111635000D01*
X120500000Y-106750000D02*
X114250000Y-106750000D01*
X109365000Y-111635000D02*
X108440000Y-111635000D01*
%TO.N,Net-(U2C-+)*%
X105553581Y-127355348D02*
X105553581Y-125664369D01*
X117250000Y-129090000D02*
X118410000Y-130250000D01*
X105553581Y-125664369D02*
X108321950Y-122896000D01*
X108321950Y-122896000D02*
X114959000Y-122896000D01*
X117250000Y-122985000D02*
X117250000Y-129090000D01*
X114959000Y-122896000D02*
X116060000Y-121795000D01*
X116060000Y-121795000D02*
X117250000Y-122985000D01*
%TO.N,Net-(J3-Pin_1)*%
X79949895Y-81542243D02*
X69822319Y-81542243D01*
X83407652Y-85000000D02*
X79949895Y-81542243D01*
X69822319Y-81542243D02*
X65645193Y-77365117D01*
%TO.N,Net-(J4-Pin_1)*%
X74495135Y-106250000D02*
X82055145Y-106250000D01*
X82055145Y-106250000D02*
X83314935Y-104990210D01*
X65597898Y-97352763D02*
X74495135Y-106250000D01*
%TD*%
M02*
