%TF.GenerationSoftware,KiCad,Pcbnew,9.0.6*%
%TF.CreationDate,2026-05-21T23:56:02+10:00*%
%TF.ProjectId,diode-ladder-filter,64696f64-652d-46c6-9164-6465722d6669,rev?*%
%TF.SameCoordinates,Original*%
%TF.FileFunction,Legend,Top*%
%TF.FilePolarity,Positive*%
%FSLAX46Y46*%
G04 Gerber Fmt 4.6, Leading zero omitted, Abs format (unit mm)*
G04 Created by KiCad (PCBNEW 9.0.6) date 2026-05-21 23:56:02*
%MOMM*%
%LPD*%
G01*
G04 APERTURE LIST*
%ADD10C,0.300000*%
%ADD11C,0.150000*%
%ADD12C,0.100000*%
%ADD13C,0.120000*%
%ADD14C,0.000000*%
G04 APERTURE END LIST*
D10*
X59044877Y-150358411D02*
X59044877Y-148858411D01*
X59044877Y-148858411D02*
X59402020Y-148858411D01*
X59402020Y-148858411D02*
X59616306Y-148929840D01*
X59616306Y-148929840D02*
X59759163Y-149072697D01*
X59759163Y-149072697D02*
X59830592Y-149215554D01*
X59830592Y-149215554D02*
X59902020Y-149501268D01*
X59902020Y-149501268D02*
X59902020Y-149715554D01*
X59902020Y-149715554D02*
X59830592Y-150001268D01*
X59830592Y-150001268D02*
X59759163Y-150144125D01*
X59759163Y-150144125D02*
X59616306Y-150286983D01*
X59616306Y-150286983D02*
X59402020Y-150358411D01*
X59402020Y-150358411D02*
X59044877Y-150358411D01*
X60544877Y-150358411D02*
X60544877Y-148858411D01*
X61544878Y-148858411D02*
X61830592Y-148858411D01*
X61830592Y-148858411D02*
X61973449Y-148929840D01*
X61973449Y-148929840D02*
X62116306Y-149072697D01*
X62116306Y-149072697D02*
X62187735Y-149358411D01*
X62187735Y-149358411D02*
X62187735Y-149858411D01*
X62187735Y-149858411D02*
X62116306Y-150144125D01*
X62116306Y-150144125D02*
X61973449Y-150286983D01*
X61973449Y-150286983D02*
X61830592Y-150358411D01*
X61830592Y-150358411D02*
X61544878Y-150358411D01*
X61544878Y-150358411D02*
X61402021Y-150286983D01*
X61402021Y-150286983D02*
X61259163Y-150144125D01*
X61259163Y-150144125D02*
X61187735Y-149858411D01*
X61187735Y-149858411D02*
X61187735Y-149358411D01*
X61187735Y-149358411D02*
X61259163Y-149072697D01*
X61259163Y-149072697D02*
X61402021Y-148929840D01*
X61402021Y-148929840D02*
X61544878Y-148858411D01*
X62830592Y-150358411D02*
X62830592Y-148858411D01*
X62830592Y-148858411D02*
X63187735Y-148858411D01*
X63187735Y-148858411D02*
X63402021Y-148929840D01*
X63402021Y-148929840D02*
X63544878Y-149072697D01*
X63544878Y-149072697D02*
X63616307Y-149215554D01*
X63616307Y-149215554D02*
X63687735Y-149501268D01*
X63687735Y-149501268D02*
X63687735Y-149715554D01*
X63687735Y-149715554D02*
X63616307Y-150001268D01*
X63616307Y-150001268D02*
X63544878Y-150144125D01*
X63544878Y-150144125D02*
X63402021Y-150286983D01*
X63402021Y-150286983D02*
X63187735Y-150358411D01*
X63187735Y-150358411D02*
X62830592Y-150358411D01*
X64330592Y-149572697D02*
X64830592Y-149572697D01*
X65044878Y-150358411D02*
X64330592Y-150358411D01*
X64330592Y-150358411D02*
X64330592Y-148858411D01*
X64330592Y-148858411D02*
X65044878Y-148858411D01*
X59759163Y-152773327D02*
X59044877Y-152773327D01*
X59044877Y-152773327D02*
X59044877Y-151273327D01*
X60187735Y-152344756D02*
X60902021Y-152344756D01*
X60044878Y-152773327D02*
X60544878Y-151273327D01*
X60544878Y-151273327D02*
X61044878Y-152773327D01*
X61544877Y-152773327D02*
X61544877Y-151273327D01*
X61544877Y-151273327D02*
X61902020Y-151273327D01*
X61902020Y-151273327D02*
X62116306Y-151344756D01*
X62116306Y-151344756D02*
X62259163Y-151487613D01*
X62259163Y-151487613D02*
X62330592Y-151630470D01*
X62330592Y-151630470D02*
X62402020Y-151916184D01*
X62402020Y-151916184D02*
X62402020Y-152130470D01*
X62402020Y-152130470D02*
X62330592Y-152416184D01*
X62330592Y-152416184D02*
X62259163Y-152559041D01*
X62259163Y-152559041D02*
X62116306Y-152701899D01*
X62116306Y-152701899D02*
X61902020Y-152773327D01*
X61902020Y-152773327D02*
X61544877Y-152773327D01*
X63044877Y-152773327D02*
X63044877Y-151273327D01*
X63044877Y-151273327D02*
X63402020Y-151273327D01*
X63402020Y-151273327D02*
X63616306Y-151344756D01*
X63616306Y-151344756D02*
X63759163Y-151487613D01*
X63759163Y-151487613D02*
X63830592Y-151630470D01*
X63830592Y-151630470D02*
X63902020Y-151916184D01*
X63902020Y-151916184D02*
X63902020Y-152130470D01*
X63902020Y-152130470D02*
X63830592Y-152416184D01*
X63830592Y-152416184D02*
X63759163Y-152559041D01*
X63759163Y-152559041D02*
X63616306Y-152701899D01*
X63616306Y-152701899D02*
X63402020Y-152773327D01*
X63402020Y-152773327D02*
X63044877Y-152773327D01*
X64544877Y-151987613D02*
X65044877Y-151987613D01*
X65259163Y-152773327D02*
X64544877Y-152773327D01*
X64544877Y-152773327D02*
X64544877Y-151273327D01*
X64544877Y-151273327D02*
X65259163Y-151273327D01*
X66759163Y-152773327D02*
X66259163Y-152059041D01*
X65902020Y-152773327D02*
X65902020Y-151273327D01*
X65902020Y-151273327D02*
X66473449Y-151273327D01*
X66473449Y-151273327D02*
X66616306Y-151344756D01*
X66616306Y-151344756D02*
X66687735Y-151416184D01*
X66687735Y-151416184D02*
X66759163Y-151559041D01*
X66759163Y-151559041D02*
X66759163Y-151773327D01*
X66759163Y-151773327D02*
X66687735Y-151916184D01*
X66687735Y-151916184D02*
X66616306Y-151987613D01*
X66616306Y-151987613D02*
X66473449Y-152059041D01*
X66473449Y-152059041D02*
X65902020Y-152059041D01*
X59544877Y-154402529D02*
X59044877Y-154402529D01*
X59044877Y-155188243D02*
X59044877Y-153688243D01*
X59044877Y-153688243D02*
X59759163Y-153688243D01*
X60330591Y-155188243D02*
X60330591Y-153688243D01*
X61759163Y-155188243D02*
X61044877Y-155188243D01*
X61044877Y-155188243D02*
X61044877Y-153688243D01*
X62044878Y-153688243D02*
X62902021Y-153688243D01*
X62473449Y-155188243D02*
X62473449Y-153688243D01*
X63402020Y-154402529D02*
X63902020Y-154402529D01*
X64116306Y-155188243D02*
X63402020Y-155188243D01*
X63402020Y-155188243D02*
X63402020Y-153688243D01*
X63402020Y-153688243D02*
X64116306Y-153688243D01*
X65616306Y-155188243D02*
X65116306Y-154473957D01*
X64759163Y-155188243D02*
X64759163Y-153688243D01*
X64759163Y-153688243D02*
X65330592Y-153688243D01*
X65330592Y-153688243D02*
X65473449Y-153759672D01*
X65473449Y-153759672D02*
X65544878Y-153831100D01*
X65544878Y-153831100D02*
X65616306Y-153973957D01*
X65616306Y-153973957D02*
X65616306Y-154188243D01*
X65616306Y-154188243D02*
X65544878Y-154331100D01*
X65544878Y-154331100D02*
X65473449Y-154402529D01*
X65473449Y-154402529D02*
X65330592Y-154473957D01*
X65330592Y-154473957D02*
X64759163Y-154473957D01*
X58830592Y-156103159D02*
X59330592Y-157603159D01*
X59330592Y-157603159D02*
X59830592Y-156103159D01*
X60259163Y-156246016D02*
X60330591Y-156174588D01*
X60330591Y-156174588D02*
X60473449Y-156103159D01*
X60473449Y-156103159D02*
X60830591Y-156103159D01*
X60830591Y-156103159D02*
X60973449Y-156174588D01*
X60973449Y-156174588D02*
X61044877Y-156246016D01*
X61044877Y-156246016D02*
X61116306Y-156388873D01*
X61116306Y-156388873D02*
X61116306Y-156531731D01*
X61116306Y-156531731D02*
X61044877Y-156746016D01*
X61044877Y-156746016D02*
X60187734Y-157603159D01*
X60187734Y-157603159D02*
X61116306Y-157603159D01*
D11*
X105341368Y-88145142D02*
X105293749Y-88192762D01*
X105293749Y-88192762D02*
X105150892Y-88240381D01*
X105150892Y-88240381D02*
X105055654Y-88240381D01*
X105055654Y-88240381D02*
X104912797Y-88192762D01*
X104912797Y-88192762D02*
X104817559Y-88097523D01*
X104817559Y-88097523D02*
X104769940Y-88002285D01*
X104769940Y-88002285D02*
X104722321Y-87811809D01*
X104722321Y-87811809D02*
X104722321Y-87668952D01*
X104722321Y-87668952D02*
X104769940Y-87478476D01*
X104769940Y-87478476D02*
X104817559Y-87383238D01*
X104817559Y-87383238D02*
X104912797Y-87288000D01*
X104912797Y-87288000D02*
X105055654Y-87240381D01*
X105055654Y-87240381D02*
X105150892Y-87240381D01*
X105150892Y-87240381D02*
X105293749Y-87288000D01*
X105293749Y-87288000D02*
X105341368Y-87335619D01*
X106293749Y-88240381D02*
X105722321Y-88240381D01*
X106008035Y-88240381D02*
X106008035Y-87240381D01*
X106008035Y-87240381D02*
X105912797Y-87383238D01*
X105912797Y-87383238D02*
X105817559Y-87478476D01*
X105817559Y-87478476D02*
X105722321Y-87526095D01*
X109793749Y-94740381D02*
X109793749Y-93740381D01*
X109793749Y-93740381D02*
X110031844Y-93740381D01*
X110031844Y-93740381D02*
X110174701Y-93788000D01*
X110174701Y-93788000D02*
X110269939Y-93883238D01*
X110269939Y-93883238D02*
X110317558Y-93978476D01*
X110317558Y-93978476D02*
X110365177Y-94168952D01*
X110365177Y-94168952D02*
X110365177Y-94311809D01*
X110365177Y-94311809D02*
X110317558Y-94502285D01*
X110317558Y-94502285D02*
X110269939Y-94597523D01*
X110269939Y-94597523D02*
X110174701Y-94692762D01*
X110174701Y-94692762D02*
X110031844Y-94740381D01*
X110031844Y-94740381D02*
X109793749Y-94740381D01*
X111317558Y-94740381D02*
X110746130Y-94740381D01*
X111031844Y-94740381D02*
X111031844Y-93740381D01*
X111031844Y-93740381D02*
X110936606Y-93883238D01*
X110936606Y-93883238D02*
X110841368Y-93978476D01*
X110841368Y-93978476D02*
X110746130Y-94026095D01*
X111698511Y-93835619D02*
X111746130Y-93788000D01*
X111746130Y-93788000D02*
X111841368Y-93740381D01*
X111841368Y-93740381D02*
X112079463Y-93740381D01*
X112079463Y-93740381D02*
X112174701Y-93788000D01*
X112174701Y-93788000D02*
X112222320Y-93835619D01*
X112222320Y-93835619D02*
X112269939Y-93930857D01*
X112269939Y-93930857D02*
X112269939Y-94026095D01*
X112269939Y-94026095D02*
X112222320Y-94168952D01*
X112222320Y-94168952D02*
X111650892Y-94740381D01*
X111650892Y-94740381D02*
X112269939Y-94740381D01*
X120187379Y-130676214D02*
X119854046Y-130200023D01*
X119615951Y-130676214D02*
X119615951Y-129676214D01*
X119615951Y-129676214D02*
X119996903Y-129676214D01*
X119996903Y-129676214D02*
X120092141Y-129723833D01*
X120092141Y-129723833D02*
X120139760Y-129771452D01*
X120139760Y-129771452D02*
X120187379Y-129866690D01*
X120187379Y-129866690D02*
X120187379Y-130009547D01*
X120187379Y-130009547D02*
X120139760Y-130104785D01*
X120139760Y-130104785D02*
X120092141Y-130152404D01*
X120092141Y-130152404D02*
X119996903Y-130200023D01*
X119996903Y-130200023D02*
X119615951Y-130200023D01*
X120568332Y-129771452D02*
X120615951Y-129723833D01*
X120615951Y-129723833D02*
X120711189Y-129676214D01*
X120711189Y-129676214D02*
X120949284Y-129676214D01*
X120949284Y-129676214D02*
X121044522Y-129723833D01*
X121044522Y-129723833D02*
X121092141Y-129771452D01*
X121092141Y-129771452D02*
X121139760Y-129866690D01*
X121139760Y-129866690D02*
X121139760Y-129961928D01*
X121139760Y-129961928D02*
X121092141Y-130104785D01*
X121092141Y-130104785D02*
X120520713Y-130676214D01*
X120520713Y-130676214D02*
X121139760Y-130676214D01*
X121758808Y-129676214D02*
X121854046Y-129676214D01*
X121854046Y-129676214D02*
X121949284Y-129723833D01*
X121949284Y-129723833D02*
X121996903Y-129771452D01*
X121996903Y-129771452D02*
X122044522Y-129866690D01*
X122044522Y-129866690D02*
X122092141Y-130057166D01*
X122092141Y-130057166D02*
X122092141Y-130295261D01*
X122092141Y-130295261D02*
X122044522Y-130485737D01*
X122044522Y-130485737D02*
X121996903Y-130580975D01*
X121996903Y-130580975D02*
X121949284Y-130628595D01*
X121949284Y-130628595D02*
X121854046Y-130676214D01*
X121854046Y-130676214D02*
X121758808Y-130676214D01*
X121758808Y-130676214D02*
X121663570Y-130628595D01*
X121663570Y-130628595D02*
X121615951Y-130580975D01*
X121615951Y-130580975D02*
X121568332Y-130485737D01*
X121568332Y-130485737D02*
X121520713Y-130295261D01*
X121520713Y-130295261D02*
X121520713Y-130057166D01*
X121520713Y-130057166D02*
X121568332Y-129866690D01*
X121568332Y-129866690D02*
X121615951Y-129771452D01*
X121615951Y-129771452D02*
X121663570Y-129723833D01*
X121663570Y-129723833D02*
X121758808Y-129676214D01*
X94184127Y-83511307D02*
X93707936Y-83844640D01*
X94184127Y-84082735D02*
X93184127Y-84082735D01*
X93184127Y-84082735D02*
X93184127Y-83701783D01*
X93184127Y-83701783D02*
X93231746Y-83606545D01*
X93231746Y-83606545D02*
X93279365Y-83558926D01*
X93279365Y-83558926D02*
X93374603Y-83511307D01*
X93374603Y-83511307D02*
X93517460Y-83511307D01*
X93517460Y-83511307D02*
X93612698Y-83558926D01*
X93612698Y-83558926D02*
X93660317Y-83606545D01*
X93660317Y-83606545D02*
X93707936Y-83701783D01*
X93707936Y-83701783D02*
X93707936Y-84082735D01*
X93184127Y-83225592D02*
X94184127Y-82892259D01*
X94184127Y-82892259D02*
X93184127Y-82558926D01*
X93184127Y-82320830D02*
X93184127Y-81701783D01*
X93184127Y-81701783D02*
X93565079Y-82035116D01*
X93565079Y-82035116D02*
X93565079Y-81892259D01*
X93565079Y-81892259D02*
X93612698Y-81797021D01*
X93612698Y-81797021D02*
X93660317Y-81749402D01*
X93660317Y-81749402D02*
X93755555Y-81701783D01*
X93755555Y-81701783D02*
X93993650Y-81701783D01*
X93993650Y-81701783D02*
X94088888Y-81749402D01*
X94088888Y-81749402D02*
X94136508Y-81797021D01*
X94136508Y-81797021D02*
X94184127Y-81892259D01*
X94184127Y-81892259D02*
X94184127Y-82177973D01*
X94184127Y-82177973D02*
X94136508Y-82273211D01*
X94136508Y-82273211D02*
X94088888Y-82320830D01*
X76109580Y-122166666D02*
X76157200Y-122214285D01*
X76157200Y-122214285D02*
X76204819Y-122357142D01*
X76204819Y-122357142D02*
X76204819Y-122452380D01*
X76204819Y-122452380D02*
X76157200Y-122595237D01*
X76157200Y-122595237D02*
X76061961Y-122690475D01*
X76061961Y-122690475D02*
X75966723Y-122738094D01*
X75966723Y-122738094D02*
X75776247Y-122785713D01*
X75776247Y-122785713D02*
X75633390Y-122785713D01*
X75633390Y-122785713D02*
X75442914Y-122738094D01*
X75442914Y-122738094D02*
X75347676Y-122690475D01*
X75347676Y-122690475D02*
X75252438Y-122595237D01*
X75252438Y-122595237D02*
X75204819Y-122452380D01*
X75204819Y-122452380D02*
X75204819Y-122357142D01*
X75204819Y-122357142D02*
X75252438Y-122214285D01*
X75252438Y-122214285D02*
X75300057Y-122166666D01*
X75538152Y-121309523D02*
X76204819Y-121309523D01*
X75157200Y-121547618D02*
X75871485Y-121785713D01*
X75871485Y-121785713D02*
X75871485Y-121166666D01*
X74833333Y-89954819D02*
X74500000Y-89478628D01*
X74261905Y-89954819D02*
X74261905Y-88954819D01*
X74261905Y-88954819D02*
X74642857Y-88954819D01*
X74642857Y-88954819D02*
X74738095Y-89002438D01*
X74738095Y-89002438D02*
X74785714Y-89050057D01*
X74785714Y-89050057D02*
X74833333Y-89145295D01*
X74833333Y-89145295D02*
X74833333Y-89288152D01*
X74833333Y-89288152D02*
X74785714Y-89383390D01*
X74785714Y-89383390D02*
X74738095Y-89431009D01*
X74738095Y-89431009D02*
X74642857Y-89478628D01*
X74642857Y-89478628D02*
X74261905Y-89478628D01*
X75309524Y-89954819D02*
X75500000Y-89954819D01*
X75500000Y-89954819D02*
X75595238Y-89907200D01*
X75595238Y-89907200D02*
X75642857Y-89859580D01*
X75642857Y-89859580D02*
X75738095Y-89716723D01*
X75738095Y-89716723D02*
X75785714Y-89526247D01*
X75785714Y-89526247D02*
X75785714Y-89145295D01*
X75785714Y-89145295D02*
X75738095Y-89050057D01*
X75738095Y-89050057D02*
X75690476Y-89002438D01*
X75690476Y-89002438D02*
X75595238Y-88954819D01*
X75595238Y-88954819D02*
X75404762Y-88954819D01*
X75404762Y-88954819D02*
X75309524Y-89002438D01*
X75309524Y-89002438D02*
X75261905Y-89050057D01*
X75261905Y-89050057D02*
X75214286Y-89145295D01*
X75214286Y-89145295D02*
X75214286Y-89383390D01*
X75214286Y-89383390D02*
X75261905Y-89478628D01*
X75261905Y-89478628D02*
X75309524Y-89526247D01*
X75309524Y-89526247D02*
X75404762Y-89573866D01*
X75404762Y-89573866D02*
X75595238Y-89573866D01*
X75595238Y-89573866D02*
X75690476Y-89526247D01*
X75690476Y-89526247D02*
X75738095Y-89478628D01*
X75738095Y-89478628D02*
X75785714Y-89383390D01*
X94054819Y-144295238D02*
X93578628Y-144628571D01*
X94054819Y-144866666D02*
X93054819Y-144866666D01*
X93054819Y-144866666D02*
X93054819Y-144485714D01*
X93054819Y-144485714D02*
X93102438Y-144390476D01*
X93102438Y-144390476D02*
X93150057Y-144342857D01*
X93150057Y-144342857D02*
X93245295Y-144295238D01*
X93245295Y-144295238D02*
X93388152Y-144295238D01*
X93388152Y-144295238D02*
X93483390Y-144342857D01*
X93483390Y-144342857D02*
X93531009Y-144390476D01*
X93531009Y-144390476D02*
X93578628Y-144485714D01*
X93578628Y-144485714D02*
X93578628Y-144866666D01*
X93054819Y-144009523D02*
X94054819Y-143676190D01*
X94054819Y-143676190D02*
X93054819Y-143342857D01*
X93054819Y-143104761D02*
X93054819Y-142438095D01*
X93054819Y-142438095D02*
X94054819Y-142866666D01*
D12*
X96309800Y-125658018D02*
X96357419Y-125515161D01*
X96357419Y-125515161D02*
X96357419Y-125277066D01*
X96357419Y-125277066D02*
X96309800Y-125181828D01*
X96309800Y-125181828D02*
X96262180Y-125134209D01*
X96262180Y-125134209D02*
X96166942Y-125086590D01*
X96166942Y-125086590D02*
X96071704Y-125086590D01*
X96071704Y-125086590D02*
X95976466Y-125134209D01*
X95976466Y-125134209D02*
X95928847Y-125181828D01*
X95928847Y-125181828D02*
X95881228Y-125277066D01*
X95881228Y-125277066D02*
X95833609Y-125467542D01*
X95833609Y-125467542D02*
X95785990Y-125562780D01*
X95785990Y-125562780D02*
X95738371Y-125610399D01*
X95738371Y-125610399D02*
X95643133Y-125658018D01*
X95643133Y-125658018D02*
X95547895Y-125658018D01*
X95547895Y-125658018D02*
X95452657Y-125610399D01*
X95452657Y-125610399D02*
X95405038Y-125562780D01*
X95405038Y-125562780D02*
X95357419Y-125467542D01*
X95357419Y-125467542D02*
X95357419Y-125229447D01*
X95357419Y-125229447D02*
X95405038Y-125086590D01*
X95357419Y-124753256D02*
X96357419Y-124515161D01*
X96357419Y-124515161D02*
X95643133Y-124324685D01*
X95643133Y-124324685D02*
X96357419Y-124134209D01*
X96357419Y-124134209D02*
X95357419Y-123896114D01*
X95357419Y-123610399D02*
X95357419Y-122991352D01*
X95357419Y-122991352D02*
X95738371Y-123324685D01*
X95738371Y-123324685D02*
X95738371Y-123181828D01*
X95738371Y-123181828D02*
X95785990Y-123086590D01*
X95785990Y-123086590D02*
X95833609Y-123038971D01*
X95833609Y-123038971D02*
X95928847Y-122991352D01*
X95928847Y-122991352D02*
X96166942Y-122991352D01*
X96166942Y-122991352D02*
X96262180Y-123038971D01*
X96262180Y-123038971D02*
X96309800Y-123086590D01*
X96309800Y-123086590D02*
X96357419Y-123181828D01*
X96357419Y-123181828D02*
X96357419Y-123467542D01*
X96357419Y-123467542D02*
X96309800Y-123562780D01*
X96309800Y-123562780D02*
X96262180Y-123610399D01*
D11*
X69954819Y-58666666D02*
X69478628Y-58999999D01*
X69954819Y-59238094D02*
X68954819Y-59238094D01*
X68954819Y-59238094D02*
X68954819Y-58857142D01*
X68954819Y-58857142D02*
X69002438Y-58761904D01*
X69002438Y-58761904D02*
X69050057Y-58714285D01*
X69050057Y-58714285D02*
X69145295Y-58666666D01*
X69145295Y-58666666D02*
X69288152Y-58666666D01*
X69288152Y-58666666D02*
X69383390Y-58714285D01*
X69383390Y-58714285D02*
X69431009Y-58761904D01*
X69431009Y-58761904D02*
X69478628Y-58857142D01*
X69478628Y-58857142D02*
X69478628Y-59238094D01*
X69050057Y-58285713D02*
X69002438Y-58238094D01*
X69002438Y-58238094D02*
X68954819Y-58142856D01*
X68954819Y-58142856D02*
X68954819Y-57904761D01*
X68954819Y-57904761D02*
X69002438Y-57809523D01*
X69002438Y-57809523D02*
X69050057Y-57761904D01*
X69050057Y-57761904D02*
X69145295Y-57714285D01*
X69145295Y-57714285D02*
X69240533Y-57714285D01*
X69240533Y-57714285D02*
X69383390Y-57761904D01*
X69383390Y-57761904D02*
X69954819Y-58333332D01*
X69954819Y-58333332D02*
X69954819Y-57714285D01*
X62692645Y-111918858D02*
X62740265Y-111966477D01*
X62740265Y-111966477D02*
X62787884Y-112109334D01*
X62787884Y-112109334D02*
X62787884Y-112204572D01*
X62787884Y-112204572D02*
X62740265Y-112347429D01*
X62740265Y-112347429D02*
X62645026Y-112442667D01*
X62645026Y-112442667D02*
X62549788Y-112490286D01*
X62549788Y-112490286D02*
X62359312Y-112537905D01*
X62359312Y-112537905D02*
X62216455Y-112537905D01*
X62216455Y-112537905D02*
X62025979Y-112490286D01*
X62025979Y-112490286D02*
X61930741Y-112442667D01*
X61930741Y-112442667D02*
X61835503Y-112347429D01*
X61835503Y-112347429D02*
X61787884Y-112204572D01*
X61787884Y-112204572D02*
X61787884Y-112109334D01*
X61787884Y-112109334D02*
X61835503Y-111966477D01*
X61835503Y-111966477D02*
X61883122Y-111918858D01*
X61787884Y-111585524D02*
X61787884Y-110966477D01*
X61787884Y-110966477D02*
X62168836Y-111299810D01*
X62168836Y-111299810D02*
X62168836Y-111156953D01*
X62168836Y-111156953D02*
X62216455Y-111061715D01*
X62216455Y-111061715D02*
X62264074Y-111014096D01*
X62264074Y-111014096D02*
X62359312Y-110966477D01*
X62359312Y-110966477D02*
X62597407Y-110966477D01*
X62597407Y-110966477D02*
X62692645Y-111014096D01*
X62692645Y-111014096D02*
X62740265Y-111061715D01*
X62740265Y-111061715D02*
X62787884Y-111156953D01*
X62787884Y-111156953D02*
X62787884Y-111442667D01*
X62787884Y-111442667D02*
X62740265Y-111537905D01*
X62740265Y-111537905D02*
X62692645Y-111585524D01*
X99857142Y-154954819D02*
X99523809Y-154478628D01*
X99285714Y-154954819D02*
X99285714Y-153954819D01*
X99285714Y-153954819D02*
X99666666Y-153954819D01*
X99666666Y-153954819D02*
X99761904Y-154002438D01*
X99761904Y-154002438D02*
X99809523Y-154050057D01*
X99809523Y-154050057D02*
X99857142Y-154145295D01*
X99857142Y-154145295D02*
X99857142Y-154288152D01*
X99857142Y-154288152D02*
X99809523Y-154383390D01*
X99809523Y-154383390D02*
X99761904Y-154431009D01*
X99761904Y-154431009D02*
X99666666Y-154478628D01*
X99666666Y-154478628D02*
X99285714Y-154478628D01*
X100238095Y-154050057D02*
X100285714Y-154002438D01*
X100285714Y-154002438D02*
X100380952Y-153954819D01*
X100380952Y-153954819D02*
X100619047Y-153954819D01*
X100619047Y-153954819D02*
X100714285Y-154002438D01*
X100714285Y-154002438D02*
X100761904Y-154050057D01*
X100761904Y-154050057D02*
X100809523Y-154145295D01*
X100809523Y-154145295D02*
X100809523Y-154240533D01*
X100809523Y-154240533D02*
X100761904Y-154383390D01*
X100761904Y-154383390D02*
X100190476Y-154954819D01*
X100190476Y-154954819D02*
X100809523Y-154954819D01*
X101190476Y-154050057D02*
X101238095Y-154002438D01*
X101238095Y-154002438D02*
X101333333Y-153954819D01*
X101333333Y-153954819D02*
X101571428Y-153954819D01*
X101571428Y-153954819D02*
X101666666Y-154002438D01*
X101666666Y-154002438D02*
X101714285Y-154050057D01*
X101714285Y-154050057D02*
X101761904Y-154145295D01*
X101761904Y-154145295D02*
X101761904Y-154240533D01*
X101761904Y-154240533D02*
X101714285Y-154383390D01*
X101714285Y-154383390D02*
X101142857Y-154954819D01*
X101142857Y-154954819D02*
X101761904Y-154954819D01*
X69954819Y-55168810D02*
X69478628Y-55502143D01*
X69954819Y-55740238D02*
X68954819Y-55740238D01*
X68954819Y-55740238D02*
X68954819Y-55359286D01*
X68954819Y-55359286D02*
X69002438Y-55264048D01*
X69002438Y-55264048D02*
X69050057Y-55216429D01*
X69050057Y-55216429D02*
X69145295Y-55168810D01*
X69145295Y-55168810D02*
X69288152Y-55168810D01*
X69288152Y-55168810D02*
X69383390Y-55216429D01*
X69383390Y-55216429D02*
X69431009Y-55264048D01*
X69431009Y-55264048D02*
X69478628Y-55359286D01*
X69478628Y-55359286D02*
X69478628Y-55740238D01*
X69954819Y-54216429D02*
X69954819Y-54787857D01*
X69954819Y-54502143D02*
X68954819Y-54502143D01*
X68954819Y-54502143D02*
X69097676Y-54597381D01*
X69097676Y-54597381D02*
X69192914Y-54692619D01*
X69192914Y-54692619D02*
X69240533Y-54787857D01*
X60034819Y-86166666D02*
X59558628Y-86499999D01*
X60034819Y-86738094D02*
X59034819Y-86738094D01*
X59034819Y-86738094D02*
X59034819Y-86357142D01*
X59034819Y-86357142D02*
X59082438Y-86261904D01*
X59082438Y-86261904D02*
X59130057Y-86214285D01*
X59130057Y-86214285D02*
X59225295Y-86166666D01*
X59225295Y-86166666D02*
X59368152Y-86166666D01*
X59368152Y-86166666D02*
X59463390Y-86214285D01*
X59463390Y-86214285D02*
X59511009Y-86261904D01*
X59511009Y-86261904D02*
X59558628Y-86357142D01*
X59558628Y-86357142D02*
X59558628Y-86738094D01*
X59368152Y-85309523D02*
X60034819Y-85309523D01*
X58987200Y-85547618D02*
X59701485Y-85785713D01*
X59701485Y-85785713D02*
X59701485Y-85166666D01*
X99607142Y-128204819D02*
X99273809Y-127728628D01*
X99035714Y-128204819D02*
X99035714Y-127204819D01*
X99035714Y-127204819D02*
X99416666Y-127204819D01*
X99416666Y-127204819D02*
X99511904Y-127252438D01*
X99511904Y-127252438D02*
X99559523Y-127300057D01*
X99559523Y-127300057D02*
X99607142Y-127395295D01*
X99607142Y-127395295D02*
X99607142Y-127538152D01*
X99607142Y-127538152D02*
X99559523Y-127633390D01*
X99559523Y-127633390D02*
X99511904Y-127681009D01*
X99511904Y-127681009D02*
X99416666Y-127728628D01*
X99416666Y-127728628D02*
X99035714Y-127728628D01*
X100559523Y-128204819D02*
X99988095Y-128204819D01*
X100273809Y-128204819D02*
X100273809Y-127204819D01*
X100273809Y-127204819D02*
X100178571Y-127347676D01*
X100178571Y-127347676D02*
X100083333Y-127442914D01*
X100083333Y-127442914D02*
X99988095Y-127490533D01*
X101130952Y-127633390D02*
X101035714Y-127585771D01*
X101035714Y-127585771D02*
X100988095Y-127538152D01*
X100988095Y-127538152D02*
X100940476Y-127442914D01*
X100940476Y-127442914D02*
X100940476Y-127395295D01*
X100940476Y-127395295D02*
X100988095Y-127300057D01*
X100988095Y-127300057D02*
X101035714Y-127252438D01*
X101035714Y-127252438D02*
X101130952Y-127204819D01*
X101130952Y-127204819D02*
X101321428Y-127204819D01*
X101321428Y-127204819D02*
X101416666Y-127252438D01*
X101416666Y-127252438D02*
X101464285Y-127300057D01*
X101464285Y-127300057D02*
X101511904Y-127395295D01*
X101511904Y-127395295D02*
X101511904Y-127442914D01*
X101511904Y-127442914D02*
X101464285Y-127538152D01*
X101464285Y-127538152D02*
X101416666Y-127585771D01*
X101416666Y-127585771D02*
X101321428Y-127633390D01*
X101321428Y-127633390D02*
X101130952Y-127633390D01*
X101130952Y-127633390D02*
X101035714Y-127681009D01*
X101035714Y-127681009D02*
X100988095Y-127728628D01*
X100988095Y-127728628D02*
X100940476Y-127823866D01*
X100940476Y-127823866D02*
X100940476Y-128014342D01*
X100940476Y-128014342D02*
X100988095Y-128109580D01*
X100988095Y-128109580D02*
X101035714Y-128157200D01*
X101035714Y-128157200D02*
X101130952Y-128204819D01*
X101130952Y-128204819D02*
X101321428Y-128204819D01*
X101321428Y-128204819D02*
X101416666Y-128157200D01*
X101416666Y-128157200D02*
X101464285Y-128109580D01*
X101464285Y-128109580D02*
X101511904Y-128014342D01*
X101511904Y-128014342D02*
X101511904Y-127823866D01*
X101511904Y-127823866D02*
X101464285Y-127728628D01*
X101464285Y-127728628D02*
X101416666Y-127681009D01*
X101416666Y-127681009D02*
X101321428Y-127633390D01*
X75362471Y-83595238D02*
X74886280Y-83928571D01*
X75362471Y-84166666D02*
X74362471Y-84166666D01*
X74362471Y-84166666D02*
X74362471Y-83785714D01*
X74362471Y-83785714D02*
X74410090Y-83690476D01*
X74410090Y-83690476D02*
X74457709Y-83642857D01*
X74457709Y-83642857D02*
X74552947Y-83595238D01*
X74552947Y-83595238D02*
X74695804Y-83595238D01*
X74695804Y-83595238D02*
X74791042Y-83642857D01*
X74791042Y-83642857D02*
X74838661Y-83690476D01*
X74838661Y-83690476D02*
X74886280Y-83785714D01*
X74886280Y-83785714D02*
X74886280Y-84166666D01*
X74362471Y-83309523D02*
X75362471Y-82976190D01*
X75362471Y-82976190D02*
X74362471Y-82642857D01*
X74457709Y-82357142D02*
X74410090Y-82309523D01*
X74410090Y-82309523D02*
X74362471Y-82214285D01*
X74362471Y-82214285D02*
X74362471Y-81976190D01*
X74362471Y-81976190D02*
X74410090Y-81880952D01*
X74410090Y-81880952D02*
X74457709Y-81833333D01*
X74457709Y-81833333D02*
X74552947Y-81785714D01*
X74552947Y-81785714D02*
X74648185Y-81785714D01*
X74648185Y-81785714D02*
X74791042Y-81833333D01*
X74791042Y-81833333D02*
X75362471Y-82404761D01*
X75362471Y-82404761D02*
X75362471Y-81785714D01*
X102107142Y-149454819D02*
X101773809Y-148978628D01*
X101535714Y-149454819D02*
X101535714Y-148454819D01*
X101535714Y-148454819D02*
X101916666Y-148454819D01*
X101916666Y-148454819D02*
X102011904Y-148502438D01*
X102011904Y-148502438D02*
X102059523Y-148550057D01*
X102059523Y-148550057D02*
X102107142Y-148645295D01*
X102107142Y-148645295D02*
X102107142Y-148788152D01*
X102107142Y-148788152D02*
X102059523Y-148883390D01*
X102059523Y-148883390D02*
X102011904Y-148931009D01*
X102011904Y-148931009D02*
X101916666Y-148978628D01*
X101916666Y-148978628D02*
X101535714Y-148978628D01*
X102488095Y-148550057D02*
X102535714Y-148502438D01*
X102535714Y-148502438D02*
X102630952Y-148454819D01*
X102630952Y-148454819D02*
X102869047Y-148454819D01*
X102869047Y-148454819D02*
X102964285Y-148502438D01*
X102964285Y-148502438D02*
X103011904Y-148550057D01*
X103011904Y-148550057D02*
X103059523Y-148645295D01*
X103059523Y-148645295D02*
X103059523Y-148740533D01*
X103059523Y-148740533D02*
X103011904Y-148883390D01*
X103011904Y-148883390D02*
X102440476Y-149454819D01*
X102440476Y-149454819D02*
X103059523Y-149454819D01*
X103392857Y-148454819D02*
X104011904Y-148454819D01*
X104011904Y-148454819D02*
X103678571Y-148835771D01*
X103678571Y-148835771D02*
X103821428Y-148835771D01*
X103821428Y-148835771D02*
X103916666Y-148883390D01*
X103916666Y-148883390D02*
X103964285Y-148931009D01*
X103964285Y-148931009D02*
X104011904Y-149026247D01*
X104011904Y-149026247D02*
X104011904Y-149264342D01*
X104011904Y-149264342D02*
X103964285Y-149359580D01*
X103964285Y-149359580D02*
X103916666Y-149407200D01*
X103916666Y-149407200D02*
X103821428Y-149454819D01*
X103821428Y-149454819D02*
X103535714Y-149454819D01*
X103535714Y-149454819D02*
X103440476Y-149407200D01*
X103440476Y-149407200D02*
X103392857Y-149359580D01*
X104988095Y-110204819D02*
X104988095Y-111014342D01*
X104988095Y-111014342D02*
X105035714Y-111109580D01*
X105035714Y-111109580D02*
X105083333Y-111157200D01*
X105083333Y-111157200D02*
X105178571Y-111204819D01*
X105178571Y-111204819D02*
X105369047Y-111204819D01*
X105369047Y-111204819D02*
X105464285Y-111157200D01*
X105464285Y-111157200D02*
X105511904Y-111109580D01*
X105511904Y-111109580D02*
X105559523Y-111014342D01*
X105559523Y-111014342D02*
X105559523Y-110204819D01*
X105988095Y-110300057D02*
X106035714Y-110252438D01*
X106035714Y-110252438D02*
X106130952Y-110204819D01*
X106130952Y-110204819D02*
X106369047Y-110204819D01*
X106369047Y-110204819D02*
X106464285Y-110252438D01*
X106464285Y-110252438D02*
X106511904Y-110300057D01*
X106511904Y-110300057D02*
X106559523Y-110395295D01*
X106559523Y-110395295D02*
X106559523Y-110490533D01*
X106559523Y-110490533D02*
X106511904Y-110633390D01*
X106511904Y-110633390D02*
X105940476Y-111204819D01*
X105940476Y-111204819D02*
X106559523Y-111204819D01*
X94204819Y-103345238D02*
X93728628Y-103678571D01*
X94204819Y-103916666D02*
X93204819Y-103916666D01*
X93204819Y-103916666D02*
X93204819Y-103535714D01*
X93204819Y-103535714D02*
X93252438Y-103440476D01*
X93252438Y-103440476D02*
X93300057Y-103392857D01*
X93300057Y-103392857D02*
X93395295Y-103345238D01*
X93395295Y-103345238D02*
X93538152Y-103345238D01*
X93538152Y-103345238D02*
X93633390Y-103392857D01*
X93633390Y-103392857D02*
X93681009Y-103440476D01*
X93681009Y-103440476D02*
X93728628Y-103535714D01*
X93728628Y-103535714D02*
X93728628Y-103916666D01*
X93204819Y-103059523D02*
X94204819Y-102726190D01*
X94204819Y-102726190D02*
X93204819Y-102392857D01*
X93204819Y-101583333D02*
X93204819Y-102059523D01*
X93204819Y-102059523D02*
X93681009Y-102107142D01*
X93681009Y-102107142D02*
X93633390Y-102059523D01*
X93633390Y-102059523D02*
X93585771Y-101964285D01*
X93585771Y-101964285D02*
X93585771Y-101726190D01*
X93585771Y-101726190D02*
X93633390Y-101630952D01*
X93633390Y-101630952D02*
X93681009Y-101583333D01*
X93681009Y-101583333D02*
X93776247Y-101535714D01*
X93776247Y-101535714D02*
X94014342Y-101535714D01*
X94014342Y-101535714D02*
X94109580Y-101583333D01*
X94109580Y-101583333D02*
X94157200Y-101630952D01*
X94157200Y-101630952D02*
X94204819Y-101726190D01*
X94204819Y-101726190D02*
X94204819Y-101964285D01*
X94204819Y-101964285D02*
X94157200Y-102059523D01*
X94157200Y-102059523D02*
X94109580Y-102107142D01*
D12*
X64666666Y-145207419D02*
X64666666Y-145921704D01*
X64666666Y-145921704D02*
X64619047Y-146064561D01*
X64619047Y-146064561D02*
X64523809Y-146159800D01*
X64523809Y-146159800D02*
X64380952Y-146207419D01*
X64380952Y-146207419D02*
X64285714Y-146207419D01*
X65619047Y-145207419D02*
X65142857Y-145207419D01*
X65142857Y-145207419D02*
X65095238Y-145683609D01*
X65095238Y-145683609D02*
X65142857Y-145635990D01*
X65142857Y-145635990D02*
X65238095Y-145588371D01*
X65238095Y-145588371D02*
X65476190Y-145588371D01*
X65476190Y-145588371D02*
X65571428Y-145635990D01*
X65571428Y-145635990D02*
X65619047Y-145683609D01*
X65619047Y-145683609D02*
X65666666Y-145778847D01*
X65666666Y-145778847D02*
X65666666Y-146016942D01*
X65666666Y-146016942D02*
X65619047Y-146112180D01*
X65619047Y-146112180D02*
X65571428Y-146159800D01*
X65571428Y-146159800D02*
X65476190Y-146207419D01*
X65476190Y-146207419D02*
X65238095Y-146207419D01*
X65238095Y-146207419D02*
X65142857Y-146159800D01*
X65142857Y-146159800D02*
X65095238Y-146112180D01*
D11*
X106954819Y-52856666D02*
X106478628Y-53189999D01*
X106954819Y-53428094D02*
X105954819Y-53428094D01*
X105954819Y-53428094D02*
X105954819Y-53047142D01*
X105954819Y-53047142D02*
X106002438Y-52951904D01*
X106002438Y-52951904D02*
X106050057Y-52904285D01*
X106050057Y-52904285D02*
X106145295Y-52856666D01*
X106145295Y-52856666D02*
X106288152Y-52856666D01*
X106288152Y-52856666D02*
X106383390Y-52904285D01*
X106383390Y-52904285D02*
X106431009Y-52951904D01*
X106431009Y-52951904D02*
X106478628Y-53047142D01*
X106478628Y-53047142D02*
X106478628Y-53428094D01*
X105954819Y-52523332D02*
X105954819Y-51856666D01*
X105954819Y-51856666D02*
X106954819Y-52285237D01*
X109793749Y-108740381D02*
X109793749Y-107740381D01*
X109793749Y-107740381D02*
X110031844Y-107740381D01*
X110031844Y-107740381D02*
X110174701Y-107788000D01*
X110174701Y-107788000D02*
X110269939Y-107883238D01*
X110269939Y-107883238D02*
X110317558Y-107978476D01*
X110317558Y-107978476D02*
X110365177Y-108168952D01*
X110365177Y-108168952D02*
X110365177Y-108311809D01*
X110365177Y-108311809D02*
X110317558Y-108502285D01*
X110317558Y-108502285D02*
X110269939Y-108597523D01*
X110269939Y-108597523D02*
X110174701Y-108692762D01*
X110174701Y-108692762D02*
X110031844Y-108740381D01*
X110031844Y-108740381D02*
X109793749Y-108740381D01*
X111317558Y-108740381D02*
X110746130Y-108740381D01*
X111031844Y-108740381D02*
X111031844Y-107740381D01*
X111031844Y-107740381D02*
X110936606Y-107883238D01*
X110936606Y-107883238D02*
X110841368Y-107978476D01*
X110841368Y-107978476D02*
X110746130Y-108026095D01*
X112269939Y-108740381D02*
X111698511Y-108740381D01*
X111984225Y-108740381D02*
X111984225Y-107740381D01*
X111984225Y-107740381D02*
X111888987Y-107883238D01*
X111888987Y-107883238D02*
X111793749Y-107978476D01*
X111793749Y-107978476D02*
X111698511Y-108026095D01*
X109954819Y-52356666D02*
X109478628Y-52689999D01*
X109954819Y-52928094D02*
X108954819Y-52928094D01*
X108954819Y-52928094D02*
X108954819Y-52547142D01*
X108954819Y-52547142D02*
X109002438Y-52451904D01*
X109002438Y-52451904D02*
X109050057Y-52404285D01*
X109050057Y-52404285D02*
X109145295Y-52356666D01*
X109145295Y-52356666D02*
X109288152Y-52356666D01*
X109288152Y-52356666D02*
X109383390Y-52404285D01*
X109383390Y-52404285D02*
X109431009Y-52451904D01*
X109431009Y-52451904D02*
X109478628Y-52547142D01*
X109478628Y-52547142D02*
X109478628Y-52928094D01*
X108954819Y-52023332D02*
X108954819Y-51404285D01*
X108954819Y-51404285D02*
X109335771Y-51737618D01*
X109335771Y-51737618D02*
X109335771Y-51594761D01*
X109335771Y-51594761D02*
X109383390Y-51499523D01*
X109383390Y-51499523D02*
X109431009Y-51451904D01*
X109431009Y-51451904D02*
X109526247Y-51404285D01*
X109526247Y-51404285D02*
X109764342Y-51404285D01*
X109764342Y-51404285D02*
X109859580Y-51451904D01*
X109859580Y-51451904D02*
X109907200Y-51499523D01*
X109907200Y-51499523D02*
X109954819Y-51594761D01*
X109954819Y-51594761D02*
X109954819Y-51880475D01*
X109954819Y-51880475D02*
X109907200Y-51975713D01*
X109907200Y-51975713D02*
X109859580Y-52023332D01*
X70141905Y-62454819D02*
X70141905Y-61454819D01*
X70141905Y-61454819D02*
X70380000Y-61454819D01*
X70380000Y-61454819D02*
X70522857Y-61502438D01*
X70522857Y-61502438D02*
X70618095Y-61597676D01*
X70618095Y-61597676D02*
X70665714Y-61692914D01*
X70665714Y-61692914D02*
X70713333Y-61883390D01*
X70713333Y-61883390D02*
X70713333Y-62026247D01*
X70713333Y-62026247D02*
X70665714Y-62216723D01*
X70665714Y-62216723D02*
X70618095Y-62311961D01*
X70618095Y-62311961D02*
X70522857Y-62407200D01*
X70522857Y-62407200D02*
X70380000Y-62454819D01*
X70380000Y-62454819D02*
X70141905Y-62454819D01*
X71665714Y-62454819D02*
X71094286Y-62454819D01*
X71380000Y-62454819D02*
X71380000Y-61454819D01*
X71380000Y-61454819D02*
X71284762Y-61597676D01*
X71284762Y-61597676D02*
X71189524Y-61692914D01*
X71189524Y-61692914D02*
X71094286Y-61740533D01*
X120067933Y-103166666D02*
X120115553Y-103214285D01*
X120115553Y-103214285D02*
X120163172Y-103357142D01*
X120163172Y-103357142D02*
X120163172Y-103452380D01*
X120163172Y-103452380D02*
X120115553Y-103595237D01*
X120115553Y-103595237D02*
X120020314Y-103690475D01*
X120020314Y-103690475D02*
X119925076Y-103738094D01*
X119925076Y-103738094D02*
X119734600Y-103785713D01*
X119734600Y-103785713D02*
X119591743Y-103785713D01*
X119591743Y-103785713D02*
X119401267Y-103738094D01*
X119401267Y-103738094D02*
X119306029Y-103690475D01*
X119306029Y-103690475D02*
X119210791Y-103595237D01*
X119210791Y-103595237D02*
X119163172Y-103452380D01*
X119163172Y-103452380D02*
X119163172Y-103357142D01*
X119163172Y-103357142D02*
X119210791Y-103214285D01*
X119210791Y-103214285D02*
X119258410Y-103166666D01*
X119591743Y-102595237D02*
X119544124Y-102690475D01*
X119544124Y-102690475D02*
X119496505Y-102738094D01*
X119496505Y-102738094D02*
X119401267Y-102785713D01*
X119401267Y-102785713D02*
X119353648Y-102785713D01*
X119353648Y-102785713D02*
X119258410Y-102738094D01*
X119258410Y-102738094D02*
X119210791Y-102690475D01*
X119210791Y-102690475D02*
X119163172Y-102595237D01*
X119163172Y-102595237D02*
X119163172Y-102404761D01*
X119163172Y-102404761D02*
X119210791Y-102309523D01*
X119210791Y-102309523D02*
X119258410Y-102261904D01*
X119258410Y-102261904D02*
X119353648Y-102214285D01*
X119353648Y-102214285D02*
X119401267Y-102214285D01*
X119401267Y-102214285D02*
X119496505Y-102261904D01*
X119496505Y-102261904D02*
X119544124Y-102309523D01*
X119544124Y-102309523D02*
X119591743Y-102404761D01*
X119591743Y-102404761D02*
X119591743Y-102595237D01*
X119591743Y-102595237D02*
X119639362Y-102690475D01*
X119639362Y-102690475D02*
X119686981Y-102738094D01*
X119686981Y-102738094D02*
X119782219Y-102785713D01*
X119782219Y-102785713D02*
X119972695Y-102785713D01*
X119972695Y-102785713D02*
X120067933Y-102738094D01*
X120067933Y-102738094D02*
X120115553Y-102690475D01*
X120115553Y-102690475D02*
X120163172Y-102595237D01*
X120163172Y-102595237D02*
X120163172Y-102404761D01*
X120163172Y-102404761D02*
X120115553Y-102309523D01*
X120115553Y-102309523D02*
X120067933Y-102261904D01*
X120067933Y-102261904D02*
X119972695Y-102214285D01*
X119972695Y-102214285D02*
X119782219Y-102214285D01*
X119782219Y-102214285D02*
X119686981Y-102261904D01*
X119686981Y-102261904D02*
X119639362Y-102309523D01*
X119639362Y-102309523D02*
X119591743Y-102404761D01*
D12*
X87809800Y-125658018D02*
X87857419Y-125515161D01*
X87857419Y-125515161D02*
X87857419Y-125277066D01*
X87857419Y-125277066D02*
X87809800Y-125181828D01*
X87809800Y-125181828D02*
X87762180Y-125134209D01*
X87762180Y-125134209D02*
X87666942Y-125086590D01*
X87666942Y-125086590D02*
X87571704Y-125086590D01*
X87571704Y-125086590D02*
X87476466Y-125134209D01*
X87476466Y-125134209D02*
X87428847Y-125181828D01*
X87428847Y-125181828D02*
X87381228Y-125277066D01*
X87381228Y-125277066D02*
X87333609Y-125467542D01*
X87333609Y-125467542D02*
X87285990Y-125562780D01*
X87285990Y-125562780D02*
X87238371Y-125610399D01*
X87238371Y-125610399D02*
X87143133Y-125658018D01*
X87143133Y-125658018D02*
X87047895Y-125658018D01*
X87047895Y-125658018D02*
X86952657Y-125610399D01*
X86952657Y-125610399D02*
X86905038Y-125562780D01*
X86905038Y-125562780D02*
X86857419Y-125467542D01*
X86857419Y-125467542D02*
X86857419Y-125229447D01*
X86857419Y-125229447D02*
X86905038Y-125086590D01*
X86857419Y-124753256D02*
X87857419Y-124515161D01*
X87857419Y-124515161D02*
X87143133Y-124324685D01*
X87143133Y-124324685D02*
X87857419Y-124134209D01*
X87857419Y-124134209D02*
X86857419Y-123896114D01*
X87190752Y-123086590D02*
X87857419Y-123086590D01*
X86809800Y-123324685D02*
X87524085Y-123562780D01*
X87524085Y-123562780D02*
X87524085Y-122943733D01*
D11*
X100107142Y-131102176D02*
X99773809Y-130625985D01*
X99535714Y-131102176D02*
X99535714Y-130102176D01*
X99535714Y-130102176D02*
X99916666Y-130102176D01*
X99916666Y-130102176D02*
X100011904Y-130149795D01*
X100011904Y-130149795D02*
X100059523Y-130197414D01*
X100059523Y-130197414D02*
X100107142Y-130292652D01*
X100107142Y-130292652D02*
X100107142Y-130435509D01*
X100107142Y-130435509D02*
X100059523Y-130530747D01*
X100059523Y-130530747D02*
X100011904Y-130578366D01*
X100011904Y-130578366D02*
X99916666Y-130625985D01*
X99916666Y-130625985D02*
X99535714Y-130625985D01*
X101059523Y-131102176D02*
X100488095Y-131102176D01*
X100773809Y-131102176D02*
X100773809Y-130102176D01*
X100773809Y-130102176D02*
X100678571Y-130245033D01*
X100678571Y-130245033D02*
X100583333Y-130340271D01*
X100583333Y-130340271D02*
X100488095Y-130387890D01*
X101535714Y-131102176D02*
X101726190Y-131102176D01*
X101726190Y-131102176D02*
X101821428Y-131054557D01*
X101821428Y-131054557D02*
X101869047Y-131006937D01*
X101869047Y-131006937D02*
X101964285Y-130864080D01*
X101964285Y-130864080D02*
X102011904Y-130673604D01*
X102011904Y-130673604D02*
X102011904Y-130292652D01*
X102011904Y-130292652D02*
X101964285Y-130197414D01*
X101964285Y-130197414D02*
X101916666Y-130149795D01*
X101916666Y-130149795D02*
X101821428Y-130102176D01*
X101821428Y-130102176D02*
X101630952Y-130102176D01*
X101630952Y-130102176D02*
X101535714Y-130149795D01*
X101535714Y-130149795D02*
X101488095Y-130197414D01*
X101488095Y-130197414D02*
X101440476Y-130292652D01*
X101440476Y-130292652D02*
X101440476Y-130530747D01*
X101440476Y-130530747D02*
X101488095Y-130625985D01*
X101488095Y-130625985D02*
X101535714Y-130673604D01*
X101535714Y-130673604D02*
X101630952Y-130721223D01*
X101630952Y-130721223D02*
X101821428Y-130721223D01*
X101821428Y-130721223D02*
X101916666Y-130673604D01*
X101916666Y-130673604D02*
X101964285Y-130625985D01*
X101964285Y-130625985D02*
X102011904Y-130530747D01*
X60054975Y-89206471D02*
X59578784Y-89539804D01*
X60054975Y-89777899D02*
X59054975Y-89777899D01*
X59054975Y-89777899D02*
X59054975Y-89396947D01*
X59054975Y-89396947D02*
X59102594Y-89301709D01*
X59102594Y-89301709D02*
X59150213Y-89254090D01*
X59150213Y-89254090D02*
X59245451Y-89206471D01*
X59245451Y-89206471D02*
X59388308Y-89206471D01*
X59388308Y-89206471D02*
X59483546Y-89254090D01*
X59483546Y-89254090D02*
X59531165Y-89301709D01*
X59531165Y-89301709D02*
X59578784Y-89396947D01*
X59578784Y-89396947D02*
X59578784Y-89777899D01*
X59483546Y-88635042D02*
X59435927Y-88730280D01*
X59435927Y-88730280D02*
X59388308Y-88777899D01*
X59388308Y-88777899D02*
X59293070Y-88825518D01*
X59293070Y-88825518D02*
X59245451Y-88825518D01*
X59245451Y-88825518D02*
X59150213Y-88777899D01*
X59150213Y-88777899D02*
X59102594Y-88730280D01*
X59102594Y-88730280D02*
X59054975Y-88635042D01*
X59054975Y-88635042D02*
X59054975Y-88444566D01*
X59054975Y-88444566D02*
X59102594Y-88349328D01*
X59102594Y-88349328D02*
X59150213Y-88301709D01*
X59150213Y-88301709D02*
X59245451Y-88254090D01*
X59245451Y-88254090D02*
X59293070Y-88254090D01*
X59293070Y-88254090D02*
X59388308Y-88301709D01*
X59388308Y-88301709D02*
X59435927Y-88349328D01*
X59435927Y-88349328D02*
X59483546Y-88444566D01*
X59483546Y-88444566D02*
X59483546Y-88635042D01*
X59483546Y-88635042D02*
X59531165Y-88730280D01*
X59531165Y-88730280D02*
X59578784Y-88777899D01*
X59578784Y-88777899D02*
X59674022Y-88825518D01*
X59674022Y-88825518D02*
X59864498Y-88825518D01*
X59864498Y-88825518D02*
X59959736Y-88777899D01*
X59959736Y-88777899D02*
X60007356Y-88730280D01*
X60007356Y-88730280D02*
X60054975Y-88635042D01*
X60054975Y-88635042D02*
X60054975Y-88444566D01*
X60054975Y-88444566D02*
X60007356Y-88349328D01*
X60007356Y-88349328D02*
X59959736Y-88301709D01*
X59959736Y-88301709D02*
X59864498Y-88254090D01*
X59864498Y-88254090D02*
X59674022Y-88254090D01*
X59674022Y-88254090D02*
X59578784Y-88301709D01*
X59578784Y-88301709D02*
X59531165Y-88349328D01*
X59531165Y-88349328D02*
X59483546Y-88444566D01*
X80107142Y-111704819D02*
X79773809Y-111228628D01*
X79535714Y-111704819D02*
X79535714Y-110704819D01*
X79535714Y-110704819D02*
X79916666Y-110704819D01*
X79916666Y-110704819D02*
X80011904Y-110752438D01*
X80011904Y-110752438D02*
X80059523Y-110800057D01*
X80059523Y-110800057D02*
X80107142Y-110895295D01*
X80107142Y-110895295D02*
X80107142Y-111038152D01*
X80107142Y-111038152D02*
X80059523Y-111133390D01*
X80059523Y-111133390D02*
X80011904Y-111181009D01*
X80011904Y-111181009D02*
X79916666Y-111228628D01*
X79916666Y-111228628D02*
X79535714Y-111228628D01*
X81059523Y-111704819D02*
X80488095Y-111704819D01*
X80773809Y-111704819D02*
X80773809Y-110704819D01*
X80773809Y-110704819D02*
X80678571Y-110847676D01*
X80678571Y-110847676D02*
X80583333Y-110942914D01*
X80583333Y-110942914D02*
X80488095Y-110990533D01*
X81678571Y-110704819D02*
X81773809Y-110704819D01*
X81773809Y-110704819D02*
X81869047Y-110752438D01*
X81869047Y-110752438D02*
X81916666Y-110800057D01*
X81916666Y-110800057D02*
X81964285Y-110895295D01*
X81964285Y-110895295D02*
X82011904Y-111085771D01*
X82011904Y-111085771D02*
X82011904Y-111323866D01*
X82011904Y-111323866D02*
X81964285Y-111514342D01*
X81964285Y-111514342D02*
X81916666Y-111609580D01*
X81916666Y-111609580D02*
X81869047Y-111657200D01*
X81869047Y-111657200D02*
X81773809Y-111704819D01*
X81773809Y-111704819D02*
X81678571Y-111704819D01*
X81678571Y-111704819D02*
X81583333Y-111657200D01*
X81583333Y-111657200D02*
X81535714Y-111609580D01*
X81535714Y-111609580D02*
X81488095Y-111514342D01*
X81488095Y-111514342D02*
X81440476Y-111323866D01*
X81440476Y-111323866D02*
X81440476Y-111085771D01*
X81440476Y-111085771D02*
X81488095Y-110895295D01*
X81488095Y-110895295D02*
X81535714Y-110800057D01*
X81535714Y-110800057D02*
X81583333Y-110752438D01*
X81583333Y-110752438D02*
X81678571Y-110704819D01*
X103954819Y-52356666D02*
X103478628Y-52689999D01*
X103954819Y-52928094D02*
X102954819Y-52928094D01*
X102954819Y-52928094D02*
X102954819Y-52547142D01*
X102954819Y-52547142D02*
X103002438Y-52451904D01*
X103002438Y-52451904D02*
X103050057Y-52404285D01*
X103050057Y-52404285D02*
X103145295Y-52356666D01*
X103145295Y-52356666D02*
X103288152Y-52356666D01*
X103288152Y-52356666D02*
X103383390Y-52404285D01*
X103383390Y-52404285D02*
X103431009Y-52451904D01*
X103431009Y-52451904D02*
X103478628Y-52547142D01*
X103478628Y-52547142D02*
X103478628Y-52928094D01*
X102954819Y-51499523D02*
X102954819Y-51689999D01*
X102954819Y-51689999D02*
X103002438Y-51785237D01*
X103002438Y-51785237D02*
X103050057Y-51832856D01*
X103050057Y-51832856D02*
X103192914Y-51928094D01*
X103192914Y-51928094D02*
X103383390Y-51975713D01*
X103383390Y-51975713D02*
X103764342Y-51975713D01*
X103764342Y-51975713D02*
X103859580Y-51928094D01*
X103859580Y-51928094D02*
X103907200Y-51880475D01*
X103907200Y-51880475D02*
X103954819Y-51785237D01*
X103954819Y-51785237D02*
X103954819Y-51594761D01*
X103954819Y-51594761D02*
X103907200Y-51499523D01*
X103907200Y-51499523D02*
X103859580Y-51451904D01*
X103859580Y-51451904D02*
X103764342Y-51404285D01*
X103764342Y-51404285D02*
X103526247Y-51404285D01*
X103526247Y-51404285D02*
X103431009Y-51451904D01*
X103431009Y-51451904D02*
X103383390Y-51499523D01*
X103383390Y-51499523D02*
X103335771Y-51594761D01*
X103335771Y-51594761D02*
X103335771Y-51785237D01*
X103335771Y-51785237D02*
X103383390Y-51880475D01*
X103383390Y-51880475D02*
X103431009Y-51928094D01*
X103431009Y-51928094D02*
X103526247Y-51975713D01*
D12*
X109666666Y-143112988D02*
X109666666Y-143827273D01*
X109666666Y-143827273D02*
X109619047Y-143970130D01*
X109619047Y-143970130D02*
X109523809Y-144065369D01*
X109523809Y-144065369D02*
X109380952Y-144112988D01*
X109380952Y-144112988D02*
X109285714Y-144112988D01*
X110571428Y-143112988D02*
X110380952Y-143112988D01*
X110380952Y-143112988D02*
X110285714Y-143160607D01*
X110285714Y-143160607D02*
X110238095Y-143208226D01*
X110238095Y-143208226D02*
X110142857Y-143351083D01*
X110142857Y-143351083D02*
X110095238Y-143541559D01*
X110095238Y-143541559D02*
X110095238Y-143922511D01*
X110095238Y-143922511D02*
X110142857Y-144017749D01*
X110142857Y-144017749D02*
X110190476Y-144065369D01*
X110190476Y-144065369D02*
X110285714Y-144112988D01*
X110285714Y-144112988D02*
X110476190Y-144112988D01*
X110476190Y-144112988D02*
X110571428Y-144065369D01*
X110571428Y-144065369D02*
X110619047Y-144017749D01*
X110619047Y-144017749D02*
X110666666Y-143922511D01*
X110666666Y-143922511D02*
X110666666Y-143684416D01*
X110666666Y-143684416D02*
X110619047Y-143589178D01*
X110619047Y-143589178D02*
X110571428Y-143541559D01*
X110571428Y-143541559D02*
X110476190Y-143493940D01*
X110476190Y-143493940D02*
X110285714Y-143493940D01*
X110285714Y-143493940D02*
X110190476Y-143541559D01*
X110190476Y-143541559D02*
X110142857Y-143589178D01*
X110142857Y-143589178D02*
X110095238Y-143684416D01*
D11*
X99607142Y-111704819D02*
X99273809Y-111228628D01*
X99035714Y-111704819D02*
X99035714Y-110704819D01*
X99035714Y-110704819D02*
X99416666Y-110704819D01*
X99416666Y-110704819D02*
X99511904Y-110752438D01*
X99511904Y-110752438D02*
X99559523Y-110800057D01*
X99559523Y-110800057D02*
X99607142Y-110895295D01*
X99607142Y-110895295D02*
X99607142Y-111038152D01*
X99607142Y-111038152D02*
X99559523Y-111133390D01*
X99559523Y-111133390D02*
X99511904Y-111181009D01*
X99511904Y-111181009D02*
X99416666Y-111228628D01*
X99416666Y-111228628D02*
X99035714Y-111228628D01*
X100559523Y-111704819D02*
X99988095Y-111704819D01*
X100273809Y-111704819D02*
X100273809Y-110704819D01*
X100273809Y-110704819D02*
X100178571Y-110847676D01*
X100178571Y-110847676D02*
X100083333Y-110942914D01*
X100083333Y-110942914D02*
X99988095Y-110990533D01*
X101511904Y-111704819D02*
X100940476Y-111704819D01*
X101226190Y-111704819D02*
X101226190Y-110704819D01*
X101226190Y-110704819D02*
X101130952Y-110847676D01*
X101130952Y-110847676D02*
X101035714Y-110942914D01*
X101035714Y-110942914D02*
X100940476Y-110990533D01*
X116954819Y-56238094D02*
X115954819Y-56238094D01*
X115954819Y-56238094D02*
X115954819Y-55999999D01*
X115954819Y-55999999D02*
X116002438Y-55857142D01*
X116002438Y-55857142D02*
X116097676Y-55761904D01*
X116097676Y-55761904D02*
X116192914Y-55714285D01*
X116192914Y-55714285D02*
X116383390Y-55666666D01*
X116383390Y-55666666D02*
X116526247Y-55666666D01*
X116526247Y-55666666D02*
X116716723Y-55714285D01*
X116716723Y-55714285D02*
X116811961Y-55761904D01*
X116811961Y-55761904D02*
X116907200Y-55857142D01*
X116907200Y-55857142D02*
X116954819Y-55999999D01*
X116954819Y-55999999D02*
X116954819Y-56238094D01*
X115954819Y-54761904D02*
X115954819Y-55238094D01*
X115954819Y-55238094D02*
X116431009Y-55285713D01*
X116431009Y-55285713D02*
X116383390Y-55238094D01*
X116383390Y-55238094D02*
X116335771Y-55142856D01*
X116335771Y-55142856D02*
X116335771Y-54904761D01*
X116335771Y-54904761D02*
X116383390Y-54809523D01*
X116383390Y-54809523D02*
X116431009Y-54761904D01*
X116431009Y-54761904D02*
X116526247Y-54714285D01*
X116526247Y-54714285D02*
X116764342Y-54714285D01*
X116764342Y-54714285D02*
X116859580Y-54761904D01*
X116859580Y-54761904D02*
X116907200Y-54809523D01*
X116907200Y-54809523D02*
X116954819Y-54904761D01*
X116954819Y-54904761D02*
X116954819Y-55142856D01*
X116954819Y-55142856D02*
X116907200Y-55238094D01*
X116907200Y-55238094D02*
X116859580Y-55285713D01*
X110764253Y-98122599D02*
X110764253Y-97122599D01*
X110764253Y-97122599D02*
X111002348Y-97122599D01*
X111002348Y-97122599D02*
X111145205Y-97170218D01*
X111145205Y-97170218D02*
X111240443Y-97265456D01*
X111240443Y-97265456D02*
X111288062Y-97360694D01*
X111288062Y-97360694D02*
X111335681Y-97551170D01*
X111335681Y-97551170D02*
X111335681Y-97694027D01*
X111335681Y-97694027D02*
X111288062Y-97884503D01*
X111288062Y-97884503D02*
X111240443Y-97979741D01*
X111240443Y-97979741D02*
X111145205Y-98074980D01*
X111145205Y-98074980D02*
X111002348Y-98122599D01*
X111002348Y-98122599D02*
X110764253Y-98122599D01*
X111669015Y-97122599D02*
X112335681Y-97122599D01*
X112335681Y-97122599D02*
X111907110Y-98122599D01*
X111269940Y-91240381D02*
X111269940Y-90240381D01*
X111269940Y-90240381D02*
X111508035Y-90240381D01*
X111508035Y-90240381D02*
X111650892Y-90288000D01*
X111650892Y-90288000D02*
X111746130Y-90383238D01*
X111746130Y-90383238D02*
X111793749Y-90478476D01*
X111793749Y-90478476D02*
X111841368Y-90668952D01*
X111841368Y-90668952D02*
X111841368Y-90811809D01*
X111841368Y-90811809D02*
X111793749Y-91002285D01*
X111793749Y-91002285D02*
X111746130Y-91097523D01*
X111746130Y-91097523D02*
X111650892Y-91192762D01*
X111650892Y-91192762D02*
X111508035Y-91240381D01*
X111508035Y-91240381D02*
X111269940Y-91240381D01*
X112412797Y-90668952D02*
X112317559Y-90621333D01*
X112317559Y-90621333D02*
X112269940Y-90573714D01*
X112269940Y-90573714D02*
X112222321Y-90478476D01*
X112222321Y-90478476D02*
X112222321Y-90430857D01*
X112222321Y-90430857D02*
X112269940Y-90335619D01*
X112269940Y-90335619D02*
X112317559Y-90288000D01*
X112317559Y-90288000D02*
X112412797Y-90240381D01*
X112412797Y-90240381D02*
X112603273Y-90240381D01*
X112603273Y-90240381D02*
X112698511Y-90288000D01*
X112698511Y-90288000D02*
X112746130Y-90335619D01*
X112746130Y-90335619D02*
X112793749Y-90430857D01*
X112793749Y-90430857D02*
X112793749Y-90478476D01*
X112793749Y-90478476D02*
X112746130Y-90573714D01*
X112746130Y-90573714D02*
X112698511Y-90621333D01*
X112698511Y-90621333D02*
X112603273Y-90668952D01*
X112603273Y-90668952D02*
X112412797Y-90668952D01*
X112412797Y-90668952D02*
X112317559Y-90716571D01*
X112317559Y-90716571D02*
X112269940Y-90764190D01*
X112269940Y-90764190D02*
X112222321Y-90859428D01*
X112222321Y-90859428D02*
X112222321Y-91049904D01*
X112222321Y-91049904D02*
X112269940Y-91145142D01*
X112269940Y-91145142D02*
X112317559Y-91192762D01*
X112317559Y-91192762D02*
X112412797Y-91240381D01*
X112412797Y-91240381D02*
X112603273Y-91240381D01*
X112603273Y-91240381D02*
X112698511Y-91192762D01*
X112698511Y-91192762D02*
X112746130Y-91145142D01*
X112746130Y-91145142D02*
X112793749Y-91049904D01*
X112793749Y-91049904D02*
X112793749Y-90859428D01*
X112793749Y-90859428D02*
X112746130Y-90764190D01*
X112746130Y-90764190D02*
X112698511Y-90716571D01*
X112698511Y-90716571D02*
X112603273Y-90668952D01*
X83064819Y-156583333D02*
X83779104Y-156583333D01*
X83779104Y-156583333D02*
X83921961Y-156630952D01*
X83921961Y-156630952D02*
X84017200Y-156726190D01*
X84017200Y-156726190D02*
X84064819Y-156869047D01*
X84064819Y-156869047D02*
X84064819Y-156964285D01*
X83064819Y-156202380D02*
X83064819Y-155535714D01*
X83064819Y-155535714D02*
X84064819Y-155964285D01*
X84724884Y-62095238D02*
X84248693Y-62428571D01*
X84724884Y-62666666D02*
X83724884Y-62666666D01*
X83724884Y-62666666D02*
X83724884Y-62285714D01*
X83724884Y-62285714D02*
X83772503Y-62190476D01*
X83772503Y-62190476D02*
X83820122Y-62142857D01*
X83820122Y-62142857D02*
X83915360Y-62095238D01*
X83915360Y-62095238D02*
X84058217Y-62095238D01*
X84058217Y-62095238D02*
X84153455Y-62142857D01*
X84153455Y-62142857D02*
X84201074Y-62190476D01*
X84201074Y-62190476D02*
X84248693Y-62285714D01*
X84248693Y-62285714D02*
X84248693Y-62666666D01*
X83724884Y-61809523D02*
X84724884Y-61476190D01*
X84724884Y-61476190D02*
X83724884Y-61142857D01*
X84724884Y-60285714D02*
X84724884Y-60857142D01*
X84724884Y-60571428D02*
X83724884Y-60571428D01*
X83724884Y-60571428D02*
X83867741Y-60666666D01*
X83867741Y-60666666D02*
X83962979Y-60761904D01*
X83962979Y-60761904D02*
X84010598Y-60857142D01*
X68346911Y-106252183D02*
X68346911Y-105252183D01*
X68346911Y-105252183D02*
X68585006Y-105252183D01*
X68585006Y-105252183D02*
X68727863Y-105299802D01*
X68727863Y-105299802D02*
X68823101Y-105395040D01*
X68823101Y-105395040D02*
X68870720Y-105490278D01*
X68870720Y-105490278D02*
X68918339Y-105680754D01*
X68918339Y-105680754D02*
X68918339Y-105823611D01*
X68918339Y-105823611D02*
X68870720Y-106014087D01*
X68870720Y-106014087D02*
X68823101Y-106109325D01*
X68823101Y-106109325D02*
X68727863Y-106204564D01*
X68727863Y-106204564D02*
X68585006Y-106252183D01*
X68585006Y-106252183D02*
X68346911Y-106252183D01*
X69775482Y-105252183D02*
X69585006Y-105252183D01*
X69585006Y-105252183D02*
X69489768Y-105299802D01*
X69489768Y-105299802D02*
X69442149Y-105347421D01*
X69442149Y-105347421D02*
X69346911Y-105490278D01*
X69346911Y-105490278D02*
X69299292Y-105680754D01*
X69299292Y-105680754D02*
X69299292Y-106061706D01*
X69299292Y-106061706D02*
X69346911Y-106156944D01*
X69346911Y-106156944D02*
X69394530Y-106204564D01*
X69394530Y-106204564D02*
X69489768Y-106252183D01*
X69489768Y-106252183D02*
X69680244Y-106252183D01*
X69680244Y-106252183D02*
X69775482Y-106204564D01*
X69775482Y-106204564D02*
X69823101Y-106156944D01*
X69823101Y-106156944D02*
X69870720Y-106061706D01*
X69870720Y-106061706D02*
X69870720Y-105823611D01*
X69870720Y-105823611D02*
X69823101Y-105728373D01*
X69823101Y-105728373D02*
X69775482Y-105680754D01*
X69775482Y-105680754D02*
X69680244Y-105633135D01*
X69680244Y-105633135D02*
X69489768Y-105633135D01*
X69489768Y-105633135D02*
X69394530Y-105680754D01*
X69394530Y-105680754D02*
X69346911Y-105728373D01*
X69346911Y-105728373D02*
X69299292Y-105823611D01*
X75454819Y-144345238D02*
X74978628Y-144678571D01*
X75454819Y-144916666D02*
X74454819Y-144916666D01*
X74454819Y-144916666D02*
X74454819Y-144535714D01*
X74454819Y-144535714D02*
X74502438Y-144440476D01*
X74502438Y-144440476D02*
X74550057Y-144392857D01*
X74550057Y-144392857D02*
X74645295Y-144345238D01*
X74645295Y-144345238D02*
X74788152Y-144345238D01*
X74788152Y-144345238D02*
X74883390Y-144392857D01*
X74883390Y-144392857D02*
X74931009Y-144440476D01*
X74931009Y-144440476D02*
X74978628Y-144535714D01*
X74978628Y-144535714D02*
X74978628Y-144916666D01*
X74454819Y-144059523D02*
X75454819Y-143726190D01*
X75454819Y-143726190D02*
X74454819Y-143392857D01*
X74454819Y-142630952D02*
X74454819Y-142821428D01*
X74454819Y-142821428D02*
X74502438Y-142916666D01*
X74502438Y-142916666D02*
X74550057Y-142964285D01*
X74550057Y-142964285D02*
X74692914Y-143059523D01*
X74692914Y-143059523D02*
X74883390Y-143107142D01*
X74883390Y-143107142D02*
X75264342Y-143107142D01*
X75264342Y-143107142D02*
X75359580Y-143059523D01*
X75359580Y-143059523D02*
X75407200Y-143011904D01*
X75407200Y-143011904D02*
X75454819Y-142916666D01*
X75454819Y-142916666D02*
X75454819Y-142726190D01*
X75454819Y-142726190D02*
X75407200Y-142630952D01*
X75407200Y-142630952D02*
X75359580Y-142583333D01*
X75359580Y-142583333D02*
X75264342Y-142535714D01*
X75264342Y-142535714D02*
X75026247Y-142535714D01*
X75026247Y-142535714D02*
X74931009Y-142583333D01*
X74931009Y-142583333D02*
X74883390Y-142630952D01*
X74883390Y-142630952D02*
X74835771Y-142726190D01*
X74835771Y-142726190D02*
X74835771Y-142916666D01*
X74835771Y-142916666D02*
X74883390Y-143011904D01*
X74883390Y-143011904D02*
X74931009Y-143059523D01*
X74931009Y-143059523D02*
X75026247Y-143107142D01*
X119479580Y-127477857D02*
X119527200Y-127525476D01*
X119527200Y-127525476D02*
X119574819Y-127668333D01*
X119574819Y-127668333D02*
X119574819Y-127763571D01*
X119574819Y-127763571D02*
X119527200Y-127906428D01*
X119527200Y-127906428D02*
X119431961Y-128001666D01*
X119431961Y-128001666D02*
X119336723Y-128049285D01*
X119336723Y-128049285D02*
X119146247Y-128096904D01*
X119146247Y-128096904D02*
X119003390Y-128096904D01*
X119003390Y-128096904D02*
X118812914Y-128049285D01*
X118812914Y-128049285D02*
X118717676Y-128001666D01*
X118717676Y-128001666D02*
X118622438Y-127906428D01*
X118622438Y-127906428D02*
X118574819Y-127763571D01*
X118574819Y-127763571D02*
X118574819Y-127668333D01*
X118574819Y-127668333D02*
X118622438Y-127525476D01*
X118622438Y-127525476D02*
X118670057Y-127477857D01*
X119574819Y-126525476D02*
X119574819Y-127096904D01*
X119574819Y-126811190D02*
X118574819Y-126811190D01*
X118574819Y-126811190D02*
X118717676Y-126906428D01*
X118717676Y-126906428D02*
X118812914Y-127001666D01*
X118812914Y-127001666D02*
X118860533Y-127096904D01*
X119574819Y-125573095D02*
X119574819Y-126144523D01*
X119574819Y-125858809D02*
X118574819Y-125858809D01*
X118574819Y-125858809D02*
X118717676Y-125954047D01*
X118717676Y-125954047D02*
X118812914Y-126049285D01*
X118812914Y-126049285D02*
X118860533Y-126144523D01*
X87685739Y-107867984D02*
X87638120Y-107915604D01*
X87638120Y-107915604D02*
X87495263Y-107963223D01*
X87495263Y-107963223D02*
X87400025Y-107963223D01*
X87400025Y-107963223D02*
X87257168Y-107915604D01*
X87257168Y-107915604D02*
X87161930Y-107820365D01*
X87161930Y-107820365D02*
X87114311Y-107725127D01*
X87114311Y-107725127D02*
X87066692Y-107534651D01*
X87066692Y-107534651D02*
X87066692Y-107391794D01*
X87066692Y-107391794D02*
X87114311Y-107201318D01*
X87114311Y-107201318D02*
X87161930Y-107106080D01*
X87161930Y-107106080D02*
X87257168Y-107010842D01*
X87257168Y-107010842D02*
X87400025Y-106963223D01*
X87400025Y-106963223D02*
X87495263Y-106963223D01*
X87495263Y-106963223D02*
X87638120Y-107010842D01*
X87638120Y-107010842D02*
X87685739Y-107058461D01*
X88590501Y-106963223D02*
X88114311Y-106963223D01*
X88114311Y-106963223D02*
X88066692Y-107439413D01*
X88066692Y-107439413D02*
X88114311Y-107391794D01*
X88114311Y-107391794D02*
X88209549Y-107344175D01*
X88209549Y-107344175D02*
X88447644Y-107344175D01*
X88447644Y-107344175D02*
X88542882Y-107391794D01*
X88542882Y-107391794D02*
X88590501Y-107439413D01*
X88590501Y-107439413D02*
X88638120Y-107534651D01*
X88638120Y-107534651D02*
X88638120Y-107772746D01*
X88638120Y-107772746D02*
X88590501Y-107867984D01*
X88590501Y-107867984D02*
X88542882Y-107915604D01*
X88542882Y-107915604D02*
X88447644Y-107963223D01*
X88447644Y-107963223D02*
X88209549Y-107963223D01*
X88209549Y-107963223D02*
X88114311Y-107915604D01*
X88114311Y-107915604D02*
X88066692Y-107867984D01*
D12*
X78809800Y-125658018D02*
X78857419Y-125515161D01*
X78857419Y-125515161D02*
X78857419Y-125277066D01*
X78857419Y-125277066D02*
X78809800Y-125181828D01*
X78809800Y-125181828D02*
X78762180Y-125134209D01*
X78762180Y-125134209D02*
X78666942Y-125086590D01*
X78666942Y-125086590D02*
X78571704Y-125086590D01*
X78571704Y-125086590D02*
X78476466Y-125134209D01*
X78476466Y-125134209D02*
X78428847Y-125181828D01*
X78428847Y-125181828D02*
X78381228Y-125277066D01*
X78381228Y-125277066D02*
X78333609Y-125467542D01*
X78333609Y-125467542D02*
X78285990Y-125562780D01*
X78285990Y-125562780D02*
X78238371Y-125610399D01*
X78238371Y-125610399D02*
X78143133Y-125658018D01*
X78143133Y-125658018D02*
X78047895Y-125658018D01*
X78047895Y-125658018D02*
X77952657Y-125610399D01*
X77952657Y-125610399D02*
X77905038Y-125562780D01*
X77905038Y-125562780D02*
X77857419Y-125467542D01*
X77857419Y-125467542D02*
X77857419Y-125229447D01*
X77857419Y-125229447D02*
X77905038Y-125086590D01*
X77857419Y-124753256D02*
X78857419Y-124515161D01*
X78857419Y-124515161D02*
X78143133Y-124324685D01*
X78143133Y-124324685D02*
X78857419Y-124134209D01*
X78857419Y-124134209D02*
X77857419Y-123896114D01*
X77952657Y-123562780D02*
X77905038Y-123515161D01*
X77905038Y-123515161D02*
X77857419Y-123419923D01*
X77857419Y-123419923D02*
X77857419Y-123181828D01*
X77857419Y-123181828D02*
X77905038Y-123086590D01*
X77905038Y-123086590D02*
X77952657Y-123038971D01*
X77952657Y-123038971D02*
X78047895Y-122991352D01*
X78047895Y-122991352D02*
X78143133Y-122991352D01*
X78143133Y-122991352D02*
X78285990Y-123038971D01*
X78285990Y-123038971D02*
X78857419Y-123610399D01*
X78857419Y-123610399D02*
X78857419Y-122991352D01*
D11*
X74777142Y-150029505D02*
X74443809Y-149553314D01*
X74205714Y-150029505D02*
X74205714Y-149029505D01*
X74205714Y-149029505D02*
X74586666Y-149029505D01*
X74586666Y-149029505D02*
X74681904Y-149077124D01*
X74681904Y-149077124D02*
X74729523Y-149124743D01*
X74729523Y-149124743D02*
X74777142Y-149219981D01*
X74777142Y-149219981D02*
X74777142Y-149362838D01*
X74777142Y-149362838D02*
X74729523Y-149458076D01*
X74729523Y-149458076D02*
X74681904Y-149505695D01*
X74681904Y-149505695D02*
X74586666Y-149553314D01*
X74586666Y-149553314D02*
X74205714Y-149553314D01*
X75158095Y-149124743D02*
X75205714Y-149077124D01*
X75205714Y-149077124D02*
X75300952Y-149029505D01*
X75300952Y-149029505D02*
X75539047Y-149029505D01*
X75539047Y-149029505D02*
X75634285Y-149077124D01*
X75634285Y-149077124D02*
X75681904Y-149124743D01*
X75681904Y-149124743D02*
X75729523Y-149219981D01*
X75729523Y-149219981D02*
X75729523Y-149315219D01*
X75729523Y-149315219D02*
X75681904Y-149458076D01*
X75681904Y-149458076D02*
X75110476Y-150029505D01*
X75110476Y-150029505D02*
X75729523Y-150029505D01*
X76681904Y-150029505D02*
X76110476Y-150029505D01*
X76396190Y-150029505D02*
X76396190Y-149029505D01*
X76396190Y-149029505D02*
X76300952Y-149172362D01*
X76300952Y-149172362D02*
X76205714Y-149267600D01*
X76205714Y-149267600D02*
X76110476Y-149315219D01*
X104086097Y-125598546D02*
X104133717Y-125646165D01*
X104133717Y-125646165D02*
X104181336Y-125789022D01*
X104181336Y-125789022D02*
X104181336Y-125884260D01*
X104181336Y-125884260D02*
X104133717Y-126027117D01*
X104133717Y-126027117D02*
X104038478Y-126122355D01*
X104038478Y-126122355D02*
X103943240Y-126169974D01*
X103943240Y-126169974D02*
X103752764Y-126217593D01*
X103752764Y-126217593D02*
X103609907Y-126217593D01*
X103609907Y-126217593D02*
X103419431Y-126169974D01*
X103419431Y-126169974D02*
X103324193Y-126122355D01*
X103324193Y-126122355D02*
X103228955Y-126027117D01*
X103228955Y-126027117D02*
X103181336Y-125884260D01*
X103181336Y-125884260D02*
X103181336Y-125789022D01*
X103181336Y-125789022D02*
X103228955Y-125646165D01*
X103228955Y-125646165D02*
X103276574Y-125598546D01*
X104181336Y-124646165D02*
X104181336Y-125217593D01*
X104181336Y-124931879D02*
X103181336Y-124931879D01*
X103181336Y-124931879D02*
X103324193Y-125027117D01*
X103324193Y-125027117D02*
X103419431Y-125122355D01*
X103419431Y-125122355D02*
X103467050Y-125217593D01*
X103181336Y-124027117D02*
X103181336Y-123931879D01*
X103181336Y-123931879D02*
X103228955Y-123836641D01*
X103228955Y-123836641D02*
X103276574Y-123789022D01*
X103276574Y-123789022D02*
X103371812Y-123741403D01*
X103371812Y-123741403D02*
X103562288Y-123693784D01*
X103562288Y-123693784D02*
X103800383Y-123693784D01*
X103800383Y-123693784D02*
X103990859Y-123741403D01*
X103990859Y-123741403D02*
X104086097Y-123789022D01*
X104086097Y-123789022D02*
X104133717Y-123836641D01*
X104133717Y-123836641D02*
X104181336Y-123931879D01*
X104181336Y-123931879D02*
X104181336Y-124027117D01*
X104181336Y-124027117D02*
X104133717Y-124122355D01*
X104133717Y-124122355D02*
X104086097Y-124169974D01*
X104086097Y-124169974D02*
X103990859Y-124217593D01*
X103990859Y-124217593D02*
X103800383Y-124265212D01*
X103800383Y-124265212D02*
X103562288Y-124265212D01*
X103562288Y-124265212D02*
X103371812Y-124217593D01*
X103371812Y-124217593D02*
X103276574Y-124169974D01*
X103276574Y-124169974D02*
X103228955Y-124122355D01*
X103228955Y-124122355D02*
X103181336Y-124027117D01*
X75269754Y-103585448D02*
X74793563Y-103918781D01*
X75269754Y-104156876D02*
X74269754Y-104156876D01*
X74269754Y-104156876D02*
X74269754Y-103775924D01*
X74269754Y-103775924D02*
X74317373Y-103680686D01*
X74317373Y-103680686D02*
X74364992Y-103633067D01*
X74364992Y-103633067D02*
X74460230Y-103585448D01*
X74460230Y-103585448D02*
X74603087Y-103585448D01*
X74603087Y-103585448D02*
X74698325Y-103633067D01*
X74698325Y-103633067D02*
X74745944Y-103680686D01*
X74745944Y-103680686D02*
X74793563Y-103775924D01*
X74793563Y-103775924D02*
X74793563Y-104156876D01*
X74269754Y-103299733D02*
X75269754Y-102966400D01*
X75269754Y-102966400D02*
X74269754Y-102633067D01*
X74603087Y-101871162D02*
X75269754Y-101871162D01*
X74222135Y-102109257D02*
X74936420Y-102347352D01*
X74936420Y-102347352D02*
X74936420Y-101728305D01*
X119757142Y-105234819D02*
X119423809Y-104758628D01*
X119185714Y-105234819D02*
X119185714Y-104234819D01*
X119185714Y-104234819D02*
X119566666Y-104234819D01*
X119566666Y-104234819D02*
X119661904Y-104282438D01*
X119661904Y-104282438D02*
X119709523Y-104330057D01*
X119709523Y-104330057D02*
X119757142Y-104425295D01*
X119757142Y-104425295D02*
X119757142Y-104568152D01*
X119757142Y-104568152D02*
X119709523Y-104663390D01*
X119709523Y-104663390D02*
X119661904Y-104711009D01*
X119661904Y-104711009D02*
X119566666Y-104758628D01*
X119566666Y-104758628D02*
X119185714Y-104758628D01*
X120709523Y-105234819D02*
X120138095Y-105234819D01*
X120423809Y-105234819D02*
X120423809Y-104234819D01*
X120423809Y-104234819D02*
X120328571Y-104377676D01*
X120328571Y-104377676D02*
X120233333Y-104472914D01*
X120233333Y-104472914D02*
X120138095Y-104520533D01*
X121566666Y-104568152D02*
X121566666Y-105234819D01*
X121328571Y-104187200D02*
X121090476Y-104901485D01*
X121090476Y-104901485D02*
X121709523Y-104901485D01*
D12*
X64880279Y-104413817D02*
X64880279Y-105128102D01*
X64880279Y-105128102D02*
X64832660Y-105270959D01*
X64832660Y-105270959D02*
X64737422Y-105366198D01*
X64737422Y-105366198D02*
X64594565Y-105413817D01*
X64594565Y-105413817D02*
X64499327Y-105413817D01*
X65785041Y-104747150D02*
X65785041Y-105413817D01*
X65546946Y-104366198D02*
X65308851Y-105080483D01*
X65308851Y-105080483D02*
X65927898Y-105080483D01*
D11*
X90704819Y-86086667D02*
X90228628Y-86420000D01*
X90704819Y-86658095D02*
X89704819Y-86658095D01*
X89704819Y-86658095D02*
X89704819Y-86277143D01*
X89704819Y-86277143D02*
X89752438Y-86181905D01*
X89752438Y-86181905D02*
X89800057Y-86134286D01*
X89800057Y-86134286D02*
X89895295Y-86086667D01*
X89895295Y-86086667D02*
X90038152Y-86086667D01*
X90038152Y-86086667D02*
X90133390Y-86134286D01*
X90133390Y-86134286D02*
X90181009Y-86181905D01*
X90181009Y-86181905D02*
X90228628Y-86277143D01*
X90228628Y-86277143D02*
X90228628Y-86658095D01*
X89704819Y-85181905D02*
X89704819Y-85658095D01*
X89704819Y-85658095D02*
X90181009Y-85705714D01*
X90181009Y-85705714D02*
X90133390Y-85658095D01*
X90133390Y-85658095D02*
X90085771Y-85562857D01*
X90085771Y-85562857D02*
X90085771Y-85324762D01*
X90085771Y-85324762D02*
X90133390Y-85229524D01*
X90133390Y-85229524D02*
X90181009Y-85181905D01*
X90181009Y-85181905D02*
X90276247Y-85134286D01*
X90276247Y-85134286D02*
X90514342Y-85134286D01*
X90514342Y-85134286D02*
X90609580Y-85181905D01*
X90609580Y-85181905D02*
X90657200Y-85229524D01*
X90657200Y-85229524D02*
X90704819Y-85324762D01*
X90704819Y-85324762D02*
X90704819Y-85562857D01*
X90704819Y-85562857D02*
X90657200Y-85658095D01*
X90657200Y-85658095D02*
X90609580Y-85705714D01*
X70141905Y-65954819D02*
X70141905Y-64954819D01*
X70141905Y-64954819D02*
X70380000Y-64954819D01*
X70380000Y-64954819D02*
X70522857Y-65002438D01*
X70522857Y-65002438D02*
X70618095Y-65097676D01*
X70618095Y-65097676D02*
X70665714Y-65192914D01*
X70665714Y-65192914D02*
X70713333Y-65383390D01*
X70713333Y-65383390D02*
X70713333Y-65526247D01*
X70713333Y-65526247D02*
X70665714Y-65716723D01*
X70665714Y-65716723D02*
X70618095Y-65811961D01*
X70618095Y-65811961D02*
X70522857Y-65907200D01*
X70522857Y-65907200D02*
X70380000Y-65954819D01*
X70380000Y-65954819D02*
X70141905Y-65954819D01*
X71570476Y-65288152D02*
X71570476Y-65954819D01*
X71332381Y-64907200D02*
X71094286Y-65621485D01*
X71094286Y-65621485D02*
X71713333Y-65621485D01*
X69779248Y-35488647D02*
X70493533Y-35488647D01*
X70493533Y-35488647D02*
X70636390Y-35536266D01*
X70636390Y-35536266D02*
X70731629Y-35631504D01*
X70731629Y-35631504D02*
X70779248Y-35774361D01*
X70779248Y-35774361D02*
X70779248Y-35869599D01*
X70779248Y-34488647D02*
X70779248Y-35060075D01*
X70779248Y-34774361D02*
X69779248Y-34774361D01*
X69779248Y-34774361D02*
X69922105Y-34869599D01*
X69922105Y-34869599D02*
X70017343Y-34964837D01*
X70017343Y-34964837D02*
X70064962Y-35060075D01*
X109793749Y-101740381D02*
X109793749Y-100740381D01*
X109793749Y-100740381D02*
X110031844Y-100740381D01*
X110031844Y-100740381D02*
X110174701Y-100788000D01*
X110174701Y-100788000D02*
X110269939Y-100883238D01*
X110269939Y-100883238D02*
X110317558Y-100978476D01*
X110317558Y-100978476D02*
X110365177Y-101168952D01*
X110365177Y-101168952D02*
X110365177Y-101311809D01*
X110365177Y-101311809D02*
X110317558Y-101502285D01*
X110317558Y-101502285D02*
X110269939Y-101597523D01*
X110269939Y-101597523D02*
X110174701Y-101692762D01*
X110174701Y-101692762D02*
X110031844Y-101740381D01*
X110031844Y-101740381D02*
X109793749Y-101740381D01*
X111317558Y-101740381D02*
X110746130Y-101740381D01*
X111031844Y-101740381D02*
X111031844Y-100740381D01*
X111031844Y-100740381D02*
X110936606Y-100883238D01*
X110936606Y-100883238D02*
X110841368Y-100978476D01*
X110841368Y-100978476D02*
X110746130Y-101026095D01*
X111936606Y-100740381D02*
X112031844Y-100740381D01*
X112031844Y-100740381D02*
X112127082Y-100788000D01*
X112127082Y-100788000D02*
X112174701Y-100835619D01*
X112174701Y-100835619D02*
X112222320Y-100930857D01*
X112222320Y-100930857D02*
X112269939Y-101121333D01*
X112269939Y-101121333D02*
X112269939Y-101359428D01*
X112269939Y-101359428D02*
X112222320Y-101549904D01*
X112222320Y-101549904D02*
X112174701Y-101645142D01*
X112174701Y-101645142D02*
X112127082Y-101692762D01*
X112127082Y-101692762D02*
X112031844Y-101740381D01*
X112031844Y-101740381D02*
X111936606Y-101740381D01*
X111936606Y-101740381D02*
X111841368Y-101692762D01*
X111841368Y-101692762D02*
X111793749Y-101645142D01*
X111793749Y-101645142D02*
X111746130Y-101549904D01*
X111746130Y-101549904D02*
X111698511Y-101359428D01*
X111698511Y-101359428D02*
X111698511Y-101121333D01*
X111698511Y-101121333D02*
X111746130Y-100930857D01*
X111746130Y-100930857D02*
X111793749Y-100835619D01*
X111793749Y-100835619D02*
X111841368Y-100788000D01*
X111841368Y-100788000D02*
X111936606Y-100740381D01*
X90859580Y-138892857D02*
X90907200Y-138940476D01*
X90907200Y-138940476D02*
X90954819Y-139083333D01*
X90954819Y-139083333D02*
X90954819Y-139178571D01*
X90954819Y-139178571D02*
X90907200Y-139321428D01*
X90907200Y-139321428D02*
X90811961Y-139416666D01*
X90811961Y-139416666D02*
X90716723Y-139464285D01*
X90716723Y-139464285D02*
X90526247Y-139511904D01*
X90526247Y-139511904D02*
X90383390Y-139511904D01*
X90383390Y-139511904D02*
X90192914Y-139464285D01*
X90192914Y-139464285D02*
X90097676Y-139416666D01*
X90097676Y-139416666D02*
X90002438Y-139321428D01*
X90002438Y-139321428D02*
X89954819Y-139178571D01*
X89954819Y-139178571D02*
X89954819Y-139083333D01*
X89954819Y-139083333D02*
X90002438Y-138940476D01*
X90002438Y-138940476D02*
X90050057Y-138892857D01*
X90954819Y-137940476D02*
X90954819Y-138511904D01*
X90954819Y-138226190D02*
X89954819Y-138226190D01*
X89954819Y-138226190D02*
X90097676Y-138321428D01*
X90097676Y-138321428D02*
X90192914Y-138416666D01*
X90192914Y-138416666D02*
X90240533Y-138511904D01*
X90050057Y-137559523D02*
X90002438Y-137511904D01*
X90002438Y-137511904D02*
X89954819Y-137416666D01*
X89954819Y-137416666D02*
X89954819Y-137178571D01*
X89954819Y-137178571D02*
X90002438Y-137083333D01*
X90002438Y-137083333D02*
X90050057Y-137035714D01*
X90050057Y-137035714D02*
X90145295Y-136988095D01*
X90145295Y-136988095D02*
X90240533Y-136988095D01*
X90240533Y-136988095D02*
X90383390Y-137035714D01*
X90383390Y-137035714D02*
X90954819Y-137607142D01*
X90954819Y-137607142D02*
X90954819Y-136988095D01*
X120142855Y-98661751D02*
X120190475Y-98709370D01*
X120190475Y-98709370D02*
X120238094Y-98852227D01*
X120238094Y-98852227D02*
X120238094Y-98947465D01*
X120238094Y-98947465D02*
X120190475Y-99090322D01*
X120190475Y-99090322D02*
X120095236Y-99185560D01*
X120095236Y-99185560D02*
X119999998Y-99233179D01*
X119999998Y-99233179D02*
X119809522Y-99280798D01*
X119809522Y-99280798D02*
X119666665Y-99280798D01*
X119666665Y-99280798D02*
X119476189Y-99233179D01*
X119476189Y-99233179D02*
X119380951Y-99185560D01*
X119380951Y-99185560D02*
X119285713Y-99090322D01*
X119285713Y-99090322D02*
X119238094Y-98947465D01*
X119238094Y-98947465D02*
X119238094Y-98852227D01*
X119238094Y-98852227D02*
X119285713Y-98709370D01*
X119285713Y-98709370D02*
X119333332Y-98661751D01*
X119238094Y-98328417D02*
X119238094Y-97661751D01*
X119238094Y-97661751D02*
X120238094Y-98090322D01*
X80027142Y-131204819D02*
X79693809Y-130728628D01*
X79455714Y-131204819D02*
X79455714Y-130204819D01*
X79455714Y-130204819D02*
X79836666Y-130204819D01*
X79836666Y-130204819D02*
X79931904Y-130252438D01*
X79931904Y-130252438D02*
X79979523Y-130300057D01*
X79979523Y-130300057D02*
X80027142Y-130395295D01*
X80027142Y-130395295D02*
X80027142Y-130538152D01*
X80027142Y-130538152D02*
X79979523Y-130633390D01*
X79979523Y-130633390D02*
X79931904Y-130681009D01*
X79931904Y-130681009D02*
X79836666Y-130728628D01*
X79836666Y-130728628D02*
X79455714Y-130728628D01*
X80979523Y-131204819D02*
X80408095Y-131204819D01*
X80693809Y-131204819D02*
X80693809Y-130204819D01*
X80693809Y-130204819D02*
X80598571Y-130347676D01*
X80598571Y-130347676D02*
X80503333Y-130442914D01*
X80503333Y-130442914D02*
X80408095Y-130490533D01*
X81884285Y-130204819D02*
X81408095Y-130204819D01*
X81408095Y-130204819D02*
X81360476Y-130681009D01*
X81360476Y-130681009D02*
X81408095Y-130633390D01*
X81408095Y-130633390D02*
X81503333Y-130585771D01*
X81503333Y-130585771D02*
X81741428Y-130585771D01*
X81741428Y-130585771D02*
X81836666Y-130633390D01*
X81836666Y-130633390D02*
X81884285Y-130681009D01*
X81884285Y-130681009D02*
X81931904Y-130776247D01*
X81931904Y-130776247D02*
X81931904Y-131014342D01*
X81931904Y-131014342D02*
X81884285Y-131109580D01*
X81884285Y-131109580D02*
X81836666Y-131157200D01*
X81836666Y-131157200D02*
X81741428Y-131204819D01*
X81741428Y-131204819D02*
X81503333Y-131204819D01*
X81503333Y-131204819D02*
X81408095Y-131157200D01*
X81408095Y-131157200D02*
X81360476Y-131109580D01*
D12*
X112231491Y-70819944D02*
X112374348Y-70867563D01*
X112374348Y-70867563D02*
X112612443Y-70867563D01*
X112612443Y-70867563D02*
X112707681Y-70819944D01*
X112707681Y-70819944D02*
X112755300Y-70772324D01*
X112755300Y-70772324D02*
X112802919Y-70677086D01*
X112802919Y-70677086D02*
X112802919Y-70581848D01*
X112802919Y-70581848D02*
X112755300Y-70486610D01*
X112755300Y-70486610D02*
X112707681Y-70438991D01*
X112707681Y-70438991D02*
X112612443Y-70391372D01*
X112612443Y-70391372D02*
X112421967Y-70343753D01*
X112421967Y-70343753D02*
X112326729Y-70296134D01*
X112326729Y-70296134D02*
X112279110Y-70248515D01*
X112279110Y-70248515D02*
X112231491Y-70153277D01*
X112231491Y-70153277D02*
X112231491Y-70058039D01*
X112231491Y-70058039D02*
X112279110Y-69962801D01*
X112279110Y-69962801D02*
X112326729Y-69915182D01*
X112326729Y-69915182D02*
X112421967Y-69867563D01*
X112421967Y-69867563D02*
X112660062Y-69867563D01*
X112660062Y-69867563D02*
X112802919Y-69915182D01*
X113136253Y-69867563D02*
X113374348Y-70867563D01*
X113374348Y-70867563D02*
X113564824Y-70153277D01*
X113564824Y-70153277D02*
X113755300Y-70867563D01*
X113755300Y-70867563D02*
X113993396Y-69867563D01*
X114898157Y-70867563D02*
X114326729Y-70867563D01*
X114612443Y-70867563D02*
X114612443Y-69867563D01*
X114612443Y-69867563D02*
X114517205Y-70010420D01*
X114517205Y-70010420D02*
X114421967Y-70105658D01*
X114421967Y-70105658D02*
X114326729Y-70153277D01*
D11*
X69857142Y-132954819D02*
X69523809Y-132478628D01*
X69285714Y-132954819D02*
X69285714Y-131954819D01*
X69285714Y-131954819D02*
X69666666Y-131954819D01*
X69666666Y-131954819D02*
X69761904Y-132002438D01*
X69761904Y-132002438D02*
X69809523Y-132050057D01*
X69809523Y-132050057D02*
X69857142Y-132145295D01*
X69857142Y-132145295D02*
X69857142Y-132288152D01*
X69857142Y-132288152D02*
X69809523Y-132383390D01*
X69809523Y-132383390D02*
X69761904Y-132431009D01*
X69761904Y-132431009D02*
X69666666Y-132478628D01*
X69666666Y-132478628D02*
X69285714Y-132478628D01*
X70809523Y-132954819D02*
X70238095Y-132954819D01*
X70523809Y-132954819D02*
X70523809Y-131954819D01*
X70523809Y-131954819D02*
X70428571Y-132097676D01*
X70428571Y-132097676D02*
X70333333Y-132192914D01*
X70333333Y-132192914D02*
X70238095Y-132240533D01*
X71666666Y-131954819D02*
X71476190Y-131954819D01*
X71476190Y-131954819D02*
X71380952Y-132002438D01*
X71380952Y-132002438D02*
X71333333Y-132050057D01*
X71333333Y-132050057D02*
X71238095Y-132192914D01*
X71238095Y-132192914D02*
X71190476Y-132383390D01*
X71190476Y-132383390D02*
X71190476Y-132764342D01*
X71190476Y-132764342D02*
X71238095Y-132859580D01*
X71238095Y-132859580D02*
X71285714Y-132907200D01*
X71285714Y-132907200D02*
X71380952Y-132954819D01*
X71380952Y-132954819D02*
X71571428Y-132954819D01*
X71571428Y-132954819D02*
X71666666Y-132907200D01*
X71666666Y-132907200D02*
X71714285Y-132859580D01*
X71714285Y-132859580D02*
X71761904Y-132764342D01*
X71761904Y-132764342D02*
X71761904Y-132526247D01*
X71761904Y-132526247D02*
X71714285Y-132431009D01*
X71714285Y-132431009D02*
X71666666Y-132383390D01*
X71666666Y-132383390D02*
X71571428Y-132335771D01*
X71571428Y-132335771D02*
X71380952Y-132335771D01*
X71380952Y-132335771D02*
X71285714Y-132383390D01*
X71285714Y-132383390D02*
X71238095Y-132431009D01*
X71238095Y-132431009D02*
X71190476Y-132526247D01*
X120109580Y-91416666D02*
X120157200Y-91464285D01*
X120157200Y-91464285D02*
X120204819Y-91607142D01*
X120204819Y-91607142D02*
X120204819Y-91702380D01*
X120204819Y-91702380D02*
X120157200Y-91845237D01*
X120157200Y-91845237D02*
X120061961Y-91940475D01*
X120061961Y-91940475D02*
X119966723Y-91988094D01*
X119966723Y-91988094D02*
X119776247Y-92035713D01*
X119776247Y-92035713D02*
X119633390Y-92035713D01*
X119633390Y-92035713D02*
X119442914Y-91988094D01*
X119442914Y-91988094D02*
X119347676Y-91940475D01*
X119347676Y-91940475D02*
X119252438Y-91845237D01*
X119252438Y-91845237D02*
X119204819Y-91702380D01*
X119204819Y-91702380D02*
X119204819Y-91607142D01*
X119204819Y-91607142D02*
X119252438Y-91464285D01*
X119252438Y-91464285D02*
X119300057Y-91416666D01*
X119300057Y-91035713D02*
X119252438Y-90988094D01*
X119252438Y-90988094D02*
X119204819Y-90892856D01*
X119204819Y-90892856D02*
X119204819Y-90654761D01*
X119204819Y-90654761D02*
X119252438Y-90559523D01*
X119252438Y-90559523D02*
X119300057Y-90511904D01*
X119300057Y-90511904D02*
X119395295Y-90464285D01*
X119395295Y-90464285D02*
X119490533Y-90464285D01*
X119490533Y-90464285D02*
X119633390Y-90511904D01*
X119633390Y-90511904D02*
X120204819Y-91083332D01*
X120204819Y-91083332D02*
X120204819Y-90464285D01*
X110747182Y-105073539D02*
X110747182Y-104073539D01*
X110747182Y-104073539D02*
X110985277Y-104073539D01*
X110985277Y-104073539D02*
X111128134Y-104121158D01*
X111128134Y-104121158D02*
X111223372Y-104216396D01*
X111223372Y-104216396D02*
X111270991Y-104311634D01*
X111270991Y-104311634D02*
X111318610Y-104502110D01*
X111318610Y-104502110D02*
X111318610Y-104644967D01*
X111318610Y-104644967D02*
X111270991Y-104835443D01*
X111270991Y-104835443D02*
X111223372Y-104930681D01*
X111223372Y-104930681D02*
X111128134Y-105025920D01*
X111128134Y-105025920D02*
X110985277Y-105073539D01*
X110985277Y-105073539D02*
X110747182Y-105073539D01*
X111794801Y-105073539D02*
X111985277Y-105073539D01*
X111985277Y-105073539D02*
X112080515Y-105025920D01*
X112080515Y-105025920D02*
X112128134Y-104978300D01*
X112128134Y-104978300D02*
X112223372Y-104835443D01*
X112223372Y-104835443D02*
X112270991Y-104644967D01*
X112270991Y-104644967D02*
X112270991Y-104264015D01*
X112270991Y-104264015D02*
X112223372Y-104168777D01*
X112223372Y-104168777D02*
X112175753Y-104121158D01*
X112175753Y-104121158D02*
X112080515Y-104073539D01*
X112080515Y-104073539D02*
X111890039Y-104073539D01*
X111890039Y-104073539D02*
X111794801Y-104121158D01*
X111794801Y-104121158D02*
X111747182Y-104168777D01*
X111747182Y-104168777D02*
X111699563Y-104264015D01*
X111699563Y-104264015D02*
X111699563Y-104502110D01*
X111699563Y-104502110D02*
X111747182Y-104597348D01*
X111747182Y-104597348D02*
X111794801Y-104644967D01*
X111794801Y-104644967D02*
X111890039Y-104692586D01*
X111890039Y-104692586D02*
X112080515Y-104692586D01*
X112080515Y-104692586D02*
X112175753Y-104644967D01*
X112175753Y-104644967D02*
X112223372Y-104597348D01*
X112223372Y-104597348D02*
X112270991Y-104502110D01*
X112954819Y-56238094D02*
X111954819Y-56238094D01*
X111954819Y-56238094D02*
X111954819Y-55999999D01*
X111954819Y-55999999D02*
X112002438Y-55857142D01*
X112002438Y-55857142D02*
X112097676Y-55761904D01*
X112097676Y-55761904D02*
X112192914Y-55714285D01*
X112192914Y-55714285D02*
X112383390Y-55666666D01*
X112383390Y-55666666D02*
X112526247Y-55666666D01*
X112526247Y-55666666D02*
X112716723Y-55714285D01*
X112716723Y-55714285D02*
X112811961Y-55761904D01*
X112811961Y-55761904D02*
X112907200Y-55857142D01*
X112907200Y-55857142D02*
X112954819Y-55999999D01*
X112954819Y-55999999D02*
X112954819Y-56238094D01*
X112050057Y-55285713D02*
X112002438Y-55238094D01*
X112002438Y-55238094D02*
X111954819Y-55142856D01*
X111954819Y-55142856D02*
X111954819Y-54904761D01*
X111954819Y-54904761D02*
X112002438Y-54809523D01*
X112002438Y-54809523D02*
X112050057Y-54761904D01*
X112050057Y-54761904D02*
X112145295Y-54714285D01*
X112145295Y-54714285D02*
X112240533Y-54714285D01*
X112240533Y-54714285D02*
X112383390Y-54761904D01*
X112383390Y-54761904D02*
X112954819Y-55333332D01*
X112954819Y-55333332D02*
X112954819Y-54714285D01*
X97583333Y-107847226D02*
X97535714Y-107894846D01*
X97535714Y-107894846D02*
X97392857Y-107942465D01*
X97392857Y-107942465D02*
X97297619Y-107942465D01*
X97297619Y-107942465D02*
X97154762Y-107894846D01*
X97154762Y-107894846D02*
X97059524Y-107799607D01*
X97059524Y-107799607D02*
X97011905Y-107704369D01*
X97011905Y-107704369D02*
X96964286Y-107513893D01*
X96964286Y-107513893D02*
X96964286Y-107371036D01*
X96964286Y-107371036D02*
X97011905Y-107180560D01*
X97011905Y-107180560D02*
X97059524Y-107085322D01*
X97059524Y-107085322D02*
X97154762Y-106990084D01*
X97154762Y-106990084D02*
X97297619Y-106942465D01*
X97297619Y-106942465D02*
X97392857Y-106942465D01*
X97392857Y-106942465D02*
X97535714Y-106990084D01*
X97535714Y-106990084D02*
X97583333Y-107037703D01*
X98440476Y-106942465D02*
X98250000Y-106942465D01*
X98250000Y-106942465D02*
X98154762Y-106990084D01*
X98154762Y-106990084D02*
X98107143Y-107037703D01*
X98107143Y-107037703D02*
X98011905Y-107180560D01*
X98011905Y-107180560D02*
X97964286Y-107371036D01*
X97964286Y-107371036D02*
X97964286Y-107751988D01*
X97964286Y-107751988D02*
X98011905Y-107847226D01*
X98011905Y-107847226D02*
X98059524Y-107894846D01*
X98059524Y-107894846D02*
X98154762Y-107942465D01*
X98154762Y-107942465D02*
X98345238Y-107942465D01*
X98345238Y-107942465D02*
X98440476Y-107894846D01*
X98440476Y-107894846D02*
X98488095Y-107847226D01*
X98488095Y-107847226D02*
X98535714Y-107751988D01*
X98535714Y-107751988D02*
X98535714Y-107513893D01*
X98535714Y-107513893D02*
X98488095Y-107418655D01*
X98488095Y-107418655D02*
X98440476Y-107371036D01*
X98440476Y-107371036D02*
X98345238Y-107323417D01*
X98345238Y-107323417D02*
X98154762Y-107323417D01*
X98154762Y-107323417D02*
X98059524Y-107371036D01*
X98059524Y-107371036D02*
X98011905Y-107418655D01*
X98011905Y-107418655D02*
X97964286Y-107513893D01*
X80107142Y-108454819D02*
X79773809Y-107978628D01*
X79535714Y-108454819D02*
X79535714Y-107454819D01*
X79535714Y-107454819D02*
X79916666Y-107454819D01*
X79916666Y-107454819D02*
X80011904Y-107502438D01*
X80011904Y-107502438D02*
X80059523Y-107550057D01*
X80059523Y-107550057D02*
X80107142Y-107645295D01*
X80107142Y-107645295D02*
X80107142Y-107788152D01*
X80107142Y-107788152D02*
X80059523Y-107883390D01*
X80059523Y-107883390D02*
X80011904Y-107931009D01*
X80011904Y-107931009D02*
X79916666Y-107978628D01*
X79916666Y-107978628D02*
X79535714Y-107978628D01*
X81059523Y-108454819D02*
X80488095Y-108454819D01*
X80773809Y-108454819D02*
X80773809Y-107454819D01*
X80773809Y-107454819D02*
X80678571Y-107597676D01*
X80678571Y-107597676D02*
X80583333Y-107692914D01*
X80583333Y-107692914D02*
X80488095Y-107740533D01*
X81440476Y-107550057D02*
X81488095Y-107502438D01*
X81488095Y-107502438D02*
X81583333Y-107454819D01*
X81583333Y-107454819D02*
X81821428Y-107454819D01*
X81821428Y-107454819D02*
X81916666Y-107502438D01*
X81916666Y-107502438D02*
X81964285Y-107550057D01*
X81964285Y-107550057D02*
X82011904Y-107645295D01*
X82011904Y-107645295D02*
X82011904Y-107740533D01*
X82011904Y-107740533D02*
X81964285Y-107883390D01*
X81964285Y-107883390D02*
X81392857Y-108454819D01*
X81392857Y-108454819D02*
X82011904Y-108454819D01*
X61798095Y-126949819D02*
X61798095Y-127759342D01*
X61798095Y-127759342D02*
X61845714Y-127854580D01*
X61845714Y-127854580D02*
X61893333Y-127902200D01*
X61893333Y-127902200D02*
X61988571Y-127949819D01*
X61988571Y-127949819D02*
X62179047Y-127949819D01*
X62179047Y-127949819D02*
X62274285Y-127902200D01*
X62274285Y-127902200D02*
X62321904Y-127854580D01*
X62321904Y-127854580D02*
X62369523Y-127759342D01*
X62369523Y-127759342D02*
X62369523Y-126949819D01*
X63369523Y-127949819D02*
X62798095Y-127949819D01*
X63083809Y-127949819D02*
X63083809Y-126949819D01*
X63083809Y-126949819D02*
X62988571Y-127092676D01*
X62988571Y-127092676D02*
X62893333Y-127187914D01*
X62893333Y-127187914D02*
X62798095Y-127235533D01*
X70141905Y-69454819D02*
X70141905Y-68454819D01*
X70141905Y-68454819D02*
X70380000Y-68454819D01*
X70380000Y-68454819D02*
X70522857Y-68502438D01*
X70522857Y-68502438D02*
X70618095Y-68597676D01*
X70618095Y-68597676D02*
X70665714Y-68692914D01*
X70665714Y-68692914D02*
X70713333Y-68883390D01*
X70713333Y-68883390D02*
X70713333Y-69026247D01*
X70713333Y-69026247D02*
X70665714Y-69216723D01*
X70665714Y-69216723D02*
X70618095Y-69311961D01*
X70618095Y-69311961D02*
X70522857Y-69407200D01*
X70522857Y-69407200D02*
X70380000Y-69454819D01*
X70380000Y-69454819D02*
X70141905Y-69454819D01*
X71046667Y-68454819D02*
X71665714Y-68454819D01*
X71665714Y-68454819D02*
X71332381Y-68835771D01*
X71332381Y-68835771D02*
X71475238Y-68835771D01*
X71475238Y-68835771D02*
X71570476Y-68883390D01*
X71570476Y-68883390D02*
X71618095Y-68931009D01*
X71618095Y-68931009D02*
X71665714Y-69026247D01*
X71665714Y-69026247D02*
X71665714Y-69264342D01*
X71665714Y-69264342D02*
X71618095Y-69359580D01*
X71618095Y-69359580D02*
X71570476Y-69407200D01*
X71570476Y-69407200D02*
X71475238Y-69454819D01*
X71475238Y-69454819D02*
X71189524Y-69454819D01*
X71189524Y-69454819D02*
X71094286Y-69407200D01*
X71094286Y-69407200D02*
X71046667Y-69359580D01*
X104066971Y-117719688D02*
X104114591Y-117767307D01*
X104114591Y-117767307D02*
X104162210Y-117910164D01*
X104162210Y-117910164D02*
X104162210Y-118005402D01*
X104162210Y-118005402D02*
X104114591Y-118148259D01*
X104114591Y-118148259D02*
X104019352Y-118243497D01*
X104019352Y-118243497D02*
X103924114Y-118291116D01*
X103924114Y-118291116D02*
X103733638Y-118338735D01*
X103733638Y-118338735D02*
X103590781Y-118338735D01*
X103590781Y-118338735D02*
X103400305Y-118291116D01*
X103400305Y-118291116D02*
X103305067Y-118243497D01*
X103305067Y-118243497D02*
X103209829Y-118148259D01*
X103209829Y-118148259D02*
X103162210Y-118005402D01*
X103162210Y-118005402D02*
X103162210Y-117910164D01*
X103162210Y-117910164D02*
X103209829Y-117767307D01*
X103209829Y-117767307D02*
X103257448Y-117719688D01*
X104162210Y-117243497D02*
X104162210Y-117053021D01*
X104162210Y-117053021D02*
X104114591Y-116957783D01*
X104114591Y-116957783D02*
X104066971Y-116910164D01*
X104066971Y-116910164D02*
X103924114Y-116814926D01*
X103924114Y-116814926D02*
X103733638Y-116767307D01*
X103733638Y-116767307D02*
X103352686Y-116767307D01*
X103352686Y-116767307D02*
X103257448Y-116814926D01*
X103257448Y-116814926D02*
X103209829Y-116862545D01*
X103209829Y-116862545D02*
X103162210Y-116957783D01*
X103162210Y-116957783D02*
X103162210Y-117148259D01*
X103162210Y-117148259D02*
X103209829Y-117243497D01*
X103209829Y-117243497D02*
X103257448Y-117291116D01*
X103257448Y-117291116D02*
X103352686Y-117338735D01*
X103352686Y-117338735D02*
X103590781Y-117338735D01*
X103590781Y-117338735D02*
X103686019Y-117291116D01*
X103686019Y-117291116D02*
X103733638Y-117243497D01*
X103733638Y-117243497D02*
X103781257Y-117148259D01*
X103781257Y-117148259D02*
X103781257Y-116957783D01*
X103781257Y-116957783D02*
X103733638Y-116862545D01*
X103733638Y-116862545D02*
X103686019Y-116814926D01*
X103686019Y-116814926D02*
X103590781Y-116767307D01*
X92709248Y-35488647D02*
X93423533Y-35488647D01*
X93423533Y-35488647D02*
X93566390Y-35536266D01*
X93566390Y-35536266D02*
X93661629Y-35631504D01*
X93661629Y-35631504D02*
X93709248Y-35774361D01*
X93709248Y-35774361D02*
X93709248Y-35869599D01*
X92804486Y-35060075D02*
X92756867Y-35012456D01*
X92756867Y-35012456D02*
X92709248Y-34917218D01*
X92709248Y-34917218D02*
X92709248Y-34679123D01*
X92709248Y-34679123D02*
X92756867Y-34583885D01*
X92756867Y-34583885D02*
X92804486Y-34536266D01*
X92804486Y-34536266D02*
X92899724Y-34488647D01*
X92899724Y-34488647D02*
X92994962Y-34488647D01*
X92994962Y-34488647D02*
X93137819Y-34536266D01*
X93137819Y-34536266D02*
X93709248Y-35107694D01*
X93709248Y-35107694D02*
X93709248Y-34488647D01*
D12*
X60422430Y-82372284D02*
X60422430Y-83086569D01*
X60422430Y-83086569D02*
X60374811Y-83229426D01*
X60374811Y-83229426D02*
X60279573Y-83324665D01*
X60279573Y-83324665D02*
X60136716Y-83372284D01*
X60136716Y-83372284D02*
X60041478Y-83372284D01*
X60803383Y-82372284D02*
X61422430Y-82372284D01*
X61422430Y-82372284D02*
X61089097Y-82753236D01*
X61089097Y-82753236D02*
X61231954Y-82753236D01*
X61231954Y-82753236D02*
X61327192Y-82800855D01*
X61327192Y-82800855D02*
X61374811Y-82848474D01*
X61374811Y-82848474D02*
X61422430Y-82943712D01*
X61422430Y-82943712D02*
X61422430Y-83181807D01*
X61422430Y-83181807D02*
X61374811Y-83277045D01*
X61374811Y-83277045D02*
X61327192Y-83324665D01*
X61327192Y-83324665D02*
X61231954Y-83372284D01*
X61231954Y-83372284D02*
X60946240Y-83372284D01*
X60946240Y-83372284D02*
X60851002Y-83324665D01*
X60851002Y-83324665D02*
X60803383Y-83277045D01*
D11*
X90954819Y-91642857D02*
X90478628Y-91976190D01*
X90954819Y-92214285D02*
X89954819Y-92214285D01*
X89954819Y-92214285D02*
X89954819Y-91833333D01*
X89954819Y-91833333D02*
X90002438Y-91738095D01*
X90002438Y-91738095D02*
X90050057Y-91690476D01*
X90050057Y-91690476D02*
X90145295Y-91642857D01*
X90145295Y-91642857D02*
X90288152Y-91642857D01*
X90288152Y-91642857D02*
X90383390Y-91690476D01*
X90383390Y-91690476D02*
X90431009Y-91738095D01*
X90431009Y-91738095D02*
X90478628Y-91833333D01*
X90478628Y-91833333D02*
X90478628Y-92214285D01*
X90954819Y-90690476D02*
X90954819Y-91261904D01*
X90954819Y-90976190D02*
X89954819Y-90976190D01*
X89954819Y-90976190D02*
X90097676Y-91071428D01*
X90097676Y-91071428D02*
X90192914Y-91166666D01*
X90192914Y-91166666D02*
X90240533Y-91261904D01*
X89954819Y-90357142D02*
X89954819Y-89738095D01*
X89954819Y-89738095D02*
X90335771Y-90071428D01*
X90335771Y-90071428D02*
X90335771Y-89928571D01*
X90335771Y-89928571D02*
X90383390Y-89833333D01*
X90383390Y-89833333D02*
X90431009Y-89785714D01*
X90431009Y-89785714D02*
X90526247Y-89738095D01*
X90526247Y-89738095D02*
X90764342Y-89738095D01*
X90764342Y-89738095D02*
X90859580Y-89785714D01*
X90859580Y-89785714D02*
X90907200Y-89833333D01*
X90907200Y-89833333D02*
X90954819Y-89928571D01*
X90954819Y-89928571D02*
X90954819Y-90214285D01*
X90954819Y-90214285D02*
X90907200Y-90309523D01*
X90907200Y-90309523D02*
X90859580Y-90357142D01*
X75357142Y-125954819D02*
X75023809Y-125478628D01*
X74785714Y-125954819D02*
X74785714Y-124954819D01*
X74785714Y-124954819D02*
X75166666Y-124954819D01*
X75166666Y-124954819D02*
X75261904Y-125002438D01*
X75261904Y-125002438D02*
X75309523Y-125050057D01*
X75309523Y-125050057D02*
X75357142Y-125145295D01*
X75357142Y-125145295D02*
X75357142Y-125288152D01*
X75357142Y-125288152D02*
X75309523Y-125383390D01*
X75309523Y-125383390D02*
X75261904Y-125431009D01*
X75261904Y-125431009D02*
X75166666Y-125478628D01*
X75166666Y-125478628D02*
X74785714Y-125478628D01*
X76309523Y-125954819D02*
X75738095Y-125954819D01*
X76023809Y-125954819D02*
X76023809Y-124954819D01*
X76023809Y-124954819D02*
X75928571Y-125097676D01*
X75928571Y-125097676D02*
X75833333Y-125192914D01*
X75833333Y-125192914D02*
X75738095Y-125240533D01*
X76642857Y-124954819D02*
X77309523Y-124954819D01*
X77309523Y-124954819D02*
X76880952Y-125954819D01*
D13*
%TO.C,C1*%
X107847003Y-86680000D02*
X112387003Y-86680000D01*
X107847003Y-86736000D02*
X107847003Y-86680000D01*
X112387003Y-88764000D02*
X112387003Y-88820000D01*
X112387003Y-88820000D02*
X107847003Y-88820000D01*
%TO.C,D12*%
X108780000Y-92767646D02*
X108780000Y-93097646D01*
X108780000Y-95707646D02*
X108780000Y-95377646D01*
X113200000Y-95707646D02*
X113200000Y-92767646D01*
X113320000Y-95707646D02*
X113320000Y-92767646D01*
X113440000Y-95707646D02*
X113440000Y-92767646D01*
X114220000Y-92767646D02*
X108780000Y-92767646D01*
X114220000Y-93097646D02*
X114220000Y-92767646D01*
X114220000Y-95377646D02*
X114220000Y-95707646D01*
X114220000Y-95707646D02*
X108780000Y-95707646D01*
%TO.C,R20*%
X109290000Y-130250000D02*
X110060000Y-130250000D01*
X117370000Y-130250000D02*
X116600000Y-130250000D01*
X116600000Y-131620000D02*
X110060000Y-131620000D01*
X110060000Y-128880000D01*
X116600000Y-128880000D01*
X116600000Y-131620000D01*
%TO.C,RV3*%
X94708308Y-71846069D02*
X104749308Y-71846069D01*
X94708308Y-75782069D02*
X94708308Y-71846069D01*
X94708308Y-84086069D02*
X94708308Y-80149069D01*
X94708308Y-84086069D02*
X96029308Y-84086069D01*
X98479308Y-84086069D02*
X98859308Y-84086069D01*
X100600308Y-84086069D02*
X101359308Y-84086069D01*
X103099308Y-84086069D02*
X104749308Y-84086069D01*
X104749308Y-75782069D02*
X104749308Y-71846069D01*
X104749308Y-84086069D02*
X104749308Y-80149069D01*
%TO.C,C4*%
X74680000Y-118770000D02*
X74680000Y-114230000D01*
X74736000Y-118770000D02*
X74680000Y-118770000D01*
X76764000Y-114230000D02*
X76820000Y-114230000D01*
X76820000Y-114230000D02*
X76820000Y-118770000D01*
%TO.C,R9*%
X78630000Y-89500000D02*
X79400000Y-89500000D01*
X86710000Y-89500000D02*
X85940000Y-89500000D01*
X85940000Y-90870000D02*
X79400000Y-90870000D01*
X79400000Y-88130000D01*
X85940000Y-88130000D01*
X85940000Y-90870000D01*
%TO.C,RV7*%
X94579000Y-132630000D02*
X104620000Y-132630000D01*
X94579000Y-136566000D02*
X94579000Y-132630000D01*
X94579000Y-144870000D02*
X94579000Y-140933000D01*
X94579000Y-144870000D02*
X95900000Y-144870000D01*
X98350000Y-144870000D02*
X98730000Y-144870000D01*
X100471000Y-144870000D02*
X101230000Y-144870000D01*
X102970000Y-144870000D02*
X104620000Y-144870000D01*
X104620000Y-136566000D02*
X104620000Y-132630000D01*
X104620000Y-144870000D02*
X104620000Y-140933000D01*
%TO.C,SW3*%
D12*
X103000000Y-126000000D02*
X95000000Y-126000000D01*
X95000000Y-113000000D01*
X103000000Y-113000000D01*
X103000000Y-126000000D01*
D13*
%TO.C,R2*%
X72380000Y-58500000D02*
X73150000Y-58500000D01*
X80460000Y-58500000D02*
X79690000Y-58500000D01*
X79690000Y-59870000D02*
X73150000Y-59870000D01*
X73150000Y-57130000D01*
X79690000Y-57130000D01*
X79690000Y-59870000D01*
%TO.C,C3*%
X61286646Y-118771488D02*
X61286646Y-114231488D01*
X61342646Y-118771488D02*
X61286646Y-118771488D01*
X63370646Y-114231488D02*
X63426646Y-114231488D01*
X63426646Y-114231488D02*
X63426646Y-118771488D01*
%TO.C,R22*%
X91380000Y-152250000D02*
X92150000Y-152250000D01*
X99460000Y-152250000D02*
X98690000Y-152250000D01*
X98690000Y-153620000D02*
X92150000Y-153620000D01*
X92150000Y-150880000D01*
X98690000Y-150880000D01*
X98690000Y-153620000D01*
%TO.C,R1*%
X72380000Y-55000000D02*
X73150000Y-55000000D01*
X80460000Y-55000000D02*
X79690000Y-55000000D01*
X73150000Y-53630000D02*
X79690000Y-53630000D01*
X79690000Y-56370000D01*
X73150000Y-56370000D01*
X73150000Y-53630000D01*
%TO.C,R4*%
X62540000Y-86000000D02*
X63310000Y-86000000D01*
X70620000Y-86000000D02*
X69850000Y-86000000D01*
X63310000Y-84630000D02*
X69850000Y-84630000D01*
X69850000Y-87370000D01*
X63310000Y-87370000D01*
X63310000Y-84630000D01*
%TO.C,R18*%
X88957241Y-127742504D02*
X89727241Y-127742504D01*
X97037241Y-127742504D02*
X96267241Y-127742504D01*
X96267241Y-129112504D02*
X89727241Y-129112504D01*
X89727241Y-126372504D01*
X96267241Y-126372504D01*
X96267241Y-129112504D01*
%TO.C,RV2*%
X75886652Y-71880000D02*
X85927652Y-71880000D01*
X75886652Y-75816000D02*
X75886652Y-71880000D01*
X75886652Y-84120000D02*
X75886652Y-80183000D01*
X75886652Y-84120000D02*
X77207652Y-84120000D01*
X79657652Y-84120000D02*
X80037652Y-84120000D01*
X81778652Y-84120000D02*
X82537652Y-84120000D01*
X84277652Y-84120000D02*
X85927652Y-84120000D01*
X85927652Y-75816000D02*
X85927652Y-71880000D01*
X85927652Y-84120000D02*
X85927652Y-80183000D01*
%TO.C,R23*%
X91460000Y-149000000D02*
X92230000Y-149000000D01*
X99540000Y-149000000D02*
X98770000Y-149000000D01*
X98770000Y-150370000D02*
X92230000Y-150370000D01*
X92230000Y-147630000D01*
X98770000Y-147630000D01*
X98770000Y-150370000D01*
%TO.C,U2*%
X109600000Y-110305000D02*
X109600000Y-128205000D01*
X109600000Y-128205000D02*
X114900000Y-128205000D01*
X111250000Y-110305000D02*
X109600000Y-110305000D01*
X114900000Y-110305000D02*
X113250000Y-110305000D01*
X114900000Y-128205000D02*
X114900000Y-110305000D01*
X107110000Y-110245000D02*
X117390000Y-110245000D01*
X117390000Y-128265000D01*
X107110000Y-128265000D01*
X107110000Y-110245000D01*
X113250000Y-110305000D02*
G75*
G02*
X111250000Y-110305000I-1000000J0D01*
G01*
%TO.C,RV5*%
X94694996Y-91833715D02*
X104735996Y-91833715D01*
X94694996Y-95769715D02*
X94694996Y-91833715D01*
X94694996Y-104073715D02*
X94694996Y-100136715D01*
X94694996Y-104073715D02*
X96015996Y-104073715D01*
X98465996Y-104073715D02*
X98845996Y-104073715D01*
X100586996Y-104073715D02*
X101345996Y-104073715D01*
X103085996Y-104073715D02*
X104735996Y-104073715D01*
X104735996Y-95769715D02*
X104735996Y-91833715D01*
X104735996Y-104073715D02*
X104735996Y-100136715D01*
D12*
%TO.C,J5*%
X71500000Y-138250000D02*
G75*
G02*
X59500000Y-138250000I-6000000J0D01*
G01*
X59500000Y-138250000D02*
G75*
G02*
X71500000Y-138250000I6000000J0D01*
G01*
D13*
%TO.C,R7*%
X106500000Y-56230000D02*
X106500000Y-57000000D01*
X106500000Y-64310000D02*
X106500000Y-63540000D01*
X105130000Y-63540000D02*
X107870000Y-63540000D01*
X107870000Y-57000000D01*
X105130000Y-57000000D01*
X105130000Y-63540000D01*
%TO.C,D11*%
X108765277Y-106648720D02*
X108765277Y-106978720D01*
X108765277Y-109588720D02*
X108765277Y-109258720D01*
X113185277Y-109588720D02*
X113185277Y-106648720D01*
X113305277Y-109588720D02*
X113305277Y-106648720D01*
X113425277Y-109588720D02*
X113425277Y-106648720D01*
X114205277Y-106648720D02*
X108765277Y-106648720D01*
X114205277Y-106978720D02*
X114205277Y-106648720D01*
X114205277Y-109258720D02*
X114205277Y-109588720D01*
X114205277Y-109588720D02*
X108765277Y-109588720D01*
%TO.C,R3*%
X109500923Y-56229998D02*
X109500923Y-56999998D01*
X109500923Y-64309998D02*
X109500923Y-63539998D01*
X110870923Y-56999998D02*
X108130923Y-56999998D01*
X108130923Y-63539998D01*
X110870923Y-63539998D01*
X110870923Y-56999998D01*
%TO.C,D1*%
X74970000Y-60530000D02*
X74970000Y-60860000D01*
X74970000Y-63470000D02*
X74970000Y-63140000D01*
X79390000Y-63470000D02*
X79390000Y-60530000D01*
X79510000Y-63470000D02*
X79510000Y-60530000D01*
X79630000Y-63470000D02*
X79630000Y-60530000D01*
X80410000Y-60530000D02*
X74970000Y-60530000D01*
X80410000Y-60860000D02*
X80410000Y-60530000D01*
X80410000Y-63140000D02*
X80410000Y-63470000D01*
X80410000Y-63470000D02*
X74970000Y-63470000D01*
D14*
%TO.C,G\u002A\u002A\u002A*%
G36*
X115580805Y-147216464D02*
G01*
X115741653Y-147390912D01*
X115786929Y-147487207D01*
X115721977Y-147485986D01*
X115552140Y-147367883D01*
X115541480Y-147358974D01*
X115290627Y-147147895D01*
X114512994Y-147316461D01*
X114042184Y-147420589D01*
X113726520Y-147498892D01*
X113555194Y-147559206D01*
X113517398Y-147609371D01*
X113602324Y-147657223D01*
X113799166Y-147710601D01*
X113928738Y-147740153D01*
X114249579Y-147803246D01*
X114461708Y-147817866D01*
X114618417Y-147784818D01*
X114690738Y-147751667D01*
X115043940Y-147643536D01*
X115365617Y-147699096D01*
X115610197Y-147878823D01*
X115790172Y-148042943D01*
X115979010Y-148137969D01*
X116212627Y-148167261D01*
X116526943Y-148134179D01*
X116957875Y-148042084D01*
X117067970Y-148015209D01*
X117513265Y-147907870D01*
X117827420Y-147844100D01*
X118042959Y-147824025D01*
X118192405Y-147847767D01*
X118308285Y-147915451D01*
X118416686Y-148020333D01*
X118551280Y-148196783D01*
X118552933Y-148279046D01*
X118436918Y-148254821D01*
X118262013Y-148144886D01*
X118009049Y-147957862D01*
X117187072Y-148175605D01*
X116840479Y-148269414D01*
X116563003Y-148348298D01*
X116390121Y-148401950D01*
X116350456Y-148418674D01*
X116296103Y-148495604D01*
X116174281Y-148662856D01*
X116093309Y-148773024D01*
X115909216Y-149046643D01*
X115729232Y-149353514D01*
X115577678Y-149647332D01*
X115478875Y-149881793D01*
X115454020Y-149990167D01*
X115508467Y-150055401D01*
X115688847Y-150057349D01*
X115786260Y-150043817D01*
X116078640Y-150037385D01*
X116470483Y-150081701D01*
X116903861Y-150165040D01*
X117320848Y-150275679D01*
X117663517Y-150401894D01*
X117739666Y-150439175D01*
X117958694Y-150543047D01*
X118277512Y-150679253D01*
X118636637Y-150822634D01*
X118734499Y-150859955D01*
X119123052Y-151023184D01*
X119355560Y-151169577D01*
X119441985Y-151315687D01*
X119392292Y-151478066D01*
X119221333Y-151668748D01*
X119047413Y-151934517D01*
X119025958Y-152250765D01*
X119136666Y-152550333D01*
X119237461Y-152749998D01*
X119237691Y-152865499D01*
X119131024Y-152953364D01*
X119088920Y-152976563D01*
X118894921Y-153023280D01*
X118813754Y-152991770D01*
X118653112Y-152909055D01*
X118519901Y-152866055D01*
X118390982Y-152860562D01*
X118288152Y-152942032D01*
X118173966Y-153143845D01*
X118148601Y-153197050D01*
X118014478Y-153438177D01*
X117890919Y-153545768D01*
X117791700Y-153557843D01*
X117566757Y-153567125D01*
X117400999Y-153599486D01*
X117254944Y-153672341D01*
X117191831Y-153818135D01*
X117179173Y-153972366D01*
X117149268Y-154209569D01*
X117080115Y-154539046D01*
X116986204Y-154892490D01*
X116978578Y-154918024D01*
X116788142Y-155550048D01*
X116967570Y-155669184D01*
X117108022Y-155809052D01*
X117139923Y-155940854D01*
X117057403Y-156016870D01*
X117010941Y-156021667D01*
X116917416Y-156065719D01*
X116935880Y-156169833D01*
X117028743Y-156450650D01*
X117020792Y-156595938D01*
X116912511Y-156605175D01*
X116704384Y-156477837D01*
X116672835Y-156453442D01*
X116540148Y-156360885D01*
X116421591Y-156335695D01*
X116253082Y-156376407D01*
X116080199Y-156439871D01*
X115838578Y-156547717D01*
X115666078Y-156654129D01*
X115624683Y-156696275D01*
X115518147Y-156760473D01*
X115389253Y-156674279D01*
X115257105Y-156451479D01*
X115244216Y-156421670D01*
X115136155Y-156164669D01*
X114979366Y-156410668D01*
X114847949Y-156596624D01*
X114741311Y-156714795D01*
X114735955Y-156718870D01*
X114572253Y-156778248D01*
X114396468Y-156770546D01*
X114281222Y-156704509D01*
X114268333Y-156662555D01*
X114196289Y-156557434D01*
X114078697Y-156514388D01*
X113899726Y-156442730D01*
X113861150Y-156328649D01*
X113877350Y-156309764D01*
X114059107Y-156309764D01*
X114061937Y-156368863D01*
X114183763Y-156422444D01*
X114381788Y-156409609D01*
X114549305Y-156386246D01*
X114576020Y-156418689D01*
X114540853Y-156460346D01*
X114450677Y-156586967D01*
X114437666Y-156634245D01*
X114487784Y-156668886D01*
X114609107Y-156608903D01*
X114758086Y-156484194D01*
X114891174Y-156324656D01*
X114893294Y-156321438D01*
X115052152Y-156144309D01*
X115192167Y-156134382D01*
X115320412Y-156292565D01*
X115361226Y-156381500D01*
X115443462Y-156546293D01*
X115495085Y-156557589D01*
X115512142Y-156512937D01*
X115504692Y-156321586D01*
X115464147Y-156210584D01*
X115416902Y-156021667D01*
X115453666Y-156021667D01*
X115527351Y-156080669D01*
X115705370Y-156106300D01*
X115712663Y-156106333D01*
X115889343Y-156130458D01*
X115914774Y-156198376D01*
X115796228Y-156257302D01*
X115704445Y-156250292D01*
X115593749Y-156252946D01*
X115598676Y-156334404D01*
X115647324Y-156404801D01*
X115742705Y-156417776D01*
X115921409Y-156369002D01*
X116196300Y-156263688D01*
X116419461Y-156197801D01*
X116581219Y-156224463D01*
X116640800Y-156257142D01*
X116767830Y-156308353D01*
X116808333Y-156281381D01*
X116746753Y-156165992D01*
X116723666Y-156148667D01*
X116640351Y-156041453D01*
X116702910Y-155956133D01*
X116808333Y-155937000D01*
X116945913Y-155901544D01*
X116977666Y-155852333D01*
X116909089Y-155777219D01*
X116850666Y-155767667D01*
X116754988Y-155694096D01*
X116725776Y-155489788D01*
X116762102Y-155179351D01*
X116863035Y-154787390D01*
X116890917Y-154701309D01*
X116984207Y-154366489D01*
X117041497Y-154046948D01*
X117059511Y-153781802D01*
X117034974Y-153610168D01*
X116985979Y-153566333D01*
X116938077Y-153643227D01*
X116888612Y-153843813D01*
X116851913Y-154095500D01*
X116773800Y-154642682D01*
X116670014Y-155118310D01*
X116548820Y-155493253D01*
X116418484Y-155738384D01*
X116371402Y-155788833D01*
X116133223Y-155900387D01*
X115825286Y-155937000D01*
X115601341Y-155954214D01*
X115468979Y-155997656D01*
X115453666Y-156021667D01*
X115416902Y-156021667D01*
X115401756Y-155961105D01*
X115403514Y-155677757D01*
X115512635Y-155677757D01*
X115514235Y-155684662D01*
X115622271Y-155807763D01*
X115822560Y-155855392D01*
X116055310Y-155826613D01*
X116260727Y-155720489D01*
X116286586Y-155696746D01*
X116390331Y-155527756D01*
X116498111Y-155251747D01*
X116594577Y-154925327D01*
X116664378Y-154605102D01*
X116692166Y-154347680D01*
X116680937Y-154242421D01*
X116679860Y-154089620D01*
X116720222Y-154034128D01*
X116784076Y-153917822D01*
X116808333Y-153733933D01*
X116788376Y-153573685D01*
X116698477Y-153477990D01*
X116493589Y-153404002D01*
X116448499Y-153391684D01*
X116210562Y-153322238D01*
X116042682Y-153263083D01*
X116011844Y-153248191D01*
X115975742Y-153292929D01*
X115975375Y-153469629D01*
X115989853Y-153601236D01*
X116001214Y-153968856D01*
X115915898Y-154250309D01*
X115789740Y-154535729D01*
X115672085Y-154872068D01*
X115577184Y-155208443D01*
X115519284Y-155493967D01*
X115512635Y-155677757D01*
X115403514Y-155677757D01*
X115403966Y-155604844D01*
X115465399Y-155189219D01*
X115580676Y-154761645D01*
X115649614Y-154575690D01*
X115765369Y-154240382D01*
X115842502Y-153913698D01*
X115877623Y-153630260D01*
X115867346Y-153424693D01*
X115808283Y-153331618D01*
X115771166Y-153333329D01*
X115705431Y-153433941D01*
X115645770Y-153668906D01*
X115606157Y-153954217D01*
X115491456Y-154547889D01*
X115281192Y-155118709D01*
X114997746Y-155617177D01*
X114697561Y-155963935D01*
X114472904Y-156139424D01*
X114269766Y-156252493D01*
X114178425Y-156275667D01*
X114059107Y-156309764D01*
X113877350Y-156309764D01*
X113957712Y-156216086D01*
X114121337Y-156158004D01*
X114450450Y-156012378D01*
X114769849Y-155704942D01*
X115072614Y-155243196D01*
X115201288Y-154987704D01*
X115341304Y-154661014D01*
X115424317Y-154376715D01*
X115466040Y-154062029D01*
X115481313Y-153690797D01*
X115483155Y-153323493D01*
X115467057Y-153090126D01*
X115427550Y-152955761D01*
X115359164Y-152885460D01*
X115354830Y-152882968D01*
X115230286Y-152774243D01*
X115053562Y-152574555D01*
X114908088Y-152387478D01*
X114750464Y-152153509D01*
X114646707Y-151933829D01*
X114576924Y-151670422D01*
X114521219Y-151305275D01*
X114512229Y-151233087D01*
X114477422Y-150811584D01*
X118162999Y-150811584D01*
X118199519Y-150900375D01*
X118293492Y-151090115D01*
X118379506Y-151254686D01*
X118508839Y-151538470D01*
X118569270Y-151808892D01*
X118578259Y-152150209D01*
X118576516Y-152205417D01*
X118572590Y-152508260D01*
X118594671Y-152684630D01*
X118652686Y-152776624D01*
X118719842Y-152813300D01*
X118958161Y-152878357D01*
X119081068Y-152846210D01*
X119094333Y-152801354D01*
X119051416Y-152671807D01*
X118959850Y-152508462D01*
X118869948Y-152224652D01*
X118928491Y-151898628D01*
X119129892Y-151558521D01*
X119154374Y-151528729D01*
X119279389Y-151356844D01*
X119327303Y-151241786D01*
X119322190Y-151225968D01*
X119224719Y-151173989D01*
X119026945Y-151092441D01*
X118776139Y-150998223D01*
X118519575Y-150908235D01*
X118304524Y-150839373D01*
X118178258Y-150808538D01*
X118162999Y-150811584D01*
X114477422Y-150811584D01*
X114462824Y-150634814D01*
X114481241Y-150155131D01*
X114571448Y-149755797D01*
X114694723Y-149474516D01*
X114782178Y-149268579D01*
X115001215Y-149268579D01*
X115083593Y-149324032D01*
X115248743Y-149333000D01*
X115456644Y-149308046D01*
X115580789Y-149247498D01*
X115584147Y-149242700D01*
X115613537Y-149150370D01*
X115541649Y-149081585D01*
X115337830Y-149009782D01*
X115304117Y-149000007D01*
X115122615Y-148963581D01*
X115040302Y-149014993D01*
X115008026Y-149129620D01*
X115001215Y-149268579D01*
X114782178Y-149268579D01*
X114825912Y-149165595D01*
X114852654Y-148936299D01*
X114772833Y-148810153D01*
X114755166Y-148802778D01*
X114604670Y-148804921D01*
X114349284Y-148856739D01*
X114040524Y-148943015D01*
X113729906Y-149048534D01*
X113468948Y-149158083D01*
X113369064Y-149212155D01*
X113039685Y-149452239D01*
X112732197Y-149737441D01*
X112499690Y-150016183D01*
X112438601Y-150116166D01*
X112304141Y-150279624D01*
X112151098Y-150348526D01*
X112027841Y-150315253D01*
X111985634Y-150197286D01*
X112120222Y-150197286D01*
X112192084Y-150190304D01*
X112303337Y-150067616D01*
X112322573Y-150038534D01*
X112494734Y-149795816D01*
X112673062Y-149577740D01*
X112932916Y-149357642D01*
X113303334Y-149131232D01*
X113729151Y-148926960D01*
X114155202Y-148773274D01*
X114311595Y-148732724D01*
X114563912Y-148673641D01*
X114732693Y-148629105D01*
X114776332Y-148612494D01*
X114750575Y-148518877D01*
X114690989Y-148350557D01*
X114624104Y-148177979D01*
X114576447Y-148071583D01*
X114569391Y-148063000D01*
X114460589Y-148103842D01*
X114246335Y-148212254D01*
X113965396Y-148367063D01*
X113656539Y-148547097D01*
X113437262Y-148681316D01*
X113178132Y-148871659D01*
X112900999Y-149120188D01*
X112631279Y-149397651D01*
X112394388Y-149674791D01*
X112215741Y-149922355D01*
X112120755Y-150111088D01*
X112120222Y-150197286D01*
X111985634Y-150197286D01*
X111982332Y-150188056D01*
X112037315Y-150023791D01*
X112181944Y-149779813D01*
X112385745Y-149495759D01*
X112618240Y-149211264D01*
X112848954Y-148965965D01*
X113047411Y-148799497D01*
X113052613Y-148796093D01*
X113231816Y-148666765D01*
X113329795Y-148570198D01*
X113335951Y-148554313D01*
X113299752Y-148451977D01*
X113205747Y-148253050D01*
X113125332Y-148097203D01*
X113005608Y-147855185D01*
X112999799Y-147840993D01*
X114842752Y-147840993D01*
X114860482Y-147915568D01*
X115027697Y-147983505D01*
X115114999Y-148001967D01*
X115366941Y-148042224D01*
X115493860Y-148044036D01*
X115536093Y-148005433D01*
X115538333Y-147981312D01*
X115464599Y-147865556D01*
X115286443Y-147784536D01*
X115068435Y-147762221D01*
X114983538Y-147775352D01*
X114842752Y-147840993D01*
X112999799Y-147840993D01*
X112928876Y-147667713D01*
X112913666Y-147603676D01*
X112993050Y-147552204D01*
X113214926Y-147478950D01*
X113554878Y-147390687D01*
X113988489Y-147294191D01*
X114141472Y-147262992D01*
X115369278Y-147017745D01*
X115580805Y-147216464D01*
G37*
D13*
%TO.C,C8*%
X116680000Y-108270000D02*
X116680000Y-103730000D01*
X116736000Y-108270000D02*
X116680000Y-108270000D01*
X118764000Y-103730000D02*
X118820000Y-103730000D01*
X118820000Y-103730000D02*
X118820000Y-108270000D01*
%TO.C,SW4*%
D12*
X94400000Y-126000000D02*
X86400000Y-126000000D01*
X86400000Y-113000000D01*
X94400000Y-113000000D01*
X94400000Y-126000000D01*
D13*
%TO.C,R19*%
X88960000Y-130750000D02*
X89730000Y-130750000D01*
X97040000Y-130750000D02*
X96270000Y-130750000D01*
X96270000Y-132120000D02*
X89730000Y-132120000D01*
X89730000Y-129380000D01*
X96270000Y-129380000D01*
X96270000Y-132120000D01*
%TO.C,R8*%
X62560156Y-89039805D02*
X63330156Y-89039805D01*
X70640156Y-89039805D02*
X69870156Y-89039805D01*
X63330156Y-87669805D02*
X69870156Y-87669805D01*
X69870156Y-90409805D01*
X63330156Y-90409805D01*
X63330156Y-87669805D01*
%TO.C,R10*%
X76710000Y-111250000D02*
X77480000Y-111250000D01*
X84790000Y-111250000D02*
X84020000Y-111250000D01*
X77480000Y-109880000D02*
X84020000Y-109880000D01*
X84020000Y-112620000D01*
X77480000Y-112620000D01*
X77480000Y-109880000D01*
%TO.C,R6*%
X103500000Y-56230000D02*
X103500000Y-57000000D01*
X103500000Y-64310000D02*
X103500000Y-63540000D01*
X102130000Y-63540000D02*
X104870000Y-63540000D01*
X104870000Y-57000000D01*
X102130000Y-57000000D01*
X102130000Y-63540000D01*
D12*
%TO.C,J6*%
X121000000Y-138384883D02*
G75*
G02*
X109000000Y-138384883I-6000000J0D01*
G01*
X109000000Y-138384883D02*
G75*
G02*
X121000000Y-138384883I6000000J0D01*
G01*
D13*
%TO.C,R11*%
X89040000Y-111250000D02*
X89810000Y-111250000D01*
X97120000Y-111250000D02*
X96350000Y-111250000D01*
X89810000Y-109880000D02*
X96350000Y-109880000D01*
X96350000Y-112620000D01*
X89810000Y-112620000D01*
X89810000Y-109880000D01*
%TO.C,D5*%
X115030000Y-58780000D02*
X115360000Y-58780000D01*
X115030000Y-63200000D02*
X117970000Y-63200000D01*
X115030000Y-63320000D02*
X117970000Y-63320000D01*
X115030000Y-63440000D02*
X117970000Y-63440000D01*
X115030000Y-64220000D02*
X115030000Y-58780000D01*
X115360000Y-64220000D02*
X115030000Y-64220000D01*
X117640000Y-64220000D02*
X117970000Y-64220000D01*
X117970000Y-58780000D02*
X117640000Y-58780000D01*
X117970000Y-64220000D02*
X117970000Y-58780000D01*
%TO.C,D7*%
X108782348Y-96197780D02*
X114222348Y-96197780D01*
X108782348Y-96527780D02*
X108782348Y-96197780D01*
X108782348Y-98807780D02*
X108782348Y-99137780D01*
X108782348Y-99137780D02*
X114222348Y-99137780D01*
X109562348Y-96197780D02*
X109562348Y-99137780D01*
X109682348Y-96197780D02*
X109682348Y-99137780D01*
X109802348Y-96197780D02*
X109802348Y-99137780D01*
X114222348Y-96197780D02*
X114222348Y-96527780D01*
X114222348Y-99137780D02*
X114222348Y-98807780D01*
%TO.C,D8*%
X108788035Y-89315562D02*
X114228035Y-89315562D01*
X108788035Y-89645562D02*
X108788035Y-89315562D01*
X108788035Y-91925562D02*
X108788035Y-92255562D01*
X108788035Y-92255562D02*
X114228035Y-92255562D01*
X109568035Y-89315562D02*
X109568035Y-92255562D01*
X109688035Y-89315562D02*
X109688035Y-92255562D01*
X109808035Y-89315562D02*
X109808035Y-92255562D01*
X114228035Y-89315562D02*
X114228035Y-89645562D01*
X114228035Y-92255562D02*
X114228035Y-91925562D01*
%TO.C,J7*%
X85050000Y-154920000D02*
X86380000Y-154920000D01*
X85050000Y-156250000D02*
X85050000Y-154920000D01*
X87650000Y-154920000D02*
X95330000Y-154920000D01*
X87650000Y-157580000D02*
X87650000Y-154920000D01*
X87650000Y-157580000D02*
X95330000Y-157580000D01*
X95330000Y-157580000D02*
X95330000Y-154920000D01*
%TO.C,RV1*%
X85249065Y-50430000D02*
X95290065Y-50430000D01*
X85249065Y-54366000D02*
X85249065Y-50430000D01*
X85249065Y-62670000D02*
X85249065Y-58733000D01*
X85249065Y-62670000D02*
X86570065Y-62670000D01*
X89020065Y-62670000D02*
X89400065Y-62670000D01*
X91141065Y-62670000D02*
X91900065Y-62670000D01*
X93640065Y-62670000D02*
X95290065Y-62670000D01*
X95290065Y-54366000D02*
X95290065Y-50430000D01*
X95290065Y-62670000D02*
X95290065Y-58733000D01*
%TO.C,D6*%
X66340000Y-106530000D02*
X66340000Y-106860000D01*
X66340000Y-109470000D02*
X66340000Y-109140000D01*
X70760000Y-109470000D02*
X70760000Y-106530000D01*
X70880000Y-109470000D02*
X70880000Y-106530000D01*
X71000000Y-109470000D02*
X71000000Y-106530000D01*
X71780000Y-106530000D02*
X66340000Y-106530000D01*
X71780000Y-106860000D02*
X71780000Y-106530000D01*
X71780000Y-109140000D02*
X71780000Y-109470000D01*
X71780000Y-109470000D02*
X66340000Y-109470000D01*
%TO.C,RV6*%
X75879000Y-132630000D02*
X85920000Y-132630000D01*
X75879000Y-136566000D02*
X75879000Y-132630000D01*
X75879000Y-144870000D02*
X75879000Y-140933000D01*
X75879000Y-144870000D02*
X77200000Y-144870000D01*
X79650000Y-144870000D02*
X80030000Y-144870000D01*
X81771000Y-144870000D02*
X82530000Y-144870000D01*
X84270000Y-144870000D02*
X85920000Y-144870000D01*
X85920000Y-136566000D02*
X85920000Y-132630000D01*
X85920000Y-144870000D02*
X85920000Y-140933000D01*
%TO.C,C11*%
X117930000Y-124065000D02*
X117930000Y-119525000D01*
X117986000Y-124065000D02*
X117930000Y-124065000D01*
X120014000Y-119525000D02*
X120070000Y-119525000D01*
X120070000Y-119525000D02*
X120070000Y-124065000D01*
%TO.C,C5*%
X90230000Y-106417646D02*
X94770000Y-106417646D01*
X90230000Y-106473646D02*
X90230000Y-106417646D01*
X94770000Y-108501646D02*
X94770000Y-108557646D01*
X94770000Y-108557646D02*
X90230000Y-108557646D01*
%TO.C,SW2*%
D12*
X85500000Y-126000000D02*
X77500000Y-126000000D01*
X77500000Y-113000000D01*
X85500000Y-113000000D01*
X85500000Y-126000000D01*
D13*
%TO.C,R21*%
X78880000Y-149000000D02*
X79650000Y-149000000D01*
X86960000Y-149000000D02*
X86190000Y-149000000D01*
X86190000Y-150370000D02*
X79650000Y-150370000D01*
X79650000Y-147630000D01*
X86190000Y-147630000D01*
X86190000Y-150370000D01*
%TO.C,C10*%
X104483581Y-127125348D02*
X104483581Y-122585348D01*
X104539581Y-127125348D02*
X104483581Y-127125348D01*
X106567581Y-122585348D02*
X106623581Y-122585348D01*
X106623581Y-122585348D02*
X106623581Y-127125348D01*
%TO.C,RV4*%
X75793935Y-91870210D02*
X85834935Y-91870210D01*
X75793935Y-95806210D02*
X75793935Y-91870210D01*
X75793935Y-104110210D02*
X75793935Y-100173210D01*
X75793935Y-104110210D02*
X77114935Y-104110210D01*
X79564935Y-104110210D02*
X79944935Y-104110210D01*
X81685935Y-104110210D02*
X82444935Y-104110210D01*
X84184935Y-104110210D02*
X85834935Y-104110210D01*
X85834935Y-95806210D02*
X85834935Y-91870210D01*
X85834935Y-104110210D02*
X85834935Y-100173210D01*
%TO.C,R14*%
X120500000Y-107790000D02*
X120500000Y-108560000D01*
X120500000Y-115870000D02*
X120500000Y-115100000D01*
X121870000Y-108560000D02*
X119130000Y-108560000D01*
X119130000Y-115100000D01*
X121870000Y-115100000D01*
X121870000Y-108560000D01*
D12*
%TO.C,J4*%
X71597898Y-97327825D02*
G75*
G02*
X59597898Y-97327825I-6000000J0D01*
G01*
X59597898Y-97327825D02*
G75*
G02*
X71597898Y-97327825I6000000J0D01*
G01*
D13*
%TO.C,R5*%
X90250000Y-73880000D02*
X90250000Y-74650000D01*
X90250000Y-81960000D02*
X90250000Y-81190000D01*
X88880000Y-81190000D02*
X91620000Y-81190000D01*
X91620000Y-74650000D01*
X88880000Y-74650000D01*
X88880000Y-81190000D01*
%TO.C,D4*%
X74970000Y-64030000D02*
X80410000Y-64030000D01*
X74970000Y-64360000D02*
X74970000Y-64030000D01*
X74970000Y-66640000D02*
X74970000Y-66970000D01*
X74970000Y-66970000D02*
X80410000Y-66970000D01*
X75750000Y-64030000D02*
X75750000Y-66970000D01*
X75870000Y-64030000D02*
X75870000Y-66970000D01*
X75990000Y-64030000D02*
X75990000Y-66970000D01*
X80410000Y-64030000D02*
X80410000Y-64360000D01*
X80410000Y-66970000D02*
X80410000Y-66640000D01*
%TO.C,J1*%
X71214429Y-30595314D02*
X86714429Y-30595314D01*
X71214429Y-39715314D02*
X71214429Y-30595314D01*
X72514429Y-31905314D02*
X85414429Y-31905314D01*
X72514429Y-38405314D02*
X72514429Y-31905314D01*
X75924429Y-41105314D02*
X76924429Y-41105314D01*
X76424429Y-40105314D02*
X75924429Y-41105314D01*
X76914429Y-38405314D02*
X72514429Y-38405314D01*
X76914429Y-39715314D02*
X76914429Y-38405314D01*
X76924429Y-41105314D02*
X76424429Y-40105314D01*
X81014429Y-38405314D02*
X81014429Y-39715314D01*
X85414429Y-31905314D02*
X85414429Y-38405314D01*
X85414429Y-38405314D02*
X81014429Y-38405314D01*
X86714429Y-30595314D02*
X86714429Y-39715314D01*
X86714429Y-39715314D02*
X71214429Y-39715314D01*
%TO.C,D10*%
X108768710Y-99665836D02*
X108768710Y-99995836D01*
X108768710Y-102605836D02*
X108768710Y-102275836D01*
X113188710Y-102605836D02*
X113188710Y-99665836D01*
X113308710Y-102605836D02*
X113308710Y-99665836D01*
X113428710Y-102605836D02*
X113428710Y-99665836D01*
X114208710Y-99665836D02*
X108768710Y-99665836D01*
X114208710Y-99995836D02*
X114208710Y-99665836D01*
X114208710Y-102275836D02*
X114208710Y-102605836D01*
X114208710Y-102605836D02*
X108768710Y-102605836D01*
%TO.C,C12*%
X89430000Y-145520000D02*
X89430000Y-140980000D01*
X89486000Y-145520000D02*
X89430000Y-145520000D01*
X91514000Y-140980000D02*
X91570000Y-140980000D01*
X91570000Y-140980000D02*
X91570000Y-145520000D01*
%TO.C,C7*%
X116680000Y-100770000D02*
X116680000Y-96230000D01*
X116736000Y-100770000D02*
X116680000Y-100770000D01*
X118764000Y-96230000D02*
X118820000Y-96230000D01*
X118820000Y-96230000D02*
X118820000Y-100770000D01*
%TO.C,R15*%
X76630000Y-130750000D02*
X77400000Y-130750000D01*
X84710000Y-130750000D02*
X83940000Y-130750000D01*
X83940000Y-132120000D02*
X77400000Y-132120000D01*
X77400000Y-129380000D01*
X83940000Y-129380000D01*
X83940000Y-132120000D01*
%TO.C,SW1*%
D12*
X109562434Y-71156087D02*
X117562434Y-71156087D01*
X117562434Y-84156087D01*
X109562434Y-84156087D01*
X109562434Y-71156087D01*
D13*
%TO.C,R16*%
X64130000Y-130000000D02*
X64900000Y-130000000D01*
X72210000Y-130000000D02*
X71440000Y-130000000D01*
X71440000Y-131370000D02*
X64900000Y-131370000D01*
X64900000Y-128630000D01*
X71440000Y-128630000D01*
X71440000Y-131370000D01*
%TO.C,C2*%
X116680000Y-93270000D02*
X116680000Y-88730000D01*
X116736000Y-93270000D02*
X116680000Y-93270000D01*
X118764000Y-88730000D02*
X118820000Y-88730000D01*
X118820000Y-88730000D02*
X118820000Y-93270000D01*
%TO.C,D9*%
X108765277Y-103148720D02*
X114205277Y-103148720D01*
X108765277Y-103478720D02*
X108765277Y-103148720D01*
X108765277Y-105758720D02*
X108765277Y-106088720D01*
X108765277Y-106088720D02*
X114205277Y-106088720D01*
X109545277Y-103148720D02*
X109545277Y-106088720D01*
X109665277Y-103148720D02*
X109665277Y-106088720D01*
X109785277Y-103148720D02*
X109785277Y-106088720D01*
X114205277Y-103148720D02*
X114205277Y-103478720D01*
X114205277Y-106088720D02*
X114205277Y-105758720D01*
%TO.C,D2*%
X111530000Y-58780000D02*
X111530000Y-64220000D01*
X111530000Y-64220000D02*
X111860000Y-64220000D01*
X111860000Y-58780000D02*
X111530000Y-58780000D01*
X114140000Y-58780000D02*
X114470000Y-58780000D01*
X114470000Y-58780000D02*
X114470000Y-64220000D01*
X114470000Y-59560000D02*
X111530000Y-59560000D01*
X114470000Y-59680000D02*
X111530000Y-59680000D01*
X114470000Y-59800000D02*
X111530000Y-59800000D01*
X114470000Y-64220000D02*
X114140000Y-64220000D01*
%TO.C,C6*%
X99980000Y-106417646D02*
X104520000Y-106417646D01*
X99980000Y-106473646D02*
X99980000Y-106417646D01*
X104520000Y-108501646D02*
X104520000Y-108557646D01*
X104520000Y-108557646D02*
X99980000Y-108557646D01*
%TO.C,R12*%
X76710000Y-108000000D02*
X77480000Y-108000000D01*
X84790000Y-108000000D02*
X84020000Y-108000000D01*
X77480000Y-106630000D02*
X84020000Y-106630000D01*
X84020000Y-109370000D01*
X77480000Y-109370000D01*
X77480000Y-106630000D01*
%TO.C,U1*%
X66410000Y-110050000D02*
X66410000Y-127950000D01*
X66410000Y-127950000D02*
X71710000Y-127950000D01*
X68060000Y-110050000D02*
X66410000Y-110050000D01*
X71710000Y-110050000D02*
X70060000Y-110050000D01*
X71710000Y-127950000D02*
X71710000Y-110050000D01*
X63920000Y-109990000D02*
X74200000Y-109990000D01*
X74200000Y-128010000D01*
X63920000Y-128010000D01*
X63920000Y-109990000D01*
X70060000Y-110050000D02*
G75*
G02*
X68060000Y-110050000I-1000000J0D01*
G01*
%TO.C,D3*%
X74970000Y-67530000D02*
X74970000Y-67860000D01*
X74970000Y-70470000D02*
X74970000Y-70140000D01*
X79390000Y-70470000D02*
X79390000Y-67530000D01*
X79510000Y-70470000D02*
X79510000Y-67530000D01*
X79630000Y-70470000D02*
X79630000Y-67530000D01*
X80410000Y-67530000D02*
X74970000Y-67530000D01*
X80410000Y-67860000D02*
X80410000Y-67530000D01*
X80410000Y-70140000D02*
X80410000Y-70470000D01*
X80410000Y-70470000D02*
X74970000Y-70470000D01*
%TO.C,C9*%
X104430000Y-119770000D02*
X104430000Y-115230000D01*
X104486000Y-119770000D02*
X104430000Y-119770000D01*
X106514000Y-115230000D02*
X106570000Y-115230000D01*
X106570000Y-115230000D02*
X106570000Y-119770000D01*
%TO.C,J2*%
X94144429Y-30595314D02*
X109644429Y-30595314D01*
X94144429Y-39715314D02*
X94144429Y-30595314D01*
X95444429Y-31905314D02*
X108344429Y-31905314D01*
X95444429Y-38405314D02*
X95444429Y-31905314D01*
X98854429Y-41105314D02*
X99854429Y-41105314D01*
X99354429Y-40105314D02*
X98854429Y-41105314D01*
X99844429Y-38405314D02*
X95444429Y-38405314D01*
X99844429Y-39715314D02*
X99844429Y-38405314D01*
X99854429Y-41105314D02*
X99354429Y-40105314D01*
X103944429Y-38405314D02*
X103944429Y-39715314D01*
X108344429Y-31905314D02*
X108344429Y-38405314D01*
X108344429Y-38405314D02*
X103944429Y-38405314D01*
X109644429Y-30595314D02*
X109644429Y-39715314D01*
X109644429Y-39715314D02*
X94144429Y-39715314D01*
D12*
%TO.C,J3*%
X71645193Y-77340179D02*
G75*
G02*
X59645193Y-77340179I-6000000J0D01*
G01*
X59645193Y-77340179D02*
G75*
G02*
X71645193Y-77340179I6000000J0D01*
G01*
D13*
%TO.C,R13*%
X90500000Y-94710000D02*
X90500000Y-95480000D01*
X90500000Y-102790000D02*
X90500000Y-102020000D01*
X89130000Y-102020000D02*
X91870000Y-102020000D01*
X91870000Y-95480000D01*
X89130000Y-95480000D01*
X89130000Y-102020000D01*
%TO.C,R17*%
X76630000Y-127750000D02*
X77400000Y-127750000D01*
X84710000Y-127750000D02*
X83940000Y-127750000D01*
X83940000Y-129120000D02*
X77400000Y-129120000D01*
X77400000Y-126380000D01*
X83940000Y-126380000D01*
X83940000Y-129120000D01*
%TD*%
M02*
