%TF.GenerationSoftware,KiCad,Pcbnew,10.0.3*%
%TF.CreationDate,2026-07-04T10:00:44+10:00*%
%TF.ProjectId,cv-mixer,63762d6d-6978-4657-922e-6b696361645f,rev?*%
%TF.SameCoordinates,Original*%
%TF.FileFunction,Soldermask,Bot*%
%TF.FilePolarity,Negative*%
%FSLAX46Y46*%
G04 Gerber Fmt 4.6, Leading zero omitted, Abs format (unit mm)*
G04 Created by KiCad (PCBNEW 10.0.3) date 2026-07-04 10:00:44*
%MOMM*%
%LPD*%
G01*
G04 APERTURE LIST*
G04 Aperture macros list*
%AMRoundRect*
0 Rectangle with rounded corners*
0 $1 Rounding radius*
0 $2 $3 $4 $5 $6 $7 $8 $9 X,Y pos of 4 corners*
0 Add a 4 corners polygon primitive as box body*
4,1,4,$2,$3,$4,$5,$6,$7,$8,$9,$2,$3,0*
0 Add four circle primitives for the rounded corners*
1,1,$1+$1,$2,$3*
1,1,$1+$1,$4,$5*
1,1,$1+$1,$6,$7*
1,1,$1+$1,$8,$9*
0 Add four rect primitives between the rounded corners*
20,1,$1+$1,$2,$3,$4,$5,0*
20,1,$1+$1,$4,$5,$6,$7,0*
20,1,$1+$1,$6,$7,$8,$9,0*
20,1,$1+$1,$8,$9,$2,$3,0*%
G04 Aperture macros list end*
%ADD10C,8.000000*%
%ADD11C,3.200000*%
%ADD12RoundRect,0.250000X0.600000X-0.600000X0.600000X0.600000X-0.600000X0.600000X-0.600000X-0.600000X0*%
%ADD13C,1.700000*%
%ADD14C,1.600000*%
%ADD15R,1.800000X1.800000*%
%ADD16C,1.800000*%
%ADD17RoundRect,0.750000X0.750000X-1.250000X0.750000X1.250000X-0.750000X1.250000X-0.750000X-1.250000X0*%
%ADD18R,1.700000X1.700000*%
%ADD19RoundRect,0.250000X0.550000X-0.550000X0.550000X0.550000X-0.550000X0.550000X-0.550000X-0.550000X0*%
G04 APERTURE END LIST*
D10*
%TO.C,J2*%
X105551191Y-112508694D03*
%TD*%
D11*
%TO.C,REF\u002A\u002A*%
X101000000Y-167682905D03*
%TD*%
D12*
%TO.C,J19*%
X149319772Y-32500000D03*
D13*
X149319772Y-29960000D03*
X151859772Y-32500000D03*
X151859772Y-29960000D03*
X154399772Y-32500000D03*
X154399772Y-29960000D03*
%TD*%
D14*
%TO.C,R6*%
X143080697Y-103521399D03*
X153240697Y-103521399D03*
%TD*%
D15*
%TO.C,RV10*%
X120451191Y-140664484D03*
D16*
X122951191Y-140664484D03*
X125451191Y-140664484D03*
D17*
X118551191Y-133664484D03*
X127351191Y-133664484D03*
%TD*%
D15*
%TO.C,RV12*%
X140603191Y-140664484D03*
D16*
X143103191Y-140664484D03*
X145603191Y-140664484D03*
D17*
X138703191Y-133664484D03*
X147503191Y-133664484D03*
%TD*%
D11*
%TO.C,REF\u002A\u002A*%
X160500000Y-102144818D03*
%TD*%
D10*
%TO.C,J3*%
X105551191Y-71152939D03*
%TD*%
%TO.C,J4*%
X105551191Y-133186571D03*
%TD*%
%TO.C,J1*%
X105551191Y-50475062D03*
%TD*%
D14*
%TO.C,R10*%
X147051191Y-147591998D03*
X157211191Y-147591998D03*
%TD*%
%TO.C,R2*%
X122956720Y-82897445D03*
X112796720Y-82897445D03*
%TD*%
%TO.C,R15*%
X143080697Y-124130309D03*
X153240697Y-124130309D03*
%TD*%
D12*
%TO.C,J17*%
X111630000Y-32500000D03*
D13*
X111630000Y-29960000D03*
X114170000Y-32500000D03*
X114170000Y-29960000D03*
X116710000Y-32500000D03*
X116710000Y-29960000D03*
%TD*%
D10*
%TO.C,J8*%
X160500000Y-133186571D03*
%TD*%
D14*
%TO.C,R16*%
X147051191Y-144208934D03*
X157211191Y-144208934D03*
%TD*%
%TO.C,R12*%
X147051191Y-150975062D03*
X157211191Y-150975062D03*
%TD*%
D10*
%TO.C,J14*%
X105551191Y-159000000D03*
%TD*%
D14*
%TO.C,R11*%
X108891191Y-147591998D03*
X119051191Y-147591998D03*
%TD*%
D10*
%TO.C,J9*%
X160500000Y-71152939D03*
%TD*%
D14*
%TO.C,R14*%
X119051191Y-144208934D03*
X108891191Y-144208934D03*
%TD*%
D15*
%TO.C,RV4*%
X140603191Y-57975062D03*
D16*
X143103191Y-57975062D03*
X145603191Y-57975062D03*
D17*
X138703191Y-50975062D03*
X147503191Y-50975062D03*
%TD*%
D14*
%TO.C,C2*%
X133032176Y-135910903D03*
X133032176Y-140910903D03*
%TD*%
%TO.C,C1*%
X133030215Y-158908942D03*
X133030215Y-153908942D03*
%TD*%
%TO.C,R9*%
X108891191Y-150975062D03*
X119051191Y-150975062D03*
%TD*%
D10*
%TO.C,J5*%
X105551191Y-91830817D03*
%TD*%
D15*
%TO.C,RV9*%
X120451191Y-119992129D03*
D16*
X122951191Y-119992129D03*
X125451191Y-119992129D03*
D17*
X118551191Y-112992129D03*
X127351191Y-112992129D03*
%TD*%
D15*
%TO.C,RV3*%
X120451191Y-99319773D03*
D16*
X122951191Y-99319773D03*
X125451191Y-99319773D03*
D17*
X118551191Y-92319773D03*
X127351191Y-92319773D03*
%TD*%
D15*
%TO.C,RV11*%
X140603191Y-119992129D03*
D16*
X143103191Y-119992129D03*
X145603191Y-119992129D03*
D17*
X138703191Y-112992129D03*
X147503191Y-112992129D03*
%TD*%
D15*
%TO.C,RV7*%
X120451191Y-166336840D03*
D16*
X122951191Y-166336840D03*
X125451191Y-166336840D03*
D17*
X118551191Y-159336840D03*
X127351191Y-159336840D03*
%TD*%
D15*
%TO.C,RV6*%
X140603191Y-99319773D03*
D16*
X143103191Y-99319773D03*
X145603191Y-99319773D03*
D17*
X138703191Y-92319773D03*
X147503191Y-92319773D03*
%TD*%
D14*
%TO.C,R3*%
X122956720Y-103498128D03*
X112796720Y-103498128D03*
%TD*%
%TO.C,R5*%
X143080697Y-82912490D03*
X153240697Y-82912490D03*
%TD*%
D12*
%TO.C,J18*%
X130482191Y-32500000D03*
D13*
X130482191Y-29960000D03*
X133022191Y-32500000D03*
X133022191Y-29960000D03*
X135562191Y-32500000D03*
X135562191Y-29960000D03*
%TD*%
D14*
%TO.C,R7*%
X114051191Y-154895062D03*
X114051191Y-165055062D03*
%TD*%
D18*
%TO.C,J10*%
X119060000Y-169750000D03*
D13*
X121600000Y-169750000D03*
X124140000Y-169750000D03*
X126680000Y-169750000D03*
X129220000Y-169750000D03*
X131760000Y-169750000D03*
X134300000Y-169750000D03*
X136840000Y-169750000D03*
X139380000Y-169750000D03*
X141920000Y-169750000D03*
X144460000Y-169750000D03*
X147000000Y-169750000D03*
%TD*%
D10*
%TO.C,J11*%
X160500000Y-91830817D03*
%TD*%
%TO.C,J16*%
X160500000Y-159000000D03*
%TD*%
D11*
%TO.C,REF\u002A\u002A*%
X105551191Y-102144818D03*
%TD*%
D10*
%TO.C,J7*%
X160500000Y-50475062D03*
%TD*%
D11*
%TO.C,REF\u002A\u002A*%
X101000000Y-42000000D03*
%TD*%
D15*
%TO.C,RV1*%
X120451191Y-57975062D03*
D16*
X122951191Y-57975062D03*
X125451191Y-57975062D03*
D17*
X118551191Y-50975062D03*
X127351191Y-50975062D03*
%TD*%
D15*
%TO.C,RV5*%
X140603191Y-78647418D03*
D16*
X143103191Y-78647418D03*
X145603191Y-78647418D03*
D17*
X138703191Y-71647418D03*
X147503191Y-71647418D03*
%TD*%
D14*
%TO.C,R1*%
X122956720Y-62296763D03*
X112796720Y-62296763D03*
%TD*%
D15*
%TO.C,RV2*%
X120451191Y-78647418D03*
D16*
X122951191Y-78647418D03*
X125451191Y-78647418D03*
D17*
X118551191Y-71647418D03*
X127351191Y-71647418D03*
%TD*%
D10*
%TO.C,J6*%
X160500000Y-112508694D03*
%TD*%
D14*
%TO.C,R8*%
X152051191Y-154895062D03*
X152051191Y-165055062D03*
%TD*%
D15*
%TO.C,RV8*%
X140603191Y-166336840D03*
D16*
X143103191Y-166336840D03*
X145603191Y-166336840D03*
D17*
X138703191Y-159336840D03*
X147503191Y-159336840D03*
%TD*%
D14*
%TO.C,R13*%
X122956720Y-124098810D03*
X112796720Y-124098810D03*
%TD*%
%TO.C,R4*%
X143080697Y-62303580D03*
X153240697Y-62303580D03*
%TD*%
D11*
%TO.C,REF\u002A\u002A*%
X165517083Y-167682905D03*
%TD*%
%TO.C,REF\u002A\u002A*%
X165517083Y-42000000D03*
%TD*%
D19*
%TO.C,U1*%
X125412191Y-151260662D03*
D14*
X127952191Y-151260662D03*
X130492191Y-151260662D03*
X133032191Y-151260662D03*
X135572191Y-151260662D03*
X138112191Y-151260662D03*
X140652191Y-151260662D03*
X140652191Y-143640662D03*
X138112191Y-143640662D03*
X135572191Y-143640662D03*
X133032191Y-143640662D03*
X130492191Y-143640662D03*
X127952191Y-143640662D03*
X125412191Y-143640662D03*
%TD*%
M02*
