M48
; DRILL file KiCad 10.0.3 date 2026-07-04T10:00:42
; FORMAT={-:-/ absolute / metric / decimal}
; #@! TF.CreationDate,2026-07-04T10:00:42+10:00
; #@! TF.GenerationSoftware,Kicad,Pcbnew,10.0.3
; #@! TF.FileFunction,Plated,1,2,PTH
FMAT,2
METRIC
; #@! TA.AperFunction,Plated,PTH,ComponentDrill
T1C0.800
; #@! TA.AperFunction,Plated,PTH,ComponentDrill
T2C1.000
; #@! TA.AperFunction,Plated,PTH,ComponentDrill
T3C1.800
; #@! TA.AperFunction,Plated,PTH,ComponentDrill
T4C6.000
%
G90
G05
T1
X108.891Y-144.209
X108.891Y-147.592
X108.891Y-150.975
X112.797Y-62.297
X112.797Y-82.897
X112.797Y-103.498
X112.797Y-124.099
X114.051Y-154.895
X114.051Y-165.055
X119.051Y-144.209
X119.051Y-147.592
X119.051Y-150.975
X122.957Y-62.297
X122.957Y-82.897
X122.957Y-103.498
X122.957Y-124.099
X125.412Y-143.641
X125.412Y-151.261
X127.952Y-143.641
X127.952Y-151.261
X130.492Y-143.641
X130.492Y-151.261
X133.03Y-153.909
X133.03Y-158.909
X133.032Y-135.911
X133.032Y-140.911
X133.032Y-143.641
X133.032Y-151.261
X135.572Y-143.641
X135.572Y-151.261
X138.112Y-143.641
X138.112Y-151.261
X140.652Y-143.641
X140.652Y-151.261
X143.081Y-62.304
X143.081Y-82.912
X143.081Y-103.521
X143.081Y-124.13
X147.051Y-144.209
X147.051Y-147.592
X147.051Y-150.975
X152.051Y-154.895
X152.051Y-165.055
X153.241Y-62.304
X153.241Y-82.912
X153.241Y-103.521
X153.241Y-124.13
X157.211Y-144.209
X157.211Y-147.592
X157.211Y-150.975
T2
X111.63Y-29.96
X111.63Y-32.5
X114.17Y-29.96
X114.17Y-32.5
X116.71Y-29.96
X116.71Y-32.5
X119.06Y-169.75
X120.451Y-57.975
X120.451Y-78.647
X120.451Y-99.32
X120.451Y-119.992
X120.451Y-140.664
X120.451Y-166.337
X121.6Y-169.75
X122.951Y-57.975
X122.951Y-78.647
X122.951Y-99.32
X122.951Y-119.992
X122.951Y-140.664
X122.951Y-166.337
X124.14Y-169.75
X125.451Y-57.975
X125.451Y-78.647
X125.451Y-99.32
X125.451Y-119.992
X125.451Y-140.664
X125.451Y-166.337
X126.68Y-169.75
X129.22Y-169.75
X130.482Y-29.96
X130.482Y-32.5
X131.76Y-169.75
X133.022Y-29.96
X133.022Y-32.5
X134.3Y-169.75
X135.562Y-29.96
X135.562Y-32.5
X136.84Y-169.75
X139.38Y-169.75
X140.603Y-57.975
X140.603Y-78.647
X140.603Y-99.32
X140.603Y-119.992
X140.603Y-140.664
X140.603Y-166.337
X141.92Y-169.75
X143.103Y-57.975
X143.103Y-78.647
X143.103Y-99.32
X143.103Y-119.992
X143.103Y-140.664
X143.103Y-166.337
X144.46Y-169.75
X145.603Y-57.975
X145.603Y-78.647
X145.603Y-99.32
X145.603Y-119.992
X145.603Y-140.664
X145.603Y-166.337
X147.0Y-169.75
X149.32Y-29.96
X149.32Y-32.5
X151.86Y-29.96
X151.86Y-32.5
X154.4Y-29.96
X154.4Y-32.5
T4
X105.551Y-50.475
X105.551Y-71.153
X105.551Y-91.831
X105.551Y-112.509
X105.551Y-133.187
X105.551Y-159.0
X160.5Y-50.475
X160.5Y-71.153
X160.5Y-91.831
X160.5Y-112.509
X160.5Y-133.187
X160.5Y-159.0
T3
G00X118.551Y-51.125
M15
G01X118.551Y-50.825
M16
G05
G00X118.551Y-71.797
M15
G01X118.551Y-71.497
M16
G05
G00X118.551Y-92.47
M15
G01X118.551Y-92.17
M16
G05
G00X118.551Y-113.142
M15
G01X118.551Y-112.842
M16
G05
G00X118.551Y-133.814
M15
G01X118.551Y-133.514
M16
G05
G00X118.551Y-159.487
M15
G01X118.551Y-159.187
M16
G05
G00X127.351Y-51.125
M15
G01X127.351Y-50.825
M16
G05
G00X127.351Y-71.797
M15
G01X127.351Y-71.497
M16
G05
G00X127.351Y-92.47
M15
G01X127.351Y-92.17
M16
G05
G00X127.351Y-113.142
M15
G01X127.351Y-112.842
M16
G05
G00X127.351Y-133.814
M15
G01X127.351Y-133.514
M16
G05
G00X127.351Y-159.487
M15
G01X127.351Y-159.187
M16
G05
G00X138.703Y-51.125
M15
G01X138.703Y-50.825
M16
G05
G00X138.703Y-71.797
M15
G01X138.703Y-71.497
M16
G05
G00X138.703Y-92.47
M15
G01X138.703Y-92.17
M16
G05
G00X138.703Y-113.142
M15
G01X138.703Y-112.842
M16
G05
G00X138.703Y-133.814
M15
G01X138.703Y-133.514
M16
G05
G00X138.703Y-159.487
M15
G01X138.703Y-159.187
M16
G05
G00X147.503Y-51.125
M15
G01X147.503Y-50.825
M16
G05
G00X147.503Y-71.797
M15
G01X147.503Y-71.497
M16
G05
G00X147.503Y-92.47
M15
G01X147.503Y-92.17
M16
G05
G00X147.503Y-113.142
M15
G01X147.503Y-112.842
M16
G05
G00X147.503Y-133.814
M15
G01X147.503Y-133.514
M16
G05
G00X147.503Y-159.487
M15
G01X147.503Y-159.187
M16
G05
M30
