%TF.GenerationSoftware,KiCad,Pcbnew,10.0.3*%
%TF.CreationDate,2026-07-04T10:00:44+10:00*%
%TF.ProjectId,cv-mixer,63762d6d-6978-4657-922e-6b696361645f,rev?*%
%TF.SameCoordinates,Original*%
%TF.FileFunction,Copper,L2,Bot*%
%TF.FilePolarity,Positive*%
%FSLAX46Y46*%
G04 Gerber Fmt 4.6, Leading zero omitted, Abs format (unit mm)*
G04 Created by KiCad (PCBNEW 10.0.3) date 2026-07-04 10:00:44*
%MOMM*%
%LPD*%
G01*
G04 APERTURE LIST*
G04 Aperture macros list*
%AMRoundRect*
0 Rectangle with rounded corners*
0 $1 Rounding radius*
0 $2 $3 $4 $5 $6 $7 $8 $9 X,Y pos of 4 corners*
0 Add a 4 corners polygon primitive as box body*
4,1,4,$2,$3,$4,$5,$6,$7,$8,$9,$2,$3,0*
0 Add four circle primitives for the rounded corners*
1,1,$1+$1,$2,$3*
1,1,$1+$1,$4,$5*
1,1,$1+$1,$6,$7*
1,1,$1+$1,$8,$9*
0 Add four rect primitives between the rounded corners*
20,1,$1+$1,$2,$3,$4,$5,0*
20,1,$1+$1,$4,$5,$6,$7,0*
20,1,$1+$1,$6,$7,$8,$9,0*
20,1,$1+$1,$8,$9,$2,$3,0*%
G04 Aperture macros list end*
%TA.AperFunction,ComponentPad*%
%ADD10C,8.000000*%
%TD*%
%TA.AperFunction,ComponentPad*%
%ADD11RoundRect,0.250000X0.600000X-0.600000X0.600000X0.600000X-0.600000X0.600000X-0.600000X-0.600000X0*%
%TD*%
%TA.AperFunction,ComponentPad*%
%ADD12C,1.700000*%
%TD*%
%TA.AperFunction,ComponentPad*%
%ADD13C,1.600000*%
%TD*%
%TA.AperFunction,ComponentPad*%
%ADD14R,1.800000X1.800000*%
%TD*%
%TA.AperFunction,ComponentPad*%
%ADD15C,1.800000*%
%TD*%
%TA.AperFunction,ComponentPad*%
%ADD16RoundRect,0.750000X0.750000X-1.250000X0.750000X1.250000X-0.750000X1.250000X-0.750000X-1.250000X0*%
%TD*%
%TA.AperFunction,ComponentPad*%
%ADD17R,1.700000X1.700000*%
%TD*%
%TA.AperFunction,ComponentPad*%
%ADD18RoundRect,0.250000X0.550000X-0.550000X0.550000X0.550000X-0.550000X0.550000X-0.550000X-0.550000X0*%
%TD*%
%TA.AperFunction,Conductor*%
%ADD19C,0.200000*%
%TD*%
G04 APERTURE END LIST*
D10*
%TO.P,J2,1,Pin_1*%
%TO.N,Net-(J10-Pin_5)*%
X105551191Y-112508694D03*
%TD*%
D11*
%TO.P,J19,1,Pin_1*%
%TO.N,12V*%
X149319772Y-32500000D03*
D12*
%TO.P,J19,2,Pin_2*%
%TO.N,-12V*%
X149319772Y-29960000D03*
%TO.P,J19,3,Pin_3*%
%TO.N,GND*%
X151859772Y-32500000D03*
%TO.P,J19,4,Pin_4*%
X151859772Y-29960000D03*
%TO.P,J19,5,Pin_5*%
%TO.N,5V*%
X154399772Y-32500000D03*
%TO.P,J19,6,Pin_6*%
%TO.N,unconnected-(J19-Pin_6-Pad6)*%
X154399772Y-29960000D03*
%TD*%
D13*
%TO.P,R6,1*%
%TO.N,Net-(R6-Pad1)*%
X143080697Y-103521399D03*
%TO.P,R6,2*%
%TO.N,Net-(U1D--)*%
X153240697Y-103521399D03*
%TD*%
D14*
%TO.P,RV10,1,1*%
%TO.N,GND*%
X120451191Y-140664484D03*
D15*
%TO.P,RV10,2,2*%
%TO.N,Net-(R14-Pad1)*%
X122951191Y-140664484D03*
%TO.P,RV10,3,3*%
%TO.N,Net-(J10-Pin_6)*%
X125451191Y-140664484D03*
D16*
%TO.P,RV10,MP*%
%TO.N,N/C*%
X118551191Y-133664484D03*
X127351191Y-133664484D03*
%TD*%
D14*
%TO.P,RV12,1,1*%
%TO.N,unconnected-(RV12-Pad1)*%
X140603191Y-140664484D03*
D15*
%TO.P,RV12,2,2*%
%TO.N,GND*%
X143103191Y-140664484D03*
%TO.P,RV12,3,3*%
%TO.N,Net-(J10-Pin_7)*%
X145603191Y-140664484D03*
D16*
%TO.P,RV12,MP*%
%TO.N,N/C*%
X138703191Y-133664484D03*
X147503191Y-133664484D03*
%TD*%
D10*
%TO.P,J3,1,Pin_1*%
%TO.N,Net-(J10-Pin_3)*%
X105551191Y-71152939D03*
%TD*%
%TO.P,J4,1,Pin_1*%
%TO.N,Net-(J10-Pin_6)*%
X105551191Y-133186571D03*
%TD*%
%TO.P,J1,1,Pin_1*%
%TO.N,Net-(J1-Pin_1)*%
X105551191Y-50475062D03*
%TD*%
D13*
%TO.P,R10,1*%
%TO.N,Net-(U1B--)*%
X147051191Y-147591998D03*
%TO.P,R10,2*%
%TO.N,Net-(R10-Pad2)*%
X157211191Y-147591998D03*
%TD*%
%TO.P,R2,1*%
%TO.N,Net-(R2-Pad1)*%
X122956720Y-82897445D03*
%TO.P,R2,2*%
%TO.N,Net-(U1A--)*%
X112796720Y-82897445D03*
%TD*%
%TO.P,R15,1*%
%TO.N,Net-(R15-Pad1)*%
X143080697Y-124130309D03*
%TO.P,R15,2*%
%TO.N,Net-(U1D--)*%
X153240697Y-124130309D03*
%TD*%
D11*
%TO.P,J17,1,Pin_1*%
%TO.N,12V*%
X111630000Y-32500000D03*
D12*
%TO.P,J17,2,Pin_2*%
%TO.N,-12V*%
X111630000Y-29960000D03*
%TO.P,J17,3,Pin_3*%
%TO.N,GND*%
X114170000Y-32500000D03*
%TO.P,J17,4,Pin_4*%
X114170000Y-29960000D03*
%TO.P,J17,5,Pin_5*%
%TO.N,5V*%
X116710000Y-32500000D03*
%TO.P,J17,6,Pin_6*%
%TO.N,unconnected-(J17-Pin_6-Pad6)*%
X116710000Y-29960000D03*
%TD*%
D10*
%TO.P,J8,1,Pin_1*%
%TO.N,Net-(J10-Pin_7)*%
X160500000Y-133186571D03*
%TD*%
D13*
%TO.P,R16,1*%
%TO.N,GND*%
X147051191Y-144208934D03*
%TO.P,R16,2*%
%TO.N,Net-(U1D--)*%
X157211191Y-144208934D03*
%TD*%
%TO.P,R12,1*%
%TO.N,Net-(U1C--)*%
X147051191Y-150975062D03*
%TO.P,R12,2*%
%TO.N,Net-(R12-Pad2)*%
X157211191Y-150975062D03*
%TD*%
D10*
%TO.P,J14,1,Pin_1*%
%TO.N,Net-(J10-Pin_1)*%
X105551191Y-159000000D03*
%TD*%
D13*
%TO.P,R11,1*%
%TO.N,Net-(R11-Pad1)*%
X108891191Y-147591998D03*
%TO.P,R11,2*%
%TO.N,Net-(U1C--)*%
X119051191Y-147591998D03*
%TD*%
D10*
%TO.P,J9,1,Pin_1*%
%TO.N,Net-(J10-Pin_10)*%
X160500000Y-71152939D03*
%TD*%
D13*
%TO.P,R14,1*%
%TO.N,Net-(R14-Pad1)*%
X119051191Y-144208934D03*
%TO.P,R14,2*%
%TO.N,Net-(U1A--)*%
X108891191Y-144208934D03*
%TD*%
D14*
%TO.P,RV4,1,1*%
%TO.N,GND*%
X140603191Y-57975062D03*
D15*
%TO.P,RV4,2,2*%
%TO.N,Net-(R4-Pad1)*%
X143103191Y-57975062D03*
%TO.P,RV4,3,3*%
%TO.N,Net-(J10-Pin_11)*%
X145603191Y-57975062D03*
D16*
%TO.P,RV4,MP*%
%TO.N,N/C*%
X138703191Y-50975062D03*
X147503191Y-50975062D03*
%TD*%
D13*
%TO.P,C2,1*%
%TO.N,GND*%
X133032176Y-135910903D03*
%TO.P,C2,2*%
%TO.N,-12V*%
X133032176Y-140910903D03*
%TD*%
%TO.P,C1,1*%
%TO.N,GND*%
X133030215Y-158908942D03*
%TO.P,C1,2*%
%TO.N,12V*%
X133030215Y-153908942D03*
%TD*%
%TO.P,R9,1*%
%TO.N,Net-(R9-Pad1)*%
X108891191Y-150975062D03*
%TO.P,R9,2*%
%TO.N,Net-(U1B--)*%
X119051191Y-150975062D03*
%TD*%
D10*
%TO.P,J5,1,Pin_1*%
%TO.N,Net-(J10-Pin_4)*%
X105551191Y-91830817D03*
%TD*%
D14*
%TO.P,RV9,1,1*%
%TO.N,GND*%
X120451191Y-119992129D03*
D15*
%TO.P,RV9,2,2*%
%TO.N,Net-(R13-Pad1)*%
X122951191Y-119992129D03*
%TO.P,RV9,3,3*%
%TO.N,Net-(J10-Pin_5)*%
X125451191Y-119992129D03*
D16*
%TO.P,RV9,MP*%
%TO.N,N/C*%
X118551191Y-112992129D03*
X127351191Y-112992129D03*
%TD*%
D14*
%TO.P,RV3,1,1*%
%TO.N,GND*%
X120451191Y-99319773D03*
D15*
%TO.P,RV3,2,2*%
%TO.N,Net-(R3-Pad1)*%
X122951191Y-99319773D03*
%TO.P,RV3,3,3*%
%TO.N,Net-(J10-Pin_4)*%
X125451191Y-99319773D03*
D16*
%TO.P,RV3,MP*%
%TO.N,N/C*%
X118551191Y-92319773D03*
X127351191Y-92319773D03*
%TD*%
D14*
%TO.P,RV11,1,1*%
%TO.N,GND*%
X140603191Y-119992129D03*
D15*
%TO.P,RV11,2,2*%
%TO.N,Net-(R15-Pad1)*%
X143103191Y-119992129D03*
%TO.P,RV11,3,3*%
%TO.N,Net-(J10-Pin_8)*%
X145603191Y-119992129D03*
D16*
%TO.P,RV11,MP*%
%TO.N,N/C*%
X138703191Y-112992129D03*
X147503191Y-112992129D03*
%TD*%
D14*
%TO.P,RV7,1,1*%
%TO.N,Net-(U1A--)*%
X120451191Y-166336840D03*
D15*
%TO.P,RV7,2,2*%
%TO.N,Net-(R9-Pad1)*%
X122951191Y-166336840D03*
%TO.P,RV7,3,3*%
%TO.N,unconnected-(RV7-Pad3)*%
X125451191Y-166336840D03*
D16*
%TO.P,RV7,MP*%
%TO.N,N/C*%
X118551191Y-159336840D03*
X127351191Y-159336840D03*
%TD*%
D14*
%TO.P,RV6,1,1*%
%TO.N,GND*%
X140603191Y-99319773D03*
D15*
%TO.P,RV6,2,2*%
%TO.N,Net-(R6-Pad1)*%
X143103191Y-99319773D03*
%TO.P,RV6,3,3*%
%TO.N,Net-(J10-Pin_9)*%
X145603191Y-99319773D03*
D16*
%TO.P,RV6,MP*%
%TO.N,N/C*%
X138703191Y-92319773D03*
X147503191Y-92319773D03*
%TD*%
D13*
%TO.P,R3,1*%
%TO.N,Net-(R3-Pad1)*%
X122956720Y-103498128D03*
%TO.P,R3,2*%
%TO.N,Net-(U1A--)*%
X112796720Y-103498128D03*
%TD*%
%TO.P,R5,1*%
%TO.N,Net-(R5-Pad1)*%
X143080697Y-82912490D03*
%TO.P,R5,2*%
%TO.N,Net-(U1D--)*%
X153240697Y-82912490D03*
%TD*%
D11*
%TO.P,J18,1,Pin_1*%
%TO.N,12V*%
X130482191Y-32500000D03*
D12*
%TO.P,J18,2,Pin_2*%
%TO.N,-12V*%
X130482191Y-29960000D03*
%TO.P,J18,3,Pin_3*%
%TO.N,GND*%
X133022191Y-32500000D03*
%TO.P,J18,4,Pin_4*%
X133022191Y-29960000D03*
%TO.P,J18,5,Pin_5*%
%TO.N,5V*%
X135562191Y-32500000D03*
%TO.P,J18,6,Pin_6*%
%TO.N,unconnected-(J18-Pin_6-Pad6)*%
X135562191Y-29960000D03*
%TD*%
D13*
%TO.P,R7,1*%
%TO.N,Net-(R10-Pad2)*%
X114051191Y-154895062D03*
%TO.P,R7,2*%
%TO.N,Net-(J10-Pin_1)*%
X114051191Y-165055062D03*
%TD*%
D17*
%TO.P,J10,1,Pin_1*%
%TO.N,Net-(J10-Pin_1)*%
X119060000Y-169750000D03*
D12*
%TO.P,J10,2,Pin_2*%
%TO.N,Net-(J1-Pin_1)*%
X121600000Y-169750000D03*
%TO.P,J10,3,Pin_3*%
%TO.N,Net-(J10-Pin_3)*%
X124140000Y-169750000D03*
%TO.P,J10,4,Pin_4*%
%TO.N,Net-(J10-Pin_4)*%
X126680000Y-169750000D03*
%TO.P,J10,5,Pin_5*%
%TO.N,Net-(J10-Pin_5)*%
X129220000Y-169750000D03*
%TO.P,J10,6,Pin_6*%
%TO.N,Net-(J10-Pin_6)*%
X131760000Y-169750000D03*
%TO.P,J10,7,Pin_7*%
%TO.N,Net-(J10-Pin_7)*%
X134300000Y-169750000D03*
%TO.P,J10,8,Pin_8*%
%TO.N,Net-(J10-Pin_8)*%
X136840000Y-169750000D03*
%TO.P,J10,9,Pin_9*%
%TO.N,Net-(J10-Pin_9)*%
X139380000Y-169750000D03*
%TO.P,J10,10,Pin_10*%
%TO.N,Net-(J10-Pin_10)*%
X141920000Y-169750000D03*
%TO.P,J10,11,Pin_11*%
%TO.N,Net-(J10-Pin_11)*%
X144460000Y-169750000D03*
%TO.P,J10,12,Pin_12*%
%TO.N,Net-(J10-Pin_12)*%
X147000000Y-169750000D03*
%TD*%
D10*
%TO.P,J11,1,Pin_1*%
%TO.N,Net-(J10-Pin_9)*%
X160500000Y-91830817D03*
%TD*%
%TO.P,J16,1,Pin_1*%
%TO.N,Net-(J10-Pin_12)*%
X160500000Y-159000000D03*
%TD*%
%TO.P,J7,1,Pin_1*%
%TO.N,Net-(J10-Pin_11)*%
X160500000Y-50475062D03*
%TD*%
D14*
%TO.P,RV1,1,1*%
%TO.N,GND*%
X120451191Y-57975062D03*
D15*
%TO.P,RV1,2,2*%
%TO.N,Net-(R1-Pad1)*%
X122951191Y-57975062D03*
%TO.P,RV1,3,3*%
%TO.N,Net-(J1-Pin_1)*%
X125451191Y-57975062D03*
D16*
%TO.P,RV1,MP*%
%TO.N,N/C*%
X118551191Y-50975062D03*
X127351191Y-50975062D03*
%TD*%
D14*
%TO.P,RV5,1,1*%
%TO.N,GND*%
X140603191Y-78647418D03*
D15*
%TO.P,RV5,2,2*%
%TO.N,Net-(R5-Pad1)*%
X143103191Y-78647418D03*
%TO.P,RV5,3,3*%
%TO.N,Net-(J10-Pin_10)*%
X145603191Y-78647418D03*
D16*
%TO.P,RV5,MP*%
%TO.N,N/C*%
X138703191Y-71647418D03*
X147503191Y-71647418D03*
%TD*%
D13*
%TO.P,R1,1*%
%TO.N,Net-(R1-Pad1)*%
X122956720Y-62296763D03*
%TO.P,R1,2*%
%TO.N,Net-(U1A--)*%
X112796720Y-62296763D03*
%TD*%
D14*
%TO.P,RV2,1,1*%
%TO.N,GND*%
X120451191Y-78647418D03*
D15*
%TO.P,RV2,2,2*%
%TO.N,Net-(R2-Pad1)*%
X122951191Y-78647418D03*
%TO.P,RV2,3,3*%
%TO.N,Net-(J10-Pin_3)*%
X125451191Y-78647418D03*
D16*
%TO.P,RV2,MP*%
%TO.N,N/C*%
X118551191Y-71647418D03*
X127351191Y-71647418D03*
%TD*%
D10*
%TO.P,J6,1,Pin_1*%
%TO.N,Net-(J10-Pin_8)*%
X160500000Y-112508694D03*
%TD*%
D13*
%TO.P,R8,1*%
%TO.N,Net-(R12-Pad2)*%
X152051191Y-154895062D03*
%TO.P,R8,2*%
%TO.N,Net-(J10-Pin_12)*%
X152051191Y-165055062D03*
%TD*%
D14*
%TO.P,RV8,1,1*%
%TO.N,Net-(U1D--)*%
X140603191Y-166336840D03*
D15*
%TO.P,RV8,2,2*%
%TO.N,Net-(R11-Pad1)*%
X143103191Y-166336840D03*
%TO.P,RV8,3,3*%
%TO.N,unconnected-(RV8-Pad3)*%
X145603191Y-166336840D03*
D16*
%TO.P,RV8,MP*%
%TO.N,N/C*%
X138703191Y-159336840D03*
X147503191Y-159336840D03*
%TD*%
D13*
%TO.P,R13,1*%
%TO.N,Net-(R13-Pad1)*%
X122956720Y-124098810D03*
%TO.P,R13,2*%
%TO.N,Net-(U1A--)*%
X112796720Y-124098810D03*
%TD*%
%TO.P,R4,1*%
%TO.N,Net-(R4-Pad1)*%
X143080697Y-62303580D03*
%TO.P,R4,2*%
%TO.N,Net-(U1D--)*%
X153240697Y-62303580D03*
%TD*%
D18*
%TO.P,U1,1*%
%TO.N,Net-(R9-Pad1)*%
X125412191Y-151260662D03*
D13*
%TO.P,U1,2,-*%
%TO.N,Net-(U1A--)*%
X127952191Y-151260662D03*
%TO.P,U1,3,+*%
%TO.N,GND*%
X130492191Y-151260662D03*
%TO.P,U1,4,V+*%
%TO.N,12V*%
X133032191Y-151260662D03*
%TO.P,U1,5,+*%
%TO.N,GND*%
X135572191Y-151260662D03*
%TO.P,U1,6,-*%
%TO.N,Net-(U1B--)*%
X138112191Y-151260662D03*
%TO.P,U1,7*%
%TO.N,Net-(R10-Pad2)*%
X140652191Y-151260662D03*
%TO.P,U1,8*%
%TO.N,Net-(R12-Pad2)*%
X140652191Y-143640662D03*
%TO.P,U1,9,-*%
%TO.N,Net-(U1C--)*%
X138112191Y-143640662D03*
%TO.P,U1,10,+*%
%TO.N,GND*%
X135572191Y-143640662D03*
%TO.P,U1,11,V-*%
%TO.N,-12V*%
X133032191Y-143640662D03*
%TO.P,U1,12,+*%
%TO.N,GND*%
X130492191Y-143640662D03*
%TO.P,U1,13,-*%
%TO.N,Net-(U1D--)*%
X127952191Y-143640662D03*
%TO.P,U1,14*%
%TO.N,Net-(R11-Pad1)*%
X125412191Y-143640662D03*
%TD*%
%TO.N,Net-(J1-Pin_1)*%
D19*
X105551191Y-50475062D02*
X109551191Y-54475062D01*
X98000000Y-58026253D02*
X105551191Y-50475062D01*
X98000000Y-159750000D02*
X98000000Y-58026253D01*
X109551191Y-54475062D02*
X121951191Y-54475062D01*
X120201000Y-171149000D02*
X109399000Y-171149000D01*
X121951191Y-54475062D02*
X125451191Y-57975062D01*
X121600000Y-169750000D02*
X120201000Y-171149000D01*
X109399000Y-171149000D02*
X98000000Y-159750000D01*
%TO.N,GND*%
X139402191Y-79848418D02*
X140603191Y-78647418D01*
X131593191Y-150159662D02*
X134471191Y-150159662D01*
X135572191Y-142509292D02*
X135572191Y-143640662D01*
X133032176Y-135910903D02*
X133032176Y-135717824D01*
X131593191Y-144741662D02*
X134471191Y-144741662D01*
X121652191Y-59176062D02*
X139402191Y-59176062D01*
X121652191Y-100520773D02*
X139402191Y-100520773D01*
X130492191Y-151260662D02*
X131593191Y-150159662D01*
X120451191Y-119992129D02*
X121652191Y-121193129D01*
X134471191Y-144741662D02*
X135572191Y-143640662D01*
X139402191Y-121193129D02*
X140603191Y-119992129D01*
X133022191Y-29960000D02*
X134173191Y-28809000D01*
X143103191Y-140664484D02*
X141902191Y-139463484D01*
X133032176Y-135717824D02*
X140603191Y-128146809D01*
X121652191Y-121193129D02*
X139402191Y-121193129D01*
X147051191Y-144208934D02*
X143506741Y-140664484D01*
X130492191Y-143640662D02*
X130492191Y-140476080D01*
X130492191Y-143640662D02*
X131593191Y-144741662D01*
X120451191Y-78647418D02*
X121652191Y-79848418D01*
X115321000Y-28809000D02*
X131871191Y-28809000D01*
X133032176Y-135910903D02*
X129479595Y-139463484D01*
X129479595Y-139463484D02*
X121652191Y-139463484D01*
X143506741Y-140664484D02*
X143103191Y-140664484D01*
X114170000Y-29960000D02*
X115321000Y-28809000D01*
X140603191Y-78647418D02*
X140603191Y-99319773D01*
X141902191Y-139463484D02*
X138617999Y-139463484D01*
X139402191Y-59176062D02*
X140603191Y-57975062D01*
X130492191Y-140476080D02*
X129479595Y-139463484D01*
X139402191Y-100520773D02*
X140603191Y-99319773D01*
X134471191Y-150159662D02*
X135572191Y-151260662D01*
X121652191Y-79848418D02*
X139402191Y-79848418D01*
X140603191Y-57975062D02*
X140603191Y-78647418D01*
X140603191Y-99319773D02*
X140603191Y-119992129D01*
X120451191Y-99319773D02*
X121652191Y-100520773D01*
X150708772Y-28809000D02*
X151859772Y-29960000D01*
X138617999Y-139463484D02*
X135572191Y-142509292D01*
X121652191Y-139463484D02*
X120451191Y-140664484D01*
X131871191Y-28809000D02*
X133022191Y-29960000D01*
X134173191Y-28809000D02*
X150708772Y-28809000D01*
X120451191Y-57975062D02*
X121652191Y-59176062D01*
X140603191Y-128146809D02*
X140603191Y-119992129D01*
%TO.N,12V*%
X148168772Y-33651000D02*
X149319772Y-32500000D01*
X112781000Y-33651000D02*
X129331191Y-33651000D01*
X111630000Y-32500000D02*
X112781000Y-33651000D01*
X131633191Y-33651000D02*
X148168772Y-33651000D01*
X130482191Y-32500000D02*
X131633191Y-33651000D01*
X129331191Y-33651000D02*
X130482191Y-32500000D01*
%TO.N,5V*%
X153248772Y-31349000D02*
X154399772Y-32500000D01*
X135562191Y-32500000D02*
X136713191Y-31349000D01*
X134173191Y-31111000D02*
X135562191Y-32500000D01*
X118099000Y-31111000D02*
X134173191Y-31111000D01*
X136713191Y-31349000D02*
X153248772Y-31349000D01*
X116710000Y-32500000D02*
X118099000Y-31111000D01*
%TO.N,Net-(R10-Pad2)*%
X114851190Y-155695061D02*
X136217792Y-155695061D01*
X136217792Y-155695061D02*
X140652191Y-151260662D01*
X114051191Y-154895062D02*
X114851190Y-155695061D01*
%TO.N,Net-(R12-Pad2)*%
X146727177Y-145710934D02*
X142722463Y-145710934D01*
X142722463Y-145710934D02*
X140652191Y-143640662D01*
X152051191Y-151034948D02*
X146727177Y-145710934D01*
X152051191Y-154895062D02*
X152051191Y-151034948D01*
%TO.N,Net-(U1B--)*%
X136564911Y-152807942D02*
X138112191Y-151260662D01*
X120884071Y-152807942D02*
X136564911Y-152807942D01*
X141780855Y-147591998D02*
X138112191Y-151260662D01*
X147051191Y-147591998D02*
X141780855Y-147591998D01*
X119051191Y-150975062D02*
X120884071Y-152807942D01*
%TO.N,Net-(U1C--)*%
X119051191Y-147591998D02*
X134160855Y-147591998D01*
X134160855Y-147591998D02*
X138112191Y-143640662D01*
%TO.N,Net-(U1A--)*%
X113375255Y-148692998D02*
X125384527Y-148692998D01*
X108891191Y-144208934D02*
X113375255Y-148692998D01*
X125384527Y-148692998D02*
X127952191Y-151260662D01*
%TO.N,Net-(U1D--)*%
X143150691Y-141865484D02*
X146595141Y-145309934D01*
X136673191Y-143184612D02*
X137992319Y-141865484D01*
X136673191Y-144096712D02*
X136673191Y-143184612D01*
X135627241Y-145142662D02*
X136673191Y-144096712D01*
X156110191Y-145309934D02*
X157211191Y-144208934D01*
X146595141Y-145309934D02*
X156110191Y-145309934D01*
X127952191Y-143640662D02*
X129454191Y-145142662D01*
X137992319Y-141865484D02*
X143150691Y-141865484D01*
X129454191Y-145142662D02*
X135627241Y-145142662D01*
%TO.N,Net-(J10-Pin_3)*%
X119287840Y-167537840D02*
X113000000Y-161250000D01*
X121927840Y-167537840D02*
X119287840Y-167537840D01*
X121956712Y-75152939D02*
X125451191Y-78647418D01*
X105551191Y-71152939D02*
X109551191Y-75152939D01*
X98401000Y-78303130D02*
X105551191Y-71152939D01*
X98401000Y-145767276D02*
X98401000Y-78303130D01*
X109551191Y-75152939D02*
X121956712Y-75152939D01*
X113000000Y-160366276D02*
X98401000Y-145767276D01*
X124140000Y-169750000D02*
X121927840Y-167537840D01*
X113000000Y-161250000D02*
X113000000Y-160366276D01*
%TO.N,Net-(J10-Pin_5)*%
X121967756Y-116508694D02*
X125451191Y-119992129D01*
X105551191Y-112508694D02*
X109551191Y-116508694D01*
X129220000Y-168407178D02*
X129220000Y-169750000D01*
X99203000Y-145385900D02*
X115454940Y-161637840D01*
X99654943Y-118404943D02*
X99203000Y-118856885D01*
X122450662Y-161637840D02*
X129220000Y-168407178D01*
X99203000Y-118856885D02*
X99203000Y-145385900D01*
X115454940Y-161637840D02*
X122450662Y-161637840D01*
X105551191Y-112508694D02*
X99654943Y-118404943D01*
X109551191Y-116508694D02*
X121967756Y-116508694D01*
%TO.N,Net-(J10-Pin_4)*%
X123106480Y-96975062D02*
X125451191Y-99319773D01*
X110695436Y-96975062D02*
X123106480Y-96975062D01*
X126680000Y-169750000D02*
X124152191Y-167222191D01*
X124152191Y-165839369D02*
X123448662Y-165135840D01*
X123448662Y-165135840D02*
X118385840Y-165135840D01*
X98802000Y-145552000D02*
X98802000Y-98580008D01*
X118385840Y-165135840D02*
X98802000Y-145552000D01*
X124152191Y-167222191D02*
X124152191Y-165839369D01*
X105551191Y-91830817D02*
X110695436Y-96975062D01*
X98802000Y-98580008D02*
X105551191Y-91830817D01*
%TO.N,Net-(J10-Pin_1)*%
X114051191Y-165055062D02*
X118746129Y-169750000D01*
X118746129Y-169750000D02*
X119060000Y-169750000D01*
%TO.N,Net-(J10-Pin_6)*%
X124250191Y-141865484D02*
X125451191Y-140664484D01*
X105551191Y-133186571D02*
X105551191Y-150734091D01*
X120247921Y-157035840D02*
X131760000Y-168547919D01*
X111852940Y-157035840D02*
X120247921Y-157035840D01*
X114230104Y-141865484D02*
X124250191Y-141865484D01*
X105551191Y-150734091D02*
X111852940Y-157035840D01*
X105551191Y-133186571D02*
X114230104Y-141865484D01*
X131760000Y-168547919D02*
X131760000Y-169750000D01*
%TO.N,Net-(J10-Pin_8)*%
X154996000Y-151066103D02*
X154996000Y-157254000D01*
X167696000Y-141352700D02*
X160298700Y-148750000D01*
X160298700Y-148750000D02*
X157312103Y-148750000D01*
X140189031Y-164349000D02*
X136840000Y-167698031D01*
X147901000Y-164349000D02*
X140189031Y-164349000D01*
X160500000Y-112508694D02*
X153086626Y-112508694D01*
X154996000Y-157254000D02*
X147901000Y-164349000D01*
X136840000Y-167698031D02*
X136840000Y-169750000D01*
X157312103Y-148750000D02*
X154996000Y-151066103D01*
X153086626Y-112508694D02*
X145603191Y-119992129D01*
X167696000Y-119704694D02*
X167696000Y-141352700D01*
X160500000Y-112508694D02*
X167696000Y-119704694D01*
%TO.N,Net-(J10-Pin_11)*%
X144460000Y-169750000D02*
X156199000Y-158011000D01*
X156199000Y-154551000D02*
X168899000Y-141851000D01*
X160500000Y-50475062D02*
X153103191Y-50475062D01*
X168899000Y-58874062D02*
X160500000Y-50475062D01*
X156199000Y-158011000D02*
X156199000Y-154551000D01*
X153103191Y-50475062D02*
X145603191Y-57975062D01*
X168899000Y-141851000D02*
X168899000Y-58874062D01*
%TO.N,Net-(J10-Pin_7)*%
X151753303Y-156750000D02*
X153152191Y-155351112D01*
X153152191Y-149824984D02*
X160500000Y-142477175D01*
X160500000Y-133186571D02*
X153022087Y-140664484D01*
X144776371Y-156750000D02*
X151753303Y-156750000D01*
X153022087Y-140664484D02*
X145603191Y-140664484D01*
X160500000Y-142477175D02*
X160500000Y-133186571D01*
X134300000Y-169750000D02*
X134300000Y-167226371D01*
X134300000Y-167226371D02*
X144776371Y-156750000D01*
X153152191Y-155351112D02*
X153152191Y-149824984D01*
%TO.N,Net-(J10-Pin_10)*%
X168498000Y-141684900D02*
X168498000Y-79150939D01*
X155798000Y-154384900D02*
X168498000Y-141684900D01*
X160500000Y-71152939D02*
X153097670Y-71152939D01*
X141920000Y-169750000D02*
X144132160Y-167537840D01*
X153097670Y-71152939D02*
X145603191Y-78647418D01*
X155798000Y-157844900D02*
X155798000Y-154384900D01*
X168498000Y-79150939D02*
X160500000Y-71152939D01*
X146105060Y-167537840D02*
X155798000Y-157844900D01*
X144132160Y-167537840D02*
X146105060Y-167537840D01*
%TO.N,Net-(J10-Pin_12)*%
X152051191Y-165055062D02*
X147356253Y-169750000D01*
X147356253Y-169750000D02*
X147000000Y-169750000D01*
%TO.N,Net-(J10-Pin_9)*%
X148325800Y-164750000D02*
X155397000Y-157678800D01*
X141902191Y-165839369D02*
X142991560Y-164750000D01*
X139380000Y-169750000D02*
X140000000Y-169750000D01*
X141902191Y-167847809D02*
X141902191Y-165839369D01*
X153092147Y-91830817D02*
X160500000Y-91830817D01*
X168097000Y-99427817D02*
X160500000Y-91830817D01*
X157379203Y-149250000D02*
X160365800Y-149250000D01*
X168097000Y-141518800D02*
X168097000Y-99427817D01*
X140000000Y-169750000D02*
X141902191Y-167847809D01*
X145603191Y-99319773D02*
X153092147Y-91830817D01*
X160365800Y-149250000D02*
X168097000Y-141518800D01*
X155397000Y-151232203D02*
X157379203Y-149250000D01*
X155397000Y-157678800D02*
X155397000Y-151232203D01*
X142991560Y-164750000D02*
X148325800Y-164750000D01*
%TD*%
M02*
