%TF.GenerationSoftware,KiCad,Pcbnew,9.0.6*%
%TF.CreationDate,2026-01-20T20:27:49+11:00*%
%TF.ProjectId,attenuverter,61747465-6e75-4766-9572-7465722e6b69,rev?*%
%TF.SameCoordinates,Original*%
%TF.FileFunction,Soldermask,Top*%
%TF.FilePolarity,Negative*%
%FSLAX46Y46*%
G04 Gerber Fmt 4.6, Leading zero omitted, Abs format (unit mm)*
G04 Created by KiCad (PCBNEW 9.0.6) date 2026-01-20 20:27:49*
%MOMM*%
%LPD*%
G01*
G04 APERTURE LIST*
G04 Aperture macros list*
%AMRoundRect*
0 Rectangle with rounded corners*
0 $1 Rounding radius*
0 $2 $3 $4 $5 $6 $7 $8 $9 X,Y pos of 4 corners*
0 Add a 4 corners polygon primitive as box body*
4,1,4,$2,$3,$4,$5,$6,$7,$8,$9,$2,$3,0*
0 Add four circle primitives for the rounded corners*
1,1,$1+$1,$2,$3*
1,1,$1+$1,$4,$5*
1,1,$1+$1,$6,$7*
1,1,$1+$1,$8,$9*
0 Add four rect primitives between the rounded corners*
20,1,$1+$1,$2,$3,$4,$5,0*
20,1,$1+$1,$4,$5,$6,$7,0*
20,1,$1+$1,$6,$7,$8,$9,0*
20,1,$1+$1,$8,$9,$2,$3,0*%
G04 Aperture macros list end*
%ADD10C,1.600000*%
%ADD11RoundRect,0.250000X-0.550000X0.550000X-0.550000X-0.550000X0.550000X-0.550000X0.550000X0.550000X0*%
%ADD12R,2.000000X2.000000*%
%ADD13C,2.000000*%
%ADD14R,1.800000X1.800000*%
%ADD15C,1.800000*%
%ADD16RoundRect,0.250000X0.550000X-0.550000X0.550000X0.550000X-0.550000X0.550000X-0.550000X-0.550000X0*%
%ADD17RoundRect,0.250000X0.600000X-0.600000X0.600000X0.600000X-0.600000X0.600000X-0.600000X-0.600000X0*%
%ADD18C,1.700000*%
%ADD19C,8.000000*%
%ADD20C,2.200000*%
%ADD21R,1.700000X1.700000*%
G04 APERTURE END LIST*
D10*
%TO.C,R16*%
X32360000Y-135800000D03*
X22200000Y-135800000D03*
%TD*%
%TO.C,R30*%
X73780000Y-31300000D03*
X63620000Y-31300000D03*
%TD*%
%TO.C,C2*%
X71700000Y-70700000D03*
X71700000Y-65700000D03*
%TD*%
%TO.C,R31*%
X38680000Y-31300000D03*
X48840000Y-31300000D03*
%TD*%
%TO.C,R29*%
X51120000Y-31300000D03*
X61280000Y-31300000D03*
%TD*%
%TO.C,U1*%
X89815000Y-70210000D03*
X87275000Y-70210000D03*
X84735000Y-70210000D03*
X82195000Y-70210000D03*
X79655000Y-70210000D03*
X77115000Y-70210000D03*
X74575000Y-70210000D03*
X74575000Y-62590000D03*
X77115000Y-62590000D03*
X79655000Y-62590000D03*
X82195000Y-62590000D03*
X84735000Y-62590000D03*
X87275000Y-62590000D03*
D11*
X89815000Y-62590000D03*
%TD*%
D10*
%TO.C,R18*%
X32480000Y-102800000D03*
X22320000Y-102800000D03*
%TD*%
D12*
%TO.C,J10*%
X62428400Y-77900000D03*
D13*
X67508400Y-77900000D03*
X72508400Y-77900000D03*
%TD*%
D10*
%TO.C,C6*%
X82400000Y-137900000D03*
X87400000Y-137900000D03*
%TD*%
%TO.C,R7*%
X22300000Y-70100000D03*
X32460000Y-70100000D03*
%TD*%
%TO.C,R26*%
X72580000Y-184200000D03*
X62420000Y-184200000D03*
%TD*%
%TO.C,R27*%
X22220000Y-148255600D03*
X32380000Y-148255600D03*
%TD*%
%TO.C,R5*%
X22300000Y-63500000D03*
X32460000Y-63500000D03*
%TD*%
%TO.C,R13*%
X69500000Y-106100000D03*
X59340000Y-106100000D03*
%TD*%
%TO.C,R20*%
X59440000Y-145200000D03*
X69600000Y-145200000D03*
%TD*%
D14*
%TO.C,D1*%
X88236400Y-34899681D03*
D15*
X88236400Y-37439681D03*
%TD*%
D10*
%TO.C,C1*%
X87200000Y-59700000D03*
X82200000Y-59700000D03*
%TD*%
%TO.C,R19*%
X22200000Y-138900000D03*
X32360000Y-138900000D03*
%TD*%
D16*
%TO.C,U2*%
X74700000Y-109255600D03*
D10*
X77240000Y-109255600D03*
X79780000Y-109255600D03*
X82320000Y-109255600D03*
X84860000Y-109255600D03*
X87400000Y-109255600D03*
X89940000Y-109255600D03*
X89940000Y-101635600D03*
X87400000Y-101635600D03*
X84860000Y-101635600D03*
X82320000Y-101635600D03*
X79780000Y-101635600D03*
X77240000Y-101635600D03*
X74700000Y-101635600D03*
%TD*%
%TO.C,R23*%
X39240000Y-184200000D03*
X49400000Y-184200000D03*
%TD*%
D14*
%TO.C,D7*%
X88330800Y-151894000D03*
D15*
X88330800Y-154434000D03*
%TD*%
D14*
%TO.C,D8*%
X81828400Y-154439000D03*
D15*
X81828400Y-151899000D03*
%TD*%
D10*
%TO.C,R39*%
X47140000Y-148200000D03*
X57300000Y-148200000D03*
%TD*%
D17*
%TO.C,J2*%
X53386000Y-24646800D03*
D18*
X53386000Y-22106800D03*
X55926000Y-24646800D03*
X55926000Y-22106800D03*
X58466000Y-24646800D03*
X58466000Y-22106800D03*
%TD*%
D19*
%TO.C,J19*%
X85079600Y-162536138D03*
%TD*%
D10*
%TO.C,R6*%
X46920000Y-67100000D03*
X57080000Y-67100000D03*
%TD*%
%TO.C,R22*%
X22200000Y-151386000D03*
X32360000Y-151386000D03*
%TD*%
D20*
%TO.C,RV4*%
X58968400Y-74400000D03*
X76018400Y-74400000D03*
D21*
X64928400Y-93900000D03*
D18*
X67468400Y-93900000D03*
X70008400Y-93900000D03*
%TD*%
D10*
%TO.C,C3*%
X71800000Y-109700000D03*
X71800000Y-104700000D03*
%TD*%
D14*
%TO.C,D6*%
X81795200Y-115535200D03*
D15*
X81795200Y-112995200D03*
%TD*%
D19*
%TO.C,J15*%
X85048109Y-123652826D03*
%TD*%
D10*
%TO.C,R32*%
X69400000Y-70200000D03*
X59240000Y-70200000D03*
%TD*%
D17*
%TO.C,J1*%
X35560000Y-24700000D03*
D18*
X35560000Y-22160000D03*
X38100000Y-24700000D03*
X38100000Y-22160000D03*
X40640000Y-24700000D03*
X40640000Y-22160000D03*
%TD*%
D19*
%TO.C,J7*%
X85007313Y-45573630D03*
%TD*%
D10*
%TO.C,R2*%
X34640000Y-67100000D03*
X44800000Y-67100000D03*
%TD*%
D14*
%TO.C,D4*%
X81806800Y-76380800D03*
D15*
X81806800Y-73840800D03*
%TD*%
D19*
%TO.C,J16*%
X27320000Y-162282138D03*
%TD*%
D20*
%TO.C,RV5*%
X36518400Y-113555600D03*
X53568400Y-113555600D03*
D21*
X42478400Y-133055600D03*
D18*
X45018400Y-133055600D03*
X47558400Y-133055600D03*
%TD*%
D12*
%TO.C,J18*%
X62450000Y-155955600D03*
D13*
X67530000Y-155955600D03*
X72530000Y-155955600D03*
%TD*%
D10*
%TO.C,R38*%
X69600000Y-148200000D03*
X59440000Y-148200000D03*
%TD*%
%TO.C,R11*%
X32480000Y-106000000D03*
X22320000Y-106000000D03*
%TD*%
D20*
%TO.C,RV8*%
X58990000Y-152455600D03*
X76040000Y-152455600D03*
D21*
X64950000Y-171955600D03*
D18*
X67490000Y-171955600D03*
X70030000Y-171955600D03*
%TD*%
D17*
%TO.C,J3*%
X71860000Y-24646800D03*
D18*
X71860000Y-22106800D03*
X74400000Y-24646800D03*
X74400000Y-22106800D03*
X76940000Y-24646800D03*
X76940000Y-22106800D03*
%TD*%
D20*
%TO.C,RV6*%
X58958400Y-113555600D03*
X76008400Y-113555600D03*
D21*
X64918400Y-133055600D03*
D18*
X67458400Y-133055600D03*
X69998400Y-133055600D03*
%TD*%
D19*
%TO.C,J8*%
X27349200Y-84661200D03*
%TD*%
D10*
%TO.C,R9*%
X22300000Y-96400000D03*
X32460000Y-96400000D03*
%TD*%
D19*
%TO.C,J4*%
X27276400Y-45270648D03*
%TD*%
D12*
%TO.C,J14*%
X62518400Y-117055600D03*
D13*
X67598400Y-117055600D03*
X72598400Y-117055600D03*
%TD*%
D10*
%TO.C,R33*%
X46940000Y-70200000D03*
X57100000Y-70200000D03*
%TD*%
D16*
%TO.C,U3*%
X74760000Y-148275600D03*
D10*
X77300000Y-148275600D03*
X79840000Y-148275600D03*
X82380000Y-148275600D03*
X84920000Y-148275600D03*
X87460000Y-148275600D03*
X90000000Y-148275600D03*
X90000000Y-140655600D03*
X87460000Y-140655600D03*
X84920000Y-140655600D03*
X82380000Y-140655600D03*
X79840000Y-140655600D03*
X77300000Y-140655600D03*
X74760000Y-140655600D03*
%TD*%
%TO.C,R24*%
X34800000Y-145200000D03*
X44960000Y-145200000D03*
%TD*%
D12*
%TO.C,J5*%
X39906400Y-38965448D03*
D13*
X44986400Y-38965448D03*
X49986400Y-38965448D03*
%TD*%
D20*
%TO.C,RV1*%
X36406400Y-35465448D03*
X53456400Y-35465448D03*
D21*
X42366400Y-54965448D03*
D18*
X44906400Y-54965448D03*
X47446400Y-54965448D03*
%TD*%
D10*
%TO.C,R10*%
X22340000Y-109255600D03*
X32500000Y-109255600D03*
%TD*%
%TO.C,R8*%
X22320000Y-73383600D03*
X32480000Y-73383600D03*
%TD*%
%TO.C,R25*%
X57280000Y-145200000D03*
X47120000Y-145200000D03*
%TD*%
%TO.C,R3*%
X59240000Y-67100000D03*
X69400000Y-67100000D03*
%TD*%
D20*
%TO.C,RV7*%
X36450000Y-152455600D03*
X53500000Y-152455600D03*
D21*
X42410000Y-171955600D03*
D18*
X44950000Y-171955600D03*
X47490000Y-171955600D03*
%TD*%
D10*
%TO.C,R17*%
X34740000Y-106100000D03*
X44900000Y-106100000D03*
%TD*%
%TO.C,R12*%
X22300000Y-99600000D03*
X32460000Y-99600000D03*
%TD*%
D20*
%TO.C,RV2*%
X58946400Y-35465448D03*
X75996400Y-35465448D03*
D21*
X64906400Y-54965448D03*
D18*
X67446400Y-54965448D03*
X69986400Y-54965448D03*
%TD*%
D10*
%TO.C,R21*%
X22220000Y-145100000D03*
X32380000Y-145100000D03*
%TD*%
%TO.C,R4*%
X32460000Y-66800000D03*
X22300000Y-66800000D03*
%TD*%
%TO.C,C5*%
X71900000Y-143700000D03*
X71900000Y-148700000D03*
%TD*%
%TO.C,R40*%
X44960000Y-148200000D03*
X34800000Y-148200000D03*
%TD*%
%TO.C,R34*%
X44800000Y-70200000D03*
X34640000Y-70200000D03*
%TD*%
%TO.C,R36*%
X47040000Y-109200000D03*
X57200000Y-109200000D03*
%TD*%
%TO.C,R1*%
X22320000Y-60200000D03*
X32480000Y-60200000D03*
%TD*%
D19*
%TO.C,J11*%
X85007200Y-84559600D03*
%TD*%
D10*
%TO.C,R15*%
X22359200Y-112538000D03*
X32519200Y-112538000D03*
%TD*%
%TO.C,R35*%
X69480000Y-109200000D03*
X59320000Y-109200000D03*
%TD*%
%TO.C,R37*%
X44880000Y-109200000D03*
X34720000Y-109200000D03*
%TD*%
D12*
%TO.C,J13*%
X40018400Y-117055600D03*
D13*
X45098400Y-117055600D03*
X50098400Y-117055600D03*
%TD*%
D19*
%TO.C,J12*%
X27439200Y-123561600D03*
%TD*%
D10*
%TO.C,C4*%
X82300000Y-98800000D03*
X87300000Y-98800000D03*
%TD*%
D20*
%TO.C,RV3*%
X36428400Y-74400000D03*
X53478400Y-74400000D03*
D21*
X42388400Y-93900000D03*
D18*
X44928400Y-93900000D03*
X47468400Y-93900000D03*
%TD*%
D12*
%TO.C,J9*%
X39928400Y-77900000D03*
D13*
X45008400Y-77900000D03*
X50008400Y-77900000D03*
%TD*%
D12*
%TO.C,J6*%
X62406400Y-38965448D03*
D13*
X67486400Y-38965448D03*
X72486400Y-38965448D03*
%TD*%
D12*
%TO.C,J17*%
X39950000Y-155955600D03*
D13*
X45030000Y-155955600D03*
X50030000Y-155955600D03*
%TD*%
D14*
%TO.C,D5*%
X88275126Y-112995200D03*
D15*
X88275126Y-115535200D03*
%TD*%
D10*
%TO.C,R14*%
X57200000Y-106100000D03*
X47040000Y-106100000D03*
%TD*%
D14*
%TO.C,D3*%
X88258400Y-73840800D03*
D15*
X88258400Y-76380800D03*
%TD*%
D10*
%TO.C,R28*%
X22200000Y-142000000D03*
X32360000Y-142000000D03*
%TD*%
D14*
%TO.C,D2*%
X81784800Y-37447448D03*
D15*
X81784800Y-34907448D03*
%TD*%
M02*
