%TF.GenerationSoftware,KiCad,Pcbnew,9.0.6*%
%TF.CreationDate,2026-01-20T20:27:48+11:00*%
%TF.ProjectId,attenuverter,61747465-6e75-4766-9572-7465722e6b69,rev?*%
%TF.SameCoordinates,Original*%
%TF.FileFunction,Legend,Bot*%
%TF.FilePolarity,Positive*%
%FSLAX46Y46*%
G04 Gerber Fmt 4.6, Leading zero omitted, Abs format (unit mm)*
G04 Created by KiCad (PCBNEW 9.0.6) date 2026-01-20 20:27:48*
%MOMM*%
%LPD*%
G01*
G04 APERTURE LIST*
%ADD10C,0.100000*%
G04 APERTURE END LIST*
D10*
X27433333Y-178883609D02*
X27766666Y-178883609D01*
X27766666Y-179407419D02*
X27766666Y-178407419D01*
X27766666Y-178407419D02*
X27290476Y-178407419D01*
X27004761Y-178407419D02*
X26385714Y-178407419D01*
X26385714Y-178407419D02*
X26719047Y-178788371D01*
X26719047Y-178788371D02*
X26576190Y-178788371D01*
X26576190Y-178788371D02*
X26480952Y-178835990D01*
X26480952Y-178835990D02*
X26433333Y-178883609D01*
X26433333Y-178883609D02*
X26385714Y-178978847D01*
X26385714Y-178978847D02*
X26385714Y-179216942D01*
X26385714Y-179216942D02*
X26433333Y-179312180D01*
X26433333Y-179312180D02*
X26480952Y-179359800D01*
X26480952Y-179359800D02*
X26576190Y-179407419D01*
X26576190Y-179407419D02*
X26861904Y-179407419D01*
X26861904Y-179407419D02*
X26957142Y-179359800D01*
X26957142Y-179359800D02*
X27004761Y-179312180D01*
X85566666Y-179307419D02*
X85899999Y-178831228D01*
X86138094Y-179307419D02*
X86138094Y-178307419D01*
X86138094Y-178307419D02*
X85757142Y-178307419D01*
X85757142Y-178307419D02*
X85661904Y-178355038D01*
X85661904Y-178355038D02*
X85614285Y-178402657D01*
X85614285Y-178402657D02*
X85566666Y-178497895D01*
X85566666Y-178497895D02*
X85566666Y-178640752D01*
X85566666Y-178640752D02*
X85614285Y-178735990D01*
X85614285Y-178735990D02*
X85661904Y-178783609D01*
X85661904Y-178783609D02*
X85757142Y-178831228D01*
X85757142Y-178831228D02*
X86138094Y-178831228D01*
X84709523Y-178640752D02*
X84709523Y-179307419D01*
X84947618Y-178259800D02*
X85185713Y-178974085D01*
X85185713Y-178974085D02*
X84566666Y-178974085D01*
X27433333Y-24333609D02*
X27766666Y-24333609D01*
X27766666Y-24857419D02*
X27766666Y-23857419D01*
X27766666Y-23857419D02*
X27290476Y-23857419D01*
X26385714Y-24857419D02*
X26957142Y-24857419D01*
X26671428Y-24857419D02*
X26671428Y-23857419D01*
X26671428Y-23857419D02*
X26766666Y-24000276D01*
X26766666Y-24000276D02*
X26861904Y-24095514D01*
X26861904Y-24095514D02*
X26957142Y-24143133D01*
X85733333Y-24333609D02*
X86066666Y-24333609D01*
X86066666Y-24857419D02*
X86066666Y-23857419D01*
X86066666Y-23857419D02*
X85590476Y-23857419D01*
X85257142Y-23952657D02*
X85209523Y-23905038D01*
X85209523Y-23905038D02*
X85114285Y-23857419D01*
X85114285Y-23857419D02*
X84876190Y-23857419D01*
X84876190Y-23857419D02*
X84780952Y-23905038D01*
X84780952Y-23905038D02*
X84733333Y-23952657D01*
X84733333Y-23952657D02*
X84685714Y-24047895D01*
X84685714Y-24047895D02*
X84685714Y-24143133D01*
X84685714Y-24143133D02*
X84733333Y-24285990D01*
X84733333Y-24285990D02*
X85304761Y-24857419D01*
X85304761Y-24857419D02*
X84685714Y-24857419D01*
%TO.C,F3*%
X33600000Y-172950000D02*
X20600000Y-172950000D01*
X20600000Y-186450000D01*
X33600000Y-186450000D01*
X33600000Y-172950000D01*
%TO.C,R4*%
X91900000Y-172850000D02*
X78900000Y-172850000D01*
X78900000Y-186350000D01*
X91900000Y-186350000D01*
X91900000Y-172850000D01*
%TO.C,F1*%
X33600000Y-18400000D02*
X20600000Y-18400000D01*
X20600000Y-31900000D01*
X33600000Y-31900000D01*
X33600000Y-18400000D01*
%TO.C,F2*%
X91900000Y-18400000D02*
X78900000Y-18400000D01*
X78900000Y-31900000D01*
X91900000Y-31900000D01*
X91900000Y-18400000D01*
%TD*%
M02*
