%TF.GenerationSoftware,KiCad,Pcbnew,9.0.6*%
%TF.CreationDate,2026-01-20T20:27:48+11:00*%
%TF.ProjectId,attenuverter,61747465-6e75-4766-9572-7465722e6b69,rev?*%
%TF.SameCoordinates,Original*%
%TF.FileFunction,Copper,L1,Top*%
%TF.FilePolarity,Positive*%
%FSLAX46Y46*%
G04 Gerber Fmt 4.6, Leading zero omitted, Abs format (unit mm)*
G04 Created by KiCad (PCBNEW 9.0.6) date 2026-01-20 20:27:48*
%MOMM*%
%LPD*%
G01*
G04 APERTURE LIST*
G04 Aperture macros list*
%AMRoundRect*
0 Rectangle with rounded corners*
0 $1 Rounding radius*
0 $2 $3 $4 $5 $6 $7 $8 $9 X,Y pos of 4 corners*
0 Add a 4 corners polygon primitive as box body*
4,1,4,$2,$3,$4,$5,$6,$7,$8,$9,$2,$3,0*
0 Add four circle primitives for the rounded corners*
1,1,$1+$1,$2,$3*
1,1,$1+$1,$4,$5*
1,1,$1+$1,$6,$7*
1,1,$1+$1,$8,$9*
0 Add four rect primitives between the rounded corners*
20,1,$1+$1,$2,$3,$4,$5,0*
20,1,$1+$1,$4,$5,$6,$7,0*
20,1,$1+$1,$6,$7,$8,$9,0*
20,1,$1+$1,$8,$9,$2,$3,0*%
G04 Aperture macros list end*
%TA.AperFunction,ComponentPad*%
%ADD10C,1.600000*%
%TD*%
%TA.AperFunction,ComponentPad*%
%ADD11RoundRect,0.250000X-0.550000X0.550000X-0.550000X-0.550000X0.550000X-0.550000X0.550000X0.550000X0*%
%TD*%
%TA.AperFunction,ComponentPad*%
%ADD12R,2.000000X2.000000*%
%TD*%
%TA.AperFunction,ComponentPad*%
%ADD13C,2.000000*%
%TD*%
%TA.AperFunction,ComponentPad*%
%ADD14R,1.800000X1.800000*%
%TD*%
%TA.AperFunction,ComponentPad*%
%ADD15C,1.800000*%
%TD*%
%TA.AperFunction,ComponentPad*%
%ADD16RoundRect,0.250000X0.550000X-0.550000X0.550000X0.550000X-0.550000X0.550000X-0.550000X-0.550000X0*%
%TD*%
%TA.AperFunction,ComponentPad*%
%ADD17RoundRect,0.250000X0.600000X-0.600000X0.600000X0.600000X-0.600000X0.600000X-0.600000X-0.600000X0*%
%TD*%
%TA.AperFunction,ComponentPad*%
%ADD18C,1.700000*%
%TD*%
%TA.AperFunction,ComponentPad*%
%ADD19C,8.000000*%
%TD*%
%TA.AperFunction,ComponentPad*%
%ADD20R,1.700000X1.700000*%
%TD*%
%TA.AperFunction,Conductor*%
%ADD21C,0.200000*%
%TD*%
G04 APERTURE END LIST*
D10*
%TO.P,R16,2*%
%TO.N,Net-(R16-Pad2)*%
X32360000Y-135800000D03*
%TO.P,R16,1*%
%TO.N,Net-(U2C-+)*%
X22200000Y-135800000D03*
%TD*%
%TO.P,R30,1*%
%TO.N,Net-(D1-A)*%
X73780000Y-31300000D03*
%TO.P,R30,2*%
%TO.N,Net-(R29-Pad1)*%
X63620000Y-31300000D03*
%TD*%
%TO.P,C2,2*%
%TO.N,GND*%
X71700000Y-70700000D03*
%TO.P,C2,1*%
%TO.N,12V*%
X71700000Y-65700000D03*
%TD*%
%TO.P,R31,1*%
%TO.N,Net-(J7-Pin_1)*%
X38680000Y-31300000D03*
%TO.P,R31,2*%
%TO.N,Net-(R29-Pad1)*%
X48840000Y-31300000D03*
%TD*%
%TO.P,R29,1*%
%TO.N,Net-(R29-Pad1)*%
X51120000Y-31300000D03*
%TO.P,R29,2*%
%TO.N,Net-(D2-K)*%
X61280000Y-31300000D03*
%TD*%
%TO.P,U1,14*%
%TO.N,Net-(R10-Pad1)*%
X89815000Y-70210000D03*
%TO.P,U1,13,-*%
%TO.N,Net-(U1D--)*%
X87275000Y-70210000D03*
%TO.P,U1,12,+*%
%TO.N,GND*%
X84735000Y-70210000D03*
%TO.P,U1,11,V-*%
%TO.N,12V*%
X82195000Y-70210000D03*
%TO.P,U1,10,+*%
%TO.N,GND*%
X79655000Y-70210000D03*
%TO.P,U1,9,-*%
%TO.N,Net-(U1C--)*%
X77115000Y-70210000D03*
%TO.P,U1,8*%
%TO.N,Net-(R29-Pad1)*%
X74575000Y-70210000D03*
%TO.P,U1,7*%
%TO.N,Net-(J5-Pin_3)*%
X74575000Y-62590000D03*
%TO.P,U1,6,-*%
%TO.N,Net-(J5-Pin_2)*%
X77115000Y-62590000D03*
%TO.P,U1,5,+*%
%TO.N,GND*%
X79655000Y-62590000D03*
%TO.P,U1,4,V+*%
%TO.N,-12V*%
X82195000Y-62590000D03*
%TO.P,U1,3,+*%
%TO.N,GND*%
X84735000Y-62590000D03*
%TO.P,U1,2,-*%
%TO.N,Net-(U1A--)*%
X87275000Y-62590000D03*
D11*
%TO.P,U1,1*%
%TO.N,Net-(R2-Pad2)*%
X89815000Y-62590000D03*
%TD*%
D10*
%TO.P,R18,1*%
%TO.N,Net-(J13-Pin_3)*%
X32480000Y-102800000D03*
%TO.P,R18,2*%
%TO.N,Net-(U3A-+)*%
X22320000Y-102800000D03*
%TD*%
D12*
%TO.P,J10,1,Pin_1*%
%TO.N,-12V*%
X62428400Y-77900000D03*
D13*
%TO.P,J10,2,Pin_2*%
%TO.N,Net-(J10-Pin_2)*%
X67508400Y-77900000D03*
%TO.P,J10,3,Pin_3*%
%TO.N,12V*%
X72508400Y-77900000D03*
%TD*%
D10*
%TO.P,C6,1*%
%TO.N,12V*%
X82400000Y-137900000D03*
%TO.P,C6,2*%
%TO.N,GND*%
X87400000Y-137900000D03*
%TD*%
%TO.P,R7,1*%
%TO.N,Net-(U1C--)*%
X22300000Y-70100000D03*
%TO.P,R7,2*%
%TO.N,Net-(R29-Pad1)*%
X32460000Y-70100000D03*
%TD*%
%TO.P,R26,1*%
%TO.N,Net-(R23-Pad2)*%
X72580000Y-184200000D03*
%TO.P,R26,2*%
%TO.N,Net-(U3D-+)*%
X62420000Y-184200000D03*
%TD*%
%TO.P,R27,1*%
%TO.N,Net-(U3D-+)*%
X22220000Y-148255600D03*
%TO.P,R27,2*%
%TO.N,Net-(J18-Pin_2)*%
X32380000Y-148255600D03*
%TD*%
%TO.P,R5,1*%
%TO.N,Net-(U1C--)*%
X22300000Y-63500000D03*
%TO.P,R5,2*%
%TO.N,Net-(J6-Pin_2)*%
X32460000Y-63500000D03*
%TD*%
%TO.P,R13,1*%
%TO.N,Net-(U2B-+)*%
X69500000Y-106100000D03*
%TO.P,R13,2*%
%TO.N,Net-(J10-Pin_2)*%
X59340000Y-106100000D03*
%TD*%
%TO.P,R20,1*%
%TO.N,Net-(U3A-+)*%
X59440000Y-145200000D03*
%TO.P,R20,2*%
%TO.N,Net-(J14-Pin_2)*%
X69600000Y-145200000D03*
%TD*%
D14*
%TO.P,D1,1,K*%
%TO.N,GND*%
X88236400Y-34899681D03*
D15*
%TO.P,D1,2,A*%
%TO.N,Net-(D1-A)*%
X88236400Y-37439681D03*
%TD*%
D10*
%TO.P,C1,1*%
%TO.N,GND*%
X87200000Y-59700000D03*
%TO.P,C1,2*%
%TO.N,-12V*%
X82200000Y-59700000D03*
%TD*%
%TO.P,R19,1*%
%TO.N,Net-(R16-Pad2)*%
X22200000Y-138900000D03*
%TO.P,R19,2*%
%TO.N,Net-(U3A-+)*%
X32360000Y-138900000D03*
%TD*%
D16*
%TO.P,U2,1*%
%TO.N,Net-(J9-Pin_3)*%
X74700000Y-109255600D03*
D10*
%TO.P,U2,2,-*%
%TO.N,GND*%
X77240000Y-109255600D03*
%TO.P,U2,3,+*%
%TO.N,Net-(J9-Pin_2)*%
X79780000Y-109255600D03*
%TO.P,U2,4,V+*%
%TO.N,-12V*%
X82320000Y-109255600D03*
%TO.P,U2,5,+*%
%TO.N,Net-(U2B-+)*%
X84860000Y-109255600D03*
%TO.P,U2,6,-*%
%TO.N,GND*%
X87400000Y-109255600D03*
%TO.P,U2,7*%
%TO.N,Net-(R14-Pad2)*%
X89940000Y-109255600D03*
%TO.P,U2,8*%
%TO.N,Net-(R16-Pad2)*%
X89940000Y-101635600D03*
%TO.P,U2,9,-*%
%TO.N,GND*%
X87400000Y-101635600D03*
%TO.P,U2,10,+*%
%TO.N,Net-(U2C-+)*%
X84860000Y-101635600D03*
%TO.P,U2,11,V-*%
%TO.N,12V*%
X82320000Y-101635600D03*
%TO.P,U2,12,+*%
%TO.N,Net-(J13-Pin_2)*%
X79780000Y-101635600D03*
%TO.P,U2,13,-*%
%TO.N,GND*%
X77240000Y-101635600D03*
%TO.P,U2,14*%
%TO.N,Net-(J13-Pin_3)*%
X74700000Y-101635600D03*
%TD*%
%TO.P,R23,1*%
%TO.N,Net-(U3B-+)*%
X39240000Y-184200000D03*
%TO.P,R23,2*%
%TO.N,Net-(R23-Pad2)*%
X49400000Y-184200000D03*
%TD*%
D14*
%TO.P,D7,1,K*%
%TO.N,GND*%
X88330800Y-151894000D03*
D15*
%TO.P,D7,2,A*%
%TO.N,Net-(D7-A)*%
X88330800Y-154434000D03*
%TD*%
D14*
%TO.P,D8,1,K*%
%TO.N,Net-(D8-K)*%
X81828400Y-154439000D03*
D15*
%TO.P,D8,2,A*%
%TO.N,GND*%
X81828400Y-151899000D03*
%TD*%
D10*
%TO.P,R39,1*%
%TO.N,Net-(R28-Pad2)*%
X47140000Y-148200000D03*
%TO.P,R39,2*%
%TO.N,Net-(D8-K)*%
X57300000Y-148200000D03*
%TD*%
D17*
%TO.P,J2,1,Pin_1*%
%TO.N,12V*%
X53386000Y-24646800D03*
D18*
%TO.P,J2,2,Pin_2*%
%TO.N,-12V*%
X53386000Y-22106800D03*
%TO.P,J2,3,Pin_3*%
%TO.N,GND*%
X55926000Y-24646800D03*
%TO.P,J2,4,Pin_4*%
X55926000Y-22106800D03*
%TO.P,J2,5,Pin_5*%
%TO.N,5V*%
X58466000Y-24646800D03*
%TO.P,J2,6,Pin_6*%
%TO.N,unconnected-(J2-Pin_6-Pad6)*%
X58466000Y-22106800D03*
%TD*%
D19*
%TO.P,J19,1,Pin_1*%
%TO.N,Net-(J19-Pin_1)*%
X85079600Y-162536138D03*
%TD*%
D10*
%TO.P,R6,1*%
%TO.N,Net-(R2-Pad2)*%
X46920000Y-67100000D03*
%TO.P,R6,2*%
%TO.N,Net-(U1C--)*%
X57080000Y-67100000D03*
%TD*%
%TO.P,R22,1*%
%TO.N,Net-(J16-Pin_1)*%
X22200000Y-151386000D03*
%TO.P,R22,2*%
%TO.N,Net-(U3B-+)*%
X32360000Y-151386000D03*
%TD*%
D20*
%TO.P,RV4,1,1*%
%TO.N,-12V*%
X64928400Y-93900000D03*
D18*
%TO.P,RV4,2,2*%
%TO.N,Net-(J10-Pin_2)*%
X67468400Y-93900000D03*
%TO.P,RV4,3,3*%
%TO.N,12V*%
X70008400Y-93900000D03*
%TD*%
D10*
%TO.P,C3,1*%
%TO.N,GND*%
X71800000Y-109700000D03*
%TO.P,C3,2*%
%TO.N,-12V*%
X71800000Y-104700000D03*
%TD*%
D14*
%TO.P,D6,1,K*%
%TO.N,Net-(D6-K)*%
X81795200Y-115535200D03*
D15*
%TO.P,D6,2,A*%
%TO.N,GND*%
X81795200Y-112995200D03*
%TD*%
D19*
%TO.P,J15,1,Pin_1*%
%TO.N,Net-(J15-Pin_1)*%
X85048109Y-123652826D03*
%TD*%
D10*
%TO.P,R32,1*%
%TO.N,Net-(D3-A)*%
X69400000Y-70200000D03*
%TO.P,R32,2*%
%TO.N,Net-(R14-Pad2)*%
X59240000Y-70200000D03*
%TD*%
D17*
%TO.P,J1,1,Pin_1*%
%TO.N,12V*%
X35560000Y-24700000D03*
D18*
%TO.P,J1,2,Pin_2*%
%TO.N,-12V*%
X35560000Y-22160000D03*
%TO.P,J1,3,Pin_3*%
%TO.N,GND*%
X38100000Y-24700000D03*
%TO.P,J1,4,Pin_4*%
X38100000Y-22160000D03*
%TO.P,J1,5,Pin_5*%
%TO.N,5V*%
X40640000Y-24700000D03*
%TO.P,J1,6,Pin_6*%
%TO.N,unconnected-(J1-Pin_6-Pad6)*%
X40640000Y-22160000D03*
%TD*%
D19*
%TO.P,J7,1,Pin_1*%
%TO.N,Net-(J7-Pin_1)*%
X85007313Y-45573630D03*
%TD*%
D10*
%TO.P,R2,1*%
%TO.N,Net-(U1A--)*%
X34640000Y-67100000D03*
%TO.P,R2,2*%
%TO.N,Net-(R2-Pad2)*%
X44800000Y-67100000D03*
%TD*%
D14*
%TO.P,D4,1,K*%
%TO.N,Net-(D4-K)*%
X81806800Y-76380800D03*
D15*
%TO.P,D4,2,A*%
%TO.N,GND*%
X81806800Y-73840800D03*
%TD*%
D19*
%TO.P,J16,1,Pin_1*%
%TO.N,Net-(J16-Pin_1)*%
X27320000Y-162282138D03*
%TD*%
D20*
%TO.P,RV5,1,1*%
%TO.N,unconnected-(J13-Pin_1-Pad1)*%
X42478400Y-133055600D03*
D18*
%TO.P,RV5,2,2*%
%TO.N,Net-(J13-Pin_2)*%
X45018400Y-133055600D03*
%TO.P,RV5,3,3*%
%TO.N,Net-(J13-Pin_3)*%
X47558400Y-133055600D03*
%TD*%
D12*
%TO.P,J18,1,Pin_1*%
%TO.N,-12V*%
X62450000Y-155955600D03*
D13*
%TO.P,J18,2,Pin_2*%
%TO.N,Net-(J18-Pin_2)*%
X67530000Y-155955600D03*
%TO.P,J18,3,Pin_3*%
%TO.N,12V*%
X72530000Y-155955600D03*
%TD*%
D10*
%TO.P,R38,1*%
%TO.N,Net-(D7-A)*%
X69600000Y-148200000D03*
%TO.P,R38,2*%
%TO.N,Net-(R28-Pad2)*%
X59440000Y-148200000D03*
%TD*%
%TO.P,R11,1*%
%TO.N,Net-(J9-Pin_3)*%
X32480000Y-106000000D03*
%TO.P,R11,2*%
%TO.N,Net-(U2B-+)*%
X22320000Y-106000000D03*
%TD*%
D20*
%TO.P,RV8,1,1*%
%TO.N,-12V*%
X64950000Y-171955600D03*
D18*
%TO.P,RV8,2,2*%
%TO.N,Net-(J18-Pin_2)*%
X67490000Y-171955600D03*
%TO.P,RV8,3,3*%
%TO.N,12V*%
X70030000Y-171955600D03*
%TD*%
D17*
%TO.P,J3,1,Pin_1*%
%TO.N,12V*%
X71860000Y-24646800D03*
D18*
%TO.P,J3,2,Pin_2*%
%TO.N,-12V*%
X71860000Y-22106800D03*
%TO.P,J3,3,Pin_3*%
%TO.N,GND*%
X74400000Y-24646800D03*
%TO.P,J3,4,Pin_4*%
X74400000Y-22106800D03*
%TO.P,J3,5,Pin_5*%
%TO.N,5V*%
X76940000Y-24646800D03*
%TO.P,J3,6,Pin_6*%
%TO.N,unconnected-(J3-Pin_6-Pad6)*%
X76940000Y-22106800D03*
%TD*%
D20*
%TO.P,RV6,1,1*%
%TO.N,-12V*%
X64918400Y-133055600D03*
D18*
%TO.P,RV6,2,2*%
%TO.N,Net-(J14-Pin_2)*%
X67458400Y-133055600D03*
%TO.P,RV6,3,3*%
%TO.N,12V*%
X69998400Y-133055600D03*
%TD*%
D19*
%TO.P,J8,1,Pin_1*%
%TO.N,Net-(J8-Pin_1)*%
X27349200Y-84661200D03*
%TD*%
D10*
%TO.P,R9,1*%
%TO.N,Net-(U1D--)*%
X22300000Y-96400000D03*
%TO.P,R9,2*%
%TO.N,Net-(R10-Pad1)*%
X32460000Y-96400000D03*
%TD*%
D19*
%TO.P,J4,1,Pin_1*%
%TO.N,Net-(J4-Pin_1)*%
X27276400Y-45270648D03*
%TD*%
D12*
%TO.P,J14,1,Pin_1*%
%TO.N,-12V*%
X62518400Y-117055600D03*
D13*
%TO.P,J14,2,Pin_2*%
%TO.N,Net-(J14-Pin_2)*%
X67598400Y-117055600D03*
%TO.P,J14,3,Pin_3*%
%TO.N,12V*%
X72598400Y-117055600D03*
%TD*%
D10*
%TO.P,R33,1*%
%TO.N,Net-(R14-Pad2)*%
X46940000Y-70200000D03*
%TO.P,R33,2*%
%TO.N,Net-(D4-K)*%
X57100000Y-70200000D03*
%TD*%
D16*
%TO.P,U3,1*%
%TO.N,Net-(R21-Pad2)*%
X74760000Y-148275600D03*
D10*
%TO.P,U3,2,-*%
%TO.N,GND*%
X77300000Y-148275600D03*
%TO.P,U3,3,+*%
%TO.N,Net-(U3A-+)*%
X79840000Y-148275600D03*
%TO.P,U3,4,V+*%
%TO.N,-12V*%
X82380000Y-148275600D03*
%TO.P,U3,5,+*%
%TO.N,Net-(U3B-+)*%
X84920000Y-148275600D03*
%TO.P,U3,6,-*%
%TO.N,GND*%
X87460000Y-148275600D03*
%TO.P,U3,7*%
%TO.N,Net-(R23-Pad2)*%
X90000000Y-148275600D03*
%TO.P,U3,8*%
%TO.N,Net-(J17-Pin_3)*%
X90000000Y-140655600D03*
%TO.P,U3,9,-*%
%TO.N,GND*%
X87460000Y-140655600D03*
%TO.P,U3,10,+*%
%TO.N,Net-(J17-Pin_2)*%
X84920000Y-140655600D03*
%TO.P,U3,11,V-*%
%TO.N,12V*%
X82380000Y-140655600D03*
%TO.P,U3,12,+*%
%TO.N,Net-(U3D-+)*%
X79840000Y-140655600D03*
%TO.P,U3,13,-*%
%TO.N,GND*%
X77300000Y-140655600D03*
%TO.P,U3,14*%
%TO.N,Net-(R28-Pad2)*%
X74760000Y-140655600D03*
%TD*%
%TO.P,R24,1*%
%TO.N,Net-(R23-Pad2)*%
X34800000Y-145200000D03*
%TO.P,R24,2*%
%TO.N,Net-(J17-Pin_2)*%
X44960000Y-145200000D03*
%TD*%
D12*
%TO.P,J5,1,Pin_1*%
%TO.N,unconnected-(J5-Pin_1-Pad1)*%
X39906400Y-38965448D03*
D13*
%TO.P,J5,2,Pin_2*%
%TO.N,Net-(J5-Pin_2)*%
X44986400Y-38965448D03*
%TO.P,J5,3,Pin_3*%
%TO.N,Net-(J5-Pin_3)*%
X49986400Y-38965448D03*
%TD*%
D20*
%TO.P,RV1,1,1*%
%TO.N,unconnected-(J5-Pin_1-Pad1)*%
X42366400Y-54965448D03*
D18*
%TO.P,RV1,2,2*%
%TO.N,Net-(J5-Pin_2)*%
X44906400Y-54965448D03*
%TO.P,RV1,3,3*%
%TO.N,Net-(J5-Pin_3)*%
X47446400Y-54965448D03*
%TD*%
D10*
%TO.P,R10,1*%
%TO.N,Net-(R10-Pad1)*%
X22340000Y-109255600D03*
%TO.P,R10,2*%
%TO.N,Net-(J9-Pin_2)*%
X32500000Y-109255600D03*
%TD*%
%TO.P,R8,1*%
%TO.N,Net-(J8-Pin_1)*%
X22320000Y-73383600D03*
%TO.P,R8,2*%
%TO.N,Net-(U1D--)*%
X32480000Y-73383600D03*
%TD*%
%TO.P,R25,1*%
%TO.N,Net-(J17-Pin_3)*%
X57280000Y-145200000D03*
%TO.P,R25,2*%
%TO.N,Net-(U3D-+)*%
X47120000Y-145200000D03*
%TD*%
%TO.P,R3,1*%
%TO.N,Net-(R2-Pad2)*%
X59240000Y-67100000D03*
%TO.P,R3,2*%
%TO.N,Net-(J5-Pin_2)*%
X69400000Y-67100000D03*
%TD*%
D20*
%TO.P,RV7,1,1*%
%TO.N,unconnected-(J17-Pin_1-Pad1)*%
X42410000Y-171955600D03*
D18*
%TO.P,RV7,2,2*%
%TO.N,Net-(J17-Pin_2)*%
X44950000Y-171955600D03*
%TO.P,RV7,3,3*%
%TO.N,Net-(J17-Pin_3)*%
X47490000Y-171955600D03*
%TD*%
D10*
%TO.P,R17,1*%
%TO.N,Net-(R16-Pad2)*%
X34740000Y-106100000D03*
%TO.P,R17,2*%
%TO.N,Net-(J13-Pin_2)*%
X44900000Y-106100000D03*
%TD*%
%TO.P,R12,1*%
%TO.N,Net-(R10-Pad1)*%
X22300000Y-99600000D03*
%TO.P,R12,2*%
%TO.N,Net-(U2B-+)*%
X32460000Y-99600000D03*
%TD*%
D20*
%TO.P,RV2,1,1*%
%TO.N,-12V*%
X64906400Y-54965448D03*
D18*
%TO.P,RV2,2,2*%
%TO.N,Net-(J6-Pin_2)*%
X67446400Y-54965448D03*
%TO.P,RV2,3,3*%
%TO.N,12V*%
X69986400Y-54965448D03*
%TD*%
D10*
%TO.P,R21,1*%
%TO.N,Net-(U3A-+)*%
X22220000Y-145100000D03*
%TO.P,R21,2*%
%TO.N,Net-(R21-Pad2)*%
X32380000Y-145100000D03*
%TD*%
%TO.P,R4,1*%
%TO.N,Net-(J5-Pin_3)*%
X32460000Y-66800000D03*
%TO.P,R4,2*%
%TO.N,Net-(U1C--)*%
X22300000Y-66800000D03*
%TD*%
%TO.P,C5,1*%
%TO.N,GND*%
X71900000Y-143700000D03*
%TO.P,C5,2*%
%TO.N,-12V*%
X71900000Y-148700000D03*
%TD*%
%TO.P,R40,1*%
%TO.N,Net-(J19-Pin_1)*%
X44960000Y-148200000D03*
%TO.P,R40,2*%
%TO.N,Net-(R28-Pad2)*%
X34800000Y-148200000D03*
%TD*%
%TO.P,R34,1*%
%TO.N,Net-(J11-Pin_1)*%
X44800000Y-70200000D03*
%TO.P,R34,2*%
%TO.N,Net-(R14-Pad2)*%
X34640000Y-70200000D03*
%TD*%
%TO.P,R36,1*%
%TO.N,Net-(R21-Pad2)*%
X47040000Y-109200000D03*
%TO.P,R36,2*%
%TO.N,Net-(D6-K)*%
X57200000Y-109200000D03*
%TD*%
%TO.P,R1,1*%
%TO.N,Net-(J4-Pin_1)*%
X22320000Y-60200000D03*
%TO.P,R1,2*%
%TO.N,Net-(U1A--)*%
X32480000Y-60200000D03*
%TD*%
D19*
%TO.P,J11,1,Pin_1*%
%TO.N,Net-(J11-Pin_1)*%
X85007200Y-84559600D03*
%TD*%
D10*
%TO.P,R15,1*%
%TO.N,Net-(J12-Pin_1)*%
X22359200Y-112538000D03*
%TO.P,R15,2*%
%TO.N,Net-(U2C-+)*%
X32519200Y-112538000D03*
%TD*%
%TO.P,R35,1*%
%TO.N,Net-(D5-A)*%
X69480000Y-109200000D03*
%TO.P,R35,2*%
%TO.N,Net-(R21-Pad2)*%
X59320000Y-109200000D03*
%TD*%
%TO.P,R37,1*%
%TO.N,Net-(J15-Pin_1)*%
X44880000Y-109200000D03*
%TO.P,R37,2*%
%TO.N,Net-(R21-Pad2)*%
X34720000Y-109200000D03*
%TD*%
D12*
%TO.P,J13,1,Pin_1*%
%TO.N,unconnected-(J13-Pin_1-Pad1)*%
X40018400Y-117055600D03*
D13*
%TO.P,J13,2,Pin_2*%
%TO.N,Net-(J13-Pin_2)*%
X45098400Y-117055600D03*
%TO.P,J13,3,Pin_3*%
%TO.N,Net-(J13-Pin_3)*%
X50098400Y-117055600D03*
%TD*%
D19*
%TO.P,J12,1,Pin_1*%
%TO.N,Net-(J12-Pin_1)*%
X27439200Y-123561600D03*
%TD*%
D10*
%TO.P,C4,1*%
%TO.N,12V*%
X82300000Y-98800000D03*
%TO.P,C4,2*%
%TO.N,GND*%
X87300000Y-98800000D03*
%TD*%
D20*
%TO.P,RV3,1,1*%
%TO.N,unconnected-(J9-Pin_1-Pad1)*%
X42388400Y-93900000D03*
D18*
%TO.P,RV3,2,2*%
%TO.N,Net-(J9-Pin_2)*%
X44928400Y-93900000D03*
%TO.P,RV3,3,3*%
%TO.N,Net-(J9-Pin_3)*%
X47468400Y-93900000D03*
%TD*%
D12*
%TO.P,J9,1,Pin_1*%
%TO.N,unconnected-(J9-Pin_1-Pad1)*%
X39928400Y-77900000D03*
D13*
%TO.P,J9,2,Pin_2*%
%TO.N,Net-(J9-Pin_2)*%
X45008400Y-77900000D03*
%TO.P,J9,3,Pin_3*%
%TO.N,Net-(J9-Pin_3)*%
X50008400Y-77900000D03*
%TD*%
D12*
%TO.P,J6,1,Pin_1*%
%TO.N,-12V*%
X62406400Y-38965448D03*
D13*
%TO.P,J6,2,Pin_2*%
%TO.N,Net-(J6-Pin_2)*%
X67486400Y-38965448D03*
%TO.P,J6,3,Pin_3*%
%TO.N,12V*%
X72486400Y-38965448D03*
%TD*%
D12*
%TO.P,J17,1,Pin_1*%
%TO.N,unconnected-(J17-Pin_1-Pad1)*%
X39950000Y-155955600D03*
D13*
%TO.P,J17,2,Pin_2*%
%TO.N,Net-(J17-Pin_2)*%
X45030000Y-155955600D03*
%TO.P,J17,3,Pin_3*%
%TO.N,Net-(J17-Pin_3)*%
X50030000Y-155955600D03*
%TD*%
D14*
%TO.P,D5,1,K*%
%TO.N,GND*%
X88275126Y-112995200D03*
D15*
%TO.P,D5,2,A*%
%TO.N,Net-(D5-A)*%
X88275126Y-115535200D03*
%TD*%
D10*
%TO.P,R14,1*%
%TO.N,Net-(U2B-+)*%
X57200000Y-106100000D03*
%TO.P,R14,2*%
%TO.N,Net-(R14-Pad2)*%
X47040000Y-106100000D03*
%TD*%
D14*
%TO.P,D3,1,K*%
%TO.N,GND*%
X88258400Y-73840800D03*
D15*
%TO.P,D3,2,A*%
%TO.N,Net-(D3-A)*%
X88258400Y-76380800D03*
%TD*%
D10*
%TO.P,R28,1*%
%TO.N,Net-(U3D-+)*%
X22200000Y-142000000D03*
%TO.P,R28,2*%
%TO.N,Net-(R28-Pad2)*%
X32360000Y-142000000D03*
%TD*%
D14*
%TO.P,D2,1,K*%
%TO.N,Net-(D2-K)*%
X81784800Y-37447448D03*
D15*
%TO.P,D2,2,A*%
%TO.N,GND*%
X81784800Y-34907448D03*
%TD*%
D21*
%TO.N,Net-(J7-Pin_1)*%
X38680000Y-31300000D02*
X40182000Y-29798000D01*
X40182000Y-29798000D02*
X74135352Y-29798000D01*
X74135352Y-29798000D02*
X80583800Y-36246448D01*
X80583800Y-36246448D02*
X82985800Y-36246448D01*
X82985800Y-36246448D02*
X85007313Y-38267961D01*
X85007313Y-38267961D02*
X85007313Y-45573630D01*
%TO.N,Net-(R29-Pad1)*%
X51120000Y-31300000D02*
X48840000Y-31300000D01*
X63620000Y-31300000D02*
X62519000Y-30199000D01*
X62519000Y-30199000D02*
X52221000Y-30199000D01*
X52221000Y-30199000D02*
X51120000Y-31300000D01*
%TO.N,Net-(D2-K)*%
X81784800Y-37447448D02*
X67427448Y-37447448D01*
X67427448Y-37447448D02*
X61280000Y-31300000D01*
%TO.N,12V*%
X82380000Y-140655600D02*
X86021000Y-144296600D01*
X89697900Y-150292000D02*
X89932800Y-150526900D01*
X86021000Y-144296600D02*
X86021000Y-148393650D01*
X86021000Y-148393650D02*
X87919350Y-150292000D01*
X87919350Y-150292000D02*
X89697900Y-150292000D01*
X89932800Y-150526900D02*
X89932800Y-155097571D01*
X89932800Y-155097571D02*
X88074771Y-156955600D01*
X88074771Y-156955600D02*
X73530000Y-156955600D01*
X73530000Y-156955600D02*
X72530000Y-155955600D01*
%TO.N,GND*%
X77300000Y-140655600D02*
X74255600Y-143700000D01*
X74255600Y-143700000D02*
X71900000Y-143700000D01*
X87460000Y-140655600D02*
X87460000Y-148275600D01*
X87400000Y-137900000D02*
X87400000Y-140595600D01*
X87400000Y-140595600D02*
X87460000Y-140655600D01*
%TO.N,12V*%
X69998400Y-133055600D02*
X74842800Y-137900000D01*
X74842800Y-137900000D02*
X82400000Y-137900000D01*
%TO.N,Net-(J14-Pin_2)*%
X67458400Y-133055600D02*
X69600000Y-135197200D01*
X69600000Y-135197200D02*
X69600000Y-145200000D01*
%TO.N,12V*%
X82400000Y-137900000D02*
X82400000Y-140635600D01*
X82400000Y-140635600D02*
X82380000Y-140655600D01*
%TO.N,Net-(J18-Pin_2)*%
X32380000Y-148255600D02*
X31259000Y-149376600D01*
X31259000Y-149376600D02*
X31259000Y-151842050D01*
X31259000Y-151842050D02*
X34071550Y-154654600D01*
X34071550Y-154654600D02*
X66229000Y-154654600D01*
X66229000Y-154654600D02*
X67530000Y-155955600D01*
%TO.N,Net-(U3A-+)*%
X59440000Y-145200000D02*
X53140000Y-138900000D01*
X53140000Y-138900000D02*
X32360000Y-138900000D01*
%TO.N,Net-(U3D-+)*%
X22220000Y-148255600D02*
X27667350Y-148255600D01*
X27667350Y-148255600D02*
X31923950Y-143999000D01*
X31923950Y-143999000D02*
X45919000Y-143999000D01*
X45919000Y-143999000D02*
X47120000Y-145200000D01*
X22200000Y-142000000D02*
X21119000Y-143081000D01*
X21119000Y-143081000D02*
X21119000Y-147154600D01*
X21119000Y-147154600D02*
X22220000Y-148255600D01*
%TO.N,Net-(U3A-+)*%
X22220000Y-145100000D02*
X26160000Y-145100000D01*
X26160000Y-145100000D02*
X32360000Y-138900000D01*
%TO.N,Net-(U3B-+)*%
X84920000Y-148275600D02*
X87337400Y-150693000D01*
X87337400Y-150693000D02*
X89531800Y-150693000D01*
X74054292Y-155640000D02*
X72320892Y-153906600D01*
X89531800Y-150693000D02*
X89531800Y-154931471D01*
X89531800Y-154931471D02*
X88823271Y-155640000D01*
X88823271Y-155640000D02*
X74054292Y-155640000D01*
X72320892Y-153906600D02*
X34880600Y-153906600D01*
X34880600Y-153906600D02*
X32360000Y-151386000D01*
%TO.N,Net-(U3A-+)*%
X80941000Y-149376600D02*
X82836050Y-149376600D01*
X82836050Y-149376600D02*
X83481000Y-148731650D01*
X83481000Y-148731650D02*
X83481000Y-147819550D01*
X83481000Y-147819550D02*
X81962450Y-146301000D01*
X81962450Y-146301000D02*
X60541000Y-146301000D01*
%TO.N,-12V*%
X82380000Y-148275600D02*
X81279000Y-147174600D01*
X81279000Y-147174600D02*
X79383950Y-147174600D01*
X79383950Y-147174600D02*
X78739000Y-147819550D01*
X72576600Y-149376600D02*
X71900000Y-148700000D01*
X78739000Y-147819550D02*
X78739000Y-148393650D01*
X78739000Y-148393650D02*
X77756050Y-149376600D01*
X77756050Y-149376600D02*
X72576600Y-149376600D01*
%TO.N,Net-(R21-Pad2)*%
X74760000Y-148275600D02*
X73583400Y-147099000D01*
X73583400Y-147099000D02*
X62098050Y-147099000D01*
X62098050Y-147099000D02*
X59495050Y-149702000D01*
X59495050Y-149702000D02*
X34602000Y-149702000D01*
X34602000Y-149702000D02*
X33481000Y-148581000D01*
X33481000Y-148581000D02*
X33481000Y-146201000D01*
X33481000Y-146201000D02*
X32380000Y-145100000D01*
%TO.N,Net-(U3A-+)*%
X59440000Y-145200000D02*
X60541000Y-146301000D01*
X80941000Y-149376600D02*
X79840000Y-148275600D01*
%TO.N,Net-(D7-A)*%
X69600000Y-148200000D02*
X75306600Y-153906600D01*
X75306600Y-153906600D02*
X76641024Y-153906600D01*
X76641024Y-153906600D02*
X77309624Y-153238000D01*
X87134800Y-153238000D02*
X88330800Y-154434000D01*
X77309624Y-153238000D02*
X87134800Y-153238000D01*
%TO.N,Net-(R28-Pad2)*%
X47140000Y-148200000D02*
X48241000Y-147099000D01*
X48241000Y-147099000D02*
X58339000Y-147099000D01*
X58339000Y-147099000D02*
X59440000Y-148200000D01*
X47140000Y-148200000D02*
X46039000Y-149301000D01*
X46039000Y-149301000D02*
X35901000Y-149301000D01*
X35901000Y-149301000D02*
X34800000Y-148200000D01*
%TO.N,unconnected-(J13-Pin_1-Pad1)*%
X40018400Y-117055600D02*
X40018400Y-130595600D01*
X40018400Y-130595600D02*
X42478400Y-133055600D01*
%TO.N,Net-(J13-Pin_2)*%
X45098400Y-117055600D02*
X45098400Y-132975600D01*
X45098400Y-132975600D02*
X45018400Y-133055600D01*
%TO.N,Net-(J13-Pin_3)*%
X50098400Y-117055600D02*
X47558400Y-119595600D01*
X47558400Y-119595600D02*
X47558400Y-133055600D01*
%TO.N,-12V*%
X62518400Y-117055600D02*
X62518400Y-130655600D01*
X62518400Y-130655600D02*
X64918400Y-133055600D01*
%TO.N,Net-(J14-Pin_2)*%
X67598400Y-117055600D02*
X67598400Y-132915600D01*
X67598400Y-132915600D02*
X67458400Y-133055600D01*
%TO.N,12V*%
X72598400Y-117055600D02*
X69998400Y-119655600D01*
X69998400Y-119655600D02*
X69998400Y-133055600D01*
%TO.N,Net-(R10-Pad1)*%
X22300000Y-99600000D02*
X21219000Y-100681000D01*
X21219000Y-100681000D02*
X21219000Y-108134600D01*
X21219000Y-108134600D02*
X22340000Y-109255600D01*
%TO.N,Net-(U3A-+)*%
X32360000Y-138900000D02*
X31259000Y-137799000D01*
X31259000Y-137799000D02*
X31259000Y-125824333D01*
X23421000Y-105621000D02*
X23421000Y-103901000D01*
X31259000Y-125824333D02*
X31740200Y-125343133D01*
X31740200Y-125343133D02*
X31740200Y-113940200D01*
X31740200Y-113940200D02*
X23421000Y-105621000D01*
X23421000Y-103901000D02*
X22320000Y-102800000D01*
%TO.N,Net-(J13-Pin_3)*%
X32480000Y-102800000D02*
X31379000Y-103901000D01*
X31379000Y-103901000D02*
X31379000Y-112954850D01*
X31379000Y-112954850D02*
X34178750Y-115754600D01*
X34178750Y-115754600D02*
X48797400Y-115754600D01*
X48797400Y-115754600D02*
X50098400Y-117055600D01*
%TO.N,Net-(R21-Pad2)*%
X34720000Y-109200000D02*
X35821000Y-110301000D01*
X35821000Y-110301000D02*
X45939000Y-110301000D01*
X45939000Y-110301000D02*
X47040000Y-109200000D01*
%TO.N,GND*%
X77240000Y-101635600D02*
X77240000Y-109255600D01*
%TO.N,-12V*%
X82320000Y-109255600D02*
X82320000Y-103530650D01*
X71800000Y-102978550D02*
X71800000Y-104700000D01*
X82320000Y-103530650D02*
X80881000Y-102091650D01*
X80881000Y-102091650D02*
X80881000Y-101179550D01*
X80881000Y-101179550D02*
X80236050Y-100534600D01*
X80236050Y-100534600D02*
X74243950Y-100534600D01*
X74243950Y-100534600D02*
X71800000Y-102978550D01*
%TO.N,12V*%
X82320000Y-101635600D02*
X83421000Y-100534600D01*
X88839000Y-101179550D02*
X88839000Y-106030450D01*
X83421000Y-100534600D02*
X88194050Y-100534600D01*
X88194050Y-100534600D02*
X88839000Y-101179550D01*
X88839000Y-106030450D02*
X91442000Y-108633450D01*
X91442000Y-108633450D02*
X91442000Y-114066797D01*
X91442000Y-114066797D02*
X88453197Y-117055600D01*
X88453197Y-117055600D02*
X72598400Y-117055600D01*
%TO.N,Net-(U2C-+)*%
X84860000Y-101635600D02*
X83421000Y-103074600D01*
X83421000Y-103074600D02*
X83421000Y-109711650D01*
X88839000Y-109711650D02*
X88839000Y-108799550D01*
X83421000Y-109711650D02*
X84065950Y-110356600D01*
X84065950Y-110356600D02*
X88194050Y-110356600D01*
X88194050Y-110356600D02*
X88839000Y-109711650D01*
X88839000Y-108799550D02*
X89483950Y-108154600D01*
X89483950Y-108154600D02*
X90396050Y-108154600D01*
X90396050Y-108154600D02*
X91041000Y-108799550D01*
X91041000Y-108799550D02*
X91041000Y-109711650D01*
X91041000Y-109711650D02*
X89149650Y-111603000D01*
X89149650Y-111603000D02*
X33454200Y-111603000D01*
X33454200Y-111603000D02*
X32519200Y-112538000D01*
%TO.N,Net-(R14-Pad2)*%
X47040000Y-106100000D02*
X45939000Y-104999000D01*
X45939000Y-104999000D02*
X44443950Y-104999000D01*
X44443950Y-104999000D02*
X43799000Y-105643950D01*
X43799000Y-106556050D02*
X44844950Y-107602000D01*
X87993600Y-111202000D02*
X89940000Y-109255600D01*
X43799000Y-105643950D02*
X43799000Y-106556050D01*
X64984692Y-107602000D02*
X68584692Y-111202000D01*
X68584692Y-111202000D02*
X87993600Y-111202000D01*
X44844950Y-107602000D02*
X64984692Y-107602000D01*
%TO.N,Net-(J13-Pin_2)*%
X44900000Y-106100000D02*
X46001000Y-107201000D01*
X46001000Y-107201000D02*
X65923950Y-107201000D01*
X65923950Y-107201000D02*
X69523950Y-110801000D01*
X69523950Y-110801000D02*
X79791650Y-110801000D01*
X80881000Y-102736600D02*
X79780000Y-101635600D01*
X79791650Y-110801000D02*
X80881000Y-109711650D01*
X80881000Y-109711650D02*
X80881000Y-102736600D01*
%TO.N,Net-(J9-Pin_2)*%
X44928400Y-93900000D02*
X45840640Y-93900000D01*
X66841950Y-104999000D02*
X70054300Y-108211350D01*
X45840640Y-93900000D02*
X56939640Y-104999000D01*
X56939640Y-104999000D02*
X66841950Y-104999000D01*
X70054300Y-108211350D02*
X73088650Y-108211350D01*
X73088650Y-108211350D02*
X73088650Y-109530410D01*
X73088650Y-109530410D02*
X73914840Y-110356600D01*
X73914840Y-110356600D02*
X78679000Y-110356600D01*
X78679000Y-110356600D02*
X79780000Y-109255600D01*
%TO.N,Net-(J9-Pin_3)*%
X74700000Y-109255600D02*
X59344400Y-93900000D01*
X59344400Y-93900000D02*
X47468400Y-93900000D01*
%TO.N,Net-(R14-Pad2)*%
X47040000Y-106100000D02*
X42639000Y-101699000D01*
X42639000Y-101699000D02*
X33001950Y-101699000D01*
X33001950Y-101699000D02*
X31359000Y-100056050D01*
X31359000Y-100056050D02*
X31359000Y-86733933D01*
X31359000Y-86733933D02*
X34640000Y-83452933D01*
X34640000Y-83452933D02*
X34640000Y-70200000D01*
%TO.N,GND*%
X87400000Y-101635600D02*
X87400000Y-109255600D01*
%TO.N,Net-(U2B-+)*%
X32460000Y-99600000D02*
X50700000Y-99600000D01*
X50700000Y-99600000D02*
X57200000Y-106100000D01*
%TO.N,Net-(R21-Pad2)*%
X47040000Y-109200000D02*
X48141000Y-108099000D01*
X48141000Y-108099000D02*
X58219000Y-108099000D01*
X58219000Y-108099000D02*
X59320000Y-109200000D01*
%TO.N,Net-(J10-Pin_2)*%
X67508400Y-77900000D02*
X67508400Y-93860000D01*
X67508400Y-93860000D02*
X67468400Y-93900000D01*
%TO.N,GND*%
X88258400Y-73840800D02*
X89459400Y-75041800D01*
X89459400Y-96640600D02*
X87300000Y-98800000D01*
X89459400Y-75041800D02*
X89459400Y-96640600D01*
%TO.N,12V*%
X69986400Y-54965448D02*
X80295398Y-54965448D01*
X86818950Y-61489000D02*
X87731050Y-61489000D01*
X80295398Y-54965448D02*
X86818950Y-61489000D01*
X87731050Y-61489000D02*
X88376000Y-62133950D01*
X88376000Y-62133950D02*
X88376000Y-64029000D01*
X88376000Y-64029000D02*
X82195000Y-70210000D01*
%TO.N,Net-(J11-Pin_1)*%
X85007200Y-84559600D02*
X77046600Y-76599000D01*
X77046600Y-76599000D02*
X67196050Y-76599000D01*
X67196050Y-76599000D02*
X59295050Y-68698000D01*
X46302000Y-68698000D02*
X44800000Y-70200000D01*
X59295050Y-68698000D02*
X46302000Y-68698000D01*
%TO.N,5V*%
X58466000Y-24646800D02*
X59617000Y-25797800D01*
X59617000Y-25797800D02*
X75789000Y-25797800D01*
X75789000Y-25797800D02*
X76940000Y-24646800D01*
X40640000Y-24700000D02*
X41737800Y-25797800D01*
X41737800Y-25797800D02*
X57315000Y-25797800D01*
X57315000Y-25797800D02*
X58466000Y-24646800D01*
%TO.N,12V*%
X53386000Y-24646800D02*
X54537000Y-23495800D01*
X54537000Y-23495800D02*
X70709000Y-23495800D01*
X70709000Y-23495800D02*
X71860000Y-24646800D01*
X35560000Y-24700000D02*
X36711000Y-23549000D01*
X36711000Y-23549000D02*
X52288200Y-23549000D01*
X52288200Y-23549000D02*
X53386000Y-24646800D01*
%TO.N,-12V*%
X53386000Y-22106800D02*
X52288200Y-21009000D01*
X52288200Y-21009000D02*
X36711000Y-21009000D01*
X36711000Y-21009000D02*
X35560000Y-22160000D01*
X71860000Y-22106800D02*
X70709000Y-20955800D01*
X70709000Y-20955800D02*
X54537000Y-20955800D01*
X54537000Y-20955800D02*
X53386000Y-22106800D01*
%TO.N,Net-(U1A--)*%
X34640000Y-67100000D02*
X42675850Y-67100000D01*
X42675850Y-67100000D02*
X48286850Y-61489000D01*
X48286850Y-61489000D02*
X86174000Y-61489000D01*
X86174000Y-61489000D02*
X87275000Y-62590000D01*
%TO.N,Net-(U1C--)*%
X22300000Y-66800000D02*
X23802000Y-68302000D01*
X23802000Y-68302000D02*
X42040950Y-68302000D01*
X42040950Y-68302000D02*
X44343950Y-65999000D01*
X44343950Y-65999000D02*
X55979000Y-65999000D01*
X55979000Y-65999000D02*
X57080000Y-67100000D01*
X22300000Y-63500000D02*
X22300000Y-70100000D01*
%TO.N,Net-(U1A--)*%
X32480000Y-60200000D02*
X31359000Y-61321000D01*
X31359000Y-61321000D02*
X31359000Y-67256050D01*
X31359000Y-67256050D02*
X32003950Y-67901000D01*
X32003950Y-67901000D02*
X33839000Y-67901000D01*
X33839000Y-67901000D02*
X34640000Y-67100000D01*
%TO.N,Net-(J5-Pin_3)*%
X32460000Y-66800000D02*
X33261000Y-65999000D01*
X33261000Y-65999000D02*
X36412848Y-65999000D01*
X36412848Y-65999000D02*
X47446400Y-54965448D01*
%TO.N,Net-(J4-Pin_1)*%
X22320000Y-60200000D02*
X22320000Y-50227048D01*
X22320000Y-50227048D02*
X27276400Y-45270648D01*
%TO.N,Net-(D3-A)*%
X69400000Y-70200000D02*
X75051000Y-75851000D01*
X75051000Y-75851000D02*
X79934600Y-75851000D01*
X79934600Y-75851000D02*
X80605800Y-75179800D01*
X87057400Y-75179800D02*
X88258400Y-76380800D01*
X80605800Y-75179800D02*
X87057400Y-75179800D01*
%TO.N,Net-(U1C--)*%
X57080000Y-67100000D02*
X58181000Y-65999000D01*
X58181000Y-65999000D02*
X66741950Y-65999000D01*
X66741950Y-65999000D02*
X69851950Y-69109000D01*
X69851950Y-69109000D02*
X76014000Y-69109000D01*
X76014000Y-69109000D02*
X77115000Y-70210000D01*
%TO.N,Net-(R14-Pad2)*%
X46940000Y-70200000D02*
X45840000Y-71300000D01*
X35740000Y-71300000D02*
X34640000Y-70200000D01*
X45840000Y-71300000D02*
X35740000Y-71300000D01*
%TO.N,Net-(R2-Pad2)*%
X46920000Y-67100000D02*
X44800000Y-67100000D01*
%TO.N,Net-(R14-Pad2)*%
X46940000Y-70200000D02*
X48041000Y-69099000D01*
X48041000Y-69099000D02*
X58139000Y-69099000D01*
X58139000Y-69099000D02*
X59240000Y-70200000D01*
%TO.N,Net-(R2-Pad2)*%
X46920000Y-67100000D02*
X48021000Y-68201000D01*
X48021000Y-68201000D02*
X58139000Y-68201000D01*
X58139000Y-68201000D02*
X59240000Y-67100000D01*
%TO.N,Net-(J5-Pin_2)*%
X77115000Y-62590000D02*
X75106000Y-64599000D01*
X75106000Y-64599000D02*
X70769630Y-64599000D01*
X70769630Y-64599000D02*
X69400000Y-65968630D01*
X69400000Y-65968630D02*
X69400000Y-67100000D01*
%TO.N,GND*%
X71700000Y-70700000D02*
X72499999Y-71499999D01*
X72499999Y-71499999D02*
X78365001Y-71499999D01*
X78365001Y-71499999D02*
X79655000Y-70210000D01*
%TO.N,-12V*%
X64906400Y-54965448D02*
X69640952Y-59700000D01*
X69640952Y-59700000D02*
X82200000Y-59700000D01*
%TO.N,GND*%
X80756000Y-71311000D02*
X80756000Y-72790000D01*
X80756000Y-72790000D02*
X81806800Y-73840800D01*
X79655000Y-70210000D02*
X80756000Y-71311000D01*
X80756000Y-71311000D02*
X83634000Y-71311000D01*
X83634000Y-71311000D02*
X84735000Y-70210000D01*
%TO.N,12V*%
X82195000Y-70210000D02*
X77685000Y-65700000D01*
X77685000Y-65700000D02*
X71700000Y-65700000D01*
%TO.N,GND*%
X79655000Y-62590000D02*
X80756000Y-63691000D01*
X80756000Y-63691000D02*
X83634000Y-63691000D01*
X83634000Y-63691000D02*
X84735000Y-62590000D01*
X88236400Y-34899681D02*
X87035400Y-36100681D01*
X87035400Y-36100681D02*
X87035400Y-41519184D01*
X87035400Y-41519184D02*
X89308313Y-43792097D01*
X89308313Y-43792097D02*
X89308313Y-57591687D01*
X89308313Y-57591687D02*
X87200000Y-59700000D01*
%TO.N,-12V*%
X62406400Y-38965448D02*
X62406400Y-52465448D01*
X64928400Y-93900000D02*
X64928400Y-80400000D01*
X62406400Y-52465448D02*
X64906400Y-54965448D01*
X64950000Y-158455600D02*
X62450000Y-155955600D01*
X64928400Y-80400000D02*
X62428400Y-77900000D01*
X64950000Y-171955600D02*
X64950000Y-158455600D01*
%TO.N,12V*%
X72530000Y-169455600D02*
X70030000Y-171955600D01*
X70008400Y-80400000D02*
X70008400Y-93900000D01*
X69986400Y-41465448D02*
X69986400Y-54965448D01*
X72530000Y-155955600D02*
X72530000Y-169455600D01*
X72486400Y-38965448D02*
X69986400Y-41465448D01*
X72508400Y-77900000D02*
X70008400Y-80400000D01*
%TO.N,Net-(J5-Pin_2)*%
X44986400Y-54885448D02*
X44906400Y-54965448D01*
X44986400Y-38965448D02*
X44986400Y-54885448D01*
%TO.N,Net-(J6-Pin_2)*%
X67486400Y-38965448D02*
X67486400Y-54925448D01*
X67486400Y-54925448D02*
X67446400Y-54965448D01*
%TO.N,Net-(J8-Pin_1)*%
X27349200Y-78412800D02*
X22320000Y-73383600D01*
X27349200Y-84661200D02*
X27349200Y-78412800D01*
%TO.N,Net-(J9-Pin_2)*%
X45008400Y-93820000D02*
X44928400Y-93900000D01*
X45008400Y-77900000D02*
X45008400Y-93820000D01*
%TO.N,Net-(J12-Pin_1)*%
X27439200Y-117618000D02*
X22359200Y-112538000D01*
X27439200Y-123561600D02*
X27439200Y-117618000D01*
%TO.N,Net-(J16-Pin_1)*%
X22240000Y-157202138D02*
X22240000Y-151386000D01*
X27320000Y-162282138D02*
X22240000Y-157202138D01*
%TO.N,Net-(J17-Pin_2)*%
X45030000Y-155955600D02*
X45030000Y-171875600D01*
X45030000Y-171875600D02*
X44950000Y-171955600D01*
%TO.N,Net-(J18-Pin_2)*%
X67490000Y-155995600D02*
X67530000Y-155955600D01*
X67490000Y-171955600D02*
X67490000Y-155995600D01*
%TO.N,unconnected-(J5-Pin_1-Pad1)*%
X39906400Y-38965448D02*
X39906400Y-52505448D01*
X39906400Y-52505448D02*
X42366400Y-54965448D01*
%TO.N,unconnected-(J9-Pin_1-Pad1)*%
X39928400Y-77900000D02*
X39928400Y-91440000D01*
X39928400Y-91440000D02*
X42388400Y-93900000D01*
%TO.N,unconnected-(J17-Pin_1-Pad1)*%
X39950000Y-155955600D02*
X39950000Y-169495600D01*
X39950000Y-169495600D02*
X42410000Y-171955600D01*
%TO.N,GND*%
X81828400Y-151899000D02*
X88325800Y-151899000D01*
X81784800Y-34907448D02*
X88228633Y-34907448D01*
X88228633Y-34907448D02*
X88236400Y-34899681D01*
X81795200Y-112995200D02*
X88275126Y-112995200D01*
X88325800Y-151899000D02*
X88330800Y-151894000D01*
X88258400Y-73840800D02*
X81806800Y-73840800D01*
%TO.N,Net-(J5-Pin_3)*%
X47446400Y-41505448D02*
X47446400Y-54965448D01*
X49986400Y-38965448D02*
X47446400Y-41505448D01*
%TO.N,Net-(J9-Pin_3)*%
X47468400Y-80440000D02*
X47468400Y-93900000D01*
X50008400Y-77900000D02*
X47468400Y-80440000D01*
%TO.N,Net-(J17-Pin_3)*%
X50030000Y-155955600D02*
X47490000Y-158495600D01*
X47490000Y-158495600D02*
X47490000Y-171955600D01*
%TD*%
M02*
