M48
; DRILL file {KiCad 9.0.7} date 2026-02-08T19:18:29+1100
; FORMAT={-:-/ absolute / metric / decimal}
; #@! TF.CreationDate,2026-02-08T19:18:29+11:00
; #@! TF.GenerationSoftware,Kicad,Pcbnew,9.0.7
; #@! TF.FileFunction,Plated,1,2,PTH
FMAT,2
METRIC
; #@! TA.AperFunction,Plated,PTH,ComponentDrill
T1C0.800
; #@! TA.AperFunction,Plated,PTH,ComponentDrill
T2C0.900
; #@! TA.AperFunction,Plated,PTH,ComponentDrill
T3C1.000
; #@! TA.AperFunction,Plated,PTH,ComponentDrill
T4C1.200
; #@! TA.AperFunction,Plated,PTH,ComponentDrill
T5C6.000
%
G90
G05
T1
X22.2Y-135.8
X22.2Y-138.9
X22.2Y-142.0
X22.2Y-151.386
X22.22Y-145.1
X22.22Y-148.256
X22.3Y-63.5
X22.3Y-66.8
X22.3Y-70.1
X22.3Y-96.4
X22.3Y-99.6
X22.32Y-60.2
X22.32Y-73.384
X22.32Y-102.8
X22.32Y-106.0
X22.34Y-109.256
X22.359Y-112.538
X32.36Y-135.8
X32.36Y-138.9
X32.36Y-142.0
X32.36Y-151.386
X32.38Y-145.1
X32.38Y-148.256
X32.46Y-63.5
X32.46Y-66.8
X32.46Y-70.1
X32.46Y-96.4
X32.46Y-99.6
X32.48Y-60.2
X32.48Y-73.384
X32.48Y-102.8
X32.48Y-106.0
X32.5Y-109.256
X32.519Y-112.538
X34.64Y-67.1
X34.64Y-70.2
X34.72Y-109.2
X34.74Y-106.1
X34.8Y-145.2
X34.8Y-148.2
X38.54Y-31.3
X39.24Y-184.2
X44.8Y-67.1
X44.8Y-70.2
X44.88Y-109.2
X44.9Y-106.1
X44.96Y-145.2
X44.96Y-148.2
X46.92Y-67.1
X46.94Y-70.2
X47.04Y-106.1
X47.04Y-109.2
X47.12Y-145.2
X47.14Y-148.2
X48.7Y-31.3
X49.4Y-184.2
X51.12Y-31.3
X57.08Y-67.1
X57.1Y-70.2
X57.2Y-106.1
X57.2Y-109.2
X57.28Y-145.2
X57.3Y-148.2
X59.24Y-67.1
X59.24Y-70.2
X59.32Y-109.2
X59.34Y-106.1
X59.44Y-145.2
X59.44Y-148.2
X61.28Y-31.3
X62.42Y-184.2
X63.62Y-31.3
X69.4Y-67.1
X69.4Y-70.2
X69.48Y-109.2
X69.5Y-106.1
X69.6Y-145.2
X69.6Y-148.2
X71.7Y-65.6
X71.7Y-70.6
X71.8Y-104.7
X71.8Y-109.7
X71.9Y-143.7
X71.9Y-148.7
X72.58Y-184.2
X73.78Y-31.3
X74.575Y-62.59
X74.575Y-70.21
X74.6Y-101.68
X74.6Y-109.3
X74.775Y-140.69
X74.775Y-148.31
X77.115Y-62.59
X77.115Y-70.21
X77.14Y-101.68
X77.14Y-109.3
X77.315Y-140.69
X77.315Y-148.31
X79.655Y-62.59
X79.655Y-70.21
X79.68Y-101.68
X79.68Y-109.3
X79.855Y-140.69
X79.855Y-148.31
X82.195Y-62.59
X82.195Y-70.21
X82.2Y-59.7
X82.22Y-101.68
X82.22Y-109.3
X82.3Y-98.8
X82.395Y-140.69
X82.395Y-148.31
X82.4Y-137.9
X84.735Y-62.59
X84.735Y-70.21
X84.76Y-101.68
X84.76Y-109.3
X84.935Y-140.69
X84.935Y-148.31
X87.2Y-59.7
X87.275Y-62.59
X87.275Y-70.21
X87.3Y-98.8
X87.3Y-101.68
X87.3Y-109.3
X87.4Y-137.9
X87.475Y-140.69
X87.475Y-148.31
X89.815Y-62.59
X89.815Y-70.21
X89.84Y-101.68
X89.84Y-109.3
X90.015Y-140.69
X90.015Y-148.31
T2
X81.785Y-34.907
X81.785Y-37.447
X81.795Y-112.995
X81.795Y-115.535
X81.807Y-73.841
X81.807Y-76.381
X81.828Y-151.899
X81.828Y-154.439
X88.236Y-34.9
X88.236Y-37.44
X88.258Y-73.841
X88.258Y-76.381
X88.275Y-112.995
X88.275Y-115.535
X88.331Y-151.894
X88.331Y-154.434
T3
X35.56Y-22.16
X35.56Y-24.7
X38.1Y-22.16
X38.1Y-24.7
X40.64Y-22.16
X40.64Y-24.7
X42.366Y-54.965
X42.388Y-93.9
X42.41Y-171.956
X42.478Y-133.056
X44.906Y-54.965
X44.928Y-93.9
X44.95Y-171.956
X45.018Y-133.056
X47.446Y-54.965
X47.468Y-93.9
X47.49Y-171.956
X47.558Y-133.056
X53.386Y-22.107
X53.386Y-24.647
X55.926Y-22.107
X55.926Y-24.647
X58.466Y-22.107
X58.466Y-24.647
X64.906Y-54.965
X64.918Y-133.056
X64.928Y-93.9
X64.95Y-171.956
X67.446Y-54.965
X67.458Y-133.056
X67.468Y-93.9
X67.49Y-171.956
X69.986Y-54.965
X69.998Y-133.056
X70.008Y-93.9
X70.03Y-171.956
X71.86Y-22.107
X71.86Y-24.647
X74.4Y-22.107
X74.4Y-24.647
X76.94Y-22.107
X76.94Y-24.647
T4
X39.906Y-38.965
X39.928Y-77.9
X39.95Y-155.956
X40.018Y-117.056
X44.986Y-38.965
X45.008Y-77.9
X45.03Y-155.956
X45.098Y-117.056
X49.986Y-38.965
X50.008Y-77.9
X50.03Y-155.956
X50.098Y-117.056
X62.406Y-38.965
X62.428Y-77.9
X62.45Y-155.956
X62.518Y-117.056
X67.486Y-38.965
X67.508Y-77.9
X67.53Y-155.956
X67.598Y-117.056
X72.486Y-38.965
X72.508Y-77.9
X72.53Y-155.956
X72.598Y-117.056
T5
X27.276Y-45.271
X27.32Y-162.282
X27.349Y-84.661
X27.439Y-123.562
X85.007Y-84.56
X85.007Y-45.574
X85.048Y-123.653
X85.08Y-162.536
M30
