%TF.GenerationSoftware,KiCad,Pcbnew,9.0.6*%
%TF.CreationDate,2026-01-10T03:30:46+11:00*%
%TF.ProjectId,envelope-generator,656e7665-6c6f-4706-952d-67656e657261,rev?*%
%TF.SameCoordinates,Original*%
%TF.FileFunction,Soldermask,Top*%
%TF.FilePolarity,Negative*%
%FSLAX46Y46*%
G04 Gerber Fmt 4.6, Leading zero omitted, Abs format (unit mm)*
G04 Created by KiCad (PCBNEW 9.0.6) date 2026-01-10 03:30:46*
%MOMM*%
%LPD*%
G01*
G04 APERTURE LIST*
G04 Aperture macros list*
%AMRoundRect*
0 Rectangle with rounded corners*
0 $1 Rounding radius*
0 $2 $3 $4 $5 $6 $7 $8 $9 X,Y pos of 4 corners*
0 Add a 4 corners polygon primitive as box body*
4,1,4,$2,$3,$4,$5,$6,$7,$8,$9,$2,$3,0*
0 Add four circle primitives for the rounded corners*
1,1,$1+$1,$2,$3*
1,1,$1+$1,$4,$5*
1,1,$1+$1,$6,$7*
1,1,$1+$1,$8,$9*
0 Add four rect primitives between the rounded corners*
20,1,$1+$1,$2,$3,$4,$5,0*
20,1,$1+$1,$4,$5,$6,$7,0*
20,1,$1+$1,$6,$7,$8,$9,0*
20,1,$1+$1,$8,$9,$2,$3,0*%
G04 Aperture macros list end*
%ADD10RoundRect,0.250000X-0.650000X-0.650000X0.650000X-0.650000X0.650000X0.650000X-0.650000X0.650000X0*%
%ADD11C,1.800000*%
%ADD12C,1.700000*%
%ADD13RoundRect,0.250000X0.600000X-0.600000X0.600000X0.600000X-0.600000X0.600000X-0.600000X-0.600000X0*%
%ADD14RoundRect,0.250000X-0.650000X0.650000X-0.650000X-0.650000X0.650000X-0.650000X0.650000X0.650000X0*%
%ADD15C,1.600000*%
%ADD16R,1.700000X1.700000*%
%ADD17C,2.200000*%
%ADD18RoundRect,0.250000X-0.550000X-0.550000X0.550000X-0.550000X0.550000X0.550000X-0.550000X0.550000X0*%
%ADD19C,4.000000*%
%ADD20RoundRect,0.250000X0.650000X0.650000X-0.650000X0.650000X-0.650000X-0.650000X0.650000X-0.650000X0*%
%ADD21C,8.000000*%
%ADD22R,1.800000X1.800000*%
%ADD23O,3.750000X2.000000*%
G04 APERTURE END LIST*
D10*
%TO.C,D4*%
X66690000Y-69000000D03*
D11*
X74310000Y-69000000D03*
%TD*%
D12*
%TO.C,J1*%
X84929000Y-27151000D03*
X84929000Y-29691000D03*
X82389000Y-27151000D03*
X82389000Y-29691000D03*
X79849000Y-27151000D03*
D13*
X79849000Y-29691000D03*
%TD*%
D12*
%TO.C,J2*%
X108009000Y-27151000D03*
X108009000Y-29691000D03*
X105469000Y-27151000D03*
X105469000Y-29691000D03*
X102929000Y-27151000D03*
D13*
X102929000Y-29691000D03*
%TD*%
D11*
%TO.C,D2*%
X93000000Y-76620000D03*
D14*
X93000000Y-69000000D03*
%TD*%
D15*
%TO.C,C1*%
X114500000Y-38000000D03*
X119500000Y-38000000D03*
%TD*%
%TO.C,R3*%
X111920000Y-41500000D03*
X122080000Y-41500000D03*
%TD*%
%TO.C,R2*%
X96920000Y-69000000D03*
X107080000Y-69000000D03*
%TD*%
%TO.C,R1*%
X99080000Y-35500000D03*
X88920000Y-35500000D03*
%TD*%
D12*
%TO.C,RV2*%
X101590000Y-59500000D03*
X99050000Y-59500000D03*
D16*
X96510000Y-59500000D03*
D17*
X107600000Y-40000000D03*
X90550000Y-40000000D03*
%TD*%
D15*
%TO.C,R4*%
X78420000Y-69000000D03*
X88580000Y-69000000D03*
%TD*%
%TO.C,U1*%
X121310000Y-73040000D03*
X121310000Y-75580000D03*
X121310000Y-78120000D03*
X121310000Y-80660000D03*
X113690000Y-80660000D03*
X113690000Y-78120000D03*
X113690000Y-75580000D03*
D18*
X113690000Y-73040000D03*
%TD*%
D15*
%TO.C,C7*%
X121310000Y-70080000D03*
X116310000Y-70080000D03*
%TD*%
%TO.C,C8*%
X118691655Y-83619448D03*
X113691655Y-83619448D03*
%TD*%
D12*
%TO.C,SW1*%
X68500000Y-85580000D03*
D19*
X73580000Y-85580000D03*
D12*
X78660000Y-85580000D03*
D17*
X76120000Y-80500000D03*
X69770000Y-83040000D03*
%TD*%
D15*
%TO.C,R8*%
X98500000Y-76420000D03*
X98500000Y-86580000D03*
%TD*%
%TO.C,R6*%
X85000000Y-80080000D03*
X95160000Y-80080000D03*
%TD*%
%TO.C,R9*%
X110000000Y-86660000D03*
X110000000Y-76500000D03*
%TD*%
D11*
%TO.C,D6*%
X106111280Y-72930719D03*
D10*
X98491280Y-72930719D03*
%TD*%
D15*
%TO.C,C2*%
X101719351Y-76559953D03*
X106719351Y-76559953D03*
%TD*%
%TO.C,R5*%
X88580000Y-73500000D03*
X78420000Y-73500000D03*
%TD*%
D11*
%TO.C,D3*%
X66690000Y-73500000D03*
D20*
X74310000Y-73500000D03*
%TD*%
D15*
%TO.C,R7*%
X85000000Y-83580000D03*
X95160000Y-83580000D03*
%TD*%
D11*
%TO.C,D1*%
X115000000Y-86580000D03*
D20*
X122620000Y-86580000D03*
%TD*%
D16*
%TO.C,J3*%
X94050000Y-43500000D03*
D12*
X99130000Y-43500000D03*
X104130000Y-43500000D03*
%TD*%
D21*
%TO.C,J7*%
X104000000Y-92580000D03*
%TD*%
D16*
%TO.C,J4*%
X71050000Y-43500000D03*
D12*
X76130000Y-43500000D03*
X81130000Y-43500000D03*
%TD*%
D22*
%TO.C,D5*%
X105500000Y-82080000D03*
D11*
X102960000Y-82080000D03*
%TD*%
D21*
%TO.C,J5*%
X90500000Y-92580000D03*
%TD*%
D17*
%TO.C,RV1*%
X67500000Y-40000000D03*
X84550000Y-40000000D03*
D16*
X73460000Y-59500000D03*
D12*
X76000000Y-59500000D03*
X78540000Y-59500000D03*
%TD*%
D23*
%TO.C,SW2*%
X114500000Y-59500000D03*
X114500000Y-55000000D03*
X114500000Y-50500000D03*
X119500000Y-59500000D03*
X119500000Y-55000000D03*
X119500000Y-50500000D03*
%TD*%
M02*
