%TF.GenerationSoftware,KiCad,Pcbnew,9.0.6*%
%TF.CreationDate,2026-01-10T02:10:08+11:00*%
%TF.ProjectId,envelope-generator,656e7665-6c6f-4706-952d-67656e657261,rev?*%
%TF.SameCoordinates,Original*%
%TF.FileFunction,Soldermask,Bot*%
%TF.FilePolarity,Negative*%
%FSLAX46Y46*%
G04 Gerber Fmt 4.6, Leading zero omitted, Abs format (unit mm)*
G04 Created by KiCad (PCBNEW 9.0.6) date 2026-01-10 02:10:08*
%MOMM*%
%LPD*%
G01*
G04 APERTURE LIST*
G04 Aperture macros list*
%AMRoundRect*
0 Rectangle with rounded corners*
0 $1 Rounding radius*
0 $2 $3 $4 $5 $6 $7 $8 $9 X,Y pos of 4 corners*
0 Add a 4 corners polygon primitive as box body*
4,1,4,$2,$3,$4,$5,$6,$7,$8,$9,$2,$3,0*
0 Add four circle primitives for the rounded corners*
1,1,$1+$1,$2,$3*
1,1,$1+$1,$4,$5*
1,1,$1+$1,$6,$7*
1,1,$1+$1,$8,$9*
0 Add four rect primitives between the rounded corners*
20,1,$1+$1,$2,$3,$4,$5,0*
20,1,$1+$1,$4,$5,$6,$7,0*
20,1,$1+$1,$6,$7,$8,$9,0*
20,1,$1+$1,$8,$9,$2,$3,0*%
G04 Aperture macros list end*
%ADD10RoundRect,0.250000X-0.650000X-0.650000X0.650000X-0.650000X0.650000X0.650000X-0.650000X0.650000X0*%
%ADD11C,1.800000*%
%ADD12RoundRect,0.250000X0.650000X-0.650000X0.650000X0.650000X-0.650000X0.650000X-0.650000X-0.650000X0*%
%ADD13R,1.700000X1.700000*%
%ADD14C,1.700000*%
%ADD15C,1.600000*%
%ADD16RoundRect,0.250000X-0.650000X0.650000X-0.650000X-0.650000X0.650000X-0.650000X0.650000X0.650000X0*%
%ADD17C,8.000000*%
%ADD18RoundRect,0.250000X0.600000X-0.600000X0.600000X0.600000X-0.600000X0.600000X-0.600000X-0.600000X0*%
%ADD19R,1.800000X1.800000*%
%ADD20C,2.200000*%
%ADD21O,3.750000X2.000000*%
%ADD22O,3.500000X2.000000*%
%ADD23RoundRect,0.250000X0.550000X0.550000X-0.550000X0.550000X-0.550000X-0.550000X0.550000X-0.550000X0*%
G04 APERTURE END LIST*
D10*
%TO.C,D1*%
X110190000Y-82000000D03*
D11*
X117810000Y-82000000D03*
%TD*%
D12*
%TO.C,D2*%
X121500000Y-70620000D03*
D11*
X121500000Y-63000000D03*
%TD*%
D13*
%TO.C,J3*%
X94050000Y-43500000D03*
D14*
X99130000Y-43500000D03*
X104130000Y-43500000D03*
%TD*%
D15*
%TO.C,R6*%
X93080000Y-82000000D03*
X82920000Y-82000000D03*
%TD*%
%TO.C,R5*%
X103000000Y-68840000D03*
X103000000Y-79000000D03*
%TD*%
%TO.C,C2*%
X77000000Y-71500000D03*
X77000000Y-76500000D03*
%TD*%
%TO.C,R8*%
X72350412Y-68840000D03*
X72350412Y-79000000D03*
%TD*%
D16*
%TO.C,D3*%
X86685950Y-69615537D03*
D11*
X86685950Y-77235537D03*
%TD*%
D17*
%TO.C,J7*%
X104000000Y-90024938D03*
%TD*%
D15*
%TO.C,R3*%
X112500000Y-63000000D03*
X112500000Y-73160000D03*
%TD*%
D13*
%TO.C,J4*%
X71050000Y-43500000D03*
D14*
X76130000Y-43500000D03*
X81130000Y-43500000D03*
%TD*%
D12*
%TO.C,D4*%
X81890955Y-77221157D03*
D11*
X81890955Y-69601157D03*
%TD*%
D18*
%TO.C,J2*%
X103000000Y-32040000D03*
D14*
X103000000Y-29500000D03*
X105540000Y-32040000D03*
X105540000Y-29500000D03*
X108080000Y-32040000D03*
X108080000Y-29500000D03*
%TD*%
D18*
%TO.C,J1*%
X79920000Y-32040000D03*
D14*
X79920000Y-29500000D03*
X82460000Y-32040000D03*
X82460000Y-29500000D03*
X85000000Y-32040000D03*
X85000000Y-29500000D03*
%TD*%
D19*
%TO.C,D5*%
X95000000Y-96000000D03*
D11*
X92460000Y-96000000D03*
%TD*%
D15*
%TO.C,R4*%
X108000000Y-79080000D03*
X108000000Y-68920000D03*
%TD*%
D20*
%TO.C,RV2*%
X90550000Y-40000000D03*
X107600000Y-40000000D03*
D13*
X96510000Y-59500000D03*
D14*
X99050000Y-59500000D03*
X101590000Y-59500000D03*
%TD*%
D15*
%TO.C,R2*%
X121500000Y-73920000D03*
X121500000Y-84080000D03*
%TD*%
%TO.C,C1*%
X117500000Y-77000000D03*
X112500000Y-77000000D03*
%TD*%
%TO.C,R1*%
X117000000Y-63000000D03*
X117000000Y-73160000D03*
%TD*%
D17*
%TO.C,J5*%
X84000000Y-90024938D03*
%TD*%
D20*
%TO.C,RV1*%
X67500000Y-40000000D03*
X84550000Y-40000000D03*
D13*
X73460000Y-59500000D03*
D14*
X76000000Y-59500000D03*
X78540000Y-59500000D03*
%TD*%
D21*
%TO.C,SW2*%
X114500000Y-54000000D03*
X114500000Y-49500000D03*
X114500000Y-45000000D03*
X119500000Y-54000000D03*
X119500000Y-49500000D03*
X119500000Y-45000000D03*
%TD*%
D22*
%TO.C,SW1*%
X94000000Y-89500000D03*
X94000000Y-86000000D03*
%TD*%
D15*
%TO.C,R7*%
X107000000Y-82000000D03*
X96840000Y-82000000D03*
%TD*%
D10*
%TO.C,D6*%
X72190000Y-82000000D03*
D11*
X79810000Y-82000000D03*
%TD*%
D23*
%TO.C,U1*%
X98620000Y-77000000D03*
D15*
X98620000Y-74460000D03*
X98620000Y-71920000D03*
X98620000Y-69380000D03*
X91000000Y-69380000D03*
X91000000Y-71920000D03*
X91000000Y-74460000D03*
X91000000Y-77000000D03*
%TD*%
%TO.C,R9*%
X68000000Y-79160000D03*
X68000000Y-69000000D03*
%TD*%
M02*
