%TF.GenerationSoftware,KiCad,Pcbnew,9.0.6*%
%TF.CreationDate,2025-12-28T22:49:17+11:00*%
%TF.ProjectId,envelope-generator,656e7665-6c6f-4706-952d-67656e657261,rev?*%
%TF.SameCoordinates,Original*%
%TF.FileFunction,Legend,Bot*%
%TF.FilePolarity,Positive*%
%FSLAX46Y46*%
G04 Gerber Fmt 4.6, Leading zero omitted, Abs format (unit mm)*
G04 Created by KiCad (PCBNEW 9.0.6) date 2025-12-28 22:49:17*
%MOMM*%
%LPD*%
G01*
G04 APERTURE LIST*
%ADD10C,0.100000*%
G04 APERTURE END LIST*
D10*
X71833333Y-91433609D02*
X72166666Y-91433609D01*
X72166666Y-91957419D02*
X72166666Y-90957419D01*
X72166666Y-90957419D02*
X71690476Y-90957419D01*
X70880952Y-91290752D02*
X70880952Y-91957419D01*
X71119047Y-90909800D02*
X71357142Y-91624085D01*
X71357142Y-91624085D02*
X70738095Y-91624085D01*
X116833333Y-91433609D02*
X117166666Y-91433609D01*
X117166666Y-91957419D02*
X117166666Y-90957419D01*
X117166666Y-90957419D02*
X116690476Y-90957419D01*
X116404761Y-90957419D02*
X115785714Y-90957419D01*
X115785714Y-90957419D02*
X116119047Y-91338371D01*
X116119047Y-91338371D02*
X115976190Y-91338371D01*
X115976190Y-91338371D02*
X115880952Y-91385990D01*
X115880952Y-91385990D02*
X115833333Y-91433609D01*
X115833333Y-91433609D02*
X115785714Y-91528847D01*
X115785714Y-91528847D02*
X115785714Y-91766942D01*
X115785714Y-91766942D02*
X115833333Y-91862180D01*
X115833333Y-91862180D02*
X115880952Y-91909800D01*
X115880952Y-91909800D02*
X115976190Y-91957419D01*
X115976190Y-91957419D02*
X116261904Y-91957419D01*
X116261904Y-91957419D02*
X116357142Y-91909800D01*
X116357142Y-91909800D02*
X116404761Y-91862180D01*
X71833333Y-29433609D02*
X72166666Y-29433609D01*
X72166666Y-29957419D02*
X72166666Y-28957419D01*
X72166666Y-28957419D02*
X71690476Y-28957419D01*
X71357142Y-29052657D02*
X71309523Y-29005038D01*
X71309523Y-29005038D02*
X71214285Y-28957419D01*
X71214285Y-28957419D02*
X70976190Y-28957419D01*
X70976190Y-28957419D02*
X70880952Y-29005038D01*
X70880952Y-29005038D02*
X70833333Y-29052657D01*
X70833333Y-29052657D02*
X70785714Y-29147895D01*
X70785714Y-29147895D02*
X70785714Y-29243133D01*
X70785714Y-29243133D02*
X70833333Y-29385990D01*
X70833333Y-29385990D02*
X71404761Y-29957419D01*
X71404761Y-29957419D02*
X70785714Y-29957419D01*
X116833333Y-29433609D02*
X117166666Y-29433609D01*
X117166666Y-29957419D02*
X117166666Y-28957419D01*
X117166666Y-28957419D02*
X116690476Y-28957419D01*
X115785714Y-29957419D02*
X116357142Y-29957419D01*
X116071428Y-29957419D02*
X116071428Y-28957419D01*
X116071428Y-28957419D02*
X116166666Y-29100276D01*
X116166666Y-29100276D02*
X116261904Y-29195514D01*
X116261904Y-29195514D02*
X116357142Y-29243133D01*
%TO.C,F4*%
X78000000Y-85500000D02*
X65000000Y-85500000D01*
X65000000Y-99000000D01*
X78000000Y-99000000D01*
X78000000Y-85500000D01*
%TO.C,F3*%
X123000000Y-85500000D02*
X110000000Y-85500000D01*
X110000000Y-99000000D01*
X123000000Y-99000000D01*
X123000000Y-85500000D01*
%TO.C,F2*%
X78000000Y-23500000D02*
X65000000Y-23500000D01*
X65000000Y-37000000D01*
X78000000Y-37000000D01*
X78000000Y-23500000D01*
%TO.C,F1*%
X123000000Y-23500000D02*
X110000000Y-23500000D01*
X110000000Y-37000000D01*
X123000000Y-37000000D01*
X123000000Y-23500000D01*
%TD*%
M02*
