M48
; DRILL file {KiCad 9.0.6} date 2026-01-10T02:10:10+1100
; FORMAT={-:-/ absolute / metric / decimal}
; #@! TF.CreationDate,2026-01-10T02:10:10+11:00
; #@! TF.GenerationSoftware,Kicad,Pcbnew,9.0.6
; #@! TF.FileFunction,Plated,1,2,PTH
FMAT,2
METRIC
; #@! TA.AperFunction,Plated,PTH,ComponentDrill
T1C0.800
; #@! TA.AperFunction,Plated,PTH,ComponentDrill
T2C0.900
; #@! TA.AperFunction,Plated,PTH,ComponentDrill
T3C1.000
; #@! TA.AperFunction,Plated,PTH,ComponentDrill
T4C6.000
%
G90
G05
T1
X68.0Y-69.0
X68.0Y-79.16
X72.35Y-68.84
X72.35Y-79.0
X77.0Y-71.5
X77.0Y-76.5
X82.92Y-82.0
X91.0Y-69.38
X91.0Y-71.92
X91.0Y-74.46
X91.0Y-77.0
X93.08Y-82.0
X96.84Y-82.0
X98.62Y-69.38
X98.62Y-71.92
X98.62Y-74.46
X98.62Y-77.0
X103.0Y-68.84
X103.0Y-79.0
X107.0Y-82.0
X108.0Y-68.92
X108.0Y-79.08
X112.5Y-63.0
X112.5Y-73.16
X112.5Y-77.0
X117.0Y-63.0
X117.0Y-73.16
X117.5Y-77.0
X121.5Y-73.92
X121.5Y-84.08
T2
X72.19Y-82.0
X79.81Y-82.0
X81.891Y-69.601
X81.891Y-77.221
X86.686Y-69.616
X86.686Y-77.236
X92.46Y-96.0
X95.0Y-96.0
X110.19Y-82.0
X117.81Y-82.0
X121.5Y-63.0
X121.5Y-70.62
T3
X71.05Y-43.5
X73.46Y-59.5
X76.0Y-59.5
X76.13Y-43.5
X78.54Y-59.5
X79.92Y-29.5
X79.92Y-32.04
X81.13Y-43.5
X82.46Y-29.5
X82.46Y-32.04
X85.0Y-29.5
X85.0Y-32.04
X94.05Y-43.5
X96.51Y-59.5
X99.05Y-59.5
X99.13Y-43.5
X101.59Y-59.5
X103.0Y-29.5
X103.0Y-32.04
X104.13Y-43.5
X105.54Y-29.5
X105.54Y-32.04
X108.08Y-29.5
X108.08Y-32.04
T4
X84.0Y-90.025
X104.0Y-90.025
T3
G00X93.25Y-86.0
M15
G01X94.75Y-86.0
M16
G05
G00X93.25Y-89.5
M15
G01X94.75Y-89.5
M16
G05
G00X113.625Y-45.0
M15
G01X115.375Y-45.0
M16
G05
G00X113.625Y-49.5
M15
G01X115.375Y-49.5
M16
G05
G00X113.625Y-54.0
M15
G01X115.375Y-54.0
M16
G05
G00X118.625Y-45.0
M15
G01X120.375Y-45.0
M16
G05
G00X118.625Y-49.5
M15
G01X120.375Y-49.5
M16
G05
G00X118.625Y-54.0
M15
G01X120.375Y-54.0
M16
G05
M30
