%TF.GenerationSoftware,KiCad,Pcbnew,9.0.6*%
%TF.CreationDate,2026-01-10T03:30:46+11:00*%
%TF.ProjectId,envelope-generator,656e7665-6c6f-4706-952d-67656e657261,rev?*%
%TF.SameCoordinates,Original*%
%TF.FileFunction,Legend,Top*%
%TF.FilePolarity,Positive*%
%FSLAX46Y46*%
G04 Gerber Fmt 4.6, Leading zero omitted, Abs format (unit mm)*
G04 Created by KiCad (PCBNEW 9.0.6) date 2026-01-10 03:30:46*
%MOMM*%
%LPD*%
G01*
G04 APERTURE LIST*
%ADD10C,0.300000*%
%ADD11C,0.150000*%
%ADD12C,0.100000*%
%ADD13C,0.120000*%
G04 APERTURE END LIST*
D10*
X90911653Y-66300828D02*
X90411653Y-65586542D01*
X90054510Y-66300828D02*
X90054510Y-64800828D01*
X90054510Y-64800828D02*
X90625939Y-64800828D01*
X90625939Y-64800828D02*
X90768796Y-64872257D01*
X90768796Y-64872257D02*
X90840225Y-64943685D01*
X90840225Y-64943685D02*
X90911653Y-65086542D01*
X90911653Y-65086542D02*
X90911653Y-65300828D01*
X90911653Y-65300828D02*
X90840225Y-65443685D01*
X90840225Y-65443685D02*
X90768796Y-65515114D01*
X90768796Y-65515114D02*
X90625939Y-65586542D01*
X90625939Y-65586542D02*
X90054510Y-65586542D01*
X91554510Y-65515114D02*
X92054510Y-65515114D01*
X92268796Y-66300828D02*
X91554510Y-66300828D01*
X91554510Y-66300828D02*
X91554510Y-64800828D01*
X91554510Y-64800828D02*
X92268796Y-64800828D01*
X93625939Y-66300828D02*
X92911653Y-66300828D01*
X92911653Y-66300828D02*
X92911653Y-64800828D01*
X94125939Y-65515114D02*
X94625939Y-65515114D01*
X94840225Y-66300828D02*
X94125939Y-66300828D01*
X94125939Y-66300828D02*
X94125939Y-64800828D01*
X94125939Y-64800828D02*
X94840225Y-64800828D01*
X95411654Y-65872257D02*
X96125940Y-65872257D01*
X95268797Y-66300828D02*
X95768797Y-64800828D01*
X95768797Y-64800828D02*
X96268797Y-66300828D01*
X96697368Y-66229400D02*
X96911654Y-66300828D01*
X96911654Y-66300828D02*
X97268796Y-66300828D01*
X97268796Y-66300828D02*
X97411654Y-66229400D01*
X97411654Y-66229400D02*
X97483082Y-66157971D01*
X97483082Y-66157971D02*
X97554511Y-66015114D01*
X97554511Y-66015114D02*
X97554511Y-65872257D01*
X97554511Y-65872257D02*
X97483082Y-65729400D01*
X97483082Y-65729400D02*
X97411654Y-65657971D01*
X97411654Y-65657971D02*
X97268796Y-65586542D01*
X97268796Y-65586542D02*
X96983082Y-65515114D01*
X96983082Y-65515114D02*
X96840225Y-65443685D01*
X96840225Y-65443685D02*
X96768796Y-65372257D01*
X96768796Y-65372257D02*
X96697368Y-65229400D01*
X96697368Y-65229400D02*
X96697368Y-65086542D01*
X96697368Y-65086542D02*
X96768796Y-64943685D01*
X96768796Y-64943685D02*
X96840225Y-64872257D01*
X96840225Y-64872257D02*
X96983082Y-64800828D01*
X96983082Y-64800828D02*
X97340225Y-64800828D01*
X97340225Y-64800828D02*
X97554511Y-64872257D01*
X98197367Y-65515114D02*
X98697367Y-65515114D01*
X98911653Y-66300828D02*
X98197367Y-66300828D01*
X98197367Y-66300828D02*
X98197367Y-64800828D01*
X98197367Y-64800828D02*
X98911653Y-64800828D01*
X100625939Y-64729400D02*
X99340225Y-66657971D01*
X101125939Y-66300828D02*
X101125939Y-64800828D01*
X101125939Y-64800828D02*
X101483082Y-64800828D01*
X101483082Y-64800828D02*
X101697368Y-64872257D01*
X101697368Y-64872257D02*
X101840225Y-65015114D01*
X101840225Y-65015114D02*
X101911654Y-65157971D01*
X101911654Y-65157971D02*
X101983082Y-65443685D01*
X101983082Y-65443685D02*
X101983082Y-65657971D01*
X101983082Y-65657971D02*
X101911654Y-65943685D01*
X101911654Y-65943685D02*
X101840225Y-66086542D01*
X101840225Y-66086542D02*
X101697368Y-66229400D01*
X101697368Y-66229400D02*
X101483082Y-66300828D01*
X101483082Y-66300828D02*
X101125939Y-66300828D01*
X102625939Y-65515114D02*
X103125939Y-65515114D01*
X103340225Y-66300828D02*
X102625939Y-66300828D01*
X102625939Y-66300828D02*
X102625939Y-64800828D01*
X102625939Y-64800828D02*
X103340225Y-64800828D01*
X104840225Y-66157971D02*
X104768797Y-66229400D01*
X104768797Y-66229400D02*
X104554511Y-66300828D01*
X104554511Y-66300828D02*
X104411654Y-66300828D01*
X104411654Y-66300828D02*
X104197368Y-66229400D01*
X104197368Y-66229400D02*
X104054511Y-66086542D01*
X104054511Y-66086542D02*
X103983082Y-65943685D01*
X103983082Y-65943685D02*
X103911654Y-65657971D01*
X103911654Y-65657971D02*
X103911654Y-65443685D01*
X103911654Y-65443685D02*
X103983082Y-65157971D01*
X103983082Y-65157971D02*
X104054511Y-65015114D01*
X104054511Y-65015114D02*
X104197368Y-64872257D01*
X104197368Y-64872257D02*
X104411654Y-64800828D01*
X104411654Y-64800828D02*
X104554511Y-64800828D01*
X104554511Y-64800828D02*
X104768797Y-64872257D01*
X104768797Y-64872257D02*
X104840225Y-64943685D01*
X105411654Y-65872257D02*
X106125940Y-65872257D01*
X105268797Y-66300828D02*
X105768797Y-64800828D01*
X105768797Y-64800828D02*
X106268797Y-66300828D01*
X107054511Y-65586542D02*
X107054511Y-66300828D01*
X106554511Y-64800828D02*
X107054511Y-65586542D01*
X107054511Y-65586542D02*
X107554511Y-64800828D01*
X113554510Y-66300828D02*
X113554510Y-64800828D01*
X113554510Y-64800828D02*
X113911653Y-64800828D01*
X113911653Y-64800828D02*
X114125939Y-64872257D01*
X114125939Y-64872257D02*
X114268796Y-65015114D01*
X114268796Y-65015114D02*
X114340225Y-65157971D01*
X114340225Y-65157971D02*
X114411653Y-65443685D01*
X114411653Y-65443685D02*
X114411653Y-65657971D01*
X114411653Y-65657971D02*
X114340225Y-65943685D01*
X114340225Y-65943685D02*
X114268796Y-66086542D01*
X114268796Y-66086542D02*
X114125939Y-66229400D01*
X114125939Y-66229400D02*
X113911653Y-66300828D01*
X113911653Y-66300828D02*
X113554510Y-66300828D01*
X115054510Y-65515114D02*
X115554510Y-65515114D01*
X115768796Y-66300828D02*
X115054510Y-66300828D01*
X115054510Y-66300828D02*
X115054510Y-64800828D01*
X115054510Y-64800828D02*
X115768796Y-64800828D01*
X117268796Y-66157971D02*
X117197368Y-66229400D01*
X117197368Y-66229400D02*
X116983082Y-66300828D01*
X116983082Y-66300828D02*
X116840225Y-66300828D01*
X116840225Y-66300828D02*
X116625939Y-66229400D01*
X116625939Y-66229400D02*
X116483082Y-66086542D01*
X116483082Y-66086542D02*
X116411653Y-65943685D01*
X116411653Y-65943685D02*
X116340225Y-65657971D01*
X116340225Y-65657971D02*
X116340225Y-65443685D01*
X116340225Y-65443685D02*
X116411653Y-65157971D01*
X116411653Y-65157971D02*
X116483082Y-65015114D01*
X116483082Y-65015114D02*
X116625939Y-64872257D01*
X116625939Y-64872257D02*
X116840225Y-64800828D01*
X116840225Y-64800828D02*
X116983082Y-64800828D01*
X116983082Y-64800828D02*
X117197368Y-64872257D01*
X117197368Y-64872257D02*
X117268796Y-64943685D01*
X117840225Y-65872257D02*
X118554511Y-65872257D01*
X117697368Y-66300828D02*
X118197368Y-64800828D01*
X118197368Y-64800828D02*
X118697368Y-66300828D01*
X119483082Y-65586542D02*
X119483082Y-66300828D01*
X118983082Y-64800828D02*
X119483082Y-65586542D01*
X119483082Y-65586542D02*
X119983082Y-64800828D01*
X72340225Y-93952257D02*
X72197368Y-93880828D01*
X72197368Y-93880828D02*
X71983082Y-93880828D01*
X71983082Y-93880828D02*
X71768796Y-93952257D01*
X71768796Y-93952257D02*
X71625939Y-94095114D01*
X71625939Y-94095114D02*
X71554510Y-94237971D01*
X71554510Y-94237971D02*
X71483082Y-94523685D01*
X71483082Y-94523685D02*
X71483082Y-94737971D01*
X71483082Y-94737971D02*
X71554510Y-95023685D01*
X71554510Y-95023685D02*
X71625939Y-95166542D01*
X71625939Y-95166542D02*
X71768796Y-95309400D01*
X71768796Y-95309400D02*
X71983082Y-95380828D01*
X71983082Y-95380828D02*
X72125939Y-95380828D01*
X72125939Y-95380828D02*
X72340225Y-95309400D01*
X72340225Y-95309400D02*
X72411653Y-95237971D01*
X72411653Y-95237971D02*
X72411653Y-94737971D01*
X72411653Y-94737971D02*
X72125939Y-94737971D01*
X72983082Y-94952257D02*
X73697368Y-94952257D01*
X72840225Y-95380828D02*
X73340225Y-93880828D01*
X73340225Y-93880828D02*
X73840225Y-95380828D01*
X74125939Y-93880828D02*
X74983082Y-93880828D01*
X74554510Y-95380828D02*
X74554510Y-93880828D01*
X75483081Y-94595114D02*
X75983081Y-94595114D01*
X76197367Y-95380828D02*
X75483081Y-95380828D01*
X75483081Y-95380828D02*
X75483081Y-93880828D01*
X75483081Y-93880828D02*
X76197367Y-93880828D01*
X72483082Y-65872257D02*
X73197368Y-65872257D01*
X72340225Y-66300828D02*
X72840225Y-64800828D01*
X72840225Y-64800828D02*
X73340225Y-66300828D01*
X73625939Y-64800828D02*
X74483082Y-64800828D01*
X74054510Y-66300828D02*
X74054510Y-64800828D01*
X74768796Y-64800828D02*
X75625939Y-64800828D01*
X75197367Y-66300828D02*
X75197367Y-64800828D01*
X76054510Y-65872257D02*
X76768796Y-65872257D01*
X75911653Y-66300828D02*
X76411653Y-64800828D01*
X76411653Y-64800828D02*
X76911653Y-66300828D01*
X78268795Y-66157971D02*
X78197367Y-66229400D01*
X78197367Y-66229400D02*
X77983081Y-66300828D01*
X77983081Y-66300828D02*
X77840224Y-66300828D01*
X77840224Y-66300828D02*
X77625938Y-66229400D01*
X77625938Y-66229400D02*
X77483081Y-66086542D01*
X77483081Y-66086542D02*
X77411652Y-65943685D01*
X77411652Y-65943685D02*
X77340224Y-65657971D01*
X77340224Y-65657971D02*
X77340224Y-65443685D01*
X77340224Y-65443685D02*
X77411652Y-65157971D01*
X77411652Y-65157971D02*
X77483081Y-65015114D01*
X77483081Y-65015114D02*
X77625938Y-64872257D01*
X77625938Y-64872257D02*
X77840224Y-64800828D01*
X77840224Y-64800828D02*
X77983081Y-64800828D01*
X77983081Y-64800828D02*
X78197367Y-64872257D01*
X78197367Y-64872257D02*
X78268795Y-64943685D01*
X78911652Y-66300828D02*
X78911652Y-64800828D01*
X79768795Y-66300828D02*
X79125938Y-65443685D01*
X79768795Y-64800828D02*
X78911652Y-65657971D01*
X114983082Y-45372257D02*
X115697368Y-45372257D01*
X114840225Y-45800828D02*
X115340225Y-44300828D01*
X115340225Y-44300828D02*
X115840225Y-45800828D01*
X117411653Y-44229400D02*
X116125939Y-46157971D01*
X118768796Y-45800828D02*
X118268796Y-45086542D01*
X117911653Y-45800828D02*
X117911653Y-44300828D01*
X117911653Y-44300828D02*
X118483082Y-44300828D01*
X118483082Y-44300828D02*
X118625939Y-44372257D01*
X118625939Y-44372257D02*
X118697368Y-44443685D01*
X118697368Y-44443685D02*
X118768796Y-44586542D01*
X118768796Y-44586542D02*
X118768796Y-44800828D01*
X118768796Y-44800828D02*
X118697368Y-44943685D01*
X118697368Y-44943685D02*
X118625939Y-45015114D01*
X118625939Y-45015114D02*
X118483082Y-45086542D01*
X118483082Y-45086542D02*
X117911653Y-45086542D01*
D11*
X65500000Y-97401065D02*
X65833333Y-97401065D01*
X65976190Y-97924875D02*
X65500000Y-97924875D01*
X65500000Y-97924875D02*
X65500000Y-96924875D01*
X65500000Y-96924875D02*
X65976190Y-96924875D01*
X66404762Y-97924875D02*
X66404762Y-96924875D01*
X66404762Y-96924875D02*
X66976190Y-97924875D01*
X66976190Y-97924875D02*
X66976190Y-96924875D01*
X67309524Y-96924875D02*
X67642857Y-97924875D01*
X67642857Y-97924875D02*
X67976190Y-96924875D01*
X68309524Y-97401065D02*
X68642857Y-97401065D01*
X68785714Y-97924875D02*
X68309524Y-97924875D01*
X68309524Y-97924875D02*
X68309524Y-96924875D01*
X68309524Y-96924875D02*
X68785714Y-96924875D01*
X69690476Y-97924875D02*
X69214286Y-97924875D01*
X69214286Y-97924875D02*
X69214286Y-96924875D01*
X70214286Y-96924875D02*
X70404762Y-96924875D01*
X70404762Y-96924875D02*
X70500000Y-96972494D01*
X70500000Y-96972494D02*
X70595238Y-97067732D01*
X70595238Y-97067732D02*
X70642857Y-97258208D01*
X70642857Y-97258208D02*
X70642857Y-97591541D01*
X70642857Y-97591541D02*
X70595238Y-97782017D01*
X70595238Y-97782017D02*
X70500000Y-97877256D01*
X70500000Y-97877256D02*
X70404762Y-97924875D01*
X70404762Y-97924875D02*
X70214286Y-97924875D01*
X70214286Y-97924875D02*
X70119048Y-97877256D01*
X70119048Y-97877256D02*
X70023810Y-97782017D01*
X70023810Y-97782017D02*
X69976191Y-97591541D01*
X69976191Y-97591541D02*
X69976191Y-97258208D01*
X69976191Y-97258208D02*
X70023810Y-97067732D01*
X70023810Y-97067732D02*
X70119048Y-96972494D01*
X70119048Y-96972494D02*
X70214286Y-96924875D01*
X71071429Y-97924875D02*
X71071429Y-96924875D01*
X71071429Y-96924875D02*
X71452381Y-96924875D01*
X71452381Y-96924875D02*
X71547619Y-96972494D01*
X71547619Y-96972494D02*
X71595238Y-97020113D01*
X71595238Y-97020113D02*
X71642857Y-97115351D01*
X71642857Y-97115351D02*
X71642857Y-97258208D01*
X71642857Y-97258208D02*
X71595238Y-97353446D01*
X71595238Y-97353446D02*
X71547619Y-97401065D01*
X71547619Y-97401065D02*
X71452381Y-97448684D01*
X71452381Y-97448684D02*
X71071429Y-97448684D01*
X72071429Y-97401065D02*
X72404762Y-97401065D01*
X72547619Y-97924875D02*
X72071429Y-97924875D01*
X72071429Y-97924875D02*
X72071429Y-96924875D01*
X72071429Y-96924875D02*
X72547619Y-96924875D01*
X65499999Y-98582438D02*
X65404761Y-98534819D01*
X65404761Y-98534819D02*
X65261904Y-98534819D01*
X65261904Y-98534819D02*
X65119047Y-98582438D01*
X65119047Y-98582438D02*
X65023809Y-98677676D01*
X65023809Y-98677676D02*
X64976190Y-98772914D01*
X64976190Y-98772914D02*
X64928571Y-98963390D01*
X64928571Y-98963390D02*
X64928571Y-99106247D01*
X64928571Y-99106247D02*
X64976190Y-99296723D01*
X64976190Y-99296723D02*
X65023809Y-99391961D01*
X65023809Y-99391961D02*
X65119047Y-99487200D01*
X65119047Y-99487200D02*
X65261904Y-99534819D01*
X65261904Y-99534819D02*
X65357142Y-99534819D01*
X65357142Y-99534819D02*
X65499999Y-99487200D01*
X65499999Y-99487200D02*
X65547618Y-99439580D01*
X65547618Y-99439580D02*
X65547618Y-99106247D01*
X65547618Y-99106247D02*
X65357142Y-99106247D01*
X65976190Y-99011009D02*
X66309523Y-99011009D01*
X66452380Y-99534819D02*
X65976190Y-99534819D01*
X65976190Y-99534819D02*
X65976190Y-98534819D01*
X65976190Y-98534819D02*
X66452380Y-98534819D01*
X66880952Y-99534819D02*
X66880952Y-98534819D01*
X66880952Y-98534819D02*
X67452380Y-99534819D01*
X67452380Y-99534819D02*
X67452380Y-98534819D01*
X67928571Y-99011009D02*
X68261904Y-99011009D01*
X68404761Y-99534819D02*
X67928571Y-99534819D01*
X67928571Y-99534819D02*
X67928571Y-98534819D01*
X67928571Y-98534819D02*
X68404761Y-98534819D01*
X69404761Y-99534819D02*
X69071428Y-99058628D01*
X68833333Y-99534819D02*
X68833333Y-98534819D01*
X68833333Y-98534819D02*
X69214285Y-98534819D01*
X69214285Y-98534819D02*
X69309523Y-98582438D01*
X69309523Y-98582438D02*
X69357142Y-98630057D01*
X69357142Y-98630057D02*
X69404761Y-98725295D01*
X69404761Y-98725295D02*
X69404761Y-98868152D01*
X69404761Y-98868152D02*
X69357142Y-98963390D01*
X69357142Y-98963390D02*
X69309523Y-99011009D01*
X69309523Y-99011009D02*
X69214285Y-99058628D01*
X69214285Y-99058628D02*
X68833333Y-99058628D01*
X69785714Y-99249104D02*
X70261904Y-99249104D01*
X69690476Y-99534819D02*
X70023809Y-98534819D01*
X70023809Y-98534819D02*
X70357142Y-99534819D01*
X70547619Y-98534819D02*
X71119047Y-98534819D01*
X70833333Y-99534819D02*
X70833333Y-98534819D01*
X71642857Y-98534819D02*
X71833333Y-98534819D01*
X71833333Y-98534819D02*
X71928571Y-98582438D01*
X71928571Y-98582438D02*
X72023809Y-98677676D01*
X72023809Y-98677676D02*
X72071428Y-98868152D01*
X72071428Y-98868152D02*
X72071428Y-99201485D01*
X72071428Y-99201485D02*
X72023809Y-99391961D01*
X72023809Y-99391961D02*
X71928571Y-99487200D01*
X71928571Y-99487200D02*
X71833333Y-99534819D01*
X71833333Y-99534819D02*
X71642857Y-99534819D01*
X71642857Y-99534819D02*
X71547619Y-99487200D01*
X71547619Y-99487200D02*
X71452381Y-99391961D01*
X71452381Y-99391961D02*
X71404762Y-99201485D01*
X71404762Y-99201485D02*
X71404762Y-98868152D01*
X71404762Y-98868152D02*
X71452381Y-98677676D01*
X71452381Y-98677676D02*
X71547619Y-98582438D01*
X71547619Y-98582438D02*
X71642857Y-98534819D01*
X73071428Y-99534819D02*
X72738095Y-99058628D01*
X72500000Y-99534819D02*
X72500000Y-98534819D01*
X72500000Y-98534819D02*
X72880952Y-98534819D01*
X72880952Y-98534819D02*
X72976190Y-98582438D01*
X72976190Y-98582438D02*
X73023809Y-98630057D01*
X73023809Y-98630057D02*
X73071428Y-98725295D01*
X73071428Y-98725295D02*
X73071428Y-98868152D01*
X73071428Y-98868152D02*
X73023809Y-98963390D01*
X73023809Y-98963390D02*
X72976190Y-99011009D01*
X72976190Y-99011009D02*
X72880952Y-99058628D01*
X72880952Y-99058628D02*
X72500000Y-99058628D01*
X68190476Y-100144763D02*
X68523809Y-101144763D01*
X68523809Y-101144763D02*
X68857142Y-100144763D01*
X69142857Y-100240001D02*
X69190476Y-100192382D01*
X69190476Y-100192382D02*
X69285714Y-100144763D01*
X69285714Y-100144763D02*
X69523809Y-100144763D01*
X69523809Y-100144763D02*
X69619047Y-100192382D01*
X69619047Y-100192382D02*
X69666666Y-100240001D01*
X69666666Y-100240001D02*
X69714285Y-100335239D01*
X69714285Y-100335239D02*
X69714285Y-100430477D01*
X69714285Y-100430477D02*
X69666666Y-100573334D01*
X69666666Y-100573334D02*
X69095238Y-101144763D01*
X69095238Y-101144763D02*
X69714285Y-101144763D01*
D10*
X86840225Y-99952257D02*
X86697368Y-99880828D01*
X86697368Y-99880828D02*
X86483082Y-99880828D01*
X86483082Y-99880828D02*
X86268796Y-99952257D01*
X86268796Y-99952257D02*
X86125939Y-100095114D01*
X86125939Y-100095114D02*
X86054510Y-100237971D01*
X86054510Y-100237971D02*
X85983082Y-100523685D01*
X85983082Y-100523685D02*
X85983082Y-100737971D01*
X85983082Y-100737971D02*
X86054510Y-101023685D01*
X86054510Y-101023685D02*
X86125939Y-101166542D01*
X86125939Y-101166542D02*
X86268796Y-101309400D01*
X86268796Y-101309400D02*
X86483082Y-101380828D01*
X86483082Y-101380828D02*
X86625939Y-101380828D01*
X86625939Y-101380828D02*
X86840225Y-101309400D01*
X86840225Y-101309400D02*
X86911653Y-101237971D01*
X86911653Y-101237971D02*
X86911653Y-100737971D01*
X86911653Y-100737971D02*
X86625939Y-100737971D01*
X87483082Y-100952257D02*
X88197368Y-100952257D01*
X87340225Y-101380828D02*
X87840225Y-99880828D01*
X87840225Y-99880828D02*
X88340225Y-101380828D01*
X88625939Y-99880828D02*
X89483082Y-99880828D01*
X89054510Y-101380828D02*
X89054510Y-99880828D01*
X89983081Y-100595114D02*
X90483081Y-100595114D01*
X90697367Y-101380828D02*
X89983081Y-101380828D01*
X89983081Y-101380828D02*
X89983081Y-99880828D01*
X89983081Y-99880828D02*
X90697367Y-99880828D01*
X92483081Y-101380828D02*
X92483081Y-99880828D01*
X93197367Y-101380828D02*
X93197367Y-99880828D01*
X93197367Y-99880828D02*
X94054510Y-101380828D01*
X94054510Y-101380828D02*
X94054510Y-99880828D01*
X99840225Y-99855890D02*
X100125939Y-99855890D01*
X100125939Y-99855890D02*
X100268796Y-99927319D01*
X100268796Y-99927319D02*
X100411653Y-100070176D01*
X100411653Y-100070176D02*
X100483082Y-100355890D01*
X100483082Y-100355890D02*
X100483082Y-100855890D01*
X100483082Y-100855890D02*
X100411653Y-101141604D01*
X100411653Y-101141604D02*
X100268796Y-101284462D01*
X100268796Y-101284462D02*
X100125939Y-101355890D01*
X100125939Y-101355890D02*
X99840225Y-101355890D01*
X99840225Y-101355890D02*
X99697368Y-101284462D01*
X99697368Y-101284462D02*
X99554510Y-101141604D01*
X99554510Y-101141604D02*
X99483082Y-100855890D01*
X99483082Y-100855890D02*
X99483082Y-100355890D01*
X99483082Y-100355890D02*
X99554510Y-100070176D01*
X99554510Y-100070176D02*
X99697368Y-99927319D01*
X99697368Y-99927319D02*
X99840225Y-99855890D01*
X101125939Y-99855890D02*
X101125939Y-101070176D01*
X101125939Y-101070176D02*
X101197368Y-101213033D01*
X101197368Y-101213033D02*
X101268797Y-101284462D01*
X101268797Y-101284462D02*
X101411654Y-101355890D01*
X101411654Y-101355890D02*
X101697368Y-101355890D01*
X101697368Y-101355890D02*
X101840225Y-101284462D01*
X101840225Y-101284462D02*
X101911654Y-101213033D01*
X101911654Y-101213033D02*
X101983082Y-101070176D01*
X101983082Y-101070176D02*
X101983082Y-99855890D01*
X102483083Y-99855890D02*
X103340226Y-99855890D01*
X102911654Y-101355890D02*
X102911654Y-99855890D01*
X103840225Y-101355890D02*
X103840225Y-99855890D01*
X103840225Y-99855890D02*
X104411654Y-99855890D01*
X104411654Y-99855890D02*
X104554511Y-99927319D01*
X104554511Y-99927319D02*
X104625940Y-99998747D01*
X104625940Y-99998747D02*
X104697368Y-100141604D01*
X104697368Y-100141604D02*
X104697368Y-100355890D01*
X104697368Y-100355890D02*
X104625940Y-100498747D01*
X104625940Y-100498747D02*
X104554511Y-100570176D01*
X104554511Y-100570176D02*
X104411654Y-100641604D01*
X104411654Y-100641604D02*
X103840225Y-100641604D01*
X105340225Y-99855890D02*
X105340225Y-101070176D01*
X105340225Y-101070176D02*
X105411654Y-101213033D01*
X105411654Y-101213033D02*
X105483083Y-101284462D01*
X105483083Y-101284462D02*
X105625940Y-101355890D01*
X105625940Y-101355890D02*
X105911654Y-101355890D01*
X105911654Y-101355890D02*
X106054511Y-101284462D01*
X106054511Y-101284462D02*
X106125940Y-101213033D01*
X106125940Y-101213033D02*
X106197368Y-101070176D01*
X106197368Y-101070176D02*
X106197368Y-99855890D01*
X106697369Y-99855890D02*
X107554512Y-99855890D01*
X107125940Y-101355890D02*
X107125940Y-99855890D01*
D11*
X70156059Y-69468740D02*
X70156059Y-68468740D01*
X70156059Y-68468740D02*
X70394154Y-68468740D01*
X70394154Y-68468740D02*
X70537011Y-68516359D01*
X70537011Y-68516359D02*
X70632249Y-68611597D01*
X70632249Y-68611597D02*
X70679868Y-68706835D01*
X70679868Y-68706835D02*
X70727487Y-68897311D01*
X70727487Y-68897311D02*
X70727487Y-69040168D01*
X70727487Y-69040168D02*
X70679868Y-69230644D01*
X70679868Y-69230644D02*
X70632249Y-69325882D01*
X70632249Y-69325882D02*
X70537011Y-69421121D01*
X70537011Y-69421121D02*
X70394154Y-69468740D01*
X70394154Y-69468740D02*
X70156059Y-69468740D01*
X71584630Y-68802073D02*
X71584630Y-69468740D01*
X71346535Y-68421121D02*
X71108440Y-69135406D01*
X71108440Y-69135406D02*
X71727487Y-69135406D01*
X73203819Y-28754333D02*
X73918104Y-28754333D01*
X73918104Y-28754333D02*
X74060961Y-28801952D01*
X74060961Y-28801952D02*
X74156200Y-28897190D01*
X74156200Y-28897190D02*
X74203819Y-29040047D01*
X74203819Y-29040047D02*
X74203819Y-29135285D01*
X74203819Y-27754333D02*
X74203819Y-28325761D01*
X74203819Y-28040047D02*
X73203819Y-28040047D01*
X73203819Y-28040047D02*
X73346676Y-28135285D01*
X73346676Y-28135285D02*
X73441914Y-28230523D01*
X73441914Y-28230523D02*
X73489533Y-28325761D01*
X96283819Y-28754333D02*
X96998104Y-28754333D01*
X96998104Y-28754333D02*
X97140961Y-28801952D01*
X97140961Y-28801952D02*
X97236200Y-28897190D01*
X97236200Y-28897190D02*
X97283819Y-29040047D01*
X97283819Y-29040047D02*
X97283819Y-29135285D01*
X96379057Y-28325761D02*
X96331438Y-28278142D01*
X96331438Y-28278142D02*
X96283819Y-28182904D01*
X96283819Y-28182904D02*
X96283819Y-27944809D01*
X96283819Y-27944809D02*
X96331438Y-27849571D01*
X96331438Y-27849571D02*
X96379057Y-27801952D01*
X96379057Y-27801952D02*
X96474295Y-27754333D01*
X96474295Y-27754333D02*
X96569533Y-27754333D01*
X96569533Y-27754333D02*
X96712390Y-27801952D01*
X96712390Y-27801952D02*
X97283819Y-28373380D01*
X97283819Y-28373380D02*
X97283819Y-27754333D01*
X93454819Y-74048094D02*
X92454819Y-74048094D01*
X92454819Y-74048094D02*
X92454819Y-73809999D01*
X92454819Y-73809999D02*
X92502438Y-73667142D01*
X92502438Y-73667142D02*
X92597676Y-73571904D01*
X92597676Y-73571904D02*
X92692914Y-73524285D01*
X92692914Y-73524285D02*
X92883390Y-73476666D01*
X92883390Y-73476666D02*
X93026247Y-73476666D01*
X93026247Y-73476666D02*
X93216723Y-73524285D01*
X93216723Y-73524285D02*
X93311961Y-73571904D01*
X93311961Y-73571904D02*
X93407200Y-73667142D01*
X93407200Y-73667142D02*
X93454819Y-73809999D01*
X93454819Y-73809999D02*
X93454819Y-74048094D01*
X92550057Y-73095713D02*
X92502438Y-73048094D01*
X92502438Y-73048094D02*
X92454819Y-72952856D01*
X92454819Y-72952856D02*
X92454819Y-72714761D01*
X92454819Y-72714761D02*
X92502438Y-72619523D01*
X92502438Y-72619523D02*
X92550057Y-72571904D01*
X92550057Y-72571904D02*
X92645295Y-72524285D01*
X92645295Y-72524285D02*
X92740533Y-72524285D01*
X92740533Y-72524285D02*
X92883390Y-72571904D01*
X92883390Y-72571904D02*
X93454819Y-73143332D01*
X93454819Y-73143332D02*
X93454819Y-72524285D01*
X116833333Y-38359580D02*
X116785714Y-38407200D01*
X116785714Y-38407200D02*
X116642857Y-38454819D01*
X116642857Y-38454819D02*
X116547619Y-38454819D01*
X116547619Y-38454819D02*
X116404762Y-38407200D01*
X116404762Y-38407200D02*
X116309524Y-38311961D01*
X116309524Y-38311961D02*
X116261905Y-38216723D01*
X116261905Y-38216723D02*
X116214286Y-38026247D01*
X116214286Y-38026247D02*
X116214286Y-37883390D01*
X116214286Y-37883390D02*
X116261905Y-37692914D01*
X116261905Y-37692914D02*
X116309524Y-37597676D01*
X116309524Y-37597676D02*
X116404762Y-37502438D01*
X116404762Y-37502438D02*
X116547619Y-37454819D01*
X116547619Y-37454819D02*
X116642857Y-37454819D01*
X116642857Y-37454819D02*
X116785714Y-37502438D01*
X116785714Y-37502438D02*
X116833333Y-37550057D01*
X117785714Y-38454819D02*
X117214286Y-38454819D01*
X117500000Y-38454819D02*
X117500000Y-37454819D01*
X117500000Y-37454819D02*
X117404762Y-37597676D01*
X117404762Y-37597676D02*
X117309524Y-37692914D01*
X117309524Y-37692914D02*
X117214286Y-37740533D01*
X116833333Y-41954819D02*
X116500000Y-41478628D01*
X116261905Y-41954819D02*
X116261905Y-40954819D01*
X116261905Y-40954819D02*
X116642857Y-40954819D01*
X116642857Y-40954819D02*
X116738095Y-41002438D01*
X116738095Y-41002438D02*
X116785714Y-41050057D01*
X116785714Y-41050057D02*
X116833333Y-41145295D01*
X116833333Y-41145295D02*
X116833333Y-41288152D01*
X116833333Y-41288152D02*
X116785714Y-41383390D01*
X116785714Y-41383390D02*
X116738095Y-41431009D01*
X116738095Y-41431009D02*
X116642857Y-41478628D01*
X116642857Y-41478628D02*
X116261905Y-41478628D01*
X117166667Y-40954819D02*
X117785714Y-40954819D01*
X117785714Y-40954819D02*
X117452381Y-41335771D01*
X117452381Y-41335771D02*
X117595238Y-41335771D01*
X117595238Y-41335771D02*
X117690476Y-41383390D01*
X117690476Y-41383390D02*
X117738095Y-41431009D01*
X117738095Y-41431009D02*
X117785714Y-41526247D01*
X117785714Y-41526247D02*
X117785714Y-41764342D01*
X117785714Y-41764342D02*
X117738095Y-41859580D01*
X117738095Y-41859580D02*
X117690476Y-41907200D01*
X117690476Y-41907200D02*
X117595238Y-41954819D01*
X117595238Y-41954819D02*
X117309524Y-41954819D01*
X117309524Y-41954819D02*
X117214286Y-41907200D01*
X117214286Y-41907200D02*
X117166667Y-41859580D01*
X101833333Y-69454819D02*
X101500000Y-68978628D01*
X101261905Y-69454819D02*
X101261905Y-68454819D01*
X101261905Y-68454819D02*
X101642857Y-68454819D01*
X101642857Y-68454819D02*
X101738095Y-68502438D01*
X101738095Y-68502438D02*
X101785714Y-68550057D01*
X101785714Y-68550057D02*
X101833333Y-68645295D01*
X101833333Y-68645295D02*
X101833333Y-68788152D01*
X101833333Y-68788152D02*
X101785714Y-68883390D01*
X101785714Y-68883390D02*
X101738095Y-68931009D01*
X101738095Y-68931009D02*
X101642857Y-68978628D01*
X101642857Y-68978628D02*
X101261905Y-68978628D01*
X102214286Y-68550057D02*
X102261905Y-68502438D01*
X102261905Y-68502438D02*
X102357143Y-68454819D01*
X102357143Y-68454819D02*
X102595238Y-68454819D01*
X102595238Y-68454819D02*
X102690476Y-68502438D01*
X102690476Y-68502438D02*
X102738095Y-68550057D01*
X102738095Y-68550057D02*
X102785714Y-68645295D01*
X102785714Y-68645295D02*
X102785714Y-68740533D01*
X102785714Y-68740533D02*
X102738095Y-68883390D01*
X102738095Y-68883390D02*
X102166667Y-69454819D01*
X102166667Y-69454819D02*
X102785714Y-69454819D01*
X93833333Y-35954819D02*
X93500000Y-35478628D01*
X93261905Y-35954819D02*
X93261905Y-34954819D01*
X93261905Y-34954819D02*
X93642857Y-34954819D01*
X93642857Y-34954819D02*
X93738095Y-35002438D01*
X93738095Y-35002438D02*
X93785714Y-35050057D01*
X93785714Y-35050057D02*
X93833333Y-35145295D01*
X93833333Y-35145295D02*
X93833333Y-35288152D01*
X93833333Y-35288152D02*
X93785714Y-35383390D01*
X93785714Y-35383390D02*
X93738095Y-35431009D01*
X93738095Y-35431009D02*
X93642857Y-35478628D01*
X93642857Y-35478628D02*
X93261905Y-35478628D01*
X94785714Y-35954819D02*
X94214286Y-35954819D01*
X94500000Y-35954819D02*
X94500000Y-34954819D01*
X94500000Y-34954819D02*
X94404762Y-35097676D01*
X94404762Y-35097676D02*
X94309524Y-35192914D01*
X94309524Y-35192914D02*
X94214286Y-35240533D01*
D12*
X107904761Y-36957419D02*
X107571428Y-36481228D01*
X107333333Y-36957419D02*
X107333333Y-35957419D01*
X107333333Y-35957419D02*
X107714285Y-35957419D01*
X107714285Y-35957419D02*
X107809523Y-36005038D01*
X107809523Y-36005038D02*
X107857142Y-36052657D01*
X107857142Y-36052657D02*
X107904761Y-36147895D01*
X107904761Y-36147895D02*
X107904761Y-36290752D01*
X107904761Y-36290752D02*
X107857142Y-36385990D01*
X107857142Y-36385990D02*
X107809523Y-36433609D01*
X107809523Y-36433609D02*
X107714285Y-36481228D01*
X107714285Y-36481228D02*
X107333333Y-36481228D01*
X108190476Y-35957419D02*
X108523809Y-36957419D01*
X108523809Y-36957419D02*
X108857142Y-35957419D01*
X109142857Y-36052657D02*
X109190476Y-36005038D01*
X109190476Y-36005038D02*
X109285714Y-35957419D01*
X109285714Y-35957419D02*
X109523809Y-35957419D01*
X109523809Y-35957419D02*
X109619047Y-36005038D01*
X109619047Y-36005038D02*
X109666666Y-36052657D01*
X109666666Y-36052657D02*
X109714285Y-36147895D01*
X109714285Y-36147895D02*
X109714285Y-36243133D01*
X109714285Y-36243133D02*
X109666666Y-36385990D01*
X109666666Y-36385990D02*
X109095238Y-36957419D01*
X109095238Y-36957419D02*
X109714285Y-36957419D01*
D11*
X83333333Y-69454819D02*
X83000000Y-68978628D01*
X82761905Y-69454819D02*
X82761905Y-68454819D01*
X82761905Y-68454819D02*
X83142857Y-68454819D01*
X83142857Y-68454819D02*
X83238095Y-68502438D01*
X83238095Y-68502438D02*
X83285714Y-68550057D01*
X83285714Y-68550057D02*
X83333333Y-68645295D01*
X83333333Y-68645295D02*
X83333333Y-68788152D01*
X83333333Y-68788152D02*
X83285714Y-68883390D01*
X83285714Y-68883390D02*
X83238095Y-68931009D01*
X83238095Y-68931009D02*
X83142857Y-68978628D01*
X83142857Y-68978628D02*
X82761905Y-68978628D01*
X84190476Y-68788152D02*
X84190476Y-69454819D01*
X83952381Y-68407200D02*
X83714286Y-69121485D01*
X83714286Y-69121485D02*
X84333333Y-69121485D01*
X113048095Y-70164819D02*
X113048095Y-70974342D01*
X113048095Y-70974342D02*
X113095714Y-71069580D01*
X113095714Y-71069580D02*
X113143333Y-71117200D01*
X113143333Y-71117200D02*
X113238571Y-71164819D01*
X113238571Y-71164819D02*
X113429047Y-71164819D01*
X113429047Y-71164819D02*
X113524285Y-71117200D01*
X113524285Y-71117200D02*
X113571904Y-71069580D01*
X113571904Y-71069580D02*
X113619523Y-70974342D01*
X113619523Y-70974342D02*
X113619523Y-70164819D01*
X114619523Y-71164819D02*
X114048095Y-71164819D01*
X114333809Y-71164819D02*
X114333809Y-70164819D01*
X114333809Y-70164819D02*
X114238571Y-70307676D01*
X114238571Y-70307676D02*
X114143333Y-70402914D01*
X114143333Y-70402914D02*
X114048095Y-70450533D01*
X118643333Y-70439580D02*
X118595714Y-70487200D01*
X118595714Y-70487200D02*
X118452857Y-70534819D01*
X118452857Y-70534819D02*
X118357619Y-70534819D01*
X118357619Y-70534819D02*
X118214762Y-70487200D01*
X118214762Y-70487200D02*
X118119524Y-70391961D01*
X118119524Y-70391961D02*
X118071905Y-70296723D01*
X118071905Y-70296723D02*
X118024286Y-70106247D01*
X118024286Y-70106247D02*
X118024286Y-69963390D01*
X118024286Y-69963390D02*
X118071905Y-69772914D01*
X118071905Y-69772914D02*
X118119524Y-69677676D01*
X118119524Y-69677676D02*
X118214762Y-69582438D01*
X118214762Y-69582438D02*
X118357619Y-69534819D01*
X118357619Y-69534819D02*
X118452857Y-69534819D01*
X118452857Y-69534819D02*
X118595714Y-69582438D01*
X118595714Y-69582438D02*
X118643333Y-69630057D01*
X118976667Y-69534819D02*
X119643333Y-69534819D01*
X119643333Y-69534819D02*
X119214762Y-70534819D01*
X116024988Y-83979028D02*
X115977369Y-84026648D01*
X115977369Y-84026648D02*
X115834512Y-84074267D01*
X115834512Y-84074267D02*
X115739274Y-84074267D01*
X115739274Y-84074267D02*
X115596417Y-84026648D01*
X115596417Y-84026648D02*
X115501179Y-83931409D01*
X115501179Y-83931409D02*
X115453560Y-83836171D01*
X115453560Y-83836171D02*
X115405941Y-83645695D01*
X115405941Y-83645695D02*
X115405941Y-83502838D01*
X115405941Y-83502838D02*
X115453560Y-83312362D01*
X115453560Y-83312362D02*
X115501179Y-83217124D01*
X115501179Y-83217124D02*
X115596417Y-83121886D01*
X115596417Y-83121886D02*
X115739274Y-83074267D01*
X115739274Y-83074267D02*
X115834512Y-83074267D01*
X115834512Y-83074267D02*
X115977369Y-83121886D01*
X115977369Y-83121886D02*
X116024988Y-83169505D01*
X116596417Y-83502838D02*
X116501179Y-83455219D01*
X116501179Y-83455219D02*
X116453560Y-83407600D01*
X116453560Y-83407600D02*
X116405941Y-83312362D01*
X116405941Y-83312362D02*
X116405941Y-83264743D01*
X116405941Y-83264743D02*
X116453560Y-83169505D01*
X116453560Y-83169505D02*
X116501179Y-83121886D01*
X116501179Y-83121886D02*
X116596417Y-83074267D01*
X116596417Y-83074267D02*
X116786893Y-83074267D01*
X116786893Y-83074267D02*
X116882131Y-83121886D01*
X116882131Y-83121886D02*
X116929750Y-83169505D01*
X116929750Y-83169505D02*
X116977369Y-83264743D01*
X116977369Y-83264743D02*
X116977369Y-83312362D01*
X116977369Y-83312362D02*
X116929750Y-83407600D01*
X116929750Y-83407600D02*
X116882131Y-83455219D01*
X116882131Y-83455219D02*
X116786893Y-83502838D01*
X116786893Y-83502838D02*
X116596417Y-83502838D01*
X116596417Y-83502838D02*
X116501179Y-83550457D01*
X116501179Y-83550457D02*
X116453560Y-83598076D01*
X116453560Y-83598076D02*
X116405941Y-83693314D01*
X116405941Y-83693314D02*
X116405941Y-83883790D01*
X116405941Y-83883790D02*
X116453560Y-83979028D01*
X116453560Y-83979028D02*
X116501179Y-84026648D01*
X116501179Y-84026648D02*
X116596417Y-84074267D01*
X116596417Y-84074267D02*
X116786893Y-84074267D01*
X116786893Y-84074267D02*
X116882131Y-84026648D01*
X116882131Y-84026648D02*
X116929750Y-83979028D01*
X116929750Y-83979028D02*
X116977369Y-83883790D01*
X116977369Y-83883790D02*
X116977369Y-83693314D01*
X116977369Y-83693314D02*
X116929750Y-83598076D01*
X116929750Y-83598076D02*
X116882131Y-83550457D01*
X116882131Y-83550457D02*
X116786893Y-83502838D01*
X72246667Y-78113200D02*
X72389524Y-78160819D01*
X72389524Y-78160819D02*
X72627619Y-78160819D01*
X72627619Y-78160819D02*
X72722857Y-78113200D01*
X72722857Y-78113200D02*
X72770476Y-78065580D01*
X72770476Y-78065580D02*
X72818095Y-77970342D01*
X72818095Y-77970342D02*
X72818095Y-77875104D01*
X72818095Y-77875104D02*
X72770476Y-77779866D01*
X72770476Y-77779866D02*
X72722857Y-77732247D01*
X72722857Y-77732247D02*
X72627619Y-77684628D01*
X72627619Y-77684628D02*
X72437143Y-77637009D01*
X72437143Y-77637009D02*
X72341905Y-77589390D01*
X72341905Y-77589390D02*
X72294286Y-77541771D01*
X72294286Y-77541771D02*
X72246667Y-77446533D01*
X72246667Y-77446533D02*
X72246667Y-77351295D01*
X72246667Y-77351295D02*
X72294286Y-77256057D01*
X72294286Y-77256057D02*
X72341905Y-77208438D01*
X72341905Y-77208438D02*
X72437143Y-77160819D01*
X72437143Y-77160819D02*
X72675238Y-77160819D01*
X72675238Y-77160819D02*
X72818095Y-77208438D01*
X73151429Y-77160819D02*
X73389524Y-78160819D01*
X73389524Y-78160819D02*
X73580000Y-77446533D01*
X73580000Y-77446533D02*
X73770476Y-78160819D01*
X73770476Y-78160819D02*
X74008572Y-77160819D01*
X74913333Y-78160819D02*
X74341905Y-78160819D01*
X74627619Y-78160819D02*
X74627619Y-77160819D01*
X74627619Y-77160819D02*
X74532381Y-77303676D01*
X74532381Y-77303676D02*
X74437143Y-77398914D01*
X74437143Y-77398914D02*
X74341905Y-77446533D01*
X98954819Y-81666666D02*
X98478628Y-81999999D01*
X98954819Y-82238094D02*
X97954819Y-82238094D01*
X97954819Y-82238094D02*
X97954819Y-81857142D01*
X97954819Y-81857142D02*
X98002438Y-81761904D01*
X98002438Y-81761904D02*
X98050057Y-81714285D01*
X98050057Y-81714285D02*
X98145295Y-81666666D01*
X98145295Y-81666666D02*
X98288152Y-81666666D01*
X98288152Y-81666666D02*
X98383390Y-81714285D01*
X98383390Y-81714285D02*
X98431009Y-81761904D01*
X98431009Y-81761904D02*
X98478628Y-81857142D01*
X98478628Y-81857142D02*
X98478628Y-82238094D01*
X98383390Y-81095237D02*
X98335771Y-81190475D01*
X98335771Y-81190475D02*
X98288152Y-81238094D01*
X98288152Y-81238094D02*
X98192914Y-81285713D01*
X98192914Y-81285713D02*
X98145295Y-81285713D01*
X98145295Y-81285713D02*
X98050057Y-81238094D01*
X98050057Y-81238094D02*
X98002438Y-81190475D01*
X98002438Y-81190475D02*
X97954819Y-81095237D01*
X97954819Y-81095237D02*
X97954819Y-80904761D01*
X97954819Y-80904761D02*
X98002438Y-80809523D01*
X98002438Y-80809523D02*
X98050057Y-80761904D01*
X98050057Y-80761904D02*
X98145295Y-80714285D01*
X98145295Y-80714285D02*
X98192914Y-80714285D01*
X98192914Y-80714285D02*
X98288152Y-80761904D01*
X98288152Y-80761904D02*
X98335771Y-80809523D01*
X98335771Y-80809523D02*
X98383390Y-80904761D01*
X98383390Y-80904761D02*
X98383390Y-81095237D01*
X98383390Y-81095237D02*
X98431009Y-81190475D01*
X98431009Y-81190475D02*
X98478628Y-81238094D01*
X98478628Y-81238094D02*
X98573866Y-81285713D01*
X98573866Y-81285713D02*
X98764342Y-81285713D01*
X98764342Y-81285713D02*
X98859580Y-81238094D01*
X98859580Y-81238094D02*
X98907200Y-81190475D01*
X98907200Y-81190475D02*
X98954819Y-81095237D01*
X98954819Y-81095237D02*
X98954819Y-80904761D01*
X98954819Y-80904761D02*
X98907200Y-80809523D01*
X98907200Y-80809523D02*
X98859580Y-80761904D01*
X98859580Y-80761904D02*
X98764342Y-80714285D01*
X98764342Y-80714285D02*
X98573866Y-80714285D01*
X98573866Y-80714285D02*
X98478628Y-80761904D01*
X98478628Y-80761904D02*
X98431009Y-80809523D01*
X98431009Y-80809523D02*
X98383390Y-80904761D01*
X89913333Y-80534819D02*
X89580000Y-80058628D01*
X89341905Y-80534819D02*
X89341905Y-79534819D01*
X89341905Y-79534819D02*
X89722857Y-79534819D01*
X89722857Y-79534819D02*
X89818095Y-79582438D01*
X89818095Y-79582438D02*
X89865714Y-79630057D01*
X89865714Y-79630057D02*
X89913333Y-79725295D01*
X89913333Y-79725295D02*
X89913333Y-79868152D01*
X89913333Y-79868152D02*
X89865714Y-79963390D01*
X89865714Y-79963390D02*
X89818095Y-80011009D01*
X89818095Y-80011009D02*
X89722857Y-80058628D01*
X89722857Y-80058628D02*
X89341905Y-80058628D01*
X90770476Y-79534819D02*
X90580000Y-79534819D01*
X90580000Y-79534819D02*
X90484762Y-79582438D01*
X90484762Y-79582438D02*
X90437143Y-79630057D01*
X90437143Y-79630057D02*
X90341905Y-79772914D01*
X90341905Y-79772914D02*
X90294286Y-79963390D01*
X90294286Y-79963390D02*
X90294286Y-80344342D01*
X90294286Y-80344342D02*
X90341905Y-80439580D01*
X90341905Y-80439580D02*
X90389524Y-80487200D01*
X90389524Y-80487200D02*
X90484762Y-80534819D01*
X90484762Y-80534819D02*
X90675238Y-80534819D01*
X90675238Y-80534819D02*
X90770476Y-80487200D01*
X90770476Y-80487200D02*
X90818095Y-80439580D01*
X90818095Y-80439580D02*
X90865714Y-80344342D01*
X90865714Y-80344342D02*
X90865714Y-80106247D01*
X90865714Y-80106247D02*
X90818095Y-80011009D01*
X90818095Y-80011009D02*
X90770476Y-79963390D01*
X90770476Y-79963390D02*
X90675238Y-79915771D01*
X90675238Y-79915771D02*
X90484762Y-79915771D01*
X90484762Y-79915771D02*
X90389524Y-79963390D01*
X90389524Y-79963390D02*
X90341905Y-80011009D01*
X90341905Y-80011009D02*
X90294286Y-80106247D01*
X110454819Y-81746666D02*
X109978628Y-82079999D01*
X110454819Y-82318094D02*
X109454819Y-82318094D01*
X109454819Y-82318094D02*
X109454819Y-81937142D01*
X109454819Y-81937142D02*
X109502438Y-81841904D01*
X109502438Y-81841904D02*
X109550057Y-81794285D01*
X109550057Y-81794285D02*
X109645295Y-81746666D01*
X109645295Y-81746666D02*
X109788152Y-81746666D01*
X109788152Y-81746666D02*
X109883390Y-81794285D01*
X109883390Y-81794285D02*
X109931009Y-81841904D01*
X109931009Y-81841904D02*
X109978628Y-81937142D01*
X109978628Y-81937142D02*
X109978628Y-82318094D01*
X110454819Y-81270475D02*
X110454819Y-81079999D01*
X110454819Y-81079999D02*
X110407200Y-80984761D01*
X110407200Y-80984761D02*
X110359580Y-80937142D01*
X110359580Y-80937142D02*
X110216723Y-80841904D01*
X110216723Y-80841904D02*
X110026247Y-80794285D01*
X110026247Y-80794285D02*
X109645295Y-80794285D01*
X109645295Y-80794285D02*
X109550057Y-80841904D01*
X109550057Y-80841904D02*
X109502438Y-80889523D01*
X109502438Y-80889523D02*
X109454819Y-80984761D01*
X109454819Y-80984761D02*
X109454819Y-81175237D01*
X109454819Y-81175237D02*
X109502438Y-81270475D01*
X109502438Y-81270475D02*
X109550057Y-81318094D01*
X109550057Y-81318094D02*
X109645295Y-81365713D01*
X109645295Y-81365713D02*
X109883390Y-81365713D01*
X109883390Y-81365713D02*
X109978628Y-81318094D01*
X109978628Y-81318094D02*
X110026247Y-81270475D01*
X110026247Y-81270475D02*
X110073866Y-81175237D01*
X110073866Y-81175237D02*
X110073866Y-80984761D01*
X110073866Y-80984761D02*
X110026247Y-80889523D01*
X110026247Y-80889523D02*
X109978628Y-80841904D01*
X109978628Y-80841904D02*
X109883390Y-80794285D01*
X102063185Y-73385538D02*
X102063185Y-72385538D01*
X102063185Y-72385538D02*
X102301280Y-72385538D01*
X102301280Y-72385538D02*
X102444137Y-72433157D01*
X102444137Y-72433157D02*
X102539375Y-72528395D01*
X102539375Y-72528395D02*
X102586994Y-72623633D01*
X102586994Y-72623633D02*
X102634613Y-72814109D01*
X102634613Y-72814109D02*
X102634613Y-72956966D01*
X102634613Y-72956966D02*
X102586994Y-73147442D01*
X102586994Y-73147442D02*
X102539375Y-73242680D01*
X102539375Y-73242680D02*
X102444137Y-73337919D01*
X102444137Y-73337919D02*
X102301280Y-73385538D01*
X102301280Y-73385538D02*
X102063185Y-73385538D01*
X103491756Y-72385538D02*
X103301280Y-72385538D01*
X103301280Y-72385538D02*
X103206042Y-72433157D01*
X103206042Y-72433157D02*
X103158423Y-72480776D01*
X103158423Y-72480776D02*
X103063185Y-72623633D01*
X103063185Y-72623633D02*
X103015566Y-72814109D01*
X103015566Y-72814109D02*
X103015566Y-73195061D01*
X103015566Y-73195061D02*
X103063185Y-73290299D01*
X103063185Y-73290299D02*
X103110804Y-73337919D01*
X103110804Y-73337919D02*
X103206042Y-73385538D01*
X103206042Y-73385538D02*
X103396518Y-73385538D01*
X103396518Y-73385538D02*
X103491756Y-73337919D01*
X103491756Y-73337919D02*
X103539375Y-73290299D01*
X103539375Y-73290299D02*
X103586994Y-73195061D01*
X103586994Y-73195061D02*
X103586994Y-72956966D01*
X103586994Y-72956966D02*
X103539375Y-72861728D01*
X103539375Y-72861728D02*
X103491756Y-72814109D01*
X103491756Y-72814109D02*
X103396518Y-72766490D01*
X103396518Y-72766490D02*
X103206042Y-72766490D01*
X103206042Y-72766490D02*
X103110804Y-72814109D01*
X103110804Y-72814109D02*
X103063185Y-72861728D01*
X103063185Y-72861728D02*
X103015566Y-72956966D01*
X104052684Y-76919533D02*
X104005065Y-76967153D01*
X104005065Y-76967153D02*
X103862208Y-77014772D01*
X103862208Y-77014772D02*
X103766970Y-77014772D01*
X103766970Y-77014772D02*
X103624113Y-76967153D01*
X103624113Y-76967153D02*
X103528875Y-76871914D01*
X103528875Y-76871914D02*
X103481256Y-76776676D01*
X103481256Y-76776676D02*
X103433637Y-76586200D01*
X103433637Y-76586200D02*
X103433637Y-76443343D01*
X103433637Y-76443343D02*
X103481256Y-76252867D01*
X103481256Y-76252867D02*
X103528875Y-76157629D01*
X103528875Y-76157629D02*
X103624113Y-76062391D01*
X103624113Y-76062391D02*
X103766970Y-76014772D01*
X103766970Y-76014772D02*
X103862208Y-76014772D01*
X103862208Y-76014772D02*
X104005065Y-76062391D01*
X104005065Y-76062391D02*
X104052684Y-76110010D01*
X104433637Y-76110010D02*
X104481256Y-76062391D01*
X104481256Y-76062391D02*
X104576494Y-76014772D01*
X104576494Y-76014772D02*
X104814589Y-76014772D01*
X104814589Y-76014772D02*
X104909827Y-76062391D01*
X104909827Y-76062391D02*
X104957446Y-76110010D01*
X104957446Y-76110010D02*
X105005065Y-76205248D01*
X105005065Y-76205248D02*
X105005065Y-76300486D01*
X105005065Y-76300486D02*
X104957446Y-76443343D01*
X104957446Y-76443343D02*
X104386018Y-77014772D01*
X104386018Y-77014772D02*
X105005065Y-77014772D01*
X83333333Y-73954819D02*
X83000000Y-73478628D01*
X82761905Y-73954819D02*
X82761905Y-72954819D01*
X82761905Y-72954819D02*
X83142857Y-72954819D01*
X83142857Y-72954819D02*
X83238095Y-73002438D01*
X83238095Y-73002438D02*
X83285714Y-73050057D01*
X83285714Y-73050057D02*
X83333333Y-73145295D01*
X83333333Y-73145295D02*
X83333333Y-73288152D01*
X83333333Y-73288152D02*
X83285714Y-73383390D01*
X83285714Y-73383390D02*
X83238095Y-73431009D01*
X83238095Y-73431009D02*
X83142857Y-73478628D01*
X83142857Y-73478628D02*
X82761905Y-73478628D01*
X84238095Y-72954819D02*
X83761905Y-72954819D01*
X83761905Y-72954819D02*
X83714286Y-73431009D01*
X83714286Y-73431009D02*
X83761905Y-73383390D01*
X83761905Y-73383390D02*
X83857143Y-73335771D01*
X83857143Y-73335771D02*
X84095238Y-73335771D01*
X84095238Y-73335771D02*
X84190476Y-73383390D01*
X84190476Y-73383390D02*
X84238095Y-73431009D01*
X84238095Y-73431009D02*
X84285714Y-73526247D01*
X84285714Y-73526247D02*
X84285714Y-73764342D01*
X84285714Y-73764342D02*
X84238095Y-73859580D01*
X84238095Y-73859580D02*
X84190476Y-73907200D01*
X84190476Y-73907200D02*
X84095238Y-73954819D01*
X84095238Y-73954819D02*
X83857143Y-73954819D01*
X83857143Y-73954819D02*
X83761905Y-73907200D01*
X83761905Y-73907200D02*
X83714286Y-73859580D01*
X69372350Y-73921159D02*
X69372350Y-72921159D01*
X69372350Y-72921159D02*
X69610445Y-72921159D01*
X69610445Y-72921159D02*
X69753302Y-72968778D01*
X69753302Y-72968778D02*
X69848540Y-73064016D01*
X69848540Y-73064016D02*
X69896159Y-73159254D01*
X69896159Y-73159254D02*
X69943778Y-73349730D01*
X69943778Y-73349730D02*
X69943778Y-73492587D01*
X69943778Y-73492587D02*
X69896159Y-73683063D01*
X69896159Y-73683063D02*
X69848540Y-73778301D01*
X69848540Y-73778301D02*
X69753302Y-73873540D01*
X69753302Y-73873540D02*
X69610445Y-73921159D01*
X69610445Y-73921159D02*
X69372350Y-73921159D01*
X70277112Y-72921159D02*
X70896159Y-72921159D01*
X70896159Y-72921159D02*
X70562826Y-73302111D01*
X70562826Y-73302111D02*
X70705683Y-73302111D01*
X70705683Y-73302111D02*
X70800921Y-73349730D01*
X70800921Y-73349730D02*
X70848540Y-73397349D01*
X70848540Y-73397349D02*
X70896159Y-73492587D01*
X70896159Y-73492587D02*
X70896159Y-73730682D01*
X70896159Y-73730682D02*
X70848540Y-73825920D01*
X70848540Y-73825920D02*
X70800921Y-73873540D01*
X70800921Y-73873540D02*
X70705683Y-73921159D01*
X70705683Y-73921159D02*
X70419969Y-73921159D01*
X70419969Y-73921159D02*
X70324731Y-73873540D01*
X70324731Y-73873540D02*
X70277112Y-73825920D01*
X89913333Y-84034819D02*
X89580000Y-83558628D01*
X89341905Y-84034819D02*
X89341905Y-83034819D01*
X89341905Y-83034819D02*
X89722857Y-83034819D01*
X89722857Y-83034819D02*
X89818095Y-83082438D01*
X89818095Y-83082438D02*
X89865714Y-83130057D01*
X89865714Y-83130057D02*
X89913333Y-83225295D01*
X89913333Y-83225295D02*
X89913333Y-83368152D01*
X89913333Y-83368152D02*
X89865714Y-83463390D01*
X89865714Y-83463390D02*
X89818095Y-83511009D01*
X89818095Y-83511009D02*
X89722857Y-83558628D01*
X89722857Y-83558628D02*
X89341905Y-83558628D01*
X90246667Y-83034819D02*
X90913333Y-83034819D01*
X90913333Y-83034819D02*
X90484762Y-84034819D01*
X117649423Y-89394659D02*
X117649423Y-88394659D01*
X117649423Y-88394659D02*
X117887518Y-88394659D01*
X117887518Y-88394659D02*
X118030375Y-88442278D01*
X118030375Y-88442278D02*
X118125613Y-88537516D01*
X118125613Y-88537516D02*
X118173232Y-88632754D01*
X118173232Y-88632754D02*
X118220851Y-88823230D01*
X118220851Y-88823230D02*
X118220851Y-88966087D01*
X118220851Y-88966087D02*
X118173232Y-89156563D01*
X118173232Y-89156563D02*
X118125613Y-89251801D01*
X118125613Y-89251801D02*
X118030375Y-89347040D01*
X118030375Y-89347040D02*
X117887518Y-89394659D01*
X117887518Y-89394659D02*
X117649423Y-89394659D01*
X119173232Y-89394659D02*
X118601804Y-89394659D01*
X118887518Y-89394659D02*
X118887518Y-88394659D01*
X118887518Y-88394659D02*
X118792280Y-88537516D01*
X118792280Y-88537516D02*
X118697042Y-88632754D01*
X118697042Y-88632754D02*
X118601804Y-88680373D01*
D12*
X98796666Y-45457419D02*
X98796666Y-46171704D01*
X98796666Y-46171704D02*
X98749047Y-46314561D01*
X98749047Y-46314561D02*
X98653809Y-46409800D01*
X98653809Y-46409800D02*
X98510952Y-46457419D01*
X98510952Y-46457419D02*
X98415714Y-46457419D01*
X99177619Y-45457419D02*
X99796666Y-45457419D01*
X99796666Y-45457419D02*
X99463333Y-45838371D01*
X99463333Y-45838371D02*
X99606190Y-45838371D01*
X99606190Y-45838371D02*
X99701428Y-45885990D01*
X99701428Y-45885990D02*
X99749047Y-45933609D01*
X99749047Y-45933609D02*
X99796666Y-46028847D01*
X99796666Y-46028847D02*
X99796666Y-46266942D01*
X99796666Y-46266942D02*
X99749047Y-46362180D01*
X99749047Y-46362180D02*
X99701428Y-46409800D01*
X99701428Y-46409800D02*
X99606190Y-46457419D01*
X99606190Y-46457419D02*
X99320476Y-46457419D01*
X99320476Y-46457419D02*
X99225238Y-46409800D01*
X99225238Y-46409800D02*
X99177619Y-46362180D01*
X108666666Y-97037419D02*
X108666666Y-97751704D01*
X108666666Y-97751704D02*
X108619047Y-97894561D01*
X108619047Y-97894561D02*
X108523809Y-97989800D01*
X108523809Y-97989800D02*
X108380952Y-98037419D01*
X108380952Y-98037419D02*
X108285714Y-98037419D01*
X109047619Y-97037419D02*
X109714285Y-97037419D01*
X109714285Y-97037419D02*
X109285714Y-98037419D01*
X75796666Y-45457419D02*
X75796666Y-46171704D01*
X75796666Y-46171704D02*
X75749047Y-46314561D01*
X75749047Y-46314561D02*
X75653809Y-46409800D01*
X75653809Y-46409800D02*
X75510952Y-46457419D01*
X75510952Y-46457419D02*
X75415714Y-46457419D01*
X76701428Y-45790752D02*
X76701428Y-46457419D01*
X76463333Y-45409800D02*
X76225238Y-46124085D01*
X76225238Y-46124085D02*
X76844285Y-46124085D01*
D11*
X101261905Y-86534819D02*
X101261905Y-85534819D01*
X101261905Y-85534819D02*
X101500000Y-85534819D01*
X101500000Y-85534819D02*
X101642857Y-85582438D01*
X101642857Y-85582438D02*
X101738095Y-85677676D01*
X101738095Y-85677676D02*
X101785714Y-85772914D01*
X101785714Y-85772914D02*
X101833333Y-85963390D01*
X101833333Y-85963390D02*
X101833333Y-86106247D01*
X101833333Y-86106247D02*
X101785714Y-86296723D01*
X101785714Y-86296723D02*
X101738095Y-86391961D01*
X101738095Y-86391961D02*
X101642857Y-86487200D01*
X101642857Y-86487200D02*
X101500000Y-86534819D01*
X101500000Y-86534819D02*
X101261905Y-86534819D01*
X102738095Y-85534819D02*
X102261905Y-85534819D01*
X102261905Y-85534819D02*
X102214286Y-86011009D01*
X102214286Y-86011009D02*
X102261905Y-85963390D01*
X102261905Y-85963390D02*
X102357143Y-85915771D01*
X102357143Y-85915771D02*
X102595238Y-85915771D01*
X102595238Y-85915771D02*
X102690476Y-85963390D01*
X102690476Y-85963390D02*
X102738095Y-86011009D01*
X102738095Y-86011009D02*
X102785714Y-86106247D01*
X102785714Y-86106247D02*
X102785714Y-86344342D01*
X102785714Y-86344342D02*
X102738095Y-86439580D01*
X102738095Y-86439580D02*
X102690476Y-86487200D01*
X102690476Y-86487200D02*
X102595238Y-86534819D01*
X102595238Y-86534819D02*
X102357143Y-86534819D01*
X102357143Y-86534819D02*
X102261905Y-86487200D01*
X102261905Y-86487200D02*
X102214286Y-86439580D01*
D12*
X84666666Y-97037419D02*
X84666666Y-97751704D01*
X84666666Y-97751704D02*
X84619047Y-97894561D01*
X84619047Y-97894561D02*
X84523809Y-97989800D01*
X84523809Y-97989800D02*
X84380952Y-98037419D01*
X84380952Y-98037419D02*
X84285714Y-98037419D01*
X85619047Y-97037419D02*
X85142857Y-97037419D01*
X85142857Y-97037419D02*
X85095238Y-97513609D01*
X85095238Y-97513609D02*
X85142857Y-97465990D01*
X85142857Y-97465990D02*
X85238095Y-97418371D01*
X85238095Y-97418371D02*
X85476190Y-97418371D01*
X85476190Y-97418371D02*
X85571428Y-97465990D01*
X85571428Y-97465990D02*
X85619047Y-97513609D01*
X85619047Y-97513609D02*
X85666666Y-97608847D01*
X85666666Y-97608847D02*
X85666666Y-97846942D01*
X85666666Y-97846942D02*
X85619047Y-97942180D01*
X85619047Y-97942180D02*
X85571428Y-97989800D01*
X85571428Y-97989800D02*
X85476190Y-98037419D01*
X85476190Y-98037419D02*
X85238095Y-98037419D01*
X85238095Y-98037419D02*
X85142857Y-97989800D01*
X85142857Y-97989800D02*
X85095238Y-97942180D01*
X85404761Y-36957419D02*
X85071428Y-36481228D01*
X84833333Y-36957419D02*
X84833333Y-35957419D01*
X84833333Y-35957419D02*
X85214285Y-35957419D01*
X85214285Y-35957419D02*
X85309523Y-36005038D01*
X85309523Y-36005038D02*
X85357142Y-36052657D01*
X85357142Y-36052657D02*
X85404761Y-36147895D01*
X85404761Y-36147895D02*
X85404761Y-36290752D01*
X85404761Y-36290752D02*
X85357142Y-36385990D01*
X85357142Y-36385990D02*
X85309523Y-36433609D01*
X85309523Y-36433609D02*
X85214285Y-36481228D01*
X85214285Y-36481228D02*
X84833333Y-36481228D01*
X85690476Y-35957419D02*
X86023809Y-36957419D01*
X86023809Y-36957419D02*
X86357142Y-35957419D01*
X87214285Y-36957419D02*
X86642857Y-36957419D01*
X86928571Y-36957419D02*
X86928571Y-35957419D01*
X86928571Y-35957419D02*
X86833333Y-36100276D01*
X86833333Y-36100276D02*
X86738095Y-36195514D01*
X86738095Y-36195514D02*
X86642857Y-36243133D01*
X111166667Y-47909800D02*
X111309524Y-47957419D01*
X111309524Y-47957419D02*
X111547619Y-47957419D01*
X111547619Y-47957419D02*
X111642857Y-47909800D01*
X111642857Y-47909800D02*
X111690476Y-47862180D01*
X111690476Y-47862180D02*
X111738095Y-47766942D01*
X111738095Y-47766942D02*
X111738095Y-47671704D01*
X111738095Y-47671704D02*
X111690476Y-47576466D01*
X111690476Y-47576466D02*
X111642857Y-47528847D01*
X111642857Y-47528847D02*
X111547619Y-47481228D01*
X111547619Y-47481228D02*
X111357143Y-47433609D01*
X111357143Y-47433609D02*
X111261905Y-47385990D01*
X111261905Y-47385990D02*
X111214286Y-47338371D01*
X111214286Y-47338371D02*
X111166667Y-47243133D01*
X111166667Y-47243133D02*
X111166667Y-47147895D01*
X111166667Y-47147895D02*
X111214286Y-47052657D01*
X111214286Y-47052657D02*
X111261905Y-47005038D01*
X111261905Y-47005038D02*
X111357143Y-46957419D01*
X111357143Y-46957419D02*
X111595238Y-46957419D01*
X111595238Y-46957419D02*
X111738095Y-47005038D01*
X112071429Y-46957419D02*
X112309524Y-47957419D01*
X112309524Y-47957419D02*
X112500000Y-47243133D01*
X112500000Y-47243133D02*
X112690476Y-47957419D01*
X112690476Y-47957419D02*
X112928572Y-46957419D01*
X113261905Y-47052657D02*
X113309524Y-47005038D01*
X113309524Y-47005038D02*
X113404762Y-46957419D01*
X113404762Y-46957419D02*
X113642857Y-46957419D01*
X113642857Y-46957419D02*
X113738095Y-47005038D01*
X113738095Y-47005038D02*
X113785714Y-47052657D01*
X113785714Y-47052657D02*
X113833333Y-47147895D01*
X113833333Y-47147895D02*
X113833333Y-47243133D01*
X113833333Y-47243133D02*
X113785714Y-47385990D01*
X113785714Y-47385990D02*
X113214286Y-47957419D01*
X113214286Y-47957419D02*
X113833333Y-47957419D01*
D13*
%TO.C,D4*%
X73220000Y-67530000D02*
X73220000Y-67860000D01*
X68800000Y-67530000D02*
X68800000Y-70470000D01*
X68680000Y-67530000D02*
X68680000Y-70470000D01*
X68560000Y-67530000D02*
X68560000Y-70470000D01*
X67780000Y-67530000D02*
X73220000Y-67530000D01*
X67780000Y-67860000D02*
X67780000Y-67530000D01*
X67780000Y-70140000D02*
X67780000Y-70470000D01*
X73220000Y-70470000D02*
X73220000Y-70140000D01*
X67780000Y-70470000D02*
X73220000Y-70470000D01*
%TO.C,J1*%
X90139000Y-32981000D02*
X74639000Y-32981000D01*
X90139000Y-23861000D02*
X90139000Y-32981000D01*
X88839000Y-31671000D02*
X84439000Y-31671000D01*
X88839000Y-25171000D02*
X88839000Y-31671000D01*
X84439000Y-31671000D02*
X84439000Y-32981000D01*
X80349000Y-34371000D02*
X79849000Y-33371000D01*
X80339000Y-32981000D02*
X80339000Y-31671000D01*
X80339000Y-31671000D02*
X75939000Y-31671000D01*
X79849000Y-33371000D02*
X79349000Y-34371000D01*
X79349000Y-34371000D02*
X80349000Y-34371000D01*
X75939000Y-31671000D02*
X75939000Y-25171000D01*
X75939000Y-25171000D02*
X88839000Y-25171000D01*
X74639000Y-32981000D02*
X74639000Y-23861000D01*
X74639000Y-23861000D02*
X90139000Y-23861000D01*
%TO.C,J2*%
X113219000Y-32981000D02*
X97719000Y-32981000D01*
X113219000Y-23861000D02*
X113219000Y-32981000D01*
X111919000Y-31671000D02*
X107519000Y-31671000D01*
X111919000Y-25171000D02*
X111919000Y-31671000D01*
X107519000Y-31671000D02*
X107519000Y-32981000D01*
X103429000Y-34371000D02*
X102929000Y-33371000D01*
X103419000Y-32981000D02*
X103419000Y-31671000D01*
X103419000Y-31671000D02*
X99019000Y-31671000D01*
X102929000Y-33371000D02*
X102429000Y-34371000D01*
X102429000Y-34371000D02*
X103429000Y-34371000D01*
X99019000Y-31671000D02*
X99019000Y-25171000D01*
X99019000Y-25171000D02*
X111919000Y-25171000D01*
X97719000Y-32981000D02*
X97719000Y-23861000D01*
X97719000Y-23861000D02*
X113219000Y-23861000D01*
%TO.C,D2*%
X91530000Y-70090000D02*
X91530000Y-75530000D01*
X91530000Y-75530000D02*
X91860000Y-75530000D01*
X91860000Y-70090000D02*
X91530000Y-70090000D01*
X94140000Y-70090000D02*
X94470000Y-70090000D01*
X94470000Y-70090000D02*
X94470000Y-75530000D01*
X94470000Y-70870000D02*
X91530000Y-70870000D01*
X94470000Y-70990000D02*
X91530000Y-70990000D01*
X94470000Y-71110000D02*
X91530000Y-71110000D01*
X94470000Y-75530000D02*
X94140000Y-75530000D01*
%TO.C,C1*%
X119270000Y-39070000D02*
X114730000Y-39070000D01*
X119270000Y-39014000D02*
X119270000Y-39070000D01*
X114730000Y-36986000D02*
X114730000Y-36930000D01*
X114730000Y-36930000D02*
X119270000Y-36930000D01*
%TO.C,R3*%
X112960000Y-41500000D02*
X113730000Y-41500000D01*
X121040000Y-41500000D02*
X120270000Y-41500000D01*
X113730000Y-40130000D02*
X120270000Y-40130000D01*
X120270000Y-42870000D01*
X113730000Y-42870000D01*
X113730000Y-40130000D01*
%TO.C,R2*%
X97960000Y-69000000D02*
X98730000Y-69000000D01*
X106040000Y-69000000D02*
X105270000Y-69000000D01*
X98730000Y-67630000D02*
X105270000Y-67630000D01*
X105270000Y-70370000D01*
X98730000Y-70370000D01*
X98730000Y-67630000D01*
%TO.C,R1*%
X90730000Y-34130000D02*
X97270000Y-34130000D01*
X97270000Y-36870000D01*
X90730000Y-36870000D01*
X90730000Y-34130000D01*
X98040000Y-35500000D02*
X97270000Y-35500000D01*
X89960000Y-35500000D02*
X90730000Y-35500000D01*
%TO.C,RV2*%
D12*
X88050000Y-37500000D02*
X110050000Y-37500000D01*
X110050000Y-61500000D01*
X88050000Y-61500000D01*
X88050000Y-37500000D01*
D13*
X102970000Y-60880000D02*
X102970000Y-58120000D01*
X97780000Y-60880000D02*
X102970000Y-60880000D01*
X97780000Y-60880000D02*
X97780000Y-58120000D01*
X97780000Y-58120000D02*
X102970000Y-58120000D01*
X96510000Y-60880000D02*
X95130000Y-60880000D01*
X95130000Y-60880000D02*
X95130000Y-59500000D01*
%TO.C,R4*%
X86770000Y-70370000D02*
X80230000Y-70370000D01*
X80230000Y-67630000D01*
X86770000Y-67630000D01*
X86770000Y-70370000D01*
X87540000Y-69000000D02*
X86770000Y-69000000D01*
X79460000Y-69000000D02*
X80230000Y-69000000D01*
%TO.C,U1*%
X118500000Y-71710000D02*
G75*
G02*
X116500000Y-71710000I-1000000J0D01*
G01*
X112360000Y-71650000D02*
X122640000Y-71650000D01*
X122640000Y-82050000D01*
X112360000Y-82050000D01*
X112360000Y-71650000D01*
X114850000Y-71710000D02*
X114850000Y-81990000D01*
X114850000Y-81990000D02*
X120150000Y-81990000D01*
X116500000Y-71710000D02*
X114850000Y-71710000D01*
X120150000Y-71710000D02*
X118500000Y-71710000D01*
X120150000Y-81990000D02*
X120150000Y-71710000D01*
%TO.C,C7*%
X121080000Y-71150000D02*
X116540000Y-71150000D01*
X121080000Y-71094000D02*
X121080000Y-71150000D01*
X116540000Y-69066000D02*
X116540000Y-69010000D01*
X116540000Y-69010000D02*
X121080000Y-69010000D01*
%TO.C,C8*%
X118461655Y-84689448D02*
X113921655Y-84689448D01*
X118461655Y-84633448D02*
X118461655Y-84689448D01*
X113921655Y-82605448D02*
X113921655Y-82549448D01*
X113921655Y-82549448D02*
X118461655Y-82549448D01*
%TO.C,SW1*%
X66595000Y-78595000D02*
X80565000Y-78595000D01*
X66595000Y-92565000D02*
X66595000Y-78595000D01*
X80565000Y-78595000D02*
X80565000Y-92565000D01*
X80565000Y-92565000D02*
X66595000Y-92565000D01*
%TO.C,R8*%
X97130000Y-84770000D02*
X99870000Y-84770000D01*
X99870000Y-78230000D01*
X97130000Y-78230000D01*
X97130000Y-84770000D01*
X98500000Y-77460000D02*
X98500000Y-78230000D01*
X98500000Y-85540000D02*
X98500000Y-84770000D01*
%TO.C,R6*%
X93350000Y-81450000D02*
X86810000Y-81450000D01*
X86810000Y-78710000D01*
X93350000Y-78710000D01*
X93350000Y-81450000D01*
X94120000Y-80080000D02*
X93350000Y-80080000D01*
X86040000Y-80080000D02*
X86810000Y-80080000D01*
%TO.C,R9*%
X111370000Y-78310000D02*
X108630000Y-78310000D01*
X108630000Y-84850000D01*
X111370000Y-84850000D01*
X111370000Y-78310000D01*
X110000000Y-77540000D02*
X110000000Y-78310000D01*
X110000000Y-85620000D02*
X110000000Y-84850000D01*
%TO.C,D6*%
X105021280Y-74400719D02*
X105021280Y-74070719D01*
X105021280Y-71460719D02*
X105021280Y-71790719D01*
X100601280Y-71460719D02*
X100601280Y-74400719D01*
X100481280Y-71460719D02*
X100481280Y-74400719D01*
X100361280Y-71460719D02*
X100361280Y-74400719D01*
X99581280Y-74400719D02*
X105021280Y-74400719D01*
X99581280Y-74070719D02*
X99581280Y-74400719D01*
X99581280Y-71790719D02*
X99581280Y-71460719D01*
X99581280Y-71460719D02*
X105021280Y-71460719D01*
%TO.C,C2*%
X106489351Y-77629953D02*
X101949351Y-77629953D01*
X106489351Y-77573953D02*
X106489351Y-77629953D01*
X101949351Y-75545953D02*
X101949351Y-75489953D01*
X101949351Y-75489953D02*
X106489351Y-75489953D01*
%TO.C,R5*%
X80230000Y-72130000D02*
X86770000Y-72130000D01*
X86770000Y-74870000D01*
X80230000Y-74870000D01*
X80230000Y-72130000D01*
X87540000Y-73500000D02*
X86770000Y-73500000D01*
X79460000Y-73500000D02*
X80230000Y-73500000D01*
%TO.C,D3*%
X67780000Y-74970000D02*
X67780000Y-74640000D01*
X72200000Y-74970000D02*
X72200000Y-72030000D01*
X72320000Y-74970000D02*
X72320000Y-72030000D01*
X72440000Y-74970000D02*
X72440000Y-72030000D01*
X73220000Y-74970000D02*
X67780000Y-74970000D01*
X73220000Y-74640000D02*
X73220000Y-74970000D01*
X73220000Y-72360000D02*
X73220000Y-72030000D01*
X67780000Y-72030000D02*
X67780000Y-72360000D01*
X73220000Y-72030000D02*
X67780000Y-72030000D01*
%TO.C,R7*%
X93350000Y-84950000D02*
X86810000Y-84950000D01*
X86810000Y-82210000D01*
X93350000Y-82210000D01*
X93350000Y-84950000D01*
X94120000Y-83580000D02*
X93350000Y-83580000D01*
X86040000Y-83580000D02*
X86810000Y-83580000D01*
%TO.C,D1*%
X116090000Y-85110000D02*
X116090000Y-85440000D01*
X116090000Y-88050000D02*
X116090000Y-87720000D01*
X120510000Y-88050000D02*
X120510000Y-85110000D01*
X120630000Y-88050000D02*
X120630000Y-85110000D01*
X120750000Y-88050000D02*
X120750000Y-85110000D01*
X121530000Y-85110000D02*
X116090000Y-85110000D01*
X121530000Y-85440000D02*
X121530000Y-85110000D01*
X121530000Y-87720000D02*
X121530000Y-88050000D01*
X121530000Y-88050000D02*
X116090000Y-88050000D01*
D12*
%TO.C,J7*%
X110000000Y-92555062D02*
G75*
G02*
X98000000Y-92555062I-6000000J0D01*
G01*
X98000000Y-92555062D02*
G75*
G02*
X110000000Y-92555062I6000000J0D01*
G01*
D13*
%TO.C,D5*%
X106790000Y-83625000D02*
X106790000Y-80535000D01*
X101240000Y-82080000D02*
G75*
G02*
X106790000Y-80535170I2990000J0D01*
G01*
X106790000Y-83624830D02*
G75*
G02*
X101240000Y-82080000I-2560000J1544830D01*
G01*
X106730000Y-82080000D02*
G75*
G02*
X101730000Y-82080000I-2500000J0D01*
G01*
X101730000Y-82080000D02*
G75*
G02*
X106730000Y-82080000I2500000J0D01*
G01*
D12*
%TO.C,J5*%
X96500000Y-92555062D02*
G75*
G02*
X84500000Y-92555062I-6000000J0D01*
G01*
X84500000Y-92555062D02*
G75*
G02*
X96500000Y-92555062I6000000J0D01*
G01*
D13*
%TO.C,RV1*%
X72080000Y-60880000D02*
X72080000Y-59500000D01*
X73460000Y-60880000D02*
X72080000Y-60880000D01*
X74730000Y-58120000D02*
X79920000Y-58120000D01*
X74730000Y-60880000D02*
X74730000Y-58120000D01*
X74730000Y-60880000D02*
X79920000Y-60880000D01*
X79920000Y-60880000D02*
X79920000Y-58120000D01*
D12*
X65000000Y-37500000D02*
X87000000Y-37500000D01*
X87000000Y-61500000D01*
X65000000Y-61500000D01*
X65000000Y-37500000D01*
%TO.C,SW2*%
X111000000Y-48500000D02*
X123000000Y-48500000D01*
X123000000Y-61500000D01*
X111000000Y-61500000D01*
X111000000Y-48500000D01*
%TD*%
M02*
