%TF.GenerationSoftware,KiCad,Pcbnew,9.0.6*%
%TF.CreationDate,2026-01-10T02:10:07+11:00*%
%TF.ProjectId,envelope-generator,656e7665-6c6f-4706-952d-67656e657261,rev?*%
%TF.SameCoordinates,Original*%
%TF.FileFunction,Copper,L1,Top*%
%TF.FilePolarity,Positive*%
%FSLAX46Y46*%
G04 Gerber Fmt 4.6, Leading zero omitted, Abs format (unit mm)*
G04 Created by KiCad (PCBNEW 9.0.6) date 2026-01-10 02:10:07*
%MOMM*%
%LPD*%
G01*
G04 APERTURE LIST*
G04 Aperture macros list*
%AMRoundRect*
0 Rectangle with rounded corners*
0 $1 Rounding radius*
0 $2 $3 $4 $5 $6 $7 $8 $9 X,Y pos of 4 corners*
0 Add a 4 corners polygon primitive as box body*
4,1,4,$2,$3,$4,$5,$6,$7,$8,$9,$2,$3,0*
0 Add four circle primitives for the rounded corners*
1,1,$1+$1,$2,$3*
1,1,$1+$1,$4,$5*
1,1,$1+$1,$6,$7*
1,1,$1+$1,$8,$9*
0 Add four rect primitives between the rounded corners*
20,1,$1+$1,$2,$3,$4,$5,0*
20,1,$1+$1,$4,$5,$6,$7,0*
20,1,$1+$1,$6,$7,$8,$9,0*
20,1,$1+$1,$8,$9,$2,$3,0*%
G04 Aperture macros list end*
%TA.AperFunction,ComponentPad*%
%ADD10RoundRect,0.250000X-0.650000X-0.650000X0.650000X-0.650000X0.650000X0.650000X-0.650000X0.650000X0*%
%TD*%
%TA.AperFunction,ComponentPad*%
%ADD11C,1.800000*%
%TD*%
%TA.AperFunction,ComponentPad*%
%ADD12RoundRect,0.250000X0.650000X-0.650000X0.650000X0.650000X-0.650000X0.650000X-0.650000X-0.650000X0*%
%TD*%
%TA.AperFunction,ComponentPad*%
%ADD13R,1.700000X1.700000*%
%TD*%
%TA.AperFunction,ComponentPad*%
%ADD14C,1.700000*%
%TD*%
%TA.AperFunction,ComponentPad*%
%ADD15C,1.600000*%
%TD*%
%TA.AperFunction,ComponentPad*%
%ADD16RoundRect,0.250000X-0.650000X0.650000X-0.650000X-0.650000X0.650000X-0.650000X0.650000X0.650000X0*%
%TD*%
%TA.AperFunction,ComponentPad*%
%ADD17C,8.000000*%
%TD*%
%TA.AperFunction,ComponentPad*%
%ADD18RoundRect,0.250000X0.600000X-0.600000X0.600000X0.600000X-0.600000X0.600000X-0.600000X-0.600000X0*%
%TD*%
%TA.AperFunction,ComponentPad*%
%ADD19R,1.800000X1.800000*%
%TD*%
%TA.AperFunction,ComponentPad*%
%ADD20O,3.750000X2.000000*%
%TD*%
%TA.AperFunction,ComponentPad*%
%ADD21O,3.500000X2.000000*%
%TD*%
%TA.AperFunction,ComponentPad*%
%ADD22RoundRect,0.250000X0.550000X0.550000X-0.550000X0.550000X-0.550000X-0.550000X0.550000X-0.550000X0*%
%TD*%
%TA.AperFunction,Conductor*%
%ADD23C,0.200000*%
%TD*%
G04 APERTURE END LIST*
D10*
%TO.P,D1,1,K*%
%TO.N,Net-(D1-K)*%
X110190000Y-82000000D03*
D11*
%TO.P,D1,2,A*%
%TO.N,Net-(D1-A)*%
X117810000Y-82000000D03*
%TD*%
D12*
%TO.P,D2,1,K*%
%TO.N,Net-(D2-K)*%
X121500000Y-70620000D03*
D11*
%TO.P,D2,2,A*%
%TO.N,GND*%
X121500000Y-63000000D03*
%TD*%
D13*
%TO.P,J3,1,Pin_1*%
%TO.N,Net-(D4-A)*%
X94050000Y-43500000D03*
D14*
%TO.P,J3,2,Pin_2*%
%TO.N,Net-(J3-Pin_2)*%
X99130000Y-43500000D03*
%TO.P,J3,3,Pin_3*%
X104130000Y-43500000D03*
%TD*%
D15*
%TO.P,R6,1*%
%TO.N,Net-(U1A--)*%
X93080000Y-82000000D03*
%TO.P,R6,2*%
%TO.N,12V*%
X82920000Y-82000000D03*
%TD*%
%TO.P,R5,1*%
%TO.N,GND*%
X103000000Y-68840000D03*
%TO.P,R5,2*%
%TO.N,Net-(U1A-+)*%
X103000000Y-79000000D03*
%TD*%
%TO.P,C2,1*%
%TO.N,Net-(J3-Pin_2)*%
X77000000Y-71500000D03*
%TO.P,C2,2*%
%TO.N,GND*%
X77000000Y-76500000D03*
%TD*%
%TO.P,R8,1*%
%TO.N,Net-(J7-Pin_1)*%
X72350412Y-68840000D03*
%TO.P,R8,2*%
%TO.N,Net-(D6-K)*%
X72350412Y-79000000D03*
%TD*%
D16*
%TO.P,D3,1,K*%
%TO.N,Net-(D3-K)*%
X86685950Y-69615537D03*
D11*
%TO.P,D3,2,A*%
%TO.N,Net-(D3-A)*%
X86685950Y-77235537D03*
%TD*%
D17*
%TO.P,J7,1,Pin_1*%
%TO.N,Net-(J7-Pin_1)*%
X104000000Y-90024938D03*
%TD*%
D15*
%TO.P,R3,1*%
%TO.N,Net-(SW2A-A)*%
X112500000Y-63000000D03*
%TO.P,R3,2*%
%TO.N,Net-(C1-Pad2)*%
X112500000Y-73160000D03*
%TD*%
D13*
%TO.P,J4,1,Pin_1*%
%TO.N,Net-(J4-Pin_1)*%
X71050000Y-43500000D03*
D14*
%TO.P,J4,2,Pin_2*%
%TO.N,Net-(J3-Pin_2)*%
X76130000Y-43500000D03*
%TO.P,J4,3,Pin_3*%
X81130000Y-43500000D03*
%TD*%
D12*
%TO.P,D4,1,K*%
%TO.N,Net-(D3-A)*%
X81890955Y-77221157D03*
D11*
%TO.P,D4,2,A*%
%TO.N,Net-(D4-A)*%
X81890955Y-69601157D03*
%TD*%
D18*
%TO.P,J2,1,Pin_1*%
%TO.N,12V*%
X103000000Y-32040000D03*
D14*
%TO.P,J2,2,Pin_2*%
%TO.N,-12V*%
X103000000Y-29500000D03*
%TO.P,J2,3,Pin_3*%
%TO.N,GND*%
X105540000Y-32040000D03*
%TO.P,J2,4,Pin_4*%
X105540000Y-29500000D03*
%TO.P,J2,5,Pin_5*%
%TO.N,5V*%
X108080000Y-32040000D03*
%TO.P,J2,6,Pin_6*%
%TO.N,unconnected-(J2-Pin_6-Pad6)*%
X108080000Y-29500000D03*
%TD*%
D18*
%TO.P,J1,1,Pin_1*%
%TO.N,12V*%
X79920000Y-32040000D03*
D14*
%TO.P,J1,2,Pin_2*%
%TO.N,-12V*%
X79920000Y-29500000D03*
%TO.P,J1,3,Pin_3*%
%TO.N,GND*%
X82460000Y-32040000D03*
%TO.P,J1,4,Pin_4*%
X82460000Y-29500000D03*
%TO.P,J1,5,Pin_5*%
%TO.N,5V*%
X85000000Y-32040000D03*
%TO.P,J1,6,Pin_6*%
%TO.N,unconnected-(J1-Pin_6-Pad6)*%
X85000000Y-29500000D03*
%TD*%
D19*
%TO.P,D5,1,K*%
%TO.N,GND*%
X95000000Y-96000000D03*
D11*
%TO.P,D5,2,A*%
%TO.N,Net-(D5-A)*%
X92460000Y-96000000D03*
%TD*%
D15*
%TO.P,R4,1*%
%TO.N,Net-(U1A-+)*%
X108000000Y-79080000D03*
%TO.P,R4,2*%
%TO.N,Net-(SW2A-A)*%
X108000000Y-68920000D03*
%TD*%
D13*
%TO.P,RV2,1,1*%
%TO.N,Net-(D4-A)*%
X96510000Y-59500000D03*
D14*
%TO.P,RV2,2,2*%
%TO.N,Net-(J3-Pin_2)*%
X99050000Y-59500000D03*
%TO.P,RV2,3,3*%
X101590000Y-59500000D03*
%TD*%
D15*
%TO.P,R2,1*%
%TO.N,Net-(D2-K)*%
X121500000Y-73920000D03*
%TO.P,R2,2*%
%TO.N,Net-(C1-Pad2)*%
X121500000Y-84080000D03*
%TD*%
%TO.P,C1,1*%
%TO.N,Net-(SW2A-C)*%
X117500000Y-77000000D03*
%TO.P,C1,2*%
%TO.N,Net-(C1-Pad2)*%
X112500000Y-77000000D03*
%TD*%
%TO.P,R1,1*%
%TO.N,GND*%
X117000000Y-63000000D03*
%TO.P,R1,2*%
%TO.N,Net-(SW2A-C)*%
X117000000Y-73160000D03*
%TD*%
D17*
%TO.P,J5,1,Pin_1*%
%TO.N,Net-(D1-A)*%
X84000000Y-90024938D03*
%TD*%
D13*
%TO.P,RV1,1,1*%
%TO.N,Net-(J4-Pin_1)*%
X73460000Y-59500000D03*
D14*
%TO.P,RV1,2,2*%
%TO.N,Net-(J3-Pin_2)*%
X76000000Y-59500000D03*
%TO.P,RV1,3,3*%
X78540000Y-59500000D03*
%TD*%
D20*
%TO.P,SW2,1,A*%
%TO.N,Net-(SW2A-A)*%
X114500000Y-54000000D03*
%TO.P,SW2,2,B*%
%TO.N,Net-(D1-K)*%
X114500000Y-49500000D03*
%TO.P,SW2,3,C*%
%TO.N,Net-(SW2A-C)*%
X114500000Y-45000000D03*
%TO.P,SW2,4,A*%
%TO.N,Net-(J4-Pin_1)*%
X119500000Y-54000000D03*
%TO.P,SW2,5,B*%
%TO.N,Net-(D3-K)*%
X119500000Y-49500000D03*
%TO.P,SW2,6,C*%
%TO.N,Net-(J3-Pin_2)*%
X119500000Y-45000000D03*
%TD*%
D21*
%TO.P,SW1,1,1*%
%TO.N,12V*%
X94000000Y-89500000D03*
%TO.P,SW1,2,2*%
%TO.N,Net-(D1-K)*%
X94000000Y-86000000D03*
%TD*%
D15*
%TO.P,R7,1*%
%TO.N,GND*%
X107000000Y-82000000D03*
%TO.P,R7,2*%
%TO.N,Net-(U1A--)*%
X96840000Y-82000000D03*
%TD*%
D10*
%TO.P,D6,1,K*%
%TO.N,Net-(D6-K)*%
X72190000Y-82000000D03*
D11*
%TO.P,D6,2,A*%
%TO.N,Net-(D6-A)*%
X79810000Y-82000000D03*
%TD*%
D22*
%TO.P,U1,1*%
%TO.N,Net-(D3-A)*%
X98620000Y-77000000D03*
D15*
%TO.P,U1,2,-*%
%TO.N,Net-(U1A--)*%
X98620000Y-74460000D03*
%TO.P,U1,3,+*%
%TO.N,Net-(U1A-+)*%
X98620000Y-71920000D03*
%TO.P,U1,4,V-*%
%TO.N,-12V*%
X98620000Y-69380000D03*
%TO.P,U1,5,+*%
%TO.N,Net-(J3-Pin_2)*%
X91000000Y-69380000D03*
%TO.P,U1,6,-*%
%TO.N,Net-(D6-A)*%
X91000000Y-71920000D03*
%TO.P,U1,7*%
X91000000Y-74460000D03*
%TO.P,U1,8,V+*%
%TO.N,12V*%
X91000000Y-77000000D03*
%TD*%
%TO.P,R9,1*%
%TO.N,Net-(D5-A)*%
X68000000Y-79160000D03*
%TO.P,R9,2*%
%TO.N,Net-(J7-Pin_1)*%
X68000000Y-69000000D03*
%TD*%
D23*
%TO.N,Net-(C1-Pad2)*%
X121500000Y-82991529D02*
X121500000Y-84080000D01*
X112500000Y-77000000D02*
X115508471Y-77000000D01*
X112500000Y-73160000D02*
X112500000Y-77000000D01*
X115508471Y-77000000D02*
X121500000Y-82991529D01*
%TO.N,Net-(SW2A-C)*%
X117000000Y-76500000D02*
X117500000Y-77000000D01*
X117699000Y-48199000D02*
X114500000Y-45000000D01*
X122701000Y-66327630D02*
X122701000Y-49986108D01*
X117000000Y-73160000D02*
X117000000Y-72028630D01*
X122701000Y-49986108D02*
X120913892Y-48199000D01*
X117000000Y-72028630D02*
X122701000Y-66327630D01*
X120913892Y-48199000D02*
X117699000Y-48199000D01*
X117000000Y-73160000D02*
X117000000Y-76500000D01*
%TO.N,GND*%
X105540000Y-29500000D02*
X105540000Y-32040000D01*
X85449100Y-75498000D02*
X78002000Y-75498000D01*
X104389000Y-30651000D02*
X105540000Y-29500000D01*
X103000000Y-68840000D02*
X101359000Y-70481000D01*
X78002000Y-75498000D02*
X77000000Y-76500000D01*
X90466100Y-70481000D02*
X85449100Y-75498000D01*
X108301000Y-91806471D02*
X104107471Y-96000000D01*
X101359000Y-70481000D02*
X90466100Y-70481000D01*
X117000000Y-63000000D02*
X121500000Y-63000000D01*
X82460000Y-29500000D02*
X82460000Y-32040000D01*
X117000000Y-63000000D02*
X112181000Y-67819000D01*
X82460000Y-29500000D02*
X83611000Y-30651000D01*
X104021000Y-67819000D02*
X103000000Y-68840000D01*
X83611000Y-30651000D02*
X104389000Y-30651000D01*
X112181000Y-67819000D02*
X104021000Y-67819000D01*
X108301000Y-83301000D02*
X108301000Y-91806471D01*
X107000000Y-82000000D02*
X108301000Y-83301000D01*
X104107471Y-96000000D02*
X95000000Y-96000000D01*
%TO.N,Net-(J3-Pin_2)*%
X76000000Y-59500000D02*
X78540000Y-59500000D01*
X82281000Y-42349000D02*
X97979000Y-42349000D01*
X91000000Y-69380000D02*
X88880000Y-71500000D01*
X99130000Y-43500000D02*
X99130000Y-59420000D01*
X99130000Y-43500000D02*
X104130000Y-43500000D01*
X81130000Y-43500000D02*
X76130000Y-43500000D01*
X99050000Y-59500000D02*
X101590000Y-59500000D01*
X104130000Y-43500000D02*
X118000000Y-43500000D01*
X97979000Y-42349000D02*
X99130000Y-43500000D01*
X76130000Y-43500000D02*
X76130000Y-59370000D01*
X88880000Y-71500000D02*
X77000000Y-71500000D01*
X99130000Y-59420000D02*
X99050000Y-59500000D01*
X81130000Y-43500000D02*
X82281000Y-42349000D01*
X118000000Y-43500000D02*
X119500000Y-45000000D01*
X76130000Y-59370000D02*
X76000000Y-59500000D01*
%TO.N,Net-(D1-K)*%
X103376050Y-80181000D02*
X108371000Y-80181000D01*
X108371000Y-80181000D02*
X110190000Y-82000000D01*
X94000000Y-86000000D02*
X97557050Y-86000000D01*
X97557050Y-86000000D02*
X103376050Y-80181000D01*
%TO.N,Net-(D2-K)*%
X121500000Y-73920000D02*
X121500000Y-70620000D01*
%TO.N,Net-(D3-A)*%
X98620000Y-77000000D02*
X97519000Y-75899000D01*
X86685950Y-77235537D02*
X86235537Y-77235537D01*
X86685950Y-77235537D02*
X81905335Y-77235537D01*
X81905335Y-77235537D02*
X81890955Y-77221157D01*
X97519000Y-75899000D02*
X88022487Y-75899000D01*
X88022487Y-75899000D02*
X86685950Y-77235537D01*
X86235537Y-77235537D02*
X86221157Y-77221157D01*
%TO.N,Net-(D4-A)*%
X94050000Y-57040000D02*
X96510000Y-59500000D01*
X94050000Y-43500000D02*
X94050000Y-57040000D01*
%TO.N,Net-(D5-A)*%
X68000000Y-80291370D02*
X83708630Y-96000000D01*
X83708630Y-96000000D02*
X92460000Y-96000000D01*
X68000000Y-79160000D02*
X68000000Y-80291370D01*
%TO.N,Net-(D6-A)*%
X91000000Y-71920000D02*
X91000000Y-74460000D01*
%TO.N,Net-(D6-K)*%
X72190000Y-79160412D02*
X72350412Y-79000000D01*
X72190000Y-82000000D02*
X72190000Y-79160412D01*
%TO.N,-12V*%
X78248000Y-29500000D02*
X69899000Y-37849000D01*
X97519000Y-68279000D02*
X98620000Y-69380000D01*
X69899000Y-37849000D02*
X69899000Y-58241000D01*
X79920000Y-29500000D02*
X81071000Y-28349000D01*
X79920000Y-29500000D02*
X78248000Y-29500000D01*
X69899000Y-58241000D02*
X79937000Y-68279000D01*
X101849000Y-28349000D02*
X103000000Y-29500000D01*
X79937000Y-68279000D02*
X97519000Y-68279000D01*
X81071000Y-28349000D02*
X101849000Y-28349000D01*
%TO.N,12V*%
X79920000Y-32040000D02*
X81071000Y-33191000D01*
X85000000Y-82000000D02*
X92500000Y-89500000D01*
X101849000Y-33191000D02*
X103000000Y-32040000D01*
X90000000Y-77000000D02*
X85000000Y-82000000D01*
X85000000Y-82000000D02*
X82920000Y-82000000D01*
X91000000Y-77000000D02*
X90000000Y-77000000D01*
X92500000Y-89500000D02*
X94000000Y-89500000D01*
X81071000Y-33191000D02*
X101849000Y-33191000D01*
%TO.N,Net-(J4-Pin_1)*%
X112956050Y-64101000D02*
X119500000Y-57557050D01*
X73460000Y-59500000D02*
X78061000Y-64101000D01*
X119500000Y-57557050D02*
X119500000Y-54000000D01*
X78061000Y-64101000D02*
X112956050Y-64101000D01*
X71050000Y-57090000D02*
X73460000Y-59500000D01*
X71050000Y-43500000D02*
X71050000Y-57090000D01*
%TO.N,Net-(J7-Pin_1)*%
X72350412Y-68840000D02*
X68160000Y-68840000D01*
X68160000Y-68840000D02*
X68000000Y-69000000D01*
%TO.N,Net-(SW2A-A)*%
X112500000Y-56000000D02*
X114500000Y-54000000D01*
X112500000Y-63000000D02*
X112500000Y-56000000D01*
%TO.N,Net-(U1A-+)*%
X103000000Y-79000000D02*
X103000000Y-76300000D01*
X103000000Y-76300000D02*
X98620000Y-71920000D01*
X108000000Y-79080000D02*
X103080000Y-79080000D01*
X103080000Y-79080000D02*
X103000000Y-79000000D01*
%TO.N,Net-(U1A--)*%
X100000000Y-75840000D02*
X100000000Y-78840000D01*
X100000000Y-78840000D02*
X96840000Y-82000000D01*
X98620000Y-74460000D02*
X100000000Y-75840000D01*
X93080000Y-82000000D02*
X96840000Y-82000000D01*
%TD*%
M02*
