M48
; DRILL file {KiCad 9.0.6} date 2026-01-21T23:03:08+1100
; FORMAT={-:-/ absolute / metric / decimal}
; #@! TF.CreationDate,2026-01-21T23:03:08+11:00
; #@! TF.GenerationSoftware,Kicad,Pcbnew,9.0.6
; #@! TF.FileFunction,Plated,1,2,PTH
FMAT,2
METRIC
; #@! TA.AperFunction,Plated,PTH,ComponentDrill
T1C0.800
; #@! TA.AperFunction,Plated,PTH,ComponentDrill
T2C0.900
; #@! TA.AperFunction,Plated,PTH,ComponentDrill
T3C1.000
; #@! TA.AperFunction,Plated,PTH,ComponentDrill
T4C1.200
; #@! TA.AperFunction,Plated,PTH,ComponentDrill
T5C1.500
; #@! TA.AperFunction,Plated,PTH,ComponentDrill
T6C6.000
%
G90
G05
T1
X78.42Y-69.0
X78.42Y-73.5
X84.34Y-100.0
X84.84Y-95.0
X88.58Y-69.0
X88.58Y-73.5
X88.92Y-35.5
X92.0Y-69.0
X94.5Y-100.0
X95.0Y-95.0
X97.0Y-69.0
X97.577Y-80.243
X97.577Y-90.403
X98.92Y-95.0
X99.08Y-35.5
X100.5Y-69.0
X109.08Y-95.0
X110.66Y-69.0
X111.92Y-41.5
X113.69Y-73.04
X113.69Y-75.58
X113.69Y-78.12
X113.69Y-80.66
X113.692Y-83.619
X114.5Y-38.0
X116.31Y-70.08
X118.692Y-83.619
X119.5Y-38.0
X121.31Y-70.08
X121.31Y-73.04
X121.31Y-75.58
X121.31Y-78.12
X121.31Y-80.66
X122.08Y-41.5
T2
X66.69Y-69.0
X66.69Y-73.5
X74.31Y-69.0
X74.31Y-73.5
X96.5Y-75.0
X99.04Y-75.0
X100.19Y-100.0
X102.69Y-73.5
X107.81Y-100.0
X110.31Y-73.5
X115.0Y-86.58
X122.62Y-86.58
T3
X73.46Y-59.5
X76.0Y-59.5
X78.54Y-59.5
X79.849Y-27.151
X79.849Y-29.691
X82.389Y-27.151
X82.389Y-29.691
X84.929Y-27.151
X84.929Y-29.691
X96.51Y-59.5
X99.05Y-59.5
X101.59Y-59.5
X102.929Y-27.151
X102.929Y-29.691
X105.469Y-27.151
X105.469Y-29.691
X108.009Y-27.151
X108.009Y-29.691
T4
X71.05Y-43.5
X76.13Y-43.5
X81.13Y-43.5
X94.05Y-43.5
X99.13Y-43.5
X104.13Y-43.5
T5
X69.77Y-83.04
X76.12Y-80.5
T6
X89.5Y-82.025
X106.0Y-82.025
T4
G00X113.725Y-50.5
M15
G01X115.275Y-50.5
M16
G05
G00X113.725Y-55.0
M15
G01X115.275Y-55.0
M16
G05
G00X113.725Y-59.5
M15
G01X115.275Y-59.5
M16
G05
G00X118.725Y-50.5
M15
G01X120.275Y-50.5
M16
G05
G00X118.725Y-55.0
M15
G01X120.275Y-55.0
M16
G05
G00X118.725Y-59.5
M15
G01X120.275Y-59.5
M16
G05
M30
