%TF.GenerationSoftware,KiCad,Pcbnew,9.0.6*%
%TF.CreationDate,2026-01-21T23:03:05+11:00*%
%TF.ProjectId,envelope-generator,656e7665-6c6f-4706-952d-67656e657261,rev?*%
%TF.SameCoordinates,Original*%
%TF.FileFunction,Copper,L1,Top*%
%TF.FilePolarity,Positive*%
%FSLAX46Y46*%
G04 Gerber Fmt 4.6, Leading zero omitted, Abs format (unit mm)*
G04 Created by KiCad (PCBNEW 9.0.6) date 2026-01-21 23:03:05*
%MOMM*%
%LPD*%
G01*
G04 APERTURE LIST*
G04 Aperture macros list*
%AMRoundRect*
0 Rectangle with rounded corners*
0 $1 Rounding radius*
0 $2 $3 $4 $5 $6 $7 $8 $9 X,Y pos of 4 corners*
0 Add a 4 corners polygon primitive as box body*
4,1,4,$2,$3,$4,$5,$6,$7,$8,$9,$2,$3,0*
0 Add four circle primitives for the rounded corners*
1,1,$1+$1,$2,$3*
1,1,$1+$1,$4,$5*
1,1,$1+$1,$6,$7*
1,1,$1+$1,$8,$9*
0 Add four rect primitives between the rounded corners*
20,1,$1+$1,$2,$3,$4,$5,0*
20,1,$1+$1,$4,$5,$6,$7,0*
20,1,$1+$1,$6,$7,$8,$9,0*
20,1,$1+$1,$8,$9,$2,$3,0*%
G04 Aperture macros list end*
%TA.AperFunction,ComponentPad*%
%ADD10RoundRect,0.250000X0.650000X0.650000X-0.650000X0.650000X-0.650000X-0.650000X0.650000X-0.650000X0*%
%TD*%
%TA.AperFunction,ComponentPad*%
%ADD11C,1.800000*%
%TD*%
%TA.AperFunction,ComponentPad*%
%ADD12R,2.000000X2.000000*%
%TD*%
%TA.AperFunction,ComponentPad*%
%ADD13C,2.000000*%
%TD*%
%TA.AperFunction,ComponentPad*%
%ADD14C,1.600000*%
%TD*%
%TA.AperFunction,ComponentPad*%
%ADD15C,8.000000*%
%TD*%
%TA.AperFunction,ComponentPad*%
%ADD16RoundRect,0.250000X-0.650000X-0.650000X0.650000X-0.650000X0.650000X0.650000X-0.650000X0.650000X0*%
%TD*%
%TA.AperFunction,ComponentPad*%
%ADD17RoundRect,0.250000X0.600000X-0.600000X0.600000X0.600000X-0.600000X0.600000X-0.600000X-0.600000X0*%
%TD*%
%TA.AperFunction,ComponentPad*%
%ADD18C,1.700000*%
%TD*%
%TA.AperFunction,ComponentPad*%
%ADD19R,1.800000X1.800000*%
%TD*%
%TA.AperFunction,ComponentPad*%
%ADD20R,1.700000X1.700000*%
%TD*%
%TA.AperFunction,ComponentPad*%
%ADD21O,3.750000X2.200000*%
%TD*%
%TA.AperFunction,ComponentPad*%
%ADD22C,2.200000*%
%TD*%
%TA.AperFunction,ComponentPad*%
%ADD23RoundRect,0.250000X-0.550000X-0.550000X0.550000X-0.550000X0.550000X0.550000X-0.550000X0.550000X0*%
%TD*%
%TA.AperFunction,Conductor*%
%ADD24C,0.200000*%
%TD*%
G04 APERTURE END LIST*
D10*
%TO.P,D1,1,K*%
%TO.N,Net-(D1-K)*%
X122620000Y-86580000D03*
D11*
%TO.P,D1,2,A*%
%TO.N,Net-(D1-A)*%
X115000000Y-86580000D03*
%TD*%
D10*
%TO.P,D2,1,K*%
%TO.N,Net-(D2-K)*%
X110310000Y-73500000D03*
D11*
%TO.P,D2,2,A*%
%TO.N,GND*%
X102690000Y-73500000D03*
%TD*%
D12*
%TO.P,J3,1,Pin_1*%
%TO.N,Net-(D4-A)*%
X94050000Y-43500000D03*
D13*
%TO.P,J3,2,Pin_2*%
%TO.N,Net-(J3-Pin_2)*%
X99130000Y-43500000D03*
%TO.P,J3,3,Pin_3*%
X104130000Y-43500000D03*
%TD*%
D14*
%TO.P,R6,1*%
%TO.N,Net-(U1A--)*%
X97577189Y-80243325D03*
%TO.P,R6,2*%
%TO.N,12V*%
X97577189Y-90403325D03*
%TD*%
%TO.P,R5,1*%
%TO.N,GND*%
X78420000Y-73500000D03*
%TO.P,R5,2*%
%TO.N,Net-(U1A-+)*%
X88580000Y-73500000D03*
%TD*%
%TO.P,C2,1*%
%TO.N,Net-(J3-Pin_2)*%
X97000000Y-69000000D03*
%TO.P,C2,2*%
%TO.N,GND*%
X92000000Y-69000000D03*
%TD*%
%TO.P,R8,1*%
%TO.N,Net-(J7-Pin_1)*%
X98920000Y-95000000D03*
%TO.P,R8,2*%
%TO.N,Net-(D6-K)*%
X109080000Y-95000000D03*
%TD*%
%TO.P,C3,1*%
%TO.N,GND*%
X116310000Y-70080000D03*
%TO.P,C3,2*%
%TO.N,12V*%
X121310000Y-70080000D03*
%TD*%
D10*
%TO.P,D3,1,K*%
%TO.N,Net-(D3-K)*%
X74310000Y-73500000D03*
D11*
%TO.P,D3,2,A*%
%TO.N,Net-(D3-A)*%
X66690000Y-73500000D03*
%TD*%
D15*
%TO.P,J7,1,Pin_1*%
%TO.N,Net-(J7-Pin_1)*%
X106000000Y-82024938D03*
%TD*%
D14*
%TO.P,R3,1*%
%TO.N,Net-(SW2A-A)*%
X111920000Y-41500000D03*
%TO.P,R3,2*%
%TO.N,Net-(C1-Pad2)*%
X122080000Y-41500000D03*
%TD*%
D12*
%TO.P,J4,1,Pin_1*%
%TO.N,Net-(J4-Pin_1)*%
X71050000Y-43500000D03*
D13*
%TO.P,J4,2,Pin_2*%
%TO.N,Net-(J3-Pin_2)*%
X76130000Y-43500000D03*
%TO.P,J4,3,Pin_3*%
X81130000Y-43500000D03*
%TD*%
D16*
%TO.P,D4,1,K*%
%TO.N,Net-(D3-A)*%
X66690000Y-69000000D03*
D11*
%TO.P,D4,2,A*%
%TO.N,Net-(D4-A)*%
X74310000Y-69000000D03*
%TD*%
D17*
%TO.P,J2,1,Pin_1*%
%TO.N,12V*%
X102929000Y-29691000D03*
D18*
%TO.P,J2,2,Pin_2*%
%TO.N,-12V*%
X102929000Y-27151000D03*
%TO.P,J2,3,Pin_3*%
%TO.N,GND*%
X105469000Y-29691000D03*
%TO.P,J2,4,Pin_4*%
X105469000Y-27151000D03*
%TO.P,J2,5,Pin_5*%
%TO.N,5V*%
X108009000Y-29691000D03*
%TO.P,J2,6,Pin_6*%
%TO.N,unconnected-(J2-Pin_6-Pad6)*%
X108009000Y-27151000D03*
%TD*%
D17*
%TO.P,J1,1,Pin_1*%
%TO.N,12V*%
X79849000Y-29691000D03*
D18*
%TO.P,J1,2,Pin_2*%
%TO.N,-12V*%
X79849000Y-27151000D03*
%TO.P,J1,3,Pin_3*%
%TO.N,GND*%
X82389000Y-29691000D03*
%TO.P,J1,4,Pin_4*%
X82389000Y-27151000D03*
%TO.P,J1,5,Pin_5*%
%TO.N,5V*%
X84929000Y-29691000D03*
%TO.P,J1,6,Pin_6*%
%TO.N,unconnected-(J1-Pin_6-Pad6)*%
X84929000Y-27151000D03*
%TD*%
D19*
%TO.P,D5,1,K*%
%TO.N,GND*%
X96500000Y-75000000D03*
D11*
%TO.P,D5,2,A*%
%TO.N,Net-(D5-A)*%
X99040000Y-75000000D03*
%TD*%
D14*
%TO.P,R4,1*%
%TO.N,Net-(U1A-+)*%
X88580000Y-69000000D03*
%TO.P,R4,2*%
%TO.N,Net-(SW2A-A)*%
X78420000Y-69000000D03*
%TD*%
D20*
%TO.P,RV2,1,1*%
%TO.N,Net-(D4-A)*%
X96510000Y-59500000D03*
D18*
%TO.P,RV2,2,2*%
%TO.N,Net-(J3-Pin_2)*%
X99050000Y-59500000D03*
%TO.P,RV2,3,3*%
X101590000Y-59500000D03*
%TD*%
D14*
%TO.P,R2,1*%
%TO.N,Net-(D2-K)*%
X100500000Y-69000000D03*
%TO.P,R2,2*%
%TO.N,Net-(C1-Pad2)*%
X110660000Y-69000000D03*
%TD*%
%TO.P,C1,1*%
%TO.N,Net-(SW2A-C)*%
X114500000Y-38000000D03*
%TO.P,C1,2*%
%TO.N,Net-(C1-Pad2)*%
X119500000Y-38000000D03*
%TD*%
%TO.P,R1,1*%
%TO.N,GND*%
X88920000Y-35500000D03*
%TO.P,R1,2*%
%TO.N,Net-(SW2A-C)*%
X99080000Y-35500000D03*
%TD*%
%TO.P,C4,1*%
%TO.N,GND*%
X118691655Y-83619448D03*
%TO.P,C4,2*%
%TO.N,-12V*%
X113691655Y-83619448D03*
%TD*%
D15*
%TO.P,J5,1,Pin_1*%
%TO.N,Net-(D1-A)*%
X89500000Y-82024938D03*
%TD*%
D20*
%TO.P,RV1,1,1*%
%TO.N,Net-(J4-Pin_1)*%
X73460000Y-59500000D03*
D18*
%TO.P,RV1,2,2*%
%TO.N,Net-(J3-Pin_2)*%
X76000000Y-59500000D03*
%TO.P,RV1,3,3*%
X78540000Y-59500000D03*
%TD*%
D21*
%TO.P,SW2,1,A*%
%TO.N,Net-(SW2A-A)*%
X114500000Y-59500000D03*
%TO.P,SW2,2,B*%
%TO.N,Net-(D1-K)*%
X114500000Y-55000000D03*
%TO.P,SW2,3,C*%
%TO.N,Net-(SW2A-C)*%
X114500000Y-50500000D03*
%TO.P,SW2,4,A*%
%TO.N,Net-(J4-Pin_1)*%
X119500000Y-59500000D03*
%TO.P,SW2,5,B*%
%TO.N,Net-(D3-K)*%
X119500000Y-55000000D03*
%TO.P,SW2,6,C*%
%TO.N,Net-(J3-Pin_2)*%
X119500000Y-50500000D03*
%TD*%
D22*
%TO.P,SW1,1,1*%
%TO.N,12V*%
X76120000Y-80500000D03*
%TO.P,SW1,2,2*%
%TO.N,Net-(D1-K)*%
X69770000Y-83040000D03*
%TD*%
D14*
%TO.P,R7,1*%
%TO.N,GND*%
X84840000Y-95000000D03*
%TO.P,R7,2*%
%TO.N,Net-(U1A--)*%
X95000000Y-95000000D03*
%TD*%
D16*
%TO.P,D6,1,K*%
%TO.N,Net-(D6-K)*%
X100190000Y-100000000D03*
D11*
%TO.P,D6,2,A*%
%TO.N,Net-(D6-A)*%
X107810000Y-100000000D03*
%TD*%
D23*
%TO.P,U1,1*%
%TO.N,Net-(D3-A)*%
X113690000Y-73040000D03*
D14*
%TO.P,U1,2,-*%
%TO.N,Net-(U1A--)*%
X113690000Y-75580000D03*
%TO.P,U1,3,+*%
%TO.N,Net-(U1A-+)*%
X113690000Y-78120000D03*
%TO.P,U1,4,V-*%
%TO.N,-12V*%
X113690000Y-80660000D03*
%TO.P,U1,5,+*%
%TO.N,Net-(J3-Pin_2)*%
X121310000Y-80660000D03*
%TO.P,U1,6,-*%
%TO.N,Net-(D6-A)*%
X121310000Y-78120000D03*
%TO.P,U1,7*%
X121310000Y-75580000D03*
%TO.P,U1,8,V+*%
%TO.N,12V*%
X121310000Y-73040000D03*
%TD*%
%TO.P,R9,1*%
%TO.N,Net-(D5-A)*%
X84340000Y-100000000D03*
%TO.P,R9,2*%
%TO.N,Net-(J7-Pin_1)*%
X94500000Y-100000000D03*
%TD*%
D24*
%TO.N,Net-(C1-Pad2)*%
X119500000Y-38000000D02*
X122080000Y-40580000D01*
X122080000Y-40580000D02*
X122080000Y-41500000D01*
%TO.N,Net-(SW2A-C)*%
X114500000Y-38000000D02*
X114500000Y-50500000D01*
X99080000Y-35500000D02*
X112000000Y-35500000D01*
X112000000Y-35500000D02*
X114500000Y-38000000D01*
%TO.N,GND*%
X82389000Y-27151000D02*
X82389000Y-29691000D01*
X105469000Y-27151000D02*
X105469000Y-29691000D01*
%TO.N,Net-(J3-Pin_2)*%
X112531000Y-51901000D02*
X118099000Y-51901000D01*
X76000000Y-59500000D02*
X78540000Y-59500000D01*
X121766050Y-71939000D02*
X122411000Y-72583950D01*
X116569950Y-71939000D02*
X121766050Y-71939000D01*
X97130000Y-45500000D02*
X99130000Y-43500000D01*
X118099000Y-51901000D02*
X119500000Y-50500000D01*
X99050000Y-59500000D02*
X99050000Y-59950000D01*
X104130000Y-43500000D02*
X112531000Y-51901000D01*
X81130000Y-43500000D02*
X83130000Y-45500000D01*
X97000000Y-62000000D02*
X97000000Y-69000000D01*
X99130000Y-43500000D02*
X104130000Y-43500000D01*
X99050000Y-59950000D02*
X97000000Y-62000000D01*
X122411000Y-79559000D02*
X121310000Y-80660000D01*
X81130000Y-43500000D02*
X76130000Y-43500000D01*
X99050000Y-59500000D02*
X101590000Y-59500000D01*
X122411000Y-72583950D02*
X122411000Y-79559000D01*
X97000000Y-69000000D02*
X98101000Y-70101000D01*
X114731950Y-70101000D02*
X116569950Y-71939000D01*
X83130000Y-45500000D02*
X97130000Y-45500000D01*
X98101000Y-70101000D02*
X114731950Y-70101000D01*
%TO.N,Net-(D1-K)*%
X114500000Y-55000000D02*
X72500000Y-55000000D01*
X72500000Y-55000000D02*
X64628135Y-62871865D01*
X64628135Y-62871865D02*
X64628135Y-77898135D01*
X64628135Y-77898135D02*
X69770000Y-83040000D01*
%TO.N,Net-(D3-A)*%
X96799000Y-72299000D02*
X112949000Y-72299000D01*
X94397000Y-74701000D02*
X96799000Y-72299000D01*
X112949000Y-72299000D02*
X113690000Y-73040000D01*
X66690000Y-73500000D02*
X67891000Y-74701000D01*
X67891000Y-74701000D02*
X94397000Y-74701000D01*
%TO.N,Net-(D5-A)*%
X84340000Y-100000000D02*
X93801000Y-90539000D01*
X93801000Y-80239000D02*
X99040000Y-75000000D01*
X93801000Y-90539000D02*
X93801000Y-80239000D01*
%TO.N,Net-(D6-A)*%
X121310000Y-78120000D02*
X121310000Y-75580000D01*
%TO.N,Net-(D6-K)*%
X100190000Y-100000000D02*
X104080000Y-100000000D01*
X104080000Y-100000000D02*
X109080000Y-95000000D01*
%TO.N,-12V*%
X117119448Y-83619448D02*
X113691655Y-83619448D01*
X118399000Y-39472865D02*
X123426135Y-44500000D01*
X104080000Y-26000000D02*
X105945760Y-26000000D01*
X123426135Y-82500000D02*
X121205687Y-84720448D01*
X113690000Y-83617793D02*
X113691655Y-83619448D01*
X79849000Y-27151000D02*
X81000000Y-26000000D01*
X102929000Y-27151000D02*
X104080000Y-26000000D01*
X118399000Y-38453240D02*
X118399000Y-39472865D01*
X101778000Y-26000000D02*
X102929000Y-27151000D01*
X123426135Y-44500000D02*
X123426135Y-82500000D01*
X113690000Y-80660000D02*
X113690000Y-83617793D01*
X121205687Y-84720448D02*
X118220448Y-84720448D01*
X106620000Y-26674240D02*
X106620000Y-27389760D01*
X106620000Y-27389760D02*
X107770240Y-28540000D01*
X105945760Y-26000000D02*
X106620000Y-26674240D01*
X107770240Y-28540000D02*
X108485760Y-28540000D01*
X108485760Y-28540000D02*
X118399000Y-38453240D01*
X81000000Y-26000000D02*
X101778000Y-26000000D01*
X118220448Y-84720448D02*
X117119448Y-83619448D01*
%TO.N,12V*%
X122109999Y-69280001D02*
X122109999Y-44052949D01*
X108899050Y-30842000D02*
X104080000Y-30842000D01*
X79849000Y-29691000D02*
X81000000Y-30842000D01*
X101778000Y-30842000D02*
X102929000Y-29691000D01*
X122109999Y-44052949D02*
X108899050Y-30842000D01*
X104080000Y-30842000D02*
X102929000Y-29691000D01*
X121310000Y-70080000D02*
X122109999Y-69280001D01*
X81000000Y-30842000D02*
X101778000Y-30842000D01*
%TO.N,Net-(J4-Pin_1)*%
X117500000Y-57500000D02*
X75460000Y-57500000D01*
X75460000Y-57500000D02*
X73460000Y-59500000D01*
X119500000Y-59500000D02*
X117500000Y-57500000D01*
%TO.N,Net-(J7-Pin_1)*%
X94500000Y-100000000D02*
X98920000Y-95580000D01*
X98920000Y-95000000D02*
X98920000Y-89104938D01*
X98920000Y-89104938D02*
X106000000Y-82024938D01*
X98920000Y-95580000D02*
X98920000Y-95000000D01*
%TO.N,Net-(U1A-+)*%
X88580000Y-69000000D02*
X88580000Y-73500000D01*
%TO.N,Net-(U1A--)*%
X97577189Y-80243325D02*
X95000000Y-82820514D01*
X95000000Y-82820514D02*
X95000000Y-95000000D01*
X102240514Y-75580000D02*
X113690000Y-75580000D01*
X97577189Y-80243325D02*
X102240514Y-75580000D01*
%TD*%
M02*
