%TF.GenerationSoftware,KiCad,Pcbnew,9.0.6*%
%TF.CreationDate,2026-01-21T23:05:20+11:00*%
%TF.ProjectId,low-pass-filter,6c6f772d-7061-4737-932d-66696c746572,rev?*%
%TF.SameCoordinates,Original*%
%TF.FileFunction,Copper,L2,Bot*%
%TF.FilePolarity,Positive*%
%FSLAX46Y46*%
G04 Gerber Fmt 4.6, Leading zero omitted, Abs format (unit mm)*
G04 Created by KiCad (PCBNEW 9.0.6) date 2026-01-21 23:05:20*
%MOMM*%
%LPD*%
G01*
G04 APERTURE LIST*
G04 Aperture macros list*
%AMRoundRect*
0 Rectangle with rounded corners*
0 $1 Rounding radius*
0 $2 $3 $4 $5 $6 $7 $8 $9 X,Y pos of 4 corners*
0 Add a 4 corners polygon primitive as box body*
4,1,4,$2,$3,$4,$5,$6,$7,$8,$9,$2,$3,0*
0 Add four circle primitives for the rounded corners*
1,1,$1+$1,$2,$3*
1,1,$1+$1,$4,$5*
1,1,$1+$1,$6,$7*
1,1,$1+$1,$8,$9*
0 Add four rect primitives between the rounded corners*
20,1,$1+$1,$2,$3,$4,$5,0*
20,1,$1+$1,$4,$5,$6,$7,0*
20,1,$1+$1,$6,$7,$8,$9,0*
20,1,$1+$1,$8,$9,$2,$3,0*%
G04 Aperture macros list end*
%TA.AperFunction,ComponentPad*%
%ADD10C,1.600000*%
%TD*%
%TA.AperFunction,ComponentPad*%
%ADD11RoundRect,0.250000X0.600000X-0.600000X0.600000X0.600000X-0.600000X0.600000X-0.600000X-0.600000X0*%
%TD*%
%TA.AperFunction,ComponentPad*%
%ADD12C,1.700000*%
%TD*%
%TA.AperFunction,ComponentPad*%
%ADD13R,1.700000X1.700000*%
%TD*%
%TA.AperFunction,ComponentPad*%
%ADD14R,2.000000X2.000000*%
%TD*%
%TA.AperFunction,ComponentPad*%
%ADD15C,2.000000*%
%TD*%
%TA.AperFunction,ComponentPad*%
%ADD16R,1.300000X1.300000*%
%TD*%
%TA.AperFunction,ComponentPad*%
%ADD17C,1.300000*%
%TD*%
%TA.AperFunction,ComponentPad*%
%ADD18C,8.000000*%
%TD*%
%TA.AperFunction,ComponentPad*%
%ADD19R,1.800000X1.800000*%
%TD*%
%TA.AperFunction,ComponentPad*%
%ADD20C,1.800000*%
%TD*%
%TA.AperFunction,ComponentPad*%
%ADD21RoundRect,0.250000X0.550000X-0.550000X0.550000X0.550000X-0.550000X0.550000X-0.550000X-0.550000X0*%
%TD*%
%TA.AperFunction,ComponentPad*%
%ADD22RoundRect,0.250000X-0.550000X0.550000X-0.550000X-0.550000X0.550000X-0.550000X0.550000X0.550000X0*%
%TD*%
%TA.AperFunction,Conductor*%
%ADD23C,0.200000*%
%TD*%
G04 APERTURE END LIST*
D10*
%TO.P,R8,1*%
%TO.N,Net-(U2B--)*%
X66810001Y-125270000D03*
%TO.P,R8,2*%
%TO.N,Net-(U1A-+)*%
X66810001Y-115110000D03*
%TD*%
%TO.P,R7,1*%
%TO.N,Net-(Q2-C)*%
X71182766Y-89957451D03*
%TO.P,R7,2*%
%TO.N,Net-(R7-Pad2)*%
X71182766Y-100117451D03*
%TD*%
D11*
%TO.P,J2,1,Pin_1*%
%TO.N,12V*%
X79000000Y-51540000D03*
D12*
%TO.P,J2,2,Pin_2*%
%TO.N,-12V*%
X79000000Y-49000000D03*
%TO.P,J2,3,Pin_3*%
%TO.N,GND*%
X81540000Y-51540000D03*
%TO.P,J2,4,Pin_4*%
X81540000Y-49000000D03*
%TO.P,J2,5,Pin_5*%
%TO.N,5V*%
X84080000Y-51540000D03*
%TO.P,J2,6,Pin_6*%
%TO.N,unconnected-(J2-Pin_6-Pad6)*%
X84080000Y-49000000D03*
%TD*%
D13*
%TO.P,RV2,1,1*%
%TO.N,GND*%
X78860001Y-82000000D03*
D12*
%TO.P,RV2,2,2*%
%TO.N,Net-(J6-Pin_2)*%
X81400001Y-82000000D03*
%TO.P,RV2,3,3*%
%TO.N,Net-(J5-Pin_1)*%
X83940001Y-82000000D03*
%TD*%
D10*
%TO.P,R3,1*%
%TO.N,Net-(U1C--)*%
X53310001Y-100190000D03*
%TO.P,R3,2*%
%TO.N,GND*%
X53310001Y-90030000D03*
%TD*%
D14*
%TO.P,J9,1,Pin_1*%
%TO.N,-12V*%
X99575001Y-66000000D03*
D15*
%TO.P,J9,2,Pin_2*%
%TO.N,Net-(J9-Pin_2)*%
X104655001Y-66000000D03*
%TO.P,J9,3,Pin_3*%
%TO.N,12V*%
X109655001Y-66000000D03*
%TD*%
D16*
%TO.P,Q1,1,C*%
%TO.N,Net-(Q1-C)*%
X80230001Y-105650000D03*
D17*
%TO.P,Q1,2,B*%
%TO.N,Net-(Q1-B)*%
X81500001Y-104380000D03*
%TO.P,Q1,3,E*%
%TO.N,Net-(Q1-E)*%
X82770001Y-105650000D03*
%TD*%
D18*
%TO.P,J5,1,Pin_1*%
%TO.N,Net-(J5-Pin_1)*%
X96500001Y-133524938D03*
%TD*%
D10*
%TO.P,R10,1*%
%TO.N,Net-(U1A--)*%
X57810001Y-115190000D03*
%TO.P,R10,2*%
%TO.N,Net-(U2C--)*%
X57810001Y-125350000D03*
%TD*%
%TO.P,C2,1*%
%TO.N,-12V*%
X101618620Y-101063201D03*
%TO.P,C2,2*%
%TO.N,GND*%
X106618620Y-101063201D03*
%TD*%
D19*
%TO.P,D1,1,K*%
%TO.N,Net-(D1-K)*%
X86960001Y-103380000D03*
D20*
%TO.P,D1,2,A*%
%TO.N,Net-(D1-A)*%
X89500001Y-103380000D03*
%TD*%
D10*
%TO.P,R6,1*%
%TO.N,Net-(D1-A)*%
X94040001Y-125349043D03*
%TO.P,R6,2*%
%TO.N,Net-(D1-K)*%
X94040001Y-115189043D03*
%TD*%
%TO.P,R4,1*%
%TO.N,Net-(D1-K)*%
X98540001Y-115340000D03*
%TO.P,R4,2*%
%TO.N,GND*%
X98540001Y-125500000D03*
%TD*%
D19*
%TO.P,D2,1,K*%
%TO.N,Net-(D1-A)*%
X89500001Y-111880000D03*
D20*
%TO.P,D2,2,A*%
%TO.N,Net-(D1-K)*%
X86960001Y-111880000D03*
%TD*%
D10*
%TO.P,R17,1*%
%TO.N,Net-(J3-Pin_2)*%
X75810001Y-113850000D03*
%TO.P,R17,2*%
%TO.N,Net-(Q1-B)*%
X75810001Y-103690000D03*
%TD*%
%TO.P,C1,1*%
%TO.N,GND*%
X106618900Y-114405498D03*
%TO.P,C1,2*%
%TO.N,12V*%
X101618900Y-114405498D03*
%TD*%
%TO.P,R16,1*%
%TO.N,Net-(Q1-B)*%
X80310001Y-100190000D03*
%TO.P,R16,2*%
%TO.N,Net-(J9-Pin_2)*%
X80310001Y-90030000D03*
%TD*%
D21*
%TO.P,U2,1*%
%TO.N,Net-(D1-A)*%
X94000001Y-111500000D03*
D10*
%TO.P,U2,2,-*%
%TO.N,Net-(D1-K)*%
X96540001Y-111500000D03*
%TO.P,U2,3,+*%
%TO.N,Net-(J6-Pin_2)*%
X99080001Y-111500000D03*
%TO.P,U2,4,V+*%
%TO.N,12V*%
X101620001Y-111500000D03*
%TO.P,U2,5,+*%
%TO.N,Net-(U2B-+)*%
X104160001Y-111500000D03*
%TO.P,U2,6,-*%
%TO.N,Net-(U2B--)*%
X106700001Y-111500000D03*
%TO.P,U2,7*%
X109240001Y-111500000D03*
%TO.P,U2,8*%
%TO.N,Net-(U2C--)*%
X109240001Y-103880000D03*
%TO.P,U2,9,-*%
X106700001Y-103880000D03*
%TO.P,U2,10,+*%
%TO.N,Net-(U2C-+)*%
X104160001Y-103880000D03*
%TO.P,U2,11,V-*%
%TO.N,-12V*%
X101620001Y-103880000D03*
%TO.P,U2,12,+*%
%TO.N,GND*%
X99080001Y-103880000D03*
%TO.P,U2,13,-*%
%TO.N,Net-(Q1-C)*%
X96540001Y-103880000D03*
%TO.P,U2,14*%
%TO.N,Net-(C5-Pad1)*%
X94000001Y-103880000D03*
%TD*%
%TO.P,R11,1*%
%TO.N,Net-(U1A--)*%
X53310001Y-115190000D03*
%TO.P,R11,2*%
%TO.N,GND*%
X53310001Y-125350000D03*
%TD*%
%TO.P,R14,1*%
%TO.N,Net-(Q1-C)*%
X98540001Y-100189043D03*
%TO.P,R14,2*%
%TO.N,-12V*%
X98540001Y-90029043D03*
%TD*%
%TO.P,C3,1*%
%TO.N,Net-(D1-A)*%
X101619099Y-116955337D03*
%TO.P,C3,2*%
%TO.N,Net-(U2B-+)*%
X106619099Y-116955337D03*
%TD*%
%TO.P,R15,1*%
%TO.N,GND*%
X75810001Y-90030000D03*
%TO.P,R15,2*%
%TO.N,Net-(Q1-B)*%
X75810001Y-100190000D03*
%TD*%
%TO.P,C7,1*%
%TO.N,GND*%
X50500000Y-106500000D03*
%TO.P,C7,2*%
%TO.N,-12V*%
X50500000Y-101500000D03*
%TD*%
%TO.P,R12,1*%
%TO.N,Net-(Q2-C)*%
X71310001Y-125270000D03*
%TO.P,R12,2*%
%TO.N,Net-(R12-Pad2)*%
X71310001Y-115110000D03*
%TD*%
D13*
%TO.P,RV1,1,1*%
%TO.N,GND*%
X55760001Y-82000000D03*
D12*
%TO.P,RV1,2,2*%
%TO.N,Net-(J3-Pin_2)*%
X58300001Y-82000000D03*
%TO.P,RV1,3,3*%
%TO.N,Net-(J3-Pin_3)*%
X60840001Y-82000000D03*
%TD*%
D10*
%TO.P,R1,1*%
%TO.N,Net-(U2B--)*%
X62310001Y-90030000D03*
%TO.P,R1,2*%
%TO.N,Net-(U1C--)*%
X62310001Y-100190000D03*
%TD*%
D13*
%TO.P,RV3,1,1*%
%TO.N,-12V*%
X101960001Y-82000000D03*
D12*
%TO.P,RV3,2,2*%
%TO.N,Net-(J9-Pin_2)*%
X104500001Y-82000000D03*
%TO.P,RV3,3,3*%
%TO.N,12V*%
X107040001Y-82000000D03*
%TD*%
D22*
%TO.P,U1,1*%
%TO.N,Net-(R7-Pad2)*%
X71200001Y-103880000D03*
D10*
%TO.P,U1,2,DIODE_BIAS*%
%TO.N,unconnected-(U1C-DIODE_BIAS-Pad2)*%
X68660001Y-103880000D03*
%TO.P,U1,3,+*%
%TO.N,Net-(U1C-+)*%
X66120001Y-103880000D03*
%TO.P,U1,4,-*%
%TO.N,Net-(U1C--)*%
X63580001Y-103880000D03*
%TO.P,U1,5*%
%TO.N,Net-(U2B-+)*%
X61040001Y-103880000D03*
%TO.P,U1,6,V-*%
%TO.N,-12V*%
X58500001Y-103880000D03*
%TO.P,U1,7*%
%TO.N,unconnected-(U1-Pad7)*%
X55960001Y-103880000D03*
%TO.P,U1,8*%
%TO.N,unconnected-(U1-Pad8)*%
X53420001Y-103880000D03*
%TO.P,U1,9*%
%TO.N,unconnected-(U1-Pad9)*%
X53420001Y-111500000D03*
%TO.P,U1,10*%
%TO.N,unconnected-(U1-Pad10)*%
X55960001Y-111500000D03*
%TO.P,U1,11,V+*%
%TO.N,12V*%
X58500001Y-111500000D03*
%TO.P,U1,12*%
%TO.N,Net-(U2C-+)*%
X61040001Y-111500000D03*
%TO.P,U1,13,-*%
%TO.N,Net-(U1A--)*%
X63580001Y-111500000D03*
%TO.P,U1,14,+*%
%TO.N,Net-(U1A-+)*%
X66120001Y-111500000D03*
%TO.P,U1,15,DIODE_BIAS*%
%TO.N,unconnected-(U1A-DIODE_BIAS-Pad15)*%
X68660001Y-111500000D03*
%TO.P,U1,16*%
%TO.N,Net-(R12-Pad2)*%
X71200001Y-111500000D03*
%TD*%
%TO.P,C8,1*%
%TO.N,12V*%
X50500000Y-114000000D03*
%TO.P,C8,2*%
%TO.N,GND*%
X50500000Y-109000000D03*
%TD*%
%TO.P,R5,1*%
%TO.N,GND*%
X66810001Y-89977277D03*
%TO.P,R5,2*%
%TO.N,Net-(U1C-+)*%
X66810001Y-100137277D03*
%TD*%
D18*
%TO.P,J7,1,Pin_1*%
%TO.N,Net-(J7-Pin_1)*%
X66300001Y-133524938D03*
%TD*%
D10*
%TO.P,R13,1*%
%TO.N,Net-(Q1-E)*%
X94040001Y-90029043D03*
%TO.P,R13,2*%
%TO.N,Net-(C5-Pad1)*%
X94040001Y-100189043D03*
%TD*%
D14*
%TO.P,J3,1,Pin_1*%
%TO.N,GND*%
X53575001Y-66000000D03*
D15*
%TO.P,J3,2,Pin_2*%
%TO.N,Net-(J3-Pin_2)*%
X58655001Y-66000000D03*
%TO.P,J3,3,Pin_3*%
%TO.N,Net-(J3-Pin_3)*%
X63655001Y-66000000D03*
%TD*%
D10*
%TO.P,C5,1*%
%TO.N,Net-(C5-Pad1)*%
X103040001Y-93000000D03*
%TO.P,C5,2*%
%TO.N,Net-(Q1-C)*%
X103040001Y-98000000D03*
%TD*%
D11*
%TO.P,J1,1,Pin_1*%
%TO.N,12V*%
X61420000Y-51435000D03*
D12*
%TO.P,J1,2,Pin_2*%
%TO.N,-12V*%
X61420000Y-48895000D03*
%TO.P,J1,3,Pin_3*%
%TO.N,GND*%
X63960000Y-51435000D03*
%TO.P,J1,4,Pin_4*%
X63960000Y-48895000D03*
%TO.P,J1,5,Pin_5*%
%TO.N,5V*%
X66500000Y-51435000D03*
%TO.P,J1,6,Pin_6*%
%TO.N,unconnected-(J1-Pin_6-Pad6)*%
X66500000Y-48895000D03*
%TD*%
D10*
%TO.P,C6,1*%
%TO.N,GND*%
X79500000Y-116500000D03*
%TO.P,C6,2*%
%TO.N,Net-(U2C-+)*%
X74500000Y-116500000D03*
%TD*%
%TO.P,R9,1*%
%TO.N,Net-(U1A-+)*%
X62310001Y-115190000D03*
%TO.P,R9,2*%
%TO.N,GND*%
X62310001Y-125350000D03*
%TD*%
%TO.P,C4,1*%
%TO.N,Net-(U2C--)*%
X74500000Y-119000000D03*
%TO.P,C4,2*%
%TO.N,Net-(J5-Pin_1)*%
X79500000Y-119000000D03*
%TD*%
D16*
%TO.P,Q2,1,C*%
%TO.N,Net-(Q2-C)*%
X80230001Y-112650000D03*
D17*
%TO.P,Q2,2,B*%
%TO.N,GND*%
X81500001Y-111380000D03*
%TO.P,Q2,3,E*%
%TO.N,Net-(Q1-E)*%
X82770001Y-112650000D03*
%TD*%
D14*
%TO.P,J6,1,Pin_1*%
%TO.N,GND*%
X76500000Y-66000000D03*
D15*
%TO.P,J6,2,Pin_2*%
%TO.N,Net-(J6-Pin_2)*%
X81580000Y-66000000D03*
%TO.P,J6,3,Pin_3*%
%TO.N,Net-(J5-Pin_1)*%
X86580000Y-66000000D03*
%TD*%
D18*
%TO.P,J4,1,Pin_1*%
%TO.N,Net-(J3-Pin_3)*%
X81500001Y-133524938D03*
%TD*%
D10*
%TO.P,R2,1*%
%TO.N,Net-(U1C--)*%
X57810001Y-100190000D03*
%TO.P,R2,2*%
%TO.N,Net-(J7-Pin_1)*%
X57810001Y-90030000D03*
%TD*%
D11*
%TO.P,J8,1,Pin_1*%
%TO.N,12V*%
X96500000Y-51540000D03*
D12*
%TO.P,J8,2,Pin_2*%
%TO.N,-12V*%
X96500000Y-49000000D03*
%TO.P,J8,3,Pin_3*%
%TO.N,GND*%
X99040000Y-51540000D03*
%TO.P,J8,4,Pin_4*%
X99040000Y-49000000D03*
%TO.P,J8,5,Pin_5*%
%TO.N,5V*%
X101580000Y-51540000D03*
%TO.P,J8,6,Pin_6*%
%TO.N,unconnected-(J8-Pin_6-Pad6)*%
X101580000Y-49000000D03*
%TD*%
D23*
%TO.N,-12V*%
X79000000Y-49000000D02*
X80151000Y-47849000D01*
X101960001Y-86609043D02*
X98540001Y-90029043D01*
X80151000Y-47849000D02*
X95349000Y-47849000D01*
X56120001Y-101500000D02*
X50500000Y-101500000D01*
X61420000Y-48895000D02*
X62571000Y-47744000D01*
X101960001Y-82000000D02*
X101960001Y-86609043D01*
X98540001Y-97984582D02*
X101618620Y-101063201D01*
X77744000Y-47744000D02*
X79000000Y-49000000D01*
X62571000Y-47744000D02*
X77744000Y-47744000D01*
X58500001Y-103880000D02*
X56120001Y-101500000D01*
X98540001Y-90029043D02*
X98540001Y-97984582D01*
X95349000Y-47849000D02*
X96500000Y-49000000D01*
%TO.N,GND*%
X79500000Y-116500000D02*
X81500001Y-114499999D01*
X100181001Y-102779000D02*
X104902821Y-102779000D01*
X97439001Y-91870993D02*
X97439001Y-102239000D01*
X48500000Y-111000000D02*
X48500000Y-120539999D01*
X97439001Y-102239000D02*
X99080001Y-103880000D01*
X50500000Y-109000000D02*
X48500000Y-111000000D01*
X80412001Y-80448000D02*
X86016008Y-80448000D01*
X78860001Y-82000000D02*
X78860001Y-86980000D01*
X53310001Y-90030000D02*
X49000000Y-94340001D01*
X78860001Y-86980000D02*
X75810001Y-90030000D01*
X48500000Y-120539999D02*
X53310001Y-125350000D01*
X50500000Y-106500000D02*
X50500000Y-109000000D01*
X81500001Y-111380000D02*
X78500000Y-108379999D01*
X99080001Y-103880000D02*
X100181001Y-102779000D01*
X49000000Y-105000000D02*
X50500000Y-106500000D01*
X78500000Y-92719999D02*
X75810001Y-90030000D01*
X86016008Y-80448000D02*
X97439001Y-91870993D01*
X78500000Y-108379999D02*
X78500000Y-92719999D01*
X55760001Y-87580000D02*
X53310001Y-90030000D01*
X55760001Y-82000000D02*
X55760001Y-87580000D01*
X78860001Y-82000000D02*
X80412001Y-80448000D01*
X49000000Y-94340001D02*
X49000000Y-105000000D01*
X104902821Y-102779000D02*
X106618620Y-101063201D01*
X81500001Y-114499999D02*
X81500001Y-111380000D01*
%TO.N,12V*%
X56000001Y-114000000D02*
X50500000Y-114000000D01*
X96500000Y-51540000D02*
X95349000Y-52691000D01*
X107801001Y-105319000D02*
X101620001Y-111500000D01*
X80151000Y-52691000D02*
X79000000Y-51540000D01*
X107801001Y-82761000D02*
X107801001Y-105319000D01*
X58500001Y-111500000D02*
X56000001Y-114000000D01*
X62985000Y-53000000D02*
X61420000Y-51435000D01*
X79000000Y-51540000D02*
X77540000Y-53000000D01*
X77540000Y-53000000D02*
X62985000Y-53000000D01*
X107040001Y-82000000D02*
X107801001Y-82761000D01*
X95349000Y-52691000D02*
X80151000Y-52691000D01*
%TO.N,Net-(U2B-+)*%
X106619099Y-116955337D02*
X104160001Y-114496239D01*
X104160001Y-114496239D02*
X104160001Y-111500000D01*
%TO.N,Net-(D1-A)*%
X94000001Y-112357050D02*
X94000001Y-111500000D01*
X101619099Y-117769945D02*
X101619099Y-116955337D01*
X89500001Y-103380000D02*
X89500001Y-111880000D01*
X98598288Y-116955337D02*
X94000001Y-112357050D01*
X94040001Y-125349043D02*
X101619099Y-117769945D01*
X101619099Y-116955337D02*
X98598288Y-116955337D01*
%TO.N,Net-(J5-Pin_1)*%
X83940001Y-82000000D02*
X83940001Y-114559999D01*
X83940001Y-114559999D02*
X79500000Y-119000000D01*
%TO.N,Net-(U2C--)*%
X94785161Y-110399000D02*
X95101001Y-110714840D01*
X95101001Y-110714840D02*
X95101001Y-111618050D01*
X95101001Y-111618050D02*
X96083951Y-112601000D01*
X74500000Y-119000000D02*
X75601000Y-120101000D01*
X100519001Y-111956050D02*
X100519001Y-110061000D01*
X96083951Y-112601000D02*
X99874051Y-112601000D01*
X99874051Y-112601000D02*
X100519001Y-111956050D01*
X93214841Y-110399000D02*
X94785161Y-110399000D01*
X83512841Y-120101000D02*
X93214841Y-110399000D01*
X100519001Y-110061000D02*
X106700001Y-103880000D01*
X75601000Y-120101000D02*
X83512841Y-120101000D01*
%TO.N,Net-(D1-K)*%
X86960001Y-103380000D02*
X86960001Y-111880000D01*
%TO.N,5V*%
X82929000Y-50389000D02*
X84080000Y-51540000D01*
X84080000Y-51540000D02*
X85231000Y-50389000D01*
X66500000Y-51435000D02*
X67546000Y-50389000D01*
X85231000Y-50389000D02*
X100429000Y-50389000D01*
X67546000Y-50389000D02*
X82929000Y-50389000D01*
X100429000Y-50389000D02*
X101580000Y-51540000D01*
%TO.N,Net-(J3-Pin_2)*%
X59451001Y-83151000D02*
X58300001Y-82000000D01*
X76911001Y-112749000D02*
X76911001Y-94128636D01*
X76911001Y-94128636D02*
X65933365Y-83151000D01*
X75810001Y-113850000D02*
X76911001Y-112749000D01*
X65933365Y-83151000D02*
X59451001Y-83151000D01*
%TO.N,Net-(J6-Pin_2)*%
X81400001Y-82000000D02*
X82551001Y-80849000D01*
X82551001Y-80849000D02*
X84416761Y-80849000D01*
X95101001Y-103423950D02*
X95101001Y-107521000D01*
X92939001Y-101261950D02*
X95101001Y-103423950D01*
X92939001Y-89371240D02*
X92939001Y-101261950D01*
X84416761Y-80849000D02*
X92939001Y-89371240D01*
X95101001Y-107521000D02*
X99080001Y-111500000D01*
%TO.N,Net-(Q1-E)*%
X82770001Y-105650000D02*
X82770001Y-112650000D01*
%TO.N,Net-(Q2-C)*%
X71310001Y-125270000D02*
X72411001Y-124169000D01*
X72411001Y-91185686D02*
X71182766Y-89957451D01*
X80230001Y-112650000D02*
X77880001Y-115000000D01*
X72411001Y-115000000D02*
X72411001Y-91185686D01*
X77880001Y-115000000D02*
X72411001Y-115000000D01*
X72411001Y-124169000D02*
X72411001Y-115000000D01*
%TO.N,Net-(U1C--)*%
X57810001Y-100190000D02*
X62310001Y-100190000D01*
%TO.N,Net-(U2B--)*%
X67911001Y-114653950D02*
X67911001Y-124169000D01*
X62310001Y-98174950D02*
X67559001Y-103423950D01*
X101198051Y-124399000D02*
X98083951Y-124399000D01*
X109240001Y-116357050D02*
X101198051Y-124399000D01*
X67559001Y-103423950D02*
X67559001Y-114301950D01*
X67911001Y-124169000D02*
X66810001Y-125270000D01*
X98083951Y-124399000D02*
X95982951Y-126500000D01*
X68040001Y-126500000D02*
X66810001Y-125270000D01*
X95982951Y-126500000D02*
X68040001Y-126500000D01*
X62310001Y-90030000D02*
X62310001Y-98174950D01*
X109240001Y-111500000D02*
X109240001Y-116357050D01*
X67559001Y-114301950D02*
X67911001Y-114653950D01*
%TD*%
M02*
