M48
; DRILL file {KiCad 9.0.6} date 2026-01-15T14:45:40+1100
; FORMAT={-:-/ absolute / metric / decimal}
; #@! TF.CreationDate,2026-01-15T14:45:40+11:00
; #@! TF.GenerationSoftware,Kicad,Pcbnew,9.0.6
; #@! TF.FileFunction,Plated,1,2,PTH
FMAT,2
METRIC
; #@! TA.AperFunction,Plated,PTH,ComponentDrill
T1C0.750
; #@! TA.AperFunction,Plated,PTH,ComponentDrill
T2C0.800
; #@! TA.AperFunction,Plated,PTH,ComponentDrill
T3C0.900
; #@! TA.AperFunction,Plated,PTH,ComponentDrill
T4C1.000
; #@! TA.AperFunction,Plated,PTH,ComponentDrill
T5C1.200
; #@! TA.AperFunction,Plated,PTH,ComponentDrill
T6C6.000
%
G90
G05
T1
X80.23Y-105.65
X80.23Y-112.65
X81.5Y-104.38
X81.5Y-111.38
X82.77Y-105.65
X82.77Y-112.65
T2
X50.5Y-101.5
X50.5Y-106.5
X50.5Y-109.0
X50.5Y-114.0
X53.31Y-90.03
X53.31Y-100.19
X53.31Y-115.19
X53.31Y-125.35
X53.42Y-103.88
X53.42Y-111.5
X55.96Y-103.88
X55.96Y-111.5
X57.81Y-90.03
X57.81Y-100.19
X57.81Y-115.19
X57.81Y-125.35
X58.5Y-103.88
X58.5Y-111.5
X61.04Y-103.88
X61.04Y-111.5
X62.31Y-90.03
X62.31Y-100.19
X62.31Y-115.19
X62.31Y-125.35
X63.58Y-103.88
X63.58Y-111.5
X66.12Y-103.88
X66.12Y-111.5
X66.81Y-89.977
X66.81Y-100.137
X66.81Y-115.11
X66.81Y-125.27
X68.66Y-103.88
X68.66Y-111.5
X71.183Y-89.957
X71.183Y-100.117
X71.2Y-103.88
X71.2Y-111.5
X71.31Y-115.11
X71.31Y-125.27
X74.5Y-116.5
X74.5Y-119.0
X75.81Y-90.03
X75.81Y-100.19
X75.81Y-103.69
X75.81Y-113.85
X79.5Y-116.5
X79.5Y-119.0
X80.31Y-90.03
X80.31Y-100.19
X94.0Y-103.88
X94.0Y-111.5
X94.04Y-90.029
X94.04Y-100.189
X94.04Y-115.189
X94.04Y-125.349
X96.54Y-103.88
X96.54Y-111.5
X98.54Y-90.029
X98.54Y-100.189
X98.54Y-115.34
X98.54Y-125.5
X99.08Y-103.88
X99.08Y-111.5
X101.619Y-101.063
X101.619Y-114.405
X101.619Y-116.955
X101.62Y-103.88
X101.62Y-111.5
X103.04Y-93.0
X103.04Y-98.0
X104.16Y-103.88
X104.16Y-111.5
X106.619Y-101.063
X106.619Y-114.405
X106.619Y-116.955
X106.7Y-103.88
X106.7Y-111.5
X109.24Y-103.88
X109.24Y-111.5
T3
X86.96Y-103.38
X86.96Y-111.88
X89.5Y-103.38
X89.5Y-111.88
T4
X55.76Y-82.0
X58.3Y-82.0
X60.84Y-82.0
X61.42Y-48.895
X61.42Y-51.435
X63.96Y-48.895
X63.96Y-51.435
X66.5Y-48.895
X66.5Y-51.435
X78.86Y-82.0
X79.0Y-49.0
X79.0Y-51.54
X81.4Y-82.0
X81.54Y-49.0
X81.54Y-51.54
X83.94Y-82.0
X84.08Y-49.0
X84.08Y-51.54
X96.5Y-49.0
X96.5Y-51.54
X99.04Y-49.0
X99.04Y-51.54
X101.58Y-49.0
X101.58Y-51.54
X101.96Y-82.0
X104.5Y-82.0
X107.04Y-82.0
T5
X53.575Y-66.0
X58.655Y-66.0
X63.655Y-66.0
X76.5Y-66.0
X81.58Y-66.0
X86.58Y-66.0
X99.575Y-66.0
X104.655Y-66.0
X109.655Y-66.0
T6
X66.3Y-133.525
X81.5Y-133.525
X96.5Y-133.525
M30
