%TF.GenerationSoftware,KiCad,Pcbnew,9.0.6*%
%TF.CreationDate,2025-12-28T20:27:14+11:00*%
%TF.ProjectId,low-pass-filter,6c6f772d-7061-4737-932d-66696c746572,rev?*%
%TF.SameCoordinates,Original*%
%TF.FileFunction,Legend,Top*%
%TF.FilePolarity,Positive*%
%FSLAX46Y46*%
G04 Gerber Fmt 4.6, Leading zero omitted, Abs format (unit mm)*
G04 Created by KiCad (PCBNEW 9.0.6) date 2025-12-28 20:27:14*
%MOMM*%
%LPD*%
G01*
G04 APERTURE LIST*
%ADD10C,0.100000*%
%ADD11C,0.300000*%
%ADD12C,0.150000*%
%ADD13C,0.120000*%
G04 APERTURE END LIST*
D10*
X47928571Y-140652447D02*
X47452381Y-140652447D01*
X47452381Y-140652447D02*
X47452381Y-139652447D01*
X48452381Y-139652447D02*
X48642857Y-139652447D01*
X48642857Y-139652447D02*
X48738095Y-139700066D01*
X48738095Y-139700066D02*
X48833333Y-139795304D01*
X48833333Y-139795304D02*
X48880952Y-139985780D01*
X48880952Y-139985780D02*
X48880952Y-140319113D01*
X48880952Y-140319113D02*
X48833333Y-140509589D01*
X48833333Y-140509589D02*
X48738095Y-140604828D01*
X48738095Y-140604828D02*
X48642857Y-140652447D01*
X48642857Y-140652447D02*
X48452381Y-140652447D01*
X48452381Y-140652447D02*
X48357143Y-140604828D01*
X48357143Y-140604828D02*
X48261905Y-140509589D01*
X48261905Y-140509589D02*
X48214286Y-140319113D01*
X48214286Y-140319113D02*
X48214286Y-139985780D01*
X48214286Y-139985780D02*
X48261905Y-139795304D01*
X48261905Y-139795304D02*
X48357143Y-139700066D01*
X48357143Y-139700066D02*
X48452381Y-139652447D01*
X49214286Y-139652447D02*
X49452381Y-140652447D01*
X49452381Y-140652447D02*
X49642857Y-139938161D01*
X49642857Y-139938161D02*
X49833333Y-140652447D01*
X49833333Y-140652447D02*
X50071429Y-139652447D01*
X50452381Y-140271494D02*
X51214286Y-140271494D01*
X51690476Y-140652447D02*
X51690476Y-139652447D01*
X51690476Y-139652447D02*
X52071428Y-139652447D01*
X52071428Y-139652447D02*
X52166666Y-139700066D01*
X52166666Y-139700066D02*
X52214285Y-139747685D01*
X52214285Y-139747685D02*
X52261904Y-139842923D01*
X52261904Y-139842923D02*
X52261904Y-139985780D01*
X52261904Y-139985780D02*
X52214285Y-140081018D01*
X52214285Y-140081018D02*
X52166666Y-140128637D01*
X52166666Y-140128637D02*
X52071428Y-140176256D01*
X52071428Y-140176256D02*
X51690476Y-140176256D01*
X52642857Y-140366732D02*
X53119047Y-140366732D01*
X52547619Y-140652447D02*
X52880952Y-139652447D01*
X52880952Y-139652447D02*
X53214285Y-140652447D01*
X53500000Y-140604828D02*
X53642857Y-140652447D01*
X53642857Y-140652447D02*
X53880952Y-140652447D01*
X53880952Y-140652447D02*
X53976190Y-140604828D01*
X53976190Y-140604828D02*
X54023809Y-140557208D01*
X54023809Y-140557208D02*
X54071428Y-140461970D01*
X54071428Y-140461970D02*
X54071428Y-140366732D01*
X54071428Y-140366732D02*
X54023809Y-140271494D01*
X54023809Y-140271494D02*
X53976190Y-140223875D01*
X53976190Y-140223875D02*
X53880952Y-140176256D01*
X53880952Y-140176256D02*
X53690476Y-140128637D01*
X53690476Y-140128637D02*
X53595238Y-140081018D01*
X53595238Y-140081018D02*
X53547619Y-140033399D01*
X53547619Y-140033399D02*
X53500000Y-139938161D01*
X53500000Y-139938161D02*
X53500000Y-139842923D01*
X53500000Y-139842923D02*
X53547619Y-139747685D01*
X53547619Y-139747685D02*
X53595238Y-139700066D01*
X53595238Y-139700066D02*
X53690476Y-139652447D01*
X53690476Y-139652447D02*
X53928571Y-139652447D01*
X53928571Y-139652447D02*
X54071428Y-139700066D01*
X54452381Y-140604828D02*
X54595238Y-140652447D01*
X54595238Y-140652447D02*
X54833333Y-140652447D01*
X54833333Y-140652447D02*
X54928571Y-140604828D01*
X54928571Y-140604828D02*
X54976190Y-140557208D01*
X54976190Y-140557208D02*
X55023809Y-140461970D01*
X55023809Y-140461970D02*
X55023809Y-140366732D01*
X55023809Y-140366732D02*
X54976190Y-140271494D01*
X54976190Y-140271494D02*
X54928571Y-140223875D01*
X54928571Y-140223875D02*
X54833333Y-140176256D01*
X54833333Y-140176256D02*
X54642857Y-140128637D01*
X54642857Y-140128637D02*
X54547619Y-140081018D01*
X54547619Y-140081018D02*
X54500000Y-140033399D01*
X54500000Y-140033399D02*
X54452381Y-139938161D01*
X54452381Y-139938161D02*
X54452381Y-139842923D01*
X54452381Y-139842923D02*
X54500000Y-139747685D01*
X54500000Y-139747685D02*
X54547619Y-139700066D01*
X54547619Y-139700066D02*
X54642857Y-139652447D01*
X54642857Y-139652447D02*
X54880952Y-139652447D01*
X54880952Y-139652447D02*
X55023809Y-139700066D01*
X56547619Y-140128637D02*
X56214286Y-140128637D01*
X56214286Y-140652447D02*
X56214286Y-139652447D01*
X56214286Y-139652447D02*
X56690476Y-139652447D01*
X57071429Y-140652447D02*
X57071429Y-139652447D01*
X58023809Y-140652447D02*
X57547619Y-140652447D01*
X57547619Y-140652447D02*
X57547619Y-139652447D01*
X58214286Y-139652447D02*
X58785714Y-139652447D01*
X58500000Y-140652447D02*
X58500000Y-139652447D01*
X59119048Y-140128637D02*
X59452381Y-140128637D01*
X59595238Y-140652447D02*
X59119048Y-140652447D01*
X59119048Y-140652447D02*
X59119048Y-139652447D01*
X59119048Y-139652447D02*
X59595238Y-139652447D01*
X60595238Y-140652447D02*
X60261905Y-140176256D01*
X60023810Y-140652447D02*
X60023810Y-139652447D01*
X60023810Y-139652447D02*
X60404762Y-139652447D01*
X60404762Y-139652447D02*
X60500000Y-139700066D01*
X60500000Y-139700066D02*
X60547619Y-139747685D01*
X60547619Y-139747685D02*
X60595238Y-139842923D01*
X60595238Y-139842923D02*
X60595238Y-139985780D01*
X60595238Y-139985780D02*
X60547619Y-140081018D01*
X60547619Y-140081018D02*
X60500000Y-140128637D01*
X60500000Y-140128637D02*
X60404762Y-140176256D01*
X60404762Y-140176256D02*
X60023810Y-140176256D01*
X53190476Y-141262391D02*
X53523809Y-142262391D01*
X53523809Y-142262391D02*
X53857142Y-141262391D01*
X54714285Y-142262391D02*
X54142857Y-142262391D01*
X54428571Y-142262391D02*
X54428571Y-141262391D01*
X54428571Y-141262391D02*
X54333333Y-141405248D01*
X54333333Y-141405248D02*
X54238095Y-141500486D01*
X54238095Y-141500486D02*
X54142857Y-141548105D01*
D11*
X54566654Y-87592971D02*
X54495226Y-87664400D01*
X54495226Y-87664400D02*
X54280940Y-87735828D01*
X54280940Y-87735828D02*
X54138083Y-87735828D01*
X54138083Y-87735828D02*
X53923797Y-87664400D01*
X53923797Y-87664400D02*
X53780940Y-87521542D01*
X53780940Y-87521542D02*
X53709511Y-87378685D01*
X53709511Y-87378685D02*
X53638083Y-87092971D01*
X53638083Y-87092971D02*
X53638083Y-86878685D01*
X53638083Y-86878685D02*
X53709511Y-86592971D01*
X53709511Y-86592971D02*
X53780940Y-86450114D01*
X53780940Y-86450114D02*
X53923797Y-86307257D01*
X53923797Y-86307257D02*
X54138083Y-86235828D01*
X54138083Y-86235828D02*
X54280940Y-86235828D01*
X54280940Y-86235828D02*
X54495226Y-86307257D01*
X54495226Y-86307257D02*
X54566654Y-86378685D01*
X54995226Y-86235828D02*
X55495226Y-87735828D01*
X55495226Y-87735828D02*
X55995226Y-86235828D01*
X58352368Y-87735828D02*
X57638082Y-87735828D01*
X57638082Y-87735828D02*
X57638082Y-86235828D01*
X58852368Y-86950114D02*
X59352368Y-86950114D01*
X59566654Y-87735828D02*
X58852368Y-87735828D01*
X58852368Y-87735828D02*
X58852368Y-86235828D01*
X58852368Y-86235828D02*
X59566654Y-86235828D01*
X59995226Y-86235828D02*
X60495226Y-87735828D01*
X60495226Y-87735828D02*
X60995226Y-86235828D01*
X61495225Y-86950114D02*
X61995225Y-86950114D01*
X62209511Y-87735828D02*
X61495225Y-87735828D01*
X61495225Y-87735828D02*
X61495225Y-86235828D01*
X61495225Y-86235828D02*
X62209511Y-86235828D01*
X63566654Y-87735828D02*
X62852368Y-87735828D01*
X62852368Y-87735828D02*
X62852368Y-86235828D01*
X76566654Y-87735828D02*
X76066654Y-87021542D01*
X75709511Y-87735828D02*
X75709511Y-86235828D01*
X75709511Y-86235828D02*
X76280940Y-86235828D01*
X76280940Y-86235828D02*
X76423797Y-86307257D01*
X76423797Y-86307257D02*
X76495226Y-86378685D01*
X76495226Y-86378685D02*
X76566654Y-86521542D01*
X76566654Y-86521542D02*
X76566654Y-86735828D01*
X76566654Y-86735828D02*
X76495226Y-86878685D01*
X76495226Y-86878685D02*
X76423797Y-86950114D01*
X76423797Y-86950114D02*
X76280940Y-87021542D01*
X76280940Y-87021542D02*
X75709511Y-87021542D01*
X77209511Y-86950114D02*
X77709511Y-86950114D01*
X77923797Y-87735828D02*
X77209511Y-87735828D01*
X77209511Y-87735828D02*
X77209511Y-86235828D01*
X77209511Y-86235828D02*
X77923797Y-86235828D01*
X78495226Y-87664400D02*
X78709512Y-87735828D01*
X78709512Y-87735828D02*
X79066654Y-87735828D01*
X79066654Y-87735828D02*
X79209512Y-87664400D01*
X79209512Y-87664400D02*
X79280940Y-87592971D01*
X79280940Y-87592971D02*
X79352369Y-87450114D01*
X79352369Y-87450114D02*
X79352369Y-87307257D01*
X79352369Y-87307257D02*
X79280940Y-87164400D01*
X79280940Y-87164400D02*
X79209512Y-87092971D01*
X79209512Y-87092971D02*
X79066654Y-87021542D01*
X79066654Y-87021542D02*
X78780940Y-86950114D01*
X78780940Y-86950114D02*
X78638083Y-86878685D01*
X78638083Y-86878685D02*
X78566654Y-86807257D01*
X78566654Y-86807257D02*
X78495226Y-86664400D01*
X78495226Y-86664400D02*
X78495226Y-86521542D01*
X78495226Y-86521542D02*
X78566654Y-86378685D01*
X78566654Y-86378685D02*
X78638083Y-86307257D01*
X78638083Y-86307257D02*
X78780940Y-86235828D01*
X78780940Y-86235828D02*
X79138083Y-86235828D01*
X79138083Y-86235828D02*
X79352369Y-86307257D01*
X80280940Y-86235828D02*
X80566654Y-86235828D01*
X80566654Y-86235828D02*
X80709511Y-86307257D01*
X80709511Y-86307257D02*
X80852368Y-86450114D01*
X80852368Y-86450114D02*
X80923797Y-86735828D01*
X80923797Y-86735828D02*
X80923797Y-87235828D01*
X80923797Y-87235828D02*
X80852368Y-87521542D01*
X80852368Y-87521542D02*
X80709511Y-87664400D01*
X80709511Y-87664400D02*
X80566654Y-87735828D01*
X80566654Y-87735828D02*
X80280940Y-87735828D01*
X80280940Y-87735828D02*
X80138083Y-87664400D01*
X80138083Y-87664400D02*
X79995225Y-87521542D01*
X79995225Y-87521542D02*
X79923797Y-87235828D01*
X79923797Y-87235828D02*
X79923797Y-86735828D01*
X79923797Y-86735828D02*
X79995225Y-86450114D01*
X79995225Y-86450114D02*
X80138083Y-86307257D01*
X80138083Y-86307257D02*
X80280940Y-86235828D01*
X81566654Y-87735828D02*
X81566654Y-86235828D01*
X81566654Y-86235828D02*
X82423797Y-87735828D01*
X82423797Y-87735828D02*
X82423797Y-86235828D01*
X83066655Y-87307257D02*
X83780941Y-87307257D01*
X82923798Y-87735828D02*
X83423798Y-86235828D01*
X83423798Y-86235828D02*
X83923798Y-87735828D01*
X84423797Y-87735828D02*
X84423797Y-86235828D01*
X84423797Y-86235828D02*
X85280940Y-87735828D01*
X85280940Y-87735828D02*
X85280940Y-86235828D01*
X86852369Y-87592971D02*
X86780941Y-87664400D01*
X86780941Y-87664400D02*
X86566655Y-87735828D01*
X86566655Y-87735828D02*
X86423798Y-87735828D01*
X86423798Y-87735828D02*
X86209512Y-87664400D01*
X86209512Y-87664400D02*
X86066655Y-87521542D01*
X86066655Y-87521542D02*
X85995226Y-87378685D01*
X85995226Y-87378685D02*
X85923798Y-87092971D01*
X85923798Y-87092971D02*
X85923798Y-86878685D01*
X85923798Y-86878685D02*
X85995226Y-86592971D01*
X85995226Y-86592971D02*
X86066655Y-86450114D01*
X86066655Y-86450114D02*
X86209512Y-86307257D01*
X86209512Y-86307257D02*
X86423798Y-86235828D01*
X86423798Y-86235828D02*
X86566655Y-86235828D01*
X86566655Y-86235828D02*
X86780941Y-86307257D01*
X86780941Y-86307257D02*
X86852369Y-86378685D01*
X87495226Y-86950114D02*
X87995226Y-86950114D01*
X88209512Y-87735828D02*
X87495226Y-87735828D01*
X87495226Y-87735828D02*
X87495226Y-86235828D01*
X87495226Y-86235828D02*
X88209512Y-86235828D01*
X101566654Y-87592971D02*
X101495226Y-87664400D01*
X101495226Y-87664400D02*
X101280940Y-87735828D01*
X101280940Y-87735828D02*
X101138083Y-87735828D01*
X101138083Y-87735828D02*
X100923797Y-87664400D01*
X100923797Y-87664400D02*
X100780940Y-87521542D01*
X100780940Y-87521542D02*
X100709511Y-87378685D01*
X100709511Y-87378685D02*
X100638083Y-87092971D01*
X100638083Y-87092971D02*
X100638083Y-86878685D01*
X100638083Y-86878685D02*
X100709511Y-86592971D01*
X100709511Y-86592971D02*
X100780940Y-86450114D01*
X100780940Y-86450114D02*
X100923797Y-86307257D01*
X100923797Y-86307257D02*
X101138083Y-86235828D01*
X101138083Y-86235828D02*
X101280940Y-86235828D01*
X101280940Y-86235828D02*
X101495226Y-86307257D01*
X101495226Y-86307257D02*
X101566654Y-86378685D01*
X102209511Y-86235828D02*
X102209511Y-87450114D01*
X102209511Y-87450114D02*
X102280940Y-87592971D01*
X102280940Y-87592971D02*
X102352369Y-87664400D01*
X102352369Y-87664400D02*
X102495226Y-87735828D01*
X102495226Y-87735828D02*
X102780940Y-87735828D01*
X102780940Y-87735828D02*
X102923797Y-87664400D01*
X102923797Y-87664400D02*
X102995226Y-87592971D01*
X102995226Y-87592971D02*
X103066654Y-87450114D01*
X103066654Y-87450114D02*
X103066654Y-86235828D01*
X103566655Y-86235828D02*
X104423798Y-86235828D01*
X103995226Y-87735828D02*
X103995226Y-86235828D01*
X105209512Y-86235828D02*
X105495226Y-86235828D01*
X105495226Y-86235828D02*
X105638083Y-86307257D01*
X105638083Y-86307257D02*
X105780940Y-86450114D01*
X105780940Y-86450114D02*
X105852369Y-86735828D01*
X105852369Y-86735828D02*
X105852369Y-87235828D01*
X105852369Y-87235828D02*
X105780940Y-87521542D01*
X105780940Y-87521542D02*
X105638083Y-87664400D01*
X105638083Y-87664400D02*
X105495226Y-87735828D01*
X105495226Y-87735828D02*
X105209512Y-87735828D01*
X105209512Y-87735828D02*
X105066655Y-87664400D01*
X105066655Y-87664400D02*
X104923797Y-87521542D01*
X104923797Y-87521542D02*
X104852369Y-87235828D01*
X104852369Y-87235828D02*
X104852369Y-86735828D01*
X104852369Y-86735828D02*
X104923797Y-86450114D01*
X104923797Y-86450114D02*
X105066655Y-86307257D01*
X105066655Y-86307257D02*
X105209512Y-86235828D01*
X106995226Y-86950114D02*
X106495226Y-86950114D01*
X106495226Y-87735828D02*
X106495226Y-86235828D01*
X106495226Y-86235828D02*
X107209512Y-86235828D01*
X108280940Y-86950114D02*
X107780940Y-86950114D01*
X107780940Y-87735828D02*
X107780940Y-86235828D01*
X107780940Y-86235828D02*
X108495226Y-86235828D01*
X63554511Y-142300828D02*
X63554511Y-140800828D01*
X64268797Y-142300828D02*
X64268797Y-140800828D01*
X64268797Y-140800828D02*
X65125940Y-142300828D01*
X65125940Y-142300828D02*
X65125940Y-140800828D01*
X65840226Y-142300828D02*
X65840226Y-140800828D01*
X65840226Y-140800828D02*
X66411655Y-140800828D01*
X66411655Y-140800828D02*
X66554512Y-140872257D01*
X66554512Y-140872257D02*
X66625941Y-140943685D01*
X66625941Y-140943685D02*
X66697369Y-141086542D01*
X66697369Y-141086542D02*
X66697369Y-141300828D01*
X66697369Y-141300828D02*
X66625941Y-141443685D01*
X66625941Y-141443685D02*
X66554512Y-141515114D01*
X66554512Y-141515114D02*
X66411655Y-141586542D01*
X66411655Y-141586542D02*
X65840226Y-141586542D01*
X67340226Y-140800828D02*
X67340226Y-142015114D01*
X67340226Y-142015114D02*
X67411655Y-142157971D01*
X67411655Y-142157971D02*
X67483084Y-142229400D01*
X67483084Y-142229400D02*
X67625941Y-142300828D01*
X67625941Y-142300828D02*
X67911655Y-142300828D01*
X67911655Y-142300828D02*
X68054512Y-142229400D01*
X68054512Y-142229400D02*
X68125941Y-142157971D01*
X68125941Y-142157971D02*
X68197369Y-142015114D01*
X68197369Y-142015114D02*
X68197369Y-140800828D01*
X68697370Y-140800828D02*
X69554513Y-140800828D01*
X69125941Y-142300828D02*
X69125941Y-140800828D01*
X76411654Y-142157971D02*
X76340226Y-142229400D01*
X76340226Y-142229400D02*
X76125940Y-142300828D01*
X76125940Y-142300828D02*
X75983083Y-142300828D01*
X75983083Y-142300828D02*
X75768797Y-142229400D01*
X75768797Y-142229400D02*
X75625940Y-142086542D01*
X75625940Y-142086542D02*
X75554511Y-141943685D01*
X75554511Y-141943685D02*
X75483083Y-141657971D01*
X75483083Y-141657971D02*
X75483083Y-141443685D01*
X75483083Y-141443685D02*
X75554511Y-141157971D01*
X75554511Y-141157971D02*
X75625940Y-141015114D01*
X75625940Y-141015114D02*
X75768797Y-140872257D01*
X75768797Y-140872257D02*
X75983083Y-140800828D01*
X75983083Y-140800828D02*
X76125940Y-140800828D01*
X76125940Y-140800828D02*
X76340226Y-140872257D01*
X76340226Y-140872257D02*
X76411654Y-140943685D01*
X77054511Y-140800828D02*
X77054511Y-142015114D01*
X77054511Y-142015114D02*
X77125940Y-142157971D01*
X77125940Y-142157971D02*
X77197369Y-142229400D01*
X77197369Y-142229400D02*
X77340226Y-142300828D01*
X77340226Y-142300828D02*
X77625940Y-142300828D01*
X77625940Y-142300828D02*
X77768797Y-142229400D01*
X77768797Y-142229400D02*
X77840226Y-142157971D01*
X77840226Y-142157971D02*
X77911654Y-142015114D01*
X77911654Y-142015114D02*
X77911654Y-140800828D01*
X78411655Y-140800828D02*
X79268798Y-140800828D01*
X78840226Y-142300828D02*
X78840226Y-140800828D01*
X80054512Y-140800828D02*
X80340226Y-140800828D01*
X80340226Y-140800828D02*
X80483083Y-140872257D01*
X80483083Y-140872257D02*
X80625940Y-141015114D01*
X80625940Y-141015114D02*
X80697369Y-141300828D01*
X80697369Y-141300828D02*
X80697369Y-141800828D01*
X80697369Y-141800828D02*
X80625940Y-142086542D01*
X80625940Y-142086542D02*
X80483083Y-142229400D01*
X80483083Y-142229400D02*
X80340226Y-142300828D01*
X80340226Y-142300828D02*
X80054512Y-142300828D01*
X80054512Y-142300828D02*
X79911655Y-142229400D01*
X79911655Y-142229400D02*
X79768797Y-142086542D01*
X79768797Y-142086542D02*
X79697369Y-141800828D01*
X79697369Y-141800828D02*
X79697369Y-141300828D01*
X79697369Y-141300828D02*
X79768797Y-141015114D01*
X79768797Y-141015114D02*
X79911655Y-140872257D01*
X79911655Y-140872257D02*
X80054512Y-140800828D01*
X81840226Y-141515114D02*
X81340226Y-141515114D01*
X81340226Y-142300828D02*
X81340226Y-140800828D01*
X81340226Y-140800828D02*
X82054512Y-140800828D01*
X83125940Y-141515114D02*
X82625940Y-141515114D01*
X82625940Y-142300828D02*
X82625940Y-140800828D01*
X82625940Y-140800828D02*
X83340226Y-140800828D01*
X85911654Y-142157971D02*
X85840226Y-142229400D01*
X85840226Y-142229400D02*
X85625940Y-142300828D01*
X85625940Y-142300828D02*
X85483083Y-142300828D01*
X85483083Y-142300828D02*
X85268797Y-142229400D01*
X85268797Y-142229400D02*
X85125940Y-142086542D01*
X85125940Y-142086542D02*
X85054511Y-141943685D01*
X85054511Y-141943685D02*
X84983083Y-141657971D01*
X84983083Y-141657971D02*
X84983083Y-141443685D01*
X84983083Y-141443685D02*
X85054511Y-141157971D01*
X85054511Y-141157971D02*
X85125940Y-141015114D01*
X85125940Y-141015114D02*
X85268797Y-140872257D01*
X85268797Y-140872257D02*
X85483083Y-140800828D01*
X85483083Y-140800828D02*
X85625940Y-140800828D01*
X85625940Y-140800828D02*
X85840226Y-140872257D01*
X85840226Y-140872257D02*
X85911654Y-140943685D01*
X86340226Y-140800828D02*
X86840226Y-142300828D01*
X86840226Y-142300828D02*
X87340226Y-140800828D01*
X92840226Y-140800828D02*
X93125940Y-140800828D01*
X93125940Y-140800828D02*
X93268797Y-140872257D01*
X93268797Y-140872257D02*
X93411654Y-141015114D01*
X93411654Y-141015114D02*
X93483083Y-141300828D01*
X93483083Y-141300828D02*
X93483083Y-141800828D01*
X93483083Y-141800828D02*
X93411654Y-142086542D01*
X93411654Y-142086542D02*
X93268797Y-142229400D01*
X93268797Y-142229400D02*
X93125940Y-142300828D01*
X93125940Y-142300828D02*
X92840226Y-142300828D01*
X92840226Y-142300828D02*
X92697369Y-142229400D01*
X92697369Y-142229400D02*
X92554511Y-142086542D01*
X92554511Y-142086542D02*
X92483083Y-141800828D01*
X92483083Y-141800828D02*
X92483083Y-141300828D01*
X92483083Y-141300828D02*
X92554511Y-141015114D01*
X92554511Y-141015114D02*
X92697369Y-140872257D01*
X92697369Y-140872257D02*
X92840226Y-140800828D01*
X94125940Y-140800828D02*
X94125940Y-142015114D01*
X94125940Y-142015114D02*
X94197369Y-142157971D01*
X94197369Y-142157971D02*
X94268798Y-142229400D01*
X94268798Y-142229400D02*
X94411655Y-142300828D01*
X94411655Y-142300828D02*
X94697369Y-142300828D01*
X94697369Y-142300828D02*
X94840226Y-142229400D01*
X94840226Y-142229400D02*
X94911655Y-142157971D01*
X94911655Y-142157971D02*
X94983083Y-142015114D01*
X94983083Y-142015114D02*
X94983083Y-140800828D01*
X95483084Y-140800828D02*
X96340227Y-140800828D01*
X95911655Y-142300828D02*
X95911655Y-140800828D01*
X96840226Y-142300828D02*
X96840226Y-140800828D01*
X96840226Y-140800828D02*
X97411655Y-140800828D01*
X97411655Y-140800828D02*
X97554512Y-140872257D01*
X97554512Y-140872257D02*
X97625941Y-140943685D01*
X97625941Y-140943685D02*
X97697369Y-141086542D01*
X97697369Y-141086542D02*
X97697369Y-141300828D01*
X97697369Y-141300828D02*
X97625941Y-141443685D01*
X97625941Y-141443685D02*
X97554512Y-141515114D01*
X97554512Y-141515114D02*
X97411655Y-141586542D01*
X97411655Y-141586542D02*
X96840226Y-141586542D01*
X98340226Y-140800828D02*
X98340226Y-142015114D01*
X98340226Y-142015114D02*
X98411655Y-142157971D01*
X98411655Y-142157971D02*
X98483084Y-142229400D01*
X98483084Y-142229400D02*
X98625941Y-142300828D01*
X98625941Y-142300828D02*
X98911655Y-142300828D01*
X98911655Y-142300828D02*
X99054512Y-142229400D01*
X99054512Y-142229400D02*
X99125941Y-142157971D01*
X99125941Y-142157971D02*
X99197369Y-142015114D01*
X99197369Y-142015114D02*
X99197369Y-140800828D01*
X99697370Y-140800828D02*
X100554513Y-140800828D01*
X100125941Y-142300828D02*
X100125941Y-140800828D01*
D10*
X70666667Y-127457419D02*
X70666667Y-128171704D01*
X70666667Y-128171704D02*
X70619048Y-128314561D01*
X70619048Y-128314561D02*
X70523810Y-128409800D01*
X70523810Y-128409800D02*
X70380953Y-128457419D01*
X70380953Y-128457419D02*
X70285715Y-128457419D01*
X71047620Y-127457419D02*
X71714286Y-127457419D01*
X71714286Y-127457419D02*
X71285715Y-128457419D01*
D12*
X74104642Y-95770893D02*
X73628451Y-96104226D01*
X74104642Y-96342321D02*
X73104642Y-96342321D01*
X73104642Y-96342321D02*
X73104642Y-95961369D01*
X73104642Y-95961369D02*
X73152261Y-95866131D01*
X73152261Y-95866131D02*
X73199880Y-95818512D01*
X73199880Y-95818512D02*
X73295118Y-95770893D01*
X73295118Y-95770893D02*
X73437975Y-95770893D01*
X73437975Y-95770893D02*
X73533213Y-95818512D01*
X73533213Y-95818512D02*
X73580832Y-95866131D01*
X73580832Y-95866131D02*
X73628451Y-95961369D01*
X73628451Y-95961369D02*
X73628451Y-96342321D01*
X74104642Y-94818512D02*
X74104642Y-95389940D01*
X74104642Y-95104226D02*
X73104642Y-95104226D01*
X73104642Y-95104226D02*
X73247499Y-95199464D01*
X73247499Y-95199464D02*
X73342737Y-95294702D01*
X73342737Y-95294702D02*
X73390356Y-95389940D01*
X73104642Y-93913750D02*
X73104642Y-94389940D01*
X73104642Y-94389940D02*
X73580832Y-94437559D01*
X73580832Y-94437559D02*
X73533213Y-94389940D01*
X73533213Y-94389940D02*
X73485594Y-94294702D01*
X73485594Y-94294702D02*
X73485594Y-94056607D01*
X73485594Y-94056607D02*
X73533213Y-93961369D01*
X73533213Y-93961369D02*
X73580832Y-93913750D01*
X73580832Y-93913750D02*
X73676070Y-93866131D01*
X73676070Y-93866131D02*
X73914165Y-93866131D01*
X73914165Y-93866131D02*
X74009403Y-93913750D01*
X74009403Y-93913750D02*
X74057023Y-93961369D01*
X74057023Y-93961369D02*
X74104642Y-94056607D01*
X74104642Y-94056607D02*
X74104642Y-94294702D01*
X74104642Y-94294702D02*
X74057023Y-94389940D01*
X74057023Y-94389940D02*
X74009403Y-94437559D01*
X78613612Y-95747946D02*
X78137421Y-96081279D01*
X78613612Y-96319374D02*
X77613612Y-96319374D01*
X77613612Y-96319374D02*
X77613612Y-95938422D01*
X77613612Y-95938422D02*
X77661231Y-95843184D01*
X77661231Y-95843184D02*
X77708850Y-95795565D01*
X77708850Y-95795565D02*
X77804088Y-95747946D01*
X77804088Y-95747946D02*
X77946945Y-95747946D01*
X77946945Y-95747946D02*
X78042183Y-95795565D01*
X78042183Y-95795565D02*
X78089802Y-95843184D01*
X78089802Y-95843184D02*
X78137421Y-95938422D01*
X78137421Y-95938422D02*
X78137421Y-96319374D01*
X78613612Y-94795565D02*
X78613612Y-95366993D01*
X78613612Y-95081279D02*
X77613612Y-95081279D01*
X77613612Y-95081279D02*
X77756469Y-95176517D01*
X77756469Y-95176517D02*
X77851707Y-95271755D01*
X77851707Y-95271755D02*
X77899326Y-95366993D01*
X77613612Y-93938422D02*
X77613612Y-94128898D01*
X77613612Y-94128898D02*
X77661231Y-94224136D01*
X77661231Y-94224136D02*
X77708850Y-94271755D01*
X77708850Y-94271755D02*
X77851707Y-94366993D01*
X77851707Y-94366993D02*
X78042183Y-94414612D01*
X78042183Y-94414612D02*
X78423135Y-94414612D01*
X78423135Y-94414612D02*
X78518373Y-94366993D01*
X78518373Y-94366993D02*
X78565993Y-94319374D01*
X78565993Y-94319374D02*
X78613612Y-94224136D01*
X78613612Y-94224136D02*
X78613612Y-94033660D01*
X78613612Y-94033660D02*
X78565993Y-93938422D01*
X78565993Y-93938422D02*
X78518373Y-93890803D01*
X78518373Y-93890803D02*
X78423135Y-93843184D01*
X78423135Y-93843184D02*
X78185040Y-93843184D01*
X78185040Y-93843184D02*
X78089802Y-93890803D01*
X78089802Y-93890803D02*
X78042183Y-93938422D01*
X78042183Y-93938422D02*
X77994564Y-94033660D01*
X77994564Y-94033660D02*
X77994564Y-94224136D01*
X77994564Y-94224136D02*
X78042183Y-94319374D01*
X78042183Y-94319374D02*
X78089802Y-94366993D01*
X78089802Y-94366993D02*
X78185040Y-94414612D01*
X74099594Y-123026688D02*
X74147214Y-123074307D01*
X74147214Y-123074307D02*
X74194833Y-123217164D01*
X74194833Y-123217164D02*
X74194833Y-123312402D01*
X74194833Y-123312402D02*
X74147214Y-123455259D01*
X74147214Y-123455259D02*
X74051975Y-123550497D01*
X74051975Y-123550497D02*
X73956737Y-123598116D01*
X73956737Y-123598116D02*
X73766261Y-123645735D01*
X73766261Y-123645735D02*
X73623404Y-123645735D01*
X73623404Y-123645735D02*
X73432928Y-123598116D01*
X73432928Y-123598116D02*
X73337690Y-123550497D01*
X73337690Y-123550497D02*
X73242452Y-123455259D01*
X73242452Y-123455259D02*
X73194833Y-123312402D01*
X73194833Y-123312402D02*
X73194833Y-123217164D01*
X73194833Y-123217164D02*
X73242452Y-123074307D01*
X73242452Y-123074307D02*
X73290071Y-123026688D01*
X73194833Y-122169545D02*
X73194833Y-122360021D01*
X73194833Y-122360021D02*
X73242452Y-122455259D01*
X73242452Y-122455259D02*
X73290071Y-122502878D01*
X73290071Y-122502878D02*
X73432928Y-122598116D01*
X73432928Y-122598116D02*
X73623404Y-122645735D01*
X73623404Y-122645735D02*
X74004356Y-122645735D01*
X74004356Y-122645735D02*
X74099594Y-122598116D01*
X74099594Y-122598116D02*
X74147214Y-122550497D01*
X74147214Y-122550497D02*
X74194833Y-122455259D01*
X74194833Y-122455259D02*
X74194833Y-122264783D01*
X74194833Y-122264783D02*
X74147214Y-122169545D01*
X74147214Y-122169545D02*
X74099594Y-122121926D01*
X74099594Y-122121926D02*
X74004356Y-122074307D01*
X74004356Y-122074307D02*
X73766261Y-122074307D01*
X73766261Y-122074307D02*
X73671023Y-122121926D01*
X73671023Y-122121926D02*
X73623404Y-122169545D01*
X73623404Y-122169545D02*
X73575785Y-122264783D01*
X73575785Y-122264783D02*
X73575785Y-122455259D01*
X73575785Y-122455259D02*
X73623404Y-122550497D01*
X73623404Y-122550497D02*
X73671023Y-122598116D01*
X73671023Y-122598116D02*
X73766261Y-122645735D01*
X101448177Y-97785765D02*
X101495797Y-97833384D01*
X101495797Y-97833384D02*
X101543416Y-97976241D01*
X101543416Y-97976241D02*
X101543416Y-98071479D01*
X101543416Y-98071479D02*
X101495797Y-98214336D01*
X101495797Y-98214336D02*
X101400558Y-98309574D01*
X101400558Y-98309574D02*
X101305320Y-98357193D01*
X101305320Y-98357193D02*
X101114844Y-98404812D01*
X101114844Y-98404812D02*
X100971987Y-98404812D01*
X100971987Y-98404812D02*
X100781511Y-98357193D01*
X100781511Y-98357193D02*
X100686273Y-98309574D01*
X100686273Y-98309574D02*
X100591035Y-98214336D01*
X100591035Y-98214336D02*
X100543416Y-98071479D01*
X100543416Y-98071479D02*
X100543416Y-97976241D01*
X100543416Y-97976241D02*
X100591035Y-97833384D01*
X100591035Y-97833384D02*
X100638654Y-97785765D01*
X100543416Y-96881003D02*
X100543416Y-97357193D01*
X100543416Y-97357193D02*
X101019606Y-97404812D01*
X101019606Y-97404812D02*
X100971987Y-97357193D01*
X100971987Y-97357193D02*
X100924368Y-97261955D01*
X100924368Y-97261955D02*
X100924368Y-97023860D01*
X100924368Y-97023860D02*
X100971987Y-96928622D01*
X100971987Y-96928622D02*
X101019606Y-96881003D01*
X101019606Y-96881003D02*
X101114844Y-96833384D01*
X101114844Y-96833384D02*
X101352939Y-96833384D01*
X101352939Y-96833384D02*
X101448177Y-96881003D01*
X101448177Y-96881003D02*
X101495797Y-96928622D01*
X101495797Y-96928622D02*
X101543416Y-97023860D01*
X101543416Y-97023860D02*
X101543416Y-97261955D01*
X101543416Y-97261955D02*
X101495797Y-97357193D01*
X101495797Y-97357193D02*
X101448177Y-97404812D01*
X101123382Y-117875930D02*
X101171002Y-117923549D01*
X101171002Y-117923549D02*
X101218621Y-118066406D01*
X101218621Y-118066406D02*
X101218621Y-118161644D01*
X101218621Y-118161644D02*
X101171002Y-118304501D01*
X101171002Y-118304501D02*
X101075763Y-118399739D01*
X101075763Y-118399739D02*
X100980525Y-118447358D01*
X100980525Y-118447358D02*
X100790049Y-118494977D01*
X100790049Y-118494977D02*
X100647192Y-118494977D01*
X100647192Y-118494977D02*
X100456716Y-118447358D01*
X100456716Y-118447358D02*
X100361478Y-118399739D01*
X100361478Y-118399739D02*
X100266240Y-118304501D01*
X100266240Y-118304501D02*
X100218621Y-118161644D01*
X100218621Y-118161644D02*
X100218621Y-118066406D01*
X100218621Y-118066406D02*
X100266240Y-117923549D01*
X100266240Y-117923549D02*
X100313859Y-117875930D01*
X100218621Y-117542596D02*
X100218621Y-116923549D01*
X100218621Y-116923549D02*
X100599573Y-117256882D01*
X100599573Y-117256882D02*
X100599573Y-117114025D01*
X100599573Y-117114025D02*
X100647192Y-117018787D01*
X100647192Y-117018787D02*
X100694811Y-116971168D01*
X100694811Y-116971168D02*
X100790049Y-116923549D01*
X100790049Y-116923549D02*
X101028144Y-116923549D01*
X101028144Y-116923549D02*
X101123382Y-116971168D01*
X101123382Y-116971168D02*
X101171002Y-117018787D01*
X101171002Y-117018787D02*
X101218621Y-117114025D01*
X101218621Y-117114025D02*
X101218621Y-117399739D01*
X101218621Y-117399739D02*
X101171002Y-117494977D01*
X101171002Y-117494977D02*
X101123382Y-117542596D01*
X74333333Y-55859580D02*
X74285714Y-55907200D01*
X74285714Y-55907200D02*
X74142857Y-55954819D01*
X74142857Y-55954819D02*
X74047619Y-55954819D01*
X74047619Y-55954819D02*
X73904762Y-55907200D01*
X73904762Y-55907200D02*
X73809524Y-55811961D01*
X73809524Y-55811961D02*
X73761905Y-55716723D01*
X73761905Y-55716723D02*
X73714286Y-55526247D01*
X73714286Y-55526247D02*
X73714286Y-55383390D01*
X73714286Y-55383390D02*
X73761905Y-55192914D01*
X73761905Y-55192914D02*
X73809524Y-55097676D01*
X73809524Y-55097676D02*
X73904762Y-55002438D01*
X73904762Y-55002438D02*
X74047619Y-54954819D01*
X74047619Y-54954819D02*
X74142857Y-54954819D01*
X74142857Y-54954819D02*
X74285714Y-55002438D01*
X74285714Y-55002438D02*
X74333333Y-55050057D01*
X74714286Y-55050057D02*
X74761905Y-55002438D01*
X74761905Y-55002438D02*
X74857143Y-54954819D01*
X74857143Y-54954819D02*
X75095238Y-54954819D01*
X75095238Y-54954819D02*
X75190476Y-55002438D01*
X75190476Y-55002438D02*
X75238095Y-55050057D01*
X75238095Y-55050057D02*
X75285714Y-55145295D01*
X75285714Y-55145295D02*
X75285714Y-55240533D01*
X75285714Y-55240533D02*
X75238095Y-55383390D01*
X75238095Y-55383390D02*
X74666667Y-55954819D01*
X74666667Y-55954819D02*
X75285714Y-55954819D01*
X86833333Y-55859580D02*
X86785714Y-55907200D01*
X86785714Y-55907200D02*
X86642857Y-55954819D01*
X86642857Y-55954819D02*
X86547619Y-55954819D01*
X86547619Y-55954819D02*
X86404762Y-55907200D01*
X86404762Y-55907200D02*
X86309524Y-55811961D01*
X86309524Y-55811961D02*
X86261905Y-55716723D01*
X86261905Y-55716723D02*
X86214286Y-55526247D01*
X86214286Y-55526247D02*
X86214286Y-55383390D01*
X86214286Y-55383390D02*
X86261905Y-55192914D01*
X86261905Y-55192914D02*
X86309524Y-55097676D01*
X86309524Y-55097676D02*
X86404762Y-55002438D01*
X86404762Y-55002438D02*
X86547619Y-54954819D01*
X86547619Y-54954819D02*
X86642857Y-54954819D01*
X86642857Y-54954819D02*
X86785714Y-55002438D01*
X86785714Y-55002438D02*
X86833333Y-55050057D01*
X87785714Y-55954819D02*
X87214286Y-55954819D01*
X87500000Y-55954819D02*
X87500000Y-54954819D01*
X87500000Y-54954819D02*
X87404762Y-55097676D01*
X87404762Y-55097676D02*
X87309524Y-55192914D01*
X87309524Y-55192914D02*
X87214286Y-55240533D01*
X78007135Y-122869915D02*
X78054755Y-122917534D01*
X78054755Y-122917534D02*
X78102374Y-123060391D01*
X78102374Y-123060391D02*
X78102374Y-123155629D01*
X78102374Y-123155629D02*
X78054755Y-123298486D01*
X78054755Y-123298486D02*
X77959516Y-123393724D01*
X77959516Y-123393724D02*
X77864278Y-123441343D01*
X77864278Y-123441343D02*
X77673802Y-123488962D01*
X77673802Y-123488962D02*
X77530945Y-123488962D01*
X77530945Y-123488962D02*
X77340469Y-123441343D01*
X77340469Y-123441343D02*
X77245231Y-123393724D01*
X77245231Y-123393724D02*
X77149993Y-123298486D01*
X77149993Y-123298486D02*
X77102374Y-123155629D01*
X77102374Y-123155629D02*
X77102374Y-123060391D01*
X77102374Y-123060391D02*
X77149993Y-122917534D01*
X77149993Y-122917534D02*
X77197612Y-122869915D01*
X77435707Y-122012772D02*
X78102374Y-122012772D01*
X77054755Y-122250867D02*
X77769040Y-122488962D01*
X77769040Y-122488962D02*
X77769040Y-121869915D01*
X65264820Y-120356666D02*
X64788629Y-120689999D01*
X65264820Y-120928094D02*
X64264820Y-120928094D01*
X64264820Y-120928094D02*
X64264820Y-120547142D01*
X64264820Y-120547142D02*
X64312439Y-120451904D01*
X64312439Y-120451904D02*
X64360058Y-120404285D01*
X64360058Y-120404285D02*
X64455296Y-120356666D01*
X64455296Y-120356666D02*
X64598153Y-120356666D01*
X64598153Y-120356666D02*
X64693391Y-120404285D01*
X64693391Y-120404285D02*
X64741010Y-120451904D01*
X64741010Y-120451904D02*
X64788629Y-120547142D01*
X64788629Y-120547142D02*
X64788629Y-120928094D01*
X64693391Y-119785237D02*
X64645772Y-119880475D01*
X64645772Y-119880475D02*
X64598153Y-119928094D01*
X64598153Y-119928094D02*
X64502915Y-119975713D01*
X64502915Y-119975713D02*
X64455296Y-119975713D01*
X64455296Y-119975713D02*
X64360058Y-119928094D01*
X64360058Y-119928094D02*
X64312439Y-119880475D01*
X64312439Y-119880475D02*
X64264820Y-119785237D01*
X64264820Y-119785237D02*
X64264820Y-119594761D01*
X64264820Y-119594761D02*
X64312439Y-119499523D01*
X64312439Y-119499523D02*
X64360058Y-119451904D01*
X64360058Y-119451904D02*
X64455296Y-119404285D01*
X64455296Y-119404285D02*
X64502915Y-119404285D01*
X64502915Y-119404285D02*
X64598153Y-119451904D01*
X64598153Y-119451904D02*
X64645772Y-119499523D01*
X64645772Y-119499523D02*
X64693391Y-119594761D01*
X64693391Y-119594761D02*
X64693391Y-119785237D01*
X64693391Y-119785237D02*
X64741010Y-119880475D01*
X64741010Y-119880475D02*
X64788629Y-119928094D01*
X64788629Y-119928094D02*
X64883867Y-119975713D01*
X64883867Y-119975713D02*
X65074343Y-119975713D01*
X65074343Y-119975713D02*
X65169581Y-119928094D01*
X65169581Y-119928094D02*
X65217201Y-119880475D01*
X65217201Y-119880475D02*
X65264820Y-119785237D01*
X65264820Y-119785237D02*
X65264820Y-119594761D01*
X65264820Y-119594761D02*
X65217201Y-119499523D01*
X65217201Y-119499523D02*
X65169581Y-119451904D01*
X65169581Y-119451904D02*
X65074343Y-119404285D01*
X65074343Y-119404285D02*
X64883867Y-119404285D01*
X64883867Y-119404285D02*
X64788629Y-119451904D01*
X64788629Y-119451904D02*
X64741010Y-119499523D01*
X64741010Y-119499523D02*
X64693391Y-119594761D01*
X69564411Y-95208300D02*
X69088220Y-95541633D01*
X69564411Y-95779728D02*
X68564411Y-95779728D01*
X68564411Y-95779728D02*
X68564411Y-95398776D01*
X68564411Y-95398776D02*
X68612030Y-95303538D01*
X68612030Y-95303538D02*
X68659649Y-95255919D01*
X68659649Y-95255919D02*
X68754887Y-95208300D01*
X68754887Y-95208300D02*
X68897744Y-95208300D01*
X68897744Y-95208300D02*
X68992982Y-95255919D01*
X68992982Y-95255919D02*
X69040601Y-95303538D01*
X69040601Y-95303538D02*
X69088220Y-95398776D01*
X69088220Y-95398776D02*
X69088220Y-95779728D01*
X68564411Y-94874966D02*
X68564411Y-94208300D01*
X68564411Y-94208300D02*
X69564411Y-94636871D01*
X82469820Y-50498333D02*
X83184105Y-50498333D01*
X83184105Y-50498333D02*
X83326962Y-50545952D01*
X83326962Y-50545952D02*
X83422201Y-50641190D01*
X83422201Y-50641190D02*
X83469820Y-50784047D01*
X83469820Y-50784047D02*
X83469820Y-50879285D01*
X82565058Y-50069761D02*
X82517439Y-50022142D01*
X82517439Y-50022142D02*
X82469820Y-49926904D01*
X82469820Y-49926904D02*
X82469820Y-49688809D01*
X82469820Y-49688809D02*
X82517439Y-49593571D01*
X82517439Y-49593571D02*
X82565058Y-49545952D01*
X82565058Y-49545952D02*
X82660296Y-49498333D01*
X82660296Y-49498333D02*
X82755534Y-49498333D01*
X82755534Y-49498333D02*
X82898391Y-49545952D01*
X82898391Y-49545952D02*
X83469820Y-50117380D01*
X83469820Y-50117380D02*
X83469820Y-49498333D01*
D10*
X80404761Y-59457419D02*
X80071428Y-58981228D01*
X79833333Y-59457419D02*
X79833333Y-58457419D01*
X79833333Y-58457419D02*
X80214285Y-58457419D01*
X80214285Y-58457419D02*
X80309523Y-58505038D01*
X80309523Y-58505038D02*
X80357142Y-58552657D01*
X80357142Y-58552657D02*
X80404761Y-58647895D01*
X80404761Y-58647895D02*
X80404761Y-58790752D01*
X80404761Y-58790752D02*
X80357142Y-58885990D01*
X80357142Y-58885990D02*
X80309523Y-58933609D01*
X80309523Y-58933609D02*
X80214285Y-58981228D01*
X80214285Y-58981228D02*
X79833333Y-58981228D01*
X80690476Y-58457419D02*
X81023809Y-59457419D01*
X81023809Y-59457419D02*
X81357142Y-58457419D01*
X81642857Y-58552657D02*
X81690476Y-58505038D01*
X81690476Y-58505038D02*
X81785714Y-58457419D01*
X81785714Y-58457419D02*
X82023809Y-58457419D01*
X82023809Y-58457419D02*
X82119047Y-58505038D01*
X82119047Y-58505038D02*
X82166666Y-58552657D01*
X82166666Y-58552657D02*
X82214285Y-58647895D01*
X82214285Y-58647895D02*
X82214285Y-58743133D01*
X82214285Y-58743133D02*
X82166666Y-58885990D01*
X82166666Y-58885990D02*
X81595238Y-59457419D01*
X81595238Y-59457419D02*
X82214285Y-59457419D01*
D12*
X51764820Y-95276666D02*
X51288629Y-95609999D01*
X51764820Y-95848094D02*
X50764820Y-95848094D01*
X50764820Y-95848094D02*
X50764820Y-95467142D01*
X50764820Y-95467142D02*
X50812439Y-95371904D01*
X50812439Y-95371904D02*
X50860058Y-95324285D01*
X50860058Y-95324285D02*
X50955296Y-95276666D01*
X50955296Y-95276666D02*
X51098153Y-95276666D01*
X51098153Y-95276666D02*
X51193391Y-95324285D01*
X51193391Y-95324285D02*
X51241010Y-95371904D01*
X51241010Y-95371904D02*
X51288629Y-95467142D01*
X51288629Y-95467142D02*
X51288629Y-95848094D01*
X50764820Y-94943332D02*
X50764820Y-94324285D01*
X50764820Y-94324285D02*
X51145772Y-94657618D01*
X51145772Y-94657618D02*
X51145772Y-94514761D01*
X51145772Y-94514761D02*
X51193391Y-94419523D01*
X51193391Y-94419523D02*
X51241010Y-94371904D01*
X51241010Y-94371904D02*
X51336248Y-94324285D01*
X51336248Y-94324285D02*
X51574343Y-94324285D01*
X51574343Y-94324285D02*
X51669581Y-94371904D01*
X51669581Y-94371904D02*
X51717201Y-94419523D01*
X51717201Y-94419523D02*
X51764820Y-94514761D01*
X51764820Y-94514761D02*
X51764820Y-94800475D01*
X51764820Y-94800475D02*
X51717201Y-94895713D01*
X51717201Y-94895713D02*
X51669581Y-94943332D01*
D10*
X104321667Y-63392419D02*
X104321667Y-64106704D01*
X104321667Y-64106704D02*
X104274048Y-64249561D01*
X104274048Y-64249561D02*
X104178810Y-64344800D01*
X104178810Y-64344800D02*
X104035953Y-64392419D01*
X104035953Y-64392419D02*
X103940715Y-64392419D01*
X104845477Y-64392419D02*
X105035953Y-64392419D01*
X105035953Y-64392419D02*
X105131191Y-64344800D01*
X105131191Y-64344800D02*
X105178810Y-64297180D01*
X105178810Y-64297180D02*
X105274048Y-64154323D01*
X105274048Y-64154323D02*
X105321667Y-63963847D01*
X105321667Y-63963847D02*
X105321667Y-63582895D01*
X105321667Y-63582895D02*
X105274048Y-63487657D01*
X105274048Y-63487657D02*
X105226429Y-63440038D01*
X105226429Y-63440038D02*
X105131191Y-63392419D01*
X105131191Y-63392419D02*
X104940715Y-63392419D01*
X104940715Y-63392419D02*
X104845477Y-63440038D01*
X104845477Y-63440038D02*
X104797858Y-63487657D01*
X104797858Y-63487657D02*
X104750239Y-63582895D01*
X104750239Y-63582895D02*
X104750239Y-63820990D01*
X104750239Y-63820990D02*
X104797858Y-63916228D01*
X104797858Y-63916228D02*
X104845477Y-63963847D01*
X104845477Y-63963847D02*
X104940715Y-64011466D01*
X104940715Y-64011466D02*
X105131191Y-64011466D01*
X105131191Y-64011466D02*
X105226429Y-63963847D01*
X105226429Y-63963847D02*
X105274048Y-63916228D01*
X105274048Y-63916228D02*
X105321667Y-63820990D01*
D12*
X81904762Y-102640057D02*
X81809524Y-102592438D01*
X81809524Y-102592438D02*
X81714286Y-102497200D01*
X81714286Y-102497200D02*
X81571429Y-102354342D01*
X81571429Y-102354342D02*
X81476191Y-102306723D01*
X81476191Y-102306723D02*
X81380953Y-102306723D01*
X81428572Y-102544819D02*
X81333334Y-102497200D01*
X81333334Y-102497200D02*
X81238096Y-102401961D01*
X81238096Y-102401961D02*
X81190477Y-102211485D01*
X81190477Y-102211485D02*
X81190477Y-101878152D01*
X81190477Y-101878152D02*
X81238096Y-101687676D01*
X81238096Y-101687676D02*
X81333334Y-101592438D01*
X81333334Y-101592438D02*
X81428572Y-101544819D01*
X81428572Y-101544819D02*
X81619048Y-101544819D01*
X81619048Y-101544819D02*
X81714286Y-101592438D01*
X81714286Y-101592438D02*
X81809524Y-101687676D01*
X81809524Y-101687676D02*
X81857143Y-101878152D01*
X81857143Y-101878152D02*
X81857143Y-102211485D01*
X81857143Y-102211485D02*
X81809524Y-102401961D01*
X81809524Y-102401961D02*
X81714286Y-102497200D01*
X81714286Y-102497200D02*
X81619048Y-102544819D01*
X81619048Y-102544819D02*
X81428572Y-102544819D01*
X82809524Y-102544819D02*
X82238096Y-102544819D01*
X82523810Y-102544819D02*
X82523810Y-101544819D01*
X82523810Y-101544819D02*
X82428572Y-101687676D01*
X82428572Y-101687676D02*
X82333334Y-101782914D01*
X82333334Y-101782914D02*
X82238096Y-101830533D01*
D10*
X100666667Y-127457419D02*
X100666667Y-128171704D01*
X100666667Y-128171704D02*
X100619048Y-128314561D01*
X100619048Y-128314561D02*
X100523810Y-128409800D01*
X100523810Y-128409800D02*
X100380953Y-128457419D01*
X100380953Y-128457419D02*
X100285715Y-128457419D01*
X101619048Y-127457419D02*
X101142858Y-127457419D01*
X101142858Y-127457419D02*
X101095239Y-127933609D01*
X101095239Y-127933609D02*
X101142858Y-127885990D01*
X101142858Y-127885990D02*
X101238096Y-127838371D01*
X101238096Y-127838371D02*
X101476191Y-127838371D01*
X101476191Y-127838371D02*
X101571429Y-127885990D01*
X101571429Y-127885990D02*
X101619048Y-127933609D01*
X101619048Y-127933609D02*
X101666667Y-128028847D01*
X101666667Y-128028847D02*
X101666667Y-128266942D01*
X101666667Y-128266942D02*
X101619048Y-128362180D01*
X101619048Y-128362180D02*
X101571429Y-128409800D01*
X101571429Y-128409800D02*
X101476191Y-128457419D01*
X101476191Y-128457419D02*
X101238096Y-128457419D01*
X101238096Y-128457419D02*
X101142858Y-128409800D01*
X101142858Y-128409800D02*
X101095239Y-128362180D01*
D12*
X56264820Y-120912857D02*
X55788629Y-121246190D01*
X56264820Y-121484285D02*
X55264820Y-121484285D01*
X55264820Y-121484285D02*
X55264820Y-121103333D01*
X55264820Y-121103333D02*
X55312439Y-121008095D01*
X55312439Y-121008095D02*
X55360058Y-120960476D01*
X55360058Y-120960476D02*
X55455296Y-120912857D01*
X55455296Y-120912857D02*
X55598153Y-120912857D01*
X55598153Y-120912857D02*
X55693391Y-120960476D01*
X55693391Y-120960476D02*
X55741010Y-121008095D01*
X55741010Y-121008095D02*
X55788629Y-121103333D01*
X55788629Y-121103333D02*
X55788629Y-121484285D01*
X56264820Y-119960476D02*
X56264820Y-120531904D01*
X56264820Y-120246190D02*
X55264820Y-120246190D01*
X55264820Y-120246190D02*
X55407677Y-120341428D01*
X55407677Y-120341428D02*
X55502915Y-120436666D01*
X55502915Y-120436666D02*
X55550534Y-120531904D01*
X55264820Y-119341428D02*
X55264820Y-119246190D01*
X55264820Y-119246190D02*
X55312439Y-119150952D01*
X55312439Y-119150952D02*
X55360058Y-119103333D01*
X55360058Y-119103333D02*
X55455296Y-119055714D01*
X55455296Y-119055714D02*
X55645772Y-119008095D01*
X55645772Y-119008095D02*
X55883867Y-119008095D01*
X55883867Y-119008095D02*
X56074343Y-119055714D01*
X56074343Y-119055714D02*
X56169581Y-119103333D01*
X56169581Y-119103333D02*
X56217201Y-119150952D01*
X56217201Y-119150952D02*
X56264820Y-119246190D01*
X56264820Y-119246190D02*
X56264820Y-119341428D01*
X56264820Y-119341428D02*
X56217201Y-119436666D01*
X56217201Y-119436666D02*
X56169581Y-119484285D01*
X56169581Y-119484285D02*
X56074343Y-119531904D01*
X56074343Y-119531904D02*
X55883867Y-119579523D01*
X55883867Y-119579523D02*
X55645772Y-119579523D01*
X55645772Y-119579523D02*
X55455296Y-119531904D01*
X55455296Y-119531904D02*
X55360058Y-119484285D01*
X55360058Y-119484285D02*
X55312439Y-119436666D01*
X55312439Y-119436666D02*
X55264820Y-119341428D01*
X87491906Y-99874819D02*
X87491906Y-98874819D01*
X87491906Y-98874819D02*
X87730001Y-98874819D01*
X87730001Y-98874819D02*
X87872858Y-98922438D01*
X87872858Y-98922438D02*
X87968096Y-99017676D01*
X87968096Y-99017676D02*
X88015715Y-99112914D01*
X88015715Y-99112914D02*
X88063334Y-99303390D01*
X88063334Y-99303390D02*
X88063334Y-99446247D01*
X88063334Y-99446247D02*
X88015715Y-99636723D01*
X88015715Y-99636723D02*
X87968096Y-99731961D01*
X87968096Y-99731961D02*
X87872858Y-99827200D01*
X87872858Y-99827200D02*
X87730001Y-99874819D01*
X87730001Y-99874819D02*
X87491906Y-99874819D01*
X89015715Y-99874819D02*
X88444287Y-99874819D01*
X88730001Y-99874819D02*
X88730001Y-98874819D01*
X88730001Y-98874819D02*
X88634763Y-99017676D01*
X88634763Y-99017676D02*
X88539525Y-99112914D01*
X88539525Y-99112914D02*
X88444287Y-99160533D01*
X92494820Y-120435709D02*
X92018629Y-120769042D01*
X92494820Y-121007137D02*
X91494820Y-121007137D01*
X91494820Y-121007137D02*
X91494820Y-120626185D01*
X91494820Y-120626185D02*
X91542439Y-120530947D01*
X91542439Y-120530947D02*
X91590058Y-120483328D01*
X91590058Y-120483328D02*
X91685296Y-120435709D01*
X91685296Y-120435709D02*
X91828153Y-120435709D01*
X91828153Y-120435709D02*
X91923391Y-120483328D01*
X91923391Y-120483328D02*
X91971010Y-120530947D01*
X91971010Y-120530947D02*
X92018629Y-120626185D01*
X92018629Y-120626185D02*
X92018629Y-121007137D01*
X91494820Y-119578566D02*
X91494820Y-119769042D01*
X91494820Y-119769042D02*
X91542439Y-119864280D01*
X91542439Y-119864280D02*
X91590058Y-119911899D01*
X91590058Y-119911899D02*
X91732915Y-120007137D01*
X91732915Y-120007137D02*
X91923391Y-120054756D01*
X91923391Y-120054756D02*
X92304343Y-120054756D01*
X92304343Y-120054756D02*
X92399581Y-120007137D01*
X92399581Y-120007137D02*
X92447201Y-119959518D01*
X92447201Y-119959518D02*
X92494820Y-119864280D01*
X92494820Y-119864280D02*
X92494820Y-119673804D01*
X92494820Y-119673804D02*
X92447201Y-119578566D01*
X92447201Y-119578566D02*
X92399581Y-119530947D01*
X92399581Y-119530947D02*
X92304343Y-119483328D01*
X92304343Y-119483328D02*
X92066248Y-119483328D01*
X92066248Y-119483328D02*
X91971010Y-119530947D01*
X91971010Y-119530947D02*
X91923391Y-119578566D01*
X91923391Y-119578566D02*
X91875772Y-119673804D01*
X91875772Y-119673804D02*
X91875772Y-119864280D01*
X91875772Y-119864280D02*
X91923391Y-119959518D01*
X91923391Y-119959518D02*
X91971010Y-120007137D01*
X91971010Y-120007137D02*
X92066248Y-120054756D01*
X96994820Y-120586666D02*
X96518629Y-120919999D01*
X96994820Y-121158094D02*
X95994820Y-121158094D01*
X95994820Y-121158094D02*
X95994820Y-120777142D01*
X95994820Y-120777142D02*
X96042439Y-120681904D01*
X96042439Y-120681904D02*
X96090058Y-120634285D01*
X96090058Y-120634285D02*
X96185296Y-120586666D01*
X96185296Y-120586666D02*
X96328153Y-120586666D01*
X96328153Y-120586666D02*
X96423391Y-120634285D01*
X96423391Y-120634285D02*
X96471010Y-120681904D01*
X96471010Y-120681904D02*
X96518629Y-120777142D01*
X96518629Y-120777142D02*
X96518629Y-121158094D01*
X96328153Y-119729523D02*
X96994820Y-119729523D01*
X95947201Y-119967618D02*
X96661486Y-120205713D01*
X96661486Y-120205713D02*
X96661486Y-119586666D01*
X87261906Y-108334819D02*
X87261906Y-107334819D01*
X87261906Y-107334819D02*
X87500001Y-107334819D01*
X87500001Y-107334819D02*
X87642858Y-107382438D01*
X87642858Y-107382438D02*
X87738096Y-107477676D01*
X87738096Y-107477676D02*
X87785715Y-107572914D01*
X87785715Y-107572914D02*
X87833334Y-107763390D01*
X87833334Y-107763390D02*
X87833334Y-107906247D01*
X87833334Y-107906247D02*
X87785715Y-108096723D01*
X87785715Y-108096723D02*
X87738096Y-108191961D01*
X87738096Y-108191961D02*
X87642858Y-108287200D01*
X87642858Y-108287200D02*
X87500001Y-108334819D01*
X87500001Y-108334819D02*
X87261906Y-108334819D01*
X88214287Y-107430057D02*
X88261906Y-107382438D01*
X88261906Y-107382438D02*
X88357144Y-107334819D01*
X88357144Y-107334819D02*
X88595239Y-107334819D01*
X88595239Y-107334819D02*
X88690477Y-107382438D01*
X88690477Y-107382438D02*
X88738096Y-107430057D01*
X88738096Y-107430057D02*
X88785715Y-107525295D01*
X88785715Y-107525295D02*
X88785715Y-107620533D01*
X88785715Y-107620533D02*
X88738096Y-107763390D01*
X88738096Y-107763390D02*
X88166668Y-108334819D01*
X88166668Y-108334819D02*
X88785715Y-108334819D01*
X73894820Y-109412857D02*
X73418629Y-109746190D01*
X73894820Y-109984285D02*
X72894820Y-109984285D01*
X72894820Y-109984285D02*
X72894820Y-109603333D01*
X72894820Y-109603333D02*
X72942439Y-109508095D01*
X72942439Y-109508095D02*
X72990058Y-109460476D01*
X72990058Y-109460476D02*
X73085296Y-109412857D01*
X73085296Y-109412857D02*
X73228153Y-109412857D01*
X73228153Y-109412857D02*
X73323391Y-109460476D01*
X73323391Y-109460476D02*
X73371010Y-109508095D01*
X73371010Y-109508095D02*
X73418629Y-109603333D01*
X73418629Y-109603333D02*
X73418629Y-109984285D01*
X73894820Y-108460476D02*
X73894820Y-109031904D01*
X73894820Y-108746190D02*
X72894820Y-108746190D01*
X72894820Y-108746190D02*
X73037677Y-108841428D01*
X73037677Y-108841428D02*
X73132915Y-108936666D01*
X73132915Y-108936666D02*
X73180534Y-109031904D01*
X72894820Y-108127142D02*
X72894820Y-107460476D01*
X72894820Y-107460476D02*
X73894820Y-107889047D01*
X91124820Y-108451904D02*
X91934343Y-108451904D01*
X91934343Y-108451904D02*
X92029581Y-108404285D01*
X92029581Y-108404285D02*
X92077201Y-108356666D01*
X92077201Y-108356666D02*
X92124820Y-108261428D01*
X92124820Y-108261428D02*
X92124820Y-108070952D01*
X92124820Y-108070952D02*
X92077201Y-107975714D01*
X92077201Y-107975714D02*
X92029581Y-107928095D01*
X92029581Y-107928095D02*
X91934343Y-107880476D01*
X91934343Y-107880476D02*
X91124820Y-107880476D01*
X91220058Y-107451904D02*
X91172439Y-107404285D01*
X91172439Y-107404285D02*
X91124820Y-107309047D01*
X91124820Y-107309047D02*
X91124820Y-107070952D01*
X91124820Y-107070952D02*
X91172439Y-106975714D01*
X91172439Y-106975714D02*
X91220058Y-106928095D01*
X91220058Y-106928095D02*
X91315296Y-106880476D01*
X91315296Y-106880476D02*
X91410534Y-106880476D01*
X91410534Y-106880476D02*
X91553391Y-106928095D01*
X91553391Y-106928095D02*
X92124820Y-107499523D01*
X92124820Y-107499523D02*
X92124820Y-106880476D01*
X51764820Y-120912857D02*
X51288629Y-121246190D01*
X51764820Y-121484285D02*
X50764820Y-121484285D01*
X50764820Y-121484285D02*
X50764820Y-121103333D01*
X50764820Y-121103333D02*
X50812439Y-121008095D01*
X50812439Y-121008095D02*
X50860058Y-120960476D01*
X50860058Y-120960476D02*
X50955296Y-120912857D01*
X50955296Y-120912857D02*
X51098153Y-120912857D01*
X51098153Y-120912857D02*
X51193391Y-120960476D01*
X51193391Y-120960476D02*
X51241010Y-121008095D01*
X51241010Y-121008095D02*
X51288629Y-121103333D01*
X51288629Y-121103333D02*
X51288629Y-121484285D01*
X51764820Y-119960476D02*
X51764820Y-120531904D01*
X51764820Y-120246190D02*
X50764820Y-120246190D01*
X50764820Y-120246190D02*
X50907677Y-120341428D01*
X50907677Y-120341428D02*
X51002915Y-120436666D01*
X51002915Y-120436666D02*
X51050534Y-120531904D01*
X51764820Y-119008095D02*
X51764820Y-119579523D01*
X51764820Y-119293809D02*
X50764820Y-119293809D01*
X50764820Y-119293809D02*
X50907677Y-119389047D01*
X50907677Y-119389047D02*
X51002915Y-119484285D01*
X51002915Y-119484285D02*
X51050534Y-119579523D01*
X96994820Y-95831900D02*
X96518629Y-96165233D01*
X96994820Y-96403328D02*
X95994820Y-96403328D01*
X95994820Y-96403328D02*
X95994820Y-96022376D01*
X95994820Y-96022376D02*
X96042439Y-95927138D01*
X96042439Y-95927138D02*
X96090058Y-95879519D01*
X96090058Y-95879519D02*
X96185296Y-95831900D01*
X96185296Y-95831900D02*
X96328153Y-95831900D01*
X96328153Y-95831900D02*
X96423391Y-95879519D01*
X96423391Y-95879519D02*
X96471010Y-95927138D01*
X96471010Y-95927138D02*
X96518629Y-96022376D01*
X96518629Y-96022376D02*
X96518629Y-96403328D01*
X96994820Y-94879519D02*
X96994820Y-95450947D01*
X96994820Y-95165233D02*
X95994820Y-95165233D01*
X95994820Y-95165233D02*
X96137677Y-95260471D01*
X96137677Y-95260471D02*
X96232915Y-95355709D01*
X96232915Y-95355709D02*
X96280534Y-95450947D01*
X96328153Y-94022376D02*
X96994820Y-94022376D01*
X95947201Y-94260471D02*
X96661486Y-94498566D01*
X96661486Y-94498566D02*
X96661486Y-93879519D01*
X69764820Y-120832857D02*
X69288629Y-121166190D01*
X69764820Y-121404285D02*
X68764820Y-121404285D01*
X68764820Y-121404285D02*
X68764820Y-121023333D01*
X68764820Y-121023333D02*
X68812439Y-120928095D01*
X68812439Y-120928095D02*
X68860058Y-120880476D01*
X68860058Y-120880476D02*
X68955296Y-120832857D01*
X68955296Y-120832857D02*
X69098153Y-120832857D01*
X69098153Y-120832857D02*
X69193391Y-120880476D01*
X69193391Y-120880476D02*
X69241010Y-120928095D01*
X69241010Y-120928095D02*
X69288629Y-121023333D01*
X69288629Y-121023333D02*
X69288629Y-121404285D01*
X69764820Y-119880476D02*
X69764820Y-120451904D01*
X69764820Y-120166190D02*
X68764820Y-120166190D01*
X68764820Y-120166190D02*
X68907677Y-120261428D01*
X68907677Y-120261428D02*
X69002915Y-120356666D01*
X69002915Y-120356666D02*
X69050534Y-120451904D01*
X68860058Y-119499523D02*
X68812439Y-119451904D01*
X68812439Y-119451904D02*
X68764820Y-119356666D01*
X68764820Y-119356666D02*
X68764820Y-119118571D01*
X68764820Y-119118571D02*
X68812439Y-119023333D01*
X68812439Y-119023333D02*
X68860058Y-118975714D01*
X68860058Y-118975714D02*
X68955296Y-118928095D01*
X68955296Y-118928095D02*
X69050534Y-118928095D01*
X69050534Y-118928095D02*
X69193391Y-118975714D01*
X69193391Y-118975714D02*
X69764820Y-119547142D01*
X69764820Y-119547142D02*
X69764820Y-118928095D01*
D10*
X57904761Y-59457419D02*
X57571428Y-58981228D01*
X57333333Y-59457419D02*
X57333333Y-58457419D01*
X57333333Y-58457419D02*
X57714285Y-58457419D01*
X57714285Y-58457419D02*
X57809523Y-58505038D01*
X57809523Y-58505038D02*
X57857142Y-58552657D01*
X57857142Y-58552657D02*
X57904761Y-58647895D01*
X57904761Y-58647895D02*
X57904761Y-58790752D01*
X57904761Y-58790752D02*
X57857142Y-58885990D01*
X57857142Y-58885990D02*
X57809523Y-58933609D01*
X57809523Y-58933609D02*
X57714285Y-58981228D01*
X57714285Y-58981228D02*
X57333333Y-58981228D01*
X58190476Y-58457419D02*
X58523809Y-59457419D01*
X58523809Y-59457419D02*
X58857142Y-58457419D01*
X59714285Y-59457419D02*
X59142857Y-59457419D01*
X59428571Y-59457419D02*
X59428571Y-58457419D01*
X59428571Y-58457419D02*
X59333333Y-58600276D01*
X59333333Y-58600276D02*
X59238095Y-58695514D01*
X59238095Y-58695514D02*
X59142857Y-58743133D01*
D12*
X60764820Y-95356666D02*
X60288629Y-95689999D01*
X60764820Y-95928094D02*
X59764820Y-95928094D01*
X59764820Y-95928094D02*
X59764820Y-95547142D01*
X59764820Y-95547142D02*
X59812439Y-95451904D01*
X59812439Y-95451904D02*
X59860058Y-95404285D01*
X59860058Y-95404285D02*
X59955296Y-95356666D01*
X59955296Y-95356666D02*
X60098153Y-95356666D01*
X60098153Y-95356666D02*
X60193391Y-95404285D01*
X60193391Y-95404285D02*
X60241010Y-95451904D01*
X60241010Y-95451904D02*
X60288629Y-95547142D01*
X60288629Y-95547142D02*
X60288629Y-95928094D01*
X60764820Y-94404285D02*
X60764820Y-94975713D01*
X60764820Y-94689999D02*
X59764820Y-94689999D01*
X59764820Y-94689999D02*
X59907677Y-94785237D01*
X59907677Y-94785237D02*
X60002915Y-94880475D01*
X60002915Y-94880475D02*
X60050534Y-94975713D01*
D10*
X104059762Y-59457419D02*
X103726429Y-58981228D01*
X103488334Y-59457419D02*
X103488334Y-58457419D01*
X103488334Y-58457419D02*
X103869286Y-58457419D01*
X103869286Y-58457419D02*
X103964524Y-58505038D01*
X103964524Y-58505038D02*
X104012143Y-58552657D01*
X104012143Y-58552657D02*
X104059762Y-58647895D01*
X104059762Y-58647895D02*
X104059762Y-58790752D01*
X104059762Y-58790752D02*
X104012143Y-58885990D01*
X104012143Y-58885990D02*
X103964524Y-58933609D01*
X103964524Y-58933609D02*
X103869286Y-58981228D01*
X103869286Y-58981228D02*
X103488334Y-58981228D01*
X104345477Y-58457419D02*
X104678810Y-59457419D01*
X104678810Y-59457419D02*
X105012143Y-58457419D01*
X105250239Y-58457419D02*
X105869286Y-58457419D01*
X105869286Y-58457419D02*
X105535953Y-58838371D01*
X105535953Y-58838371D02*
X105678810Y-58838371D01*
X105678810Y-58838371D02*
X105774048Y-58885990D01*
X105774048Y-58885990D02*
X105821667Y-58933609D01*
X105821667Y-58933609D02*
X105869286Y-59028847D01*
X105869286Y-59028847D02*
X105869286Y-59266942D01*
X105869286Y-59266942D02*
X105821667Y-59362180D01*
X105821667Y-59362180D02*
X105774048Y-59409800D01*
X105774048Y-59409800D02*
X105678810Y-59457419D01*
X105678810Y-59457419D02*
X105393096Y-59457419D01*
X105393096Y-59457419D02*
X105297858Y-59409800D01*
X105297858Y-59409800D02*
X105250239Y-59362180D01*
D12*
X72954820Y-106641904D02*
X73764343Y-106641904D01*
X73764343Y-106641904D02*
X73859581Y-106594285D01*
X73859581Y-106594285D02*
X73907201Y-106546666D01*
X73907201Y-106546666D02*
X73954820Y-106451428D01*
X73954820Y-106451428D02*
X73954820Y-106260952D01*
X73954820Y-106260952D02*
X73907201Y-106165714D01*
X73907201Y-106165714D02*
X73859581Y-106118095D01*
X73859581Y-106118095D02*
X73764343Y-106070476D01*
X73764343Y-106070476D02*
X72954820Y-106070476D01*
X73954820Y-105070476D02*
X73954820Y-105641904D01*
X73954820Y-105356190D02*
X72954820Y-105356190D01*
X72954820Y-105356190D02*
X73097677Y-105451428D01*
X73097677Y-105451428D02*
X73192915Y-105546666D01*
X73192915Y-105546666D02*
X73240534Y-105641904D01*
X65264820Y-95223943D02*
X64788629Y-95557276D01*
X65264820Y-95795371D02*
X64264820Y-95795371D01*
X64264820Y-95795371D02*
X64264820Y-95414419D01*
X64264820Y-95414419D02*
X64312439Y-95319181D01*
X64312439Y-95319181D02*
X64360058Y-95271562D01*
X64360058Y-95271562D02*
X64455296Y-95223943D01*
X64455296Y-95223943D02*
X64598153Y-95223943D01*
X64598153Y-95223943D02*
X64693391Y-95271562D01*
X64693391Y-95271562D02*
X64741010Y-95319181D01*
X64741010Y-95319181D02*
X64788629Y-95414419D01*
X64788629Y-95414419D02*
X64788629Y-95795371D01*
X64264820Y-94319181D02*
X64264820Y-94795371D01*
X64264820Y-94795371D02*
X64741010Y-94842990D01*
X64741010Y-94842990D02*
X64693391Y-94795371D01*
X64693391Y-94795371D02*
X64645772Y-94700133D01*
X64645772Y-94700133D02*
X64645772Y-94462038D01*
X64645772Y-94462038D02*
X64693391Y-94366800D01*
X64693391Y-94366800D02*
X64741010Y-94319181D01*
X64741010Y-94319181D02*
X64836248Y-94271562D01*
X64836248Y-94271562D02*
X65074343Y-94271562D01*
X65074343Y-94271562D02*
X65169581Y-94319181D01*
X65169581Y-94319181D02*
X65217201Y-94366800D01*
X65217201Y-94366800D02*
X65264820Y-94462038D01*
X65264820Y-94462038D02*
X65264820Y-94700133D01*
X65264820Y-94700133D02*
X65217201Y-94795371D01*
X65217201Y-94795371D02*
X65169581Y-94842990D01*
X92494820Y-95831900D02*
X92018629Y-96165233D01*
X92494820Y-96403328D02*
X91494820Y-96403328D01*
X91494820Y-96403328D02*
X91494820Y-96022376D01*
X91494820Y-96022376D02*
X91542439Y-95927138D01*
X91542439Y-95927138D02*
X91590058Y-95879519D01*
X91590058Y-95879519D02*
X91685296Y-95831900D01*
X91685296Y-95831900D02*
X91828153Y-95831900D01*
X91828153Y-95831900D02*
X91923391Y-95879519D01*
X91923391Y-95879519D02*
X91971010Y-95927138D01*
X91971010Y-95927138D02*
X92018629Y-96022376D01*
X92018629Y-96022376D02*
X92018629Y-96403328D01*
X92494820Y-94879519D02*
X92494820Y-95450947D01*
X92494820Y-95165233D02*
X91494820Y-95165233D01*
X91494820Y-95165233D02*
X91637677Y-95260471D01*
X91637677Y-95260471D02*
X91732915Y-95355709D01*
X91732915Y-95355709D02*
X91780534Y-95450947D01*
X91494820Y-94546185D02*
X91494820Y-93927138D01*
X91494820Y-93927138D02*
X91875772Y-94260471D01*
X91875772Y-94260471D02*
X91875772Y-94117614D01*
X91875772Y-94117614D02*
X91923391Y-94022376D01*
X91923391Y-94022376D02*
X91971010Y-93974757D01*
X91971010Y-93974757D02*
X92066248Y-93927138D01*
X92066248Y-93927138D02*
X92304343Y-93927138D01*
X92304343Y-93927138D02*
X92399581Y-93974757D01*
X92399581Y-93974757D02*
X92447201Y-94022376D01*
X92447201Y-94022376D02*
X92494820Y-94117614D01*
X92494820Y-94117614D02*
X92494820Y-94403328D01*
X92494820Y-94403328D02*
X92447201Y-94498566D01*
X92447201Y-94498566D02*
X92399581Y-94546185D01*
D10*
X58321667Y-63392419D02*
X58321667Y-64106704D01*
X58321667Y-64106704D02*
X58274048Y-64249561D01*
X58274048Y-64249561D02*
X58178810Y-64344800D01*
X58178810Y-64344800D02*
X58035953Y-64392419D01*
X58035953Y-64392419D02*
X57940715Y-64392419D01*
X58702620Y-63392419D02*
X59321667Y-63392419D01*
X59321667Y-63392419D02*
X58988334Y-63773371D01*
X58988334Y-63773371D02*
X59131191Y-63773371D01*
X59131191Y-63773371D02*
X59226429Y-63820990D01*
X59226429Y-63820990D02*
X59274048Y-63868609D01*
X59274048Y-63868609D02*
X59321667Y-63963847D01*
X59321667Y-63963847D02*
X59321667Y-64201942D01*
X59321667Y-64201942D02*
X59274048Y-64297180D01*
X59274048Y-64297180D02*
X59226429Y-64344800D01*
X59226429Y-64344800D02*
X59131191Y-64392419D01*
X59131191Y-64392419D02*
X58845477Y-64392419D01*
X58845477Y-64392419D02*
X58750239Y-64344800D01*
X58750239Y-64344800D02*
X58702620Y-64297180D01*
D12*
X60429820Y-50498333D02*
X61144105Y-50498333D01*
X61144105Y-50498333D02*
X61286962Y-50545952D01*
X61286962Y-50545952D02*
X61382201Y-50641190D01*
X61382201Y-50641190D02*
X61429820Y-50784047D01*
X61429820Y-50784047D02*
X61429820Y-50879285D01*
X61429820Y-49498333D02*
X61429820Y-50069761D01*
X61429820Y-49784047D02*
X60429820Y-49784047D01*
X60429820Y-49784047D02*
X60572677Y-49879285D01*
X60572677Y-49879285D02*
X60667915Y-49974523D01*
X60667915Y-49974523D02*
X60715534Y-50069761D01*
X60764820Y-120436666D02*
X60288629Y-120769999D01*
X60764820Y-121008094D02*
X59764820Y-121008094D01*
X59764820Y-121008094D02*
X59764820Y-120627142D01*
X59764820Y-120627142D02*
X59812439Y-120531904D01*
X59812439Y-120531904D02*
X59860058Y-120484285D01*
X59860058Y-120484285D02*
X59955296Y-120436666D01*
X59955296Y-120436666D02*
X60098153Y-120436666D01*
X60098153Y-120436666D02*
X60193391Y-120484285D01*
X60193391Y-120484285D02*
X60241010Y-120531904D01*
X60241010Y-120531904D02*
X60288629Y-120627142D01*
X60288629Y-120627142D02*
X60288629Y-121008094D01*
X60764820Y-119960475D02*
X60764820Y-119769999D01*
X60764820Y-119769999D02*
X60717201Y-119674761D01*
X60717201Y-119674761D02*
X60669581Y-119627142D01*
X60669581Y-119627142D02*
X60526724Y-119531904D01*
X60526724Y-119531904D02*
X60336248Y-119484285D01*
X60336248Y-119484285D02*
X59955296Y-119484285D01*
X59955296Y-119484285D02*
X59860058Y-119531904D01*
X59860058Y-119531904D02*
X59812439Y-119579523D01*
X59812439Y-119579523D02*
X59764820Y-119674761D01*
X59764820Y-119674761D02*
X59764820Y-119865237D01*
X59764820Y-119865237D02*
X59812439Y-119960475D01*
X59812439Y-119960475D02*
X59860058Y-120008094D01*
X59860058Y-120008094D02*
X59955296Y-120055713D01*
X59955296Y-120055713D02*
X60193391Y-120055713D01*
X60193391Y-120055713D02*
X60288629Y-120008094D01*
X60288629Y-120008094D02*
X60336248Y-119960475D01*
X60336248Y-119960475D02*
X60383867Y-119865237D01*
X60383867Y-119865237D02*
X60383867Y-119674761D01*
X60383867Y-119674761D02*
X60336248Y-119579523D01*
X60336248Y-119579523D02*
X60288629Y-119531904D01*
X60288629Y-119531904D02*
X60193391Y-119484285D01*
X81404762Y-109640057D02*
X81309524Y-109592438D01*
X81309524Y-109592438D02*
X81214286Y-109497200D01*
X81214286Y-109497200D02*
X81071429Y-109354342D01*
X81071429Y-109354342D02*
X80976191Y-109306723D01*
X80976191Y-109306723D02*
X80880953Y-109306723D01*
X80928572Y-109544819D02*
X80833334Y-109497200D01*
X80833334Y-109497200D02*
X80738096Y-109401961D01*
X80738096Y-109401961D02*
X80690477Y-109211485D01*
X80690477Y-109211485D02*
X80690477Y-108878152D01*
X80690477Y-108878152D02*
X80738096Y-108687676D01*
X80738096Y-108687676D02*
X80833334Y-108592438D01*
X80833334Y-108592438D02*
X80928572Y-108544819D01*
X80928572Y-108544819D02*
X81119048Y-108544819D01*
X81119048Y-108544819D02*
X81214286Y-108592438D01*
X81214286Y-108592438D02*
X81309524Y-108687676D01*
X81309524Y-108687676D02*
X81357143Y-108878152D01*
X81357143Y-108878152D02*
X81357143Y-109211485D01*
X81357143Y-109211485D02*
X81309524Y-109401961D01*
X81309524Y-109401961D02*
X81214286Y-109497200D01*
X81214286Y-109497200D02*
X81119048Y-109544819D01*
X81119048Y-109544819D02*
X80928572Y-109544819D01*
X81738096Y-108640057D02*
X81785715Y-108592438D01*
X81785715Y-108592438D02*
X81880953Y-108544819D01*
X81880953Y-108544819D02*
X82119048Y-108544819D01*
X82119048Y-108544819D02*
X82214286Y-108592438D01*
X82214286Y-108592438D02*
X82261905Y-108640057D01*
X82261905Y-108640057D02*
X82309524Y-108735295D01*
X82309524Y-108735295D02*
X82309524Y-108830533D01*
X82309524Y-108830533D02*
X82261905Y-108973390D01*
X82261905Y-108973390D02*
X81690477Y-109544819D01*
X81690477Y-109544819D02*
X82309524Y-109544819D01*
D10*
X81321667Y-63392419D02*
X81321667Y-64106704D01*
X81321667Y-64106704D02*
X81274048Y-64249561D01*
X81274048Y-64249561D02*
X81178810Y-64344800D01*
X81178810Y-64344800D02*
X81035953Y-64392419D01*
X81035953Y-64392419D02*
X80940715Y-64392419D01*
X82226429Y-63392419D02*
X82035953Y-63392419D01*
X82035953Y-63392419D02*
X81940715Y-63440038D01*
X81940715Y-63440038D02*
X81893096Y-63487657D01*
X81893096Y-63487657D02*
X81797858Y-63630514D01*
X81797858Y-63630514D02*
X81750239Y-63820990D01*
X81750239Y-63820990D02*
X81750239Y-64201942D01*
X81750239Y-64201942D02*
X81797858Y-64297180D01*
X81797858Y-64297180D02*
X81845477Y-64344800D01*
X81845477Y-64344800D02*
X81940715Y-64392419D01*
X81940715Y-64392419D02*
X82131191Y-64392419D01*
X82131191Y-64392419D02*
X82226429Y-64344800D01*
X82226429Y-64344800D02*
X82274048Y-64297180D01*
X82274048Y-64297180D02*
X82321667Y-64201942D01*
X82321667Y-64201942D02*
X82321667Y-63963847D01*
X82321667Y-63963847D02*
X82274048Y-63868609D01*
X82274048Y-63868609D02*
X82226429Y-63820990D01*
X82226429Y-63820990D02*
X82131191Y-63773371D01*
X82131191Y-63773371D02*
X81940715Y-63773371D01*
X81940715Y-63773371D02*
X81845477Y-63820990D01*
X81845477Y-63820990D02*
X81797858Y-63868609D01*
X81797858Y-63868609D02*
X81750239Y-63963847D01*
X85666667Y-127457419D02*
X85666667Y-128171704D01*
X85666667Y-128171704D02*
X85619048Y-128314561D01*
X85619048Y-128314561D02*
X85523810Y-128409800D01*
X85523810Y-128409800D02*
X85380953Y-128457419D01*
X85380953Y-128457419D02*
X85285715Y-128457419D01*
X86571429Y-127790752D02*
X86571429Y-128457419D01*
X86333334Y-127409800D02*
X86095239Y-128124085D01*
X86095239Y-128124085D02*
X86714286Y-128124085D01*
D12*
X56264820Y-95276666D02*
X55788629Y-95609999D01*
X56264820Y-95848094D02*
X55264820Y-95848094D01*
X55264820Y-95848094D02*
X55264820Y-95467142D01*
X55264820Y-95467142D02*
X55312439Y-95371904D01*
X55312439Y-95371904D02*
X55360058Y-95324285D01*
X55360058Y-95324285D02*
X55455296Y-95276666D01*
X55455296Y-95276666D02*
X55598153Y-95276666D01*
X55598153Y-95276666D02*
X55693391Y-95324285D01*
X55693391Y-95324285D02*
X55741010Y-95371904D01*
X55741010Y-95371904D02*
X55788629Y-95467142D01*
X55788629Y-95467142D02*
X55788629Y-95848094D01*
X55360058Y-94895713D02*
X55312439Y-94848094D01*
X55312439Y-94848094D02*
X55264820Y-94752856D01*
X55264820Y-94752856D02*
X55264820Y-94514761D01*
X55264820Y-94514761D02*
X55312439Y-94419523D01*
X55312439Y-94419523D02*
X55360058Y-94371904D01*
X55360058Y-94371904D02*
X55455296Y-94324285D01*
X55455296Y-94324285D02*
X55550534Y-94324285D01*
X55550534Y-94324285D02*
X55693391Y-94371904D01*
X55693391Y-94371904D02*
X56264820Y-94943332D01*
X56264820Y-94943332D02*
X56264820Y-94324285D01*
D10*
%TO.C,J7*%
X72300001Y-133500000D02*
G75*
G02*
X60300001Y-133500000I-6000000J0D01*
G01*
X60300001Y-133500000D02*
G75*
G02*
X72300001Y-133500000I6000000J0D01*
G01*
D13*
%TO.C,R15*%
X75810001Y-91070000D02*
X75810001Y-91840000D01*
X75810001Y-99150000D02*
X75810001Y-98380000D01*
X77180001Y-91840000D02*
X74440001Y-91840000D01*
X74440001Y-98380000D01*
X77180001Y-98380000D01*
X77180001Y-91840000D01*
%TO.C,R16*%
X78940001Y-98380000D02*
X81680001Y-98380000D01*
X81680001Y-91840000D01*
X78940001Y-91840000D01*
X78940001Y-98380000D01*
X80310001Y-91070000D02*
X80310001Y-91840000D01*
X80310001Y-99150000D02*
X80310001Y-98380000D01*
%TO.C,C6*%
X74430001Y-125150000D02*
X74430001Y-120610000D01*
X74486001Y-125150000D02*
X74430001Y-125150000D01*
X76514001Y-120610000D02*
X76570001Y-120610000D01*
X76570001Y-120610000D02*
X76570001Y-125150000D01*
%TO.C,C5*%
X104110001Y-95419043D02*
X104110001Y-99959043D01*
X104054001Y-95419043D02*
X104110001Y-95419043D01*
X102026001Y-99959043D02*
X101970001Y-99959043D01*
X101970001Y-99959043D02*
X101970001Y-95419043D01*
%TO.C,C3*%
X101545001Y-119959043D02*
X101545001Y-115419043D01*
X101601001Y-119959043D02*
X101545001Y-119959043D01*
X103629001Y-115419043D02*
X103685001Y-115419043D01*
X103685001Y-115419043D02*
X103685001Y-119959043D01*
%TO.C,C2*%
X76770001Y-58636085D02*
X72230001Y-58636085D01*
X76770001Y-58580085D02*
X76770001Y-58636085D01*
X72230001Y-56552085D02*
X72230001Y-56496085D01*
X72230001Y-56496085D02*
X76770001Y-56496085D01*
%TO.C,C1*%
X89270001Y-58570000D02*
X84730001Y-58570000D01*
X89270001Y-58514000D02*
X89270001Y-58570000D01*
X84730001Y-56486000D02*
X84730001Y-56430000D01*
X84730001Y-56430000D02*
X89270001Y-56430000D01*
%TO.C,C4*%
X80570001Y-120610000D02*
X80570001Y-125150000D01*
X80514001Y-120610000D02*
X80570001Y-120610000D01*
X78486001Y-125150000D02*
X78430001Y-125150000D01*
X78430001Y-125150000D02*
X78430001Y-120610000D01*
%TO.C,R8*%
X66810001Y-124230000D02*
X66810001Y-123460000D01*
X66810001Y-116150000D02*
X66810001Y-116920000D01*
X65440001Y-123460000D02*
X68180001Y-123460000D01*
X68180001Y-116920000D01*
X65440001Y-116920000D01*
X65440001Y-123460000D01*
%TO.C,R7*%
X71182766Y-90997451D02*
X71182766Y-91767451D01*
X71182766Y-99077451D02*
X71182766Y-98307451D01*
X72552766Y-91767451D02*
X69812766Y-91767451D01*
X69812766Y-98307451D01*
X72552766Y-98307451D01*
X72552766Y-91767451D01*
%TO.C,J2*%
X83905001Y-45605000D02*
X99405001Y-45605000D01*
X83905001Y-54725000D02*
X83905001Y-45605000D01*
X85205001Y-46915000D02*
X98105001Y-46915000D01*
X85205001Y-53415000D02*
X85205001Y-46915000D01*
X88615001Y-56115000D02*
X89615001Y-56115000D01*
X89115001Y-55115000D02*
X88615001Y-56115000D01*
X89605001Y-53415000D02*
X85205001Y-53415000D01*
X89605001Y-54725000D02*
X89605001Y-53415000D01*
X89615001Y-56115000D02*
X89115001Y-55115000D01*
X93705001Y-53415000D02*
X93705001Y-54725000D01*
X98105001Y-46915000D02*
X98105001Y-53415000D01*
X98105001Y-53415000D02*
X93705001Y-53415000D01*
X99405001Y-45605000D02*
X99405001Y-54725000D01*
X99405001Y-54725000D02*
X83905001Y-54725000D01*
%TO.C,RV2*%
X77480001Y-83380000D02*
X77480001Y-82000000D01*
X78860001Y-83380000D02*
X77480001Y-83380000D01*
X80130001Y-80620000D02*
X85320001Y-80620000D01*
X80130001Y-83380000D02*
X80130001Y-80620000D01*
X80130001Y-83380000D02*
X85320001Y-83380000D01*
X85320001Y-83380000D02*
X85320001Y-80620000D01*
D10*
X70400001Y-60000000D02*
X92400001Y-60000000D01*
X92400001Y-84000000D01*
X70400001Y-84000000D01*
X70400001Y-60000000D01*
D13*
%TO.C,R3*%
X53310001Y-99150000D02*
X53310001Y-98380000D01*
X53310001Y-91070000D02*
X53310001Y-91840000D01*
X51940001Y-98380000D02*
X54680001Y-98380000D01*
X54680001Y-91840000D01*
X51940001Y-91840000D01*
X51940001Y-98380000D01*
%TO.C,Q1*%
X79700001Y-107500000D02*
X83300001Y-107500000D01*
X79661523Y-107488478D02*
G75*
G02*
X81500001Y-103049999I1838478J1838478D01*
G01*
X81500001Y-103050000D02*
G75*
G02*
X83338479Y-107488478I0J-2600000D01*
G01*
D10*
%TO.C,J5*%
X102500001Y-133500000D02*
G75*
G02*
X90500001Y-133500000I-6000000J0D01*
G01*
X90500001Y-133500000D02*
G75*
G02*
X102500001Y-133500000I6000000J0D01*
G01*
D13*
%TO.C,R10*%
X57810001Y-116230000D02*
X57810001Y-117000000D01*
X57810001Y-124310000D02*
X57810001Y-123540000D01*
X59180001Y-117000000D02*
X56440001Y-117000000D01*
X56440001Y-123540000D01*
X59180001Y-123540000D01*
X59180001Y-117000000D01*
%TO.C,D1*%
X85670001Y-101835000D02*
X85670001Y-104925000D01*
X85670001Y-101835170D02*
G75*
G02*
X91220001Y-103380000I2560000J-1544830D01*
G01*
X91220001Y-103380000D02*
G75*
G02*
X85670001Y-104924830I-2990000J0D01*
G01*
X90730001Y-103380000D02*
G75*
G02*
X85730001Y-103380000I-2500000J0D01*
G01*
X85730001Y-103380000D02*
G75*
G02*
X90730001Y-103380000I2500000J0D01*
G01*
%TO.C,R6*%
X94040001Y-124309043D02*
X94040001Y-123539043D01*
X94040001Y-116229043D02*
X94040001Y-116999043D01*
X92670001Y-123539043D02*
X95410001Y-123539043D01*
X95410001Y-116999043D01*
X92670001Y-116999043D01*
X92670001Y-123539043D01*
%TO.C,R4*%
X98540001Y-116380000D02*
X98540001Y-117150000D01*
X98540001Y-124460000D02*
X98540001Y-123690000D01*
X99910001Y-117150000D02*
X97170001Y-117150000D01*
X97170001Y-123690000D01*
X99910001Y-123690000D01*
X99910001Y-117150000D01*
%TO.C,D2*%
X90790001Y-113425000D02*
X90790001Y-110335000D01*
X90790001Y-113424830D02*
G75*
G02*
X85240001Y-111880000I-2560000J1544830D01*
G01*
X85240001Y-111880000D02*
G75*
G02*
X90790001Y-110335170I2990000J0D01*
G01*
X90730001Y-111880000D02*
G75*
G02*
X85730001Y-111880000I-2500000J0D01*
G01*
X85730001Y-111880000D02*
G75*
G02*
X90730001Y-111880000I2500000J0D01*
G01*
%TO.C,R17*%
X75810001Y-112810000D02*
X75810001Y-112040000D01*
X75810001Y-104730000D02*
X75810001Y-105500000D01*
X74440001Y-112040000D02*
X77180001Y-112040000D01*
X77180001Y-105500000D01*
X74440001Y-105500000D01*
X74440001Y-112040000D01*
%TO.C,U2*%
X92670001Y-110340000D02*
X110570001Y-110340000D01*
X110570001Y-110340000D02*
X110570001Y-105040000D01*
X92670001Y-108690000D02*
X92670001Y-110340000D01*
X92670001Y-105040000D02*
X92670001Y-106690000D01*
X110570001Y-105040000D02*
X92670001Y-105040000D01*
X92610001Y-112830000D02*
X110630001Y-112830000D01*
X110630001Y-102550000D01*
X92610001Y-102550000D01*
X92610001Y-112830000D01*
X92670001Y-106690000D02*
G75*
G02*
X92670001Y-108690000I0J-1000000D01*
G01*
%TO.C,R11*%
X53310001Y-116230000D02*
X53310001Y-117000000D01*
X53310001Y-124310000D02*
X53310001Y-123540000D01*
X54680001Y-117000000D02*
X51940001Y-117000000D01*
X51940001Y-123540000D01*
X54680001Y-123540000D01*
X54680001Y-117000000D01*
%TO.C,R14*%
X98540001Y-99149043D02*
X98540001Y-98379043D01*
X98540001Y-91069043D02*
X98540001Y-91839043D01*
X97170001Y-98379043D02*
X99910001Y-98379043D01*
X99910001Y-91839043D01*
X97170001Y-91839043D01*
X97170001Y-98379043D01*
%TO.C,R12*%
X71310001Y-124230000D02*
X71310001Y-123460000D01*
X71310001Y-116150000D02*
X71310001Y-116920000D01*
X69940001Y-123460000D02*
X72680001Y-123460000D01*
X72680001Y-116920000D01*
X69940001Y-116920000D01*
X69940001Y-123460000D01*
%TO.C,RV1*%
X54380001Y-83380000D02*
X54380001Y-82000000D01*
X55760001Y-83380000D02*
X54380001Y-83380000D01*
X57030001Y-80620000D02*
X62220001Y-80620000D01*
X57030001Y-83380000D02*
X57030001Y-80620000D01*
X57030001Y-83380000D02*
X62220001Y-83380000D01*
X62220001Y-83380000D02*
X62220001Y-80620000D01*
D10*
X47300001Y-60000000D02*
X69300001Y-60000000D01*
X69300001Y-84000000D01*
X47300001Y-84000000D01*
X47300001Y-60000000D01*
D13*
%TO.C,R1*%
X62310001Y-91070000D02*
X62310001Y-91840000D01*
X62310001Y-99150000D02*
X62310001Y-98380000D01*
X63680001Y-91840000D02*
X60940001Y-91840000D01*
X60940001Y-98380000D01*
X63680001Y-98380000D01*
X63680001Y-91840000D01*
%TO.C,RV3*%
X100580001Y-83380000D02*
X100580001Y-82000000D01*
X101960001Y-83380000D02*
X100580001Y-83380000D01*
X103230001Y-80620000D02*
X108420001Y-80620000D01*
X103230001Y-83380000D02*
X103230001Y-80620000D01*
X103230001Y-83380000D02*
X108420001Y-83380000D01*
X108420001Y-83380000D02*
X108420001Y-80620000D01*
D10*
X93500001Y-60000000D02*
X115500001Y-60000000D01*
X115500001Y-84000000D01*
X93500001Y-84000000D01*
X93500001Y-60000000D01*
D13*
%TO.C,U1*%
X52090001Y-110340000D02*
X72530001Y-110340000D01*
X72530001Y-110340000D02*
X72530001Y-108690000D01*
X72530001Y-106690000D02*
X72530001Y-105040000D01*
X52090001Y-105040000D02*
X52090001Y-110340000D01*
X72530001Y-105040000D02*
X52090001Y-105040000D01*
X72590001Y-102550000D02*
X52030001Y-102550000D01*
X52030001Y-112830000D01*
X72590001Y-112830000D01*
X72590001Y-102550000D01*
X72530001Y-108690000D02*
G75*
G02*
X72530001Y-106690000I0J1000000D01*
G01*
%TO.C,R5*%
X66810001Y-91017277D02*
X66810001Y-91787277D01*
X66810001Y-99097277D02*
X66810001Y-98327277D01*
X68180001Y-91787277D02*
X65440001Y-91787277D01*
X65440001Y-98327277D01*
X68180001Y-98327277D01*
X68180001Y-91787277D01*
%TO.C,R13*%
X94040001Y-91069043D02*
X94040001Y-91839043D01*
X94040001Y-99149043D02*
X94040001Y-98379043D01*
X95410001Y-91839043D02*
X92670001Y-91839043D01*
X92670001Y-98379043D01*
X95410001Y-98379043D01*
X95410001Y-91839043D01*
%TO.C,J1*%
X61865001Y-45605000D02*
X77365001Y-45605000D01*
X61865001Y-54725000D02*
X61865001Y-45605000D01*
X63165001Y-46915000D02*
X76065001Y-46915000D01*
X63165001Y-53415000D02*
X63165001Y-46915000D01*
X66575001Y-56115000D02*
X67575001Y-56115000D01*
X67075001Y-55115000D02*
X66575001Y-56115000D01*
X67565001Y-53415000D02*
X63165001Y-53415000D01*
X67565001Y-54725000D02*
X67565001Y-53415000D01*
X67575001Y-56115000D02*
X67075001Y-55115000D01*
X71665001Y-53415000D02*
X71665001Y-54725000D01*
X76065001Y-46915000D02*
X76065001Y-53415000D01*
X76065001Y-53415000D02*
X71665001Y-53415000D01*
X77365001Y-45605000D02*
X77365001Y-54725000D01*
X77365001Y-54725000D02*
X61865001Y-54725000D01*
%TO.C,R9*%
X62310001Y-116230000D02*
X62310001Y-117000000D01*
X62310001Y-124310000D02*
X62310001Y-123540000D01*
X63680001Y-117000000D02*
X60940001Y-117000000D01*
X60940001Y-123540000D01*
X63680001Y-123540000D01*
X63680001Y-117000000D01*
%TO.C,Q2*%
X79700001Y-114500000D02*
X83300001Y-114500000D01*
X79661523Y-114488478D02*
G75*
G02*
X81500001Y-110049999I1838478J1838478D01*
G01*
X81500001Y-110050000D02*
G75*
G02*
X83338479Y-114488478I0J-2600000D01*
G01*
D10*
%TO.C,J4*%
X87500001Y-133500000D02*
G75*
G02*
X75500001Y-133500000I-6000000J0D01*
G01*
X75500001Y-133500000D02*
G75*
G02*
X87500001Y-133500000I6000000J0D01*
G01*
D13*
%TO.C,R2*%
X57810001Y-99150000D02*
X57810001Y-98380000D01*
X57810001Y-91070000D02*
X57810001Y-91840000D01*
X56440001Y-98380000D02*
X59180001Y-98380000D01*
X59180001Y-91840000D01*
X56440001Y-91840000D01*
X56440001Y-98380000D01*
%TD*%
M02*
