%TF.GenerationSoftware,KiCad,Pcbnew,9.0.6*%
%TF.CreationDate,2025-12-28T20:24:00+11:00*%
%TF.ProjectId,low-pass-filter,6c6f772d-7061-4737-932d-66696c746572,rev?*%
%TF.SameCoordinates,Original*%
%TF.FileFunction,Soldermask,Bot*%
%TF.FilePolarity,Negative*%
%FSLAX46Y46*%
G04 Gerber Fmt 4.6, Leading zero omitted, Abs format (unit mm)*
G04 Created by KiCad (PCBNEW 9.0.6) date 2025-12-28 20:24:00*
%MOMM*%
%LPD*%
G01*
G04 APERTURE LIST*
G04 Aperture macros list*
%AMRoundRect*
0 Rectangle with rounded corners*
0 $1 Rounding radius*
0 $2 $3 $4 $5 $6 $7 $8 $9 X,Y pos of 4 corners*
0 Add a 4 corners polygon primitive as box body*
4,1,4,$2,$3,$4,$5,$6,$7,$8,$9,$2,$3,0*
0 Add four circle primitives for the rounded corners*
1,1,$1+$1,$2,$3*
1,1,$1+$1,$4,$5*
1,1,$1+$1,$6,$7*
1,1,$1+$1,$8,$9*
0 Add four rect primitives between the rounded corners*
20,1,$1+$1,$2,$3,$4,$5,0*
20,1,$1+$1,$4,$5,$6,$7,0*
20,1,$1+$1,$6,$7,$8,$9,0*
20,1,$1+$1,$8,$9,$2,$3,0*%
G04 Aperture macros list end*
%ADD10C,8.000000*%
%ADD11C,1.600000*%
%ADD12RoundRect,0.250000X0.600000X-0.600000X0.600000X0.600000X-0.600000X0.600000X-0.600000X-0.600000X0*%
%ADD13C,1.700000*%
%ADD14C,2.200000*%
%ADD15R,1.700000X1.700000*%
%ADD16R,1.300000X1.300000*%
%ADD17C,1.300000*%
%ADD18R,1.800000X1.800000*%
%ADD19C,1.800000*%
%ADD20RoundRect,0.250000X0.550000X-0.550000X0.550000X0.550000X-0.550000X0.550000X-0.550000X-0.550000X0*%
%ADD21RoundRect,0.250000X-0.550000X0.550000X-0.550000X-0.550000X0.550000X-0.550000X0.550000X0.550000X0*%
G04 APERTURE END LIST*
D10*
%TO.C,J7*%
X66300001Y-133524938D03*
%TD*%
D11*
%TO.C,R15*%
X75810001Y-90030000D03*
X75810001Y-100190000D03*
%TD*%
%TO.C,R16*%
X80310001Y-90030000D03*
X80310001Y-100190000D03*
%TD*%
%TO.C,C6*%
X75500001Y-125380000D03*
X75500001Y-120380000D03*
%TD*%
%TO.C,C5*%
X103040001Y-95189043D03*
X103040001Y-100189043D03*
%TD*%
%TO.C,C3*%
X102615001Y-120189043D03*
X102615001Y-115189043D03*
%TD*%
%TO.C,C2*%
X77000001Y-57566085D03*
X72000001Y-57566085D03*
%TD*%
%TO.C,C1*%
X89500001Y-57500000D03*
X84500001Y-57500000D03*
%TD*%
%TO.C,C4*%
X79500001Y-120380000D03*
X79500001Y-125380000D03*
%TD*%
%TO.C,R8*%
X66810001Y-125270000D03*
X66810001Y-115110000D03*
%TD*%
%TO.C,R7*%
X71182766Y-89957451D03*
X71182766Y-100117451D03*
%TD*%
D12*
%TO.C,J2*%
X89115001Y-51435000D03*
D13*
X89115001Y-48895000D03*
X91655001Y-51435000D03*
X91655001Y-48895000D03*
X94195001Y-51435000D03*
X94195001Y-48895000D03*
%TD*%
D14*
%TO.C,RV2*%
X72900001Y-62500000D03*
X89950001Y-62500000D03*
D15*
X78860001Y-82000000D03*
D13*
X81400001Y-82000000D03*
X83940001Y-82000000D03*
%TD*%
D11*
%TO.C,R3*%
X53310001Y-100190000D03*
X53310001Y-90030000D03*
%TD*%
D15*
%TO.C,J9*%
X99575001Y-61435000D03*
D13*
X104655001Y-61435000D03*
X109655001Y-61435000D03*
%TD*%
D16*
%TO.C,Q1*%
X80230001Y-105650000D03*
D17*
X81500001Y-104380000D03*
X82770001Y-105650000D03*
%TD*%
D10*
%TO.C,J5*%
X96500001Y-133524938D03*
%TD*%
D11*
%TO.C,R10*%
X57810001Y-115190000D03*
X57810001Y-125350000D03*
%TD*%
D18*
%TO.C,D1*%
X86960001Y-103380000D03*
D19*
X89500001Y-103380000D03*
%TD*%
D11*
%TO.C,R6*%
X94040001Y-125349043D03*
X94040001Y-115189043D03*
%TD*%
%TO.C,R4*%
X98540001Y-115340000D03*
X98540001Y-125500000D03*
%TD*%
D18*
%TO.C,D2*%
X89500001Y-111880000D03*
D19*
X86960001Y-111880000D03*
%TD*%
D11*
%TO.C,R17*%
X75810001Y-113850000D03*
X75810001Y-103690000D03*
%TD*%
D20*
%TO.C,U2*%
X94000001Y-111500000D03*
D11*
X96540001Y-111500000D03*
X99080001Y-111500000D03*
X101620001Y-111500000D03*
X104160001Y-111500000D03*
X106700001Y-111500000D03*
X109240001Y-111500000D03*
X109240001Y-103880000D03*
X106700001Y-103880000D03*
X104160001Y-103880000D03*
X101620001Y-103880000D03*
X99080001Y-103880000D03*
X96540001Y-103880000D03*
X94000001Y-103880000D03*
%TD*%
%TO.C,R11*%
X53310001Y-115190000D03*
X53310001Y-125350000D03*
%TD*%
%TO.C,R14*%
X98540001Y-100189043D03*
X98540001Y-90029043D03*
%TD*%
%TO.C,R12*%
X71310001Y-125270000D03*
X71310001Y-115110000D03*
%TD*%
D14*
%TO.C,RV1*%
X49800001Y-62500000D03*
X66850001Y-62500000D03*
D15*
X55760001Y-82000000D03*
D13*
X58300001Y-82000000D03*
X60840001Y-82000000D03*
%TD*%
D11*
%TO.C,R1*%
X62310001Y-90030000D03*
X62310001Y-100190000D03*
%TD*%
D14*
%TO.C,RV3*%
X96000001Y-62500000D03*
X113050001Y-62500000D03*
D15*
X101960001Y-82000000D03*
D13*
X104500001Y-82000000D03*
X107040001Y-82000000D03*
%TD*%
D21*
%TO.C,U1*%
X71200001Y-103880000D03*
D11*
X68660001Y-103880000D03*
X66120001Y-103880000D03*
X63580001Y-103880000D03*
X61040001Y-103880000D03*
X58500001Y-103880000D03*
X55960001Y-103880000D03*
X53420001Y-103880000D03*
X53420001Y-111500000D03*
X55960001Y-111500000D03*
X58500001Y-111500000D03*
X61040001Y-111500000D03*
X63580001Y-111500000D03*
X66120001Y-111500000D03*
X68660001Y-111500000D03*
X71200001Y-111500000D03*
%TD*%
%TO.C,R5*%
X66810001Y-89977277D03*
X66810001Y-100137277D03*
%TD*%
%TO.C,R13*%
X94040001Y-90029043D03*
X94040001Y-100189043D03*
%TD*%
D15*
%TO.C,J3*%
X53575001Y-61435000D03*
D13*
X58655001Y-61435000D03*
X63655001Y-61435000D03*
%TD*%
D12*
%TO.C,J1*%
X67075001Y-51435000D03*
D13*
X67075001Y-48895000D03*
X69615001Y-51435000D03*
X69615001Y-48895000D03*
X72155001Y-51435000D03*
X72155001Y-48895000D03*
%TD*%
D11*
%TO.C,R9*%
X62310001Y-115190000D03*
X62310001Y-125350000D03*
%TD*%
D16*
%TO.C,Q2*%
X80230001Y-112650000D03*
D17*
X81500001Y-111380000D03*
X82770001Y-112650000D03*
%TD*%
D15*
%TO.C,J6*%
X76575001Y-61435000D03*
D13*
X81655001Y-61435000D03*
X86655001Y-61435000D03*
%TD*%
D10*
%TO.C,J4*%
X81500001Y-133524938D03*
%TD*%
D11*
%TO.C,R2*%
X57810001Y-100190000D03*
X57810001Y-90030000D03*
%TD*%
M02*
