%TF.GenerationSoftware,KiCad,Pcbnew,9.0.6*%
%TF.CreationDate,2026-01-12T01:08:44+11:00*%
%TF.ProjectId,low-pass-filter,6c6f772d-7061-4737-932d-66696c746572,rev?*%
%TF.SameCoordinates,Original*%
%TF.FileFunction,Copper,L1,Top*%
%TF.FilePolarity,Positive*%
%FSLAX46Y46*%
G04 Gerber Fmt 4.6, Leading zero omitted, Abs format (unit mm)*
G04 Created by KiCad (PCBNEW 9.0.6) date 2026-01-12 01:08:44*
%MOMM*%
%LPD*%
G01*
G04 APERTURE LIST*
G04 Aperture macros list*
%AMRoundRect*
0 Rectangle with rounded corners*
0 $1 Rounding radius*
0 $2 $3 $4 $5 $6 $7 $8 $9 X,Y pos of 4 corners*
0 Add a 4 corners polygon primitive as box body*
4,1,4,$2,$3,$4,$5,$6,$7,$8,$9,$2,$3,0*
0 Add four circle primitives for the rounded corners*
1,1,$1+$1,$2,$3*
1,1,$1+$1,$4,$5*
1,1,$1+$1,$6,$7*
1,1,$1+$1,$8,$9*
0 Add four rect primitives between the rounded corners*
20,1,$1+$1,$2,$3,$4,$5,0*
20,1,$1+$1,$4,$5,$6,$7,0*
20,1,$1+$1,$6,$7,$8,$9,0*
20,1,$1+$1,$8,$9,$2,$3,0*%
G04 Aperture macros list end*
%TA.AperFunction,ComponentPad*%
%ADD10C,1.700000*%
%TD*%
%TA.AperFunction,ComponentPad*%
%ADD11RoundRect,0.250000X0.600000X-0.600000X0.600000X0.600000X-0.600000X0.600000X-0.600000X-0.600000X0*%
%TD*%
%TA.AperFunction,ComponentPad*%
%ADD12C,1.600000*%
%TD*%
%TA.AperFunction,ComponentPad*%
%ADD13R,1.700000X1.700000*%
%TD*%
%TA.AperFunction,ComponentPad*%
%ADD14R,2.000000X2.000000*%
%TD*%
%TA.AperFunction,ComponentPad*%
%ADD15C,2.000000*%
%TD*%
%TA.AperFunction,ComponentPad*%
%ADD16R,1.300000X1.300000*%
%TD*%
%TA.AperFunction,ComponentPad*%
%ADD17C,1.300000*%
%TD*%
%TA.AperFunction,ComponentPad*%
%ADD18C,8.000000*%
%TD*%
%TA.AperFunction,ComponentPad*%
%ADD19R,1.800000X1.800000*%
%TD*%
%TA.AperFunction,ComponentPad*%
%ADD20C,1.800000*%
%TD*%
%TA.AperFunction,ComponentPad*%
%ADD21RoundRect,0.250000X0.550000X-0.550000X0.550000X0.550000X-0.550000X0.550000X-0.550000X-0.550000X0*%
%TD*%
%TA.AperFunction,ComponentPad*%
%ADD22RoundRect,0.250000X-0.550000X0.550000X-0.550000X-0.550000X0.550000X-0.550000X0.550000X0.550000X0*%
%TD*%
%TA.AperFunction,Conductor*%
%ADD23C,0.200000*%
%TD*%
G04 APERTURE END LIST*
D10*
%TO.P,J2,6,Pin_6*%
%TO.N,unconnected-(J2-Pin_6-Pad6)*%
X94195001Y-48895000D03*
%TO.P,J2,5,Pin_5*%
%TO.N,5V*%
X94195001Y-51435000D03*
%TO.P,J2,4,Pin_4*%
%TO.N,GND*%
X91655001Y-48895000D03*
%TO.P,J2,3,Pin_3*%
X91655001Y-51435000D03*
%TO.P,J2,2,Pin_2*%
%TO.N,-12V*%
X89115001Y-48895000D03*
D11*
%TO.P,J2,1,Pin_1*%
%TO.N,12V*%
X89115001Y-51435000D03*
%TD*%
D12*
%TO.P,R8,1*%
%TO.N,Net-(U2B--)*%
X66810001Y-125270000D03*
%TO.P,R8,2*%
%TO.N,Net-(U1A-+)*%
X66810001Y-115110000D03*
%TD*%
%TO.P,R7,1*%
%TO.N,Net-(Q2-C)*%
X71182766Y-89957451D03*
%TO.P,R7,2*%
%TO.N,Net-(R7-Pad2)*%
X71182766Y-100117451D03*
%TD*%
D13*
%TO.P,RV2,1,1*%
%TO.N,GND*%
X78860001Y-82000000D03*
D10*
%TO.P,RV2,2,2*%
%TO.N,Net-(J6-Pin_2)*%
X81400001Y-82000000D03*
%TO.P,RV2,3,3*%
%TO.N,Net-(J5-Pin_1)*%
X83940001Y-82000000D03*
%TD*%
D12*
%TO.P,R3,1*%
%TO.N,Net-(U1C--)*%
X53310001Y-100190000D03*
%TO.P,R3,2*%
%TO.N,GND*%
X53310001Y-90030000D03*
%TD*%
D14*
%TO.P,J9,1,Pin_1*%
%TO.N,-12V*%
X99575001Y-66000000D03*
D15*
%TO.P,J9,2,Pin_2*%
%TO.N,Net-(J9-Pin_2)*%
X104655001Y-66000000D03*
%TO.P,J9,3,Pin_3*%
%TO.N,12V*%
X109655001Y-66000000D03*
%TD*%
D16*
%TO.P,Q1,1,C*%
%TO.N,Net-(Q1-C)*%
X80230001Y-105650000D03*
D17*
%TO.P,Q1,2,B*%
%TO.N,Net-(Q1-B)*%
X81500001Y-104380000D03*
%TO.P,Q1,3,E*%
%TO.N,Net-(Q1-E)*%
X82770001Y-105650000D03*
%TD*%
D18*
%TO.P,J5,1,Pin_1*%
%TO.N,Net-(J5-Pin_1)*%
X96500001Y-133524938D03*
%TD*%
D12*
%TO.P,R10,1*%
%TO.N,Net-(U1A--)*%
X57810001Y-115190000D03*
%TO.P,R10,2*%
%TO.N,Net-(U2C--)*%
X57810001Y-125350000D03*
%TD*%
%TO.P,C2,1*%
%TO.N,-12V*%
X101618620Y-101063201D03*
%TO.P,C2,2*%
%TO.N,GND*%
X106618620Y-101063201D03*
%TD*%
D19*
%TO.P,D1,1,K*%
%TO.N,Net-(D1-K)*%
X86960001Y-103380000D03*
D20*
%TO.P,D1,2,A*%
%TO.N,Net-(D1-A)*%
X89500001Y-103380000D03*
%TD*%
D12*
%TO.P,R6,1*%
%TO.N,Net-(D1-A)*%
X94040001Y-125349043D03*
%TO.P,R6,2*%
%TO.N,Net-(D1-K)*%
X94040001Y-115189043D03*
%TD*%
%TO.P,R4,1*%
%TO.N,Net-(D1-K)*%
X98540001Y-115340000D03*
%TO.P,R4,2*%
%TO.N,GND*%
X98540001Y-125500000D03*
%TD*%
D19*
%TO.P,D2,1,K*%
%TO.N,Net-(D1-A)*%
X89500001Y-111880000D03*
D20*
%TO.P,D2,2,A*%
%TO.N,Net-(D1-K)*%
X86960001Y-111880000D03*
%TD*%
D12*
%TO.P,R17,1*%
%TO.N,Net-(J3-Pin_2)*%
X75810001Y-113850000D03*
%TO.P,R17,2*%
%TO.N,Net-(Q1-B)*%
X75810001Y-103690000D03*
%TD*%
%TO.P,C1,1*%
%TO.N,GND*%
X106618900Y-114405498D03*
%TO.P,C1,2*%
%TO.N,12V*%
X101618900Y-114405498D03*
%TD*%
%TO.P,R16,1*%
%TO.N,Net-(Q1-B)*%
X80310001Y-100190000D03*
%TO.P,R16,2*%
%TO.N,Net-(J9-Pin_2)*%
X80310001Y-90030000D03*
%TD*%
D21*
%TO.P,U2,1*%
%TO.N,Net-(D1-A)*%
X94000001Y-111500000D03*
D12*
%TO.P,U2,2,-*%
%TO.N,Net-(D1-K)*%
X96540001Y-111500000D03*
%TO.P,U2,3,+*%
%TO.N,Net-(J6-Pin_2)*%
X99080001Y-111500000D03*
%TO.P,U2,4,V+*%
%TO.N,12V*%
X101620001Y-111500000D03*
%TO.P,U2,5,+*%
%TO.N,Net-(U2B-+)*%
X104160001Y-111500000D03*
%TO.P,U2,6,-*%
%TO.N,Net-(U2B--)*%
X106700001Y-111500000D03*
%TO.P,U2,7*%
X109240001Y-111500000D03*
%TO.P,U2,8*%
%TO.N,Net-(U2C--)*%
X109240001Y-103880000D03*
%TO.P,U2,9,-*%
X106700001Y-103880000D03*
%TO.P,U2,10,+*%
%TO.N,Net-(U2C-+)*%
X104160001Y-103880000D03*
%TO.P,U2,11,V-*%
%TO.N,-12V*%
X101620001Y-103880000D03*
%TO.P,U2,12,+*%
%TO.N,GND*%
X99080001Y-103880000D03*
%TO.P,U2,13,-*%
%TO.N,Net-(Q1-C)*%
X96540001Y-103880000D03*
%TO.P,U2,14*%
%TO.N,Net-(C5-Pad1)*%
X94000001Y-103880000D03*
%TD*%
%TO.P,R11,1*%
%TO.N,Net-(U1A--)*%
X53310001Y-115190000D03*
%TO.P,R11,2*%
%TO.N,GND*%
X53310001Y-125350000D03*
%TD*%
%TO.P,R14,1*%
%TO.N,Net-(Q1-C)*%
X98540001Y-100189043D03*
%TO.P,R14,2*%
%TO.N,-12V*%
X98540001Y-90029043D03*
%TD*%
%TO.P,C3,1*%
%TO.N,Net-(D1-A)*%
X101619099Y-116955337D03*
%TO.P,C3,2*%
%TO.N,Net-(U2B-+)*%
X106619099Y-116955337D03*
%TD*%
%TO.P,R15,1*%
%TO.N,GND*%
X75810001Y-90030000D03*
%TO.P,R15,2*%
%TO.N,Net-(Q1-B)*%
X75810001Y-100190000D03*
%TD*%
%TO.P,C7,1*%
%TO.N,GND*%
X50500000Y-106500000D03*
%TO.P,C7,2*%
%TO.N,-12V*%
X50500000Y-101500000D03*
%TD*%
%TO.P,R12,1*%
%TO.N,Net-(Q2-C)*%
X71310001Y-125270000D03*
%TO.P,R12,2*%
%TO.N,Net-(R12-Pad2)*%
X71310001Y-115110000D03*
%TD*%
D13*
%TO.P,RV1,1,1*%
%TO.N,GND*%
X55760001Y-82000000D03*
D10*
%TO.P,RV1,2,2*%
%TO.N,Net-(J3-Pin_2)*%
X58300001Y-82000000D03*
%TO.P,RV1,3,3*%
%TO.N,Net-(J3-Pin_3)*%
X60840001Y-82000000D03*
%TD*%
D12*
%TO.P,R1,1*%
%TO.N,Net-(U2B--)*%
X62310001Y-90030000D03*
%TO.P,R1,2*%
%TO.N,Net-(U1C--)*%
X62310001Y-100190000D03*
%TD*%
D13*
%TO.P,RV3,1,1*%
%TO.N,-12V*%
X101960001Y-82000000D03*
D10*
%TO.P,RV3,2,2*%
%TO.N,Net-(J9-Pin_2)*%
X104500001Y-82000000D03*
%TO.P,RV3,3,3*%
%TO.N,12V*%
X107040001Y-82000000D03*
%TD*%
D22*
%TO.P,U1,1*%
%TO.N,Net-(R7-Pad2)*%
X71200001Y-103880000D03*
D12*
%TO.P,U1,2,DIODE_BIAS*%
%TO.N,unconnected-(U1C-DIODE_BIAS-Pad2)*%
X68660001Y-103880000D03*
%TO.P,U1,3,+*%
%TO.N,Net-(U1C-+)*%
X66120001Y-103880000D03*
%TO.P,U1,4,-*%
%TO.N,Net-(U1C--)*%
X63580001Y-103880000D03*
%TO.P,U1,5*%
%TO.N,Net-(U2B-+)*%
X61040001Y-103880000D03*
%TO.P,U1,6,V-*%
%TO.N,-12V*%
X58500001Y-103880000D03*
%TO.P,U1,7*%
%TO.N,unconnected-(U1-Pad7)*%
X55960001Y-103880000D03*
%TO.P,U1,8*%
%TO.N,unconnected-(U1-Pad8)*%
X53420001Y-103880000D03*
%TO.P,U1,9*%
%TO.N,unconnected-(U1-Pad9)*%
X53420001Y-111500000D03*
%TO.P,U1,10*%
%TO.N,unconnected-(U1-Pad10)*%
X55960001Y-111500000D03*
%TO.P,U1,11,V+*%
%TO.N,12V*%
X58500001Y-111500000D03*
%TO.P,U1,12*%
%TO.N,Net-(U2C-+)*%
X61040001Y-111500000D03*
%TO.P,U1,13,-*%
%TO.N,Net-(U1A--)*%
X63580001Y-111500000D03*
%TO.P,U1,14,+*%
%TO.N,Net-(U1A-+)*%
X66120001Y-111500000D03*
%TO.P,U1,15,DIODE_BIAS*%
%TO.N,unconnected-(U1A-DIODE_BIAS-Pad15)*%
X68660001Y-111500000D03*
%TO.P,U1,16*%
%TO.N,Net-(R12-Pad2)*%
X71200001Y-111500000D03*
%TD*%
%TO.P,C8,1*%
%TO.N,12V*%
X50500000Y-114000000D03*
%TO.P,C8,2*%
%TO.N,GND*%
X50500000Y-109000000D03*
%TD*%
%TO.P,R5,1*%
%TO.N,GND*%
X66810001Y-89977277D03*
%TO.P,R5,2*%
%TO.N,Net-(U1C-+)*%
X66810001Y-100137277D03*
%TD*%
D18*
%TO.P,J7,1,Pin_1*%
%TO.N,Net-(J7-Pin_1)*%
X66300001Y-133524938D03*
%TD*%
D12*
%TO.P,R13,1*%
%TO.N,Net-(Q1-E)*%
X94040001Y-90029043D03*
%TO.P,R13,2*%
%TO.N,Net-(C5-Pad1)*%
X94040001Y-100189043D03*
%TD*%
D14*
%TO.P,J3,1,Pin_1*%
%TO.N,GND*%
X53575001Y-66000000D03*
D15*
%TO.P,J3,2,Pin_2*%
%TO.N,Net-(J3-Pin_2)*%
X58655001Y-66000000D03*
%TO.P,J3,3,Pin_3*%
%TO.N,Net-(J3-Pin_3)*%
X63655001Y-66000000D03*
%TD*%
D12*
%TO.P,C5,1*%
%TO.N,Net-(C5-Pad1)*%
X103040001Y-93000000D03*
%TO.P,C5,2*%
%TO.N,Net-(Q1-C)*%
X103040001Y-98000000D03*
%TD*%
D11*
%TO.P,J1,1,Pin_1*%
%TO.N,12V*%
X67075001Y-51435000D03*
D10*
%TO.P,J1,2,Pin_2*%
%TO.N,-12V*%
X67075001Y-48895000D03*
%TO.P,J1,3,Pin_3*%
%TO.N,GND*%
X69615001Y-51435000D03*
%TO.P,J1,4,Pin_4*%
X69615001Y-48895000D03*
%TO.P,J1,5,Pin_5*%
%TO.N,5V*%
X72155001Y-51435000D03*
%TO.P,J1,6,Pin_6*%
%TO.N,unconnected-(J1-Pin_6-Pad6)*%
X72155001Y-48895000D03*
%TD*%
D12*
%TO.P,C6,1*%
%TO.N,GND*%
X79500000Y-116500000D03*
%TO.P,C6,2*%
%TO.N,Net-(U2C-+)*%
X74500000Y-116500000D03*
%TD*%
%TO.P,R9,1*%
%TO.N,Net-(U1A-+)*%
X62310001Y-115190000D03*
%TO.P,R9,2*%
%TO.N,GND*%
X62310001Y-125350000D03*
%TD*%
%TO.P,C4,1*%
%TO.N,Net-(U2C--)*%
X74500000Y-119000000D03*
%TO.P,C4,2*%
%TO.N,Net-(J5-Pin_1)*%
X79500000Y-119000000D03*
%TD*%
D16*
%TO.P,Q2,1,C*%
%TO.N,Net-(Q2-C)*%
X80230001Y-112650000D03*
D17*
%TO.P,Q2,2,B*%
%TO.N,GND*%
X81500001Y-111380000D03*
%TO.P,Q2,3,E*%
%TO.N,Net-(Q1-E)*%
X82770001Y-112650000D03*
%TD*%
D14*
%TO.P,J6,1,Pin_1*%
%TO.N,GND*%
X76500000Y-66000000D03*
D15*
%TO.P,J6,2,Pin_2*%
%TO.N,Net-(J6-Pin_2)*%
X81580000Y-66000000D03*
%TO.P,J6,3,Pin_3*%
%TO.N,Net-(J5-Pin_1)*%
X86580000Y-66000000D03*
%TD*%
D18*
%TO.P,J4,1,Pin_1*%
%TO.N,Net-(J3-Pin_3)*%
X81500001Y-133524938D03*
%TD*%
D12*
%TO.P,R2,1*%
%TO.N,Net-(U1C--)*%
X57810001Y-100190000D03*
%TO.P,R2,2*%
%TO.N,Net-(J7-Pin_1)*%
X57810001Y-90030000D03*
%TD*%
D23*
%TO.N,GND*%
X79500000Y-116500000D02*
X89540001Y-116500000D01*
X89540001Y-116500000D02*
X98540001Y-125500000D01*
%TO.N,-12V*%
X99575001Y-66000000D02*
X99575001Y-79615000D01*
X99575001Y-79615000D02*
X101960001Y-82000000D01*
%TO.N,12V*%
X109655001Y-66000000D02*
X107040001Y-68615000D01*
X107040001Y-68615000D02*
X107040001Y-82000000D01*
%TO.N,-12V*%
X89115001Y-48895000D02*
X90266001Y-47744000D01*
X90266001Y-47744000D02*
X94671761Y-47744000D01*
X94671761Y-47744000D02*
X99575001Y-52647240D01*
X99575001Y-52647240D02*
X99575001Y-66000000D01*
%TO.N,GND*%
X98540001Y-125500000D02*
X98540001Y-122484397D01*
X98540001Y-122484397D02*
X106618900Y-114405498D01*
%TO.N,Net-(J5-Pin_1)*%
X79500000Y-119000000D02*
X81975063Y-119000000D01*
X81975063Y-119000000D02*
X96500001Y-133524938D01*
%TO.N,Net-(U2C--)*%
X57810001Y-125350000D02*
X64160001Y-119000000D01*
X64160001Y-119000000D02*
X74500000Y-119000000D01*
%TO.N,Net-(U2C-+)*%
X74500000Y-116500000D02*
X75601000Y-115399000D01*
X75601000Y-115399000D02*
X89911901Y-115399000D01*
X103000000Y-105040001D02*
X104160001Y-103880000D01*
X89911901Y-115399000D02*
X90953901Y-116441000D01*
X102074950Y-115506498D02*
X103000000Y-114581448D01*
X90953901Y-116441000D02*
X100228348Y-116441000D01*
X100228348Y-116441000D02*
X101162850Y-115506498D01*
X101162850Y-115506498D02*
X102074950Y-115506498D01*
X103000000Y-114581448D02*
X103000000Y-105040001D01*
X74500000Y-116500000D02*
X70475051Y-116500000D01*
X67221001Y-111043950D02*
X66576051Y-110399000D01*
X70475051Y-116500000D02*
X67221001Y-113245950D01*
X67221001Y-113245950D02*
X67221001Y-111043950D01*
X62141001Y-110399000D02*
X61040001Y-111500000D01*
X66576051Y-110399000D02*
X62141001Y-110399000D01*
%TO.N,-12V*%
X101618620Y-103878619D02*
X101620001Y-103880000D01*
X58500001Y-102442950D02*
X69811951Y-91131000D01*
X93583951Y-88928043D02*
X97439001Y-88928043D01*
X97439001Y-88928043D02*
X98540001Y-90029043D01*
X58500001Y-103880000D02*
X58500001Y-102442950D01*
X91380994Y-91131000D02*
X93583951Y-88928043D01*
X69811951Y-91131000D02*
X91380994Y-91131000D01*
X101618620Y-101063201D02*
X101618620Y-103878619D01*
%TO.N,GND*%
X76500000Y-65500000D02*
X77000001Y-64999999D01*
X54411001Y-126451000D02*
X61209001Y-126451000D01*
X110341001Y-111956050D02*
X107891553Y-114405498D01*
X78860001Y-68360001D02*
X76500000Y-66000000D01*
X91655001Y-51435000D02*
X85590001Y-57500000D01*
X53310001Y-90030000D02*
X54411001Y-88929000D01*
X61209001Y-126451000D02*
X62310001Y-125350000D01*
X107980252Y-101063201D02*
X110341001Y-103423950D01*
X106618620Y-101063201D02*
X107980252Y-101063201D01*
X66810001Y-89977277D02*
X67930827Y-88856451D01*
X110341001Y-103423950D02*
X110341001Y-111956050D01*
X55760001Y-68185000D02*
X53575001Y-66000000D01*
X76500000Y-66000000D02*
X76500000Y-65500000D01*
X55760001Y-82000000D02*
X55760001Y-68185000D01*
X75746086Y-57566085D02*
X77000001Y-57566085D01*
X53310001Y-125350000D02*
X54411001Y-126451000D01*
X67930827Y-88856451D02*
X74636452Y-88856451D01*
X65761724Y-88929000D02*
X66810001Y-89977277D01*
X77066086Y-57500000D02*
X77000001Y-57566085D01*
X74636452Y-88856451D02*
X75810001Y-90030000D01*
X78860001Y-82000000D02*
X78860001Y-68360001D01*
X77000001Y-64999999D02*
X77000001Y-57566085D01*
X69615001Y-51435000D02*
X75746086Y-57566085D01*
X77066086Y-57500000D02*
X85590001Y-57500000D01*
X54411001Y-88929000D02*
X65761724Y-88929000D01*
X107891553Y-114405498D02*
X106618900Y-114405498D01*
%TO.N,12V*%
X60002001Y-109998000D02*
X58500001Y-111500000D01*
X101620001Y-111500000D02*
X101620001Y-111620001D01*
X101618900Y-111621102D02*
X101618900Y-114405498D01*
X101620001Y-111620001D02*
X101618900Y-111621102D01*
X101620001Y-111500000D02*
X100118001Y-109998000D01*
X100118001Y-109998000D02*
X60002001Y-109998000D01*
%TO.N,Net-(U2B-+)*%
X64561001Y-107401000D02*
X99994051Y-107401000D01*
X103059001Y-104336050D02*
X103059001Y-103423950D01*
X99994051Y-107401000D02*
X103059001Y-104336050D01*
X103059001Y-103423950D02*
X103703951Y-102779000D01*
X105261001Y-103423950D02*
X105261001Y-110399000D01*
X105261001Y-110399000D02*
X104160001Y-111500000D01*
X61040001Y-103880000D02*
X64561001Y-107401000D01*
X104616051Y-102779000D02*
X105261001Y-103423950D01*
X103703951Y-102779000D02*
X104616051Y-102779000D01*
%TO.N,Net-(D1-A)*%
X93620001Y-111880000D02*
X94000001Y-111500000D01*
X89500001Y-111880000D02*
X93620001Y-111880000D01*
%TO.N,Net-(J5-Pin_1)*%
X86580000Y-79360001D02*
X86580000Y-66000000D01*
X83940001Y-82000000D02*
X86580000Y-79360001D01*
%TO.N,Net-(U2C--)*%
X106700001Y-103880000D02*
X109240001Y-103880000D01*
%TO.N,Net-(Q1-C)*%
X96540001Y-102189043D02*
X98540001Y-100189043D01*
X100850958Y-100189043D02*
X103040001Y-98000000D01*
X93420001Y-107000000D02*
X96540001Y-103880000D01*
X98540001Y-100189043D02*
X100850958Y-100189043D01*
X80230001Y-105650000D02*
X81580001Y-107000000D01*
X96540001Y-103880000D02*
X96540001Y-102189043D01*
X81580001Y-107000000D02*
X93420001Y-107000000D01*
%TO.N,Net-(C5-Pad1)*%
X95850958Y-100189043D02*
X103040001Y-93000000D01*
X94000001Y-103880000D02*
X94000001Y-100229043D01*
X94040001Y-100189043D02*
X95850958Y-100189043D01*
X94000001Y-100229043D02*
X94040001Y-100189043D01*
%TO.N,Net-(D1-K)*%
X98540001Y-115109043D02*
X96540001Y-113109043D01*
X96540001Y-112689043D02*
X94040001Y-115189043D01*
X86960001Y-111880000D02*
X90269044Y-115189043D01*
X96540001Y-111500000D02*
X96540001Y-112689043D01*
X96540001Y-113109043D02*
X96540001Y-112689043D01*
X90269044Y-115189043D02*
X94040001Y-115189043D01*
%TO.N,5V*%
X92806001Y-50046000D02*
X94195001Y-51435000D01*
X73544001Y-50046000D02*
X92806001Y-50046000D01*
X72155001Y-51435000D02*
X73544001Y-50046000D01*
%TO.N,Net-(J3-Pin_2)*%
X58655001Y-66000000D02*
X58655001Y-81645000D01*
X58655001Y-81645000D02*
X58300001Y-82000000D01*
%TO.N,Net-(J3-Pin_3)*%
X63661789Y-137825938D02*
X77199001Y-137825938D01*
X51808001Y-89974950D02*
X51808001Y-125972150D01*
X60840001Y-68815000D02*
X63655001Y-66000000D01*
X57122951Y-84660000D02*
X51808001Y-89974950D01*
X60840001Y-82000000D02*
X58180001Y-84660000D01*
X58180001Y-84660000D02*
X57122951Y-84660000D01*
X60840001Y-82000000D02*
X60840001Y-68815000D01*
X51808001Y-125972150D02*
X63661789Y-137825938D01*
X77199001Y-137825938D02*
X81500001Y-133524938D01*
%TO.N,Net-(J6-Pin_2)*%
X81400001Y-82000000D02*
X81400001Y-66179999D01*
X81400001Y-66179999D02*
X81580000Y-66000000D01*
%TO.N,Net-(J7-Pin_1)*%
X59927889Y-133524938D02*
X66300001Y-133524938D01*
X57810001Y-90030000D02*
X52209001Y-95631000D01*
X52209001Y-125806050D02*
X59927889Y-133524938D01*
X52209001Y-95631000D02*
X52209001Y-125806050D01*
%TO.N,Net-(J9-Pin_2)*%
X104500001Y-66155000D02*
X104655001Y-66000000D01*
X104500001Y-82000000D02*
X104500001Y-66155000D01*
X81812958Y-88527043D02*
X80310001Y-90030000D01*
X104500001Y-82000000D02*
X97972958Y-88527043D01*
X97972958Y-88527043D02*
X81812958Y-88527043D01*
%TO.N,Net-(Q1-B)*%
X80310001Y-103190000D02*
X81500001Y-104380000D01*
X75810001Y-100190000D02*
X75810001Y-103690000D01*
X80310001Y-100190000D02*
X80310001Y-103190000D01*
X75810001Y-100190000D02*
X80310001Y-100190000D01*
%TO.N,Net-(Q1-E)*%
X82770001Y-105650000D02*
X82770001Y-101299043D01*
X82770001Y-101299043D02*
X94040001Y-90029043D01*
%TO.N,Net-(U1C--)*%
X63580001Y-101460000D02*
X62310001Y-100190000D01*
X53310001Y-100190000D02*
X57810001Y-100190000D01*
X63580001Y-103880000D02*
X63580001Y-101460000D01*
%TO.N,Net-(U2B--)*%
X106700001Y-111500000D02*
X109240001Y-111500000D01*
%TO.N,Net-(U1C-+)*%
X66120001Y-100827277D02*
X66810001Y-100137277D01*
X66120001Y-103880000D02*
X66120001Y-100827277D01*
%TO.N,Net-(R7-Pad2)*%
X71200001Y-103880000D02*
X71200001Y-100134686D01*
X71200001Y-100134686D02*
X71182766Y-100117451D01*
%TO.N,Net-(U1A-+)*%
X66120001Y-114420000D02*
X66810001Y-115110000D01*
X66120001Y-111500000D02*
X66120001Y-114420000D01*
X66810001Y-115110000D02*
X62390001Y-115110000D01*
X62390001Y-115110000D02*
X62310001Y-115190000D01*
%TO.N,Net-(U1A--)*%
X53310001Y-115190000D02*
X57810001Y-115190000D01*
X59890001Y-115190000D02*
X63580001Y-111500000D01*
X57810001Y-115190000D02*
X59890001Y-115190000D01*
%TO.N,Net-(R12-Pad2)*%
X71200001Y-115000000D02*
X71310001Y-115110000D01*
X71200001Y-111500000D02*
X71200001Y-115000000D01*
%TD*%
M02*
