%TF.GenerationSoftware,KiCad,Pcbnew,9.0.6*%
%TF.CreationDate,2025-12-28T20:27:14+11:00*%
%TF.ProjectId,low-pass-filter,6c6f772d-7061-4737-932d-66696c746572,rev?*%
%TF.SameCoordinates,Original*%
%TF.FileFunction,Legend,Bot*%
%TF.FilePolarity,Positive*%
%FSLAX46Y46*%
G04 Gerber Fmt 4.6, Leading zero omitted, Abs format (unit mm)*
G04 Created by KiCad (PCBNEW 9.0.6) date 2025-12-28 20:27:14*
%MOMM*%
%LPD*%
G01*
G04 APERTURE LIST*
%ADD10C,0.100000*%
G04 APERTURE END LIST*
D10*
X109833333Y-135933609D02*
X110166666Y-135933609D01*
X110166666Y-136457419D02*
X110166666Y-135457419D01*
X110166666Y-135457419D02*
X109690476Y-135457419D01*
X109404761Y-135457419D02*
X108785714Y-135457419D01*
X108785714Y-135457419D02*
X109119047Y-135838371D01*
X109119047Y-135838371D02*
X108976190Y-135838371D01*
X108976190Y-135838371D02*
X108880952Y-135885990D01*
X108880952Y-135885990D02*
X108833333Y-135933609D01*
X108833333Y-135933609D02*
X108785714Y-136028847D01*
X108785714Y-136028847D02*
X108785714Y-136266942D01*
X108785714Y-136266942D02*
X108833333Y-136362180D01*
X108833333Y-136362180D02*
X108880952Y-136409800D01*
X108880952Y-136409800D02*
X108976190Y-136457419D01*
X108976190Y-136457419D02*
X109261904Y-136457419D01*
X109261904Y-136457419D02*
X109357142Y-136409800D01*
X109357142Y-136409800D02*
X109404761Y-136362180D01*
X53634036Y-135933609D02*
X53967369Y-135933609D01*
X53967369Y-136457419D02*
X53967369Y-135457419D01*
X53967369Y-135457419D02*
X53491179Y-135457419D01*
X52681655Y-135790752D02*
X52681655Y-136457419D01*
X52919750Y-135409800D02*
X53157845Y-136124085D01*
X53157845Y-136124085D02*
X52538798Y-136124085D01*
X53634036Y-50933609D02*
X53967369Y-50933609D01*
X53967369Y-51457419D02*
X53967369Y-50457419D01*
X53967369Y-50457419D02*
X53491179Y-50457419D01*
X53157845Y-50552657D02*
X53110226Y-50505038D01*
X53110226Y-50505038D02*
X53014988Y-50457419D01*
X53014988Y-50457419D02*
X52776893Y-50457419D01*
X52776893Y-50457419D02*
X52681655Y-50505038D01*
X52681655Y-50505038D02*
X52634036Y-50552657D01*
X52634036Y-50552657D02*
X52586417Y-50647895D01*
X52586417Y-50647895D02*
X52586417Y-50743133D01*
X52586417Y-50743133D02*
X52634036Y-50885990D01*
X52634036Y-50885990D02*
X53205464Y-51457419D01*
X53205464Y-51457419D02*
X52586417Y-51457419D01*
X109833333Y-50933609D02*
X110166666Y-50933609D01*
X110166666Y-51457419D02*
X110166666Y-50457419D01*
X110166666Y-50457419D02*
X109690476Y-50457419D01*
X108785714Y-51457419D02*
X109357142Y-51457419D01*
X109071428Y-51457419D02*
X109071428Y-50457419D01*
X109071428Y-50457419D02*
X109166666Y-50600276D01*
X109166666Y-50600276D02*
X109261904Y-50695514D01*
X109261904Y-50695514D02*
X109357142Y-50743133D01*
%TO.C,F3*%
X116000000Y-130000000D02*
X103000000Y-130000000D01*
X103000000Y-143500000D01*
X116000000Y-143500000D01*
X116000000Y-130000000D01*
%TO.C,F4*%
X59800703Y-130000000D02*
X46800703Y-130000000D01*
X46800703Y-143500000D01*
X59800703Y-143500000D01*
X59800703Y-130000000D01*
%TO.C,F2*%
X59800703Y-45000000D02*
X46800703Y-45000000D01*
X46800703Y-58500000D01*
X59800703Y-58500000D01*
X59800703Y-45000000D01*
%TO.C,F1*%
X116000000Y-45000000D02*
X103000000Y-45000000D01*
X103000000Y-58500000D01*
X116000000Y-58500000D01*
X116000000Y-45000000D01*
%TD*%
M02*
