%TF.GenerationSoftware,KiCad,Pcbnew,9.0.5*%
%TF.CreationDate,2025-12-04T15:14:27+11:00*%
%TF.ProjectId,power-supply,706f7765-722d-4737-9570-706c792e6b69,rev?*%
%TF.SameCoordinates,Original*%
%TF.FileFunction,Legend,Bot*%
%TF.FilePolarity,Positive*%
%FSLAX46Y46*%
G04 Gerber Fmt 4.6, Leading zero omitted, Abs format (unit mm)*
G04 Created by KiCad (PCBNEW 9.0.5) date 2025-12-04 15:14:27*
%MOMM*%
%LPD*%
G01*
G04 APERTURE LIST*
%ADD10C,0.150000*%
%ADD11C,0.120000*%
G04 APERTURE END LIST*
D10*
X104554819Y-160436666D02*
X105269104Y-160436666D01*
X105269104Y-160436666D02*
X105411961Y-160389047D01*
X105411961Y-160389047D02*
X105507200Y-160293809D01*
X105507200Y-160293809D02*
X105554819Y-160150952D01*
X105554819Y-160150952D02*
X105554819Y-160055714D01*
X104650057Y-160865238D02*
X104602438Y-160912857D01*
X104602438Y-160912857D02*
X104554819Y-161008095D01*
X104554819Y-161008095D02*
X104554819Y-161246190D01*
X104554819Y-161246190D02*
X104602438Y-161341428D01*
X104602438Y-161341428D02*
X104650057Y-161389047D01*
X104650057Y-161389047D02*
X104745295Y-161436666D01*
X104745295Y-161436666D02*
X104840533Y-161436666D01*
X104840533Y-161436666D02*
X104983390Y-161389047D01*
X104983390Y-161389047D02*
X105554819Y-160817619D01*
X105554819Y-160817619D02*
X105554819Y-161436666D01*
X104554819Y-148451666D02*
X105269104Y-148451666D01*
X105269104Y-148451666D02*
X105411961Y-148404047D01*
X105411961Y-148404047D02*
X105507200Y-148308809D01*
X105507200Y-148308809D02*
X105554819Y-148165952D01*
X105554819Y-148165952D02*
X105554819Y-148070714D01*
X104554819Y-148832619D02*
X104554819Y-149451666D01*
X104554819Y-149451666D02*
X104935771Y-149118333D01*
X104935771Y-149118333D02*
X104935771Y-149261190D01*
X104935771Y-149261190D02*
X104983390Y-149356428D01*
X104983390Y-149356428D02*
X105031009Y-149404047D01*
X105031009Y-149404047D02*
X105126247Y-149451666D01*
X105126247Y-149451666D02*
X105364342Y-149451666D01*
X105364342Y-149451666D02*
X105459580Y-149404047D01*
X105459580Y-149404047D02*
X105507200Y-149356428D01*
X105507200Y-149356428D02*
X105554819Y-149261190D01*
X105554819Y-149261190D02*
X105554819Y-148975476D01*
X105554819Y-148975476D02*
X105507200Y-148880238D01*
X105507200Y-148880238D02*
X105459580Y-148832619D01*
D11*
%TO.C,J2*%
X88710000Y-156210000D02*
X88710000Y-165330000D01*
X88710000Y-165330000D02*
X104210000Y-165330000D01*
X90010000Y-157520000D02*
X90010000Y-164020000D01*
X90010000Y-164020000D02*
X94410000Y-164020000D01*
X94410000Y-164020000D02*
X94410000Y-165330000D01*
X98500000Y-166720000D02*
X99000000Y-165720000D01*
X98510000Y-164020000D02*
X102910000Y-164020000D01*
X98510000Y-165330000D02*
X98510000Y-164020000D01*
X99000000Y-165720000D02*
X99500000Y-166720000D01*
X99500000Y-166720000D02*
X98500000Y-166720000D01*
X102910000Y-157520000D02*
X90010000Y-157520000D01*
X102910000Y-164020000D02*
X102910000Y-157520000D01*
X104210000Y-156210000D02*
X88710000Y-156210000D01*
X104210000Y-165330000D02*
X104210000Y-156210000D01*
%TO.C,J3*%
X88710000Y-144225000D02*
X88710000Y-153345000D01*
X88710000Y-153345000D02*
X104210000Y-153345000D01*
X90010000Y-145535000D02*
X90010000Y-152035000D01*
X90010000Y-152035000D02*
X94410000Y-152035000D01*
X94410000Y-152035000D02*
X94410000Y-153345000D01*
X98500000Y-154735000D02*
X99000000Y-153735000D01*
X98510000Y-152035000D02*
X102910000Y-152035000D01*
X98510000Y-153345000D02*
X98510000Y-152035000D01*
X99000000Y-153735000D02*
X99500000Y-154735000D01*
X99500000Y-154735000D02*
X98500000Y-154735000D01*
X102910000Y-145535000D02*
X90010000Y-145535000D01*
X102910000Y-152035000D02*
X102910000Y-145535000D01*
X104210000Y-144225000D02*
X88710000Y-144225000D01*
X104210000Y-153345000D02*
X104210000Y-144225000D01*
%TD*%
M02*
