M48
; DRILL file {KiCad 9.0.6} date 2026-01-21T23:22:00+1100
; FORMAT={-:-/ absolute / metric / decimal}
; #@! TF.CreationDate,2026-01-21T23:22:00+11:00
; #@! TF.GenerationSoftware,Kicad,Pcbnew,9.0.6
; #@! TF.FileFunction,Plated,1,2,PTH
FMAT,2
METRIC
; #@! TA.AperFunction,Plated,PTH,ComponentDrill
T1C0.800
; #@! TA.AperFunction,Plated,PTH,ComponentDrill
T2C0.900
; #@! TA.AperFunction,Plated,PTH,ComponentDrill
T3C1.000
; #@! TA.AperFunction,Plated,PTH,ComponentDrill
T4C1.100
; #@! TA.AperFunction,Plated,PTH,ComponentDrill
T5C1.200
; #@! TA.AperFunction,Plated,PTH,ComponentDrill
T6C2.600
%
G90
G05
T1
X89.231Y-106.345
X89.338Y-74.864
X91.731Y-106.345
X91.838Y-74.864
X95.0Y-74.883
X95.0Y-106.351
X97.5Y-74.883
X97.5Y-106.351
X109.225Y-42.607
X109.225Y-49.336
X110.0Y-139.37
X110.0Y-149.53
X111.725Y-42.607
X111.725Y-49.336
X115.0Y-139.45
X115.0Y-149.61
T2
X86.0Y-117.5
X86.0Y-125.12
X86.0Y-137.69
X86.0Y-145.31
X119.96Y-141.0
X122.38Y-75.0
X122.38Y-106.5
X122.5Y-141.0
X127.46Y-141.0
X130.0Y-75.0
X130.0Y-106.5
X130.0Y-141.0
T3
X93.943Y-152.92
X93.943Y-155.46
X93.943Y-165.92
X93.943Y-168.46
X94.0Y-139.96
X94.0Y-142.5
X96.483Y-152.92
X96.483Y-155.46
X96.483Y-165.92
X96.483Y-168.46
X96.54Y-139.96
X96.54Y-142.5
X99.023Y-152.92
X99.023Y-155.46
X99.023Y-165.92
X99.023Y-168.46
X99.08Y-139.96
X99.08Y-142.5
T4
X106.655Y-86.831
X106.66Y-55.0
X106.715Y-118.322
X109.195Y-86.831
X109.2Y-55.0
X109.255Y-118.322
X111.735Y-86.831
X111.74Y-55.0
X111.795Y-118.322
T5
X71.5Y-52.95
X71.5Y-72.5
X71.5Y-92.05
X71.522Y-111.95
X71.522Y-131.5
X71.522Y-151.05
X79.0Y-52.95
X79.0Y-72.5
X79.0Y-92.05
X79.022Y-111.95
X79.022Y-131.5
X79.022Y-151.05
T6
X96.5Y-59.0
X96.5Y-91.0
X96.591Y-122.484
X104.178Y-93.212
X104.206Y-61.203
X104.3Y-124.7
X114.178Y-93.212
X114.206Y-61.203
X114.3Y-124.7
X121.9Y-59.0
X121.9Y-91.0
X121.991Y-122.484
T3
G00X111.05Y-162.15
M15
G01X111.05Y-159.95
M16
G05
G00X117.15Y-158.15
M15
G01X114.55Y-158.15
M16
G05
G00X116.95Y-164.45
M15
G01X114.75Y-164.45
M16
G05
G00X129.375Y-147.5
M15
G01X127.625Y-147.5
M16
G05
G00X129.375Y-152.0
M15
G01X127.625Y-152.0
M16
G05
G00X129.375Y-156.5
M15
G01X127.625Y-156.5
M16
G05
M30
