M48
; DRILL file {KiCad 9.0.5} date 2025-12-04T15:14:36+1100
; FORMAT={-:-/ absolute / metric / decimal}
; #@! TF.CreationDate,2025-12-04T15:14:36+11:00
; #@! TF.GenerationSoftware,Kicad,Pcbnew,9.0.5
; #@! TF.FileFunction,Plated,1,2,PTH
FMAT,2
METRIC
; #@! TA.AperFunction,Plated,PTH,ComponentDrill
T1C0.800
; #@! TA.AperFunction,Plated,PTH,ComponentDrill
T2C0.900
; #@! TA.AperFunction,Plated,PTH,ComponentDrill
T3C1.000
; #@! TA.AperFunction,Plated,PTH,ComponentDrill
T4C1.100
; #@! TA.AperFunction,Plated,PTH,ComponentDrill
T5C1.200
; #@! TA.AperFunction,Plated,PTH,ComponentDrill
T6C2.600
%
G90
G05
T1
X108.498Y-47.758
X108.498Y-52.758
X108.602Y-96.192
X108.602Y-101.192
X110.0Y-139.37
X110.0Y-149.53
X110.209Y-131.821
X110.209Y-136.821
X113.498Y-47.758
X113.498Y-52.758
X113.602Y-96.192
X113.602Y-101.192
X114.453Y-131.813
X114.453Y-136.813
X115.0Y-139.45
X115.0Y-149.61
T2
X85.88Y-139.5
X93.5Y-139.5
X97.88Y-139.5
X105.5Y-139.5
X107.188Y-42.758
X107.292Y-106.192
X114.808Y-42.758
X114.912Y-106.192
X119.96Y-140.95
X122.5Y-140.95
X127.46Y-140.95
X130.0Y-140.95
T3
X93.92Y-147.515
X93.92Y-150.055
X93.92Y-159.5
X93.92Y-162.04
X96.46Y-147.515
X96.46Y-150.055
X96.46Y-159.5
X96.46Y-162.04
X99.0Y-147.515
X99.0Y-150.055
X99.0Y-159.5
X99.0Y-162.04
T4
X108.224Y-57.288
X108.36Y-127.5
X108.367Y-91.86
X110.764Y-57.288
X110.9Y-127.5
X110.907Y-91.86
X113.304Y-57.288
X113.44Y-127.5
X113.447Y-91.86
T5
X71.5Y-52.95
X71.5Y-72.5
X71.5Y-92.05
X71.522Y-111.95
X71.522Y-131.5
X71.522Y-151.05
X79.0Y-52.95
X79.0Y-72.5
X79.0Y-92.05
X79.022Y-111.95
X79.022Y-131.5
X79.022Y-151.05
T6
X98.1Y-61.45
X98.2Y-123.5
X98.202Y-87.692
X123.5Y-61.45
X123.6Y-123.5
X123.602Y-87.692
T3
G00X114.55Y-153.6
M15
G01X117.15Y-153.6
M16
G05
G00X114.75Y-159.9
M15
G01X116.95Y-159.9
M16
G05
G00X120.65Y-155.4
M15
G01X120.65Y-157.6
M16
G05
G00X127.625Y-147.45
M15
G01X129.375Y-147.45
M16
G05
G00X127.625Y-151.95
M15
G01X129.375Y-151.95
M16
G05
G00X127.625Y-156.45
M15
G01X129.375Y-156.45
M16
G05
M30
