%TF.GenerationSoftware,KiCad,Pcbnew,9.0.6*%
%TF.CreationDate,2026-01-21T23:21:59+11:00*%
%TF.ProjectId,power-supply,706f7765-722d-4737-9570-706c792e6b69,rev?*%
%TF.SameCoordinates,Original*%
%TF.FileFunction,Copper,L2,Bot*%
%TF.FilePolarity,Positive*%
%FSLAX46Y46*%
G04 Gerber Fmt 4.6, Leading zero omitted, Abs format (unit mm)*
G04 Created by KiCad (PCBNEW 9.0.6) date 2026-01-21 23:21:59*
%MOMM*%
%LPD*%
G01*
G04 APERTURE LIST*
G04 Aperture macros list*
%AMRoundRect*
0 Rectangle with rounded corners*
0 $1 Rounding radius*
0 $2 $3 $4 $5 $6 $7 $8 $9 X,Y pos of 4 corners*
0 Add a 4 corners polygon primitive as box body*
4,1,4,$2,$3,$4,$5,$6,$7,$8,$9,$2,$3,0*
0 Add four circle primitives for the rounded corners*
1,1,$1+$1,$2,$3*
1,1,$1+$1,$4,$5*
1,1,$1+$1,$6,$7*
1,1,$1+$1,$8,$9*
0 Add four rect primitives between the rounded corners*
20,1,$1+$1,$2,$3,$4,$5,0*
20,1,$1+$1,$4,$5,$6,$7,0*
20,1,$1+$1,$6,$7,$8,$9,0*
20,1,$1+$1,$8,$9,$2,$3,0*%
G04 Aperture macros list end*
%TA.AperFunction,ComponentPad*%
%ADD10C,6.000000*%
%TD*%
%TA.AperFunction,ComponentPad*%
%ADD11RoundRect,0.250000X0.550000X0.550000X-0.550000X0.550000X-0.550000X-0.550000X0.550000X-0.550000X0*%
%TD*%
%TA.AperFunction,ComponentPad*%
%ADD12C,1.600000*%
%TD*%
%TA.AperFunction,ComponentPad*%
%ADD13RoundRect,0.250001X-0.949999X-0.949999X0.949999X-0.949999X0.949999X0.949999X-0.949999X0.949999X0*%
%TD*%
%TA.AperFunction,ComponentPad*%
%ADD14C,2.400000*%
%TD*%
%TA.AperFunction,ComponentPad*%
%ADD15RoundRect,0.250000X0.650000X-0.650000X0.650000X0.650000X-0.650000X0.650000X-0.650000X-0.650000X0*%
%TD*%
%TA.AperFunction,ComponentPad*%
%ADD16C,1.800000*%
%TD*%
%TA.AperFunction,ComponentPad*%
%ADD17R,1.905000X2.000000*%
%TD*%
%TA.AperFunction,ComponentPad*%
%ADD18O,1.905000X2.000000*%
%TD*%
%TA.AperFunction,ComponentPad*%
%ADD19RoundRect,0.250001X0.949999X0.949999X-0.949999X0.949999X-0.949999X-0.949999X0.949999X-0.949999X0*%
%TD*%
%TA.AperFunction,ComponentPad*%
%ADD20C,5.000000*%
%TD*%
%TA.AperFunction,ComponentPad*%
%ADD21RoundRect,0.250000X-0.650000X-0.650000X0.650000X-0.650000X0.650000X0.650000X-0.650000X0.650000X0*%
%TD*%
%TA.AperFunction,ComponentPad*%
%ADD22R,1.800000X1.800000*%
%TD*%
%TA.AperFunction,ComponentPad*%
%ADD23RoundRect,0.250000X-0.600000X0.600000X-0.600000X-0.600000X0.600000X-0.600000X0.600000X0.600000X0*%
%TD*%
%TA.AperFunction,ComponentPad*%
%ADD24C,1.700000*%
%TD*%
%TA.AperFunction,ComponentPad*%
%ADD25R,4.600000X2.000000*%
%TD*%
%TA.AperFunction,ComponentPad*%
%ADD26O,4.200000X2.000000*%
%TD*%
%TA.AperFunction,ComponentPad*%
%ADD27O,2.000000X4.200000*%
%TD*%
%TA.AperFunction,ComponentPad*%
%ADD28O,3.750000X2.000000*%
%TD*%
%TA.AperFunction,Conductor*%
%ADD29C,0.200000*%
%TD*%
G04 APERTURE END LIST*
D10*
%TO.P,H3,1*%
%TO.N,N/C*%
X121900000Y-59000000D03*
X96500000Y-59000000D03*
%TD*%
D11*
%TO.P,C8,1*%
%TO.N,GND*%
X111724588Y-49335628D03*
D12*
%TO.P,C8,2*%
%TO.N,Net-(D2-A)*%
X109224588Y-49335628D03*
%TD*%
D11*
%TO.P,C9,1*%
%TO.N,Net-(D3-A)*%
X97500000Y-74883312D03*
D12*
%TO.P,C9,2*%
%TO.N,GND*%
X95000000Y-74883312D03*
%TD*%
D13*
%TO.P,C3,1*%
%TO.N,Net-(D1-K)*%
X71522220Y-151050000D03*
D14*
%TO.P,C3,2*%
%TO.N,GND*%
X79022220Y-151050000D03*
%TD*%
D15*
%TO.P,D1,1,K*%
%TO.N,Net-(D1-K)*%
X86000000Y-145310000D03*
D16*
%TO.P,D1,2,A*%
%TO.N,Net-(D1-A)*%
X86000000Y-137690000D03*
%TD*%
D11*
%TO.P,C12,1*%
%TO.N,Net-(D6-A)*%
X97500000Y-106351439D03*
D12*
%TO.P,C12,2*%
%TO.N,GND*%
X95000000Y-106351439D03*
%TD*%
%TO.P,R2,1*%
%TO.N,Net-(J2-Pin_2)*%
X115000000Y-139450000D03*
%TO.P,R2,2*%
%TO.N,Net-(D5-K)*%
X115000000Y-149610000D03*
%TD*%
D10*
%TO.P,H1,1*%
%TO.N,N/C*%
X121990958Y-122484117D03*
X96590958Y-122484117D03*
%TD*%
D13*
%TO.P,C2,1*%
%TO.N,Net-(D1-K)*%
X71522220Y-131500000D03*
D14*
%TO.P,C2,2*%
%TO.N,GND*%
X79022220Y-131500000D03*
%TD*%
D12*
%TO.P,R1,1*%
%TO.N,Net-(D4-A)*%
X110000000Y-149530000D03*
%TO.P,R1,2*%
%TO.N,Net-(D3-A)*%
X110000000Y-139370000D03*
%TD*%
D11*
%TO.P,C7,1*%
%TO.N,Net-(D1-K)*%
X91838108Y-74863864D03*
D12*
%TO.P,C7,2*%
%TO.N,GND*%
X89338108Y-74863864D03*
%TD*%
D17*
%TO.P,U2,1,GND*%
%TO.N,GND*%
X111740000Y-55000000D03*
D18*
%TO.P,U2,2,VI*%
%TO.N,Net-(D2-A)*%
X109200000Y-55000000D03*
%TO.P,U2,3,VO*%
%TO.N,Net-(J2-Pin_2)*%
X106660000Y-55000000D03*
%TD*%
D17*
%TO.P,U1,1,VI*%
%TO.N,Net-(D1-K)*%
X111735134Y-86831420D03*
D18*
%TO.P,U1,2,GND*%
%TO.N,GND*%
X109195134Y-86831420D03*
%TO.P,U1,3,VO*%
%TO.N,Net-(D3-A)*%
X106655134Y-86831420D03*
%TD*%
D11*
%TO.P,C11,1*%
%TO.N,Net-(D3-A)*%
X91731261Y-106345150D03*
D12*
%TO.P,C11,2*%
%TO.N,GND*%
X89231261Y-106345150D03*
%TD*%
D19*
%TO.P,C5,1*%
%TO.N,GND*%
X79000000Y-72500000D03*
D14*
%TO.P,C5,2*%
%TO.N,Net-(D2-A)*%
X71500000Y-72500000D03*
%TD*%
D11*
%TO.P,C10,1*%
%TO.N,GND*%
X111724588Y-42606633D03*
D12*
%TO.P,C10,2*%
%TO.N,Net-(J2-Pin_2)*%
X109224588Y-42606633D03*
%TD*%
D15*
%TO.P,D2,1,K*%
%TO.N,Net-(D1-A)*%
X86000000Y-125120000D03*
D16*
%TO.P,D2,2,A*%
%TO.N,Net-(D2-A)*%
X86000000Y-117500000D03*
%TD*%
D20*
%TO.P,H4,1*%
%TO.N,N/C*%
X104205773Y-61202633D03*
X114205773Y-61202633D03*
%TD*%
%TO.P,H4,1*%
%TO.N,N/C*%
X104300000Y-124700000D03*
X114300000Y-124700000D03*
%TD*%
%TO.P,H4,1*%
%TO.N,N/C*%
X104177767Y-93212400D03*
X114177767Y-93212400D03*
%TD*%
D19*
%TO.P,C4,1*%
%TO.N,GND*%
X79000000Y-92050000D03*
D14*
%TO.P,C4,2*%
%TO.N,Net-(D2-A)*%
X71500000Y-92050000D03*
%TD*%
D21*
%TO.P,D3,1,K*%
%TO.N,Net-(D1-K)*%
X122380000Y-75000000D03*
D16*
%TO.P,D3,2,A*%
%TO.N,Net-(D3-A)*%
X130000000Y-75000000D03*
%TD*%
D21*
%TO.P,D6,1,K*%
%TO.N,Net-(D3-A)*%
X122380000Y-106500000D03*
D16*
%TO.P,D6,2,A*%
%TO.N,Net-(D6-A)*%
X130000000Y-106500000D03*
%TD*%
D17*
%TO.P,U3,1,IN*%
%TO.N,Net-(D3-A)*%
X111795148Y-118322034D03*
D18*
%TO.P,U3,2,GND*%
%TO.N,GND*%
X109255148Y-118322034D03*
%TO.P,U3,3,OUT*%
%TO.N,Net-(D6-A)*%
X106715148Y-118322034D03*
%TD*%
D10*
%TO.P,H2,1*%
%TO.N,N/C*%
X121900000Y-91000000D03*
X96500000Y-91000000D03*
%TD*%
D19*
%TO.P,C6,1*%
%TO.N,GND*%
X79000000Y-52950000D03*
D14*
%TO.P,C6,2*%
%TO.N,Net-(D2-A)*%
X71500000Y-52950000D03*
%TD*%
D13*
%TO.P,C1,1*%
%TO.N,Net-(D1-K)*%
X71522220Y-111950000D03*
D14*
%TO.P,C1,2*%
%TO.N,GND*%
X79022220Y-111950000D03*
%TD*%
D22*
%TO.P,D5,1,K*%
%TO.N,Net-(D5-K)*%
X122500000Y-141000000D03*
D16*
%TO.P,D5,2,A*%
%TO.N,GND*%
X119960000Y-141000000D03*
%TD*%
D23*
%TO.P,J2,1,Pin_1*%
%TO.N,Net-(D3-A)*%
X93943356Y-165920000D03*
D24*
%TO.P,J2,2,Pin_2*%
%TO.N,Net-(J2-Pin_2)*%
X93943356Y-168460000D03*
%TO.P,J2,3,Pin_3*%
%TO.N,GND*%
X96483356Y-165920000D03*
%TO.P,J2,4,Pin_4*%
X96483356Y-168460000D03*
%TO.P,J2,5,Pin_5*%
%TO.N,Net-(D6-A)*%
X99023356Y-165920000D03*
%TO.P,J2,6,Pin_6*%
%TO.N,unconnected-(J2-Pin_6-Pad6)*%
X99023356Y-168460000D03*
%TD*%
D22*
%TO.P,D4,1,K*%
%TO.N,GND*%
X130000000Y-141000000D03*
D16*
%TO.P,D4,2,A*%
%TO.N,Net-(D4-A)*%
X127460000Y-141000000D03*
%TD*%
D25*
%TO.P,J1,1*%
%TO.N,Net-(SW1-B)*%
X115850000Y-158150000D03*
D26*
%TO.P,J1,2*%
%TO.N,GND*%
X115850000Y-164450000D03*
D27*
%TO.P,J1,3*%
%TO.N,N/C*%
X111050000Y-161050000D03*
%TD*%
D23*
%TO.P,J4,1,Pin_1*%
%TO.N,Net-(D3-A)*%
X94000000Y-139960000D03*
D24*
%TO.P,J4,2,Pin_2*%
%TO.N,Net-(J2-Pin_2)*%
X94000000Y-142500000D03*
%TO.P,J4,3,Pin_3*%
%TO.N,GND*%
X96540000Y-139960000D03*
%TO.P,J4,4,Pin_4*%
X96540000Y-142500000D03*
%TO.P,J4,5,Pin_5*%
%TO.N,Net-(D6-A)*%
X99080000Y-139960000D03*
%TO.P,J4,6,Pin_6*%
%TO.N,unconnected-(J4-Pin_6-Pad6)*%
X99080000Y-142500000D03*
%TD*%
D23*
%TO.P,J3,1,Pin_1*%
%TO.N,Net-(D3-A)*%
X93943356Y-152920000D03*
D24*
%TO.P,J3,2,Pin_2*%
%TO.N,Net-(J2-Pin_2)*%
X93943356Y-155460000D03*
%TO.P,J3,3,Pin_3*%
%TO.N,GND*%
X96483356Y-152920000D03*
%TO.P,J3,4,Pin_4*%
X96483356Y-155460000D03*
%TO.P,J3,5,Pin_5*%
%TO.N,Net-(D6-A)*%
X99023356Y-152920000D03*
%TO.P,J3,6,Pin_6*%
%TO.N,unconnected-(J3-Pin_6-Pad6)*%
X99023356Y-155460000D03*
%TD*%
D28*
%TO.P,SW1,1,A*%
%TO.N,Net-(D1-A)*%
X128500000Y-156500000D03*
%TO.P,SW1,2,B*%
%TO.N,Net-(SW1-B)*%
X128500000Y-152000000D03*
%TO.P,SW1,3,C*%
%TO.N,unconnected-(SW1-C-Pad3)*%
X128500000Y-147500000D03*
%TD*%
D29*
%TO.N,GND*%
X107954148Y-119623034D02*
X109255148Y-118322034D01*
X121161000Y-139799000D02*
X128799000Y-139799000D01*
X96483356Y-168460000D02*
X96483356Y-140016644D01*
X106195931Y-119623034D02*
X107954148Y-119623034D01*
X113249000Y-147711000D02*
X113249000Y-161849000D01*
X79022220Y-131500000D02*
X79022220Y-111950000D01*
X95000000Y-106351439D02*
X95000000Y-108427103D01*
X111740000Y-55000000D02*
X111740000Y-58143312D01*
X95000000Y-108427103D02*
X106195931Y-119623034D01*
X111724588Y-49335628D02*
X111724588Y-54984588D01*
X119960000Y-141000000D02*
X113249000Y-147711000D01*
X119960000Y-141000000D02*
X121161000Y-139799000D01*
X79022220Y-151050000D02*
X79022220Y-131500000D01*
X128799000Y-139799000D02*
X130000000Y-141000000D01*
X96483356Y-168460000D02*
X97634356Y-169611000D01*
X97634356Y-169611000D02*
X110689000Y-169611000D01*
X113249000Y-161849000D02*
X115850000Y-164450000D01*
X111724588Y-42606633D02*
X111724588Y-49335628D01*
X96483356Y-140016644D02*
X96540000Y-139960000D01*
X111740000Y-58143312D02*
X95000000Y-74883312D01*
X110689000Y-169611000D02*
X115850000Y-164450000D01*
X111724588Y-54984588D02*
X111740000Y-55000000D01*
%TO.N,Net-(D1-K)*%
X94504996Y-94301000D02*
X91838108Y-91634112D01*
X71522220Y-131500000D02*
X71522220Y-151050000D01*
X91838108Y-74863864D02*
X91838108Y-91634112D01*
X111735134Y-86831420D02*
X108933873Y-89632681D01*
X91838108Y-91634112D02*
X71522220Y-111950000D01*
X97867319Y-94301000D02*
X94504996Y-94301000D01*
X71522220Y-111950000D02*
X71522220Y-131500000D01*
X122380000Y-76186554D02*
X111735134Y-86831420D01*
X102535638Y-89632681D02*
X97867319Y-94301000D01*
X122380000Y-75000000D02*
X122380000Y-76186554D01*
X108933873Y-89632681D02*
X102535638Y-89632681D01*
%TO.N,Net-(D2-A)*%
X73001000Y-51449000D02*
X105649000Y-51449000D01*
X105649000Y-51449000D02*
X109200000Y-55000000D01*
X71500000Y-52950000D02*
X73001000Y-51449000D01*
%TO.N,Net-(D4-A)*%
X130800000Y-139398000D02*
X131201000Y-139799000D01*
X128661000Y-142201000D02*
X127460000Y-141000000D01*
X131201000Y-139799000D02*
X131201000Y-142201000D01*
X119000630Y-139398000D02*
X130800000Y-139398000D01*
X131201000Y-142201000D02*
X128661000Y-142201000D01*
X110000000Y-148398630D02*
X119000630Y-139398000D01*
X110000000Y-149530000D02*
X110000000Y-148398630D01*
%TO.N,Net-(D3-A)*%
X92792356Y-164769000D02*
X92792356Y-154071000D01*
X92825972Y-105250439D02*
X98723553Y-105250439D01*
X116101000Y-139906050D02*
X115456050Y-140551000D01*
X119687554Y-73799000D02*
X106655134Y-86831420D01*
X92849000Y-141111000D02*
X94000000Y-139960000D01*
X92849000Y-151825644D02*
X92849000Y-141111000D01*
X111500000Y-134392950D02*
X116101000Y-138993950D01*
X92792356Y-154071000D02*
X93943356Y-152920000D01*
X93943356Y-165920000D02*
X92792356Y-164769000D01*
X122380000Y-107737182D02*
X111795148Y-118322034D01*
X91731261Y-106345150D02*
X92825972Y-105250439D01*
X116101000Y-138993950D02*
X116101000Y-139906050D01*
X111181000Y-140551000D02*
X110000000Y-139370000D01*
X93943356Y-152920000D02*
X92849000Y-151825644D01*
X111795148Y-118322034D02*
X111500000Y-118617182D01*
X128799000Y-73799000D02*
X119687554Y-73799000D01*
X111500000Y-118617182D02*
X111500000Y-134392950D01*
X98723553Y-105250439D02*
X111795148Y-118322034D01*
X130000000Y-75000000D02*
X128799000Y-73799000D01*
X122380000Y-106500000D02*
X122380000Y-107737182D01*
X115456050Y-140551000D02*
X111181000Y-140551000D01*
%TO.N,Net-(D6-A)*%
X97691000Y-141349000D02*
X99080000Y-139960000D01*
X108016148Y-117021034D02*
X109774365Y-117021034D01*
X109774365Y-117021034D02*
X110508648Y-117755317D01*
X99023356Y-152920000D02*
X97691000Y-151587644D01*
X97500000Y-106351439D02*
X97500000Y-109106886D01*
X97872356Y-154071000D02*
X99023356Y-152920000D01*
X110508648Y-128531352D02*
X99080000Y-139960000D01*
X97691000Y-151587644D02*
X97691000Y-141349000D01*
X97500000Y-109106886D02*
X106715148Y-118322034D01*
X97872356Y-164769000D02*
X97872356Y-154071000D01*
X106715148Y-118322034D02*
X108016148Y-117021034D01*
X99023356Y-165920000D02*
X97872356Y-164769000D01*
X110508648Y-117755317D02*
X110508648Y-128531352D01*
%TO.N,Net-(SW1-B)*%
X122300000Y-158150000D02*
X128500000Y-151950000D01*
X115850000Y-158150000D02*
X122300000Y-158150000D01*
%TO.N,Net-(J2-Pin_2)*%
X95094356Y-143594356D02*
X95094356Y-154309000D01*
X93943356Y-155460000D02*
X95094356Y-156611000D01*
X95094356Y-167309000D02*
X93943356Y-168460000D01*
X94000000Y-142500000D02*
X95094356Y-143594356D01*
X95094356Y-156611000D02*
X95094356Y-167309000D01*
X95094356Y-154309000D02*
X93943356Y-155460000D01*
%TD*%
M02*
