%TF.GenerationSoftware,KiCad,Pcbnew,9.0.5*%
%TF.CreationDate,2025-12-26T02:51:14+11:00*%
%TF.ProjectId,power-supply,706f7765-722d-4737-9570-706c792e6b69,rev?*%
%TF.SameCoordinates,Original*%
%TF.FileFunction,Soldermask,Bot*%
%TF.FilePolarity,Negative*%
%FSLAX46Y46*%
G04 Gerber Fmt 4.6, Leading zero omitted, Abs format (unit mm)*
G04 Created by KiCad (PCBNEW 9.0.5) date 2025-12-26 02:51:14*
%MOMM*%
%LPD*%
G01*
G04 APERTURE LIST*
G04 Aperture macros list*
%AMRoundRect*
0 Rectangle with rounded corners*
0 $1 Rounding radius*
0 $2 $3 $4 $5 $6 $7 $8 $9 X,Y pos of 4 corners*
0 Add a 4 corners polygon primitive as box body*
4,1,4,$2,$3,$4,$5,$6,$7,$8,$9,$2,$3,0*
0 Add four circle primitives for the rounded corners*
1,1,$1+$1,$2,$3*
1,1,$1+$1,$4,$5*
1,1,$1+$1,$6,$7*
1,1,$1+$1,$8,$9*
0 Add four rect primitives between the rounded corners*
20,1,$1+$1,$2,$3,$4,$5,0*
20,1,$1+$1,$4,$5,$6,$7,0*
20,1,$1+$1,$6,$7,$8,$9,0*
20,1,$1+$1,$8,$9,$2,$3,0*%
G04 Aperture macros list end*
%ADD10C,3.200000*%
%ADD11C,6.000000*%
%ADD12RoundRect,0.250000X0.550000X0.550000X-0.550000X0.550000X-0.550000X-0.550000X0.550000X-0.550000X0*%
%ADD13C,1.600000*%
%ADD14RoundRect,0.250001X-0.949999X-0.949999X0.949999X-0.949999X0.949999X0.949999X-0.949999X0.949999X0*%
%ADD15C,2.400000*%
%ADD16RoundRect,0.250000X-0.650000X-0.650000X0.650000X-0.650000X0.650000X0.650000X-0.650000X0.650000X0*%
%ADD17C,1.800000*%
%ADD18R,1.905000X2.000000*%
%ADD19O,1.905000X2.000000*%
%ADD20RoundRect,0.250001X0.949999X0.949999X-0.949999X0.949999X-0.949999X-0.949999X0.949999X-0.949999X0*%
%ADD21R,1.800000X1.800000*%
%ADD22RoundRect,0.250000X0.600000X-0.600000X0.600000X0.600000X-0.600000X0.600000X-0.600000X-0.600000X0*%
%ADD23C,1.700000*%
%ADD24R,4.600000X2.000000*%
%ADD25O,4.200000X2.000000*%
%ADD26O,2.000000X4.200000*%
%ADD27O,3.750000X2.000000*%
G04 APERTURE END LIST*
D10*
%TO.C,REF\u002A\u002A*%
X67000000Y-163450000D03*
%TD*%
D11*
%TO.C,H3*%
X121900000Y-59000000D03*
X96500000Y-59000000D03*
%TD*%
D12*
%TO.C,C8*%
X111724588Y-49335628D03*
D13*
X109224588Y-49335628D03*
%TD*%
D12*
%TO.C,C9*%
X111692324Y-81277859D03*
D13*
X109192324Y-81277859D03*
%TD*%
D14*
%TO.C,C3*%
X71522220Y-151050000D03*
D15*
X79022220Y-151050000D03*
%TD*%
D16*
%TO.C,D1*%
X85880000Y-139500000D03*
D17*
X93500000Y-139500000D03*
%TD*%
D12*
%TO.C,C12*%
X111699493Y-112662729D03*
D13*
X109199493Y-112662729D03*
%TD*%
D10*
%TO.C,REF\u002A\u002A*%
X129000000Y-163450000D03*
%TD*%
D13*
%TO.C,R2*%
X115000000Y-139450000D03*
X115000000Y-149610000D03*
%TD*%
D11*
%TO.C,H1*%
X121990958Y-122484117D03*
X96590958Y-122484117D03*
%TD*%
D14*
%TO.C,C2*%
X71522220Y-131500000D03*
D15*
X79022220Y-131500000D03*
%TD*%
D13*
%TO.C,R1*%
X110000000Y-149530000D03*
X110000000Y-139370000D03*
%TD*%
D12*
%TO.C,C7*%
X111707017Y-74965991D03*
D13*
X109207017Y-74965991D03*
%TD*%
D18*
%TO.C,U2*%
X111740000Y-55000000D03*
D19*
X109200000Y-55000000D03*
X106660000Y-55000000D03*
%TD*%
D18*
%TO.C,U1*%
X111735134Y-86831420D03*
D19*
X109195134Y-86831420D03*
X106655134Y-86831420D03*
%TD*%
D12*
%TO.C,C11*%
X111739333Y-106504091D03*
D13*
X109239333Y-106504091D03*
%TD*%
D20*
%TO.C,C5*%
X79000000Y-72500000D03*
D15*
X71500000Y-72500000D03*
%TD*%
D12*
%TO.C,C10*%
X111724588Y-42606633D03*
D13*
X109224588Y-42606633D03*
%TD*%
D16*
%TO.C,D2*%
X97880000Y-139500000D03*
D17*
X105500000Y-139500000D03*
%TD*%
D10*
%TO.C,REF\u002A\u002A*%
X129000000Y-41450000D03*
%TD*%
D20*
%TO.C,C4*%
X79000000Y-92050000D03*
D15*
X71500000Y-92050000D03*
%TD*%
D16*
%TO.C,D3*%
X122380000Y-75000000D03*
D17*
X130000000Y-75000000D03*
%TD*%
D16*
%TO.C,D6*%
X122380000Y-106500000D03*
D17*
X130000000Y-106500000D03*
%TD*%
D18*
%TO.C,U3*%
X111795148Y-118322034D03*
D19*
X109255148Y-118322034D03*
X106715148Y-118322034D03*
%TD*%
D10*
%TO.C,REF\u002A\u002A*%
X67000000Y-41450000D03*
%TD*%
D11*
%TO.C,H2*%
X121900000Y-91000000D03*
X96500000Y-91000000D03*
%TD*%
D20*
%TO.C,C6*%
X79000000Y-52950000D03*
D15*
X71500000Y-52950000D03*
%TD*%
D14*
%TO.C,C1*%
X71522220Y-111950000D03*
D15*
X79022220Y-111950000D03*
%TD*%
D21*
%TO.C,D5*%
X122500000Y-141000000D03*
D17*
X119960000Y-141000000D03*
%TD*%
D22*
%TO.C,J2*%
X99000000Y-162040000D03*
D23*
X99000000Y-159500000D03*
X96460000Y-162040000D03*
X96460000Y-159500000D03*
X93920000Y-162040000D03*
X93920000Y-159500000D03*
%TD*%
D21*
%TO.C,D4*%
X130000000Y-141000000D03*
D17*
X127460000Y-141000000D03*
%TD*%
D24*
%TO.C,J1*%
X115850000Y-153600000D03*
D25*
X115850000Y-159900000D03*
D26*
X111050000Y-156500000D03*
%TD*%
D22*
%TO.C,J3*%
X99000000Y-150055000D03*
D23*
X99000000Y-147515000D03*
X96460000Y-150055000D03*
X96460000Y-147515000D03*
X93920000Y-150055000D03*
X93920000Y-147515000D03*
%TD*%
D27*
%TO.C,SW1*%
X128500000Y-156450000D03*
X128500000Y-151950000D03*
X128500000Y-147450000D03*
%TD*%
M02*
