%TF.GenerationSoftware,KiCad,Pcbnew,9.0.6*%
%TF.CreationDate,2026-01-17T12:44:20+11:00*%
%TF.ProjectId,power-supply,706f7765-722d-4737-9570-706c792e6b69,rev?*%
%TF.SameCoordinates,Original*%
%TF.FileFunction,Copper,L1,Top*%
%TF.FilePolarity,Positive*%
%FSLAX46Y46*%
G04 Gerber Fmt 4.6, Leading zero omitted, Abs format (unit mm)*
G04 Created by KiCad (PCBNEW 9.0.6) date 2026-01-17 12:44:20*
%MOMM*%
%LPD*%
G01*
G04 APERTURE LIST*
G04 Aperture macros list*
%AMRoundRect*
0 Rectangle with rounded corners*
0 $1 Rounding radius*
0 $2 $3 $4 $5 $6 $7 $8 $9 X,Y pos of 4 corners*
0 Add a 4 corners polygon primitive as box body*
4,1,4,$2,$3,$4,$5,$6,$7,$8,$9,$2,$3,0*
0 Add four circle primitives for the rounded corners*
1,1,$1+$1,$2,$3*
1,1,$1+$1,$4,$5*
1,1,$1+$1,$6,$7*
1,1,$1+$1,$8,$9*
0 Add four rect primitives between the rounded corners*
20,1,$1+$1,$2,$3,$4,$5,0*
20,1,$1+$1,$4,$5,$6,$7,0*
20,1,$1+$1,$6,$7,$8,$9,0*
20,1,$1+$1,$8,$9,$2,$3,0*%
G04 Aperture macros list end*
%TA.AperFunction,ComponentPad*%
%ADD10O,3.750000X2.000000*%
%TD*%
%TA.AperFunction,ComponentPad*%
%ADD11RoundRect,0.250000X-0.600000X0.600000X-0.600000X-0.600000X0.600000X-0.600000X0.600000X0.600000X0*%
%TD*%
%TA.AperFunction,ComponentPad*%
%ADD12C,1.700000*%
%TD*%
%TA.AperFunction,ComponentPad*%
%ADD13C,6.000000*%
%TD*%
%TA.AperFunction,ComponentPad*%
%ADD14RoundRect,0.250000X0.550000X0.550000X-0.550000X0.550000X-0.550000X-0.550000X0.550000X-0.550000X0*%
%TD*%
%TA.AperFunction,ComponentPad*%
%ADD15C,1.600000*%
%TD*%
%TA.AperFunction,ComponentPad*%
%ADD16RoundRect,0.250001X-0.949999X-0.949999X0.949999X-0.949999X0.949999X0.949999X-0.949999X0.949999X0*%
%TD*%
%TA.AperFunction,ComponentPad*%
%ADD17C,2.400000*%
%TD*%
%TA.AperFunction,ComponentPad*%
%ADD18RoundRect,0.250000X0.650000X-0.650000X0.650000X0.650000X-0.650000X0.650000X-0.650000X-0.650000X0*%
%TD*%
%TA.AperFunction,ComponentPad*%
%ADD19C,1.800000*%
%TD*%
%TA.AperFunction,ComponentPad*%
%ADD20R,1.905000X2.000000*%
%TD*%
%TA.AperFunction,ComponentPad*%
%ADD21O,1.905000X2.000000*%
%TD*%
%TA.AperFunction,ComponentPad*%
%ADD22RoundRect,0.250001X0.949999X0.949999X-0.949999X0.949999X-0.949999X-0.949999X0.949999X-0.949999X0*%
%TD*%
%TA.AperFunction,ComponentPad*%
%ADD23C,5.000000*%
%TD*%
%TA.AperFunction,ComponentPad*%
%ADD24RoundRect,0.250000X-0.650000X-0.650000X0.650000X-0.650000X0.650000X0.650000X-0.650000X0.650000X0*%
%TD*%
%TA.AperFunction,ComponentPad*%
%ADD25R,1.800000X1.800000*%
%TD*%
%TA.AperFunction,ComponentPad*%
%ADD26R,4.600000X2.000000*%
%TD*%
%TA.AperFunction,ComponentPad*%
%ADD27O,4.200000X2.000000*%
%TD*%
%TA.AperFunction,ComponentPad*%
%ADD28O,2.000000X4.200000*%
%TD*%
%TA.AperFunction,Conductor*%
%ADD29C,0.200000*%
%TD*%
G04 APERTURE END LIST*
D10*
%TO.P,SW1,1,A*%
%TO.N,Net-(D1-A)*%
X128500000Y-156500000D03*
%TO.P,SW1,2,B*%
%TO.N,Net-(SW1-B)*%
X128500000Y-152000000D03*
%TO.P,SW1,3,C*%
%TO.N,unconnected-(SW1-C-Pad3)*%
X128500000Y-147500000D03*
%TD*%
D11*
%TO.P,J4,1,Pin_1*%
%TO.N,Net-(D3-A)*%
X94000000Y-139960000D03*
D12*
%TO.P,J4,2,Pin_2*%
%TO.N,Net-(J2-Pin_2)*%
X94000000Y-142500000D03*
%TO.P,J4,3,Pin_3*%
%TO.N,GND*%
X96540000Y-139960000D03*
%TO.P,J4,4,Pin_4*%
X96540000Y-142500000D03*
%TO.P,J4,5,Pin_5*%
%TO.N,Net-(D6-A)*%
X99080000Y-139960000D03*
%TO.P,J4,6,Pin_6*%
%TO.N,unconnected-(J4-Pin_6-Pad6)*%
X99080000Y-142500000D03*
%TD*%
D11*
%TO.P,J2,1,Pin_1*%
%TO.N,Net-(D3-A)*%
X93943356Y-165920000D03*
D12*
%TO.P,J2,2,Pin_2*%
%TO.N,Net-(J2-Pin_2)*%
X93943356Y-168460000D03*
%TO.P,J2,3,Pin_3*%
%TO.N,GND*%
X96483356Y-165920000D03*
%TO.P,J2,4,Pin_4*%
X96483356Y-168460000D03*
%TO.P,J2,5,Pin_5*%
%TO.N,Net-(D6-A)*%
X99023356Y-165920000D03*
%TO.P,J2,6,Pin_6*%
%TO.N,unconnected-(J2-Pin_6-Pad6)*%
X99023356Y-168460000D03*
%TD*%
%TO.P,J3,6,Pin_6*%
%TO.N,unconnected-(J3-Pin_6-Pad6)*%
X99023356Y-155460000D03*
%TO.P,J3,5,Pin_5*%
%TO.N,Net-(D6-A)*%
X99023356Y-152920000D03*
%TO.P,J3,4,Pin_4*%
%TO.N,GND*%
X96483356Y-155460000D03*
%TO.P,J3,3,Pin_3*%
X96483356Y-152920000D03*
%TO.P,J3,2,Pin_2*%
%TO.N,Net-(J2-Pin_2)*%
X93943356Y-155460000D03*
D11*
%TO.P,J3,1,Pin_1*%
%TO.N,Net-(D3-A)*%
X93943356Y-152920000D03*
%TD*%
D13*
%TO.P,H3,1*%
%TO.N,N/C*%
X121900000Y-59000000D03*
X96500000Y-59000000D03*
%TD*%
D14*
%TO.P,C8,1*%
%TO.N,GND*%
X111724588Y-49335628D03*
D15*
%TO.P,C8,2*%
%TO.N,Net-(D2-A)*%
X109224588Y-49335628D03*
%TD*%
D14*
%TO.P,C9,1*%
%TO.N,Net-(D3-A)*%
X97500000Y-74883312D03*
D15*
%TO.P,C9,2*%
%TO.N,GND*%
X95000000Y-74883312D03*
%TD*%
D16*
%TO.P,C3,1*%
%TO.N,Net-(D1-K)*%
X71522220Y-151050000D03*
D17*
%TO.P,C3,2*%
%TO.N,GND*%
X79022220Y-151050000D03*
%TD*%
D18*
%TO.P,D1,1,K*%
%TO.N,Net-(D1-K)*%
X86000000Y-145310000D03*
D19*
%TO.P,D1,2,A*%
%TO.N,Net-(D1-A)*%
X86000000Y-137690000D03*
%TD*%
D14*
%TO.P,C12,1*%
%TO.N,Net-(D6-A)*%
X97500000Y-106351439D03*
D15*
%TO.P,C12,2*%
%TO.N,GND*%
X95000000Y-106351439D03*
%TD*%
%TO.P,R2,1*%
%TO.N,Net-(J2-Pin_2)*%
X115000000Y-139450000D03*
%TO.P,R2,2*%
%TO.N,Net-(D5-K)*%
X115000000Y-149610000D03*
%TD*%
D13*
%TO.P,H1,1*%
%TO.N,N/C*%
X121990958Y-122484117D03*
X96590958Y-122484117D03*
%TD*%
D16*
%TO.P,C2,1*%
%TO.N,Net-(D1-K)*%
X71522220Y-131500000D03*
D17*
%TO.P,C2,2*%
%TO.N,GND*%
X79022220Y-131500000D03*
%TD*%
D15*
%TO.P,R1,1*%
%TO.N,Net-(D4-A)*%
X110000000Y-149530000D03*
%TO.P,R1,2*%
%TO.N,Net-(D3-A)*%
X110000000Y-139370000D03*
%TD*%
D14*
%TO.P,C7,1*%
%TO.N,Net-(D1-K)*%
X91838108Y-74863864D03*
D15*
%TO.P,C7,2*%
%TO.N,GND*%
X89338108Y-74863864D03*
%TD*%
D20*
%TO.P,U2,1,GND*%
%TO.N,GND*%
X111740000Y-55000000D03*
D21*
%TO.P,U2,2,VI*%
%TO.N,Net-(D2-A)*%
X109200000Y-55000000D03*
%TO.P,U2,3,VO*%
%TO.N,Net-(J2-Pin_2)*%
X106660000Y-55000000D03*
%TD*%
D20*
%TO.P,U1,1,VI*%
%TO.N,Net-(D1-K)*%
X111735134Y-86831420D03*
D21*
%TO.P,U1,2,GND*%
%TO.N,GND*%
X109195134Y-86831420D03*
%TO.P,U1,3,VO*%
%TO.N,Net-(D3-A)*%
X106655134Y-86831420D03*
%TD*%
D14*
%TO.P,C11,1*%
%TO.N,Net-(D3-A)*%
X91731261Y-106345150D03*
D15*
%TO.P,C11,2*%
%TO.N,GND*%
X89231261Y-106345150D03*
%TD*%
D22*
%TO.P,C5,1*%
%TO.N,GND*%
X79000000Y-72500000D03*
D17*
%TO.P,C5,2*%
%TO.N,Net-(D2-A)*%
X71500000Y-72500000D03*
%TD*%
D14*
%TO.P,C10,1*%
%TO.N,GND*%
X111724588Y-42606633D03*
D15*
%TO.P,C10,2*%
%TO.N,Net-(J2-Pin_2)*%
X109224588Y-42606633D03*
%TD*%
D18*
%TO.P,D2,1,K*%
%TO.N,Net-(D1-A)*%
X86000000Y-125120000D03*
D19*
%TO.P,D2,2,A*%
%TO.N,Net-(D2-A)*%
X86000000Y-117500000D03*
%TD*%
D23*
%TO.P,H4,1*%
%TO.N,N/C*%
X104205773Y-61202633D03*
X114205773Y-61202633D03*
%TD*%
%TO.P,H4,1*%
%TO.N,N/C*%
X104300000Y-124700000D03*
X114300000Y-124700000D03*
%TD*%
%TO.P,H4,1*%
%TO.N,N/C*%
X104177767Y-93212400D03*
X114177767Y-93212400D03*
%TD*%
D22*
%TO.P,C4,1*%
%TO.N,GND*%
X79000000Y-92050000D03*
D17*
%TO.P,C4,2*%
%TO.N,Net-(D2-A)*%
X71500000Y-92050000D03*
%TD*%
D24*
%TO.P,D3,1,K*%
%TO.N,Net-(D1-K)*%
X122380000Y-75000000D03*
D19*
%TO.P,D3,2,A*%
%TO.N,Net-(D3-A)*%
X130000000Y-75000000D03*
%TD*%
D24*
%TO.P,D6,1,K*%
%TO.N,Net-(D3-A)*%
X122380000Y-106500000D03*
D19*
%TO.P,D6,2,A*%
%TO.N,Net-(D6-A)*%
X130000000Y-106500000D03*
%TD*%
D20*
%TO.P,U3,1,IN*%
%TO.N,Net-(D3-A)*%
X111795148Y-118322034D03*
D21*
%TO.P,U3,2,GND*%
%TO.N,GND*%
X109255148Y-118322034D03*
%TO.P,U3,3,OUT*%
%TO.N,Net-(D6-A)*%
X106715148Y-118322034D03*
%TD*%
D13*
%TO.P,H2,1*%
%TO.N,N/C*%
X121900000Y-91000000D03*
X96500000Y-91000000D03*
%TD*%
D22*
%TO.P,C6,1*%
%TO.N,GND*%
X79000000Y-52950000D03*
D17*
%TO.P,C6,2*%
%TO.N,Net-(D2-A)*%
X71500000Y-52950000D03*
%TD*%
D16*
%TO.P,C1,1*%
%TO.N,Net-(D1-K)*%
X71522220Y-111950000D03*
D17*
%TO.P,C1,2*%
%TO.N,GND*%
X79022220Y-111950000D03*
%TD*%
D25*
%TO.P,D5,1,K*%
%TO.N,Net-(D5-K)*%
X122500000Y-141000000D03*
D19*
%TO.P,D5,2,A*%
%TO.N,GND*%
X119960000Y-141000000D03*
%TD*%
D25*
%TO.P,D4,1,K*%
%TO.N,GND*%
X130000000Y-141000000D03*
D19*
%TO.P,D4,2,A*%
%TO.N,Net-(D4-A)*%
X127460000Y-141000000D03*
%TD*%
D26*
%TO.P,J1,1*%
%TO.N,Net-(SW1-B)*%
X115850000Y-158150000D03*
D27*
%TO.P,J1,2*%
%TO.N,GND*%
X115850000Y-164450000D03*
D28*
%TO.P,J1,3*%
%TO.N,N/C*%
X111050000Y-161050000D03*
%TD*%
D29*
%TO.N,Net-(J2-Pin_2)*%
X115000000Y-139450000D02*
X113101000Y-141349000D01*
X113101000Y-141349000D02*
X95151000Y-141349000D01*
X95151000Y-141349000D02*
X94000000Y-142500000D01*
%TO.N,Net-(D3-A)*%
X94000000Y-139960000D02*
X95389999Y-138570001D01*
X95389999Y-138570001D02*
X109200001Y-138570001D01*
X109200001Y-138570001D02*
X110000000Y-139370000D01*
%TO.N,Net-(D1-A)*%
X128500000Y-156450000D02*
X104760000Y-156450000D01*
X104760000Y-156450000D02*
X86000000Y-137690000D01*
%TO.N,GND*%
X96483356Y-152920000D02*
X94613356Y-151050000D01*
X94613356Y-151050000D02*
X79022220Y-151050000D01*
%TO.N,Net-(D2-A)*%
X86000000Y-117500000D02*
X82449485Y-117500000D01*
X82449485Y-117500000D02*
X71500000Y-106550515D01*
X71500000Y-106550515D02*
X71500000Y-92050000D01*
%TO.N,Net-(D1-A)*%
X86000000Y-137690000D02*
X86000000Y-125120000D01*
%TO.N,Net-(D1-K)*%
X71522220Y-151050000D02*
X77262220Y-145310000D01*
X77262220Y-145310000D02*
X86000000Y-145310000D01*
%TO.N,GND*%
X109255148Y-125126835D02*
X119960000Y-135831687D01*
X90474244Y-76000000D02*
X93883312Y-76000000D01*
X93905289Y-107446150D02*
X95000000Y-106351439D01*
X89338108Y-74863864D02*
X90474244Y-76000000D01*
X95000000Y-74883312D02*
X96101000Y-73782312D01*
X79022220Y-111950000D02*
X84627070Y-106345150D01*
X79000000Y-92050000D02*
X79000000Y-52950000D01*
X109255148Y-118322034D02*
X109255148Y-125126835D01*
X79000000Y-72500000D02*
X86974244Y-72500000D01*
X93883312Y-76000000D02*
X95000000Y-74883312D01*
X84627070Y-106345150D02*
X89231261Y-106345150D01*
X98285160Y-73782312D02*
X109195134Y-84692286D01*
X79000000Y-92050000D02*
X79000000Y-111927780D01*
X119960000Y-135831687D02*
X119960000Y-141000000D01*
X109195134Y-84692286D02*
X109195134Y-86831420D01*
X86974244Y-72500000D02*
X89338108Y-74863864D01*
X89231261Y-106345150D02*
X90332261Y-107446150D01*
X90332261Y-107446150D02*
X93905289Y-107446150D01*
X96101000Y-73782312D02*
X98285160Y-73782312D01*
X79000000Y-111927780D02*
X79022220Y-111950000D01*
%TO.N,Net-(D2-A)*%
X71500000Y-92050000D02*
X71500000Y-52950000D01*
X109224588Y-54975412D02*
X109200000Y-55000000D01*
X109224588Y-49335628D02*
X109224588Y-54975412D01*
%TO.N,Net-(D3-A)*%
X106655134Y-86831420D02*
X105502634Y-86831420D01*
X91731261Y-100602793D02*
X91731261Y-106345150D01*
X97500000Y-74883312D02*
X97500000Y-78828786D01*
X97500000Y-78828786D02*
X105502634Y-86831420D01*
X105502634Y-86831420D02*
X91731261Y-100602793D01*
%TO.N,Net-(D5-K)*%
X115000000Y-149610000D02*
X122500000Y-142110000D01*
X122500000Y-142110000D02*
X122500000Y-141000000D01*
%TO.N,Net-(D6-A)*%
X106715148Y-118322034D02*
X108016148Y-117021034D01*
X119478966Y-117021034D02*
X130000000Y-106500000D01*
X108016148Y-117021034D02*
X119478966Y-117021034D01*
%TO.N,Net-(J2-Pin_2)*%
X115000000Y-131438787D02*
X115000000Y-139450000D01*
X105461648Y-117755317D02*
X105461648Y-121900435D01*
X106660000Y-55000000D02*
X106660000Y-45171221D01*
X106660000Y-45171221D02*
X109224588Y-42606633D01*
X106660000Y-55000000D02*
X110448634Y-58788634D01*
X110448634Y-58788634D02*
X110448634Y-112768331D01*
X110448634Y-112768331D02*
X105461648Y-117755317D01*
X105461648Y-121900435D02*
X115000000Y-131438787D01*
%TD*%
M02*
