%TF.GenerationSoftware,KiCad,Pcbnew,9.0.5*%
%TF.CreationDate,2025-12-27T01:48:07+11:00*%
%TF.ProjectId,power-supply,706f7765-722d-4737-9570-706c792e6b69,rev?*%
%TF.SameCoordinates,Original*%
%TF.FileFunction,Legend,Top*%
%TF.FilePolarity,Positive*%
%FSLAX46Y46*%
G04 Gerber Fmt 4.6, Leading zero omitted, Abs format (unit mm)*
G04 Created by KiCad (PCBNEW 9.0.5) date 2025-12-27 01:48:07*
%MOMM*%
%LPD*%
G01*
G04 APERTURE LIST*
%ADD10C,0.100000*%
%ADD11C,0.150000*%
%ADD12C,0.120000*%
G04 APERTURE END LIST*
D10*
X89803884Y-165872419D02*
X89803884Y-164872419D01*
X89803884Y-164872419D02*
X90184836Y-164872419D01*
X90184836Y-164872419D02*
X90280074Y-164920038D01*
X90280074Y-164920038D02*
X90327693Y-164967657D01*
X90327693Y-164967657D02*
X90375312Y-165062895D01*
X90375312Y-165062895D02*
X90375312Y-165205752D01*
X90375312Y-165205752D02*
X90327693Y-165300990D01*
X90327693Y-165300990D02*
X90280074Y-165348609D01*
X90280074Y-165348609D02*
X90184836Y-165396228D01*
X90184836Y-165396228D02*
X89803884Y-165396228D01*
X90994360Y-164872419D02*
X91184836Y-164872419D01*
X91184836Y-164872419D02*
X91280074Y-164920038D01*
X91280074Y-164920038D02*
X91375312Y-165015276D01*
X91375312Y-165015276D02*
X91422931Y-165205752D01*
X91422931Y-165205752D02*
X91422931Y-165539085D01*
X91422931Y-165539085D02*
X91375312Y-165729561D01*
X91375312Y-165729561D02*
X91280074Y-165824800D01*
X91280074Y-165824800D02*
X91184836Y-165872419D01*
X91184836Y-165872419D02*
X90994360Y-165872419D01*
X90994360Y-165872419D02*
X90899122Y-165824800D01*
X90899122Y-165824800D02*
X90803884Y-165729561D01*
X90803884Y-165729561D02*
X90756265Y-165539085D01*
X90756265Y-165539085D02*
X90756265Y-165205752D01*
X90756265Y-165205752D02*
X90803884Y-165015276D01*
X90803884Y-165015276D02*
X90899122Y-164920038D01*
X90899122Y-164920038D02*
X90994360Y-164872419D01*
X91756265Y-164872419D02*
X91994360Y-165872419D01*
X91994360Y-165872419D02*
X92184836Y-165158133D01*
X92184836Y-165158133D02*
X92375312Y-165872419D01*
X92375312Y-165872419D02*
X92613408Y-164872419D01*
X92994360Y-165348609D02*
X93327693Y-165348609D01*
X93470550Y-165872419D02*
X92994360Y-165872419D01*
X92994360Y-165872419D02*
X92994360Y-164872419D01*
X92994360Y-164872419D02*
X93470550Y-164872419D01*
X94470550Y-165872419D02*
X94137217Y-165396228D01*
X93899122Y-165872419D02*
X93899122Y-164872419D01*
X93899122Y-164872419D02*
X94280074Y-164872419D01*
X94280074Y-164872419D02*
X94375312Y-164920038D01*
X94375312Y-164920038D02*
X94422931Y-164967657D01*
X94422931Y-164967657D02*
X94470550Y-165062895D01*
X94470550Y-165062895D02*
X94470550Y-165205752D01*
X94470550Y-165205752D02*
X94422931Y-165300990D01*
X94422931Y-165300990D02*
X94375312Y-165348609D01*
X94375312Y-165348609D02*
X94280074Y-165396228D01*
X94280074Y-165396228D02*
X93899122Y-165396228D01*
X95613408Y-165824800D02*
X95756265Y-165872419D01*
X95756265Y-165872419D02*
X95994360Y-165872419D01*
X95994360Y-165872419D02*
X96089598Y-165824800D01*
X96089598Y-165824800D02*
X96137217Y-165777180D01*
X96137217Y-165777180D02*
X96184836Y-165681942D01*
X96184836Y-165681942D02*
X96184836Y-165586704D01*
X96184836Y-165586704D02*
X96137217Y-165491466D01*
X96137217Y-165491466D02*
X96089598Y-165443847D01*
X96089598Y-165443847D02*
X95994360Y-165396228D01*
X95994360Y-165396228D02*
X95803884Y-165348609D01*
X95803884Y-165348609D02*
X95708646Y-165300990D01*
X95708646Y-165300990D02*
X95661027Y-165253371D01*
X95661027Y-165253371D02*
X95613408Y-165158133D01*
X95613408Y-165158133D02*
X95613408Y-165062895D01*
X95613408Y-165062895D02*
X95661027Y-164967657D01*
X95661027Y-164967657D02*
X95708646Y-164920038D01*
X95708646Y-164920038D02*
X95803884Y-164872419D01*
X95803884Y-164872419D02*
X96041979Y-164872419D01*
X96041979Y-164872419D02*
X96184836Y-164920038D01*
X96613408Y-164872419D02*
X96613408Y-165681942D01*
X96613408Y-165681942D02*
X96661027Y-165777180D01*
X96661027Y-165777180D02*
X96708646Y-165824800D01*
X96708646Y-165824800D02*
X96803884Y-165872419D01*
X96803884Y-165872419D02*
X96994360Y-165872419D01*
X96994360Y-165872419D02*
X97089598Y-165824800D01*
X97089598Y-165824800D02*
X97137217Y-165777180D01*
X97137217Y-165777180D02*
X97184836Y-165681942D01*
X97184836Y-165681942D02*
X97184836Y-164872419D01*
X97661027Y-165872419D02*
X97661027Y-164872419D01*
X97661027Y-164872419D02*
X98041979Y-164872419D01*
X98041979Y-164872419D02*
X98137217Y-164920038D01*
X98137217Y-164920038D02*
X98184836Y-164967657D01*
X98184836Y-164967657D02*
X98232455Y-165062895D01*
X98232455Y-165062895D02*
X98232455Y-165205752D01*
X98232455Y-165205752D02*
X98184836Y-165300990D01*
X98184836Y-165300990D02*
X98137217Y-165348609D01*
X98137217Y-165348609D02*
X98041979Y-165396228D01*
X98041979Y-165396228D02*
X97661027Y-165396228D01*
X98661027Y-165872419D02*
X98661027Y-164872419D01*
X98661027Y-164872419D02*
X99041979Y-164872419D01*
X99041979Y-164872419D02*
X99137217Y-164920038D01*
X99137217Y-164920038D02*
X99184836Y-164967657D01*
X99184836Y-164967657D02*
X99232455Y-165062895D01*
X99232455Y-165062895D02*
X99232455Y-165205752D01*
X99232455Y-165205752D02*
X99184836Y-165300990D01*
X99184836Y-165300990D02*
X99137217Y-165348609D01*
X99137217Y-165348609D02*
X99041979Y-165396228D01*
X99041979Y-165396228D02*
X98661027Y-165396228D01*
X100137217Y-165872419D02*
X99661027Y-165872419D01*
X99661027Y-165872419D02*
X99661027Y-164872419D01*
X100661027Y-165396228D02*
X100661027Y-165872419D01*
X100327694Y-164872419D02*
X100661027Y-165396228D01*
X100661027Y-165396228D02*
X100994360Y-164872419D01*
X101946742Y-164872419D02*
X102280075Y-165872419D01*
X102280075Y-165872419D02*
X102613408Y-164872419D01*
X102899123Y-164967657D02*
X102946742Y-164920038D01*
X102946742Y-164920038D02*
X103041980Y-164872419D01*
X103041980Y-164872419D02*
X103280075Y-164872419D01*
X103280075Y-164872419D02*
X103375313Y-164920038D01*
X103375313Y-164920038D02*
X103422932Y-164967657D01*
X103422932Y-164967657D02*
X103470551Y-165062895D01*
X103470551Y-165062895D02*
X103470551Y-165158133D01*
X103470551Y-165158133D02*
X103422932Y-165300990D01*
X103422932Y-165300990D02*
X102851504Y-165872419D01*
X102851504Y-165872419D02*
X103470551Y-165872419D01*
D11*
X108337953Y-62954597D02*
X108337953Y-61954597D01*
X108337953Y-62430787D02*
X108909381Y-62430787D01*
X108909381Y-62954597D02*
X108909381Y-61954597D01*
X109290334Y-61954597D02*
X109909381Y-61954597D01*
X109909381Y-61954597D02*
X109576048Y-62335549D01*
X109576048Y-62335549D02*
X109718905Y-62335549D01*
X109718905Y-62335549D02*
X109814143Y-62383168D01*
X109814143Y-62383168D02*
X109861762Y-62430787D01*
X109861762Y-62430787D02*
X109909381Y-62526025D01*
X109909381Y-62526025D02*
X109909381Y-62764120D01*
X109909381Y-62764120D02*
X109861762Y-62859358D01*
X109861762Y-62859358D02*
X109814143Y-62906978D01*
X109814143Y-62906978D02*
X109718905Y-62954597D01*
X109718905Y-62954597D02*
X109433191Y-62954597D01*
X109433191Y-62954597D02*
X109337953Y-62906978D01*
X109337953Y-62906978D02*
X109290334Y-62859358D01*
X114176941Y-49695208D02*
X114129322Y-49742828D01*
X114129322Y-49742828D02*
X113986465Y-49790447D01*
X113986465Y-49790447D02*
X113891227Y-49790447D01*
X113891227Y-49790447D02*
X113748370Y-49742828D01*
X113748370Y-49742828D02*
X113653132Y-49647589D01*
X113653132Y-49647589D02*
X113605513Y-49552351D01*
X113605513Y-49552351D02*
X113557894Y-49361875D01*
X113557894Y-49361875D02*
X113557894Y-49219018D01*
X113557894Y-49219018D02*
X113605513Y-49028542D01*
X113605513Y-49028542D02*
X113653132Y-48933304D01*
X113653132Y-48933304D02*
X113748370Y-48838066D01*
X113748370Y-48838066D02*
X113891227Y-48790447D01*
X113891227Y-48790447D02*
X113986465Y-48790447D01*
X113986465Y-48790447D02*
X114129322Y-48838066D01*
X114129322Y-48838066D02*
X114176941Y-48885685D01*
X114748370Y-49219018D02*
X114653132Y-49171399D01*
X114653132Y-49171399D02*
X114605513Y-49123780D01*
X114605513Y-49123780D02*
X114557894Y-49028542D01*
X114557894Y-49028542D02*
X114557894Y-48980923D01*
X114557894Y-48980923D02*
X114605513Y-48885685D01*
X114605513Y-48885685D02*
X114653132Y-48838066D01*
X114653132Y-48838066D02*
X114748370Y-48790447D01*
X114748370Y-48790447D02*
X114938846Y-48790447D01*
X114938846Y-48790447D02*
X115034084Y-48838066D01*
X115034084Y-48838066D02*
X115081703Y-48885685D01*
X115081703Y-48885685D02*
X115129322Y-48980923D01*
X115129322Y-48980923D02*
X115129322Y-49028542D01*
X115129322Y-49028542D02*
X115081703Y-49123780D01*
X115081703Y-49123780D02*
X115034084Y-49171399D01*
X115034084Y-49171399D02*
X114938846Y-49219018D01*
X114938846Y-49219018D02*
X114748370Y-49219018D01*
X114748370Y-49219018D02*
X114653132Y-49266637D01*
X114653132Y-49266637D02*
X114605513Y-49314256D01*
X114605513Y-49314256D02*
X114557894Y-49409494D01*
X114557894Y-49409494D02*
X114557894Y-49599970D01*
X114557894Y-49599970D02*
X114605513Y-49695208D01*
X114605513Y-49695208D02*
X114653132Y-49742828D01*
X114653132Y-49742828D02*
X114748370Y-49790447D01*
X114748370Y-49790447D02*
X114938846Y-49790447D01*
X114938846Y-49790447D02*
X115034084Y-49742828D01*
X115034084Y-49742828D02*
X115081703Y-49695208D01*
X115081703Y-49695208D02*
X115129322Y-49599970D01*
X115129322Y-49599970D02*
X115129322Y-49409494D01*
X115129322Y-49409494D02*
X115081703Y-49314256D01*
X115081703Y-49314256D02*
X115034084Y-49266637D01*
X115034084Y-49266637D02*
X114938846Y-49219018D01*
X114333333Y-81637439D02*
X114285714Y-81685059D01*
X114285714Y-81685059D02*
X114142857Y-81732678D01*
X114142857Y-81732678D02*
X114047619Y-81732678D01*
X114047619Y-81732678D02*
X113904762Y-81685059D01*
X113904762Y-81685059D02*
X113809524Y-81589820D01*
X113809524Y-81589820D02*
X113761905Y-81494582D01*
X113761905Y-81494582D02*
X113714286Y-81304106D01*
X113714286Y-81304106D02*
X113714286Y-81161249D01*
X113714286Y-81161249D02*
X113761905Y-80970773D01*
X113761905Y-80970773D02*
X113809524Y-80875535D01*
X113809524Y-80875535D02*
X113904762Y-80780297D01*
X113904762Y-80780297D02*
X114047619Y-80732678D01*
X114047619Y-80732678D02*
X114142857Y-80732678D01*
X114142857Y-80732678D02*
X114285714Y-80780297D01*
X114285714Y-80780297D02*
X114333333Y-80827916D01*
X114809524Y-81732678D02*
X115000000Y-81732678D01*
X115000000Y-81732678D02*
X115095238Y-81685059D01*
X115095238Y-81685059D02*
X115142857Y-81637439D01*
X115142857Y-81637439D02*
X115238095Y-81494582D01*
X115238095Y-81494582D02*
X115285714Y-81304106D01*
X115285714Y-81304106D02*
X115285714Y-80923154D01*
X115285714Y-80923154D02*
X115238095Y-80827916D01*
X115238095Y-80827916D02*
X115190476Y-80780297D01*
X115190476Y-80780297D02*
X115095238Y-80732678D01*
X115095238Y-80732678D02*
X114904762Y-80732678D01*
X114904762Y-80732678D02*
X114809524Y-80780297D01*
X114809524Y-80780297D02*
X114761905Y-80827916D01*
X114761905Y-80827916D02*
X114714286Y-80923154D01*
X114714286Y-80923154D02*
X114714286Y-81161249D01*
X114714286Y-81161249D02*
X114761905Y-81256487D01*
X114761905Y-81256487D02*
X114809524Y-81304106D01*
X114809524Y-81304106D02*
X114904762Y-81351725D01*
X114904762Y-81351725D02*
X115095238Y-81351725D01*
X115095238Y-81351725D02*
X115190476Y-81304106D01*
X115190476Y-81304106D02*
X115238095Y-81256487D01*
X115238095Y-81256487D02*
X115285714Y-81161249D01*
X64833333Y-151359580D02*
X64785714Y-151407200D01*
X64785714Y-151407200D02*
X64642857Y-151454819D01*
X64642857Y-151454819D02*
X64547619Y-151454819D01*
X64547619Y-151454819D02*
X64404762Y-151407200D01*
X64404762Y-151407200D02*
X64309524Y-151311961D01*
X64309524Y-151311961D02*
X64261905Y-151216723D01*
X64261905Y-151216723D02*
X64214286Y-151026247D01*
X64214286Y-151026247D02*
X64214286Y-150883390D01*
X64214286Y-150883390D02*
X64261905Y-150692914D01*
X64261905Y-150692914D02*
X64309524Y-150597676D01*
X64309524Y-150597676D02*
X64404762Y-150502438D01*
X64404762Y-150502438D02*
X64547619Y-150454819D01*
X64547619Y-150454819D02*
X64642857Y-150454819D01*
X64642857Y-150454819D02*
X64785714Y-150502438D01*
X64785714Y-150502438D02*
X64833333Y-150550057D01*
X65166667Y-150454819D02*
X65785714Y-150454819D01*
X65785714Y-150454819D02*
X65452381Y-150835771D01*
X65452381Y-150835771D02*
X65595238Y-150835771D01*
X65595238Y-150835771D02*
X65690476Y-150883390D01*
X65690476Y-150883390D02*
X65738095Y-150931009D01*
X65738095Y-150931009D02*
X65785714Y-151026247D01*
X65785714Y-151026247D02*
X65785714Y-151264342D01*
X65785714Y-151264342D02*
X65738095Y-151359580D01*
X65738095Y-151359580D02*
X65690476Y-151407200D01*
X65690476Y-151407200D02*
X65595238Y-151454819D01*
X65595238Y-151454819D02*
X65309524Y-151454819D01*
X65309524Y-151454819D02*
X65214286Y-151407200D01*
X65214286Y-151407200D02*
X65166667Y-151359580D01*
X88951905Y-137484819D02*
X88951905Y-136484819D01*
X88951905Y-136484819D02*
X89190000Y-136484819D01*
X89190000Y-136484819D02*
X89332857Y-136532438D01*
X89332857Y-136532438D02*
X89428095Y-136627676D01*
X89428095Y-136627676D02*
X89475714Y-136722914D01*
X89475714Y-136722914D02*
X89523333Y-136913390D01*
X89523333Y-136913390D02*
X89523333Y-137056247D01*
X89523333Y-137056247D02*
X89475714Y-137246723D01*
X89475714Y-137246723D02*
X89428095Y-137341961D01*
X89428095Y-137341961D02*
X89332857Y-137437200D01*
X89332857Y-137437200D02*
X89190000Y-137484819D01*
X89190000Y-137484819D02*
X88951905Y-137484819D01*
X90475714Y-137484819D02*
X89904286Y-137484819D01*
X90190000Y-137484819D02*
X90190000Y-136484819D01*
X90190000Y-136484819D02*
X90094762Y-136627676D01*
X90094762Y-136627676D02*
X89999524Y-136722914D01*
X89999524Y-136722914D02*
X89904286Y-136770533D01*
X114451531Y-113022309D02*
X114403912Y-113069929D01*
X114403912Y-113069929D02*
X114261055Y-113117548D01*
X114261055Y-113117548D02*
X114165817Y-113117548D01*
X114165817Y-113117548D02*
X114022960Y-113069929D01*
X114022960Y-113069929D02*
X113927722Y-112974690D01*
X113927722Y-112974690D02*
X113880103Y-112879452D01*
X113880103Y-112879452D02*
X113832484Y-112688976D01*
X113832484Y-112688976D02*
X113832484Y-112546119D01*
X113832484Y-112546119D02*
X113880103Y-112355643D01*
X113880103Y-112355643D02*
X113927722Y-112260405D01*
X113927722Y-112260405D02*
X114022960Y-112165167D01*
X114022960Y-112165167D02*
X114165817Y-112117548D01*
X114165817Y-112117548D02*
X114261055Y-112117548D01*
X114261055Y-112117548D02*
X114403912Y-112165167D01*
X114403912Y-112165167D02*
X114451531Y-112212786D01*
X115403912Y-113117548D02*
X114832484Y-113117548D01*
X115118198Y-113117548D02*
X115118198Y-112117548D01*
X115118198Y-112117548D02*
X115022960Y-112260405D01*
X115022960Y-112260405D02*
X114927722Y-112355643D01*
X114927722Y-112355643D02*
X114832484Y-112403262D01*
X115784865Y-112212786D02*
X115832484Y-112165167D01*
X115832484Y-112165167D02*
X115927722Y-112117548D01*
X115927722Y-112117548D02*
X116165817Y-112117548D01*
X116165817Y-112117548D02*
X116261055Y-112165167D01*
X116261055Y-112165167D02*
X116308674Y-112212786D01*
X116308674Y-112212786D02*
X116356293Y-112308024D01*
X116356293Y-112308024D02*
X116356293Y-112403262D01*
X116356293Y-112403262D02*
X116308674Y-112546119D01*
X116308674Y-112546119D02*
X115737246Y-113117548D01*
X115737246Y-113117548D02*
X116356293Y-113117548D01*
X117824819Y-144696666D02*
X117348628Y-145029999D01*
X117824819Y-145268094D02*
X116824819Y-145268094D01*
X116824819Y-145268094D02*
X116824819Y-144887142D01*
X116824819Y-144887142D02*
X116872438Y-144791904D01*
X116872438Y-144791904D02*
X116920057Y-144744285D01*
X116920057Y-144744285D02*
X117015295Y-144696666D01*
X117015295Y-144696666D02*
X117158152Y-144696666D01*
X117158152Y-144696666D02*
X117253390Y-144744285D01*
X117253390Y-144744285D02*
X117301009Y-144791904D01*
X117301009Y-144791904D02*
X117348628Y-144887142D01*
X117348628Y-144887142D02*
X117348628Y-145268094D01*
X116920057Y-144315713D02*
X116872438Y-144268094D01*
X116872438Y-144268094D02*
X116824819Y-144172856D01*
X116824819Y-144172856D02*
X116824819Y-143934761D01*
X116824819Y-143934761D02*
X116872438Y-143839523D01*
X116872438Y-143839523D02*
X116920057Y-143791904D01*
X116920057Y-143791904D02*
X117015295Y-143744285D01*
X117015295Y-143744285D02*
X117110533Y-143744285D01*
X117110533Y-143744285D02*
X117253390Y-143791904D01*
X117253390Y-143791904D02*
X117824819Y-144363332D01*
X117824819Y-144363332D02*
X117824819Y-143744285D01*
X108729053Y-126488936D02*
X108729053Y-125488936D01*
X108729053Y-125965126D02*
X109300481Y-125965126D01*
X109300481Y-126488936D02*
X109300481Y-125488936D01*
X110300481Y-126488936D02*
X109729053Y-126488936D01*
X110014767Y-126488936D02*
X110014767Y-125488936D01*
X110014767Y-125488936D02*
X109919529Y-125631793D01*
X109919529Y-125631793D02*
X109824291Y-125727031D01*
X109824291Y-125727031D02*
X109729053Y-125774650D01*
X64833333Y-131859580D02*
X64785714Y-131907200D01*
X64785714Y-131907200D02*
X64642857Y-131954819D01*
X64642857Y-131954819D02*
X64547619Y-131954819D01*
X64547619Y-131954819D02*
X64404762Y-131907200D01*
X64404762Y-131907200D02*
X64309524Y-131811961D01*
X64309524Y-131811961D02*
X64261905Y-131716723D01*
X64261905Y-131716723D02*
X64214286Y-131526247D01*
X64214286Y-131526247D02*
X64214286Y-131383390D01*
X64214286Y-131383390D02*
X64261905Y-131192914D01*
X64261905Y-131192914D02*
X64309524Y-131097676D01*
X64309524Y-131097676D02*
X64404762Y-131002438D01*
X64404762Y-131002438D02*
X64547619Y-130954819D01*
X64547619Y-130954819D02*
X64642857Y-130954819D01*
X64642857Y-130954819D02*
X64785714Y-131002438D01*
X64785714Y-131002438D02*
X64833333Y-131050057D01*
X65214286Y-131050057D02*
X65261905Y-131002438D01*
X65261905Y-131002438D02*
X65357143Y-130954819D01*
X65357143Y-130954819D02*
X65595238Y-130954819D01*
X65595238Y-130954819D02*
X65690476Y-131002438D01*
X65690476Y-131002438D02*
X65738095Y-131050057D01*
X65738095Y-131050057D02*
X65785714Y-131145295D01*
X65785714Y-131145295D02*
X65785714Y-131240533D01*
X65785714Y-131240533D02*
X65738095Y-131383390D01*
X65738095Y-131383390D02*
X65166667Y-131954819D01*
X65166667Y-131954819D02*
X65785714Y-131954819D01*
X108084819Y-144616666D02*
X107608628Y-144949999D01*
X108084819Y-145188094D02*
X107084819Y-145188094D01*
X107084819Y-145188094D02*
X107084819Y-144807142D01*
X107084819Y-144807142D02*
X107132438Y-144711904D01*
X107132438Y-144711904D02*
X107180057Y-144664285D01*
X107180057Y-144664285D02*
X107275295Y-144616666D01*
X107275295Y-144616666D02*
X107418152Y-144616666D01*
X107418152Y-144616666D02*
X107513390Y-144664285D01*
X107513390Y-144664285D02*
X107561009Y-144711904D01*
X107561009Y-144711904D02*
X107608628Y-144807142D01*
X107608628Y-144807142D02*
X107608628Y-145188094D01*
X108084819Y-143664285D02*
X108084819Y-144235713D01*
X108084819Y-143949999D02*
X107084819Y-143949999D01*
X107084819Y-143949999D02*
X107227676Y-144045237D01*
X107227676Y-144045237D02*
X107322914Y-144140475D01*
X107322914Y-144140475D02*
X107370533Y-144235713D01*
X114333333Y-75325571D02*
X114285714Y-75373191D01*
X114285714Y-75373191D02*
X114142857Y-75420810D01*
X114142857Y-75420810D02*
X114047619Y-75420810D01*
X114047619Y-75420810D02*
X113904762Y-75373191D01*
X113904762Y-75373191D02*
X113809524Y-75277952D01*
X113809524Y-75277952D02*
X113761905Y-75182714D01*
X113761905Y-75182714D02*
X113714286Y-74992238D01*
X113714286Y-74992238D02*
X113714286Y-74849381D01*
X113714286Y-74849381D02*
X113761905Y-74658905D01*
X113761905Y-74658905D02*
X113809524Y-74563667D01*
X113809524Y-74563667D02*
X113904762Y-74468429D01*
X113904762Y-74468429D02*
X114047619Y-74420810D01*
X114047619Y-74420810D02*
X114142857Y-74420810D01*
X114142857Y-74420810D02*
X114285714Y-74468429D01*
X114285714Y-74468429D02*
X114333333Y-74516048D01*
X114666667Y-74420810D02*
X115333333Y-74420810D01*
X115333333Y-74420810D02*
X114904762Y-75420810D01*
X108438095Y-58554819D02*
X108438095Y-59364342D01*
X108438095Y-59364342D02*
X108485714Y-59459580D01*
X108485714Y-59459580D02*
X108533333Y-59507200D01*
X108533333Y-59507200D02*
X108628571Y-59554819D01*
X108628571Y-59554819D02*
X108819047Y-59554819D01*
X108819047Y-59554819D02*
X108914285Y-59507200D01*
X108914285Y-59507200D02*
X108961904Y-59459580D01*
X108961904Y-59459580D02*
X109009523Y-59364342D01*
X109009523Y-59364342D02*
X109009523Y-58554819D01*
X109438095Y-58650057D02*
X109485714Y-58602438D01*
X109485714Y-58602438D02*
X109580952Y-58554819D01*
X109580952Y-58554819D02*
X109819047Y-58554819D01*
X109819047Y-58554819D02*
X109914285Y-58602438D01*
X109914285Y-58602438D02*
X109961904Y-58650057D01*
X109961904Y-58650057D02*
X110009523Y-58745295D01*
X110009523Y-58745295D02*
X110009523Y-58840533D01*
X110009523Y-58840533D02*
X109961904Y-58983390D01*
X109961904Y-58983390D02*
X109390476Y-59554819D01*
X109390476Y-59554819D02*
X110009523Y-59554819D01*
X108433229Y-90386239D02*
X108433229Y-91195762D01*
X108433229Y-91195762D02*
X108480848Y-91291000D01*
X108480848Y-91291000D02*
X108528467Y-91338620D01*
X108528467Y-91338620D02*
X108623705Y-91386239D01*
X108623705Y-91386239D02*
X108814181Y-91386239D01*
X108814181Y-91386239D02*
X108909419Y-91338620D01*
X108909419Y-91338620D02*
X108957038Y-91291000D01*
X108957038Y-91291000D02*
X109004657Y-91195762D01*
X109004657Y-91195762D02*
X109004657Y-90386239D01*
X110004657Y-91386239D02*
X109433229Y-91386239D01*
X109718943Y-91386239D02*
X109718943Y-90386239D01*
X109718943Y-90386239D02*
X109623705Y-90529096D01*
X109623705Y-90529096D02*
X109528467Y-90624334D01*
X109528467Y-90624334D02*
X109433229Y-90671953D01*
X114435361Y-106804204D02*
X114387742Y-106851824D01*
X114387742Y-106851824D02*
X114244885Y-106899443D01*
X114244885Y-106899443D02*
X114149647Y-106899443D01*
X114149647Y-106899443D02*
X114006790Y-106851824D01*
X114006790Y-106851824D02*
X113911552Y-106756585D01*
X113911552Y-106756585D02*
X113863933Y-106661347D01*
X113863933Y-106661347D02*
X113816314Y-106470871D01*
X113816314Y-106470871D02*
X113816314Y-106328014D01*
X113816314Y-106328014D02*
X113863933Y-106137538D01*
X113863933Y-106137538D02*
X113911552Y-106042300D01*
X113911552Y-106042300D02*
X114006790Y-105947062D01*
X114006790Y-105947062D02*
X114149647Y-105899443D01*
X114149647Y-105899443D02*
X114244885Y-105899443D01*
X114244885Y-105899443D02*
X114387742Y-105947062D01*
X114387742Y-105947062D02*
X114435361Y-105994681D01*
X115387742Y-106899443D02*
X114816314Y-106899443D01*
X115102028Y-106899443D02*
X115102028Y-105899443D01*
X115102028Y-105899443D02*
X115006790Y-106042300D01*
X115006790Y-106042300D02*
X114911552Y-106137538D01*
X114911552Y-106137538D02*
X114816314Y-106185157D01*
X116340123Y-106899443D02*
X115768695Y-106899443D01*
X116054409Y-106899443D02*
X116054409Y-105899443D01*
X116054409Y-105899443D02*
X115959171Y-106042300D01*
X115959171Y-106042300D02*
X115863933Y-106137538D01*
X115863933Y-106137538D02*
X115768695Y-106185157D01*
X64833333Y-72859580D02*
X64785714Y-72907200D01*
X64785714Y-72907200D02*
X64642857Y-72954819D01*
X64642857Y-72954819D02*
X64547619Y-72954819D01*
X64547619Y-72954819D02*
X64404762Y-72907200D01*
X64404762Y-72907200D02*
X64309524Y-72811961D01*
X64309524Y-72811961D02*
X64261905Y-72716723D01*
X64261905Y-72716723D02*
X64214286Y-72526247D01*
X64214286Y-72526247D02*
X64214286Y-72383390D01*
X64214286Y-72383390D02*
X64261905Y-72192914D01*
X64261905Y-72192914D02*
X64309524Y-72097676D01*
X64309524Y-72097676D02*
X64404762Y-72002438D01*
X64404762Y-72002438D02*
X64547619Y-71954819D01*
X64547619Y-71954819D02*
X64642857Y-71954819D01*
X64642857Y-71954819D02*
X64785714Y-72002438D01*
X64785714Y-72002438D02*
X64833333Y-72050057D01*
X65738095Y-71954819D02*
X65261905Y-71954819D01*
X65261905Y-71954819D02*
X65214286Y-72431009D01*
X65214286Y-72431009D02*
X65261905Y-72383390D01*
X65261905Y-72383390D02*
X65357143Y-72335771D01*
X65357143Y-72335771D02*
X65595238Y-72335771D01*
X65595238Y-72335771D02*
X65690476Y-72383390D01*
X65690476Y-72383390D02*
X65738095Y-72431009D01*
X65738095Y-72431009D02*
X65785714Y-72526247D01*
X65785714Y-72526247D02*
X65785714Y-72764342D01*
X65785714Y-72764342D02*
X65738095Y-72859580D01*
X65738095Y-72859580D02*
X65690476Y-72907200D01*
X65690476Y-72907200D02*
X65595238Y-72954819D01*
X65595238Y-72954819D02*
X65357143Y-72954819D01*
X65357143Y-72954819D02*
X65261905Y-72907200D01*
X65261905Y-72907200D02*
X65214286Y-72859580D01*
X114177908Y-42966213D02*
X114130289Y-43013833D01*
X114130289Y-43013833D02*
X113987432Y-43061452D01*
X113987432Y-43061452D02*
X113892194Y-43061452D01*
X113892194Y-43061452D02*
X113749337Y-43013833D01*
X113749337Y-43013833D02*
X113654099Y-42918594D01*
X113654099Y-42918594D02*
X113606480Y-42823356D01*
X113606480Y-42823356D02*
X113558861Y-42632880D01*
X113558861Y-42632880D02*
X113558861Y-42490023D01*
X113558861Y-42490023D02*
X113606480Y-42299547D01*
X113606480Y-42299547D02*
X113654099Y-42204309D01*
X113654099Y-42204309D02*
X113749337Y-42109071D01*
X113749337Y-42109071D02*
X113892194Y-42061452D01*
X113892194Y-42061452D02*
X113987432Y-42061452D01*
X113987432Y-42061452D02*
X114130289Y-42109071D01*
X114130289Y-42109071D02*
X114177908Y-42156690D01*
X115130289Y-43061452D02*
X114558861Y-43061452D01*
X114844575Y-43061452D02*
X114844575Y-42061452D01*
X114844575Y-42061452D02*
X114749337Y-42204309D01*
X114749337Y-42204309D02*
X114654099Y-42299547D01*
X114654099Y-42299547D02*
X114558861Y-42347166D01*
X115749337Y-42061452D02*
X115844575Y-42061452D01*
X115844575Y-42061452D02*
X115939813Y-42109071D01*
X115939813Y-42109071D02*
X115987432Y-42156690D01*
X115987432Y-42156690D02*
X116035051Y-42251928D01*
X116035051Y-42251928D02*
X116082670Y-42442404D01*
X116082670Y-42442404D02*
X116082670Y-42680499D01*
X116082670Y-42680499D02*
X116035051Y-42870975D01*
X116035051Y-42870975D02*
X115987432Y-42966213D01*
X115987432Y-42966213D02*
X115939813Y-43013833D01*
X115939813Y-43013833D02*
X115844575Y-43061452D01*
X115844575Y-43061452D02*
X115749337Y-43061452D01*
X115749337Y-43061452D02*
X115654099Y-43013833D01*
X115654099Y-43013833D02*
X115606480Y-42966213D01*
X115606480Y-42966213D02*
X115558861Y-42870975D01*
X115558861Y-42870975D02*
X115511242Y-42680499D01*
X115511242Y-42680499D02*
X115511242Y-42442404D01*
X115511242Y-42442404D02*
X115558861Y-42251928D01*
X115558861Y-42251928D02*
X115606480Y-42156690D01*
X115606480Y-42156690D02*
X115654099Y-42109071D01*
X115654099Y-42109071D02*
X115749337Y-42061452D01*
X100951905Y-137484819D02*
X100951905Y-136484819D01*
X100951905Y-136484819D02*
X101190000Y-136484819D01*
X101190000Y-136484819D02*
X101332857Y-136532438D01*
X101332857Y-136532438D02*
X101428095Y-136627676D01*
X101428095Y-136627676D02*
X101475714Y-136722914D01*
X101475714Y-136722914D02*
X101523333Y-136913390D01*
X101523333Y-136913390D02*
X101523333Y-137056247D01*
X101523333Y-137056247D02*
X101475714Y-137246723D01*
X101475714Y-137246723D02*
X101428095Y-137341961D01*
X101428095Y-137341961D02*
X101332857Y-137437200D01*
X101332857Y-137437200D02*
X101190000Y-137484819D01*
X101190000Y-137484819D02*
X100951905Y-137484819D01*
X101904286Y-136580057D02*
X101951905Y-136532438D01*
X101951905Y-136532438D02*
X102047143Y-136484819D01*
X102047143Y-136484819D02*
X102285238Y-136484819D01*
X102285238Y-136484819D02*
X102380476Y-136532438D01*
X102380476Y-136532438D02*
X102428095Y-136580057D01*
X102428095Y-136580057D02*
X102475714Y-136675295D01*
X102475714Y-136675295D02*
X102475714Y-136770533D01*
X102475714Y-136770533D02*
X102428095Y-136913390D01*
X102428095Y-136913390D02*
X101856667Y-137484819D01*
X101856667Y-137484819D02*
X102475714Y-137484819D01*
X64833333Y-92359580D02*
X64785714Y-92407200D01*
X64785714Y-92407200D02*
X64642857Y-92454819D01*
X64642857Y-92454819D02*
X64547619Y-92454819D01*
X64547619Y-92454819D02*
X64404762Y-92407200D01*
X64404762Y-92407200D02*
X64309524Y-92311961D01*
X64309524Y-92311961D02*
X64261905Y-92216723D01*
X64261905Y-92216723D02*
X64214286Y-92026247D01*
X64214286Y-92026247D02*
X64214286Y-91883390D01*
X64214286Y-91883390D02*
X64261905Y-91692914D01*
X64261905Y-91692914D02*
X64309524Y-91597676D01*
X64309524Y-91597676D02*
X64404762Y-91502438D01*
X64404762Y-91502438D02*
X64547619Y-91454819D01*
X64547619Y-91454819D02*
X64642857Y-91454819D01*
X64642857Y-91454819D02*
X64785714Y-91502438D01*
X64785714Y-91502438D02*
X64833333Y-91550057D01*
X65690476Y-91788152D02*
X65690476Y-92454819D01*
X65452381Y-91407200D02*
X65214286Y-92121485D01*
X65214286Y-92121485D02*
X65833333Y-92121485D01*
X125451905Y-72984819D02*
X125451905Y-71984819D01*
X125451905Y-71984819D02*
X125690000Y-71984819D01*
X125690000Y-71984819D02*
X125832857Y-72032438D01*
X125832857Y-72032438D02*
X125928095Y-72127676D01*
X125928095Y-72127676D02*
X125975714Y-72222914D01*
X125975714Y-72222914D02*
X126023333Y-72413390D01*
X126023333Y-72413390D02*
X126023333Y-72556247D01*
X126023333Y-72556247D02*
X125975714Y-72746723D01*
X125975714Y-72746723D02*
X125928095Y-72841961D01*
X125928095Y-72841961D02*
X125832857Y-72937200D01*
X125832857Y-72937200D02*
X125690000Y-72984819D01*
X125690000Y-72984819D02*
X125451905Y-72984819D01*
X126356667Y-71984819D02*
X126975714Y-71984819D01*
X126975714Y-71984819D02*
X126642381Y-72365771D01*
X126642381Y-72365771D02*
X126785238Y-72365771D01*
X126785238Y-72365771D02*
X126880476Y-72413390D01*
X126880476Y-72413390D02*
X126928095Y-72461009D01*
X126928095Y-72461009D02*
X126975714Y-72556247D01*
X126975714Y-72556247D02*
X126975714Y-72794342D01*
X126975714Y-72794342D02*
X126928095Y-72889580D01*
X126928095Y-72889580D02*
X126880476Y-72937200D01*
X126880476Y-72937200D02*
X126785238Y-72984819D01*
X126785238Y-72984819D02*
X126499524Y-72984819D01*
X126499524Y-72984819D02*
X126404286Y-72937200D01*
X126404286Y-72937200D02*
X126356667Y-72889580D01*
X125451905Y-104484819D02*
X125451905Y-103484819D01*
X125451905Y-103484819D02*
X125690000Y-103484819D01*
X125690000Y-103484819D02*
X125832857Y-103532438D01*
X125832857Y-103532438D02*
X125928095Y-103627676D01*
X125928095Y-103627676D02*
X125975714Y-103722914D01*
X125975714Y-103722914D02*
X126023333Y-103913390D01*
X126023333Y-103913390D02*
X126023333Y-104056247D01*
X126023333Y-104056247D02*
X125975714Y-104246723D01*
X125975714Y-104246723D02*
X125928095Y-104341961D01*
X125928095Y-104341961D02*
X125832857Y-104437200D01*
X125832857Y-104437200D02*
X125690000Y-104484819D01*
X125690000Y-104484819D02*
X125451905Y-104484819D01*
X126880476Y-103484819D02*
X126690000Y-103484819D01*
X126690000Y-103484819D02*
X126594762Y-103532438D01*
X126594762Y-103532438D02*
X126547143Y-103580057D01*
X126547143Y-103580057D02*
X126451905Y-103722914D01*
X126451905Y-103722914D02*
X126404286Y-103913390D01*
X126404286Y-103913390D02*
X126404286Y-104294342D01*
X126404286Y-104294342D02*
X126451905Y-104389580D01*
X126451905Y-104389580D02*
X126499524Y-104437200D01*
X126499524Y-104437200D02*
X126594762Y-104484819D01*
X126594762Y-104484819D02*
X126785238Y-104484819D01*
X126785238Y-104484819D02*
X126880476Y-104437200D01*
X126880476Y-104437200D02*
X126928095Y-104389580D01*
X126928095Y-104389580D02*
X126975714Y-104294342D01*
X126975714Y-104294342D02*
X126975714Y-104056247D01*
X126975714Y-104056247D02*
X126928095Y-103961009D01*
X126928095Y-103961009D02*
X126880476Y-103913390D01*
X126880476Y-103913390D02*
X126785238Y-103865771D01*
X126785238Y-103865771D02*
X126594762Y-103865771D01*
X126594762Y-103865771D02*
X126499524Y-103913390D01*
X126499524Y-103913390D02*
X126451905Y-103961009D01*
X126451905Y-103961009D02*
X126404286Y-104056247D01*
X108493243Y-121876853D02*
X108493243Y-122686376D01*
X108493243Y-122686376D02*
X108540862Y-122781614D01*
X108540862Y-122781614D02*
X108588481Y-122829234D01*
X108588481Y-122829234D02*
X108683719Y-122876853D01*
X108683719Y-122876853D02*
X108874195Y-122876853D01*
X108874195Y-122876853D02*
X108969433Y-122829234D01*
X108969433Y-122829234D02*
X109017052Y-122781614D01*
X109017052Y-122781614D02*
X109064671Y-122686376D01*
X109064671Y-122686376D02*
X109064671Y-121876853D01*
X109445624Y-121876853D02*
X110064671Y-121876853D01*
X110064671Y-121876853D02*
X109731338Y-122257805D01*
X109731338Y-122257805D02*
X109874195Y-122257805D01*
X109874195Y-122257805D02*
X109969433Y-122305424D01*
X109969433Y-122305424D02*
X110017052Y-122353043D01*
X110017052Y-122353043D02*
X110064671Y-122448281D01*
X110064671Y-122448281D02*
X110064671Y-122686376D01*
X110064671Y-122686376D02*
X110017052Y-122781614D01*
X110017052Y-122781614D02*
X109969433Y-122829234D01*
X109969433Y-122829234D02*
X109874195Y-122876853D01*
X109874195Y-122876853D02*
X109588481Y-122876853D01*
X109588481Y-122876853D02*
X109493243Y-122829234D01*
X109493243Y-122829234D02*
X109445624Y-122781614D01*
X108340203Y-94646702D02*
X108340203Y-93646702D01*
X108340203Y-94122892D02*
X108911631Y-94122892D01*
X108911631Y-94646702D02*
X108911631Y-93646702D01*
X109340203Y-93741940D02*
X109387822Y-93694321D01*
X109387822Y-93694321D02*
X109483060Y-93646702D01*
X109483060Y-93646702D02*
X109721155Y-93646702D01*
X109721155Y-93646702D02*
X109816393Y-93694321D01*
X109816393Y-93694321D02*
X109864012Y-93741940D01*
X109864012Y-93741940D02*
X109911631Y-93837178D01*
X109911631Y-93837178D02*
X109911631Y-93932416D01*
X109911631Y-93932416D02*
X109864012Y-94075273D01*
X109864012Y-94075273D02*
X109292584Y-94646702D01*
X109292584Y-94646702D02*
X109911631Y-94646702D01*
X64833333Y-53359580D02*
X64785714Y-53407200D01*
X64785714Y-53407200D02*
X64642857Y-53454819D01*
X64642857Y-53454819D02*
X64547619Y-53454819D01*
X64547619Y-53454819D02*
X64404762Y-53407200D01*
X64404762Y-53407200D02*
X64309524Y-53311961D01*
X64309524Y-53311961D02*
X64261905Y-53216723D01*
X64261905Y-53216723D02*
X64214286Y-53026247D01*
X64214286Y-53026247D02*
X64214286Y-52883390D01*
X64214286Y-52883390D02*
X64261905Y-52692914D01*
X64261905Y-52692914D02*
X64309524Y-52597676D01*
X64309524Y-52597676D02*
X64404762Y-52502438D01*
X64404762Y-52502438D02*
X64547619Y-52454819D01*
X64547619Y-52454819D02*
X64642857Y-52454819D01*
X64642857Y-52454819D02*
X64785714Y-52502438D01*
X64785714Y-52502438D02*
X64833333Y-52550057D01*
X65690476Y-52454819D02*
X65500000Y-52454819D01*
X65500000Y-52454819D02*
X65404762Y-52502438D01*
X65404762Y-52502438D02*
X65357143Y-52550057D01*
X65357143Y-52550057D02*
X65261905Y-52692914D01*
X65261905Y-52692914D02*
X65214286Y-52883390D01*
X65214286Y-52883390D02*
X65214286Y-53264342D01*
X65214286Y-53264342D02*
X65261905Y-53359580D01*
X65261905Y-53359580D02*
X65309524Y-53407200D01*
X65309524Y-53407200D02*
X65404762Y-53454819D01*
X65404762Y-53454819D02*
X65595238Y-53454819D01*
X65595238Y-53454819D02*
X65690476Y-53407200D01*
X65690476Y-53407200D02*
X65738095Y-53359580D01*
X65738095Y-53359580D02*
X65785714Y-53264342D01*
X65785714Y-53264342D02*
X65785714Y-53026247D01*
X65785714Y-53026247D02*
X65738095Y-52931009D01*
X65738095Y-52931009D02*
X65690476Y-52883390D01*
X65690476Y-52883390D02*
X65595238Y-52835771D01*
X65595238Y-52835771D02*
X65404762Y-52835771D01*
X65404762Y-52835771D02*
X65309524Y-52883390D01*
X65309524Y-52883390D02*
X65261905Y-52931009D01*
X65261905Y-52931009D02*
X65214286Y-53026247D01*
X64833333Y-112359580D02*
X64785714Y-112407200D01*
X64785714Y-112407200D02*
X64642857Y-112454819D01*
X64642857Y-112454819D02*
X64547619Y-112454819D01*
X64547619Y-112454819D02*
X64404762Y-112407200D01*
X64404762Y-112407200D02*
X64309524Y-112311961D01*
X64309524Y-112311961D02*
X64261905Y-112216723D01*
X64261905Y-112216723D02*
X64214286Y-112026247D01*
X64214286Y-112026247D02*
X64214286Y-111883390D01*
X64214286Y-111883390D02*
X64261905Y-111692914D01*
X64261905Y-111692914D02*
X64309524Y-111597676D01*
X64309524Y-111597676D02*
X64404762Y-111502438D01*
X64404762Y-111502438D02*
X64547619Y-111454819D01*
X64547619Y-111454819D02*
X64642857Y-111454819D01*
X64642857Y-111454819D02*
X64785714Y-111502438D01*
X64785714Y-111502438D02*
X64833333Y-111550057D01*
X65785714Y-112454819D02*
X65214286Y-112454819D01*
X65500000Y-112454819D02*
X65500000Y-111454819D01*
X65500000Y-111454819D02*
X65404762Y-111597676D01*
X65404762Y-111597676D02*
X65309524Y-111692914D01*
X65309524Y-111692914D02*
X65214286Y-111740533D01*
D12*
%TO.C,H3*%
X91948678Y-53652953D02*
X93979505Y-55261514D01*
X91948678Y-64347047D02*
X93979505Y-62738486D01*
X92158609Y-55767756D02*
X93626715Y-56024675D01*
X92158609Y-62232244D02*
X93626715Y-61975325D01*
X92580278Y-52805194D02*
X95705804Y-54993062D01*
X92580278Y-65194806D02*
X95705804Y-63006938D01*
X93800000Y-57400000D02*
X91930786Y-56434964D01*
X93800000Y-60600000D02*
X91930786Y-61565036D01*
X95937778Y-53245194D02*
X96338880Y-54533124D01*
X95937778Y-64754806D02*
X96338880Y-63466876D01*
X96726369Y-52835197D02*
X98972892Y-55930449D01*
X96726369Y-65164803D02*
X98972892Y-62069551D01*
X99960000Y-55609985D02*
X99960000Y-53299995D01*
X99960000Y-62390015D02*
X99960000Y-64700005D01*
X101260000Y-53300000D02*
X101260000Y-58215009D01*
X101260000Y-58215009D02*
X109200000Y-58215009D01*
X101260000Y-59784991D02*
X109200000Y-59784991D01*
X101260000Y-64700000D02*
X101260000Y-59784991D01*
X117140000Y-53300000D02*
X117140000Y-58215009D01*
X117140000Y-58215009D02*
X109200000Y-58215009D01*
X117140000Y-59784991D02*
X109200000Y-59784991D01*
X117140000Y-64700000D02*
X117140000Y-59784991D01*
X118440000Y-55609985D02*
X118440000Y-53299995D01*
X118440000Y-62390015D02*
X118440000Y-64700005D01*
X121673631Y-52835197D02*
X119427108Y-55930449D01*
X121673631Y-65164803D02*
X119427108Y-62069551D01*
X122462222Y-53245194D02*
X122061120Y-54533124D01*
X122462222Y-64754806D02*
X122061120Y-63466876D01*
X124600000Y-57400000D02*
X126469214Y-56434964D01*
X124600000Y-60600000D02*
X126469214Y-61565036D01*
X125819722Y-52805194D02*
X122694196Y-54993062D01*
X125819722Y-65194806D02*
X122694196Y-63006938D01*
X126241391Y-55767756D02*
X124773285Y-56024675D01*
X126241391Y-62232244D02*
X124773285Y-61975325D01*
X126451322Y-53652953D02*
X124420495Y-55261514D01*
X126451322Y-64347047D02*
X124420495Y-62738486D01*
X91930786Y-56434964D02*
G75*
G02*
X92158610Y-55767750I166314J315714D01*
G01*
X91948678Y-53652953D02*
G75*
G02*
X92580272Y-52805202I320122J420653D01*
G01*
X92158609Y-62232244D02*
G75*
G02*
X91930832Y-61565124I-61509J351444D01*
G01*
X92580278Y-65194806D02*
G75*
G02*
X91948672Y-64347039I-311478J427106D01*
G01*
X93626715Y-61975325D02*
G75*
G02*
X93979522Y-62738507I74985J-428475D01*
G01*
X93979505Y-55261514D02*
G75*
G02*
X93626720Y-56024649I-277805J-334686D01*
G01*
X95705804Y-63006938D02*
G75*
G02*
X96338903Y-63466883I237296J-339062D01*
G01*
X95937778Y-53245194D02*
G75*
G02*
X96726370Y-52835196I424942J146054D01*
G01*
X96338880Y-54533124D02*
G75*
G02*
X95705803Y-54993063I-395760J-120926D01*
G01*
X96726369Y-65164803D02*
G75*
G02*
X95937780Y-64754807I-363669J263903D01*
G01*
X98972892Y-62069551D02*
G75*
G02*
X99959943Y-62390015I441508J-320449D01*
G01*
X99960000Y-53299995D02*
G75*
G02*
X101260000Y-53300000I650000J-5D01*
G01*
X99960000Y-55609985D02*
G75*
G02*
X98972890Y-55930450I-545560J-45D01*
G01*
X101260000Y-64700000D02*
G75*
G02*
X99960000Y-64700005I-650000J0D01*
G01*
X117140000Y-53300000D02*
G75*
G02*
X118440000Y-53299995I650000J-10D01*
G01*
X118440000Y-62390015D02*
G75*
G02*
X119427108Y-62069551I545568J17D01*
G01*
X118440000Y-64700005D02*
G75*
G02*
X117140000Y-64700000I-650000J15D01*
G01*
X119427108Y-55930449D02*
G75*
G02*
X118439999Y-55609985I-441539J320452D01*
G01*
X121673631Y-52835197D02*
G75*
G02*
X122462222Y-53245194I363652J-263938D01*
G01*
X122061120Y-63466876D02*
G75*
G02*
X122694196Y-63006938I395762J120922D01*
G01*
X122462222Y-64754806D02*
G75*
G02*
X121673631Y-65164803I-424939J-146059D01*
G01*
X122694196Y-54993062D02*
G75*
G02*
X122061120Y-54533124I-237314J339016D01*
G01*
X124420495Y-62738486D02*
G75*
G02*
X124773285Y-61975325I277808J334700D01*
G01*
X124773285Y-56024675D02*
G75*
G02*
X124420495Y-55261514I-74984J428460D01*
G01*
X125819722Y-52805194D02*
G75*
G02*
X126451322Y-53652953I311507J-427078D01*
G01*
X126241391Y-55767756D02*
G75*
G02*
X126469214Y-56434964I61512J-351496D01*
G01*
X126451322Y-64347047D02*
G75*
G02*
X125819722Y-65194806I-320093J-420681D01*
G01*
X126469214Y-61565036D02*
G75*
G02*
X126241391Y-62232244I-166311J-315712D01*
G01*
%TO.C,C8*%
X112786876Y-50895628D02*
X112786876Y-50445628D01*
X113011876Y-50670628D02*
X112561876Y-50670628D01*
X112594329Y-50395628D02*
G75*
G02*
X112594329Y-48275628I-2119741J1060000D01*
G01*
%TO.C,C9*%
X112754612Y-82837859D02*
X112754612Y-82387859D01*
X112979612Y-82612859D02*
X112529612Y-82612859D01*
X112562065Y-82337859D02*
G75*
G02*
X112562065Y-80217859I-2119741J1060000D01*
G01*
%TO.C,C3*%
X65512780Y-145935000D02*
X67312780Y-145935000D01*
X66412780Y-145035000D02*
X66412780Y-146835000D01*
X75272220Y-141970000D02*
X75272220Y-160130000D01*
X75312220Y-141970000D02*
X75312220Y-160130000D01*
X75352220Y-141970000D02*
X75352220Y-160130000D01*
X75392220Y-141971000D02*
X75392220Y-160129000D01*
X75432220Y-141971000D02*
X75432220Y-160129000D01*
X75472220Y-141972000D02*
X75472220Y-160128000D01*
X75512220Y-141973000D02*
X75512220Y-160127000D01*
X75552220Y-141974000D02*
X75552220Y-160126000D01*
X75592220Y-141976000D02*
X75592220Y-160124000D01*
X75632220Y-141977000D02*
X75632220Y-160123000D01*
X75672220Y-141979000D02*
X75672220Y-160121000D01*
X75712220Y-141981000D02*
X75712220Y-160119000D01*
X75752220Y-141983000D02*
X75752220Y-160117000D01*
X75792220Y-141985000D02*
X75792220Y-160115000D01*
X75832220Y-141987000D02*
X75832220Y-160113000D01*
X75872220Y-141990000D02*
X75872220Y-160110000D01*
X75912220Y-141992000D02*
X75912220Y-160108000D01*
X75952220Y-141995000D02*
X75952220Y-160105000D01*
X75992220Y-141998000D02*
X75992220Y-160102000D01*
X76032220Y-142002000D02*
X76032220Y-160098000D01*
X76072220Y-142005000D02*
X76072220Y-160095000D01*
X76112220Y-142009000D02*
X76112220Y-160091000D01*
X76152220Y-142013000D02*
X76152220Y-160087000D01*
X76192220Y-142017000D02*
X76192220Y-160083000D01*
X76232220Y-142021000D02*
X76232220Y-160079000D01*
X76272220Y-142025000D02*
X76272220Y-160075000D01*
X76312220Y-142029000D02*
X76312220Y-160071000D01*
X76352220Y-142034000D02*
X76352220Y-160066000D01*
X76392220Y-142039000D02*
X76392220Y-160061000D01*
X76432220Y-142044000D02*
X76432220Y-160056000D01*
X76472220Y-142049000D02*
X76472220Y-160051000D01*
X76512220Y-142055000D02*
X76512220Y-160045000D01*
X76552220Y-142060000D02*
X76552220Y-160040000D01*
X76592220Y-142066000D02*
X76592220Y-160034000D01*
X76632220Y-142072000D02*
X76632220Y-160028000D01*
X76672220Y-142078000D02*
X76672220Y-160022000D01*
X76712220Y-142084000D02*
X76712220Y-160016000D01*
X76752220Y-142091000D02*
X76752220Y-160009000D01*
X76792220Y-142098000D02*
X76792220Y-160002000D01*
X76832220Y-142104000D02*
X76832220Y-159996000D01*
X76872220Y-142111000D02*
X76872220Y-159989000D01*
X76912220Y-142119000D02*
X76912220Y-159981000D01*
X76952220Y-142126000D02*
X76952220Y-159974000D01*
X76992220Y-142134000D02*
X76992220Y-159966000D01*
X77032220Y-142141000D02*
X77032220Y-159959000D01*
X77072220Y-142149000D02*
X77072220Y-159951000D01*
X77112220Y-142158000D02*
X77112220Y-159942000D01*
X77152220Y-142166000D02*
X77152220Y-159934000D01*
X77192220Y-142174000D02*
X77192220Y-159926000D01*
X77232220Y-142183000D02*
X77232220Y-159917000D01*
X77272220Y-142192000D02*
X77272220Y-159908000D01*
X77312220Y-142201000D02*
X77312220Y-159899000D01*
X77352220Y-142210000D02*
X77352220Y-159890000D01*
X77392220Y-142220000D02*
X77392220Y-159880000D01*
X77432220Y-142229000D02*
X77432220Y-159871000D01*
X77472220Y-142239000D02*
X77472220Y-159861000D01*
X77512220Y-142249000D02*
X77512220Y-159851000D01*
X77552220Y-142260000D02*
X77552220Y-159840000D01*
X77592220Y-142270000D02*
X77592220Y-149610000D01*
X77592220Y-152490000D02*
X77592220Y-159830000D01*
X77632220Y-142281000D02*
X77632220Y-149610000D01*
X77632220Y-152490000D02*
X77632220Y-159819000D01*
X77672220Y-142291000D02*
X77672220Y-149610000D01*
X77672220Y-152490000D02*
X77672220Y-159809000D01*
X77712220Y-142302000D02*
X77712220Y-149610000D01*
X77712220Y-152490000D02*
X77712220Y-159798000D01*
X77752220Y-142314000D02*
X77752220Y-149610000D01*
X77752220Y-152490000D02*
X77752220Y-159786000D01*
X77792220Y-142325000D02*
X77792220Y-149610000D01*
X77792220Y-152490000D02*
X77792220Y-159775000D01*
X77832220Y-142337000D02*
X77832220Y-149610000D01*
X77832220Y-152490000D02*
X77832220Y-159763000D01*
X77872220Y-142348000D02*
X77872220Y-149610000D01*
X77872220Y-152490000D02*
X77872220Y-159752000D01*
X77912220Y-142360000D02*
X77912220Y-149610000D01*
X77912220Y-152490000D02*
X77912220Y-159740000D01*
X77952220Y-142373000D02*
X77952220Y-149610000D01*
X77952220Y-152490000D02*
X77952220Y-159727000D01*
X77992220Y-142385000D02*
X77992220Y-149610000D01*
X77992220Y-152490000D02*
X77992220Y-159715000D01*
X78032220Y-142398000D02*
X78032220Y-149610000D01*
X78032220Y-152490000D02*
X78032220Y-159702000D01*
X78072220Y-142410000D02*
X78072220Y-149610000D01*
X78072220Y-152490000D02*
X78072220Y-159690000D01*
X78112220Y-142423000D02*
X78112220Y-149610000D01*
X78112220Y-152490000D02*
X78112220Y-159677000D01*
X78152220Y-142437000D02*
X78152220Y-149610000D01*
X78152220Y-152490000D02*
X78152220Y-159663000D01*
X78192220Y-142450000D02*
X78192220Y-149610000D01*
X78192220Y-152490000D02*
X78192220Y-159650000D01*
X78232220Y-142464000D02*
X78232220Y-149610000D01*
X78232220Y-152490000D02*
X78232220Y-159636000D01*
X78272220Y-142478000D02*
X78272220Y-149610000D01*
X78272220Y-152490000D02*
X78272220Y-159622000D01*
X78312220Y-142492000D02*
X78312220Y-149610000D01*
X78312220Y-152490000D02*
X78312220Y-159608000D01*
X78352220Y-142506000D02*
X78352220Y-149610000D01*
X78352220Y-152490000D02*
X78352220Y-159594000D01*
X78392220Y-142520000D02*
X78392220Y-149610000D01*
X78392220Y-152490000D02*
X78392220Y-159580000D01*
X78432220Y-142535000D02*
X78432220Y-149610000D01*
X78432220Y-152490000D02*
X78432220Y-159565000D01*
X78472220Y-142550000D02*
X78472220Y-149610000D01*
X78472220Y-152490000D02*
X78472220Y-159550000D01*
X78512220Y-142565000D02*
X78512220Y-149610000D01*
X78512220Y-152490000D02*
X78512220Y-159535000D01*
X78552220Y-142580000D02*
X78552220Y-149610000D01*
X78552220Y-152490000D02*
X78552220Y-159520000D01*
X78592220Y-142596000D02*
X78592220Y-149610000D01*
X78592220Y-152490000D02*
X78592220Y-159504000D01*
X78632220Y-142612000D02*
X78632220Y-149610000D01*
X78632220Y-152490000D02*
X78632220Y-159488000D01*
X78672220Y-142627000D02*
X78672220Y-149610000D01*
X78672220Y-152490000D02*
X78672220Y-159473000D01*
X78712220Y-142644000D02*
X78712220Y-149610000D01*
X78712220Y-152490000D02*
X78712220Y-159456000D01*
X78752220Y-142660000D02*
X78752220Y-149610000D01*
X78752220Y-152490000D02*
X78752220Y-159440000D01*
X78792220Y-142677000D02*
X78792220Y-149610000D01*
X78792220Y-152490000D02*
X78792220Y-159423000D01*
X78832220Y-142694000D02*
X78832220Y-149610000D01*
X78832220Y-152490000D02*
X78832220Y-159406000D01*
X78872220Y-142711000D02*
X78872220Y-149610000D01*
X78872220Y-152490000D02*
X78872220Y-159389000D01*
X78912220Y-142728000D02*
X78912220Y-149610000D01*
X78912220Y-152490000D02*
X78912220Y-159372000D01*
X78952220Y-142745000D02*
X78952220Y-149610000D01*
X78952220Y-152490000D02*
X78952220Y-159355000D01*
X78992220Y-142763000D02*
X78992220Y-149610000D01*
X78992220Y-152490000D02*
X78992220Y-159337000D01*
X79032220Y-142781000D02*
X79032220Y-149610000D01*
X79032220Y-152490000D02*
X79032220Y-159319000D01*
X79072220Y-142799000D02*
X79072220Y-149610000D01*
X79072220Y-152490000D02*
X79072220Y-159301000D01*
X79112220Y-142818000D02*
X79112220Y-149610000D01*
X79112220Y-152490000D02*
X79112220Y-159282000D01*
X79152220Y-142837000D02*
X79152220Y-149610000D01*
X79152220Y-152490000D02*
X79152220Y-159263000D01*
X79192220Y-142855000D02*
X79192220Y-149610000D01*
X79192220Y-152490000D02*
X79192220Y-159245000D01*
X79232220Y-142875000D02*
X79232220Y-149610000D01*
X79232220Y-152490000D02*
X79232220Y-159225000D01*
X79272220Y-142894000D02*
X79272220Y-149610000D01*
X79272220Y-152490000D02*
X79272220Y-159206000D01*
X79312220Y-142914000D02*
X79312220Y-149610000D01*
X79312220Y-152490000D02*
X79312220Y-159186000D01*
X79352220Y-142934000D02*
X79352220Y-149610000D01*
X79352220Y-152490000D02*
X79352220Y-159166000D01*
X79392220Y-142954000D02*
X79392220Y-149610000D01*
X79392220Y-152490000D02*
X79392220Y-159146000D01*
X79432220Y-142974000D02*
X79432220Y-149610000D01*
X79432220Y-152490000D02*
X79432220Y-159126000D01*
X79472220Y-142995000D02*
X79472220Y-149610000D01*
X79472220Y-152490000D02*
X79472220Y-159105000D01*
X79512220Y-143016000D02*
X79512220Y-149610000D01*
X79512220Y-152490000D02*
X79512220Y-159084000D01*
X79552220Y-143037000D02*
X79552220Y-149610000D01*
X79552220Y-152490000D02*
X79552220Y-159063000D01*
X79592220Y-143058000D02*
X79592220Y-149610000D01*
X79592220Y-152490000D02*
X79592220Y-159042000D01*
X79632220Y-143080000D02*
X79632220Y-149610000D01*
X79632220Y-152490000D02*
X79632220Y-159020000D01*
X79672220Y-143102000D02*
X79672220Y-149610000D01*
X79672220Y-152490000D02*
X79672220Y-158998000D01*
X79712220Y-143124000D02*
X79712220Y-149610000D01*
X79712220Y-152490000D02*
X79712220Y-158976000D01*
X79752220Y-143146000D02*
X79752220Y-149610000D01*
X79752220Y-152490000D02*
X79752220Y-158954000D01*
X79792220Y-143169000D02*
X79792220Y-149610000D01*
X79792220Y-152490000D02*
X79792220Y-158931000D01*
X79832220Y-143192000D02*
X79832220Y-149610000D01*
X79832220Y-152490000D02*
X79832220Y-158908000D01*
X79872220Y-143215000D02*
X79872220Y-149610000D01*
X79872220Y-152490000D02*
X79872220Y-158885000D01*
X79912220Y-143239000D02*
X79912220Y-149610000D01*
X79912220Y-152490000D02*
X79912220Y-158861000D01*
X79952220Y-143262000D02*
X79952220Y-149610000D01*
X79952220Y-152490000D02*
X79952220Y-158838000D01*
X79992220Y-143286000D02*
X79992220Y-149610000D01*
X79992220Y-152490000D02*
X79992220Y-158814000D01*
X80032220Y-143311000D02*
X80032220Y-149610000D01*
X80032220Y-152490000D02*
X80032220Y-158789000D01*
X80072220Y-143335000D02*
X80072220Y-149610000D01*
X80072220Y-152490000D02*
X80072220Y-158765000D01*
X80112220Y-143360000D02*
X80112220Y-149610000D01*
X80112220Y-152490000D02*
X80112220Y-158740000D01*
X80152220Y-143385000D02*
X80152220Y-149610000D01*
X80152220Y-152490000D02*
X80152220Y-158715000D01*
X80192220Y-143411000D02*
X80192220Y-149610000D01*
X80192220Y-152490000D02*
X80192220Y-158689000D01*
X80232220Y-143437000D02*
X80232220Y-149610000D01*
X80232220Y-152490000D02*
X80232220Y-158663000D01*
X80272220Y-143463000D02*
X80272220Y-149610000D01*
X80272220Y-152490000D02*
X80272220Y-158637000D01*
X80312220Y-143489000D02*
X80312220Y-149610000D01*
X80312220Y-152490000D02*
X80312220Y-158611000D01*
X80352220Y-143516000D02*
X80352220Y-149610000D01*
X80352220Y-152490000D02*
X80352220Y-158584000D01*
X80392220Y-143543000D02*
X80392220Y-149610000D01*
X80392220Y-152490000D02*
X80392220Y-158557000D01*
X80432220Y-143570000D02*
X80432220Y-149610000D01*
X80432220Y-152490000D02*
X80432220Y-158530000D01*
X80472220Y-143598000D02*
X80472220Y-158502000D01*
X80512220Y-143626000D02*
X80512220Y-158474000D01*
X80552220Y-143654000D02*
X80552220Y-158446000D01*
X80592220Y-143682000D02*
X80592220Y-158418000D01*
X80632220Y-143711000D02*
X80632220Y-158389000D01*
X80672220Y-143741000D02*
X80672220Y-158359000D01*
X80712220Y-143770000D02*
X80712220Y-158330000D01*
X80752220Y-143800000D02*
X80752220Y-158300000D01*
X80792220Y-143830000D02*
X80792220Y-158270000D01*
X80832220Y-143861000D02*
X80832220Y-158239000D01*
X80872220Y-143892000D02*
X80872220Y-158208000D01*
X80912220Y-143923000D02*
X80912220Y-158177000D01*
X80952220Y-143955000D02*
X80952220Y-158145000D01*
X80992220Y-143987000D02*
X80992220Y-158113000D01*
X81032220Y-144019000D02*
X81032220Y-158081000D01*
X81072220Y-144052000D02*
X81072220Y-158048000D01*
X81112220Y-144085000D02*
X81112220Y-158015000D01*
X81152220Y-144119000D02*
X81152220Y-157981000D01*
X81192220Y-144153000D02*
X81192220Y-157947000D01*
X81232220Y-144187000D02*
X81232220Y-157913000D01*
X81272220Y-144222000D02*
X81272220Y-157878000D01*
X81312220Y-144257000D02*
X81312220Y-157843000D01*
X81352220Y-144292000D02*
X81352220Y-157808000D01*
X81392220Y-144328000D02*
X81392220Y-157772000D01*
X81432220Y-144365000D02*
X81432220Y-157735000D01*
X81472220Y-144402000D02*
X81472220Y-157698000D01*
X81512220Y-144439000D02*
X81512220Y-157661000D01*
X81552220Y-144477000D02*
X81552220Y-157623000D01*
X81592220Y-144515000D02*
X81592220Y-157585000D01*
X81632220Y-144554000D02*
X81632220Y-157546000D01*
X81672220Y-144593000D02*
X81672220Y-157507000D01*
X81712220Y-144632000D02*
X81712220Y-157468000D01*
X81752220Y-144673000D02*
X81752220Y-157427000D01*
X81792220Y-144713000D02*
X81792220Y-157387000D01*
X81832220Y-144754000D02*
X81832220Y-157346000D01*
X81872220Y-144796000D02*
X81872220Y-157304000D01*
X81912220Y-144838000D02*
X81912220Y-157262000D01*
X81952220Y-144881000D02*
X81952220Y-157219000D01*
X81992220Y-144924000D02*
X81992220Y-157176000D01*
X82032220Y-144968000D02*
X82032220Y-157132000D01*
X82072220Y-145013000D02*
X82072220Y-157087000D01*
X82112220Y-145058000D02*
X82112220Y-157042000D01*
X82152220Y-145103000D02*
X82152220Y-156997000D01*
X82192220Y-145150000D02*
X82192220Y-156950000D01*
X82232220Y-145197000D02*
X82232220Y-156903000D01*
X82272220Y-145244000D02*
X82272220Y-156856000D01*
X82312220Y-145292000D02*
X82312220Y-156808000D01*
X82352220Y-145341000D02*
X82352220Y-156759000D01*
X82392220Y-145391000D02*
X82392220Y-156709000D01*
X82432220Y-145441000D02*
X82432220Y-156659000D01*
X82472220Y-145492000D02*
X82472220Y-156608000D01*
X82512220Y-145544000D02*
X82512220Y-156556000D01*
X82552220Y-145597000D02*
X82552220Y-156503000D01*
X82592220Y-145650000D02*
X82592220Y-156450000D01*
X82632220Y-145704000D02*
X82632220Y-156396000D01*
X82672220Y-145759000D02*
X82672220Y-156341000D01*
X82712220Y-145815000D02*
X82712220Y-156285000D01*
X82752220Y-145872000D02*
X82752220Y-156228000D01*
X82792220Y-145930000D02*
X82792220Y-156170000D01*
X82832220Y-145989000D02*
X82832220Y-156111000D01*
X82872220Y-146049000D02*
X82872220Y-156051000D01*
X82912220Y-146110000D02*
X82912220Y-155990000D01*
X82952220Y-146171000D02*
X82952220Y-155929000D01*
X82992220Y-146234000D02*
X82992220Y-155866000D01*
X83032220Y-146299000D02*
X83032220Y-155801000D01*
X83072220Y-146364000D02*
X83072220Y-155736000D01*
X83112220Y-146431000D02*
X83112220Y-155669000D01*
X83152220Y-146499000D02*
X83152220Y-155601000D01*
X83192220Y-146568000D02*
X83192220Y-155532000D01*
X83232220Y-146639000D02*
X83232220Y-155461000D01*
X83272220Y-146711000D02*
X83272220Y-155389000D01*
X83312220Y-146785000D02*
X83312220Y-155315000D01*
X83352220Y-146861000D02*
X83352220Y-155239000D01*
X83392220Y-146938000D02*
X83392220Y-155162000D01*
X83432220Y-147017000D02*
X83432220Y-155083000D01*
X83472220Y-147098000D02*
X83472220Y-155002000D01*
X83512220Y-147181000D02*
X83512220Y-154919000D01*
X83552220Y-147267000D02*
X83552220Y-154833000D01*
X83592220Y-147355000D02*
X83592220Y-154745000D01*
X83632220Y-147445000D02*
X83632220Y-154655000D01*
X83672220Y-147538000D02*
X83672220Y-154562000D01*
X83712220Y-147634000D02*
X83712220Y-154466000D01*
X83752220Y-147734000D02*
X83752220Y-154366000D01*
X83792220Y-147837000D02*
X83792220Y-154263000D01*
X83832220Y-147943000D02*
X83832220Y-154157000D01*
X83872220Y-148054000D02*
X83872220Y-154046000D01*
X83912220Y-148170000D02*
X83912220Y-153930000D01*
X83952220Y-148291000D02*
X83952220Y-153809000D01*
X83992220Y-148419000D02*
X83992220Y-153681000D01*
X84032220Y-148553000D02*
X84032220Y-153547000D01*
X84072220Y-148695000D02*
X84072220Y-153405000D01*
X84112220Y-148848000D02*
X84112220Y-153252000D01*
X84152220Y-149012000D02*
X84152220Y-153088000D01*
X84192220Y-149191000D02*
X84192220Y-152909000D01*
X84232220Y-149389000D02*
X84232220Y-152711000D01*
X84272220Y-149615000D02*
X84272220Y-152485000D01*
X84312220Y-149885000D02*
X84312220Y-152215000D01*
X84352220Y-150237000D02*
X84352220Y-151863000D01*
X84392220Y-151090000D02*
X84392220Y-151010000D01*
X84392220Y-151050000D02*
G75*
G02*
X66152220Y-151050000I-9120000J0D01*
G01*
X66152220Y-151050000D02*
G75*
G02*
X84392220Y-151050000I9120000J0D01*
G01*
%TO.C,D1*%
X86970000Y-138030000D02*
X92410000Y-138030000D01*
X86970000Y-138360000D02*
X86970000Y-138030000D01*
X86970000Y-140640000D02*
X86970000Y-140970000D01*
X86970000Y-140970000D02*
X92410000Y-140970000D01*
X87750000Y-138030000D02*
X87750000Y-140970000D01*
X87870000Y-138030000D02*
X87870000Y-140970000D01*
X87990000Y-138030000D02*
X87990000Y-140970000D01*
X92410000Y-138030000D02*
X92410000Y-138360000D01*
X92410000Y-140970000D02*
X92410000Y-140640000D01*
%TO.C,C12*%
X112761781Y-114222729D02*
X112761781Y-113772729D01*
X112986781Y-113997729D02*
X112536781Y-113997729D01*
X112569234Y-113722729D02*
G75*
G02*
X112569234Y-111602729I-2119741J1060000D01*
G01*
%TO.C,R2*%
X115000000Y-140490000D02*
X115000000Y-141260000D01*
X115000000Y-148570000D02*
X115000000Y-147800000D01*
X116370000Y-141260000D02*
X113630000Y-141260000D01*
X113630000Y-147800000D01*
X116370000Y-147800000D01*
X116370000Y-141260000D01*
%TO.C,H1*%
X92039636Y-117137070D02*
X94070463Y-118745631D01*
X92039636Y-127831164D02*
X94070463Y-126222603D01*
X92249567Y-119251873D02*
X93717673Y-119508792D01*
X92249567Y-125716361D02*
X93717673Y-125459442D01*
X92671236Y-116289311D02*
X95796762Y-118477179D01*
X92671236Y-128678923D02*
X95796762Y-126491055D01*
X93890958Y-120884117D02*
X92021744Y-119919081D01*
X93890958Y-124084117D02*
X92021744Y-125049153D01*
X96028736Y-116729311D02*
X96429838Y-118017241D01*
X96028736Y-128238923D02*
X96429838Y-126950993D01*
X96817327Y-116319314D02*
X99063850Y-119414566D01*
X96817327Y-128648920D02*
X99063850Y-125553668D01*
X100050958Y-119094102D02*
X100050958Y-116784112D01*
X100050958Y-125874132D02*
X100050958Y-128184122D01*
X101350958Y-116784117D02*
X101350958Y-121699126D01*
X101350958Y-121699126D02*
X109290958Y-121699126D01*
X101350958Y-123269108D02*
X109290958Y-123269108D01*
X101350958Y-128184117D02*
X101350958Y-123269108D01*
X117230958Y-116784117D02*
X117230958Y-121699126D01*
X117230958Y-121699126D02*
X109290958Y-121699126D01*
X117230958Y-123269108D02*
X109290958Y-123269108D01*
X117230958Y-128184117D02*
X117230958Y-123269108D01*
X118530958Y-119094102D02*
X118530958Y-116784112D01*
X118530958Y-125874132D02*
X118530958Y-128184122D01*
X121764589Y-116319314D02*
X119518066Y-119414566D01*
X121764589Y-128648920D02*
X119518066Y-125553668D01*
X122553180Y-116729311D02*
X122152078Y-118017241D01*
X122553180Y-128238923D02*
X122152078Y-126950993D01*
X124690958Y-120884117D02*
X126560172Y-119919081D01*
X124690958Y-124084117D02*
X126560172Y-125049153D01*
X125910680Y-116289311D02*
X122785154Y-118477179D01*
X125910680Y-128678923D02*
X122785154Y-126491055D01*
X126332349Y-119251873D02*
X124864243Y-119508792D01*
X126332349Y-125716361D02*
X124864243Y-125459442D01*
X126542280Y-117137070D02*
X124511453Y-118745631D01*
X126542280Y-127831164D02*
X124511453Y-126222603D01*
X92021744Y-119919081D02*
G75*
G02*
X92249568Y-119251867I166314J315714D01*
G01*
X92039636Y-117137070D02*
G75*
G02*
X92671230Y-116289319I320122J420653D01*
G01*
X92249567Y-125716361D02*
G75*
G02*
X92021790Y-125049241I-61509J351444D01*
G01*
X92671236Y-128678923D02*
G75*
G02*
X92039630Y-127831156I-311478J427106D01*
G01*
X93717673Y-125459442D02*
G75*
G02*
X94070480Y-126222624I74985J-428475D01*
G01*
X94070463Y-118745631D02*
G75*
G02*
X93717678Y-119508766I-277805J-334686D01*
G01*
X95796762Y-126491055D02*
G75*
G02*
X96429861Y-126951000I237296J-339062D01*
G01*
X96028736Y-116729311D02*
G75*
G02*
X96817328Y-116319313I424942J146054D01*
G01*
X96429838Y-118017241D02*
G75*
G02*
X95796761Y-118477180I-395760J-120926D01*
G01*
X96817327Y-128648920D02*
G75*
G02*
X96028738Y-128238924I-363669J263903D01*
G01*
X99063850Y-125553668D02*
G75*
G02*
X100050901Y-125874132I441508J-320449D01*
G01*
X100050958Y-116784112D02*
G75*
G02*
X101350958Y-116784117I650000J-5D01*
G01*
X100050958Y-119094102D02*
G75*
G02*
X99063848Y-119414567I-545560J-45D01*
G01*
X101350958Y-128184117D02*
G75*
G02*
X100050958Y-128184122I-650000J0D01*
G01*
X117230958Y-116784117D02*
G75*
G02*
X118530958Y-116784112I650000J-10D01*
G01*
X118530958Y-125874132D02*
G75*
G02*
X119518066Y-125553668I545568J17D01*
G01*
X118530958Y-128184122D02*
G75*
G02*
X117230958Y-128184117I-650000J15D01*
G01*
X119518066Y-119414566D02*
G75*
G02*
X118530957Y-119094102I-441539J320452D01*
G01*
X121764589Y-116319314D02*
G75*
G02*
X122553180Y-116729311I363652J-263938D01*
G01*
X122152078Y-126950993D02*
G75*
G02*
X122785154Y-126491055I395762J120922D01*
G01*
X122553180Y-128238923D02*
G75*
G02*
X121764589Y-128648920I-424939J-146059D01*
G01*
X122785154Y-118477179D02*
G75*
G02*
X122152078Y-118017241I-237314J339016D01*
G01*
X124511453Y-126222603D02*
G75*
G02*
X124864243Y-125459442I277808J334700D01*
G01*
X124864243Y-119508792D02*
G75*
G02*
X124511453Y-118745631I-74984J428460D01*
G01*
X125910680Y-116289311D02*
G75*
G02*
X126542280Y-117137070I311507J-427078D01*
G01*
X126332349Y-119251873D02*
G75*
G02*
X126560172Y-119919081I61512J-351496D01*
G01*
X126542280Y-127831164D02*
G75*
G02*
X125910680Y-128678923I-320093J-420681D01*
G01*
X126560172Y-125049153D02*
G75*
G02*
X126332349Y-125716361I-166311J-315712D01*
G01*
%TO.C,C2*%
X65512780Y-126385000D02*
X67312780Y-126385000D01*
X66412780Y-125485000D02*
X66412780Y-127285000D01*
X75272220Y-122420000D02*
X75272220Y-140580000D01*
X75312220Y-122420000D02*
X75312220Y-140580000D01*
X75352220Y-122420000D02*
X75352220Y-140580000D01*
X75392220Y-122421000D02*
X75392220Y-140579000D01*
X75432220Y-122421000D02*
X75432220Y-140579000D01*
X75472220Y-122422000D02*
X75472220Y-140578000D01*
X75512220Y-122423000D02*
X75512220Y-140577000D01*
X75552220Y-122424000D02*
X75552220Y-140576000D01*
X75592220Y-122426000D02*
X75592220Y-140574000D01*
X75632220Y-122427000D02*
X75632220Y-140573000D01*
X75672220Y-122429000D02*
X75672220Y-140571000D01*
X75712220Y-122431000D02*
X75712220Y-140569000D01*
X75752220Y-122433000D02*
X75752220Y-140567000D01*
X75792220Y-122435000D02*
X75792220Y-140565000D01*
X75832220Y-122437000D02*
X75832220Y-140563000D01*
X75872220Y-122440000D02*
X75872220Y-140560000D01*
X75912220Y-122442000D02*
X75912220Y-140558000D01*
X75952220Y-122445000D02*
X75952220Y-140555000D01*
X75992220Y-122448000D02*
X75992220Y-140552000D01*
X76032220Y-122452000D02*
X76032220Y-140548000D01*
X76072220Y-122455000D02*
X76072220Y-140545000D01*
X76112220Y-122459000D02*
X76112220Y-140541000D01*
X76152220Y-122463000D02*
X76152220Y-140537000D01*
X76192220Y-122467000D02*
X76192220Y-140533000D01*
X76232220Y-122471000D02*
X76232220Y-140529000D01*
X76272220Y-122475000D02*
X76272220Y-140525000D01*
X76312220Y-122479000D02*
X76312220Y-140521000D01*
X76352220Y-122484000D02*
X76352220Y-140516000D01*
X76392220Y-122489000D02*
X76392220Y-140511000D01*
X76432220Y-122494000D02*
X76432220Y-140506000D01*
X76472220Y-122499000D02*
X76472220Y-140501000D01*
X76512220Y-122505000D02*
X76512220Y-140495000D01*
X76552220Y-122510000D02*
X76552220Y-140490000D01*
X76592220Y-122516000D02*
X76592220Y-140484000D01*
X76632220Y-122522000D02*
X76632220Y-140478000D01*
X76672220Y-122528000D02*
X76672220Y-140472000D01*
X76712220Y-122534000D02*
X76712220Y-140466000D01*
X76752220Y-122541000D02*
X76752220Y-140459000D01*
X76792220Y-122548000D02*
X76792220Y-140452000D01*
X76832220Y-122554000D02*
X76832220Y-140446000D01*
X76872220Y-122561000D02*
X76872220Y-140439000D01*
X76912220Y-122569000D02*
X76912220Y-140431000D01*
X76952220Y-122576000D02*
X76952220Y-140424000D01*
X76992220Y-122584000D02*
X76992220Y-140416000D01*
X77032220Y-122591000D02*
X77032220Y-140409000D01*
X77072220Y-122599000D02*
X77072220Y-140401000D01*
X77112220Y-122608000D02*
X77112220Y-140392000D01*
X77152220Y-122616000D02*
X77152220Y-140384000D01*
X77192220Y-122624000D02*
X77192220Y-140376000D01*
X77232220Y-122633000D02*
X77232220Y-140367000D01*
X77272220Y-122642000D02*
X77272220Y-140358000D01*
X77312220Y-122651000D02*
X77312220Y-140349000D01*
X77352220Y-122660000D02*
X77352220Y-140340000D01*
X77392220Y-122670000D02*
X77392220Y-140330000D01*
X77432220Y-122679000D02*
X77432220Y-140321000D01*
X77472220Y-122689000D02*
X77472220Y-140311000D01*
X77512220Y-122699000D02*
X77512220Y-140301000D01*
X77552220Y-122710000D02*
X77552220Y-140290000D01*
X77592220Y-122720000D02*
X77592220Y-130060000D01*
X77592220Y-132940000D02*
X77592220Y-140280000D01*
X77632220Y-122731000D02*
X77632220Y-130060000D01*
X77632220Y-132940000D02*
X77632220Y-140269000D01*
X77672220Y-122741000D02*
X77672220Y-130060000D01*
X77672220Y-132940000D02*
X77672220Y-140259000D01*
X77712220Y-122752000D02*
X77712220Y-130060000D01*
X77712220Y-132940000D02*
X77712220Y-140248000D01*
X77752220Y-122764000D02*
X77752220Y-130060000D01*
X77752220Y-132940000D02*
X77752220Y-140236000D01*
X77792220Y-122775000D02*
X77792220Y-130060000D01*
X77792220Y-132940000D02*
X77792220Y-140225000D01*
X77832220Y-122787000D02*
X77832220Y-130060000D01*
X77832220Y-132940000D02*
X77832220Y-140213000D01*
X77872220Y-122798000D02*
X77872220Y-130060000D01*
X77872220Y-132940000D02*
X77872220Y-140202000D01*
X77912220Y-122810000D02*
X77912220Y-130060000D01*
X77912220Y-132940000D02*
X77912220Y-140190000D01*
X77952220Y-122823000D02*
X77952220Y-130060000D01*
X77952220Y-132940000D02*
X77952220Y-140177000D01*
X77992220Y-122835000D02*
X77992220Y-130060000D01*
X77992220Y-132940000D02*
X77992220Y-140165000D01*
X78032220Y-122848000D02*
X78032220Y-130060000D01*
X78032220Y-132940000D02*
X78032220Y-140152000D01*
X78072220Y-122860000D02*
X78072220Y-130060000D01*
X78072220Y-132940000D02*
X78072220Y-140140000D01*
X78112220Y-122873000D02*
X78112220Y-130060000D01*
X78112220Y-132940000D02*
X78112220Y-140127000D01*
X78152220Y-122887000D02*
X78152220Y-130060000D01*
X78152220Y-132940000D02*
X78152220Y-140113000D01*
X78192220Y-122900000D02*
X78192220Y-130060000D01*
X78192220Y-132940000D02*
X78192220Y-140100000D01*
X78232220Y-122914000D02*
X78232220Y-130060000D01*
X78232220Y-132940000D02*
X78232220Y-140086000D01*
X78272220Y-122928000D02*
X78272220Y-130060000D01*
X78272220Y-132940000D02*
X78272220Y-140072000D01*
X78312220Y-122942000D02*
X78312220Y-130060000D01*
X78312220Y-132940000D02*
X78312220Y-140058000D01*
X78352220Y-122956000D02*
X78352220Y-130060000D01*
X78352220Y-132940000D02*
X78352220Y-140044000D01*
X78392220Y-122970000D02*
X78392220Y-130060000D01*
X78392220Y-132940000D02*
X78392220Y-140030000D01*
X78432220Y-122985000D02*
X78432220Y-130060000D01*
X78432220Y-132940000D02*
X78432220Y-140015000D01*
X78472220Y-123000000D02*
X78472220Y-130060000D01*
X78472220Y-132940000D02*
X78472220Y-140000000D01*
X78512220Y-123015000D02*
X78512220Y-130060000D01*
X78512220Y-132940000D02*
X78512220Y-139985000D01*
X78552220Y-123030000D02*
X78552220Y-130060000D01*
X78552220Y-132940000D02*
X78552220Y-139970000D01*
X78592220Y-123046000D02*
X78592220Y-130060000D01*
X78592220Y-132940000D02*
X78592220Y-139954000D01*
X78632220Y-123062000D02*
X78632220Y-130060000D01*
X78632220Y-132940000D02*
X78632220Y-139938000D01*
X78672220Y-123077000D02*
X78672220Y-130060000D01*
X78672220Y-132940000D02*
X78672220Y-139923000D01*
X78712220Y-123094000D02*
X78712220Y-130060000D01*
X78712220Y-132940000D02*
X78712220Y-139906000D01*
X78752220Y-123110000D02*
X78752220Y-130060000D01*
X78752220Y-132940000D02*
X78752220Y-139890000D01*
X78792220Y-123127000D02*
X78792220Y-130060000D01*
X78792220Y-132940000D02*
X78792220Y-139873000D01*
X78832220Y-123144000D02*
X78832220Y-130060000D01*
X78832220Y-132940000D02*
X78832220Y-139856000D01*
X78872220Y-123161000D02*
X78872220Y-130060000D01*
X78872220Y-132940000D02*
X78872220Y-139839000D01*
X78912220Y-123178000D02*
X78912220Y-130060000D01*
X78912220Y-132940000D02*
X78912220Y-139822000D01*
X78952220Y-123195000D02*
X78952220Y-130060000D01*
X78952220Y-132940000D02*
X78952220Y-139805000D01*
X78992220Y-123213000D02*
X78992220Y-130060000D01*
X78992220Y-132940000D02*
X78992220Y-139787000D01*
X79032220Y-123231000D02*
X79032220Y-130060000D01*
X79032220Y-132940000D02*
X79032220Y-139769000D01*
X79072220Y-123249000D02*
X79072220Y-130060000D01*
X79072220Y-132940000D02*
X79072220Y-139751000D01*
X79112220Y-123268000D02*
X79112220Y-130060000D01*
X79112220Y-132940000D02*
X79112220Y-139732000D01*
X79152220Y-123287000D02*
X79152220Y-130060000D01*
X79152220Y-132940000D02*
X79152220Y-139713000D01*
X79192220Y-123305000D02*
X79192220Y-130060000D01*
X79192220Y-132940000D02*
X79192220Y-139695000D01*
X79232220Y-123325000D02*
X79232220Y-130060000D01*
X79232220Y-132940000D02*
X79232220Y-139675000D01*
X79272220Y-123344000D02*
X79272220Y-130060000D01*
X79272220Y-132940000D02*
X79272220Y-139656000D01*
X79312220Y-123364000D02*
X79312220Y-130060000D01*
X79312220Y-132940000D02*
X79312220Y-139636000D01*
X79352220Y-123384000D02*
X79352220Y-130060000D01*
X79352220Y-132940000D02*
X79352220Y-139616000D01*
X79392220Y-123404000D02*
X79392220Y-130060000D01*
X79392220Y-132940000D02*
X79392220Y-139596000D01*
X79432220Y-123424000D02*
X79432220Y-130060000D01*
X79432220Y-132940000D02*
X79432220Y-139576000D01*
X79472220Y-123445000D02*
X79472220Y-130060000D01*
X79472220Y-132940000D02*
X79472220Y-139555000D01*
X79512220Y-123466000D02*
X79512220Y-130060000D01*
X79512220Y-132940000D02*
X79512220Y-139534000D01*
X79552220Y-123487000D02*
X79552220Y-130060000D01*
X79552220Y-132940000D02*
X79552220Y-139513000D01*
X79592220Y-123508000D02*
X79592220Y-130060000D01*
X79592220Y-132940000D02*
X79592220Y-139492000D01*
X79632220Y-123530000D02*
X79632220Y-130060000D01*
X79632220Y-132940000D02*
X79632220Y-139470000D01*
X79672220Y-123552000D02*
X79672220Y-130060000D01*
X79672220Y-132940000D02*
X79672220Y-139448000D01*
X79712220Y-123574000D02*
X79712220Y-130060000D01*
X79712220Y-132940000D02*
X79712220Y-139426000D01*
X79752220Y-123596000D02*
X79752220Y-130060000D01*
X79752220Y-132940000D02*
X79752220Y-139404000D01*
X79792220Y-123619000D02*
X79792220Y-130060000D01*
X79792220Y-132940000D02*
X79792220Y-139381000D01*
X79832220Y-123642000D02*
X79832220Y-130060000D01*
X79832220Y-132940000D02*
X79832220Y-139358000D01*
X79872220Y-123665000D02*
X79872220Y-130060000D01*
X79872220Y-132940000D02*
X79872220Y-139335000D01*
X79912220Y-123689000D02*
X79912220Y-130060000D01*
X79912220Y-132940000D02*
X79912220Y-139311000D01*
X79952220Y-123712000D02*
X79952220Y-130060000D01*
X79952220Y-132940000D02*
X79952220Y-139288000D01*
X79992220Y-123736000D02*
X79992220Y-130060000D01*
X79992220Y-132940000D02*
X79992220Y-139264000D01*
X80032220Y-123761000D02*
X80032220Y-130060000D01*
X80032220Y-132940000D02*
X80032220Y-139239000D01*
X80072220Y-123785000D02*
X80072220Y-130060000D01*
X80072220Y-132940000D02*
X80072220Y-139215000D01*
X80112220Y-123810000D02*
X80112220Y-130060000D01*
X80112220Y-132940000D02*
X80112220Y-139190000D01*
X80152220Y-123835000D02*
X80152220Y-130060000D01*
X80152220Y-132940000D02*
X80152220Y-139165000D01*
X80192220Y-123861000D02*
X80192220Y-130060000D01*
X80192220Y-132940000D02*
X80192220Y-139139000D01*
X80232220Y-123887000D02*
X80232220Y-130060000D01*
X80232220Y-132940000D02*
X80232220Y-139113000D01*
X80272220Y-123913000D02*
X80272220Y-130060000D01*
X80272220Y-132940000D02*
X80272220Y-139087000D01*
X80312220Y-123939000D02*
X80312220Y-130060000D01*
X80312220Y-132940000D02*
X80312220Y-139061000D01*
X80352220Y-123966000D02*
X80352220Y-130060000D01*
X80352220Y-132940000D02*
X80352220Y-139034000D01*
X80392220Y-123993000D02*
X80392220Y-130060000D01*
X80392220Y-132940000D02*
X80392220Y-139007000D01*
X80432220Y-124020000D02*
X80432220Y-130060000D01*
X80432220Y-132940000D02*
X80432220Y-138980000D01*
X80472220Y-124048000D02*
X80472220Y-138952000D01*
X80512220Y-124076000D02*
X80512220Y-138924000D01*
X80552220Y-124104000D02*
X80552220Y-138896000D01*
X80592220Y-124132000D02*
X80592220Y-138868000D01*
X80632220Y-124161000D02*
X80632220Y-138839000D01*
X80672220Y-124191000D02*
X80672220Y-138809000D01*
X80712220Y-124220000D02*
X80712220Y-138780000D01*
X80752220Y-124250000D02*
X80752220Y-138750000D01*
X80792220Y-124280000D02*
X80792220Y-138720000D01*
X80832220Y-124311000D02*
X80832220Y-138689000D01*
X80872220Y-124342000D02*
X80872220Y-138658000D01*
X80912220Y-124373000D02*
X80912220Y-138627000D01*
X80952220Y-124405000D02*
X80952220Y-138595000D01*
X80992220Y-124437000D02*
X80992220Y-138563000D01*
X81032220Y-124469000D02*
X81032220Y-138531000D01*
X81072220Y-124502000D02*
X81072220Y-138498000D01*
X81112220Y-124535000D02*
X81112220Y-138465000D01*
X81152220Y-124569000D02*
X81152220Y-138431000D01*
X81192220Y-124603000D02*
X81192220Y-138397000D01*
X81232220Y-124637000D02*
X81232220Y-138363000D01*
X81272220Y-124672000D02*
X81272220Y-138328000D01*
X81312220Y-124707000D02*
X81312220Y-138293000D01*
X81352220Y-124742000D02*
X81352220Y-138258000D01*
X81392220Y-124778000D02*
X81392220Y-138222000D01*
X81432220Y-124815000D02*
X81432220Y-138185000D01*
X81472220Y-124852000D02*
X81472220Y-138148000D01*
X81512220Y-124889000D02*
X81512220Y-138111000D01*
X81552220Y-124927000D02*
X81552220Y-138073000D01*
X81592220Y-124965000D02*
X81592220Y-138035000D01*
X81632220Y-125004000D02*
X81632220Y-137996000D01*
X81672220Y-125043000D02*
X81672220Y-137957000D01*
X81712220Y-125082000D02*
X81712220Y-137918000D01*
X81752220Y-125123000D02*
X81752220Y-137877000D01*
X81792220Y-125163000D02*
X81792220Y-137837000D01*
X81832220Y-125204000D02*
X81832220Y-137796000D01*
X81872220Y-125246000D02*
X81872220Y-137754000D01*
X81912220Y-125288000D02*
X81912220Y-137712000D01*
X81952220Y-125331000D02*
X81952220Y-137669000D01*
X81992220Y-125374000D02*
X81992220Y-137626000D01*
X82032220Y-125418000D02*
X82032220Y-137582000D01*
X82072220Y-125463000D02*
X82072220Y-137537000D01*
X82112220Y-125508000D02*
X82112220Y-137492000D01*
X82152220Y-125553000D02*
X82152220Y-137447000D01*
X82192220Y-125600000D02*
X82192220Y-137400000D01*
X82232220Y-125647000D02*
X82232220Y-137353000D01*
X82272220Y-125694000D02*
X82272220Y-137306000D01*
X82312220Y-125742000D02*
X82312220Y-137258000D01*
X82352220Y-125791000D02*
X82352220Y-137209000D01*
X82392220Y-125841000D02*
X82392220Y-137159000D01*
X82432220Y-125891000D02*
X82432220Y-137109000D01*
X82472220Y-125942000D02*
X82472220Y-137058000D01*
X82512220Y-125994000D02*
X82512220Y-137006000D01*
X82552220Y-126047000D02*
X82552220Y-136953000D01*
X82592220Y-126100000D02*
X82592220Y-136900000D01*
X82632220Y-126154000D02*
X82632220Y-136846000D01*
X82672220Y-126209000D02*
X82672220Y-136791000D01*
X82712220Y-126265000D02*
X82712220Y-136735000D01*
X82752220Y-126322000D02*
X82752220Y-136678000D01*
X82792220Y-126380000D02*
X82792220Y-136620000D01*
X82832220Y-126439000D02*
X82832220Y-136561000D01*
X82872220Y-126499000D02*
X82872220Y-136501000D01*
X82912220Y-126560000D02*
X82912220Y-136440000D01*
X82952220Y-126621000D02*
X82952220Y-136379000D01*
X82992220Y-126684000D02*
X82992220Y-136316000D01*
X83032220Y-126749000D02*
X83032220Y-136251000D01*
X83072220Y-126814000D02*
X83072220Y-136186000D01*
X83112220Y-126881000D02*
X83112220Y-136119000D01*
X83152220Y-126949000D02*
X83152220Y-136051000D01*
X83192220Y-127018000D02*
X83192220Y-135982000D01*
X83232220Y-127089000D02*
X83232220Y-135911000D01*
X83272220Y-127161000D02*
X83272220Y-135839000D01*
X83312220Y-127235000D02*
X83312220Y-135765000D01*
X83352220Y-127311000D02*
X83352220Y-135689000D01*
X83392220Y-127388000D02*
X83392220Y-135612000D01*
X83432220Y-127467000D02*
X83432220Y-135533000D01*
X83472220Y-127548000D02*
X83472220Y-135452000D01*
X83512220Y-127631000D02*
X83512220Y-135369000D01*
X83552220Y-127717000D02*
X83552220Y-135283000D01*
X83592220Y-127805000D02*
X83592220Y-135195000D01*
X83632220Y-127895000D02*
X83632220Y-135105000D01*
X83672220Y-127988000D02*
X83672220Y-135012000D01*
X83712220Y-128084000D02*
X83712220Y-134916000D01*
X83752220Y-128184000D02*
X83752220Y-134816000D01*
X83792220Y-128287000D02*
X83792220Y-134713000D01*
X83832220Y-128393000D02*
X83832220Y-134607000D01*
X83872220Y-128504000D02*
X83872220Y-134496000D01*
X83912220Y-128620000D02*
X83912220Y-134380000D01*
X83952220Y-128741000D02*
X83952220Y-134259000D01*
X83992220Y-128869000D02*
X83992220Y-134131000D01*
X84032220Y-129003000D02*
X84032220Y-133997000D01*
X84072220Y-129145000D02*
X84072220Y-133855000D01*
X84112220Y-129298000D02*
X84112220Y-133702000D01*
X84152220Y-129462000D02*
X84152220Y-133538000D01*
X84192220Y-129641000D02*
X84192220Y-133359000D01*
X84232220Y-129839000D02*
X84232220Y-133161000D01*
X84272220Y-130065000D02*
X84272220Y-132935000D01*
X84312220Y-130335000D02*
X84312220Y-132665000D01*
X84352220Y-130687000D02*
X84352220Y-132313000D01*
X84392220Y-131540000D02*
X84392220Y-131460000D01*
X84392220Y-131500000D02*
G75*
G02*
X66152220Y-131500000I-9120000J0D01*
G01*
X66152220Y-131500000D02*
G75*
G02*
X84392220Y-131500000I9120000J0D01*
G01*
%TO.C,R1*%
X110000000Y-140410000D02*
X110000000Y-141180000D01*
X110000000Y-148490000D02*
X110000000Y-147720000D01*
X108630000Y-147720000D02*
X111370000Y-147720000D01*
X111370000Y-141180000D01*
X108630000Y-141180000D01*
X108630000Y-147720000D01*
%TO.C,C7*%
X112769305Y-76525991D02*
X112769305Y-76075991D01*
X112994305Y-76300991D02*
X112544305Y-76300991D01*
X112576758Y-76025991D02*
G75*
G02*
X112576758Y-73905991I-2119741J1060000D01*
G01*
%TO.C,U2*%
X104090000Y-53640000D02*
X114310000Y-53640000D01*
X104090000Y-58260000D02*
X104090000Y-53640000D01*
X107350000Y-58260000D02*
X107350000Y-56880000D01*
X111050000Y-58260000D02*
X111050000Y-56880000D01*
X114310000Y-53640000D02*
X114310000Y-58260000D01*
X114310000Y-56880000D02*
X104090000Y-56880000D01*
X114310000Y-58260000D02*
X104090000Y-58260000D01*
%TO.C,U1*%
X104085134Y-85471420D02*
X114305134Y-85471420D01*
X104085134Y-90091420D02*
X104085134Y-85471420D01*
X107345134Y-90091420D02*
X107345134Y-88711420D01*
X111045134Y-90091420D02*
X111045134Y-88711420D01*
X114305134Y-85471420D02*
X114305134Y-90091420D01*
X114305134Y-88711420D02*
X104085134Y-88711420D01*
X114305134Y-90091420D02*
X104085134Y-90091420D01*
%TO.C,C11*%
X112801621Y-108064091D02*
X112801621Y-107614091D01*
X113026621Y-107839091D02*
X112576621Y-107839091D01*
X112609074Y-107564091D02*
G75*
G02*
X112609074Y-105444091I-2119741J1060000D01*
G01*
%TO.C,C5*%
X66130000Y-72460000D02*
X66130000Y-72540000D01*
X66170000Y-73313000D02*
X66170000Y-71687000D01*
X66210000Y-73665000D02*
X66210000Y-71335000D01*
X66250000Y-73935000D02*
X66250000Y-71065000D01*
X66290000Y-74161000D02*
X66290000Y-70839000D01*
X66330000Y-74359000D02*
X66330000Y-70641000D01*
X66370000Y-74538000D02*
X66370000Y-70462000D01*
X66410000Y-74702000D02*
X66410000Y-70298000D01*
X66450000Y-74855000D02*
X66450000Y-70145000D01*
X66490000Y-74997000D02*
X66490000Y-70003000D01*
X66530000Y-75131000D02*
X66530000Y-69869000D01*
X66570000Y-75259000D02*
X66570000Y-69741000D01*
X66610000Y-75380000D02*
X66610000Y-69620000D01*
X66650000Y-75496000D02*
X66650000Y-69504000D01*
X66690000Y-75607000D02*
X66690000Y-69393000D01*
X66730000Y-75713000D02*
X66730000Y-69287000D01*
X66770000Y-75816000D02*
X66770000Y-69184000D01*
X66810000Y-75916000D02*
X66810000Y-69084000D01*
X66850000Y-76012000D02*
X66850000Y-68988000D01*
X66890000Y-76105000D02*
X66890000Y-68895000D01*
X66930000Y-76195000D02*
X66930000Y-68805000D01*
X66970000Y-76283000D02*
X66970000Y-68717000D01*
X67010000Y-76369000D02*
X67010000Y-68631000D01*
X67050000Y-76452000D02*
X67050000Y-68548000D01*
X67090000Y-76533000D02*
X67090000Y-68467000D01*
X67130000Y-76612000D02*
X67130000Y-68388000D01*
X67170000Y-76689000D02*
X67170000Y-68311000D01*
X67210000Y-76765000D02*
X67210000Y-68235000D01*
X67250000Y-76839000D02*
X67250000Y-68161000D01*
X67290000Y-76911000D02*
X67290000Y-68089000D01*
X67330000Y-76982000D02*
X67330000Y-68018000D01*
X67370000Y-77051000D02*
X67370000Y-67949000D01*
X67410000Y-77119000D02*
X67410000Y-67881000D01*
X67450000Y-77186000D02*
X67450000Y-67814000D01*
X67490000Y-77251000D02*
X67490000Y-67749000D01*
X67530000Y-77316000D02*
X67530000Y-67684000D01*
X67570000Y-77379000D02*
X67570000Y-67621000D01*
X67610000Y-77440000D02*
X67610000Y-67560000D01*
X67650000Y-77501000D02*
X67650000Y-67499000D01*
X67690000Y-77561000D02*
X67690000Y-67439000D01*
X67730000Y-77620000D02*
X67730000Y-67380000D01*
X67770000Y-77678000D02*
X67770000Y-67322000D01*
X67810000Y-77735000D02*
X67810000Y-67265000D01*
X67850000Y-77791000D02*
X67850000Y-67209000D01*
X67890000Y-77846000D02*
X67890000Y-67154000D01*
X67930000Y-77900000D02*
X67930000Y-67100000D01*
X67970000Y-77953000D02*
X67970000Y-67047000D01*
X68010000Y-78006000D02*
X68010000Y-66994000D01*
X68050000Y-78058000D02*
X68050000Y-66942000D01*
X68090000Y-78109000D02*
X68090000Y-66891000D01*
X68130000Y-78159000D02*
X68130000Y-66841000D01*
X68170000Y-78209000D02*
X68170000Y-66791000D01*
X68210000Y-78258000D02*
X68210000Y-66742000D01*
X68250000Y-78306000D02*
X68250000Y-66694000D01*
X68290000Y-78353000D02*
X68290000Y-66647000D01*
X68330000Y-78400000D02*
X68330000Y-66600000D01*
X68370000Y-78447000D02*
X68370000Y-66553000D01*
X68410000Y-78492000D02*
X68410000Y-66508000D01*
X68450000Y-78537000D02*
X68450000Y-66463000D01*
X68490000Y-78582000D02*
X68490000Y-66418000D01*
X68530000Y-78626000D02*
X68530000Y-66374000D01*
X68570000Y-78669000D02*
X68570000Y-66331000D01*
X68610000Y-78712000D02*
X68610000Y-66288000D01*
X68650000Y-78754000D02*
X68650000Y-66246000D01*
X68690000Y-78796000D02*
X68690000Y-66204000D01*
X68730000Y-78837000D02*
X68730000Y-66163000D01*
X68770000Y-78877000D02*
X68770000Y-66123000D01*
X68810000Y-78918000D02*
X68810000Y-66082000D01*
X68850000Y-78957000D02*
X68850000Y-66043000D01*
X68890000Y-78996000D02*
X68890000Y-66004000D01*
X68930000Y-79035000D02*
X68930000Y-65965000D01*
X68970000Y-79073000D02*
X68970000Y-65927000D01*
X69010000Y-79111000D02*
X69010000Y-65889000D01*
X69050000Y-79148000D02*
X69050000Y-65852000D01*
X69090000Y-79185000D02*
X69090000Y-65815000D01*
X69130000Y-79222000D02*
X69130000Y-65778000D01*
X69170000Y-79258000D02*
X69170000Y-65742000D01*
X69210000Y-79293000D02*
X69210000Y-65707000D01*
X69250000Y-79328000D02*
X69250000Y-65672000D01*
X69290000Y-79363000D02*
X69290000Y-65637000D01*
X69330000Y-79397000D02*
X69330000Y-65603000D01*
X69370000Y-79431000D02*
X69370000Y-65569000D01*
X69410000Y-79465000D02*
X69410000Y-65535000D01*
X69450000Y-79498000D02*
X69450000Y-65502000D01*
X69490000Y-79531000D02*
X69490000Y-65469000D01*
X69530000Y-79563000D02*
X69530000Y-65437000D01*
X69570000Y-79595000D02*
X69570000Y-65405000D01*
X69610000Y-79627000D02*
X69610000Y-65373000D01*
X69650000Y-79658000D02*
X69650000Y-65342000D01*
X69690000Y-79689000D02*
X69690000Y-65311000D01*
X69730000Y-79720000D02*
X69730000Y-65280000D01*
X69770000Y-79750000D02*
X69770000Y-65250000D01*
X69810000Y-79780000D02*
X69810000Y-65220000D01*
X69850000Y-79809000D02*
X69850000Y-65191000D01*
X69890000Y-79839000D02*
X69890000Y-65161000D01*
X69930000Y-79868000D02*
X69930000Y-65132000D01*
X69970000Y-79896000D02*
X69970000Y-65104000D01*
X70010000Y-79924000D02*
X70010000Y-65076000D01*
X70050000Y-79952000D02*
X70050000Y-65048000D01*
X70090000Y-71060000D02*
X70090000Y-65020000D01*
X70090000Y-79980000D02*
X70090000Y-73940000D01*
X70130000Y-71060000D02*
X70130000Y-64993000D01*
X70130000Y-80007000D02*
X70130000Y-73940000D01*
X70170000Y-71060000D02*
X70170000Y-64966000D01*
X70170000Y-80034000D02*
X70170000Y-73940000D01*
X70210000Y-71060000D02*
X70210000Y-64939000D01*
X70210000Y-80061000D02*
X70210000Y-73940000D01*
X70250000Y-71060000D02*
X70250000Y-64913000D01*
X70250000Y-80087000D02*
X70250000Y-73940000D01*
X70290000Y-71060000D02*
X70290000Y-64887000D01*
X70290000Y-80113000D02*
X70290000Y-73940000D01*
X70330000Y-71060000D02*
X70330000Y-64861000D01*
X70330000Y-80139000D02*
X70330000Y-73940000D01*
X70370000Y-71060000D02*
X70370000Y-64835000D01*
X70370000Y-80165000D02*
X70370000Y-73940000D01*
X70410000Y-71060000D02*
X70410000Y-64810000D01*
X70410000Y-80190000D02*
X70410000Y-73940000D01*
X70450000Y-71060000D02*
X70450000Y-64785000D01*
X70450000Y-80215000D02*
X70450000Y-73940000D01*
X70490000Y-71060000D02*
X70490000Y-64761000D01*
X70490000Y-80239000D02*
X70490000Y-73940000D01*
X70530000Y-71060000D02*
X70530000Y-64736000D01*
X70530000Y-80264000D02*
X70530000Y-73940000D01*
X70570000Y-71060000D02*
X70570000Y-64712000D01*
X70570000Y-80288000D02*
X70570000Y-73940000D01*
X70610000Y-71060000D02*
X70610000Y-64689000D01*
X70610000Y-80311000D02*
X70610000Y-73940000D01*
X70650000Y-71060000D02*
X70650000Y-64665000D01*
X70650000Y-80335000D02*
X70650000Y-73940000D01*
X70690000Y-71060000D02*
X70690000Y-64642000D01*
X70690000Y-80358000D02*
X70690000Y-73940000D01*
X70730000Y-71060000D02*
X70730000Y-64619000D01*
X70730000Y-80381000D02*
X70730000Y-73940000D01*
X70770000Y-71060000D02*
X70770000Y-64596000D01*
X70770000Y-80404000D02*
X70770000Y-73940000D01*
X70810000Y-71060000D02*
X70810000Y-64574000D01*
X70810000Y-80426000D02*
X70810000Y-73940000D01*
X70850000Y-71060000D02*
X70850000Y-64552000D01*
X70850000Y-80448000D02*
X70850000Y-73940000D01*
X70890000Y-71060000D02*
X70890000Y-64530000D01*
X70890000Y-80470000D02*
X70890000Y-73940000D01*
X70930000Y-71060000D02*
X70930000Y-64508000D01*
X70930000Y-80492000D02*
X70930000Y-73940000D01*
X70970000Y-71060000D02*
X70970000Y-64487000D01*
X70970000Y-80513000D02*
X70970000Y-73940000D01*
X71010000Y-71060000D02*
X71010000Y-64466000D01*
X71010000Y-80534000D02*
X71010000Y-73940000D01*
X71050000Y-71060000D02*
X71050000Y-64445000D01*
X71050000Y-80555000D02*
X71050000Y-73940000D01*
X71090000Y-71060000D02*
X71090000Y-64424000D01*
X71090000Y-80576000D02*
X71090000Y-73940000D01*
X71130000Y-71060000D02*
X71130000Y-64404000D01*
X71130000Y-80596000D02*
X71130000Y-73940000D01*
X71170000Y-71060000D02*
X71170000Y-64384000D01*
X71170000Y-80616000D02*
X71170000Y-73940000D01*
X71210000Y-71060000D02*
X71210000Y-64364000D01*
X71210000Y-80636000D02*
X71210000Y-73940000D01*
X71250000Y-71060000D02*
X71250000Y-64344000D01*
X71250000Y-80656000D02*
X71250000Y-73940000D01*
X71290000Y-71060000D02*
X71290000Y-64325000D01*
X71290000Y-80675000D02*
X71290000Y-73940000D01*
X71330000Y-71060000D02*
X71330000Y-64305000D01*
X71330000Y-80695000D02*
X71330000Y-73940000D01*
X71370000Y-71060000D02*
X71370000Y-64287000D01*
X71370000Y-80713000D02*
X71370000Y-73940000D01*
X71410000Y-71060000D02*
X71410000Y-64268000D01*
X71410000Y-80732000D02*
X71410000Y-73940000D01*
X71450000Y-71060000D02*
X71450000Y-64249000D01*
X71450000Y-80751000D02*
X71450000Y-73940000D01*
X71490000Y-71060000D02*
X71490000Y-64231000D01*
X71490000Y-80769000D02*
X71490000Y-73940000D01*
X71530000Y-71060000D02*
X71530000Y-64213000D01*
X71530000Y-80787000D02*
X71530000Y-73940000D01*
X71570000Y-71060000D02*
X71570000Y-64195000D01*
X71570000Y-80805000D02*
X71570000Y-73940000D01*
X71610000Y-71060000D02*
X71610000Y-64178000D01*
X71610000Y-80822000D02*
X71610000Y-73940000D01*
X71650000Y-71060000D02*
X71650000Y-64161000D01*
X71650000Y-80839000D02*
X71650000Y-73940000D01*
X71690000Y-71060000D02*
X71690000Y-64144000D01*
X71690000Y-80856000D02*
X71690000Y-73940000D01*
X71730000Y-71060000D02*
X71730000Y-64127000D01*
X71730000Y-80873000D02*
X71730000Y-73940000D01*
X71770000Y-71060000D02*
X71770000Y-64110000D01*
X71770000Y-80890000D02*
X71770000Y-73940000D01*
X71810000Y-71060000D02*
X71810000Y-64094000D01*
X71810000Y-80906000D02*
X71810000Y-73940000D01*
X71850000Y-71060000D02*
X71850000Y-64077000D01*
X71850000Y-80923000D02*
X71850000Y-73940000D01*
X71890000Y-71060000D02*
X71890000Y-64062000D01*
X71890000Y-80938000D02*
X71890000Y-73940000D01*
X71930000Y-71060000D02*
X71930000Y-64046000D01*
X71930000Y-80954000D02*
X71930000Y-73940000D01*
X71970000Y-71060000D02*
X71970000Y-64030000D01*
X71970000Y-80970000D02*
X71970000Y-73940000D01*
X72010000Y-71060000D02*
X72010000Y-64015000D01*
X72010000Y-80985000D02*
X72010000Y-73940000D01*
X72050000Y-71060000D02*
X72050000Y-64000000D01*
X72050000Y-81000000D02*
X72050000Y-73940000D01*
X72090000Y-71060000D02*
X72090000Y-63985000D01*
X72090000Y-81015000D02*
X72090000Y-73940000D01*
X72130000Y-71060000D02*
X72130000Y-63970000D01*
X72130000Y-81030000D02*
X72130000Y-73940000D01*
X72170000Y-71060000D02*
X72170000Y-63956000D01*
X72170000Y-81044000D02*
X72170000Y-73940000D01*
X72210000Y-71060000D02*
X72210000Y-63942000D01*
X72210000Y-81058000D02*
X72210000Y-73940000D01*
X72250000Y-71060000D02*
X72250000Y-63928000D01*
X72250000Y-81072000D02*
X72250000Y-73940000D01*
X72290000Y-71060000D02*
X72290000Y-63914000D01*
X72290000Y-81086000D02*
X72290000Y-73940000D01*
X72330000Y-71060000D02*
X72330000Y-63900000D01*
X72330000Y-81100000D02*
X72330000Y-73940000D01*
X72370000Y-71060000D02*
X72370000Y-63887000D01*
X72370000Y-81113000D02*
X72370000Y-73940000D01*
X72410000Y-71060000D02*
X72410000Y-63873000D01*
X72410000Y-81127000D02*
X72410000Y-73940000D01*
X72450000Y-71060000D02*
X72450000Y-63860000D01*
X72450000Y-81140000D02*
X72450000Y-73940000D01*
X72490000Y-71060000D02*
X72490000Y-63848000D01*
X72490000Y-81152000D02*
X72490000Y-73940000D01*
X72530000Y-71060000D02*
X72530000Y-63835000D01*
X72530000Y-81165000D02*
X72530000Y-73940000D01*
X72570000Y-71060000D02*
X72570000Y-63823000D01*
X72570000Y-81177000D02*
X72570000Y-73940000D01*
X72610000Y-71060000D02*
X72610000Y-63810000D01*
X72610000Y-81190000D02*
X72610000Y-73940000D01*
X72650000Y-71060000D02*
X72650000Y-63798000D01*
X72650000Y-81202000D02*
X72650000Y-73940000D01*
X72690000Y-71060000D02*
X72690000Y-63787000D01*
X72690000Y-81213000D02*
X72690000Y-73940000D01*
X72730000Y-71060000D02*
X72730000Y-63775000D01*
X72730000Y-81225000D02*
X72730000Y-73940000D01*
X72770000Y-71060000D02*
X72770000Y-63764000D01*
X72770000Y-81236000D02*
X72770000Y-73940000D01*
X72810000Y-71060000D02*
X72810000Y-63752000D01*
X72810000Y-81248000D02*
X72810000Y-73940000D01*
X72850000Y-71060000D02*
X72850000Y-63741000D01*
X72850000Y-81259000D02*
X72850000Y-73940000D01*
X72890000Y-71060000D02*
X72890000Y-63731000D01*
X72890000Y-81269000D02*
X72890000Y-73940000D01*
X72930000Y-71060000D02*
X72930000Y-63720000D01*
X72930000Y-81280000D02*
X72930000Y-73940000D01*
X72970000Y-81290000D02*
X72970000Y-63710000D01*
X73010000Y-81301000D02*
X73010000Y-63699000D01*
X73050000Y-81311000D02*
X73050000Y-63689000D01*
X73090000Y-81321000D02*
X73090000Y-63679000D01*
X73130000Y-81330000D02*
X73130000Y-63670000D01*
X73170000Y-81340000D02*
X73170000Y-63660000D01*
X73210000Y-81349000D02*
X73210000Y-63651000D01*
X73250000Y-81358000D02*
X73250000Y-63642000D01*
X73290000Y-81367000D02*
X73290000Y-63633000D01*
X73330000Y-81376000D02*
X73330000Y-63624000D01*
X73370000Y-81384000D02*
X73370000Y-63616000D01*
X73410000Y-81392000D02*
X73410000Y-63608000D01*
X73450000Y-81401000D02*
X73450000Y-63599000D01*
X73490000Y-81409000D02*
X73490000Y-63591000D01*
X73530000Y-81416000D02*
X73530000Y-63584000D01*
X73570000Y-81424000D02*
X73570000Y-63576000D01*
X73610000Y-81431000D02*
X73610000Y-63569000D01*
X73650000Y-81439000D02*
X73650000Y-63561000D01*
X73690000Y-81446000D02*
X73690000Y-63554000D01*
X73730000Y-81452000D02*
X73730000Y-63548000D01*
X73770000Y-81459000D02*
X73770000Y-63541000D01*
X73810000Y-81466000D02*
X73810000Y-63534000D01*
X73850000Y-81472000D02*
X73850000Y-63528000D01*
X73890000Y-81478000D02*
X73890000Y-63522000D01*
X73930000Y-81484000D02*
X73930000Y-63516000D01*
X73970000Y-81490000D02*
X73970000Y-63510000D01*
X74010000Y-81495000D02*
X74010000Y-63505000D01*
X74050000Y-81501000D02*
X74050000Y-63499000D01*
X74090000Y-81506000D02*
X74090000Y-63494000D01*
X74130000Y-81511000D02*
X74130000Y-63489000D01*
X74170000Y-81516000D02*
X74170000Y-63484000D01*
X74210000Y-81521000D02*
X74210000Y-63479000D01*
X74250000Y-81525000D02*
X74250000Y-63475000D01*
X74290000Y-81529000D02*
X74290000Y-63471000D01*
X74330000Y-81533000D02*
X74330000Y-63467000D01*
X74370000Y-81537000D02*
X74370000Y-63463000D01*
X74410000Y-81541000D02*
X74410000Y-63459000D01*
X74450000Y-81545000D02*
X74450000Y-63455000D01*
X74490000Y-81548000D02*
X74490000Y-63452000D01*
X74530000Y-81552000D02*
X74530000Y-63448000D01*
X74570000Y-81555000D02*
X74570000Y-63445000D01*
X74610000Y-81558000D02*
X74610000Y-63442000D01*
X74650000Y-81560000D02*
X74650000Y-63440000D01*
X74690000Y-81563000D02*
X74690000Y-63437000D01*
X74730000Y-81565000D02*
X74730000Y-63435000D01*
X74770000Y-81567000D02*
X74770000Y-63433000D01*
X74810000Y-81569000D02*
X74810000Y-63431000D01*
X74850000Y-81571000D02*
X74850000Y-63429000D01*
X74890000Y-81573000D02*
X74890000Y-63427000D01*
X74930000Y-81574000D02*
X74930000Y-63426000D01*
X74970000Y-81576000D02*
X74970000Y-63424000D01*
X75010000Y-81577000D02*
X75010000Y-63423000D01*
X75050000Y-81578000D02*
X75050000Y-63422000D01*
X75090000Y-81579000D02*
X75090000Y-63421000D01*
X75130000Y-81579000D02*
X75130000Y-63421000D01*
X75170000Y-81580000D02*
X75170000Y-63420000D01*
X75210000Y-81580000D02*
X75210000Y-63420000D01*
X75250000Y-81580000D02*
X75250000Y-63420000D01*
X84109440Y-78515000D02*
X84109440Y-76715000D01*
X85009440Y-77615000D02*
X83209440Y-77615000D01*
X84370000Y-72500000D02*
G75*
G02*
X66130000Y-72500000I-9120000J0D01*
G01*
X66130000Y-72500000D02*
G75*
G02*
X84370000Y-72500000I9120000J0D01*
G01*
%TO.C,C10*%
X112786876Y-44166633D02*
X112786876Y-43716633D01*
X113011876Y-43941633D02*
X112561876Y-43941633D01*
X112594329Y-43666633D02*
G75*
G02*
X112594329Y-41546633I-2119741J1060000D01*
G01*
%TO.C,D2*%
X98970000Y-138030000D02*
X104410000Y-138030000D01*
X98970000Y-138360000D02*
X98970000Y-138030000D01*
X98970000Y-140640000D02*
X98970000Y-140970000D01*
X98970000Y-140970000D02*
X104410000Y-140970000D01*
X99750000Y-138030000D02*
X99750000Y-140970000D01*
X99870000Y-138030000D02*
X99870000Y-140970000D01*
X99990000Y-138030000D02*
X99990000Y-140970000D01*
X104410000Y-138030000D02*
X104410000Y-138360000D01*
X104410000Y-140970000D02*
X104410000Y-140640000D01*
%TO.C,C4*%
X66130000Y-92010000D02*
X66130000Y-92090000D01*
X66170000Y-92863000D02*
X66170000Y-91237000D01*
X66210000Y-93215000D02*
X66210000Y-90885000D01*
X66250000Y-93485000D02*
X66250000Y-90615000D01*
X66290000Y-93711000D02*
X66290000Y-90389000D01*
X66330000Y-93909000D02*
X66330000Y-90191000D01*
X66370000Y-94088000D02*
X66370000Y-90012000D01*
X66410000Y-94252000D02*
X66410000Y-89848000D01*
X66450000Y-94405000D02*
X66450000Y-89695000D01*
X66490000Y-94547000D02*
X66490000Y-89553000D01*
X66530000Y-94681000D02*
X66530000Y-89419000D01*
X66570000Y-94809000D02*
X66570000Y-89291000D01*
X66610000Y-94930000D02*
X66610000Y-89170000D01*
X66650000Y-95046000D02*
X66650000Y-89054000D01*
X66690000Y-95157000D02*
X66690000Y-88943000D01*
X66730000Y-95263000D02*
X66730000Y-88837000D01*
X66770000Y-95366000D02*
X66770000Y-88734000D01*
X66810000Y-95466000D02*
X66810000Y-88634000D01*
X66850000Y-95562000D02*
X66850000Y-88538000D01*
X66890000Y-95655000D02*
X66890000Y-88445000D01*
X66930000Y-95745000D02*
X66930000Y-88355000D01*
X66970000Y-95833000D02*
X66970000Y-88267000D01*
X67010000Y-95919000D02*
X67010000Y-88181000D01*
X67050000Y-96002000D02*
X67050000Y-88098000D01*
X67090000Y-96083000D02*
X67090000Y-88017000D01*
X67130000Y-96162000D02*
X67130000Y-87938000D01*
X67170000Y-96239000D02*
X67170000Y-87861000D01*
X67210000Y-96315000D02*
X67210000Y-87785000D01*
X67250000Y-96389000D02*
X67250000Y-87711000D01*
X67290000Y-96461000D02*
X67290000Y-87639000D01*
X67330000Y-96532000D02*
X67330000Y-87568000D01*
X67370000Y-96601000D02*
X67370000Y-87499000D01*
X67410000Y-96669000D02*
X67410000Y-87431000D01*
X67450000Y-96736000D02*
X67450000Y-87364000D01*
X67490000Y-96801000D02*
X67490000Y-87299000D01*
X67530000Y-96866000D02*
X67530000Y-87234000D01*
X67570000Y-96929000D02*
X67570000Y-87171000D01*
X67610000Y-96990000D02*
X67610000Y-87110000D01*
X67650000Y-97051000D02*
X67650000Y-87049000D01*
X67690000Y-97111000D02*
X67690000Y-86989000D01*
X67730000Y-97170000D02*
X67730000Y-86930000D01*
X67770000Y-97228000D02*
X67770000Y-86872000D01*
X67810000Y-97285000D02*
X67810000Y-86815000D01*
X67850000Y-97341000D02*
X67850000Y-86759000D01*
X67890000Y-97396000D02*
X67890000Y-86704000D01*
X67930000Y-97450000D02*
X67930000Y-86650000D01*
X67970000Y-97503000D02*
X67970000Y-86597000D01*
X68010000Y-97556000D02*
X68010000Y-86544000D01*
X68050000Y-97608000D02*
X68050000Y-86492000D01*
X68090000Y-97659000D02*
X68090000Y-86441000D01*
X68130000Y-97709000D02*
X68130000Y-86391000D01*
X68170000Y-97759000D02*
X68170000Y-86341000D01*
X68210000Y-97808000D02*
X68210000Y-86292000D01*
X68250000Y-97856000D02*
X68250000Y-86244000D01*
X68290000Y-97903000D02*
X68290000Y-86197000D01*
X68330000Y-97950000D02*
X68330000Y-86150000D01*
X68370000Y-97997000D02*
X68370000Y-86103000D01*
X68410000Y-98042000D02*
X68410000Y-86058000D01*
X68450000Y-98087000D02*
X68450000Y-86013000D01*
X68490000Y-98132000D02*
X68490000Y-85968000D01*
X68530000Y-98176000D02*
X68530000Y-85924000D01*
X68570000Y-98219000D02*
X68570000Y-85881000D01*
X68610000Y-98262000D02*
X68610000Y-85838000D01*
X68650000Y-98304000D02*
X68650000Y-85796000D01*
X68690000Y-98346000D02*
X68690000Y-85754000D01*
X68730000Y-98387000D02*
X68730000Y-85713000D01*
X68770000Y-98427000D02*
X68770000Y-85673000D01*
X68810000Y-98468000D02*
X68810000Y-85632000D01*
X68850000Y-98507000D02*
X68850000Y-85593000D01*
X68890000Y-98546000D02*
X68890000Y-85554000D01*
X68930000Y-98585000D02*
X68930000Y-85515000D01*
X68970000Y-98623000D02*
X68970000Y-85477000D01*
X69010000Y-98661000D02*
X69010000Y-85439000D01*
X69050000Y-98698000D02*
X69050000Y-85402000D01*
X69090000Y-98735000D02*
X69090000Y-85365000D01*
X69130000Y-98772000D02*
X69130000Y-85328000D01*
X69170000Y-98808000D02*
X69170000Y-85292000D01*
X69210000Y-98843000D02*
X69210000Y-85257000D01*
X69250000Y-98878000D02*
X69250000Y-85222000D01*
X69290000Y-98913000D02*
X69290000Y-85187000D01*
X69330000Y-98947000D02*
X69330000Y-85153000D01*
X69370000Y-98981000D02*
X69370000Y-85119000D01*
X69410000Y-99015000D02*
X69410000Y-85085000D01*
X69450000Y-99048000D02*
X69450000Y-85052000D01*
X69490000Y-99081000D02*
X69490000Y-85019000D01*
X69530000Y-99113000D02*
X69530000Y-84987000D01*
X69570000Y-99145000D02*
X69570000Y-84955000D01*
X69610000Y-99177000D02*
X69610000Y-84923000D01*
X69650000Y-99208000D02*
X69650000Y-84892000D01*
X69690000Y-99239000D02*
X69690000Y-84861000D01*
X69730000Y-99270000D02*
X69730000Y-84830000D01*
X69770000Y-99300000D02*
X69770000Y-84800000D01*
X69810000Y-99330000D02*
X69810000Y-84770000D01*
X69850000Y-99359000D02*
X69850000Y-84741000D01*
X69890000Y-99389000D02*
X69890000Y-84711000D01*
X69930000Y-99418000D02*
X69930000Y-84682000D01*
X69970000Y-99446000D02*
X69970000Y-84654000D01*
X70010000Y-99474000D02*
X70010000Y-84626000D01*
X70050000Y-99502000D02*
X70050000Y-84598000D01*
X70090000Y-90610000D02*
X70090000Y-84570000D01*
X70090000Y-99530000D02*
X70090000Y-93490000D01*
X70130000Y-90610000D02*
X70130000Y-84543000D01*
X70130000Y-99557000D02*
X70130000Y-93490000D01*
X70170000Y-90610000D02*
X70170000Y-84516000D01*
X70170000Y-99584000D02*
X70170000Y-93490000D01*
X70210000Y-90610000D02*
X70210000Y-84489000D01*
X70210000Y-99611000D02*
X70210000Y-93490000D01*
X70250000Y-90610000D02*
X70250000Y-84463000D01*
X70250000Y-99637000D02*
X70250000Y-93490000D01*
X70290000Y-90610000D02*
X70290000Y-84437000D01*
X70290000Y-99663000D02*
X70290000Y-93490000D01*
X70330000Y-90610000D02*
X70330000Y-84411000D01*
X70330000Y-99689000D02*
X70330000Y-93490000D01*
X70370000Y-90610000D02*
X70370000Y-84385000D01*
X70370000Y-99715000D02*
X70370000Y-93490000D01*
X70410000Y-90610000D02*
X70410000Y-84360000D01*
X70410000Y-99740000D02*
X70410000Y-93490000D01*
X70450000Y-90610000D02*
X70450000Y-84335000D01*
X70450000Y-99765000D02*
X70450000Y-93490000D01*
X70490000Y-90610000D02*
X70490000Y-84311000D01*
X70490000Y-99789000D02*
X70490000Y-93490000D01*
X70530000Y-90610000D02*
X70530000Y-84286000D01*
X70530000Y-99814000D02*
X70530000Y-93490000D01*
X70570000Y-90610000D02*
X70570000Y-84262000D01*
X70570000Y-99838000D02*
X70570000Y-93490000D01*
X70610000Y-90610000D02*
X70610000Y-84239000D01*
X70610000Y-99861000D02*
X70610000Y-93490000D01*
X70650000Y-90610000D02*
X70650000Y-84215000D01*
X70650000Y-99885000D02*
X70650000Y-93490000D01*
X70690000Y-90610000D02*
X70690000Y-84192000D01*
X70690000Y-99908000D02*
X70690000Y-93490000D01*
X70730000Y-90610000D02*
X70730000Y-84169000D01*
X70730000Y-99931000D02*
X70730000Y-93490000D01*
X70770000Y-90610000D02*
X70770000Y-84146000D01*
X70770000Y-99954000D02*
X70770000Y-93490000D01*
X70810000Y-90610000D02*
X70810000Y-84124000D01*
X70810000Y-99976000D02*
X70810000Y-93490000D01*
X70850000Y-90610000D02*
X70850000Y-84102000D01*
X70850000Y-99998000D02*
X70850000Y-93490000D01*
X70890000Y-90610000D02*
X70890000Y-84080000D01*
X70890000Y-100020000D02*
X70890000Y-93490000D01*
X70930000Y-90610000D02*
X70930000Y-84058000D01*
X70930000Y-100042000D02*
X70930000Y-93490000D01*
X70970000Y-90610000D02*
X70970000Y-84037000D01*
X70970000Y-100063000D02*
X70970000Y-93490000D01*
X71010000Y-90610000D02*
X71010000Y-84016000D01*
X71010000Y-100084000D02*
X71010000Y-93490000D01*
X71050000Y-90610000D02*
X71050000Y-83995000D01*
X71050000Y-100105000D02*
X71050000Y-93490000D01*
X71090000Y-90610000D02*
X71090000Y-83974000D01*
X71090000Y-100126000D02*
X71090000Y-93490000D01*
X71130000Y-90610000D02*
X71130000Y-83954000D01*
X71130000Y-100146000D02*
X71130000Y-93490000D01*
X71170000Y-90610000D02*
X71170000Y-83934000D01*
X71170000Y-100166000D02*
X71170000Y-93490000D01*
X71210000Y-90610000D02*
X71210000Y-83914000D01*
X71210000Y-100186000D02*
X71210000Y-93490000D01*
X71250000Y-90610000D02*
X71250000Y-83894000D01*
X71250000Y-100206000D02*
X71250000Y-93490000D01*
X71290000Y-90610000D02*
X71290000Y-83875000D01*
X71290000Y-100225000D02*
X71290000Y-93490000D01*
X71330000Y-90610000D02*
X71330000Y-83855000D01*
X71330000Y-100245000D02*
X71330000Y-93490000D01*
X71370000Y-90610000D02*
X71370000Y-83837000D01*
X71370000Y-100263000D02*
X71370000Y-93490000D01*
X71410000Y-90610000D02*
X71410000Y-83818000D01*
X71410000Y-100282000D02*
X71410000Y-93490000D01*
X71450000Y-90610000D02*
X71450000Y-83799000D01*
X71450000Y-100301000D02*
X71450000Y-93490000D01*
X71490000Y-90610000D02*
X71490000Y-83781000D01*
X71490000Y-100319000D02*
X71490000Y-93490000D01*
X71530000Y-90610000D02*
X71530000Y-83763000D01*
X71530000Y-100337000D02*
X71530000Y-93490000D01*
X71570000Y-90610000D02*
X71570000Y-83745000D01*
X71570000Y-100355000D02*
X71570000Y-93490000D01*
X71610000Y-90610000D02*
X71610000Y-83728000D01*
X71610000Y-100372000D02*
X71610000Y-93490000D01*
X71650000Y-90610000D02*
X71650000Y-83711000D01*
X71650000Y-100389000D02*
X71650000Y-93490000D01*
X71690000Y-90610000D02*
X71690000Y-83694000D01*
X71690000Y-100406000D02*
X71690000Y-93490000D01*
X71730000Y-90610000D02*
X71730000Y-83677000D01*
X71730000Y-100423000D02*
X71730000Y-93490000D01*
X71770000Y-90610000D02*
X71770000Y-83660000D01*
X71770000Y-100440000D02*
X71770000Y-93490000D01*
X71810000Y-90610000D02*
X71810000Y-83644000D01*
X71810000Y-100456000D02*
X71810000Y-93490000D01*
X71850000Y-90610000D02*
X71850000Y-83627000D01*
X71850000Y-100473000D02*
X71850000Y-93490000D01*
X71890000Y-90610000D02*
X71890000Y-83612000D01*
X71890000Y-100488000D02*
X71890000Y-93490000D01*
X71930000Y-90610000D02*
X71930000Y-83596000D01*
X71930000Y-100504000D02*
X71930000Y-93490000D01*
X71970000Y-90610000D02*
X71970000Y-83580000D01*
X71970000Y-100520000D02*
X71970000Y-93490000D01*
X72010000Y-90610000D02*
X72010000Y-83565000D01*
X72010000Y-100535000D02*
X72010000Y-93490000D01*
X72050000Y-90610000D02*
X72050000Y-83550000D01*
X72050000Y-100550000D02*
X72050000Y-93490000D01*
X72090000Y-90610000D02*
X72090000Y-83535000D01*
X72090000Y-100565000D02*
X72090000Y-93490000D01*
X72130000Y-90610000D02*
X72130000Y-83520000D01*
X72130000Y-100580000D02*
X72130000Y-93490000D01*
X72170000Y-90610000D02*
X72170000Y-83506000D01*
X72170000Y-100594000D02*
X72170000Y-93490000D01*
X72210000Y-90610000D02*
X72210000Y-83492000D01*
X72210000Y-100608000D02*
X72210000Y-93490000D01*
X72250000Y-90610000D02*
X72250000Y-83478000D01*
X72250000Y-100622000D02*
X72250000Y-93490000D01*
X72290000Y-90610000D02*
X72290000Y-83464000D01*
X72290000Y-100636000D02*
X72290000Y-93490000D01*
X72330000Y-90610000D02*
X72330000Y-83450000D01*
X72330000Y-100650000D02*
X72330000Y-93490000D01*
X72370000Y-90610000D02*
X72370000Y-83437000D01*
X72370000Y-100663000D02*
X72370000Y-93490000D01*
X72410000Y-90610000D02*
X72410000Y-83423000D01*
X72410000Y-100677000D02*
X72410000Y-93490000D01*
X72450000Y-90610000D02*
X72450000Y-83410000D01*
X72450000Y-100690000D02*
X72450000Y-93490000D01*
X72490000Y-90610000D02*
X72490000Y-83398000D01*
X72490000Y-100702000D02*
X72490000Y-93490000D01*
X72530000Y-90610000D02*
X72530000Y-83385000D01*
X72530000Y-100715000D02*
X72530000Y-93490000D01*
X72570000Y-90610000D02*
X72570000Y-83373000D01*
X72570000Y-100727000D02*
X72570000Y-93490000D01*
X72610000Y-90610000D02*
X72610000Y-83360000D01*
X72610000Y-100740000D02*
X72610000Y-93490000D01*
X72650000Y-90610000D02*
X72650000Y-83348000D01*
X72650000Y-100752000D02*
X72650000Y-93490000D01*
X72690000Y-90610000D02*
X72690000Y-83337000D01*
X72690000Y-100763000D02*
X72690000Y-93490000D01*
X72730000Y-90610000D02*
X72730000Y-83325000D01*
X72730000Y-100775000D02*
X72730000Y-93490000D01*
X72770000Y-90610000D02*
X72770000Y-83314000D01*
X72770000Y-100786000D02*
X72770000Y-93490000D01*
X72810000Y-90610000D02*
X72810000Y-83302000D01*
X72810000Y-100798000D02*
X72810000Y-93490000D01*
X72850000Y-90610000D02*
X72850000Y-83291000D01*
X72850000Y-100809000D02*
X72850000Y-93490000D01*
X72890000Y-90610000D02*
X72890000Y-83281000D01*
X72890000Y-100819000D02*
X72890000Y-93490000D01*
X72930000Y-90610000D02*
X72930000Y-83270000D01*
X72930000Y-100830000D02*
X72930000Y-93490000D01*
X72970000Y-100840000D02*
X72970000Y-83260000D01*
X73010000Y-100851000D02*
X73010000Y-83249000D01*
X73050000Y-100861000D02*
X73050000Y-83239000D01*
X73090000Y-100871000D02*
X73090000Y-83229000D01*
X73130000Y-100880000D02*
X73130000Y-83220000D01*
X73170000Y-100890000D02*
X73170000Y-83210000D01*
X73210000Y-100899000D02*
X73210000Y-83201000D01*
X73250000Y-100908000D02*
X73250000Y-83192000D01*
X73290000Y-100917000D02*
X73290000Y-83183000D01*
X73330000Y-100926000D02*
X73330000Y-83174000D01*
X73370000Y-100934000D02*
X73370000Y-83166000D01*
X73410000Y-100942000D02*
X73410000Y-83158000D01*
X73450000Y-100951000D02*
X73450000Y-83149000D01*
X73490000Y-100959000D02*
X73490000Y-83141000D01*
X73530000Y-100966000D02*
X73530000Y-83134000D01*
X73570000Y-100974000D02*
X73570000Y-83126000D01*
X73610000Y-100981000D02*
X73610000Y-83119000D01*
X73650000Y-100989000D02*
X73650000Y-83111000D01*
X73690000Y-100996000D02*
X73690000Y-83104000D01*
X73730000Y-101002000D02*
X73730000Y-83098000D01*
X73770000Y-101009000D02*
X73770000Y-83091000D01*
X73810000Y-101016000D02*
X73810000Y-83084000D01*
X73850000Y-101022000D02*
X73850000Y-83078000D01*
X73890000Y-101028000D02*
X73890000Y-83072000D01*
X73930000Y-101034000D02*
X73930000Y-83066000D01*
X73970000Y-101040000D02*
X73970000Y-83060000D01*
X74010000Y-101045000D02*
X74010000Y-83055000D01*
X74050000Y-101051000D02*
X74050000Y-83049000D01*
X74090000Y-101056000D02*
X74090000Y-83044000D01*
X74130000Y-101061000D02*
X74130000Y-83039000D01*
X74170000Y-101066000D02*
X74170000Y-83034000D01*
X74210000Y-101071000D02*
X74210000Y-83029000D01*
X74250000Y-101075000D02*
X74250000Y-83025000D01*
X74290000Y-101079000D02*
X74290000Y-83021000D01*
X74330000Y-101083000D02*
X74330000Y-83017000D01*
X74370000Y-101087000D02*
X74370000Y-83013000D01*
X74410000Y-101091000D02*
X74410000Y-83009000D01*
X74450000Y-101095000D02*
X74450000Y-83005000D01*
X74490000Y-101098000D02*
X74490000Y-83002000D01*
X74530000Y-101102000D02*
X74530000Y-82998000D01*
X74570000Y-101105000D02*
X74570000Y-82995000D01*
X74610000Y-101108000D02*
X74610000Y-82992000D01*
X74650000Y-101110000D02*
X74650000Y-82990000D01*
X74690000Y-101113000D02*
X74690000Y-82987000D01*
X74730000Y-101115000D02*
X74730000Y-82985000D01*
X74770000Y-101117000D02*
X74770000Y-82983000D01*
X74810000Y-101119000D02*
X74810000Y-82981000D01*
X74850000Y-101121000D02*
X74850000Y-82979000D01*
X74890000Y-101123000D02*
X74890000Y-82977000D01*
X74930000Y-101124000D02*
X74930000Y-82976000D01*
X74970000Y-101126000D02*
X74970000Y-82974000D01*
X75010000Y-101127000D02*
X75010000Y-82973000D01*
X75050000Y-101128000D02*
X75050000Y-82972000D01*
X75090000Y-101129000D02*
X75090000Y-82971000D01*
X75130000Y-101129000D02*
X75130000Y-82971000D01*
X75170000Y-101130000D02*
X75170000Y-82970000D01*
X75210000Y-101130000D02*
X75210000Y-82970000D01*
X75250000Y-101130000D02*
X75250000Y-82970000D01*
X84109440Y-98065000D02*
X84109440Y-96265000D01*
X85009440Y-97165000D02*
X83209440Y-97165000D01*
X84370000Y-92050000D02*
G75*
G02*
X66130000Y-92050000I-9120000J0D01*
G01*
X66130000Y-92050000D02*
G75*
G02*
X84370000Y-92050000I9120000J0D01*
G01*
%TO.C,D3*%
X123470000Y-73530000D02*
X128910000Y-73530000D01*
X123470000Y-73860000D02*
X123470000Y-73530000D01*
X123470000Y-76140000D02*
X123470000Y-76470000D01*
X123470000Y-76470000D02*
X128910000Y-76470000D01*
X124250000Y-73530000D02*
X124250000Y-76470000D01*
X124370000Y-73530000D02*
X124370000Y-76470000D01*
X124490000Y-73530000D02*
X124490000Y-76470000D01*
X128910000Y-73530000D02*
X128910000Y-73860000D01*
X128910000Y-76470000D02*
X128910000Y-76140000D01*
%TO.C,D6*%
X123470000Y-105030000D02*
X128910000Y-105030000D01*
X123470000Y-105360000D02*
X123470000Y-105030000D01*
X123470000Y-107640000D02*
X123470000Y-107970000D01*
X123470000Y-107970000D02*
X128910000Y-107970000D01*
X124250000Y-105030000D02*
X124250000Y-107970000D01*
X124370000Y-105030000D02*
X124370000Y-107970000D01*
X124490000Y-105030000D02*
X124490000Y-107970000D01*
X128910000Y-105030000D02*
X128910000Y-105360000D01*
X128910000Y-107970000D02*
X128910000Y-107640000D01*
%TO.C,U3*%
X104145148Y-116962034D02*
X114365148Y-116962034D01*
X104145148Y-121582034D02*
X104145148Y-116962034D01*
X107405148Y-121582034D02*
X107405148Y-120202034D01*
X111105148Y-121582034D02*
X111105148Y-120202034D01*
X114365148Y-116962034D02*
X114365148Y-121582034D01*
X114365148Y-120202034D02*
X104145148Y-120202034D01*
X114365148Y-121582034D02*
X104145148Y-121582034D01*
%TO.C,H2*%
X91948678Y-85652953D02*
X93979505Y-87261514D01*
X91948678Y-96347047D02*
X93979505Y-94738486D01*
X92158609Y-87767756D02*
X93626715Y-88024675D01*
X92158609Y-94232244D02*
X93626715Y-93975325D01*
X92580278Y-84805194D02*
X95705804Y-86993062D01*
X92580278Y-97194806D02*
X95705804Y-95006938D01*
X93800000Y-89400000D02*
X91930786Y-88434964D01*
X93800000Y-92600000D02*
X91930786Y-93565036D01*
X95937778Y-85245194D02*
X96338880Y-86533124D01*
X95937778Y-96754806D02*
X96338880Y-95466876D01*
X96726369Y-84835197D02*
X98972892Y-87930449D01*
X96726369Y-97164803D02*
X98972892Y-94069551D01*
X99960000Y-87609985D02*
X99960000Y-85299995D01*
X99960000Y-94390015D02*
X99960000Y-96700005D01*
X101260000Y-85300000D02*
X101260000Y-90215009D01*
X101260000Y-90215009D02*
X109200000Y-90215009D01*
X101260000Y-91784991D02*
X109200000Y-91784991D01*
X101260000Y-96700000D02*
X101260000Y-91784991D01*
X117140000Y-85300000D02*
X117140000Y-90215009D01*
X117140000Y-90215009D02*
X109200000Y-90215009D01*
X117140000Y-91784991D02*
X109200000Y-91784991D01*
X117140000Y-96700000D02*
X117140000Y-91784991D01*
X118440000Y-87609985D02*
X118440000Y-85299995D01*
X118440000Y-94390015D02*
X118440000Y-96700005D01*
X121673631Y-84835197D02*
X119427108Y-87930449D01*
X121673631Y-97164803D02*
X119427108Y-94069551D01*
X122462222Y-85245194D02*
X122061120Y-86533124D01*
X122462222Y-96754806D02*
X122061120Y-95466876D01*
X124600000Y-89400000D02*
X126469214Y-88434964D01*
X124600000Y-92600000D02*
X126469214Y-93565036D01*
X125819722Y-84805194D02*
X122694196Y-86993062D01*
X125819722Y-97194806D02*
X122694196Y-95006938D01*
X126241391Y-87767756D02*
X124773285Y-88024675D01*
X126241391Y-94232244D02*
X124773285Y-93975325D01*
X126451322Y-85652953D02*
X124420495Y-87261514D01*
X126451322Y-96347047D02*
X124420495Y-94738486D01*
X91930786Y-88434964D02*
G75*
G02*
X92158610Y-87767750I166314J315714D01*
G01*
X91948678Y-85652953D02*
G75*
G02*
X92580272Y-84805202I320122J420653D01*
G01*
X92158609Y-94232244D02*
G75*
G02*
X91930832Y-93565124I-61509J351444D01*
G01*
X92580278Y-97194806D02*
G75*
G02*
X91948672Y-96347039I-311478J427106D01*
G01*
X93626715Y-93975325D02*
G75*
G02*
X93979522Y-94738507I74985J-428475D01*
G01*
X93979505Y-87261514D02*
G75*
G02*
X93626720Y-88024649I-277805J-334686D01*
G01*
X95705804Y-95006938D02*
G75*
G02*
X96338903Y-95466883I237296J-339062D01*
G01*
X95937778Y-85245194D02*
G75*
G02*
X96726370Y-84835196I424942J146054D01*
G01*
X96338880Y-86533124D02*
G75*
G02*
X95705803Y-86993063I-395760J-120926D01*
G01*
X96726369Y-97164803D02*
G75*
G02*
X95937780Y-96754807I-363669J263903D01*
G01*
X98972892Y-94069551D02*
G75*
G02*
X99959943Y-94390015I441508J-320449D01*
G01*
X99960000Y-85299995D02*
G75*
G02*
X101260000Y-85300000I650000J-5D01*
G01*
X99960000Y-87609985D02*
G75*
G02*
X98972890Y-87930450I-545560J-45D01*
G01*
X101260000Y-96700000D02*
G75*
G02*
X99960000Y-96700005I-650000J0D01*
G01*
X117140000Y-85300000D02*
G75*
G02*
X118440000Y-85299995I650000J-10D01*
G01*
X118440000Y-94390015D02*
G75*
G02*
X119427108Y-94069551I545568J17D01*
G01*
X118440000Y-96700005D02*
G75*
G02*
X117140000Y-96700000I-650000J15D01*
G01*
X119427108Y-87930449D02*
G75*
G02*
X118439999Y-87609985I-441539J320452D01*
G01*
X121673631Y-84835197D02*
G75*
G02*
X122462222Y-85245194I363652J-263938D01*
G01*
X122061120Y-95466876D02*
G75*
G02*
X122694196Y-95006938I395762J120922D01*
G01*
X122462222Y-96754806D02*
G75*
G02*
X121673631Y-97164803I-424939J-146059D01*
G01*
X122694196Y-86993062D02*
G75*
G02*
X122061120Y-86533124I-237314J339016D01*
G01*
X124420495Y-94738486D02*
G75*
G02*
X124773285Y-93975325I277808J334700D01*
G01*
X124773285Y-88024675D02*
G75*
G02*
X124420495Y-87261514I-74984J428460D01*
G01*
X125819722Y-84805194D02*
G75*
G02*
X126451322Y-85652953I311507J-427078D01*
G01*
X126241391Y-87767756D02*
G75*
G02*
X126469214Y-88434964I61512J-351496D01*
G01*
X126451322Y-96347047D02*
G75*
G02*
X125819722Y-97194806I-320093J-420681D01*
G01*
X126469214Y-93565036D02*
G75*
G02*
X126241391Y-94232244I-166311J-315712D01*
G01*
%TO.C,C6*%
X66130000Y-52910000D02*
X66130000Y-52990000D01*
X66170000Y-53763000D02*
X66170000Y-52137000D01*
X66210000Y-54115000D02*
X66210000Y-51785000D01*
X66250000Y-54385000D02*
X66250000Y-51515000D01*
X66290000Y-54611000D02*
X66290000Y-51289000D01*
X66330000Y-54809000D02*
X66330000Y-51091000D01*
X66370000Y-54988000D02*
X66370000Y-50912000D01*
X66410000Y-55152000D02*
X66410000Y-50748000D01*
X66450000Y-55305000D02*
X66450000Y-50595000D01*
X66490000Y-55447000D02*
X66490000Y-50453000D01*
X66530000Y-55581000D02*
X66530000Y-50319000D01*
X66570000Y-55709000D02*
X66570000Y-50191000D01*
X66610000Y-55830000D02*
X66610000Y-50070000D01*
X66650000Y-55946000D02*
X66650000Y-49954000D01*
X66690000Y-56057000D02*
X66690000Y-49843000D01*
X66730000Y-56163000D02*
X66730000Y-49737000D01*
X66770000Y-56266000D02*
X66770000Y-49634000D01*
X66810000Y-56366000D02*
X66810000Y-49534000D01*
X66850000Y-56462000D02*
X66850000Y-49438000D01*
X66890000Y-56555000D02*
X66890000Y-49345000D01*
X66930000Y-56645000D02*
X66930000Y-49255000D01*
X66970000Y-56733000D02*
X66970000Y-49167000D01*
X67010000Y-56819000D02*
X67010000Y-49081000D01*
X67050000Y-56902000D02*
X67050000Y-48998000D01*
X67090000Y-56983000D02*
X67090000Y-48917000D01*
X67130000Y-57062000D02*
X67130000Y-48838000D01*
X67170000Y-57139000D02*
X67170000Y-48761000D01*
X67210000Y-57215000D02*
X67210000Y-48685000D01*
X67250000Y-57289000D02*
X67250000Y-48611000D01*
X67290000Y-57361000D02*
X67290000Y-48539000D01*
X67330000Y-57432000D02*
X67330000Y-48468000D01*
X67370000Y-57501000D02*
X67370000Y-48399000D01*
X67410000Y-57569000D02*
X67410000Y-48331000D01*
X67450000Y-57636000D02*
X67450000Y-48264000D01*
X67490000Y-57701000D02*
X67490000Y-48199000D01*
X67530000Y-57766000D02*
X67530000Y-48134000D01*
X67570000Y-57829000D02*
X67570000Y-48071000D01*
X67610000Y-57890000D02*
X67610000Y-48010000D01*
X67650000Y-57951000D02*
X67650000Y-47949000D01*
X67690000Y-58011000D02*
X67690000Y-47889000D01*
X67730000Y-58070000D02*
X67730000Y-47830000D01*
X67770000Y-58128000D02*
X67770000Y-47772000D01*
X67810000Y-58185000D02*
X67810000Y-47715000D01*
X67850000Y-58241000D02*
X67850000Y-47659000D01*
X67890000Y-58296000D02*
X67890000Y-47604000D01*
X67930000Y-58350000D02*
X67930000Y-47550000D01*
X67970000Y-58403000D02*
X67970000Y-47497000D01*
X68010000Y-58456000D02*
X68010000Y-47444000D01*
X68050000Y-58508000D02*
X68050000Y-47392000D01*
X68090000Y-58559000D02*
X68090000Y-47341000D01*
X68130000Y-58609000D02*
X68130000Y-47291000D01*
X68170000Y-58659000D02*
X68170000Y-47241000D01*
X68210000Y-58708000D02*
X68210000Y-47192000D01*
X68250000Y-58756000D02*
X68250000Y-47144000D01*
X68290000Y-58803000D02*
X68290000Y-47097000D01*
X68330000Y-58850000D02*
X68330000Y-47050000D01*
X68370000Y-58897000D02*
X68370000Y-47003000D01*
X68410000Y-58942000D02*
X68410000Y-46958000D01*
X68450000Y-58987000D02*
X68450000Y-46913000D01*
X68490000Y-59032000D02*
X68490000Y-46868000D01*
X68530000Y-59076000D02*
X68530000Y-46824000D01*
X68570000Y-59119000D02*
X68570000Y-46781000D01*
X68610000Y-59162000D02*
X68610000Y-46738000D01*
X68650000Y-59204000D02*
X68650000Y-46696000D01*
X68690000Y-59246000D02*
X68690000Y-46654000D01*
X68730000Y-59287000D02*
X68730000Y-46613000D01*
X68770000Y-59327000D02*
X68770000Y-46573000D01*
X68810000Y-59368000D02*
X68810000Y-46532000D01*
X68850000Y-59407000D02*
X68850000Y-46493000D01*
X68890000Y-59446000D02*
X68890000Y-46454000D01*
X68930000Y-59485000D02*
X68930000Y-46415000D01*
X68970000Y-59523000D02*
X68970000Y-46377000D01*
X69010000Y-59561000D02*
X69010000Y-46339000D01*
X69050000Y-59598000D02*
X69050000Y-46302000D01*
X69090000Y-59635000D02*
X69090000Y-46265000D01*
X69130000Y-59672000D02*
X69130000Y-46228000D01*
X69170000Y-59708000D02*
X69170000Y-46192000D01*
X69210000Y-59743000D02*
X69210000Y-46157000D01*
X69250000Y-59778000D02*
X69250000Y-46122000D01*
X69290000Y-59813000D02*
X69290000Y-46087000D01*
X69330000Y-59847000D02*
X69330000Y-46053000D01*
X69370000Y-59881000D02*
X69370000Y-46019000D01*
X69410000Y-59915000D02*
X69410000Y-45985000D01*
X69450000Y-59948000D02*
X69450000Y-45952000D01*
X69490000Y-59981000D02*
X69490000Y-45919000D01*
X69530000Y-60013000D02*
X69530000Y-45887000D01*
X69570000Y-60045000D02*
X69570000Y-45855000D01*
X69610000Y-60077000D02*
X69610000Y-45823000D01*
X69650000Y-60108000D02*
X69650000Y-45792000D01*
X69690000Y-60139000D02*
X69690000Y-45761000D01*
X69730000Y-60170000D02*
X69730000Y-45730000D01*
X69770000Y-60200000D02*
X69770000Y-45700000D01*
X69810000Y-60230000D02*
X69810000Y-45670000D01*
X69850000Y-60259000D02*
X69850000Y-45641000D01*
X69890000Y-60289000D02*
X69890000Y-45611000D01*
X69930000Y-60318000D02*
X69930000Y-45582000D01*
X69970000Y-60346000D02*
X69970000Y-45554000D01*
X70010000Y-60374000D02*
X70010000Y-45526000D01*
X70050000Y-60402000D02*
X70050000Y-45498000D01*
X70090000Y-51510000D02*
X70090000Y-45470000D01*
X70090000Y-60430000D02*
X70090000Y-54390000D01*
X70130000Y-51510000D02*
X70130000Y-45443000D01*
X70130000Y-60457000D02*
X70130000Y-54390000D01*
X70170000Y-51510000D02*
X70170000Y-45416000D01*
X70170000Y-60484000D02*
X70170000Y-54390000D01*
X70210000Y-51510000D02*
X70210000Y-45389000D01*
X70210000Y-60511000D02*
X70210000Y-54390000D01*
X70250000Y-51510000D02*
X70250000Y-45363000D01*
X70250000Y-60537000D02*
X70250000Y-54390000D01*
X70290000Y-51510000D02*
X70290000Y-45337000D01*
X70290000Y-60563000D02*
X70290000Y-54390000D01*
X70330000Y-51510000D02*
X70330000Y-45311000D01*
X70330000Y-60589000D02*
X70330000Y-54390000D01*
X70370000Y-51510000D02*
X70370000Y-45285000D01*
X70370000Y-60615000D02*
X70370000Y-54390000D01*
X70410000Y-51510000D02*
X70410000Y-45260000D01*
X70410000Y-60640000D02*
X70410000Y-54390000D01*
X70450000Y-51510000D02*
X70450000Y-45235000D01*
X70450000Y-60665000D02*
X70450000Y-54390000D01*
X70490000Y-51510000D02*
X70490000Y-45211000D01*
X70490000Y-60689000D02*
X70490000Y-54390000D01*
X70530000Y-51510000D02*
X70530000Y-45186000D01*
X70530000Y-60714000D02*
X70530000Y-54390000D01*
X70570000Y-51510000D02*
X70570000Y-45162000D01*
X70570000Y-60738000D02*
X70570000Y-54390000D01*
X70610000Y-51510000D02*
X70610000Y-45139000D01*
X70610000Y-60761000D02*
X70610000Y-54390000D01*
X70650000Y-51510000D02*
X70650000Y-45115000D01*
X70650000Y-60785000D02*
X70650000Y-54390000D01*
X70690000Y-51510000D02*
X70690000Y-45092000D01*
X70690000Y-60808000D02*
X70690000Y-54390000D01*
X70730000Y-51510000D02*
X70730000Y-45069000D01*
X70730000Y-60831000D02*
X70730000Y-54390000D01*
X70770000Y-51510000D02*
X70770000Y-45046000D01*
X70770000Y-60854000D02*
X70770000Y-54390000D01*
X70810000Y-51510000D02*
X70810000Y-45024000D01*
X70810000Y-60876000D02*
X70810000Y-54390000D01*
X70850000Y-51510000D02*
X70850000Y-45002000D01*
X70850000Y-60898000D02*
X70850000Y-54390000D01*
X70890000Y-51510000D02*
X70890000Y-44980000D01*
X70890000Y-60920000D02*
X70890000Y-54390000D01*
X70930000Y-51510000D02*
X70930000Y-44958000D01*
X70930000Y-60942000D02*
X70930000Y-54390000D01*
X70970000Y-51510000D02*
X70970000Y-44937000D01*
X70970000Y-60963000D02*
X70970000Y-54390000D01*
X71010000Y-51510000D02*
X71010000Y-44916000D01*
X71010000Y-60984000D02*
X71010000Y-54390000D01*
X71050000Y-51510000D02*
X71050000Y-44895000D01*
X71050000Y-61005000D02*
X71050000Y-54390000D01*
X71090000Y-51510000D02*
X71090000Y-44874000D01*
X71090000Y-61026000D02*
X71090000Y-54390000D01*
X71130000Y-51510000D02*
X71130000Y-44854000D01*
X71130000Y-61046000D02*
X71130000Y-54390000D01*
X71170000Y-51510000D02*
X71170000Y-44834000D01*
X71170000Y-61066000D02*
X71170000Y-54390000D01*
X71210000Y-51510000D02*
X71210000Y-44814000D01*
X71210000Y-61086000D02*
X71210000Y-54390000D01*
X71250000Y-51510000D02*
X71250000Y-44794000D01*
X71250000Y-61106000D02*
X71250000Y-54390000D01*
X71290000Y-51510000D02*
X71290000Y-44775000D01*
X71290000Y-61125000D02*
X71290000Y-54390000D01*
X71330000Y-51510000D02*
X71330000Y-44755000D01*
X71330000Y-61145000D02*
X71330000Y-54390000D01*
X71370000Y-51510000D02*
X71370000Y-44737000D01*
X71370000Y-61163000D02*
X71370000Y-54390000D01*
X71410000Y-51510000D02*
X71410000Y-44718000D01*
X71410000Y-61182000D02*
X71410000Y-54390000D01*
X71450000Y-51510000D02*
X71450000Y-44699000D01*
X71450000Y-61201000D02*
X71450000Y-54390000D01*
X71490000Y-51510000D02*
X71490000Y-44681000D01*
X71490000Y-61219000D02*
X71490000Y-54390000D01*
X71530000Y-51510000D02*
X71530000Y-44663000D01*
X71530000Y-61237000D02*
X71530000Y-54390000D01*
X71570000Y-51510000D02*
X71570000Y-44645000D01*
X71570000Y-61255000D02*
X71570000Y-54390000D01*
X71610000Y-51510000D02*
X71610000Y-44628000D01*
X71610000Y-61272000D02*
X71610000Y-54390000D01*
X71650000Y-51510000D02*
X71650000Y-44611000D01*
X71650000Y-61289000D02*
X71650000Y-54390000D01*
X71690000Y-51510000D02*
X71690000Y-44594000D01*
X71690000Y-61306000D02*
X71690000Y-54390000D01*
X71730000Y-51510000D02*
X71730000Y-44577000D01*
X71730000Y-61323000D02*
X71730000Y-54390000D01*
X71770000Y-51510000D02*
X71770000Y-44560000D01*
X71770000Y-61340000D02*
X71770000Y-54390000D01*
X71810000Y-51510000D02*
X71810000Y-44544000D01*
X71810000Y-61356000D02*
X71810000Y-54390000D01*
X71850000Y-51510000D02*
X71850000Y-44527000D01*
X71850000Y-61373000D02*
X71850000Y-54390000D01*
X71890000Y-51510000D02*
X71890000Y-44512000D01*
X71890000Y-61388000D02*
X71890000Y-54390000D01*
X71930000Y-51510000D02*
X71930000Y-44496000D01*
X71930000Y-61404000D02*
X71930000Y-54390000D01*
X71970000Y-51510000D02*
X71970000Y-44480000D01*
X71970000Y-61420000D02*
X71970000Y-54390000D01*
X72010000Y-51510000D02*
X72010000Y-44465000D01*
X72010000Y-61435000D02*
X72010000Y-54390000D01*
X72050000Y-51510000D02*
X72050000Y-44450000D01*
X72050000Y-61450000D02*
X72050000Y-54390000D01*
X72090000Y-51510000D02*
X72090000Y-44435000D01*
X72090000Y-61465000D02*
X72090000Y-54390000D01*
X72130000Y-51510000D02*
X72130000Y-44420000D01*
X72130000Y-61480000D02*
X72130000Y-54390000D01*
X72170000Y-51510000D02*
X72170000Y-44406000D01*
X72170000Y-61494000D02*
X72170000Y-54390000D01*
X72210000Y-51510000D02*
X72210000Y-44392000D01*
X72210000Y-61508000D02*
X72210000Y-54390000D01*
X72250000Y-51510000D02*
X72250000Y-44378000D01*
X72250000Y-61522000D02*
X72250000Y-54390000D01*
X72290000Y-51510000D02*
X72290000Y-44364000D01*
X72290000Y-61536000D02*
X72290000Y-54390000D01*
X72330000Y-51510000D02*
X72330000Y-44350000D01*
X72330000Y-61550000D02*
X72330000Y-54390000D01*
X72370000Y-51510000D02*
X72370000Y-44337000D01*
X72370000Y-61563000D02*
X72370000Y-54390000D01*
X72410000Y-51510000D02*
X72410000Y-44323000D01*
X72410000Y-61577000D02*
X72410000Y-54390000D01*
X72450000Y-51510000D02*
X72450000Y-44310000D01*
X72450000Y-61590000D02*
X72450000Y-54390000D01*
X72490000Y-51510000D02*
X72490000Y-44298000D01*
X72490000Y-61602000D02*
X72490000Y-54390000D01*
X72530000Y-51510000D02*
X72530000Y-44285000D01*
X72530000Y-61615000D02*
X72530000Y-54390000D01*
X72570000Y-51510000D02*
X72570000Y-44273000D01*
X72570000Y-61627000D02*
X72570000Y-54390000D01*
X72610000Y-51510000D02*
X72610000Y-44260000D01*
X72610000Y-61640000D02*
X72610000Y-54390000D01*
X72650000Y-51510000D02*
X72650000Y-44248000D01*
X72650000Y-61652000D02*
X72650000Y-54390000D01*
X72690000Y-51510000D02*
X72690000Y-44237000D01*
X72690000Y-61663000D02*
X72690000Y-54390000D01*
X72730000Y-51510000D02*
X72730000Y-44225000D01*
X72730000Y-61675000D02*
X72730000Y-54390000D01*
X72770000Y-51510000D02*
X72770000Y-44214000D01*
X72770000Y-61686000D02*
X72770000Y-54390000D01*
X72810000Y-51510000D02*
X72810000Y-44202000D01*
X72810000Y-61698000D02*
X72810000Y-54390000D01*
X72850000Y-51510000D02*
X72850000Y-44191000D01*
X72850000Y-61709000D02*
X72850000Y-54390000D01*
X72890000Y-51510000D02*
X72890000Y-44181000D01*
X72890000Y-61719000D02*
X72890000Y-54390000D01*
X72930000Y-51510000D02*
X72930000Y-44170000D01*
X72930000Y-61730000D02*
X72930000Y-54390000D01*
X72970000Y-61740000D02*
X72970000Y-44160000D01*
X73010000Y-61751000D02*
X73010000Y-44149000D01*
X73050000Y-61761000D02*
X73050000Y-44139000D01*
X73090000Y-61771000D02*
X73090000Y-44129000D01*
X73130000Y-61780000D02*
X73130000Y-44120000D01*
X73170000Y-61790000D02*
X73170000Y-44110000D01*
X73210000Y-61799000D02*
X73210000Y-44101000D01*
X73250000Y-61808000D02*
X73250000Y-44092000D01*
X73290000Y-61817000D02*
X73290000Y-44083000D01*
X73330000Y-61826000D02*
X73330000Y-44074000D01*
X73370000Y-61834000D02*
X73370000Y-44066000D01*
X73410000Y-61842000D02*
X73410000Y-44058000D01*
X73450000Y-61851000D02*
X73450000Y-44049000D01*
X73490000Y-61859000D02*
X73490000Y-44041000D01*
X73530000Y-61866000D02*
X73530000Y-44034000D01*
X73570000Y-61874000D02*
X73570000Y-44026000D01*
X73610000Y-61881000D02*
X73610000Y-44019000D01*
X73650000Y-61889000D02*
X73650000Y-44011000D01*
X73690000Y-61896000D02*
X73690000Y-44004000D01*
X73730000Y-61902000D02*
X73730000Y-43998000D01*
X73770000Y-61909000D02*
X73770000Y-43991000D01*
X73810000Y-61916000D02*
X73810000Y-43984000D01*
X73850000Y-61922000D02*
X73850000Y-43978000D01*
X73890000Y-61928000D02*
X73890000Y-43972000D01*
X73930000Y-61934000D02*
X73930000Y-43966000D01*
X73970000Y-61940000D02*
X73970000Y-43960000D01*
X74010000Y-61945000D02*
X74010000Y-43955000D01*
X74050000Y-61951000D02*
X74050000Y-43949000D01*
X74090000Y-61956000D02*
X74090000Y-43944000D01*
X74130000Y-61961000D02*
X74130000Y-43939000D01*
X74170000Y-61966000D02*
X74170000Y-43934000D01*
X74210000Y-61971000D02*
X74210000Y-43929000D01*
X74250000Y-61975000D02*
X74250000Y-43925000D01*
X74290000Y-61979000D02*
X74290000Y-43921000D01*
X74330000Y-61983000D02*
X74330000Y-43917000D01*
X74370000Y-61987000D02*
X74370000Y-43913000D01*
X74410000Y-61991000D02*
X74410000Y-43909000D01*
X74450000Y-61995000D02*
X74450000Y-43905000D01*
X74490000Y-61998000D02*
X74490000Y-43902000D01*
X74530000Y-62002000D02*
X74530000Y-43898000D01*
X74570000Y-62005000D02*
X74570000Y-43895000D01*
X74610000Y-62008000D02*
X74610000Y-43892000D01*
X74650000Y-62010000D02*
X74650000Y-43890000D01*
X74690000Y-62013000D02*
X74690000Y-43887000D01*
X74730000Y-62015000D02*
X74730000Y-43885000D01*
X74770000Y-62017000D02*
X74770000Y-43883000D01*
X74810000Y-62019000D02*
X74810000Y-43881000D01*
X74850000Y-62021000D02*
X74850000Y-43879000D01*
X74890000Y-62023000D02*
X74890000Y-43877000D01*
X74930000Y-62024000D02*
X74930000Y-43876000D01*
X74970000Y-62026000D02*
X74970000Y-43874000D01*
X75010000Y-62027000D02*
X75010000Y-43873000D01*
X75050000Y-62028000D02*
X75050000Y-43872000D01*
X75090000Y-62029000D02*
X75090000Y-43871000D01*
X75130000Y-62029000D02*
X75130000Y-43871000D01*
X75170000Y-62030000D02*
X75170000Y-43870000D01*
X75210000Y-62030000D02*
X75210000Y-43870000D01*
X75250000Y-62030000D02*
X75250000Y-43870000D01*
X84109440Y-58965000D02*
X84109440Y-57165000D01*
X85009440Y-58065000D02*
X83209440Y-58065000D01*
X84370000Y-52950000D02*
G75*
G02*
X66130000Y-52950000I-9120000J0D01*
G01*
X66130000Y-52950000D02*
G75*
G02*
X84370000Y-52950000I9120000J0D01*
G01*
%TO.C,C1*%
X65512780Y-106835000D02*
X67312780Y-106835000D01*
X66412780Y-105935000D02*
X66412780Y-107735000D01*
X75272220Y-102870000D02*
X75272220Y-121030000D01*
X75312220Y-102870000D02*
X75312220Y-121030000D01*
X75352220Y-102870000D02*
X75352220Y-121030000D01*
X75392220Y-102871000D02*
X75392220Y-121029000D01*
X75432220Y-102871000D02*
X75432220Y-121029000D01*
X75472220Y-102872000D02*
X75472220Y-121028000D01*
X75512220Y-102873000D02*
X75512220Y-121027000D01*
X75552220Y-102874000D02*
X75552220Y-121026000D01*
X75592220Y-102876000D02*
X75592220Y-121024000D01*
X75632220Y-102877000D02*
X75632220Y-121023000D01*
X75672220Y-102879000D02*
X75672220Y-121021000D01*
X75712220Y-102881000D02*
X75712220Y-121019000D01*
X75752220Y-102883000D02*
X75752220Y-121017000D01*
X75792220Y-102885000D02*
X75792220Y-121015000D01*
X75832220Y-102887000D02*
X75832220Y-121013000D01*
X75872220Y-102890000D02*
X75872220Y-121010000D01*
X75912220Y-102892000D02*
X75912220Y-121008000D01*
X75952220Y-102895000D02*
X75952220Y-121005000D01*
X75992220Y-102898000D02*
X75992220Y-121002000D01*
X76032220Y-102902000D02*
X76032220Y-120998000D01*
X76072220Y-102905000D02*
X76072220Y-120995000D01*
X76112220Y-102909000D02*
X76112220Y-120991000D01*
X76152220Y-102913000D02*
X76152220Y-120987000D01*
X76192220Y-102917000D02*
X76192220Y-120983000D01*
X76232220Y-102921000D02*
X76232220Y-120979000D01*
X76272220Y-102925000D02*
X76272220Y-120975000D01*
X76312220Y-102929000D02*
X76312220Y-120971000D01*
X76352220Y-102934000D02*
X76352220Y-120966000D01*
X76392220Y-102939000D02*
X76392220Y-120961000D01*
X76432220Y-102944000D02*
X76432220Y-120956000D01*
X76472220Y-102949000D02*
X76472220Y-120951000D01*
X76512220Y-102955000D02*
X76512220Y-120945000D01*
X76552220Y-102960000D02*
X76552220Y-120940000D01*
X76592220Y-102966000D02*
X76592220Y-120934000D01*
X76632220Y-102972000D02*
X76632220Y-120928000D01*
X76672220Y-102978000D02*
X76672220Y-120922000D01*
X76712220Y-102984000D02*
X76712220Y-120916000D01*
X76752220Y-102991000D02*
X76752220Y-120909000D01*
X76792220Y-102998000D02*
X76792220Y-120902000D01*
X76832220Y-103004000D02*
X76832220Y-120896000D01*
X76872220Y-103011000D02*
X76872220Y-120889000D01*
X76912220Y-103019000D02*
X76912220Y-120881000D01*
X76952220Y-103026000D02*
X76952220Y-120874000D01*
X76992220Y-103034000D02*
X76992220Y-120866000D01*
X77032220Y-103041000D02*
X77032220Y-120859000D01*
X77072220Y-103049000D02*
X77072220Y-120851000D01*
X77112220Y-103058000D02*
X77112220Y-120842000D01*
X77152220Y-103066000D02*
X77152220Y-120834000D01*
X77192220Y-103074000D02*
X77192220Y-120826000D01*
X77232220Y-103083000D02*
X77232220Y-120817000D01*
X77272220Y-103092000D02*
X77272220Y-120808000D01*
X77312220Y-103101000D02*
X77312220Y-120799000D01*
X77352220Y-103110000D02*
X77352220Y-120790000D01*
X77392220Y-103120000D02*
X77392220Y-120780000D01*
X77432220Y-103129000D02*
X77432220Y-120771000D01*
X77472220Y-103139000D02*
X77472220Y-120761000D01*
X77512220Y-103149000D02*
X77512220Y-120751000D01*
X77552220Y-103160000D02*
X77552220Y-120740000D01*
X77592220Y-103170000D02*
X77592220Y-110510000D01*
X77592220Y-113390000D02*
X77592220Y-120730000D01*
X77632220Y-103181000D02*
X77632220Y-110510000D01*
X77632220Y-113390000D02*
X77632220Y-120719000D01*
X77672220Y-103191000D02*
X77672220Y-110510000D01*
X77672220Y-113390000D02*
X77672220Y-120709000D01*
X77712220Y-103202000D02*
X77712220Y-110510000D01*
X77712220Y-113390000D02*
X77712220Y-120698000D01*
X77752220Y-103214000D02*
X77752220Y-110510000D01*
X77752220Y-113390000D02*
X77752220Y-120686000D01*
X77792220Y-103225000D02*
X77792220Y-110510000D01*
X77792220Y-113390000D02*
X77792220Y-120675000D01*
X77832220Y-103237000D02*
X77832220Y-110510000D01*
X77832220Y-113390000D02*
X77832220Y-120663000D01*
X77872220Y-103248000D02*
X77872220Y-110510000D01*
X77872220Y-113390000D02*
X77872220Y-120652000D01*
X77912220Y-103260000D02*
X77912220Y-110510000D01*
X77912220Y-113390000D02*
X77912220Y-120640000D01*
X77952220Y-103273000D02*
X77952220Y-110510000D01*
X77952220Y-113390000D02*
X77952220Y-120627000D01*
X77992220Y-103285000D02*
X77992220Y-110510000D01*
X77992220Y-113390000D02*
X77992220Y-120615000D01*
X78032220Y-103298000D02*
X78032220Y-110510000D01*
X78032220Y-113390000D02*
X78032220Y-120602000D01*
X78072220Y-103310000D02*
X78072220Y-110510000D01*
X78072220Y-113390000D02*
X78072220Y-120590000D01*
X78112220Y-103323000D02*
X78112220Y-110510000D01*
X78112220Y-113390000D02*
X78112220Y-120577000D01*
X78152220Y-103337000D02*
X78152220Y-110510000D01*
X78152220Y-113390000D02*
X78152220Y-120563000D01*
X78192220Y-103350000D02*
X78192220Y-110510000D01*
X78192220Y-113390000D02*
X78192220Y-120550000D01*
X78232220Y-103364000D02*
X78232220Y-110510000D01*
X78232220Y-113390000D02*
X78232220Y-120536000D01*
X78272220Y-103378000D02*
X78272220Y-110510000D01*
X78272220Y-113390000D02*
X78272220Y-120522000D01*
X78312220Y-103392000D02*
X78312220Y-110510000D01*
X78312220Y-113390000D02*
X78312220Y-120508000D01*
X78352220Y-103406000D02*
X78352220Y-110510000D01*
X78352220Y-113390000D02*
X78352220Y-120494000D01*
X78392220Y-103420000D02*
X78392220Y-110510000D01*
X78392220Y-113390000D02*
X78392220Y-120480000D01*
X78432220Y-103435000D02*
X78432220Y-110510000D01*
X78432220Y-113390000D02*
X78432220Y-120465000D01*
X78472220Y-103450000D02*
X78472220Y-110510000D01*
X78472220Y-113390000D02*
X78472220Y-120450000D01*
X78512220Y-103465000D02*
X78512220Y-110510000D01*
X78512220Y-113390000D02*
X78512220Y-120435000D01*
X78552220Y-103480000D02*
X78552220Y-110510000D01*
X78552220Y-113390000D02*
X78552220Y-120420000D01*
X78592220Y-103496000D02*
X78592220Y-110510000D01*
X78592220Y-113390000D02*
X78592220Y-120404000D01*
X78632220Y-103512000D02*
X78632220Y-110510000D01*
X78632220Y-113390000D02*
X78632220Y-120388000D01*
X78672220Y-103527000D02*
X78672220Y-110510000D01*
X78672220Y-113390000D02*
X78672220Y-120373000D01*
X78712220Y-103544000D02*
X78712220Y-110510000D01*
X78712220Y-113390000D02*
X78712220Y-120356000D01*
X78752220Y-103560000D02*
X78752220Y-110510000D01*
X78752220Y-113390000D02*
X78752220Y-120340000D01*
X78792220Y-103577000D02*
X78792220Y-110510000D01*
X78792220Y-113390000D02*
X78792220Y-120323000D01*
X78832220Y-103594000D02*
X78832220Y-110510000D01*
X78832220Y-113390000D02*
X78832220Y-120306000D01*
X78872220Y-103611000D02*
X78872220Y-110510000D01*
X78872220Y-113390000D02*
X78872220Y-120289000D01*
X78912220Y-103628000D02*
X78912220Y-110510000D01*
X78912220Y-113390000D02*
X78912220Y-120272000D01*
X78952220Y-103645000D02*
X78952220Y-110510000D01*
X78952220Y-113390000D02*
X78952220Y-120255000D01*
X78992220Y-103663000D02*
X78992220Y-110510000D01*
X78992220Y-113390000D02*
X78992220Y-120237000D01*
X79032220Y-103681000D02*
X79032220Y-110510000D01*
X79032220Y-113390000D02*
X79032220Y-120219000D01*
X79072220Y-103699000D02*
X79072220Y-110510000D01*
X79072220Y-113390000D02*
X79072220Y-120201000D01*
X79112220Y-103718000D02*
X79112220Y-110510000D01*
X79112220Y-113390000D02*
X79112220Y-120182000D01*
X79152220Y-103737000D02*
X79152220Y-110510000D01*
X79152220Y-113390000D02*
X79152220Y-120163000D01*
X79192220Y-103755000D02*
X79192220Y-110510000D01*
X79192220Y-113390000D02*
X79192220Y-120145000D01*
X79232220Y-103775000D02*
X79232220Y-110510000D01*
X79232220Y-113390000D02*
X79232220Y-120125000D01*
X79272220Y-103794000D02*
X79272220Y-110510000D01*
X79272220Y-113390000D02*
X79272220Y-120106000D01*
X79312220Y-103814000D02*
X79312220Y-110510000D01*
X79312220Y-113390000D02*
X79312220Y-120086000D01*
X79352220Y-103834000D02*
X79352220Y-110510000D01*
X79352220Y-113390000D02*
X79352220Y-120066000D01*
X79392220Y-103854000D02*
X79392220Y-110510000D01*
X79392220Y-113390000D02*
X79392220Y-120046000D01*
X79432220Y-103874000D02*
X79432220Y-110510000D01*
X79432220Y-113390000D02*
X79432220Y-120026000D01*
X79472220Y-103895000D02*
X79472220Y-110510000D01*
X79472220Y-113390000D02*
X79472220Y-120005000D01*
X79512220Y-103916000D02*
X79512220Y-110510000D01*
X79512220Y-113390000D02*
X79512220Y-119984000D01*
X79552220Y-103937000D02*
X79552220Y-110510000D01*
X79552220Y-113390000D02*
X79552220Y-119963000D01*
X79592220Y-103958000D02*
X79592220Y-110510000D01*
X79592220Y-113390000D02*
X79592220Y-119942000D01*
X79632220Y-103980000D02*
X79632220Y-110510000D01*
X79632220Y-113390000D02*
X79632220Y-119920000D01*
X79672220Y-104002000D02*
X79672220Y-110510000D01*
X79672220Y-113390000D02*
X79672220Y-119898000D01*
X79712220Y-104024000D02*
X79712220Y-110510000D01*
X79712220Y-113390000D02*
X79712220Y-119876000D01*
X79752220Y-104046000D02*
X79752220Y-110510000D01*
X79752220Y-113390000D02*
X79752220Y-119854000D01*
X79792220Y-104069000D02*
X79792220Y-110510000D01*
X79792220Y-113390000D02*
X79792220Y-119831000D01*
X79832220Y-104092000D02*
X79832220Y-110510000D01*
X79832220Y-113390000D02*
X79832220Y-119808000D01*
X79872220Y-104115000D02*
X79872220Y-110510000D01*
X79872220Y-113390000D02*
X79872220Y-119785000D01*
X79912220Y-104139000D02*
X79912220Y-110510000D01*
X79912220Y-113390000D02*
X79912220Y-119761000D01*
X79952220Y-104162000D02*
X79952220Y-110510000D01*
X79952220Y-113390000D02*
X79952220Y-119738000D01*
X79992220Y-104186000D02*
X79992220Y-110510000D01*
X79992220Y-113390000D02*
X79992220Y-119714000D01*
X80032220Y-104211000D02*
X80032220Y-110510000D01*
X80032220Y-113390000D02*
X80032220Y-119689000D01*
X80072220Y-104235000D02*
X80072220Y-110510000D01*
X80072220Y-113390000D02*
X80072220Y-119665000D01*
X80112220Y-104260000D02*
X80112220Y-110510000D01*
X80112220Y-113390000D02*
X80112220Y-119640000D01*
X80152220Y-104285000D02*
X80152220Y-110510000D01*
X80152220Y-113390000D02*
X80152220Y-119615000D01*
X80192220Y-104311000D02*
X80192220Y-110510000D01*
X80192220Y-113390000D02*
X80192220Y-119589000D01*
X80232220Y-104337000D02*
X80232220Y-110510000D01*
X80232220Y-113390000D02*
X80232220Y-119563000D01*
X80272220Y-104363000D02*
X80272220Y-110510000D01*
X80272220Y-113390000D02*
X80272220Y-119537000D01*
X80312220Y-104389000D02*
X80312220Y-110510000D01*
X80312220Y-113390000D02*
X80312220Y-119511000D01*
X80352220Y-104416000D02*
X80352220Y-110510000D01*
X80352220Y-113390000D02*
X80352220Y-119484000D01*
X80392220Y-104443000D02*
X80392220Y-110510000D01*
X80392220Y-113390000D02*
X80392220Y-119457000D01*
X80432220Y-104470000D02*
X80432220Y-110510000D01*
X80432220Y-113390000D02*
X80432220Y-119430000D01*
X80472220Y-104498000D02*
X80472220Y-119402000D01*
X80512220Y-104526000D02*
X80512220Y-119374000D01*
X80552220Y-104554000D02*
X80552220Y-119346000D01*
X80592220Y-104582000D02*
X80592220Y-119318000D01*
X80632220Y-104611000D02*
X80632220Y-119289000D01*
X80672220Y-104641000D02*
X80672220Y-119259000D01*
X80712220Y-104670000D02*
X80712220Y-119230000D01*
X80752220Y-104700000D02*
X80752220Y-119200000D01*
X80792220Y-104730000D02*
X80792220Y-119170000D01*
X80832220Y-104761000D02*
X80832220Y-119139000D01*
X80872220Y-104792000D02*
X80872220Y-119108000D01*
X80912220Y-104823000D02*
X80912220Y-119077000D01*
X80952220Y-104855000D02*
X80952220Y-119045000D01*
X80992220Y-104887000D02*
X80992220Y-119013000D01*
X81032220Y-104919000D02*
X81032220Y-118981000D01*
X81072220Y-104952000D02*
X81072220Y-118948000D01*
X81112220Y-104985000D02*
X81112220Y-118915000D01*
X81152220Y-105019000D02*
X81152220Y-118881000D01*
X81192220Y-105053000D02*
X81192220Y-118847000D01*
X81232220Y-105087000D02*
X81232220Y-118813000D01*
X81272220Y-105122000D02*
X81272220Y-118778000D01*
X81312220Y-105157000D02*
X81312220Y-118743000D01*
X81352220Y-105192000D02*
X81352220Y-118708000D01*
X81392220Y-105228000D02*
X81392220Y-118672000D01*
X81432220Y-105265000D02*
X81432220Y-118635000D01*
X81472220Y-105302000D02*
X81472220Y-118598000D01*
X81512220Y-105339000D02*
X81512220Y-118561000D01*
X81552220Y-105377000D02*
X81552220Y-118523000D01*
X81592220Y-105415000D02*
X81592220Y-118485000D01*
X81632220Y-105454000D02*
X81632220Y-118446000D01*
X81672220Y-105493000D02*
X81672220Y-118407000D01*
X81712220Y-105532000D02*
X81712220Y-118368000D01*
X81752220Y-105573000D02*
X81752220Y-118327000D01*
X81792220Y-105613000D02*
X81792220Y-118287000D01*
X81832220Y-105654000D02*
X81832220Y-118246000D01*
X81872220Y-105696000D02*
X81872220Y-118204000D01*
X81912220Y-105738000D02*
X81912220Y-118162000D01*
X81952220Y-105781000D02*
X81952220Y-118119000D01*
X81992220Y-105824000D02*
X81992220Y-118076000D01*
X82032220Y-105868000D02*
X82032220Y-118032000D01*
X82072220Y-105913000D02*
X82072220Y-117987000D01*
X82112220Y-105958000D02*
X82112220Y-117942000D01*
X82152220Y-106003000D02*
X82152220Y-117897000D01*
X82192220Y-106050000D02*
X82192220Y-117850000D01*
X82232220Y-106097000D02*
X82232220Y-117803000D01*
X82272220Y-106144000D02*
X82272220Y-117756000D01*
X82312220Y-106192000D02*
X82312220Y-117708000D01*
X82352220Y-106241000D02*
X82352220Y-117659000D01*
X82392220Y-106291000D02*
X82392220Y-117609000D01*
X82432220Y-106341000D02*
X82432220Y-117559000D01*
X82472220Y-106392000D02*
X82472220Y-117508000D01*
X82512220Y-106444000D02*
X82512220Y-117456000D01*
X82552220Y-106497000D02*
X82552220Y-117403000D01*
X82592220Y-106550000D02*
X82592220Y-117350000D01*
X82632220Y-106604000D02*
X82632220Y-117296000D01*
X82672220Y-106659000D02*
X82672220Y-117241000D01*
X82712220Y-106715000D02*
X82712220Y-117185000D01*
X82752220Y-106772000D02*
X82752220Y-117128000D01*
X82792220Y-106830000D02*
X82792220Y-117070000D01*
X82832220Y-106889000D02*
X82832220Y-117011000D01*
X82872220Y-106949000D02*
X82872220Y-116951000D01*
X82912220Y-107010000D02*
X82912220Y-116890000D01*
X82952220Y-107071000D02*
X82952220Y-116829000D01*
X82992220Y-107134000D02*
X82992220Y-116766000D01*
X83032220Y-107199000D02*
X83032220Y-116701000D01*
X83072220Y-107264000D02*
X83072220Y-116636000D01*
X83112220Y-107331000D02*
X83112220Y-116569000D01*
X83152220Y-107399000D02*
X83152220Y-116501000D01*
X83192220Y-107468000D02*
X83192220Y-116432000D01*
X83232220Y-107539000D02*
X83232220Y-116361000D01*
X83272220Y-107611000D02*
X83272220Y-116289000D01*
X83312220Y-107685000D02*
X83312220Y-116215000D01*
X83352220Y-107761000D02*
X83352220Y-116139000D01*
X83392220Y-107838000D02*
X83392220Y-116062000D01*
X83432220Y-107917000D02*
X83432220Y-115983000D01*
X83472220Y-107998000D02*
X83472220Y-115902000D01*
X83512220Y-108081000D02*
X83512220Y-115819000D01*
X83552220Y-108167000D02*
X83552220Y-115733000D01*
X83592220Y-108255000D02*
X83592220Y-115645000D01*
X83632220Y-108345000D02*
X83632220Y-115555000D01*
X83672220Y-108438000D02*
X83672220Y-115462000D01*
X83712220Y-108534000D02*
X83712220Y-115366000D01*
X83752220Y-108634000D02*
X83752220Y-115266000D01*
X83792220Y-108737000D02*
X83792220Y-115163000D01*
X83832220Y-108843000D02*
X83832220Y-115057000D01*
X83872220Y-108954000D02*
X83872220Y-114946000D01*
X83912220Y-109070000D02*
X83912220Y-114830000D01*
X83952220Y-109191000D02*
X83952220Y-114709000D01*
X83992220Y-109319000D02*
X83992220Y-114581000D01*
X84032220Y-109453000D02*
X84032220Y-114447000D01*
X84072220Y-109595000D02*
X84072220Y-114305000D01*
X84112220Y-109748000D02*
X84112220Y-114152000D01*
X84152220Y-109912000D02*
X84152220Y-113988000D01*
X84192220Y-110091000D02*
X84192220Y-113809000D01*
X84232220Y-110289000D02*
X84232220Y-113611000D01*
X84272220Y-110515000D02*
X84272220Y-113385000D01*
X84312220Y-110785000D02*
X84312220Y-113115000D01*
X84352220Y-111137000D02*
X84352220Y-112763000D01*
X84392220Y-111990000D02*
X84392220Y-111910000D01*
X84392220Y-111950000D02*
G75*
G02*
X66152220Y-111950000I-9120000J0D01*
G01*
X66152220Y-111950000D02*
G75*
G02*
X84392220Y-111950000I9120000J0D01*
G01*
%TD*%
M02*
