%TF.GenerationSoftware,KiCad,Pcbnew,10.0.3*%
%TF.CreationDate,2026-07-04T10:38:11+10:00*%
%TF.ProjectId,arduino-delay,61726475-696e-46f2-9d64-656c61792e6b,rev?*%
%TF.SameCoordinates,Original*%
%TF.FileFunction,Legend,Top*%
%TF.FilePolarity,Positive*%
%FSLAX46Y46*%
G04 Gerber Fmt 4.6, Leading zero omitted, Abs format (unit mm)*
G04 Created by KiCad (PCBNEW 10.0.3) date 2026-07-04 10:38:11*
%MOMM*%
%LPD*%
G01*
G04 APERTURE LIST*
%ADD10C,0.100000*%
%ADD11C,0.150000*%
%ADD12C,0.120000*%
G04 APERTURE END LIST*
D10*
X28657195Y-172756265D02*
X28657195Y-173232455D01*
X28371480Y-172661027D02*
X29371480Y-172994360D01*
X29371480Y-172994360D02*
X28371480Y-173327693D01*
X28371480Y-174232455D02*
X28847671Y-173899122D01*
X28371480Y-173661027D02*
X29371480Y-173661027D01*
X29371480Y-173661027D02*
X29371480Y-174041979D01*
X29371480Y-174041979D02*
X29323861Y-174137217D01*
X29323861Y-174137217D02*
X29276242Y-174184836D01*
X29276242Y-174184836D02*
X29181004Y-174232455D01*
X29181004Y-174232455D02*
X29038147Y-174232455D01*
X29038147Y-174232455D02*
X28942909Y-174184836D01*
X28942909Y-174184836D02*
X28895290Y-174137217D01*
X28895290Y-174137217D02*
X28847671Y-174041979D01*
X28847671Y-174041979D02*
X28847671Y-173661027D01*
X28371480Y-174661027D02*
X29371480Y-174661027D01*
X29371480Y-174661027D02*
X29371480Y-174899122D01*
X29371480Y-174899122D02*
X29323861Y-175041979D01*
X29323861Y-175041979D02*
X29228623Y-175137217D01*
X29228623Y-175137217D02*
X29133385Y-175184836D01*
X29133385Y-175184836D02*
X28942909Y-175232455D01*
X28942909Y-175232455D02*
X28800052Y-175232455D01*
X28800052Y-175232455D02*
X28609576Y-175184836D01*
X28609576Y-175184836D02*
X28514338Y-175137217D01*
X28514338Y-175137217D02*
X28419100Y-175041979D01*
X28419100Y-175041979D02*
X28371480Y-174899122D01*
X28371480Y-174899122D02*
X28371480Y-174661027D01*
X29371480Y-175661027D02*
X28561957Y-175661027D01*
X28561957Y-175661027D02*
X28466719Y-175708646D01*
X28466719Y-175708646D02*
X28419100Y-175756265D01*
X28419100Y-175756265D02*
X28371480Y-175851503D01*
X28371480Y-175851503D02*
X28371480Y-176041979D01*
X28371480Y-176041979D02*
X28419100Y-176137217D01*
X28419100Y-176137217D02*
X28466719Y-176184836D01*
X28466719Y-176184836D02*
X28561957Y-176232455D01*
X28561957Y-176232455D02*
X29371480Y-176232455D01*
X28371480Y-176708646D02*
X29371480Y-176708646D01*
X28371480Y-177184836D02*
X29371480Y-177184836D01*
X29371480Y-177184836D02*
X28371480Y-177756264D01*
X28371480Y-177756264D02*
X29371480Y-177756264D01*
X29371480Y-178422931D02*
X29371480Y-178613407D01*
X29371480Y-178613407D02*
X29323861Y-178708645D01*
X29323861Y-178708645D02*
X29228623Y-178803883D01*
X29228623Y-178803883D02*
X29038147Y-178851502D01*
X29038147Y-178851502D02*
X28704814Y-178851502D01*
X28704814Y-178851502D02*
X28514338Y-178803883D01*
X28514338Y-178803883D02*
X28419100Y-178708645D01*
X28419100Y-178708645D02*
X28371480Y-178613407D01*
X28371480Y-178613407D02*
X28371480Y-178422931D01*
X28371480Y-178422931D02*
X28419100Y-178327693D01*
X28419100Y-178327693D02*
X28514338Y-178232455D01*
X28514338Y-178232455D02*
X28704814Y-178184836D01*
X28704814Y-178184836D02*
X29038147Y-178184836D01*
X29038147Y-178184836D02*
X29228623Y-178232455D01*
X29228623Y-178232455D02*
X29323861Y-178327693D01*
X29323861Y-178327693D02*
X29371480Y-178422931D01*
X26761536Y-172803884D02*
X27761536Y-172803884D01*
X27761536Y-172803884D02*
X27761536Y-173041979D01*
X27761536Y-173041979D02*
X27713917Y-173184836D01*
X27713917Y-173184836D02*
X27618679Y-173280074D01*
X27618679Y-173280074D02*
X27523441Y-173327693D01*
X27523441Y-173327693D02*
X27332965Y-173375312D01*
X27332965Y-173375312D02*
X27190108Y-173375312D01*
X27190108Y-173375312D02*
X26999632Y-173327693D01*
X26999632Y-173327693D02*
X26904394Y-173280074D01*
X26904394Y-173280074D02*
X26809156Y-173184836D01*
X26809156Y-173184836D02*
X26761536Y-173041979D01*
X26761536Y-173041979D02*
X26761536Y-172803884D01*
X27285346Y-173803884D02*
X27285346Y-174137217D01*
X26761536Y-174280074D02*
X26761536Y-173803884D01*
X26761536Y-173803884D02*
X27761536Y-173803884D01*
X27761536Y-173803884D02*
X27761536Y-174280074D01*
X26761536Y-175184836D02*
X26761536Y-174708646D01*
X26761536Y-174708646D02*
X27761536Y-174708646D01*
X27047251Y-175470551D02*
X27047251Y-175946741D01*
X26761536Y-175375313D02*
X27761536Y-175708646D01*
X27761536Y-175708646D02*
X26761536Y-176041979D01*
X27237727Y-176565789D02*
X26761536Y-176565789D01*
X27761536Y-176232456D02*
X27237727Y-176565789D01*
X27237727Y-176565789D02*
X27761536Y-176899122D01*
X27761536Y-177851504D02*
X26761536Y-178184837D01*
X26761536Y-178184837D02*
X27761536Y-178518170D01*
X26761536Y-179375313D02*
X26761536Y-178803885D01*
X26761536Y-179089599D02*
X27761536Y-179089599D01*
X27761536Y-179089599D02*
X27618679Y-178994361D01*
X27618679Y-178994361D02*
X27523441Y-178899123D01*
X27523441Y-178899123D02*
X27475822Y-178803885D01*
D11*
X60467289Y-96359580D02*
X60419670Y-96407200D01*
X60419670Y-96407200D02*
X60276813Y-96454819D01*
X60276813Y-96454819D02*
X60181575Y-96454819D01*
X60181575Y-96454819D02*
X60038718Y-96407200D01*
X60038718Y-96407200D02*
X59943480Y-96311961D01*
X59943480Y-96311961D02*
X59895861Y-96216723D01*
X59895861Y-96216723D02*
X59848242Y-96026247D01*
X59848242Y-96026247D02*
X59848242Y-95883390D01*
X59848242Y-95883390D02*
X59895861Y-95692914D01*
X59895861Y-95692914D02*
X59943480Y-95597676D01*
X59943480Y-95597676D02*
X60038718Y-95502438D01*
X60038718Y-95502438D02*
X60181575Y-95454819D01*
X60181575Y-95454819D02*
X60276813Y-95454819D01*
X60276813Y-95454819D02*
X60419670Y-95502438D01*
X60419670Y-95502438D02*
X60467289Y-95550057D01*
X60800623Y-95454819D02*
X61467289Y-95454819D01*
X61467289Y-95454819D02*
X61038718Y-96454819D01*
D10*
X51600623Y-110409800D02*
X51743480Y-110457419D01*
X51743480Y-110457419D02*
X51981575Y-110457419D01*
X51981575Y-110457419D02*
X52076813Y-110409800D01*
X52076813Y-110409800D02*
X52124432Y-110362180D01*
X52124432Y-110362180D02*
X52172051Y-110266942D01*
X52172051Y-110266942D02*
X52172051Y-110171704D01*
X52172051Y-110171704D02*
X52124432Y-110076466D01*
X52124432Y-110076466D02*
X52076813Y-110028847D01*
X52076813Y-110028847D02*
X51981575Y-109981228D01*
X51981575Y-109981228D02*
X51791099Y-109933609D01*
X51791099Y-109933609D02*
X51695861Y-109885990D01*
X51695861Y-109885990D02*
X51648242Y-109838371D01*
X51648242Y-109838371D02*
X51600623Y-109743133D01*
X51600623Y-109743133D02*
X51600623Y-109647895D01*
X51600623Y-109647895D02*
X51648242Y-109552657D01*
X51648242Y-109552657D02*
X51695861Y-109505038D01*
X51695861Y-109505038D02*
X51791099Y-109457419D01*
X51791099Y-109457419D02*
X52029194Y-109457419D01*
X52029194Y-109457419D02*
X52172051Y-109505038D01*
X52505385Y-109457419D02*
X52743480Y-110457419D01*
X52743480Y-110457419D02*
X52933956Y-109743133D01*
X52933956Y-109743133D02*
X53124432Y-110457419D01*
X53124432Y-110457419D02*
X53362528Y-109457419D01*
X53695861Y-109552657D02*
X53743480Y-109505038D01*
X53743480Y-109505038D02*
X53838718Y-109457419D01*
X53838718Y-109457419D02*
X54076813Y-109457419D01*
X54076813Y-109457419D02*
X54172051Y-109505038D01*
X54172051Y-109505038D02*
X54219670Y-109552657D01*
X54219670Y-109552657D02*
X54267289Y-109647895D01*
X54267289Y-109647895D02*
X54267289Y-109743133D01*
X54267289Y-109743133D02*
X54219670Y-109885990D01*
X54219670Y-109885990D02*
X53648242Y-110457419D01*
X53648242Y-110457419D02*
X54267289Y-110457419D01*
D11*
X49878775Y-62166666D02*
X49402584Y-62499999D01*
X49878775Y-62738094D02*
X48878775Y-62738094D01*
X48878775Y-62738094D02*
X48878775Y-62357142D01*
X48878775Y-62357142D02*
X48926394Y-62261904D01*
X48926394Y-62261904D02*
X48974013Y-62214285D01*
X48974013Y-62214285D02*
X49069251Y-62166666D01*
X49069251Y-62166666D02*
X49212108Y-62166666D01*
X49212108Y-62166666D02*
X49307346Y-62214285D01*
X49307346Y-62214285D02*
X49354965Y-62261904D01*
X49354965Y-62261904D02*
X49402584Y-62357142D01*
X49402584Y-62357142D02*
X49402584Y-62738094D01*
X48974013Y-61785713D02*
X48926394Y-61738094D01*
X48926394Y-61738094D02*
X48878775Y-61642856D01*
X48878775Y-61642856D02*
X48878775Y-61404761D01*
X48878775Y-61404761D02*
X48926394Y-61309523D01*
X48926394Y-61309523D02*
X48974013Y-61261904D01*
X48974013Y-61261904D02*
X49069251Y-61214285D01*
X49069251Y-61214285D02*
X49164489Y-61214285D01*
X49164489Y-61214285D02*
X49307346Y-61261904D01*
X49307346Y-61261904D02*
X49878775Y-61833332D01*
X49878775Y-61833332D02*
X49878775Y-61214285D01*
X43991098Y-93954819D02*
X43657765Y-93478628D01*
X43419670Y-93954819D02*
X43419670Y-92954819D01*
X43419670Y-92954819D02*
X43800622Y-92954819D01*
X43800622Y-92954819D02*
X43895860Y-93002438D01*
X43895860Y-93002438D02*
X43943479Y-93050057D01*
X43943479Y-93050057D02*
X43991098Y-93145295D01*
X43991098Y-93145295D02*
X43991098Y-93288152D01*
X43991098Y-93288152D02*
X43943479Y-93383390D01*
X43943479Y-93383390D02*
X43895860Y-93431009D01*
X43895860Y-93431009D02*
X43800622Y-93478628D01*
X43800622Y-93478628D02*
X43419670Y-93478628D01*
X44943479Y-93954819D02*
X44372051Y-93954819D01*
X44657765Y-93954819D02*
X44657765Y-92954819D01*
X44657765Y-92954819D02*
X44562527Y-93097676D01*
X44562527Y-93097676D02*
X44467289Y-93192914D01*
X44467289Y-93192914D02*
X44372051Y-93240533D01*
X45324432Y-93050057D02*
X45372051Y-93002438D01*
X45372051Y-93002438D02*
X45467289Y-92954819D01*
X45467289Y-92954819D02*
X45705384Y-92954819D01*
X45705384Y-92954819D02*
X45800622Y-93002438D01*
X45800622Y-93002438D02*
X45848241Y-93050057D01*
X45848241Y-93050057D02*
X45895860Y-93145295D01*
X45895860Y-93145295D02*
X45895860Y-93240533D01*
X45895860Y-93240533D02*
X45848241Y-93383390D01*
X45848241Y-93383390D02*
X45276813Y-93954819D01*
X45276813Y-93954819D02*
X45895860Y-93954819D01*
X29967289Y-56454819D02*
X29633956Y-55978628D01*
X29395861Y-56454819D02*
X29395861Y-55454819D01*
X29395861Y-55454819D02*
X29776813Y-55454819D01*
X29776813Y-55454819D02*
X29872051Y-55502438D01*
X29872051Y-55502438D02*
X29919670Y-55550057D01*
X29919670Y-55550057D02*
X29967289Y-55645295D01*
X29967289Y-55645295D02*
X29967289Y-55788152D01*
X29967289Y-55788152D02*
X29919670Y-55883390D01*
X29919670Y-55883390D02*
X29872051Y-55931009D01*
X29872051Y-55931009D02*
X29776813Y-55978628D01*
X29776813Y-55978628D02*
X29395861Y-55978628D01*
X30300623Y-55454819D02*
X30967289Y-55454819D01*
X30967289Y-55454819D02*
X30538718Y-56454819D01*
X41967289Y-88359580D02*
X41919670Y-88407200D01*
X41919670Y-88407200D02*
X41776813Y-88454819D01*
X41776813Y-88454819D02*
X41681575Y-88454819D01*
X41681575Y-88454819D02*
X41538718Y-88407200D01*
X41538718Y-88407200D02*
X41443480Y-88311961D01*
X41443480Y-88311961D02*
X41395861Y-88216723D01*
X41395861Y-88216723D02*
X41348242Y-88026247D01*
X41348242Y-88026247D02*
X41348242Y-87883390D01*
X41348242Y-87883390D02*
X41395861Y-87692914D01*
X41395861Y-87692914D02*
X41443480Y-87597676D01*
X41443480Y-87597676D02*
X41538718Y-87502438D01*
X41538718Y-87502438D02*
X41681575Y-87454819D01*
X41681575Y-87454819D02*
X41776813Y-87454819D01*
X41776813Y-87454819D02*
X41919670Y-87502438D01*
X41919670Y-87502438D02*
X41967289Y-87550057D01*
X42300623Y-87454819D02*
X42919670Y-87454819D01*
X42919670Y-87454819D02*
X42586337Y-87835771D01*
X42586337Y-87835771D02*
X42729194Y-87835771D01*
X42729194Y-87835771D02*
X42824432Y-87883390D01*
X42824432Y-87883390D02*
X42872051Y-87931009D01*
X42872051Y-87931009D02*
X42919670Y-88026247D01*
X42919670Y-88026247D02*
X42919670Y-88264342D01*
X42919670Y-88264342D02*
X42872051Y-88359580D01*
X42872051Y-88359580D02*
X42824432Y-88407200D01*
X42824432Y-88407200D02*
X42729194Y-88454819D01*
X42729194Y-88454819D02*
X42443480Y-88454819D01*
X42443480Y-88454819D02*
X42348242Y-88407200D01*
X42348242Y-88407200D02*
X42300623Y-88359580D01*
X57538775Y-49666666D02*
X57062584Y-49999999D01*
X57538775Y-50238094D02*
X56538775Y-50238094D01*
X56538775Y-50238094D02*
X56538775Y-49857142D01*
X56538775Y-49857142D02*
X56586394Y-49761904D01*
X56586394Y-49761904D02*
X56634013Y-49714285D01*
X56634013Y-49714285D02*
X56729251Y-49666666D01*
X56729251Y-49666666D02*
X56872108Y-49666666D01*
X56872108Y-49666666D02*
X56967346Y-49714285D01*
X56967346Y-49714285D02*
X57014965Y-49761904D01*
X57014965Y-49761904D02*
X57062584Y-49857142D01*
X57062584Y-49857142D02*
X57062584Y-50238094D01*
X56538775Y-48809523D02*
X56538775Y-48999999D01*
X56538775Y-48999999D02*
X56586394Y-49095237D01*
X56586394Y-49095237D02*
X56634013Y-49142856D01*
X56634013Y-49142856D02*
X56776870Y-49238094D01*
X56776870Y-49238094D02*
X56967346Y-49285713D01*
X56967346Y-49285713D02*
X57348298Y-49285713D01*
X57348298Y-49285713D02*
X57443536Y-49238094D01*
X57443536Y-49238094D02*
X57491156Y-49190475D01*
X57491156Y-49190475D02*
X57538775Y-49095237D01*
X57538775Y-49095237D02*
X57538775Y-48904761D01*
X57538775Y-48904761D02*
X57491156Y-48809523D01*
X57491156Y-48809523D02*
X57443536Y-48761904D01*
X57443536Y-48761904D02*
X57348298Y-48714285D01*
X57348298Y-48714285D02*
X57110203Y-48714285D01*
X57110203Y-48714285D02*
X57014965Y-48761904D01*
X57014965Y-48761904D02*
X56967346Y-48809523D01*
X56967346Y-48809523D02*
X56919727Y-48904761D01*
X56919727Y-48904761D02*
X56919727Y-49095237D01*
X56919727Y-49095237D02*
X56967346Y-49190475D01*
X56967346Y-49190475D02*
X57014965Y-49238094D01*
X57014965Y-49238094D02*
X57110203Y-49285713D01*
X57538775Y-62166666D02*
X57062584Y-62499999D01*
X57538775Y-62738094D02*
X56538775Y-62738094D01*
X56538775Y-62738094D02*
X56538775Y-62357142D01*
X56538775Y-62357142D02*
X56586394Y-62261904D01*
X56586394Y-62261904D02*
X56634013Y-62214285D01*
X56634013Y-62214285D02*
X56729251Y-62166666D01*
X56729251Y-62166666D02*
X56872108Y-62166666D01*
X56872108Y-62166666D02*
X56967346Y-62214285D01*
X56967346Y-62214285D02*
X57014965Y-62261904D01*
X57014965Y-62261904D02*
X57062584Y-62357142D01*
X57062584Y-62357142D02*
X57062584Y-62738094D01*
X56538775Y-61833332D02*
X56538775Y-61214285D01*
X56538775Y-61214285D02*
X56919727Y-61547618D01*
X56919727Y-61547618D02*
X56919727Y-61404761D01*
X56919727Y-61404761D02*
X56967346Y-61309523D01*
X56967346Y-61309523D02*
X57014965Y-61261904D01*
X57014965Y-61261904D02*
X57110203Y-61214285D01*
X57110203Y-61214285D02*
X57348298Y-61214285D01*
X57348298Y-61214285D02*
X57443536Y-61261904D01*
X57443536Y-61261904D02*
X57491156Y-61309523D01*
X57491156Y-61309523D02*
X57538775Y-61404761D01*
X57538775Y-61404761D02*
X57538775Y-61690475D01*
X57538775Y-61690475D02*
X57491156Y-61785713D01*
X57491156Y-61785713D02*
X57443536Y-61833332D01*
X53708775Y-62166666D02*
X53232584Y-62499999D01*
X53708775Y-62738094D02*
X52708775Y-62738094D01*
X52708775Y-62738094D02*
X52708775Y-62357142D01*
X52708775Y-62357142D02*
X52756394Y-62261904D01*
X52756394Y-62261904D02*
X52804013Y-62214285D01*
X52804013Y-62214285D02*
X52899251Y-62166666D01*
X52899251Y-62166666D02*
X53042108Y-62166666D01*
X53042108Y-62166666D02*
X53137346Y-62214285D01*
X53137346Y-62214285D02*
X53184965Y-62261904D01*
X53184965Y-62261904D02*
X53232584Y-62357142D01*
X53232584Y-62357142D02*
X53232584Y-62738094D01*
X53042108Y-61309523D02*
X53708775Y-61309523D01*
X52661156Y-61547618D02*
X53375441Y-61785713D01*
X53375441Y-61785713D02*
X53375441Y-61166666D01*
X27438775Y-124682738D02*
X26962584Y-125016071D01*
X27438775Y-125254166D02*
X26438775Y-125254166D01*
X26438775Y-125254166D02*
X26438775Y-124873214D01*
X26438775Y-124873214D02*
X26486394Y-124777976D01*
X26486394Y-124777976D02*
X26534013Y-124730357D01*
X26534013Y-124730357D02*
X26629251Y-124682738D01*
X26629251Y-124682738D02*
X26772108Y-124682738D01*
X26772108Y-124682738D02*
X26867346Y-124730357D01*
X26867346Y-124730357D02*
X26914965Y-124777976D01*
X26914965Y-124777976D02*
X26962584Y-124873214D01*
X26962584Y-124873214D02*
X26962584Y-125254166D01*
X26438775Y-124397023D02*
X27438775Y-124063690D01*
X27438775Y-124063690D02*
X26438775Y-123730357D01*
X26772108Y-122968452D02*
X27438775Y-122968452D01*
X26391156Y-123206547D02*
X27105441Y-123444642D01*
X27105441Y-123444642D02*
X27105441Y-122825595D01*
D10*
X75800622Y-170957419D02*
X75800622Y-171671704D01*
X75800622Y-171671704D02*
X75753003Y-171814561D01*
X75753003Y-171814561D02*
X75657765Y-171909800D01*
X75657765Y-171909800D02*
X75514908Y-171957419D01*
X75514908Y-171957419D02*
X75419670Y-171957419D01*
X76705384Y-170957419D02*
X76514908Y-170957419D01*
X76514908Y-170957419D02*
X76419670Y-171005038D01*
X76419670Y-171005038D02*
X76372051Y-171052657D01*
X76372051Y-171052657D02*
X76276813Y-171195514D01*
X76276813Y-171195514D02*
X76229194Y-171385990D01*
X76229194Y-171385990D02*
X76229194Y-171766942D01*
X76229194Y-171766942D02*
X76276813Y-171862180D01*
X76276813Y-171862180D02*
X76324432Y-171909800D01*
X76324432Y-171909800D02*
X76419670Y-171957419D01*
X76419670Y-171957419D02*
X76610146Y-171957419D01*
X76610146Y-171957419D02*
X76705384Y-171909800D01*
X76705384Y-171909800D02*
X76753003Y-171862180D01*
X76753003Y-171862180D02*
X76800622Y-171766942D01*
X76800622Y-171766942D02*
X76800622Y-171528847D01*
X76800622Y-171528847D02*
X76753003Y-171433609D01*
X76753003Y-171433609D02*
X76705384Y-171385990D01*
X76705384Y-171385990D02*
X76610146Y-171338371D01*
X76610146Y-171338371D02*
X76419670Y-171338371D01*
X76419670Y-171338371D02*
X76324432Y-171385990D01*
X76324432Y-171385990D02*
X76276813Y-171433609D01*
X76276813Y-171433609D02*
X76229194Y-171528847D01*
D11*
X26761905Y-42704819D02*
X26761905Y-41704819D01*
X26761905Y-41704819D02*
X27000000Y-41704819D01*
X27000000Y-41704819D02*
X27142857Y-41752438D01*
X27142857Y-41752438D02*
X27238095Y-41847676D01*
X27238095Y-41847676D02*
X27285714Y-41942914D01*
X27285714Y-41942914D02*
X27333333Y-42133390D01*
X27333333Y-42133390D02*
X27333333Y-42276247D01*
X27333333Y-42276247D02*
X27285714Y-42466723D01*
X27285714Y-42466723D02*
X27238095Y-42561961D01*
X27238095Y-42561961D02*
X27142857Y-42657200D01*
X27142857Y-42657200D02*
X27000000Y-42704819D01*
X27000000Y-42704819D02*
X26761905Y-42704819D01*
X28285714Y-42704819D02*
X27714286Y-42704819D01*
X28000000Y-42704819D02*
X28000000Y-41704819D01*
X28000000Y-41704819D02*
X27904762Y-41847676D01*
X27904762Y-41847676D02*
X27809524Y-41942914D01*
X27809524Y-41942914D02*
X27714286Y-41990533D01*
X27622051Y-50704819D02*
X27622051Y-49704819D01*
X28193479Y-50704819D02*
X27764908Y-50133390D01*
X28193479Y-49704819D02*
X27622051Y-50276247D01*
X50872051Y-66884819D02*
X50872051Y-67694342D01*
X50872051Y-67694342D02*
X50919670Y-67789580D01*
X50919670Y-67789580D02*
X50967289Y-67837200D01*
X50967289Y-67837200D02*
X51062527Y-67884819D01*
X51062527Y-67884819D02*
X51253003Y-67884819D01*
X51253003Y-67884819D02*
X51348241Y-67837200D01*
X51348241Y-67837200D02*
X51395860Y-67789580D01*
X51395860Y-67789580D02*
X51443479Y-67694342D01*
X51443479Y-67694342D02*
X51443479Y-66884819D01*
X51872051Y-66980057D02*
X51919670Y-66932438D01*
X51919670Y-66932438D02*
X52014908Y-66884819D01*
X52014908Y-66884819D02*
X52253003Y-66884819D01*
X52253003Y-66884819D02*
X52348241Y-66932438D01*
X52348241Y-66932438D02*
X52395860Y-66980057D01*
X52395860Y-66980057D02*
X52443479Y-67075295D01*
X52443479Y-67075295D02*
X52443479Y-67170533D01*
X52443479Y-67170533D02*
X52395860Y-67313390D01*
X52395860Y-67313390D02*
X51824432Y-67884819D01*
X51824432Y-67884819D02*
X52443479Y-67884819D01*
X37547289Y-78084819D02*
X37213956Y-77608628D01*
X36975861Y-78084819D02*
X36975861Y-77084819D01*
X36975861Y-77084819D02*
X37356813Y-77084819D01*
X37356813Y-77084819D02*
X37452051Y-77132438D01*
X37452051Y-77132438D02*
X37499670Y-77180057D01*
X37499670Y-77180057D02*
X37547289Y-77275295D01*
X37547289Y-77275295D02*
X37547289Y-77418152D01*
X37547289Y-77418152D02*
X37499670Y-77513390D01*
X37499670Y-77513390D02*
X37452051Y-77561009D01*
X37452051Y-77561009D02*
X37356813Y-77608628D01*
X37356813Y-77608628D02*
X36975861Y-77608628D01*
X38023480Y-78084819D02*
X38213956Y-78084819D01*
X38213956Y-78084819D02*
X38309194Y-78037200D01*
X38309194Y-78037200D02*
X38356813Y-77989580D01*
X38356813Y-77989580D02*
X38452051Y-77846723D01*
X38452051Y-77846723D02*
X38499670Y-77656247D01*
X38499670Y-77656247D02*
X38499670Y-77275295D01*
X38499670Y-77275295D02*
X38452051Y-77180057D01*
X38452051Y-77180057D02*
X38404432Y-77132438D01*
X38404432Y-77132438D02*
X38309194Y-77084819D01*
X38309194Y-77084819D02*
X38118718Y-77084819D01*
X38118718Y-77084819D02*
X38023480Y-77132438D01*
X38023480Y-77132438D02*
X37975861Y-77180057D01*
X37975861Y-77180057D02*
X37928242Y-77275295D01*
X37928242Y-77275295D02*
X37928242Y-77513390D01*
X37928242Y-77513390D02*
X37975861Y-77608628D01*
X37975861Y-77608628D02*
X38023480Y-77656247D01*
X38023480Y-77656247D02*
X38118718Y-77703866D01*
X38118718Y-77703866D02*
X38309194Y-77703866D01*
X38309194Y-77703866D02*
X38404432Y-77656247D01*
X38404432Y-77656247D02*
X38452051Y-77608628D01*
X38452051Y-77608628D02*
X38499670Y-77513390D01*
X63938775Y-124682738D02*
X63462584Y-125016071D01*
X63938775Y-125254166D02*
X62938775Y-125254166D01*
X62938775Y-125254166D02*
X62938775Y-124873214D01*
X62938775Y-124873214D02*
X62986394Y-124777976D01*
X62986394Y-124777976D02*
X63034013Y-124730357D01*
X63034013Y-124730357D02*
X63129251Y-124682738D01*
X63129251Y-124682738D02*
X63272108Y-124682738D01*
X63272108Y-124682738D02*
X63367346Y-124730357D01*
X63367346Y-124730357D02*
X63414965Y-124777976D01*
X63414965Y-124777976D02*
X63462584Y-124873214D01*
X63462584Y-124873214D02*
X63462584Y-125254166D01*
X62938775Y-124397023D02*
X63938775Y-124063690D01*
X63938775Y-124063690D02*
X62938775Y-123730357D01*
X62938775Y-122968452D02*
X62938775Y-123158928D01*
X62938775Y-123158928D02*
X62986394Y-123254166D01*
X62986394Y-123254166D02*
X63034013Y-123301785D01*
X63034013Y-123301785D02*
X63176870Y-123397023D01*
X63176870Y-123397023D02*
X63367346Y-123444642D01*
X63367346Y-123444642D02*
X63748298Y-123444642D01*
X63748298Y-123444642D02*
X63843536Y-123397023D01*
X63843536Y-123397023D02*
X63891156Y-123349404D01*
X63891156Y-123349404D02*
X63938775Y-123254166D01*
X63938775Y-123254166D02*
X63938775Y-123063690D01*
X63938775Y-123063690D02*
X63891156Y-122968452D01*
X63891156Y-122968452D02*
X63843536Y-122920833D01*
X63843536Y-122920833D02*
X63748298Y-122873214D01*
X63748298Y-122873214D02*
X63510203Y-122873214D01*
X63510203Y-122873214D02*
X63414965Y-122920833D01*
X63414965Y-122920833D02*
X63367346Y-122968452D01*
X63367346Y-122968452D02*
X63319727Y-123063690D01*
X63319727Y-123063690D02*
X63319727Y-123254166D01*
X63319727Y-123254166D02*
X63367346Y-123349404D01*
X63367346Y-123349404D02*
X63414965Y-123397023D01*
X63414965Y-123397023D02*
X63510203Y-123444642D01*
X32467289Y-77859580D02*
X32419670Y-77907200D01*
X32419670Y-77907200D02*
X32276813Y-77954819D01*
X32276813Y-77954819D02*
X32181575Y-77954819D01*
X32181575Y-77954819D02*
X32038718Y-77907200D01*
X32038718Y-77907200D02*
X31943480Y-77811961D01*
X31943480Y-77811961D02*
X31895861Y-77716723D01*
X31895861Y-77716723D02*
X31848242Y-77526247D01*
X31848242Y-77526247D02*
X31848242Y-77383390D01*
X31848242Y-77383390D02*
X31895861Y-77192914D01*
X31895861Y-77192914D02*
X31943480Y-77097676D01*
X31943480Y-77097676D02*
X32038718Y-77002438D01*
X32038718Y-77002438D02*
X32181575Y-76954819D01*
X32181575Y-76954819D02*
X32276813Y-76954819D01*
X32276813Y-76954819D02*
X32419670Y-77002438D01*
X32419670Y-77002438D02*
X32467289Y-77050057D01*
X32848242Y-77050057D02*
X32895861Y-77002438D01*
X32895861Y-77002438D02*
X32991099Y-76954819D01*
X32991099Y-76954819D02*
X33229194Y-76954819D01*
X33229194Y-76954819D02*
X33324432Y-77002438D01*
X33324432Y-77002438D02*
X33372051Y-77050057D01*
X33372051Y-77050057D02*
X33419670Y-77145295D01*
X33419670Y-77145295D02*
X33419670Y-77240533D01*
X33419670Y-77240533D02*
X33372051Y-77383390D01*
X33372051Y-77383390D02*
X32800623Y-77954819D01*
X32800623Y-77954819D02*
X33419670Y-77954819D01*
X49948775Y-49666666D02*
X49472584Y-49999999D01*
X49948775Y-50238094D02*
X48948775Y-50238094D01*
X48948775Y-50238094D02*
X48948775Y-49857142D01*
X48948775Y-49857142D02*
X48996394Y-49761904D01*
X48996394Y-49761904D02*
X49044013Y-49714285D01*
X49044013Y-49714285D02*
X49139251Y-49666666D01*
X49139251Y-49666666D02*
X49282108Y-49666666D01*
X49282108Y-49666666D02*
X49377346Y-49714285D01*
X49377346Y-49714285D02*
X49424965Y-49761904D01*
X49424965Y-49761904D02*
X49472584Y-49857142D01*
X49472584Y-49857142D02*
X49472584Y-50238094D01*
X49377346Y-49095237D02*
X49329727Y-49190475D01*
X49329727Y-49190475D02*
X49282108Y-49238094D01*
X49282108Y-49238094D02*
X49186870Y-49285713D01*
X49186870Y-49285713D02*
X49139251Y-49285713D01*
X49139251Y-49285713D02*
X49044013Y-49238094D01*
X49044013Y-49238094D02*
X48996394Y-49190475D01*
X48996394Y-49190475D02*
X48948775Y-49095237D01*
X48948775Y-49095237D02*
X48948775Y-48904761D01*
X48948775Y-48904761D02*
X48996394Y-48809523D01*
X48996394Y-48809523D02*
X49044013Y-48761904D01*
X49044013Y-48761904D02*
X49139251Y-48714285D01*
X49139251Y-48714285D02*
X49186870Y-48714285D01*
X49186870Y-48714285D02*
X49282108Y-48761904D01*
X49282108Y-48761904D02*
X49329727Y-48809523D01*
X49329727Y-48809523D02*
X49377346Y-48904761D01*
X49377346Y-48904761D02*
X49377346Y-49095237D01*
X49377346Y-49095237D02*
X49424965Y-49190475D01*
X49424965Y-49190475D02*
X49472584Y-49238094D01*
X49472584Y-49238094D02*
X49567822Y-49285713D01*
X49567822Y-49285713D02*
X49758298Y-49285713D01*
X49758298Y-49285713D02*
X49853536Y-49238094D01*
X49853536Y-49238094D02*
X49901156Y-49190475D01*
X49901156Y-49190475D02*
X49948775Y-49095237D01*
X49948775Y-49095237D02*
X49948775Y-48904761D01*
X49948775Y-48904761D02*
X49901156Y-48809523D01*
X49901156Y-48809523D02*
X49853536Y-48761904D01*
X49853536Y-48761904D02*
X49758298Y-48714285D01*
X49758298Y-48714285D02*
X49567822Y-48714285D01*
X49567822Y-48714285D02*
X49472584Y-48761904D01*
X49472584Y-48761904D02*
X49424965Y-48809523D01*
X49424965Y-48809523D02*
X49377346Y-48904761D01*
X41467289Y-77859580D02*
X41419670Y-77907200D01*
X41419670Y-77907200D02*
X41276813Y-77954819D01*
X41276813Y-77954819D02*
X41181575Y-77954819D01*
X41181575Y-77954819D02*
X41038718Y-77907200D01*
X41038718Y-77907200D02*
X40943480Y-77811961D01*
X40943480Y-77811961D02*
X40895861Y-77716723D01*
X40895861Y-77716723D02*
X40848242Y-77526247D01*
X40848242Y-77526247D02*
X40848242Y-77383390D01*
X40848242Y-77383390D02*
X40895861Y-77192914D01*
X40895861Y-77192914D02*
X40943480Y-77097676D01*
X40943480Y-77097676D02*
X41038718Y-77002438D01*
X41038718Y-77002438D02*
X41181575Y-76954819D01*
X41181575Y-76954819D02*
X41276813Y-76954819D01*
X41276813Y-76954819D02*
X41419670Y-77002438D01*
X41419670Y-77002438D02*
X41467289Y-77050057D01*
X42372051Y-76954819D02*
X41895861Y-76954819D01*
X41895861Y-76954819D02*
X41848242Y-77431009D01*
X41848242Y-77431009D02*
X41895861Y-77383390D01*
X41895861Y-77383390D02*
X41991099Y-77335771D01*
X41991099Y-77335771D02*
X42229194Y-77335771D01*
X42229194Y-77335771D02*
X42324432Y-77383390D01*
X42324432Y-77383390D02*
X42372051Y-77431009D01*
X42372051Y-77431009D02*
X42419670Y-77526247D01*
X42419670Y-77526247D02*
X42419670Y-77764342D01*
X42419670Y-77764342D02*
X42372051Y-77859580D01*
X42372051Y-77859580D02*
X42324432Y-77907200D01*
X42324432Y-77907200D02*
X42229194Y-77954819D01*
X42229194Y-77954819D02*
X41991099Y-77954819D01*
X41991099Y-77954819D02*
X41895861Y-77907200D01*
X41895861Y-77907200D02*
X41848242Y-77859580D01*
X43583333Y-42609580D02*
X43535714Y-42657200D01*
X43535714Y-42657200D02*
X43392857Y-42704819D01*
X43392857Y-42704819D02*
X43297619Y-42704819D01*
X43297619Y-42704819D02*
X43154762Y-42657200D01*
X43154762Y-42657200D02*
X43059524Y-42561961D01*
X43059524Y-42561961D02*
X43011905Y-42466723D01*
X43011905Y-42466723D02*
X42964286Y-42276247D01*
X42964286Y-42276247D02*
X42964286Y-42133390D01*
X42964286Y-42133390D02*
X43011905Y-41942914D01*
X43011905Y-41942914D02*
X43059524Y-41847676D01*
X43059524Y-41847676D02*
X43154762Y-41752438D01*
X43154762Y-41752438D02*
X43297619Y-41704819D01*
X43297619Y-41704819D02*
X43392857Y-41704819D01*
X43392857Y-41704819D02*
X43535714Y-41752438D01*
X43535714Y-41752438D02*
X43583333Y-41800057D01*
X44535714Y-42704819D02*
X43964286Y-42704819D01*
X44250000Y-42704819D02*
X44250000Y-41704819D01*
X44250000Y-41704819D02*
X44154762Y-41847676D01*
X44154762Y-41847676D02*
X44059524Y-41942914D01*
X44059524Y-41942914D02*
X43964286Y-41990533D01*
X32588775Y-83642857D02*
X32112584Y-83976190D01*
X32588775Y-84214285D02*
X31588775Y-84214285D01*
X31588775Y-84214285D02*
X31588775Y-83833333D01*
X31588775Y-83833333D02*
X31636394Y-83738095D01*
X31636394Y-83738095D02*
X31684013Y-83690476D01*
X31684013Y-83690476D02*
X31779251Y-83642857D01*
X31779251Y-83642857D02*
X31922108Y-83642857D01*
X31922108Y-83642857D02*
X32017346Y-83690476D01*
X32017346Y-83690476D02*
X32064965Y-83738095D01*
X32064965Y-83738095D02*
X32112584Y-83833333D01*
X32112584Y-83833333D02*
X32112584Y-84214285D01*
X32588775Y-82690476D02*
X32588775Y-83261904D01*
X32588775Y-82976190D02*
X31588775Y-82976190D01*
X31588775Y-82976190D02*
X31731632Y-83071428D01*
X31731632Y-83071428D02*
X31826870Y-83166666D01*
X31826870Y-83166666D02*
X31874489Y-83261904D01*
X31588775Y-82071428D02*
X31588775Y-81976190D01*
X31588775Y-81976190D02*
X31636394Y-81880952D01*
X31636394Y-81880952D02*
X31684013Y-81833333D01*
X31684013Y-81833333D02*
X31779251Y-81785714D01*
X31779251Y-81785714D02*
X31969727Y-81738095D01*
X31969727Y-81738095D02*
X32207822Y-81738095D01*
X32207822Y-81738095D02*
X32398298Y-81785714D01*
X32398298Y-81785714D02*
X32493536Y-81833333D01*
X32493536Y-81833333D02*
X32541156Y-81880952D01*
X32541156Y-81880952D02*
X32588775Y-81976190D01*
X32588775Y-81976190D02*
X32588775Y-82071428D01*
X32588775Y-82071428D02*
X32541156Y-82166666D01*
X32541156Y-82166666D02*
X32493536Y-82214285D01*
X32493536Y-82214285D02*
X32398298Y-82261904D01*
X32398298Y-82261904D02*
X32207822Y-82309523D01*
X32207822Y-82309523D02*
X31969727Y-82309523D01*
X31969727Y-82309523D02*
X31779251Y-82261904D01*
X31779251Y-82261904D02*
X31684013Y-82214285D01*
X31684013Y-82214285D02*
X31636394Y-82166666D01*
X31636394Y-82166666D02*
X31588775Y-82071428D01*
X45844442Y-147045238D02*
X45368251Y-147378571D01*
X45844442Y-147616666D02*
X44844442Y-147616666D01*
X44844442Y-147616666D02*
X44844442Y-147235714D01*
X44844442Y-147235714D02*
X44892061Y-147140476D01*
X44892061Y-147140476D02*
X44939680Y-147092857D01*
X44939680Y-147092857D02*
X45034918Y-147045238D01*
X45034918Y-147045238D02*
X45177775Y-147045238D01*
X45177775Y-147045238D02*
X45273013Y-147092857D01*
X45273013Y-147092857D02*
X45320632Y-147140476D01*
X45320632Y-147140476D02*
X45368251Y-147235714D01*
X45368251Y-147235714D02*
X45368251Y-147616666D01*
X44844442Y-146759523D02*
X45844442Y-146426190D01*
X45844442Y-146426190D02*
X44844442Y-146092857D01*
X45273013Y-145616666D02*
X45225394Y-145711904D01*
X45225394Y-145711904D02*
X45177775Y-145759523D01*
X45177775Y-145759523D02*
X45082537Y-145807142D01*
X45082537Y-145807142D02*
X45034918Y-145807142D01*
X45034918Y-145807142D02*
X44939680Y-145759523D01*
X44939680Y-145759523D02*
X44892061Y-145711904D01*
X44892061Y-145711904D02*
X44844442Y-145616666D01*
X44844442Y-145616666D02*
X44844442Y-145426190D01*
X44844442Y-145426190D02*
X44892061Y-145330952D01*
X44892061Y-145330952D02*
X44939680Y-145283333D01*
X44939680Y-145283333D02*
X45034918Y-145235714D01*
X45034918Y-145235714D02*
X45082537Y-145235714D01*
X45082537Y-145235714D02*
X45177775Y-145283333D01*
X45177775Y-145283333D02*
X45225394Y-145330952D01*
X45225394Y-145330952D02*
X45273013Y-145426190D01*
X45273013Y-145426190D02*
X45273013Y-145616666D01*
X45273013Y-145616666D02*
X45320632Y-145711904D01*
X45320632Y-145711904D02*
X45368251Y-145759523D01*
X45368251Y-145759523D02*
X45463489Y-145807142D01*
X45463489Y-145807142D02*
X45653965Y-145807142D01*
X45653965Y-145807142D02*
X45749203Y-145759523D01*
X45749203Y-145759523D02*
X45796823Y-145711904D01*
X45796823Y-145711904D02*
X45844442Y-145616666D01*
X45844442Y-145616666D02*
X45844442Y-145426190D01*
X45844442Y-145426190D02*
X45796823Y-145330952D01*
X45796823Y-145330952D02*
X45749203Y-145283333D01*
X45749203Y-145283333D02*
X45653965Y-145235714D01*
X45653965Y-145235714D02*
X45463489Y-145235714D01*
X45463489Y-145235714D02*
X45368251Y-145283333D01*
X45368251Y-145283333D02*
X45320632Y-145330952D01*
X45320632Y-145330952D02*
X45273013Y-145426190D01*
X41011905Y-42704819D02*
X41011905Y-41704819D01*
X41011905Y-41704819D02*
X41250000Y-41704819D01*
X41250000Y-41704819D02*
X41392857Y-41752438D01*
X41392857Y-41752438D02*
X41488095Y-41847676D01*
X41488095Y-41847676D02*
X41535714Y-41942914D01*
X41535714Y-41942914D02*
X41583333Y-42133390D01*
X41583333Y-42133390D02*
X41583333Y-42276247D01*
X41583333Y-42276247D02*
X41535714Y-42466723D01*
X41535714Y-42466723D02*
X41488095Y-42561961D01*
X41488095Y-42561961D02*
X41392857Y-42657200D01*
X41392857Y-42657200D02*
X41250000Y-42704819D01*
X41250000Y-42704819D02*
X41011905Y-42704819D01*
X41964286Y-41800057D02*
X42011905Y-41752438D01*
X42011905Y-41752438D02*
X42107143Y-41704819D01*
X42107143Y-41704819D02*
X42345238Y-41704819D01*
X42345238Y-41704819D02*
X42440476Y-41752438D01*
X42440476Y-41752438D02*
X42488095Y-41800057D01*
X42488095Y-41800057D02*
X42535714Y-41895295D01*
X42535714Y-41895295D02*
X42535714Y-41990533D01*
X42535714Y-41990533D02*
X42488095Y-42133390D01*
X42488095Y-42133390D02*
X41916667Y-42704819D01*
X41916667Y-42704819D02*
X42535714Y-42704819D01*
X37738095Y-42954819D02*
X37738095Y-41954819D01*
X38309523Y-42954819D02*
X37880952Y-42383390D01*
X38309523Y-41954819D02*
X37738095Y-42526247D01*
X29088775Y-104222857D02*
X28612584Y-104556190D01*
X29088775Y-104794285D02*
X28088775Y-104794285D01*
X28088775Y-104794285D02*
X28088775Y-104413333D01*
X28088775Y-104413333D02*
X28136394Y-104318095D01*
X28136394Y-104318095D02*
X28184013Y-104270476D01*
X28184013Y-104270476D02*
X28279251Y-104222857D01*
X28279251Y-104222857D02*
X28422108Y-104222857D01*
X28422108Y-104222857D02*
X28517346Y-104270476D01*
X28517346Y-104270476D02*
X28564965Y-104318095D01*
X28564965Y-104318095D02*
X28612584Y-104413333D01*
X28612584Y-104413333D02*
X28612584Y-104794285D01*
X29088775Y-103270476D02*
X29088775Y-103841904D01*
X29088775Y-103556190D02*
X28088775Y-103556190D01*
X28088775Y-103556190D02*
X28231632Y-103651428D01*
X28231632Y-103651428D02*
X28326870Y-103746666D01*
X28326870Y-103746666D02*
X28374489Y-103841904D01*
X29088775Y-102318095D02*
X29088775Y-102889523D01*
X29088775Y-102603809D02*
X28088775Y-102603809D01*
X28088775Y-102603809D02*
X28231632Y-102699047D01*
X28231632Y-102699047D02*
X28326870Y-102794285D01*
X28326870Y-102794285D02*
X28374489Y-102889523D01*
D10*
X42450623Y-110409800D02*
X42593480Y-110457419D01*
X42593480Y-110457419D02*
X42831575Y-110457419D01*
X42831575Y-110457419D02*
X42926813Y-110409800D01*
X42926813Y-110409800D02*
X42974432Y-110362180D01*
X42974432Y-110362180D02*
X43022051Y-110266942D01*
X43022051Y-110266942D02*
X43022051Y-110171704D01*
X43022051Y-110171704D02*
X42974432Y-110076466D01*
X42974432Y-110076466D02*
X42926813Y-110028847D01*
X42926813Y-110028847D02*
X42831575Y-109981228D01*
X42831575Y-109981228D02*
X42641099Y-109933609D01*
X42641099Y-109933609D02*
X42545861Y-109885990D01*
X42545861Y-109885990D02*
X42498242Y-109838371D01*
X42498242Y-109838371D02*
X42450623Y-109743133D01*
X42450623Y-109743133D02*
X42450623Y-109647895D01*
X42450623Y-109647895D02*
X42498242Y-109552657D01*
X42498242Y-109552657D02*
X42545861Y-109505038D01*
X42545861Y-109505038D02*
X42641099Y-109457419D01*
X42641099Y-109457419D02*
X42879194Y-109457419D01*
X42879194Y-109457419D02*
X43022051Y-109505038D01*
X43355385Y-109457419D02*
X43593480Y-110457419D01*
X43593480Y-110457419D02*
X43783956Y-109743133D01*
X43783956Y-109743133D02*
X43974432Y-110457419D01*
X43974432Y-110457419D02*
X44212528Y-109457419D01*
X44498242Y-109457419D02*
X45117289Y-109457419D01*
X45117289Y-109457419D02*
X44783956Y-109838371D01*
X44783956Y-109838371D02*
X44926813Y-109838371D01*
X44926813Y-109838371D02*
X45022051Y-109885990D01*
X45022051Y-109885990D02*
X45069670Y-109933609D01*
X45069670Y-109933609D02*
X45117289Y-110028847D01*
X45117289Y-110028847D02*
X45117289Y-110266942D01*
X45117289Y-110266942D02*
X45069670Y-110362180D01*
X45069670Y-110362180D02*
X45022051Y-110409800D01*
X45022051Y-110409800D02*
X44926813Y-110457419D01*
X44926813Y-110457419D02*
X44641099Y-110457419D01*
X44641099Y-110457419D02*
X44545861Y-110409800D01*
X44545861Y-110409800D02*
X44498242Y-110362180D01*
D11*
X27438775Y-147045238D02*
X26962584Y-147378571D01*
X27438775Y-147616666D02*
X26438775Y-147616666D01*
X26438775Y-147616666D02*
X26438775Y-147235714D01*
X26438775Y-147235714D02*
X26486394Y-147140476D01*
X26486394Y-147140476D02*
X26534013Y-147092857D01*
X26534013Y-147092857D02*
X26629251Y-147045238D01*
X26629251Y-147045238D02*
X26772108Y-147045238D01*
X26772108Y-147045238D02*
X26867346Y-147092857D01*
X26867346Y-147092857D02*
X26914965Y-147140476D01*
X26914965Y-147140476D02*
X26962584Y-147235714D01*
X26962584Y-147235714D02*
X26962584Y-147616666D01*
X26438775Y-146759523D02*
X27438775Y-146426190D01*
X27438775Y-146426190D02*
X26438775Y-146092857D01*
X26438775Y-145854761D02*
X26438775Y-145188095D01*
X26438775Y-145188095D02*
X27438775Y-145616666D01*
X63967289Y-88359580D02*
X63919670Y-88407200D01*
X63919670Y-88407200D02*
X63776813Y-88454819D01*
X63776813Y-88454819D02*
X63681575Y-88454819D01*
X63681575Y-88454819D02*
X63538718Y-88407200D01*
X63538718Y-88407200D02*
X63443480Y-88311961D01*
X63443480Y-88311961D02*
X63395861Y-88216723D01*
X63395861Y-88216723D02*
X63348242Y-88026247D01*
X63348242Y-88026247D02*
X63348242Y-87883390D01*
X63348242Y-87883390D02*
X63395861Y-87692914D01*
X63395861Y-87692914D02*
X63443480Y-87597676D01*
X63443480Y-87597676D02*
X63538718Y-87502438D01*
X63538718Y-87502438D02*
X63681575Y-87454819D01*
X63681575Y-87454819D02*
X63776813Y-87454819D01*
X63776813Y-87454819D02*
X63919670Y-87502438D01*
X63919670Y-87502438D02*
X63967289Y-87550057D01*
X64824432Y-87788152D02*
X64824432Y-88454819D01*
X64586337Y-87407200D02*
X64348242Y-88121485D01*
X64348242Y-88121485D02*
X64967289Y-88121485D01*
X53778775Y-49666666D02*
X53302584Y-49999999D01*
X53778775Y-50238094D02*
X52778775Y-50238094D01*
X52778775Y-50238094D02*
X52778775Y-49857142D01*
X52778775Y-49857142D02*
X52826394Y-49761904D01*
X52826394Y-49761904D02*
X52874013Y-49714285D01*
X52874013Y-49714285D02*
X52969251Y-49666666D01*
X52969251Y-49666666D02*
X53112108Y-49666666D01*
X53112108Y-49666666D02*
X53207346Y-49714285D01*
X53207346Y-49714285D02*
X53254965Y-49761904D01*
X53254965Y-49761904D02*
X53302584Y-49857142D01*
X53302584Y-49857142D02*
X53302584Y-50238094D01*
X52778775Y-48761904D02*
X52778775Y-49238094D01*
X52778775Y-49238094D02*
X53254965Y-49285713D01*
X53254965Y-49285713D02*
X53207346Y-49238094D01*
X53207346Y-49238094D02*
X53159727Y-49142856D01*
X53159727Y-49142856D02*
X53159727Y-48904761D01*
X53159727Y-48904761D02*
X53207346Y-48809523D01*
X53207346Y-48809523D02*
X53254965Y-48761904D01*
X53254965Y-48761904D02*
X53350203Y-48714285D01*
X53350203Y-48714285D02*
X53588298Y-48714285D01*
X53588298Y-48714285D02*
X53683536Y-48761904D01*
X53683536Y-48761904D02*
X53731156Y-48809523D01*
X53731156Y-48809523D02*
X53778775Y-48904761D01*
X53778775Y-48904761D02*
X53778775Y-49142856D01*
X53778775Y-49142856D02*
X53731156Y-49238094D01*
X53731156Y-49238094D02*
X53683536Y-49285713D01*
D10*
X57800622Y-170957419D02*
X57800622Y-171671704D01*
X57800622Y-171671704D02*
X57753003Y-171814561D01*
X57753003Y-171814561D02*
X57657765Y-171909800D01*
X57657765Y-171909800D02*
X57514908Y-171957419D01*
X57514908Y-171957419D02*
X57419670Y-171957419D01*
X58705384Y-171290752D02*
X58705384Y-171957419D01*
X58467289Y-170909800D02*
X58229194Y-171624085D01*
X58229194Y-171624085D02*
X58848241Y-171624085D01*
D11*
X64038775Y-79957738D02*
X63562584Y-80291071D01*
X64038775Y-80529166D02*
X63038775Y-80529166D01*
X63038775Y-80529166D02*
X63038775Y-80148214D01*
X63038775Y-80148214D02*
X63086394Y-80052976D01*
X63086394Y-80052976D02*
X63134013Y-80005357D01*
X63134013Y-80005357D02*
X63229251Y-79957738D01*
X63229251Y-79957738D02*
X63372108Y-79957738D01*
X63372108Y-79957738D02*
X63467346Y-80005357D01*
X63467346Y-80005357D02*
X63514965Y-80052976D01*
X63514965Y-80052976D02*
X63562584Y-80148214D01*
X63562584Y-80148214D02*
X63562584Y-80529166D01*
X63038775Y-79672023D02*
X64038775Y-79338690D01*
X64038775Y-79338690D02*
X63038775Y-79005357D01*
X63134013Y-78719642D02*
X63086394Y-78672023D01*
X63086394Y-78672023D02*
X63038775Y-78576785D01*
X63038775Y-78576785D02*
X63038775Y-78338690D01*
X63038775Y-78338690D02*
X63086394Y-78243452D01*
X63086394Y-78243452D02*
X63134013Y-78195833D01*
X63134013Y-78195833D02*
X63229251Y-78148214D01*
X63229251Y-78148214D02*
X63324489Y-78148214D01*
X63324489Y-78148214D02*
X63467346Y-78195833D01*
X63467346Y-78195833D02*
X64038775Y-78767261D01*
X64038775Y-78767261D02*
X64038775Y-78148214D01*
X29967289Y-53454819D02*
X29633956Y-52978628D01*
X29395861Y-53454819D02*
X29395861Y-52454819D01*
X29395861Y-52454819D02*
X29776813Y-52454819D01*
X29776813Y-52454819D02*
X29872051Y-52502438D01*
X29872051Y-52502438D02*
X29919670Y-52550057D01*
X29919670Y-52550057D02*
X29967289Y-52645295D01*
X29967289Y-52645295D02*
X29967289Y-52788152D01*
X29967289Y-52788152D02*
X29919670Y-52883390D01*
X29919670Y-52883390D02*
X29872051Y-52931009D01*
X29872051Y-52931009D02*
X29776813Y-52978628D01*
X29776813Y-52978628D02*
X29395861Y-52978628D01*
X30919670Y-53454819D02*
X30348242Y-53454819D01*
X30633956Y-53454819D02*
X30633956Y-52454819D01*
X30633956Y-52454819D02*
X30538718Y-52597676D01*
X30538718Y-52597676D02*
X30443480Y-52692914D01*
X30443480Y-52692914D02*
X30348242Y-52740533D01*
X64038775Y-102320238D02*
X63562584Y-102653571D01*
X64038775Y-102891666D02*
X63038775Y-102891666D01*
X63038775Y-102891666D02*
X63038775Y-102510714D01*
X63038775Y-102510714D02*
X63086394Y-102415476D01*
X63086394Y-102415476D02*
X63134013Y-102367857D01*
X63134013Y-102367857D02*
X63229251Y-102320238D01*
X63229251Y-102320238D02*
X63372108Y-102320238D01*
X63372108Y-102320238D02*
X63467346Y-102367857D01*
X63467346Y-102367857D02*
X63514965Y-102415476D01*
X63514965Y-102415476D02*
X63562584Y-102510714D01*
X63562584Y-102510714D02*
X63562584Y-102891666D01*
X63038775Y-102034523D02*
X64038775Y-101701190D01*
X64038775Y-101701190D02*
X63038775Y-101367857D01*
X63038775Y-101129761D02*
X63038775Y-100510714D01*
X63038775Y-100510714D02*
X63419727Y-100844047D01*
X63419727Y-100844047D02*
X63419727Y-100701190D01*
X63419727Y-100701190D02*
X63467346Y-100605952D01*
X63467346Y-100605952D02*
X63514965Y-100558333D01*
X63514965Y-100558333D02*
X63610203Y-100510714D01*
X63610203Y-100510714D02*
X63848298Y-100510714D01*
X63848298Y-100510714D02*
X63943536Y-100558333D01*
X63943536Y-100558333D02*
X63991156Y-100605952D01*
X63991156Y-100605952D02*
X64038775Y-100701190D01*
X64038775Y-100701190D02*
X64038775Y-100986904D01*
X64038775Y-100986904D02*
X63991156Y-101082142D01*
X63991156Y-101082142D02*
X63943536Y-101129761D01*
X65491098Y-93824819D02*
X65157765Y-93348628D01*
X64919670Y-93824819D02*
X64919670Y-92824819D01*
X64919670Y-92824819D02*
X65300622Y-92824819D01*
X65300622Y-92824819D02*
X65395860Y-92872438D01*
X65395860Y-92872438D02*
X65443479Y-92920057D01*
X65443479Y-92920057D02*
X65491098Y-93015295D01*
X65491098Y-93015295D02*
X65491098Y-93158152D01*
X65491098Y-93158152D02*
X65443479Y-93253390D01*
X65443479Y-93253390D02*
X65395860Y-93301009D01*
X65395860Y-93301009D02*
X65300622Y-93348628D01*
X65300622Y-93348628D02*
X64919670Y-93348628D01*
X66443479Y-93824819D02*
X65872051Y-93824819D01*
X66157765Y-93824819D02*
X66157765Y-92824819D01*
X66157765Y-92824819D02*
X66062527Y-92967676D01*
X66062527Y-92967676D02*
X65967289Y-93062914D01*
X65967289Y-93062914D02*
X65872051Y-93110533D01*
X66776813Y-92824819D02*
X67395860Y-92824819D01*
X67395860Y-92824819D02*
X67062527Y-93205771D01*
X67062527Y-93205771D02*
X67205384Y-93205771D01*
X67205384Y-93205771D02*
X67300622Y-93253390D01*
X67300622Y-93253390D02*
X67348241Y-93301009D01*
X67348241Y-93301009D02*
X67395860Y-93396247D01*
X67395860Y-93396247D02*
X67395860Y-93634342D01*
X67395860Y-93634342D02*
X67348241Y-93729580D01*
X67348241Y-93729580D02*
X67300622Y-93777200D01*
X67300622Y-93777200D02*
X67205384Y-93824819D01*
X67205384Y-93824819D02*
X66919670Y-93824819D01*
X66919670Y-93824819D02*
X66824432Y-93777200D01*
X66824432Y-93777200D02*
X66776813Y-93729580D01*
D10*
X33300623Y-110409800D02*
X33443480Y-110457419D01*
X33443480Y-110457419D02*
X33681575Y-110457419D01*
X33681575Y-110457419D02*
X33776813Y-110409800D01*
X33776813Y-110409800D02*
X33824432Y-110362180D01*
X33824432Y-110362180D02*
X33872051Y-110266942D01*
X33872051Y-110266942D02*
X33872051Y-110171704D01*
X33872051Y-110171704D02*
X33824432Y-110076466D01*
X33824432Y-110076466D02*
X33776813Y-110028847D01*
X33776813Y-110028847D02*
X33681575Y-109981228D01*
X33681575Y-109981228D02*
X33491099Y-109933609D01*
X33491099Y-109933609D02*
X33395861Y-109885990D01*
X33395861Y-109885990D02*
X33348242Y-109838371D01*
X33348242Y-109838371D02*
X33300623Y-109743133D01*
X33300623Y-109743133D02*
X33300623Y-109647895D01*
X33300623Y-109647895D02*
X33348242Y-109552657D01*
X33348242Y-109552657D02*
X33395861Y-109505038D01*
X33395861Y-109505038D02*
X33491099Y-109457419D01*
X33491099Y-109457419D02*
X33729194Y-109457419D01*
X33729194Y-109457419D02*
X33872051Y-109505038D01*
X34205385Y-109457419D02*
X34443480Y-110457419D01*
X34443480Y-110457419D02*
X34633956Y-109743133D01*
X34633956Y-109743133D02*
X34824432Y-110457419D01*
X34824432Y-110457419D02*
X35062528Y-109457419D01*
X35967289Y-110457419D02*
X35395861Y-110457419D01*
X35681575Y-110457419D02*
X35681575Y-109457419D01*
X35681575Y-109457419D02*
X35586337Y-109600276D01*
X35586337Y-109600276D02*
X35491099Y-109695514D01*
X35491099Y-109695514D02*
X35395861Y-109743133D01*
X34872051Y-65957419D02*
X34872051Y-66766942D01*
X34872051Y-66766942D02*
X34919670Y-66862180D01*
X34919670Y-66862180D02*
X34967289Y-66909800D01*
X34967289Y-66909800D02*
X35062527Y-66957419D01*
X35062527Y-66957419D02*
X35253003Y-66957419D01*
X35253003Y-66957419D02*
X35348241Y-66909800D01*
X35348241Y-66909800D02*
X35395860Y-66862180D01*
X35395860Y-66862180D02*
X35443479Y-66766942D01*
X35443479Y-66766942D02*
X35443479Y-65957419D01*
X36443479Y-66957419D02*
X35872051Y-66957419D01*
X36157765Y-66957419D02*
X36157765Y-65957419D01*
X36157765Y-65957419D02*
X36062527Y-66100276D01*
X36062527Y-66100276D02*
X35967289Y-66195514D01*
X35967289Y-66195514D02*
X35872051Y-66243133D01*
D11*
X45738775Y-124682738D02*
X45262584Y-125016071D01*
X45738775Y-125254166D02*
X44738775Y-125254166D01*
X44738775Y-125254166D02*
X44738775Y-124873214D01*
X44738775Y-124873214D02*
X44786394Y-124777976D01*
X44786394Y-124777976D02*
X44834013Y-124730357D01*
X44834013Y-124730357D02*
X44929251Y-124682738D01*
X44929251Y-124682738D02*
X45072108Y-124682738D01*
X45072108Y-124682738D02*
X45167346Y-124730357D01*
X45167346Y-124730357D02*
X45214965Y-124777976D01*
X45214965Y-124777976D02*
X45262584Y-124873214D01*
X45262584Y-124873214D02*
X45262584Y-125254166D01*
X44738775Y-124397023D02*
X45738775Y-124063690D01*
X45738775Y-124063690D02*
X44738775Y-123730357D01*
X44738775Y-122920833D02*
X44738775Y-123397023D01*
X44738775Y-123397023D02*
X45214965Y-123444642D01*
X45214965Y-123444642D02*
X45167346Y-123397023D01*
X45167346Y-123397023D02*
X45119727Y-123301785D01*
X45119727Y-123301785D02*
X45119727Y-123063690D01*
X45119727Y-123063690D02*
X45167346Y-122968452D01*
X45167346Y-122968452D02*
X45214965Y-122920833D01*
X45214965Y-122920833D02*
X45310203Y-122873214D01*
X45310203Y-122873214D02*
X45548298Y-122873214D01*
X45548298Y-122873214D02*
X45643536Y-122920833D01*
X45643536Y-122920833D02*
X45691156Y-122968452D01*
X45691156Y-122968452D02*
X45738775Y-123063690D01*
X45738775Y-123063690D02*
X45738775Y-123301785D01*
X45738775Y-123301785D02*
X45691156Y-123397023D01*
X45691156Y-123397023D02*
X45643536Y-123444642D01*
X34967289Y-83359580D02*
X34919670Y-83407200D01*
X34919670Y-83407200D02*
X34776813Y-83454819D01*
X34776813Y-83454819D02*
X34681575Y-83454819D01*
X34681575Y-83454819D02*
X34538718Y-83407200D01*
X34538718Y-83407200D02*
X34443480Y-83311961D01*
X34443480Y-83311961D02*
X34395861Y-83216723D01*
X34395861Y-83216723D02*
X34348242Y-83026247D01*
X34348242Y-83026247D02*
X34348242Y-82883390D01*
X34348242Y-82883390D02*
X34395861Y-82692914D01*
X34395861Y-82692914D02*
X34443480Y-82597676D01*
X34443480Y-82597676D02*
X34538718Y-82502438D01*
X34538718Y-82502438D02*
X34681575Y-82454819D01*
X34681575Y-82454819D02*
X34776813Y-82454819D01*
X34776813Y-82454819D02*
X34919670Y-82502438D01*
X34919670Y-82502438D02*
X34967289Y-82550057D01*
X35824432Y-82454819D02*
X35633956Y-82454819D01*
X35633956Y-82454819D02*
X35538718Y-82502438D01*
X35538718Y-82502438D02*
X35491099Y-82550057D01*
X35491099Y-82550057D02*
X35395861Y-82692914D01*
X35395861Y-82692914D02*
X35348242Y-82883390D01*
X35348242Y-82883390D02*
X35348242Y-83264342D01*
X35348242Y-83264342D02*
X35395861Y-83359580D01*
X35395861Y-83359580D02*
X35443480Y-83407200D01*
X35443480Y-83407200D02*
X35538718Y-83454819D01*
X35538718Y-83454819D02*
X35729194Y-83454819D01*
X35729194Y-83454819D02*
X35824432Y-83407200D01*
X35824432Y-83407200D02*
X35872051Y-83359580D01*
X35872051Y-83359580D02*
X35919670Y-83264342D01*
X35919670Y-83264342D02*
X35919670Y-83026247D01*
X35919670Y-83026247D02*
X35872051Y-82931009D01*
X35872051Y-82931009D02*
X35824432Y-82883390D01*
X35824432Y-82883390D02*
X35729194Y-82835771D01*
X35729194Y-82835771D02*
X35538718Y-82835771D01*
X35538718Y-82835771D02*
X35443480Y-82883390D01*
X35443480Y-82883390D02*
X35395861Y-82931009D01*
X35395861Y-82931009D02*
X35348242Y-83026247D01*
X47093775Y-176808333D02*
X47808060Y-176808333D01*
X47808060Y-176808333D02*
X47950917Y-176855952D01*
X47950917Y-176855952D02*
X48046156Y-176951190D01*
X48046156Y-176951190D02*
X48093775Y-177094047D01*
X48093775Y-177094047D02*
X48093775Y-177189285D01*
X47093775Y-175855952D02*
X47093775Y-176332142D01*
X47093775Y-176332142D02*
X47569965Y-176379761D01*
X47569965Y-176379761D02*
X47522346Y-176332142D01*
X47522346Y-176332142D02*
X47474727Y-176236904D01*
X47474727Y-176236904D02*
X47474727Y-175998809D01*
X47474727Y-175998809D02*
X47522346Y-175903571D01*
X47522346Y-175903571D02*
X47569965Y-175855952D01*
X47569965Y-175855952D02*
X47665203Y-175808333D01*
X47665203Y-175808333D02*
X47903298Y-175808333D01*
X47903298Y-175808333D02*
X47998536Y-175855952D01*
X47998536Y-175855952D02*
X48046156Y-175903571D01*
X48046156Y-175903571D02*
X48093775Y-175998809D01*
X48093775Y-175998809D02*
X48093775Y-176236904D01*
X48093775Y-176236904D02*
X48046156Y-176332142D01*
X48046156Y-176332142D02*
X47998536Y-176379761D01*
X52299670Y-87749104D02*
X52775860Y-87749104D01*
X52204432Y-88034819D02*
X52537765Y-87034819D01*
X52537765Y-87034819D02*
X52871098Y-88034819D01*
X53728241Y-88034819D02*
X53156813Y-88034819D01*
X53442527Y-88034819D02*
X53442527Y-87034819D01*
X53442527Y-87034819D02*
X53347289Y-87177676D01*
X53347289Y-87177676D02*
X53252051Y-87272914D01*
X53252051Y-87272914D02*
X53156813Y-87320533D01*
X64038775Y-57595238D02*
X63562584Y-57928571D01*
X64038775Y-58166666D02*
X63038775Y-58166666D01*
X63038775Y-58166666D02*
X63038775Y-57785714D01*
X63038775Y-57785714D02*
X63086394Y-57690476D01*
X63086394Y-57690476D02*
X63134013Y-57642857D01*
X63134013Y-57642857D02*
X63229251Y-57595238D01*
X63229251Y-57595238D02*
X63372108Y-57595238D01*
X63372108Y-57595238D02*
X63467346Y-57642857D01*
X63467346Y-57642857D02*
X63514965Y-57690476D01*
X63514965Y-57690476D02*
X63562584Y-57785714D01*
X63562584Y-57785714D02*
X63562584Y-58166666D01*
X63038775Y-57309523D02*
X64038775Y-56976190D01*
X64038775Y-56976190D02*
X63038775Y-56642857D01*
X64038775Y-55785714D02*
X64038775Y-56357142D01*
X64038775Y-56071428D02*
X63038775Y-56071428D01*
X63038775Y-56071428D02*
X63181632Y-56166666D01*
X63181632Y-56166666D02*
X63276870Y-56261904D01*
X63276870Y-56261904D02*
X63324489Y-56357142D01*
X64038775Y-147045238D02*
X63562584Y-147378571D01*
X64038775Y-147616666D02*
X63038775Y-147616666D01*
X63038775Y-147616666D02*
X63038775Y-147235714D01*
X63038775Y-147235714D02*
X63086394Y-147140476D01*
X63086394Y-147140476D02*
X63134013Y-147092857D01*
X63134013Y-147092857D02*
X63229251Y-147045238D01*
X63229251Y-147045238D02*
X63372108Y-147045238D01*
X63372108Y-147045238D02*
X63467346Y-147092857D01*
X63467346Y-147092857D02*
X63514965Y-147140476D01*
X63514965Y-147140476D02*
X63562584Y-147235714D01*
X63562584Y-147235714D02*
X63562584Y-147616666D01*
X63038775Y-146759523D02*
X64038775Y-146426190D01*
X64038775Y-146426190D02*
X63038775Y-146092857D01*
X64038775Y-145711904D02*
X64038775Y-145521428D01*
X64038775Y-145521428D02*
X63991156Y-145426190D01*
X63991156Y-145426190D02*
X63943536Y-145378571D01*
X63943536Y-145378571D02*
X63800679Y-145283333D01*
X63800679Y-145283333D02*
X63610203Y-145235714D01*
X63610203Y-145235714D02*
X63229251Y-145235714D01*
X63229251Y-145235714D02*
X63134013Y-145283333D01*
X63134013Y-145283333D02*
X63086394Y-145330952D01*
X63086394Y-145330952D02*
X63038775Y-145426190D01*
X63038775Y-145426190D02*
X63038775Y-145616666D01*
X63038775Y-145616666D02*
X63086394Y-145711904D01*
X63086394Y-145711904D02*
X63134013Y-145759523D01*
X63134013Y-145759523D02*
X63229251Y-145807142D01*
X63229251Y-145807142D02*
X63467346Y-145807142D01*
X63467346Y-145807142D02*
X63562584Y-145759523D01*
X63562584Y-145759523D02*
X63610203Y-145711904D01*
X63610203Y-145711904D02*
X63657822Y-145616666D01*
X63657822Y-145616666D02*
X63657822Y-145426190D01*
X63657822Y-145426190D02*
X63610203Y-145330952D01*
X63610203Y-145330952D02*
X63562584Y-145283333D01*
X63562584Y-145283333D02*
X63467346Y-145235714D01*
D10*
X39050622Y-171207419D02*
X39050622Y-171921704D01*
X39050622Y-171921704D02*
X39003003Y-172064561D01*
X39003003Y-172064561D02*
X38907765Y-172159800D01*
X38907765Y-172159800D02*
X38764908Y-172207419D01*
X38764908Y-172207419D02*
X38669670Y-172207419D01*
X39431575Y-171207419D02*
X40050622Y-171207419D01*
X40050622Y-171207419D02*
X39717289Y-171588371D01*
X39717289Y-171588371D02*
X39860146Y-171588371D01*
X39860146Y-171588371D02*
X39955384Y-171635990D01*
X39955384Y-171635990D02*
X40003003Y-171683609D01*
X40003003Y-171683609D02*
X40050622Y-171778847D01*
X40050622Y-171778847D02*
X40050622Y-172016942D01*
X40050622Y-172016942D02*
X40003003Y-172112180D01*
X40003003Y-172112180D02*
X39955384Y-172159800D01*
X39955384Y-172159800D02*
X39860146Y-172207419D01*
X39860146Y-172207419D02*
X39574432Y-172207419D01*
X39574432Y-172207419D02*
X39479194Y-172159800D01*
X39479194Y-172159800D02*
X39431575Y-172112180D01*
%TO.C,J1*%
D12*
X42378956Y-39330000D02*
X26878956Y-39330000D01*
X42378956Y-30210000D02*
X42378956Y-39330000D01*
X41078956Y-38020000D02*
X36678956Y-38020000D01*
X41078956Y-31520000D02*
X41078956Y-38020000D01*
X36678956Y-38020000D02*
X36678956Y-39330000D01*
X32588956Y-40720000D02*
X32088956Y-39720000D01*
X32578956Y-39330000D02*
X32578956Y-38020000D01*
X32578956Y-38020000D02*
X28178956Y-38020000D01*
X32088956Y-39720000D02*
X31588956Y-40720000D01*
X31588956Y-40720000D02*
X32588956Y-40720000D01*
X28178956Y-38020000D02*
X28178956Y-31520000D01*
X28178956Y-31520000D02*
X41078956Y-31520000D01*
X26878956Y-39330000D02*
X26878956Y-30210000D01*
X26878956Y-30210000D02*
X42378956Y-30210000D01*
%TO.C,J2*%
X78978956Y-39330000D02*
X63478956Y-39330000D01*
X78978956Y-30210000D02*
X78978956Y-39330000D01*
X77678956Y-38020000D02*
X73278956Y-38020000D01*
X77678956Y-31520000D02*
X77678956Y-38020000D01*
X73278956Y-38020000D02*
X73278956Y-39330000D01*
X69188956Y-40720000D02*
X68688956Y-39720000D01*
X69178956Y-39330000D02*
X69178956Y-38020000D01*
X69178956Y-38020000D02*
X64778956Y-38020000D01*
X68688956Y-39720000D02*
X68188956Y-40720000D01*
X68188956Y-40720000D02*
X69188956Y-40720000D01*
X64778956Y-38020000D02*
X64778956Y-31520000D01*
X64778956Y-31520000D02*
X77678956Y-31520000D01*
X63478956Y-39330000D02*
X63478956Y-30210000D01*
X63478956Y-30210000D02*
X78978956Y-30210000D01*
%TO.C,C7*%
X58363956Y-92930000D02*
X62903956Y-92930000D01*
X58363956Y-92986000D02*
X58363956Y-92930000D01*
X62903956Y-95014000D02*
X62903956Y-95070000D01*
X62903956Y-95070000D02*
X58363956Y-95070000D01*
%TO.C,SW2*%
D10*
X48933956Y-95500000D02*
X56933956Y-95500000D01*
X56933956Y-108500000D01*
X48933956Y-108500000D01*
X48933956Y-95500000D01*
%TO.C,R2*%
D12*
X49493956Y-57960000D02*
X49493956Y-58730000D01*
X49493956Y-66040000D02*
X49493956Y-65270000D01*
X48123956Y-58730000D02*
X50863956Y-58730000D01*
X50863956Y-65270000D01*
X48123956Y-65270000D01*
X48123956Y-58730000D01*
%TO.C,R12*%
X40673956Y-91000000D02*
X41443956Y-91000000D01*
X48753956Y-91000000D02*
X47983956Y-91000000D01*
X41443956Y-89630000D02*
X47983956Y-89630000D01*
X47983956Y-92370000D01*
X41443956Y-92370000D01*
X41443956Y-89630000D01*
%TO.C,R7*%
X33173956Y-56000000D02*
X33943956Y-56000000D01*
X41253956Y-56000000D02*
X40483956Y-56000000D01*
X33943956Y-54630000D02*
X40483956Y-54630000D01*
X40483956Y-57370000D01*
X33943956Y-57370000D01*
X33943956Y-54630000D01*
%TO.C,C3*%
X44363956Y-86930000D02*
X48903956Y-86930000D01*
X44363956Y-86986000D02*
X44363956Y-86930000D01*
X48903956Y-89014000D02*
X48903956Y-89070000D01*
X48903956Y-89070000D02*
X44363956Y-89070000D01*
%TO.C,R6*%
X57153956Y-45460000D02*
X57153956Y-46230000D01*
X57153956Y-53540000D02*
X57153956Y-52770000D01*
X55783956Y-46230000D02*
X58523956Y-46230000D01*
X58523956Y-52770000D01*
X55783956Y-52770000D01*
X55783956Y-46230000D01*
%TO.C,R3*%
X57153956Y-57960000D02*
X57153956Y-58730000D01*
X57153956Y-66040000D02*
X57153956Y-65270000D01*
X55783956Y-58730000D02*
X58523956Y-58730000D01*
X58523956Y-65270000D01*
X55783956Y-65270000D01*
X55783956Y-58730000D01*
%TO.C,R4*%
X53323956Y-57960000D02*
X53323956Y-58730000D01*
X53323956Y-66040000D02*
X53323956Y-65270000D01*
X51953956Y-58730000D02*
X54693956Y-58730000D01*
X54693956Y-65270000D01*
X51953956Y-65270000D01*
X51953956Y-58730000D01*
%TO.C,RV4*%
X29612956Y-117017500D02*
X39653956Y-117017500D01*
X29612956Y-120953500D02*
X29612956Y-117017500D01*
X29612956Y-129257500D02*
X29612956Y-125320500D01*
X29612956Y-129257500D02*
X30933956Y-129257500D01*
X33383956Y-129257500D02*
X33763956Y-129257500D01*
X35504956Y-129257500D02*
X36263956Y-129257500D01*
X38003956Y-129257500D02*
X39653956Y-129257500D01*
X39653956Y-120953500D02*
X39653956Y-117017500D01*
X39653956Y-129257500D02*
X39653956Y-125320500D01*
%TO.C,J6*%
D10*
X77233956Y-166475062D02*
G75*
G02*
X65233956Y-166475062I-6000000J0D01*
G01*
X65233956Y-166475062D02*
G75*
G02*
X77233956Y-166475062I6000000J0D01*
G01*
%TO.C,D1*%
D12*
X28513956Y-47590000D02*
X30753956Y-47590000D01*
X28513956Y-47710000D02*
X30753956Y-47710000D01*
X28513956Y-47830000D02*
X30753956Y-47830000D01*
X29633956Y-43540000D02*
X29633956Y-44190000D01*
X29633956Y-49080000D02*
X29633956Y-48430000D01*
X28513956Y-44190000D02*
X30753956Y-44190000D01*
X30753956Y-48430000D01*
X28513956Y-48430000D01*
X28513956Y-44190000D01*
%TO.C,U2*%
X50673956Y-68430000D02*
X50673956Y-86330000D01*
X50673956Y-86330000D02*
X55973956Y-86330000D01*
X52323956Y-68430000D02*
X50673956Y-68430000D01*
X55973956Y-68430000D02*
X54323956Y-68430000D01*
X55973956Y-86330000D02*
X55973956Y-68430000D01*
X48183956Y-68370000D02*
X58463956Y-68370000D01*
X58463956Y-86390000D01*
X48183956Y-86390000D01*
X48183956Y-68370000D01*
X54323956Y-68430000D02*
G75*
G02*
X52323956Y-68430000I-1000000J0D01*
G01*
%TO.C,R9*%
X33673956Y-80000000D02*
X34443956Y-80000000D01*
X41753956Y-80000000D02*
X40983956Y-80000000D01*
X34443956Y-78630000D02*
X40983956Y-78630000D01*
X40983956Y-81370000D01*
X34443956Y-81370000D01*
X34443956Y-78630000D01*
%TO.C,RV6*%
X66112956Y-117017500D02*
X76153956Y-117017500D01*
X66112956Y-120953500D02*
X66112956Y-117017500D01*
X66112956Y-129257500D02*
X66112956Y-125320500D01*
X66112956Y-129257500D02*
X67433956Y-129257500D01*
X69883956Y-129257500D02*
X70263956Y-129257500D01*
X72004956Y-129257500D02*
X72763956Y-129257500D01*
X74503956Y-129257500D02*
X76153956Y-129257500D01*
X76153956Y-120953500D02*
X76153956Y-117017500D01*
X76153956Y-129257500D02*
X76153956Y-125320500D01*
%TO.C,C2*%
X30363956Y-74430000D02*
X34903956Y-74430000D01*
X30363956Y-74486000D02*
X30363956Y-74430000D01*
X34903956Y-76514000D02*
X34903956Y-76570000D01*
X34903956Y-76570000D02*
X30363956Y-76570000D01*
%TO.C,R8*%
X49493956Y-45460000D02*
X49493956Y-46230000D01*
X49493956Y-53540000D02*
X49493956Y-52770000D01*
X48123956Y-46230000D02*
X50863956Y-46230000D01*
X50863956Y-52770000D01*
X48123956Y-52770000D01*
X48123956Y-46230000D01*
%TO.C,C5*%
X37863956Y-74430000D02*
X42403956Y-74430000D01*
X37863956Y-74486000D02*
X37863956Y-74430000D01*
X42403956Y-76514000D02*
X42403956Y-76570000D01*
X42403956Y-76570000D02*
X37863956Y-76570000D01*
%TO.C,C1*%
X41180000Y-49270000D02*
X41180000Y-44730000D01*
X41236000Y-49270000D02*
X41180000Y-49270000D01*
X43264000Y-44730000D02*
X43320000Y-44730000D01*
X43320000Y-44730000D02*
X43320000Y-49270000D01*
%TO.C,R10*%
X29633956Y-78880000D02*
X29633956Y-79650000D01*
X29633956Y-86960000D02*
X29633956Y-86190000D01*
X28263956Y-79650000D02*
X31003956Y-79650000D01*
X31003956Y-86190000D01*
X28263956Y-86190000D01*
X28263956Y-79650000D01*
%TO.C,RV8*%
X48018623Y-139380000D02*
X58059623Y-139380000D01*
X48018623Y-143316000D02*
X48018623Y-139380000D01*
X48018623Y-151620000D02*
X48018623Y-147683000D01*
X48018623Y-151620000D02*
X49339623Y-151620000D01*
X51789623Y-151620000D02*
X52169623Y-151620000D01*
X53910623Y-151620000D02*
X54669623Y-151620000D01*
X56409623Y-151620000D02*
X58059623Y-151620000D01*
X58059623Y-143316000D02*
X58059623Y-139380000D01*
X58059623Y-151620000D02*
X58059623Y-147683000D01*
%TO.C,D2*%
X39633956Y-43540000D02*
X39633956Y-44190000D01*
X39633956Y-49080000D02*
X39633956Y-48430000D01*
X40753956Y-44790000D02*
X38513956Y-44790000D01*
X40753956Y-44910000D02*
X38513956Y-44910000D01*
X40753956Y-45030000D02*
X38513956Y-45030000D01*
X38513956Y-44190000D02*
X40753956Y-44190000D01*
X40753956Y-48430000D01*
X38513956Y-48430000D01*
X38513956Y-44190000D01*
%TO.C,R11*%
X28633956Y-91540000D02*
X28633956Y-92310000D01*
X28633956Y-99620000D02*
X28633956Y-98850000D01*
X27263956Y-92310000D02*
X30003956Y-92310000D01*
X30003956Y-98850000D01*
X27263956Y-98850000D01*
X27263956Y-92310000D01*
%TO.C,SW3*%
D10*
X39783956Y-95500000D02*
X47783956Y-95500000D01*
X47783956Y-108500000D01*
X39783956Y-108500000D01*
X39783956Y-95500000D01*
%TO.C,RV7*%
D12*
X29612956Y-139380000D02*
X39653956Y-139380000D01*
X29612956Y-143316000D02*
X29612956Y-139380000D01*
X29612956Y-151620000D02*
X29612956Y-147683000D01*
X29612956Y-151620000D02*
X30933956Y-151620000D01*
X33383956Y-151620000D02*
X33763956Y-151620000D01*
X35504956Y-151620000D02*
X36263956Y-151620000D01*
X38003956Y-151620000D02*
X39653956Y-151620000D01*
X39653956Y-143316000D02*
X39653956Y-139380000D01*
X39653956Y-151620000D02*
X39653956Y-147683000D01*
%TO.C,C4*%
X57363956Y-86930000D02*
X61903956Y-86930000D01*
X57363956Y-86986000D02*
X57363956Y-86930000D01*
X61903956Y-89014000D02*
X61903956Y-89070000D01*
X61903956Y-89070000D02*
X57363956Y-89070000D01*
%TO.C,R5*%
X53323956Y-45460000D02*
X53323956Y-46230000D01*
X53323956Y-53540000D02*
X53323956Y-52770000D01*
X51953956Y-46230000D02*
X54693956Y-46230000D01*
X54693956Y-52770000D01*
X51953956Y-52770000D01*
X51953956Y-46230000D01*
%TO.C,J4*%
D10*
X59039623Y-166475062D02*
G75*
G02*
X47039623Y-166475062I-6000000J0D01*
G01*
X47039623Y-166475062D02*
G75*
G02*
X59039623Y-166475062I6000000J0D01*
G01*
%TO.C,RV2*%
D12*
X66212956Y-72292500D02*
X76253956Y-72292500D01*
X66212956Y-76228500D02*
X66212956Y-72292500D01*
X66212956Y-84532500D02*
X66212956Y-80595500D01*
X66212956Y-84532500D02*
X67533956Y-84532500D01*
X69983956Y-84532500D02*
X70363956Y-84532500D01*
X72104956Y-84532500D02*
X72863956Y-84532500D01*
X74603956Y-84532500D02*
X76253956Y-84532500D01*
X76253956Y-76228500D02*
X76253956Y-72292500D01*
X76253956Y-84532500D02*
X76253956Y-80595500D01*
%TO.C,R1*%
X33173956Y-53000000D02*
X33943956Y-53000000D01*
X41253956Y-53000000D02*
X40483956Y-53000000D01*
X33943956Y-51630000D02*
X40483956Y-51630000D01*
X40483956Y-54370000D01*
X33943956Y-54370000D01*
X33943956Y-51630000D01*
%TO.C,RV3*%
X66212956Y-94655000D02*
X76253956Y-94655000D01*
X66212956Y-98591000D02*
X66212956Y-94655000D01*
X66212956Y-106895000D02*
X66212956Y-102958000D01*
X66212956Y-106895000D02*
X67533956Y-106895000D01*
X69983956Y-106895000D02*
X70363956Y-106895000D01*
X72104956Y-106895000D02*
X72863956Y-106895000D01*
X74603956Y-106895000D02*
X76253956Y-106895000D01*
X76253956Y-98591000D02*
X76253956Y-94655000D01*
X76253956Y-106895000D02*
X76253956Y-102958000D01*
%TO.C,R13*%
X57093956Y-91000000D02*
X57863956Y-91000000D01*
X65173956Y-91000000D02*
X64403956Y-91000000D01*
X57863956Y-89630000D02*
X64403956Y-89630000D01*
X64403956Y-92370000D01*
X57863956Y-92370000D01*
X57863956Y-89630000D01*
%TO.C,SW1*%
D10*
X30633956Y-95500000D02*
X38633956Y-95500000D01*
X38633956Y-108500000D01*
X30633956Y-108500000D01*
X30633956Y-95500000D01*
%TO.C,U1*%
D12*
X40366958Y-71086428D02*
X40366958Y-58276428D01*
X43126958Y-58276428D02*
X40366958Y-58276428D01*
X43126958Y-71086428D02*
X40366958Y-71086428D01*
X43126958Y-71086428D02*
X43126958Y-58276428D01*
X43126958Y-72356428D02*
X43126958Y-73736428D01*
X43126958Y-73736428D02*
X41746958Y-73736428D01*
D10*
X27633956Y-58250000D02*
X43133956Y-58250000D01*
X43133956Y-73750000D01*
X27633956Y-73750000D01*
X27633956Y-58250000D01*
%TO.C,RV5*%
D12*
X47912956Y-117017500D02*
X57953956Y-117017500D01*
X47912956Y-120953500D02*
X47912956Y-117017500D01*
X47912956Y-129257500D02*
X47912956Y-125320500D01*
X47912956Y-129257500D02*
X49233956Y-129257500D01*
X51683956Y-129257500D02*
X52063956Y-129257500D01*
X53804956Y-129257500D02*
X54563956Y-129257500D01*
X56303956Y-129257500D02*
X57953956Y-129257500D01*
X57953956Y-120953500D02*
X57953956Y-117017500D01*
X57953956Y-129257500D02*
X57953956Y-125320500D01*
%TO.C,C6*%
X37863956Y-81930000D02*
X42403956Y-81930000D01*
X37863956Y-81986000D02*
X37863956Y-81930000D01*
X42403956Y-84014000D02*
X42403956Y-84070000D01*
X42403956Y-84070000D02*
X37863956Y-84070000D01*
%TO.C,J5*%
X49078956Y-175145000D02*
X50408956Y-175145000D01*
X49078956Y-176475000D02*
X49078956Y-175145000D01*
X51678956Y-175145000D02*
X56818956Y-175145000D01*
X51678956Y-177805000D02*
X51678956Y-175145000D01*
X51678956Y-177805000D02*
X56818956Y-177805000D01*
X56818956Y-177805000D02*
X56818956Y-175145000D01*
%TO.C,A1*%
X43993956Y-43000000D02*
X49073956Y-43000000D01*
D10*
X43993956Y-45670000D02*
X43993956Y-43000000D01*
X43993956Y-83770000D02*
X43993956Y-45670000D01*
D12*
X46663956Y-45670000D02*
X43993956Y-45670000D01*
X46663956Y-83770000D02*
X43993956Y-83770000D01*
X46663956Y-83770000D02*
X46663956Y-45670000D01*
D10*
X49076187Y-40500000D02*
X49073956Y-43000000D01*
X56953956Y-40500000D02*
X49076187Y-40500000D01*
X56953956Y-43000000D02*
X56953956Y-40500000D01*
D12*
X59363956Y-45670000D02*
X62033956Y-45670000D01*
X59363956Y-81230000D02*
X59363956Y-45670000D01*
X59363956Y-81230000D02*
X59363956Y-83770000D01*
X59363956Y-81230000D02*
X62033956Y-81230000D01*
X59363956Y-83770000D02*
X62033956Y-83770000D01*
X62033956Y-43000000D02*
X56953956Y-43000000D01*
X62033956Y-81230000D02*
X62033956Y-43000000D01*
D10*
X62033956Y-83770000D02*
X62033956Y-81230000D01*
%TO.C,RV1*%
D12*
X66212956Y-49930000D02*
X76253956Y-49930000D01*
X66212956Y-53866000D02*
X66212956Y-49930000D01*
X66212956Y-62170000D02*
X66212956Y-58233000D01*
X66212956Y-62170000D02*
X67533956Y-62170000D01*
X69983956Y-62170000D02*
X70363956Y-62170000D01*
X72104956Y-62170000D02*
X72863956Y-62170000D01*
X74603956Y-62170000D02*
X76253956Y-62170000D01*
X76253956Y-53866000D02*
X76253956Y-49930000D01*
X76253956Y-62170000D02*
X76253956Y-58233000D01*
%TO.C,RV9*%
X66212956Y-139380000D02*
X76253956Y-139380000D01*
X66212956Y-143316000D02*
X66212956Y-139380000D01*
X66212956Y-151620000D02*
X66212956Y-147683000D01*
X66212956Y-151620000D02*
X67533956Y-151620000D01*
X69983956Y-151620000D02*
X70363956Y-151620000D01*
X72104956Y-151620000D02*
X72863956Y-151620000D01*
X74603956Y-151620000D02*
X76253956Y-151620000D01*
X76253956Y-143316000D02*
X76253956Y-139380000D01*
X76253956Y-151620000D02*
X76253956Y-147683000D01*
%TO.C,J3*%
D10*
X40633956Y-166475062D02*
G75*
G02*
X28633956Y-166475062I-6000000J0D01*
G01*
X28633956Y-166475062D02*
G75*
G02*
X40633956Y-166475062I6000000J0D01*
G01*
%TD*%
M02*
