M48
; DRILL file KiCad 10.0.3 date 2026-07-04T10:38:13
; FORMAT={-:-/ absolute / metric / decimal}
; #@! TF.CreationDate,2026-07-04T10:38:13+10:00
; #@! TF.GenerationSoftware,Kicad,Pcbnew,10.0.3
; #@! TF.FileFunction,Plated,1,2,PTH
FMAT,2
METRIC
; #@! TA.AperFunction,Plated,PTH,ComponentDrill
T1C0.800
; #@! TA.AperFunction,Plated,PTH,ComponentDrill
T2C1.000
; #@! TA.AperFunction,Plated,PTH,ComponentDrill
T3C1.800
; #@! TA.AperFunction,Plated,PTH,ComponentDrill
T4C6.000
%
G90
G05
T1
X28.634Y-90.5
X28.634Y-100.66
X29.634Y-42.5
X29.634Y-50.12
X29.634Y-77.84
X29.634Y-88.0
X30.134Y-75.5
X32.134Y-53.0
X32.134Y-56.0
X32.634Y-80.0
X35.134Y-75.5
X37.634Y-75.5
X37.634Y-83.0
X39.634Y-42.5
X39.634Y-50.12
X39.634Y-91.0
X42.25Y-44.5
X42.25Y-49.5
X42.294Y-53.0
X42.294Y-56.0
X42.634Y-75.5
X42.634Y-83.0
X42.794Y-80.0
X44.134Y-88.0
X49.134Y-88.0
X49.494Y-44.42
X49.494Y-54.58
X49.494Y-56.92
X49.494Y-67.08
X49.514Y-69.76
X49.514Y-72.3
X49.514Y-74.84
X49.514Y-77.38
X49.514Y-79.92
X49.514Y-82.46
X49.514Y-85.0
X49.794Y-91.0
X53.324Y-44.42
X53.324Y-54.58
X53.324Y-56.92
X53.324Y-67.08
X56.054Y-91.0
X57.134Y-69.76
X57.134Y-72.3
X57.134Y-74.84
X57.134Y-77.38
X57.134Y-79.92
X57.134Y-82.46
X57.134Y-85.0
X57.134Y-88.0
X57.154Y-44.42
X57.154Y-54.58
X57.154Y-56.92
X57.154Y-67.08
X58.134Y-94.0
X62.134Y-88.0
X63.134Y-94.0
X66.214Y-91.0
T2
X32.089Y-33.5
X32.089Y-36.04
X32.134Y-130.137
X32.134Y-152.5
X34.629Y-33.5
X34.629Y-36.04
X34.634Y-130.137
X34.634Y-152.5
X37.134Y-130.137
X37.134Y-152.5
X37.169Y-33.5
X37.169Y-36.04
X41.747Y-59.656
X41.747Y-62.196
X41.747Y-64.736
X41.747Y-67.276
X41.747Y-69.816
X41.747Y-72.356
X45.394Y-46.94
X45.394Y-49.48
X45.394Y-52.02
X45.394Y-54.56
X45.394Y-57.1
X45.394Y-59.64
X45.394Y-62.18
X45.394Y-64.72
X45.394Y-67.26
X45.394Y-69.8
X45.394Y-72.34
X45.394Y-74.88
X45.394Y-77.42
X45.394Y-79.96
X45.394Y-82.5
X50.409Y-176.475
X50.434Y-130.137
X50.54Y-152.5
X52.934Y-130.137
X52.949Y-176.475
X53.04Y-152.5
X55.434Y-130.137
X55.489Y-176.475
X55.54Y-152.5
X60.634Y-46.94
X60.634Y-49.48
X60.634Y-52.02
X60.634Y-54.56
X60.634Y-57.1
X60.634Y-59.64
X60.634Y-62.18
X60.634Y-64.72
X60.634Y-67.26
X60.634Y-69.8
X60.634Y-72.34
X60.634Y-74.88
X60.634Y-77.42
X60.634Y-79.96
X60.634Y-82.5
X68.634Y-130.137
X68.689Y-33.5
X68.689Y-36.04
X68.734Y-63.05
X68.734Y-85.412
X68.734Y-107.775
X68.734Y-152.5
X71.134Y-130.137
X71.229Y-33.5
X71.229Y-36.04
X71.234Y-63.05
X71.234Y-85.412
X71.234Y-107.775
X71.234Y-152.5
X73.634Y-130.137
X73.734Y-63.05
X73.734Y-85.412
X73.734Y-107.775
X73.734Y-152.5
X73.769Y-33.5
X73.769Y-36.04
T4
X34.634Y-166.5
X53.04Y-166.5
X71.234Y-166.5
T2
G00X33.759Y-97.5
M15
G01X35.509Y-97.5
M16
G05
G00X33.759Y-102.0
M15
G01X35.509Y-102.0
M16
G05
G00X33.759Y-106.5
M15
G01X35.509Y-106.5
M16
G05
G00X42.909Y-97.5
M15
G01X44.659Y-97.5
M16
G05
G00X42.909Y-102.0
M15
G01X44.659Y-102.0
M16
G05
G00X42.909Y-106.5
M15
G01X44.659Y-106.5
M16
G05
G00X52.059Y-97.5
M15
G01X53.809Y-97.5
M16
G05
G00X52.059Y-102.0
M15
G01X53.809Y-102.0
M16
G05
G00X52.059Y-106.5
M15
G01X53.809Y-106.5
M16
G05
T3
G00X30.234Y-123.287
M15
G01X30.234Y-122.987
M16
G05
G00X30.234Y-145.65
M15
G01X30.234Y-145.35
M16
G05
G00X39.034Y-123.287
M15
G01X39.034Y-122.987
M16
G05
G00X39.034Y-145.65
M15
G01X39.034Y-145.35
M16
G05
G00X48.534Y-123.287
M15
G01X48.534Y-122.987
M16
G05
G00X48.64Y-145.65
M15
G01X48.64Y-145.35
M16
G05
G00X57.334Y-123.287
M15
G01X57.334Y-122.987
M16
G05
G00X57.44Y-145.65
M15
G01X57.44Y-145.35
M16
G05
G00X66.734Y-123.287
M15
G01X66.734Y-122.987
M16
G05
G00X66.834Y-56.2
M15
G01X66.834Y-55.9
M16
G05
G00X66.834Y-78.562
M15
G01X66.834Y-78.263
M16
G05
G00X66.834Y-100.925
M15
G01X66.834Y-100.625
M16
G05
G00X66.834Y-145.65
M15
G01X66.834Y-145.35
M16
G05
G00X75.534Y-123.287
M15
G01X75.534Y-122.987
M16
G05
G00X75.634Y-56.2
M15
G01X75.634Y-55.9
M16
G05
G00X75.634Y-78.562
M15
G01X75.634Y-78.263
M16
G05
G00X75.634Y-100.925
M15
G01X75.634Y-100.625
M16
G05
G00X75.634Y-145.65
M15
G01X75.634Y-145.35
M16
G05
M30
