%TF.GenerationSoftware,KiCad,Pcbnew,10.0.3*%
%TF.CreationDate,2026-07-04T10:38:11+10:00*%
%TF.ProjectId,arduino-delay,61726475-696e-46f2-9d64-656c61792e6b,rev?*%
%TF.SameCoordinates,Original*%
%TF.FileFunction,Copper,L2,Bot*%
%TF.FilePolarity,Positive*%
%FSLAX46Y46*%
G04 Gerber Fmt 4.6, Leading zero omitted, Abs format (unit mm)*
G04 Created by KiCad (PCBNEW 10.0.3) date 2026-07-04 10:38:11*
%MOMM*%
%LPD*%
G01*
G04 APERTURE LIST*
G04 Aperture macros list*
%AMRoundRect*
0 Rectangle with rounded corners*
0 $1 Rounding radius*
0 $2 $3 $4 $5 $6 $7 $8 $9 X,Y pos of 4 corners*
0 Add a 4 corners polygon primitive as box body*
4,1,4,$2,$3,$4,$5,$6,$7,$8,$9,$2,$3,0*
0 Add four circle primitives for the rounded corners*
1,1,$1+$1,$2,$3*
1,1,$1+$1,$4,$5*
1,1,$1+$1,$6,$7*
1,1,$1+$1,$8,$9*
0 Add four rect primitives between the rounded corners*
20,1,$1+$1,$2,$3,$4,$5,0*
20,1,$1+$1,$4,$5,$6,$7,0*
20,1,$1+$1,$6,$7,$8,$9,0*
20,1,$1+$1,$8,$9,$2,$3,0*%
G04 Aperture macros list end*
%TA.AperFunction,ComponentPad*%
%ADD10C,1.700000*%
%TD*%
%TA.AperFunction,ComponentPad*%
%ADD11RoundRect,0.250000X0.600000X-0.600000X0.600000X0.600000X-0.600000X0.600000X-0.600000X-0.600000X0*%
%TD*%
%TA.AperFunction,ComponentPad*%
%ADD12C,1.600000*%
%TD*%
%TA.AperFunction,ComponentPad*%
%ADD13O,3.750000X2.000000*%
%TD*%
%TA.AperFunction,ComponentPad*%
%ADD14R,1.800000X1.800000*%
%TD*%
%TA.AperFunction,ComponentPad*%
%ADD15C,1.800000*%
%TD*%
%TA.AperFunction,ComponentPad*%
%ADD16RoundRect,0.750000X0.750000X-1.250000X0.750000X1.250000X-0.750000X1.250000X-0.750000X-1.250000X0*%
%TD*%
%TA.AperFunction,ComponentPad*%
%ADD17C,8.000000*%
%TD*%
%TA.AperFunction,ComponentPad*%
%ADD18RoundRect,0.250000X0.550000X-0.550000X0.550000X0.550000X-0.550000X0.550000X-0.550000X-0.550000X0*%
%TD*%
%TA.AperFunction,ComponentPad*%
%ADD19RoundRect,0.250000X-0.550000X-0.550000X0.550000X-0.550000X0.550000X0.550000X-0.550000X0.550000X0*%
%TD*%
%TA.AperFunction,ComponentPad*%
%ADD20RoundRect,0.250000X-0.550000X0.550000X-0.550000X-0.550000X0.550000X-0.550000X0.550000X0.550000X0*%
%TD*%
%TA.AperFunction,ComponentPad*%
%ADD21R,1.700000X1.700000*%
%TD*%
%TA.AperFunction,ComponentPad*%
%ADD22R,1.600000X1.600000*%
%TD*%
%TA.AperFunction,ComponentPad*%
%ADD23O,1.600000X1.600000*%
%TD*%
%TA.AperFunction,Conductor*%
%ADD24C,0.200000*%
%TD*%
G04 APERTURE END LIST*
D10*
%TO.P,J1,6,Pin_6*%
%TO.N,unconnected-(J1-Pin_6-Pad6)*%
X37168956Y-33500000D03*
%TO.P,J1,5,Pin_5*%
%TO.N,5V*%
X37168956Y-36040000D03*
%TO.P,J1,4,Pin_4*%
%TO.N,GND*%
X34628956Y-33500000D03*
%TO.P,J1,3,Pin_3*%
X34628956Y-36040000D03*
%TO.P,J1,2,Pin_2*%
%TO.N,-12V*%
X32088956Y-33500000D03*
D11*
%TO.P,J1,1,Pin_1*%
%TO.N,12V*%
X32088956Y-36040000D03*
%TD*%
D10*
%TO.P,J2,6,Pin_6*%
%TO.N,unconnected-(J2-Pin_6-Pad6)*%
X73768956Y-33500000D03*
%TO.P,J2,5,Pin_5*%
%TO.N,5V*%
X73768956Y-36040000D03*
%TO.P,J2,4,Pin_4*%
%TO.N,GND*%
X71228956Y-33500000D03*
%TO.P,J2,3,Pin_3*%
X71228956Y-36040000D03*
%TO.P,J2,2,Pin_2*%
%TO.N,-12V*%
X68688956Y-33500000D03*
D11*
%TO.P,J2,1,Pin_1*%
%TO.N,12V*%
X68688956Y-36040000D03*
%TD*%
D12*
%TO.P,C7,1*%
%TO.N,Net-(U2C-+)*%
X58133956Y-94000000D03*
%TO.P,C7,2*%
%TO.N,GND*%
X63133956Y-94000000D03*
%TD*%
D13*
%TO.P,SW2,1,C*%
%TO.N,GND*%
X52933956Y-106500000D03*
%TO.P,SW2,2,B*%
%TO.N,Net-(A1-D8)*%
X52933956Y-102000000D03*
%TO.P,SW2,3,A*%
%TO.N,unconnected-(SW2-A-Pad3)*%
X52933956Y-97500000D03*
%TD*%
D12*
%TO.P,R2,1*%
%TO.N,Net-(U2B--)*%
X49493956Y-56920000D03*
%TO.P,R2,2*%
%TO.N,Net-(A1-A7)*%
X49493956Y-67080000D03*
%TD*%
%TO.P,R12,1*%
%TO.N,Net-(A1-A0)*%
X39633956Y-91000000D03*
%TO.P,R12,2*%
%TO.N,GND*%
X49793956Y-91000000D03*
%TD*%
%TO.P,R7,1*%
%TO.N,Net-(A1-A4)*%
X42293956Y-56000000D03*
%TO.P,R7,2*%
%TO.N,5V*%
X32133956Y-56000000D03*
%TD*%
%TO.P,C3,1*%
%TO.N,GND*%
X44133956Y-88000000D03*
%TO.P,C3,2*%
%TO.N,12V*%
X49133956Y-88000000D03*
%TD*%
%TO.P,R6,1*%
%TO.N,Net-(R4-Pad1)*%
X57153956Y-44420000D03*
%TO.P,R6,2*%
%TO.N,-12V*%
X57153956Y-54580000D03*
%TD*%
%TO.P,R3,1*%
%TO.N,GND*%
X57153956Y-56920000D03*
%TO.P,R3,2*%
%TO.N,Net-(U2C--)*%
X57153956Y-67080000D03*
%TD*%
%TO.P,R4,1*%
%TO.N,Net-(R4-Pad1)*%
X53323956Y-56920000D03*
%TO.P,R4,2*%
%TO.N,Net-(U2B--)*%
X53323956Y-67080000D03*
%TD*%
D14*
%TO.P,RV4,1,1*%
%TO.N,unconnected-(RV4-Pad1)*%
X32133956Y-130137500D03*
D15*
%TO.P,RV4,2,2*%
%TO.N,Net-(U2C-+)*%
X34633956Y-130137500D03*
%TO.P,RV4,3,3*%
%TO.N,Net-(C2-Pad1)*%
X37133956Y-130137500D03*
D16*
%TO.P,RV4,MP*%
%TO.N,N/C*%
X30233956Y-123137500D03*
X39033956Y-123137500D03*
%TD*%
D17*
%TO.P,J6,1,Pin_1*%
%TO.N,Net-(J5-Pin_3)*%
X71233956Y-166500000D03*
%TD*%
D18*
%TO.P,D1,1,K*%
%TO.N,Net-(A1-A0)*%
X29633956Y-50120000D03*
D12*
%TO.P,D1,2,A*%
%TO.N,GND*%
X29633956Y-42500000D03*
%TD*%
D19*
%TO.P,U2,1*%
%TO.N,Net-(U2A--)*%
X49513956Y-69760000D03*
D12*
%TO.P,U2,2,-*%
X49513956Y-72300000D03*
%TO.P,U2,3,+*%
%TO.N,Net-(U2A-+)*%
X49513956Y-74840000D03*
%TO.P,U2,4,V+*%
%TO.N,12V*%
X49513956Y-77380000D03*
%TO.P,U2,5,+*%
%TO.N,GND*%
X49513956Y-79920000D03*
%TO.P,U2,6,-*%
%TO.N,Net-(U2B--)*%
X49513956Y-82460000D03*
%TO.P,U2,7*%
%TO.N,Net-(A1-A7)*%
X49513956Y-85000000D03*
%TO.P,U2,8*%
%TO.N,Net-(RV8-Pad2)*%
X57133956Y-85000000D03*
%TO.P,U2,9,-*%
%TO.N,Net-(U2C--)*%
X57133956Y-82460000D03*
%TO.P,U2,10,+*%
%TO.N,Net-(U2C-+)*%
X57133956Y-79920000D03*
%TO.P,U2,11,V-*%
%TO.N,-12V*%
X57133956Y-77380000D03*
%TO.P,U2,12,+*%
%TO.N,Net-(U2D-+)*%
X57133956Y-74840000D03*
%TO.P,U2,13,-*%
%TO.N,Net-(U2D--)*%
X57133956Y-72300000D03*
%TO.P,U2,14*%
X57133956Y-69760000D03*
%TD*%
%TO.P,R9,1*%
%TO.N,Net-(U2A-+)*%
X32633956Y-80000000D03*
%TO.P,R9,2*%
%TO.N,GND*%
X42793956Y-80000000D03*
%TD*%
D14*
%TO.P,RV6,1,1*%
%TO.N,GND*%
X68633956Y-130137500D03*
D15*
%TO.P,RV6,2,2*%
%TO.N,Net-(A1-A1)*%
X71133956Y-130137500D03*
%TO.P,RV6,3,3*%
%TO.N,5V*%
X73633956Y-130137500D03*
D16*
%TO.P,RV6,MP*%
%TO.N,N/C*%
X66733956Y-123137500D03*
X75533956Y-123137500D03*
%TD*%
D12*
%TO.P,C2,1*%
%TO.N,Net-(C2-Pad1)*%
X30133956Y-75500000D03*
%TO.P,C2,2*%
%TO.N,Net-(U1-OUT)*%
X35133956Y-75500000D03*
%TD*%
%TO.P,R8,1*%
%TO.N,Net-(R8-Pad1)*%
X49493956Y-44420000D03*
%TO.P,R8,2*%
%TO.N,Net-(U2B--)*%
X49493956Y-54580000D03*
%TD*%
%TO.P,C5,1*%
%TO.N,GND*%
X37633956Y-75500000D03*
%TO.P,C5,2*%
%TO.N,5V*%
X42633956Y-75500000D03*
%TD*%
%TO.P,C1,1*%
%TO.N,GND*%
X42250000Y-44500000D03*
%TO.P,C1,2*%
%TO.N,Net-(A1-AREF)*%
X42250000Y-49500000D03*
%TD*%
%TO.P,R10,1*%
%TO.N,Net-(R10-Pad1)*%
X29633956Y-88000000D03*
%TO.P,R10,2*%
%TO.N,Net-(C2-Pad1)*%
X29633956Y-77840000D03*
%TD*%
D14*
%TO.P,RV8,1,1*%
%TO.N,Net-(U2C--)*%
X50539623Y-152500000D03*
D15*
%TO.P,RV8,2,2*%
%TO.N,Net-(RV8-Pad2)*%
X53039623Y-152500000D03*
%TO.P,RV8,3,3*%
%TO.N,unconnected-(RV8-Pad3)*%
X55539623Y-152500000D03*
D16*
%TO.P,RV8,MP*%
%TO.N,N/C*%
X48639623Y-145500000D03*
X57439623Y-145500000D03*
%TD*%
D20*
%TO.P,D2,1,K*%
%TO.N,5V*%
X39633956Y-42500000D03*
D12*
%TO.P,D2,2,A*%
%TO.N,Net-(A1-A0)*%
X39633956Y-50120000D03*
%TD*%
%TO.P,R11,1*%
%TO.N,Net-(A1-A0)*%
X28633956Y-90500000D03*
%TO.P,R11,2*%
%TO.N,Net-(J4-Pin_1)*%
X28633956Y-100660000D03*
%TD*%
D13*
%TO.P,SW3,1,C*%
%TO.N,GND*%
X43783956Y-106500000D03*
%TO.P,SW3,2,B*%
%TO.N,Net-(A1-D9)*%
X43783956Y-102000000D03*
%TO.P,SW3,3,A*%
%TO.N,unconnected-(SW3-A-Pad3)*%
X43783956Y-97500000D03*
%TD*%
D14*
%TO.P,RV7,1,1*%
%TO.N,GND*%
X32133956Y-152500000D03*
D15*
%TO.P,RV7,2,2*%
%TO.N,Net-(R8-Pad1)*%
X34633956Y-152500000D03*
%TO.P,RV7,3,3*%
%TO.N,Net-(U2A--)*%
X37133956Y-152500000D03*
D16*
%TO.P,RV7,MP*%
%TO.N,N/C*%
X30233956Y-145500000D03*
X39033956Y-145500000D03*
%TD*%
D12*
%TO.P,C4,1*%
%TO.N,GND*%
X62133956Y-88000000D03*
%TO.P,C4,2*%
%TO.N,-12V*%
X57133956Y-88000000D03*
%TD*%
%TO.P,R5,1*%
%TO.N,GND*%
X53323956Y-54580000D03*
%TO.P,R5,2*%
%TO.N,Net-(R4-Pad1)*%
X53323956Y-44420000D03*
%TD*%
D17*
%TO.P,J4,1,Pin_1*%
%TO.N,Net-(J4-Pin_1)*%
X53039623Y-166500000D03*
%TD*%
D14*
%TO.P,RV2,1,1*%
%TO.N,GND*%
X68733956Y-85412500D03*
D15*
%TO.P,RV2,2,2*%
%TO.N,Net-(A1-A3)*%
X71233956Y-85412500D03*
%TO.P,RV2,3,3*%
%TO.N,5V*%
X73733956Y-85412500D03*
D16*
%TO.P,RV2,MP*%
%TO.N,N/C*%
X66833956Y-78412500D03*
X75633956Y-78412500D03*
%TD*%
D12*
%TO.P,R1,1*%
%TO.N,Net-(A1-A5)*%
X42293956Y-53000000D03*
%TO.P,R1,2*%
%TO.N,5V*%
X32133956Y-53000000D03*
%TD*%
D14*
%TO.P,RV3,1,1*%
%TO.N,GND*%
X68733956Y-107775000D03*
D15*
%TO.P,RV3,2,2*%
%TO.N,Net-(A1-A6)*%
X71233956Y-107775000D03*
%TO.P,RV3,3,3*%
%TO.N,5V*%
X73733956Y-107775000D03*
D16*
%TO.P,RV3,MP*%
%TO.N,N/C*%
X66833956Y-100775000D03*
X75633956Y-100775000D03*
%TD*%
D12*
%TO.P,R13,1*%
%TO.N,Net-(J5-Pin_3)*%
X66213956Y-91000000D03*
%TO.P,R13,2*%
%TO.N,Net-(U2D--)*%
X56053956Y-91000000D03*
%TD*%
D13*
%TO.P,SW1,1,C*%
%TO.N,GND*%
X34633956Y-106500000D03*
%TO.P,SW1,2,B*%
%TO.N,Net-(A1-D10)*%
X34633956Y-102000000D03*
%TO.P,SW1,3,A*%
%TO.N,unconnected-(SW1-A-Pad3)*%
X34633956Y-97500000D03*
%TD*%
D21*
%TO.P,U1,1,OUT*%
%TO.N,Net-(U1-OUT)*%
X41746958Y-72356428D03*
D10*
%TO.P,U1,2,GND*%
%TO.N,GND*%
X41746958Y-69816428D03*
%TO.P,U1,3,SCL*%
%TO.N,Net-(A1-A5)*%
X41746958Y-67276428D03*
%TO.P,U1,4,SDA*%
%TO.N,Net-(A1-A4)*%
X41746958Y-64736428D03*
%TO.P,U1,5,VCC*%
%TO.N,5V*%
X41746958Y-62196428D03*
%TO.P,U1,6,GND*%
%TO.N,GND*%
X41746958Y-59656428D03*
%TD*%
D14*
%TO.P,RV5,1,1*%
%TO.N,Net-(R10-Pad1)*%
X50433956Y-130137500D03*
D15*
%TO.P,RV5,2,2*%
%TO.N,GND*%
X52933956Y-130137500D03*
%TO.P,RV5,3,3*%
%TO.N,unconnected-(RV5-Pad3)*%
X55433956Y-130137500D03*
D16*
%TO.P,RV5,MP*%
%TO.N,N/C*%
X48533956Y-123137500D03*
X57333956Y-123137500D03*
%TD*%
D12*
%TO.P,C6,1*%
%TO.N,Net-(J3-Pin_1)*%
X37633956Y-83000000D03*
%TO.P,C6,2*%
%TO.N,Net-(U2A-+)*%
X42633956Y-83000000D03*
%TD*%
D21*
%TO.P,J5,1,Pin_1*%
%TO.N,Net-(J3-Pin_1)*%
X50408956Y-176475000D03*
D10*
%TO.P,J5,2,Pin_2*%
%TO.N,Net-(J4-Pin_1)*%
X52948956Y-176475000D03*
%TO.P,J5,3,Pin_3*%
%TO.N,Net-(J5-Pin_3)*%
X55488956Y-176475000D03*
%TD*%
D22*
%TO.P,A1,1,D1/TX*%
%TO.N,unconnected-(A1-D1{slash}TX-Pad1)*%
X60633956Y-82500000D03*
D23*
%TO.P,A1,2,D0/RX*%
%TO.N,unconnected-(A1-D0{slash}RX-Pad2)*%
X60633956Y-79960000D03*
%TO.P,A1,3,~{RESET}*%
%TO.N,unconnected-(A1-~{RESET}-Pad3)*%
X60633956Y-77420000D03*
%TO.P,A1,4,GND*%
%TO.N,GND*%
X60633956Y-74880000D03*
%TO.P,A1,5,D2*%
%TO.N,unconnected-(A1-D2-Pad5)*%
X60633956Y-72340000D03*
%TO.P,A1,6,D3*%
%TO.N,unconnected-(A1-D3-Pad6)*%
X60633956Y-69800000D03*
%TO.P,A1,7,D4*%
%TO.N,unconnected-(A1-D4-Pad7)*%
X60633956Y-67260000D03*
%TO.P,A1,8,D5*%
%TO.N,unconnected-(A1-D5-Pad8)*%
X60633956Y-64720000D03*
%TO.P,A1,9,D6*%
%TO.N,unconnected-(A1-D6-Pad9)*%
X60633956Y-62180000D03*
%TO.P,A1,10,D7*%
%TO.N,unconnected-(A1-D7-Pad10)*%
X60633956Y-59640000D03*
%TO.P,A1,11,D8*%
%TO.N,Net-(A1-D8)*%
X60633956Y-57100000D03*
%TO.P,A1,12,D9*%
%TO.N,Net-(A1-D9)*%
X60633956Y-54560000D03*
%TO.P,A1,13,D10*%
%TO.N,Net-(A1-D10)*%
X60633956Y-52020000D03*
%TO.P,A1,14,D11*%
%TO.N,unconnected-(A1-D11-Pad14)*%
X60633956Y-49480000D03*
%TO.P,A1,15,D12*%
%TO.N,unconnected-(A1-D12-Pad15)*%
X60633956Y-46940000D03*
%TO.P,A1,16,D13*%
%TO.N,unconnected-(A1-D13-Pad16)*%
X45393956Y-46940000D03*
%TO.P,A1,17,3V3*%
%TO.N,unconnected-(A1-3V3-Pad17)*%
X45393956Y-49480000D03*
%TO.P,A1,18,AREF*%
%TO.N,Net-(A1-AREF)*%
X45393956Y-52020000D03*
%TO.P,A1,19,A0*%
%TO.N,Net-(A1-A0)*%
X45393956Y-54560000D03*
%TO.P,A1,20,A1*%
%TO.N,Net-(A1-A1)*%
X45393956Y-57100000D03*
%TO.P,A1,21,A2*%
%TO.N,Net-(A1-A2)*%
X45393956Y-59640000D03*
%TO.P,A1,22,A3*%
%TO.N,Net-(A1-A3)*%
X45393956Y-62180000D03*
%TO.P,A1,23,A4*%
%TO.N,Net-(A1-A4)*%
X45393956Y-64720000D03*
%TO.P,A1,24,A5*%
%TO.N,Net-(A1-A5)*%
X45393956Y-67260000D03*
%TO.P,A1,25,A6*%
%TO.N,Net-(A1-A6)*%
X45393956Y-69800000D03*
%TO.P,A1,26,A7*%
%TO.N,Net-(A1-A7)*%
X45393956Y-72340000D03*
%TO.P,A1,27,+5V*%
%TO.N,5V*%
X45393956Y-74880000D03*
%TO.P,A1,28,~{RESET}*%
%TO.N,unconnected-(A1-~{RESET}-Pad28)*%
X45393956Y-77420000D03*
%TO.P,A1,29,GND*%
%TO.N,GND*%
X45393956Y-79960000D03*
%TO.P,A1,30,VIN*%
%TO.N,unconnected-(A1-VIN-Pad30)*%
X45393956Y-82500000D03*
%TD*%
D14*
%TO.P,RV1,1,1*%
%TO.N,GND*%
X68733956Y-63050000D03*
D15*
%TO.P,RV1,2,2*%
%TO.N,Net-(A1-A2)*%
X71233956Y-63050000D03*
%TO.P,RV1,3,3*%
%TO.N,5V*%
X73733956Y-63050000D03*
D16*
%TO.P,RV1,MP*%
%TO.N,N/C*%
X66833956Y-56050000D03*
X75633956Y-56050000D03*
%TD*%
D14*
%TO.P,RV9,1,1*%
%TO.N,Net-(U2A--)*%
X68733956Y-152500000D03*
D15*
%TO.P,RV9,2,2*%
%TO.N,Net-(U2D-+)*%
X71233956Y-152500000D03*
%TO.P,RV9,3,3*%
%TO.N,Net-(RV8-Pad2)*%
X73733956Y-152500000D03*
D16*
%TO.P,RV9,MP*%
%TO.N,N/C*%
X66833956Y-145500000D03*
X75633956Y-145500000D03*
%TD*%
D17*
%TO.P,J3,1,Pin_1*%
%TO.N,Net-(J3-Pin_1)*%
X34633956Y-166500000D03*
%TD*%
%TO.N,5V*%
D24*
X73768956Y-36040000D02*
X72378956Y-34650000D01*
X32012610Y-31950000D02*
X30938956Y-33023654D01*
X72378956Y-34650000D02*
X72378956Y-33023654D01*
X71305302Y-31950000D02*
X32012610Y-31950000D01*
X72378956Y-33023654D02*
X71305302Y-31950000D01*
X30938956Y-33023654D02*
X30938956Y-36874744D01*
X30938956Y-36874744D02*
X31564212Y-37500000D01*
X31564212Y-37500000D02*
X35708956Y-37500000D01*
X35708956Y-37500000D02*
X37168956Y-36040000D01*
%TO.N,12V*%
X68688956Y-36040000D02*
X67538956Y-34890000D01*
X67538956Y-34890000D02*
X37645302Y-34890000D01*
%TO.N,GND*%
X34628956Y-33500000D02*
X35778956Y-32350000D01*
X35778956Y-32350000D02*
X70078956Y-32350000D01*
X70078956Y-32350000D02*
X71228956Y-33500000D01*
%TO.N,12V*%
X32088956Y-36040000D02*
X33238956Y-34890000D01*
X33238956Y-34890000D02*
X37645302Y-34890000D01*
X44293956Y-41538654D02*
X44293956Y-75335635D01*
X48133956Y-76000000D02*
X49513956Y-77380000D01*
X37645302Y-34890000D02*
X44293956Y-41538654D01*
X44958321Y-76000000D02*
X48133956Y-76000000D01*
X44293956Y-75335635D02*
X44958321Y-76000000D01*
%TO.N,5V*%
X37168956Y-36040000D02*
X39633956Y-38505000D01*
X39633956Y-38505000D02*
X39633956Y-42500000D01*
%TO.N,Net-(J4-Pin_1)*%
X53039623Y-166500000D02*
X53039623Y-176384333D01*
%TO.N,Net-(U2A--)*%
X46995106Y-83561000D02*
X49970006Y-83561000D01*
%TO.N,Net-(A1-A6)*%
X48034956Y-41300300D02*
X48034956Y-60106100D01*
%TO.N,GND*%
X68733956Y-130037500D02*
X68633956Y-130137500D01*
%TO.N,Net-(J3-Pin_1)*%
X40433956Y-166500000D02*
X50408956Y-176475000D01*
%TO.N,Net-(A1-A1)*%
X46831956Y-40802000D02*
X46831956Y-55662000D01*
%TO.N,GND*%
X51416956Y-89377000D02*
X51416956Y-56487000D01*
%TO.N,Net-(A1-A1)*%
X77434956Y-87058131D02*
X77434956Y-53460131D01*
%TO.N,Net-(R8-Pad1)*%
X48412956Y-81576050D02*
X40734956Y-89254050D01*
X37691006Y-94500000D02*
X29633956Y-94500000D01*
%TO.N,Net-(J3-Pin_1)*%
X34633956Y-166500000D02*
X26101000Y-157967044D01*
%TO.N,Net-(A1-A3)*%
X61467856Y-38901000D02*
X70032956Y-47466100D01*
%TO.N,Net-(J3-Pin_1)*%
X33076906Y-83000000D02*
X37633956Y-83000000D01*
%TO.N,Net-(A1-A3)*%
X49867156Y-38901000D02*
X61467856Y-38901000D01*
%TO.N,Net-(RV8-Pad2)*%
X72532956Y-153701000D02*
X54240623Y-153701000D01*
%TO.N,Net-(A1-A2)*%
X45393956Y-59640000D02*
X47232956Y-57801000D01*
%TO.N,Net-(A1-A6)*%
X47633956Y-60507100D02*
X47633956Y-67560000D01*
%TO.N,Net-(A1-D10)*%
X50250006Y-92101000D02*
X54852957Y-87498049D01*
%TO.N,Net-(R8-Pad1)*%
X49057906Y-78481000D02*
X48412956Y-79125950D01*
%TO.N,Net-(U2A--)*%
X41135956Y-91622150D02*
X41135956Y-89420150D01*
%TO.N,Net-(R8-Pad1)*%
X49970006Y-76279000D02*
X50614956Y-76923950D01*
%TO.N,Net-(U2A--)*%
X51015956Y-82515050D02*
X51015956Y-73802000D01*
%TO.N,Net-(R8-Pad1)*%
X48980056Y-76279000D02*
X49970006Y-76279000D01*
%TO.N,Net-(A1-D10)*%
X58156906Y-52020000D02*
X60633956Y-52020000D01*
%TO.N,Net-(RV8-Pad2)*%
X73733956Y-152500000D02*
X72532956Y-153701000D01*
%TO.N,Net-(R8-Pad1)*%
X48133956Y-61000000D02*
X48133956Y-75432900D01*
%TO.N,Net-(U2A--)*%
X26903000Y-138000000D02*
X26903000Y-97798056D01*
%TO.N,Net-(R8-Pad1)*%
X26502000Y-138281704D02*
X26502000Y-97631956D01*
%TO.N,Net-(J4-Pin_1)*%
X53039623Y-176384333D02*
X52948956Y-176475000D01*
%TO.N,Net-(U2A--)*%
X37133956Y-152500000D02*
X37133956Y-148230956D01*
%TO.N,Net-(J3-Pin_1)*%
X26101000Y-89975906D02*
X33076906Y-83000000D01*
%TO.N,GND*%
X68733956Y-107775000D02*
X68733956Y-130037500D01*
%TO.N,Net-(A1-A1)*%
X62073825Y-38099000D02*
X49534956Y-38099000D01*
%TO.N,Net-(R8-Pad1)*%
X40734956Y-91456050D02*
X37691006Y-94500000D01*
X50614956Y-77836050D02*
X49970006Y-78481000D01*
%TO.N,Net-(A1-A2)*%
X71233956Y-48100000D02*
X71233956Y-63050000D01*
%TO.N,-12V*%
X56032956Y-78481000D02*
X57133956Y-77380000D01*
%TO.N,Net-(A1-A1)*%
X46831956Y-55662000D02*
X45393956Y-57100000D01*
%TO.N,Net-(A1-A2)*%
X61633956Y-38500000D02*
X71233956Y-48100000D01*
%TO.N,Net-(U2C--)*%
X51634956Y-123499000D02*
X59234956Y-115899000D01*
%TO.N,Net-(A1-A1)*%
X77434956Y-53460131D02*
X62073825Y-38099000D01*
%TO.N,Net-(U2A--)*%
X37133956Y-148230956D02*
X26903000Y-138000000D01*
%TO.N,Net-(A1-A6)*%
X71233956Y-94100000D02*
X64566856Y-87432900D01*
%TO.N,-12V*%
X56032956Y-86899000D02*
X56032956Y-78481000D01*
%TO.N,Net-(A1-A6)*%
X47633956Y-67560000D02*
X45393956Y-69800000D01*
%TO.N,Net-(U2A--)*%
X51015956Y-73802000D02*
X49513956Y-72300000D01*
%TO.N,Net-(A1-A6)*%
X61301756Y-39302000D02*
X50033256Y-39302000D01*
%TO.N,Net-(A1-A0)*%
X39633956Y-91000000D02*
X39633956Y-50120000D01*
%TO.N,-12V*%
X58633956Y-56060000D02*
X58633956Y-75880000D01*
%TO.N,Net-(A1-A1)*%
X71133956Y-130137500D02*
X72434956Y-128836500D01*
%TO.N,Net-(A1-A3)*%
X47633956Y-41134200D02*
X49867156Y-38901000D01*
%TO.N,Net-(U2C--)*%
X59234956Y-115899000D02*
X59234956Y-84561000D01*
%TO.N,Net-(A1-A3)*%
X45393956Y-62180000D02*
X47633956Y-59940000D01*
%TO.N,Net-(A1-A6)*%
X50033256Y-39302000D02*
X48034956Y-41300300D01*
%TO.N,Net-(A1-D10)*%
X34633956Y-102000000D02*
X44532956Y-92101000D01*
%TO.N,Net-(U2A--)*%
X26903000Y-97798056D02*
X29800056Y-94901000D01*
%TO.N,Net-(R8-Pad1)*%
X29633956Y-94500000D02*
X26502000Y-97631956D01*
%TO.N,-12V*%
X57133956Y-88000000D02*
X56032956Y-86899000D01*
%TO.N,Net-(U2C-+)*%
X34733956Y-130137500D02*
X36809956Y-128061500D01*
%TO.N,Net-(J5-Pin_3)*%
X71233956Y-166500000D02*
X65463956Y-166500000D01*
%TO.N,Net-(U2C-+)*%
X44569064Y-94000000D02*
X58133956Y-94000000D01*
%TO.N,Net-(A1-A3)*%
X70032956Y-47466100D02*
X70032956Y-84211500D01*
%TO.N,Net-(U2C--)*%
X59234956Y-84561000D02*
X57133956Y-82460000D01*
%TO.N,Net-(U2C-+)*%
X36809956Y-101759108D02*
X44569064Y-94000000D01*
%TO.N,Net-(U2D--)*%
X55253957Y-90200001D02*
X55253957Y-74179999D01*
%TO.N,GND*%
X54134956Y-131338500D02*
X52933956Y-130137500D01*
%TO.N,Net-(U2C-+)*%
X36809956Y-128061500D02*
X36809956Y-101759108D01*
%TO.N,Net-(U2C--)*%
X50539623Y-152500000D02*
X51634956Y-151404667D01*
%TO.N,Net-(U2A--)*%
X49970006Y-83561000D02*
X51015956Y-82515050D01*
X29800056Y-94901000D02*
X37857106Y-94901000D01*
%TO.N,Net-(R8-Pad1)*%
X50594956Y-45521000D02*
X50594956Y-58539000D01*
%TO.N,Net-(J3-Pin_1)*%
X26101000Y-157967044D02*
X26101000Y-89975906D01*
%TO.N,GND*%
X68633956Y-130137500D02*
X67432956Y-131338500D01*
X51416956Y-56487000D02*
X53323956Y-54580000D01*
%TO.N,Net-(R8-Pad1)*%
X50594956Y-58539000D02*
X48133956Y-61000000D01*
X49970006Y-78481000D02*
X49057906Y-78481000D01*
%TO.N,Net-(A1-A6)*%
X64566856Y-87432900D02*
X64566856Y-42567100D01*
%TO.N,-12V*%
X57153956Y-54580000D02*
X58633956Y-56060000D01*
%TO.N,Net-(A1-A6)*%
X64566856Y-42567100D02*
X61301756Y-39302000D01*
%TO.N,Net-(R8-Pad1)*%
X40734956Y-89254050D02*
X40734956Y-91456050D01*
%TO.N,GND*%
X41746958Y-59656428D02*
X43394956Y-58008430D01*
%TO.N,Net-(R8-Pad1)*%
X34633956Y-146413660D02*
X26502000Y-138281704D01*
%TO.N,Net-(A1-A1)*%
X72434956Y-92058131D02*
X77434956Y-87058131D01*
%TO.N,Net-(J3-Pin_1)*%
X34633956Y-166500000D02*
X40433956Y-166500000D01*
%TO.N,Net-(A1-D10)*%
X54852957Y-87498049D02*
X54852957Y-55323949D01*
%TO.N,Net-(R8-Pad1)*%
X48133956Y-75432900D02*
X48980056Y-76279000D01*
%TO.N,Net-(U2D--)*%
X56053956Y-91000000D02*
X55253957Y-90200001D01*
%TO.N,Net-(U2A--)*%
X37857106Y-94901000D02*
X41135956Y-91622150D01*
%TO.N,Net-(A1-A3)*%
X47633956Y-59940000D02*
X47633956Y-41134200D01*
%TO.N,GND*%
X67432956Y-131338500D02*
X54134956Y-131338500D01*
%TO.N,-12V*%
X58633956Y-75880000D02*
X57133956Y-77380000D01*
%TO.N,Net-(A1-A1)*%
X49534956Y-38099000D02*
X46831956Y-40802000D01*
X72434956Y-128836500D02*
X72434956Y-92058131D01*
%TO.N,Net-(U2C--)*%
X51634956Y-151404667D02*
X51634956Y-123499000D01*
%TO.N,Net-(U2D--)*%
X55253957Y-74179999D02*
X57133956Y-72300000D01*
%TO.N,Net-(A1-A2)*%
X47232956Y-40968100D02*
X49701056Y-38500000D01*
%TO.N,Net-(U2A--)*%
X41135956Y-89420150D02*
X46995106Y-83561000D01*
%TO.N,GND*%
X43394956Y-58008430D02*
X43394956Y-45644956D01*
%TO.N,Net-(R8-Pad1)*%
X34633956Y-152500000D02*
X34633956Y-146413660D01*
X48412956Y-79125950D02*
X48412956Y-81576050D01*
X50614956Y-76923950D02*
X50614956Y-77836050D01*
%TO.N,GND*%
X43394956Y-45644956D02*
X42250000Y-44500000D01*
%TO.N,Net-(A1-A6)*%
X71233956Y-107775000D02*
X71233956Y-94100000D01*
%TO.N,Net-(A1-D10)*%
X54852957Y-55323949D02*
X58156906Y-52020000D01*
%TO.N,Net-(A1-A6)*%
X48034956Y-60106100D02*
X47633956Y-60507100D01*
%TO.N,Net-(R8-Pad1)*%
X49493956Y-44420000D02*
X50594956Y-45521000D01*
%TO.N,Net-(A1-A2)*%
X49701056Y-38500000D02*
X61633956Y-38500000D01*
%TO.N,GND*%
X49793956Y-91000000D02*
X51416956Y-89377000D01*
%TO.N,Net-(RV8-Pad2)*%
X54240623Y-153701000D02*
X53039623Y-152500000D01*
%TO.N,Net-(A1-A3)*%
X70032956Y-84211500D02*
X71233956Y-85412500D01*
%TO.N,Net-(A1-D10)*%
X44532956Y-92101000D02*
X50250006Y-92101000D01*
%TO.N,Net-(A1-A2)*%
X47232956Y-57801000D02*
X47232956Y-40968100D01*
%TO.N,Net-(J5-Pin_3)*%
X65463956Y-166500000D02*
X55488956Y-176475000D01*
%TD*%
M02*
