M48
; DRILL file {KiCad 9.0.6} date 2026-01-10T02:09:07+1100
; FORMAT={-:-/ absolute / metric / decimal}
; #@! TF.CreationDate,2026-01-10T02:09:07+11:00
; #@! TF.GenerationSoftware,Kicad,Pcbnew,9.0.6
; #@! TF.FileFunction,Plated,1,2,PTH
FMAT,2
METRIC
; #@! TA.AperFunction,Plated,PTH,ComponentDrill
T1C0.800
; #@! TA.AperFunction,Plated,PTH,ComponentDrill
T2C1.000
; #@! TA.AperFunction,Plated,PTH,ComponentDrill
T3C6.000
%
G90
G05
T1
X52.0Y-91.26
X52.0Y-101.42
X52.0Y-103.92
X52.0Y-114.08
X52.087Y-133.004
X55.5Y-91.34
X55.5Y-101.5
X55.5Y-103.92
X55.5Y-114.08
X58.038Y-61.811
X58.888Y-95.785
X58.888Y-98.325
X58.888Y-100.865
X58.888Y-103.405
X58.888Y-105.945
X58.888Y-108.485
X58.888Y-111.025
X58.888Y-113.565
X62.247Y-133.004
X63.038Y-61.811
X66.508Y-95.785
X66.508Y-98.325
X66.508Y-100.865
X66.508Y-103.405
X66.508Y-105.945
X66.508Y-108.485
X66.508Y-111.025
X66.508Y-113.565
X70.052Y-95.706
X70.052Y-100.0
X70.103Y-108.013
X70.18Y-112.494
X80.212Y-95.706
X80.212Y-100.0
X80.263Y-108.013
X80.34Y-112.494
X83.42Y-112.554
X83.5Y-108.0
X86.516Y-61.804
X87.269Y-132.964
X89.0Y-94.69
X89.0Y-97.23
X89.0Y-99.77
X89.0Y-102.31
X91.516Y-61.804
X93.58Y-112.554
X93.66Y-108.0
X96.62Y-94.69
X96.62Y-97.23
X96.62Y-99.77
X96.62Y-102.31
X97.429Y-132.964
T2
X58.01Y-70.0
X60.545Y-86.065
X63.085Y-86.065
X63.09Y-70.0
X65.625Y-86.065
X67.811Y-52.329
X67.811Y-54.869
X67.811Y-57.409
X68.09Y-70.0
X70.351Y-52.329
X70.351Y-54.869
X70.351Y-57.409
X79.198Y-52.329
X79.198Y-54.869
X79.198Y-57.409
X81.5Y-70.0
X81.738Y-52.329
X81.738Y-54.869
X81.738Y-57.409
X83.96Y-86.065
X86.5Y-86.065
X86.58Y-70.0
X89.04Y-86.065
X91.58Y-70.0
T3
X56.091Y-121.52
X68.5Y-121.528
X68.711Y-140.022
X80.837Y-140.032
X80.909Y-121.539
X93.399Y-121.506
M30
