%TF.GenerationSoftware,KiCad,Pcbnew,9.0.6*%
%TF.CreationDate,2026-01-05T02:57:40+11:00*%
%TF.ProjectId,voltage-controlled-amplifier,766f6c74-6167-4652-9d63-6f6e74726f6c,rev?*%
%TF.SameCoordinates,Original*%
%TF.FileFunction,Copper,L1,Top*%
%TF.FilePolarity,Positive*%
%FSLAX46Y46*%
G04 Gerber Fmt 4.6, Leading zero omitted, Abs format (unit mm)*
G04 Created by KiCad (PCBNEW 9.0.6) date 2026-01-05 02:57:40*
%MOMM*%
%LPD*%
G01*
G04 APERTURE LIST*
G04 Aperture macros list*
%AMRoundRect*
0 Rectangle with rounded corners*
0 $1 Rounding radius*
0 $2 $3 $4 $5 $6 $7 $8 $9 X,Y pos of 4 corners*
0 Add a 4 corners polygon primitive as box body*
4,1,4,$2,$3,$4,$5,$6,$7,$8,$9,$2,$3,0*
0 Add four circle primitives for the rounded corners*
1,1,$1+$1,$2,$3*
1,1,$1+$1,$4,$5*
1,1,$1+$1,$6,$7*
1,1,$1+$1,$8,$9*
0 Add four rect primitives between the rounded corners*
20,1,$1+$1,$2,$3,$4,$5,0*
20,1,$1+$1,$4,$5,$6,$7,0*
20,1,$1+$1,$6,$7,$8,$9,0*
20,1,$1+$1,$8,$9,$2,$3,0*%
G04 Aperture macros list end*
%TA.AperFunction,ComponentPad*%
%ADD10C,1.600000*%
%TD*%
%TA.AperFunction,ComponentPad*%
%ADD11C,8.000000*%
%TD*%
%TA.AperFunction,ComponentPad*%
%ADD12RoundRect,0.250000X0.600000X-0.600000X0.600000X0.600000X-0.600000X0.600000X-0.600000X-0.600000X0*%
%TD*%
%TA.AperFunction,ComponentPad*%
%ADD13C,1.700000*%
%TD*%
%TA.AperFunction,ComponentPad*%
%ADD14R,1.700000X1.700000*%
%TD*%
%TA.AperFunction,ComponentPad*%
%ADD15RoundRect,0.250000X-0.550000X-0.550000X0.550000X-0.550000X0.550000X0.550000X-0.550000X0.550000X0*%
%TD*%
%TA.AperFunction,Conductor*%
%ADD16C,0.200000*%
%TD*%
G04 APERTURE END LIST*
D10*
%TO.P,R12,2*%
%TO.N,Net-(J10-Pin_1)*%
X91849387Y-109289227D03*
%TO.P,R12,1*%
%TO.N,Net-(R11-Pad1)*%
X81689387Y-109289227D03*
%TD*%
%TO.P,R11,1*%
%TO.N,Net-(R11-Pad1)*%
X81690000Y-106247581D03*
%TO.P,R11,2*%
%TO.N,-12V*%
X91850000Y-106247581D03*
%TD*%
%TO.P,R9,2*%
%TO.N,Net-(R9-Pad2)*%
X81690000Y-103232012D03*
%TO.P,R9,1*%
%TO.N,GND*%
X91850000Y-103232012D03*
%TD*%
%TO.P,C2,2*%
%TO.N,12V*%
X80500000Y-51000000D03*
%TO.P,C2,1*%
%TO.N,GND*%
X85500000Y-51000000D03*
%TD*%
%TO.P,R10,2*%
%TO.N,Net-(J9-Pin_1)*%
X91850000Y-94190000D03*
%TO.P,R10,1*%
%TO.N,Net-(R10-Pad1)*%
X81690000Y-94190000D03*
%TD*%
%TO.P,R3,2*%
%TO.N,Net-(J5-Pin_1)*%
X57530000Y-94190000D03*
%TO.P,R3,1*%
%TO.N,Net-(R3-Pad1)*%
X67690000Y-94190000D03*
%TD*%
D11*
%TO.P,J8,1,Pin_1*%
%TO.N,Net-(J8-Pin_1)*%
X81500000Y-122000000D03*
%TD*%
D10*
%TO.P,R7,1*%
%TO.N,12V*%
X91850000Y-97232012D03*
%TO.P,R7,2*%
%TO.N,Net-(U1A-DIODE_BIAS)*%
X81690000Y-97232012D03*
%TD*%
D11*
%TO.P,J10,1,Pin_1*%
%TO.N,Net-(J10-Pin_1)*%
X81500000Y-140000000D03*
%TD*%
D12*
%TO.P,J1,1,Pin_1*%
%TO.N,12V*%
X84420000Y-59040000D03*
D13*
%TO.P,J1,2,Pin_2*%
%TO.N,-12V*%
X84420000Y-56500000D03*
%TO.P,J1,3,Pin_3*%
%TO.N,GND*%
X86960000Y-59040000D03*
%TO.P,J1,4,Pin_4*%
X86960000Y-56500000D03*
%TO.P,J1,5,Pin_5*%
%TO.N,5V*%
X89500000Y-59040000D03*
%TO.P,J1,6,Pin_6*%
%TO.N,unconnected-(J1-Pin_6-Pad6)*%
X89500000Y-56500000D03*
%TD*%
D10*
%TO.P,R5,1*%
%TO.N,Net-(R5-Pad1)*%
X57530000Y-106190000D03*
%TO.P,R5,2*%
%TO.N,-12V*%
X67690000Y-106190000D03*
%TD*%
%TO.P,C1,1*%
%TO.N,-12V*%
X64500000Y-51000000D03*
%TO.P,C1,2*%
%TO.N,GND*%
X69500000Y-51000000D03*
%TD*%
D14*
%TO.P,RV2,1,1*%
%TO.N,Net-(J7-Pin_1)*%
X83645000Y-86065000D03*
D13*
%TO.P,RV2,2,2*%
%TO.N,GND*%
X86185000Y-86065000D03*
%TO.P,RV2,3,3*%
%TO.N,Net-(J7-Pin_3)*%
X88725000Y-86065000D03*
%TD*%
D10*
%TO.P,R6,1*%
%TO.N,Net-(R5-Pad1)*%
X67690000Y-109190000D03*
%TO.P,R6,2*%
%TO.N,Net-(J6-Pin_1)*%
X57530000Y-109190000D03*
%TD*%
D11*
%TO.P,J9,1,Pin_1*%
%TO.N,Net-(J9-Pin_1)*%
X94000000Y-122000000D03*
%TD*%
%TO.P,J4,1,Pin_1*%
%TO.N,Net-(J4-Pin_1)*%
X69000000Y-122000000D03*
%TD*%
D14*
%TO.P,J7,1,Pin_1*%
%TO.N,Net-(J7-Pin_1)*%
X81099291Y-65247247D03*
D13*
%TO.P,J7,2,Pin_2*%
%TO.N,GND*%
X86179291Y-65247247D03*
%TO.P,J7,3,Pin_3*%
%TO.N,Net-(J7-Pin_3)*%
X91179291Y-65247247D03*
%TD*%
D12*
%TO.P,J2,1,Pin_1*%
%TO.N,12V*%
X60420000Y-59040000D03*
D13*
%TO.P,J2,2,Pin_2*%
%TO.N,-12V*%
X60420000Y-56500000D03*
%TO.P,J2,3,Pin_3*%
%TO.N,GND*%
X62960000Y-59040000D03*
%TO.P,J2,4,Pin_4*%
X62960000Y-56500000D03*
%TO.P,J2,5,Pin_5*%
%TO.N,5V*%
X65500000Y-59040000D03*
%TO.P,J2,6,Pin_6*%
%TO.N,unconnected-(J2-Pin_6-Pad6)*%
X65500000Y-56500000D03*
%TD*%
D10*
%TO.P,R2,1*%
%TO.N,12V*%
X57530000Y-97190000D03*
%TO.P,R2,2*%
%TO.N,Net-(U1C-DIODE_BIAS)*%
X67690000Y-97190000D03*
%TD*%
D11*
%TO.P,J5,1,Pin_1*%
%TO.N,Net-(J5-Pin_1)*%
X56500000Y-121524938D03*
%TD*%
D14*
%TO.P,J3,1,Pin_1*%
%TO.N,Net-(J3-Pin_1)*%
X58009532Y-65231407D03*
D13*
%TO.P,J3,2,Pin_2*%
%TO.N,GND*%
X63089532Y-65231407D03*
%TO.P,J3,3,Pin_3*%
%TO.N,Net-(J3-Pin_3)*%
X68089532Y-65231407D03*
%TD*%
D10*
%TO.P,R1,1*%
%TO.N,Net-(J3-Pin_1)*%
X67690000Y-100190000D03*
%TO.P,R1,2*%
%TO.N,Net-(J4-Pin_1)*%
X57530000Y-100190000D03*
%TD*%
D11*
%TO.P,J6,1,Pin_1*%
%TO.N,Net-(J6-Pin_1)*%
X69000000Y-140000000D03*
%TD*%
D14*
%TO.P,RV1,1,1*%
%TO.N,Net-(J3-Pin_1)*%
X60545000Y-86065000D03*
D13*
%TO.P,RV1,2,2*%
%TO.N,GND*%
X63085000Y-86065000D03*
%TO.P,RV1,3,3*%
%TO.N,Net-(J3-Pin_3)*%
X65625000Y-86065000D03*
%TD*%
D10*
%TO.P,R8,1*%
%TO.N,Net-(J7-Pin_1)*%
X81690000Y-100232012D03*
%TO.P,R8,2*%
%TO.N,Net-(J8-Pin_1)*%
X91850000Y-100232012D03*
%TD*%
%TO.P,R4,1*%
%TO.N,GND*%
X57530000Y-103190000D03*
%TO.P,R4,2*%
%TO.N,Net-(R4-Pad2)*%
X67690000Y-103190000D03*
%TD*%
D15*
%TO.P,U1,1*%
%TO.N,Net-(R3-Pad1)*%
X70880000Y-94300000D03*
D10*
%TO.P,U1,2,DIODE_BIAS*%
%TO.N,Net-(U1C-DIODE_BIAS)*%
X70880000Y-96840000D03*
%TO.P,U1,3,+*%
%TO.N,Net-(J3-Pin_1)*%
X70880000Y-99380000D03*
%TO.P,U1,4,-*%
%TO.N,Net-(J3-Pin_3)*%
X70880000Y-101920000D03*
%TO.P,U1,5*%
%TO.N,Net-(R4-Pad2)*%
X70880000Y-104460000D03*
%TO.P,U1,6,V-*%
%TO.N,-12V*%
X70880000Y-107000000D03*
%TO.P,U1,7*%
%TO.N,Net-(R4-Pad2)*%
X70880000Y-109540000D03*
%TO.P,U1,8*%
%TO.N,Net-(R5-Pad1)*%
X70880000Y-112080000D03*
%TO.P,U1,9*%
%TO.N,Net-(R11-Pad1)*%
X78500000Y-112080000D03*
%TO.P,U1,10*%
%TO.N,Net-(R9-Pad2)*%
X78500000Y-109540000D03*
%TO.P,U1,11,V+*%
%TO.N,12V*%
X78500000Y-107000000D03*
%TO.P,U1,12*%
%TO.N,Net-(R9-Pad2)*%
X78500000Y-104460000D03*
%TO.P,U1,13,-*%
%TO.N,Net-(J7-Pin_3)*%
X78500000Y-101920000D03*
%TO.P,U1,14,+*%
%TO.N,Net-(J7-Pin_1)*%
X78500000Y-99380000D03*
%TO.P,U1,15,DIODE_BIAS*%
%TO.N,Net-(U1A-DIODE_BIAS)*%
X78500000Y-96840000D03*
%TO.P,U1,16*%
%TO.N,Net-(R10-Pad1)*%
X78500000Y-94300000D03*
%TD*%
D16*
%TO.N,Net-(J4-Pin_1)*%
X57530000Y-100190000D02*
X56429000Y-101291000D01*
X56429000Y-109646050D02*
X68782950Y-122000000D01*
X56429000Y-101291000D02*
X56429000Y-109646050D01*
X68782950Y-122000000D02*
X69000000Y-122000000D01*
%TO.N,Net-(J5-Pin_1)*%
X57530000Y-94190000D02*
X58631000Y-95291000D01*
X57073950Y-99089000D02*
X52500000Y-103662950D01*
X52500000Y-103662950D02*
X52500000Y-117524938D01*
X58631000Y-95291000D02*
X58631000Y-97958000D01*
X58631000Y-97958000D02*
X57500000Y-99089000D01*
X57500000Y-99089000D02*
X57073950Y-99089000D01*
X52500000Y-117524938D02*
X56500000Y-121524938D01*
%TO.N,GND*%
X63085000Y-86065000D02*
X63085000Y-97635000D01*
X63085000Y-97635000D02*
X57530000Y-103190000D01*
%TO.N,12V*%
X60420000Y-59040000D02*
X56429000Y-63031000D01*
X56429000Y-63031000D02*
X56429000Y-96089000D01*
X56429000Y-96089000D02*
X57530000Y-97190000D01*
%TO.N,Net-(R5-Pad1)*%
X67690000Y-109190000D02*
X70580000Y-112080000D01*
X70580000Y-112080000D02*
X70880000Y-112080000D01*
%TO.N,Net-(R4-Pad2)*%
X70880000Y-104460000D02*
X68960000Y-104460000D01*
X68960000Y-104460000D02*
X67690000Y-103190000D01*
%TO.N,Net-(J3-Pin_1)*%
X67690000Y-100190000D02*
X70070000Y-100190000D01*
X70070000Y-100190000D02*
X70880000Y-99380000D01*
%TO.N,Net-(U1C-DIODE_BIAS)*%
X67690000Y-97190000D02*
X70530000Y-97190000D01*
X70530000Y-97190000D02*
X70880000Y-96840000D01*
%TO.N,Net-(R3-Pad1)*%
X67690000Y-94190000D02*
X70770000Y-94190000D01*
X70770000Y-94190000D02*
X70880000Y-94300000D01*
%TO.N,Net-(J9-Pin_1)*%
X94000000Y-122000000D02*
X94000000Y-96340000D01*
X94000000Y-96340000D02*
X91850000Y-94190000D01*
%TO.N,Net-(J8-Pin_1)*%
X91850000Y-100232012D02*
X92951000Y-101333012D01*
X92951000Y-101333012D02*
X92951000Y-110549000D01*
X92951000Y-110549000D02*
X81500000Y-122000000D01*
%TO.N,Net-(R9-Pad2)*%
X78500000Y-104460000D02*
X80000000Y-105960000D01*
X80000000Y-105960000D02*
X80000000Y-108040000D01*
X80000000Y-108040000D02*
X78500000Y-109540000D01*
%TO.N,Net-(R4-Pad2)*%
X70880000Y-104460000D02*
X69779000Y-105561000D01*
X69779000Y-105561000D02*
X69779000Y-108439000D01*
X69779000Y-108439000D02*
X70880000Y-109540000D01*
%TO.N,Net-(J7-Pin_1)*%
X83645000Y-86065000D02*
X83645000Y-98277012D01*
X83645000Y-98277012D02*
X81690000Y-100232012D01*
%TO.N,GND*%
X91850000Y-103232012D02*
X86185000Y-97567012D01*
X86185000Y-97567012D02*
X86185000Y-86065000D01*
%TO.N,Net-(R11-Pad1)*%
X81690000Y-109232012D02*
X81690000Y-106190000D01*
X78500000Y-112080000D02*
X81347988Y-109232012D01*
X81347988Y-109232012D02*
X81690000Y-109232012D01*
%TO.N,Net-(R9-Pad2)*%
X78500000Y-104460000D02*
X80462012Y-104460000D01*
X80462012Y-104460000D02*
X81690000Y-103232012D01*
%TO.N,Net-(J7-Pin_1)*%
X78500000Y-99380000D02*
X80837988Y-99380000D01*
X80837988Y-99380000D02*
X81690000Y-100232012D01*
%TO.N,Net-(U1A-DIODE_BIAS)*%
X78500000Y-96840000D02*
X81297988Y-96840000D01*
X81297988Y-96840000D02*
X81690000Y-97232012D01*
%TO.N,Net-(R10-Pad1)*%
X78500000Y-94300000D02*
X81580000Y-94300000D01*
X81580000Y-94300000D02*
X81690000Y-94190000D01*
%TO.N,Net-(J3-Pin_1)*%
X58009532Y-65231407D02*
X58009532Y-83529532D01*
X58009532Y-83529532D02*
X60545000Y-86065000D01*
%TO.N,GND*%
X63089532Y-65231407D02*
X63089532Y-65910468D01*
X63089532Y-65910468D02*
X63085000Y-65915000D01*
X63085000Y-65915000D02*
X63085000Y-86065000D01*
%TO.N,Net-(J3-Pin_3)*%
X68089532Y-65231407D02*
X65625000Y-67695939D01*
X65625000Y-67695939D02*
X65625000Y-86065000D01*
%TO.N,GND*%
X62960000Y-59040000D02*
X62960000Y-65101875D01*
X62960000Y-65101875D02*
X63089532Y-65231407D01*
X86960000Y-59040000D02*
X86960000Y-64466538D01*
X86960000Y-64466538D02*
X86179291Y-65247247D01*
%TO.N,Net-(J7-Pin_1)*%
X81099291Y-65247247D02*
X81099291Y-83519291D01*
X81099291Y-83519291D02*
X83645000Y-86065000D01*
%TO.N,GND*%
X86179291Y-65247247D02*
X86179291Y-86059291D01*
X86179291Y-86059291D02*
X86185000Y-86065000D01*
%TO.N,Net-(J7-Pin_3)*%
X91179291Y-65247247D02*
X88725000Y-67701538D01*
X88725000Y-67701538D02*
X88725000Y-86065000D01*
%TO.N,GND*%
X69500000Y-51000000D02*
X70601000Y-49899000D01*
X70601000Y-49899000D02*
X84399000Y-49899000D01*
X84399000Y-49899000D02*
X85500000Y-51000000D01*
X62960000Y-59040000D02*
X62960000Y-56500000D01*
X86960000Y-59040000D02*
X86960000Y-56500000D01*
%TO.N,12V*%
X84420000Y-59040000D02*
X80500000Y-55120000D01*
X80500000Y-55120000D02*
X80500000Y-51000000D01*
%TO.N,GND*%
X86960000Y-56500000D02*
X85500000Y-55040000D01*
X85500000Y-55040000D02*
X85500000Y-51000000D01*
X62960000Y-56500000D02*
X68460000Y-51000000D01*
X68460000Y-51000000D02*
X69500000Y-51000000D01*
%TO.N,-12V*%
X60420000Y-56500000D02*
X64500000Y-52420000D01*
X64500000Y-52420000D02*
X64500000Y-51000000D01*
%TO.N,Net-(U1A-DIODE_BIAS)*%
X81190000Y-96732012D02*
X81690000Y-97232012D01*
%TD*%
M02*
