%TF.GenerationSoftware,KiCad,Pcbnew,9.0.6*%
%TF.CreationDate,2026-01-05T23:15:34+11:00*%
%TF.ProjectId,voltage-controlled-amplifier,766f6c74-6167-4652-9d63-6f6e74726f6c,rev?*%
%TF.SameCoordinates,Original*%
%TF.FileFunction,Legend,Top*%
%TF.FilePolarity,Positive*%
%FSLAX46Y46*%
G04 Gerber Fmt 4.6, Leading zero omitted, Abs format (unit mm)*
G04 Created by KiCad (PCBNEW 9.0.6) date 2026-01-05 23:15:34*
%MOMM*%
%LPD*%
G01*
G04 APERTURE LIST*
%ADD10C,0.300000*%
%ADD11C,0.100000*%
%ADD12C,0.150000*%
%ADD13C,0.120000*%
G04 APERTURE END LIST*
D10*
X90868501Y-130174499D02*
X90797073Y-130245928D01*
X90797073Y-130245928D02*
X90582787Y-130317356D01*
X90582787Y-130317356D02*
X90439930Y-130317356D01*
X90439930Y-130317356D02*
X90225644Y-130245928D01*
X90225644Y-130245928D02*
X90082787Y-130103070D01*
X90082787Y-130103070D02*
X90011358Y-129960213D01*
X90011358Y-129960213D02*
X89939930Y-129674499D01*
X89939930Y-129674499D02*
X89939930Y-129460213D01*
X89939930Y-129460213D02*
X90011358Y-129174499D01*
X90011358Y-129174499D02*
X90082787Y-129031642D01*
X90082787Y-129031642D02*
X90225644Y-128888785D01*
X90225644Y-128888785D02*
X90439930Y-128817356D01*
X90439930Y-128817356D02*
X90582787Y-128817356D01*
X90582787Y-128817356D02*
X90797073Y-128888785D01*
X90797073Y-128888785D02*
X90868501Y-128960213D01*
X91297073Y-128817356D02*
X91797073Y-130317356D01*
X91797073Y-130317356D02*
X92297073Y-128817356D01*
X93868501Y-128960213D02*
X93939929Y-128888785D01*
X93939929Y-128888785D02*
X94082787Y-128817356D01*
X94082787Y-128817356D02*
X94439929Y-128817356D01*
X94439929Y-128817356D02*
X94582787Y-128888785D01*
X94582787Y-128888785D02*
X94654215Y-128960213D01*
X94654215Y-128960213D02*
X94725644Y-129103070D01*
X94725644Y-129103070D02*
X94725644Y-129245928D01*
X94725644Y-129245928D02*
X94654215Y-129460213D01*
X94654215Y-129460213D02*
X93797072Y-130317356D01*
X93797072Y-130317356D02*
X94725644Y-130317356D01*
X66261432Y-130320484D02*
X66261432Y-128820484D01*
X66975718Y-130320484D02*
X66975718Y-128820484D01*
X66975718Y-128820484D02*
X67832861Y-130320484D01*
X67832861Y-130320484D02*
X67832861Y-128820484D01*
X70475719Y-130320484D02*
X69618576Y-130320484D01*
X70047147Y-130320484D02*
X70047147Y-128820484D01*
X70047147Y-128820484D02*
X69904290Y-129034770D01*
X69904290Y-129034770D02*
X69761433Y-129177627D01*
X69761433Y-129177627D02*
X69618576Y-129249056D01*
X78340225Y-147300828D02*
X78625939Y-147300828D01*
X78625939Y-147300828D02*
X78768796Y-147372257D01*
X78768796Y-147372257D02*
X78911653Y-147515114D01*
X78911653Y-147515114D02*
X78983082Y-147800828D01*
X78983082Y-147800828D02*
X78983082Y-148300828D01*
X78983082Y-148300828D02*
X78911653Y-148586542D01*
X78911653Y-148586542D02*
X78768796Y-148729400D01*
X78768796Y-148729400D02*
X78625939Y-148800828D01*
X78625939Y-148800828D02*
X78340225Y-148800828D01*
X78340225Y-148800828D02*
X78197368Y-148729400D01*
X78197368Y-148729400D02*
X78054510Y-148586542D01*
X78054510Y-148586542D02*
X77983082Y-148300828D01*
X77983082Y-148300828D02*
X77983082Y-147800828D01*
X77983082Y-147800828D02*
X78054510Y-147515114D01*
X78054510Y-147515114D02*
X78197368Y-147372257D01*
X78197368Y-147372257D02*
X78340225Y-147300828D01*
X79625939Y-147300828D02*
X79625939Y-148515114D01*
X79625939Y-148515114D02*
X79697368Y-148657971D01*
X79697368Y-148657971D02*
X79768797Y-148729400D01*
X79768797Y-148729400D02*
X79911654Y-148800828D01*
X79911654Y-148800828D02*
X80197368Y-148800828D01*
X80197368Y-148800828D02*
X80340225Y-148729400D01*
X80340225Y-148729400D02*
X80411654Y-148657971D01*
X80411654Y-148657971D02*
X80483082Y-148515114D01*
X80483082Y-148515114D02*
X80483082Y-147300828D01*
X80983083Y-147300828D02*
X81840226Y-147300828D01*
X81411654Y-148800828D02*
X81411654Y-147300828D01*
X83411654Y-147443685D02*
X83483082Y-147372257D01*
X83483082Y-147372257D02*
X83625940Y-147300828D01*
X83625940Y-147300828D02*
X83983082Y-147300828D01*
X83983082Y-147300828D02*
X84125940Y-147372257D01*
X84125940Y-147372257D02*
X84197368Y-147443685D01*
X84197368Y-147443685D02*
X84268797Y-147586542D01*
X84268797Y-147586542D02*
X84268797Y-147729400D01*
X84268797Y-147729400D02*
X84197368Y-147943685D01*
X84197368Y-147943685D02*
X83340225Y-148800828D01*
X83340225Y-148800828D02*
X84268797Y-148800828D01*
X78385452Y-130333589D02*
X78385452Y-128833589D01*
X79099738Y-130333589D02*
X79099738Y-128833589D01*
X79099738Y-128833589D02*
X79956881Y-130333589D01*
X79956881Y-130333589D02*
X79956881Y-128833589D01*
X81742596Y-128976446D02*
X81814024Y-128905018D01*
X81814024Y-128905018D02*
X81956882Y-128833589D01*
X81956882Y-128833589D02*
X82314024Y-128833589D01*
X82314024Y-128833589D02*
X82456882Y-128905018D01*
X82456882Y-128905018D02*
X82528310Y-128976446D01*
X82528310Y-128976446D02*
X82599739Y-129119303D01*
X82599739Y-129119303D02*
X82599739Y-129262161D01*
X82599739Y-129262161D02*
X82528310Y-129476446D01*
X82528310Y-129476446D02*
X81671167Y-130333589D01*
X81671167Y-130333589D02*
X82599739Y-130333589D01*
X83554510Y-90015114D02*
X83768796Y-90086542D01*
X83768796Y-90086542D02*
X83840225Y-90157971D01*
X83840225Y-90157971D02*
X83911653Y-90300828D01*
X83911653Y-90300828D02*
X83911653Y-90515114D01*
X83911653Y-90515114D02*
X83840225Y-90657971D01*
X83840225Y-90657971D02*
X83768796Y-90729400D01*
X83768796Y-90729400D02*
X83625939Y-90800828D01*
X83625939Y-90800828D02*
X83054510Y-90800828D01*
X83054510Y-90800828D02*
X83054510Y-89300828D01*
X83054510Y-89300828D02*
X83554510Y-89300828D01*
X83554510Y-89300828D02*
X83697368Y-89372257D01*
X83697368Y-89372257D02*
X83768796Y-89443685D01*
X83768796Y-89443685D02*
X83840225Y-89586542D01*
X83840225Y-89586542D02*
X83840225Y-89729400D01*
X83840225Y-89729400D02*
X83768796Y-89872257D01*
X83768796Y-89872257D02*
X83697368Y-89943685D01*
X83697368Y-89943685D02*
X83554510Y-90015114D01*
X83554510Y-90015114D02*
X83054510Y-90015114D01*
X84554510Y-90800828D02*
X84554510Y-89300828D01*
X85197368Y-90372257D02*
X85911654Y-90372257D01*
X85054511Y-90800828D02*
X85554511Y-89300828D01*
X85554511Y-89300828D02*
X86054511Y-90800828D01*
X86483082Y-90729400D02*
X86697368Y-90800828D01*
X86697368Y-90800828D02*
X87054510Y-90800828D01*
X87054510Y-90800828D02*
X87197368Y-90729400D01*
X87197368Y-90729400D02*
X87268796Y-90657971D01*
X87268796Y-90657971D02*
X87340225Y-90515114D01*
X87340225Y-90515114D02*
X87340225Y-90372257D01*
X87340225Y-90372257D02*
X87268796Y-90229400D01*
X87268796Y-90229400D02*
X87197368Y-90157971D01*
X87197368Y-90157971D02*
X87054510Y-90086542D01*
X87054510Y-90086542D02*
X86768796Y-90015114D01*
X86768796Y-90015114D02*
X86625939Y-89943685D01*
X86625939Y-89943685D02*
X86554510Y-89872257D01*
X86554510Y-89872257D02*
X86483082Y-89729400D01*
X86483082Y-89729400D02*
X86483082Y-89586542D01*
X86483082Y-89586542D02*
X86554510Y-89443685D01*
X86554510Y-89443685D02*
X86625939Y-89372257D01*
X86625939Y-89372257D02*
X86768796Y-89300828D01*
X86768796Y-89300828D02*
X87125939Y-89300828D01*
X87125939Y-89300828D02*
X87340225Y-89372257D01*
X89054510Y-89443685D02*
X89125938Y-89372257D01*
X89125938Y-89372257D02*
X89268796Y-89300828D01*
X89268796Y-89300828D02*
X89625938Y-89300828D01*
X89625938Y-89300828D02*
X89768796Y-89372257D01*
X89768796Y-89372257D02*
X89840224Y-89443685D01*
X89840224Y-89443685D02*
X89911653Y-89586542D01*
X89911653Y-89586542D02*
X89911653Y-89729400D01*
X89911653Y-89729400D02*
X89840224Y-89943685D01*
X89840224Y-89943685D02*
X88983081Y-90800828D01*
X88983081Y-90800828D02*
X89911653Y-90800828D01*
X60554510Y-90015114D02*
X60768796Y-90086542D01*
X60768796Y-90086542D02*
X60840225Y-90157971D01*
X60840225Y-90157971D02*
X60911653Y-90300828D01*
X60911653Y-90300828D02*
X60911653Y-90515114D01*
X60911653Y-90515114D02*
X60840225Y-90657971D01*
X60840225Y-90657971D02*
X60768796Y-90729400D01*
X60768796Y-90729400D02*
X60625939Y-90800828D01*
X60625939Y-90800828D02*
X60054510Y-90800828D01*
X60054510Y-90800828D02*
X60054510Y-89300828D01*
X60054510Y-89300828D02*
X60554510Y-89300828D01*
X60554510Y-89300828D02*
X60697368Y-89372257D01*
X60697368Y-89372257D02*
X60768796Y-89443685D01*
X60768796Y-89443685D02*
X60840225Y-89586542D01*
X60840225Y-89586542D02*
X60840225Y-89729400D01*
X60840225Y-89729400D02*
X60768796Y-89872257D01*
X60768796Y-89872257D02*
X60697368Y-89943685D01*
X60697368Y-89943685D02*
X60554510Y-90015114D01*
X60554510Y-90015114D02*
X60054510Y-90015114D01*
X61554510Y-90800828D02*
X61554510Y-89300828D01*
X62197368Y-90372257D02*
X62911654Y-90372257D01*
X62054511Y-90800828D02*
X62554511Y-89300828D01*
X62554511Y-89300828D02*
X63054511Y-90800828D01*
X63483082Y-90729400D02*
X63697368Y-90800828D01*
X63697368Y-90800828D02*
X64054510Y-90800828D01*
X64054510Y-90800828D02*
X64197368Y-90729400D01*
X64197368Y-90729400D02*
X64268796Y-90657971D01*
X64268796Y-90657971D02*
X64340225Y-90515114D01*
X64340225Y-90515114D02*
X64340225Y-90372257D01*
X64340225Y-90372257D02*
X64268796Y-90229400D01*
X64268796Y-90229400D02*
X64197368Y-90157971D01*
X64197368Y-90157971D02*
X64054510Y-90086542D01*
X64054510Y-90086542D02*
X63768796Y-90015114D01*
X63768796Y-90015114D02*
X63625939Y-89943685D01*
X63625939Y-89943685D02*
X63554510Y-89872257D01*
X63554510Y-89872257D02*
X63483082Y-89729400D01*
X63483082Y-89729400D02*
X63483082Y-89586542D01*
X63483082Y-89586542D02*
X63554510Y-89443685D01*
X63554510Y-89443685D02*
X63625939Y-89372257D01*
X63625939Y-89372257D02*
X63768796Y-89300828D01*
X63768796Y-89300828D02*
X64125939Y-89300828D01*
X64125939Y-89300828D02*
X64340225Y-89372257D01*
X66911653Y-90800828D02*
X66054510Y-90800828D01*
X66483081Y-90800828D02*
X66483081Y-89300828D01*
X66483081Y-89300828D02*
X66340224Y-89515114D01*
X66340224Y-89515114D02*
X66197367Y-89657971D01*
X66197367Y-89657971D02*
X66054510Y-89729400D01*
X66340225Y-147300828D02*
X66625939Y-147300828D01*
X66625939Y-147300828D02*
X66768796Y-147372257D01*
X66768796Y-147372257D02*
X66911653Y-147515114D01*
X66911653Y-147515114D02*
X66983082Y-147800828D01*
X66983082Y-147800828D02*
X66983082Y-148300828D01*
X66983082Y-148300828D02*
X66911653Y-148586542D01*
X66911653Y-148586542D02*
X66768796Y-148729400D01*
X66768796Y-148729400D02*
X66625939Y-148800828D01*
X66625939Y-148800828D02*
X66340225Y-148800828D01*
X66340225Y-148800828D02*
X66197368Y-148729400D01*
X66197368Y-148729400D02*
X66054510Y-148586542D01*
X66054510Y-148586542D02*
X65983082Y-148300828D01*
X65983082Y-148300828D02*
X65983082Y-147800828D01*
X65983082Y-147800828D02*
X66054510Y-147515114D01*
X66054510Y-147515114D02*
X66197368Y-147372257D01*
X66197368Y-147372257D02*
X66340225Y-147300828D01*
X67625939Y-147300828D02*
X67625939Y-148515114D01*
X67625939Y-148515114D02*
X67697368Y-148657971D01*
X67697368Y-148657971D02*
X67768797Y-148729400D01*
X67768797Y-148729400D02*
X67911654Y-148800828D01*
X67911654Y-148800828D02*
X68197368Y-148800828D01*
X68197368Y-148800828D02*
X68340225Y-148729400D01*
X68340225Y-148729400D02*
X68411654Y-148657971D01*
X68411654Y-148657971D02*
X68483082Y-148515114D01*
X68483082Y-148515114D02*
X68483082Y-147300828D01*
X68983083Y-147300828D02*
X69840226Y-147300828D01*
X69411654Y-148800828D02*
X69411654Y-147300828D01*
X72268797Y-148800828D02*
X71411654Y-148800828D01*
X71840225Y-148800828D02*
X71840225Y-147300828D01*
X71840225Y-147300828D02*
X71697368Y-147515114D01*
X71697368Y-147515114D02*
X71554511Y-147657971D01*
X71554511Y-147657971D02*
X71411654Y-147729400D01*
X55002408Y-130152689D02*
X54930980Y-130224118D01*
X54930980Y-130224118D02*
X54716694Y-130295546D01*
X54716694Y-130295546D02*
X54573837Y-130295546D01*
X54573837Y-130295546D02*
X54359551Y-130224118D01*
X54359551Y-130224118D02*
X54216694Y-130081260D01*
X54216694Y-130081260D02*
X54145265Y-129938403D01*
X54145265Y-129938403D02*
X54073837Y-129652689D01*
X54073837Y-129652689D02*
X54073837Y-129438403D01*
X54073837Y-129438403D02*
X54145265Y-129152689D01*
X54145265Y-129152689D02*
X54216694Y-129009832D01*
X54216694Y-129009832D02*
X54359551Y-128866975D01*
X54359551Y-128866975D02*
X54573837Y-128795546D01*
X54573837Y-128795546D02*
X54716694Y-128795546D01*
X54716694Y-128795546D02*
X54930980Y-128866975D01*
X54930980Y-128866975D02*
X55002408Y-128938403D01*
X55430980Y-128795546D02*
X55930980Y-130295546D01*
X55930980Y-130295546D02*
X56430980Y-128795546D01*
X58859551Y-130295546D02*
X58002408Y-130295546D01*
X58430979Y-130295546D02*
X58430979Y-128795546D01*
X58430979Y-128795546D02*
X58288122Y-129009832D01*
X58288122Y-129009832D02*
X58145265Y-129152689D01*
X58145265Y-129152689D02*
X58002408Y-129224118D01*
D11*
X52976190Y-142542503D02*
X53309523Y-143542503D01*
X53309523Y-143542503D02*
X53642856Y-142542503D01*
X54166666Y-142542503D02*
X54357142Y-142542503D01*
X54357142Y-142542503D02*
X54452380Y-142590122D01*
X54452380Y-142590122D02*
X54547618Y-142685360D01*
X54547618Y-142685360D02*
X54595237Y-142875836D01*
X54595237Y-142875836D02*
X54595237Y-143209169D01*
X54595237Y-143209169D02*
X54547618Y-143399645D01*
X54547618Y-143399645D02*
X54452380Y-143494884D01*
X54452380Y-143494884D02*
X54357142Y-143542503D01*
X54357142Y-143542503D02*
X54166666Y-143542503D01*
X54166666Y-143542503D02*
X54071428Y-143494884D01*
X54071428Y-143494884D02*
X53976190Y-143399645D01*
X53976190Y-143399645D02*
X53928571Y-143209169D01*
X53928571Y-143209169D02*
X53928571Y-142875836D01*
X53928571Y-142875836D02*
X53976190Y-142685360D01*
X53976190Y-142685360D02*
X54071428Y-142590122D01*
X54071428Y-142590122D02*
X54166666Y-142542503D01*
X55499999Y-143542503D02*
X55023809Y-143542503D01*
X55023809Y-143542503D02*
X55023809Y-142542503D01*
X55690476Y-142542503D02*
X56261904Y-142542503D01*
X55976190Y-143542503D02*
X55976190Y-142542503D01*
X56547619Y-143256788D02*
X57023809Y-143256788D01*
X56452381Y-143542503D02*
X56785714Y-142542503D01*
X56785714Y-142542503D02*
X57119047Y-143542503D01*
X57976190Y-142590122D02*
X57880952Y-142542503D01*
X57880952Y-142542503D02*
X57738095Y-142542503D01*
X57738095Y-142542503D02*
X57595238Y-142590122D01*
X57595238Y-142590122D02*
X57500000Y-142685360D01*
X57500000Y-142685360D02*
X57452381Y-142780598D01*
X57452381Y-142780598D02*
X57404762Y-142971074D01*
X57404762Y-142971074D02*
X57404762Y-143113931D01*
X57404762Y-143113931D02*
X57452381Y-143304407D01*
X57452381Y-143304407D02*
X57500000Y-143399645D01*
X57500000Y-143399645D02*
X57595238Y-143494884D01*
X57595238Y-143494884D02*
X57738095Y-143542503D01*
X57738095Y-143542503D02*
X57833333Y-143542503D01*
X57833333Y-143542503D02*
X57976190Y-143494884D01*
X57976190Y-143494884D02*
X58023809Y-143447264D01*
X58023809Y-143447264D02*
X58023809Y-143113931D01*
X58023809Y-143113931D02*
X57833333Y-143113931D01*
X58452381Y-143018693D02*
X58785714Y-143018693D01*
X58928571Y-143542503D02*
X58452381Y-143542503D01*
X58452381Y-143542503D02*
X58452381Y-142542503D01*
X58452381Y-142542503D02*
X58928571Y-142542503D01*
X52095237Y-145057208D02*
X52047618Y-145104828D01*
X52047618Y-145104828D02*
X51904761Y-145152447D01*
X51904761Y-145152447D02*
X51809523Y-145152447D01*
X51809523Y-145152447D02*
X51666666Y-145104828D01*
X51666666Y-145104828D02*
X51571428Y-145009589D01*
X51571428Y-145009589D02*
X51523809Y-144914351D01*
X51523809Y-144914351D02*
X51476190Y-144723875D01*
X51476190Y-144723875D02*
X51476190Y-144581018D01*
X51476190Y-144581018D02*
X51523809Y-144390542D01*
X51523809Y-144390542D02*
X51571428Y-144295304D01*
X51571428Y-144295304D02*
X51666666Y-144200066D01*
X51666666Y-144200066D02*
X51809523Y-144152447D01*
X51809523Y-144152447D02*
X51904761Y-144152447D01*
X51904761Y-144152447D02*
X52047618Y-144200066D01*
X52047618Y-144200066D02*
X52095237Y-144247685D01*
X52714285Y-144152447D02*
X52904761Y-144152447D01*
X52904761Y-144152447D02*
X52999999Y-144200066D01*
X52999999Y-144200066D02*
X53095237Y-144295304D01*
X53095237Y-144295304D02*
X53142856Y-144485780D01*
X53142856Y-144485780D02*
X53142856Y-144819113D01*
X53142856Y-144819113D02*
X53095237Y-145009589D01*
X53095237Y-145009589D02*
X52999999Y-145104828D01*
X52999999Y-145104828D02*
X52904761Y-145152447D01*
X52904761Y-145152447D02*
X52714285Y-145152447D01*
X52714285Y-145152447D02*
X52619047Y-145104828D01*
X52619047Y-145104828D02*
X52523809Y-145009589D01*
X52523809Y-145009589D02*
X52476190Y-144819113D01*
X52476190Y-144819113D02*
X52476190Y-144485780D01*
X52476190Y-144485780D02*
X52523809Y-144295304D01*
X52523809Y-144295304D02*
X52619047Y-144200066D01*
X52619047Y-144200066D02*
X52714285Y-144152447D01*
X53571428Y-145152447D02*
X53571428Y-144152447D01*
X53571428Y-144152447D02*
X54142856Y-145152447D01*
X54142856Y-145152447D02*
X54142856Y-144152447D01*
X54476190Y-144152447D02*
X55047618Y-144152447D01*
X54761904Y-145152447D02*
X54761904Y-144152447D01*
X55952380Y-145152447D02*
X55619047Y-144676256D01*
X55380952Y-145152447D02*
X55380952Y-144152447D01*
X55380952Y-144152447D02*
X55761904Y-144152447D01*
X55761904Y-144152447D02*
X55857142Y-144200066D01*
X55857142Y-144200066D02*
X55904761Y-144247685D01*
X55904761Y-144247685D02*
X55952380Y-144342923D01*
X55952380Y-144342923D02*
X55952380Y-144485780D01*
X55952380Y-144485780D02*
X55904761Y-144581018D01*
X55904761Y-144581018D02*
X55857142Y-144628637D01*
X55857142Y-144628637D02*
X55761904Y-144676256D01*
X55761904Y-144676256D02*
X55380952Y-144676256D01*
X56571428Y-144152447D02*
X56761904Y-144152447D01*
X56761904Y-144152447D02*
X56857142Y-144200066D01*
X56857142Y-144200066D02*
X56952380Y-144295304D01*
X56952380Y-144295304D02*
X56999999Y-144485780D01*
X56999999Y-144485780D02*
X56999999Y-144819113D01*
X56999999Y-144819113D02*
X56952380Y-145009589D01*
X56952380Y-145009589D02*
X56857142Y-145104828D01*
X56857142Y-145104828D02*
X56761904Y-145152447D01*
X56761904Y-145152447D02*
X56571428Y-145152447D01*
X56571428Y-145152447D02*
X56476190Y-145104828D01*
X56476190Y-145104828D02*
X56380952Y-145009589D01*
X56380952Y-145009589D02*
X56333333Y-144819113D01*
X56333333Y-144819113D02*
X56333333Y-144485780D01*
X56333333Y-144485780D02*
X56380952Y-144295304D01*
X56380952Y-144295304D02*
X56476190Y-144200066D01*
X56476190Y-144200066D02*
X56571428Y-144152447D01*
X57904761Y-145152447D02*
X57428571Y-145152447D01*
X57428571Y-145152447D02*
X57428571Y-144152447D01*
X58714285Y-145152447D02*
X58238095Y-145152447D01*
X58238095Y-145152447D02*
X58238095Y-144152447D01*
X59047619Y-144628637D02*
X59380952Y-144628637D01*
X59523809Y-145152447D02*
X59047619Y-145152447D01*
X59047619Y-145152447D02*
X59047619Y-144152447D01*
X59047619Y-144152447D02*
X59523809Y-144152447D01*
X59952381Y-145152447D02*
X59952381Y-144152447D01*
X59952381Y-144152447D02*
X60190476Y-144152447D01*
X60190476Y-144152447D02*
X60333333Y-144200066D01*
X60333333Y-144200066D02*
X60428571Y-144295304D01*
X60428571Y-144295304D02*
X60476190Y-144390542D01*
X60476190Y-144390542D02*
X60523809Y-144581018D01*
X60523809Y-144581018D02*
X60523809Y-144723875D01*
X60523809Y-144723875D02*
X60476190Y-144914351D01*
X60476190Y-144914351D02*
X60428571Y-145009589D01*
X60428571Y-145009589D02*
X60333333Y-145104828D01*
X60333333Y-145104828D02*
X60190476Y-145152447D01*
X60190476Y-145152447D02*
X59952381Y-145152447D01*
X52428572Y-146476676D02*
X52904762Y-146476676D01*
X52333334Y-146762391D02*
X52666667Y-145762391D01*
X52666667Y-145762391D02*
X53000000Y-146762391D01*
X53333334Y-146762391D02*
X53333334Y-145762391D01*
X53333334Y-145762391D02*
X53666667Y-146476676D01*
X53666667Y-146476676D02*
X54000000Y-145762391D01*
X54000000Y-145762391D02*
X54000000Y-146762391D01*
X54476191Y-146762391D02*
X54476191Y-145762391D01*
X54476191Y-145762391D02*
X54857143Y-145762391D01*
X54857143Y-145762391D02*
X54952381Y-145810010D01*
X54952381Y-145810010D02*
X55000000Y-145857629D01*
X55000000Y-145857629D02*
X55047619Y-145952867D01*
X55047619Y-145952867D02*
X55047619Y-146095724D01*
X55047619Y-146095724D02*
X55000000Y-146190962D01*
X55000000Y-146190962D02*
X54952381Y-146238581D01*
X54952381Y-146238581D02*
X54857143Y-146286200D01*
X54857143Y-146286200D02*
X54476191Y-146286200D01*
X55952381Y-146762391D02*
X55476191Y-146762391D01*
X55476191Y-146762391D02*
X55476191Y-145762391D01*
X56285715Y-146762391D02*
X56285715Y-145762391D01*
X57095238Y-146238581D02*
X56761905Y-146238581D01*
X56761905Y-146762391D02*
X56761905Y-145762391D01*
X56761905Y-145762391D02*
X57238095Y-145762391D01*
X57619048Y-146762391D02*
X57619048Y-145762391D01*
X58095238Y-146238581D02*
X58428571Y-146238581D01*
X58571428Y-146762391D02*
X58095238Y-146762391D01*
X58095238Y-146762391D02*
X58095238Y-145762391D01*
X58095238Y-145762391D02*
X58571428Y-145762391D01*
X59571428Y-146762391D02*
X59238095Y-146286200D01*
X59000000Y-146762391D02*
X59000000Y-145762391D01*
X59000000Y-145762391D02*
X59380952Y-145762391D01*
X59380952Y-145762391D02*
X59476190Y-145810010D01*
X59476190Y-145810010D02*
X59523809Y-145857629D01*
X59523809Y-145857629D02*
X59571428Y-145952867D01*
X59571428Y-145952867D02*
X59571428Y-146095724D01*
X59571428Y-146095724D02*
X59523809Y-146190962D01*
X59523809Y-146190962D02*
X59476190Y-146238581D01*
X59476190Y-146238581D02*
X59380952Y-146286200D01*
X59380952Y-146286200D02*
X59000000Y-146286200D01*
X55190476Y-147372335D02*
X55523809Y-148372335D01*
X55523809Y-148372335D02*
X55857142Y-147372335D01*
X56714285Y-148372335D02*
X56142857Y-148372335D01*
X56428571Y-148372335D02*
X56428571Y-147372335D01*
X56428571Y-147372335D02*
X56333333Y-147515192D01*
X56333333Y-147515192D02*
X56238095Y-147610430D01*
X56238095Y-147610430D02*
X56142857Y-147658049D01*
X88065732Y-115963569D02*
X88065732Y-116677854D01*
X88065732Y-116677854D02*
X88018113Y-116820711D01*
X88018113Y-116820711D02*
X87922875Y-116915950D01*
X87922875Y-116915950D02*
X87780018Y-116963569D01*
X87780018Y-116963569D02*
X87684780Y-116963569D01*
X88589542Y-116963569D02*
X88780018Y-116963569D01*
X88780018Y-116963569D02*
X88875256Y-116915950D01*
X88875256Y-116915950D02*
X88922875Y-116868330D01*
X88922875Y-116868330D02*
X89018113Y-116725473D01*
X89018113Y-116725473D02*
X89065732Y-116534997D01*
X89065732Y-116534997D02*
X89065732Y-116154045D01*
X89065732Y-116154045D02*
X89018113Y-116058807D01*
X89018113Y-116058807D02*
X88970494Y-116011188D01*
X88970494Y-116011188D02*
X88875256Y-115963569D01*
X88875256Y-115963569D02*
X88684780Y-115963569D01*
X88684780Y-115963569D02*
X88589542Y-116011188D01*
X88589542Y-116011188D02*
X88541923Y-116058807D01*
X88541923Y-116058807D02*
X88494304Y-116154045D01*
X88494304Y-116154045D02*
X88494304Y-116392140D01*
X88494304Y-116392140D02*
X88541923Y-116487378D01*
X88541923Y-116487378D02*
X88589542Y-116534997D01*
X88589542Y-116534997D02*
X88684780Y-116582616D01*
X88684780Y-116582616D02*
X88875256Y-116582616D01*
X88875256Y-116582616D02*
X88970494Y-116534997D01*
X88970494Y-116534997D02*
X89018113Y-116487378D01*
X89018113Y-116487378D02*
X89065732Y-116392140D01*
D12*
X55933556Y-109125695D02*
X55457365Y-109459028D01*
X55933556Y-109697123D02*
X54933556Y-109697123D01*
X54933556Y-109697123D02*
X54933556Y-109316171D01*
X54933556Y-109316171D02*
X54981175Y-109220933D01*
X54981175Y-109220933D02*
X55028794Y-109173314D01*
X55028794Y-109173314D02*
X55124032Y-109125695D01*
X55124032Y-109125695D02*
X55266889Y-109125695D01*
X55266889Y-109125695D02*
X55362127Y-109173314D01*
X55362127Y-109173314D02*
X55409746Y-109220933D01*
X55409746Y-109220933D02*
X55457365Y-109316171D01*
X55457365Y-109316171D02*
X55457365Y-109697123D01*
X54933556Y-108220933D02*
X54933556Y-108697123D01*
X54933556Y-108697123D02*
X55409746Y-108744742D01*
X55409746Y-108744742D02*
X55362127Y-108697123D01*
X55362127Y-108697123D02*
X55314508Y-108601885D01*
X55314508Y-108601885D02*
X55314508Y-108363790D01*
X55314508Y-108363790D02*
X55362127Y-108268552D01*
X55362127Y-108268552D02*
X55409746Y-108220933D01*
X55409746Y-108220933D02*
X55504984Y-108173314D01*
X55504984Y-108173314D02*
X55743079Y-108173314D01*
X55743079Y-108173314D02*
X55838317Y-108220933D01*
X55838317Y-108220933D02*
X55885937Y-108268552D01*
X55885937Y-108268552D02*
X55933556Y-108363790D01*
X55933556Y-108363790D02*
X55933556Y-108601885D01*
X55933556Y-108601885D02*
X55885937Y-108697123D01*
X55885937Y-108697123D02*
X55838317Y-108744742D01*
X87937142Y-105954819D02*
X87603809Y-105478628D01*
X87365714Y-105954819D02*
X87365714Y-104954819D01*
X87365714Y-104954819D02*
X87746666Y-104954819D01*
X87746666Y-104954819D02*
X87841904Y-105002438D01*
X87841904Y-105002438D02*
X87889523Y-105050057D01*
X87889523Y-105050057D02*
X87937142Y-105145295D01*
X87937142Y-105145295D02*
X87937142Y-105288152D01*
X87937142Y-105288152D02*
X87889523Y-105383390D01*
X87889523Y-105383390D02*
X87841904Y-105431009D01*
X87841904Y-105431009D02*
X87746666Y-105478628D01*
X87746666Y-105478628D02*
X87365714Y-105478628D01*
X88889523Y-105954819D02*
X88318095Y-105954819D01*
X88603809Y-105954819D02*
X88603809Y-104954819D01*
X88603809Y-104954819D02*
X88508571Y-105097676D01*
X88508571Y-105097676D02*
X88413333Y-105192914D01*
X88413333Y-105192914D02*
X88318095Y-105240533D01*
X89841904Y-105954819D02*
X89270476Y-105954819D01*
X89556190Y-105954819D02*
X89556190Y-104954819D01*
X89556190Y-104954819D02*
X89460952Y-105097676D01*
X89460952Y-105097676D02*
X89365714Y-105192914D01*
X89365714Y-105192914D02*
X89270476Y-105240533D01*
X55954819Y-96586666D02*
X55478628Y-96919999D01*
X55954819Y-97158094D02*
X54954819Y-97158094D01*
X54954819Y-97158094D02*
X54954819Y-96777142D01*
X54954819Y-96777142D02*
X55002438Y-96681904D01*
X55002438Y-96681904D02*
X55050057Y-96634285D01*
X55050057Y-96634285D02*
X55145295Y-96586666D01*
X55145295Y-96586666D02*
X55288152Y-96586666D01*
X55288152Y-96586666D02*
X55383390Y-96634285D01*
X55383390Y-96634285D02*
X55431009Y-96681904D01*
X55431009Y-96681904D02*
X55478628Y-96777142D01*
X55478628Y-96777142D02*
X55478628Y-97158094D01*
X55288152Y-95729523D02*
X55954819Y-95729523D01*
X54907200Y-95967618D02*
X55621485Y-96205713D01*
X55621485Y-96205713D02*
X55621485Y-95586666D01*
X62666666Y-46954819D02*
X62666666Y-47669104D01*
X62666666Y-47669104D02*
X62619047Y-47811961D01*
X62619047Y-47811961D02*
X62523809Y-47907200D01*
X62523809Y-47907200D02*
X62380952Y-47954819D01*
X62380952Y-47954819D02*
X62285714Y-47954819D01*
X63666666Y-47954819D02*
X63095238Y-47954819D01*
X63380952Y-47954819D02*
X63380952Y-46954819D01*
X63380952Y-46954819D02*
X63285714Y-47097676D01*
X63285714Y-47097676D02*
X63190476Y-47192914D01*
X63190476Y-47192914D02*
X63095238Y-47240533D01*
X92048095Y-91814819D02*
X92048095Y-92624342D01*
X92048095Y-92624342D02*
X92095714Y-92719580D01*
X92095714Y-92719580D02*
X92143333Y-92767200D01*
X92143333Y-92767200D02*
X92238571Y-92814819D01*
X92238571Y-92814819D02*
X92429047Y-92814819D01*
X92429047Y-92814819D02*
X92524285Y-92767200D01*
X92524285Y-92767200D02*
X92571904Y-92719580D01*
X92571904Y-92719580D02*
X92619523Y-92624342D01*
X92619523Y-92624342D02*
X92619523Y-91814819D01*
X93048095Y-91910057D02*
X93095714Y-91862438D01*
X93095714Y-91862438D02*
X93190952Y-91814819D01*
X93190952Y-91814819D02*
X93429047Y-91814819D01*
X93429047Y-91814819D02*
X93524285Y-91862438D01*
X93524285Y-91862438D02*
X93571904Y-91910057D01*
X93571904Y-91910057D02*
X93619523Y-92005295D01*
X93619523Y-92005295D02*
X93619523Y-92100533D01*
X93619523Y-92100533D02*
X93571904Y-92243390D01*
X93571904Y-92243390D02*
X93000476Y-92814819D01*
X93000476Y-92814819D02*
X93619523Y-92814819D01*
D11*
X86076035Y-115996560D02*
X86076035Y-116710845D01*
X86076035Y-116710845D02*
X86028416Y-116853702D01*
X86028416Y-116853702D02*
X85933178Y-116948941D01*
X85933178Y-116948941D02*
X85790321Y-116996560D01*
X85790321Y-116996560D02*
X85695083Y-116996560D01*
X86695083Y-116425131D02*
X86599845Y-116377512D01*
X86599845Y-116377512D02*
X86552226Y-116329893D01*
X86552226Y-116329893D02*
X86504607Y-116234655D01*
X86504607Y-116234655D02*
X86504607Y-116187036D01*
X86504607Y-116187036D02*
X86552226Y-116091798D01*
X86552226Y-116091798D02*
X86599845Y-116044179D01*
X86599845Y-116044179D02*
X86695083Y-115996560D01*
X86695083Y-115996560D02*
X86885559Y-115996560D01*
X86885559Y-115996560D02*
X86980797Y-116044179D01*
X86980797Y-116044179D02*
X87028416Y-116091798D01*
X87028416Y-116091798D02*
X87076035Y-116187036D01*
X87076035Y-116187036D02*
X87076035Y-116234655D01*
X87076035Y-116234655D02*
X87028416Y-116329893D01*
X87028416Y-116329893D02*
X86980797Y-116377512D01*
X86980797Y-116377512D02*
X86885559Y-116425131D01*
X86885559Y-116425131D02*
X86695083Y-116425131D01*
X86695083Y-116425131D02*
X86599845Y-116472750D01*
X86599845Y-116472750D02*
X86552226Y-116520369D01*
X86552226Y-116520369D02*
X86504607Y-116615607D01*
X86504607Y-116615607D02*
X86504607Y-116806083D01*
X86504607Y-116806083D02*
X86552226Y-116901321D01*
X86552226Y-116901321D02*
X86599845Y-116948941D01*
X86599845Y-116948941D02*
X86695083Y-116996560D01*
X86695083Y-116996560D02*
X86885559Y-116996560D01*
X86885559Y-116996560D02*
X86980797Y-116948941D01*
X86980797Y-116948941D02*
X87028416Y-116901321D01*
X87028416Y-116901321D02*
X87076035Y-116806083D01*
X87076035Y-116806083D02*
X87076035Y-116615607D01*
X87076035Y-116615607D02*
X87028416Y-116520369D01*
X87028416Y-116520369D02*
X86980797Y-116472750D01*
X86980797Y-116472750D02*
X86885559Y-116425131D01*
D12*
X91706260Y-133460768D02*
X91372927Y-132984577D01*
X91134832Y-133460768D02*
X91134832Y-132460768D01*
X91134832Y-132460768D02*
X91515784Y-132460768D01*
X91515784Y-132460768D02*
X91611022Y-132508387D01*
X91611022Y-132508387D02*
X91658641Y-132556006D01*
X91658641Y-132556006D02*
X91706260Y-132651244D01*
X91706260Y-132651244D02*
X91706260Y-132794101D01*
X91706260Y-132794101D02*
X91658641Y-132889339D01*
X91658641Y-132889339D02*
X91611022Y-132936958D01*
X91611022Y-132936958D02*
X91515784Y-132984577D01*
X91515784Y-132984577D02*
X91134832Y-132984577D01*
X92658641Y-133460768D02*
X92087213Y-133460768D01*
X92372927Y-133460768D02*
X92372927Y-132460768D01*
X92372927Y-132460768D02*
X92277689Y-132603625D01*
X92277689Y-132603625D02*
X92182451Y-132698863D01*
X92182451Y-132698863D02*
X92087213Y-132746482D01*
X93039594Y-132556006D02*
X93087213Y-132508387D01*
X93087213Y-132508387D02*
X93182451Y-132460768D01*
X93182451Y-132460768D02*
X93420546Y-132460768D01*
X93420546Y-132460768D02*
X93515784Y-132508387D01*
X93515784Y-132508387D02*
X93563403Y-132556006D01*
X93563403Y-132556006D02*
X93611022Y-132651244D01*
X93611022Y-132651244D02*
X93611022Y-132746482D01*
X93611022Y-132746482D02*
X93563403Y-132889339D01*
X93563403Y-132889339D02*
X92991975Y-133460768D01*
X92991975Y-133460768D02*
X93611022Y-133460768D01*
X82333333Y-100412807D02*
X82000000Y-99936616D01*
X81761905Y-100412807D02*
X81761905Y-99412807D01*
X81761905Y-99412807D02*
X82142857Y-99412807D01*
X82142857Y-99412807D02*
X82238095Y-99460426D01*
X82238095Y-99460426D02*
X82285714Y-99508045D01*
X82285714Y-99508045D02*
X82333333Y-99603283D01*
X82333333Y-99603283D02*
X82333333Y-99746140D01*
X82333333Y-99746140D02*
X82285714Y-99841378D01*
X82285714Y-99841378D02*
X82238095Y-99888997D01*
X82238095Y-99888997D02*
X82142857Y-99936616D01*
X82142857Y-99936616D02*
X81761905Y-99936616D01*
X82666667Y-99412807D02*
X83333333Y-99412807D01*
X83333333Y-99412807D02*
X82904762Y-100412807D01*
X93833333Y-62359580D02*
X93785714Y-62407200D01*
X93785714Y-62407200D02*
X93642857Y-62454819D01*
X93642857Y-62454819D02*
X93547619Y-62454819D01*
X93547619Y-62454819D02*
X93404762Y-62407200D01*
X93404762Y-62407200D02*
X93309524Y-62311961D01*
X93309524Y-62311961D02*
X93261905Y-62216723D01*
X93261905Y-62216723D02*
X93214286Y-62026247D01*
X93214286Y-62026247D02*
X93214286Y-61883390D01*
X93214286Y-61883390D02*
X93261905Y-61692914D01*
X93261905Y-61692914D02*
X93309524Y-61597676D01*
X93309524Y-61597676D02*
X93404762Y-61502438D01*
X93404762Y-61502438D02*
X93547619Y-61454819D01*
X93547619Y-61454819D02*
X93642857Y-61454819D01*
X93642857Y-61454819D02*
X93785714Y-61502438D01*
X93785714Y-61502438D02*
X93833333Y-61550057D01*
X94214286Y-61550057D02*
X94261905Y-61502438D01*
X94261905Y-61502438D02*
X94357143Y-61454819D01*
X94357143Y-61454819D02*
X94595238Y-61454819D01*
X94595238Y-61454819D02*
X94690476Y-61502438D01*
X94690476Y-61502438D02*
X94738095Y-61550057D01*
X94738095Y-61550057D02*
X94785714Y-61645295D01*
X94785714Y-61645295D02*
X94785714Y-61740533D01*
X94785714Y-61740533D02*
X94738095Y-61883390D01*
X94738095Y-61883390D02*
X94166667Y-62454819D01*
X94166667Y-62454819D02*
X94785714Y-62454819D01*
D11*
X86027079Y-134988993D02*
X86027079Y-135703278D01*
X86027079Y-135703278D02*
X85979460Y-135846135D01*
X85979460Y-135846135D02*
X85884222Y-135941374D01*
X85884222Y-135941374D02*
X85741365Y-135988993D01*
X85741365Y-135988993D02*
X85646127Y-135988993D01*
X87027079Y-135988993D02*
X86455651Y-135988993D01*
X86741365Y-135988993D02*
X86741365Y-134988993D01*
X86741365Y-134988993D02*
X86646127Y-135131850D01*
X86646127Y-135131850D02*
X86550889Y-135227088D01*
X86550889Y-135227088D02*
X86455651Y-135274707D01*
X87646127Y-134988993D02*
X87741365Y-134988993D01*
X87741365Y-134988993D02*
X87836603Y-135036612D01*
X87836603Y-135036612D02*
X87884222Y-135084231D01*
X87884222Y-135084231D02*
X87931841Y-135179469D01*
X87931841Y-135179469D02*
X87979460Y-135369945D01*
X87979460Y-135369945D02*
X87979460Y-135608040D01*
X87979460Y-135608040D02*
X87931841Y-135798516D01*
X87931841Y-135798516D02*
X87884222Y-135893754D01*
X87884222Y-135893754D02*
X87836603Y-135941374D01*
X87836603Y-135941374D02*
X87741365Y-135988993D01*
X87741365Y-135988993D02*
X87646127Y-135988993D01*
X87646127Y-135988993D02*
X87550889Y-135941374D01*
X87550889Y-135941374D02*
X87503270Y-135893754D01*
X87503270Y-135893754D02*
X87455651Y-135798516D01*
X87455651Y-135798516D02*
X87408032Y-135608040D01*
X87408032Y-135608040D02*
X87408032Y-135369945D01*
X87408032Y-135369945D02*
X87455651Y-135179469D01*
X87455651Y-135179469D02*
X87503270Y-135084231D01*
X87503270Y-135084231D02*
X87550889Y-135036612D01*
X87550889Y-135036612D02*
X87646127Y-134988993D01*
D12*
X52454819Y-96506666D02*
X51978628Y-96839999D01*
X52454819Y-97078094D02*
X51454819Y-97078094D01*
X51454819Y-97078094D02*
X51454819Y-96697142D01*
X51454819Y-96697142D02*
X51502438Y-96601904D01*
X51502438Y-96601904D02*
X51550057Y-96554285D01*
X51550057Y-96554285D02*
X51645295Y-96506666D01*
X51645295Y-96506666D02*
X51788152Y-96506666D01*
X51788152Y-96506666D02*
X51883390Y-96554285D01*
X51883390Y-96554285D02*
X51931009Y-96601904D01*
X51931009Y-96601904D02*
X51978628Y-96697142D01*
X51978628Y-96697142D02*
X51978628Y-97078094D01*
X51454819Y-96173332D02*
X51454819Y-95554285D01*
X51454819Y-95554285D02*
X51835771Y-95887618D01*
X51835771Y-95887618D02*
X51835771Y-95744761D01*
X51835771Y-95744761D02*
X51883390Y-95649523D01*
X51883390Y-95649523D02*
X51931009Y-95601904D01*
X51931009Y-95601904D02*
X52026247Y-95554285D01*
X52026247Y-95554285D02*
X52264342Y-95554285D01*
X52264342Y-95554285D02*
X52359580Y-95601904D01*
X52359580Y-95601904D02*
X52407200Y-95649523D01*
X52407200Y-95649523D02*
X52454819Y-95744761D01*
X52454819Y-95744761D02*
X52454819Y-96030475D01*
X52454819Y-96030475D02*
X52407200Y-96125713D01*
X52407200Y-96125713D02*
X52359580Y-96173332D01*
X74833333Y-105954819D02*
X74500000Y-105478628D01*
X74261905Y-105954819D02*
X74261905Y-104954819D01*
X74261905Y-104954819D02*
X74642857Y-104954819D01*
X74642857Y-104954819D02*
X74738095Y-105002438D01*
X74738095Y-105002438D02*
X74785714Y-105050057D01*
X74785714Y-105050057D02*
X74833333Y-105145295D01*
X74833333Y-105145295D02*
X74833333Y-105288152D01*
X74833333Y-105288152D02*
X74785714Y-105383390D01*
X74785714Y-105383390D02*
X74738095Y-105431009D01*
X74738095Y-105431009D02*
X74642857Y-105478628D01*
X74642857Y-105478628D02*
X74261905Y-105478628D01*
X75309524Y-105954819D02*
X75500000Y-105954819D01*
X75500000Y-105954819D02*
X75595238Y-105907200D01*
X75595238Y-105907200D02*
X75642857Y-105859580D01*
X75642857Y-105859580D02*
X75738095Y-105716723D01*
X75738095Y-105716723D02*
X75785714Y-105526247D01*
X75785714Y-105526247D02*
X75785714Y-105145295D01*
X75785714Y-105145295D02*
X75738095Y-105050057D01*
X75738095Y-105050057D02*
X75690476Y-105002438D01*
X75690476Y-105002438D02*
X75595238Y-104954819D01*
X75595238Y-104954819D02*
X75404762Y-104954819D01*
X75404762Y-104954819D02*
X75309524Y-105002438D01*
X75309524Y-105002438D02*
X75261905Y-105050057D01*
X75261905Y-105050057D02*
X75214286Y-105145295D01*
X75214286Y-105145295D02*
X75214286Y-105383390D01*
X75214286Y-105383390D02*
X75261905Y-105478628D01*
X75261905Y-105478628D02*
X75309524Y-105526247D01*
X75309524Y-105526247D02*
X75404762Y-105573866D01*
X75404762Y-105573866D02*
X75595238Y-105573866D01*
X75595238Y-105573866D02*
X75690476Y-105526247D01*
X75690476Y-105526247D02*
X75738095Y-105478628D01*
X75738095Y-105478628D02*
X75785714Y-105383390D01*
X55651555Y-62216583D02*
X55603936Y-62264203D01*
X55603936Y-62264203D02*
X55461079Y-62311822D01*
X55461079Y-62311822D02*
X55365841Y-62311822D01*
X55365841Y-62311822D02*
X55222984Y-62264203D01*
X55222984Y-62264203D02*
X55127746Y-62168964D01*
X55127746Y-62168964D02*
X55080127Y-62073726D01*
X55080127Y-62073726D02*
X55032508Y-61883250D01*
X55032508Y-61883250D02*
X55032508Y-61740393D01*
X55032508Y-61740393D02*
X55080127Y-61549917D01*
X55080127Y-61549917D02*
X55127746Y-61454679D01*
X55127746Y-61454679D02*
X55222984Y-61359441D01*
X55222984Y-61359441D02*
X55365841Y-61311822D01*
X55365841Y-61311822D02*
X55461079Y-61311822D01*
X55461079Y-61311822D02*
X55603936Y-61359441D01*
X55603936Y-61359441D02*
X55651555Y-61407060D01*
X56603936Y-62311822D02*
X56032508Y-62311822D01*
X56318222Y-62311822D02*
X56318222Y-61311822D01*
X56318222Y-61311822D02*
X56222984Y-61454679D01*
X56222984Y-61454679D02*
X56127746Y-61549917D01*
X56127746Y-61549917D02*
X56032508Y-61597536D01*
D11*
X76219761Y-89957419D02*
X75886428Y-89481228D01*
X75648333Y-89957419D02*
X75648333Y-88957419D01*
X75648333Y-88957419D02*
X76029285Y-88957419D01*
X76029285Y-88957419D02*
X76124523Y-89005038D01*
X76124523Y-89005038D02*
X76172142Y-89052657D01*
X76172142Y-89052657D02*
X76219761Y-89147895D01*
X76219761Y-89147895D02*
X76219761Y-89290752D01*
X76219761Y-89290752D02*
X76172142Y-89385990D01*
X76172142Y-89385990D02*
X76124523Y-89433609D01*
X76124523Y-89433609D02*
X76029285Y-89481228D01*
X76029285Y-89481228D02*
X75648333Y-89481228D01*
X76505476Y-88957419D02*
X76838809Y-89957419D01*
X76838809Y-89957419D02*
X77172142Y-88957419D01*
X77457857Y-89052657D02*
X77505476Y-89005038D01*
X77505476Y-89005038D02*
X77600714Y-88957419D01*
X77600714Y-88957419D02*
X77838809Y-88957419D01*
X77838809Y-88957419D02*
X77934047Y-89005038D01*
X77934047Y-89005038D02*
X77981666Y-89052657D01*
X77981666Y-89052657D02*
X78029285Y-89147895D01*
X78029285Y-89147895D02*
X78029285Y-89243133D01*
X78029285Y-89243133D02*
X77981666Y-89385990D01*
X77981666Y-89385990D02*
X77410238Y-89957419D01*
X77410238Y-89957419D02*
X78029285Y-89957419D01*
D12*
X57065772Y-133446401D02*
X56732439Y-132970210D01*
X56494344Y-133446401D02*
X56494344Y-132446401D01*
X56494344Y-132446401D02*
X56875296Y-132446401D01*
X56875296Y-132446401D02*
X56970534Y-132494020D01*
X56970534Y-132494020D02*
X57018153Y-132541639D01*
X57018153Y-132541639D02*
X57065772Y-132636877D01*
X57065772Y-132636877D02*
X57065772Y-132779734D01*
X57065772Y-132779734D02*
X57018153Y-132874972D01*
X57018153Y-132874972D02*
X56970534Y-132922591D01*
X56970534Y-132922591D02*
X56875296Y-132970210D01*
X56875296Y-132970210D02*
X56494344Y-132970210D01*
X57922915Y-132446401D02*
X57732439Y-132446401D01*
X57732439Y-132446401D02*
X57637201Y-132494020D01*
X57637201Y-132494020D02*
X57589582Y-132541639D01*
X57589582Y-132541639D02*
X57494344Y-132684496D01*
X57494344Y-132684496D02*
X57446725Y-132874972D01*
X57446725Y-132874972D02*
X57446725Y-133255924D01*
X57446725Y-133255924D02*
X57494344Y-133351162D01*
X57494344Y-133351162D02*
X57541963Y-133398782D01*
X57541963Y-133398782D02*
X57637201Y-133446401D01*
X57637201Y-133446401D02*
X57827677Y-133446401D01*
X57827677Y-133446401D02*
X57922915Y-133398782D01*
X57922915Y-133398782D02*
X57970534Y-133351162D01*
X57970534Y-133351162D02*
X58018153Y-133255924D01*
X58018153Y-133255924D02*
X58018153Y-133017829D01*
X58018153Y-133017829D02*
X57970534Y-132922591D01*
X57970534Y-132922591D02*
X57922915Y-132874972D01*
X57922915Y-132874972D02*
X57827677Y-132827353D01*
X57827677Y-132827353D02*
X57637201Y-132827353D01*
X57637201Y-132827353D02*
X57541963Y-132874972D01*
X57541963Y-132874972D02*
X57494344Y-132922591D01*
X57494344Y-132922591D02*
X57446725Y-133017829D01*
X87357142Y-115454819D02*
X87023809Y-114978628D01*
X86785714Y-115454819D02*
X86785714Y-114454819D01*
X86785714Y-114454819D02*
X87166666Y-114454819D01*
X87166666Y-114454819D02*
X87261904Y-114502438D01*
X87261904Y-114502438D02*
X87309523Y-114550057D01*
X87309523Y-114550057D02*
X87357142Y-114645295D01*
X87357142Y-114645295D02*
X87357142Y-114788152D01*
X87357142Y-114788152D02*
X87309523Y-114883390D01*
X87309523Y-114883390D02*
X87261904Y-114931009D01*
X87261904Y-114931009D02*
X87166666Y-114978628D01*
X87166666Y-114978628D02*
X86785714Y-114978628D01*
X88309523Y-115454819D02*
X87738095Y-115454819D01*
X88023809Y-115454819D02*
X88023809Y-114454819D01*
X88023809Y-114454819D02*
X87928571Y-114597676D01*
X87928571Y-114597676D02*
X87833333Y-114692914D01*
X87833333Y-114692914D02*
X87738095Y-114740533D01*
X88928571Y-114454819D02*
X89023809Y-114454819D01*
X89023809Y-114454819D02*
X89119047Y-114502438D01*
X89119047Y-114502438D02*
X89166666Y-114550057D01*
X89166666Y-114550057D02*
X89214285Y-114645295D01*
X89214285Y-114645295D02*
X89261904Y-114835771D01*
X89261904Y-114835771D02*
X89261904Y-115073866D01*
X89261904Y-115073866D02*
X89214285Y-115264342D01*
X89214285Y-115264342D02*
X89166666Y-115359580D01*
X89166666Y-115359580D02*
X89119047Y-115407200D01*
X89119047Y-115407200D02*
X89023809Y-115454819D01*
X89023809Y-115454819D02*
X88928571Y-115454819D01*
X88928571Y-115454819D02*
X88833333Y-115407200D01*
X88833333Y-115407200D02*
X88785714Y-115359580D01*
X88785714Y-115359580D02*
X88738095Y-115264342D01*
X88738095Y-115264342D02*
X88690476Y-115073866D01*
X88690476Y-115073866D02*
X88690476Y-114835771D01*
X88690476Y-114835771D02*
X88738095Y-114645295D01*
X88738095Y-114645295D02*
X88785714Y-114550057D01*
X88785714Y-114550057D02*
X88833333Y-114502438D01*
X88833333Y-114502438D02*
X88928571Y-114454819D01*
D11*
X63166666Y-115984985D02*
X63166666Y-116699270D01*
X63166666Y-116699270D02*
X63119047Y-116842127D01*
X63119047Y-116842127D02*
X63023809Y-116937366D01*
X63023809Y-116937366D02*
X62880952Y-116984985D01*
X62880952Y-116984985D02*
X62785714Y-116984985D01*
X64071428Y-116318318D02*
X64071428Y-116984985D01*
X63833333Y-115937366D02*
X63595238Y-116651651D01*
X63595238Y-116651651D02*
X64214285Y-116651651D01*
X85845957Y-67204666D02*
X85845957Y-67918951D01*
X85845957Y-67918951D02*
X85798338Y-68061808D01*
X85798338Y-68061808D02*
X85703100Y-68157047D01*
X85703100Y-68157047D02*
X85560243Y-68204666D01*
X85560243Y-68204666D02*
X85465005Y-68204666D01*
X86226910Y-67204666D02*
X86893576Y-67204666D01*
X86893576Y-67204666D02*
X86465005Y-68204666D01*
D12*
X86166666Y-46951090D02*
X86166666Y-47665375D01*
X86166666Y-47665375D02*
X86119047Y-47808232D01*
X86119047Y-47808232D02*
X86023809Y-47903471D01*
X86023809Y-47903471D02*
X85880952Y-47951090D01*
X85880952Y-47951090D02*
X85785714Y-47951090D01*
X86595238Y-47046328D02*
X86642857Y-46998709D01*
X86642857Y-46998709D02*
X86738095Y-46951090D01*
X86738095Y-46951090D02*
X86976190Y-46951090D01*
X86976190Y-46951090D02*
X87071428Y-46998709D01*
X87071428Y-46998709D02*
X87119047Y-47046328D01*
X87119047Y-47046328D02*
X87166666Y-47141566D01*
X87166666Y-47141566D02*
X87166666Y-47236804D01*
X87166666Y-47236804D02*
X87119047Y-47379661D01*
X87119047Y-47379661D02*
X86547619Y-47951090D01*
X86547619Y-47951090D02*
X87166666Y-47951090D01*
X82333333Y-96184362D02*
X82000000Y-95708171D01*
X81761905Y-96184362D02*
X81761905Y-95184362D01*
X81761905Y-95184362D02*
X82142857Y-95184362D01*
X82142857Y-95184362D02*
X82238095Y-95231981D01*
X82238095Y-95231981D02*
X82285714Y-95279600D01*
X82285714Y-95279600D02*
X82333333Y-95374838D01*
X82333333Y-95374838D02*
X82333333Y-95517695D01*
X82333333Y-95517695D02*
X82285714Y-95612933D01*
X82285714Y-95612933D02*
X82238095Y-95660552D01*
X82238095Y-95660552D02*
X82142857Y-95708171D01*
X82142857Y-95708171D02*
X81761905Y-95708171D01*
X82714286Y-95279600D02*
X82761905Y-95231981D01*
X82761905Y-95231981D02*
X82857143Y-95184362D01*
X82857143Y-95184362D02*
X83095238Y-95184362D01*
X83095238Y-95184362D02*
X83190476Y-95231981D01*
X83190476Y-95231981D02*
X83238095Y-95279600D01*
X83238095Y-95279600D02*
X83285714Y-95374838D01*
X83285714Y-95374838D02*
X83285714Y-95470076D01*
X83285714Y-95470076D02*
X83238095Y-95612933D01*
X83238095Y-95612933D02*
X82666667Y-96184362D01*
X82666667Y-96184362D02*
X83285714Y-96184362D01*
D11*
X61257421Y-116452137D02*
X61257421Y-117166422D01*
X61257421Y-117166422D02*
X61209802Y-117309279D01*
X61209802Y-117309279D02*
X61114564Y-117404518D01*
X61114564Y-117404518D02*
X60971707Y-117452137D01*
X60971707Y-117452137D02*
X60876469Y-117452137D01*
X62209802Y-116452137D02*
X61733612Y-116452137D01*
X61733612Y-116452137D02*
X61685993Y-116928327D01*
X61685993Y-116928327D02*
X61733612Y-116880708D01*
X61733612Y-116880708D02*
X61828850Y-116833089D01*
X61828850Y-116833089D02*
X62066945Y-116833089D01*
X62066945Y-116833089D02*
X62162183Y-116880708D01*
X62162183Y-116880708D02*
X62209802Y-116928327D01*
X62209802Y-116928327D02*
X62257421Y-117023565D01*
X62257421Y-117023565D02*
X62257421Y-117261660D01*
X62257421Y-117261660D02*
X62209802Y-117356898D01*
X62209802Y-117356898D02*
X62162183Y-117404518D01*
X62162183Y-117404518D02*
X62066945Y-117452137D01*
X62066945Y-117452137D02*
X61828850Y-117452137D01*
X61828850Y-117452137D02*
X61733612Y-117404518D01*
X61733612Y-117404518D02*
X61685993Y-117356898D01*
X62756198Y-67188826D02*
X62756198Y-67903111D01*
X62756198Y-67903111D02*
X62708579Y-68045968D01*
X62708579Y-68045968D02*
X62613341Y-68141207D01*
X62613341Y-68141207D02*
X62470484Y-68188826D01*
X62470484Y-68188826D02*
X62375246Y-68188826D01*
X63137151Y-67188826D02*
X63756198Y-67188826D01*
X63756198Y-67188826D02*
X63422865Y-67569778D01*
X63422865Y-67569778D02*
X63565722Y-67569778D01*
X63565722Y-67569778D02*
X63660960Y-67617397D01*
X63660960Y-67617397D02*
X63708579Y-67665016D01*
X63708579Y-67665016D02*
X63756198Y-67760254D01*
X63756198Y-67760254D02*
X63756198Y-67998349D01*
X63756198Y-67998349D02*
X63708579Y-68093587D01*
X63708579Y-68093587D02*
X63660960Y-68141207D01*
X63660960Y-68141207D02*
X63565722Y-68188826D01*
X63565722Y-68188826D02*
X63280008Y-68188826D01*
X63280008Y-68188826D02*
X63184770Y-68141207D01*
X63184770Y-68141207D02*
X63137151Y-68093587D01*
D12*
X52512665Y-109131811D02*
X52036474Y-109465144D01*
X52512665Y-109703239D02*
X51512665Y-109703239D01*
X51512665Y-109703239D02*
X51512665Y-109322287D01*
X51512665Y-109322287D02*
X51560284Y-109227049D01*
X51560284Y-109227049D02*
X51607903Y-109179430D01*
X51607903Y-109179430D02*
X51703141Y-109131811D01*
X51703141Y-109131811D02*
X51845998Y-109131811D01*
X51845998Y-109131811D02*
X51941236Y-109179430D01*
X51941236Y-109179430D02*
X51988855Y-109227049D01*
X51988855Y-109227049D02*
X52036474Y-109322287D01*
X52036474Y-109322287D02*
X52036474Y-109703239D01*
X52512665Y-108179430D02*
X52512665Y-108750858D01*
X52512665Y-108465144D02*
X51512665Y-108465144D01*
X51512665Y-108465144D02*
X51655522Y-108560382D01*
X51655522Y-108560382D02*
X51750760Y-108655620D01*
X51750760Y-108655620D02*
X51798379Y-108750858D01*
D11*
X62878110Y-134979600D02*
X62878110Y-135693885D01*
X62878110Y-135693885D02*
X62830491Y-135836742D01*
X62830491Y-135836742D02*
X62735253Y-135931981D01*
X62735253Y-135931981D02*
X62592396Y-135979600D01*
X62592396Y-135979600D02*
X62497158Y-135979600D01*
X63782872Y-134979600D02*
X63592396Y-134979600D01*
X63592396Y-134979600D02*
X63497158Y-135027219D01*
X63497158Y-135027219D02*
X63449539Y-135074838D01*
X63449539Y-135074838D02*
X63354301Y-135217695D01*
X63354301Y-135217695D02*
X63306682Y-135408171D01*
X63306682Y-135408171D02*
X63306682Y-135789123D01*
X63306682Y-135789123D02*
X63354301Y-135884361D01*
X63354301Y-135884361D02*
X63401920Y-135931981D01*
X63401920Y-135931981D02*
X63497158Y-135979600D01*
X63497158Y-135979600D02*
X63687634Y-135979600D01*
X63687634Y-135979600D02*
X63782872Y-135931981D01*
X63782872Y-135931981D02*
X63830491Y-135884361D01*
X63830491Y-135884361D02*
X63878110Y-135789123D01*
X63878110Y-135789123D02*
X63878110Y-135551028D01*
X63878110Y-135551028D02*
X63830491Y-135455790D01*
X63830491Y-135455790D02*
X63782872Y-135408171D01*
X63782872Y-135408171D02*
X63687634Y-135360552D01*
X63687634Y-135360552D02*
X63497158Y-135360552D01*
X63497158Y-135360552D02*
X63401920Y-135408171D01*
X63401920Y-135408171D02*
X63354301Y-135455790D01*
X63354301Y-135455790D02*
X63306682Y-135551028D01*
X72404761Y-89957419D02*
X72071428Y-89481228D01*
X71833333Y-89957419D02*
X71833333Y-88957419D01*
X71833333Y-88957419D02*
X72214285Y-88957419D01*
X72214285Y-88957419D02*
X72309523Y-89005038D01*
X72309523Y-89005038D02*
X72357142Y-89052657D01*
X72357142Y-89052657D02*
X72404761Y-89147895D01*
X72404761Y-89147895D02*
X72404761Y-89290752D01*
X72404761Y-89290752D02*
X72357142Y-89385990D01*
X72357142Y-89385990D02*
X72309523Y-89433609D01*
X72309523Y-89433609D02*
X72214285Y-89481228D01*
X72214285Y-89481228D02*
X71833333Y-89481228D01*
X72690476Y-88957419D02*
X73023809Y-89957419D01*
X73023809Y-89957419D02*
X73357142Y-88957419D01*
X74214285Y-89957419D02*
X73642857Y-89957419D01*
X73928571Y-89957419D02*
X73928571Y-88957419D01*
X73928571Y-88957419D02*
X73833333Y-89100276D01*
X73833333Y-89100276D02*
X73738095Y-89195514D01*
X73738095Y-89195514D02*
X73642857Y-89243133D01*
D12*
X74673471Y-115454819D02*
X74340138Y-114978628D01*
X74102043Y-115454819D02*
X74102043Y-114454819D01*
X74102043Y-114454819D02*
X74482995Y-114454819D01*
X74482995Y-114454819D02*
X74578233Y-114502438D01*
X74578233Y-114502438D02*
X74625852Y-114550057D01*
X74625852Y-114550057D02*
X74673471Y-114645295D01*
X74673471Y-114645295D02*
X74673471Y-114788152D01*
X74673471Y-114788152D02*
X74625852Y-114883390D01*
X74625852Y-114883390D02*
X74578233Y-114931009D01*
X74578233Y-114931009D02*
X74482995Y-114978628D01*
X74482995Y-114978628D02*
X74102043Y-114978628D01*
X75244900Y-114883390D02*
X75149662Y-114835771D01*
X75149662Y-114835771D02*
X75102043Y-114788152D01*
X75102043Y-114788152D02*
X75054424Y-114692914D01*
X75054424Y-114692914D02*
X75054424Y-114645295D01*
X75054424Y-114645295D02*
X75102043Y-114550057D01*
X75102043Y-114550057D02*
X75149662Y-114502438D01*
X75149662Y-114502438D02*
X75244900Y-114454819D01*
X75244900Y-114454819D02*
X75435376Y-114454819D01*
X75435376Y-114454819D02*
X75530614Y-114502438D01*
X75530614Y-114502438D02*
X75578233Y-114550057D01*
X75578233Y-114550057D02*
X75625852Y-114645295D01*
X75625852Y-114645295D02*
X75625852Y-114692914D01*
X75625852Y-114692914D02*
X75578233Y-114788152D01*
X75578233Y-114788152D02*
X75530614Y-114835771D01*
X75530614Y-114835771D02*
X75435376Y-114883390D01*
X75435376Y-114883390D02*
X75244900Y-114883390D01*
X75244900Y-114883390D02*
X75149662Y-114931009D01*
X75149662Y-114931009D02*
X75102043Y-114978628D01*
X75102043Y-114978628D02*
X75054424Y-115073866D01*
X75054424Y-115073866D02*
X75054424Y-115264342D01*
X75054424Y-115264342D02*
X75102043Y-115359580D01*
X75102043Y-115359580D02*
X75149662Y-115407200D01*
X75149662Y-115407200D02*
X75244900Y-115454819D01*
X75244900Y-115454819D02*
X75435376Y-115454819D01*
X75435376Y-115454819D02*
X75530614Y-115407200D01*
X75530614Y-115407200D02*
X75578233Y-115359580D01*
X75578233Y-115359580D02*
X75625852Y-115264342D01*
X75625852Y-115264342D02*
X75625852Y-115073866D01*
X75625852Y-115073866D02*
X75578233Y-114978628D01*
X75578233Y-114978628D02*
X75530614Y-114931009D01*
X75530614Y-114931009D02*
X75435376Y-114883390D01*
X61935893Y-92909349D02*
X61935893Y-93718872D01*
X61935893Y-93718872D02*
X61983512Y-93814110D01*
X61983512Y-93814110D02*
X62031131Y-93861730D01*
X62031131Y-93861730D02*
X62126369Y-93909349D01*
X62126369Y-93909349D02*
X62316845Y-93909349D01*
X62316845Y-93909349D02*
X62412083Y-93861730D01*
X62412083Y-93861730D02*
X62459702Y-93814110D01*
X62459702Y-93814110D02*
X62507321Y-93718872D01*
X62507321Y-93718872D02*
X62507321Y-92909349D01*
X63507321Y-93909349D02*
X62935893Y-93909349D01*
X63221607Y-93909349D02*
X63221607Y-92909349D01*
X63221607Y-92909349D02*
X63126369Y-93052206D01*
X63126369Y-93052206D02*
X63031131Y-93147444D01*
X63031131Y-93147444D02*
X62935893Y-93195063D01*
D11*
%TO.C,J9*%
X99399066Y-121481212D02*
G75*
G02*
X87399066Y-121481212I-6000000J0D01*
G01*
X87399066Y-121481212D02*
G75*
G02*
X99399066Y-121481212I6000000J0D01*
G01*
D13*
%TO.C,R5*%
X55500000Y-113040000D02*
X55500000Y-112270000D01*
X55500000Y-104960000D02*
X55500000Y-105730000D01*
X54130000Y-112270000D02*
X56870000Y-112270000D01*
X56870000Y-105730000D01*
X54130000Y-105730000D01*
X54130000Y-112270000D01*
%TO.C,R11*%
X91850000Y-109370000D02*
X85310000Y-109370000D01*
X85310000Y-106630000D01*
X91850000Y-106630000D01*
X91850000Y-109370000D01*
X84540000Y-108000000D02*
X85310000Y-108000000D01*
X92620000Y-108000000D02*
X91850000Y-108000000D01*
%TO.C,R4*%
X56870000Y-93150000D02*
X54130000Y-93150000D01*
X54130000Y-99690000D01*
X56870000Y-99690000D01*
X56870000Y-93150000D01*
X55500000Y-100460000D02*
X55500000Y-99690000D01*
X55500000Y-92380000D02*
X55500000Y-93150000D01*
%TO.C,J1*%
X73641278Y-47119480D02*
X73641278Y-62619480D01*
X64521278Y-47119480D02*
X73641278Y-47119480D01*
X72331278Y-48419480D02*
X72331278Y-52819480D01*
X65831278Y-48419480D02*
X72331278Y-48419480D01*
X72331278Y-52819480D02*
X73641278Y-52819480D01*
X75031278Y-56909480D02*
X74031278Y-57409480D01*
X73641278Y-56919480D02*
X72331278Y-56919480D01*
X72331278Y-56919480D02*
X72331278Y-61319480D01*
X74031278Y-57409480D02*
X75031278Y-57909480D01*
X75031278Y-57909480D02*
X75031278Y-56909480D01*
X72331278Y-61319480D02*
X65831278Y-61319480D01*
X65831278Y-61319480D02*
X65831278Y-48419480D01*
X73641278Y-62619480D02*
X64521278Y-62619480D01*
X64521278Y-62619480D02*
X64521278Y-47119480D01*
%TO.C,U2*%
X93810000Y-93360000D02*
G75*
G02*
X91810000Y-93360000I-1000000J0D01*
G01*
X87670000Y-93300000D02*
X97950000Y-93300000D01*
X97950000Y-103700000D01*
X87670000Y-103700000D01*
X87670000Y-93300000D01*
X95460000Y-103640000D02*
X95460000Y-93360000D01*
X95460000Y-93360000D02*
X93810000Y-93360000D01*
X91810000Y-93360000D02*
X90160000Y-93360000D01*
X90160000Y-103640000D02*
X95460000Y-103640000D01*
X90160000Y-93360000D02*
X90160000Y-103640000D01*
D11*
%TO.C,J8*%
X86909369Y-121514203D02*
G75*
G02*
X74909369Y-121514203I-6000000J0D01*
G01*
X74909369Y-121514203D02*
G75*
G02*
X86909369Y-121514203I6000000J0D01*
G01*
D13*
%TO.C,R12*%
X96389118Y-132963937D02*
X95619118Y-132963937D01*
X88309118Y-132963937D02*
X89079118Y-132963937D01*
X95619118Y-134333937D02*
X89079118Y-134333937D01*
X89079118Y-131593937D01*
X95619118Y-131593937D01*
X95619118Y-134333937D01*
%TO.C,R7*%
X71091822Y-100000000D02*
X71861822Y-100000000D01*
X79171822Y-100000000D02*
X78401822Y-100000000D01*
X78401822Y-101370000D02*
X71861822Y-101370000D01*
X71861822Y-98630000D01*
X78401822Y-98630000D01*
X78401822Y-101370000D01*
%TO.C,C2*%
X91285656Y-62874291D02*
X86745656Y-62874291D01*
X91285656Y-62818291D02*
X91285656Y-62874291D01*
X86745656Y-60790291D02*
X86745656Y-60734291D01*
X86745656Y-60734291D02*
X91285656Y-60734291D01*
D11*
%TO.C,J10*%
X86836603Y-140006636D02*
G75*
G02*
X74836603Y-140006636I-6000000J0D01*
G01*
X74836603Y-140006636D02*
G75*
G02*
X86836603Y-140006636I6000000J0D01*
G01*
D13*
%TO.C,R3*%
X52000000Y-100380000D02*
X52000000Y-99610000D01*
X52000000Y-92300000D02*
X52000000Y-93070000D01*
X53370000Y-93070000D02*
X50630000Y-93070000D01*
X50630000Y-99610000D01*
X53370000Y-99610000D01*
X53370000Y-93070000D01*
%TO.C,R9*%
X71143025Y-108013363D02*
X71913025Y-108013363D01*
X79223025Y-108013363D02*
X78453025Y-108013363D01*
X78453025Y-109383363D02*
X71913025Y-109383363D01*
X71913025Y-106643363D01*
X78453025Y-106643363D01*
X78453025Y-109383363D01*
%TO.C,C1*%
X58267512Y-60741128D02*
X62807512Y-60741128D01*
X58267512Y-60797128D02*
X58267512Y-60741128D01*
X62807512Y-62825128D02*
X62807512Y-62881128D01*
X62807512Y-62881128D02*
X58267512Y-62881128D01*
%TO.C,RV2*%
X82580000Y-87445000D02*
X82580000Y-86065000D01*
X83960000Y-87445000D02*
X82580000Y-87445000D01*
X85230000Y-84685000D02*
X90420000Y-84685000D01*
X85230000Y-87445000D02*
X85230000Y-84685000D01*
X85230000Y-87445000D02*
X90420000Y-87445000D01*
X90420000Y-87445000D02*
X90420000Y-84685000D01*
D11*
X75500000Y-64065000D02*
X97500000Y-64065000D01*
X97500000Y-88065000D01*
X75500000Y-88065000D01*
X75500000Y-64065000D01*
D13*
%TO.C,R6*%
X53127323Y-133004329D02*
X53897323Y-133004329D01*
X61207323Y-133004329D02*
X60437323Y-133004329D01*
X60437323Y-134374329D02*
X53897323Y-134374329D01*
X53897323Y-131634329D01*
X60437323Y-131634329D01*
X60437323Y-134374329D01*
%TO.C,R10*%
X84460000Y-112553862D02*
X85230000Y-112553862D01*
X92540000Y-112553862D02*
X91770000Y-112553862D01*
X85230000Y-111183862D02*
X91770000Y-111183862D01*
X91770000Y-113923862D01*
X85230000Y-113923862D01*
X85230000Y-111183862D01*
D11*
%TO.C,J4*%
X74500000Y-121502628D02*
G75*
G02*
X62500000Y-121502628I-6000000J0D01*
G01*
X62500000Y-121502628D02*
G75*
G02*
X74500000Y-121502628I6000000J0D01*
G01*
D13*
%TO.C,J2*%
X75908158Y-62619480D02*
X75908158Y-47119480D01*
X85028158Y-62619480D02*
X75908158Y-62619480D01*
X77218158Y-61319480D02*
X77218158Y-48419480D01*
X83718158Y-61319480D02*
X77218158Y-61319480D01*
X86418158Y-57909480D02*
X86418158Y-56909480D01*
X85418158Y-57409480D02*
X86418158Y-57909480D01*
X83718158Y-56919480D02*
X83718158Y-61319480D01*
X85028158Y-56919480D02*
X83718158Y-56919480D01*
X86418158Y-56909480D02*
X85418158Y-57409480D01*
X83718158Y-52819480D02*
X85028158Y-52819480D01*
X77218158Y-48419480D02*
X83718158Y-48419480D01*
X83718158Y-48419480D02*
X83718158Y-52819480D01*
X75908158Y-47119480D02*
X85028158Y-47119480D01*
X85028158Y-47119480D02*
X85028158Y-62619480D01*
%TO.C,R2*%
X79171822Y-95706162D02*
X78401822Y-95706162D01*
X71091822Y-95706162D02*
X71861822Y-95706162D01*
X78401822Y-97076162D02*
X71861822Y-97076162D01*
X71861822Y-94336162D01*
X78401822Y-94336162D01*
X78401822Y-97076162D01*
D11*
%TO.C,J5*%
X62090755Y-121494718D02*
G75*
G02*
X50090755Y-121494718I-6000000J0D01*
G01*
X50090755Y-121494718D02*
G75*
G02*
X62090755Y-121494718I6000000J0D01*
G01*
D13*
%TO.C,R1*%
X52000000Y-113040000D02*
X52000000Y-112270000D01*
X52000000Y-104960000D02*
X52000000Y-105730000D01*
X53370000Y-105730000D02*
X50630000Y-105730000D01*
X50630000Y-112270000D01*
X53370000Y-112270000D01*
X53370000Y-105730000D01*
D11*
%TO.C,J6*%
X74711444Y-139997243D02*
G75*
G02*
X62711444Y-139997243I-6000000J0D01*
G01*
X62711444Y-139997243D02*
G75*
G02*
X74711444Y-139997243I6000000J0D01*
G01*
D13*
%TO.C,RV1*%
X59165000Y-87445000D02*
X59165000Y-86065000D01*
X60545000Y-87445000D02*
X59165000Y-87445000D01*
X61815000Y-84685000D02*
X67005000Y-84685000D01*
X61815000Y-87445000D02*
X61815000Y-84685000D01*
X61815000Y-87445000D02*
X67005000Y-87445000D01*
X67005000Y-87445000D02*
X67005000Y-84685000D01*
D11*
X52085000Y-64065000D02*
X74085000Y-64065000D01*
X74085000Y-88065000D01*
X52085000Y-88065000D01*
X52085000Y-64065000D01*
D13*
%TO.C,R8*%
X71220138Y-112493625D02*
X71990138Y-112493625D01*
X79300138Y-112493625D02*
X78530138Y-112493625D01*
X71990138Y-111123625D02*
X78530138Y-111123625D01*
X78530138Y-113863625D01*
X71990138Y-113863625D01*
X71990138Y-111123625D01*
%TO.C,U1*%
X60047798Y-94454530D02*
X60047798Y-114894530D01*
X60047798Y-114894530D02*
X65347798Y-114894530D01*
X61697798Y-94454530D02*
X60047798Y-94454530D01*
X65347798Y-94454530D02*
X63697798Y-94454530D01*
X65347798Y-114894530D02*
X65347798Y-94454530D01*
X57557798Y-94394530D02*
X67837798Y-94394530D01*
X67837798Y-114954530D01*
X57557798Y-114954530D01*
X57557798Y-94394530D01*
X63697798Y-94454530D02*
G75*
G02*
X61697798Y-94454530I-1000000J0D01*
G01*
%TD*%
M02*
