%TF.GenerationSoftware,KiCad,Pcbnew,9.0.7*%
%TF.CreationDate,2026-02-08T19:41:06+11:00*%
%TF.ProjectId,voltage-controlled-amplifier,766f6c74-6167-4652-9d63-6f6e74726f6c,rev?*%
%TF.SameCoordinates,Original*%
%TF.FileFunction,Legend,Bot*%
%TF.FilePolarity,Positive*%
%FSLAX46Y46*%
G04 Gerber Fmt 4.6, Leading zero omitted, Abs format (unit mm)*
G04 Created by KiCad (PCBNEW 9.0.7) date 2026-02-08 19:41:06*
%MOMM*%
%LPD*%
G01*
G04 APERTURE LIST*
%ADD10C,0.100000*%
G04 APERTURE END LIST*
D10*
X57233333Y-142083609D02*
X57566666Y-142083609D01*
X57566666Y-142607419D02*
X57566666Y-141607419D01*
X57566666Y-141607419D02*
X57090476Y-141607419D01*
X56280952Y-141940752D02*
X56280952Y-142607419D01*
X56519047Y-141559800D02*
X56757142Y-142274085D01*
X56757142Y-142274085D02*
X56138095Y-142274085D01*
X92933333Y-142133609D02*
X93266666Y-142133609D01*
X93266666Y-142657419D02*
X93266666Y-141657419D01*
X93266666Y-141657419D02*
X92790476Y-141657419D01*
X92504761Y-141657419D02*
X91885714Y-141657419D01*
X91885714Y-141657419D02*
X92219047Y-142038371D01*
X92219047Y-142038371D02*
X92076190Y-142038371D01*
X92076190Y-142038371D02*
X91980952Y-142085990D01*
X91980952Y-142085990D02*
X91933333Y-142133609D01*
X91933333Y-142133609D02*
X91885714Y-142228847D01*
X91885714Y-142228847D02*
X91885714Y-142466942D01*
X91885714Y-142466942D02*
X91933333Y-142562180D01*
X91933333Y-142562180D02*
X91980952Y-142609800D01*
X91980952Y-142609800D02*
X92076190Y-142657419D01*
X92076190Y-142657419D02*
X92361904Y-142657419D01*
X92361904Y-142657419D02*
X92457142Y-142609800D01*
X92457142Y-142609800D02*
X92504761Y-142562180D01*
X57333333Y-50933609D02*
X57666666Y-50933609D01*
X57666666Y-51457419D02*
X57666666Y-50457419D01*
X57666666Y-50457419D02*
X57190476Y-50457419D01*
X56857142Y-50552657D02*
X56809523Y-50505038D01*
X56809523Y-50505038D02*
X56714285Y-50457419D01*
X56714285Y-50457419D02*
X56476190Y-50457419D01*
X56476190Y-50457419D02*
X56380952Y-50505038D01*
X56380952Y-50505038D02*
X56333333Y-50552657D01*
X56333333Y-50552657D02*
X56285714Y-50647895D01*
X56285714Y-50647895D02*
X56285714Y-50743133D01*
X56285714Y-50743133D02*
X56333333Y-50885990D01*
X56333333Y-50885990D02*
X56904761Y-51457419D01*
X56904761Y-51457419D02*
X56285714Y-51457419D01*
X92833333Y-50933609D02*
X93166666Y-50933609D01*
X93166666Y-51457419D02*
X93166666Y-50457419D01*
X93166666Y-50457419D02*
X92690476Y-50457419D01*
X91785714Y-51457419D02*
X92357142Y-51457419D01*
X92071428Y-51457419D02*
X92071428Y-50457419D01*
X92071428Y-50457419D02*
X92166666Y-50600276D01*
X92166666Y-50600276D02*
X92261904Y-50695514D01*
X92261904Y-50695514D02*
X92357142Y-50743133D01*
%TO.C,F4*%
X63400000Y-136150000D02*
X50400000Y-136150000D01*
X50400000Y-149650000D01*
X63400000Y-149650000D01*
X63400000Y-136150000D01*
%TO.C,F3*%
X99100000Y-136200000D02*
X86100000Y-136200000D01*
X86100000Y-149700000D01*
X99100000Y-149700000D01*
X99100000Y-136200000D01*
%TO.C,F2*%
X63500000Y-45000000D02*
X50500000Y-45000000D01*
X50500000Y-58500000D01*
X63500000Y-58500000D01*
X63500000Y-45000000D01*
%TO.C,F1*%
X99000000Y-45000000D02*
X86000000Y-45000000D01*
X86000000Y-58500000D01*
X99000000Y-58500000D01*
X99000000Y-45000000D01*
%TD*%
M02*
