%TF.GenerationSoftware,KiCad,Pcbnew,9.0.6*%
%TF.CreationDate,2026-01-21T23:26:13+11:00*%
%TF.ProjectId,voltage-controlled-amplifier,766f6c74-6167-4652-9d63-6f6e74726f6c,rev?*%
%TF.SameCoordinates,Original*%
%TF.FileFunction,Legend,Top*%
%TF.FilePolarity,Positive*%
%FSLAX46Y46*%
G04 Gerber Fmt 4.6, Leading zero omitted, Abs format (unit mm)*
G04 Created by KiCad (PCBNEW 9.0.6) date 2026-01-21 23:26:13*
%MOMM*%
%LPD*%
G01*
G04 APERTURE LIST*
%ADD10C,0.300000*%
%ADD11C,0.100000*%
%ADD12C,0.150000*%
%ADD13C,0.120000*%
%ADD14C,0.000000*%
G04 APERTURE END LIST*
D10*
X90868501Y-130174499D02*
X90797073Y-130245928D01*
X90797073Y-130245928D02*
X90582787Y-130317356D01*
X90582787Y-130317356D02*
X90439930Y-130317356D01*
X90439930Y-130317356D02*
X90225644Y-130245928D01*
X90225644Y-130245928D02*
X90082787Y-130103070D01*
X90082787Y-130103070D02*
X90011358Y-129960213D01*
X90011358Y-129960213D02*
X89939930Y-129674499D01*
X89939930Y-129674499D02*
X89939930Y-129460213D01*
X89939930Y-129460213D02*
X90011358Y-129174499D01*
X90011358Y-129174499D02*
X90082787Y-129031642D01*
X90082787Y-129031642D02*
X90225644Y-128888785D01*
X90225644Y-128888785D02*
X90439930Y-128817356D01*
X90439930Y-128817356D02*
X90582787Y-128817356D01*
X90582787Y-128817356D02*
X90797073Y-128888785D01*
X90797073Y-128888785D02*
X90868501Y-128960213D01*
X91297073Y-128817356D02*
X91797073Y-130317356D01*
X91797073Y-130317356D02*
X92297073Y-128817356D01*
X93868501Y-128960213D02*
X93939929Y-128888785D01*
X93939929Y-128888785D02*
X94082787Y-128817356D01*
X94082787Y-128817356D02*
X94439929Y-128817356D01*
X94439929Y-128817356D02*
X94582787Y-128888785D01*
X94582787Y-128888785D02*
X94654215Y-128960213D01*
X94654215Y-128960213D02*
X94725644Y-129103070D01*
X94725644Y-129103070D02*
X94725644Y-129245928D01*
X94725644Y-129245928D02*
X94654215Y-129460213D01*
X94654215Y-129460213D02*
X93797072Y-130317356D01*
X93797072Y-130317356D02*
X94725644Y-130317356D01*
X66261432Y-130320484D02*
X66261432Y-128820484D01*
X66975718Y-130320484D02*
X66975718Y-128820484D01*
X66975718Y-128820484D02*
X67832861Y-130320484D01*
X67832861Y-130320484D02*
X67832861Y-128820484D01*
X70475719Y-130320484D02*
X69618576Y-130320484D01*
X70047147Y-130320484D02*
X70047147Y-128820484D01*
X70047147Y-128820484D02*
X69904290Y-129034770D01*
X69904290Y-129034770D02*
X69761433Y-129177627D01*
X69761433Y-129177627D02*
X69618576Y-129249056D01*
X78340225Y-147300828D02*
X78625939Y-147300828D01*
X78625939Y-147300828D02*
X78768796Y-147372257D01*
X78768796Y-147372257D02*
X78911653Y-147515114D01*
X78911653Y-147515114D02*
X78983082Y-147800828D01*
X78983082Y-147800828D02*
X78983082Y-148300828D01*
X78983082Y-148300828D02*
X78911653Y-148586542D01*
X78911653Y-148586542D02*
X78768796Y-148729400D01*
X78768796Y-148729400D02*
X78625939Y-148800828D01*
X78625939Y-148800828D02*
X78340225Y-148800828D01*
X78340225Y-148800828D02*
X78197368Y-148729400D01*
X78197368Y-148729400D02*
X78054510Y-148586542D01*
X78054510Y-148586542D02*
X77983082Y-148300828D01*
X77983082Y-148300828D02*
X77983082Y-147800828D01*
X77983082Y-147800828D02*
X78054510Y-147515114D01*
X78054510Y-147515114D02*
X78197368Y-147372257D01*
X78197368Y-147372257D02*
X78340225Y-147300828D01*
X79625939Y-147300828D02*
X79625939Y-148515114D01*
X79625939Y-148515114D02*
X79697368Y-148657971D01*
X79697368Y-148657971D02*
X79768797Y-148729400D01*
X79768797Y-148729400D02*
X79911654Y-148800828D01*
X79911654Y-148800828D02*
X80197368Y-148800828D01*
X80197368Y-148800828D02*
X80340225Y-148729400D01*
X80340225Y-148729400D02*
X80411654Y-148657971D01*
X80411654Y-148657971D02*
X80483082Y-148515114D01*
X80483082Y-148515114D02*
X80483082Y-147300828D01*
X80983083Y-147300828D02*
X81840226Y-147300828D01*
X81411654Y-148800828D02*
X81411654Y-147300828D01*
X83411654Y-147443685D02*
X83483082Y-147372257D01*
X83483082Y-147372257D02*
X83625940Y-147300828D01*
X83625940Y-147300828D02*
X83983082Y-147300828D01*
X83983082Y-147300828D02*
X84125940Y-147372257D01*
X84125940Y-147372257D02*
X84197368Y-147443685D01*
X84197368Y-147443685D02*
X84268797Y-147586542D01*
X84268797Y-147586542D02*
X84268797Y-147729400D01*
X84268797Y-147729400D02*
X84197368Y-147943685D01*
X84197368Y-147943685D02*
X83340225Y-148800828D01*
X83340225Y-148800828D02*
X84268797Y-148800828D01*
X78385452Y-130333589D02*
X78385452Y-128833589D01*
X79099738Y-130333589D02*
X79099738Y-128833589D01*
X79099738Y-128833589D02*
X79956881Y-130333589D01*
X79956881Y-130333589D02*
X79956881Y-128833589D01*
X81742596Y-128976446D02*
X81814024Y-128905018D01*
X81814024Y-128905018D02*
X81956882Y-128833589D01*
X81956882Y-128833589D02*
X82314024Y-128833589D01*
X82314024Y-128833589D02*
X82456882Y-128905018D01*
X82456882Y-128905018D02*
X82528310Y-128976446D01*
X82528310Y-128976446D02*
X82599739Y-129119303D01*
X82599739Y-129119303D02*
X82599739Y-129262161D01*
X82599739Y-129262161D02*
X82528310Y-129476446D01*
X82528310Y-129476446D02*
X81671167Y-130333589D01*
X81671167Y-130333589D02*
X82599739Y-130333589D01*
X83554510Y-89515114D02*
X83768796Y-89586542D01*
X83768796Y-89586542D02*
X83840225Y-89657971D01*
X83840225Y-89657971D02*
X83911653Y-89800828D01*
X83911653Y-89800828D02*
X83911653Y-90015114D01*
X83911653Y-90015114D02*
X83840225Y-90157971D01*
X83840225Y-90157971D02*
X83768796Y-90229400D01*
X83768796Y-90229400D02*
X83625939Y-90300828D01*
X83625939Y-90300828D02*
X83054510Y-90300828D01*
X83054510Y-90300828D02*
X83054510Y-88800828D01*
X83054510Y-88800828D02*
X83554510Y-88800828D01*
X83554510Y-88800828D02*
X83697368Y-88872257D01*
X83697368Y-88872257D02*
X83768796Y-88943685D01*
X83768796Y-88943685D02*
X83840225Y-89086542D01*
X83840225Y-89086542D02*
X83840225Y-89229400D01*
X83840225Y-89229400D02*
X83768796Y-89372257D01*
X83768796Y-89372257D02*
X83697368Y-89443685D01*
X83697368Y-89443685D02*
X83554510Y-89515114D01*
X83554510Y-89515114D02*
X83054510Y-89515114D01*
X84554510Y-90300828D02*
X84554510Y-88800828D01*
X85197368Y-89872257D02*
X85911654Y-89872257D01*
X85054511Y-90300828D02*
X85554511Y-88800828D01*
X85554511Y-88800828D02*
X86054511Y-90300828D01*
X86483082Y-90229400D02*
X86697368Y-90300828D01*
X86697368Y-90300828D02*
X87054510Y-90300828D01*
X87054510Y-90300828D02*
X87197368Y-90229400D01*
X87197368Y-90229400D02*
X87268796Y-90157971D01*
X87268796Y-90157971D02*
X87340225Y-90015114D01*
X87340225Y-90015114D02*
X87340225Y-89872257D01*
X87340225Y-89872257D02*
X87268796Y-89729400D01*
X87268796Y-89729400D02*
X87197368Y-89657971D01*
X87197368Y-89657971D02*
X87054510Y-89586542D01*
X87054510Y-89586542D02*
X86768796Y-89515114D01*
X86768796Y-89515114D02*
X86625939Y-89443685D01*
X86625939Y-89443685D02*
X86554510Y-89372257D01*
X86554510Y-89372257D02*
X86483082Y-89229400D01*
X86483082Y-89229400D02*
X86483082Y-89086542D01*
X86483082Y-89086542D02*
X86554510Y-88943685D01*
X86554510Y-88943685D02*
X86625939Y-88872257D01*
X86625939Y-88872257D02*
X86768796Y-88800828D01*
X86768796Y-88800828D02*
X87125939Y-88800828D01*
X87125939Y-88800828D02*
X87340225Y-88872257D01*
X89054510Y-88943685D02*
X89125938Y-88872257D01*
X89125938Y-88872257D02*
X89268796Y-88800828D01*
X89268796Y-88800828D02*
X89625938Y-88800828D01*
X89625938Y-88800828D02*
X89768796Y-88872257D01*
X89768796Y-88872257D02*
X89840224Y-88943685D01*
X89840224Y-88943685D02*
X89911653Y-89086542D01*
X89911653Y-89086542D02*
X89911653Y-89229400D01*
X89911653Y-89229400D02*
X89840224Y-89443685D01*
X89840224Y-89443685D02*
X88983081Y-90300828D01*
X88983081Y-90300828D02*
X89911653Y-90300828D01*
X60554510Y-89515114D02*
X60768796Y-89586542D01*
X60768796Y-89586542D02*
X60840225Y-89657971D01*
X60840225Y-89657971D02*
X60911653Y-89800828D01*
X60911653Y-89800828D02*
X60911653Y-90015114D01*
X60911653Y-90015114D02*
X60840225Y-90157971D01*
X60840225Y-90157971D02*
X60768796Y-90229400D01*
X60768796Y-90229400D02*
X60625939Y-90300828D01*
X60625939Y-90300828D02*
X60054510Y-90300828D01*
X60054510Y-90300828D02*
X60054510Y-88800828D01*
X60054510Y-88800828D02*
X60554510Y-88800828D01*
X60554510Y-88800828D02*
X60697368Y-88872257D01*
X60697368Y-88872257D02*
X60768796Y-88943685D01*
X60768796Y-88943685D02*
X60840225Y-89086542D01*
X60840225Y-89086542D02*
X60840225Y-89229400D01*
X60840225Y-89229400D02*
X60768796Y-89372257D01*
X60768796Y-89372257D02*
X60697368Y-89443685D01*
X60697368Y-89443685D02*
X60554510Y-89515114D01*
X60554510Y-89515114D02*
X60054510Y-89515114D01*
X61554510Y-90300828D02*
X61554510Y-88800828D01*
X62197368Y-89872257D02*
X62911654Y-89872257D01*
X62054511Y-90300828D02*
X62554511Y-88800828D01*
X62554511Y-88800828D02*
X63054511Y-90300828D01*
X63483082Y-90229400D02*
X63697368Y-90300828D01*
X63697368Y-90300828D02*
X64054510Y-90300828D01*
X64054510Y-90300828D02*
X64197368Y-90229400D01*
X64197368Y-90229400D02*
X64268796Y-90157971D01*
X64268796Y-90157971D02*
X64340225Y-90015114D01*
X64340225Y-90015114D02*
X64340225Y-89872257D01*
X64340225Y-89872257D02*
X64268796Y-89729400D01*
X64268796Y-89729400D02*
X64197368Y-89657971D01*
X64197368Y-89657971D02*
X64054510Y-89586542D01*
X64054510Y-89586542D02*
X63768796Y-89515114D01*
X63768796Y-89515114D02*
X63625939Y-89443685D01*
X63625939Y-89443685D02*
X63554510Y-89372257D01*
X63554510Y-89372257D02*
X63483082Y-89229400D01*
X63483082Y-89229400D02*
X63483082Y-89086542D01*
X63483082Y-89086542D02*
X63554510Y-88943685D01*
X63554510Y-88943685D02*
X63625939Y-88872257D01*
X63625939Y-88872257D02*
X63768796Y-88800828D01*
X63768796Y-88800828D02*
X64125939Y-88800828D01*
X64125939Y-88800828D02*
X64340225Y-88872257D01*
X66911653Y-90300828D02*
X66054510Y-90300828D01*
X66483081Y-90300828D02*
X66483081Y-88800828D01*
X66483081Y-88800828D02*
X66340224Y-89015114D01*
X66340224Y-89015114D02*
X66197367Y-89157971D01*
X66197367Y-89157971D02*
X66054510Y-89229400D01*
X66340225Y-147300828D02*
X66625939Y-147300828D01*
X66625939Y-147300828D02*
X66768796Y-147372257D01*
X66768796Y-147372257D02*
X66911653Y-147515114D01*
X66911653Y-147515114D02*
X66983082Y-147800828D01*
X66983082Y-147800828D02*
X66983082Y-148300828D01*
X66983082Y-148300828D02*
X66911653Y-148586542D01*
X66911653Y-148586542D02*
X66768796Y-148729400D01*
X66768796Y-148729400D02*
X66625939Y-148800828D01*
X66625939Y-148800828D02*
X66340225Y-148800828D01*
X66340225Y-148800828D02*
X66197368Y-148729400D01*
X66197368Y-148729400D02*
X66054510Y-148586542D01*
X66054510Y-148586542D02*
X65983082Y-148300828D01*
X65983082Y-148300828D02*
X65983082Y-147800828D01*
X65983082Y-147800828D02*
X66054510Y-147515114D01*
X66054510Y-147515114D02*
X66197368Y-147372257D01*
X66197368Y-147372257D02*
X66340225Y-147300828D01*
X67625939Y-147300828D02*
X67625939Y-148515114D01*
X67625939Y-148515114D02*
X67697368Y-148657971D01*
X67697368Y-148657971D02*
X67768797Y-148729400D01*
X67768797Y-148729400D02*
X67911654Y-148800828D01*
X67911654Y-148800828D02*
X68197368Y-148800828D01*
X68197368Y-148800828D02*
X68340225Y-148729400D01*
X68340225Y-148729400D02*
X68411654Y-148657971D01*
X68411654Y-148657971D02*
X68483082Y-148515114D01*
X68483082Y-148515114D02*
X68483082Y-147300828D01*
X68983083Y-147300828D02*
X69840226Y-147300828D01*
X69411654Y-148800828D02*
X69411654Y-147300828D01*
X72268797Y-148800828D02*
X71411654Y-148800828D01*
X71840225Y-148800828D02*
X71840225Y-147300828D01*
X71840225Y-147300828D02*
X71697368Y-147515114D01*
X71697368Y-147515114D02*
X71554511Y-147657971D01*
X71554511Y-147657971D02*
X71411654Y-147729400D01*
X55002408Y-130152689D02*
X54930980Y-130224118D01*
X54930980Y-130224118D02*
X54716694Y-130295546D01*
X54716694Y-130295546D02*
X54573837Y-130295546D01*
X54573837Y-130295546D02*
X54359551Y-130224118D01*
X54359551Y-130224118D02*
X54216694Y-130081260D01*
X54216694Y-130081260D02*
X54145265Y-129938403D01*
X54145265Y-129938403D02*
X54073837Y-129652689D01*
X54073837Y-129652689D02*
X54073837Y-129438403D01*
X54073837Y-129438403D02*
X54145265Y-129152689D01*
X54145265Y-129152689D02*
X54216694Y-129009832D01*
X54216694Y-129009832D02*
X54359551Y-128866975D01*
X54359551Y-128866975D02*
X54573837Y-128795546D01*
X54573837Y-128795546D02*
X54716694Y-128795546D01*
X54716694Y-128795546D02*
X54930980Y-128866975D01*
X54930980Y-128866975D02*
X55002408Y-128938403D01*
X55430980Y-128795546D02*
X55930980Y-130295546D01*
X55930980Y-130295546D02*
X56430980Y-128795546D01*
X58859551Y-130295546D02*
X58002408Y-130295546D01*
X58430979Y-130295546D02*
X58430979Y-128795546D01*
X58430979Y-128795546D02*
X58288122Y-129009832D01*
X58288122Y-129009832D02*
X58145265Y-129152689D01*
X58145265Y-129152689D02*
X58002408Y-129224118D01*
D11*
X52976190Y-142542503D02*
X53309523Y-143542503D01*
X53309523Y-143542503D02*
X53642856Y-142542503D01*
X54166666Y-142542503D02*
X54357142Y-142542503D01*
X54357142Y-142542503D02*
X54452380Y-142590122D01*
X54452380Y-142590122D02*
X54547618Y-142685360D01*
X54547618Y-142685360D02*
X54595237Y-142875836D01*
X54595237Y-142875836D02*
X54595237Y-143209169D01*
X54595237Y-143209169D02*
X54547618Y-143399645D01*
X54547618Y-143399645D02*
X54452380Y-143494884D01*
X54452380Y-143494884D02*
X54357142Y-143542503D01*
X54357142Y-143542503D02*
X54166666Y-143542503D01*
X54166666Y-143542503D02*
X54071428Y-143494884D01*
X54071428Y-143494884D02*
X53976190Y-143399645D01*
X53976190Y-143399645D02*
X53928571Y-143209169D01*
X53928571Y-143209169D02*
X53928571Y-142875836D01*
X53928571Y-142875836D02*
X53976190Y-142685360D01*
X53976190Y-142685360D02*
X54071428Y-142590122D01*
X54071428Y-142590122D02*
X54166666Y-142542503D01*
X55499999Y-143542503D02*
X55023809Y-143542503D01*
X55023809Y-143542503D02*
X55023809Y-142542503D01*
X55690476Y-142542503D02*
X56261904Y-142542503D01*
X55976190Y-143542503D02*
X55976190Y-142542503D01*
X56547619Y-143256788D02*
X57023809Y-143256788D01*
X56452381Y-143542503D02*
X56785714Y-142542503D01*
X56785714Y-142542503D02*
X57119047Y-143542503D01*
X57976190Y-142590122D02*
X57880952Y-142542503D01*
X57880952Y-142542503D02*
X57738095Y-142542503D01*
X57738095Y-142542503D02*
X57595238Y-142590122D01*
X57595238Y-142590122D02*
X57500000Y-142685360D01*
X57500000Y-142685360D02*
X57452381Y-142780598D01*
X57452381Y-142780598D02*
X57404762Y-142971074D01*
X57404762Y-142971074D02*
X57404762Y-143113931D01*
X57404762Y-143113931D02*
X57452381Y-143304407D01*
X57452381Y-143304407D02*
X57500000Y-143399645D01*
X57500000Y-143399645D02*
X57595238Y-143494884D01*
X57595238Y-143494884D02*
X57738095Y-143542503D01*
X57738095Y-143542503D02*
X57833333Y-143542503D01*
X57833333Y-143542503D02*
X57976190Y-143494884D01*
X57976190Y-143494884D02*
X58023809Y-143447264D01*
X58023809Y-143447264D02*
X58023809Y-143113931D01*
X58023809Y-143113931D02*
X57833333Y-143113931D01*
X58452381Y-143018693D02*
X58785714Y-143018693D01*
X58928571Y-143542503D02*
X58452381Y-143542503D01*
X58452381Y-143542503D02*
X58452381Y-142542503D01*
X58452381Y-142542503D02*
X58928571Y-142542503D01*
X52095237Y-145057208D02*
X52047618Y-145104828D01*
X52047618Y-145104828D02*
X51904761Y-145152447D01*
X51904761Y-145152447D02*
X51809523Y-145152447D01*
X51809523Y-145152447D02*
X51666666Y-145104828D01*
X51666666Y-145104828D02*
X51571428Y-145009589D01*
X51571428Y-145009589D02*
X51523809Y-144914351D01*
X51523809Y-144914351D02*
X51476190Y-144723875D01*
X51476190Y-144723875D02*
X51476190Y-144581018D01*
X51476190Y-144581018D02*
X51523809Y-144390542D01*
X51523809Y-144390542D02*
X51571428Y-144295304D01*
X51571428Y-144295304D02*
X51666666Y-144200066D01*
X51666666Y-144200066D02*
X51809523Y-144152447D01*
X51809523Y-144152447D02*
X51904761Y-144152447D01*
X51904761Y-144152447D02*
X52047618Y-144200066D01*
X52047618Y-144200066D02*
X52095237Y-144247685D01*
X52714285Y-144152447D02*
X52904761Y-144152447D01*
X52904761Y-144152447D02*
X52999999Y-144200066D01*
X52999999Y-144200066D02*
X53095237Y-144295304D01*
X53095237Y-144295304D02*
X53142856Y-144485780D01*
X53142856Y-144485780D02*
X53142856Y-144819113D01*
X53142856Y-144819113D02*
X53095237Y-145009589D01*
X53095237Y-145009589D02*
X52999999Y-145104828D01*
X52999999Y-145104828D02*
X52904761Y-145152447D01*
X52904761Y-145152447D02*
X52714285Y-145152447D01*
X52714285Y-145152447D02*
X52619047Y-145104828D01*
X52619047Y-145104828D02*
X52523809Y-145009589D01*
X52523809Y-145009589D02*
X52476190Y-144819113D01*
X52476190Y-144819113D02*
X52476190Y-144485780D01*
X52476190Y-144485780D02*
X52523809Y-144295304D01*
X52523809Y-144295304D02*
X52619047Y-144200066D01*
X52619047Y-144200066D02*
X52714285Y-144152447D01*
X53571428Y-145152447D02*
X53571428Y-144152447D01*
X53571428Y-144152447D02*
X54142856Y-145152447D01*
X54142856Y-145152447D02*
X54142856Y-144152447D01*
X54476190Y-144152447D02*
X55047618Y-144152447D01*
X54761904Y-145152447D02*
X54761904Y-144152447D01*
X55952380Y-145152447D02*
X55619047Y-144676256D01*
X55380952Y-145152447D02*
X55380952Y-144152447D01*
X55380952Y-144152447D02*
X55761904Y-144152447D01*
X55761904Y-144152447D02*
X55857142Y-144200066D01*
X55857142Y-144200066D02*
X55904761Y-144247685D01*
X55904761Y-144247685D02*
X55952380Y-144342923D01*
X55952380Y-144342923D02*
X55952380Y-144485780D01*
X55952380Y-144485780D02*
X55904761Y-144581018D01*
X55904761Y-144581018D02*
X55857142Y-144628637D01*
X55857142Y-144628637D02*
X55761904Y-144676256D01*
X55761904Y-144676256D02*
X55380952Y-144676256D01*
X56571428Y-144152447D02*
X56761904Y-144152447D01*
X56761904Y-144152447D02*
X56857142Y-144200066D01*
X56857142Y-144200066D02*
X56952380Y-144295304D01*
X56952380Y-144295304D02*
X56999999Y-144485780D01*
X56999999Y-144485780D02*
X56999999Y-144819113D01*
X56999999Y-144819113D02*
X56952380Y-145009589D01*
X56952380Y-145009589D02*
X56857142Y-145104828D01*
X56857142Y-145104828D02*
X56761904Y-145152447D01*
X56761904Y-145152447D02*
X56571428Y-145152447D01*
X56571428Y-145152447D02*
X56476190Y-145104828D01*
X56476190Y-145104828D02*
X56380952Y-145009589D01*
X56380952Y-145009589D02*
X56333333Y-144819113D01*
X56333333Y-144819113D02*
X56333333Y-144485780D01*
X56333333Y-144485780D02*
X56380952Y-144295304D01*
X56380952Y-144295304D02*
X56476190Y-144200066D01*
X56476190Y-144200066D02*
X56571428Y-144152447D01*
X57904761Y-145152447D02*
X57428571Y-145152447D01*
X57428571Y-145152447D02*
X57428571Y-144152447D01*
X58714285Y-145152447D02*
X58238095Y-145152447D01*
X58238095Y-145152447D02*
X58238095Y-144152447D01*
X59047619Y-144628637D02*
X59380952Y-144628637D01*
X59523809Y-145152447D02*
X59047619Y-145152447D01*
X59047619Y-145152447D02*
X59047619Y-144152447D01*
X59047619Y-144152447D02*
X59523809Y-144152447D01*
X59952381Y-145152447D02*
X59952381Y-144152447D01*
X59952381Y-144152447D02*
X60190476Y-144152447D01*
X60190476Y-144152447D02*
X60333333Y-144200066D01*
X60333333Y-144200066D02*
X60428571Y-144295304D01*
X60428571Y-144295304D02*
X60476190Y-144390542D01*
X60476190Y-144390542D02*
X60523809Y-144581018D01*
X60523809Y-144581018D02*
X60523809Y-144723875D01*
X60523809Y-144723875D02*
X60476190Y-144914351D01*
X60476190Y-144914351D02*
X60428571Y-145009589D01*
X60428571Y-145009589D02*
X60333333Y-145104828D01*
X60333333Y-145104828D02*
X60190476Y-145152447D01*
X60190476Y-145152447D02*
X59952381Y-145152447D01*
X52428572Y-146476676D02*
X52904762Y-146476676D01*
X52333334Y-146762391D02*
X52666667Y-145762391D01*
X52666667Y-145762391D02*
X53000000Y-146762391D01*
X53333334Y-146762391D02*
X53333334Y-145762391D01*
X53333334Y-145762391D02*
X53666667Y-146476676D01*
X53666667Y-146476676D02*
X54000000Y-145762391D01*
X54000000Y-145762391D02*
X54000000Y-146762391D01*
X54476191Y-146762391D02*
X54476191Y-145762391D01*
X54476191Y-145762391D02*
X54857143Y-145762391D01*
X54857143Y-145762391D02*
X54952381Y-145810010D01*
X54952381Y-145810010D02*
X55000000Y-145857629D01*
X55000000Y-145857629D02*
X55047619Y-145952867D01*
X55047619Y-145952867D02*
X55047619Y-146095724D01*
X55047619Y-146095724D02*
X55000000Y-146190962D01*
X55000000Y-146190962D02*
X54952381Y-146238581D01*
X54952381Y-146238581D02*
X54857143Y-146286200D01*
X54857143Y-146286200D02*
X54476191Y-146286200D01*
X55952381Y-146762391D02*
X55476191Y-146762391D01*
X55476191Y-146762391D02*
X55476191Y-145762391D01*
X56285715Y-146762391D02*
X56285715Y-145762391D01*
X57095238Y-146238581D02*
X56761905Y-146238581D01*
X56761905Y-146762391D02*
X56761905Y-145762391D01*
X56761905Y-145762391D02*
X57238095Y-145762391D01*
X57619048Y-146762391D02*
X57619048Y-145762391D01*
X58095238Y-146238581D02*
X58428571Y-146238581D01*
X58571428Y-146762391D02*
X58095238Y-146762391D01*
X58095238Y-146762391D02*
X58095238Y-145762391D01*
X58095238Y-145762391D02*
X58571428Y-145762391D01*
X59571428Y-146762391D02*
X59238095Y-146286200D01*
X59000000Y-146762391D02*
X59000000Y-145762391D01*
X59000000Y-145762391D02*
X59380952Y-145762391D01*
X59380952Y-145762391D02*
X59476190Y-145810010D01*
X59476190Y-145810010D02*
X59523809Y-145857629D01*
X59523809Y-145857629D02*
X59571428Y-145952867D01*
X59571428Y-145952867D02*
X59571428Y-146095724D01*
X59571428Y-146095724D02*
X59523809Y-146190962D01*
X59523809Y-146190962D02*
X59476190Y-146238581D01*
X59476190Y-146238581D02*
X59380952Y-146286200D01*
X59380952Y-146286200D02*
X59000000Y-146286200D01*
X55190476Y-147372335D02*
X55523809Y-148372335D01*
X55523809Y-148372335D02*
X55857142Y-147372335D01*
X56714285Y-148372335D02*
X56142857Y-148372335D01*
X56428571Y-148372335D02*
X56428571Y-147372335D01*
X56428571Y-147372335D02*
X56333333Y-147515192D01*
X56333333Y-147515192D02*
X56238095Y-147610430D01*
X56238095Y-147610430D02*
X56142857Y-147658049D01*
D12*
X86166666Y-45346090D02*
X86166666Y-46060375D01*
X86166666Y-46060375D02*
X86119047Y-46203232D01*
X86119047Y-46203232D02*
X86023809Y-46298471D01*
X86023809Y-46298471D02*
X85880952Y-46346090D01*
X85880952Y-46346090D02*
X85785714Y-46346090D01*
X86595238Y-45441328D02*
X86642857Y-45393709D01*
X86642857Y-45393709D02*
X86738095Y-45346090D01*
X86738095Y-45346090D02*
X86976190Y-45346090D01*
X86976190Y-45346090D02*
X87071428Y-45393709D01*
X87071428Y-45393709D02*
X87119047Y-45441328D01*
X87119047Y-45441328D02*
X87166666Y-45536566D01*
X87166666Y-45536566D02*
X87166666Y-45631804D01*
X87166666Y-45631804D02*
X87119047Y-45774661D01*
X87119047Y-45774661D02*
X86547619Y-46346090D01*
X86547619Y-46346090D02*
X87166666Y-46346090D01*
D11*
X86076035Y-115996560D02*
X86076035Y-116710845D01*
X86076035Y-116710845D02*
X86028416Y-116853702D01*
X86028416Y-116853702D02*
X85933178Y-116948941D01*
X85933178Y-116948941D02*
X85790321Y-116996560D01*
X85790321Y-116996560D02*
X85695083Y-116996560D01*
X86695083Y-116425131D02*
X86599845Y-116377512D01*
X86599845Y-116377512D02*
X86552226Y-116329893D01*
X86552226Y-116329893D02*
X86504607Y-116234655D01*
X86504607Y-116234655D02*
X86504607Y-116187036D01*
X86504607Y-116187036D02*
X86552226Y-116091798D01*
X86552226Y-116091798D02*
X86599845Y-116044179D01*
X86599845Y-116044179D02*
X86695083Y-115996560D01*
X86695083Y-115996560D02*
X86885559Y-115996560D01*
X86885559Y-115996560D02*
X86980797Y-116044179D01*
X86980797Y-116044179D02*
X87028416Y-116091798D01*
X87028416Y-116091798D02*
X87076035Y-116187036D01*
X87076035Y-116187036D02*
X87076035Y-116234655D01*
X87076035Y-116234655D02*
X87028416Y-116329893D01*
X87028416Y-116329893D02*
X86980797Y-116377512D01*
X86980797Y-116377512D02*
X86885559Y-116425131D01*
X86885559Y-116425131D02*
X86695083Y-116425131D01*
X86695083Y-116425131D02*
X86599845Y-116472750D01*
X86599845Y-116472750D02*
X86552226Y-116520369D01*
X86552226Y-116520369D02*
X86504607Y-116615607D01*
X86504607Y-116615607D02*
X86504607Y-116806083D01*
X86504607Y-116806083D02*
X86552226Y-116901321D01*
X86552226Y-116901321D02*
X86599845Y-116948941D01*
X86599845Y-116948941D02*
X86695083Y-116996560D01*
X86695083Y-116996560D02*
X86885559Y-116996560D01*
X86885559Y-116996560D02*
X86980797Y-116948941D01*
X86980797Y-116948941D02*
X87028416Y-116901321D01*
X87028416Y-116901321D02*
X87076035Y-116806083D01*
X87076035Y-116806083D02*
X87076035Y-116615607D01*
X87076035Y-116615607D02*
X87028416Y-116520369D01*
X87028416Y-116520369D02*
X86980797Y-116472750D01*
X86980797Y-116472750D02*
X86885559Y-116425131D01*
D12*
X91706260Y-133460768D02*
X91372927Y-132984577D01*
X91134832Y-133460768D02*
X91134832Y-132460768D01*
X91134832Y-132460768D02*
X91515784Y-132460768D01*
X91515784Y-132460768D02*
X91611022Y-132508387D01*
X91611022Y-132508387D02*
X91658641Y-132556006D01*
X91658641Y-132556006D02*
X91706260Y-132651244D01*
X91706260Y-132651244D02*
X91706260Y-132794101D01*
X91706260Y-132794101D02*
X91658641Y-132889339D01*
X91658641Y-132889339D02*
X91611022Y-132936958D01*
X91611022Y-132936958D02*
X91515784Y-132984577D01*
X91515784Y-132984577D02*
X91134832Y-132984577D01*
X92658641Y-133460768D02*
X92087213Y-133460768D01*
X92372927Y-133460768D02*
X92372927Y-132460768D01*
X92372927Y-132460768D02*
X92277689Y-132603625D01*
X92277689Y-132603625D02*
X92182451Y-132698863D01*
X92182451Y-132698863D02*
X92087213Y-132746482D01*
X93039594Y-132556006D02*
X93087213Y-132508387D01*
X93087213Y-132508387D02*
X93182451Y-132460768D01*
X93182451Y-132460768D02*
X93420546Y-132460768D01*
X93420546Y-132460768D02*
X93515784Y-132508387D01*
X93515784Y-132508387D02*
X93563403Y-132556006D01*
X93563403Y-132556006D02*
X93611022Y-132651244D01*
X93611022Y-132651244D02*
X93611022Y-132746482D01*
X93611022Y-132746482D02*
X93563403Y-132889339D01*
X93563403Y-132889339D02*
X92991975Y-133460768D01*
X92991975Y-133460768D02*
X93611022Y-133460768D01*
X82333333Y-100412807D02*
X82000000Y-99936616D01*
X81761905Y-100412807D02*
X81761905Y-99412807D01*
X81761905Y-99412807D02*
X82142857Y-99412807D01*
X82142857Y-99412807D02*
X82238095Y-99460426D01*
X82238095Y-99460426D02*
X82285714Y-99508045D01*
X82285714Y-99508045D02*
X82333333Y-99603283D01*
X82333333Y-99603283D02*
X82333333Y-99746140D01*
X82333333Y-99746140D02*
X82285714Y-99841378D01*
X82285714Y-99841378D02*
X82238095Y-99888997D01*
X82238095Y-99888997D02*
X82142857Y-99936616D01*
X82142857Y-99936616D02*
X81761905Y-99936616D01*
X82666667Y-99412807D02*
X83333333Y-99412807D01*
X83333333Y-99412807D02*
X82904762Y-100412807D01*
D11*
X86027079Y-134988993D02*
X86027079Y-135703278D01*
X86027079Y-135703278D02*
X85979460Y-135846135D01*
X85979460Y-135846135D02*
X85884222Y-135941374D01*
X85884222Y-135941374D02*
X85741365Y-135988993D01*
X85741365Y-135988993D02*
X85646127Y-135988993D01*
X87027079Y-135988993D02*
X86455651Y-135988993D01*
X86741365Y-135988993D02*
X86741365Y-134988993D01*
X86741365Y-134988993D02*
X86646127Y-135131850D01*
X86646127Y-135131850D02*
X86550889Y-135227088D01*
X86550889Y-135227088D02*
X86455651Y-135274707D01*
X87646127Y-134988993D02*
X87741365Y-134988993D01*
X87741365Y-134988993D02*
X87836603Y-135036612D01*
X87836603Y-135036612D02*
X87884222Y-135084231D01*
X87884222Y-135084231D02*
X87931841Y-135179469D01*
X87931841Y-135179469D02*
X87979460Y-135369945D01*
X87979460Y-135369945D02*
X87979460Y-135608040D01*
X87979460Y-135608040D02*
X87931841Y-135798516D01*
X87931841Y-135798516D02*
X87884222Y-135893754D01*
X87884222Y-135893754D02*
X87836603Y-135941374D01*
X87836603Y-135941374D02*
X87741365Y-135988993D01*
X87741365Y-135988993D02*
X87646127Y-135988993D01*
X87646127Y-135988993D02*
X87550889Y-135941374D01*
X87550889Y-135941374D02*
X87503270Y-135893754D01*
X87503270Y-135893754D02*
X87455651Y-135798516D01*
X87455651Y-135798516D02*
X87408032Y-135608040D01*
X87408032Y-135608040D02*
X87408032Y-135369945D01*
X87408032Y-135369945D02*
X87455651Y-135179469D01*
X87455651Y-135179469D02*
X87503270Y-135084231D01*
X87503270Y-135084231D02*
X87550889Y-135036612D01*
X87550889Y-135036612D02*
X87646127Y-134988993D01*
D12*
X62666666Y-45349819D02*
X62666666Y-46064104D01*
X62666666Y-46064104D02*
X62619047Y-46206961D01*
X62619047Y-46206961D02*
X62523809Y-46302200D01*
X62523809Y-46302200D02*
X62380952Y-46349819D01*
X62380952Y-46349819D02*
X62285714Y-46349819D01*
X63666666Y-46349819D02*
X63095238Y-46349819D01*
X63380952Y-46349819D02*
X63380952Y-45349819D01*
X63380952Y-45349819D02*
X63285714Y-45492676D01*
X63285714Y-45492676D02*
X63190476Y-45587914D01*
X63190476Y-45587914D02*
X63095238Y-45635533D01*
X67833333Y-92954819D02*
X67500000Y-92478628D01*
X67261905Y-92954819D02*
X67261905Y-91954819D01*
X67261905Y-91954819D02*
X67642857Y-91954819D01*
X67642857Y-91954819D02*
X67738095Y-92002438D01*
X67738095Y-92002438D02*
X67785714Y-92050057D01*
X67785714Y-92050057D02*
X67833333Y-92145295D01*
X67833333Y-92145295D02*
X67833333Y-92288152D01*
X67833333Y-92288152D02*
X67785714Y-92383390D01*
X67785714Y-92383390D02*
X67738095Y-92431009D01*
X67738095Y-92431009D02*
X67642857Y-92478628D01*
X67642857Y-92478628D02*
X67261905Y-92478628D01*
X68166667Y-91954819D02*
X68785714Y-91954819D01*
X68785714Y-91954819D02*
X68452381Y-92335771D01*
X68452381Y-92335771D02*
X68595238Y-92335771D01*
X68595238Y-92335771D02*
X68690476Y-92383390D01*
X68690476Y-92383390D02*
X68738095Y-92431009D01*
X68738095Y-92431009D02*
X68785714Y-92526247D01*
X68785714Y-92526247D02*
X68785714Y-92764342D01*
X68785714Y-92764342D02*
X68738095Y-92859580D01*
X68738095Y-92859580D02*
X68690476Y-92907200D01*
X68690476Y-92907200D02*
X68595238Y-92954819D01*
X68595238Y-92954819D02*
X68309524Y-92954819D01*
X68309524Y-92954819D02*
X68214286Y-92907200D01*
X68214286Y-92907200D02*
X68166667Y-92859580D01*
X55933556Y-98625695D02*
X55457365Y-98959028D01*
X55933556Y-99197123D02*
X54933556Y-99197123D01*
X54933556Y-99197123D02*
X54933556Y-98816171D01*
X54933556Y-98816171D02*
X54981175Y-98720933D01*
X54981175Y-98720933D02*
X55028794Y-98673314D01*
X55028794Y-98673314D02*
X55124032Y-98625695D01*
X55124032Y-98625695D02*
X55266889Y-98625695D01*
X55266889Y-98625695D02*
X55362127Y-98673314D01*
X55362127Y-98673314D02*
X55409746Y-98720933D01*
X55409746Y-98720933D02*
X55457365Y-98816171D01*
X55457365Y-98816171D02*
X55457365Y-99197123D01*
X54933556Y-97720933D02*
X54933556Y-98197123D01*
X54933556Y-98197123D02*
X55409746Y-98244742D01*
X55409746Y-98244742D02*
X55362127Y-98197123D01*
X55362127Y-98197123D02*
X55314508Y-98101885D01*
X55314508Y-98101885D02*
X55314508Y-97863790D01*
X55314508Y-97863790D02*
X55362127Y-97768552D01*
X55362127Y-97768552D02*
X55409746Y-97720933D01*
X55409746Y-97720933D02*
X55504984Y-97673314D01*
X55504984Y-97673314D02*
X55743079Y-97673314D01*
X55743079Y-97673314D02*
X55838317Y-97720933D01*
X55838317Y-97720933D02*
X55885937Y-97768552D01*
X55885937Y-97768552D02*
X55933556Y-97863790D01*
X55933556Y-97863790D02*
X55933556Y-98101885D01*
X55933556Y-98101885D02*
X55885937Y-98197123D01*
X55885937Y-98197123D02*
X55838317Y-98244742D01*
X87738095Y-91954819D02*
X87738095Y-92764342D01*
X87738095Y-92764342D02*
X87785714Y-92859580D01*
X87785714Y-92859580D02*
X87833333Y-92907200D01*
X87833333Y-92907200D02*
X87928571Y-92954819D01*
X87928571Y-92954819D02*
X88119047Y-92954819D01*
X88119047Y-92954819D02*
X88214285Y-92907200D01*
X88214285Y-92907200D02*
X88261904Y-92859580D01*
X88261904Y-92859580D02*
X88309523Y-92764342D01*
X88309523Y-92764342D02*
X88309523Y-91954819D01*
X88738095Y-92050057D02*
X88785714Y-92002438D01*
X88785714Y-92002438D02*
X88880952Y-91954819D01*
X88880952Y-91954819D02*
X89119047Y-91954819D01*
X89119047Y-91954819D02*
X89214285Y-92002438D01*
X89214285Y-92002438D02*
X89261904Y-92050057D01*
X89261904Y-92050057D02*
X89309523Y-92145295D01*
X89309523Y-92145295D02*
X89309523Y-92240533D01*
X89309523Y-92240533D02*
X89261904Y-92383390D01*
X89261904Y-92383390D02*
X88690476Y-92954819D01*
X88690476Y-92954819D02*
X89309523Y-92954819D01*
X74847278Y-103886079D02*
X74513945Y-103409888D01*
X74275850Y-103886079D02*
X74275850Y-102886079D01*
X74275850Y-102886079D02*
X74656802Y-102886079D01*
X74656802Y-102886079D02*
X74752040Y-102933698D01*
X74752040Y-102933698D02*
X74799659Y-102981317D01*
X74799659Y-102981317D02*
X74847278Y-103076555D01*
X74847278Y-103076555D02*
X74847278Y-103219412D01*
X74847278Y-103219412D02*
X74799659Y-103314650D01*
X74799659Y-103314650D02*
X74752040Y-103362269D01*
X74752040Y-103362269D02*
X74656802Y-103409888D01*
X74656802Y-103409888D02*
X74275850Y-103409888D01*
X75323469Y-103886079D02*
X75513945Y-103886079D01*
X75513945Y-103886079D02*
X75609183Y-103838460D01*
X75609183Y-103838460D02*
X75656802Y-103790840D01*
X75656802Y-103790840D02*
X75752040Y-103647983D01*
X75752040Y-103647983D02*
X75799659Y-103457507D01*
X75799659Y-103457507D02*
X75799659Y-103076555D01*
X75799659Y-103076555D02*
X75752040Y-102981317D01*
X75752040Y-102981317D02*
X75704421Y-102933698D01*
X75704421Y-102933698D02*
X75609183Y-102886079D01*
X75609183Y-102886079D02*
X75418707Y-102886079D01*
X75418707Y-102886079D02*
X75323469Y-102933698D01*
X75323469Y-102933698D02*
X75275850Y-102981317D01*
X75275850Y-102981317D02*
X75228231Y-103076555D01*
X75228231Y-103076555D02*
X75228231Y-103314650D01*
X75228231Y-103314650D02*
X75275850Y-103409888D01*
X75275850Y-103409888D02*
X75323469Y-103457507D01*
X75323469Y-103457507D02*
X75418707Y-103505126D01*
X75418707Y-103505126D02*
X75609183Y-103505126D01*
X75609183Y-103505126D02*
X75704421Y-103457507D01*
X75704421Y-103457507D02*
X75752040Y-103409888D01*
X75752040Y-103409888D02*
X75799659Y-103314650D01*
X76333333Y-109359580D02*
X76285714Y-109407200D01*
X76285714Y-109407200D02*
X76142857Y-109454819D01*
X76142857Y-109454819D02*
X76047619Y-109454819D01*
X76047619Y-109454819D02*
X75904762Y-109407200D01*
X75904762Y-109407200D02*
X75809524Y-109311961D01*
X75809524Y-109311961D02*
X75761905Y-109216723D01*
X75761905Y-109216723D02*
X75714286Y-109026247D01*
X75714286Y-109026247D02*
X75714286Y-108883390D01*
X75714286Y-108883390D02*
X75761905Y-108692914D01*
X75761905Y-108692914D02*
X75809524Y-108597676D01*
X75809524Y-108597676D02*
X75904762Y-108502438D01*
X75904762Y-108502438D02*
X76047619Y-108454819D01*
X76047619Y-108454819D02*
X76142857Y-108454819D01*
X76142857Y-108454819D02*
X76285714Y-108502438D01*
X76285714Y-108502438D02*
X76333333Y-108550057D01*
X77285714Y-109454819D02*
X76714286Y-109454819D01*
X77000000Y-109454819D02*
X77000000Y-108454819D01*
X77000000Y-108454819D02*
X76904762Y-108597676D01*
X76904762Y-108597676D02*
X76809524Y-108692914D01*
X76809524Y-108692914D02*
X76714286Y-108740533D01*
D11*
X76219761Y-88352419D02*
X75886428Y-87876228D01*
X75648333Y-88352419D02*
X75648333Y-87352419D01*
X75648333Y-87352419D02*
X76029285Y-87352419D01*
X76029285Y-87352419D02*
X76124523Y-87400038D01*
X76124523Y-87400038D02*
X76172142Y-87447657D01*
X76172142Y-87447657D02*
X76219761Y-87542895D01*
X76219761Y-87542895D02*
X76219761Y-87685752D01*
X76219761Y-87685752D02*
X76172142Y-87780990D01*
X76172142Y-87780990D02*
X76124523Y-87828609D01*
X76124523Y-87828609D02*
X76029285Y-87876228D01*
X76029285Y-87876228D02*
X75648333Y-87876228D01*
X76505476Y-87352419D02*
X76838809Y-88352419D01*
X76838809Y-88352419D02*
X77172142Y-87352419D01*
X77457857Y-87447657D02*
X77505476Y-87400038D01*
X77505476Y-87400038D02*
X77600714Y-87352419D01*
X77600714Y-87352419D02*
X77838809Y-87352419D01*
X77838809Y-87352419D02*
X77934047Y-87400038D01*
X77934047Y-87400038D02*
X77981666Y-87447657D01*
X77981666Y-87447657D02*
X78029285Y-87542895D01*
X78029285Y-87542895D02*
X78029285Y-87638133D01*
X78029285Y-87638133D02*
X77981666Y-87780990D01*
X77981666Y-87780990D02*
X77410238Y-88352419D01*
X77410238Y-88352419D02*
X78029285Y-88352419D01*
D12*
X57065772Y-133446401D02*
X56732439Y-132970210D01*
X56494344Y-133446401D02*
X56494344Y-132446401D01*
X56494344Y-132446401D02*
X56875296Y-132446401D01*
X56875296Y-132446401D02*
X56970534Y-132494020D01*
X56970534Y-132494020D02*
X57018153Y-132541639D01*
X57018153Y-132541639D02*
X57065772Y-132636877D01*
X57065772Y-132636877D02*
X57065772Y-132779734D01*
X57065772Y-132779734D02*
X57018153Y-132874972D01*
X57018153Y-132874972D02*
X56970534Y-132922591D01*
X56970534Y-132922591D02*
X56875296Y-132970210D01*
X56875296Y-132970210D02*
X56494344Y-132970210D01*
X57922915Y-132446401D02*
X57732439Y-132446401D01*
X57732439Y-132446401D02*
X57637201Y-132494020D01*
X57637201Y-132494020D02*
X57589582Y-132541639D01*
X57589582Y-132541639D02*
X57494344Y-132684496D01*
X57494344Y-132684496D02*
X57446725Y-132874972D01*
X57446725Y-132874972D02*
X57446725Y-133255924D01*
X57446725Y-133255924D02*
X57494344Y-133351162D01*
X57494344Y-133351162D02*
X57541963Y-133398782D01*
X57541963Y-133398782D02*
X57637201Y-133446401D01*
X57637201Y-133446401D02*
X57827677Y-133446401D01*
X57827677Y-133446401D02*
X57922915Y-133398782D01*
X57922915Y-133398782D02*
X57970534Y-133351162D01*
X57970534Y-133351162D02*
X58018153Y-133255924D01*
X58018153Y-133255924D02*
X58018153Y-133017829D01*
X58018153Y-133017829D02*
X57970534Y-132922591D01*
X57970534Y-132922591D02*
X57922915Y-132874972D01*
X57922915Y-132874972D02*
X57827677Y-132827353D01*
X57827677Y-132827353D02*
X57637201Y-132827353D01*
X57637201Y-132827353D02*
X57541963Y-132874972D01*
X57541963Y-132874972D02*
X57494344Y-132922591D01*
X57494344Y-132922591D02*
X57446725Y-133017829D01*
D11*
X88065732Y-115963569D02*
X88065732Y-116677854D01*
X88065732Y-116677854D02*
X88018113Y-116820711D01*
X88018113Y-116820711D02*
X87922875Y-116915950D01*
X87922875Y-116915950D02*
X87780018Y-116963569D01*
X87780018Y-116963569D02*
X87684780Y-116963569D01*
X88589542Y-116963569D02*
X88780018Y-116963569D01*
X88780018Y-116963569D02*
X88875256Y-116915950D01*
X88875256Y-116915950D02*
X88922875Y-116868330D01*
X88922875Y-116868330D02*
X89018113Y-116725473D01*
X89018113Y-116725473D02*
X89065732Y-116534997D01*
X89065732Y-116534997D02*
X89065732Y-116154045D01*
X89065732Y-116154045D02*
X89018113Y-116058807D01*
X89018113Y-116058807D02*
X88970494Y-116011188D01*
X88970494Y-116011188D02*
X88875256Y-115963569D01*
X88875256Y-115963569D02*
X88684780Y-115963569D01*
X88684780Y-115963569D02*
X88589542Y-116011188D01*
X88589542Y-116011188D02*
X88541923Y-116058807D01*
X88541923Y-116058807D02*
X88494304Y-116154045D01*
X88494304Y-116154045D02*
X88494304Y-116392140D01*
X88494304Y-116392140D02*
X88541923Y-116487378D01*
X88541923Y-116487378D02*
X88589542Y-116534997D01*
X88589542Y-116534997D02*
X88684780Y-116582616D01*
X88684780Y-116582616D02*
X88875256Y-116582616D01*
X88875256Y-116582616D02*
X88970494Y-116534997D01*
X88970494Y-116534997D02*
X89018113Y-116487378D01*
X89018113Y-116487378D02*
X89065732Y-116392140D01*
D12*
X87357142Y-115454819D02*
X87023809Y-114978628D01*
X86785714Y-115454819D02*
X86785714Y-114454819D01*
X86785714Y-114454819D02*
X87166666Y-114454819D01*
X87166666Y-114454819D02*
X87261904Y-114502438D01*
X87261904Y-114502438D02*
X87309523Y-114550057D01*
X87309523Y-114550057D02*
X87357142Y-114645295D01*
X87357142Y-114645295D02*
X87357142Y-114788152D01*
X87357142Y-114788152D02*
X87309523Y-114883390D01*
X87309523Y-114883390D02*
X87261904Y-114931009D01*
X87261904Y-114931009D02*
X87166666Y-114978628D01*
X87166666Y-114978628D02*
X86785714Y-114978628D01*
X88309523Y-115454819D02*
X87738095Y-115454819D01*
X88023809Y-115454819D02*
X88023809Y-114454819D01*
X88023809Y-114454819D02*
X87928571Y-114597676D01*
X87928571Y-114597676D02*
X87833333Y-114692914D01*
X87833333Y-114692914D02*
X87738095Y-114740533D01*
X88928571Y-114454819D02*
X89023809Y-114454819D01*
X89023809Y-114454819D02*
X89119047Y-114502438D01*
X89119047Y-114502438D02*
X89166666Y-114550057D01*
X89166666Y-114550057D02*
X89214285Y-114645295D01*
X89214285Y-114645295D02*
X89261904Y-114835771D01*
X89261904Y-114835771D02*
X89261904Y-115073866D01*
X89261904Y-115073866D02*
X89214285Y-115264342D01*
X89214285Y-115264342D02*
X89166666Y-115359580D01*
X89166666Y-115359580D02*
X89119047Y-115407200D01*
X89119047Y-115407200D02*
X89023809Y-115454819D01*
X89023809Y-115454819D02*
X88928571Y-115454819D01*
X88928571Y-115454819D02*
X88833333Y-115407200D01*
X88833333Y-115407200D02*
X88785714Y-115359580D01*
X88785714Y-115359580D02*
X88738095Y-115264342D01*
X88738095Y-115264342D02*
X88690476Y-115073866D01*
X88690476Y-115073866D02*
X88690476Y-114835771D01*
X88690476Y-114835771D02*
X88738095Y-114645295D01*
X88738095Y-114645295D02*
X88785714Y-114550057D01*
X88785714Y-114550057D02*
X88833333Y-114502438D01*
X88833333Y-114502438D02*
X88928571Y-114454819D01*
D11*
X63166666Y-115984985D02*
X63166666Y-116699270D01*
X63166666Y-116699270D02*
X63119047Y-116842127D01*
X63119047Y-116842127D02*
X63023809Y-116937366D01*
X63023809Y-116937366D02*
X62880952Y-116984985D01*
X62880952Y-116984985D02*
X62785714Y-116984985D01*
X64071428Y-116318318D02*
X64071428Y-116984985D01*
X63833333Y-115937366D02*
X63595238Y-116651651D01*
X63595238Y-116651651D02*
X64214285Y-116651651D01*
X86246666Y-70352419D02*
X86246666Y-71066704D01*
X86246666Y-71066704D02*
X86199047Y-71209561D01*
X86199047Y-71209561D02*
X86103809Y-71304800D01*
X86103809Y-71304800D02*
X85960952Y-71352419D01*
X85960952Y-71352419D02*
X85865714Y-71352419D01*
X86627619Y-70352419D02*
X87294285Y-70352419D01*
X87294285Y-70352419D02*
X86865714Y-71352419D01*
D12*
X87937142Y-105954819D02*
X87603809Y-105478628D01*
X87365714Y-105954819D02*
X87365714Y-104954819D01*
X87365714Y-104954819D02*
X87746666Y-104954819D01*
X87746666Y-104954819D02*
X87841904Y-105002438D01*
X87841904Y-105002438D02*
X87889523Y-105050057D01*
X87889523Y-105050057D02*
X87937142Y-105145295D01*
X87937142Y-105145295D02*
X87937142Y-105288152D01*
X87937142Y-105288152D02*
X87889523Y-105383390D01*
X87889523Y-105383390D02*
X87841904Y-105431009D01*
X87841904Y-105431009D02*
X87746666Y-105478628D01*
X87746666Y-105478628D02*
X87365714Y-105478628D01*
X88889523Y-105954819D02*
X88318095Y-105954819D01*
X88603809Y-105954819D02*
X88603809Y-104954819D01*
X88603809Y-104954819D02*
X88508571Y-105097676D01*
X88508571Y-105097676D02*
X88413333Y-105192914D01*
X88413333Y-105192914D02*
X88318095Y-105240533D01*
X89841904Y-105954819D02*
X89270476Y-105954819D01*
X89556190Y-105954819D02*
X89556190Y-104954819D01*
X89556190Y-104954819D02*
X89460952Y-105097676D01*
X89460952Y-105097676D02*
X89365714Y-105192914D01*
X89365714Y-105192914D02*
X89270476Y-105240533D01*
X82333333Y-96184362D02*
X82000000Y-95708171D01*
X81761905Y-96184362D02*
X81761905Y-95184362D01*
X81761905Y-95184362D02*
X82142857Y-95184362D01*
X82142857Y-95184362D02*
X82238095Y-95231981D01*
X82238095Y-95231981D02*
X82285714Y-95279600D01*
X82285714Y-95279600D02*
X82333333Y-95374838D01*
X82333333Y-95374838D02*
X82333333Y-95517695D01*
X82333333Y-95517695D02*
X82285714Y-95612933D01*
X82285714Y-95612933D02*
X82238095Y-95660552D01*
X82238095Y-95660552D02*
X82142857Y-95708171D01*
X82142857Y-95708171D02*
X81761905Y-95708171D01*
X82714286Y-95279600D02*
X82761905Y-95231981D01*
X82761905Y-95231981D02*
X82857143Y-95184362D01*
X82857143Y-95184362D02*
X83095238Y-95184362D01*
X83095238Y-95184362D02*
X83190476Y-95231981D01*
X83190476Y-95231981D02*
X83238095Y-95279600D01*
X83238095Y-95279600D02*
X83285714Y-95374838D01*
X83285714Y-95374838D02*
X83285714Y-95470076D01*
X83285714Y-95470076D02*
X83238095Y-95612933D01*
X83238095Y-95612933D02*
X82666667Y-96184362D01*
X82666667Y-96184362D02*
X83285714Y-96184362D01*
D11*
X61257421Y-116452137D02*
X61257421Y-117166422D01*
X61257421Y-117166422D02*
X61209802Y-117309279D01*
X61209802Y-117309279D02*
X61114564Y-117404518D01*
X61114564Y-117404518D02*
X60971707Y-117452137D01*
X60971707Y-117452137D02*
X60876469Y-117452137D01*
X62209802Y-116452137D02*
X61733612Y-116452137D01*
X61733612Y-116452137D02*
X61685993Y-116928327D01*
X61685993Y-116928327D02*
X61733612Y-116880708D01*
X61733612Y-116880708D02*
X61828850Y-116833089D01*
X61828850Y-116833089D02*
X62066945Y-116833089D01*
X62066945Y-116833089D02*
X62162183Y-116880708D01*
X62162183Y-116880708D02*
X62209802Y-116928327D01*
X62209802Y-116928327D02*
X62257421Y-117023565D01*
X62257421Y-117023565D02*
X62257421Y-117261660D01*
X62257421Y-117261660D02*
X62209802Y-117356898D01*
X62209802Y-117356898D02*
X62162183Y-117404518D01*
X62162183Y-117404518D02*
X62066945Y-117452137D01*
X62066945Y-117452137D02*
X61828850Y-117452137D01*
X61828850Y-117452137D02*
X61733612Y-117404518D01*
X61733612Y-117404518D02*
X61685993Y-117356898D01*
D12*
X84703828Y-99922374D02*
X84751448Y-99969993D01*
X84751448Y-99969993D02*
X84799067Y-100112850D01*
X84799067Y-100112850D02*
X84799067Y-100208088D01*
X84799067Y-100208088D02*
X84751448Y-100350945D01*
X84751448Y-100350945D02*
X84656209Y-100446183D01*
X84656209Y-100446183D02*
X84560971Y-100493802D01*
X84560971Y-100493802D02*
X84370495Y-100541421D01*
X84370495Y-100541421D02*
X84227638Y-100541421D01*
X84227638Y-100541421D02*
X84037162Y-100493802D01*
X84037162Y-100493802D02*
X83941924Y-100446183D01*
X83941924Y-100446183D02*
X83846686Y-100350945D01*
X83846686Y-100350945D02*
X83799067Y-100208088D01*
X83799067Y-100208088D02*
X83799067Y-100112850D01*
X83799067Y-100112850D02*
X83846686Y-99969993D01*
X83846686Y-99969993D02*
X83894305Y-99922374D01*
X84132400Y-99065231D02*
X84799067Y-99065231D01*
X83751448Y-99303326D02*
X84465733Y-99541421D01*
X84465733Y-99541421D02*
X84465733Y-98922374D01*
X56354877Y-111211528D02*
X56402497Y-111259147D01*
X56402497Y-111259147D02*
X56450116Y-111402004D01*
X56450116Y-111402004D02*
X56450116Y-111497242D01*
X56450116Y-111497242D02*
X56402497Y-111640099D01*
X56402497Y-111640099D02*
X56307258Y-111735337D01*
X56307258Y-111735337D02*
X56212020Y-111782956D01*
X56212020Y-111782956D02*
X56021544Y-111830575D01*
X56021544Y-111830575D02*
X55878687Y-111830575D01*
X55878687Y-111830575D02*
X55688211Y-111782956D01*
X55688211Y-111782956D02*
X55592973Y-111735337D01*
X55592973Y-111735337D02*
X55497735Y-111640099D01*
X55497735Y-111640099D02*
X55450116Y-111497242D01*
X55450116Y-111497242D02*
X55450116Y-111402004D01*
X55450116Y-111402004D02*
X55497735Y-111259147D01*
X55497735Y-111259147D02*
X55545354Y-111211528D01*
X55545354Y-110830575D02*
X55497735Y-110782956D01*
X55497735Y-110782956D02*
X55450116Y-110687718D01*
X55450116Y-110687718D02*
X55450116Y-110449623D01*
X55450116Y-110449623D02*
X55497735Y-110354385D01*
X55497735Y-110354385D02*
X55545354Y-110306766D01*
X55545354Y-110306766D02*
X55640592Y-110259147D01*
X55640592Y-110259147D02*
X55735830Y-110259147D01*
X55735830Y-110259147D02*
X55878687Y-110306766D01*
X55878687Y-110306766D02*
X56450116Y-110878194D01*
X56450116Y-110878194D02*
X56450116Y-110259147D01*
D11*
X62756198Y-70352419D02*
X62756198Y-71066704D01*
X62756198Y-71066704D02*
X62708579Y-71209561D01*
X62708579Y-71209561D02*
X62613341Y-71304800D01*
X62613341Y-71304800D02*
X62470484Y-71352419D01*
X62470484Y-71352419D02*
X62375246Y-71352419D01*
X63137151Y-70352419D02*
X63756198Y-70352419D01*
X63756198Y-70352419D02*
X63422865Y-70733371D01*
X63422865Y-70733371D02*
X63565722Y-70733371D01*
X63565722Y-70733371D02*
X63660960Y-70780990D01*
X63660960Y-70780990D02*
X63708579Y-70828609D01*
X63708579Y-70828609D02*
X63756198Y-70923847D01*
X63756198Y-70923847D02*
X63756198Y-71161942D01*
X63756198Y-71161942D02*
X63708579Y-71257180D01*
X63708579Y-71257180D02*
X63660960Y-71304800D01*
X63660960Y-71304800D02*
X63565722Y-71352419D01*
X63565722Y-71352419D02*
X63280008Y-71352419D01*
X63280008Y-71352419D02*
X63184770Y-71304800D01*
X63184770Y-71304800D02*
X63137151Y-71257180D01*
D12*
X52512665Y-108631811D02*
X52036474Y-108965144D01*
X52512665Y-109203239D02*
X51512665Y-109203239D01*
X51512665Y-109203239D02*
X51512665Y-108822287D01*
X51512665Y-108822287D02*
X51560284Y-108727049D01*
X51560284Y-108727049D02*
X51607903Y-108679430D01*
X51607903Y-108679430D02*
X51703141Y-108631811D01*
X51703141Y-108631811D02*
X51845998Y-108631811D01*
X51845998Y-108631811D02*
X51941236Y-108679430D01*
X51941236Y-108679430D02*
X51988855Y-108727049D01*
X51988855Y-108727049D02*
X52036474Y-108822287D01*
X52036474Y-108822287D02*
X52036474Y-109203239D01*
X52512665Y-107679430D02*
X52512665Y-108250858D01*
X52512665Y-107965144D02*
X51512665Y-107965144D01*
X51512665Y-107965144D02*
X51655522Y-108060382D01*
X51655522Y-108060382D02*
X51750760Y-108155620D01*
X51750760Y-108155620D02*
X51798379Y-108250858D01*
D11*
X62878110Y-134979600D02*
X62878110Y-135693885D01*
X62878110Y-135693885D02*
X62830491Y-135836742D01*
X62830491Y-135836742D02*
X62735253Y-135931981D01*
X62735253Y-135931981D02*
X62592396Y-135979600D01*
X62592396Y-135979600D02*
X62497158Y-135979600D01*
X63782872Y-134979600D02*
X63592396Y-134979600D01*
X63592396Y-134979600D02*
X63497158Y-135027219D01*
X63497158Y-135027219D02*
X63449539Y-135074838D01*
X63449539Y-135074838D02*
X63354301Y-135217695D01*
X63354301Y-135217695D02*
X63306682Y-135408171D01*
X63306682Y-135408171D02*
X63306682Y-135789123D01*
X63306682Y-135789123D02*
X63354301Y-135884361D01*
X63354301Y-135884361D02*
X63401920Y-135931981D01*
X63401920Y-135931981D02*
X63497158Y-135979600D01*
X63497158Y-135979600D02*
X63687634Y-135979600D01*
X63687634Y-135979600D02*
X63782872Y-135931981D01*
X63782872Y-135931981D02*
X63830491Y-135884361D01*
X63830491Y-135884361D02*
X63878110Y-135789123D01*
X63878110Y-135789123D02*
X63878110Y-135551028D01*
X63878110Y-135551028D02*
X63830491Y-135455790D01*
X63830491Y-135455790D02*
X63782872Y-135408171D01*
X63782872Y-135408171D02*
X63687634Y-135360552D01*
X63687634Y-135360552D02*
X63497158Y-135360552D01*
X63497158Y-135360552D02*
X63401920Y-135408171D01*
X63401920Y-135408171D02*
X63354301Y-135455790D01*
X63354301Y-135455790D02*
X63306682Y-135551028D01*
X72404761Y-88352419D02*
X72071428Y-87876228D01*
X71833333Y-88352419D02*
X71833333Y-87352419D01*
X71833333Y-87352419D02*
X72214285Y-87352419D01*
X72214285Y-87352419D02*
X72309523Y-87400038D01*
X72309523Y-87400038D02*
X72357142Y-87447657D01*
X72357142Y-87447657D02*
X72404761Y-87542895D01*
X72404761Y-87542895D02*
X72404761Y-87685752D01*
X72404761Y-87685752D02*
X72357142Y-87780990D01*
X72357142Y-87780990D02*
X72309523Y-87828609D01*
X72309523Y-87828609D02*
X72214285Y-87876228D01*
X72214285Y-87876228D02*
X71833333Y-87876228D01*
X72690476Y-87352419D02*
X73023809Y-88352419D01*
X73023809Y-88352419D02*
X73357142Y-87352419D01*
X74214285Y-88352419D02*
X73642857Y-88352419D01*
X73928571Y-88352419D02*
X73928571Y-87352419D01*
X73928571Y-87352419D02*
X73833333Y-87495276D01*
X73833333Y-87495276D02*
X73738095Y-87590514D01*
X73738095Y-87590514D02*
X73642857Y-87638133D01*
D12*
X74673471Y-115454819D02*
X74340138Y-114978628D01*
X74102043Y-115454819D02*
X74102043Y-114454819D01*
X74102043Y-114454819D02*
X74482995Y-114454819D01*
X74482995Y-114454819D02*
X74578233Y-114502438D01*
X74578233Y-114502438D02*
X74625852Y-114550057D01*
X74625852Y-114550057D02*
X74673471Y-114645295D01*
X74673471Y-114645295D02*
X74673471Y-114788152D01*
X74673471Y-114788152D02*
X74625852Y-114883390D01*
X74625852Y-114883390D02*
X74578233Y-114931009D01*
X74578233Y-114931009D02*
X74482995Y-114978628D01*
X74482995Y-114978628D02*
X74102043Y-114978628D01*
X75244900Y-114883390D02*
X75149662Y-114835771D01*
X75149662Y-114835771D02*
X75102043Y-114788152D01*
X75102043Y-114788152D02*
X75054424Y-114692914D01*
X75054424Y-114692914D02*
X75054424Y-114645295D01*
X75054424Y-114645295D02*
X75102043Y-114550057D01*
X75102043Y-114550057D02*
X75149662Y-114502438D01*
X75149662Y-114502438D02*
X75244900Y-114454819D01*
X75244900Y-114454819D02*
X75435376Y-114454819D01*
X75435376Y-114454819D02*
X75530614Y-114502438D01*
X75530614Y-114502438D02*
X75578233Y-114550057D01*
X75578233Y-114550057D02*
X75625852Y-114645295D01*
X75625852Y-114645295D02*
X75625852Y-114692914D01*
X75625852Y-114692914D02*
X75578233Y-114788152D01*
X75578233Y-114788152D02*
X75530614Y-114835771D01*
X75530614Y-114835771D02*
X75435376Y-114883390D01*
X75435376Y-114883390D02*
X75244900Y-114883390D01*
X75244900Y-114883390D02*
X75149662Y-114931009D01*
X75149662Y-114931009D02*
X75102043Y-114978628D01*
X75102043Y-114978628D02*
X75054424Y-115073866D01*
X75054424Y-115073866D02*
X75054424Y-115264342D01*
X75054424Y-115264342D02*
X75102043Y-115359580D01*
X75102043Y-115359580D02*
X75149662Y-115407200D01*
X75149662Y-115407200D02*
X75244900Y-115454819D01*
X75244900Y-115454819D02*
X75435376Y-115454819D01*
X75435376Y-115454819D02*
X75530614Y-115407200D01*
X75530614Y-115407200D02*
X75578233Y-115359580D01*
X75578233Y-115359580D02*
X75625852Y-115264342D01*
X75625852Y-115264342D02*
X75625852Y-115073866D01*
X75625852Y-115073866D02*
X75578233Y-114978628D01*
X75578233Y-114978628D02*
X75530614Y-114931009D01*
X75530614Y-114931009D02*
X75435376Y-114883390D01*
X80905867Y-92924717D02*
X80572534Y-92448526D01*
X80334439Y-92924717D02*
X80334439Y-91924717D01*
X80334439Y-91924717D02*
X80715391Y-91924717D01*
X80715391Y-91924717D02*
X80810629Y-91972336D01*
X80810629Y-91972336D02*
X80858248Y-92019955D01*
X80858248Y-92019955D02*
X80905867Y-92115193D01*
X80905867Y-92115193D02*
X80905867Y-92258050D01*
X80905867Y-92258050D02*
X80858248Y-92353288D01*
X80858248Y-92353288D02*
X80810629Y-92400907D01*
X80810629Y-92400907D02*
X80715391Y-92448526D01*
X80715391Y-92448526D02*
X80334439Y-92448526D01*
X81763010Y-92258050D02*
X81763010Y-92924717D01*
X81524915Y-91877098D02*
X81286820Y-92591383D01*
X81286820Y-92591383D02*
X81905867Y-92591383D01*
X93874522Y-90232069D02*
X93826903Y-90279689D01*
X93826903Y-90279689D02*
X93684046Y-90327308D01*
X93684046Y-90327308D02*
X93588808Y-90327308D01*
X93588808Y-90327308D02*
X93445951Y-90279689D01*
X93445951Y-90279689D02*
X93350713Y-90184450D01*
X93350713Y-90184450D02*
X93303094Y-90089212D01*
X93303094Y-90089212D02*
X93255475Y-89898736D01*
X93255475Y-89898736D02*
X93255475Y-89755879D01*
X93255475Y-89755879D02*
X93303094Y-89565403D01*
X93303094Y-89565403D02*
X93350713Y-89470165D01*
X93350713Y-89470165D02*
X93445951Y-89374927D01*
X93445951Y-89374927D02*
X93588808Y-89327308D01*
X93588808Y-89327308D02*
X93684046Y-89327308D01*
X93684046Y-89327308D02*
X93826903Y-89374927D01*
X93826903Y-89374927D02*
X93874522Y-89422546D01*
X94207856Y-89327308D02*
X94826903Y-89327308D01*
X94826903Y-89327308D02*
X94493570Y-89708260D01*
X94493570Y-89708260D02*
X94636427Y-89708260D01*
X94636427Y-89708260D02*
X94731665Y-89755879D01*
X94731665Y-89755879D02*
X94779284Y-89803498D01*
X94779284Y-89803498D02*
X94826903Y-89898736D01*
X94826903Y-89898736D02*
X94826903Y-90136831D01*
X94826903Y-90136831D02*
X94779284Y-90232069D01*
X94779284Y-90232069D02*
X94731665Y-90279689D01*
X94731665Y-90279689D02*
X94636427Y-90327308D01*
X94636427Y-90327308D02*
X94350713Y-90327308D01*
X94350713Y-90327308D02*
X94255475Y-90279689D01*
X94255475Y-90279689D02*
X94207856Y-90232069D01*
X57475813Y-92923605D02*
X57475813Y-93733128D01*
X57475813Y-93733128D02*
X57523432Y-93828366D01*
X57523432Y-93828366D02*
X57571051Y-93875986D01*
X57571051Y-93875986D02*
X57666289Y-93923605D01*
X57666289Y-93923605D02*
X57856765Y-93923605D01*
X57856765Y-93923605D02*
X57952003Y-93875986D01*
X57952003Y-93875986D02*
X57999622Y-93828366D01*
X57999622Y-93828366D02*
X58047241Y-93733128D01*
X58047241Y-93733128D02*
X58047241Y-92923605D01*
X59047241Y-93923605D02*
X58475813Y-93923605D01*
X58761527Y-93923605D02*
X58761527Y-92923605D01*
X58761527Y-92923605D02*
X58666289Y-93066462D01*
X58666289Y-93066462D02*
X58571051Y-93161700D01*
X58571051Y-93161700D02*
X58475813Y-93209319D01*
D13*
%TO.C,J2*%
X86418158Y-56304480D02*
X86418158Y-55304480D01*
X86418158Y-55304480D02*
X85418158Y-55804480D01*
X85418158Y-55804480D02*
X86418158Y-56304480D01*
X85028158Y-61014480D02*
X75908158Y-61014480D01*
X85028158Y-55314480D02*
X83718158Y-55314480D01*
X85028158Y-45514480D02*
X85028158Y-61014480D01*
X83718158Y-59714480D02*
X77218158Y-59714480D01*
X83718158Y-55314480D02*
X83718158Y-59714480D01*
X83718158Y-51214480D02*
X85028158Y-51214480D01*
X83718158Y-46814480D02*
X83718158Y-51214480D01*
X77218158Y-59714480D02*
X77218158Y-46814480D01*
X77218158Y-46814480D02*
X83718158Y-46814480D01*
X75908158Y-61014480D02*
X75908158Y-45514480D01*
X75908158Y-45514480D02*
X85028158Y-45514480D01*
D14*
%TO.C,G\u002A\u002A\u002A*%
G36*
X95030805Y-139916464D02*
G01*
X95191653Y-140090912D01*
X95236929Y-140187207D01*
X95171977Y-140185986D01*
X95002140Y-140067883D01*
X94991480Y-140058974D01*
X94740627Y-139847895D01*
X93962994Y-140016461D01*
X93492184Y-140120589D01*
X93176520Y-140198892D01*
X93005194Y-140259206D01*
X92967398Y-140309371D01*
X93052324Y-140357223D01*
X93249166Y-140410601D01*
X93378738Y-140440153D01*
X93699579Y-140503246D01*
X93911708Y-140517866D01*
X94068417Y-140484818D01*
X94140738Y-140451667D01*
X94493940Y-140343536D01*
X94815617Y-140399096D01*
X95060197Y-140578823D01*
X95240172Y-140742943D01*
X95429010Y-140837969D01*
X95662627Y-140867261D01*
X95976943Y-140834179D01*
X96407875Y-140742084D01*
X96517970Y-140715209D01*
X96963265Y-140607870D01*
X97277420Y-140544100D01*
X97492959Y-140524025D01*
X97642405Y-140547767D01*
X97758285Y-140615451D01*
X97866686Y-140720333D01*
X98001280Y-140896783D01*
X98002933Y-140979046D01*
X97886918Y-140954821D01*
X97712013Y-140844886D01*
X97459049Y-140657862D01*
X96637072Y-140875605D01*
X96290479Y-140969414D01*
X96013003Y-141048298D01*
X95840121Y-141101950D01*
X95800456Y-141118674D01*
X95746103Y-141195604D01*
X95624281Y-141362856D01*
X95543309Y-141473024D01*
X95359216Y-141746643D01*
X95179232Y-142053514D01*
X95027678Y-142347332D01*
X94928875Y-142581793D01*
X94904020Y-142690167D01*
X94958467Y-142755401D01*
X95138847Y-142757349D01*
X95236260Y-142743817D01*
X95528640Y-142737385D01*
X95920483Y-142781701D01*
X96353861Y-142865040D01*
X96770848Y-142975679D01*
X97113517Y-143101894D01*
X97189666Y-143139175D01*
X97408694Y-143243047D01*
X97727512Y-143379253D01*
X98086637Y-143522634D01*
X98184499Y-143559955D01*
X98573052Y-143723184D01*
X98805560Y-143869577D01*
X98891985Y-144015687D01*
X98842292Y-144178066D01*
X98671333Y-144368748D01*
X98497413Y-144634517D01*
X98475958Y-144950765D01*
X98586666Y-145250333D01*
X98687461Y-145449998D01*
X98687691Y-145565499D01*
X98581024Y-145653364D01*
X98538920Y-145676563D01*
X98344921Y-145723280D01*
X98263754Y-145691770D01*
X98103112Y-145609055D01*
X97969901Y-145566055D01*
X97840982Y-145560562D01*
X97738152Y-145642032D01*
X97623966Y-145843845D01*
X97598601Y-145897050D01*
X97464478Y-146138177D01*
X97340919Y-146245768D01*
X97241700Y-146257843D01*
X97016757Y-146267125D01*
X96850999Y-146299486D01*
X96704944Y-146372341D01*
X96641831Y-146518135D01*
X96629173Y-146672366D01*
X96599268Y-146909569D01*
X96530115Y-147239046D01*
X96436204Y-147592490D01*
X96428578Y-147618024D01*
X96238142Y-148250048D01*
X96417570Y-148369184D01*
X96558022Y-148509052D01*
X96589923Y-148640854D01*
X96507403Y-148716870D01*
X96460941Y-148721667D01*
X96367416Y-148765719D01*
X96385880Y-148869833D01*
X96478743Y-149150650D01*
X96470792Y-149295938D01*
X96362511Y-149305175D01*
X96154384Y-149177837D01*
X96122835Y-149153442D01*
X95990148Y-149060885D01*
X95871591Y-149035695D01*
X95703082Y-149076407D01*
X95530199Y-149139871D01*
X95288578Y-149247717D01*
X95116078Y-149354129D01*
X95074683Y-149396275D01*
X94968147Y-149460473D01*
X94839253Y-149374279D01*
X94707105Y-149151479D01*
X94694216Y-149121670D01*
X94586155Y-148864669D01*
X94429366Y-149110668D01*
X94297949Y-149296624D01*
X94191311Y-149414795D01*
X94185955Y-149418870D01*
X94022253Y-149478248D01*
X93846468Y-149470546D01*
X93731222Y-149404509D01*
X93718333Y-149362555D01*
X93646289Y-149257434D01*
X93528697Y-149214388D01*
X93349726Y-149142730D01*
X93311150Y-149028649D01*
X93327350Y-149009764D01*
X93509107Y-149009764D01*
X93511937Y-149068863D01*
X93633763Y-149122444D01*
X93831788Y-149109609D01*
X93999305Y-149086246D01*
X94026020Y-149118689D01*
X93990853Y-149160346D01*
X93900677Y-149286967D01*
X93887666Y-149334245D01*
X93937784Y-149368886D01*
X94059107Y-149308903D01*
X94208086Y-149184194D01*
X94341174Y-149024656D01*
X94343294Y-149021438D01*
X94502152Y-148844309D01*
X94642167Y-148834382D01*
X94770412Y-148992565D01*
X94811226Y-149081500D01*
X94893462Y-149246293D01*
X94945085Y-149257589D01*
X94962142Y-149212937D01*
X94954692Y-149021586D01*
X94914147Y-148910584D01*
X94866902Y-148721667D01*
X94903666Y-148721667D01*
X94977351Y-148780669D01*
X95155370Y-148806300D01*
X95162663Y-148806333D01*
X95339343Y-148830458D01*
X95364774Y-148898376D01*
X95246228Y-148957302D01*
X95154445Y-148950292D01*
X95043749Y-148952946D01*
X95048676Y-149034404D01*
X95097324Y-149104801D01*
X95192705Y-149117776D01*
X95371409Y-149069002D01*
X95646300Y-148963688D01*
X95869461Y-148897801D01*
X96031219Y-148924463D01*
X96090800Y-148957142D01*
X96217830Y-149008353D01*
X96258333Y-148981381D01*
X96196753Y-148865992D01*
X96173666Y-148848667D01*
X96090351Y-148741453D01*
X96152910Y-148656133D01*
X96258333Y-148637000D01*
X96395913Y-148601544D01*
X96427666Y-148552333D01*
X96359089Y-148477219D01*
X96300666Y-148467667D01*
X96204988Y-148394096D01*
X96175776Y-148189788D01*
X96212102Y-147879351D01*
X96313035Y-147487390D01*
X96340917Y-147401309D01*
X96434207Y-147066489D01*
X96491497Y-146746948D01*
X96509511Y-146481802D01*
X96484974Y-146310168D01*
X96435979Y-146266333D01*
X96388077Y-146343227D01*
X96338612Y-146543813D01*
X96301913Y-146795500D01*
X96223800Y-147342682D01*
X96120014Y-147818310D01*
X95998820Y-148193253D01*
X95868484Y-148438384D01*
X95821402Y-148488833D01*
X95583223Y-148600387D01*
X95275286Y-148637000D01*
X95051341Y-148654214D01*
X94918979Y-148697656D01*
X94903666Y-148721667D01*
X94866902Y-148721667D01*
X94851756Y-148661105D01*
X94853514Y-148377757D01*
X94962635Y-148377757D01*
X94964235Y-148384662D01*
X95072271Y-148507763D01*
X95272560Y-148555392D01*
X95505310Y-148526613D01*
X95710727Y-148420489D01*
X95736586Y-148396746D01*
X95840331Y-148227756D01*
X95948111Y-147951747D01*
X96044577Y-147625327D01*
X96114378Y-147305102D01*
X96142166Y-147047680D01*
X96130937Y-146942421D01*
X96129860Y-146789620D01*
X96170222Y-146734128D01*
X96234076Y-146617822D01*
X96258333Y-146433933D01*
X96238376Y-146273685D01*
X96148477Y-146177990D01*
X95943589Y-146104002D01*
X95898499Y-146091684D01*
X95660562Y-146022238D01*
X95492682Y-145963083D01*
X95461844Y-145948191D01*
X95425742Y-145992929D01*
X95425375Y-146169629D01*
X95439853Y-146301236D01*
X95451214Y-146668856D01*
X95365898Y-146950309D01*
X95239740Y-147235729D01*
X95122085Y-147572068D01*
X95027184Y-147908443D01*
X94969284Y-148193967D01*
X94962635Y-148377757D01*
X94853514Y-148377757D01*
X94853966Y-148304844D01*
X94915399Y-147889219D01*
X95030676Y-147461645D01*
X95099614Y-147275690D01*
X95215369Y-146940382D01*
X95292502Y-146613698D01*
X95327623Y-146330260D01*
X95317346Y-146124693D01*
X95258283Y-146031618D01*
X95221166Y-146033329D01*
X95155431Y-146133941D01*
X95095770Y-146368906D01*
X95056157Y-146654217D01*
X94941456Y-147247889D01*
X94731192Y-147818709D01*
X94447746Y-148317177D01*
X94147561Y-148663935D01*
X93922904Y-148839424D01*
X93719766Y-148952493D01*
X93628425Y-148975667D01*
X93509107Y-149009764D01*
X93327350Y-149009764D01*
X93407712Y-148916086D01*
X93571337Y-148858004D01*
X93900450Y-148712378D01*
X94219849Y-148404942D01*
X94522614Y-147943196D01*
X94651288Y-147687704D01*
X94791304Y-147361014D01*
X94874317Y-147076715D01*
X94916040Y-146762029D01*
X94931313Y-146390797D01*
X94933155Y-146023493D01*
X94917057Y-145790126D01*
X94877550Y-145655761D01*
X94809164Y-145585460D01*
X94804830Y-145582968D01*
X94680286Y-145474243D01*
X94503562Y-145274555D01*
X94358088Y-145087478D01*
X94200464Y-144853509D01*
X94096707Y-144633829D01*
X94026924Y-144370422D01*
X93971219Y-144005275D01*
X93962229Y-143933087D01*
X93927422Y-143511584D01*
X97612999Y-143511584D01*
X97649519Y-143600375D01*
X97743492Y-143790115D01*
X97829506Y-143954686D01*
X97958839Y-144238470D01*
X98019270Y-144508892D01*
X98028259Y-144850209D01*
X98026516Y-144905417D01*
X98022590Y-145208260D01*
X98044671Y-145384630D01*
X98102686Y-145476624D01*
X98169842Y-145513300D01*
X98408161Y-145578357D01*
X98531068Y-145546210D01*
X98544333Y-145501354D01*
X98501416Y-145371807D01*
X98409850Y-145208462D01*
X98319948Y-144924652D01*
X98378491Y-144598628D01*
X98579892Y-144258521D01*
X98604374Y-144228729D01*
X98729389Y-144056844D01*
X98777303Y-143941786D01*
X98772190Y-143925968D01*
X98674719Y-143873989D01*
X98476945Y-143792441D01*
X98226139Y-143698223D01*
X97969575Y-143608235D01*
X97754524Y-143539373D01*
X97628258Y-143508538D01*
X97612999Y-143511584D01*
X93927422Y-143511584D01*
X93912824Y-143334814D01*
X93931241Y-142855131D01*
X94021448Y-142455797D01*
X94144723Y-142174516D01*
X94232178Y-141968579D01*
X94451215Y-141968579D01*
X94533593Y-142024032D01*
X94698743Y-142033000D01*
X94906644Y-142008046D01*
X95030789Y-141947498D01*
X95034147Y-141942700D01*
X95063537Y-141850370D01*
X94991649Y-141781585D01*
X94787830Y-141709782D01*
X94754117Y-141700007D01*
X94572615Y-141663581D01*
X94490302Y-141714993D01*
X94458026Y-141829620D01*
X94451215Y-141968579D01*
X94232178Y-141968579D01*
X94275912Y-141865595D01*
X94302654Y-141636299D01*
X94222833Y-141510153D01*
X94205166Y-141502778D01*
X94054670Y-141504921D01*
X93799284Y-141556739D01*
X93490524Y-141643015D01*
X93179906Y-141748534D01*
X92918948Y-141858083D01*
X92819064Y-141912155D01*
X92489685Y-142152239D01*
X92182197Y-142437441D01*
X91949690Y-142716183D01*
X91888601Y-142816166D01*
X91754141Y-142979624D01*
X91601098Y-143048526D01*
X91477841Y-143015253D01*
X91435634Y-142897286D01*
X91570222Y-142897286D01*
X91642084Y-142890304D01*
X91753337Y-142767616D01*
X91772573Y-142738534D01*
X91944734Y-142495816D01*
X92123062Y-142277740D01*
X92382916Y-142057642D01*
X92753334Y-141831232D01*
X93179151Y-141626960D01*
X93605202Y-141473274D01*
X93761595Y-141432724D01*
X94013912Y-141373641D01*
X94182693Y-141329105D01*
X94226332Y-141312494D01*
X94200575Y-141218877D01*
X94140989Y-141050557D01*
X94074104Y-140877979D01*
X94026447Y-140771583D01*
X94019391Y-140763000D01*
X93910589Y-140803842D01*
X93696335Y-140912254D01*
X93415396Y-141067063D01*
X93106539Y-141247097D01*
X92887262Y-141381316D01*
X92628132Y-141571659D01*
X92350999Y-141820188D01*
X92081279Y-142097651D01*
X91844388Y-142374791D01*
X91665741Y-142622355D01*
X91570755Y-142811088D01*
X91570222Y-142897286D01*
X91435634Y-142897286D01*
X91432332Y-142888056D01*
X91487315Y-142723791D01*
X91631944Y-142479813D01*
X91835745Y-142195759D01*
X92068240Y-141911264D01*
X92298954Y-141665965D01*
X92497411Y-141499497D01*
X92502613Y-141496093D01*
X92681816Y-141366765D01*
X92779795Y-141270198D01*
X92785951Y-141254313D01*
X92749752Y-141151977D01*
X92655747Y-140953050D01*
X92575332Y-140797203D01*
X92455608Y-140555185D01*
X92449799Y-140540993D01*
X94292752Y-140540993D01*
X94310482Y-140615568D01*
X94477697Y-140683505D01*
X94564999Y-140701967D01*
X94816941Y-140742224D01*
X94943860Y-140744036D01*
X94986093Y-140705433D01*
X94988333Y-140681312D01*
X94914599Y-140565556D01*
X94736443Y-140484536D01*
X94518435Y-140462221D01*
X94433538Y-140475352D01*
X94292752Y-140540993D01*
X92449799Y-140540993D01*
X92378876Y-140367713D01*
X92363666Y-140303676D01*
X92443050Y-140252204D01*
X92664926Y-140178950D01*
X93004878Y-140090687D01*
X93438489Y-139994191D01*
X93591472Y-139962992D01*
X94819278Y-139717745D01*
X95030805Y-139916464D01*
G37*
D11*
%TO.C,J8*%
X86909369Y-121514203D02*
G75*
G02*
X74909369Y-121514203I-6000000J0D01*
G01*
X74909369Y-121514203D02*
G75*
G02*
X86909369Y-121514203I6000000J0D01*
G01*
D13*
%TO.C,R12*%
X88309118Y-132963937D02*
X89079118Y-132963937D01*
X96389118Y-132963937D02*
X95619118Y-132963937D01*
X95619118Y-134333937D02*
X89079118Y-134333937D01*
X89079118Y-131593937D01*
X95619118Y-131593937D01*
X95619118Y-134333937D01*
%TO.C,R7*%
X71091822Y-100000000D02*
X71861822Y-100000000D01*
X79171822Y-100000000D02*
X78401822Y-100000000D01*
X78401822Y-101370000D02*
X71861822Y-101370000D01*
X71861822Y-98630000D01*
X78401822Y-98630000D01*
X78401822Y-101370000D01*
D11*
%TO.C,J10*%
X86836603Y-140006636D02*
G75*
G02*
X74836603Y-140006636I-6000000J0D01*
G01*
X74836603Y-140006636D02*
G75*
G02*
X86836603Y-140006636I6000000J0D01*
G01*
D13*
%TO.C,J1*%
X64521278Y-45514480D02*
X73641278Y-45514480D01*
X64521278Y-61014480D02*
X64521278Y-45514480D01*
X65831278Y-46814480D02*
X72331278Y-46814480D01*
X65831278Y-59714480D02*
X65831278Y-46814480D01*
X72331278Y-46814480D02*
X72331278Y-51214480D01*
X72331278Y-51214480D02*
X73641278Y-51214480D01*
X72331278Y-55314480D02*
X72331278Y-59714480D01*
X72331278Y-59714480D02*
X65831278Y-59714480D01*
X73641278Y-45514480D02*
X73641278Y-61014480D01*
X73641278Y-55314480D02*
X72331278Y-55314480D01*
X73641278Y-61014480D02*
X64521278Y-61014480D01*
X74031278Y-55804480D02*
X75031278Y-56304480D01*
X75031278Y-55304480D02*
X74031278Y-55804480D01*
X75031278Y-56304480D02*
X75031278Y-55304480D01*
%TO.C,R3*%
X63960000Y-92500000D02*
X64730000Y-92500000D01*
X72040000Y-92500000D02*
X71270000Y-92500000D01*
X71270000Y-93870000D02*
X64730000Y-93870000D01*
X64730000Y-91130000D01*
X71270000Y-91130000D01*
X71270000Y-93870000D01*
%TO.C,R5*%
X55500000Y-94460000D02*
X55500000Y-95230000D01*
X55500000Y-102540000D02*
X55500000Y-101770000D01*
X54130000Y-101770000D02*
X56870000Y-101770000D01*
X56870000Y-95230000D01*
X54130000Y-95230000D01*
X54130000Y-101770000D01*
%TO.C,U2*%
X90160000Y-93360000D02*
X90160000Y-103640000D01*
X90160000Y-103640000D02*
X95460000Y-103640000D01*
X91810000Y-93360000D02*
X90160000Y-93360000D01*
X95460000Y-93360000D02*
X93810000Y-93360000D01*
X95460000Y-103640000D02*
X95460000Y-93360000D01*
X87670000Y-93300000D02*
X97950000Y-93300000D01*
X97950000Y-103700000D01*
X87670000Y-103700000D01*
X87670000Y-93300000D01*
X93810000Y-93360000D02*
G75*
G02*
X91810000Y-93360000I-1000000J0D01*
G01*
%TO.C,R9*%
X71156970Y-105944623D02*
X71926970Y-105944623D01*
X79236970Y-105944623D02*
X78466970Y-105944623D01*
X78466970Y-107314623D02*
X71926970Y-107314623D01*
X71926970Y-104574623D01*
X78466970Y-104574623D01*
X78466970Y-107314623D01*
%TO.C,C1*%
X69413846Y-107868969D02*
X73953846Y-107868969D01*
X69413846Y-107924969D02*
X69413846Y-107868969D01*
X73953846Y-109952969D02*
X73953846Y-110008969D01*
X73953846Y-110008969D02*
X69413846Y-110008969D01*
%TO.C,RV2*%
X82580000Y-85840000D02*
X82580000Y-84460000D01*
X83960000Y-85840000D02*
X82580000Y-85840000D01*
X85230000Y-83080000D02*
X90420000Y-83080000D01*
X85230000Y-85840000D02*
X85230000Y-83080000D01*
X85230000Y-85840000D02*
X90420000Y-85840000D01*
X90420000Y-85840000D02*
X90420000Y-83080000D01*
D11*
X75500000Y-62460000D02*
X97500000Y-62460000D01*
X97500000Y-86460000D01*
X75500000Y-86460000D01*
X75500000Y-62460000D01*
D13*
%TO.C,R6*%
X53127323Y-133004329D02*
X53897323Y-133004329D01*
X61207323Y-133004329D02*
X60437323Y-133004329D01*
X60437323Y-134374329D02*
X53897323Y-134374329D01*
X53897323Y-131634329D01*
X60437323Y-131634329D01*
X60437323Y-134374329D01*
D11*
%TO.C,J9*%
X99399066Y-121481212D02*
G75*
G02*
X87399066Y-121481212I-6000000J0D01*
G01*
X87399066Y-121481212D02*
G75*
G02*
X99399066Y-121481212I6000000J0D01*
G01*
D13*
%TO.C,R10*%
X84460000Y-112553862D02*
X85230000Y-112553862D01*
X92540000Y-112553862D02*
X91770000Y-112553862D01*
X85230000Y-111183862D02*
X91770000Y-111183862D01*
X91770000Y-113923862D01*
X85230000Y-113923862D01*
X85230000Y-111183862D01*
D11*
%TO.C,J4*%
X74500000Y-121502628D02*
G75*
G02*
X62500000Y-121502628I-6000000J0D01*
G01*
X62500000Y-121502628D02*
G75*
G02*
X74500000Y-121502628I6000000J0D01*
G01*
D13*
%TO.C,R11*%
X84540000Y-108000000D02*
X85310000Y-108000000D01*
X92620000Y-108000000D02*
X91850000Y-108000000D01*
X91850000Y-109370000D02*
X85310000Y-109370000D01*
X85310000Y-106630000D01*
X91850000Y-106630000D01*
X91850000Y-109370000D01*
%TO.C,R2*%
X71091822Y-95706162D02*
X71861822Y-95706162D01*
X79171822Y-95706162D02*
X78401822Y-95706162D01*
X78401822Y-97076162D02*
X71861822Y-97076162D01*
X71861822Y-94336162D01*
X78401822Y-94336162D01*
X78401822Y-97076162D01*
D11*
%TO.C,J5*%
X62090755Y-121494718D02*
G75*
G02*
X50090755Y-121494718I-6000000J0D01*
G01*
X50090755Y-121494718D02*
G75*
G02*
X62090755Y-121494718I6000000J0D01*
G01*
D13*
%TO.C,C4*%
X85086346Y-102059996D02*
X85086346Y-97519996D01*
X85142346Y-102059996D02*
X85086346Y-102059996D01*
X87170346Y-97519996D02*
X87226346Y-97519996D01*
X87226346Y-97519996D02*
X87226346Y-102059996D01*
%TO.C,C2*%
X54925297Y-113314862D02*
X54925297Y-108774862D01*
X54981297Y-113314862D02*
X54925297Y-113314862D01*
X57009297Y-108774862D02*
X57065297Y-108774862D01*
X57065297Y-108774862D02*
X57065297Y-113314862D01*
%TO.C,R1*%
X52000000Y-104460000D02*
X52000000Y-105230000D01*
X52000000Y-112540000D02*
X52000000Y-111770000D01*
X53370000Y-105230000D02*
X50630000Y-105230000D01*
X50630000Y-111770000D01*
X53370000Y-111770000D01*
X53370000Y-105230000D01*
D11*
%TO.C,J6*%
X74711444Y-139997243D02*
G75*
G02*
X62711444Y-139997243I-6000000J0D01*
G01*
X62711444Y-139997243D02*
G75*
G02*
X74711444Y-139997243I6000000J0D01*
G01*
D13*
%TO.C,RV1*%
X59165000Y-85840000D02*
X59165000Y-84460000D01*
X60545000Y-85840000D02*
X59165000Y-85840000D01*
X61815000Y-83080000D02*
X67005000Y-83080000D01*
X61815000Y-85840000D02*
X61815000Y-83080000D01*
X61815000Y-85840000D02*
X67005000Y-85840000D01*
X67005000Y-85840000D02*
X67005000Y-83080000D01*
D11*
X52085000Y-62460000D02*
X74085000Y-62460000D01*
X74085000Y-86460000D01*
X52085000Y-86460000D01*
X52085000Y-62460000D01*
D13*
%TO.C,R8*%
X71220138Y-112493625D02*
X71990138Y-112493625D01*
X79300138Y-112493625D02*
X78530138Y-112493625D01*
X71990138Y-111123625D02*
X78530138Y-111123625D01*
X78530138Y-113863625D01*
X71990138Y-113863625D01*
X71990138Y-111123625D01*
%TO.C,R4*%
X77032534Y-92469898D02*
X77802534Y-92469898D01*
X85112534Y-92469898D02*
X84342534Y-92469898D01*
X84342534Y-93839898D02*
X77802534Y-93839898D01*
X77802534Y-91099898D01*
X84342534Y-91099898D01*
X84342534Y-93839898D01*
%TO.C,C3*%
X91840297Y-90734394D02*
X96380297Y-90734394D01*
X91840297Y-90790394D02*
X91840297Y-90734394D01*
X96380297Y-92818394D02*
X96380297Y-92874394D01*
X96380297Y-92874394D02*
X91840297Y-92874394D01*
%TO.C,U1*%
X60047798Y-94454530D02*
X60047798Y-114894530D01*
X60047798Y-114894530D02*
X65347798Y-114894530D01*
X61697798Y-94454530D02*
X60047798Y-94454530D01*
X65347798Y-94454530D02*
X63697798Y-94454530D01*
X65347798Y-114894530D02*
X65347798Y-94454530D01*
X57557798Y-94394530D02*
X67837798Y-94394530D01*
X67837798Y-114954530D01*
X57557798Y-114954530D01*
X57557798Y-94394530D01*
X63697798Y-94454530D02*
G75*
G02*
X61697798Y-94454530I-1000000J0D01*
G01*
%TD*%
M02*
