%TF.GenerationSoftware,KiCad,Pcbnew,9.0.6*%
%TF.CreationDate,2026-01-05T02:57:40+11:00*%
%TF.ProjectId,voltage-controlled-amplifier,766f6c74-6167-4652-9d63-6f6e74726f6c,rev?*%
%TF.SameCoordinates,Original*%
%TF.FileFunction,Copper,L2,Bot*%
%TF.FilePolarity,Positive*%
%FSLAX46Y46*%
G04 Gerber Fmt 4.6, Leading zero omitted, Abs format (unit mm)*
G04 Created by KiCad (PCBNEW 9.0.6) date 2026-01-05 02:57:40*
%MOMM*%
%LPD*%
G01*
G04 APERTURE LIST*
G04 Aperture macros list*
%AMRoundRect*
0 Rectangle with rounded corners*
0 $1 Rounding radius*
0 $2 $3 $4 $5 $6 $7 $8 $9 X,Y pos of 4 corners*
0 Add a 4 corners polygon primitive as box body*
4,1,4,$2,$3,$4,$5,$6,$7,$8,$9,$2,$3,0*
0 Add four circle primitives for the rounded corners*
1,1,$1+$1,$2,$3*
1,1,$1+$1,$4,$5*
1,1,$1+$1,$6,$7*
1,1,$1+$1,$8,$9*
0 Add four rect primitives between the rounded corners*
20,1,$1+$1,$2,$3,$4,$5,0*
20,1,$1+$1,$4,$5,$6,$7,0*
20,1,$1+$1,$6,$7,$8,$9,0*
20,1,$1+$1,$8,$9,$2,$3,0*%
G04 Aperture macros list end*
%TA.AperFunction,ComponentPad*%
%ADD10C,1.600000*%
%TD*%
%TA.AperFunction,ComponentPad*%
%ADD11C,8.000000*%
%TD*%
%TA.AperFunction,ComponentPad*%
%ADD12RoundRect,0.250000X0.600000X-0.600000X0.600000X0.600000X-0.600000X0.600000X-0.600000X-0.600000X0*%
%TD*%
%TA.AperFunction,ComponentPad*%
%ADD13C,1.700000*%
%TD*%
%TA.AperFunction,ComponentPad*%
%ADD14R,1.700000X1.700000*%
%TD*%
%TA.AperFunction,ComponentPad*%
%ADD15RoundRect,0.250000X-0.550000X-0.550000X0.550000X-0.550000X0.550000X0.550000X-0.550000X0.550000X0*%
%TD*%
%TA.AperFunction,Conductor*%
%ADD16C,0.200000*%
%TD*%
G04 APERTURE END LIST*
D10*
%TO.P,R12,2*%
%TO.N,Net-(J10-Pin_1)*%
X91849387Y-109289227D03*
%TO.P,R12,1*%
%TO.N,Net-(R11-Pad1)*%
X81689387Y-109289227D03*
%TD*%
%TO.P,R11,1*%
%TO.N,Net-(R11-Pad1)*%
X81690000Y-106247581D03*
%TO.P,R11,2*%
%TO.N,-12V*%
X91850000Y-106247581D03*
%TD*%
%TO.P,R9,2*%
%TO.N,Net-(R9-Pad2)*%
X81690000Y-103232012D03*
%TO.P,R9,1*%
%TO.N,GND*%
X91850000Y-103232012D03*
%TD*%
%TO.P,C2,2*%
%TO.N,12V*%
X80500000Y-51000000D03*
%TO.P,C2,1*%
%TO.N,GND*%
X85500000Y-51000000D03*
%TD*%
%TO.P,R10,2*%
%TO.N,Net-(J9-Pin_1)*%
X91850000Y-94190000D03*
%TO.P,R10,1*%
%TO.N,Net-(R10-Pad1)*%
X81690000Y-94190000D03*
%TD*%
%TO.P,R3,2*%
%TO.N,Net-(J5-Pin_1)*%
X57530000Y-94190000D03*
%TO.P,R3,1*%
%TO.N,Net-(R3-Pad1)*%
X67690000Y-94190000D03*
%TD*%
D11*
%TO.P,J8,1,Pin_1*%
%TO.N,Net-(J8-Pin_1)*%
X81500000Y-122000000D03*
%TD*%
D10*
%TO.P,R7,1*%
%TO.N,12V*%
X91850000Y-97232012D03*
%TO.P,R7,2*%
%TO.N,Net-(U1A-DIODE_BIAS)*%
X81690000Y-97232012D03*
%TD*%
D11*
%TO.P,J10,1,Pin_1*%
%TO.N,Net-(J10-Pin_1)*%
X81500000Y-140000000D03*
%TD*%
D12*
%TO.P,J1,1,Pin_1*%
%TO.N,12V*%
X84420000Y-59040000D03*
D13*
%TO.P,J1,2,Pin_2*%
%TO.N,-12V*%
X84420000Y-56500000D03*
%TO.P,J1,3,Pin_3*%
%TO.N,GND*%
X86960000Y-59040000D03*
%TO.P,J1,4,Pin_4*%
X86960000Y-56500000D03*
%TO.P,J1,5,Pin_5*%
%TO.N,5V*%
X89500000Y-59040000D03*
%TO.P,J1,6,Pin_6*%
%TO.N,unconnected-(J1-Pin_6-Pad6)*%
X89500000Y-56500000D03*
%TD*%
D10*
%TO.P,R5,1*%
%TO.N,Net-(R5-Pad1)*%
X57530000Y-106190000D03*
%TO.P,R5,2*%
%TO.N,-12V*%
X67690000Y-106190000D03*
%TD*%
%TO.P,C1,1*%
%TO.N,-12V*%
X64500000Y-51000000D03*
%TO.P,C1,2*%
%TO.N,GND*%
X69500000Y-51000000D03*
%TD*%
D14*
%TO.P,RV2,1,1*%
%TO.N,Net-(J7-Pin_1)*%
X83645000Y-86065000D03*
D13*
%TO.P,RV2,2,2*%
%TO.N,GND*%
X86185000Y-86065000D03*
%TO.P,RV2,3,3*%
%TO.N,Net-(J7-Pin_3)*%
X88725000Y-86065000D03*
%TD*%
D10*
%TO.P,R6,1*%
%TO.N,Net-(R5-Pad1)*%
X67690000Y-109190000D03*
%TO.P,R6,2*%
%TO.N,Net-(J6-Pin_1)*%
X57530000Y-109190000D03*
%TD*%
D11*
%TO.P,J9,1,Pin_1*%
%TO.N,Net-(J9-Pin_1)*%
X94000000Y-122000000D03*
%TD*%
%TO.P,J4,1,Pin_1*%
%TO.N,Net-(J4-Pin_1)*%
X69000000Y-122000000D03*
%TD*%
D14*
%TO.P,J7,1,Pin_1*%
%TO.N,Net-(J7-Pin_1)*%
X81099291Y-65247247D03*
D13*
%TO.P,J7,2,Pin_2*%
%TO.N,GND*%
X86179291Y-65247247D03*
%TO.P,J7,3,Pin_3*%
%TO.N,Net-(J7-Pin_3)*%
X91179291Y-65247247D03*
%TD*%
D12*
%TO.P,J2,1,Pin_1*%
%TO.N,12V*%
X60420000Y-59040000D03*
D13*
%TO.P,J2,2,Pin_2*%
%TO.N,-12V*%
X60420000Y-56500000D03*
%TO.P,J2,3,Pin_3*%
%TO.N,GND*%
X62960000Y-59040000D03*
%TO.P,J2,4,Pin_4*%
X62960000Y-56500000D03*
%TO.P,J2,5,Pin_5*%
%TO.N,5V*%
X65500000Y-59040000D03*
%TO.P,J2,6,Pin_6*%
%TO.N,unconnected-(J2-Pin_6-Pad6)*%
X65500000Y-56500000D03*
%TD*%
D10*
%TO.P,R2,1*%
%TO.N,12V*%
X57530000Y-97190000D03*
%TO.P,R2,2*%
%TO.N,Net-(U1C-DIODE_BIAS)*%
X67690000Y-97190000D03*
%TD*%
D11*
%TO.P,J5,1,Pin_1*%
%TO.N,Net-(J5-Pin_1)*%
X56500000Y-121524938D03*
%TD*%
D14*
%TO.P,J3,1,Pin_1*%
%TO.N,Net-(J3-Pin_1)*%
X58009532Y-65231407D03*
D13*
%TO.P,J3,2,Pin_2*%
%TO.N,GND*%
X63089532Y-65231407D03*
%TO.P,J3,3,Pin_3*%
%TO.N,Net-(J3-Pin_3)*%
X68089532Y-65231407D03*
%TD*%
D10*
%TO.P,R1,1*%
%TO.N,Net-(J3-Pin_1)*%
X67690000Y-100190000D03*
%TO.P,R1,2*%
%TO.N,Net-(J4-Pin_1)*%
X57530000Y-100190000D03*
%TD*%
D11*
%TO.P,J6,1,Pin_1*%
%TO.N,Net-(J6-Pin_1)*%
X69000000Y-140000000D03*
%TD*%
D14*
%TO.P,RV1,1,1*%
%TO.N,Net-(J3-Pin_1)*%
X60545000Y-86065000D03*
D13*
%TO.P,RV1,2,2*%
%TO.N,GND*%
X63085000Y-86065000D03*
%TO.P,RV1,3,3*%
%TO.N,Net-(J3-Pin_3)*%
X65625000Y-86065000D03*
%TD*%
D10*
%TO.P,R8,1*%
%TO.N,Net-(J7-Pin_1)*%
X81690000Y-100232012D03*
%TO.P,R8,2*%
%TO.N,Net-(J8-Pin_1)*%
X91850000Y-100232012D03*
%TD*%
%TO.P,R4,1*%
%TO.N,GND*%
X57530000Y-103190000D03*
%TO.P,R4,2*%
%TO.N,Net-(R4-Pad2)*%
X67690000Y-103190000D03*
%TD*%
D15*
%TO.P,U1,1*%
%TO.N,Net-(R3-Pad1)*%
X70880000Y-94300000D03*
D10*
%TO.P,U1,2,DIODE_BIAS*%
%TO.N,Net-(U1C-DIODE_BIAS)*%
X70880000Y-96840000D03*
%TO.P,U1,3,+*%
%TO.N,Net-(J3-Pin_1)*%
X70880000Y-99380000D03*
%TO.P,U1,4,-*%
%TO.N,Net-(J3-Pin_3)*%
X70880000Y-101920000D03*
%TO.P,U1,5*%
%TO.N,Net-(R4-Pad2)*%
X70880000Y-104460000D03*
%TO.P,U1,6,V-*%
%TO.N,-12V*%
X70880000Y-107000000D03*
%TO.P,U1,7*%
%TO.N,Net-(R4-Pad2)*%
X70880000Y-109540000D03*
%TO.P,U1,8*%
%TO.N,Net-(R5-Pad1)*%
X70880000Y-112080000D03*
%TO.P,U1,9*%
%TO.N,Net-(R11-Pad1)*%
X78500000Y-112080000D03*
%TO.P,U1,10*%
%TO.N,Net-(R9-Pad2)*%
X78500000Y-109540000D03*
%TO.P,U1,11,V+*%
%TO.N,12V*%
X78500000Y-107000000D03*
%TO.P,U1,12*%
%TO.N,Net-(R9-Pad2)*%
X78500000Y-104460000D03*
%TO.P,U1,13,-*%
%TO.N,Net-(J7-Pin_3)*%
X78500000Y-101920000D03*
%TO.P,U1,14,+*%
%TO.N,Net-(J7-Pin_1)*%
X78500000Y-99380000D03*
%TO.P,U1,15,DIODE_BIAS*%
%TO.N,Net-(U1A-DIODE_BIAS)*%
X78500000Y-96840000D03*
%TO.P,U1,16*%
%TO.N,Net-(R10-Pad1)*%
X78500000Y-94300000D03*
%TD*%
D16*
%TO.N,Net-(J6-Pin_1)*%
X57530000Y-109190000D02*
X60801000Y-112461000D01*
X60801000Y-112461000D02*
X60801000Y-131801000D01*
X60801000Y-131801000D02*
X69000000Y-140000000D01*
%TO.N,Net-(J3-Pin_1)*%
X60545000Y-86065000D02*
X60545000Y-93045000D01*
X60545000Y-93045000D02*
X67690000Y-100190000D01*
%TO.N,-12V*%
X60420000Y-56500000D02*
X56429000Y-60491000D01*
X56429000Y-60491000D02*
X56429000Y-97646050D01*
X57073950Y-98291000D02*
X57791000Y-98291000D01*
X57791000Y-98291000D02*
X65690000Y-106190000D01*
X56429000Y-97646050D02*
X57073950Y-98291000D01*
X65690000Y-106190000D02*
X67690000Y-106190000D01*
%TO.N,12V*%
X57530000Y-97190000D02*
X62429000Y-102089000D01*
X62429000Y-102089000D02*
X68589000Y-102089000D01*
X68589000Y-102089000D02*
X69859000Y-103359000D01*
X69859000Y-103359000D02*
X74859000Y-103359000D01*
X74859000Y-103359000D02*
X78500000Y-107000000D01*
%TO.N,Net-(J3-Pin_3)*%
X70880000Y-101920000D02*
X69779000Y-100819000D01*
X69779000Y-100819000D02*
X69779000Y-90219000D01*
X69779000Y-90219000D02*
X65625000Y-86065000D01*
%TO.N,Net-(R5-Pad1)*%
X57530000Y-106190000D02*
X64690000Y-106190000D01*
X64690000Y-106190000D02*
X67690000Y-109190000D01*
%TO.N,-12V*%
X67690000Y-106190000D02*
X70070000Y-106190000D01*
X70070000Y-106190000D02*
X70880000Y-107000000D01*
%TO.N,Net-(J10-Pin_1)*%
X91850000Y-109232012D02*
X91850000Y-118067467D01*
X91850000Y-118067467D02*
X81500000Y-128417467D01*
X81500000Y-128417467D02*
X81500000Y-140000000D01*
%TO.N,Net-(J7-Pin_3)*%
X78500000Y-101920000D02*
X79601000Y-100819000D01*
X79601000Y-100819000D02*
X79601000Y-94721950D01*
X79601000Y-94721950D02*
X88257950Y-86065000D01*
X88257950Y-86065000D02*
X88725000Y-86065000D01*
%TO.N,12V*%
X78500000Y-107000000D02*
X81166988Y-104333012D01*
X81166988Y-104333012D02*
X84749000Y-104333012D01*
X84749000Y-104333012D02*
X91850000Y-97232012D01*
%TO.N,-12V*%
X70880000Y-107000000D02*
X71981000Y-108101000D01*
X71981000Y-108101000D02*
X89939000Y-108101000D01*
X89939000Y-108101000D02*
X91850000Y-106190000D01*
%TO.N,12V*%
X60420000Y-59040000D02*
X61571000Y-60191000D01*
X61571000Y-60191000D02*
X83269000Y-60191000D01*
X83269000Y-60191000D02*
X84420000Y-59040000D01*
%TO.N,5V*%
X65500000Y-59040000D02*
X66651000Y-57889000D01*
X66651000Y-57889000D02*
X88349000Y-57889000D01*
X88349000Y-57889000D02*
X89500000Y-59040000D01*
%TO.N,-12V*%
X60420000Y-56500000D02*
X61571000Y-55349000D01*
X61571000Y-55349000D02*
X83269000Y-55349000D01*
X83269000Y-55349000D02*
X84420000Y-56500000D01*
%TD*%
M02*
