M48
; DRILL file {KiCad 9.0.6} date 2026-01-10T15:14:38+1100
; FORMAT={-:-/ absolute / metric / decimal}
; #@! TF.CreationDate,2026-01-10T15:14:38+11:00
; #@! TF.GenerationSoftware,Kicad,Pcbnew,9.0.6
; #@! TF.FileFunction,Plated,1,2,PTH
FMAT,2
METRIC
; #@! TA.AperFunction,Plated,PTH,ComponentDrill
T1C0.800
; #@! TA.AperFunction,Plated,PTH,ComponentDrill
T2C1.000
; #@! TA.AperFunction,Plated,PTH,ComponentDrill
T3C1.200
; #@! TA.AperFunction,Plated,PTH,ComponentDrill
T4C6.000
%
G90
G05
T1
X51.251Y-114.139
X52.087Y-133.004
X52.096Y-101.63
X52.096Y-111.79
X52.102Y-89.261
X52.102Y-99.421
X55.471Y-101.643
X55.471Y-111.803
X55.483Y-89.255
X55.483Y-99.415
X56.251Y-114.139
X58.888Y-95.785
X58.888Y-98.325
X58.888Y-100.865
X58.888Y-103.405
X58.888Y-105.945
X58.888Y-108.485
X58.888Y-111.025
X58.888Y-113.565
X62.247Y-133.004
X66.508Y-95.785
X66.508Y-98.325
X66.508Y-100.865
X66.508Y-103.405
X66.508Y-105.945
X66.508Y-108.485
X66.508Y-111.025
X66.508Y-113.565
X69.184Y-108.939
X70.052Y-95.706
X70.052Y-100.0
X70.117Y-105.945
X70.18Y-112.494
X74.184Y-108.939
X80.212Y-95.706
X80.212Y-100.0
X80.277Y-105.945
X80.34Y-112.494
X83.42Y-112.554
X83.5Y-108.0
X86.156Y-97.29
X86.156Y-102.29
X87.269Y-132.964
X89.0Y-94.69
X89.0Y-97.23
X89.0Y-99.77
X89.0Y-102.31
X91.61Y-91.804
X93.58Y-112.554
X93.66Y-108.0
X96.61Y-91.804
X96.62Y-94.69
X96.62Y-97.23
X96.62Y-99.77
X96.62Y-102.31
X97.429Y-132.964
T2
X60.545Y-86.065
X63.085Y-86.065
X65.625Y-86.065
X67.811Y-52.329
X67.811Y-54.869
X67.811Y-57.409
X70.351Y-52.329
X70.351Y-54.869
X70.351Y-57.409
X79.198Y-52.329
X79.198Y-54.869
X79.198Y-57.409
X81.738Y-52.329
X81.738Y-54.869
X81.738Y-57.409
X83.96Y-86.065
X86.5Y-86.065
X89.04Y-86.065
T3
X58.01Y-70.0
X63.09Y-70.0
X68.09Y-70.0
X81.5Y-70.0
X86.58Y-70.0
X91.58Y-70.0
T4
X56.091Y-121.52
X68.5Y-121.528
X68.711Y-140.022
X80.837Y-140.032
X80.909Y-121.539
X93.399Y-121.506
M30
