M48
; DRILL file {KiCad 9.0.6} date 2026-01-15T14:59:24+1100
; FORMAT={-:-/ absolute / metric / decimal}
; #@! TF.CreationDate,2026-01-15T14:59:24+11:00
; #@! TF.GenerationSoftware,Kicad,Pcbnew,9.0.6
; #@! TF.FileFunction,Plated,1,2,PTH
FMAT,2
METRIC
; #@! TA.AperFunction,Plated,PTH,ComponentDrill
T1C0.800
; #@! TA.AperFunction,Plated,PTH,ComponentDrill
T2C1.000
; #@! TA.AperFunction,Plated,PTH,ComponentDrill
T3C1.200
; #@! TA.AperFunction,Plated,PTH,ComponentDrill
T4C6.000
%
G90
G05
T1
X52.0Y-103.42
X52.0Y-113.58
X52.087Y-133.004
X55.5Y-93.42
X55.5Y-103.58
X55.995Y-108.545
X55.995Y-113.545
X58.888Y-95.785
X58.888Y-98.325
X58.888Y-100.865
X58.888Y-103.405
X58.888Y-105.945
X58.888Y-108.485
X58.888Y-111.025
X58.888Y-113.565
X62.247Y-133.004
X62.92Y-92.5
X66.508Y-95.785
X66.508Y-98.325
X66.508Y-100.865
X66.508Y-103.405
X66.508Y-105.945
X66.508Y-108.485
X66.508Y-111.025
X66.508Y-113.565
X69.184Y-108.939
X70.052Y-95.706
X70.052Y-100.0
X70.117Y-105.945
X70.18Y-112.494
X73.08Y-92.5
X74.184Y-108.939
X75.993Y-92.47
X80.212Y-95.706
X80.212Y-100.0
X80.277Y-105.945
X80.34Y-112.494
X83.42Y-112.554
X83.5Y-108.0
X86.153Y-92.47
X86.156Y-97.29
X86.156Y-102.29
X87.269Y-132.964
X89.0Y-94.69
X89.0Y-97.23
X89.0Y-99.77
X89.0Y-102.31
X91.61Y-91.804
X93.58Y-112.554
X93.66Y-108.0
X96.61Y-91.804
X96.62Y-94.69
X96.62Y-97.23
X96.62Y-99.77
X96.62Y-102.31
X97.429Y-132.964
T2
X60.545Y-84.46
X63.085Y-84.46
X65.625Y-84.46
X67.811Y-50.724
X67.811Y-53.264
X67.811Y-55.804
X70.351Y-50.724
X70.351Y-53.264
X70.351Y-55.804
X79.198Y-50.724
X79.198Y-53.264
X79.198Y-55.804
X81.738Y-50.724
X81.738Y-53.264
X81.738Y-55.804
X83.96Y-84.46
X86.5Y-84.46
X89.04Y-84.46
T3
X58.01Y-68.395
X63.09Y-68.395
X68.09Y-68.395
X81.5Y-68.395
X86.58Y-68.395
X91.58Y-68.395
T4
X56.091Y-121.52
X68.5Y-121.528
X68.711Y-140.022
X80.837Y-140.032
X80.909Y-121.539
X93.399Y-121.506
M30
