%TF.GenerationSoftware,KiCad,Pcbnew,9.0.7*%
%TF.CreationDate,2026-02-08T19:41:06+11:00*%
%TF.ProjectId,voltage-controlled-amplifier,766f6c74-6167-4652-9d63-6f6e74726f6c,rev?*%
%TF.SameCoordinates,Original*%
%TF.FileFunction,Copper,L2,Bot*%
%TF.FilePolarity,Positive*%
%FSLAX46Y46*%
G04 Gerber Fmt 4.6, Leading zero omitted, Abs format (unit mm)*
G04 Created by KiCad (PCBNEW 9.0.7) date 2026-02-08 19:41:06*
%MOMM*%
%LPD*%
G01*
G04 APERTURE LIST*
G04 Aperture macros list*
%AMRoundRect*
0 Rectangle with rounded corners*
0 $1 Rounding radius*
0 $2 $3 $4 $5 $6 $7 $8 $9 X,Y pos of 4 corners*
0 Add a 4 corners polygon primitive as box body*
4,1,4,$2,$3,$4,$5,$6,$7,$8,$9,$2,$3,0*
0 Add four circle primitives for the rounded corners*
1,1,$1+$1,$2,$3*
1,1,$1+$1,$4,$5*
1,1,$1+$1,$6,$7*
1,1,$1+$1,$8,$9*
0 Add four rect primitives between the rounded corners*
20,1,$1+$1,$2,$3,$4,$5,0*
20,1,$1+$1,$4,$5,$6,$7,0*
20,1,$1+$1,$6,$7,$8,$9,0*
20,1,$1+$1,$8,$9,$2,$3,0*%
G04 Aperture macros list end*
%TA.AperFunction,ComponentPad*%
%ADD10RoundRect,0.250000X-0.600000X-0.600000X0.600000X-0.600000X0.600000X0.600000X-0.600000X0.600000X0*%
%TD*%
%TA.AperFunction,ComponentPad*%
%ADD11C,1.700000*%
%TD*%
%TA.AperFunction,ComponentPad*%
%ADD12C,8.000000*%
%TD*%
%TA.AperFunction,ComponentPad*%
%ADD13C,1.600000*%
%TD*%
%TA.AperFunction,ComponentPad*%
%ADD14RoundRect,0.250000X0.600000X0.600000X-0.600000X0.600000X-0.600000X-0.600000X0.600000X-0.600000X0*%
%TD*%
%TA.AperFunction,ComponentPad*%
%ADD15RoundRect,0.250000X-0.550000X-0.550000X0.550000X-0.550000X0.550000X0.550000X-0.550000X0.550000X0*%
%TD*%
%TA.AperFunction,ComponentPad*%
%ADD16R,1.700000X1.700000*%
%TD*%
%TA.AperFunction,ComponentPad*%
%ADD17R,2.000000X2.000000*%
%TD*%
%TA.AperFunction,ComponentPad*%
%ADD18C,2.000000*%
%TD*%
%TA.AperFunction,Conductor*%
%ADD19C,0.200000*%
%TD*%
G04 APERTURE END LIST*
D10*
%TO.P,J2,1,Pin_1*%
%TO.N,12V*%
X79200000Y-50720000D03*
D11*
%TO.P,J2,2,Pin_2*%
%TO.N,-12V*%
X81740000Y-50720000D03*
%TO.P,J2,3,Pin_3*%
%TO.N,GND*%
X79200000Y-53260000D03*
%TO.P,J2,4,Pin_4*%
X81740000Y-53260000D03*
%TO.P,J2,5,Pin_5*%
%TO.N,5V*%
X79200000Y-55800000D03*
%TO.P,J2,6,Pin_6*%
%TO.N,unconnected-(J2-Pin_6-Pad6)*%
X81740000Y-55800000D03*
%TD*%
D12*
%TO.P,J8,1,Pin_1*%
%TO.N,Net-(J8-Pin_1)*%
X80909369Y-121539141D03*
%TD*%
D13*
%TO.P,R12,1*%
%TO.N,Net-(U2B--)*%
X97429118Y-132963937D03*
%TO.P,R12,2*%
%TO.N,Net-(J10-Pin_1)*%
X87269118Y-132963937D03*
%TD*%
%TO.P,R7,1*%
%TO.N,12V*%
X80211822Y-100000000D03*
%TO.P,R7,2*%
%TO.N,Net-(U1A-DIODE_BIAS)*%
X70051822Y-100000000D03*
%TD*%
D12*
%TO.P,J10,1,Pin_1*%
%TO.N,Net-(J10-Pin_1)*%
X80836603Y-140031574D03*
%TD*%
D14*
%TO.P,J1,1,Pin_1*%
%TO.N,12V*%
X70351278Y-55804480D03*
D11*
%TO.P,J1,2,Pin_2*%
%TO.N,-12V*%
X67811278Y-55804480D03*
%TO.P,J1,3,Pin_3*%
%TO.N,GND*%
X70351278Y-53264480D03*
%TO.P,J1,4,Pin_4*%
X67811278Y-53264480D03*
%TO.P,J1,5,Pin_5*%
%TO.N,5V*%
X70351278Y-50724480D03*
%TO.P,J1,6,Pin_6*%
%TO.N,unconnected-(J1-Pin_6-Pad6)*%
X67811278Y-50724480D03*
%TD*%
D13*
%TO.P,R3,1*%
%TO.N,Net-(R3-Pad1)*%
X73080000Y-92500000D03*
%TO.P,R3,2*%
%TO.N,Net-(J5-Pin_1)*%
X62920000Y-92500000D03*
%TD*%
%TO.P,R5,1*%
%TO.N,Net-(U2A-+)*%
X55500000Y-103580000D03*
%TO.P,R5,2*%
%TO.N,-12V*%
X55500000Y-93420000D03*
%TD*%
D15*
%TO.P,U2,1*%
%TO.N,Net-(U2A--)*%
X89000000Y-94690000D03*
D13*
%TO.P,U2,2,-*%
X89000000Y-97230000D03*
%TO.P,U2,3,+*%
%TO.N,Net-(U2A-+)*%
X89000000Y-99770000D03*
%TO.P,U2,4,V-*%
%TO.N,-12V*%
X89000000Y-102310000D03*
%TO.P,U2,5,+*%
%TO.N,Net-(U2B-+)*%
X96620000Y-102310000D03*
%TO.P,U2,6,-*%
%TO.N,Net-(U2B--)*%
X96620000Y-99770000D03*
%TO.P,U2,7*%
X96620000Y-97230000D03*
%TO.P,U2,8,V+*%
%TO.N,12V*%
X96620000Y-94690000D03*
%TD*%
%TO.P,R9,1*%
%TO.N,GND*%
X80276970Y-105944623D03*
%TO.P,R9,2*%
%TO.N,Net-(R9-Pad2)*%
X70116970Y-105944623D03*
%TD*%
%TO.P,C1,1*%
%TO.N,GND*%
X74183846Y-108938969D03*
%TO.P,C1,2*%
%TO.N,12V*%
X69183846Y-108938969D03*
%TD*%
D16*
%TO.P,RV2,1,1*%
%TO.N,Net-(J7-Pin_1)*%
X83960000Y-84460000D03*
D11*
%TO.P,RV2,2,2*%
%TO.N,GND*%
X86500000Y-84460000D03*
%TO.P,RV2,3,3*%
%TO.N,Net-(J7-Pin_3)*%
X89040000Y-84460000D03*
%TD*%
D13*
%TO.P,R6,1*%
%TO.N,Net-(U2A--)*%
X62247323Y-133004329D03*
%TO.P,R6,2*%
%TO.N,Net-(J6-Pin_1)*%
X52087323Y-133004329D03*
%TD*%
D12*
%TO.P,J9,1,Pin_1*%
%TO.N,Net-(J9-Pin_1)*%
X93399066Y-121506150D03*
%TD*%
D13*
%TO.P,R10,1*%
%TO.N,Net-(R10-Pad1)*%
X83420000Y-112553862D03*
%TO.P,R10,2*%
%TO.N,Net-(J9-Pin_1)*%
X93580000Y-112553862D03*
%TD*%
D12*
%TO.P,J4,1,Pin_1*%
%TO.N,Net-(J4-Pin_1)*%
X68500000Y-121527566D03*
%TD*%
D17*
%TO.P,J7,1,Pin_1*%
%TO.N,Net-(J7-Pin_1)*%
X81500000Y-68395000D03*
D18*
%TO.P,J7,2,Pin_2*%
%TO.N,GND*%
X86580000Y-68395000D03*
%TO.P,J7,3,Pin_3*%
%TO.N,Net-(J7-Pin_3)*%
X91580000Y-68395000D03*
%TD*%
D13*
%TO.P,R11,1*%
%TO.N,Net-(U2B-+)*%
X93660000Y-108000000D03*
%TO.P,R11,2*%
%TO.N,-12V*%
X83500000Y-108000000D03*
%TD*%
%TO.P,R2,1*%
%TO.N,12V*%
X80211822Y-95706162D03*
%TO.P,R2,2*%
%TO.N,Net-(U1C-DIODE_BIAS)*%
X70051822Y-95706162D03*
%TD*%
D12*
%TO.P,J5,1,Pin_1*%
%TO.N,Net-(J5-Pin_1)*%
X56090755Y-121519656D03*
%TD*%
D13*
%TO.P,C4,1*%
%TO.N,-12V*%
X86156346Y-102289996D03*
%TO.P,C4,2*%
%TO.N,GND*%
X86156346Y-97289996D03*
%TD*%
%TO.P,C2,1*%
%TO.N,-12V*%
X55995297Y-108544862D03*
%TO.P,C2,2*%
%TO.N,GND*%
X55995297Y-113544862D03*
%TD*%
D17*
%TO.P,J3,1,Pin_1*%
%TO.N,Net-(J3-Pin_1)*%
X58009532Y-68395000D03*
D18*
%TO.P,J3,2,Pin_2*%
%TO.N,GND*%
X63089532Y-68395000D03*
%TO.P,J3,3,Pin_3*%
%TO.N,Net-(J3-Pin_3)*%
X68089532Y-68395000D03*
%TD*%
D13*
%TO.P,R1,1*%
%TO.N,Net-(J3-Pin_1)*%
X52000000Y-103420000D03*
%TO.P,R1,2*%
%TO.N,Net-(J4-Pin_1)*%
X52000000Y-113580000D03*
%TD*%
D12*
%TO.P,J6,1,Pin_1*%
%TO.N,Net-(J6-Pin_1)*%
X68711444Y-140022181D03*
%TD*%
D16*
%TO.P,RV1,1,1*%
%TO.N,Net-(J3-Pin_1)*%
X60545000Y-84460000D03*
D11*
%TO.P,RV1,2,2*%
%TO.N,GND*%
X63085000Y-84460000D03*
%TO.P,RV1,3,3*%
%TO.N,Net-(J3-Pin_3)*%
X65625000Y-84460000D03*
%TD*%
D13*
%TO.P,R8,1*%
%TO.N,Net-(J7-Pin_1)*%
X70180138Y-112493625D03*
%TO.P,R8,2*%
%TO.N,Net-(J8-Pin_1)*%
X80340138Y-112493625D03*
%TD*%
%TO.P,R4,1*%
%TO.N,GND*%
X86152534Y-92469898D03*
%TO.P,R4,2*%
%TO.N,Net-(R4-Pad2)*%
X75992534Y-92469898D03*
%TD*%
%TO.P,C3,1*%
%TO.N,GND*%
X91610297Y-91804394D03*
%TO.P,C3,2*%
%TO.N,12V*%
X96610297Y-91804394D03*
%TD*%
D15*
%TO.P,U1,1*%
%TO.N,Net-(R3-Pad1)*%
X58887798Y-95784530D03*
D13*
%TO.P,U1,2,DIODE_BIAS*%
%TO.N,Net-(U1C-DIODE_BIAS)*%
X58887798Y-98324530D03*
%TO.P,U1,3,+*%
%TO.N,Net-(J3-Pin_1)*%
X58887798Y-100864530D03*
%TO.P,U1,4,-*%
%TO.N,Net-(J3-Pin_3)*%
X58887798Y-103404530D03*
%TO.P,U1,5*%
%TO.N,Net-(R4-Pad2)*%
X58887798Y-105944530D03*
%TO.P,U1,6,V-*%
%TO.N,-12V*%
X58887798Y-108484530D03*
%TO.P,U1,7*%
%TO.N,Net-(R4-Pad2)*%
X58887798Y-111024530D03*
%TO.P,U1,8*%
%TO.N,Net-(U2A-+)*%
X58887798Y-113564530D03*
%TO.P,U1,9*%
%TO.N,Net-(U2B-+)*%
X66507798Y-113564530D03*
%TO.P,U1,10*%
%TO.N,Net-(R9-Pad2)*%
X66507798Y-111024530D03*
%TO.P,U1,11,V+*%
%TO.N,12V*%
X66507798Y-108484530D03*
%TO.P,U1,12*%
%TO.N,Net-(R9-Pad2)*%
X66507798Y-105944530D03*
%TO.P,U1,13,-*%
%TO.N,Net-(J7-Pin_3)*%
X66507798Y-103404530D03*
%TO.P,U1,14,+*%
%TO.N,Net-(J7-Pin_1)*%
X66507798Y-100864530D03*
%TO.P,U1,15,DIODE_BIAS*%
%TO.N,Net-(U1A-DIODE_BIAS)*%
X66507798Y-98324530D03*
%TO.P,U1,16*%
%TO.N,Net-(R10-Pad1)*%
X66507798Y-95784530D03*
%TD*%
D19*
%TO.N,5V*%
X70351278Y-50724480D02*
X71907758Y-49168000D01*
X71907758Y-49168000D02*
X81815760Y-49168000D01*
X81815760Y-49168000D02*
X82891000Y-50243240D01*
X82891000Y-50243240D02*
X82891000Y-53974760D01*
X82216760Y-54649000D02*
X80351000Y-54649000D01*
X82891000Y-53974760D02*
X82216760Y-54649000D01*
X80351000Y-54649000D02*
X79200000Y-55800000D01*
%TO.N,-12V*%
X67811278Y-55804480D02*
X69200278Y-54415480D01*
X69200278Y-54415480D02*
X73518360Y-54415480D01*
X73518360Y-54415480D02*
X78364840Y-49569000D01*
X78364840Y-49569000D02*
X80589000Y-49569000D01*
X80589000Y-49569000D02*
X81740000Y-50720000D01*
%TO.N,12V*%
X70351278Y-55804480D02*
X74115520Y-55804480D01*
X74115520Y-55804480D02*
X79200000Y-50720000D01*
%TO.N,-12V*%
X75605543Y-98899000D02*
X82765350Y-98899000D01*
X55500000Y-93420000D02*
X55500000Y-68115758D01*
X55500000Y-93420000D02*
X54000000Y-94920000D01*
X86156346Y-102343654D02*
X83500000Y-105000000D01*
X86156346Y-102289996D02*
X86156346Y-102343654D01*
X58887798Y-108484530D02*
X59988798Y-107383530D01*
X83500000Y-105000000D02*
X83500000Y-108000000D01*
X55500000Y-68115758D02*
X67811278Y-55804480D01*
X82765350Y-98899000D02*
X86156346Y-102289996D01*
X67121013Y-107383530D02*
X75605543Y-98899000D01*
X58827466Y-108544862D02*
X58887798Y-108484530D01*
X54000000Y-106549565D02*
X55995297Y-108544862D01*
X55995297Y-108544862D02*
X58827466Y-108544862D01*
X59988798Y-107383530D02*
X67121013Y-107383530D01*
X54000000Y-94920000D02*
X54000000Y-106549565D01*
%TO.N,GND*%
X77178192Y-105944623D02*
X74183846Y-108938969D01*
X73082846Y-110039969D02*
X74183846Y-108938969D01*
X80276970Y-105944623D02*
X77178192Y-105944623D01*
X68440969Y-110039969D02*
X73082846Y-110039969D01*
X59036470Y-112463530D02*
X61576470Y-109923530D01*
X68324530Y-109923530D02*
X68440969Y-110039969D01*
X57076629Y-112463530D02*
X59036470Y-112463530D01*
X61576470Y-109923530D02*
X68324530Y-109923530D01*
X55995297Y-113544862D02*
X57076629Y-112463530D01*
%TO.N,12V*%
X68938969Y-108938969D02*
X68484530Y-108484530D01*
X68484530Y-108484530D02*
X66507798Y-108484530D01*
X78122815Y-100000000D02*
X69183846Y-108938969D01*
X80211822Y-100000000D02*
X78122815Y-100000000D01*
X80211822Y-95706162D02*
X80296660Y-95791000D01*
X95519000Y-95791000D02*
X96620000Y-94690000D01*
X80296660Y-95791000D02*
X95519000Y-95791000D01*
X69183846Y-108938969D02*
X68938969Y-108938969D01*
%TO.N,Net-(J4-Pin_1)*%
X52000000Y-113580000D02*
X51200001Y-114379999D01*
X54309222Y-125820656D02*
X64206910Y-125820656D01*
X51200001Y-114379999D02*
X51200001Y-122711435D01*
X64206910Y-125820656D02*
X68500000Y-121527566D01*
X51200001Y-122711435D02*
X54309222Y-125820656D01*
%TO.N,Net-(J7-Pin_1)*%
X74891534Y-92013848D02*
X74891534Y-92480794D01*
X83960000Y-84460000D02*
X82445382Y-84460000D01*
X82445382Y-84460000D02*
X74891534Y-92013848D01*
X74891534Y-92480794D02*
X66507798Y-100864530D01*
%TO.N,Net-(J7-Pin_3)*%
X70095470Y-103404530D02*
X89040000Y-84460000D01*
X66507798Y-103404530D02*
X70095470Y-103404530D01*
%TO.N,Net-(U1C-DIODE_BIAS)*%
X68534454Y-97223530D02*
X70051822Y-95706162D01*
X59988798Y-97223530D02*
X68534454Y-97223530D01*
X58887798Y-98324530D02*
X59988798Y-97223530D01*
%TO.N,Net-(R3-Pad1)*%
X70974838Y-94605162D02*
X73080000Y-92500000D01*
X58887798Y-95784530D02*
X60067166Y-94605162D01*
X60067166Y-94605162D02*
X70974838Y-94605162D01*
%TO.N,Net-(R4-Pad2)*%
X66929378Y-102000000D02*
X62832328Y-102000000D01*
X75992534Y-92469898D02*
X67608798Y-100853634D01*
X62832328Y-102000000D02*
X58887798Y-105944530D01*
X67608798Y-100853634D02*
X67608798Y-101320580D01*
X67608798Y-101320580D02*
X66929378Y-102000000D01*
%TO.N,Net-(U2A-+)*%
X87899000Y-105158050D02*
X87899000Y-100871000D01*
X87899000Y-100871000D02*
X89000000Y-99770000D01*
X82057050Y-111000000D02*
X87899000Y-105158050D01*
X59988798Y-112463530D02*
X67463530Y-112463530D01*
X68927060Y-111000000D02*
X82057050Y-111000000D01*
X67463530Y-112463530D02*
X68927060Y-111000000D01*
X58887798Y-113564530D02*
X59988798Y-112463530D01*
%TO.N,Net-(U2B-+)*%
X87295471Y-114364529D02*
X93660000Y-108000000D01*
X67307797Y-114364529D02*
X87295471Y-114364529D01*
X66507798Y-113564530D02*
X67307797Y-114364529D01*
%TD*%
M02*
