%TF.GenerationSoftware,KiCad,Pcbnew,9.0.6*%
%TF.CreationDate,2026-01-10T02:09:03+11:00*%
%TF.ProjectId,voltage-controlled-amplifier,766f6c74-6167-4652-9d63-6f6e74726f6c,rev?*%
%TF.SameCoordinates,Original*%
%TF.FileFunction,Legend,Bot*%
%TF.FilePolarity,Positive*%
%FSLAX46Y46*%
G04 Gerber Fmt 4.6, Leading zero omitted, Abs format (unit mm)*
G04 Created by KiCad (PCBNEW 9.0.6) date 2026-01-10 02:09:03*
%MOMM*%
%LPD*%
G01*
G04 APERTURE LIST*
%ADD10C,0.100000*%
G04 APERTURE END LIST*
D10*
X56926483Y-142381723D02*
X57259816Y-142381723D01*
X57259816Y-142905533D02*
X57259816Y-141905533D01*
X57259816Y-141905533D02*
X56783626Y-141905533D01*
X55974102Y-142238866D02*
X55974102Y-142905533D01*
X56212197Y-141857914D02*
X56450292Y-142572199D01*
X56450292Y-142572199D02*
X55831245Y-142572199D01*
X93278643Y-142375407D02*
X93611976Y-142375407D01*
X93611976Y-142899217D02*
X93611976Y-141899217D01*
X93611976Y-141899217D02*
X93135786Y-141899217D01*
X92850071Y-141899217D02*
X92231024Y-141899217D01*
X92231024Y-141899217D02*
X92564357Y-142280169D01*
X92564357Y-142280169D02*
X92421500Y-142280169D01*
X92421500Y-142280169D02*
X92326262Y-142327788D01*
X92326262Y-142327788D02*
X92278643Y-142375407D01*
X92278643Y-142375407D02*
X92231024Y-142470645D01*
X92231024Y-142470645D02*
X92231024Y-142708740D01*
X92231024Y-142708740D02*
X92278643Y-142803978D01*
X92278643Y-142803978D02*
X92326262Y-142851598D01*
X92326262Y-142851598D02*
X92421500Y-142899217D01*
X92421500Y-142899217D02*
X92707214Y-142899217D01*
X92707214Y-142899217D02*
X92802452Y-142851598D01*
X92802452Y-142851598D02*
X92850071Y-142803978D01*
X56933651Y-51533415D02*
X57266984Y-51533415D01*
X57266984Y-52057225D02*
X57266984Y-51057225D01*
X57266984Y-51057225D02*
X56790794Y-51057225D01*
X56457460Y-51152463D02*
X56409841Y-51104844D01*
X56409841Y-51104844D02*
X56314603Y-51057225D01*
X56314603Y-51057225D02*
X56076508Y-51057225D01*
X56076508Y-51057225D02*
X55981270Y-51104844D01*
X55981270Y-51104844D02*
X55933651Y-51152463D01*
X55933651Y-51152463D02*
X55886032Y-51247701D01*
X55886032Y-51247701D02*
X55886032Y-51342939D01*
X55886032Y-51342939D02*
X55933651Y-51485796D01*
X55933651Y-51485796D02*
X56505079Y-52057225D01*
X56505079Y-52057225D02*
X55886032Y-52057225D01*
X93276665Y-51504826D02*
X93609998Y-51504826D01*
X93609998Y-52028636D02*
X93609998Y-51028636D01*
X93609998Y-51028636D02*
X93133808Y-51028636D01*
X92229046Y-52028636D02*
X92800474Y-52028636D01*
X92514760Y-52028636D02*
X92514760Y-51028636D01*
X92514760Y-51028636D02*
X92609998Y-51171493D01*
X92609998Y-51171493D02*
X92705236Y-51266731D01*
X92705236Y-51266731D02*
X92800474Y-51314350D01*
%TO.C,F4*%
X63093150Y-136448114D02*
X50093150Y-136448114D01*
X50093150Y-149948114D01*
X63093150Y-149948114D01*
X63093150Y-136448114D01*
%TO.C,F3*%
X99445310Y-136441798D02*
X86445310Y-136441798D01*
X86445310Y-149941798D01*
X99445310Y-149941798D01*
X99445310Y-136441798D01*
%TO.C,F2*%
X63100318Y-45599806D02*
X50100318Y-45599806D01*
X50100318Y-59099806D01*
X63100318Y-59099806D01*
X63100318Y-45599806D01*
%TO.C,F1*%
X99443332Y-45571217D02*
X86443332Y-45571217D01*
X86443332Y-59071217D01*
X99443332Y-59071217D01*
X99443332Y-45571217D01*
%TD*%
M02*
