%TF.GenerationSoftware,KiCad,Pcbnew,9.0.6*%
%TF.CreationDate,2026-01-05T02:57:40+11:00*%
%TF.ProjectId,voltage-controlled-amplifier,766f6c74-6167-4652-9d63-6f6e74726f6c,rev?*%
%TF.SameCoordinates,Original*%
%TF.FileFunction,Legend,Top*%
%TF.FilePolarity,Positive*%
%FSLAX46Y46*%
G04 Gerber Fmt 4.6, Leading zero omitted, Abs format (unit mm)*
G04 Created by KiCad (PCBNEW 9.0.6) date 2026-01-05 02:57:40*
%MOMM*%
%LPD*%
G01*
G04 APERTURE LIST*
%ADD10C,0.100000*%
%ADD11C,0.300000*%
%ADD12C,0.150000*%
%ADD13C,0.120000*%
G04 APERTURE END LIST*
D10*
X52976190Y-142542503D02*
X53309523Y-143542503D01*
X53309523Y-143542503D02*
X53642856Y-142542503D01*
X54166666Y-142542503D02*
X54357142Y-142542503D01*
X54357142Y-142542503D02*
X54452380Y-142590122D01*
X54452380Y-142590122D02*
X54547618Y-142685360D01*
X54547618Y-142685360D02*
X54595237Y-142875836D01*
X54595237Y-142875836D02*
X54595237Y-143209169D01*
X54595237Y-143209169D02*
X54547618Y-143399645D01*
X54547618Y-143399645D02*
X54452380Y-143494884D01*
X54452380Y-143494884D02*
X54357142Y-143542503D01*
X54357142Y-143542503D02*
X54166666Y-143542503D01*
X54166666Y-143542503D02*
X54071428Y-143494884D01*
X54071428Y-143494884D02*
X53976190Y-143399645D01*
X53976190Y-143399645D02*
X53928571Y-143209169D01*
X53928571Y-143209169D02*
X53928571Y-142875836D01*
X53928571Y-142875836D02*
X53976190Y-142685360D01*
X53976190Y-142685360D02*
X54071428Y-142590122D01*
X54071428Y-142590122D02*
X54166666Y-142542503D01*
X55499999Y-143542503D02*
X55023809Y-143542503D01*
X55023809Y-143542503D02*
X55023809Y-142542503D01*
X55690476Y-142542503D02*
X56261904Y-142542503D01*
X55976190Y-143542503D02*
X55976190Y-142542503D01*
X56547619Y-143256788D02*
X57023809Y-143256788D01*
X56452381Y-143542503D02*
X56785714Y-142542503D01*
X56785714Y-142542503D02*
X57119047Y-143542503D01*
X57976190Y-142590122D02*
X57880952Y-142542503D01*
X57880952Y-142542503D02*
X57738095Y-142542503D01*
X57738095Y-142542503D02*
X57595238Y-142590122D01*
X57595238Y-142590122D02*
X57500000Y-142685360D01*
X57500000Y-142685360D02*
X57452381Y-142780598D01*
X57452381Y-142780598D02*
X57404762Y-142971074D01*
X57404762Y-142971074D02*
X57404762Y-143113931D01*
X57404762Y-143113931D02*
X57452381Y-143304407D01*
X57452381Y-143304407D02*
X57500000Y-143399645D01*
X57500000Y-143399645D02*
X57595238Y-143494884D01*
X57595238Y-143494884D02*
X57738095Y-143542503D01*
X57738095Y-143542503D02*
X57833333Y-143542503D01*
X57833333Y-143542503D02*
X57976190Y-143494884D01*
X57976190Y-143494884D02*
X58023809Y-143447264D01*
X58023809Y-143447264D02*
X58023809Y-143113931D01*
X58023809Y-143113931D02*
X57833333Y-143113931D01*
X58452381Y-143018693D02*
X58785714Y-143018693D01*
X58928571Y-143542503D02*
X58452381Y-143542503D01*
X58452381Y-143542503D02*
X58452381Y-142542503D01*
X58452381Y-142542503D02*
X58928571Y-142542503D01*
X52095237Y-145057208D02*
X52047618Y-145104828D01*
X52047618Y-145104828D02*
X51904761Y-145152447D01*
X51904761Y-145152447D02*
X51809523Y-145152447D01*
X51809523Y-145152447D02*
X51666666Y-145104828D01*
X51666666Y-145104828D02*
X51571428Y-145009589D01*
X51571428Y-145009589D02*
X51523809Y-144914351D01*
X51523809Y-144914351D02*
X51476190Y-144723875D01*
X51476190Y-144723875D02*
X51476190Y-144581018D01*
X51476190Y-144581018D02*
X51523809Y-144390542D01*
X51523809Y-144390542D02*
X51571428Y-144295304D01*
X51571428Y-144295304D02*
X51666666Y-144200066D01*
X51666666Y-144200066D02*
X51809523Y-144152447D01*
X51809523Y-144152447D02*
X51904761Y-144152447D01*
X51904761Y-144152447D02*
X52047618Y-144200066D01*
X52047618Y-144200066D02*
X52095237Y-144247685D01*
X52714285Y-144152447D02*
X52904761Y-144152447D01*
X52904761Y-144152447D02*
X52999999Y-144200066D01*
X52999999Y-144200066D02*
X53095237Y-144295304D01*
X53095237Y-144295304D02*
X53142856Y-144485780D01*
X53142856Y-144485780D02*
X53142856Y-144819113D01*
X53142856Y-144819113D02*
X53095237Y-145009589D01*
X53095237Y-145009589D02*
X52999999Y-145104828D01*
X52999999Y-145104828D02*
X52904761Y-145152447D01*
X52904761Y-145152447D02*
X52714285Y-145152447D01*
X52714285Y-145152447D02*
X52619047Y-145104828D01*
X52619047Y-145104828D02*
X52523809Y-145009589D01*
X52523809Y-145009589D02*
X52476190Y-144819113D01*
X52476190Y-144819113D02*
X52476190Y-144485780D01*
X52476190Y-144485780D02*
X52523809Y-144295304D01*
X52523809Y-144295304D02*
X52619047Y-144200066D01*
X52619047Y-144200066D02*
X52714285Y-144152447D01*
X53571428Y-145152447D02*
X53571428Y-144152447D01*
X53571428Y-144152447D02*
X54142856Y-145152447D01*
X54142856Y-145152447D02*
X54142856Y-144152447D01*
X54476190Y-144152447D02*
X55047618Y-144152447D01*
X54761904Y-145152447D02*
X54761904Y-144152447D01*
X55952380Y-145152447D02*
X55619047Y-144676256D01*
X55380952Y-145152447D02*
X55380952Y-144152447D01*
X55380952Y-144152447D02*
X55761904Y-144152447D01*
X55761904Y-144152447D02*
X55857142Y-144200066D01*
X55857142Y-144200066D02*
X55904761Y-144247685D01*
X55904761Y-144247685D02*
X55952380Y-144342923D01*
X55952380Y-144342923D02*
X55952380Y-144485780D01*
X55952380Y-144485780D02*
X55904761Y-144581018D01*
X55904761Y-144581018D02*
X55857142Y-144628637D01*
X55857142Y-144628637D02*
X55761904Y-144676256D01*
X55761904Y-144676256D02*
X55380952Y-144676256D01*
X56571428Y-144152447D02*
X56761904Y-144152447D01*
X56761904Y-144152447D02*
X56857142Y-144200066D01*
X56857142Y-144200066D02*
X56952380Y-144295304D01*
X56952380Y-144295304D02*
X56999999Y-144485780D01*
X56999999Y-144485780D02*
X56999999Y-144819113D01*
X56999999Y-144819113D02*
X56952380Y-145009589D01*
X56952380Y-145009589D02*
X56857142Y-145104828D01*
X56857142Y-145104828D02*
X56761904Y-145152447D01*
X56761904Y-145152447D02*
X56571428Y-145152447D01*
X56571428Y-145152447D02*
X56476190Y-145104828D01*
X56476190Y-145104828D02*
X56380952Y-145009589D01*
X56380952Y-145009589D02*
X56333333Y-144819113D01*
X56333333Y-144819113D02*
X56333333Y-144485780D01*
X56333333Y-144485780D02*
X56380952Y-144295304D01*
X56380952Y-144295304D02*
X56476190Y-144200066D01*
X56476190Y-144200066D02*
X56571428Y-144152447D01*
X57904761Y-145152447D02*
X57428571Y-145152447D01*
X57428571Y-145152447D02*
X57428571Y-144152447D01*
X58714285Y-145152447D02*
X58238095Y-145152447D01*
X58238095Y-145152447D02*
X58238095Y-144152447D01*
X59047619Y-144628637D02*
X59380952Y-144628637D01*
X59523809Y-145152447D02*
X59047619Y-145152447D01*
X59047619Y-145152447D02*
X59047619Y-144152447D01*
X59047619Y-144152447D02*
X59523809Y-144152447D01*
X59952381Y-145152447D02*
X59952381Y-144152447D01*
X59952381Y-144152447D02*
X60190476Y-144152447D01*
X60190476Y-144152447D02*
X60333333Y-144200066D01*
X60333333Y-144200066D02*
X60428571Y-144295304D01*
X60428571Y-144295304D02*
X60476190Y-144390542D01*
X60476190Y-144390542D02*
X60523809Y-144581018D01*
X60523809Y-144581018D02*
X60523809Y-144723875D01*
X60523809Y-144723875D02*
X60476190Y-144914351D01*
X60476190Y-144914351D02*
X60428571Y-145009589D01*
X60428571Y-145009589D02*
X60333333Y-145104828D01*
X60333333Y-145104828D02*
X60190476Y-145152447D01*
X60190476Y-145152447D02*
X59952381Y-145152447D01*
X52428572Y-146476676D02*
X52904762Y-146476676D01*
X52333334Y-146762391D02*
X52666667Y-145762391D01*
X52666667Y-145762391D02*
X53000000Y-146762391D01*
X53333334Y-146762391D02*
X53333334Y-145762391D01*
X53333334Y-145762391D02*
X53666667Y-146476676D01*
X53666667Y-146476676D02*
X54000000Y-145762391D01*
X54000000Y-145762391D02*
X54000000Y-146762391D01*
X54476191Y-146762391D02*
X54476191Y-145762391D01*
X54476191Y-145762391D02*
X54857143Y-145762391D01*
X54857143Y-145762391D02*
X54952381Y-145810010D01*
X54952381Y-145810010D02*
X55000000Y-145857629D01*
X55000000Y-145857629D02*
X55047619Y-145952867D01*
X55047619Y-145952867D02*
X55047619Y-146095724D01*
X55047619Y-146095724D02*
X55000000Y-146190962D01*
X55000000Y-146190962D02*
X54952381Y-146238581D01*
X54952381Y-146238581D02*
X54857143Y-146286200D01*
X54857143Y-146286200D02*
X54476191Y-146286200D01*
X55952381Y-146762391D02*
X55476191Y-146762391D01*
X55476191Y-146762391D02*
X55476191Y-145762391D01*
X56285715Y-146762391D02*
X56285715Y-145762391D01*
X57095238Y-146238581D02*
X56761905Y-146238581D01*
X56761905Y-146762391D02*
X56761905Y-145762391D01*
X56761905Y-145762391D02*
X57238095Y-145762391D01*
X57619048Y-146762391D02*
X57619048Y-145762391D01*
X58095238Y-146238581D02*
X58428571Y-146238581D01*
X58571428Y-146762391D02*
X58095238Y-146762391D01*
X58095238Y-146762391D02*
X58095238Y-145762391D01*
X58095238Y-145762391D02*
X58571428Y-145762391D01*
X59571428Y-146762391D02*
X59238095Y-146286200D01*
X59000000Y-146762391D02*
X59000000Y-145762391D01*
X59000000Y-145762391D02*
X59380952Y-145762391D01*
X59380952Y-145762391D02*
X59476190Y-145810010D01*
X59476190Y-145810010D02*
X59523809Y-145857629D01*
X59523809Y-145857629D02*
X59571428Y-145952867D01*
X59571428Y-145952867D02*
X59571428Y-146095724D01*
X59571428Y-146095724D02*
X59523809Y-146190962D01*
X59523809Y-146190962D02*
X59476190Y-146238581D01*
X59476190Y-146238581D02*
X59380952Y-146286200D01*
X59380952Y-146286200D02*
X59000000Y-146286200D01*
X55190476Y-147372335D02*
X55523809Y-148372335D01*
X55523809Y-148372335D02*
X55857142Y-147372335D01*
X56714285Y-148372335D02*
X56142857Y-148372335D01*
X56428571Y-148372335D02*
X56428571Y-147372335D01*
X56428571Y-147372335D02*
X56333333Y-147515192D01*
X56333333Y-147515192D02*
X56238095Y-147610430D01*
X56238095Y-147610430D02*
X56142857Y-147658049D01*
D11*
X92411653Y-130657971D02*
X92340225Y-130729400D01*
X92340225Y-130729400D02*
X92125939Y-130800828D01*
X92125939Y-130800828D02*
X91983082Y-130800828D01*
X91983082Y-130800828D02*
X91768796Y-130729400D01*
X91768796Y-130729400D02*
X91625939Y-130586542D01*
X91625939Y-130586542D02*
X91554510Y-130443685D01*
X91554510Y-130443685D02*
X91483082Y-130157971D01*
X91483082Y-130157971D02*
X91483082Y-129943685D01*
X91483082Y-129943685D02*
X91554510Y-129657971D01*
X91554510Y-129657971D02*
X91625939Y-129515114D01*
X91625939Y-129515114D02*
X91768796Y-129372257D01*
X91768796Y-129372257D02*
X91983082Y-129300828D01*
X91983082Y-129300828D02*
X92125939Y-129300828D01*
X92125939Y-129300828D02*
X92340225Y-129372257D01*
X92340225Y-129372257D02*
X92411653Y-129443685D01*
X92840225Y-129300828D02*
X93340225Y-130800828D01*
X93340225Y-130800828D02*
X93840225Y-129300828D01*
X95411653Y-129443685D02*
X95483081Y-129372257D01*
X95483081Y-129372257D02*
X95625939Y-129300828D01*
X95625939Y-129300828D02*
X95983081Y-129300828D01*
X95983081Y-129300828D02*
X96125939Y-129372257D01*
X96125939Y-129372257D02*
X96197367Y-129443685D01*
X96197367Y-129443685D02*
X96268796Y-129586542D01*
X96268796Y-129586542D02*
X96268796Y-129729400D01*
X96268796Y-129729400D02*
X96197367Y-129943685D01*
X96197367Y-129943685D02*
X95340224Y-130800828D01*
X95340224Y-130800828D02*
X96268796Y-130800828D01*
X55411653Y-130157971D02*
X55340225Y-130229400D01*
X55340225Y-130229400D02*
X55125939Y-130300828D01*
X55125939Y-130300828D02*
X54983082Y-130300828D01*
X54983082Y-130300828D02*
X54768796Y-130229400D01*
X54768796Y-130229400D02*
X54625939Y-130086542D01*
X54625939Y-130086542D02*
X54554510Y-129943685D01*
X54554510Y-129943685D02*
X54483082Y-129657971D01*
X54483082Y-129657971D02*
X54483082Y-129443685D01*
X54483082Y-129443685D02*
X54554510Y-129157971D01*
X54554510Y-129157971D02*
X54625939Y-129015114D01*
X54625939Y-129015114D02*
X54768796Y-128872257D01*
X54768796Y-128872257D02*
X54983082Y-128800828D01*
X54983082Y-128800828D02*
X55125939Y-128800828D01*
X55125939Y-128800828D02*
X55340225Y-128872257D01*
X55340225Y-128872257D02*
X55411653Y-128943685D01*
X55840225Y-128800828D02*
X56340225Y-130300828D01*
X56340225Y-130300828D02*
X56840225Y-128800828D01*
X59268796Y-130300828D02*
X58411653Y-130300828D01*
X58840224Y-130300828D02*
X58840224Y-128800828D01*
X58840224Y-128800828D02*
X58697367Y-129015114D01*
X58697367Y-129015114D02*
X58554510Y-129157971D01*
X58554510Y-129157971D02*
X58411653Y-129229400D01*
X67054510Y-130800828D02*
X67054510Y-129300828D01*
X67768796Y-130800828D02*
X67768796Y-129300828D01*
X67768796Y-129300828D02*
X68625939Y-130800828D01*
X68625939Y-130800828D02*
X68625939Y-129300828D01*
X71268797Y-130800828D02*
X70411654Y-130800828D01*
X70840225Y-130800828D02*
X70840225Y-129300828D01*
X70840225Y-129300828D02*
X70697368Y-129515114D01*
X70697368Y-129515114D02*
X70554511Y-129657971D01*
X70554511Y-129657971D02*
X70411654Y-129729400D01*
X79554510Y-130800828D02*
X79554510Y-129300828D01*
X80268796Y-130800828D02*
X80268796Y-129300828D01*
X80268796Y-129300828D02*
X81125939Y-130800828D01*
X81125939Y-130800828D02*
X81125939Y-129300828D01*
X82911654Y-129443685D02*
X82983082Y-129372257D01*
X82983082Y-129372257D02*
X83125940Y-129300828D01*
X83125940Y-129300828D02*
X83483082Y-129300828D01*
X83483082Y-129300828D02*
X83625940Y-129372257D01*
X83625940Y-129372257D02*
X83697368Y-129443685D01*
X83697368Y-129443685D02*
X83768797Y-129586542D01*
X83768797Y-129586542D02*
X83768797Y-129729400D01*
X83768797Y-129729400D02*
X83697368Y-129943685D01*
X83697368Y-129943685D02*
X82840225Y-130800828D01*
X82840225Y-130800828D02*
X83768797Y-130800828D01*
X78840225Y-147300828D02*
X79125939Y-147300828D01*
X79125939Y-147300828D02*
X79268796Y-147372257D01*
X79268796Y-147372257D02*
X79411653Y-147515114D01*
X79411653Y-147515114D02*
X79483082Y-147800828D01*
X79483082Y-147800828D02*
X79483082Y-148300828D01*
X79483082Y-148300828D02*
X79411653Y-148586542D01*
X79411653Y-148586542D02*
X79268796Y-148729400D01*
X79268796Y-148729400D02*
X79125939Y-148800828D01*
X79125939Y-148800828D02*
X78840225Y-148800828D01*
X78840225Y-148800828D02*
X78697368Y-148729400D01*
X78697368Y-148729400D02*
X78554510Y-148586542D01*
X78554510Y-148586542D02*
X78483082Y-148300828D01*
X78483082Y-148300828D02*
X78483082Y-147800828D01*
X78483082Y-147800828D02*
X78554510Y-147515114D01*
X78554510Y-147515114D02*
X78697368Y-147372257D01*
X78697368Y-147372257D02*
X78840225Y-147300828D01*
X80125939Y-147300828D02*
X80125939Y-148515114D01*
X80125939Y-148515114D02*
X80197368Y-148657971D01*
X80197368Y-148657971D02*
X80268797Y-148729400D01*
X80268797Y-148729400D02*
X80411654Y-148800828D01*
X80411654Y-148800828D02*
X80697368Y-148800828D01*
X80697368Y-148800828D02*
X80840225Y-148729400D01*
X80840225Y-148729400D02*
X80911654Y-148657971D01*
X80911654Y-148657971D02*
X80983082Y-148515114D01*
X80983082Y-148515114D02*
X80983082Y-147300828D01*
X81483083Y-147300828D02*
X82340226Y-147300828D01*
X81911654Y-148800828D02*
X81911654Y-147300828D01*
X83911654Y-147443685D02*
X83983082Y-147372257D01*
X83983082Y-147372257D02*
X84125940Y-147300828D01*
X84125940Y-147300828D02*
X84483082Y-147300828D01*
X84483082Y-147300828D02*
X84625940Y-147372257D01*
X84625940Y-147372257D02*
X84697368Y-147443685D01*
X84697368Y-147443685D02*
X84768797Y-147586542D01*
X84768797Y-147586542D02*
X84768797Y-147729400D01*
X84768797Y-147729400D02*
X84697368Y-147943685D01*
X84697368Y-147943685D02*
X83840225Y-148800828D01*
X83840225Y-148800828D02*
X84768797Y-148800828D01*
X66340225Y-147300828D02*
X66625939Y-147300828D01*
X66625939Y-147300828D02*
X66768796Y-147372257D01*
X66768796Y-147372257D02*
X66911653Y-147515114D01*
X66911653Y-147515114D02*
X66983082Y-147800828D01*
X66983082Y-147800828D02*
X66983082Y-148300828D01*
X66983082Y-148300828D02*
X66911653Y-148586542D01*
X66911653Y-148586542D02*
X66768796Y-148729400D01*
X66768796Y-148729400D02*
X66625939Y-148800828D01*
X66625939Y-148800828D02*
X66340225Y-148800828D01*
X66340225Y-148800828D02*
X66197368Y-148729400D01*
X66197368Y-148729400D02*
X66054510Y-148586542D01*
X66054510Y-148586542D02*
X65983082Y-148300828D01*
X65983082Y-148300828D02*
X65983082Y-147800828D01*
X65983082Y-147800828D02*
X66054510Y-147515114D01*
X66054510Y-147515114D02*
X66197368Y-147372257D01*
X66197368Y-147372257D02*
X66340225Y-147300828D01*
X67625939Y-147300828D02*
X67625939Y-148515114D01*
X67625939Y-148515114D02*
X67697368Y-148657971D01*
X67697368Y-148657971D02*
X67768797Y-148729400D01*
X67768797Y-148729400D02*
X67911654Y-148800828D01*
X67911654Y-148800828D02*
X68197368Y-148800828D01*
X68197368Y-148800828D02*
X68340225Y-148729400D01*
X68340225Y-148729400D02*
X68411654Y-148657971D01*
X68411654Y-148657971D02*
X68483082Y-148515114D01*
X68483082Y-148515114D02*
X68483082Y-147300828D01*
X68983083Y-147300828D02*
X69840226Y-147300828D01*
X69411654Y-148800828D02*
X69411654Y-147300828D01*
X72268797Y-148800828D02*
X71411654Y-148800828D01*
X71840225Y-148800828D02*
X71840225Y-147300828D01*
X71840225Y-147300828D02*
X71697368Y-147515114D01*
X71697368Y-147515114D02*
X71554511Y-147657971D01*
X71554511Y-147657971D02*
X71411654Y-147729400D01*
X83554510Y-90015114D02*
X83768796Y-90086542D01*
X83768796Y-90086542D02*
X83840225Y-90157971D01*
X83840225Y-90157971D02*
X83911653Y-90300828D01*
X83911653Y-90300828D02*
X83911653Y-90515114D01*
X83911653Y-90515114D02*
X83840225Y-90657971D01*
X83840225Y-90657971D02*
X83768796Y-90729400D01*
X83768796Y-90729400D02*
X83625939Y-90800828D01*
X83625939Y-90800828D02*
X83054510Y-90800828D01*
X83054510Y-90800828D02*
X83054510Y-89300828D01*
X83054510Y-89300828D02*
X83554510Y-89300828D01*
X83554510Y-89300828D02*
X83697368Y-89372257D01*
X83697368Y-89372257D02*
X83768796Y-89443685D01*
X83768796Y-89443685D02*
X83840225Y-89586542D01*
X83840225Y-89586542D02*
X83840225Y-89729400D01*
X83840225Y-89729400D02*
X83768796Y-89872257D01*
X83768796Y-89872257D02*
X83697368Y-89943685D01*
X83697368Y-89943685D02*
X83554510Y-90015114D01*
X83554510Y-90015114D02*
X83054510Y-90015114D01*
X84554510Y-90800828D02*
X84554510Y-89300828D01*
X85197368Y-90372257D02*
X85911654Y-90372257D01*
X85054511Y-90800828D02*
X85554511Y-89300828D01*
X85554511Y-89300828D02*
X86054511Y-90800828D01*
X86483082Y-90729400D02*
X86697368Y-90800828D01*
X86697368Y-90800828D02*
X87054510Y-90800828D01*
X87054510Y-90800828D02*
X87197368Y-90729400D01*
X87197368Y-90729400D02*
X87268796Y-90657971D01*
X87268796Y-90657971D02*
X87340225Y-90515114D01*
X87340225Y-90515114D02*
X87340225Y-90372257D01*
X87340225Y-90372257D02*
X87268796Y-90229400D01*
X87268796Y-90229400D02*
X87197368Y-90157971D01*
X87197368Y-90157971D02*
X87054510Y-90086542D01*
X87054510Y-90086542D02*
X86768796Y-90015114D01*
X86768796Y-90015114D02*
X86625939Y-89943685D01*
X86625939Y-89943685D02*
X86554510Y-89872257D01*
X86554510Y-89872257D02*
X86483082Y-89729400D01*
X86483082Y-89729400D02*
X86483082Y-89586542D01*
X86483082Y-89586542D02*
X86554510Y-89443685D01*
X86554510Y-89443685D02*
X86625939Y-89372257D01*
X86625939Y-89372257D02*
X86768796Y-89300828D01*
X86768796Y-89300828D02*
X87125939Y-89300828D01*
X87125939Y-89300828D02*
X87340225Y-89372257D01*
X89054510Y-89443685D02*
X89125938Y-89372257D01*
X89125938Y-89372257D02*
X89268796Y-89300828D01*
X89268796Y-89300828D02*
X89625938Y-89300828D01*
X89625938Y-89300828D02*
X89768796Y-89372257D01*
X89768796Y-89372257D02*
X89840224Y-89443685D01*
X89840224Y-89443685D02*
X89911653Y-89586542D01*
X89911653Y-89586542D02*
X89911653Y-89729400D01*
X89911653Y-89729400D02*
X89840224Y-89943685D01*
X89840224Y-89943685D02*
X88983081Y-90800828D01*
X88983081Y-90800828D02*
X89911653Y-90800828D01*
X60554510Y-90015114D02*
X60768796Y-90086542D01*
X60768796Y-90086542D02*
X60840225Y-90157971D01*
X60840225Y-90157971D02*
X60911653Y-90300828D01*
X60911653Y-90300828D02*
X60911653Y-90515114D01*
X60911653Y-90515114D02*
X60840225Y-90657971D01*
X60840225Y-90657971D02*
X60768796Y-90729400D01*
X60768796Y-90729400D02*
X60625939Y-90800828D01*
X60625939Y-90800828D02*
X60054510Y-90800828D01*
X60054510Y-90800828D02*
X60054510Y-89300828D01*
X60054510Y-89300828D02*
X60554510Y-89300828D01*
X60554510Y-89300828D02*
X60697368Y-89372257D01*
X60697368Y-89372257D02*
X60768796Y-89443685D01*
X60768796Y-89443685D02*
X60840225Y-89586542D01*
X60840225Y-89586542D02*
X60840225Y-89729400D01*
X60840225Y-89729400D02*
X60768796Y-89872257D01*
X60768796Y-89872257D02*
X60697368Y-89943685D01*
X60697368Y-89943685D02*
X60554510Y-90015114D01*
X60554510Y-90015114D02*
X60054510Y-90015114D01*
X61554510Y-90800828D02*
X61554510Y-89300828D01*
X62197368Y-90372257D02*
X62911654Y-90372257D01*
X62054511Y-90800828D02*
X62554511Y-89300828D01*
X62554511Y-89300828D02*
X63054511Y-90800828D01*
X63483082Y-90729400D02*
X63697368Y-90800828D01*
X63697368Y-90800828D02*
X64054510Y-90800828D01*
X64054510Y-90800828D02*
X64197368Y-90729400D01*
X64197368Y-90729400D02*
X64268796Y-90657971D01*
X64268796Y-90657971D02*
X64340225Y-90515114D01*
X64340225Y-90515114D02*
X64340225Y-90372257D01*
X64340225Y-90372257D02*
X64268796Y-90229400D01*
X64268796Y-90229400D02*
X64197368Y-90157971D01*
X64197368Y-90157971D02*
X64054510Y-90086542D01*
X64054510Y-90086542D02*
X63768796Y-90015114D01*
X63768796Y-90015114D02*
X63625939Y-89943685D01*
X63625939Y-89943685D02*
X63554510Y-89872257D01*
X63554510Y-89872257D02*
X63483082Y-89729400D01*
X63483082Y-89729400D02*
X63483082Y-89586542D01*
X63483082Y-89586542D02*
X63554510Y-89443685D01*
X63554510Y-89443685D02*
X63625939Y-89372257D01*
X63625939Y-89372257D02*
X63768796Y-89300828D01*
X63768796Y-89300828D02*
X64125939Y-89300828D01*
X64125939Y-89300828D02*
X64340225Y-89372257D01*
X66911653Y-90800828D02*
X66054510Y-90800828D01*
X66483081Y-90800828D02*
X66483081Y-89300828D01*
X66483081Y-89300828D02*
X66340224Y-89515114D01*
X66340224Y-89515114D02*
X66197367Y-89657971D01*
X66197367Y-89657971D02*
X66054510Y-89729400D01*
D12*
X94046529Y-109702034D02*
X93713196Y-109225843D01*
X93475101Y-109702034D02*
X93475101Y-108702034D01*
X93475101Y-108702034D02*
X93856053Y-108702034D01*
X93856053Y-108702034D02*
X93951291Y-108749653D01*
X93951291Y-108749653D02*
X93998910Y-108797272D01*
X93998910Y-108797272D02*
X94046529Y-108892510D01*
X94046529Y-108892510D02*
X94046529Y-109035367D01*
X94046529Y-109035367D02*
X93998910Y-109130605D01*
X93998910Y-109130605D02*
X93951291Y-109178224D01*
X93951291Y-109178224D02*
X93856053Y-109225843D01*
X93856053Y-109225843D02*
X93475101Y-109225843D01*
X94998910Y-109702034D02*
X94427482Y-109702034D01*
X94713196Y-109702034D02*
X94713196Y-108702034D01*
X94713196Y-108702034D02*
X94617958Y-108844891D01*
X94617958Y-108844891D02*
X94522720Y-108940129D01*
X94522720Y-108940129D02*
X94427482Y-108987748D01*
X95379863Y-108797272D02*
X95427482Y-108749653D01*
X95427482Y-108749653D02*
X95522720Y-108702034D01*
X95522720Y-108702034D02*
X95760815Y-108702034D01*
X95760815Y-108702034D02*
X95856053Y-108749653D01*
X95856053Y-108749653D02*
X95903672Y-108797272D01*
X95903672Y-108797272D02*
X95951291Y-108892510D01*
X95951291Y-108892510D02*
X95951291Y-108987748D01*
X95951291Y-108987748D02*
X95903672Y-109130605D01*
X95903672Y-109130605D02*
X95332244Y-109702034D01*
X95332244Y-109702034D02*
X95951291Y-109702034D01*
X94047142Y-106660388D02*
X93713809Y-106184197D01*
X93475714Y-106660388D02*
X93475714Y-105660388D01*
X93475714Y-105660388D02*
X93856666Y-105660388D01*
X93856666Y-105660388D02*
X93951904Y-105708007D01*
X93951904Y-105708007D02*
X93999523Y-105755626D01*
X93999523Y-105755626D02*
X94047142Y-105850864D01*
X94047142Y-105850864D02*
X94047142Y-105993721D01*
X94047142Y-105993721D02*
X93999523Y-106088959D01*
X93999523Y-106088959D02*
X93951904Y-106136578D01*
X93951904Y-106136578D02*
X93856666Y-106184197D01*
X93856666Y-106184197D02*
X93475714Y-106184197D01*
X94999523Y-106660388D02*
X94428095Y-106660388D01*
X94713809Y-106660388D02*
X94713809Y-105660388D01*
X94713809Y-105660388D02*
X94618571Y-105803245D01*
X94618571Y-105803245D02*
X94523333Y-105898483D01*
X94523333Y-105898483D02*
X94428095Y-105946102D01*
X95951904Y-106660388D02*
X95380476Y-106660388D01*
X95666190Y-106660388D02*
X95666190Y-105660388D01*
X95666190Y-105660388D02*
X95570952Y-105803245D01*
X95570952Y-105803245D02*
X95475714Y-105898483D01*
X95475714Y-105898483D02*
X95380476Y-105946102D01*
X94023333Y-103644819D02*
X93690000Y-103168628D01*
X93451905Y-103644819D02*
X93451905Y-102644819D01*
X93451905Y-102644819D02*
X93832857Y-102644819D01*
X93832857Y-102644819D02*
X93928095Y-102692438D01*
X93928095Y-102692438D02*
X93975714Y-102740057D01*
X93975714Y-102740057D02*
X94023333Y-102835295D01*
X94023333Y-102835295D02*
X94023333Y-102978152D01*
X94023333Y-102978152D02*
X93975714Y-103073390D01*
X93975714Y-103073390D02*
X93928095Y-103121009D01*
X93928095Y-103121009D02*
X93832857Y-103168628D01*
X93832857Y-103168628D02*
X93451905Y-103168628D01*
X94499524Y-103644819D02*
X94690000Y-103644819D01*
X94690000Y-103644819D02*
X94785238Y-103597200D01*
X94785238Y-103597200D02*
X94832857Y-103549580D01*
X94832857Y-103549580D02*
X94928095Y-103406723D01*
X94928095Y-103406723D02*
X94975714Y-103216247D01*
X94975714Y-103216247D02*
X94975714Y-102835295D01*
X94975714Y-102835295D02*
X94928095Y-102740057D01*
X94928095Y-102740057D02*
X94880476Y-102692438D01*
X94880476Y-102692438D02*
X94785238Y-102644819D01*
X94785238Y-102644819D02*
X94594762Y-102644819D01*
X94594762Y-102644819D02*
X94499524Y-102692438D01*
X94499524Y-102692438D02*
X94451905Y-102740057D01*
X94451905Y-102740057D02*
X94404286Y-102835295D01*
X94404286Y-102835295D02*
X94404286Y-103073390D01*
X94404286Y-103073390D02*
X94451905Y-103168628D01*
X94451905Y-103168628D02*
X94499524Y-103216247D01*
X94499524Y-103216247D02*
X94594762Y-103263866D01*
X94594762Y-103263866D02*
X94785238Y-103263866D01*
X94785238Y-103263866D02*
X94880476Y-103216247D01*
X94880476Y-103216247D02*
X94928095Y-103168628D01*
X94928095Y-103168628D02*
X94975714Y-103073390D01*
X82833333Y-49359580D02*
X82785714Y-49407200D01*
X82785714Y-49407200D02*
X82642857Y-49454819D01*
X82642857Y-49454819D02*
X82547619Y-49454819D01*
X82547619Y-49454819D02*
X82404762Y-49407200D01*
X82404762Y-49407200D02*
X82309524Y-49311961D01*
X82309524Y-49311961D02*
X82261905Y-49216723D01*
X82261905Y-49216723D02*
X82214286Y-49026247D01*
X82214286Y-49026247D02*
X82214286Y-48883390D01*
X82214286Y-48883390D02*
X82261905Y-48692914D01*
X82261905Y-48692914D02*
X82309524Y-48597676D01*
X82309524Y-48597676D02*
X82404762Y-48502438D01*
X82404762Y-48502438D02*
X82547619Y-48454819D01*
X82547619Y-48454819D02*
X82642857Y-48454819D01*
X82642857Y-48454819D02*
X82785714Y-48502438D01*
X82785714Y-48502438D02*
X82833333Y-48550057D01*
X83214286Y-48550057D02*
X83261905Y-48502438D01*
X83261905Y-48502438D02*
X83357143Y-48454819D01*
X83357143Y-48454819D02*
X83595238Y-48454819D01*
X83595238Y-48454819D02*
X83690476Y-48502438D01*
X83690476Y-48502438D02*
X83738095Y-48550057D01*
X83738095Y-48550057D02*
X83785714Y-48645295D01*
X83785714Y-48645295D02*
X83785714Y-48740533D01*
X83785714Y-48740533D02*
X83738095Y-48883390D01*
X83738095Y-48883390D02*
X83166667Y-49454819D01*
X83166667Y-49454819D02*
X83785714Y-49454819D01*
X94047142Y-94644819D02*
X93713809Y-94168628D01*
X93475714Y-94644819D02*
X93475714Y-93644819D01*
X93475714Y-93644819D02*
X93856666Y-93644819D01*
X93856666Y-93644819D02*
X93951904Y-93692438D01*
X93951904Y-93692438D02*
X93999523Y-93740057D01*
X93999523Y-93740057D02*
X94047142Y-93835295D01*
X94047142Y-93835295D02*
X94047142Y-93978152D01*
X94047142Y-93978152D02*
X93999523Y-94073390D01*
X93999523Y-94073390D02*
X93951904Y-94121009D01*
X93951904Y-94121009D02*
X93856666Y-94168628D01*
X93856666Y-94168628D02*
X93475714Y-94168628D01*
X94999523Y-94644819D02*
X94428095Y-94644819D01*
X94713809Y-94644819D02*
X94713809Y-93644819D01*
X94713809Y-93644819D02*
X94618571Y-93787676D01*
X94618571Y-93787676D02*
X94523333Y-93882914D01*
X94523333Y-93882914D02*
X94428095Y-93930533D01*
X95618571Y-93644819D02*
X95713809Y-93644819D01*
X95713809Y-93644819D02*
X95809047Y-93692438D01*
X95809047Y-93692438D02*
X95856666Y-93740057D01*
X95856666Y-93740057D02*
X95904285Y-93835295D01*
X95904285Y-93835295D02*
X95951904Y-94025771D01*
X95951904Y-94025771D02*
X95951904Y-94263866D01*
X95951904Y-94263866D02*
X95904285Y-94454342D01*
X95904285Y-94454342D02*
X95856666Y-94549580D01*
X95856666Y-94549580D02*
X95809047Y-94597200D01*
X95809047Y-94597200D02*
X95713809Y-94644819D01*
X95713809Y-94644819D02*
X95618571Y-94644819D01*
X95618571Y-94644819D02*
X95523333Y-94597200D01*
X95523333Y-94597200D02*
X95475714Y-94549580D01*
X95475714Y-94549580D02*
X95428095Y-94454342D01*
X95428095Y-94454342D02*
X95380476Y-94263866D01*
X95380476Y-94263866D02*
X95380476Y-94025771D01*
X95380476Y-94025771D02*
X95428095Y-93835295D01*
X95428095Y-93835295D02*
X95475714Y-93740057D01*
X95475714Y-93740057D02*
X95523333Y-93692438D01*
X95523333Y-93692438D02*
X95618571Y-93644819D01*
X54943333Y-94644819D02*
X54610000Y-94168628D01*
X54371905Y-94644819D02*
X54371905Y-93644819D01*
X54371905Y-93644819D02*
X54752857Y-93644819D01*
X54752857Y-93644819D02*
X54848095Y-93692438D01*
X54848095Y-93692438D02*
X54895714Y-93740057D01*
X54895714Y-93740057D02*
X54943333Y-93835295D01*
X54943333Y-93835295D02*
X54943333Y-93978152D01*
X54943333Y-93978152D02*
X54895714Y-94073390D01*
X54895714Y-94073390D02*
X54848095Y-94121009D01*
X54848095Y-94121009D02*
X54752857Y-94168628D01*
X54752857Y-94168628D02*
X54371905Y-94168628D01*
X55276667Y-93644819D02*
X55895714Y-93644819D01*
X55895714Y-93644819D02*
X55562381Y-94025771D01*
X55562381Y-94025771D02*
X55705238Y-94025771D01*
X55705238Y-94025771D02*
X55800476Y-94073390D01*
X55800476Y-94073390D02*
X55848095Y-94121009D01*
X55848095Y-94121009D02*
X55895714Y-94216247D01*
X55895714Y-94216247D02*
X55895714Y-94454342D01*
X55895714Y-94454342D02*
X55848095Y-94549580D01*
X55848095Y-94549580D02*
X55800476Y-94597200D01*
X55800476Y-94597200D02*
X55705238Y-94644819D01*
X55705238Y-94644819D02*
X55419524Y-94644819D01*
X55419524Y-94644819D02*
X55324286Y-94597200D01*
X55324286Y-94597200D02*
X55276667Y-94549580D01*
D10*
X86666666Y-116457419D02*
X86666666Y-117171704D01*
X86666666Y-117171704D02*
X86619047Y-117314561D01*
X86619047Y-117314561D02*
X86523809Y-117409800D01*
X86523809Y-117409800D02*
X86380952Y-117457419D01*
X86380952Y-117457419D02*
X86285714Y-117457419D01*
X87285714Y-116885990D02*
X87190476Y-116838371D01*
X87190476Y-116838371D02*
X87142857Y-116790752D01*
X87142857Y-116790752D02*
X87095238Y-116695514D01*
X87095238Y-116695514D02*
X87095238Y-116647895D01*
X87095238Y-116647895D02*
X87142857Y-116552657D01*
X87142857Y-116552657D02*
X87190476Y-116505038D01*
X87190476Y-116505038D02*
X87285714Y-116457419D01*
X87285714Y-116457419D02*
X87476190Y-116457419D01*
X87476190Y-116457419D02*
X87571428Y-116505038D01*
X87571428Y-116505038D02*
X87619047Y-116552657D01*
X87619047Y-116552657D02*
X87666666Y-116647895D01*
X87666666Y-116647895D02*
X87666666Y-116695514D01*
X87666666Y-116695514D02*
X87619047Y-116790752D01*
X87619047Y-116790752D02*
X87571428Y-116838371D01*
X87571428Y-116838371D02*
X87476190Y-116885990D01*
X87476190Y-116885990D02*
X87285714Y-116885990D01*
X87285714Y-116885990D02*
X87190476Y-116933609D01*
X87190476Y-116933609D02*
X87142857Y-116981228D01*
X87142857Y-116981228D02*
X87095238Y-117076466D01*
X87095238Y-117076466D02*
X87095238Y-117266942D01*
X87095238Y-117266942D02*
X87142857Y-117362180D01*
X87142857Y-117362180D02*
X87190476Y-117409800D01*
X87190476Y-117409800D02*
X87285714Y-117457419D01*
X87285714Y-117457419D02*
X87476190Y-117457419D01*
X87476190Y-117457419D02*
X87571428Y-117409800D01*
X87571428Y-117409800D02*
X87619047Y-117362180D01*
X87619047Y-117362180D02*
X87666666Y-117266942D01*
X87666666Y-117266942D02*
X87666666Y-117076466D01*
X87666666Y-117076466D02*
X87619047Y-116981228D01*
X87619047Y-116981228D02*
X87571428Y-116933609D01*
X87571428Y-116933609D02*
X87476190Y-116885990D01*
D12*
X94023333Y-97644819D02*
X93690000Y-97168628D01*
X93451905Y-97644819D02*
X93451905Y-96644819D01*
X93451905Y-96644819D02*
X93832857Y-96644819D01*
X93832857Y-96644819D02*
X93928095Y-96692438D01*
X93928095Y-96692438D02*
X93975714Y-96740057D01*
X93975714Y-96740057D02*
X94023333Y-96835295D01*
X94023333Y-96835295D02*
X94023333Y-96978152D01*
X94023333Y-96978152D02*
X93975714Y-97073390D01*
X93975714Y-97073390D02*
X93928095Y-97121009D01*
X93928095Y-97121009D02*
X93832857Y-97168628D01*
X93832857Y-97168628D02*
X93451905Y-97168628D01*
X94356667Y-96644819D02*
X95023333Y-96644819D01*
X95023333Y-96644819D02*
X94594762Y-97644819D01*
D10*
X86690476Y-134957419D02*
X86690476Y-135671704D01*
X86690476Y-135671704D02*
X86642857Y-135814561D01*
X86642857Y-135814561D02*
X86547619Y-135909800D01*
X86547619Y-135909800D02*
X86404762Y-135957419D01*
X86404762Y-135957419D02*
X86309524Y-135957419D01*
X87690476Y-135957419D02*
X87119048Y-135957419D01*
X87404762Y-135957419D02*
X87404762Y-134957419D01*
X87404762Y-134957419D02*
X87309524Y-135100276D01*
X87309524Y-135100276D02*
X87214286Y-135195514D01*
X87214286Y-135195514D02*
X87119048Y-135243133D01*
X88309524Y-134957419D02*
X88404762Y-134957419D01*
X88404762Y-134957419D02*
X88500000Y-135005038D01*
X88500000Y-135005038D02*
X88547619Y-135052657D01*
X88547619Y-135052657D02*
X88595238Y-135147895D01*
X88595238Y-135147895D02*
X88642857Y-135338371D01*
X88642857Y-135338371D02*
X88642857Y-135576466D01*
X88642857Y-135576466D02*
X88595238Y-135766942D01*
X88595238Y-135766942D02*
X88547619Y-135862180D01*
X88547619Y-135862180D02*
X88500000Y-135909800D01*
X88500000Y-135909800D02*
X88404762Y-135957419D01*
X88404762Y-135957419D02*
X88309524Y-135957419D01*
X88309524Y-135957419D02*
X88214286Y-135909800D01*
X88214286Y-135909800D02*
X88166667Y-135862180D01*
X88166667Y-135862180D02*
X88119048Y-135766942D01*
X88119048Y-135766942D02*
X88071429Y-135576466D01*
X88071429Y-135576466D02*
X88071429Y-135338371D01*
X88071429Y-135338371D02*
X88119048Y-135147895D01*
X88119048Y-135147895D02*
X88166667Y-135052657D01*
X88166667Y-135052657D02*
X88214286Y-135005038D01*
X88214286Y-135005038D02*
X88309524Y-134957419D01*
D12*
X95208673Y-58286972D02*
X95922958Y-58286972D01*
X95922958Y-58286972D02*
X96065815Y-58334591D01*
X96065815Y-58334591D02*
X96161054Y-58429829D01*
X96161054Y-58429829D02*
X96208673Y-58572686D01*
X96208673Y-58572686D02*
X96208673Y-58667924D01*
X96208673Y-57286972D02*
X96208673Y-57858400D01*
X96208673Y-57572686D02*
X95208673Y-57572686D01*
X95208673Y-57572686D02*
X95351530Y-57667924D01*
X95351530Y-57667924D02*
X95446768Y-57763162D01*
X95446768Y-57763162D02*
X95494387Y-57858400D01*
X55023333Y-106644819D02*
X54690000Y-106168628D01*
X54451905Y-106644819D02*
X54451905Y-105644819D01*
X54451905Y-105644819D02*
X54832857Y-105644819D01*
X54832857Y-105644819D02*
X54928095Y-105692438D01*
X54928095Y-105692438D02*
X54975714Y-105740057D01*
X54975714Y-105740057D02*
X55023333Y-105835295D01*
X55023333Y-105835295D02*
X55023333Y-105978152D01*
X55023333Y-105978152D02*
X54975714Y-106073390D01*
X54975714Y-106073390D02*
X54928095Y-106121009D01*
X54928095Y-106121009D02*
X54832857Y-106168628D01*
X54832857Y-106168628D02*
X54451905Y-106168628D01*
X55928095Y-105644819D02*
X55451905Y-105644819D01*
X55451905Y-105644819D02*
X55404286Y-106121009D01*
X55404286Y-106121009D02*
X55451905Y-106073390D01*
X55451905Y-106073390D02*
X55547143Y-106025771D01*
X55547143Y-106025771D02*
X55785238Y-106025771D01*
X55785238Y-106025771D02*
X55880476Y-106073390D01*
X55880476Y-106073390D02*
X55928095Y-106121009D01*
X55928095Y-106121009D02*
X55975714Y-106216247D01*
X55975714Y-106216247D02*
X55975714Y-106454342D01*
X55975714Y-106454342D02*
X55928095Y-106549580D01*
X55928095Y-106549580D02*
X55880476Y-106597200D01*
X55880476Y-106597200D02*
X55785238Y-106644819D01*
X55785238Y-106644819D02*
X55547143Y-106644819D01*
X55547143Y-106644819D02*
X55451905Y-106597200D01*
X55451905Y-106597200D02*
X55404286Y-106549580D01*
X66833333Y-49359580D02*
X66785714Y-49407200D01*
X66785714Y-49407200D02*
X66642857Y-49454819D01*
X66642857Y-49454819D02*
X66547619Y-49454819D01*
X66547619Y-49454819D02*
X66404762Y-49407200D01*
X66404762Y-49407200D02*
X66309524Y-49311961D01*
X66309524Y-49311961D02*
X66261905Y-49216723D01*
X66261905Y-49216723D02*
X66214286Y-49026247D01*
X66214286Y-49026247D02*
X66214286Y-48883390D01*
X66214286Y-48883390D02*
X66261905Y-48692914D01*
X66261905Y-48692914D02*
X66309524Y-48597676D01*
X66309524Y-48597676D02*
X66404762Y-48502438D01*
X66404762Y-48502438D02*
X66547619Y-48454819D01*
X66547619Y-48454819D02*
X66642857Y-48454819D01*
X66642857Y-48454819D02*
X66785714Y-48502438D01*
X66785714Y-48502438D02*
X66833333Y-48550057D01*
X67785714Y-49454819D02*
X67214286Y-49454819D01*
X67500000Y-49454819D02*
X67500000Y-48454819D01*
X67500000Y-48454819D02*
X67404762Y-48597676D01*
X67404762Y-48597676D02*
X67309524Y-48692914D01*
X67309524Y-48692914D02*
X67214286Y-48740533D01*
D10*
X75904761Y-63457419D02*
X75571428Y-62981228D01*
X75333333Y-63457419D02*
X75333333Y-62457419D01*
X75333333Y-62457419D02*
X75714285Y-62457419D01*
X75714285Y-62457419D02*
X75809523Y-62505038D01*
X75809523Y-62505038D02*
X75857142Y-62552657D01*
X75857142Y-62552657D02*
X75904761Y-62647895D01*
X75904761Y-62647895D02*
X75904761Y-62790752D01*
X75904761Y-62790752D02*
X75857142Y-62885990D01*
X75857142Y-62885990D02*
X75809523Y-62933609D01*
X75809523Y-62933609D02*
X75714285Y-62981228D01*
X75714285Y-62981228D02*
X75333333Y-62981228D01*
X76190476Y-62457419D02*
X76523809Y-63457419D01*
X76523809Y-63457419D02*
X76857142Y-62457419D01*
X77142857Y-62552657D02*
X77190476Y-62505038D01*
X77190476Y-62505038D02*
X77285714Y-62457419D01*
X77285714Y-62457419D02*
X77523809Y-62457419D01*
X77523809Y-62457419D02*
X77619047Y-62505038D01*
X77619047Y-62505038D02*
X77666666Y-62552657D01*
X77666666Y-62552657D02*
X77714285Y-62647895D01*
X77714285Y-62647895D02*
X77714285Y-62743133D01*
X77714285Y-62743133D02*
X77666666Y-62885990D01*
X77666666Y-62885990D02*
X77095238Y-63457419D01*
X77095238Y-63457419D02*
X77714285Y-63457419D01*
D12*
X55023333Y-109644819D02*
X54690000Y-109168628D01*
X54451905Y-109644819D02*
X54451905Y-108644819D01*
X54451905Y-108644819D02*
X54832857Y-108644819D01*
X54832857Y-108644819D02*
X54928095Y-108692438D01*
X54928095Y-108692438D02*
X54975714Y-108740057D01*
X54975714Y-108740057D02*
X55023333Y-108835295D01*
X55023333Y-108835295D02*
X55023333Y-108978152D01*
X55023333Y-108978152D02*
X54975714Y-109073390D01*
X54975714Y-109073390D02*
X54928095Y-109121009D01*
X54928095Y-109121009D02*
X54832857Y-109168628D01*
X54832857Y-109168628D02*
X54451905Y-109168628D01*
X55880476Y-108644819D02*
X55690000Y-108644819D01*
X55690000Y-108644819D02*
X55594762Y-108692438D01*
X55594762Y-108692438D02*
X55547143Y-108740057D01*
X55547143Y-108740057D02*
X55451905Y-108882914D01*
X55451905Y-108882914D02*
X55404286Y-109073390D01*
X55404286Y-109073390D02*
X55404286Y-109454342D01*
X55404286Y-109454342D02*
X55451905Y-109549580D01*
X55451905Y-109549580D02*
X55499524Y-109597200D01*
X55499524Y-109597200D02*
X55594762Y-109644819D01*
X55594762Y-109644819D02*
X55785238Y-109644819D01*
X55785238Y-109644819D02*
X55880476Y-109597200D01*
X55880476Y-109597200D02*
X55928095Y-109549580D01*
X55928095Y-109549580D02*
X55975714Y-109454342D01*
X55975714Y-109454342D02*
X55975714Y-109216247D01*
X55975714Y-109216247D02*
X55928095Y-109121009D01*
X55928095Y-109121009D02*
X55880476Y-109073390D01*
X55880476Y-109073390D02*
X55785238Y-109025771D01*
X55785238Y-109025771D02*
X55594762Y-109025771D01*
X55594762Y-109025771D02*
X55499524Y-109073390D01*
X55499524Y-109073390D02*
X55451905Y-109121009D01*
X55451905Y-109121009D02*
X55404286Y-109216247D01*
D10*
X88666666Y-116457419D02*
X88666666Y-117171704D01*
X88666666Y-117171704D02*
X88619047Y-117314561D01*
X88619047Y-117314561D02*
X88523809Y-117409800D01*
X88523809Y-117409800D02*
X88380952Y-117457419D01*
X88380952Y-117457419D02*
X88285714Y-117457419D01*
X89190476Y-117457419D02*
X89380952Y-117457419D01*
X89380952Y-117457419D02*
X89476190Y-117409800D01*
X89476190Y-117409800D02*
X89523809Y-117362180D01*
X89523809Y-117362180D02*
X89619047Y-117219323D01*
X89619047Y-117219323D02*
X89666666Y-117028847D01*
X89666666Y-117028847D02*
X89666666Y-116647895D01*
X89666666Y-116647895D02*
X89619047Y-116552657D01*
X89619047Y-116552657D02*
X89571428Y-116505038D01*
X89571428Y-116505038D02*
X89476190Y-116457419D01*
X89476190Y-116457419D02*
X89285714Y-116457419D01*
X89285714Y-116457419D02*
X89190476Y-116505038D01*
X89190476Y-116505038D02*
X89142857Y-116552657D01*
X89142857Y-116552657D02*
X89095238Y-116647895D01*
X89095238Y-116647895D02*
X89095238Y-116885990D01*
X89095238Y-116885990D02*
X89142857Y-116981228D01*
X89142857Y-116981228D02*
X89190476Y-117028847D01*
X89190476Y-117028847D02*
X89285714Y-117076466D01*
X89285714Y-117076466D02*
X89476190Y-117076466D01*
X89476190Y-117076466D02*
X89571428Y-117028847D01*
X89571428Y-117028847D02*
X89619047Y-116981228D01*
X89619047Y-116981228D02*
X89666666Y-116885990D01*
X63666666Y-116457419D02*
X63666666Y-117171704D01*
X63666666Y-117171704D02*
X63619047Y-117314561D01*
X63619047Y-117314561D02*
X63523809Y-117409800D01*
X63523809Y-117409800D02*
X63380952Y-117457419D01*
X63380952Y-117457419D02*
X63285714Y-117457419D01*
X64571428Y-116790752D02*
X64571428Y-117457419D01*
X64333333Y-116409800D02*
X64095238Y-117124085D01*
X64095238Y-117124085D02*
X64714285Y-117124085D01*
X85845957Y-67204666D02*
X85845957Y-67918951D01*
X85845957Y-67918951D02*
X85798338Y-68061808D01*
X85798338Y-68061808D02*
X85703100Y-68157047D01*
X85703100Y-68157047D02*
X85560243Y-68204666D01*
X85560243Y-68204666D02*
X85465005Y-68204666D01*
X86226910Y-67204666D02*
X86893576Y-67204666D01*
X86893576Y-67204666D02*
X86465005Y-68204666D01*
D12*
X53774819Y-58103333D02*
X54489104Y-58103333D01*
X54489104Y-58103333D02*
X54631961Y-58150952D01*
X54631961Y-58150952D02*
X54727200Y-58246190D01*
X54727200Y-58246190D02*
X54774819Y-58389047D01*
X54774819Y-58389047D02*
X54774819Y-58484285D01*
X53870057Y-57674761D02*
X53822438Y-57627142D01*
X53822438Y-57627142D02*
X53774819Y-57531904D01*
X53774819Y-57531904D02*
X53774819Y-57293809D01*
X53774819Y-57293809D02*
X53822438Y-57198571D01*
X53822438Y-57198571D02*
X53870057Y-57150952D01*
X53870057Y-57150952D02*
X53965295Y-57103333D01*
X53965295Y-57103333D02*
X54060533Y-57103333D01*
X54060533Y-57103333D02*
X54203390Y-57150952D01*
X54203390Y-57150952D02*
X54774819Y-57722380D01*
X54774819Y-57722380D02*
X54774819Y-57103333D01*
X54863333Y-97644819D02*
X54530000Y-97168628D01*
X54291905Y-97644819D02*
X54291905Y-96644819D01*
X54291905Y-96644819D02*
X54672857Y-96644819D01*
X54672857Y-96644819D02*
X54768095Y-96692438D01*
X54768095Y-96692438D02*
X54815714Y-96740057D01*
X54815714Y-96740057D02*
X54863333Y-96835295D01*
X54863333Y-96835295D02*
X54863333Y-96978152D01*
X54863333Y-96978152D02*
X54815714Y-97073390D01*
X54815714Y-97073390D02*
X54768095Y-97121009D01*
X54768095Y-97121009D02*
X54672857Y-97168628D01*
X54672857Y-97168628D02*
X54291905Y-97168628D01*
X55244286Y-96740057D02*
X55291905Y-96692438D01*
X55291905Y-96692438D02*
X55387143Y-96644819D01*
X55387143Y-96644819D02*
X55625238Y-96644819D01*
X55625238Y-96644819D02*
X55720476Y-96692438D01*
X55720476Y-96692438D02*
X55768095Y-96740057D01*
X55768095Y-96740057D02*
X55815714Y-96835295D01*
X55815714Y-96835295D02*
X55815714Y-96930533D01*
X55815714Y-96930533D02*
X55768095Y-97073390D01*
X55768095Y-97073390D02*
X55196667Y-97644819D01*
X55196667Y-97644819D02*
X55815714Y-97644819D01*
D10*
X61666666Y-116457419D02*
X61666666Y-117171704D01*
X61666666Y-117171704D02*
X61619047Y-117314561D01*
X61619047Y-117314561D02*
X61523809Y-117409800D01*
X61523809Y-117409800D02*
X61380952Y-117457419D01*
X61380952Y-117457419D02*
X61285714Y-117457419D01*
X62619047Y-116457419D02*
X62142857Y-116457419D01*
X62142857Y-116457419D02*
X62095238Y-116933609D01*
X62095238Y-116933609D02*
X62142857Y-116885990D01*
X62142857Y-116885990D02*
X62238095Y-116838371D01*
X62238095Y-116838371D02*
X62476190Y-116838371D01*
X62476190Y-116838371D02*
X62571428Y-116885990D01*
X62571428Y-116885990D02*
X62619047Y-116933609D01*
X62619047Y-116933609D02*
X62666666Y-117028847D01*
X62666666Y-117028847D02*
X62666666Y-117266942D01*
X62666666Y-117266942D02*
X62619047Y-117362180D01*
X62619047Y-117362180D02*
X62571428Y-117409800D01*
X62571428Y-117409800D02*
X62476190Y-117457419D01*
X62476190Y-117457419D02*
X62238095Y-117457419D01*
X62238095Y-117457419D02*
X62142857Y-117409800D01*
X62142857Y-117409800D02*
X62095238Y-117362180D01*
X62756198Y-67188826D02*
X62756198Y-67903111D01*
X62756198Y-67903111D02*
X62708579Y-68045968D01*
X62708579Y-68045968D02*
X62613341Y-68141207D01*
X62613341Y-68141207D02*
X62470484Y-68188826D01*
X62470484Y-68188826D02*
X62375246Y-68188826D01*
X63137151Y-67188826D02*
X63756198Y-67188826D01*
X63756198Y-67188826D02*
X63422865Y-67569778D01*
X63422865Y-67569778D02*
X63565722Y-67569778D01*
X63565722Y-67569778D02*
X63660960Y-67617397D01*
X63660960Y-67617397D02*
X63708579Y-67665016D01*
X63708579Y-67665016D02*
X63756198Y-67760254D01*
X63756198Y-67760254D02*
X63756198Y-67998349D01*
X63756198Y-67998349D02*
X63708579Y-68093587D01*
X63708579Y-68093587D02*
X63660960Y-68141207D01*
X63660960Y-68141207D02*
X63565722Y-68188826D01*
X63565722Y-68188826D02*
X63280008Y-68188826D01*
X63280008Y-68188826D02*
X63184770Y-68141207D01*
X63184770Y-68141207D02*
X63137151Y-68093587D01*
D12*
X54833333Y-100644819D02*
X54500000Y-100168628D01*
X54261905Y-100644819D02*
X54261905Y-99644819D01*
X54261905Y-99644819D02*
X54642857Y-99644819D01*
X54642857Y-99644819D02*
X54738095Y-99692438D01*
X54738095Y-99692438D02*
X54785714Y-99740057D01*
X54785714Y-99740057D02*
X54833333Y-99835295D01*
X54833333Y-99835295D02*
X54833333Y-99978152D01*
X54833333Y-99978152D02*
X54785714Y-100073390D01*
X54785714Y-100073390D02*
X54738095Y-100121009D01*
X54738095Y-100121009D02*
X54642857Y-100168628D01*
X54642857Y-100168628D02*
X54261905Y-100168628D01*
X55785714Y-100644819D02*
X55214286Y-100644819D01*
X55500000Y-100644819D02*
X55500000Y-99644819D01*
X55500000Y-99644819D02*
X55404762Y-99787676D01*
X55404762Y-99787676D02*
X55309524Y-99882914D01*
X55309524Y-99882914D02*
X55214286Y-99930533D01*
D10*
X63166666Y-134957419D02*
X63166666Y-135671704D01*
X63166666Y-135671704D02*
X63119047Y-135814561D01*
X63119047Y-135814561D02*
X63023809Y-135909800D01*
X63023809Y-135909800D02*
X62880952Y-135957419D01*
X62880952Y-135957419D02*
X62785714Y-135957419D01*
X64071428Y-134957419D02*
X63880952Y-134957419D01*
X63880952Y-134957419D02*
X63785714Y-135005038D01*
X63785714Y-135005038D02*
X63738095Y-135052657D01*
X63738095Y-135052657D02*
X63642857Y-135195514D01*
X63642857Y-135195514D02*
X63595238Y-135385990D01*
X63595238Y-135385990D02*
X63595238Y-135766942D01*
X63595238Y-135766942D02*
X63642857Y-135862180D01*
X63642857Y-135862180D02*
X63690476Y-135909800D01*
X63690476Y-135909800D02*
X63785714Y-135957419D01*
X63785714Y-135957419D02*
X63976190Y-135957419D01*
X63976190Y-135957419D02*
X64071428Y-135909800D01*
X64071428Y-135909800D02*
X64119047Y-135862180D01*
X64119047Y-135862180D02*
X64166666Y-135766942D01*
X64166666Y-135766942D02*
X64166666Y-135528847D01*
X64166666Y-135528847D02*
X64119047Y-135433609D01*
X64119047Y-135433609D02*
X64071428Y-135385990D01*
X64071428Y-135385990D02*
X63976190Y-135338371D01*
X63976190Y-135338371D02*
X63785714Y-135338371D01*
X63785714Y-135338371D02*
X63690476Y-135385990D01*
X63690476Y-135385990D02*
X63642857Y-135433609D01*
X63642857Y-135433609D02*
X63595238Y-135528847D01*
X72404761Y-63457419D02*
X72071428Y-62981228D01*
X71833333Y-63457419D02*
X71833333Y-62457419D01*
X71833333Y-62457419D02*
X72214285Y-62457419D01*
X72214285Y-62457419D02*
X72309523Y-62505038D01*
X72309523Y-62505038D02*
X72357142Y-62552657D01*
X72357142Y-62552657D02*
X72404761Y-62647895D01*
X72404761Y-62647895D02*
X72404761Y-62790752D01*
X72404761Y-62790752D02*
X72357142Y-62885990D01*
X72357142Y-62885990D02*
X72309523Y-62933609D01*
X72309523Y-62933609D02*
X72214285Y-62981228D01*
X72214285Y-62981228D02*
X71833333Y-62981228D01*
X72690476Y-62457419D02*
X73023809Y-63457419D01*
X73023809Y-63457419D02*
X73357142Y-62457419D01*
X74214285Y-63457419D02*
X73642857Y-63457419D01*
X73928571Y-63457419D02*
X73928571Y-62457419D01*
X73928571Y-62457419D02*
X73833333Y-62600276D01*
X73833333Y-62600276D02*
X73738095Y-62695514D01*
X73738095Y-62695514D02*
X73642857Y-62743133D01*
D12*
X94103333Y-100644819D02*
X93770000Y-100168628D01*
X93531905Y-100644819D02*
X93531905Y-99644819D01*
X93531905Y-99644819D02*
X93912857Y-99644819D01*
X93912857Y-99644819D02*
X94008095Y-99692438D01*
X94008095Y-99692438D02*
X94055714Y-99740057D01*
X94055714Y-99740057D02*
X94103333Y-99835295D01*
X94103333Y-99835295D02*
X94103333Y-99978152D01*
X94103333Y-99978152D02*
X94055714Y-100073390D01*
X94055714Y-100073390D02*
X94008095Y-100121009D01*
X94008095Y-100121009D02*
X93912857Y-100168628D01*
X93912857Y-100168628D02*
X93531905Y-100168628D01*
X94674762Y-100073390D02*
X94579524Y-100025771D01*
X94579524Y-100025771D02*
X94531905Y-99978152D01*
X94531905Y-99978152D02*
X94484286Y-99882914D01*
X94484286Y-99882914D02*
X94484286Y-99835295D01*
X94484286Y-99835295D02*
X94531905Y-99740057D01*
X94531905Y-99740057D02*
X94579524Y-99692438D01*
X94579524Y-99692438D02*
X94674762Y-99644819D01*
X94674762Y-99644819D02*
X94865238Y-99644819D01*
X94865238Y-99644819D02*
X94960476Y-99692438D01*
X94960476Y-99692438D02*
X95008095Y-99740057D01*
X95008095Y-99740057D02*
X95055714Y-99835295D01*
X95055714Y-99835295D02*
X95055714Y-99882914D01*
X95055714Y-99882914D02*
X95008095Y-99978152D01*
X95008095Y-99978152D02*
X94960476Y-100025771D01*
X94960476Y-100025771D02*
X94865238Y-100073390D01*
X94865238Y-100073390D02*
X94674762Y-100073390D01*
X94674762Y-100073390D02*
X94579524Y-100121009D01*
X94579524Y-100121009D02*
X94531905Y-100168628D01*
X94531905Y-100168628D02*
X94484286Y-100263866D01*
X94484286Y-100263866D02*
X94484286Y-100454342D01*
X94484286Y-100454342D02*
X94531905Y-100549580D01*
X94531905Y-100549580D02*
X94579524Y-100597200D01*
X94579524Y-100597200D02*
X94674762Y-100644819D01*
X94674762Y-100644819D02*
X94865238Y-100644819D01*
X94865238Y-100644819D02*
X94960476Y-100597200D01*
X94960476Y-100597200D02*
X95008095Y-100549580D01*
X95008095Y-100549580D02*
X95055714Y-100454342D01*
X95055714Y-100454342D02*
X95055714Y-100263866D01*
X95055714Y-100263866D02*
X95008095Y-100168628D01*
X95008095Y-100168628D02*
X94960476Y-100121009D01*
X94960476Y-100121009D02*
X94865238Y-100073390D01*
X54943333Y-103644819D02*
X54610000Y-103168628D01*
X54371905Y-103644819D02*
X54371905Y-102644819D01*
X54371905Y-102644819D02*
X54752857Y-102644819D01*
X54752857Y-102644819D02*
X54848095Y-102692438D01*
X54848095Y-102692438D02*
X54895714Y-102740057D01*
X54895714Y-102740057D02*
X54943333Y-102835295D01*
X54943333Y-102835295D02*
X54943333Y-102978152D01*
X54943333Y-102978152D02*
X54895714Y-103073390D01*
X54895714Y-103073390D02*
X54848095Y-103121009D01*
X54848095Y-103121009D02*
X54752857Y-103168628D01*
X54752857Y-103168628D02*
X54371905Y-103168628D01*
X55800476Y-102978152D02*
X55800476Y-103644819D01*
X55562381Y-102597200D02*
X55324286Y-103311485D01*
X55324286Y-103311485D02*
X55943333Y-103311485D01*
X73928095Y-91424819D02*
X73928095Y-92234342D01*
X73928095Y-92234342D02*
X73975714Y-92329580D01*
X73975714Y-92329580D02*
X74023333Y-92377200D01*
X74023333Y-92377200D02*
X74118571Y-92424819D01*
X74118571Y-92424819D02*
X74309047Y-92424819D01*
X74309047Y-92424819D02*
X74404285Y-92377200D01*
X74404285Y-92377200D02*
X74451904Y-92329580D01*
X74451904Y-92329580D02*
X74499523Y-92234342D01*
X74499523Y-92234342D02*
X74499523Y-91424819D01*
X75499523Y-92424819D02*
X74928095Y-92424819D01*
X75213809Y-92424819D02*
X75213809Y-91424819D01*
X75213809Y-91424819D02*
X75118571Y-91567676D01*
X75118571Y-91567676D02*
X75023333Y-91662914D01*
X75023333Y-91662914D02*
X74928095Y-91710533D01*
%TO.C,R12*%
D13*
X83499387Y-107919227D02*
X90039387Y-107919227D01*
X90039387Y-110659227D01*
X83499387Y-110659227D01*
X83499387Y-107919227D01*
X90809387Y-109289227D02*
X90039387Y-109289227D01*
X82729387Y-109289227D02*
X83499387Y-109289227D01*
%TO.C,R11*%
X82730000Y-106247581D02*
X83500000Y-106247581D01*
X90810000Y-106247581D02*
X90040000Y-106247581D01*
X83500000Y-104877581D02*
X90040000Y-104877581D01*
X90040000Y-107617581D01*
X83500000Y-107617581D01*
X83500000Y-104877581D01*
%TO.C,R9*%
X90040000Y-104602012D02*
X83500000Y-104602012D01*
X83500000Y-101862012D01*
X90040000Y-101862012D01*
X90040000Y-104602012D01*
X82730000Y-103232012D02*
X83500000Y-103232012D01*
X90810000Y-103232012D02*
X90040000Y-103232012D01*
%TO.C,C2*%
X80730000Y-49930000D02*
X85270000Y-49930000D01*
X80730000Y-49986000D02*
X80730000Y-49930000D01*
X85270000Y-52014000D02*
X85270000Y-52070000D01*
X85270000Y-52070000D02*
X80730000Y-52070000D01*
%TO.C,R10*%
X83500000Y-92820000D02*
X90040000Y-92820000D01*
X90040000Y-95560000D01*
X83500000Y-95560000D01*
X83500000Y-92820000D01*
X90810000Y-94190000D02*
X90040000Y-94190000D01*
X82730000Y-94190000D02*
X83500000Y-94190000D01*
%TO.C,R3*%
X65880000Y-95560000D02*
X59340000Y-95560000D01*
X59340000Y-92820000D01*
X65880000Y-92820000D01*
X65880000Y-95560000D01*
X58570000Y-94190000D02*
X59340000Y-94190000D01*
X66650000Y-94190000D02*
X65880000Y-94190000D01*
D10*
%TO.C,J8*%
X87500000Y-121975062D02*
G75*
G02*
X75500000Y-121975062I-6000000J0D01*
G01*
X75500000Y-121975062D02*
G75*
G02*
X87500000Y-121975062I6000000J0D01*
G01*
D13*
%TO.C,R7*%
X90810000Y-97232012D02*
X90040000Y-97232012D01*
X82730000Y-97232012D02*
X83500000Y-97232012D01*
X90040000Y-98602012D02*
X83500000Y-98602012D01*
X83500000Y-95862012D01*
X90040000Y-95862012D01*
X90040000Y-98602012D01*
D10*
%TO.C,J10*%
X87500000Y-139975062D02*
G75*
G02*
X75500000Y-139975062I-6000000J0D01*
G01*
X75500000Y-139975062D02*
G75*
G02*
X87500000Y-139975062I6000000J0D01*
G01*
D13*
%TO.C,J1*%
X83920000Y-63720000D02*
X84920000Y-63720000D01*
X84920000Y-63720000D02*
X84420000Y-62720000D01*
X84420000Y-62720000D02*
X83920000Y-63720000D01*
X79210000Y-62330000D02*
X79210000Y-53210000D01*
X84910000Y-62330000D02*
X84910000Y-61020000D01*
X94710000Y-62330000D02*
X79210000Y-62330000D01*
X80510000Y-61020000D02*
X80510000Y-54520000D01*
X84910000Y-61020000D02*
X80510000Y-61020000D01*
X89010000Y-61020000D02*
X89010000Y-62330000D01*
X93410000Y-61020000D02*
X89010000Y-61020000D01*
X80510000Y-54520000D02*
X93410000Y-54520000D01*
X93410000Y-54520000D02*
X93410000Y-61020000D01*
X79210000Y-53210000D02*
X94710000Y-53210000D01*
X94710000Y-53210000D02*
X94710000Y-62330000D01*
%TO.C,R5*%
X58570000Y-106190000D02*
X59340000Y-106190000D01*
X66650000Y-106190000D02*
X65880000Y-106190000D01*
X59340000Y-104820000D02*
X65880000Y-104820000D01*
X65880000Y-107560000D01*
X59340000Y-107560000D01*
X59340000Y-104820000D01*
%TO.C,C1*%
X64730000Y-49930000D02*
X69270000Y-49930000D01*
X64730000Y-49986000D02*
X64730000Y-49930000D01*
X69270000Y-52014000D02*
X69270000Y-52070000D01*
X69270000Y-52070000D02*
X64730000Y-52070000D01*
%TO.C,RV2*%
X82265000Y-87445000D02*
X82265000Y-86065000D01*
X83645000Y-87445000D02*
X82265000Y-87445000D01*
X84915000Y-84685000D02*
X90105000Y-84685000D01*
X84915000Y-87445000D02*
X84915000Y-84685000D01*
X84915000Y-87445000D02*
X90105000Y-87445000D01*
X90105000Y-87445000D02*
X90105000Y-84685000D01*
D10*
X75185000Y-64065000D02*
X97185000Y-64065000D01*
X97185000Y-88065000D01*
X75185000Y-88065000D01*
X75185000Y-64065000D01*
D13*
%TO.C,R6*%
X66650000Y-109190000D02*
X65880000Y-109190000D01*
X58570000Y-109190000D02*
X59340000Y-109190000D01*
X65880000Y-110560000D02*
X59340000Y-110560000D01*
X59340000Y-107820000D01*
X65880000Y-107820000D01*
X65880000Y-110560000D01*
D10*
%TO.C,J9*%
X100000000Y-121975062D02*
G75*
G02*
X88000000Y-121975062I-6000000J0D01*
G01*
X88000000Y-121975062D02*
G75*
G02*
X100000000Y-121975062I6000000J0D01*
G01*
%TO.C,J4*%
X75000000Y-121975062D02*
G75*
G02*
X63000000Y-121975062I-6000000J0D01*
G01*
X63000000Y-121975062D02*
G75*
G02*
X75000000Y-121975062I6000000J0D01*
G01*
D13*
%TO.C,J2*%
X59920000Y-63720000D02*
X60920000Y-63720000D01*
X60920000Y-63720000D02*
X60420000Y-62720000D01*
X60420000Y-62720000D02*
X59920000Y-63720000D01*
X55210000Y-62330000D02*
X55210000Y-53210000D01*
X60910000Y-62330000D02*
X60910000Y-61020000D01*
X70710000Y-62330000D02*
X55210000Y-62330000D01*
X56510000Y-61020000D02*
X56510000Y-54520000D01*
X60910000Y-61020000D02*
X56510000Y-61020000D01*
X65010000Y-61020000D02*
X65010000Y-62330000D01*
X69410000Y-61020000D02*
X65010000Y-61020000D01*
X56510000Y-54520000D02*
X69410000Y-54520000D01*
X69410000Y-54520000D02*
X69410000Y-61020000D01*
X55210000Y-53210000D02*
X70710000Y-53210000D01*
X70710000Y-53210000D02*
X70710000Y-62330000D01*
%TO.C,R2*%
X58570000Y-97190000D02*
X59340000Y-97190000D01*
X66650000Y-97190000D02*
X65880000Y-97190000D01*
X59340000Y-95820000D02*
X65880000Y-95820000D01*
X65880000Y-98560000D01*
X59340000Y-98560000D01*
X59340000Y-95820000D01*
D10*
%TO.C,J5*%
X62500000Y-121500000D02*
G75*
G02*
X50500000Y-121500000I-6000000J0D01*
G01*
X50500000Y-121500000D02*
G75*
G02*
X62500000Y-121500000I6000000J0D01*
G01*
D13*
%TO.C,R1*%
X66650000Y-100190000D02*
X65880000Y-100190000D01*
X58570000Y-100190000D02*
X59340000Y-100190000D01*
X65880000Y-101560000D02*
X59340000Y-101560000D01*
X59340000Y-98820000D01*
X65880000Y-98820000D01*
X65880000Y-101560000D01*
D10*
%TO.C,J6*%
X75000000Y-139975062D02*
G75*
G02*
X63000000Y-139975062I-6000000J0D01*
G01*
X63000000Y-139975062D02*
G75*
G02*
X75000000Y-139975062I6000000J0D01*
G01*
D13*
%TO.C,RV1*%
X59165000Y-87445000D02*
X59165000Y-86065000D01*
X60545000Y-87445000D02*
X59165000Y-87445000D01*
X61815000Y-84685000D02*
X67005000Y-84685000D01*
X61815000Y-87445000D02*
X61815000Y-84685000D01*
X61815000Y-87445000D02*
X67005000Y-87445000D01*
X67005000Y-87445000D02*
X67005000Y-84685000D01*
D10*
X52085000Y-64065000D02*
X74085000Y-64065000D01*
X74085000Y-88065000D01*
X52085000Y-88065000D01*
X52085000Y-64065000D01*
D13*
%TO.C,R8*%
X82730000Y-100232012D02*
X83500000Y-100232012D01*
X90810000Y-100232012D02*
X90040000Y-100232012D01*
X83500000Y-98862012D02*
X90040000Y-98862012D01*
X90040000Y-101602012D01*
X83500000Y-101602012D01*
X83500000Y-98862012D01*
%TO.C,R4*%
X58570000Y-103190000D02*
X59340000Y-103190000D01*
X66650000Y-103190000D02*
X65880000Y-103190000D01*
X59340000Y-101820000D02*
X65880000Y-101820000D01*
X65880000Y-104560000D01*
X59340000Y-104560000D01*
X59340000Y-101820000D01*
%TO.C,U1*%
X72040000Y-92970000D02*
X72040000Y-113410000D01*
X72040000Y-113410000D02*
X77340000Y-113410000D01*
X73690000Y-92970000D02*
X72040000Y-92970000D01*
X77340000Y-92970000D02*
X75690000Y-92970000D01*
X77340000Y-113410000D02*
X77340000Y-92970000D01*
X69550000Y-92910000D02*
X79830000Y-92910000D01*
X79830000Y-113470000D01*
X69550000Y-113470000D01*
X69550000Y-92910000D01*
X75690000Y-92970000D02*
G75*
G02*
X73690000Y-92970000I-1000000J0D01*
G01*
%TD*%
M02*
