%TF.GenerationSoftware,KiCad,Pcbnew,9.0.6*%
%TF.CreationDate,2026-01-05T02:57:40+11:00*%
%TF.ProjectId,voltage-controlled-amplifier,766f6c74-6167-4652-9d63-6f6e74726f6c,rev?*%
%TF.SameCoordinates,Original*%
%TF.FileFunction,Soldermask,Top*%
%TF.FilePolarity,Negative*%
%FSLAX46Y46*%
G04 Gerber Fmt 4.6, Leading zero omitted, Abs format (unit mm)*
G04 Created by KiCad (PCBNEW 9.0.6) date 2026-01-05 02:57:40*
%MOMM*%
%LPD*%
G01*
G04 APERTURE LIST*
G04 Aperture macros list*
%AMRoundRect*
0 Rectangle with rounded corners*
0 $1 Rounding radius*
0 $2 $3 $4 $5 $6 $7 $8 $9 X,Y pos of 4 corners*
0 Add a 4 corners polygon primitive as box body*
4,1,4,$2,$3,$4,$5,$6,$7,$8,$9,$2,$3,0*
0 Add four circle primitives for the rounded corners*
1,1,$1+$1,$2,$3*
1,1,$1+$1,$4,$5*
1,1,$1+$1,$6,$7*
1,1,$1+$1,$8,$9*
0 Add four rect primitives between the rounded corners*
20,1,$1+$1,$2,$3,$4,$5,0*
20,1,$1+$1,$4,$5,$6,$7,0*
20,1,$1+$1,$6,$7,$8,$9,0*
20,1,$1+$1,$8,$9,$2,$3,0*%
G04 Aperture macros list end*
%ADD10C,1.600000*%
%ADD11C,8.000000*%
%ADD12RoundRect,0.250000X0.600000X-0.600000X0.600000X0.600000X-0.600000X0.600000X-0.600000X-0.600000X0*%
%ADD13C,1.700000*%
%ADD14C,2.200000*%
%ADD15R,1.700000X1.700000*%
%ADD16RoundRect,0.250000X-0.550000X-0.550000X0.550000X-0.550000X0.550000X0.550000X-0.550000X0.550000X0*%
G04 APERTURE END LIST*
D10*
%TO.C,R12*%
X91849387Y-109289227D03*
X81689387Y-109289227D03*
%TD*%
%TO.C,R11*%
X81690000Y-106247581D03*
X91850000Y-106247581D03*
%TD*%
%TO.C,R9*%
X81690000Y-103232012D03*
X91850000Y-103232012D03*
%TD*%
%TO.C,C2*%
X80500000Y-51000000D03*
X85500000Y-51000000D03*
%TD*%
%TO.C,R10*%
X91850000Y-94190000D03*
X81690000Y-94190000D03*
%TD*%
%TO.C,R3*%
X57530000Y-94190000D03*
X67690000Y-94190000D03*
%TD*%
D11*
%TO.C,J8*%
X81500000Y-122000000D03*
%TD*%
D10*
%TO.C,R7*%
X91850000Y-97232012D03*
X81690000Y-97232012D03*
%TD*%
D11*
%TO.C,J10*%
X81500000Y-140000000D03*
%TD*%
D12*
%TO.C,J1*%
X84420000Y-59040000D03*
D13*
X84420000Y-56500000D03*
X86960000Y-59040000D03*
X86960000Y-56500000D03*
X89500000Y-59040000D03*
X89500000Y-56500000D03*
%TD*%
D10*
%TO.C,R5*%
X57530000Y-106190000D03*
X67690000Y-106190000D03*
%TD*%
%TO.C,C1*%
X64500000Y-51000000D03*
X69500000Y-51000000D03*
%TD*%
D14*
%TO.C,RV2*%
X77685000Y-66565000D03*
X94735000Y-66565000D03*
D15*
X83645000Y-86065000D03*
D13*
X86185000Y-86065000D03*
X88725000Y-86065000D03*
%TD*%
D10*
%TO.C,R6*%
X67690000Y-109190000D03*
X57530000Y-109190000D03*
%TD*%
D11*
%TO.C,J9*%
X94000000Y-122000000D03*
%TD*%
%TO.C,J4*%
X69000000Y-122000000D03*
%TD*%
D15*
%TO.C,J7*%
X81099291Y-65247247D03*
D13*
X86179291Y-65247247D03*
X91179291Y-65247247D03*
%TD*%
D12*
%TO.C,J2*%
X60420000Y-59040000D03*
D13*
X60420000Y-56500000D03*
X62960000Y-59040000D03*
X62960000Y-56500000D03*
X65500000Y-59040000D03*
X65500000Y-56500000D03*
%TD*%
D10*
%TO.C,R2*%
X57530000Y-97190000D03*
X67690000Y-97190000D03*
%TD*%
D11*
%TO.C,J5*%
X56500000Y-121524938D03*
%TD*%
D15*
%TO.C,J3*%
X58009532Y-65231407D03*
D13*
X63089532Y-65231407D03*
X68089532Y-65231407D03*
%TD*%
D10*
%TO.C,R1*%
X67690000Y-100190000D03*
X57530000Y-100190000D03*
%TD*%
D11*
%TO.C,J6*%
X69000000Y-140000000D03*
%TD*%
D14*
%TO.C,RV1*%
X54585000Y-66565000D03*
X71635000Y-66565000D03*
D15*
X60545000Y-86065000D03*
D13*
X63085000Y-86065000D03*
X65625000Y-86065000D03*
%TD*%
D10*
%TO.C,R8*%
X81690000Y-100232012D03*
X91850000Y-100232012D03*
%TD*%
%TO.C,R4*%
X57530000Y-103190000D03*
X67690000Y-103190000D03*
%TD*%
D16*
%TO.C,U1*%
X70880000Y-94300000D03*
D10*
X70880000Y-96840000D03*
X70880000Y-99380000D03*
X70880000Y-101920000D03*
X70880000Y-104460000D03*
X70880000Y-107000000D03*
X70880000Y-109540000D03*
X70880000Y-112080000D03*
X78500000Y-112080000D03*
X78500000Y-109540000D03*
X78500000Y-107000000D03*
X78500000Y-104460000D03*
X78500000Y-101920000D03*
X78500000Y-99380000D03*
X78500000Y-96840000D03*
X78500000Y-94300000D03*
%TD*%
M02*
