M48
; DRILL file {KiCad 9.0.6} date 2026-01-05T02:57:43+1100
; FORMAT={-:-/ absolute / metric / decimal}
; #@! TF.CreationDate,2026-01-05T02:57:43+11:00
; #@! TF.GenerationSoftware,Kicad,Pcbnew,9.0.6
; #@! TF.FileFunction,Plated,1,2,PTH
FMAT,2
METRIC
; #@! TA.AperFunction,Plated,PTH,ComponentDrill
T1C0.800
; #@! TA.AperFunction,Plated,PTH,ComponentDrill
T2C1.000
; #@! TA.AperFunction,Plated,PTH,ComponentDrill
T3C6.000
%
G90
G05
T1
X57.53Y-94.19
X57.53Y-97.19
X57.53Y-100.19
X57.53Y-103.19
X57.53Y-106.19
X57.53Y-109.19
X64.5Y-51.0
X67.69Y-94.19
X67.69Y-97.19
X67.69Y-100.19
X67.69Y-103.19
X67.69Y-106.19
X67.69Y-109.19
X69.5Y-51.0
X70.88Y-94.3
X70.88Y-96.84
X70.88Y-99.38
X70.88Y-101.92
X70.88Y-104.46
X70.88Y-107.0
X70.88Y-109.54
X70.88Y-112.08
X78.5Y-94.3
X78.5Y-96.84
X78.5Y-99.38
X78.5Y-101.92
X78.5Y-104.46
X78.5Y-107.0
X78.5Y-109.54
X78.5Y-112.08
X80.5Y-51.0
X81.689Y-109.289
X81.69Y-94.19
X81.69Y-97.232
X81.69Y-100.232
X81.69Y-103.232
X81.69Y-106.248
X85.5Y-51.0
X91.849Y-109.289
X91.85Y-94.19
X91.85Y-97.232
X91.85Y-100.232
X91.85Y-103.232
X91.85Y-106.248
T2
X58.01Y-65.231
X60.42Y-56.5
X60.42Y-59.04
X60.545Y-86.065
X62.96Y-56.5
X62.96Y-59.04
X63.085Y-86.065
X63.09Y-65.231
X65.5Y-56.5
X65.5Y-59.04
X65.625Y-86.065
X68.09Y-65.231
X81.099Y-65.247
X83.645Y-86.065
X84.42Y-56.5
X84.42Y-59.04
X86.179Y-65.247
X86.185Y-86.065
X86.96Y-56.5
X86.96Y-59.04
X88.725Y-86.065
X89.5Y-56.5
X89.5Y-59.04
X91.179Y-65.247
T3
X56.5Y-121.525
X69.0Y-122.0
X69.0Y-140.0
X81.5Y-122.0
X81.5Y-140.0
X94.0Y-122.0
M30
