%TF.GenerationSoftware,KiCad,Pcbnew,9.0.6*%
%TF.CreationDate,2026-01-10T02:09:03+11:00*%
%TF.ProjectId,voltage-controlled-amplifier,766f6c74-6167-4652-9d63-6f6e74726f6c,rev?*%
%TF.SameCoordinates,Original*%
%TF.FileFunction,Copper,L1,Top*%
%TF.FilePolarity,Positive*%
%FSLAX46Y46*%
G04 Gerber Fmt 4.6, Leading zero omitted, Abs format (unit mm)*
G04 Created by KiCad (PCBNEW 9.0.6) date 2026-01-10 02:09:03*
%MOMM*%
%LPD*%
G01*
G04 APERTURE LIST*
G04 Aperture macros list*
%AMRoundRect*
0 Rectangle with rounded corners*
0 $1 Rounding radius*
0 $2 $3 $4 $5 $6 $7 $8 $9 X,Y pos of 4 corners*
0 Add a 4 corners polygon primitive as box body*
4,1,4,$2,$3,$4,$5,$6,$7,$8,$9,$2,$3,0*
0 Add four circle primitives for the rounded corners*
1,1,$1+$1,$2,$3*
1,1,$1+$1,$4,$5*
1,1,$1+$1,$6,$7*
1,1,$1+$1,$8,$9*
0 Add four rect primitives between the rounded corners*
20,1,$1+$1,$2,$3,$4,$5,0*
20,1,$1+$1,$4,$5,$6,$7,0*
20,1,$1+$1,$6,$7,$8,$9,0*
20,1,$1+$1,$8,$9,$2,$3,0*%
G04 Aperture macros list end*
%TA.AperFunction,ComponentPad*%
%ADD10C,8.000000*%
%TD*%
%TA.AperFunction,ComponentPad*%
%ADD11C,1.600000*%
%TD*%
%TA.AperFunction,ComponentPad*%
%ADD12RoundRect,0.250000X0.600000X0.600000X-0.600000X0.600000X-0.600000X-0.600000X0.600000X-0.600000X0*%
%TD*%
%TA.AperFunction,ComponentPad*%
%ADD13C,1.700000*%
%TD*%
%TA.AperFunction,ComponentPad*%
%ADD14RoundRect,0.250000X-0.550000X-0.550000X0.550000X-0.550000X0.550000X0.550000X-0.550000X0.550000X0*%
%TD*%
%TA.AperFunction,ComponentPad*%
%ADD15R,1.700000X1.700000*%
%TD*%
%TA.AperFunction,Conductor*%
%ADD16C,0.200000*%
%TD*%
G04 APERTURE END LIST*
D10*
%TO.P,J8,1,Pin_1*%
%TO.N,Net-(J8-Pin_1)*%
X80909369Y-121539141D03*
%TD*%
D11*
%TO.P,R12,1*%
%TO.N,Net-(U2B--)*%
X97429118Y-132963937D03*
%TO.P,R12,2*%
%TO.N,Net-(J10-Pin_1)*%
X87269118Y-132963937D03*
%TD*%
%TO.P,R7,1*%
%TO.N,12V*%
X80211822Y-100000000D03*
%TO.P,R7,2*%
%TO.N,Net-(U1A-DIODE_BIAS)*%
X70051822Y-100000000D03*
%TD*%
%TO.P,C2,1*%
%TO.N,GND*%
X86515656Y-61804291D03*
%TO.P,C2,2*%
%TO.N,12V*%
X91515656Y-61804291D03*
%TD*%
D10*
%TO.P,J10,1,Pin_1*%
%TO.N,Net-(J10-Pin_1)*%
X80836603Y-140031574D03*
%TD*%
D12*
%TO.P,J1,1,Pin_1*%
%TO.N,12V*%
X70351278Y-57409480D03*
D13*
%TO.P,J1,2,Pin_2*%
%TO.N,-12V*%
X67811278Y-57409480D03*
%TO.P,J1,3,Pin_3*%
%TO.N,GND*%
X70351278Y-54869480D03*
%TO.P,J1,4,Pin_4*%
X67811278Y-54869480D03*
%TO.P,J1,5,Pin_5*%
%TO.N,5V*%
X70351278Y-52329480D03*
%TO.P,J1,6,Pin_6*%
%TO.N,unconnected-(J1-Pin_6-Pad6)*%
X67811278Y-52329480D03*
%TD*%
D11*
%TO.P,R3,1*%
%TO.N,Net-(R3-Pad1)*%
X52000000Y-91260000D03*
%TO.P,R3,2*%
%TO.N,Net-(J5-Pin_1)*%
X52000000Y-101420000D03*
%TD*%
%TO.P,R5,1*%
%TO.N,Net-(U2A-+)*%
X55500000Y-114080000D03*
%TO.P,R5,2*%
%TO.N,-12V*%
X55500000Y-103920000D03*
%TD*%
D14*
%TO.P,U2,1*%
%TO.N,Net-(U2A--)*%
X89000000Y-94690000D03*
D11*
%TO.P,U2,2,-*%
X89000000Y-97230000D03*
%TO.P,U2,3,+*%
%TO.N,Net-(U2A-+)*%
X89000000Y-99770000D03*
%TO.P,U2,4,V-*%
%TO.N,-12V*%
X89000000Y-102310000D03*
%TO.P,U2,5,+*%
%TO.N,Net-(U2B-+)*%
X96620000Y-102310000D03*
%TO.P,U2,6,-*%
%TO.N,Net-(U2B--)*%
X96620000Y-99770000D03*
%TO.P,U2,7*%
X96620000Y-97230000D03*
%TO.P,U2,8,V+*%
%TO.N,12V*%
X96620000Y-94690000D03*
%TD*%
%TO.P,R9,1*%
%TO.N,GND*%
X80263025Y-108013363D03*
%TO.P,R9,2*%
%TO.N,Net-(R9-Pad2)*%
X70103025Y-108013363D03*
%TD*%
%TO.P,C1,1*%
%TO.N,-12V*%
X58037512Y-61811128D03*
%TO.P,C1,2*%
%TO.N,GND*%
X63037512Y-61811128D03*
%TD*%
D15*
%TO.P,RV2,1,1*%
%TO.N,Net-(J7-Pin_1)*%
X83960000Y-86065000D03*
D13*
%TO.P,RV2,2,2*%
%TO.N,GND*%
X86500000Y-86065000D03*
%TO.P,RV2,3,3*%
%TO.N,Net-(J7-Pin_3)*%
X89040000Y-86065000D03*
%TD*%
D11*
%TO.P,R6,1*%
%TO.N,Net-(U2A--)*%
X62247323Y-133004329D03*
%TO.P,R6,2*%
%TO.N,Net-(J6-Pin_1)*%
X52087323Y-133004329D03*
%TD*%
D10*
%TO.P,J9,1,Pin_1*%
%TO.N,Net-(J9-Pin_1)*%
X93399066Y-121506150D03*
%TD*%
D11*
%TO.P,R10,1*%
%TO.N,Net-(R10-Pad1)*%
X83420000Y-112553862D03*
%TO.P,R10,2*%
%TO.N,Net-(J9-Pin_1)*%
X93580000Y-112553862D03*
%TD*%
D10*
%TO.P,J4,1,Pin_1*%
%TO.N,Net-(J4-Pin_1)*%
X68500000Y-121527566D03*
%TD*%
D15*
%TO.P,J7,1,Pin_1*%
%TO.N,Net-(J7-Pin_1)*%
X81500000Y-70000000D03*
D13*
%TO.P,J7,2,Pin_2*%
%TO.N,GND*%
X86580000Y-70000000D03*
%TO.P,J7,3,Pin_3*%
%TO.N,Net-(J7-Pin_3)*%
X91580000Y-70000000D03*
%TD*%
D11*
%TO.P,R11,1*%
%TO.N,Net-(U2B-+)*%
X93660000Y-108000000D03*
%TO.P,R11,2*%
%TO.N,-12V*%
X83500000Y-108000000D03*
%TD*%
D12*
%TO.P,J2,1,Pin_1*%
%TO.N,12V*%
X81738158Y-57409480D03*
D13*
%TO.P,J2,2,Pin_2*%
%TO.N,-12V*%
X79198158Y-57409480D03*
%TO.P,J2,3,Pin_3*%
%TO.N,GND*%
X81738158Y-54869480D03*
%TO.P,J2,4,Pin_4*%
X79198158Y-54869480D03*
%TO.P,J2,5,Pin_5*%
%TO.N,5V*%
X81738158Y-52329480D03*
%TO.P,J2,6,Pin_6*%
%TO.N,unconnected-(J2-Pin_6-Pad6)*%
X79198158Y-52329480D03*
%TD*%
D11*
%TO.P,R2,1*%
%TO.N,12V*%
X80211822Y-95706162D03*
%TO.P,R2,2*%
%TO.N,Net-(U1C-DIODE_BIAS)*%
X70051822Y-95706162D03*
%TD*%
D10*
%TO.P,J5,1,Pin_1*%
%TO.N,Net-(J5-Pin_1)*%
X56090755Y-121519656D03*
%TD*%
D15*
%TO.P,J3,1,Pin_1*%
%TO.N,Net-(J3-Pin_1)*%
X58009532Y-70000000D03*
D13*
%TO.P,J3,2,Pin_2*%
%TO.N,GND*%
X63089532Y-70000000D03*
%TO.P,J3,3,Pin_3*%
%TO.N,Net-(J3-Pin_3)*%
X68089532Y-70000000D03*
%TD*%
D11*
%TO.P,R1,1*%
%TO.N,Net-(J3-Pin_1)*%
X52000000Y-103920000D03*
%TO.P,R1,2*%
%TO.N,Net-(J4-Pin_1)*%
X52000000Y-114080000D03*
%TD*%
D10*
%TO.P,J6,1,Pin_1*%
%TO.N,Net-(J6-Pin_1)*%
X68711444Y-140022181D03*
%TD*%
D15*
%TO.P,RV1,1,1*%
%TO.N,Net-(J3-Pin_1)*%
X60545000Y-86065000D03*
D13*
%TO.P,RV1,2,2*%
%TO.N,GND*%
X63085000Y-86065000D03*
%TO.P,RV1,3,3*%
%TO.N,Net-(J3-Pin_3)*%
X65625000Y-86065000D03*
%TD*%
D11*
%TO.P,R8,1*%
%TO.N,Net-(J7-Pin_1)*%
X70180138Y-112493625D03*
%TO.P,R8,2*%
%TO.N,Net-(J8-Pin_1)*%
X80340138Y-112493625D03*
%TD*%
%TO.P,R4,1*%
%TO.N,GND*%
X55500000Y-91340000D03*
%TO.P,R4,2*%
%TO.N,Net-(R4-Pad2)*%
X55500000Y-101500000D03*
%TD*%
D14*
%TO.P,U1,1*%
%TO.N,Net-(R3-Pad1)*%
X58887798Y-95784530D03*
D11*
%TO.P,U1,2,DIODE_BIAS*%
%TO.N,Net-(U1C-DIODE_BIAS)*%
X58887798Y-98324530D03*
%TO.P,U1,3,+*%
%TO.N,Net-(J3-Pin_1)*%
X58887798Y-100864530D03*
%TO.P,U1,4,-*%
%TO.N,Net-(J3-Pin_3)*%
X58887798Y-103404530D03*
%TO.P,U1,5*%
%TO.N,Net-(R4-Pad2)*%
X58887798Y-105944530D03*
%TO.P,U1,6,V-*%
%TO.N,-12V*%
X58887798Y-108484530D03*
%TO.P,U1,7*%
%TO.N,Net-(R4-Pad2)*%
X58887798Y-111024530D03*
%TO.P,U1,8*%
%TO.N,Net-(U2A-+)*%
X58887798Y-113564530D03*
%TO.P,U1,9*%
%TO.N,Net-(U2B-+)*%
X66507798Y-113564530D03*
%TO.P,U1,10*%
%TO.N,Net-(R9-Pad2)*%
X66507798Y-111024530D03*
%TO.P,U1,11,V+*%
%TO.N,12V*%
X66507798Y-108484530D03*
%TO.P,U1,12*%
%TO.N,Net-(R9-Pad2)*%
X66507798Y-105944530D03*
%TO.P,U1,13,-*%
%TO.N,Net-(J7-Pin_3)*%
X66507798Y-103404530D03*
%TO.P,U1,14,+*%
%TO.N,Net-(J7-Pin_1)*%
X66507798Y-100864530D03*
%TO.P,U1,15,DIODE_BIAS*%
%TO.N,Net-(U1A-DIODE_BIAS)*%
X66507798Y-98324530D03*
%TO.P,U1,16*%
%TO.N,Net-(R10-Pad1)*%
X66507798Y-95784530D03*
%TD*%
D16*
%TO.N,Net-(J3-Pin_3)*%
X68089532Y-70000000D02*
X65625000Y-72464532D01*
X65625000Y-72464532D02*
X65625000Y-86065000D01*
%TO.N,GND*%
X63089532Y-70000000D02*
X63089532Y-86060468D01*
X63089532Y-86060468D02*
X63085000Y-86065000D01*
%TO.N,Net-(J3-Pin_1)*%
X58009532Y-70000000D02*
X58009532Y-83529532D01*
X58009532Y-83529532D02*
X60545000Y-86065000D01*
%TO.N,GND*%
X63037512Y-61811128D02*
X63037512Y-69947980D01*
X63037512Y-69947980D02*
X63089532Y-70000000D01*
%TO.N,12V*%
X91515656Y-61804291D02*
X92731000Y-63019635D01*
X92731000Y-63019635D02*
X92731000Y-89999582D01*
X92731000Y-89999582D02*
X92330291Y-90400291D01*
%TO.N,GND*%
X86515656Y-61804291D02*
X86515656Y-69935656D01*
X86515656Y-69935656D02*
X86580000Y-70000000D01*
%TO.N,Net-(J7-Pin_1)*%
X81500000Y-70000000D02*
X81500000Y-83605000D01*
X81500000Y-83605000D02*
X83960000Y-86065000D01*
%TO.N,GND*%
X86580000Y-70000000D02*
X86580000Y-85985000D01*
X86580000Y-85985000D02*
X86500000Y-86065000D01*
%TO.N,Net-(J7-Pin_3)*%
X91580000Y-70000000D02*
X89040000Y-72540000D01*
X89040000Y-72540000D02*
X89040000Y-86065000D01*
%TO.N,-12V*%
X62439160Y-57409480D02*
X58037512Y-61811128D01*
X78047158Y-58560480D02*
X68962278Y-58560480D01*
X79198158Y-57409480D02*
X78047158Y-58560480D01*
X89000000Y-102310000D02*
X83500000Y-107810000D01*
X68962278Y-58560480D02*
X67811278Y-57409480D01*
X55500000Y-105096732D02*
X58887798Y-108484530D01*
X83500000Y-107810000D02*
X83500000Y-108000000D01*
X55500000Y-103920000D02*
X55500000Y-105096732D01*
X67811278Y-57409480D02*
X62439160Y-57409480D01*
%TO.N,GND*%
X67811278Y-54869480D02*
X70351278Y-54869480D01*
X63085000Y-86065000D02*
X57810000Y-91340000D01*
X86179291Y-85744291D02*
X86500000Y-86065000D01*
X79198158Y-54869480D02*
X81738158Y-54869480D01*
X70351278Y-54869480D02*
X79198158Y-54869480D01*
X57810000Y-91340000D02*
X55500000Y-91340000D01*
%TO.N,12V*%
X70351278Y-57409480D02*
X71502278Y-56258480D01*
X80211822Y-95706162D02*
X85517693Y-90400291D01*
X81738158Y-57409480D02*
X87120845Y-57409480D01*
X92330291Y-90400291D02*
X96620000Y-94690000D01*
X71502278Y-56258480D02*
X80587158Y-56258480D01*
X80587158Y-56258480D02*
X81738158Y-57409480D01*
X80211822Y-95706162D02*
X80211822Y-100000000D01*
X87120845Y-57409480D02*
X91515656Y-61804291D01*
X85517693Y-90400291D02*
X92330291Y-90400291D01*
%TO.N,5V*%
X80587158Y-51178480D02*
X81738158Y-52329480D01*
X70351278Y-52329480D02*
X71502278Y-51178480D01*
X71502278Y-51178480D02*
X80587158Y-51178480D01*
%TO.N,Net-(J3-Pin_1)*%
X53101000Y-102819000D02*
X56933328Y-102819000D01*
X52000000Y-103920000D02*
X53101000Y-102819000D01*
X56933328Y-102819000D02*
X58887798Y-100864530D01*
%TO.N,Net-(J4-Pin_1)*%
X62153434Y-115181000D02*
X53101000Y-115181000D01*
X53101000Y-115181000D02*
X52000000Y-114080000D01*
X68500000Y-121527566D02*
X62153434Y-115181000D01*
%TO.N,Net-(J5-Pin_1)*%
X50899000Y-102521000D02*
X52000000Y-101420000D01*
X56090755Y-121519656D02*
X50899000Y-116327901D01*
X50899000Y-116327901D02*
X50899000Y-102521000D01*
%TO.N,Net-(J6-Pin_1)*%
X68711444Y-140022181D02*
X59105175Y-140022181D01*
X59105175Y-140022181D02*
X52087323Y-133004329D01*
%TO.N,Net-(J7-Pin_1)*%
X71204025Y-105560757D02*
X66507798Y-100864530D01*
X70180138Y-112493625D02*
X71204025Y-111469738D01*
X71204025Y-111469738D02*
X71204025Y-105560757D01*
%TO.N,Net-(J8-Pin_1)*%
X80340138Y-120969910D02*
X80909369Y-121539141D01*
X80330942Y-112502821D02*
X80340138Y-112493625D01*
X80340138Y-112493625D02*
X80340138Y-120969910D01*
%TO.N,Net-(J9-Pin_1)*%
X93580000Y-120393376D02*
X92456848Y-121516528D01*
X93580000Y-112553862D02*
X93580000Y-121325216D01*
X93580000Y-121325216D02*
X93399066Y-121506150D01*
%TO.N,Net-(J10-Pin_1)*%
X87269118Y-133599059D02*
X87269118Y-132963937D01*
X80836603Y-140031574D02*
X87269118Y-133599059D01*
%TO.N,Net-(U1C-DIODE_BIAS)*%
X58887798Y-98324530D02*
X62712328Y-94500000D01*
X62712328Y-94500000D02*
X68845660Y-94500000D01*
X68845660Y-94500000D02*
X70051822Y-95706162D01*
%TO.N,Net-(R3-Pad1)*%
X58887798Y-95784530D02*
X56524530Y-95784530D01*
X56524530Y-95784530D02*
X52000000Y-91260000D01*
%TO.N,Net-(R4-Pad2)*%
X59988798Y-107045530D02*
X59988798Y-109923530D01*
X58887798Y-105944530D02*
X59988798Y-107045530D01*
X59988798Y-109923530D02*
X58887798Y-111024530D01*
%TO.N,Net-(U2A-+)*%
X58887798Y-113564530D02*
X56015470Y-113564530D01*
X56015470Y-113564530D02*
X55500000Y-114080000D01*
%TO.N,Net-(U1A-DIODE_BIAS)*%
X68183268Y-100000000D02*
X66507798Y-98324530D01*
X70051822Y-100000000D02*
X68183268Y-100000000D01*
%TO.N,Net-(R9-Pad2)*%
X66507798Y-111024530D02*
X69518965Y-108013363D01*
X69518965Y-108013363D02*
X70103025Y-108013363D01*
X65406798Y-107045530D02*
X66507798Y-105944530D01*
X65406798Y-109923530D02*
X65406798Y-107045530D01*
X66507798Y-111024530D02*
X65406798Y-109923530D01*
%TO.N,Net-(R10-Pad1)*%
X78767001Y-106912363D02*
X78767001Y-108767001D01*
X78767001Y-108767001D02*
X82553862Y-112553862D01*
X82553862Y-112553862D02*
X83420000Y-112553862D01*
X67639168Y-95784530D02*
X78767001Y-106912363D01*
X66507798Y-95784530D02*
X67639168Y-95784530D01*
%TO.N,Net-(U2A--)*%
X89000000Y-97230000D02*
X89000000Y-94690000D01*
X90101000Y-98331000D02*
X89000000Y-97230000D01*
X75526714Y-133004329D02*
X90101000Y-118430043D01*
X90101000Y-118430043D02*
X90101000Y-98331000D01*
X62247323Y-133004329D02*
X75526714Y-133004329D01*
%TO.N,Net-(U2B-+)*%
X93660000Y-105270000D02*
X96620000Y-102310000D01*
X93660000Y-108000000D02*
X93660000Y-105270000D01*
%TO.N,Net-(U2B--)*%
X96620000Y-99770000D02*
X96620000Y-97230000D01*
X98229117Y-132163938D02*
X98229117Y-101379117D01*
X98229117Y-101379117D02*
X96620000Y-99770000D01*
X97429118Y-132963937D02*
X98229117Y-132163938D01*
%TD*%
M02*
