%TF.GenerationSoftware,KiCad,Pcbnew,9.0.6*%
%TF.CreationDate,2026-01-05T02:57:40+11:00*%
%TF.ProjectId,voltage-controlled-amplifier,766f6c74-6167-4652-9d63-6f6e74726f6c,rev?*%
%TF.SameCoordinates,Original*%
%TF.FileFunction,Legend,Bot*%
%TF.FilePolarity,Positive*%
%FSLAX46Y46*%
G04 Gerber Fmt 4.6, Leading zero omitted, Abs format (unit mm)*
G04 Created by KiCad (PCBNEW 9.0.6) date 2026-01-05 02:57:40*
%MOMM*%
%LPD*%
G01*
G04 APERTURE LIST*
%ADD10C,0.100000*%
G04 APERTURE END LIST*
D10*
X94274438Y-142375346D02*
X94607771Y-142375346D01*
X94607771Y-142899156D02*
X94607771Y-141899156D01*
X94607771Y-141899156D02*
X94131581Y-141899156D01*
X93845866Y-141899156D02*
X93226819Y-141899156D01*
X93226819Y-141899156D02*
X93560152Y-142280108D01*
X93560152Y-142280108D02*
X93417295Y-142280108D01*
X93417295Y-142280108D02*
X93322057Y-142327727D01*
X93322057Y-142327727D02*
X93274438Y-142375346D01*
X93274438Y-142375346D02*
X93226819Y-142470584D01*
X93226819Y-142470584D02*
X93226819Y-142708679D01*
X93226819Y-142708679D02*
X93274438Y-142803917D01*
X93274438Y-142803917D02*
X93322057Y-142851537D01*
X93322057Y-142851537D02*
X93417295Y-142899156D01*
X93417295Y-142899156D02*
X93703009Y-142899156D01*
X93703009Y-142899156D02*
X93798247Y-142851537D01*
X93798247Y-142851537D02*
X93845866Y-142803917D01*
X56899168Y-142367773D02*
X57232501Y-142367773D01*
X57232501Y-142891583D02*
X57232501Y-141891583D01*
X57232501Y-141891583D02*
X56756311Y-141891583D01*
X55946787Y-142224916D02*
X55946787Y-142891583D01*
X56184882Y-141843964D02*
X56422977Y-142558249D01*
X56422977Y-142558249D02*
X55803930Y-142558249D01*
X56907372Y-47507859D02*
X57240705Y-47507859D01*
X57240705Y-48031669D02*
X57240705Y-47031669D01*
X57240705Y-47031669D02*
X56764515Y-47031669D01*
X56431181Y-47126907D02*
X56383562Y-47079288D01*
X56383562Y-47079288D02*
X56288324Y-47031669D01*
X56288324Y-47031669D02*
X56050229Y-47031669D01*
X56050229Y-47031669D02*
X55954991Y-47079288D01*
X55954991Y-47079288D02*
X55907372Y-47126907D01*
X55907372Y-47126907D02*
X55859753Y-47222145D01*
X55859753Y-47222145D02*
X55859753Y-47317383D01*
X55859753Y-47317383D02*
X55907372Y-47460240D01*
X55907372Y-47460240D02*
X56478800Y-48031669D01*
X56478800Y-48031669D02*
X55859753Y-48031669D01*
X94259082Y-47507438D02*
X94592415Y-47507438D01*
X94592415Y-48031248D02*
X94592415Y-47031248D01*
X94592415Y-47031248D02*
X94116225Y-47031248D01*
X93211463Y-48031248D02*
X93782891Y-48031248D01*
X93497177Y-48031248D02*
X93497177Y-47031248D01*
X93497177Y-47031248D02*
X93592415Y-47174105D01*
X93592415Y-47174105D02*
X93687653Y-47269343D01*
X93687653Y-47269343D02*
X93782891Y-47316962D01*
%TO.C,F3*%
X100441105Y-136441737D02*
X87441105Y-136441737D01*
X87441105Y-149941737D01*
X100441105Y-149941737D01*
X100441105Y-136441737D01*
%TO.C,F4*%
X63065835Y-136434164D02*
X50065835Y-136434164D01*
X50065835Y-149934164D01*
X63065835Y-149934164D01*
X63065835Y-136434164D01*
%TO.C,F2*%
X63074039Y-41574250D02*
X50074039Y-41574250D01*
X50074039Y-55074250D01*
X63074039Y-55074250D01*
X63074039Y-41574250D01*
%TO.C,F1*%
X100425749Y-41573829D02*
X87425749Y-41573829D01*
X87425749Y-55073829D01*
X100425749Y-55073829D01*
X100425749Y-41573829D01*
%TD*%
M02*
