%TF.GenerationSoftware,KiCad,Pcbnew,10.0.3*%
%TF.CreationDate,2026-07-04T10:01:59+10:00*%
%TF.ProjectId,cv-mixer,63762d6d-6978-4657-922e-6b696361645f,rev?*%
%TF.SameCoordinates,Original*%
%TF.FileFunction,Copper,L2,Bot*%
%TF.FilePolarity,Positive*%
%FSLAX46Y46*%
G04 Gerber Fmt 4.6, Leading zero omitted, Abs format (unit mm)*
G04 Created by KiCad (PCBNEW 10.0.3) date 2026-07-04 10:01:59*
%MOMM*%
%LPD*%
G01*
G04 APERTURE LIST*
%TA.AperFunction,ComponentPad*%
%ADD10C,8.000000*%
%TD*%
%TA.AperFunction,ComponentPad*%
%ADD11R,1.700000X1.700000*%
%TD*%
%TA.AperFunction,ComponentPad*%
%ADD12C,1.700000*%
%TD*%
%TA.AperFunction,Conductor*%
%ADD13C,0.200000*%
%TD*%
G04 APERTURE END LIST*
D10*
%TO.P,J13,1,Pin_1*%
%TO.N,Net-(J12-Pin_1)*%
X22564377Y-159235238D03*
%TD*%
%TO.P,J28,1,Pin_1*%
%TO.N,Net-(J12-Pin_11)*%
X77469187Y-50750000D03*
%TD*%
%TO.P,J15,1,Pin_1*%
%TO.N,Net-(J12-Pin_2)*%
X22551191Y-50750000D03*
%TD*%
%TO.P,J27,1,Pin_1*%
%TO.N,Net-(J12-Pin_10)*%
X77500000Y-71500000D03*
%TD*%
%TO.P,J20,1,Pin_1*%
%TO.N,Net-(J12-Pin_3)*%
X22551191Y-71427877D03*
%TD*%
%TO.P,J23,1,Pin_1*%
%TO.N,Net-(J12-Pin_6)*%
X22551191Y-133461509D03*
%TD*%
%TO.P,J21,1,Pin_1*%
%TO.N,Net-(J12-Pin_4)*%
X22551191Y-92105755D03*
%TD*%
%TO.P,J22,1,Pin_1*%
%TO.N,Net-(J12-Pin_5)*%
X22551191Y-112783632D03*
%TD*%
D11*
%TO.P,J12,1,Pin_1*%
%TO.N,Net-(J12-Pin_1)*%
X36060000Y-170000000D03*
D12*
%TO.P,J12,2,Pin_2*%
%TO.N,Net-(J12-Pin_2)*%
X38600000Y-170000000D03*
%TO.P,J12,3,Pin_3*%
%TO.N,Net-(J12-Pin_3)*%
X41140000Y-170000000D03*
%TO.P,J12,4,Pin_4*%
%TO.N,Net-(J12-Pin_4)*%
X43680000Y-170000000D03*
%TO.P,J12,5,Pin_5*%
%TO.N,Net-(J12-Pin_5)*%
X46220000Y-170000000D03*
%TO.P,J12,6,Pin_6*%
%TO.N,Net-(J12-Pin_6)*%
X48760000Y-170000000D03*
%TO.P,J12,7,Pin_7*%
%TO.N,Net-(J12-Pin_7)*%
X51300000Y-170000000D03*
%TO.P,J12,8,Pin_8*%
%TO.N,Net-(J12-Pin_8)*%
X53840000Y-170000000D03*
%TO.P,J12,9,Pin_9*%
%TO.N,Net-(J12-Pin_9)*%
X56380000Y-170000000D03*
%TO.P,J12,10,Pin_10*%
%TO.N,Net-(J12-Pin_10)*%
X58920000Y-170000000D03*
%TO.P,J12,11,Pin_11*%
%TO.N,Net-(J12-Pin_11)*%
X61460000Y-170000000D03*
%TO.P,J12,12,Pin_12*%
%TO.N,Net-(J12-Pin_12)*%
X64000000Y-170000000D03*
%TD*%
D10*
%TO.P,J24,1,Pin_1*%
%TO.N,Net-(J12-Pin_7)*%
X77500000Y-133524938D03*
%TD*%
%TO.P,J25,1,Pin_1*%
%TO.N,Net-(J12-Pin_8)*%
X77500000Y-112783632D03*
%TD*%
%TO.P,J29,1,Pin_1*%
%TO.N,Net-(J12-Pin_12)*%
X77500433Y-159247259D03*
%TD*%
%TO.P,J26,1,Pin_1*%
%TO.N,Net-(J12-Pin_9)*%
X77500000Y-92105755D03*
%TD*%
%TO.N,Net-(J12-Pin_8)*%
D13*
X60251541Y-163588459D02*
X62224441Y-163588459D01*
%TO.N,Net-(J12-Pin_4)*%
X15403000Y-99253946D02*
X22551191Y-92105755D01*
%TO.N,Net-(J12-Pin_11)*%
X61460000Y-170000000D02*
X61460000Y-168797919D01*
X85899000Y-59179813D02*
X77469187Y-50750000D01*
%TO.N,Net-(J12-Pin_4)*%
X43680000Y-170000000D02*
X15403000Y-141723000D01*
%TO.N,Net-(J12-Pin_11)*%
X85899000Y-144358919D02*
X85899000Y-59179813D01*
%TO.N,Net-(J12-Pin_4)*%
X15403000Y-141723000D02*
X15403000Y-99253946D01*
%TO.N,Net-(J12-Pin_3)*%
X15002000Y-143862000D02*
X15002000Y-78977068D01*
%TO.N,Net-(J12-Pin_8)*%
X62224441Y-163588459D02*
X84696000Y-141116900D01*
X84696000Y-119979632D02*
X77500000Y-112783632D01*
%TO.N,Net-(J12-Pin_3)*%
X41140000Y-170000000D02*
X15002000Y-143862000D01*
X15002000Y-78977068D02*
X22551191Y-71427877D01*
%TO.N,Net-(J12-Pin_6)*%
X22551191Y-147448809D02*
X22551191Y-133461509D01*
X42359000Y-163599000D02*
X38666100Y-163599000D01*
X38666100Y-163599000D02*
X22533550Y-147466450D01*
X22533550Y-147466450D02*
X22551191Y-147448809D01*
X48760000Y-170000000D02*
X42359000Y-163599000D01*
%TO.N,Net-(J12-Pin_11)*%
X61460000Y-168797919D02*
X85899000Y-144358919D01*
%TO.N,Net-(J12-Pin_2)*%
X38600000Y-170000000D02*
X38600000Y-168600000D01*
X14601000Y-58700191D02*
X22551191Y-50750000D01*
%TO.N,Net-(J12-Pin_7)*%
X58112541Y-163187459D02*
X51300000Y-170000000D01*
%TO.N,Net-(J12-Pin_2)*%
X14601000Y-144601000D02*
X14601000Y-58700191D01*
%TO.N,Net-(J12-Pin_7)*%
X77500000Y-133524938D02*
X77500000Y-147745800D01*
X62058341Y-163187459D02*
X58112541Y-163187459D01*
%TO.N,Net-(J12-Pin_12)*%
X64000000Y-170000000D02*
X74752741Y-159247259D01*
X74752741Y-159247259D02*
X77500433Y-159247259D01*
%TO.N,Net-(J12-Pin_8)*%
X84696000Y-141116900D02*
X84696000Y-119979632D01*
%TO.N,Net-(J12-Pin_2)*%
X38600000Y-168600000D02*
X14601000Y-144601000D01*
%TO.N,Net-(J12-Pin_8)*%
X53840000Y-170000000D02*
X60251541Y-163588459D01*
%TO.N,Net-(J12-Pin_1)*%
X36060000Y-170000000D02*
X33329139Y-170000000D01*
X33329139Y-170000000D02*
X22564377Y-159235238D01*
%TO.N,Net-(J12-Pin_10)*%
X85498000Y-79498000D02*
X77500000Y-71500000D01*
X85498000Y-143422000D02*
X85498000Y-79498000D01*
X58920000Y-170000000D02*
X85498000Y-143422000D01*
%TO.N,Net-(J12-Pin_5)*%
X46220000Y-170000000D02*
X40220000Y-164000000D01*
X38247100Y-164000000D02*
X15804000Y-141556900D01*
X15804000Y-141556900D02*
X15804000Y-119530823D01*
X40220000Y-164000000D02*
X38247100Y-164000000D01*
X15804000Y-119530823D02*
X22551191Y-112783632D01*
%TO.N,Net-(J12-Pin_9)*%
X85097000Y-141283000D02*
X85097000Y-99702755D01*
X56380000Y-170000000D02*
X85097000Y-141283000D01*
X85097000Y-99702755D02*
X77500000Y-92105755D01*
%TO.N,Net-(J12-Pin_7)*%
X77500000Y-147745800D02*
X62058341Y-163187459D01*
%TD*%
M02*
