%TF.GenerationSoftware,KiCad,Pcbnew,9.0.7*%
%TF.CreationDate,2026-03-23T00:03:13+11:00*%
%TF.ProjectId,pattern-sequencer,70617474-6572-46e2-9d73-657175656e63,rev?*%
%TF.SameCoordinates,Original*%
%TF.FileFunction,Legend,Bot*%
%TF.FilePolarity,Positive*%
%FSLAX46Y46*%
G04 Gerber Fmt 4.6, Leading zero omitted, Abs format (unit mm)*
G04 Created by KiCad (PCBNEW 9.0.7) date 2026-03-23 00:03:13*
%MOMM*%
%LPD*%
G01*
G04 APERTURE LIST*
%ADD10C,0.100000*%
G04 APERTURE END LIST*
D10*
X135533333Y-167533609D02*
X135866666Y-167533609D01*
X135866666Y-168057419D02*
X135866666Y-167057419D01*
X135866666Y-167057419D02*
X135390476Y-167057419D01*
X134485714Y-168057419D02*
X135057142Y-168057419D01*
X134771428Y-168057419D02*
X134771428Y-167057419D01*
X134771428Y-167057419D02*
X134866666Y-167200276D01*
X134866666Y-167200276D02*
X134961904Y-167295514D01*
X134961904Y-167295514D02*
X135057142Y-167343133D01*
X72933333Y-167533609D02*
X73266666Y-167533609D01*
X73266666Y-168057419D02*
X73266666Y-167057419D01*
X73266666Y-167057419D02*
X72790476Y-167057419D01*
X71980952Y-167390752D02*
X71980952Y-168057419D01*
X72219047Y-167009800D02*
X72457142Y-167724085D01*
X72457142Y-167724085D02*
X71838095Y-167724085D01*
X135333333Y-32033609D02*
X135666666Y-32033609D01*
X135666666Y-32557419D02*
X135666666Y-31557419D01*
X135666666Y-31557419D02*
X135190476Y-31557419D01*
X134857142Y-31652657D02*
X134809523Y-31605038D01*
X134809523Y-31605038D02*
X134714285Y-31557419D01*
X134714285Y-31557419D02*
X134476190Y-31557419D01*
X134476190Y-31557419D02*
X134380952Y-31605038D01*
X134380952Y-31605038D02*
X134333333Y-31652657D01*
X134333333Y-31652657D02*
X134285714Y-31747895D01*
X134285714Y-31747895D02*
X134285714Y-31843133D01*
X134285714Y-31843133D02*
X134333333Y-31985990D01*
X134333333Y-31985990D02*
X134904761Y-32557419D01*
X134904761Y-32557419D02*
X134285714Y-32557419D01*
X72833333Y-31233609D02*
X73166666Y-31233609D01*
X73166666Y-31757419D02*
X73166666Y-30757419D01*
X73166666Y-30757419D02*
X72690476Y-30757419D01*
X72404761Y-30757419D02*
X71785714Y-30757419D01*
X71785714Y-30757419D02*
X72119047Y-31138371D01*
X72119047Y-31138371D02*
X71976190Y-31138371D01*
X71976190Y-31138371D02*
X71880952Y-31185990D01*
X71880952Y-31185990D02*
X71833333Y-31233609D01*
X71833333Y-31233609D02*
X71785714Y-31328847D01*
X71785714Y-31328847D02*
X71785714Y-31566942D01*
X71785714Y-31566942D02*
X71833333Y-31662180D01*
X71833333Y-31662180D02*
X71880952Y-31709800D01*
X71880952Y-31709800D02*
X71976190Y-31757419D01*
X71976190Y-31757419D02*
X72261904Y-31757419D01*
X72261904Y-31757419D02*
X72357142Y-31709800D01*
X72357142Y-31709800D02*
X72404761Y-31662180D01*
%TO.C,F1*%
X141700000Y-161600000D02*
X128700000Y-161600000D01*
X128700000Y-175100000D01*
X141700000Y-175100000D01*
X141700000Y-161600000D01*
%TO.C,F4*%
X79100000Y-161600000D02*
X66100000Y-161600000D01*
X66100000Y-175100000D01*
X79100000Y-175100000D01*
X79100000Y-161600000D01*
%TO.C,F2*%
X141500000Y-26100000D02*
X128500000Y-26100000D01*
X128500000Y-39600000D01*
X141500000Y-39600000D01*
X141500000Y-26100000D01*
%TO.C,F3*%
X79000000Y-25300000D02*
X66000000Y-25300000D01*
X66000000Y-38800000D01*
X79000000Y-38800000D01*
X79000000Y-25300000D01*
%TD*%
M02*
