M48
; DRILL file {KiCad 9.0.6} date 2026-01-21T23:10:32+1100
; FORMAT={-:-/ absolute / metric / decimal}
; #@! TF.CreationDate,2026-01-21T23:10:32+11:00
; #@! TF.GenerationSoftware,Kicad,Pcbnew,9.0.6
; #@! TF.FileFunction,NonPlated,1,2,NPTH
FMAT,2
METRIC
; #@! TA.AperFunction,NonPlated,NPTH,ComponentDrill
T1C1.700
; #@! TA.AperFunction,NonPlated,NPTH,ComponentDrill
T2C2.200
; #@! TA.AperFunction,NonPlated,NPTH,ComponentDrill
T3C4.000
%
G90
G05
T1
X67.48Y-75.9
X67.98Y-145.18
X77.64Y-75.9
X78.14Y-145.18
X90.03Y-145.24
X100.19Y-145.24
X112.24Y-145.24
X122.4Y-145.24
X134.53Y-145.28
X144.69Y-145.28
T2
X64.5Y-109.5
X81.55Y-109.5
X86.24Y-61.312
X86.7Y-109.5
X103.29Y-61.312
X103.75Y-109.5
X108.6Y-61.3
X108.9Y-109.5
X125.65Y-61.3
X125.95Y-109.5
X131.1Y-109.5
X148.15Y-109.5
T3
X72.56Y-75.9
X73.06Y-145.18
X95.11Y-145.24
X117.32Y-145.24
X139.61Y-145.28
M30
