%TF.GenerationSoftware,KiCad,Pcbnew,9.0.6*%
%TF.CreationDate,2026-01-21T03:12:50+11:00*%
%TF.ProjectId,pattern-sequencer,70617474-6572-46e2-9d73-657175656e63,rev?*%
%TF.SameCoordinates,Original*%
%TF.FileFunction,Copper,L1,Top*%
%TF.FilePolarity,Positive*%
%FSLAX46Y46*%
G04 Gerber Fmt 4.6, Leading zero omitted, Abs format (unit mm)*
G04 Created by KiCad (PCBNEW 9.0.6) date 2026-01-21 03:12:50*
%MOMM*%
%LPD*%
G01*
G04 APERTURE LIST*
G04 Aperture macros list*
%AMRoundRect*
0 Rectangle with rounded corners*
0 $1 Rounding radius*
0 $2 $3 $4 $5 $6 $7 $8 $9 X,Y pos of 4 corners*
0 Add a 4 corners polygon primitive as box body*
4,1,4,$2,$3,$4,$5,$6,$7,$8,$9,$2,$3,0*
0 Add four circle primitives for the rounded corners*
1,1,$1+$1,$2,$3*
1,1,$1+$1,$4,$5*
1,1,$1+$1,$6,$7*
1,1,$1+$1,$8,$9*
0 Add four rect primitives between the rounded corners*
20,1,$1+$1,$2,$3,$4,$5,0*
20,1,$1+$1,$4,$5,$6,$7,0*
20,1,$1+$1,$6,$7,$8,$9,0*
20,1,$1+$1,$8,$9,$2,$3,0*%
G04 Aperture macros list end*
%TA.AperFunction,ComponentPad*%
%ADD10C,2.200000*%
%TD*%
%TA.AperFunction,ComponentPad*%
%ADD11R,1.800000X1.800000*%
%TD*%
%TA.AperFunction,ComponentPad*%
%ADD12C,1.800000*%
%TD*%
%TA.AperFunction,ComponentPad*%
%ADD13C,1.600000*%
%TD*%
%TA.AperFunction,ComponentPad*%
%ADD14RoundRect,0.250000X0.600000X-0.600000X0.600000X0.600000X-0.600000X0.600000X-0.600000X-0.600000X0*%
%TD*%
%TA.AperFunction,ComponentPad*%
%ADD15C,1.700000*%
%TD*%
%TA.AperFunction,ComponentPad*%
%ADD16R,2.000000X2.000000*%
%TD*%
%TA.AperFunction,ComponentPad*%
%ADD17C,2.000000*%
%TD*%
%TA.AperFunction,ComponentPad*%
%ADD18R,1.700000X1.700000*%
%TD*%
%TA.AperFunction,ComponentPad*%
%ADD19C,8.000000*%
%TD*%
%TA.AperFunction,ComponentPad*%
%ADD20R,1.600000X1.600000*%
%TD*%
%TA.AperFunction,ComponentPad*%
%ADD21O,1.600000X1.600000*%
%TD*%
%TA.AperFunction,ComponentPad*%
%ADD22O,3.750000X2.000000*%
%TD*%
%TA.AperFunction,Conductor*%
%ADD23C,0.200000*%
%TD*%
G04 APERTURE END LIST*
D10*
%TO.P,SW2,1,1*%
%TO.N,GND*%
X97650000Y-140160000D03*
%TO.P,SW2,2,2*%
%TO.N,Net-(A1-D6)*%
X91300000Y-142700000D03*
%TD*%
D11*
%TO.P,D8,1,K*%
%TO.N,GND*%
X82200000Y-40925000D03*
D12*
%TO.P,D8,2,A*%
%TO.N,Net-(D8-A)*%
X82200000Y-43465000D03*
%TD*%
D13*
%TO.P,R7,1*%
%TO.N,Net-(D4-A)*%
X130100000Y-105680000D03*
%TO.P,R7,2*%
%TO.N,Net-(A1-D9)*%
X130100000Y-95520000D03*
%TD*%
%TO.P,R6,1*%
%TO.N,Net-(J8-Pin_1)*%
X126900000Y-105680000D03*
%TO.P,R6,2*%
%TO.N,Net-(A1-D10)*%
X126900000Y-95520000D03*
%TD*%
%TO.P,C5,1*%
%TO.N,Net-(A1-D8)*%
X128500000Y-136700000D03*
%TO.P,C5,2*%
%TO.N,GND*%
X128500000Y-141700000D03*
%TD*%
D14*
%TO.P,J1,1,Pin_1*%
%TO.N,12V*%
X84520000Y-28200000D03*
D15*
%TO.P,J1,2,Pin_2*%
%TO.N,-12V*%
X84520000Y-25660000D03*
%TO.P,J1,3,Pin_3*%
%TO.N,GND*%
X87060000Y-28200000D03*
%TO.P,J1,4,Pin_4*%
X87060000Y-25660000D03*
%TO.P,J1,5,Pin_5*%
%TO.N,5V*%
X89600000Y-28200000D03*
%TO.P,J1,6,Pin_6*%
%TO.N,unconnected-(J1-Pin_6-Pad6)*%
X89600000Y-25660000D03*
%TD*%
D16*
%TO.P,J14,1,Pin_1*%
%TO.N,GND*%
X134520000Y-113400000D03*
D17*
%TO.P,J14,2,Pin_2*%
%TO.N,Net-(A1-A5)*%
X139600000Y-113400000D03*
%TO.P,J14,3,Pin_3*%
%TO.N,5V*%
X144600000Y-113400000D03*
%TD*%
D13*
%TO.P,C6,1*%
%TO.N,Net-(A1-D13)*%
X64700000Y-45900000D03*
%TO.P,C6,2*%
%TO.N,GND*%
X64700000Y-40900000D03*
%TD*%
%TO.P,R11,1*%
%TO.N,Net-(D6-A)*%
X70920000Y-46985000D03*
%TO.P,R11,2*%
%TO.N,Net-(A1-D0{slash}RX)*%
X81080000Y-46985000D03*
%TD*%
%TO.P,R3,1*%
%TO.N,Net-(D2-A)*%
X85700000Y-105700000D03*
%TO.P,R3,2*%
%TO.N,Net-(A1-D11)*%
X85700000Y-95540000D03*
%TD*%
D10*
%TO.P,SW1,1,1*%
%TO.N,GND*%
X75600000Y-140100000D03*
%TO.P,SW1,2,2*%
%TO.N,Net-(A1-D5)*%
X69250000Y-142640000D03*
%TD*%
D11*
%TO.P,D6,1,K*%
%TO.N,GND*%
X69200000Y-40925000D03*
D12*
%TO.P,D6,2,A*%
%TO.N,Net-(D6-A)*%
X69200000Y-43465000D03*
%TD*%
D13*
%TO.P,R14,1*%
%TO.N,Net-(D9-A)*%
X83320000Y-50085000D03*
%TO.P,R14,2*%
%TO.N,Net-(A1-D3)*%
X93480000Y-50085000D03*
%TD*%
%TO.P,C2,1*%
%TO.N,Net-(A1-D5)*%
X84100000Y-141700000D03*
%TO.P,C2,2*%
%TO.N,GND*%
X84100000Y-136700000D03*
%TD*%
%TO.P,R8,1*%
%TO.N,Net-(J9-Pin_1)*%
X149100000Y-105700000D03*
%TO.P,R8,2*%
%TO.N,Net-(A1-D9)*%
X149100000Y-95540000D03*
%TD*%
D11*
%TO.P,D4,1,K*%
%TO.N,GND*%
X140875000Y-158200000D03*
D12*
%TO.P,D4,2,A*%
%TO.N,Net-(D4-A)*%
X138335000Y-158200000D03*
%TD*%
D13*
%TO.P,R5,1*%
%TO.N,Net-(D3-A)*%
X107900000Y-105700000D03*
%TO.P,R5,2*%
%TO.N,Net-(A1-D10)*%
X107900000Y-95540000D03*
%TD*%
D14*
%TO.P,J3,1,Pin_1*%
%TO.N,12V*%
X122800000Y-28300000D03*
D15*
%TO.P,J3,2,Pin_2*%
%TO.N,-12V*%
X122800000Y-25760000D03*
%TO.P,J3,3,Pin_3*%
%TO.N,GND*%
X125340000Y-28300000D03*
%TO.P,J3,4,Pin_4*%
X125340000Y-25760000D03*
%TO.P,J3,5,Pin_5*%
%TO.N,5V*%
X127880000Y-28300000D03*
%TO.P,J3,6,Pin_6*%
%TO.N,unconnected-(J3-Pin_6-Pad6)*%
X127880000Y-25760000D03*
%TD*%
D10*
%TO.P,SW3,1,1*%
%TO.N,GND*%
X119860000Y-140160000D03*
%TO.P,SW3,2,2*%
%TO.N,Net-(A1-D7)*%
X113510000Y-142700000D03*
%TD*%
D13*
%TO.P,R10,1*%
%TO.N,Net-(A1-A7)*%
X149100000Y-65220000D03*
%TO.P,R10,2*%
%TO.N,Net-(J4-Pin_1)*%
X149100000Y-75380000D03*
%TD*%
D16*
%TO.P,J10,1,Pin_1*%
%TO.N,GND*%
X89660000Y-64900000D03*
D17*
%TO.P,J10,2,Pin_2*%
%TO.N,Net-(A1-A1)*%
X94740000Y-64900000D03*
%TO.P,J10,3,Pin_3*%
%TO.N,5V*%
X99740000Y-64900000D03*
%TD*%
D13*
%TO.P,C3,1*%
%TO.N,Net-(A1-D6)*%
X84100000Y-149000000D03*
%TO.P,C3,2*%
%TO.N,GND*%
X84100000Y-144000000D03*
%TD*%
D11*
%TO.P,D5,1,K*%
%TO.N,GND*%
X141300000Y-60680000D03*
D12*
%TO.P,D5,2,A*%
%TO.N,Net-(D5-A)*%
X138760000Y-60680000D03*
%TD*%
D16*
%TO.P,J5,1,Pin_1*%
%TO.N,GND*%
X112020000Y-64900000D03*
D17*
%TO.P,J5,2,Pin_2*%
%TO.N,Net-(A1-A0)*%
X117100000Y-64900000D03*
%TO.P,J5,3,Pin_3*%
%TO.N,5V*%
X122100000Y-64900000D03*
%TD*%
D18*
%TO.P,RV2,1,1*%
%TO.N,GND*%
X92200000Y-80812500D03*
D15*
%TO.P,RV2,2,2*%
%TO.N,Net-(A1-A1)*%
X94740000Y-80812500D03*
%TO.P,RV2,3,3*%
%TO.N,5V*%
X97280000Y-80812500D03*
%TD*%
D11*
%TO.P,D3,1,K*%
%TO.N,GND*%
X118575000Y-158200000D03*
D12*
%TO.P,D3,2,A*%
%TO.N,Net-(D3-A)*%
X116035000Y-158200000D03*
%TD*%
D11*
%TO.P,D10,1,K*%
%TO.N,GND*%
X95200000Y-40925000D03*
D12*
%TO.P,D10,2,A*%
%TO.N,Net-(D10-A)*%
X95200000Y-43465000D03*
%TD*%
D10*
%TO.P,SW5,1,1*%
%TO.N,GND*%
X75100000Y-70820000D03*
%TO.P,SW5,2,2*%
%TO.N,Net-(A1-D13)*%
X68750000Y-73360000D03*
%TD*%
D13*
%TO.P,R13,1*%
%TO.N,Net-(D8-A)*%
X83320000Y-46985000D03*
%TO.P,R13,2*%
%TO.N,Net-(A1-D2)*%
X93480000Y-46985000D03*
%TD*%
%TO.P,R4,1*%
%TO.N,Net-(J7-Pin_1)*%
X104700000Y-105700000D03*
%TO.P,R4,2*%
%TO.N,Net-(A1-D11)*%
X104700000Y-95540000D03*
%TD*%
D19*
%TO.P,J8,1,Pin_1*%
%TO.N,Net-(J8-Pin_1)*%
X117200000Y-100700000D03*
%TD*%
D18*
%TO.P,RV4,1,1*%
%TO.N,GND*%
X92660000Y-129000000D03*
D15*
%TO.P,RV4,2,2*%
%TO.N,Net-(A1-A3)*%
X95200000Y-129000000D03*
%TO.P,RV4,3,3*%
%TO.N,5V*%
X97740000Y-129000000D03*
%TD*%
D19*
%TO.P,J6,1,Pin_1*%
%TO.N,Net-(J6-Pin_1)*%
X73100000Y-100700000D03*
%TD*%
D11*
%TO.P,D2,1,K*%
%TO.N,GND*%
X96550000Y-158200000D03*
D12*
%TO.P,D2,2,A*%
%TO.N,Net-(D2-A)*%
X94010000Y-158200000D03*
%TD*%
D13*
%TO.P,R12,1*%
%TO.N,Net-(D7-A)*%
X70920000Y-50085000D03*
%TO.P,R12,2*%
%TO.N,Net-(A1-D1{slash}TX)*%
X81080000Y-50085000D03*
%TD*%
%TO.P,R2,1*%
%TO.N,Net-(J6-Pin_1)*%
X82500000Y-105700000D03*
%TO.P,R2,2*%
%TO.N,Net-(A1-D12)*%
X82500000Y-95540000D03*
%TD*%
%TO.P,R15,1*%
%TO.N,Net-(D10-A)*%
X100100000Y-50185000D03*
%TO.P,R15,2*%
%TO.N,Net-(A1-D4)*%
X100100000Y-40025000D03*
%TD*%
D10*
%TO.P,SW4,1,1*%
%TO.N,GND*%
X142150000Y-140200000D03*
%TO.P,SW4,2,2*%
%TO.N,Net-(A1-D8)*%
X135800000Y-142740000D03*
%TD*%
D18*
%TO.P,RV5,1,1*%
%TO.N,GND*%
X114860000Y-129000000D03*
D15*
%TO.P,RV5,2,2*%
%TO.N,Net-(A1-A4)*%
X117400000Y-129000000D03*
%TO.P,RV5,3,3*%
%TO.N,5V*%
X119940000Y-129000000D03*
%TD*%
D13*
%TO.P,C7,1*%
%TO.N,GND*%
X103720000Y-35800000D03*
%TO.P,C7,2*%
%TO.N,5V*%
X108720000Y-35800000D03*
%TD*%
D11*
%TO.P,D1,1,K*%
%TO.N,GND*%
X74375000Y-158200000D03*
D12*
%TO.P,D1,2,A*%
%TO.N,Net-(D1-A)*%
X71835000Y-158200000D03*
%TD*%
D13*
%TO.P,R1,1*%
%TO.N,Net-(D1-A)*%
X63500000Y-105680000D03*
%TO.P,R1,2*%
%TO.N,Net-(A1-D12)*%
X63500000Y-95520000D03*
%TD*%
%TO.P,R9,1*%
%TO.N,Net-(D5-A)*%
X131400000Y-75280000D03*
%TO.P,R9,2*%
%TO.N,Net-(A1-A7)*%
X131400000Y-65120000D03*
%TD*%
%TO.P,C1,1*%
%TO.N,GND*%
X136520000Y-35800000D03*
%TO.P,C1,2*%
%TO.N,Net-(A1-AREF)*%
X131520000Y-35800000D03*
%TD*%
D16*
%TO.P,J11,1,Pin_1*%
%TO.N,GND*%
X67870000Y-113112500D03*
D17*
%TO.P,J11,2,Pin_2*%
%TO.N,Net-(A1-A2)*%
X72950000Y-113112500D03*
%TO.P,J11,3,Pin_3*%
%TO.N,5V*%
X77950000Y-113112500D03*
%TD*%
D20*
%TO.P,A1,1,D1/TX*%
%TO.N,Net-(A1-D1{slash}TX)*%
X107860000Y-55740000D03*
D21*
%TO.P,A1,2,D0/RX*%
%TO.N,Net-(A1-D0{slash}RX)*%
X110400000Y-55740000D03*
%TO.P,A1,3,~{RESET}*%
%TO.N,unconnected-(A1-~{RESET}-Pad3)*%
X112940000Y-55740000D03*
%TO.P,A1,4,GND*%
%TO.N,GND*%
X115480000Y-55740000D03*
%TO.P,A1,5,D2*%
%TO.N,Net-(A1-D2)*%
X118020000Y-55740000D03*
%TO.P,A1,6,D3*%
%TO.N,Net-(A1-D3)*%
X120560000Y-55740000D03*
%TO.P,A1,7,D4*%
%TO.N,Net-(A1-D4)*%
X123100000Y-55740000D03*
%TO.P,A1,8,D5*%
%TO.N,Net-(A1-D5)*%
X125640000Y-55740000D03*
%TO.P,A1,9,D6*%
%TO.N,Net-(A1-D6)*%
X128180000Y-55740000D03*
%TO.P,A1,10,D7*%
%TO.N,Net-(A1-D7)*%
X130720000Y-55740000D03*
%TO.P,A1,11,D8*%
%TO.N,Net-(A1-D8)*%
X133260000Y-55740000D03*
%TO.P,A1,12,D9*%
%TO.N,Net-(A1-D9)*%
X135800000Y-55740000D03*
%TO.P,A1,13,D10*%
%TO.N,Net-(A1-D10)*%
X138340000Y-55740000D03*
%TO.P,A1,14,D11*%
%TO.N,Net-(A1-D11)*%
X140880000Y-55740000D03*
%TO.P,A1,15,D12*%
%TO.N,Net-(A1-D12)*%
X143420000Y-55740000D03*
%TO.P,A1,16,D13*%
%TO.N,Net-(A1-D13)*%
X143420000Y-40500000D03*
%TO.P,A1,17,3V3*%
%TO.N,unconnected-(A1-3V3-Pad17)*%
X140880000Y-40500000D03*
%TO.P,A1,18,AREF*%
%TO.N,Net-(A1-AREF)*%
X138340000Y-40500000D03*
%TO.P,A1,19,A0*%
%TO.N,Net-(A1-A0)*%
X135800000Y-40500000D03*
%TO.P,A1,20,A1*%
%TO.N,Net-(A1-A1)*%
X133260000Y-40500000D03*
%TO.P,A1,21,A2*%
%TO.N,Net-(A1-A2)*%
X130720000Y-40500000D03*
%TO.P,A1,22,A3*%
%TO.N,Net-(A1-A3)*%
X128180000Y-40500000D03*
%TO.P,A1,23,A4*%
%TO.N,Net-(A1-A4)*%
X125640000Y-40500000D03*
%TO.P,A1,24,A5*%
%TO.N,Net-(A1-A5)*%
X123100000Y-40500000D03*
%TO.P,A1,25,A6*%
%TO.N,Net-(A1-A6)*%
X120560000Y-40500000D03*
%TO.P,A1,26,A7*%
%TO.N,Net-(A1-A7)*%
X118020000Y-40500000D03*
%TO.P,A1,27,+5V*%
%TO.N,5V*%
X115480000Y-40500000D03*
%TO.P,A1,28,~{RESET}*%
%TO.N,unconnected-(A1-~{RESET}-Pad28)*%
X112940000Y-40500000D03*
%TO.P,A1,29,GND*%
%TO.N,GND*%
X110400000Y-40500000D03*
%TO.P,A1,30,VIN*%
%TO.N,unconnected-(A1-VIN-Pad30)*%
X107860000Y-40500000D03*
%TD*%
D18*
%TO.P,RV6,1,1*%
%TO.N,GND*%
X137060000Y-129000000D03*
D15*
%TO.P,RV6,2,2*%
%TO.N,Net-(A1-A5)*%
X139600000Y-129000000D03*
%TO.P,RV6,3,3*%
%TO.N,5V*%
X142140000Y-129000000D03*
%TD*%
D22*
%TO.P,SW6,1,C*%
%TO.N,unconnected-(SW6-C-Pad1)*%
X132800000Y-82300000D03*
%TO.P,SW6,2,B*%
%TO.N,Net-(A1-A6)*%
X132800000Y-86800000D03*
%TO.P,SW6,3,A*%
%TO.N,GND*%
X132800000Y-91300000D03*
%TD*%
D13*
%TO.P,C4,1*%
%TO.N,Net-(A1-D7)*%
X106200000Y-136700000D03*
%TO.P,C4,2*%
%TO.N,GND*%
X106200000Y-141700000D03*
%TD*%
D19*
%TO.P,J9,1,Pin_1*%
%TO.N,Net-(J9-Pin_1)*%
X139624938Y-100700000D03*
%TD*%
D11*
%TO.P,D9,1,K*%
%TO.N,GND*%
X88700000Y-40925000D03*
D12*
%TO.P,D9,2,A*%
%TO.N,Net-(D9-A)*%
X88700000Y-43465000D03*
%TD*%
D18*
%TO.P,RV3,1,1*%
%TO.N,GND*%
X70460000Y-129000000D03*
D15*
%TO.P,RV3,2,2*%
%TO.N,Net-(A1-A2)*%
X73000000Y-129000000D03*
%TO.P,RV3,3,3*%
%TO.N,5V*%
X75540000Y-129000000D03*
%TD*%
D16*
%TO.P,J12,1,Pin_1*%
%TO.N,GND*%
X90070000Y-113112500D03*
D17*
%TO.P,J12,2,Pin_2*%
%TO.N,Net-(A1-A3)*%
X95150000Y-113112500D03*
%TO.P,J12,3,Pin_3*%
%TO.N,5V*%
X100150000Y-113112500D03*
%TD*%
D14*
%TO.P,J2,1,Pin_1*%
%TO.N,12V*%
X103520000Y-28300000D03*
D15*
%TO.P,J2,2,Pin_2*%
%TO.N,-12V*%
X103520000Y-25760000D03*
%TO.P,J2,3,Pin_3*%
%TO.N,GND*%
X106060000Y-28300000D03*
%TO.P,J2,4,Pin_4*%
X106060000Y-25760000D03*
%TO.P,J2,5,Pin_5*%
%TO.N,5V*%
X108600000Y-28300000D03*
%TO.P,J2,6,Pin_6*%
%TO.N,unconnected-(J2-Pin_6-Pad6)*%
X108600000Y-25760000D03*
%TD*%
D16*
%TO.P,J13,1,Pin_1*%
%TO.N,GND*%
X112370000Y-113212500D03*
D17*
%TO.P,J13,2,Pin_2*%
%TO.N,Net-(A1-A4)*%
X117450000Y-113212500D03*
%TO.P,J13,3,Pin_3*%
%TO.N,5V*%
X122450000Y-113212500D03*
%TD*%
D19*
%TO.P,J4,1,Pin_1*%
%TO.N,Net-(J4-Pin_1)*%
X140100000Y-70000000D03*
%TD*%
D11*
%TO.P,D7,1,K*%
%TO.N,GND*%
X75700000Y-40925000D03*
D12*
%TO.P,D7,2,A*%
%TO.N,Net-(D7-A)*%
X75700000Y-43465000D03*
%TD*%
D19*
%TO.P,J7,1,Pin_1*%
%TO.N,Net-(J7-Pin_1)*%
X95300000Y-100700000D03*
%TD*%
D18*
%TO.P,RV1,1,1*%
%TO.N,GND*%
X114560000Y-80800000D03*
D15*
%TO.P,RV1,2,2*%
%TO.N,Net-(A1-A0)*%
X117100000Y-80800000D03*
%TO.P,RV1,3,3*%
%TO.N,5V*%
X119640000Y-80800000D03*
%TD*%
D23*
%TO.N,Net-(A1-D5)*%
X69250000Y-142640000D02*
X83160000Y-142640000D01*
X140901000Y-112501000D02*
X140901000Y-113938892D01*
X88900000Y-141700000D02*
X84100000Y-141700000D01*
X125799000Y-88902000D02*
X125799000Y-97399000D01*
X83160000Y-142640000D02*
X84100000Y-141700000D01*
X138640892Y-116199000D02*
X114401000Y-116199000D01*
X125640000Y-55740000D02*
X127101000Y-57201000D01*
X114401000Y-116199000D02*
X88900000Y-141700000D01*
X140901000Y-113938892D02*
X138640892Y-116199000D01*
X125799000Y-97399000D02*
X140901000Y-112501000D01*
X127101000Y-57201000D02*
X127101000Y-87600000D01*
X127101000Y-87600000D02*
X125799000Y-88902000D01*
%TO.N,5V*%
X126729000Y-29451000D02*
X127880000Y-28300000D01*
X108600000Y-28300000D02*
X109751000Y-29451000D01*
X108720000Y-35800000D02*
X108720000Y-30631000D01*
X90851000Y-29451000D02*
X107449000Y-29451000D01*
X109900000Y-29451000D02*
X126729000Y-29451000D01*
X107449000Y-29451000D02*
X108600000Y-28300000D01*
X108720000Y-30631000D02*
X109900000Y-29451000D01*
X109751000Y-29451000D02*
X109900000Y-29451000D01*
X89600000Y-28200000D02*
X90851000Y-29451000D01*
%TO.N,Net-(A1-A0)*%
X124200000Y-57800000D02*
X117100000Y-64900000D01*
X124200000Y-52100000D02*
X124200000Y-57800000D01*
X135800000Y-40500000D02*
X124200000Y-52100000D01*
%TO.N,Net-(A1-D6)*%
X128180000Y-55740000D02*
X128180000Y-99212900D01*
X98401000Y-135599000D02*
X91300000Y-142700000D01*
X141302000Y-116365100D02*
X122068100Y-135599000D01*
X84100000Y-149000000D02*
X90400000Y-142700000D01*
X90400000Y-142700000D02*
X91300000Y-142700000D01*
X122068100Y-135599000D02*
X98401000Y-135599000D01*
X128180000Y-99212900D02*
X141302000Y-112334900D01*
X141302000Y-112334900D02*
X141302000Y-116365100D01*
%TO.N,Net-(A1-A5)*%
X93439000Y-53363950D02*
X93439000Y-67239000D01*
X123100000Y-40500000D02*
X121999000Y-39399000D01*
X121999000Y-39399000D02*
X107403950Y-39399000D01*
X107403950Y-39399000D02*
X93439000Y-53363950D01*
X93439000Y-67239000D02*
X139600000Y-113400000D01*
%TO.N,Net-(A1-A7)*%
X131400000Y-65120000D02*
X149000000Y-65120000D01*
X149000000Y-65120000D02*
X149100000Y-65220000D01*
%TO.N,Net-(A1-A4)*%
X93038000Y-53197850D02*
X93038000Y-70455467D01*
X121501000Y-98918467D02*
X121501000Y-109161500D01*
X121501000Y-109161500D02*
X117450000Y-113212500D01*
X107237850Y-38998000D02*
X93038000Y-53197850D01*
X124138000Y-38998000D02*
X107237850Y-38998000D01*
X125640000Y-40500000D02*
X124138000Y-38998000D01*
X93038000Y-70455467D02*
X121501000Y-98918467D01*
%TO.N,GND*%
X139441000Y-58821000D02*
X141300000Y-60680000D01*
X67870000Y-83914816D02*
X75100000Y-76684816D01*
X115480000Y-55740000D02*
X115480000Y-45580000D01*
X67870000Y-113112500D02*
X67870000Y-83914816D01*
X112020000Y-59200000D02*
X115480000Y-55740000D01*
X115480000Y-45580000D02*
X110400000Y-40500000D01*
X88700000Y-29840000D02*
X88700000Y-40925000D01*
X128356760Y-27149000D02*
X136520000Y-35312240D01*
X126491000Y-27149000D02*
X128356760Y-27149000D01*
X136520000Y-35312240D02*
X136520000Y-35800000D01*
X91800000Y-129000000D02*
X92660000Y-129000000D01*
X75100000Y-76684816D02*
X75100000Y-70820000D01*
X84100000Y-136700000D02*
X91800000Y-129000000D01*
X125340000Y-28300000D02*
X126491000Y-27149000D01*
X136520000Y-35800000D02*
X139441000Y-38721000D01*
X112020000Y-64900000D02*
X112020000Y-59200000D01*
X139441000Y-38721000D02*
X139441000Y-58821000D01*
X87060000Y-28200000D02*
X88700000Y-29840000D01*
%TO.N,Net-(A1-D7)*%
X141703000Y-112168800D02*
X141703000Y-117496314D01*
X120440314Y-138759000D02*
X117451000Y-138759000D01*
X135323938Y-105789738D02*
X141703000Y-112168800D01*
X141703000Y-117496314D02*
X120440314Y-138759000D01*
X135323938Y-99186888D02*
X135323938Y-105789738D01*
X107510000Y-136700000D02*
X113510000Y-142700000D01*
X106200000Y-136700000D02*
X107510000Y-136700000D01*
X129898000Y-56562000D02*
X129898000Y-93760950D01*
X129898000Y-93760950D02*
X135323938Y-99186888D01*
X117451000Y-138759000D02*
X113510000Y-142700000D01*
X130720000Y-55740000D02*
X129898000Y-56562000D01*
%TO.N,Net-(A1-A2)*%
X79251000Y-62756950D02*
X79251000Y-106811500D01*
X93023950Y-48984000D02*
X79251000Y-62756950D01*
X93038050Y-48984000D02*
X93023950Y-48984000D01*
X79251000Y-106811500D02*
X72950000Y-113112500D01*
X103826050Y-38196000D02*
X93038050Y-48984000D01*
X128416000Y-38196000D02*
X103826050Y-38196000D01*
X130720000Y-40500000D02*
X128416000Y-38196000D01*
%TO.N,Net-(A1-A3)*%
X95891000Y-95208467D02*
X99601000Y-98918467D01*
X95891000Y-80335740D02*
X95891000Y-95208467D01*
X92637000Y-77081740D02*
X95891000Y-80335740D01*
X92637000Y-53031750D02*
X92637000Y-77081740D01*
X99601000Y-108661500D02*
X95150000Y-113112500D01*
X107071750Y-38597000D02*
X92637000Y-53031750D01*
X126277000Y-38597000D02*
X107071750Y-38597000D01*
X128180000Y-40500000D02*
X126277000Y-38597000D01*
X99601000Y-98918467D02*
X99601000Y-108661500D01*
%TO.N,Net-(A1-D8)*%
X133260000Y-55740000D02*
X136999000Y-59479000D01*
X136999000Y-59479000D02*
X139257471Y-59479000D01*
X129760000Y-136700000D02*
X128500000Y-136700000D01*
X139257471Y-59479000D02*
X139961000Y-60182529D01*
X128500000Y-135258000D02*
X128500000Y-136700000D01*
X147878050Y-62441000D02*
X150201000Y-64763950D01*
X150201000Y-64763950D02*
X150201000Y-113557000D01*
X135800000Y-142740000D02*
X129760000Y-136700000D01*
X139961000Y-62441000D02*
X147878050Y-62441000D01*
X139961000Y-60182529D02*
X139961000Y-62441000D01*
X150201000Y-113557000D02*
X128500000Y-135258000D01*
%TO.N,Net-(A1-A1)*%
X121999000Y-51761000D02*
X121999000Y-57523000D01*
X96041000Y-66201000D02*
X94740000Y-64900000D01*
X113321000Y-66201000D02*
X96041000Y-66201000D01*
X121999000Y-57523000D02*
X113321000Y-66201000D01*
X133260000Y-40500000D02*
X121999000Y-51761000D01*
%TO.N,Net-(A1-AREF)*%
X133640000Y-35800000D02*
X138340000Y-40500000D01*
X131520000Y-35800000D02*
X133640000Y-35800000D01*
%TO.N,Net-(A1-D13)*%
X64700000Y-43023000D02*
X64700000Y-45900000D01*
X83615000Y-24108000D02*
X64700000Y-43023000D01*
X128159370Y-24108000D02*
X83615000Y-24108000D01*
X143420000Y-39368630D02*
X128159370Y-24108000D01*
X143420000Y-40500000D02*
X143420000Y-39368630D01*
%TO.N,12V*%
X104671000Y-27149000D02*
X121649000Y-27149000D01*
X85671000Y-27049000D02*
X102269000Y-27049000D01*
X102269000Y-27049000D02*
X103520000Y-28300000D01*
X84520000Y-28200000D02*
X85671000Y-27049000D01*
X103520000Y-28300000D02*
X104671000Y-27149000D01*
X121649000Y-27149000D02*
X122800000Y-28300000D01*
%TO.N,-12V*%
X103520000Y-25760000D02*
X104671000Y-24609000D01*
X121649000Y-24609000D02*
X122800000Y-25760000D01*
X84520000Y-25660000D02*
X85671000Y-24509000D01*
X85671000Y-24509000D02*
X102269000Y-24509000D01*
X102269000Y-24509000D02*
X103520000Y-25760000D01*
X104671000Y-24609000D02*
X121649000Y-24609000D01*
%TO.N,Net-(D5-A)*%
X131400000Y-75280000D02*
X130299000Y-74179000D01*
X134282950Y-60680000D02*
X138760000Y-60680000D01*
X130299000Y-74179000D02*
X130299000Y-64663950D01*
X130299000Y-64663950D02*
X134282950Y-60680000D01*
%TO.N,Net-(J4-Pin_1)*%
X145480000Y-75380000D02*
X140100000Y-70000000D01*
X149100000Y-75380000D02*
X145480000Y-75380000D01*
%TD*%
M02*
