%TF.GenerationSoftware,KiCad,Pcbnew,9.0.6*%
%TF.CreationDate,2026-05-04T00:51:07+10:00*%
%TF.ProjectId,pattern-sequencer,70617474-6572-46e2-9d73-657175656e63,rev?*%
%TF.SameCoordinates,Original*%
%TF.FileFunction,Legend,Top*%
%TF.FilePolarity,Positive*%
%FSLAX46Y46*%
G04 Gerber Fmt 4.6, Leading zero omitted, Abs format (unit mm)*
G04 Created by KiCad (PCBNEW 9.0.6) date 2026-05-04 00:51:07*
%MOMM*%
%LPD*%
G01*
G04 APERTURE LIST*
%ADD10C,0.300000*%
%ADD11C,0.250000*%
%ADD12C,0.150000*%
%ADD13C,0.100000*%
%ADD14C,0.120000*%
%ADD15C,0.000000*%
G04 APERTURE END LIST*
D10*
X80411653Y-172157971D02*
X80340225Y-172229400D01*
X80340225Y-172229400D02*
X80125939Y-172300828D01*
X80125939Y-172300828D02*
X79983082Y-172300828D01*
X79983082Y-172300828D02*
X79768796Y-172229400D01*
X79768796Y-172229400D02*
X79625939Y-172086542D01*
X79625939Y-172086542D02*
X79554510Y-171943685D01*
X79554510Y-171943685D02*
X79483082Y-171657971D01*
X79483082Y-171657971D02*
X79483082Y-171443685D01*
X79483082Y-171443685D02*
X79554510Y-171157971D01*
X79554510Y-171157971D02*
X79625939Y-171015114D01*
X79625939Y-171015114D02*
X79768796Y-170872257D01*
X79768796Y-170872257D02*
X79983082Y-170800828D01*
X79983082Y-170800828D02*
X80125939Y-170800828D01*
X80125939Y-170800828D02*
X80340225Y-170872257D01*
X80340225Y-170872257D02*
X80411653Y-170943685D01*
X81054510Y-172300828D02*
X81054510Y-170800828D01*
X81054510Y-171515114D02*
X81911653Y-171515114D01*
X81911653Y-172300828D02*
X81911653Y-170800828D01*
X83411654Y-172300828D02*
X82554511Y-172300828D01*
X82983082Y-172300828D02*
X82983082Y-170800828D01*
X82983082Y-170800828D02*
X82840225Y-171015114D01*
X82840225Y-171015114D02*
X82697368Y-171157971D01*
X82697368Y-171157971D02*
X82554511Y-171229400D01*
X124911653Y-172157971D02*
X124840225Y-172229400D01*
X124840225Y-172229400D02*
X124625939Y-172300828D01*
X124625939Y-172300828D02*
X124483082Y-172300828D01*
X124483082Y-172300828D02*
X124268796Y-172229400D01*
X124268796Y-172229400D02*
X124125939Y-172086542D01*
X124125939Y-172086542D02*
X124054510Y-171943685D01*
X124054510Y-171943685D02*
X123983082Y-171657971D01*
X123983082Y-171657971D02*
X123983082Y-171443685D01*
X123983082Y-171443685D02*
X124054510Y-171157971D01*
X124054510Y-171157971D02*
X124125939Y-171015114D01*
X124125939Y-171015114D02*
X124268796Y-170872257D01*
X124268796Y-170872257D02*
X124483082Y-170800828D01*
X124483082Y-170800828D02*
X124625939Y-170800828D01*
X124625939Y-170800828D02*
X124840225Y-170872257D01*
X124840225Y-170872257D02*
X124911653Y-170943685D01*
X125554510Y-172300828D02*
X125554510Y-170800828D01*
X125554510Y-171515114D02*
X126411653Y-171515114D01*
X126411653Y-172300828D02*
X126411653Y-170800828D01*
X126983082Y-170800828D02*
X127911654Y-170800828D01*
X127911654Y-170800828D02*
X127411654Y-171372257D01*
X127411654Y-171372257D02*
X127625939Y-171372257D01*
X127625939Y-171372257D02*
X127768797Y-171443685D01*
X127768797Y-171443685D02*
X127840225Y-171515114D01*
X127840225Y-171515114D02*
X127911654Y-171657971D01*
X127911654Y-171657971D02*
X127911654Y-172015114D01*
X127911654Y-172015114D02*
X127840225Y-172157971D01*
X127840225Y-172157971D02*
X127768797Y-172229400D01*
X127768797Y-172229400D02*
X127625939Y-172300828D01*
X127625939Y-172300828D02*
X127197368Y-172300828D01*
X127197368Y-172300828D02*
X127054511Y-172229400D01*
X127054511Y-172229400D02*
X126983082Y-172157971D01*
X70983082Y-54829400D02*
X71197368Y-54900828D01*
X71197368Y-54900828D02*
X71554510Y-54900828D01*
X71554510Y-54900828D02*
X71697368Y-54829400D01*
X71697368Y-54829400D02*
X71768796Y-54757971D01*
X71768796Y-54757971D02*
X71840225Y-54615114D01*
X71840225Y-54615114D02*
X71840225Y-54472257D01*
X71840225Y-54472257D02*
X71768796Y-54329400D01*
X71768796Y-54329400D02*
X71697368Y-54257971D01*
X71697368Y-54257971D02*
X71554510Y-54186542D01*
X71554510Y-54186542D02*
X71268796Y-54115114D01*
X71268796Y-54115114D02*
X71125939Y-54043685D01*
X71125939Y-54043685D02*
X71054510Y-53972257D01*
X71054510Y-53972257D02*
X70983082Y-53829400D01*
X70983082Y-53829400D02*
X70983082Y-53686542D01*
X70983082Y-53686542D02*
X71054510Y-53543685D01*
X71054510Y-53543685D02*
X71125939Y-53472257D01*
X71125939Y-53472257D02*
X71268796Y-53400828D01*
X71268796Y-53400828D02*
X71625939Y-53400828D01*
X71625939Y-53400828D02*
X71840225Y-53472257D01*
X72483081Y-54115114D02*
X72983081Y-54115114D01*
X73197367Y-54900828D02*
X72483081Y-54900828D01*
X72483081Y-54900828D02*
X72483081Y-53400828D01*
X72483081Y-53400828D02*
X73197367Y-53400828D01*
X74840224Y-55043685D02*
X74697367Y-54972257D01*
X74697367Y-54972257D02*
X74554510Y-54829400D01*
X74554510Y-54829400D02*
X74340224Y-54615114D01*
X74340224Y-54615114D02*
X74197367Y-54543685D01*
X74197367Y-54543685D02*
X74054510Y-54543685D01*
X74125939Y-54900828D02*
X73983082Y-54829400D01*
X73983082Y-54829400D02*
X73840224Y-54686542D01*
X73840224Y-54686542D02*
X73768796Y-54400828D01*
X73768796Y-54400828D02*
X73768796Y-53900828D01*
X73768796Y-53900828D02*
X73840224Y-53615114D01*
X73840224Y-53615114D02*
X73983082Y-53472257D01*
X73983082Y-53472257D02*
X74125939Y-53400828D01*
X74125939Y-53400828D02*
X74411653Y-53400828D01*
X74411653Y-53400828D02*
X74554510Y-53472257D01*
X74554510Y-53472257D02*
X74697367Y-53615114D01*
X74697367Y-53615114D02*
X74768796Y-53900828D01*
X74768796Y-53900828D02*
X74768796Y-54400828D01*
X74768796Y-54400828D02*
X74697367Y-54686542D01*
X74697367Y-54686542D02*
X74554510Y-54829400D01*
X74554510Y-54829400D02*
X74411653Y-54900828D01*
X74411653Y-54900828D02*
X74125939Y-54900828D01*
X75411653Y-53400828D02*
X75411653Y-54615114D01*
X75411653Y-54615114D02*
X75483082Y-54757971D01*
X75483082Y-54757971D02*
X75554511Y-54829400D01*
X75554511Y-54829400D02*
X75697368Y-54900828D01*
X75697368Y-54900828D02*
X75983082Y-54900828D01*
X75983082Y-54900828D02*
X76125939Y-54829400D01*
X76125939Y-54829400D02*
X76197368Y-54757971D01*
X76197368Y-54757971D02*
X76268796Y-54615114D01*
X76268796Y-54615114D02*
X76268796Y-53400828D01*
X76983082Y-54115114D02*
X77483082Y-54115114D01*
X77697368Y-54900828D02*
X76983082Y-54900828D01*
X76983082Y-54900828D02*
X76983082Y-53400828D01*
X76983082Y-53400828D02*
X77697368Y-53400828D01*
X78340225Y-54900828D02*
X78340225Y-53400828D01*
X78340225Y-53400828D02*
X79197368Y-54900828D01*
X79197368Y-54900828D02*
X79197368Y-53400828D01*
X80768797Y-54757971D02*
X80697369Y-54829400D01*
X80697369Y-54829400D02*
X80483083Y-54900828D01*
X80483083Y-54900828D02*
X80340226Y-54900828D01*
X80340226Y-54900828D02*
X80125940Y-54829400D01*
X80125940Y-54829400D02*
X79983083Y-54686542D01*
X79983083Y-54686542D02*
X79911654Y-54543685D01*
X79911654Y-54543685D02*
X79840226Y-54257971D01*
X79840226Y-54257971D02*
X79840226Y-54043685D01*
X79840226Y-54043685D02*
X79911654Y-53757971D01*
X79911654Y-53757971D02*
X79983083Y-53615114D01*
X79983083Y-53615114D02*
X80125940Y-53472257D01*
X80125940Y-53472257D02*
X80340226Y-53400828D01*
X80340226Y-53400828D02*
X80483083Y-53400828D01*
X80483083Y-53400828D02*
X80697369Y-53472257D01*
X80697369Y-53472257D02*
X80768797Y-53543685D01*
X81411654Y-54115114D02*
X81911654Y-54115114D01*
X82125940Y-54900828D02*
X81411654Y-54900828D01*
X81411654Y-54900828D02*
X81411654Y-53400828D01*
X81411654Y-53400828D02*
X82125940Y-53400828D01*
X83911654Y-54900828D02*
X83911654Y-53400828D01*
X84625940Y-54900828D02*
X84625940Y-53400828D01*
X84625940Y-53400828D02*
X85483083Y-54900828D01*
X85483083Y-54900828D02*
X85483083Y-53400828D01*
X86197369Y-54900828D02*
X86197369Y-53400828D01*
X86197369Y-53400828D02*
X86554512Y-53400828D01*
X86554512Y-53400828D02*
X86768798Y-53472257D01*
X86768798Y-53472257D02*
X86911655Y-53615114D01*
X86911655Y-53615114D02*
X86983084Y-53757971D01*
X86983084Y-53757971D02*
X87054512Y-54043685D01*
X87054512Y-54043685D02*
X87054512Y-54257971D01*
X87054512Y-54257971D02*
X86983084Y-54543685D01*
X86983084Y-54543685D02*
X86911655Y-54686542D01*
X86911655Y-54686542D02*
X86768798Y-54829400D01*
X86768798Y-54829400D02*
X86554512Y-54900828D01*
X86554512Y-54900828D02*
X86197369Y-54900828D01*
X87697369Y-54115114D02*
X88197369Y-54115114D01*
X88411655Y-54900828D02*
X87697369Y-54900828D01*
X87697369Y-54900828D02*
X87697369Y-53400828D01*
X87697369Y-53400828D02*
X88411655Y-53400828D01*
X88911655Y-53400828D02*
X89911655Y-54900828D01*
X89911655Y-53400828D02*
X88911655Y-54900828D01*
D11*
X108935901Y-102600809D02*
X109078758Y-102648428D01*
X109078758Y-102648428D02*
X109126377Y-102696047D01*
X109126377Y-102696047D02*
X109173996Y-102791285D01*
X109173996Y-102791285D02*
X109173996Y-102934142D01*
X109173996Y-102934142D02*
X109126377Y-103029380D01*
X109126377Y-103029380D02*
X109078758Y-103077000D01*
X109078758Y-103077000D02*
X108983520Y-103124619D01*
X108983520Y-103124619D02*
X108602568Y-103124619D01*
X108602568Y-103124619D02*
X108602568Y-102124619D01*
X108602568Y-102124619D02*
X108935901Y-102124619D01*
X108935901Y-102124619D02*
X109031139Y-102172238D01*
X109031139Y-102172238D02*
X109078758Y-102219857D01*
X109078758Y-102219857D02*
X109126377Y-102315095D01*
X109126377Y-102315095D02*
X109126377Y-102410333D01*
X109126377Y-102410333D02*
X109078758Y-102505571D01*
X109078758Y-102505571D02*
X109031139Y-102553190D01*
X109031139Y-102553190D02*
X108935901Y-102600809D01*
X108935901Y-102600809D02*
X108602568Y-102600809D01*
X109554949Y-102838904D02*
X110031139Y-102838904D01*
X109459711Y-103124619D02*
X109793044Y-102124619D01*
X109793044Y-102124619D02*
X110126377Y-103124619D01*
X110412092Y-103077000D02*
X110554949Y-103124619D01*
X110554949Y-103124619D02*
X110793044Y-103124619D01*
X110793044Y-103124619D02*
X110888282Y-103077000D01*
X110888282Y-103077000D02*
X110935901Y-103029380D01*
X110935901Y-103029380D02*
X110983520Y-102934142D01*
X110983520Y-102934142D02*
X110983520Y-102838904D01*
X110983520Y-102838904D02*
X110935901Y-102743666D01*
X110935901Y-102743666D02*
X110888282Y-102696047D01*
X110888282Y-102696047D02*
X110793044Y-102648428D01*
X110793044Y-102648428D02*
X110602568Y-102600809D01*
X110602568Y-102600809D02*
X110507330Y-102553190D01*
X110507330Y-102553190D02*
X110459711Y-102505571D01*
X110459711Y-102505571D02*
X110412092Y-102410333D01*
X110412092Y-102410333D02*
X110412092Y-102315095D01*
X110412092Y-102315095D02*
X110459711Y-102219857D01*
X110459711Y-102219857D02*
X110507330Y-102172238D01*
X110507330Y-102172238D02*
X110602568Y-102124619D01*
X110602568Y-102124619D02*
X110840663Y-102124619D01*
X110840663Y-102124619D02*
X110983520Y-102172238D01*
X111412092Y-102600809D02*
X111745425Y-102600809D01*
X111888282Y-103124619D02*
X111412092Y-103124619D01*
X111412092Y-103124619D02*
X111412092Y-102124619D01*
X111412092Y-102124619D02*
X111888282Y-102124619D01*
D10*
X132471428Y-103517971D02*
X132400000Y-103589400D01*
X132400000Y-103589400D02*
X132185714Y-103660828D01*
X132185714Y-103660828D02*
X132042857Y-103660828D01*
X132042857Y-103660828D02*
X131828571Y-103589400D01*
X131828571Y-103589400D02*
X131685714Y-103446542D01*
X131685714Y-103446542D02*
X131614285Y-103303685D01*
X131614285Y-103303685D02*
X131542857Y-103017971D01*
X131542857Y-103017971D02*
X131542857Y-102803685D01*
X131542857Y-102803685D02*
X131614285Y-102517971D01*
X131614285Y-102517971D02*
X131685714Y-102375114D01*
X131685714Y-102375114D02*
X131828571Y-102232257D01*
X131828571Y-102232257D02*
X132042857Y-102160828D01*
X132042857Y-102160828D02*
X132185714Y-102160828D01*
X132185714Y-102160828D02*
X132400000Y-102232257D01*
X132400000Y-102232257D02*
X132471428Y-102303685D01*
X133828571Y-103660828D02*
X133114285Y-103660828D01*
X133114285Y-103660828D02*
X133114285Y-102160828D01*
X134614286Y-102160828D02*
X134900000Y-102160828D01*
X134900000Y-102160828D02*
X135042857Y-102232257D01*
X135042857Y-102232257D02*
X135185714Y-102375114D01*
X135185714Y-102375114D02*
X135257143Y-102660828D01*
X135257143Y-102660828D02*
X135257143Y-103160828D01*
X135257143Y-103160828D02*
X135185714Y-103446542D01*
X135185714Y-103446542D02*
X135042857Y-103589400D01*
X135042857Y-103589400D02*
X134900000Y-103660828D01*
X134900000Y-103660828D02*
X134614286Y-103660828D01*
X134614286Y-103660828D02*
X134471429Y-103589400D01*
X134471429Y-103589400D02*
X134328571Y-103446542D01*
X134328571Y-103446542D02*
X134257143Y-103160828D01*
X134257143Y-103160828D02*
X134257143Y-102660828D01*
X134257143Y-102660828D02*
X134328571Y-102375114D01*
X134328571Y-102375114D02*
X134471429Y-102232257D01*
X134471429Y-102232257D02*
X134614286Y-102160828D01*
X136757143Y-103517971D02*
X136685715Y-103589400D01*
X136685715Y-103589400D02*
X136471429Y-103660828D01*
X136471429Y-103660828D02*
X136328572Y-103660828D01*
X136328572Y-103660828D02*
X136114286Y-103589400D01*
X136114286Y-103589400D02*
X135971429Y-103446542D01*
X135971429Y-103446542D02*
X135900000Y-103303685D01*
X135900000Y-103303685D02*
X135828572Y-103017971D01*
X135828572Y-103017971D02*
X135828572Y-102803685D01*
X135828572Y-102803685D02*
X135900000Y-102517971D01*
X135900000Y-102517971D02*
X135971429Y-102375114D01*
X135971429Y-102375114D02*
X136114286Y-102232257D01*
X136114286Y-102232257D02*
X136328572Y-102160828D01*
X136328572Y-102160828D02*
X136471429Y-102160828D01*
X136471429Y-102160828D02*
X136685715Y-102232257D01*
X136685715Y-102232257D02*
X136757143Y-102303685D01*
X137400000Y-103660828D02*
X137400000Y-102160828D01*
X138257143Y-103660828D02*
X137614286Y-102803685D01*
X138257143Y-102160828D02*
X137400000Y-103017971D01*
D11*
X119402568Y-81100809D02*
X119735901Y-81100809D01*
X119878758Y-81624619D02*
X119402568Y-81624619D01*
X119402568Y-81624619D02*
X119402568Y-80624619D01*
X119402568Y-80624619D02*
X119878758Y-80624619D01*
X120212092Y-80624619D02*
X120878758Y-81624619D01*
X120878758Y-80624619D02*
X120212092Y-81624619D01*
X121116854Y-80624619D02*
X121688282Y-80624619D01*
X121402568Y-81624619D02*
X121402568Y-80624619D01*
X122021616Y-81100809D02*
X122354949Y-81100809D01*
X122497806Y-81624619D02*
X122021616Y-81624619D01*
X122021616Y-81624619D02*
X122021616Y-80624619D01*
X122021616Y-80624619D02*
X122497806Y-80624619D01*
X123497806Y-81624619D02*
X123164473Y-81148428D01*
X122926378Y-81624619D02*
X122926378Y-80624619D01*
X122926378Y-80624619D02*
X123307330Y-80624619D01*
X123307330Y-80624619D02*
X123402568Y-80672238D01*
X123402568Y-80672238D02*
X123450187Y-80719857D01*
X123450187Y-80719857D02*
X123497806Y-80815095D01*
X123497806Y-80815095D02*
X123497806Y-80957952D01*
X123497806Y-80957952D02*
X123450187Y-81053190D01*
X123450187Y-81053190D02*
X123402568Y-81100809D01*
X123402568Y-81100809D02*
X123307330Y-81148428D01*
X123307330Y-81148428D02*
X122926378Y-81148428D01*
X123926378Y-81624619D02*
X123926378Y-80624619D01*
X123926378Y-80624619D02*
X124497806Y-81624619D01*
X124497806Y-81624619D02*
X124497806Y-80624619D01*
X124926378Y-81338904D02*
X125402568Y-81338904D01*
X124831140Y-81624619D02*
X125164473Y-80624619D01*
X125164473Y-80624619D02*
X125497806Y-81624619D01*
X126307330Y-81624619D02*
X125831140Y-81624619D01*
X125831140Y-81624619D02*
X125831140Y-80624619D01*
X95835901Y-102600809D02*
X95978758Y-102648428D01*
X95978758Y-102648428D02*
X96026377Y-102696047D01*
X96026377Y-102696047D02*
X96073996Y-102791285D01*
X96073996Y-102791285D02*
X96073996Y-102934142D01*
X96073996Y-102934142D02*
X96026377Y-103029380D01*
X96026377Y-103029380D02*
X95978758Y-103077000D01*
X95978758Y-103077000D02*
X95883520Y-103124619D01*
X95883520Y-103124619D02*
X95502568Y-103124619D01*
X95502568Y-103124619D02*
X95502568Y-102124619D01*
X95502568Y-102124619D02*
X95835901Y-102124619D01*
X95835901Y-102124619D02*
X95931139Y-102172238D01*
X95931139Y-102172238D02*
X95978758Y-102219857D01*
X95978758Y-102219857D02*
X96026377Y-102315095D01*
X96026377Y-102315095D02*
X96026377Y-102410333D01*
X96026377Y-102410333D02*
X95978758Y-102505571D01*
X95978758Y-102505571D02*
X95931139Y-102553190D01*
X95931139Y-102553190D02*
X95835901Y-102600809D01*
X95835901Y-102600809D02*
X95502568Y-102600809D01*
X96454949Y-102838904D02*
X96931139Y-102838904D01*
X96359711Y-103124619D02*
X96693044Y-102124619D01*
X96693044Y-102124619D02*
X97026377Y-103124619D01*
X97312092Y-103077000D02*
X97454949Y-103124619D01*
X97454949Y-103124619D02*
X97693044Y-103124619D01*
X97693044Y-103124619D02*
X97788282Y-103077000D01*
X97788282Y-103077000D02*
X97835901Y-103029380D01*
X97835901Y-103029380D02*
X97883520Y-102934142D01*
X97883520Y-102934142D02*
X97883520Y-102838904D01*
X97883520Y-102838904D02*
X97835901Y-102743666D01*
X97835901Y-102743666D02*
X97788282Y-102696047D01*
X97788282Y-102696047D02*
X97693044Y-102648428D01*
X97693044Y-102648428D02*
X97502568Y-102600809D01*
X97502568Y-102600809D02*
X97407330Y-102553190D01*
X97407330Y-102553190D02*
X97359711Y-102505571D01*
X97359711Y-102505571D02*
X97312092Y-102410333D01*
X97312092Y-102410333D02*
X97312092Y-102315095D01*
X97312092Y-102315095D02*
X97359711Y-102219857D01*
X97359711Y-102219857D02*
X97407330Y-102172238D01*
X97407330Y-102172238D02*
X97502568Y-102124619D01*
X97502568Y-102124619D02*
X97740663Y-102124619D01*
X97740663Y-102124619D02*
X97883520Y-102172238D01*
X98312092Y-102600809D02*
X98645425Y-102600809D01*
X98788282Y-103124619D02*
X98312092Y-103124619D01*
X98312092Y-103124619D02*
X98312092Y-102124619D01*
X98312092Y-102124619D02*
X98788282Y-102124619D01*
X99931139Y-102077000D02*
X99073997Y-103362714D01*
X100216854Y-102219857D02*
X100264473Y-102172238D01*
X100264473Y-102172238D02*
X100359711Y-102124619D01*
X100359711Y-102124619D02*
X100597806Y-102124619D01*
X100597806Y-102124619D02*
X100693044Y-102172238D01*
X100693044Y-102172238D02*
X100740663Y-102219857D01*
X100740663Y-102219857D02*
X100788282Y-102315095D01*
X100788282Y-102315095D02*
X100788282Y-102410333D01*
X100788282Y-102410333D02*
X100740663Y-102553190D01*
X100740663Y-102553190D02*
X100169235Y-103124619D01*
X100169235Y-103124619D02*
X100788282Y-103124619D01*
D10*
X122515225Y-70190828D02*
X123372368Y-70190828D01*
X122943796Y-71690828D02*
X122943796Y-70190828D01*
X123872367Y-70905114D02*
X124372367Y-70905114D01*
X124586653Y-71690828D02*
X123872367Y-71690828D01*
X123872367Y-71690828D02*
X123872367Y-70190828D01*
X123872367Y-70190828D02*
X124586653Y-70190828D01*
X125229510Y-71690828D02*
X125229510Y-70190828D01*
X125229510Y-70190828D02*
X125729510Y-71262257D01*
X125729510Y-71262257D02*
X126229510Y-70190828D01*
X126229510Y-70190828D02*
X126229510Y-71690828D01*
X126943796Y-71690828D02*
X126943796Y-70190828D01*
X126943796Y-70190828D02*
X127515225Y-70190828D01*
X127515225Y-70190828D02*
X127658082Y-70262257D01*
X127658082Y-70262257D02*
X127729511Y-70333685D01*
X127729511Y-70333685D02*
X127800939Y-70476542D01*
X127800939Y-70476542D02*
X127800939Y-70690828D01*
X127800939Y-70690828D02*
X127729511Y-70833685D01*
X127729511Y-70833685D02*
X127658082Y-70905114D01*
X127658082Y-70905114D02*
X127515225Y-70976542D01*
X127515225Y-70976542D02*
X126943796Y-70976542D01*
X128729511Y-70190828D02*
X129015225Y-70190828D01*
X129015225Y-70190828D02*
X129158082Y-70262257D01*
X129158082Y-70262257D02*
X129300939Y-70405114D01*
X129300939Y-70405114D02*
X129372368Y-70690828D01*
X129372368Y-70690828D02*
X129372368Y-71190828D01*
X129372368Y-71190828D02*
X129300939Y-71476542D01*
X129300939Y-71476542D02*
X129158082Y-71619400D01*
X129158082Y-71619400D02*
X129015225Y-71690828D01*
X129015225Y-71690828D02*
X128729511Y-71690828D01*
X128729511Y-71690828D02*
X128586654Y-71619400D01*
X128586654Y-71619400D02*
X128443796Y-71476542D01*
X128443796Y-71476542D02*
X128372368Y-71190828D01*
X128372368Y-71190828D02*
X128372368Y-70690828D01*
X128372368Y-70690828D02*
X128443796Y-70405114D01*
X128443796Y-70405114D02*
X128586654Y-70262257D01*
X128586654Y-70262257D02*
X128729511Y-70190828D01*
X120271428Y-103503055D02*
X120200000Y-103574484D01*
X120200000Y-103574484D02*
X119985714Y-103645912D01*
X119985714Y-103645912D02*
X119842857Y-103645912D01*
X119842857Y-103645912D02*
X119628571Y-103574484D01*
X119628571Y-103574484D02*
X119485714Y-103431626D01*
X119485714Y-103431626D02*
X119414285Y-103288769D01*
X119414285Y-103288769D02*
X119342857Y-103003055D01*
X119342857Y-103003055D02*
X119342857Y-102788769D01*
X119342857Y-102788769D02*
X119414285Y-102503055D01*
X119414285Y-102503055D02*
X119485714Y-102360198D01*
X119485714Y-102360198D02*
X119628571Y-102217341D01*
X119628571Y-102217341D02*
X119842857Y-102145912D01*
X119842857Y-102145912D02*
X119985714Y-102145912D01*
X119985714Y-102145912D02*
X120200000Y-102217341D01*
X120200000Y-102217341D02*
X120271428Y-102288769D01*
X121628571Y-103645912D02*
X120914285Y-103645912D01*
X120914285Y-103645912D02*
X120914285Y-102145912D01*
X122414286Y-102145912D02*
X122700000Y-102145912D01*
X122700000Y-102145912D02*
X122842857Y-102217341D01*
X122842857Y-102217341D02*
X122985714Y-102360198D01*
X122985714Y-102360198D02*
X123057143Y-102645912D01*
X123057143Y-102645912D02*
X123057143Y-103145912D01*
X123057143Y-103145912D02*
X122985714Y-103431626D01*
X122985714Y-103431626D02*
X122842857Y-103574484D01*
X122842857Y-103574484D02*
X122700000Y-103645912D01*
X122700000Y-103645912D02*
X122414286Y-103645912D01*
X122414286Y-103645912D02*
X122271429Y-103574484D01*
X122271429Y-103574484D02*
X122128571Y-103431626D01*
X122128571Y-103431626D02*
X122057143Y-103145912D01*
X122057143Y-103145912D02*
X122057143Y-102645912D01*
X122057143Y-102645912D02*
X122128571Y-102360198D01*
X122128571Y-102360198D02*
X122271429Y-102217341D01*
X122271429Y-102217341D02*
X122414286Y-102145912D01*
X124557143Y-103503055D02*
X124485715Y-103574484D01*
X124485715Y-103574484D02*
X124271429Y-103645912D01*
X124271429Y-103645912D02*
X124128572Y-103645912D01*
X124128572Y-103645912D02*
X123914286Y-103574484D01*
X123914286Y-103574484D02*
X123771429Y-103431626D01*
X123771429Y-103431626D02*
X123700000Y-103288769D01*
X123700000Y-103288769D02*
X123628572Y-103003055D01*
X123628572Y-103003055D02*
X123628572Y-102788769D01*
X123628572Y-102788769D02*
X123700000Y-102503055D01*
X123700000Y-102503055D02*
X123771429Y-102360198D01*
X123771429Y-102360198D02*
X123914286Y-102217341D01*
X123914286Y-102217341D02*
X124128572Y-102145912D01*
X124128572Y-102145912D02*
X124271429Y-102145912D01*
X124271429Y-102145912D02*
X124485715Y-102217341D01*
X124485715Y-102217341D02*
X124557143Y-102288769D01*
X125200000Y-103645912D02*
X125200000Y-102145912D01*
X126057143Y-103645912D02*
X125414286Y-102788769D01*
X126057143Y-102145912D02*
X125200000Y-103003055D01*
X118985714Y-105989400D02*
X119200000Y-106060828D01*
X119200000Y-106060828D02*
X119557142Y-106060828D01*
X119557142Y-106060828D02*
X119700000Y-105989400D01*
X119700000Y-105989400D02*
X119771428Y-105917971D01*
X119771428Y-105917971D02*
X119842857Y-105775114D01*
X119842857Y-105775114D02*
X119842857Y-105632257D01*
X119842857Y-105632257D02*
X119771428Y-105489400D01*
X119771428Y-105489400D02*
X119700000Y-105417971D01*
X119700000Y-105417971D02*
X119557142Y-105346542D01*
X119557142Y-105346542D02*
X119271428Y-105275114D01*
X119271428Y-105275114D02*
X119128571Y-105203685D01*
X119128571Y-105203685D02*
X119057142Y-105132257D01*
X119057142Y-105132257D02*
X118985714Y-104989400D01*
X118985714Y-104989400D02*
X118985714Y-104846542D01*
X118985714Y-104846542D02*
X119057142Y-104703685D01*
X119057142Y-104703685D02*
X119128571Y-104632257D01*
X119128571Y-104632257D02*
X119271428Y-104560828D01*
X119271428Y-104560828D02*
X119628571Y-104560828D01*
X119628571Y-104560828D02*
X119842857Y-104632257D01*
X120485713Y-105275114D02*
X120985713Y-105275114D01*
X121199999Y-106060828D02*
X120485713Y-106060828D01*
X120485713Y-106060828D02*
X120485713Y-104560828D01*
X120485713Y-104560828D02*
X121199999Y-104560828D01*
X122557142Y-106060828D02*
X121842856Y-106060828D01*
X121842856Y-106060828D02*
X121842856Y-104560828D01*
X123057142Y-105275114D02*
X123557142Y-105275114D01*
X123771428Y-106060828D02*
X123057142Y-106060828D01*
X123057142Y-106060828D02*
X123057142Y-104560828D01*
X123057142Y-104560828D02*
X123771428Y-104560828D01*
X125271428Y-105917971D02*
X125200000Y-105989400D01*
X125200000Y-105989400D02*
X124985714Y-106060828D01*
X124985714Y-106060828D02*
X124842857Y-106060828D01*
X124842857Y-106060828D02*
X124628571Y-105989400D01*
X124628571Y-105989400D02*
X124485714Y-105846542D01*
X124485714Y-105846542D02*
X124414285Y-105703685D01*
X124414285Y-105703685D02*
X124342857Y-105417971D01*
X124342857Y-105417971D02*
X124342857Y-105203685D01*
X124342857Y-105203685D02*
X124414285Y-104917971D01*
X124414285Y-104917971D02*
X124485714Y-104775114D01*
X124485714Y-104775114D02*
X124628571Y-104632257D01*
X124628571Y-104632257D02*
X124842857Y-104560828D01*
X124842857Y-104560828D02*
X124985714Y-104560828D01*
X124985714Y-104560828D02*
X125200000Y-104632257D01*
X125200000Y-104632257D02*
X125271428Y-104703685D01*
X125700000Y-104560828D02*
X126557143Y-104560828D01*
X126128571Y-106060828D02*
X126128571Y-104560828D01*
D11*
X67740809Y-70924098D02*
X67788428Y-70781241D01*
X67788428Y-70781241D02*
X67836047Y-70733622D01*
X67836047Y-70733622D02*
X67931285Y-70686003D01*
X67931285Y-70686003D02*
X68074142Y-70686003D01*
X68074142Y-70686003D02*
X68169380Y-70733622D01*
X68169380Y-70733622D02*
X68217000Y-70781241D01*
X68217000Y-70781241D02*
X68264619Y-70876479D01*
X68264619Y-70876479D02*
X68264619Y-71257431D01*
X68264619Y-71257431D02*
X67264619Y-71257431D01*
X67264619Y-71257431D02*
X67264619Y-70924098D01*
X67264619Y-70924098D02*
X67312238Y-70828860D01*
X67312238Y-70828860D02*
X67359857Y-70781241D01*
X67359857Y-70781241D02*
X67455095Y-70733622D01*
X67455095Y-70733622D02*
X67550333Y-70733622D01*
X67550333Y-70733622D02*
X67645571Y-70781241D01*
X67645571Y-70781241D02*
X67693190Y-70828860D01*
X67693190Y-70828860D02*
X67740809Y-70924098D01*
X67740809Y-70924098D02*
X67740809Y-71257431D01*
X67978904Y-70305050D02*
X67978904Y-69828860D01*
X68264619Y-70400288D02*
X67264619Y-70066955D01*
X67264619Y-70066955D02*
X68264619Y-69733622D01*
X68217000Y-69447907D02*
X68264619Y-69305050D01*
X68264619Y-69305050D02*
X68264619Y-69066955D01*
X68264619Y-69066955D02*
X68217000Y-68971717D01*
X68217000Y-68971717D02*
X68169380Y-68924098D01*
X68169380Y-68924098D02*
X68074142Y-68876479D01*
X68074142Y-68876479D02*
X67978904Y-68876479D01*
X67978904Y-68876479D02*
X67883666Y-68924098D01*
X67883666Y-68924098D02*
X67836047Y-68971717D01*
X67836047Y-68971717D02*
X67788428Y-69066955D01*
X67788428Y-69066955D02*
X67740809Y-69257431D01*
X67740809Y-69257431D02*
X67693190Y-69352669D01*
X67693190Y-69352669D02*
X67645571Y-69400288D01*
X67645571Y-69400288D02*
X67550333Y-69447907D01*
X67550333Y-69447907D02*
X67455095Y-69447907D01*
X67455095Y-69447907D02*
X67359857Y-69400288D01*
X67359857Y-69400288D02*
X67312238Y-69352669D01*
X67312238Y-69352669D02*
X67264619Y-69257431D01*
X67264619Y-69257431D02*
X67264619Y-69019336D01*
X67264619Y-69019336D02*
X67312238Y-68876479D01*
X67740809Y-68447907D02*
X67740809Y-68114574D01*
X68264619Y-67971717D02*
X68264619Y-68447907D01*
X68264619Y-68447907D02*
X67264619Y-68447907D01*
X67264619Y-68447907D02*
X67264619Y-67971717D01*
X67740809Y-67543145D02*
X67740809Y-66781241D01*
X68026523Y-66781241D02*
X68026523Y-67543145D01*
X68169380Y-65733622D02*
X68217000Y-65781241D01*
X68217000Y-65781241D02*
X68264619Y-65924098D01*
X68264619Y-65924098D02*
X68264619Y-66019336D01*
X68264619Y-66019336D02*
X68217000Y-66162193D01*
X68217000Y-66162193D02*
X68121761Y-66257431D01*
X68121761Y-66257431D02*
X68026523Y-66305050D01*
X68026523Y-66305050D02*
X67836047Y-66352669D01*
X67836047Y-66352669D02*
X67693190Y-66352669D01*
X67693190Y-66352669D02*
X67502714Y-66305050D01*
X67502714Y-66305050D02*
X67407476Y-66257431D01*
X67407476Y-66257431D02*
X67312238Y-66162193D01*
X67312238Y-66162193D02*
X67264619Y-66019336D01*
X67264619Y-66019336D02*
X67264619Y-65924098D01*
X67264619Y-65924098D02*
X67312238Y-65781241D01*
X67312238Y-65781241D02*
X67359857Y-65733622D01*
X68264619Y-64828860D02*
X68264619Y-65305050D01*
X68264619Y-65305050D02*
X67264619Y-65305050D01*
X68264619Y-64495526D02*
X67264619Y-64495526D01*
X68264619Y-63924098D02*
X67693190Y-64352669D01*
X67264619Y-63924098D02*
X67836047Y-64495526D01*
D12*
X67671428Y-170944875D02*
X67671428Y-169944875D01*
X67671428Y-169944875D02*
X68052380Y-169944875D01*
X68052380Y-169944875D02*
X68147618Y-169992494D01*
X68147618Y-169992494D02*
X68195237Y-170040113D01*
X68195237Y-170040113D02*
X68242856Y-170135351D01*
X68242856Y-170135351D02*
X68242856Y-170278208D01*
X68242856Y-170278208D02*
X68195237Y-170373446D01*
X68195237Y-170373446D02*
X68147618Y-170421065D01*
X68147618Y-170421065D02*
X68052380Y-170468684D01*
X68052380Y-170468684D02*
X67671428Y-170468684D01*
X68623809Y-170659160D02*
X69099999Y-170659160D01*
X68528571Y-170944875D02*
X68861904Y-169944875D01*
X68861904Y-169944875D02*
X69195237Y-170944875D01*
X69385714Y-169944875D02*
X69957142Y-169944875D01*
X69671428Y-170944875D02*
X69671428Y-169944875D01*
X70147619Y-169944875D02*
X70719047Y-169944875D01*
X70433333Y-170944875D02*
X70433333Y-169944875D01*
X71052381Y-170421065D02*
X71385714Y-170421065D01*
X71528571Y-170944875D02*
X71052381Y-170944875D01*
X71052381Y-170944875D02*
X71052381Y-169944875D01*
X71052381Y-169944875D02*
X71528571Y-169944875D01*
X72528571Y-170944875D02*
X72195238Y-170468684D01*
X71957143Y-170944875D02*
X71957143Y-169944875D01*
X71957143Y-169944875D02*
X72338095Y-169944875D01*
X72338095Y-169944875D02*
X72433333Y-169992494D01*
X72433333Y-169992494D02*
X72480952Y-170040113D01*
X72480952Y-170040113D02*
X72528571Y-170135351D01*
X72528571Y-170135351D02*
X72528571Y-170278208D01*
X72528571Y-170278208D02*
X72480952Y-170373446D01*
X72480952Y-170373446D02*
X72433333Y-170421065D01*
X72433333Y-170421065D02*
X72338095Y-170468684D01*
X72338095Y-170468684D02*
X71957143Y-170468684D01*
X72957143Y-170944875D02*
X72957143Y-169944875D01*
X72957143Y-169944875D02*
X73528571Y-170944875D01*
X73528571Y-170944875D02*
X73528571Y-169944875D01*
X66385714Y-172507200D02*
X66528571Y-172554819D01*
X66528571Y-172554819D02*
X66766666Y-172554819D01*
X66766666Y-172554819D02*
X66861904Y-172507200D01*
X66861904Y-172507200D02*
X66909523Y-172459580D01*
X66909523Y-172459580D02*
X66957142Y-172364342D01*
X66957142Y-172364342D02*
X66957142Y-172269104D01*
X66957142Y-172269104D02*
X66909523Y-172173866D01*
X66909523Y-172173866D02*
X66861904Y-172126247D01*
X66861904Y-172126247D02*
X66766666Y-172078628D01*
X66766666Y-172078628D02*
X66576190Y-172031009D01*
X66576190Y-172031009D02*
X66480952Y-171983390D01*
X66480952Y-171983390D02*
X66433333Y-171935771D01*
X66433333Y-171935771D02*
X66385714Y-171840533D01*
X66385714Y-171840533D02*
X66385714Y-171745295D01*
X66385714Y-171745295D02*
X66433333Y-171650057D01*
X66433333Y-171650057D02*
X66480952Y-171602438D01*
X66480952Y-171602438D02*
X66576190Y-171554819D01*
X66576190Y-171554819D02*
X66814285Y-171554819D01*
X66814285Y-171554819D02*
X66957142Y-171602438D01*
X67385714Y-172031009D02*
X67719047Y-172031009D01*
X67861904Y-172554819D02*
X67385714Y-172554819D01*
X67385714Y-172554819D02*
X67385714Y-171554819D01*
X67385714Y-171554819D02*
X67861904Y-171554819D01*
X68957142Y-172650057D02*
X68861904Y-172602438D01*
X68861904Y-172602438D02*
X68766666Y-172507200D01*
X68766666Y-172507200D02*
X68623809Y-172364342D01*
X68623809Y-172364342D02*
X68528571Y-172316723D01*
X68528571Y-172316723D02*
X68433333Y-172316723D01*
X68480952Y-172554819D02*
X68385714Y-172507200D01*
X68385714Y-172507200D02*
X68290476Y-172411961D01*
X68290476Y-172411961D02*
X68242857Y-172221485D01*
X68242857Y-172221485D02*
X68242857Y-171888152D01*
X68242857Y-171888152D02*
X68290476Y-171697676D01*
X68290476Y-171697676D02*
X68385714Y-171602438D01*
X68385714Y-171602438D02*
X68480952Y-171554819D01*
X68480952Y-171554819D02*
X68671428Y-171554819D01*
X68671428Y-171554819D02*
X68766666Y-171602438D01*
X68766666Y-171602438D02*
X68861904Y-171697676D01*
X68861904Y-171697676D02*
X68909523Y-171888152D01*
X68909523Y-171888152D02*
X68909523Y-172221485D01*
X68909523Y-172221485D02*
X68861904Y-172411961D01*
X68861904Y-172411961D02*
X68766666Y-172507200D01*
X68766666Y-172507200D02*
X68671428Y-172554819D01*
X68671428Y-172554819D02*
X68480952Y-172554819D01*
X69338095Y-171554819D02*
X69338095Y-172364342D01*
X69338095Y-172364342D02*
X69385714Y-172459580D01*
X69385714Y-172459580D02*
X69433333Y-172507200D01*
X69433333Y-172507200D02*
X69528571Y-172554819D01*
X69528571Y-172554819D02*
X69719047Y-172554819D01*
X69719047Y-172554819D02*
X69814285Y-172507200D01*
X69814285Y-172507200D02*
X69861904Y-172459580D01*
X69861904Y-172459580D02*
X69909523Y-172364342D01*
X69909523Y-172364342D02*
X69909523Y-171554819D01*
X70385714Y-172031009D02*
X70719047Y-172031009D01*
X70861904Y-172554819D02*
X70385714Y-172554819D01*
X70385714Y-172554819D02*
X70385714Y-171554819D01*
X70385714Y-171554819D02*
X70861904Y-171554819D01*
X71290476Y-172554819D02*
X71290476Y-171554819D01*
X71290476Y-171554819D02*
X71861904Y-172554819D01*
X71861904Y-172554819D02*
X71861904Y-171554819D01*
X72909523Y-172459580D02*
X72861904Y-172507200D01*
X72861904Y-172507200D02*
X72719047Y-172554819D01*
X72719047Y-172554819D02*
X72623809Y-172554819D01*
X72623809Y-172554819D02*
X72480952Y-172507200D01*
X72480952Y-172507200D02*
X72385714Y-172411961D01*
X72385714Y-172411961D02*
X72338095Y-172316723D01*
X72338095Y-172316723D02*
X72290476Y-172126247D01*
X72290476Y-172126247D02*
X72290476Y-171983390D01*
X72290476Y-171983390D02*
X72338095Y-171792914D01*
X72338095Y-171792914D02*
X72385714Y-171697676D01*
X72385714Y-171697676D02*
X72480952Y-171602438D01*
X72480952Y-171602438D02*
X72623809Y-171554819D01*
X72623809Y-171554819D02*
X72719047Y-171554819D01*
X72719047Y-171554819D02*
X72861904Y-171602438D01*
X72861904Y-171602438D02*
X72909523Y-171650057D01*
X73338095Y-172031009D02*
X73671428Y-172031009D01*
X73814285Y-172554819D02*
X73338095Y-172554819D01*
X73338095Y-172554819D02*
X73338095Y-171554819D01*
X73338095Y-171554819D02*
X73814285Y-171554819D01*
X74814285Y-172554819D02*
X74480952Y-172078628D01*
X74242857Y-172554819D02*
X74242857Y-171554819D01*
X74242857Y-171554819D02*
X74623809Y-171554819D01*
X74623809Y-171554819D02*
X74719047Y-171602438D01*
X74719047Y-171602438D02*
X74766666Y-171650057D01*
X74766666Y-171650057D02*
X74814285Y-171745295D01*
X74814285Y-171745295D02*
X74814285Y-171888152D01*
X74814285Y-171888152D02*
X74766666Y-171983390D01*
X74766666Y-171983390D02*
X74719047Y-172031009D01*
X74719047Y-172031009D02*
X74623809Y-172078628D01*
X74623809Y-172078628D02*
X74242857Y-172078628D01*
X69790476Y-173164763D02*
X70123809Y-174164763D01*
X70123809Y-174164763D02*
X70457142Y-173164763D01*
X70742857Y-173260001D02*
X70790476Y-173212382D01*
X70790476Y-173212382D02*
X70885714Y-173164763D01*
X70885714Y-173164763D02*
X71123809Y-173164763D01*
X71123809Y-173164763D02*
X71219047Y-173212382D01*
X71219047Y-173212382D02*
X71266666Y-173260001D01*
X71266666Y-173260001D02*
X71314285Y-173355239D01*
X71314285Y-173355239D02*
X71314285Y-173450477D01*
X71314285Y-173450477D02*
X71266666Y-173593334D01*
X71266666Y-173593334D02*
X70695238Y-174164763D01*
X70695238Y-174164763D02*
X71314285Y-174164763D01*
D11*
X119602568Y-97324619D02*
X119602568Y-96324619D01*
X120078758Y-97324619D02*
X120078758Y-96324619D01*
X120078758Y-96324619D02*
X120650186Y-97324619D01*
X120650186Y-97324619D02*
X120650186Y-96324619D01*
X120983520Y-96324619D02*
X121554948Y-96324619D01*
X121269234Y-97324619D02*
X121269234Y-96324619D01*
X121888282Y-96800809D02*
X122221615Y-96800809D01*
X122364472Y-97324619D02*
X121888282Y-97324619D01*
X121888282Y-97324619D02*
X121888282Y-96324619D01*
X121888282Y-96324619D02*
X122364472Y-96324619D01*
X123364472Y-97324619D02*
X123031139Y-96848428D01*
X122793044Y-97324619D02*
X122793044Y-96324619D01*
X122793044Y-96324619D02*
X123173996Y-96324619D01*
X123173996Y-96324619D02*
X123269234Y-96372238D01*
X123269234Y-96372238D02*
X123316853Y-96419857D01*
X123316853Y-96419857D02*
X123364472Y-96515095D01*
X123364472Y-96515095D02*
X123364472Y-96657952D01*
X123364472Y-96657952D02*
X123316853Y-96753190D01*
X123316853Y-96753190D02*
X123269234Y-96800809D01*
X123269234Y-96800809D02*
X123173996Y-96848428D01*
X123173996Y-96848428D02*
X122793044Y-96848428D01*
X123793044Y-97324619D02*
X123793044Y-96324619D01*
X123793044Y-96324619D02*
X124364472Y-97324619D01*
X124364472Y-97324619D02*
X124364472Y-96324619D01*
X124793044Y-97038904D02*
X125269234Y-97038904D01*
X124697806Y-97324619D02*
X125031139Y-96324619D01*
X125031139Y-96324619D02*
X125364472Y-97324619D01*
X126173996Y-97324619D02*
X125697806Y-97324619D01*
X125697806Y-97324619D02*
X125697806Y-96324619D01*
X74290476Y-59190865D02*
X74433333Y-59238484D01*
X74433333Y-59238484D02*
X74480952Y-59286103D01*
X74480952Y-59286103D02*
X74528571Y-59381341D01*
X74528571Y-59381341D02*
X74528571Y-59524198D01*
X74528571Y-59524198D02*
X74480952Y-59619436D01*
X74480952Y-59619436D02*
X74433333Y-59667056D01*
X74433333Y-59667056D02*
X74338095Y-59714675D01*
X74338095Y-59714675D02*
X73957143Y-59714675D01*
X73957143Y-59714675D02*
X73957143Y-58714675D01*
X73957143Y-58714675D02*
X74290476Y-58714675D01*
X74290476Y-58714675D02*
X74385714Y-58762294D01*
X74385714Y-58762294D02*
X74433333Y-58809913D01*
X74433333Y-58809913D02*
X74480952Y-58905151D01*
X74480952Y-58905151D02*
X74480952Y-59000389D01*
X74480952Y-59000389D02*
X74433333Y-59095627D01*
X74433333Y-59095627D02*
X74385714Y-59143246D01*
X74385714Y-59143246D02*
X74290476Y-59190865D01*
X74290476Y-59190865D02*
X73957143Y-59190865D01*
X74909524Y-59428960D02*
X75385714Y-59428960D01*
X74814286Y-59714675D02*
X75147619Y-58714675D01*
X75147619Y-58714675D02*
X75480952Y-59714675D01*
X75766667Y-59667056D02*
X75909524Y-59714675D01*
X75909524Y-59714675D02*
X76147619Y-59714675D01*
X76147619Y-59714675D02*
X76242857Y-59667056D01*
X76242857Y-59667056D02*
X76290476Y-59619436D01*
X76290476Y-59619436D02*
X76338095Y-59524198D01*
X76338095Y-59524198D02*
X76338095Y-59428960D01*
X76338095Y-59428960D02*
X76290476Y-59333722D01*
X76290476Y-59333722D02*
X76242857Y-59286103D01*
X76242857Y-59286103D02*
X76147619Y-59238484D01*
X76147619Y-59238484D02*
X75957143Y-59190865D01*
X75957143Y-59190865D02*
X75861905Y-59143246D01*
X75861905Y-59143246D02*
X75814286Y-59095627D01*
X75814286Y-59095627D02*
X75766667Y-59000389D01*
X75766667Y-59000389D02*
X75766667Y-58905151D01*
X75766667Y-58905151D02*
X75814286Y-58809913D01*
X75814286Y-58809913D02*
X75861905Y-58762294D01*
X75861905Y-58762294D02*
X75957143Y-58714675D01*
X75957143Y-58714675D02*
X76195238Y-58714675D01*
X76195238Y-58714675D02*
X76338095Y-58762294D01*
X76766667Y-59190865D02*
X77100000Y-59190865D01*
X77242857Y-59714675D02*
X76766667Y-59714675D01*
X76766667Y-59714675D02*
X76766667Y-58714675D01*
X76766667Y-58714675D02*
X77242857Y-58714675D01*
X77671429Y-59190865D02*
X78433334Y-59190865D01*
X78433334Y-59476579D02*
X77671429Y-59476579D01*
X79480952Y-59619436D02*
X79433333Y-59667056D01*
X79433333Y-59667056D02*
X79290476Y-59714675D01*
X79290476Y-59714675D02*
X79195238Y-59714675D01*
X79195238Y-59714675D02*
X79052381Y-59667056D01*
X79052381Y-59667056D02*
X78957143Y-59571817D01*
X78957143Y-59571817D02*
X78909524Y-59476579D01*
X78909524Y-59476579D02*
X78861905Y-59286103D01*
X78861905Y-59286103D02*
X78861905Y-59143246D01*
X78861905Y-59143246D02*
X78909524Y-58952770D01*
X78909524Y-58952770D02*
X78957143Y-58857532D01*
X78957143Y-58857532D02*
X79052381Y-58762294D01*
X79052381Y-58762294D02*
X79195238Y-58714675D01*
X79195238Y-58714675D02*
X79290476Y-58714675D01*
X79290476Y-58714675D02*
X79433333Y-58762294D01*
X79433333Y-58762294D02*
X79480952Y-58809913D01*
X80385714Y-59714675D02*
X79909524Y-59714675D01*
X79909524Y-59714675D02*
X79909524Y-58714675D01*
X80719048Y-59714675D02*
X80719048Y-58714675D01*
X81290476Y-59714675D02*
X80861905Y-59143246D01*
X81290476Y-58714675D02*
X80719048Y-59286103D01*
X82433333Y-58667056D02*
X81576191Y-59952770D01*
X82719048Y-58809913D02*
X82766667Y-58762294D01*
X82766667Y-58762294D02*
X82861905Y-58714675D01*
X82861905Y-58714675D02*
X83100000Y-58714675D01*
X83100000Y-58714675D02*
X83195238Y-58762294D01*
X83195238Y-58762294D02*
X83242857Y-58809913D01*
X83242857Y-58809913D02*
X83290476Y-58905151D01*
X83290476Y-58905151D02*
X83290476Y-59000389D01*
X83290476Y-59000389D02*
X83242857Y-59143246D01*
X83242857Y-59143246D02*
X82671429Y-59714675D01*
X82671429Y-59714675D02*
X83290476Y-59714675D01*
X78266667Y-60324619D02*
X78600000Y-61324619D01*
X78600000Y-61324619D02*
X78933333Y-60324619D01*
D10*
X87654510Y-128500828D02*
X87654510Y-127000828D01*
X87654510Y-127000828D02*
X88154510Y-128072257D01*
X88154510Y-128072257D02*
X88654510Y-127000828D01*
X88654510Y-127000828D02*
X88654510Y-128500828D01*
X89654511Y-127000828D02*
X89940225Y-127000828D01*
X89940225Y-127000828D02*
X90083082Y-127072257D01*
X90083082Y-127072257D02*
X90225939Y-127215114D01*
X90225939Y-127215114D02*
X90297368Y-127500828D01*
X90297368Y-127500828D02*
X90297368Y-128000828D01*
X90297368Y-128000828D02*
X90225939Y-128286542D01*
X90225939Y-128286542D02*
X90083082Y-128429400D01*
X90083082Y-128429400D02*
X89940225Y-128500828D01*
X89940225Y-128500828D02*
X89654511Y-128500828D01*
X89654511Y-128500828D02*
X89511654Y-128429400D01*
X89511654Y-128429400D02*
X89368796Y-128286542D01*
X89368796Y-128286542D02*
X89297368Y-128000828D01*
X89297368Y-128000828D02*
X89297368Y-127500828D01*
X89297368Y-127500828D02*
X89368796Y-127215114D01*
X89368796Y-127215114D02*
X89511654Y-127072257D01*
X89511654Y-127072257D02*
X89654511Y-127000828D01*
X90940225Y-128500828D02*
X90940225Y-127000828D01*
X90940225Y-127000828D02*
X91297368Y-127000828D01*
X91297368Y-127000828D02*
X91511654Y-127072257D01*
X91511654Y-127072257D02*
X91654511Y-127215114D01*
X91654511Y-127215114D02*
X91725940Y-127357971D01*
X91725940Y-127357971D02*
X91797368Y-127643685D01*
X91797368Y-127643685D02*
X91797368Y-127857971D01*
X91797368Y-127857971D02*
X91725940Y-128143685D01*
X91725940Y-128143685D02*
X91654511Y-128286542D01*
X91654511Y-128286542D02*
X91511654Y-128429400D01*
X91511654Y-128429400D02*
X91297368Y-128500828D01*
X91297368Y-128500828D02*
X90940225Y-128500828D01*
X92440225Y-127715114D02*
X92940225Y-127715114D01*
X93154511Y-128500828D02*
X92440225Y-128500828D01*
X92440225Y-128500828D02*
X92440225Y-127000828D01*
X92440225Y-127000828D02*
X93154511Y-127000828D01*
X102811653Y-172157971D02*
X102740225Y-172229400D01*
X102740225Y-172229400D02*
X102525939Y-172300828D01*
X102525939Y-172300828D02*
X102383082Y-172300828D01*
X102383082Y-172300828D02*
X102168796Y-172229400D01*
X102168796Y-172229400D02*
X102025939Y-172086542D01*
X102025939Y-172086542D02*
X101954510Y-171943685D01*
X101954510Y-171943685D02*
X101883082Y-171657971D01*
X101883082Y-171657971D02*
X101883082Y-171443685D01*
X101883082Y-171443685D02*
X101954510Y-171157971D01*
X101954510Y-171157971D02*
X102025939Y-171015114D01*
X102025939Y-171015114D02*
X102168796Y-170872257D01*
X102168796Y-170872257D02*
X102383082Y-170800828D01*
X102383082Y-170800828D02*
X102525939Y-170800828D01*
X102525939Y-170800828D02*
X102740225Y-170872257D01*
X102740225Y-170872257D02*
X102811653Y-170943685D01*
X103454510Y-172300828D02*
X103454510Y-170800828D01*
X103454510Y-171515114D02*
X104311653Y-171515114D01*
X104311653Y-172300828D02*
X104311653Y-170800828D01*
X104954511Y-170943685D02*
X105025939Y-170872257D01*
X105025939Y-170872257D02*
X105168797Y-170800828D01*
X105168797Y-170800828D02*
X105525939Y-170800828D01*
X105525939Y-170800828D02*
X105668797Y-170872257D01*
X105668797Y-170872257D02*
X105740225Y-170943685D01*
X105740225Y-170943685D02*
X105811654Y-171086542D01*
X105811654Y-171086542D02*
X105811654Y-171229400D01*
X105811654Y-171229400D02*
X105740225Y-171443685D01*
X105740225Y-171443685D02*
X104883082Y-172300828D01*
X104883082Y-172300828D02*
X105811654Y-172300828D01*
X102918082Y-70690828D02*
X103989510Y-70690828D01*
X103346653Y-70047971D02*
X102918082Y-71976542D01*
X103846653Y-71333685D02*
X102775225Y-71333685D01*
X103418082Y-71976542D02*
X103846653Y-70047971D01*
X104418082Y-71619400D02*
X104632368Y-71690828D01*
X104632368Y-71690828D02*
X104989510Y-71690828D01*
X104989510Y-71690828D02*
X105132368Y-71619400D01*
X105132368Y-71619400D02*
X105203796Y-71547971D01*
X105203796Y-71547971D02*
X105275225Y-71405114D01*
X105275225Y-71405114D02*
X105275225Y-71262257D01*
X105275225Y-71262257D02*
X105203796Y-71119400D01*
X105203796Y-71119400D02*
X105132368Y-71047971D01*
X105132368Y-71047971D02*
X104989510Y-70976542D01*
X104989510Y-70976542D02*
X104703796Y-70905114D01*
X104703796Y-70905114D02*
X104560939Y-70833685D01*
X104560939Y-70833685D02*
X104489510Y-70762257D01*
X104489510Y-70762257D02*
X104418082Y-70619400D01*
X104418082Y-70619400D02*
X104418082Y-70476542D01*
X104418082Y-70476542D02*
X104489510Y-70333685D01*
X104489510Y-70333685D02*
X104560939Y-70262257D01*
X104560939Y-70262257D02*
X104703796Y-70190828D01*
X104703796Y-70190828D02*
X105060939Y-70190828D01*
X105060939Y-70190828D02*
X105275225Y-70262257D01*
X105703796Y-70190828D02*
X106560939Y-70190828D01*
X106132367Y-71690828D02*
X106132367Y-70190828D01*
X107060938Y-70905114D02*
X107560938Y-70905114D01*
X107775224Y-71690828D02*
X107060938Y-71690828D01*
X107060938Y-71690828D02*
X107060938Y-70190828D01*
X107060938Y-70190828D02*
X107775224Y-70190828D01*
X108418081Y-71690828D02*
X108418081Y-70190828D01*
X108418081Y-70190828D02*
X108989510Y-70190828D01*
X108989510Y-70190828D02*
X109132367Y-70262257D01*
X109132367Y-70262257D02*
X109203796Y-70333685D01*
X109203796Y-70333685D02*
X109275224Y-70476542D01*
X109275224Y-70476542D02*
X109275224Y-70690828D01*
X109275224Y-70690828D02*
X109203796Y-70833685D01*
X109203796Y-70833685D02*
X109132367Y-70905114D01*
X109132367Y-70905114D02*
X108989510Y-70976542D01*
X108989510Y-70976542D02*
X108418081Y-70976542D01*
X109846653Y-71619400D02*
X110060939Y-71690828D01*
X110060939Y-71690828D02*
X110418081Y-71690828D01*
X110418081Y-71690828D02*
X110560939Y-71619400D01*
X110560939Y-71619400D02*
X110632367Y-71547971D01*
X110632367Y-71547971D02*
X110703796Y-71405114D01*
X110703796Y-71405114D02*
X110703796Y-71262257D01*
X110703796Y-71262257D02*
X110632367Y-71119400D01*
X110632367Y-71119400D02*
X110560939Y-71047971D01*
X110560939Y-71047971D02*
X110418081Y-70976542D01*
X110418081Y-70976542D02*
X110132367Y-70905114D01*
X110132367Y-70905114D02*
X109989510Y-70833685D01*
X109989510Y-70833685D02*
X109918081Y-70762257D01*
X109918081Y-70762257D02*
X109846653Y-70619400D01*
X109846653Y-70619400D02*
X109846653Y-70476542D01*
X109846653Y-70476542D02*
X109918081Y-70333685D01*
X109918081Y-70333685D02*
X109989510Y-70262257D01*
X109989510Y-70262257D02*
X110132367Y-70190828D01*
X110132367Y-70190828D02*
X110489510Y-70190828D01*
X110489510Y-70190828D02*
X110703796Y-70262257D01*
D11*
X89559190Y-63550476D02*
X89511571Y-63693333D01*
X89511571Y-63693333D02*
X89463952Y-63740952D01*
X89463952Y-63740952D02*
X89368714Y-63788571D01*
X89368714Y-63788571D02*
X89225857Y-63788571D01*
X89225857Y-63788571D02*
X89130619Y-63740952D01*
X89130619Y-63740952D02*
X89083000Y-63693333D01*
X89083000Y-63693333D02*
X89035380Y-63598095D01*
X89035380Y-63598095D02*
X89035380Y-63217143D01*
X89035380Y-63217143D02*
X90035380Y-63217143D01*
X90035380Y-63217143D02*
X90035380Y-63550476D01*
X90035380Y-63550476D02*
X89987761Y-63645714D01*
X89987761Y-63645714D02*
X89940142Y-63693333D01*
X89940142Y-63693333D02*
X89844904Y-63740952D01*
X89844904Y-63740952D02*
X89749666Y-63740952D01*
X89749666Y-63740952D02*
X89654428Y-63693333D01*
X89654428Y-63693333D02*
X89606809Y-63645714D01*
X89606809Y-63645714D02*
X89559190Y-63550476D01*
X89559190Y-63550476D02*
X89559190Y-63217143D01*
X89321095Y-64169524D02*
X89321095Y-64645714D01*
X89035380Y-64074286D02*
X90035380Y-64407619D01*
X90035380Y-64407619D02*
X89035380Y-64740952D01*
X89083000Y-65026667D02*
X89035380Y-65169524D01*
X89035380Y-65169524D02*
X89035380Y-65407619D01*
X89035380Y-65407619D02*
X89083000Y-65502857D01*
X89083000Y-65502857D02*
X89130619Y-65550476D01*
X89130619Y-65550476D02*
X89225857Y-65598095D01*
X89225857Y-65598095D02*
X89321095Y-65598095D01*
X89321095Y-65598095D02*
X89416333Y-65550476D01*
X89416333Y-65550476D02*
X89463952Y-65502857D01*
X89463952Y-65502857D02*
X89511571Y-65407619D01*
X89511571Y-65407619D02*
X89559190Y-65217143D01*
X89559190Y-65217143D02*
X89606809Y-65121905D01*
X89606809Y-65121905D02*
X89654428Y-65074286D01*
X89654428Y-65074286D02*
X89749666Y-65026667D01*
X89749666Y-65026667D02*
X89844904Y-65026667D01*
X89844904Y-65026667D02*
X89940142Y-65074286D01*
X89940142Y-65074286D02*
X89987761Y-65121905D01*
X89987761Y-65121905D02*
X90035380Y-65217143D01*
X90035380Y-65217143D02*
X90035380Y-65455238D01*
X90035380Y-65455238D02*
X89987761Y-65598095D01*
X89559190Y-66026667D02*
X89559190Y-66360000D01*
X89035380Y-66502857D02*
X89035380Y-66026667D01*
X89035380Y-66026667D02*
X90035380Y-66026667D01*
X90035380Y-66026667D02*
X90035380Y-66502857D01*
X89559190Y-66931429D02*
X89559190Y-67693334D01*
X89273476Y-67693334D02*
X89273476Y-66931429D01*
X89130619Y-68740952D02*
X89083000Y-68693333D01*
X89083000Y-68693333D02*
X89035380Y-68550476D01*
X89035380Y-68550476D02*
X89035380Y-68455238D01*
X89035380Y-68455238D02*
X89083000Y-68312381D01*
X89083000Y-68312381D02*
X89178238Y-68217143D01*
X89178238Y-68217143D02*
X89273476Y-68169524D01*
X89273476Y-68169524D02*
X89463952Y-68121905D01*
X89463952Y-68121905D02*
X89606809Y-68121905D01*
X89606809Y-68121905D02*
X89797285Y-68169524D01*
X89797285Y-68169524D02*
X89892523Y-68217143D01*
X89892523Y-68217143D02*
X89987761Y-68312381D01*
X89987761Y-68312381D02*
X90035380Y-68455238D01*
X90035380Y-68455238D02*
X90035380Y-68550476D01*
X90035380Y-68550476D02*
X89987761Y-68693333D01*
X89987761Y-68693333D02*
X89940142Y-68740952D01*
X89035380Y-69645714D02*
X89035380Y-69169524D01*
X89035380Y-69169524D02*
X90035380Y-69169524D01*
X89035380Y-69979048D02*
X90035380Y-69979048D01*
X89035380Y-70550476D02*
X89606809Y-70121905D01*
X90035380Y-70550476D02*
X89463952Y-69979048D01*
X90083000Y-71693333D02*
X88797285Y-70836191D01*
X89702047Y-72455238D02*
X89035380Y-72455238D01*
X90083000Y-72217143D02*
X89368714Y-71979048D01*
X89368714Y-71979048D02*
X89368714Y-72598095D01*
X89373996Y-108564619D02*
X89040663Y-108088428D01*
X88802568Y-108564619D02*
X88802568Y-107564619D01*
X88802568Y-107564619D02*
X89183520Y-107564619D01*
X89183520Y-107564619D02*
X89278758Y-107612238D01*
X89278758Y-107612238D02*
X89326377Y-107659857D01*
X89326377Y-107659857D02*
X89373996Y-107755095D01*
X89373996Y-107755095D02*
X89373996Y-107897952D01*
X89373996Y-107897952D02*
X89326377Y-107993190D01*
X89326377Y-107993190D02*
X89278758Y-108040809D01*
X89278758Y-108040809D02*
X89183520Y-108088428D01*
X89183520Y-108088428D02*
X88802568Y-108088428D01*
X89802568Y-107564619D02*
X89802568Y-108374142D01*
X89802568Y-108374142D02*
X89850187Y-108469380D01*
X89850187Y-108469380D02*
X89897806Y-108517000D01*
X89897806Y-108517000D02*
X89993044Y-108564619D01*
X89993044Y-108564619D02*
X90183520Y-108564619D01*
X90183520Y-108564619D02*
X90278758Y-108517000D01*
X90278758Y-108517000D02*
X90326377Y-108469380D01*
X90326377Y-108469380D02*
X90373996Y-108374142D01*
X90373996Y-108374142D02*
X90373996Y-107564619D01*
X90850187Y-108564619D02*
X90850187Y-107564619D01*
X90850187Y-107564619D02*
X91421615Y-108564619D01*
X91421615Y-108564619D02*
X91421615Y-107564619D01*
X83635901Y-102700809D02*
X83778758Y-102748428D01*
X83778758Y-102748428D02*
X83826377Y-102796047D01*
X83826377Y-102796047D02*
X83873996Y-102891285D01*
X83873996Y-102891285D02*
X83873996Y-103034142D01*
X83873996Y-103034142D02*
X83826377Y-103129380D01*
X83826377Y-103129380D02*
X83778758Y-103177000D01*
X83778758Y-103177000D02*
X83683520Y-103224619D01*
X83683520Y-103224619D02*
X83302568Y-103224619D01*
X83302568Y-103224619D02*
X83302568Y-102224619D01*
X83302568Y-102224619D02*
X83635901Y-102224619D01*
X83635901Y-102224619D02*
X83731139Y-102272238D01*
X83731139Y-102272238D02*
X83778758Y-102319857D01*
X83778758Y-102319857D02*
X83826377Y-102415095D01*
X83826377Y-102415095D02*
X83826377Y-102510333D01*
X83826377Y-102510333D02*
X83778758Y-102605571D01*
X83778758Y-102605571D02*
X83731139Y-102653190D01*
X83731139Y-102653190D02*
X83635901Y-102700809D01*
X83635901Y-102700809D02*
X83302568Y-102700809D01*
X84254949Y-102938904D02*
X84731139Y-102938904D01*
X84159711Y-103224619D02*
X84493044Y-102224619D01*
X84493044Y-102224619D02*
X84826377Y-103224619D01*
X85112092Y-103177000D02*
X85254949Y-103224619D01*
X85254949Y-103224619D02*
X85493044Y-103224619D01*
X85493044Y-103224619D02*
X85588282Y-103177000D01*
X85588282Y-103177000D02*
X85635901Y-103129380D01*
X85635901Y-103129380D02*
X85683520Y-103034142D01*
X85683520Y-103034142D02*
X85683520Y-102938904D01*
X85683520Y-102938904D02*
X85635901Y-102843666D01*
X85635901Y-102843666D02*
X85588282Y-102796047D01*
X85588282Y-102796047D02*
X85493044Y-102748428D01*
X85493044Y-102748428D02*
X85302568Y-102700809D01*
X85302568Y-102700809D02*
X85207330Y-102653190D01*
X85207330Y-102653190D02*
X85159711Y-102605571D01*
X85159711Y-102605571D02*
X85112092Y-102510333D01*
X85112092Y-102510333D02*
X85112092Y-102415095D01*
X85112092Y-102415095D02*
X85159711Y-102319857D01*
X85159711Y-102319857D02*
X85207330Y-102272238D01*
X85207330Y-102272238D02*
X85302568Y-102224619D01*
X85302568Y-102224619D02*
X85540663Y-102224619D01*
X85540663Y-102224619D02*
X85683520Y-102272238D01*
X86112092Y-102700809D02*
X86445425Y-102700809D01*
X86588282Y-103224619D02*
X86112092Y-103224619D01*
X86112092Y-103224619D02*
X86112092Y-102224619D01*
X86112092Y-102224619D02*
X86588282Y-102224619D01*
X87731139Y-102177000D02*
X86873997Y-103462714D01*
X88493044Y-102557952D02*
X88493044Y-103224619D01*
X88254949Y-102177000D02*
X88016854Y-102891285D01*
X88016854Y-102891285D02*
X88635901Y-102891285D01*
X88654949Y-124217000D02*
X88797806Y-124264619D01*
X88797806Y-124264619D02*
X89035901Y-124264619D01*
X89035901Y-124264619D02*
X89131139Y-124217000D01*
X89131139Y-124217000D02*
X89178758Y-124169380D01*
X89178758Y-124169380D02*
X89226377Y-124074142D01*
X89226377Y-124074142D02*
X89226377Y-123978904D01*
X89226377Y-123978904D02*
X89178758Y-123883666D01*
X89178758Y-123883666D02*
X89131139Y-123836047D01*
X89131139Y-123836047D02*
X89035901Y-123788428D01*
X89035901Y-123788428D02*
X88845425Y-123740809D01*
X88845425Y-123740809D02*
X88750187Y-123693190D01*
X88750187Y-123693190D02*
X88702568Y-123645571D01*
X88702568Y-123645571D02*
X88654949Y-123550333D01*
X88654949Y-123550333D02*
X88654949Y-123455095D01*
X88654949Y-123455095D02*
X88702568Y-123359857D01*
X88702568Y-123359857D02*
X88750187Y-123312238D01*
X88750187Y-123312238D02*
X88845425Y-123264619D01*
X88845425Y-123264619D02*
X89083520Y-123264619D01*
X89083520Y-123264619D02*
X89226377Y-123312238D01*
X89512092Y-123264619D02*
X90083520Y-123264619D01*
X89797806Y-124264619D02*
X89797806Y-123264619D01*
X90416854Y-123740809D02*
X90750187Y-123740809D01*
X90893044Y-124264619D02*
X90416854Y-124264619D01*
X90416854Y-124264619D02*
X90416854Y-123264619D01*
X90416854Y-123264619D02*
X90893044Y-123264619D01*
X91321616Y-124264619D02*
X91321616Y-123264619D01*
X91321616Y-123264619D02*
X91702568Y-123264619D01*
X91702568Y-123264619D02*
X91797806Y-123312238D01*
X91797806Y-123312238D02*
X91845425Y-123359857D01*
X91845425Y-123359857D02*
X91893044Y-123455095D01*
X91893044Y-123455095D02*
X91893044Y-123597952D01*
X91893044Y-123597952D02*
X91845425Y-123693190D01*
X91845425Y-123693190D02*
X91797806Y-123740809D01*
X91797806Y-123740809D02*
X91702568Y-123788428D01*
X91702568Y-123788428D02*
X91321616Y-123788428D01*
D10*
X67683082Y-133229400D02*
X67897368Y-133300828D01*
X67897368Y-133300828D02*
X68254510Y-133300828D01*
X68254510Y-133300828D02*
X68397368Y-133229400D01*
X68397368Y-133229400D02*
X68468796Y-133157971D01*
X68468796Y-133157971D02*
X68540225Y-133015114D01*
X68540225Y-133015114D02*
X68540225Y-132872257D01*
X68540225Y-132872257D02*
X68468796Y-132729400D01*
X68468796Y-132729400D02*
X68397368Y-132657971D01*
X68397368Y-132657971D02*
X68254510Y-132586542D01*
X68254510Y-132586542D02*
X67968796Y-132515114D01*
X67968796Y-132515114D02*
X67825939Y-132443685D01*
X67825939Y-132443685D02*
X67754510Y-132372257D01*
X67754510Y-132372257D02*
X67683082Y-132229400D01*
X67683082Y-132229400D02*
X67683082Y-132086542D01*
X67683082Y-132086542D02*
X67754510Y-131943685D01*
X67754510Y-131943685D02*
X67825939Y-131872257D01*
X67825939Y-131872257D02*
X67968796Y-131800828D01*
X67968796Y-131800828D02*
X68325939Y-131800828D01*
X68325939Y-131800828D02*
X68540225Y-131872257D01*
X69183081Y-133300828D02*
X69183081Y-131800828D01*
X69183081Y-132515114D02*
X70040224Y-132515114D01*
X70040224Y-133300828D02*
X70040224Y-131800828D01*
X70754510Y-133300828D02*
X70754510Y-131800828D01*
X71968796Y-132515114D02*
X71468796Y-132515114D01*
X71468796Y-133300828D02*
X71468796Y-131800828D01*
X71468796Y-131800828D02*
X72183082Y-131800828D01*
X72540225Y-131800828D02*
X73397368Y-131800828D01*
X72968796Y-133300828D02*
X72968796Y-131800828D01*
X85011653Y-106417971D02*
X84940225Y-106489400D01*
X84940225Y-106489400D02*
X84725939Y-106560828D01*
X84725939Y-106560828D02*
X84583082Y-106560828D01*
X84583082Y-106560828D02*
X84368796Y-106489400D01*
X84368796Y-106489400D02*
X84225939Y-106346542D01*
X84225939Y-106346542D02*
X84154510Y-106203685D01*
X84154510Y-106203685D02*
X84083082Y-105917971D01*
X84083082Y-105917971D02*
X84083082Y-105703685D01*
X84083082Y-105703685D02*
X84154510Y-105417971D01*
X84154510Y-105417971D02*
X84225939Y-105275114D01*
X84225939Y-105275114D02*
X84368796Y-105132257D01*
X84368796Y-105132257D02*
X84583082Y-105060828D01*
X84583082Y-105060828D02*
X84725939Y-105060828D01*
X84725939Y-105060828D02*
X84940225Y-105132257D01*
X84940225Y-105132257D02*
X85011653Y-105203685D01*
X86368796Y-106560828D02*
X85654510Y-106560828D01*
X85654510Y-106560828D02*
X85654510Y-105060828D01*
X87154511Y-105060828D02*
X87440225Y-105060828D01*
X87440225Y-105060828D02*
X87583082Y-105132257D01*
X87583082Y-105132257D02*
X87725939Y-105275114D01*
X87725939Y-105275114D02*
X87797368Y-105560828D01*
X87797368Y-105560828D02*
X87797368Y-106060828D01*
X87797368Y-106060828D02*
X87725939Y-106346542D01*
X87725939Y-106346542D02*
X87583082Y-106489400D01*
X87583082Y-106489400D02*
X87440225Y-106560828D01*
X87440225Y-106560828D02*
X87154511Y-106560828D01*
X87154511Y-106560828D02*
X87011654Y-106489400D01*
X87011654Y-106489400D02*
X86868796Y-106346542D01*
X86868796Y-106346542D02*
X86797368Y-106060828D01*
X86797368Y-106060828D02*
X86797368Y-105560828D01*
X86797368Y-105560828D02*
X86868796Y-105275114D01*
X86868796Y-105275114D02*
X87011654Y-105132257D01*
X87011654Y-105132257D02*
X87154511Y-105060828D01*
X89297368Y-106417971D02*
X89225940Y-106489400D01*
X89225940Y-106489400D02*
X89011654Y-106560828D01*
X89011654Y-106560828D02*
X88868797Y-106560828D01*
X88868797Y-106560828D02*
X88654511Y-106489400D01*
X88654511Y-106489400D02*
X88511654Y-106346542D01*
X88511654Y-106346542D02*
X88440225Y-106203685D01*
X88440225Y-106203685D02*
X88368797Y-105917971D01*
X88368797Y-105917971D02*
X88368797Y-105703685D01*
X88368797Y-105703685D02*
X88440225Y-105417971D01*
X88440225Y-105417971D02*
X88511654Y-105275114D01*
X88511654Y-105275114D02*
X88654511Y-105132257D01*
X88654511Y-105132257D02*
X88868797Y-105060828D01*
X88868797Y-105060828D02*
X89011654Y-105060828D01*
X89011654Y-105060828D02*
X89225940Y-105132257D01*
X89225940Y-105132257D02*
X89297368Y-105203685D01*
X89940225Y-106560828D02*
X89940225Y-105060828D01*
X90797368Y-106560828D02*
X90154511Y-105703685D01*
X90797368Y-105060828D02*
X89940225Y-105917971D01*
X92583082Y-106560828D02*
X92583082Y-105060828D01*
X92583082Y-105060828D02*
X92940225Y-105060828D01*
X92940225Y-105060828D02*
X93154511Y-105132257D01*
X93154511Y-105132257D02*
X93297368Y-105275114D01*
X93297368Y-105275114D02*
X93368797Y-105417971D01*
X93368797Y-105417971D02*
X93440225Y-105703685D01*
X93440225Y-105703685D02*
X93440225Y-105917971D01*
X93440225Y-105917971D02*
X93368797Y-106203685D01*
X93368797Y-106203685D02*
X93297368Y-106346542D01*
X93297368Y-106346542D02*
X93154511Y-106489400D01*
X93154511Y-106489400D02*
X92940225Y-106560828D01*
X92940225Y-106560828D02*
X92583082Y-106560828D01*
X94083082Y-106560828D02*
X94083082Y-105060828D01*
X94583083Y-105060828D02*
X95083083Y-106560828D01*
X95083083Y-106560828D02*
X95583083Y-105060828D01*
X96083082Y-106560828D02*
X96083082Y-105060828D01*
X96797368Y-106560828D02*
X96797368Y-105060828D01*
X96797368Y-105060828D02*
X97154511Y-105060828D01*
X97154511Y-105060828D02*
X97368797Y-105132257D01*
X97368797Y-105132257D02*
X97511654Y-105275114D01*
X97511654Y-105275114D02*
X97583083Y-105417971D01*
X97583083Y-105417971D02*
X97654511Y-105703685D01*
X97654511Y-105703685D02*
X97654511Y-105917971D01*
X97654511Y-105917971D02*
X97583083Y-106203685D01*
X97583083Y-106203685D02*
X97511654Y-106346542D01*
X97511654Y-106346542D02*
X97368797Y-106489400D01*
X97368797Y-106489400D02*
X97154511Y-106560828D01*
X97154511Y-106560828D02*
X96797368Y-106560828D01*
X98297368Y-105775114D02*
X98797368Y-105775114D01*
X99011654Y-106560828D02*
X98297368Y-106560828D01*
X98297368Y-106560828D02*
X98297368Y-105060828D01*
X98297368Y-105060828D02*
X99011654Y-105060828D01*
X100511654Y-106560828D02*
X100011654Y-105846542D01*
X99654511Y-106560828D02*
X99654511Y-105060828D01*
X99654511Y-105060828D02*
X100225940Y-105060828D01*
X100225940Y-105060828D02*
X100368797Y-105132257D01*
X100368797Y-105132257D02*
X100440226Y-105203685D01*
X100440226Y-105203685D02*
X100511654Y-105346542D01*
X100511654Y-105346542D02*
X100511654Y-105560828D01*
X100511654Y-105560828D02*
X100440226Y-105703685D01*
X100440226Y-105703685D02*
X100368797Y-105775114D01*
X100368797Y-105775114D02*
X100225940Y-105846542D01*
X100225940Y-105846542D02*
X99654511Y-105846542D01*
D11*
X71335901Y-102700809D02*
X71478758Y-102748428D01*
X71478758Y-102748428D02*
X71526377Y-102796047D01*
X71526377Y-102796047D02*
X71573996Y-102891285D01*
X71573996Y-102891285D02*
X71573996Y-103034142D01*
X71573996Y-103034142D02*
X71526377Y-103129380D01*
X71526377Y-103129380D02*
X71478758Y-103177000D01*
X71478758Y-103177000D02*
X71383520Y-103224619D01*
X71383520Y-103224619D02*
X71002568Y-103224619D01*
X71002568Y-103224619D02*
X71002568Y-102224619D01*
X71002568Y-102224619D02*
X71335901Y-102224619D01*
X71335901Y-102224619D02*
X71431139Y-102272238D01*
X71431139Y-102272238D02*
X71478758Y-102319857D01*
X71478758Y-102319857D02*
X71526377Y-102415095D01*
X71526377Y-102415095D02*
X71526377Y-102510333D01*
X71526377Y-102510333D02*
X71478758Y-102605571D01*
X71478758Y-102605571D02*
X71431139Y-102653190D01*
X71431139Y-102653190D02*
X71335901Y-102700809D01*
X71335901Y-102700809D02*
X71002568Y-102700809D01*
X71954949Y-102938904D02*
X72431139Y-102938904D01*
X71859711Y-103224619D02*
X72193044Y-102224619D01*
X72193044Y-102224619D02*
X72526377Y-103224619D01*
X72812092Y-103177000D02*
X72954949Y-103224619D01*
X72954949Y-103224619D02*
X73193044Y-103224619D01*
X73193044Y-103224619D02*
X73288282Y-103177000D01*
X73288282Y-103177000D02*
X73335901Y-103129380D01*
X73335901Y-103129380D02*
X73383520Y-103034142D01*
X73383520Y-103034142D02*
X73383520Y-102938904D01*
X73383520Y-102938904D02*
X73335901Y-102843666D01*
X73335901Y-102843666D02*
X73288282Y-102796047D01*
X73288282Y-102796047D02*
X73193044Y-102748428D01*
X73193044Y-102748428D02*
X73002568Y-102700809D01*
X73002568Y-102700809D02*
X72907330Y-102653190D01*
X72907330Y-102653190D02*
X72859711Y-102605571D01*
X72859711Y-102605571D02*
X72812092Y-102510333D01*
X72812092Y-102510333D02*
X72812092Y-102415095D01*
X72812092Y-102415095D02*
X72859711Y-102319857D01*
X72859711Y-102319857D02*
X72907330Y-102272238D01*
X72907330Y-102272238D02*
X73002568Y-102224619D01*
X73002568Y-102224619D02*
X73240663Y-102224619D01*
X73240663Y-102224619D02*
X73383520Y-102272238D01*
X73812092Y-102700809D02*
X74145425Y-102700809D01*
X74288282Y-103224619D02*
X73812092Y-103224619D01*
X73812092Y-103224619D02*
X73812092Y-102224619D01*
X73812092Y-102224619D02*
X74288282Y-102224619D01*
X75431139Y-102177000D02*
X74573997Y-103462714D01*
X75907330Y-102653190D02*
X75812092Y-102605571D01*
X75812092Y-102605571D02*
X75764473Y-102557952D01*
X75764473Y-102557952D02*
X75716854Y-102462714D01*
X75716854Y-102462714D02*
X75716854Y-102415095D01*
X75716854Y-102415095D02*
X75764473Y-102319857D01*
X75764473Y-102319857D02*
X75812092Y-102272238D01*
X75812092Y-102272238D02*
X75907330Y-102224619D01*
X75907330Y-102224619D02*
X76097806Y-102224619D01*
X76097806Y-102224619D02*
X76193044Y-102272238D01*
X76193044Y-102272238D02*
X76240663Y-102319857D01*
X76240663Y-102319857D02*
X76288282Y-102415095D01*
X76288282Y-102415095D02*
X76288282Y-102462714D01*
X76288282Y-102462714D02*
X76240663Y-102557952D01*
X76240663Y-102557952D02*
X76193044Y-102605571D01*
X76193044Y-102605571D02*
X76097806Y-102653190D01*
X76097806Y-102653190D02*
X75907330Y-102653190D01*
X75907330Y-102653190D02*
X75812092Y-102700809D01*
X75812092Y-102700809D02*
X75764473Y-102748428D01*
X75764473Y-102748428D02*
X75716854Y-102843666D01*
X75716854Y-102843666D02*
X75716854Y-103034142D01*
X75716854Y-103034142D02*
X75764473Y-103129380D01*
X75764473Y-103129380D02*
X75812092Y-103177000D01*
X75812092Y-103177000D02*
X75907330Y-103224619D01*
X75907330Y-103224619D02*
X76097806Y-103224619D01*
X76097806Y-103224619D02*
X76193044Y-103177000D01*
X76193044Y-103177000D02*
X76240663Y-103129380D01*
X76240663Y-103129380D02*
X76288282Y-103034142D01*
X76288282Y-103034142D02*
X76288282Y-102843666D01*
X76288282Y-102843666D02*
X76240663Y-102748428D01*
X76240663Y-102748428D02*
X76193044Y-102700809D01*
X76193044Y-102700809D02*
X76097806Y-102653190D01*
D13*
X129111666Y-48402419D02*
X129111666Y-49116704D01*
X129111666Y-49116704D02*
X129064047Y-49259561D01*
X129064047Y-49259561D02*
X128968809Y-49354800D01*
X128968809Y-49354800D02*
X128825952Y-49402419D01*
X128825952Y-49402419D02*
X128730714Y-49402419D01*
X129492619Y-48402419D02*
X130111666Y-48402419D01*
X130111666Y-48402419D02*
X129778333Y-48783371D01*
X129778333Y-48783371D02*
X129921190Y-48783371D01*
X129921190Y-48783371D02*
X130016428Y-48830990D01*
X130016428Y-48830990D02*
X130064047Y-48878609D01*
X130064047Y-48878609D02*
X130111666Y-48973847D01*
X130111666Y-48973847D02*
X130111666Y-49211942D01*
X130111666Y-49211942D02*
X130064047Y-49307180D01*
X130064047Y-49307180D02*
X130016428Y-49354800D01*
X130016428Y-49354800D02*
X129921190Y-49402419D01*
X129921190Y-49402419D02*
X129635476Y-49402419D01*
X129635476Y-49402419D02*
X129540238Y-49354800D01*
X129540238Y-49354800D02*
X129492619Y-49307180D01*
D12*
X80961905Y-83354819D02*
X80961905Y-82354819D01*
X80961905Y-82354819D02*
X81200000Y-82354819D01*
X81200000Y-82354819D02*
X81342857Y-82402438D01*
X81342857Y-82402438D02*
X81438095Y-82497676D01*
X81438095Y-82497676D02*
X81485714Y-82592914D01*
X81485714Y-82592914D02*
X81533333Y-82783390D01*
X81533333Y-82783390D02*
X81533333Y-82926247D01*
X81533333Y-82926247D02*
X81485714Y-83116723D01*
X81485714Y-83116723D02*
X81438095Y-83211961D01*
X81438095Y-83211961D02*
X81342857Y-83307200D01*
X81342857Y-83307200D02*
X81200000Y-83354819D01*
X81200000Y-83354819D02*
X80961905Y-83354819D01*
X82438095Y-82354819D02*
X81961905Y-82354819D01*
X81961905Y-82354819D02*
X81914286Y-82831009D01*
X81914286Y-82831009D02*
X81961905Y-82783390D01*
X81961905Y-82783390D02*
X82057143Y-82735771D01*
X82057143Y-82735771D02*
X82295238Y-82735771D01*
X82295238Y-82735771D02*
X82390476Y-82783390D01*
X82390476Y-82783390D02*
X82438095Y-82831009D01*
X82438095Y-82831009D02*
X82485714Y-82926247D01*
X82485714Y-82926247D02*
X82485714Y-83164342D01*
X82485714Y-83164342D02*
X82438095Y-83259580D01*
X82438095Y-83259580D02*
X82390476Y-83307200D01*
X82390476Y-83307200D02*
X82295238Y-83354819D01*
X82295238Y-83354819D02*
X82057143Y-83354819D01*
X82057143Y-83354819D02*
X81961905Y-83307200D01*
X81961905Y-83307200D02*
X81914286Y-83259580D01*
X92285714Y-46254819D02*
X92285714Y-45254819D01*
X92285714Y-45254819D02*
X92523809Y-45254819D01*
X92523809Y-45254819D02*
X92666666Y-45302438D01*
X92666666Y-45302438D02*
X92761904Y-45397676D01*
X92761904Y-45397676D02*
X92809523Y-45492914D01*
X92809523Y-45492914D02*
X92857142Y-45683390D01*
X92857142Y-45683390D02*
X92857142Y-45826247D01*
X92857142Y-45826247D02*
X92809523Y-46016723D01*
X92809523Y-46016723D02*
X92761904Y-46111961D01*
X92761904Y-46111961D02*
X92666666Y-46207200D01*
X92666666Y-46207200D02*
X92523809Y-46254819D01*
X92523809Y-46254819D02*
X92285714Y-46254819D01*
X93809523Y-46254819D02*
X93238095Y-46254819D01*
X93523809Y-46254819D02*
X93523809Y-45254819D01*
X93523809Y-45254819D02*
X93428571Y-45397676D01*
X93428571Y-45397676D02*
X93333333Y-45492914D01*
X93333333Y-45492914D02*
X93238095Y-45540533D01*
X94761904Y-46254819D02*
X94190476Y-46254819D01*
X94476190Y-46254819D02*
X94476190Y-45254819D01*
X94476190Y-45254819D02*
X94380952Y-45397676D01*
X94380952Y-45397676D02*
X94285714Y-45492914D01*
X94285714Y-45492914D02*
X94190476Y-45540533D01*
X94674819Y-32203333D02*
X95389104Y-32203333D01*
X95389104Y-32203333D02*
X95531961Y-32250952D01*
X95531961Y-32250952D02*
X95627200Y-32346190D01*
X95627200Y-32346190D02*
X95674819Y-32489047D01*
X95674819Y-32489047D02*
X95674819Y-32584285D01*
X94770057Y-31774761D02*
X94722438Y-31727142D01*
X94722438Y-31727142D02*
X94674819Y-31631904D01*
X94674819Y-31631904D02*
X94674819Y-31393809D01*
X94674819Y-31393809D02*
X94722438Y-31298571D01*
X94722438Y-31298571D02*
X94770057Y-31250952D01*
X94770057Y-31250952D02*
X94865295Y-31203333D01*
X94865295Y-31203333D02*
X94960533Y-31203333D01*
X94960533Y-31203333D02*
X95103390Y-31250952D01*
X95103390Y-31250952D02*
X95674819Y-31822380D01*
X95674819Y-31822380D02*
X95674819Y-31203333D01*
X73353650Y-78326713D02*
X73020317Y-77850522D01*
X72782222Y-78326713D02*
X72782222Y-77326713D01*
X72782222Y-77326713D02*
X73163174Y-77326713D01*
X73163174Y-77326713D02*
X73258412Y-77374332D01*
X73258412Y-77374332D02*
X73306031Y-77421951D01*
X73306031Y-77421951D02*
X73353650Y-77517189D01*
X73353650Y-77517189D02*
X73353650Y-77660046D01*
X73353650Y-77660046D02*
X73306031Y-77755284D01*
X73306031Y-77755284D02*
X73258412Y-77802903D01*
X73258412Y-77802903D02*
X73163174Y-77850522D01*
X73163174Y-77850522D02*
X72782222Y-77850522D01*
X73829841Y-78326713D02*
X74020317Y-78326713D01*
X74020317Y-78326713D02*
X74115555Y-78279094D01*
X74115555Y-78279094D02*
X74163174Y-78231474D01*
X74163174Y-78231474D02*
X74258412Y-78088617D01*
X74258412Y-78088617D02*
X74306031Y-77898141D01*
X74306031Y-77898141D02*
X74306031Y-77517189D01*
X74306031Y-77517189D02*
X74258412Y-77421951D01*
X74258412Y-77421951D02*
X74210793Y-77374332D01*
X74210793Y-77374332D02*
X74115555Y-77326713D01*
X74115555Y-77326713D02*
X73925079Y-77326713D01*
X73925079Y-77326713D02*
X73829841Y-77374332D01*
X73829841Y-77374332D02*
X73782222Y-77421951D01*
X73782222Y-77421951D02*
X73734603Y-77517189D01*
X73734603Y-77517189D02*
X73734603Y-77755284D01*
X73734603Y-77755284D02*
X73782222Y-77850522D01*
X73782222Y-77850522D02*
X73829841Y-77898141D01*
X73829841Y-77898141D02*
X73925079Y-77945760D01*
X73925079Y-77945760D02*
X74115555Y-77945760D01*
X74115555Y-77945760D02*
X74210793Y-77898141D01*
X74210793Y-77898141D02*
X74258412Y-77850522D01*
X74258412Y-77850522D02*
X74306031Y-77755284D01*
D13*
X130301666Y-148977481D02*
X130301666Y-149691766D01*
X130301666Y-149691766D02*
X130254047Y-149834623D01*
X130254047Y-149834623D02*
X130158809Y-149929862D01*
X130158809Y-149929862D02*
X130015952Y-149977481D01*
X130015952Y-149977481D02*
X129920714Y-149977481D01*
X130920714Y-149406052D02*
X130825476Y-149358433D01*
X130825476Y-149358433D02*
X130777857Y-149310814D01*
X130777857Y-149310814D02*
X130730238Y-149215576D01*
X130730238Y-149215576D02*
X130730238Y-149167957D01*
X130730238Y-149167957D02*
X130777857Y-149072719D01*
X130777857Y-149072719D02*
X130825476Y-149025100D01*
X130825476Y-149025100D02*
X130920714Y-148977481D01*
X130920714Y-148977481D02*
X131111190Y-148977481D01*
X131111190Y-148977481D02*
X131206428Y-149025100D01*
X131206428Y-149025100D02*
X131254047Y-149072719D01*
X131254047Y-149072719D02*
X131301666Y-149167957D01*
X131301666Y-149167957D02*
X131301666Y-149215576D01*
X131301666Y-149215576D02*
X131254047Y-149310814D01*
X131254047Y-149310814D02*
X131206428Y-149358433D01*
X131206428Y-149358433D02*
X131111190Y-149406052D01*
X131111190Y-149406052D02*
X130920714Y-149406052D01*
X130920714Y-149406052D02*
X130825476Y-149453671D01*
X130825476Y-149453671D02*
X130777857Y-149501290D01*
X130777857Y-149501290D02*
X130730238Y-149596528D01*
X130730238Y-149596528D02*
X130730238Y-149787004D01*
X130730238Y-149787004D02*
X130777857Y-149882242D01*
X130777857Y-149882242D02*
X130825476Y-149929862D01*
X130825476Y-149929862D02*
X130920714Y-149977481D01*
X130920714Y-149977481D02*
X131111190Y-149977481D01*
X131111190Y-149977481D02*
X131206428Y-149929862D01*
X131206428Y-149929862D02*
X131254047Y-149882242D01*
X131254047Y-149882242D02*
X131301666Y-149787004D01*
X131301666Y-149787004D02*
X131301666Y-149596528D01*
X131301666Y-149596528D02*
X131254047Y-149501290D01*
X131254047Y-149501290D02*
X131206428Y-149453671D01*
X131206428Y-149453671D02*
X131111190Y-149406052D01*
X77721666Y-97237481D02*
X77721666Y-97951766D01*
X77721666Y-97951766D02*
X77674047Y-98094623D01*
X77674047Y-98094623D02*
X77578809Y-98189862D01*
X77578809Y-98189862D02*
X77435952Y-98237481D01*
X77435952Y-98237481D02*
X77340714Y-98237481D01*
X78245476Y-98237481D02*
X78435952Y-98237481D01*
X78435952Y-98237481D02*
X78531190Y-98189862D01*
X78531190Y-98189862D02*
X78578809Y-98142242D01*
X78578809Y-98142242D02*
X78674047Y-97999385D01*
X78674047Y-97999385D02*
X78721666Y-97808909D01*
X78721666Y-97808909D02*
X78721666Y-97427957D01*
X78721666Y-97427957D02*
X78674047Y-97332719D01*
X78674047Y-97332719D02*
X78626428Y-97285100D01*
X78626428Y-97285100D02*
X78531190Y-97237481D01*
X78531190Y-97237481D02*
X78340714Y-97237481D01*
X78340714Y-97237481D02*
X78245476Y-97285100D01*
X78245476Y-97285100D02*
X78197857Y-97332719D01*
X78197857Y-97332719D02*
X78150238Y-97427957D01*
X78150238Y-97427957D02*
X78150238Y-97666052D01*
X78150238Y-97666052D02*
X78197857Y-97761290D01*
X78197857Y-97761290D02*
X78245476Y-97808909D01*
X78245476Y-97808909D02*
X78340714Y-97856528D01*
X78340714Y-97856528D02*
X78531190Y-97856528D01*
X78531190Y-97856528D02*
X78626428Y-97808909D01*
X78626428Y-97808909D02*
X78674047Y-97761290D01*
X78674047Y-97761290D02*
X78721666Y-97666052D01*
D12*
X97440242Y-100497415D02*
X97106909Y-100021224D01*
X96868814Y-100497415D02*
X96868814Y-99497415D01*
X96868814Y-99497415D02*
X97249766Y-99497415D01*
X97249766Y-99497415D02*
X97345004Y-99545034D01*
X97345004Y-99545034D02*
X97392623Y-99592653D01*
X97392623Y-99592653D02*
X97440242Y-99687891D01*
X97440242Y-99687891D02*
X97440242Y-99830748D01*
X97440242Y-99830748D02*
X97392623Y-99925986D01*
X97392623Y-99925986D02*
X97345004Y-99973605D01*
X97345004Y-99973605D02*
X97249766Y-100021224D01*
X97249766Y-100021224D02*
X96868814Y-100021224D01*
X98392623Y-100497415D02*
X97821195Y-100497415D01*
X98106909Y-100497415D02*
X98106909Y-99497415D01*
X98106909Y-99497415D02*
X98011671Y-99640272D01*
X98011671Y-99640272D02*
X97916433Y-99735510D01*
X97916433Y-99735510D02*
X97821195Y-99783129D01*
X99249766Y-99497415D02*
X99059290Y-99497415D01*
X99059290Y-99497415D02*
X98964052Y-99545034D01*
X98964052Y-99545034D02*
X98916433Y-99592653D01*
X98916433Y-99592653D02*
X98821195Y-99735510D01*
X98821195Y-99735510D02*
X98773576Y-99925986D01*
X98773576Y-99925986D02*
X98773576Y-100306938D01*
X98773576Y-100306938D02*
X98821195Y-100402176D01*
X98821195Y-100402176D02*
X98868814Y-100449796D01*
X98868814Y-100449796D02*
X98964052Y-100497415D01*
X98964052Y-100497415D02*
X99154528Y-100497415D01*
X99154528Y-100497415D02*
X99249766Y-100449796D01*
X99249766Y-100449796D02*
X99297385Y-100402176D01*
X99297385Y-100402176D02*
X99345004Y-100306938D01*
X99345004Y-100306938D02*
X99345004Y-100068843D01*
X99345004Y-100068843D02*
X99297385Y-99973605D01*
X99297385Y-99973605D02*
X99249766Y-99925986D01*
X99249766Y-99925986D02*
X99154528Y-99878367D01*
X99154528Y-99878367D02*
X98964052Y-99878367D01*
X98964052Y-99878367D02*
X98868814Y-99925986D01*
X98868814Y-99925986D02*
X98821195Y-99973605D01*
X98821195Y-99973605D02*
X98773576Y-100068843D01*
D13*
X101845476Y-97212543D02*
X101845476Y-97926828D01*
X101845476Y-97926828D02*
X101797857Y-98069685D01*
X101797857Y-98069685D02*
X101702619Y-98164924D01*
X101702619Y-98164924D02*
X101559762Y-98212543D01*
X101559762Y-98212543D02*
X101464524Y-98212543D01*
X102845476Y-98212543D02*
X102274048Y-98212543D01*
X102559762Y-98212543D02*
X102559762Y-97212543D01*
X102559762Y-97212543D02*
X102464524Y-97355400D01*
X102464524Y-97355400D02*
X102369286Y-97450638D01*
X102369286Y-97450638D02*
X102274048Y-97498257D01*
X103797857Y-98212543D02*
X103226429Y-98212543D01*
X103512143Y-98212543D02*
X103512143Y-97212543D01*
X103512143Y-97212543D02*
X103416905Y-97355400D01*
X103416905Y-97355400D02*
X103321667Y-97450638D01*
X103321667Y-97450638D02*
X103226429Y-97498257D01*
D12*
X71054819Y-68422857D02*
X70578628Y-68756190D01*
X71054819Y-68994285D02*
X70054819Y-68994285D01*
X70054819Y-68994285D02*
X70054819Y-68613333D01*
X70054819Y-68613333D02*
X70102438Y-68518095D01*
X70102438Y-68518095D02*
X70150057Y-68470476D01*
X70150057Y-68470476D02*
X70245295Y-68422857D01*
X70245295Y-68422857D02*
X70388152Y-68422857D01*
X70388152Y-68422857D02*
X70483390Y-68470476D01*
X70483390Y-68470476D02*
X70531009Y-68518095D01*
X70531009Y-68518095D02*
X70578628Y-68613333D01*
X70578628Y-68613333D02*
X70578628Y-68994285D01*
X70150057Y-68041904D02*
X70102438Y-67994285D01*
X70102438Y-67994285D02*
X70054819Y-67899047D01*
X70054819Y-67899047D02*
X70054819Y-67660952D01*
X70054819Y-67660952D02*
X70102438Y-67565714D01*
X70102438Y-67565714D02*
X70150057Y-67518095D01*
X70150057Y-67518095D02*
X70245295Y-67470476D01*
X70245295Y-67470476D02*
X70340533Y-67470476D01*
X70340533Y-67470476D02*
X70483390Y-67518095D01*
X70483390Y-67518095D02*
X71054819Y-68089523D01*
X71054819Y-68089523D02*
X71054819Y-67470476D01*
X70150057Y-67089523D02*
X70102438Y-67041904D01*
X70102438Y-67041904D02*
X70054819Y-66946666D01*
X70054819Y-66946666D02*
X70054819Y-66708571D01*
X70054819Y-66708571D02*
X70102438Y-66613333D01*
X70102438Y-66613333D02*
X70150057Y-66565714D01*
X70150057Y-66565714D02*
X70245295Y-66518095D01*
X70245295Y-66518095D02*
X70340533Y-66518095D01*
X70340533Y-66518095D02*
X70483390Y-66565714D01*
X70483390Y-66565714D02*
X71054819Y-67137142D01*
X71054819Y-67137142D02*
X71054819Y-66518095D01*
X98961905Y-134654819D02*
X98961905Y-133654819D01*
X98961905Y-133654819D02*
X99200000Y-133654819D01*
X99200000Y-133654819D02*
X99342857Y-133702438D01*
X99342857Y-133702438D02*
X99438095Y-133797676D01*
X99438095Y-133797676D02*
X99485714Y-133892914D01*
X99485714Y-133892914D02*
X99533333Y-134083390D01*
X99533333Y-134083390D02*
X99533333Y-134226247D01*
X99533333Y-134226247D02*
X99485714Y-134416723D01*
X99485714Y-134416723D02*
X99438095Y-134511961D01*
X99438095Y-134511961D02*
X99342857Y-134607200D01*
X99342857Y-134607200D02*
X99200000Y-134654819D01*
X99200000Y-134654819D02*
X98961905Y-134654819D01*
X99914286Y-133750057D02*
X99961905Y-133702438D01*
X99961905Y-133702438D02*
X100057143Y-133654819D01*
X100057143Y-133654819D02*
X100295238Y-133654819D01*
X100295238Y-133654819D02*
X100390476Y-133702438D01*
X100390476Y-133702438D02*
X100438095Y-133750057D01*
X100438095Y-133750057D02*
X100485714Y-133845295D01*
X100485714Y-133845295D02*
X100485714Y-133940533D01*
X100485714Y-133940533D02*
X100438095Y-134083390D01*
X100438095Y-134083390D02*
X99866667Y-134654819D01*
X99866667Y-134654819D02*
X100485714Y-134654819D01*
X114933333Y-136979580D02*
X114885714Y-137027200D01*
X114885714Y-137027200D02*
X114742857Y-137074819D01*
X114742857Y-137074819D02*
X114647619Y-137074819D01*
X114647619Y-137074819D02*
X114504762Y-137027200D01*
X114504762Y-137027200D02*
X114409524Y-136931961D01*
X114409524Y-136931961D02*
X114361905Y-136836723D01*
X114361905Y-136836723D02*
X114314286Y-136646247D01*
X114314286Y-136646247D02*
X114314286Y-136503390D01*
X114314286Y-136503390D02*
X114361905Y-136312914D01*
X114361905Y-136312914D02*
X114409524Y-136217676D01*
X114409524Y-136217676D02*
X114504762Y-136122438D01*
X114504762Y-136122438D02*
X114647619Y-136074819D01*
X114647619Y-136074819D02*
X114742857Y-136074819D01*
X114742857Y-136074819D02*
X114885714Y-136122438D01*
X114885714Y-136122438D02*
X114933333Y-136170057D01*
X115838095Y-136074819D02*
X115361905Y-136074819D01*
X115361905Y-136074819D02*
X115314286Y-136551009D01*
X115314286Y-136551009D02*
X115361905Y-136503390D01*
X115361905Y-136503390D02*
X115457143Y-136455771D01*
X115457143Y-136455771D02*
X115695238Y-136455771D01*
X115695238Y-136455771D02*
X115790476Y-136503390D01*
X115790476Y-136503390D02*
X115838095Y-136551009D01*
X115838095Y-136551009D02*
X115885714Y-136646247D01*
X115885714Y-136646247D02*
X115885714Y-136884342D01*
X115885714Y-136884342D02*
X115838095Y-136979580D01*
X115838095Y-136979580D02*
X115790476Y-137027200D01*
X115790476Y-137027200D02*
X115695238Y-137074819D01*
X115695238Y-137074819D02*
X115457143Y-137074819D01*
X115457143Y-137074819D02*
X115361905Y-137027200D01*
X115361905Y-137027200D02*
X115314286Y-136979580D01*
X96369104Y-119374285D02*
X96369104Y-118898095D01*
X96654819Y-119469523D02*
X95654819Y-119136190D01*
X95654819Y-119136190D02*
X96654819Y-118802857D01*
X96654819Y-117945714D02*
X96654819Y-118517142D01*
X96654819Y-118231428D02*
X95654819Y-118231428D01*
X95654819Y-118231428D02*
X95797676Y-118326666D01*
X95797676Y-118326666D02*
X95892914Y-118421904D01*
X95892914Y-118421904D02*
X95940533Y-118517142D01*
X133994819Y-119841904D02*
X134804342Y-119841904D01*
X134804342Y-119841904D02*
X134899580Y-119794285D01*
X134899580Y-119794285D02*
X134947200Y-119746666D01*
X134947200Y-119746666D02*
X134994819Y-119651428D01*
X134994819Y-119651428D02*
X134994819Y-119460952D01*
X134994819Y-119460952D02*
X134947200Y-119365714D01*
X134947200Y-119365714D02*
X134899580Y-119318095D01*
X134899580Y-119318095D02*
X134804342Y-119270476D01*
X134804342Y-119270476D02*
X133994819Y-119270476D01*
X134947200Y-118841904D02*
X134994819Y-118699047D01*
X134994819Y-118699047D02*
X134994819Y-118460952D01*
X134994819Y-118460952D02*
X134947200Y-118365714D01*
X134947200Y-118365714D02*
X134899580Y-118318095D01*
X134899580Y-118318095D02*
X134804342Y-118270476D01*
X134804342Y-118270476D02*
X134709104Y-118270476D01*
X134709104Y-118270476D02*
X134613866Y-118318095D01*
X134613866Y-118318095D02*
X134566247Y-118365714D01*
X134566247Y-118365714D02*
X134518628Y-118460952D01*
X134518628Y-118460952D02*
X134471009Y-118651428D01*
X134471009Y-118651428D02*
X134423390Y-118746666D01*
X134423390Y-118746666D02*
X134375771Y-118794285D01*
X134375771Y-118794285D02*
X134280533Y-118841904D01*
X134280533Y-118841904D02*
X134185295Y-118841904D01*
X134185295Y-118841904D02*
X134090057Y-118794285D01*
X134090057Y-118794285D02*
X134042438Y-118746666D01*
X134042438Y-118746666D02*
X133994819Y-118651428D01*
X133994819Y-118651428D02*
X133994819Y-118413333D01*
X133994819Y-118413333D02*
X134042438Y-118270476D01*
X134471009Y-117508571D02*
X134518628Y-117365714D01*
X134518628Y-117365714D02*
X134566247Y-117318095D01*
X134566247Y-117318095D02*
X134661485Y-117270476D01*
X134661485Y-117270476D02*
X134804342Y-117270476D01*
X134804342Y-117270476D02*
X134899580Y-117318095D01*
X134899580Y-117318095D02*
X134947200Y-117365714D01*
X134947200Y-117365714D02*
X134994819Y-117460952D01*
X134994819Y-117460952D02*
X134994819Y-117841904D01*
X134994819Y-117841904D02*
X133994819Y-117841904D01*
X133994819Y-117841904D02*
X133994819Y-117508571D01*
X133994819Y-117508571D02*
X134042438Y-117413333D01*
X134042438Y-117413333D02*
X134090057Y-117365714D01*
X134090057Y-117365714D02*
X134185295Y-117318095D01*
X134185295Y-117318095D02*
X134280533Y-117318095D01*
X134280533Y-117318095D02*
X134375771Y-117365714D01*
X134375771Y-117365714D02*
X134423390Y-117413333D01*
X134423390Y-117413333D02*
X134471009Y-117508571D01*
X134471009Y-117508571D02*
X134471009Y-117841904D01*
X114933333Y-134254819D02*
X114600000Y-133778628D01*
X114361905Y-134254819D02*
X114361905Y-133254819D01*
X114361905Y-133254819D02*
X114742857Y-133254819D01*
X114742857Y-133254819D02*
X114838095Y-133302438D01*
X114838095Y-133302438D02*
X114885714Y-133350057D01*
X114885714Y-133350057D02*
X114933333Y-133445295D01*
X114933333Y-133445295D02*
X114933333Y-133588152D01*
X114933333Y-133588152D02*
X114885714Y-133683390D01*
X114885714Y-133683390D02*
X114838095Y-133731009D01*
X114838095Y-133731009D02*
X114742857Y-133778628D01*
X114742857Y-133778628D02*
X114361905Y-133778628D01*
X115504762Y-133683390D02*
X115409524Y-133635771D01*
X115409524Y-133635771D02*
X115361905Y-133588152D01*
X115361905Y-133588152D02*
X115314286Y-133492914D01*
X115314286Y-133492914D02*
X115314286Y-133445295D01*
X115314286Y-133445295D02*
X115361905Y-133350057D01*
X115361905Y-133350057D02*
X115409524Y-133302438D01*
X115409524Y-133302438D02*
X115504762Y-133254819D01*
X115504762Y-133254819D02*
X115695238Y-133254819D01*
X115695238Y-133254819D02*
X115790476Y-133302438D01*
X115790476Y-133302438D02*
X115838095Y-133350057D01*
X115838095Y-133350057D02*
X115885714Y-133445295D01*
X115885714Y-133445295D02*
X115885714Y-133492914D01*
X115885714Y-133492914D02*
X115838095Y-133588152D01*
X115838095Y-133588152D02*
X115790476Y-133635771D01*
X115790476Y-133635771D02*
X115695238Y-133683390D01*
X115695238Y-133683390D02*
X115504762Y-133683390D01*
X115504762Y-133683390D02*
X115409524Y-133731009D01*
X115409524Y-133731009D02*
X115361905Y-133778628D01*
X115361905Y-133778628D02*
X115314286Y-133873866D01*
X115314286Y-133873866D02*
X115314286Y-134064342D01*
X115314286Y-134064342D02*
X115361905Y-134159580D01*
X115361905Y-134159580D02*
X115409524Y-134207200D01*
X115409524Y-134207200D02*
X115504762Y-134254819D01*
X115504762Y-134254819D02*
X115695238Y-134254819D01*
X115695238Y-134254819D02*
X115790476Y-134207200D01*
X115790476Y-134207200D02*
X115838095Y-134159580D01*
X115838095Y-134159580D02*
X115885714Y-134064342D01*
X115885714Y-134064342D02*
X115885714Y-133873866D01*
X115885714Y-133873866D02*
X115838095Y-133778628D01*
X115838095Y-133778628D02*
X115790476Y-133731009D01*
X115790476Y-133731009D02*
X115695238Y-133683390D01*
X126893004Y-108536915D02*
X126845385Y-108584535D01*
X126845385Y-108584535D02*
X126702528Y-108632154D01*
X126702528Y-108632154D02*
X126607290Y-108632154D01*
X126607290Y-108632154D02*
X126464433Y-108584535D01*
X126464433Y-108584535D02*
X126369195Y-108489296D01*
X126369195Y-108489296D02*
X126321576Y-108394058D01*
X126321576Y-108394058D02*
X126273957Y-108203582D01*
X126273957Y-108203582D02*
X126273957Y-108060725D01*
X126273957Y-108060725D02*
X126321576Y-107870249D01*
X126321576Y-107870249D02*
X126369195Y-107775011D01*
X126369195Y-107775011D02*
X126464433Y-107679773D01*
X126464433Y-107679773D02*
X126607290Y-107632154D01*
X126607290Y-107632154D02*
X126702528Y-107632154D01*
X126702528Y-107632154D02*
X126845385Y-107679773D01*
X126845385Y-107679773D02*
X126893004Y-107727392D01*
X127226338Y-107632154D02*
X127845385Y-107632154D01*
X127845385Y-107632154D02*
X127512052Y-108013106D01*
X127512052Y-108013106D02*
X127654909Y-108013106D01*
X127654909Y-108013106D02*
X127750147Y-108060725D01*
X127750147Y-108060725D02*
X127797766Y-108108344D01*
X127797766Y-108108344D02*
X127845385Y-108203582D01*
X127845385Y-108203582D02*
X127845385Y-108441677D01*
X127845385Y-108441677D02*
X127797766Y-108536915D01*
X127797766Y-108536915D02*
X127750147Y-108584535D01*
X127750147Y-108584535D02*
X127654909Y-108632154D01*
X127654909Y-108632154D02*
X127369195Y-108632154D01*
X127369195Y-108632154D02*
X127273957Y-108584535D01*
X127273957Y-108584535D02*
X127226338Y-108536915D01*
D13*
X104999761Y-54247419D02*
X104666428Y-53771228D01*
X104428333Y-54247419D02*
X104428333Y-53247419D01*
X104428333Y-53247419D02*
X104809285Y-53247419D01*
X104809285Y-53247419D02*
X104904523Y-53295038D01*
X104904523Y-53295038D02*
X104952142Y-53342657D01*
X104952142Y-53342657D02*
X104999761Y-53437895D01*
X104999761Y-53437895D02*
X104999761Y-53580752D01*
X104999761Y-53580752D02*
X104952142Y-53675990D01*
X104952142Y-53675990D02*
X104904523Y-53723609D01*
X104904523Y-53723609D02*
X104809285Y-53771228D01*
X104809285Y-53771228D02*
X104428333Y-53771228D01*
X105285476Y-53247419D02*
X105618809Y-54247419D01*
X105618809Y-54247419D02*
X105952142Y-53247419D01*
X106237857Y-53342657D02*
X106285476Y-53295038D01*
X106285476Y-53295038D02*
X106380714Y-53247419D01*
X106380714Y-53247419D02*
X106618809Y-53247419D01*
X106618809Y-53247419D02*
X106714047Y-53295038D01*
X106714047Y-53295038D02*
X106761666Y-53342657D01*
X106761666Y-53342657D02*
X106809285Y-53437895D01*
X106809285Y-53437895D02*
X106809285Y-53533133D01*
X106809285Y-53533133D02*
X106761666Y-53675990D01*
X106761666Y-53675990D02*
X106190238Y-54247419D01*
X106190238Y-54247419D02*
X106809285Y-54247419D01*
X108190341Y-149011173D02*
X108190341Y-149725458D01*
X108190341Y-149725458D02*
X108142722Y-149868315D01*
X108142722Y-149868315D02*
X108047484Y-149963554D01*
X108047484Y-149963554D02*
X107904627Y-150011173D01*
X107904627Y-150011173D02*
X107809389Y-150011173D01*
X108571294Y-149011173D02*
X109237960Y-149011173D01*
X109237960Y-149011173D02*
X108809389Y-150011173D01*
D12*
X118574819Y-144186666D02*
X118098628Y-144519999D01*
X118574819Y-144758094D02*
X117574819Y-144758094D01*
X117574819Y-144758094D02*
X117574819Y-144377142D01*
X117574819Y-144377142D02*
X117622438Y-144281904D01*
X117622438Y-144281904D02*
X117670057Y-144234285D01*
X117670057Y-144234285D02*
X117765295Y-144186666D01*
X117765295Y-144186666D02*
X117908152Y-144186666D01*
X117908152Y-144186666D02*
X118003390Y-144234285D01*
X118003390Y-144234285D02*
X118051009Y-144281904D01*
X118051009Y-144281904D02*
X118098628Y-144377142D01*
X118098628Y-144377142D02*
X118098628Y-144758094D01*
X117574819Y-143281904D02*
X117574819Y-143758094D01*
X117574819Y-143758094D02*
X118051009Y-143805713D01*
X118051009Y-143805713D02*
X118003390Y-143758094D01*
X118003390Y-143758094D02*
X117955771Y-143662856D01*
X117955771Y-143662856D02*
X117955771Y-143424761D01*
X117955771Y-143424761D02*
X118003390Y-143329523D01*
X118003390Y-143329523D02*
X118051009Y-143281904D01*
X118051009Y-143281904D02*
X118146247Y-143234285D01*
X118146247Y-143234285D02*
X118384342Y-143234285D01*
X118384342Y-143234285D02*
X118479580Y-143281904D01*
X118479580Y-143281904D02*
X118527200Y-143329523D01*
X118527200Y-143329523D02*
X118574819Y-143424761D01*
X118574819Y-143424761D02*
X118574819Y-143662856D01*
X118574819Y-143662856D02*
X118527200Y-143758094D01*
X118527200Y-143758094D02*
X118479580Y-143805713D01*
X72857142Y-100489881D02*
X72523809Y-100013690D01*
X72285714Y-100489881D02*
X72285714Y-99489881D01*
X72285714Y-99489881D02*
X72666666Y-99489881D01*
X72666666Y-99489881D02*
X72761904Y-99537500D01*
X72761904Y-99537500D02*
X72809523Y-99585119D01*
X72809523Y-99585119D02*
X72857142Y-99680357D01*
X72857142Y-99680357D02*
X72857142Y-99823214D01*
X72857142Y-99823214D02*
X72809523Y-99918452D01*
X72809523Y-99918452D02*
X72761904Y-99966071D01*
X72761904Y-99966071D02*
X72666666Y-100013690D01*
X72666666Y-100013690D02*
X72285714Y-100013690D01*
X73809523Y-100489881D02*
X73238095Y-100489881D01*
X73523809Y-100489881D02*
X73523809Y-99489881D01*
X73523809Y-99489881D02*
X73428571Y-99632738D01*
X73428571Y-99632738D02*
X73333333Y-99727976D01*
X73333333Y-99727976D02*
X73238095Y-99775595D01*
X74428571Y-99489881D02*
X74523809Y-99489881D01*
X74523809Y-99489881D02*
X74619047Y-99537500D01*
X74619047Y-99537500D02*
X74666666Y-99585119D01*
X74666666Y-99585119D02*
X74714285Y-99680357D01*
X74714285Y-99680357D02*
X74761904Y-99870833D01*
X74761904Y-99870833D02*
X74761904Y-100108928D01*
X74761904Y-100108928D02*
X74714285Y-100299404D01*
X74714285Y-100299404D02*
X74666666Y-100394642D01*
X74666666Y-100394642D02*
X74619047Y-100442262D01*
X74619047Y-100442262D02*
X74523809Y-100489881D01*
X74523809Y-100489881D02*
X74428571Y-100489881D01*
X74428571Y-100489881D02*
X74333333Y-100442262D01*
X74333333Y-100442262D02*
X74285714Y-100394642D01*
X74285714Y-100394642D02*
X74238095Y-100299404D01*
X74238095Y-100299404D02*
X74190476Y-100108928D01*
X74190476Y-100108928D02*
X74190476Y-99870833D01*
X74190476Y-99870833D02*
X74238095Y-99680357D01*
X74238095Y-99680357D02*
X74285714Y-99585119D01*
X74285714Y-99585119D02*
X74333333Y-99537500D01*
X74333333Y-99537500D02*
X74428571Y-99489881D01*
X105461905Y-83354819D02*
X105461905Y-82354819D01*
X105461905Y-82354819D02*
X105700000Y-82354819D01*
X105700000Y-82354819D02*
X105842857Y-82402438D01*
X105842857Y-82402438D02*
X105938095Y-82497676D01*
X105938095Y-82497676D02*
X105985714Y-82592914D01*
X105985714Y-82592914D02*
X106033333Y-82783390D01*
X106033333Y-82783390D02*
X106033333Y-82926247D01*
X106033333Y-82926247D02*
X105985714Y-83116723D01*
X105985714Y-83116723D02*
X105938095Y-83211961D01*
X105938095Y-83211961D02*
X105842857Y-83307200D01*
X105842857Y-83307200D02*
X105700000Y-83354819D01*
X105700000Y-83354819D02*
X105461905Y-83354819D01*
X106509524Y-83354819D02*
X106700000Y-83354819D01*
X106700000Y-83354819D02*
X106795238Y-83307200D01*
X106795238Y-83307200D02*
X106842857Y-83259580D01*
X106842857Y-83259580D02*
X106938095Y-83116723D01*
X106938095Y-83116723D02*
X106985714Y-82926247D01*
X106985714Y-82926247D02*
X106985714Y-82545295D01*
X106985714Y-82545295D02*
X106938095Y-82450057D01*
X106938095Y-82450057D02*
X106890476Y-82402438D01*
X106890476Y-82402438D02*
X106795238Y-82354819D01*
X106795238Y-82354819D02*
X106604762Y-82354819D01*
X106604762Y-82354819D02*
X106509524Y-82402438D01*
X106509524Y-82402438D02*
X106461905Y-82450057D01*
X106461905Y-82450057D02*
X106414286Y-82545295D01*
X106414286Y-82545295D02*
X106414286Y-82783390D01*
X106414286Y-82783390D02*
X106461905Y-82878628D01*
X106461905Y-82878628D02*
X106509524Y-82926247D01*
X106509524Y-82926247D02*
X106604762Y-82973866D01*
X106604762Y-82973866D02*
X106795238Y-82973866D01*
X106795238Y-82973866D02*
X106890476Y-82926247D01*
X106890476Y-82926247D02*
X106938095Y-82878628D01*
X106938095Y-82878628D02*
X106985714Y-82783390D01*
X124766667Y-152833200D02*
X124909524Y-152880819D01*
X124909524Y-152880819D02*
X125147619Y-152880819D01*
X125147619Y-152880819D02*
X125242857Y-152833200D01*
X125242857Y-152833200D02*
X125290476Y-152785580D01*
X125290476Y-152785580D02*
X125338095Y-152690342D01*
X125338095Y-152690342D02*
X125338095Y-152595104D01*
X125338095Y-152595104D02*
X125290476Y-152499866D01*
X125290476Y-152499866D02*
X125242857Y-152452247D01*
X125242857Y-152452247D02*
X125147619Y-152404628D01*
X125147619Y-152404628D02*
X124957143Y-152357009D01*
X124957143Y-152357009D02*
X124861905Y-152309390D01*
X124861905Y-152309390D02*
X124814286Y-152261771D01*
X124814286Y-152261771D02*
X124766667Y-152166533D01*
X124766667Y-152166533D02*
X124766667Y-152071295D01*
X124766667Y-152071295D02*
X124814286Y-151976057D01*
X124814286Y-151976057D02*
X124861905Y-151928438D01*
X124861905Y-151928438D02*
X124957143Y-151880819D01*
X124957143Y-151880819D02*
X125195238Y-151880819D01*
X125195238Y-151880819D02*
X125338095Y-151928438D01*
X125671429Y-151880819D02*
X125909524Y-152880819D01*
X125909524Y-152880819D02*
X126100000Y-152166533D01*
X126100000Y-152166533D02*
X126290476Y-152880819D01*
X126290476Y-152880819D02*
X126528572Y-151880819D01*
X126814286Y-151880819D02*
X127433333Y-151880819D01*
X127433333Y-151880819D02*
X127100000Y-152261771D01*
X127100000Y-152261771D02*
X127242857Y-152261771D01*
X127242857Y-152261771D02*
X127338095Y-152309390D01*
X127338095Y-152309390D02*
X127385714Y-152357009D01*
X127385714Y-152357009D02*
X127433333Y-152452247D01*
X127433333Y-152452247D02*
X127433333Y-152690342D01*
X127433333Y-152690342D02*
X127385714Y-152785580D01*
X127385714Y-152785580D02*
X127338095Y-152833200D01*
X127338095Y-152833200D02*
X127242857Y-152880819D01*
X127242857Y-152880819D02*
X126957143Y-152880819D01*
X126957143Y-152880819D02*
X126861905Y-152833200D01*
X126861905Y-152833200D02*
X126814286Y-152785580D01*
X75586667Y-113013200D02*
X75729524Y-113060819D01*
X75729524Y-113060819D02*
X75967619Y-113060819D01*
X75967619Y-113060819D02*
X76062857Y-113013200D01*
X76062857Y-113013200D02*
X76110476Y-112965580D01*
X76110476Y-112965580D02*
X76158095Y-112870342D01*
X76158095Y-112870342D02*
X76158095Y-112775104D01*
X76158095Y-112775104D02*
X76110476Y-112679866D01*
X76110476Y-112679866D02*
X76062857Y-112632247D01*
X76062857Y-112632247D02*
X75967619Y-112584628D01*
X75967619Y-112584628D02*
X75777143Y-112537009D01*
X75777143Y-112537009D02*
X75681905Y-112489390D01*
X75681905Y-112489390D02*
X75634286Y-112441771D01*
X75634286Y-112441771D02*
X75586667Y-112346533D01*
X75586667Y-112346533D02*
X75586667Y-112251295D01*
X75586667Y-112251295D02*
X75634286Y-112156057D01*
X75634286Y-112156057D02*
X75681905Y-112108438D01*
X75681905Y-112108438D02*
X75777143Y-112060819D01*
X75777143Y-112060819D02*
X76015238Y-112060819D01*
X76015238Y-112060819D02*
X76158095Y-112108438D01*
X76491429Y-112060819D02*
X76729524Y-113060819D01*
X76729524Y-113060819D02*
X76920000Y-112346533D01*
X76920000Y-112346533D02*
X77110476Y-113060819D01*
X77110476Y-113060819D02*
X77348572Y-112060819D01*
X78158095Y-112060819D02*
X77967619Y-112060819D01*
X77967619Y-112060819D02*
X77872381Y-112108438D01*
X77872381Y-112108438D02*
X77824762Y-112156057D01*
X77824762Y-112156057D02*
X77729524Y-112298914D01*
X77729524Y-112298914D02*
X77681905Y-112489390D01*
X77681905Y-112489390D02*
X77681905Y-112870342D01*
X77681905Y-112870342D02*
X77729524Y-112965580D01*
X77729524Y-112965580D02*
X77777143Y-113013200D01*
X77777143Y-113013200D02*
X77872381Y-113060819D01*
X77872381Y-113060819D02*
X78062857Y-113060819D01*
X78062857Y-113060819D02*
X78158095Y-113013200D01*
X78158095Y-113013200D02*
X78205714Y-112965580D01*
X78205714Y-112965580D02*
X78253333Y-112870342D01*
X78253333Y-112870342D02*
X78253333Y-112632247D01*
X78253333Y-112632247D02*
X78205714Y-112537009D01*
X78205714Y-112537009D02*
X78158095Y-112489390D01*
X78158095Y-112489390D02*
X78062857Y-112441771D01*
X78062857Y-112441771D02*
X77872381Y-112441771D01*
X77872381Y-112441771D02*
X77777143Y-112489390D01*
X77777143Y-112489390D02*
X77729524Y-112537009D01*
X77729524Y-112537009D02*
X77681905Y-112632247D01*
X76177142Y-106662669D02*
X75843809Y-106186478D01*
X75605714Y-106662669D02*
X75605714Y-105662669D01*
X75605714Y-105662669D02*
X75986666Y-105662669D01*
X75986666Y-105662669D02*
X76081904Y-105710288D01*
X76081904Y-105710288D02*
X76129523Y-105757907D01*
X76129523Y-105757907D02*
X76177142Y-105853145D01*
X76177142Y-105853145D02*
X76177142Y-105996002D01*
X76177142Y-105996002D02*
X76129523Y-106091240D01*
X76129523Y-106091240D02*
X76081904Y-106138859D01*
X76081904Y-106138859D02*
X75986666Y-106186478D01*
X75986666Y-106186478D02*
X75605714Y-106186478D01*
X76558095Y-105757907D02*
X76605714Y-105710288D01*
X76605714Y-105710288D02*
X76700952Y-105662669D01*
X76700952Y-105662669D02*
X76939047Y-105662669D01*
X76939047Y-105662669D02*
X77034285Y-105710288D01*
X77034285Y-105710288D02*
X77081904Y-105757907D01*
X77081904Y-105757907D02*
X77129523Y-105853145D01*
X77129523Y-105853145D02*
X77129523Y-105948383D01*
X77129523Y-105948383D02*
X77081904Y-106091240D01*
X77081904Y-106091240D02*
X76510476Y-106662669D01*
X76510476Y-106662669D02*
X77129523Y-106662669D01*
X77462857Y-105662669D02*
X78129523Y-105662669D01*
X78129523Y-105662669D02*
X77700952Y-106662669D01*
X109786747Y-100496238D02*
X109453414Y-100020047D01*
X109215319Y-100496238D02*
X109215319Y-99496238D01*
X109215319Y-99496238D02*
X109596271Y-99496238D01*
X109596271Y-99496238D02*
X109691509Y-99543857D01*
X109691509Y-99543857D02*
X109739128Y-99591476D01*
X109739128Y-99591476D02*
X109786747Y-99686714D01*
X109786747Y-99686714D02*
X109786747Y-99829571D01*
X109786747Y-99829571D02*
X109739128Y-99924809D01*
X109739128Y-99924809D02*
X109691509Y-99972428D01*
X109691509Y-99972428D02*
X109596271Y-100020047D01*
X109596271Y-100020047D02*
X109215319Y-100020047D01*
X110167700Y-99591476D02*
X110215319Y-99543857D01*
X110215319Y-99543857D02*
X110310557Y-99496238D01*
X110310557Y-99496238D02*
X110548652Y-99496238D01*
X110548652Y-99496238D02*
X110643890Y-99543857D01*
X110643890Y-99543857D02*
X110691509Y-99591476D01*
X110691509Y-99591476D02*
X110739128Y-99686714D01*
X110739128Y-99686714D02*
X110739128Y-99781952D01*
X110739128Y-99781952D02*
X110691509Y-99924809D01*
X110691509Y-99924809D02*
X110120081Y-100496238D01*
X110120081Y-100496238D02*
X110739128Y-100496238D01*
X111358176Y-99496238D02*
X111453414Y-99496238D01*
X111453414Y-99496238D02*
X111548652Y-99543857D01*
X111548652Y-99543857D02*
X111596271Y-99591476D01*
X111596271Y-99591476D02*
X111643890Y-99686714D01*
X111643890Y-99686714D02*
X111691509Y-99877190D01*
X111691509Y-99877190D02*
X111691509Y-100115285D01*
X111691509Y-100115285D02*
X111643890Y-100305761D01*
X111643890Y-100305761D02*
X111596271Y-100400999D01*
X111596271Y-100400999D02*
X111548652Y-100448619D01*
X111548652Y-100448619D02*
X111453414Y-100496238D01*
X111453414Y-100496238D02*
X111358176Y-100496238D01*
X111358176Y-100496238D02*
X111262938Y-100448619D01*
X111262938Y-100448619D02*
X111215319Y-100400999D01*
X111215319Y-100400999D02*
X111167700Y-100305761D01*
X111167700Y-100305761D02*
X111120081Y-100115285D01*
X111120081Y-100115285D02*
X111120081Y-99877190D01*
X111120081Y-99877190D02*
X111167700Y-99686714D01*
X111167700Y-99686714D02*
X111215319Y-99591476D01*
X111215319Y-99591476D02*
X111262938Y-99543857D01*
X111262938Y-99543857D02*
X111358176Y-99496238D01*
X134574819Y-144246666D02*
X134098628Y-144579999D01*
X134574819Y-144818094D02*
X133574819Y-144818094D01*
X133574819Y-144818094D02*
X133574819Y-144437142D01*
X133574819Y-144437142D02*
X133622438Y-144341904D01*
X133622438Y-144341904D02*
X133670057Y-144294285D01*
X133670057Y-144294285D02*
X133765295Y-144246666D01*
X133765295Y-144246666D02*
X133908152Y-144246666D01*
X133908152Y-144246666D02*
X134003390Y-144294285D01*
X134003390Y-144294285D02*
X134051009Y-144341904D01*
X134051009Y-144341904D02*
X134098628Y-144437142D01*
X134098628Y-144437142D02*
X134098628Y-144818094D01*
X133574819Y-143389523D02*
X133574819Y-143579999D01*
X133574819Y-143579999D02*
X133622438Y-143675237D01*
X133622438Y-143675237D02*
X133670057Y-143722856D01*
X133670057Y-143722856D02*
X133812914Y-143818094D01*
X133812914Y-143818094D02*
X134003390Y-143865713D01*
X134003390Y-143865713D02*
X134384342Y-143865713D01*
X134384342Y-143865713D02*
X134479580Y-143818094D01*
X134479580Y-143818094D02*
X134527200Y-143770475D01*
X134527200Y-143770475D02*
X134574819Y-143675237D01*
X134574819Y-143675237D02*
X134574819Y-143484761D01*
X134574819Y-143484761D02*
X134527200Y-143389523D01*
X134527200Y-143389523D02*
X134479580Y-143341904D01*
X134479580Y-143341904D02*
X134384342Y-143294285D01*
X134384342Y-143294285D02*
X134146247Y-143294285D01*
X134146247Y-143294285D02*
X134051009Y-143341904D01*
X134051009Y-143341904D02*
X134003390Y-143389523D01*
X134003390Y-143389523D02*
X133955771Y-143484761D01*
X133955771Y-143484761D02*
X133955771Y-143675237D01*
X133955771Y-143675237D02*
X134003390Y-143770475D01*
X134003390Y-143770475D02*
X134051009Y-143818094D01*
X134051009Y-143818094D02*
X134146247Y-143865713D01*
X73754819Y-32223333D02*
X74469104Y-32223333D01*
X74469104Y-32223333D02*
X74611961Y-32270952D01*
X74611961Y-32270952D02*
X74707200Y-32366190D01*
X74707200Y-32366190D02*
X74754819Y-32509047D01*
X74754819Y-32509047D02*
X74754819Y-32604285D01*
X74754819Y-31223333D02*
X74754819Y-31794761D01*
X74754819Y-31509047D02*
X73754819Y-31509047D01*
X73754819Y-31509047D02*
X73897676Y-31604285D01*
X73897676Y-31604285D02*
X73992914Y-31699523D01*
X73992914Y-31699523D02*
X74040533Y-31794761D01*
D13*
X127844761Y-54257419D02*
X127511428Y-53781228D01*
X127273333Y-54257419D02*
X127273333Y-53257419D01*
X127273333Y-53257419D02*
X127654285Y-53257419D01*
X127654285Y-53257419D02*
X127749523Y-53305038D01*
X127749523Y-53305038D02*
X127797142Y-53352657D01*
X127797142Y-53352657D02*
X127844761Y-53447895D01*
X127844761Y-53447895D02*
X127844761Y-53590752D01*
X127844761Y-53590752D02*
X127797142Y-53685990D01*
X127797142Y-53685990D02*
X127749523Y-53733609D01*
X127749523Y-53733609D02*
X127654285Y-53781228D01*
X127654285Y-53781228D02*
X127273333Y-53781228D01*
X128130476Y-53257419D02*
X128463809Y-54257419D01*
X128463809Y-54257419D02*
X128797142Y-53257419D01*
X129654285Y-54257419D02*
X129082857Y-54257419D01*
X129368571Y-54257419D02*
X129368571Y-53257419D01*
X129368571Y-53257419D02*
X129273333Y-53400276D01*
X129273333Y-53400276D02*
X129178095Y-53495514D01*
X129178095Y-53495514D02*
X129082857Y-53543133D01*
D12*
X115374819Y-32103333D02*
X116089104Y-32103333D01*
X116089104Y-32103333D02*
X116231961Y-32150952D01*
X116231961Y-32150952D02*
X116327200Y-32246190D01*
X116327200Y-32246190D02*
X116374819Y-32389047D01*
X116374819Y-32389047D02*
X116374819Y-32484285D01*
X115374819Y-31198571D02*
X115374819Y-31389047D01*
X115374819Y-31389047D02*
X115422438Y-31484285D01*
X115422438Y-31484285D02*
X115470057Y-31531904D01*
X115470057Y-31531904D02*
X115612914Y-31627142D01*
X115612914Y-31627142D02*
X115803390Y-31674761D01*
X115803390Y-31674761D02*
X116184342Y-31674761D01*
X116184342Y-31674761D02*
X116279580Y-31627142D01*
X116279580Y-31627142D02*
X116327200Y-31579523D01*
X116327200Y-31579523D02*
X116374819Y-31484285D01*
X116374819Y-31484285D02*
X116374819Y-31293809D01*
X116374819Y-31293809D02*
X116327200Y-31198571D01*
X116327200Y-31198571D02*
X116279580Y-31150952D01*
X116279580Y-31150952D02*
X116184342Y-31103333D01*
X116184342Y-31103333D02*
X115946247Y-31103333D01*
X115946247Y-31103333D02*
X115851009Y-31150952D01*
X115851009Y-31150952D02*
X115803390Y-31198571D01*
X115803390Y-31198571D02*
X115755771Y-31293809D01*
X115755771Y-31293809D02*
X115755771Y-31484285D01*
X115755771Y-31484285D02*
X115803390Y-31579523D01*
X115803390Y-31579523D02*
X115851009Y-31627142D01*
X115851009Y-31627142D02*
X115946247Y-31674761D01*
X92833333Y-134479580D02*
X92785714Y-134527200D01*
X92785714Y-134527200D02*
X92642857Y-134574819D01*
X92642857Y-134574819D02*
X92547619Y-134574819D01*
X92547619Y-134574819D02*
X92404762Y-134527200D01*
X92404762Y-134527200D02*
X92309524Y-134431961D01*
X92309524Y-134431961D02*
X92261905Y-134336723D01*
X92261905Y-134336723D02*
X92214286Y-134146247D01*
X92214286Y-134146247D02*
X92214286Y-134003390D01*
X92214286Y-134003390D02*
X92261905Y-133812914D01*
X92261905Y-133812914D02*
X92309524Y-133717676D01*
X92309524Y-133717676D02*
X92404762Y-133622438D01*
X92404762Y-133622438D02*
X92547619Y-133574819D01*
X92547619Y-133574819D02*
X92642857Y-133574819D01*
X92642857Y-133574819D02*
X92785714Y-133622438D01*
X92785714Y-133622438D02*
X92833333Y-133670057D01*
X93690476Y-133908152D02*
X93690476Y-134574819D01*
X93452381Y-133527200D02*
X93214286Y-134241485D01*
X93214286Y-134241485D02*
X93833333Y-134241485D01*
D13*
X121266667Y-91869800D02*
X121409524Y-91917419D01*
X121409524Y-91917419D02*
X121647619Y-91917419D01*
X121647619Y-91917419D02*
X121742857Y-91869800D01*
X121742857Y-91869800D02*
X121790476Y-91822180D01*
X121790476Y-91822180D02*
X121838095Y-91726942D01*
X121838095Y-91726942D02*
X121838095Y-91631704D01*
X121838095Y-91631704D02*
X121790476Y-91536466D01*
X121790476Y-91536466D02*
X121742857Y-91488847D01*
X121742857Y-91488847D02*
X121647619Y-91441228D01*
X121647619Y-91441228D02*
X121457143Y-91393609D01*
X121457143Y-91393609D02*
X121361905Y-91345990D01*
X121361905Y-91345990D02*
X121314286Y-91298371D01*
X121314286Y-91298371D02*
X121266667Y-91203133D01*
X121266667Y-91203133D02*
X121266667Y-91107895D01*
X121266667Y-91107895D02*
X121314286Y-91012657D01*
X121314286Y-91012657D02*
X121361905Y-90965038D01*
X121361905Y-90965038D02*
X121457143Y-90917419D01*
X121457143Y-90917419D02*
X121695238Y-90917419D01*
X121695238Y-90917419D02*
X121838095Y-90965038D01*
X122171429Y-90917419D02*
X122409524Y-91917419D01*
X122409524Y-91917419D02*
X122600000Y-91203133D01*
X122600000Y-91203133D02*
X122790476Y-91917419D01*
X122790476Y-91917419D02*
X123028572Y-90917419D01*
X123885714Y-90917419D02*
X123409524Y-90917419D01*
X123409524Y-90917419D02*
X123361905Y-91393609D01*
X123361905Y-91393609D02*
X123409524Y-91345990D01*
X123409524Y-91345990D02*
X123504762Y-91298371D01*
X123504762Y-91298371D02*
X123742857Y-91298371D01*
X123742857Y-91298371D02*
X123838095Y-91345990D01*
X123838095Y-91345990D02*
X123885714Y-91393609D01*
X123885714Y-91393609D02*
X123933333Y-91488847D01*
X123933333Y-91488847D02*
X123933333Y-91726942D01*
X123933333Y-91726942D02*
X123885714Y-91822180D01*
X123885714Y-91822180D02*
X123838095Y-91869800D01*
X123838095Y-91869800D02*
X123742857Y-91917419D01*
X123742857Y-91917419D02*
X123504762Y-91917419D01*
X123504762Y-91917419D02*
X123409524Y-91869800D01*
X123409524Y-91869800D02*
X123361905Y-91822180D01*
D12*
X134437142Y-100514819D02*
X134103809Y-100038628D01*
X133865714Y-100514819D02*
X133865714Y-99514819D01*
X133865714Y-99514819D02*
X134246666Y-99514819D01*
X134246666Y-99514819D02*
X134341904Y-99562438D01*
X134341904Y-99562438D02*
X134389523Y-99610057D01*
X134389523Y-99610057D02*
X134437142Y-99705295D01*
X134437142Y-99705295D02*
X134437142Y-99848152D01*
X134437142Y-99848152D02*
X134389523Y-99943390D01*
X134389523Y-99943390D02*
X134341904Y-99991009D01*
X134341904Y-99991009D02*
X134246666Y-100038628D01*
X134246666Y-100038628D02*
X133865714Y-100038628D01*
X134818095Y-99610057D02*
X134865714Y-99562438D01*
X134865714Y-99562438D02*
X134960952Y-99514819D01*
X134960952Y-99514819D02*
X135199047Y-99514819D01*
X135199047Y-99514819D02*
X135294285Y-99562438D01*
X135294285Y-99562438D02*
X135341904Y-99610057D01*
X135341904Y-99610057D02*
X135389523Y-99705295D01*
X135389523Y-99705295D02*
X135389523Y-99800533D01*
X135389523Y-99800533D02*
X135341904Y-99943390D01*
X135341904Y-99943390D02*
X134770476Y-100514819D01*
X134770476Y-100514819D02*
X135389523Y-100514819D01*
X136246666Y-99848152D02*
X136246666Y-100514819D01*
X136008571Y-99467200D02*
X135770476Y-100181485D01*
X135770476Y-100181485D02*
X136389523Y-100181485D01*
X87254819Y-68442857D02*
X86778628Y-68776190D01*
X87254819Y-69014285D02*
X86254819Y-69014285D01*
X86254819Y-69014285D02*
X86254819Y-68633333D01*
X86254819Y-68633333D02*
X86302438Y-68538095D01*
X86302438Y-68538095D02*
X86350057Y-68490476D01*
X86350057Y-68490476D02*
X86445295Y-68442857D01*
X86445295Y-68442857D02*
X86588152Y-68442857D01*
X86588152Y-68442857D02*
X86683390Y-68490476D01*
X86683390Y-68490476D02*
X86731009Y-68538095D01*
X86731009Y-68538095D02*
X86778628Y-68633333D01*
X86778628Y-68633333D02*
X86778628Y-69014285D01*
X86350057Y-68061904D02*
X86302438Y-68014285D01*
X86302438Y-68014285D02*
X86254819Y-67919047D01*
X86254819Y-67919047D02*
X86254819Y-67680952D01*
X86254819Y-67680952D02*
X86302438Y-67585714D01*
X86302438Y-67585714D02*
X86350057Y-67538095D01*
X86350057Y-67538095D02*
X86445295Y-67490476D01*
X86445295Y-67490476D02*
X86540533Y-67490476D01*
X86540533Y-67490476D02*
X86683390Y-67538095D01*
X86683390Y-67538095D02*
X87254819Y-68109523D01*
X87254819Y-68109523D02*
X87254819Y-67490476D01*
X87254819Y-66538095D02*
X87254819Y-67109523D01*
X87254819Y-66823809D02*
X86254819Y-66823809D01*
X86254819Y-66823809D02*
X86397676Y-66919047D01*
X86397676Y-66919047D02*
X86492914Y-67014285D01*
X86492914Y-67014285D02*
X86540533Y-67109523D01*
D13*
X138825476Y-97237481D02*
X138825476Y-97951766D01*
X138825476Y-97951766D02*
X138777857Y-98094623D01*
X138777857Y-98094623D02*
X138682619Y-98189862D01*
X138682619Y-98189862D02*
X138539762Y-98237481D01*
X138539762Y-98237481D02*
X138444524Y-98237481D01*
X139825476Y-98237481D02*
X139254048Y-98237481D01*
X139539762Y-98237481D02*
X139539762Y-97237481D01*
X139539762Y-97237481D02*
X139444524Y-97380338D01*
X139444524Y-97380338D02*
X139349286Y-97475576D01*
X139349286Y-97475576D02*
X139254048Y-97523195D01*
X140158810Y-97237481D02*
X140777857Y-97237481D01*
X140777857Y-97237481D02*
X140444524Y-97618433D01*
X140444524Y-97618433D02*
X140587381Y-97618433D01*
X140587381Y-97618433D02*
X140682619Y-97666052D01*
X140682619Y-97666052D02*
X140730238Y-97713671D01*
X140730238Y-97713671D02*
X140777857Y-97808909D01*
X140777857Y-97808909D02*
X140777857Y-98047004D01*
X140777857Y-98047004D02*
X140730238Y-98142242D01*
X140730238Y-98142242D02*
X140682619Y-98189862D01*
X140682619Y-98189862D02*
X140587381Y-98237481D01*
X140587381Y-98237481D02*
X140301667Y-98237481D01*
X140301667Y-98237481D02*
X140206429Y-98189862D01*
X140206429Y-98189862D02*
X140158810Y-98142242D01*
D12*
X109837142Y-78319403D02*
X109503809Y-77843212D01*
X109265714Y-78319403D02*
X109265714Y-77319403D01*
X109265714Y-77319403D02*
X109646666Y-77319403D01*
X109646666Y-77319403D02*
X109741904Y-77367022D01*
X109741904Y-77367022D02*
X109789523Y-77414641D01*
X109789523Y-77414641D02*
X109837142Y-77509879D01*
X109837142Y-77509879D02*
X109837142Y-77652736D01*
X109837142Y-77652736D02*
X109789523Y-77747974D01*
X109789523Y-77747974D02*
X109741904Y-77795593D01*
X109741904Y-77795593D02*
X109646666Y-77843212D01*
X109646666Y-77843212D02*
X109265714Y-77843212D01*
X110789523Y-78319403D02*
X110218095Y-78319403D01*
X110503809Y-78319403D02*
X110503809Y-77319403D01*
X110503809Y-77319403D02*
X110408571Y-77462260D01*
X110408571Y-77462260D02*
X110313333Y-77557498D01*
X110313333Y-77557498D02*
X110218095Y-77605117D01*
X111360952Y-77747974D02*
X111265714Y-77700355D01*
X111265714Y-77700355D02*
X111218095Y-77652736D01*
X111218095Y-77652736D02*
X111170476Y-77557498D01*
X111170476Y-77557498D02*
X111170476Y-77509879D01*
X111170476Y-77509879D02*
X111218095Y-77414641D01*
X111218095Y-77414641D02*
X111265714Y-77367022D01*
X111265714Y-77367022D02*
X111360952Y-77319403D01*
X111360952Y-77319403D02*
X111551428Y-77319403D01*
X111551428Y-77319403D02*
X111646666Y-77367022D01*
X111646666Y-77367022D02*
X111694285Y-77414641D01*
X111694285Y-77414641D02*
X111741904Y-77509879D01*
X111741904Y-77509879D02*
X111741904Y-77557498D01*
X111741904Y-77557498D02*
X111694285Y-77652736D01*
X111694285Y-77652736D02*
X111646666Y-77700355D01*
X111646666Y-77700355D02*
X111551428Y-77747974D01*
X111551428Y-77747974D02*
X111360952Y-77747974D01*
X111360952Y-77747974D02*
X111265714Y-77795593D01*
X111265714Y-77795593D02*
X111218095Y-77843212D01*
X111218095Y-77843212D02*
X111170476Y-77938450D01*
X111170476Y-77938450D02*
X111170476Y-78128926D01*
X111170476Y-78128926D02*
X111218095Y-78224164D01*
X111218095Y-78224164D02*
X111265714Y-78271784D01*
X111265714Y-78271784D02*
X111360952Y-78319403D01*
X111360952Y-78319403D02*
X111551428Y-78319403D01*
X111551428Y-78319403D02*
X111646666Y-78271784D01*
X111646666Y-78271784D02*
X111694285Y-78224164D01*
X111694285Y-78224164D02*
X111741904Y-78128926D01*
X111741904Y-78128926D02*
X111741904Y-77938450D01*
X111741904Y-77938450D02*
X111694285Y-77843212D01*
X111694285Y-77843212D02*
X111646666Y-77795593D01*
X111646666Y-77795593D02*
X111551428Y-77747974D01*
X108733333Y-108399580D02*
X108685714Y-108447200D01*
X108685714Y-108447200D02*
X108542857Y-108494819D01*
X108542857Y-108494819D02*
X108447619Y-108494819D01*
X108447619Y-108494819D02*
X108304762Y-108447200D01*
X108304762Y-108447200D02*
X108209524Y-108351961D01*
X108209524Y-108351961D02*
X108161905Y-108256723D01*
X108161905Y-108256723D02*
X108114286Y-108066247D01*
X108114286Y-108066247D02*
X108114286Y-107923390D01*
X108114286Y-107923390D02*
X108161905Y-107732914D01*
X108161905Y-107732914D02*
X108209524Y-107637676D01*
X108209524Y-107637676D02*
X108304762Y-107542438D01*
X108304762Y-107542438D02*
X108447619Y-107494819D01*
X108447619Y-107494819D02*
X108542857Y-107494819D01*
X108542857Y-107494819D02*
X108685714Y-107542438D01*
X108685714Y-107542438D02*
X108733333Y-107590057D01*
X109114286Y-107590057D02*
X109161905Y-107542438D01*
X109161905Y-107542438D02*
X109257143Y-107494819D01*
X109257143Y-107494819D02*
X109495238Y-107494819D01*
X109495238Y-107494819D02*
X109590476Y-107542438D01*
X109590476Y-107542438D02*
X109638095Y-107590057D01*
X109638095Y-107590057D02*
X109685714Y-107685295D01*
X109685714Y-107685295D02*
X109685714Y-107780533D01*
X109685714Y-107780533D02*
X109638095Y-107923390D01*
X109638095Y-107923390D02*
X109066667Y-108494819D01*
X109066667Y-108494819D02*
X109685714Y-108494819D01*
X92733333Y-131763573D02*
X92400000Y-131287382D01*
X92161905Y-131763573D02*
X92161905Y-130763573D01*
X92161905Y-130763573D02*
X92542857Y-130763573D01*
X92542857Y-130763573D02*
X92638095Y-130811192D01*
X92638095Y-130811192D02*
X92685714Y-130858811D01*
X92685714Y-130858811D02*
X92733333Y-130954049D01*
X92733333Y-130954049D02*
X92733333Y-131096906D01*
X92733333Y-131096906D02*
X92685714Y-131192144D01*
X92685714Y-131192144D02*
X92638095Y-131239763D01*
X92638095Y-131239763D02*
X92542857Y-131287382D01*
X92542857Y-131287382D02*
X92161905Y-131287382D01*
X93066667Y-130763573D02*
X93733333Y-130763573D01*
X93733333Y-130763573D02*
X93304762Y-131763573D01*
D13*
X89545476Y-97212543D02*
X89545476Y-97926828D01*
X89545476Y-97926828D02*
X89497857Y-98069685D01*
X89497857Y-98069685D02*
X89402619Y-98164924D01*
X89402619Y-98164924D02*
X89259762Y-98212543D01*
X89259762Y-98212543D02*
X89164524Y-98212543D01*
X90545476Y-98212543D02*
X89974048Y-98212543D01*
X90259762Y-98212543D02*
X90259762Y-97212543D01*
X90259762Y-97212543D02*
X90164524Y-97355400D01*
X90164524Y-97355400D02*
X90069286Y-97450638D01*
X90069286Y-97450638D02*
X89974048Y-97498257D01*
X91164524Y-97212543D02*
X91259762Y-97212543D01*
X91259762Y-97212543D02*
X91355000Y-97260162D01*
X91355000Y-97260162D02*
X91402619Y-97307781D01*
X91402619Y-97307781D02*
X91450238Y-97403019D01*
X91450238Y-97403019D02*
X91497857Y-97593495D01*
X91497857Y-97593495D02*
X91497857Y-97831590D01*
X91497857Y-97831590D02*
X91450238Y-98022066D01*
X91450238Y-98022066D02*
X91402619Y-98117304D01*
X91402619Y-98117304D02*
X91355000Y-98164924D01*
X91355000Y-98164924D02*
X91259762Y-98212543D01*
X91259762Y-98212543D02*
X91164524Y-98212543D01*
X91164524Y-98212543D02*
X91069286Y-98164924D01*
X91069286Y-98164924D02*
X91021667Y-98117304D01*
X91021667Y-98117304D02*
X90974048Y-98022066D01*
X90974048Y-98022066D02*
X90926429Y-97831590D01*
X90926429Y-97831590D02*
X90926429Y-97593495D01*
X90926429Y-97593495D02*
X90974048Y-97403019D01*
X90974048Y-97403019D02*
X91021667Y-97307781D01*
X91021667Y-97307781D02*
X91069286Y-97260162D01*
X91069286Y-97260162D02*
X91164524Y-97212543D01*
D12*
X92833333Y-136979580D02*
X92785714Y-137027200D01*
X92785714Y-137027200D02*
X92642857Y-137074819D01*
X92642857Y-137074819D02*
X92547619Y-137074819D01*
X92547619Y-137074819D02*
X92404762Y-137027200D01*
X92404762Y-137027200D02*
X92309524Y-136931961D01*
X92309524Y-136931961D02*
X92261905Y-136836723D01*
X92261905Y-136836723D02*
X92214286Y-136646247D01*
X92214286Y-136646247D02*
X92214286Y-136503390D01*
X92214286Y-136503390D02*
X92261905Y-136312914D01*
X92261905Y-136312914D02*
X92309524Y-136217676D01*
X92309524Y-136217676D02*
X92404762Y-136122438D01*
X92404762Y-136122438D02*
X92547619Y-136074819D01*
X92547619Y-136074819D02*
X92642857Y-136074819D01*
X92642857Y-136074819D02*
X92785714Y-136122438D01*
X92785714Y-136122438D02*
X92833333Y-136170057D01*
X93785714Y-137074819D02*
X93214286Y-137074819D01*
X93500000Y-137074819D02*
X93500000Y-136074819D01*
X93500000Y-136074819D02*
X93404762Y-136217676D01*
X93404762Y-136217676D02*
X93309524Y-136312914D01*
X93309524Y-136312914D02*
X93214286Y-136360533D01*
X72897142Y-41414819D02*
X72563809Y-40938628D01*
X72325714Y-41414819D02*
X72325714Y-40414819D01*
X72325714Y-40414819D02*
X72706666Y-40414819D01*
X72706666Y-40414819D02*
X72801904Y-40462438D01*
X72801904Y-40462438D02*
X72849523Y-40510057D01*
X72849523Y-40510057D02*
X72897142Y-40605295D01*
X72897142Y-40605295D02*
X72897142Y-40748152D01*
X72897142Y-40748152D02*
X72849523Y-40843390D01*
X72849523Y-40843390D02*
X72801904Y-40891009D01*
X72801904Y-40891009D02*
X72706666Y-40938628D01*
X72706666Y-40938628D02*
X72325714Y-40938628D01*
X73849523Y-41414819D02*
X73278095Y-41414819D01*
X73563809Y-41414819D02*
X73563809Y-40414819D01*
X73563809Y-40414819D02*
X73468571Y-40557676D01*
X73468571Y-40557676D02*
X73373333Y-40652914D01*
X73373333Y-40652914D02*
X73278095Y-40700533D01*
X74182857Y-40414819D02*
X74849523Y-40414819D01*
X74849523Y-40414819D02*
X74420952Y-41414819D01*
X114457142Y-131154819D02*
X114123809Y-130678628D01*
X113885714Y-131154819D02*
X113885714Y-130154819D01*
X113885714Y-130154819D02*
X114266666Y-130154819D01*
X114266666Y-130154819D02*
X114361904Y-130202438D01*
X114361904Y-130202438D02*
X114409523Y-130250057D01*
X114409523Y-130250057D02*
X114457142Y-130345295D01*
X114457142Y-130345295D02*
X114457142Y-130488152D01*
X114457142Y-130488152D02*
X114409523Y-130583390D01*
X114409523Y-130583390D02*
X114361904Y-130631009D01*
X114361904Y-130631009D02*
X114266666Y-130678628D01*
X114266666Y-130678628D02*
X113885714Y-130678628D01*
X115409523Y-131154819D02*
X114838095Y-131154819D01*
X115123809Y-131154819D02*
X115123809Y-130154819D01*
X115123809Y-130154819D02*
X115028571Y-130297676D01*
X115028571Y-130297676D02*
X114933333Y-130392914D01*
X114933333Y-130392914D02*
X114838095Y-130440533D01*
X116361904Y-131154819D02*
X115790476Y-131154819D01*
X116076190Y-131154819D02*
X116076190Y-130154819D01*
X116076190Y-130154819D02*
X115980952Y-130297676D01*
X115980952Y-130297676D02*
X115885714Y-130392914D01*
X115885714Y-130392914D02*
X115790476Y-130440533D01*
X76761905Y-134554819D02*
X76761905Y-133554819D01*
X76761905Y-133554819D02*
X77000000Y-133554819D01*
X77000000Y-133554819D02*
X77142857Y-133602438D01*
X77142857Y-133602438D02*
X77238095Y-133697676D01*
X77238095Y-133697676D02*
X77285714Y-133792914D01*
X77285714Y-133792914D02*
X77333333Y-133983390D01*
X77333333Y-133983390D02*
X77333333Y-134126247D01*
X77333333Y-134126247D02*
X77285714Y-134316723D01*
X77285714Y-134316723D02*
X77238095Y-134411961D01*
X77238095Y-134411961D02*
X77142857Y-134507200D01*
X77142857Y-134507200D02*
X77000000Y-134554819D01*
X77000000Y-134554819D02*
X76761905Y-134554819D01*
X78285714Y-134554819D02*
X77714286Y-134554819D01*
X78000000Y-134554819D02*
X78000000Y-133554819D01*
X78000000Y-133554819D02*
X77904762Y-133697676D01*
X77904762Y-133697676D02*
X77809524Y-133792914D01*
X77809524Y-133792914D02*
X77714286Y-133840533D01*
X97508249Y-78320750D02*
X97174916Y-77844559D01*
X96936821Y-78320750D02*
X96936821Y-77320750D01*
X96936821Y-77320750D02*
X97317773Y-77320750D01*
X97317773Y-77320750D02*
X97413011Y-77368369D01*
X97413011Y-77368369D02*
X97460630Y-77415988D01*
X97460630Y-77415988D02*
X97508249Y-77511226D01*
X97508249Y-77511226D02*
X97508249Y-77654083D01*
X97508249Y-77654083D02*
X97460630Y-77749321D01*
X97460630Y-77749321D02*
X97413011Y-77796940D01*
X97413011Y-77796940D02*
X97317773Y-77844559D01*
X97317773Y-77844559D02*
X96936821Y-77844559D01*
X98460630Y-78320750D02*
X97889202Y-78320750D01*
X98174916Y-78320750D02*
X98174916Y-77320750D01*
X98174916Y-77320750D02*
X98079678Y-77463607D01*
X98079678Y-77463607D02*
X97984440Y-77558845D01*
X97984440Y-77558845D02*
X97889202Y-77606464D01*
X99317773Y-77654083D02*
X99317773Y-78320750D01*
X99079678Y-77273131D02*
X98841583Y-77987416D01*
X98841583Y-77987416D02*
X99460630Y-77987416D01*
X85157142Y-100489881D02*
X84823809Y-100013690D01*
X84585714Y-100489881D02*
X84585714Y-99489881D01*
X84585714Y-99489881D02*
X84966666Y-99489881D01*
X84966666Y-99489881D02*
X85061904Y-99537500D01*
X85061904Y-99537500D02*
X85109523Y-99585119D01*
X85109523Y-99585119D02*
X85157142Y-99680357D01*
X85157142Y-99680357D02*
X85157142Y-99823214D01*
X85157142Y-99823214D02*
X85109523Y-99918452D01*
X85109523Y-99918452D02*
X85061904Y-99966071D01*
X85061904Y-99966071D02*
X84966666Y-100013690D01*
X84966666Y-100013690D02*
X84585714Y-100013690D01*
X86109523Y-100489881D02*
X85538095Y-100489881D01*
X85823809Y-100489881D02*
X85823809Y-99489881D01*
X85823809Y-99489881D02*
X85728571Y-99632738D01*
X85728571Y-99632738D02*
X85633333Y-99727976D01*
X85633333Y-99727976D02*
X85538095Y-99775595D01*
X86442857Y-99489881D02*
X87061904Y-99489881D01*
X87061904Y-99489881D02*
X86728571Y-99870833D01*
X86728571Y-99870833D02*
X86871428Y-99870833D01*
X86871428Y-99870833D02*
X86966666Y-99918452D01*
X86966666Y-99918452D02*
X87014285Y-99966071D01*
X87014285Y-99966071D02*
X87061904Y-100061309D01*
X87061904Y-100061309D02*
X87061904Y-100299404D01*
X87061904Y-100299404D02*
X87014285Y-100394642D01*
X87014285Y-100394642D02*
X86966666Y-100442262D01*
X86966666Y-100442262D02*
X86871428Y-100489881D01*
X86871428Y-100489881D02*
X86585714Y-100489881D01*
X86585714Y-100489881D02*
X86490476Y-100442262D01*
X86490476Y-100442262D02*
X86442857Y-100394642D01*
X72897142Y-44514819D02*
X72563809Y-44038628D01*
X72325714Y-44514819D02*
X72325714Y-43514819D01*
X72325714Y-43514819D02*
X72706666Y-43514819D01*
X72706666Y-43514819D02*
X72801904Y-43562438D01*
X72801904Y-43562438D02*
X72849523Y-43610057D01*
X72849523Y-43610057D02*
X72897142Y-43705295D01*
X72897142Y-43705295D02*
X72897142Y-43848152D01*
X72897142Y-43848152D02*
X72849523Y-43943390D01*
X72849523Y-43943390D02*
X72801904Y-43991009D01*
X72801904Y-43991009D02*
X72706666Y-44038628D01*
X72706666Y-44038628D02*
X72325714Y-44038628D01*
X73849523Y-44514819D02*
X73278095Y-44514819D01*
X73563809Y-44514819D02*
X73563809Y-43514819D01*
X73563809Y-43514819D02*
X73468571Y-43657676D01*
X73468571Y-43657676D02*
X73373333Y-43752914D01*
X73373333Y-43752914D02*
X73278095Y-43800533D01*
X74754285Y-43514819D02*
X74278095Y-43514819D01*
X74278095Y-43514819D02*
X74230476Y-43991009D01*
X74230476Y-43991009D02*
X74278095Y-43943390D01*
X74278095Y-43943390D02*
X74373333Y-43895771D01*
X74373333Y-43895771D02*
X74611428Y-43895771D01*
X74611428Y-43895771D02*
X74706666Y-43943390D01*
X74706666Y-43943390D02*
X74754285Y-43991009D01*
X74754285Y-43991009D02*
X74801904Y-44086247D01*
X74801904Y-44086247D02*
X74801904Y-44324342D01*
X74801904Y-44324342D02*
X74754285Y-44419580D01*
X74754285Y-44419580D02*
X74706666Y-44467200D01*
X74706666Y-44467200D02*
X74611428Y-44514819D01*
X74611428Y-44514819D02*
X74373333Y-44514819D01*
X74373333Y-44514819D02*
X74278095Y-44467200D01*
X74278095Y-44467200D02*
X74230476Y-44419580D01*
X86602142Y-41414819D02*
X86268809Y-40938628D01*
X86030714Y-41414819D02*
X86030714Y-40414819D01*
X86030714Y-40414819D02*
X86411666Y-40414819D01*
X86411666Y-40414819D02*
X86506904Y-40462438D01*
X86506904Y-40462438D02*
X86554523Y-40510057D01*
X86554523Y-40510057D02*
X86602142Y-40605295D01*
X86602142Y-40605295D02*
X86602142Y-40748152D01*
X86602142Y-40748152D02*
X86554523Y-40843390D01*
X86554523Y-40843390D02*
X86506904Y-40891009D01*
X86506904Y-40891009D02*
X86411666Y-40938628D01*
X86411666Y-40938628D02*
X86030714Y-40938628D01*
X86983095Y-40510057D02*
X87030714Y-40462438D01*
X87030714Y-40462438D02*
X87125952Y-40414819D01*
X87125952Y-40414819D02*
X87364047Y-40414819D01*
X87364047Y-40414819D02*
X87459285Y-40462438D01*
X87459285Y-40462438D02*
X87506904Y-40510057D01*
X87506904Y-40510057D02*
X87554523Y-40605295D01*
X87554523Y-40605295D02*
X87554523Y-40700533D01*
X87554523Y-40700533D02*
X87506904Y-40843390D01*
X87506904Y-40843390D02*
X86935476Y-41414819D01*
X86935476Y-41414819D02*
X87554523Y-41414819D01*
X87887857Y-40414819D02*
X88506904Y-40414819D01*
X88506904Y-40414819D02*
X88173571Y-40795771D01*
X88173571Y-40795771D02*
X88316428Y-40795771D01*
X88316428Y-40795771D02*
X88411666Y-40843390D01*
X88411666Y-40843390D02*
X88459285Y-40891009D01*
X88459285Y-40891009D02*
X88506904Y-40986247D01*
X88506904Y-40986247D02*
X88506904Y-41224342D01*
X88506904Y-41224342D02*
X88459285Y-41319580D01*
X88459285Y-41319580D02*
X88411666Y-41367200D01*
X88411666Y-41367200D02*
X88316428Y-41414819D01*
X88316428Y-41414819D02*
X88030714Y-41414819D01*
X88030714Y-41414819D02*
X87935476Y-41367200D01*
X87935476Y-41367200D02*
X87887857Y-41319580D01*
X90118934Y-144156322D02*
X89642743Y-144489655D01*
X90118934Y-144727750D02*
X89118934Y-144727750D01*
X89118934Y-144727750D02*
X89118934Y-144346798D01*
X89118934Y-144346798D02*
X89166553Y-144251560D01*
X89166553Y-144251560D02*
X89214172Y-144203941D01*
X89214172Y-144203941D02*
X89309410Y-144156322D01*
X89309410Y-144156322D02*
X89452267Y-144156322D01*
X89452267Y-144156322D02*
X89547505Y-144203941D01*
X89547505Y-144203941D02*
X89595124Y-144251560D01*
X89595124Y-144251560D02*
X89642743Y-144346798D01*
X89642743Y-144346798D02*
X89642743Y-144727750D01*
X89214172Y-143775369D02*
X89166553Y-143727750D01*
X89166553Y-143727750D02*
X89118934Y-143632512D01*
X89118934Y-143632512D02*
X89118934Y-143394417D01*
X89118934Y-143394417D02*
X89166553Y-143299179D01*
X89166553Y-143299179D02*
X89214172Y-143251560D01*
X89214172Y-143251560D02*
X89309410Y-143203941D01*
X89309410Y-143203941D02*
X89404648Y-143203941D01*
X89404648Y-143203941D02*
X89547505Y-143251560D01*
X89547505Y-143251560D02*
X90118934Y-143822988D01*
X90118934Y-143822988D02*
X90118934Y-143203941D01*
X85183751Y-78321169D02*
X84850418Y-77844978D01*
X84612323Y-78321169D02*
X84612323Y-77321169D01*
X84612323Y-77321169D02*
X84993275Y-77321169D01*
X84993275Y-77321169D02*
X85088513Y-77368788D01*
X85088513Y-77368788D02*
X85136132Y-77416407D01*
X85136132Y-77416407D02*
X85183751Y-77511645D01*
X85183751Y-77511645D02*
X85183751Y-77654502D01*
X85183751Y-77654502D02*
X85136132Y-77749740D01*
X85136132Y-77749740D02*
X85088513Y-77797359D01*
X85088513Y-77797359D02*
X84993275Y-77844978D01*
X84993275Y-77844978D02*
X84612323Y-77844978D01*
X86136132Y-78321169D02*
X85564704Y-78321169D01*
X85850418Y-78321169D02*
X85850418Y-77321169D01*
X85850418Y-77321169D02*
X85755180Y-77464026D01*
X85755180Y-77464026D02*
X85659942Y-77559264D01*
X85659942Y-77559264D02*
X85564704Y-77606883D01*
X86517085Y-77416407D02*
X86564704Y-77368788D01*
X86564704Y-77368788D02*
X86659942Y-77321169D01*
X86659942Y-77321169D02*
X86898037Y-77321169D01*
X86898037Y-77321169D02*
X86993275Y-77368788D01*
X86993275Y-77368788D02*
X87040894Y-77416407D01*
X87040894Y-77416407D02*
X87088513Y-77511645D01*
X87088513Y-77511645D02*
X87088513Y-77606883D01*
X87088513Y-77606883D02*
X87040894Y-77749740D01*
X87040894Y-77749740D02*
X86469466Y-78321169D01*
X86469466Y-78321169D02*
X87088513Y-78321169D01*
X112363494Y-144195420D02*
X111887303Y-144528753D01*
X112363494Y-144766848D02*
X111363494Y-144766848D01*
X111363494Y-144766848D02*
X111363494Y-144385896D01*
X111363494Y-144385896D02*
X111411113Y-144290658D01*
X111411113Y-144290658D02*
X111458732Y-144243039D01*
X111458732Y-144243039D02*
X111553970Y-144195420D01*
X111553970Y-144195420D02*
X111696827Y-144195420D01*
X111696827Y-144195420D02*
X111792065Y-144243039D01*
X111792065Y-144243039D02*
X111839684Y-144290658D01*
X111839684Y-144290658D02*
X111887303Y-144385896D01*
X111887303Y-144385896D02*
X111887303Y-144766848D01*
X111696827Y-143338277D02*
X112363494Y-143338277D01*
X111315875Y-143576372D02*
X112030160Y-143814467D01*
X112030160Y-143814467D02*
X112030160Y-143195420D01*
X121361905Y-134454819D02*
X121361905Y-133454819D01*
X121361905Y-133454819D02*
X121600000Y-133454819D01*
X121600000Y-133454819D02*
X121742857Y-133502438D01*
X121742857Y-133502438D02*
X121838095Y-133597676D01*
X121838095Y-133597676D02*
X121885714Y-133692914D01*
X121885714Y-133692914D02*
X121933333Y-133883390D01*
X121933333Y-133883390D02*
X121933333Y-134026247D01*
X121933333Y-134026247D02*
X121885714Y-134216723D01*
X121885714Y-134216723D02*
X121838095Y-134311961D01*
X121838095Y-134311961D02*
X121742857Y-134407200D01*
X121742857Y-134407200D02*
X121600000Y-134454819D01*
X121600000Y-134454819D02*
X121361905Y-134454819D01*
X122266667Y-133454819D02*
X122885714Y-133454819D01*
X122885714Y-133454819D02*
X122552381Y-133835771D01*
X122552381Y-133835771D02*
X122695238Y-133835771D01*
X122695238Y-133835771D02*
X122790476Y-133883390D01*
X122790476Y-133883390D02*
X122838095Y-133931009D01*
X122838095Y-133931009D02*
X122885714Y-134026247D01*
X122885714Y-134026247D02*
X122885714Y-134264342D01*
X122885714Y-134264342D02*
X122838095Y-134359580D01*
X122838095Y-134359580D02*
X122790476Y-134407200D01*
X122790476Y-134407200D02*
X122695238Y-134454819D01*
X122695238Y-134454819D02*
X122409524Y-134454819D01*
X122409524Y-134454819D02*
X122314286Y-134407200D01*
X122314286Y-134407200D02*
X122266667Y-134359580D01*
X80386667Y-152833200D02*
X80529524Y-152880819D01*
X80529524Y-152880819D02*
X80767619Y-152880819D01*
X80767619Y-152880819D02*
X80862857Y-152833200D01*
X80862857Y-152833200D02*
X80910476Y-152785580D01*
X80910476Y-152785580D02*
X80958095Y-152690342D01*
X80958095Y-152690342D02*
X80958095Y-152595104D01*
X80958095Y-152595104D02*
X80910476Y-152499866D01*
X80910476Y-152499866D02*
X80862857Y-152452247D01*
X80862857Y-152452247D02*
X80767619Y-152404628D01*
X80767619Y-152404628D02*
X80577143Y-152357009D01*
X80577143Y-152357009D02*
X80481905Y-152309390D01*
X80481905Y-152309390D02*
X80434286Y-152261771D01*
X80434286Y-152261771D02*
X80386667Y-152166533D01*
X80386667Y-152166533D02*
X80386667Y-152071295D01*
X80386667Y-152071295D02*
X80434286Y-151976057D01*
X80434286Y-151976057D02*
X80481905Y-151928438D01*
X80481905Y-151928438D02*
X80577143Y-151880819D01*
X80577143Y-151880819D02*
X80815238Y-151880819D01*
X80815238Y-151880819D02*
X80958095Y-151928438D01*
X81291429Y-151880819D02*
X81529524Y-152880819D01*
X81529524Y-152880819D02*
X81720000Y-152166533D01*
X81720000Y-152166533D02*
X81910476Y-152880819D01*
X81910476Y-152880819D02*
X82148572Y-151880819D01*
X83053333Y-152880819D02*
X82481905Y-152880819D01*
X82767619Y-152880819D02*
X82767619Y-151880819D01*
X82767619Y-151880819D02*
X82672381Y-152023676D01*
X82672381Y-152023676D02*
X82577143Y-152118914D01*
X82577143Y-152118914D02*
X82481905Y-152166533D01*
D13*
X85941666Y-149002419D02*
X85941666Y-149716704D01*
X85941666Y-149716704D02*
X85894047Y-149859561D01*
X85894047Y-149859561D02*
X85798809Y-149954800D01*
X85798809Y-149954800D02*
X85655952Y-150002419D01*
X85655952Y-150002419D02*
X85560714Y-150002419D01*
X86894047Y-149002419D02*
X86417857Y-149002419D01*
X86417857Y-149002419D02*
X86370238Y-149478609D01*
X86370238Y-149478609D02*
X86417857Y-149430990D01*
X86417857Y-149430990D02*
X86513095Y-149383371D01*
X86513095Y-149383371D02*
X86751190Y-149383371D01*
X86751190Y-149383371D02*
X86846428Y-149430990D01*
X86846428Y-149430990D02*
X86894047Y-149478609D01*
X86894047Y-149478609D02*
X86941666Y-149573847D01*
X86941666Y-149573847D02*
X86941666Y-149811942D01*
X86941666Y-149811942D02*
X86894047Y-149907180D01*
X86894047Y-149907180D02*
X86846428Y-149954800D01*
X86846428Y-149954800D02*
X86751190Y-150002419D01*
X86751190Y-150002419D02*
X86513095Y-150002419D01*
X86513095Y-150002419D02*
X86417857Y-149954800D01*
X86417857Y-149954800D02*
X86370238Y-149907180D01*
X114145476Y-97237481D02*
X114145476Y-97951766D01*
X114145476Y-97951766D02*
X114097857Y-98094623D01*
X114097857Y-98094623D02*
X114002619Y-98189862D01*
X114002619Y-98189862D02*
X113859762Y-98237481D01*
X113859762Y-98237481D02*
X113764524Y-98237481D01*
X115145476Y-98237481D02*
X114574048Y-98237481D01*
X114859762Y-98237481D02*
X114859762Y-97237481D01*
X114859762Y-97237481D02*
X114764524Y-97380338D01*
X114764524Y-97380338D02*
X114669286Y-97475576D01*
X114669286Y-97475576D02*
X114574048Y-97523195D01*
X115526429Y-97332719D02*
X115574048Y-97285100D01*
X115574048Y-97285100D02*
X115669286Y-97237481D01*
X115669286Y-97237481D02*
X115907381Y-97237481D01*
X115907381Y-97237481D02*
X116002619Y-97285100D01*
X116002619Y-97285100D02*
X116050238Y-97332719D01*
X116050238Y-97332719D02*
X116097857Y-97427957D01*
X116097857Y-97427957D02*
X116097857Y-97523195D01*
X116097857Y-97523195D02*
X116050238Y-97666052D01*
X116050238Y-97666052D02*
X115478810Y-98237481D01*
X115478810Y-98237481D02*
X116097857Y-98237481D01*
D12*
X76176974Y-109754819D02*
X75843641Y-109278628D01*
X75605546Y-109754819D02*
X75605546Y-108754819D01*
X75605546Y-108754819D02*
X75986498Y-108754819D01*
X75986498Y-108754819D02*
X76081736Y-108802438D01*
X76081736Y-108802438D02*
X76129355Y-108850057D01*
X76129355Y-108850057D02*
X76176974Y-108945295D01*
X76176974Y-108945295D02*
X76176974Y-109088152D01*
X76176974Y-109088152D02*
X76129355Y-109183390D01*
X76129355Y-109183390D02*
X76081736Y-109231009D01*
X76081736Y-109231009D02*
X75986498Y-109278628D01*
X75986498Y-109278628D02*
X75605546Y-109278628D01*
X76557927Y-108850057D02*
X76605546Y-108802438D01*
X76605546Y-108802438D02*
X76700784Y-108754819D01*
X76700784Y-108754819D02*
X76938879Y-108754819D01*
X76938879Y-108754819D02*
X77034117Y-108802438D01*
X77034117Y-108802438D02*
X77081736Y-108850057D01*
X77081736Y-108850057D02*
X77129355Y-108945295D01*
X77129355Y-108945295D02*
X77129355Y-109040533D01*
X77129355Y-109040533D02*
X77081736Y-109183390D01*
X77081736Y-109183390D02*
X76510308Y-109754819D01*
X76510308Y-109754819D02*
X77129355Y-109754819D01*
X77986498Y-108754819D02*
X77796022Y-108754819D01*
X77796022Y-108754819D02*
X77700784Y-108802438D01*
X77700784Y-108802438D02*
X77653165Y-108850057D01*
X77653165Y-108850057D02*
X77557927Y-108992914D01*
X77557927Y-108992914D02*
X77510308Y-109183390D01*
X77510308Y-109183390D02*
X77510308Y-109564342D01*
X77510308Y-109564342D02*
X77557927Y-109659580D01*
X77557927Y-109659580D02*
X77605546Y-109707200D01*
X77605546Y-109707200D02*
X77700784Y-109754819D01*
X77700784Y-109754819D02*
X77891260Y-109754819D01*
X77891260Y-109754819D02*
X77986498Y-109707200D01*
X77986498Y-109707200D02*
X78034117Y-109659580D01*
X78034117Y-109659580D02*
X78081736Y-109564342D01*
X78081736Y-109564342D02*
X78081736Y-109326247D01*
X78081736Y-109326247D02*
X78034117Y-109231009D01*
X78034117Y-109231009D02*
X77986498Y-109183390D01*
X77986498Y-109183390D02*
X77891260Y-109135771D01*
X77891260Y-109135771D02*
X77700784Y-109135771D01*
X77700784Y-109135771D02*
X77605546Y-109183390D01*
X77605546Y-109183390D02*
X77557927Y-109231009D01*
X77557927Y-109231009D02*
X77510308Y-109326247D01*
X93161905Y-83354819D02*
X93161905Y-82354819D01*
X93161905Y-82354819D02*
X93400000Y-82354819D01*
X93400000Y-82354819D02*
X93542857Y-82402438D01*
X93542857Y-82402438D02*
X93638095Y-82497676D01*
X93638095Y-82497676D02*
X93685714Y-82592914D01*
X93685714Y-82592914D02*
X93733333Y-82783390D01*
X93733333Y-82783390D02*
X93733333Y-82926247D01*
X93733333Y-82926247D02*
X93685714Y-83116723D01*
X93685714Y-83116723D02*
X93638095Y-83211961D01*
X93638095Y-83211961D02*
X93542857Y-83307200D01*
X93542857Y-83307200D02*
X93400000Y-83354819D01*
X93400000Y-83354819D02*
X93161905Y-83354819D01*
X94590476Y-82354819D02*
X94400000Y-82354819D01*
X94400000Y-82354819D02*
X94304762Y-82402438D01*
X94304762Y-82402438D02*
X94257143Y-82450057D01*
X94257143Y-82450057D02*
X94161905Y-82592914D01*
X94161905Y-82592914D02*
X94114286Y-82783390D01*
X94114286Y-82783390D02*
X94114286Y-83164342D01*
X94114286Y-83164342D02*
X94161905Y-83259580D01*
X94161905Y-83259580D02*
X94209524Y-83307200D01*
X94209524Y-83307200D02*
X94304762Y-83354819D01*
X94304762Y-83354819D02*
X94495238Y-83354819D01*
X94495238Y-83354819D02*
X94590476Y-83307200D01*
X94590476Y-83307200D02*
X94638095Y-83259580D01*
X94638095Y-83259580D02*
X94685714Y-83164342D01*
X94685714Y-83164342D02*
X94685714Y-82926247D01*
X94685714Y-82926247D02*
X94638095Y-82831009D01*
X94638095Y-82831009D02*
X94590476Y-82783390D01*
X94590476Y-82783390D02*
X94495238Y-82735771D01*
X94495238Y-82735771D02*
X94304762Y-82735771D01*
X94304762Y-82735771D02*
X94209524Y-82783390D01*
X94209524Y-82783390D02*
X94161905Y-82831009D01*
X94161905Y-82831009D02*
X94114286Y-82926247D01*
X96463494Y-144195420D02*
X95987303Y-144528753D01*
X96463494Y-144766848D02*
X95463494Y-144766848D01*
X95463494Y-144766848D02*
X95463494Y-144385896D01*
X95463494Y-144385896D02*
X95511113Y-144290658D01*
X95511113Y-144290658D02*
X95558732Y-144243039D01*
X95558732Y-144243039D02*
X95653970Y-144195420D01*
X95653970Y-144195420D02*
X95796827Y-144195420D01*
X95796827Y-144195420D02*
X95892065Y-144243039D01*
X95892065Y-144243039D02*
X95939684Y-144290658D01*
X95939684Y-144290658D02*
X95987303Y-144385896D01*
X95987303Y-144385896D02*
X95987303Y-144766848D01*
X95463494Y-143862086D02*
X95463494Y-143243039D01*
X95463494Y-143243039D02*
X95844446Y-143576372D01*
X95844446Y-143576372D02*
X95844446Y-143433515D01*
X95844446Y-143433515D02*
X95892065Y-143338277D01*
X95892065Y-143338277D02*
X95939684Y-143290658D01*
X95939684Y-143290658D02*
X96034922Y-143243039D01*
X96034922Y-143243039D02*
X96273017Y-143243039D01*
X96273017Y-143243039D02*
X96368255Y-143290658D01*
X96368255Y-143290658D02*
X96415875Y-143338277D01*
X96415875Y-143338277D02*
X96463494Y-143433515D01*
X96463494Y-143433515D02*
X96463494Y-143719229D01*
X96463494Y-143719229D02*
X96415875Y-143814467D01*
X96415875Y-143814467D02*
X96368255Y-143862086D01*
X134437142Y-78314819D02*
X134103809Y-77838628D01*
X133865714Y-78314819D02*
X133865714Y-77314819D01*
X133865714Y-77314819D02*
X134246666Y-77314819D01*
X134246666Y-77314819D02*
X134341904Y-77362438D01*
X134341904Y-77362438D02*
X134389523Y-77410057D01*
X134389523Y-77410057D02*
X134437142Y-77505295D01*
X134437142Y-77505295D02*
X134437142Y-77648152D01*
X134437142Y-77648152D02*
X134389523Y-77743390D01*
X134389523Y-77743390D02*
X134341904Y-77791009D01*
X134341904Y-77791009D02*
X134246666Y-77838628D01*
X134246666Y-77838628D02*
X133865714Y-77838628D01*
X134818095Y-77410057D02*
X134865714Y-77362438D01*
X134865714Y-77362438D02*
X134960952Y-77314819D01*
X134960952Y-77314819D02*
X135199047Y-77314819D01*
X135199047Y-77314819D02*
X135294285Y-77362438D01*
X135294285Y-77362438D02*
X135341904Y-77410057D01*
X135341904Y-77410057D02*
X135389523Y-77505295D01*
X135389523Y-77505295D02*
X135389523Y-77600533D01*
X135389523Y-77600533D02*
X135341904Y-77743390D01*
X135341904Y-77743390D02*
X134770476Y-78314819D01*
X134770476Y-78314819D02*
X135389523Y-78314819D01*
X135960952Y-77743390D02*
X135865714Y-77695771D01*
X135865714Y-77695771D02*
X135818095Y-77648152D01*
X135818095Y-77648152D02*
X135770476Y-77552914D01*
X135770476Y-77552914D02*
X135770476Y-77505295D01*
X135770476Y-77505295D02*
X135818095Y-77410057D01*
X135818095Y-77410057D02*
X135865714Y-77362438D01*
X135865714Y-77362438D02*
X135960952Y-77314819D01*
X135960952Y-77314819D02*
X136151428Y-77314819D01*
X136151428Y-77314819D02*
X136246666Y-77362438D01*
X136246666Y-77362438D02*
X136294285Y-77410057D01*
X136294285Y-77410057D02*
X136341904Y-77505295D01*
X136341904Y-77505295D02*
X136341904Y-77552914D01*
X136341904Y-77552914D02*
X136294285Y-77648152D01*
X136294285Y-77648152D02*
X136246666Y-77695771D01*
X136246666Y-77695771D02*
X136151428Y-77743390D01*
X136151428Y-77743390D02*
X135960952Y-77743390D01*
X135960952Y-77743390D02*
X135865714Y-77791009D01*
X135865714Y-77791009D02*
X135818095Y-77838628D01*
X135818095Y-77838628D02*
X135770476Y-77933866D01*
X135770476Y-77933866D02*
X135770476Y-78124342D01*
X135770476Y-78124342D02*
X135818095Y-78219580D01*
X135818095Y-78219580D02*
X135865714Y-78267200D01*
X135865714Y-78267200D02*
X135960952Y-78314819D01*
X135960952Y-78314819D02*
X136151428Y-78314819D01*
X136151428Y-78314819D02*
X136246666Y-78267200D01*
X136246666Y-78267200D02*
X136294285Y-78219580D01*
X136294285Y-78219580D02*
X136341904Y-78124342D01*
X136341904Y-78124342D02*
X136341904Y-77933866D01*
X136341904Y-77933866D02*
X136294285Y-77838628D01*
X136294285Y-77838628D02*
X136246666Y-77791009D01*
X136246666Y-77791009D02*
X136151428Y-77743390D01*
D13*
X89466667Y-118809800D02*
X89609524Y-118857419D01*
X89609524Y-118857419D02*
X89847619Y-118857419D01*
X89847619Y-118857419D02*
X89942857Y-118809800D01*
X89942857Y-118809800D02*
X89990476Y-118762180D01*
X89990476Y-118762180D02*
X90038095Y-118666942D01*
X90038095Y-118666942D02*
X90038095Y-118571704D01*
X90038095Y-118571704D02*
X89990476Y-118476466D01*
X89990476Y-118476466D02*
X89942857Y-118428847D01*
X89942857Y-118428847D02*
X89847619Y-118381228D01*
X89847619Y-118381228D02*
X89657143Y-118333609D01*
X89657143Y-118333609D02*
X89561905Y-118285990D01*
X89561905Y-118285990D02*
X89514286Y-118238371D01*
X89514286Y-118238371D02*
X89466667Y-118143133D01*
X89466667Y-118143133D02*
X89466667Y-118047895D01*
X89466667Y-118047895D02*
X89514286Y-117952657D01*
X89514286Y-117952657D02*
X89561905Y-117905038D01*
X89561905Y-117905038D02*
X89657143Y-117857419D01*
X89657143Y-117857419D02*
X89895238Y-117857419D01*
X89895238Y-117857419D02*
X90038095Y-117905038D01*
X90371429Y-117857419D02*
X90609524Y-118857419D01*
X90609524Y-118857419D02*
X90800000Y-118143133D01*
X90800000Y-118143133D02*
X90990476Y-118857419D01*
X90990476Y-118857419D02*
X91228572Y-117857419D01*
X91514286Y-117857419D02*
X92180952Y-117857419D01*
X92180952Y-117857419D02*
X91752381Y-118857419D01*
D12*
X74218934Y-144096322D02*
X73742743Y-144429655D01*
X74218934Y-144667750D02*
X73218934Y-144667750D01*
X73218934Y-144667750D02*
X73218934Y-144286798D01*
X73218934Y-144286798D02*
X73266553Y-144191560D01*
X73266553Y-144191560D02*
X73314172Y-144143941D01*
X73314172Y-144143941D02*
X73409410Y-144096322D01*
X73409410Y-144096322D02*
X73552267Y-144096322D01*
X73552267Y-144096322D02*
X73647505Y-144143941D01*
X73647505Y-144143941D02*
X73695124Y-144191560D01*
X73695124Y-144191560D02*
X73742743Y-144286798D01*
X73742743Y-144286798D02*
X73742743Y-144667750D01*
X74218934Y-143143941D02*
X74218934Y-143715369D01*
X74218934Y-143429655D02*
X73218934Y-143429655D01*
X73218934Y-143429655D02*
X73361791Y-143524893D01*
X73361791Y-143524893D02*
X73457029Y-143620131D01*
X73457029Y-143620131D02*
X73504648Y-143715369D01*
X66761905Y-46854819D02*
X66761905Y-45854819D01*
X66761905Y-45854819D02*
X67000000Y-45854819D01*
X67000000Y-45854819D02*
X67142857Y-45902438D01*
X67142857Y-45902438D02*
X67238095Y-45997676D01*
X67238095Y-45997676D02*
X67285714Y-46092914D01*
X67285714Y-46092914D02*
X67333333Y-46283390D01*
X67333333Y-46283390D02*
X67333333Y-46426247D01*
X67333333Y-46426247D02*
X67285714Y-46616723D01*
X67285714Y-46616723D02*
X67238095Y-46711961D01*
X67238095Y-46711961D02*
X67142857Y-46807200D01*
X67142857Y-46807200D02*
X67000000Y-46854819D01*
X67000000Y-46854819D02*
X66761905Y-46854819D01*
X67666667Y-45854819D02*
X68333333Y-45854819D01*
X68333333Y-45854819D02*
X67904762Y-46854819D01*
X86602142Y-44514819D02*
X86268809Y-44038628D01*
X86030714Y-44514819D02*
X86030714Y-43514819D01*
X86030714Y-43514819D02*
X86411666Y-43514819D01*
X86411666Y-43514819D02*
X86506904Y-43562438D01*
X86506904Y-43562438D02*
X86554523Y-43610057D01*
X86554523Y-43610057D02*
X86602142Y-43705295D01*
X86602142Y-43705295D02*
X86602142Y-43848152D01*
X86602142Y-43848152D02*
X86554523Y-43943390D01*
X86554523Y-43943390D02*
X86506904Y-43991009D01*
X86506904Y-43991009D02*
X86411666Y-44038628D01*
X86411666Y-44038628D02*
X86030714Y-44038628D01*
X87554523Y-44514819D02*
X86983095Y-44514819D01*
X87268809Y-44514819D02*
X87268809Y-43514819D01*
X87268809Y-43514819D02*
X87173571Y-43657676D01*
X87173571Y-43657676D02*
X87078333Y-43752914D01*
X87078333Y-43752914D02*
X86983095Y-43800533D01*
X88030714Y-44514819D02*
X88221190Y-44514819D01*
X88221190Y-44514819D02*
X88316428Y-44467200D01*
X88316428Y-44467200D02*
X88364047Y-44419580D01*
X88364047Y-44419580D02*
X88459285Y-44276723D01*
X88459285Y-44276723D02*
X88506904Y-44086247D01*
X88506904Y-44086247D02*
X88506904Y-43705295D01*
X88506904Y-43705295D02*
X88459285Y-43610057D01*
X88459285Y-43610057D02*
X88411666Y-43562438D01*
X88411666Y-43562438D02*
X88316428Y-43514819D01*
X88316428Y-43514819D02*
X88125952Y-43514819D01*
X88125952Y-43514819D02*
X88030714Y-43562438D01*
X88030714Y-43562438D02*
X87983095Y-43610057D01*
X87983095Y-43610057D02*
X87935476Y-43705295D01*
X87935476Y-43705295D02*
X87935476Y-43943390D01*
X87935476Y-43943390D02*
X87983095Y-44038628D01*
X87983095Y-44038628D02*
X88030714Y-44086247D01*
X88030714Y-44086247D02*
X88125952Y-44133866D01*
X88125952Y-44133866D02*
X88316428Y-44133866D01*
X88316428Y-44133866D02*
X88411666Y-44086247D01*
X88411666Y-44086247D02*
X88459285Y-44038628D01*
X88459285Y-44038628D02*
X88506904Y-43943390D01*
X129185714Y-83354819D02*
X129185714Y-82354819D01*
X129185714Y-82354819D02*
X129423809Y-82354819D01*
X129423809Y-82354819D02*
X129566666Y-82402438D01*
X129566666Y-82402438D02*
X129661904Y-82497676D01*
X129661904Y-82497676D02*
X129709523Y-82592914D01*
X129709523Y-82592914D02*
X129757142Y-82783390D01*
X129757142Y-82783390D02*
X129757142Y-82926247D01*
X129757142Y-82926247D02*
X129709523Y-83116723D01*
X129709523Y-83116723D02*
X129661904Y-83211961D01*
X129661904Y-83211961D02*
X129566666Y-83307200D01*
X129566666Y-83307200D02*
X129423809Y-83354819D01*
X129423809Y-83354819D02*
X129185714Y-83354819D01*
X130709523Y-83354819D02*
X130138095Y-83354819D01*
X130423809Y-83354819D02*
X130423809Y-82354819D01*
X130423809Y-82354819D02*
X130328571Y-82497676D01*
X130328571Y-82497676D02*
X130233333Y-82592914D01*
X130233333Y-82592914D02*
X130138095Y-82640533D01*
X131090476Y-82450057D02*
X131138095Y-82402438D01*
X131138095Y-82402438D02*
X131233333Y-82354819D01*
X131233333Y-82354819D02*
X131471428Y-82354819D01*
X131471428Y-82354819D02*
X131566666Y-82402438D01*
X131566666Y-82402438D02*
X131614285Y-82450057D01*
X131614285Y-82450057D02*
X131661904Y-82545295D01*
X131661904Y-82545295D02*
X131661904Y-82640533D01*
X131661904Y-82640533D02*
X131614285Y-82783390D01*
X131614285Y-82783390D02*
X131042857Y-83354819D01*
X131042857Y-83354819D02*
X131661904Y-83354819D01*
X79685714Y-46054819D02*
X79685714Y-45054819D01*
X79685714Y-45054819D02*
X79923809Y-45054819D01*
X79923809Y-45054819D02*
X80066666Y-45102438D01*
X80066666Y-45102438D02*
X80161904Y-45197676D01*
X80161904Y-45197676D02*
X80209523Y-45292914D01*
X80209523Y-45292914D02*
X80257142Y-45483390D01*
X80257142Y-45483390D02*
X80257142Y-45626247D01*
X80257142Y-45626247D02*
X80209523Y-45816723D01*
X80209523Y-45816723D02*
X80161904Y-45911961D01*
X80161904Y-45911961D02*
X80066666Y-46007200D01*
X80066666Y-46007200D02*
X79923809Y-46054819D01*
X79923809Y-46054819D02*
X79685714Y-46054819D01*
X81209523Y-46054819D02*
X80638095Y-46054819D01*
X80923809Y-46054819D02*
X80923809Y-45054819D01*
X80923809Y-45054819D02*
X80828571Y-45197676D01*
X80828571Y-45197676D02*
X80733333Y-45292914D01*
X80733333Y-45292914D02*
X80638095Y-45340533D01*
X81828571Y-45054819D02*
X81923809Y-45054819D01*
X81923809Y-45054819D02*
X82019047Y-45102438D01*
X82019047Y-45102438D02*
X82066666Y-45150057D01*
X82066666Y-45150057D02*
X82114285Y-45245295D01*
X82114285Y-45245295D02*
X82161904Y-45435771D01*
X82161904Y-45435771D02*
X82161904Y-45673866D01*
X82161904Y-45673866D02*
X82114285Y-45864342D01*
X82114285Y-45864342D02*
X82066666Y-45959580D01*
X82066666Y-45959580D02*
X82019047Y-46007200D01*
X82019047Y-46007200D02*
X81923809Y-46054819D01*
X81923809Y-46054819D02*
X81828571Y-46054819D01*
X81828571Y-46054819D02*
X81733333Y-46007200D01*
X81733333Y-46007200D02*
X81685714Y-45959580D01*
X81685714Y-45959580D02*
X81638095Y-45864342D01*
X81638095Y-45864342D02*
X81590476Y-45673866D01*
X81590476Y-45673866D02*
X81590476Y-45435771D01*
X81590476Y-45435771D02*
X81638095Y-45245295D01*
X81638095Y-45245295D02*
X81685714Y-45150057D01*
X81685714Y-45150057D02*
X81733333Y-45102438D01*
X81733333Y-45102438D02*
X81828571Y-45054819D01*
X74633333Y-136379580D02*
X74585714Y-136427200D01*
X74585714Y-136427200D02*
X74442857Y-136474819D01*
X74442857Y-136474819D02*
X74347619Y-136474819D01*
X74347619Y-136474819D02*
X74204762Y-136427200D01*
X74204762Y-136427200D02*
X74109524Y-136331961D01*
X74109524Y-136331961D02*
X74061905Y-136236723D01*
X74061905Y-136236723D02*
X74014286Y-136046247D01*
X74014286Y-136046247D02*
X74014286Y-135903390D01*
X74014286Y-135903390D02*
X74061905Y-135712914D01*
X74061905Y-135712914D02*
X74109524Y-135617676D01*
X74109524Y-135617676D02*
X74204762Y-135522438D01*
X74204762Y-135522438D02*
X74347619Y-135474819D01*
X74347619Y-135474819D02*
X74442857Y-135474819D01*
X74442857Y-135474819D02*
X74585714Y-135522438D01*
X74585714Y-135522438D02*
X74633333Y-135570057D01*
X75490476Y-135474819D02*
X75300000Y-135474819D01*
X75300000Y-135474819D02*
X75204762Y-135522438D01*
X75204762Y-135522438D02*
X75157143Y-135570057D01*
X75157143Y-135570057D02*
X75061905Y-135712914D01*
X75061905Y-135712914D02*
X75014286Y-135903390D01*
X75014286Y-135903390D02*
X75014286Y-136284342D01*
X75014286Y-136284342D02*
X75061905Y-136379580D01*
X75061905Y-136379580D02*
X75109524Y-136427200D01*
X75109524Y-136427200D02*
X75204762Y-136474819D01*
X75204762Y-136474819D02*
X75395238Y-136474819D01*
X75395238Y-136474819D02*
X75490476Y-136427200D01*
X75490476Y-136427200D02*
X75538095Y-136379580D01*
X75538095Y-136379580D02*
X75585714Y-136284342D01*
X75585714Y-136284342D02*
X75585714Y-136046247D01*
X75585714Y-136046247D02*
X75538095Y-135951009D01*
X75538095Y-135951009D02*
X75490476Y-135903390D01*
X75490476Y-135903390D02*
X75395238Y-135855771D01*
X75395238Y-135855771D02*
X75204762Y-135855771D01*
X75204762Y-135855771D02*
X75109524Y-135903390D01*
X75109524Y-135903390D02*
X75061905Y-135951009D01*
X75061905Y-135951009D02*
X75014286Y-136046247D01*
X122137142Y-100514819D02*
X121803809Y-100038628D01*
X121565714Y-100514819D02*
X121565714Y-99514819D01*
X121565714Y-99514819D02*
X121946666Y-99514819D01*
X121946666Y-99514819D02*
X122041904Y-99562438D01*
X122041904Y-99562438D02*
X122089523Y-99610057D01*
X122089523Y-99610057D02*
X122137142Y-99705295D01*
X122137142Y-99705295D02*
X122137142Y-99848152D01*
X122137142Y-99848152D02*
X122089523Y-99943390D01*
X122089523Y-99943390D02*
X122041904Y-99991009D01*
X122041904Y-99991009D02*
X121946666Y-100038628D01*
X121946666Y-100038628D02*
X121565714Y-100038628D01*
X122518095Y-99610057D02*
X122565714Y-99562438D01*
X122565714Y-99562438D02*
X122660952Y-99514819D01*
X122660952Y-99514819D02*
X122899047Y-99514819D01*
X122899047Y-99514819D02*
X122994285Y-99562438D01*
X122994285Y-99562438D02*
X123041904Y-99610057D01*
X123041904Y-99610057D02*
X123089523Y-99705295D01*
X123089523Y-99705295D02*
X123089523Y-99800533D01*
X123089523Y-99800533D02*
X123041904Y-99943390D01*
X123041904Y-99943390D02*
X122470476Y-100514819D01*
X122470476Y-100514819D02*
X123089523Y-100514819D01*
X123994285Y-99514819D02*
X123518095Y-99514819D01*
X123518095Y-99514819D02*
X123470476Y-99991009D01*
X123470476Y-99991009D02*
X123518095Y-99943390D01*
X123518095Y-99943390D02*
X123613333Y-99895771D01*
X123613333Y-99895771D02*
X123851428Y-99895771D01*
X123851428Y-99895771D02*
X123946666Y-99943390D01*
X123946666Y-99943390D02*
X123994285Y-99991009D01*
X123994285Y-99991009D02*
X124041904Y-100086247D01*
X124041904Y-100086247D02*
X124041904Y-100324342D01*
X124041904Y-100324342D02*
X123994285Y-100419580D01*
X123994285Y-100419580D02*
X123946666Y-100467200D01*
X123946666Y-100467200D02*
X123851428Y-100514819D01*
X123851428Y-100514819D02*
X123613333Y-100514819D01*
X123613333Y-100514819D02*
X123518095Y-100467200D01*
X123518095Y-100467200D02*
X123470476Y-100419580D01*
X73161905Y-46754819D02*
X73161905Y-45754819D01*
X73161905Y-45754819D02*
X73400000Y-45754819D01*
X73400000Y-45754819D02*
X73542857Y-45802438D01*
X73542857Y-45802438D02*
X73638095Y-45897676D01*
X73638095Y-45897676D02*
X73685714Y-45992914D01*
X73685714Y-45992914D02*
X73733333Y-46183390D01*
X73733333Y-46183390D02*
X73733333Y-46326247D01*
X73733333Y-46326247D02*
X73685714Y-46516723D01*
X73685714Y-46516723D02*
X73638095Y-46611961D01*
X73638095Y-46611961D02*
X73542857Y-46707200D01*
X73542857Y-46707200D02*
X73400000Y-46754819D01*
X73400000Y-46754819D02*
X73161905Y-46754819D01*
X74304762Y-46183390D02*
X74209524Y-46135771D01*
X74209524Y-46135771D02*
X74161905Y-46088152D01*
X74161905Y-46088152D02*
X74114286Y-45992914D01*
X74114286Y-45992914D02*
X74114286Y-45945295D01*
X74114286Y-45945295D02*
X74161905Y-45850057D01*
X74161905Y-45850057D02*
X74209524Y-45802438D01*
X74209524Y-45802438D02*
X74304762Y-45754819D01*
X74304762Y-45754819D02*
X74495238Y-45754819D01*
X74495238Y-45754819D02*
X74590476Y-45802438D01*
X74590476Y-45802438D02*
X74638095Y-45850057D01*
X74638095Y-45850057D02*
X74685714Y-45945295D01*
X74685714Y-45945295D02*
X74685714Y-45992914D01*
X74685714Y-45992914D02*
X74638095Y-46088152D01*
X74638095Y-46088152D02*
X74590476Y-46135771D01*
X74590476Y-46135771D02*
X74495238Y-46183390D01*
X74495238Y-46183390D02*
X74304762Y-46183390D01*
X74304762Y-46183390D02*
X74209524Y-46231009D01*
X74209524Y-46231009D02*
X74161905Y-46278628D01*
X74161905Y-46278628D02*
X74114286Y-46373866D01*
X74114286Y-46373866D02*
X74114286Y-46564342D01*
X74114286Y-46564342D02*
X74161905Y-46659580D01*
X74161905Y-46659580D02*
X74209524Y-46707200D01*
X74209524Y-46707200D02*
X74304762Y-46754819D01*
X74304762Y-46754819D02*
X74495238Y-46754819D01*
X74495238Y-46754819D02*
X74590476Y-46707200D01*
X74590476Y-46707200D02*
X74638095Y-46659580D01*
X74638095Y-46659580D02*
X74685714Y-46564342D01*
X74685714Y-46564342D02*
X74685714Y-46373866D01*
X74685714Y-46373866D02*
X74638095Y-46278628D01*
X74638095Y-46278628D02*
X74590476Y-46231009D01*
X74590476Y-46231009D02*
X74495238Y-46183390D01*
X102586667Y-152833200D02*
X102729524Y-152880819D01*
X102729524Y-152880819D02*
X102967619Y-152880819D01*
X102967619Y-152880819D02*
X103062857Y-152833200D01*
X103062857Y-152833200D02*
X103110476Y-152785580D01*
X103110476Y-152785580D02*
X103158095Y-152690342D01*
X103158095Y-152690342D02*
X103158095Y-152595104D01*
X103158095Y-152595104D02*
X103110476Y-152499866D01*
X103110476Y-152499866D02*
X103062857Y-152452247D01*
X103062857Y-152452247D02*
X102967619Y-152404628D01*
X102967619Y-152404628D02*
X102777143Y-152357009D01*
X102777143Y-152357009D02*
X102681905Y-152309390D01*
X102681905Y-152309390D02*
X102634286Y-152261771D01*
X102634286Y-152261771D02*
X102586667Y-152166533D01*
X102586667Y-152166533D02*
X102586667Y-152071295D01*
X102586667Y-152071295D02*
X102634286Y-151976057D01*
X102634286Y-151976057D02*
X102681905Y-151928438D01*
X102681905Y-151928438D02*
X102777143Y-151880819D01*
X102777143Y-151880819D02*
X103015238Y-151880819D01*
X103015238Y-151880819D02*
X103158095Y-151928438D01*
X103491429Y-151880819D02*
X103729524Y-152880819D01*
X103729524Y-152880819D02*
X103920000Y-152166533D01*
X103920000Y-152166533D02*
X104110476Y-152880819D01*
X104110476Y-152880819D02*
X104348572Y-151880819D01*
X104681905Y-151976057D02*
X104729524Y-151928438D01*
X104729524Y-151928438D02*
X104824762Y-151880819D01*
X104824762Y-151880819D02*
X105062857Y-151880819D01*
X105062857Y-151880819D02*
X105158095Y-151928438D01*
X105158095Y-151928438D02*
X105205714Y-151976057D01*
X105205714Y-151976057D02*
X105253333Y-152071295D01*
X105253333Y-152071295D02*
X105253333Y-152166533D01*
X105253333Y-152166533D02*
X105205714Y-152309390D01*
X105205714Y-152309390D02*
X104634286Y-152880819D01*
X104634286Y-152880819D02*
X105253333Y-152880819D01*
D13*
X81289800Y-69193332D02*
X81337419Y-69050475D01*
X81337419Y-69050475D02*
X81337419Y-68812380D01*
X81337419Y-68812380D02*
X81289800Y-68717142D01*
X81289800Y-68717142D02*
X81242180Y-68669523D01*
X81242180Y-68669523D02*
X81146942Y-68621904D01*
X81146942Y-68621904D02*
X81051704Y-68621904D01*
X81051704Y-68621904D02*
X80956466Y-68669523D01*
X80956466Y-68669523D02*
X80908847Y-68717142D01*
X80908847Y-68717142D02*
X80861228Y-68812380D01*
X80861228Y-68812380D02*
X80813609Y-69002856D01*
X80813609Y-69002856D02*
X80765990Y-69098094D01*
X80765990Y-69098094D02*
X80718371Y-69145713D01*
X80718371Y-69145713D02*
X80623133Y-69193332D01*
X80623133Y-69193332D02*
X80527895Y-69193332D01*
X80527895Y-69193332D02*
X80432657Y-69145713D01*
X80432657Y-69145713D02*
X80385038Y-69098094D01*
X80385038Y-69098094D02*
X80337419Y-69002856D01*
X80337419Y-69002856D02*
X80337419Y-68764761D01*
X80337419Y-68764761D02*
X80385038Y-68621904D01*
X80337419Y-68288570D02*
X81337419Y-68050475D01*
X81337419Y-68050475D02*
X80623133Y-67859999D01*
X80623133Y-67859999D02*
X81337419Y-67669523D01*
X81337419Y-67669523D02*
X80337419Y-67431428D01*
X80670752Y-66621904D02*
X81337419Y-66621904D01*
X80289800Y-66859999D02*
X81004085Y-67098094D01*
X81004085Y-67098094D02*
X81004085Y-66479047D01*
D12*
X68561905Y-83354819D02*
X68561905Y-82354819D01*
X68561905Y-82354819D02*
X68800000Y-82354819D01*
X68800000Y-82354819D02*
X68942857Y-82402438D01*
X68942857Y-82402438D02*
X69038095Y-82497676D01*
X69038095Y-82497676D02*
X69085714Y-82592914D01*
X69085714Y-82592914D02*
X69133333Y-82783390D01*
X69133333Y-82783390D02*
X69133333Y-82926247D01*
X69133333Y-82926247D02*
X69085714Y-83116723D01*
X69085714Y-83116723D02*
X69038095Y-83211961D01*
X69038095Y-83211961D02*
X68942857Y-83307200D01*
X68942857Y-83307200D02*
X68800000Y-83354819D01*
X68800000Y-83354819D02*
X68561905Y-83354819D01*
X69990476Y-82688152D02*
X69990476Y-83354819D01*
X69752381Y-82307200D02*
X69514286Y-83021485D01*
X69514286Y-83021485D02*
X70133333Y-83021485D01*
D13*
X106266666Y-48292419D02*
X106266666Y-49006704D01*
X106266666Y-49006704D02*
X106219047Y-49149561D01*
X106219047Y-49149561D02*
X106123809Y-49244800D01*
X106123809Y-49244800D02*
X105980952Y-49292419D01*
X105980952Y-49292419D02*
X105885714Y-49292419D01*
X107171428Y-48625752D02*
X107171428Y-49292419D01*
X106933333Y-48244800D02*
X106695238Y-48959085D01*
X106695238Y-48959085D02*
X107314285Y-48959085D01*
D14*
%TO.C,D5*%
X83335000Y-81290062D02*
X83335000Y-84380062D01*
X83335000Y-81290232D02*
G75*
G02*
X88885000Y-82835062I2560000J-1544830D01*
G01*
X88885000Y-82835062D02*
G75*
G02*
X83335000Y-84379892I-2990000J0D01*
G01*
X88395000Y-82835062D02*
G75*
G02*
X83395000Y-82835062I-2500000J0D01*
G01*
X83395000Y-82835062D02*
G75*
G02*
X88395000Y-82835062I2500000J0D01*
G01*
%TO.C,D11*%
X87535000Y-47315000D02*
X87535000Y-50405000D01*
X87535000Y-47315170D02*
G75*
G02*
X93085000Y-48860000I2560000J-1544830D01*
G01*
X93085000Y-48860000D02*
G75*
G02*
X87535000Y-50404830I-2990000J0D01*
G01*
X92595000Y-48860000D02*
G75*
G02*
X87595000Y-48860000I-2500000J0D01*
G01*
X87595000Y-48860000D02*
G75*
G02*
X92595000Y-48860000I2500000J0D01*
G01*
%TO.C,J2*%
X96110000Y-27310000D02*
X111610000Y-27310000D01*
X96110000Y-36430000D02*
X96110000Y-27310000D01*
X97410000Y-28620000D02*
X110310000Y-28620000D01*
X97410000Y-35120000D02*
X97410000Y-28620000D01*
X100820000Y-37820000D02*
X101820000Y-37820000D01*
X101320000Y-36820000D02*
X100820000Y-37820000D01*
X101810000Y-35120000D02*
X97410000Y-35120000D01*
X101810000Y-36430000D02*
X101810000Y-35120000D01*
X101820000Y-37820000D02*
X101320000Y-36820000D01*
X105910000Y-35120000D02*
X105910000Y-36430000D01*
X110310000Y-28620000D02*
X110310000Y-35120000D01*
X110310000Y-35120000D02*
X105910000Y-35120000D01*
X111610000Y-27310000D02*
X111610000Y-36430000D01*
X111610000Y-36430000D02*
X96110000Y-36430000D01*
%TO.C,R9*%
X69480317Y-77871894D02*
X70250317Y-77871894D01*
X77560317Y-77871894D02*
X76790317Y-77871894D01*
X76790317Y-79241894D02*
X70250317Y-79241894D01*
X70250317Y-76501894D01*
X76790317Y-76501894D01*
X76790317Y-79241894D01*
D13*
%TO.C,J8*%
X132080000Y-143975062D02*
G75*
G02*
X120080000Y-143975062I-6000000J0D01*
G01*
X120080000Y-143975062D02*
G75*
G02*
X132080000Y-143975062I6000000J0D01*
G01*
%TO.C,J9*%
X79500000Y-92235062D02*
G75*
G02*
X67500000Y-92235062I-6000000J0D01*
G01*
X67500000Y-92235062D02*
G75*
G02*
X79500000Y-92235062I6000000J0D01*
G01*
D14*
%TO.C,R16*%
X94043100Y-100042596D02*
X94813100Y-100042596D01*
X102123100Y-100042596D02*
X101353100Y-100042596D01*
X101353100Y-101412596D02*
X94813100Y-101412596D01*
X94813100Y-98672596D01*
X101353100Y-98672596D01*
X101353100Y-101412596D01*
D13*
%TO.C,J11*%
X104100000Y-92210124D02*
G75*
G02*
X92100000Y-92210124I-6000000J0D01*
G01*
X92100000Y-92210124D02*
G75*
G02*
X104100000Y-92210124I6000000J0D01*
G01*
D14*
%TO.C,R22*%
X70600000Y-63740000D02*
X70600000Y-64510000D01*
X70600000Y-71820000D02*
X70600000Y-71050000D01*
X71970000Y-64510000D02*
X69230000Y-64510000D01*
X69230000Y-71050000D01*
X71970000Y-71050000D01*
X71970000Y-64510000D01*
%TO.C,D2*%
X101403675Y-132563754D02*
X101403675Y-135653754D01*
X101403675Y-132563924D02*
G75*
G02*
X106953675Y-134108754I2560000J-1544830D01*
G01*
X106953675Y-134108754D02*
G75*
G02*
X101403675Y-135653584I-2990000J0D01*
G01*
X106463675Y-134108754D02*
G75*
G02*
X101463675Y-134108754I-2500000J0D01*
G01*
X101463675Y-134108754D02*
G75*
G02*
X106463675Y-134108754I2500000J0D01*
G01*
%TO.C,C5*%
X112730000Y-135530000D02*
X117270000Y-135530000D01*
X112730000Y-135586000D02*
X112730000Y-135530000D01*
X117270000Y-137614000D02*
X117270000Y-137670000D01*
X117270000Y-137670000D02*
X112730000Y-137670000D01*
%TO.C,A1*%
X95040000Y-109560000D02*
X95040000Y-127600000D01*
X95040000Y-127600000D02*
X97710000Y-127600000D01*
X97710000Y-112230000D02*
X97710000Y-109560000D01*
X97710000Y-112230000D02*
X135810000Y-112230000D01*
X97710000Y-124930000D02*
X97710000Y-127600000D01*
X100250000Y-124930000D02*
X97710000Y-124930000D01*
X100250000Y-124930000D02*
X100250000Y-127600000D01*
X100250000Y-124930000D02*
X135810000Y-124930000D01*
X100250000Y-127600000D02*
X138480000Y-127600000D01*
X130600000Y-114640000D02*
X141020000Y-114640000D01*
X130600000Y-122520000D02*
X130600000Y-114640000D01*
X135810000Y-112230000D02*
X135810000Y-109560000D01*
X135810000Y-124930000D02*
X135810000Y-127600000D01*
X138480000Y-109560000D02*
X95040000Y-109560000D01*
X138480000Y-109560000D02*
X138480000Y-114640000D01*
X138480000Y-127600000D02*
X138480000Y-122520000D01*
X141020000Y-114640000D02*
X141020000Y-122520000D01*
X141020000Y-122520000D02*
X130600000Y-122520000D01*
%TO.C,R8*%
X111060000Y-133800000D02*
X111830000Y-133800000D01*
X119140000Y-133800000D02*
X118370000Y-133800000D01*
X111830000Y-132430000D02*
X118370000Y-132430000D01*
X118370000Y-135170000D01*
X111830000Y-135170000D01*
X111830000Y-132430000D01*
%TO.C,C3*%
X124689671Y-107087335D02*
X129229671Y-107087335D01*
X124689671Y-107143335D02*
X124689671Y-107087335D01*
X129229671Y-109171335D02*
X129229671Y-109227335D01*
X129229671Y-109227335D02*
X124689671Y-109227335D01*
%TO.C,RV2*%
X102675000Y-63170000D02*
X102675000Y-61790000D01*
X104055000Y-63170000D02*
X102675000Y-63170000D01*
X105325000Y-60410000D02*
X110515000Y-60410000D01*
X105325000Y-63170000D02*
X105325000Y-60410000D01*
X105325000Y-63170000D02*
X110515000Y-63170000D01*
X110515000Y-63170000D02*
X110515000Y-60410000D01*
D13*
X95595000Y-39790000D02*
X117595000Y-39790000D01*
X117595000Y-63790000D01*
X95595000Y-63790000D01*
X95595000Y-39790000D01*
%TO.C,J7*%
X109968675Y-144008754D02*
G75*
G02*
X97968675Y-144008754I-6000000J0D01*
G01*
X97968675Y-144008754D02*
G75*
G02*
X109968675Y-144008754I6000000J0D01*
G01*
D14*
%TO.C,R5*%
X118120000Y-139980000D02*
X118120000Y-140750000D01*
X118120000Y-148060000D02*
X118120000Y-147290000D01*
X116750000Y-147290000D02*
X119490000Y-147290000D01*
X119490000Y-140750000D01*
X116750000Y-140750000D01*
X116750000Y-147290000D01*
%TO.C,R10*%
X69460000Y-100035062D02*
X70230000Y-100035062D01*
X77540000Y-100035062D02*
X76770000Y-100035062D01*
X76770000Y-101405062D02*
X70230000Y-101405062D01*
X70230000Y-98665062D01*
X76770000Y-98665062D01*
X76770000Y-101405062D01*
%TO.C,D9*%
X107835000Y-81290062D02*
X107835000Y-84380062D01*
X107835000Y-81290232D02*
G75*
G02*
X113385000Y-82835062I2560000J-1544830D01*
G01*
X113385000Y-82835062D02*
G75*
G02*
X107835000Y-84379892I-2990000J0D01*
G01*
X112895000Y-82835062D02*
G75*
G02*
X107895000Y-82835062I-2500000J0D01*
G01*
X107895000Y-82835062D02*
G75*
G02*
X112895000Y-82835062I2500000J0D01*
G01*
%TO.C,SW3*%
X119115000Y-153315000D02*
X133085000Y-153315000D01*
X119115000Y-167285000D02*
X119115000Y-153315000D01*
X133085000Y-153315000D02*
X133085000Y-167285000D01*
X133085000Y-167285000D02*
X119115000Y-167285000D01*
%TO.C,SW6*%
X69935000Y-113495000D02*
X83905000Y-113495000D01*
X69935000Y-127465000D02*
X69935000Y-113495000D01*
X83905000Y-113495000D02*
X83905000Y-127465000D01*
X83905000Y-127465000D02*
X69935000Y-127465000D01*
%TO.C,R27*%
X72780000Y-106207850D02*
X73550000Y-106207850D01*
X80860000Y-106207850D02*
X80090000Y-106207850D01*
X80090000Y-107577850D02*
X73550000Y-107577850D01*
X73550000Y-104837850D01*
X80090000Y-104837850D01*
X80090000Y-107577850D01*
%TO.C,R20*%
X106389605Y-100041419D02*
X107159605Y-100041419D01*
X114469605Y-100041419D02*
X113699605Y-100041419D01*
X113699605Y-101411419D02*
X107159605Y-101411419D01*
X107159605Y-98671419D01*
X113699605Y-98671419D01*
X113699605Y-101411419D01*
%TO.C,R6*%
X134120000Y-140040000D02*
X134120000Y-140810000D01*
X134120000Y-148120000D02*
X134120000Y-147350000D01*
X135490000Y-140810000D02*
X132750000Y-140810000D01*
X132750000Y-147350000D01*
X135490000Y-147350000D01*
X135490000Y-140810000D01*
%TO.C,J1*%
X75190000Y-27330000D02*
X90690000Y-27330000D01*
X75190000Y-36450000D02*
X75190000Y-27330000D01*
X76490000Y-28640000D02*
X89390000Y-28640000D01*
X76490000Y-35140000D02*
X76490000Y-28640000D01*
X79900000Y-37840000D02*
X80900000Y-37840000D01*
X80400000Y-36840000D02*
X79900000Y-37840000D01*
X80890000Y-35140000D02*
X76490000Y-35140000D01*
X80890000Y-36450000D02*
X80890000Y-35140000D01*
X80900000Y-37840000D02*
X80400000Y-36840000D01*
X84990000Y-35140000D02*
X84990000Y-36450000D01*
X89390000Y-28640000D02*
X89390000Y-35140000D01*
X89390000Y-35140000D02*
X84990000Y-35140000D01*
X90690000Y-27330000D02*
X90690000Y-36450000D01*
X90690000Y-36450000D02*
X75190000Y-36450000D01*
%TO.C,RV1*%
X125520000Y-63180000D02*
X125520000Y-61800000D01*
X126900000Y-63180000D02*
X125520000Y-63180000D01*
X128170000Y-60420000D02*
X133360000Y-60420000D01*
X128170000Y-63180000D02*
X128170000Y-60420000D01*
X128170000Y-63180000D02*
X133360000Y-63180000D01*
X133360000Y-63180000D02*
X133360000Y-60420000D01*
D13*
X118440000Y-39800000D02*
X140440000Y-39800000D01*
X140440000Y-63800000D01*
X118440000Y-63800000D01*
X118440000Y-39800000D01*
D14*
%TO.C,J6*%
X116810000Y-27210000D02*
X132310000Y-27210000D01*
X116810000Y-36330000D02*
X116810000Y-27210000D01*
X118110000Y-28520000D02*
X131010000Y-28520000D01*
X118110000Y-35020000D02*
X118110000Y-28520000D01*
X121520000Y-37720000D02*
X122520000Y-37720000D01*
X122020000Y-36720000D02*
X121520000Y-37720000D01*
X122510000Y-35020000D02*
X118110000Y-35020000D01*
X122510000Y-36330000D02*
X122510000Y-35020000D01*
X122520000Y-37720000D02*
X122020000Y-36720000D01*
X126610000Y-35020000D02*
X126610000Y-36330000D01*
X131010000Y-28520000D02*
X131010000Y-35020000D01*
X131010000Y-35020000D02*
X126610000Y-35020000D01*
X132310000Y-27210000D02*
X132310000Y-36330000D01*
X132310000Y-36330000D02*
X116810000Y-36330000D01*
%TO.C,C4*%
X90630000Y-133030000D02*
X95170000Y-133030000D01*
X90630000Y-133086000D02*
X90630000Y-133030000D01*
X95170000Y-135114000D02*
X95170000Y-135170000D01*
X95170000Y-135170000D02*
X90630000Y-135170000D01*
%TO.C,SW5*%
D13*
X118700000Y-82560000D02*
X126700000Y-82560000D01*
X126700000Y-95560000D01*
X118700000Y-95560000D01*
X118700000Y-82560000D01*
D14*
%TO.C,R24*%
X131040000Y-100060000D02*
X131810000Y-100060000D01*
X139120000Y-100060000D02*
X138350000Y-100060000D01*
X131810000Y-98690000D02*
X138350000Y-98690000D01*
X138350000Y-101430000D01*
X131810000Y-101430000D01*
X131810000Y-98690000D01*
%TO.C,R21*%
X86800000Y-63760000D02*
X86800000Y-64530000D01*
X86800000Y-71840000D02*
X86800000Y-71070000D01*
X88170000Y-64530000D02*
X85430000Y-64530000D01*
X85430000Y-71070000D01*
X88170000Y-71070000D01*
X88170000Y-64530000D01*
D13*
%TO.C,J13*%
X141080000Y-92235062D02*
G75*
G02*
X129080000Y-92235062I-6000000J0D01*
G01*
X129080000Y-92235062D02*
G75*
G02*
X141080000Y-92235062I6000000J0D01*
G01*
D14*
%TO.C,R18*%
X106440000Y-77864584D02*
X107210000Y-77864584D01*
X114520000Y-77864584D02*
X113750000Y-77864584D01*
X113750000Y-79234584D02*
X107210000Y-79234584D01*
X107210000Y-76494584D01*
X113750000Y-76494584D01*
X113750000Y-79234584D01*
%TO.C,C2*%
X106730000Y-106990000D02*
X111270000Y-106990000D01*
X106730000Y-107046000D02*
X106730000Y-106990000D01*
X111270000Y-109074000D02*
X111270000Y-109130000D01*
X111270000Y-109130000D02*
X106730000Y-109130000D01*
%TO.C,R7*%
X88860000Y-131308754D02*
X89630000Y-131308754D01*
X96940000Y-131308754D02*
X96170000Y-131308754D01*
X89630000Y-129938754D02*
X96170000Y-129938754D01*
X96170000Y-132678754D01*
X89630000Y-132678754D01*
X89630000Y-129938754D01*
D13*
%TO.C,J10*%
X91800000Y-92210124D02*
G75*
G02*
X79800000Y-92210124I-6000000J0D01*
G01*
X79800000Y-92210124D02*
G75*
G02*
X91800000Y-92210124I6000000J0D01*
G01*
D14*
%TO.C,C1*%
X90630000Y-135530000D02*
X95170000Y-135530000D01*
X90630000Y-135586000D02*
X90630000Y-135530000D01*
X95170000Y-137614000D02*
X95170000Y-137670000D01*
X95170000Y-137670000D02*
X90630000Y-137670000D01*
%TO.C,R17*%
X69500000Y-40960000D02*
X70270000Y-40960000D01*
X77580000Y-40960000D02*
X76810000Y-40960000D01*
X76810000Y-42330000D02*
X70270000Y-42330000D01*
X70270000Y-39590000D01*
X76810000Y-39590000D01*
X76810000Y-42330000D01*
%TO.C,R11*%
X111060000Y-130700000D02*
X111830000Y-130700000D01*
X119140000Y-130700000D02*
X118370000Y-130700000D01*
X111830000Y-129330000D02*
X118370000Y-129330000D01*
X118370000Y-132070000D01*
X111830000Y-132070000D01*
X111830000Y-129330000D01*
%TO.C,D1*%
X79155000Y-132555000D02*
X79155000Y-135645000D01*
X79155000Y-132555170D02*
G75*
G02*
X84705000Y-134100000I2560000J-1544830D01*
G01*
X84705000Y-134100000D02*
G75*
G02*
X79155000Y-135644830I-2990000J0D01*
G01*
X84215000Y-134100000D02*
G75*
G02*
X79215000Y-134100000I-2500000J0D01*
G01*
X79215000Y-134100000D02*
G75*
G02*
X84215000Y-134100000I2500000J0D01*
G01*
%TO.C,R14*%
X94111107Y-77865931D02*
X94881107Y-77865931D01*
X102191107Y-77865931D02*
X101421107Y-77865931D01*
X101421107Y-79235931D02*
X94881107Y-79235931D01*
X94881107Y-76495931D01*
X101421107Y-76495931D01*
X101421107Y-79235931D01*
%TO.C,R13*%
X81760000Y-100035062D02*
X82530000Y-100035062D01*
X89840000Y-100035062D02*
X89070000Y-100035062D01*
X89070000Y-101405062D02*
X82530000Y-101405062D01*
X82530000Y-98665062D01*
X89070000Y-98665062D01*
X89070000Y-101405062D01*
%TO.C,R15*%
X69500000Y-44060000D02*
X70270000Y-44060000D01*
X77580000Y-44060000D02*
X76810000Y-44060000D01*
X76810000Y-45430000D02*
X70270000Y-45430000D01*
X70270000Y-42690000D01*
X76810000Y-42690000D01*
X76810000Y-45430000D01*
%TO.C,R23*%
X83205000Y-40960000D02*
X83975000Y-40960000D01*
X91285000Y-40960000D02*
X90515000Y-40960000D01*
X90515000Y-42330000D02*
X83975000Y-42330000D01*
X83975000Y-39590000D01*
X90515000Y-39590000D01*
X90515000Y-42330000D01*
%TO.C,R2*%
X89664115Y-139949656D02*
X89664115Y-140719656D01*
X89664115Y-148029656D02*
X89664115Y-147259656D01*
X91034115Y-140719656D02*
X88294115Y-140719656D01*
X88294115Y-147259656D01*
X91034115Y-147259656D01*
X91034115Y-140719656D01*
%TO.C,R12*%
X81786609Y-77866350D02*
X82556609Y-77866350D01*
X89866609Y-77866350D02*
X89096609Y-77866350D01*
X89096609Y-79236350D02*
X82556609Y-79236350D01*
X82556609Y-76496350D01*
X89096609Y-76496350D01*
X89096609Y-79236350D01*
%TO.C,R4*%
X111908675Y-139988754D02*
X111908675Y-140758754D01*
X111908675Y-148068754D02*
X111908675Y-147298754D01*
X113278675Y-140758754D02*
X110538675Y-140758754D01*
X110538675Y-147298754D01*
X113278675Y-147298754D01*
X113278675Y-140758754D01*
%TO.C,D3*%
X123515000Y-132455000D02*
X123515000Y-135545000D01*
X123515000Y-132455170D02*
G75*
G02*
X129065000Y-134000000I2560000J-1544830D01*
G01*
X129065000Y-134000000D02*
G75*
G02*
X123515000Y-135544830I-2990000J0D01*
G01*
X128575000Y-134000000D02*
G75*
G02*
X123575000Y-134000000I-2500000J0D01*
G01*
X123575000Y-134000000D02*
G75*
G02*
X128575000Y-134000000I2500000J0D01*
G01*
%TO.C,SW1*%
X74735000Y-153315000D02*
X88705000Y-153315000D01*
X74735000Y-167285000D02*
X74735000Y-153315000D01*
X88705000Y-153315000D02*
X88705000Y-167285000D01*
X88705000Y-167285000D02*
X74735000Y-167285000D01*
D13*
%TO.C,J5*%
X87720000Y-144000000D02*
G75*
G02*
X75720000Y-144000000I-6000000J0D01*
G01*
X75720000Y-144000000D02*
G75*
G02*
X87720000Y-144000000I6000000J0D01*
G01*
%TO.C,J12*%
X116400000Y-92235062D02*
G75*
G02*
X104400000Y-92235062I-6000000J0D01*
G01*
X104400000Y-92235062D02*
G75*
G02*
X116400000Y-92235062I6000000J0D01*
G01*
D14*
%TO.C,R26*%
X72779832Y-109300000D02*
X73549832Y-109300000D01*
X80859832Y-109300000D02*
X80089832Y-109300000D01*
X80089832Y-110670000D02*
X73549832Y-110670000D01*
X73549832Y-107930000D01*
X80089832Y-107930000D01*
X80089832Y-110670000D01*
%TO.C,D6*%
X95535000Y-81290062D02*
X95535000Y-84380062D01*
X95535000Y-81290232D02*
G75*
G02*
X101085000Y-82835062I2560000J-1544830D01*
G01*
X101085000Y-82835062D02*
G75*
G02*
X95535000Y-84379892I-2990000J0D01*
G01*
X100595000Y-82835062D02*
G75*
G02*
X95595000Y-82835062I-2500000J0D01*
G01*
X95595000Y-82835062D02*
G75*
G02*
X100595000Y-82835062I2500000J0D01*
G01*
%TO.C,R3*%
X96008675Y-139988754D02*
X96008675Y-140758754D01*
X96008675Y-148068754D02*
X96008675Y-147298754D01*
X94638675Y-147298754D02*
X97378675Y-147298754D01*
X97378675Y-140758754D01*
X94638675Y-140758754D01*
X94638675Y-147298754D01*
%TO.C,R28*%
X131040000Y-77860000D02*
X131810000Y-77860000D01*
X139120000Y-77860000D02*
X138350000Y-77860000D01*
X138350000Y-79230000D02*
X131810000Y-79230000D01*
X131810000Y-76490000D01*
X138350000Y-76490000D01*
X138350000Y-79230000D01*
%TO.C,SW7*%
D13*
X86700000Y-109400000D02*
X94700000Y-109400000D01*
X94700000Y-122400000D01*
X86700000Y-122400000D01*
X86700000Y-109400000D01*
D14*
%TO.C,R1*%
X73764115Y-139889656D02*
X73764115Y-140659656D01*
X73764115Y-147969656D02*
X73764115Y-147199656D01*
X72394115Y-147199656D02*
X75134115Y-147199656D01*
X75134115Y-140659656D01*
X72394115Y-140659656D01*
X72394115Y-147199656D01*
%TO.C,D7*%
X68035000Y-47315000D02*
X68035000Y-50405000D01*
X68035000Y-47315170D02*
G75*
G02*
X73585000Y-48860000I2560000J-1544830D01*
G01*
X73585000Y-48860000D02*
G75*
G02*
X68035000Y-50404830I-2990000J0D01*
G01*
X73095000Y-48860000D02*
G75*
G02*
X68095000Y-48860000I-2500000J0D01*
G01*
X68095000Y-48860000D02*
G75*
G02*
X73095000Y-48860000I2500000J0D01*
G01*
%TO.C,R19*%
X83205000Y-44060000D02*
X83975000Y-44060000D01*
X91285000Y-44060000D02*
X90515000Y-44060000D01*
X90515000Y-45430000D02*
X83975000Y-45430000D01*
X83975000Y-42690000D01*
X90515000Y-42690000D01*
X90515000Y-45430000D01*
%TO.C,D12*%
X132515000Y-81315000D02*
X132515000Y-84405000D01*
X132515000Y-81315170D02*
G75*
G02*
X138065000Y-82860000I2560000J-1544830D01*
G01*
X138065000Y-82860000D02*
G75*
G02*
X132515000Y-84404830I-2990000J0D01*
G01*
X137575000Y-82860000D02*
G75*
G02*
X132575000Y-82860000I-2500000J0D01*
G01*
X132575000Y-82860000D02*
G75*
G02*
X137575000Y-82860000I2500000J0D01*
G01*
%TO.C,D10*%
X81035000Y-47315000D02*
X81035000Y-50405000D01*
X81035000Y-47315170D02*
G75*
G02*
X86585000Y-48860000I2560000J-1544830D01*
G01*
X86585000Y-48860000D02*
G75*
G02*
X81035000Y-50404830I-2990000J0D01*
G01*
X86095000Y-48860000D02*
G75*
G02*
X81095000Y-48860000I-2500000J0D01*
G01*
X81095000Y-48860000D02*
G75*
G02*
X86095000Y-48860000I2500000J0D01*
G01*
%TO.C,C6*%
X72430000Y-134930000D02*
X76970000Y-134930000D01*
X72430000Y-134986000D02*
X72430000Y-134930000D01*
X76970000Y-137014000D02*
X76970000Y-137070000D01*
X76970000Y-137070000D02*
X72430000Y-137070000D01*
%TO.C,R25*%
X118740000Y-100060000D02*
X119510000Y-100060000D01*
X126820000Y-100060000D02*
X126050000Y-100060000D01*
X126050000Y-101430000D02*
X119510000Y-101430000D01*
X119510000Y-98690000D01*
X126050000Y-98690000D01*
X126050000Y-101430000D01*
%TO.C,D8*%
X74535000Y-47315000D02*
X74535000Y-50405000D01*
X74535000Y-47315170D02*
G75*
G02*
X80085000Y-48860000I2560000J-1544830D01*
G01*
X80085000Y-48860000D02*
G75*
G02*
X74535000Y-50404830I-2990000J0D01*
G01*
X79595000Y-48860000D02*
G75*
G02*
X74595000Y-48860000I-2500000J0D01*
G01*
X74595000Y-48860000D02*
G75*
G02*
X79595000Y-48860000I2500000J0D01*
G01*
%TO.C,SW2*%
X96935000Y-153315000D02*
X110905000Y-153315000D01*
X96935000Y-167285000D02*
X96935000Y-153315000D01*
X110905000Y-153315000D02*
X110905000Y-167285000D01*
X110905000Y-167285000D02*
X96935000Y-167285000D01*
D15*
%TO.C,G\u002A\u002A\u002A*%
G36*
X137730805Y-165416464D02*
G01*
X137891653Y-165590912D01*
X137936929Y-165687207D01*
X137871977Y-165685986D01*
X137702140Y-165567883D01*
X137691480Y-165558974D01*
X137440627Y-165347895D01*
X136662994Y-165516461D01*
X136192184Y-165620589D01*
X135876520Y-165698892D01*
X135705194Y-165759206D01*
X135667398Y-165809371D01*
X135752324Y-165857223D01*
X135949166Y-165910601D01*
X136078738Y-165940153D01*
X136399579Y-166003246D01*
X136611708Y-166017866D01*
X136768417Y-165984818D01*
X136840738Y-165951667D01*
X137193940Y-165843536D01*
X137515617Y-165899096D01*
X137760197Y-166078823D01*
X137940172Y-166242943D01*
X138129010Y-166337969D01*
X138362627Y-166367261D01*
X138676943Y-166334179D01*
X139107875Y-166242084D01*
X139217970Y-166215209D01*
X139663265Y-166107870D01*
X139977420Y-166044100D01*
X140192959Y-166024025D01*
X140342405Y-166047767D01*
X140458285Y-166115451D01*
X140566686Y-166220333D01*
X140701280Y-166396783D01*
X140702933Y-166479046D01*
X140586918Y-166454821D01*
X140412013Y-166344886D01*
X140159049Y-166157862D01*
X139337072Y-166375605D01*
X138990479Y-166469414D01*
X138713003Y-166548298D01*
X138540121Y-166601950D01*
X138500456Y-166618674D01*
X138446103Y-166695604D01*
X138324281Y-166862856D01*
X138243309Y-166973024D01*
X138059216Y-167246643D01*
X137879232Y-167553514D01*
X137727678Y-167847332D01*
X137628875Y-168081793D01*
X137604020Y-168190167D01*
X137658467Y-168255401D01*
X137838847Y-168257349D01*
X137936260Y-168243817D01*
X138228640Y-168237385D01*
X138620483Y-168281701D01*
X139053861Y-168365040D01*
X139470848Y-168475679D01*
X139813517Y-168601894D01*
X139889666Y-168639175D01*
X140108694Y-168743047D01*
X140427512Y-168879253D01*
X140786637Y-169022634D01*
X140884499Y-169059955D01*
X141273052Y-169223184D01*
X141505560Y-169369577D01*
X141591985Y-169515687D01*
X141542292Y-169678066D01*
X141371333Y-169868748D01*
X141197413Y-170134517D01*
X141175958Y-170450765D01*
X141286666Y-170750333D01*
X141387461Y-170949998D01*
X141387691Y-171065499D01*
X141281024Y-171153364D01*
X141238920Y-171176563D01*
X141044921Y-171223280D01*
X140963754Y-171191770D01*
X140803112Y-171109055D01*
X140669901Y-171066055D01*
X140540982Y-171060562D01*
X140438152Y-171142032D01*
X140323966Y-171343845D01*
X140298601Y-171397050D01*
X140164478Y-171638177D01*
X140040919Y-171745768D01*
X139941700Y-171757843D01*
X139716757Y-171767125D01*
X139550999Y-171799486D01*
X139404944Y-171872341D01*
X139341831Y-172018135D01*
X139329173Y-172172366D01*
X139299268Y-172409569D01*
X139230115Y-172739046D01*
X139136204Y-173092490D01*
X139128578Y-173118024D01*
X138938142Y-173750048D01*
X139117570Y-173869184D01*
X139258022Y-174009052D01*
X139289923Y-174140854D01*
X139207403Y-174216870D01*
X139160941Y-174221667D01*
X139067416Y-174265719D01*
X139085880Y-174369833D01*
X139178743Y-174650650D01*
X139170792Y-174795938D01*
X139062511Y-174805175D01*
X138854384Y-174677837D01*
X138822835Y-174653442D01*
X138690148Y-174560885D01*
X138571591Y-174535695D01*
X138403082Y-174576407D01*
X138230199Y-174639871D01*
X137988578Y-174747717D01*
X137816078Y-174854129D01*
X137774683Y-174896275D01*
X137668147Y-174960473D01*
X137539253Y-174874279D01*
X137407105Y-174651479D01*
X137394216Y-174621670D01*
X137286155Y-174364669D01*
X137129366Y-174610668D01*
X136997949Y-174796624D01*
X136891311Y-174914795D01*
X136885955Y-174918870D01*
X136722253Y-174978248D01*
X136546468Y-174970546D01*
X136431222Y-174904509D01*
X136418333Y-174862555D01*
X136346289Y-174757434D01*
X136228697Y-174714388D01*
X136049726Y-174642730D01*
X136011150Y-174528649D01*
X136027350Y-174509764D01*
X136209107Y-174509764D01*
X136211937Y-174568863D01*
X136333763Y-174622444D01*
X136531788Y-174609609D01*
X136699305Y-174586246D01*
X136726020Y-174618689D01*
X136690853Y-174660346D01*
X136600677Y-174786967D01*
X136587666Y-174834245D01*
X136637784Y-174868886D01*
X136759107Y-174808903D01*
X136908086Y-174684194D01*
X137041174Y-174524656D01*
X137043294Y-174521438D01*
X137202152Y-174344309D01*
X137342167Y-174334382D01*
X137470412Y-174492565D01*
X137511226Y-174581500D01*
X137593462Y-174746293D01*
X137645085Y-174757589D01*
X137662142Y-174712937D01*
X137654692Y-174521586D01*
X137614147Y-174410584D01*
X137566902Y-174221667D01*
X137603666Y-174221667D01*
X137677351Y-174280669D01*
X137855370Y-174306300D01*
X137862663Y-174306333D01*
X138039343Y-174330458D01*
X138064774Y-174398376D01*
X137946228Y-174457302D01*
X137854445Y-174450292D01*
X137743749Y-174452946D01*
X137748676Y-174534404D01*
X137797324Y-174604801D01*
X137892705Y-174617776D01*
X138071409Y-174569002D01*
X138346300Y-174463688D01*
X138569461Y-174397801D01*
X138731219Y-174424463D01*
X138790800Y-174457142D01*
X138917830Y-174508353D01*
X138958333Y-174481381D01*
X138896753Y-174365992D01*
X138873666Y-174348667D01*
X138790351Y-174241453D01*
X138852910Y-174156133D01*
X138958333Y-174137000D01*
X139095913Y-174101544D01*
X139127666Y-174052333D01*
X139059089Y-173977219D01*
X139000666Y-173967667D01*
X138904988Y-173894096D01*
X138875776Y-173689788D01*
X138912102Y-173379351D01*
X139013035Y-172987390D01*
X139040917Y-172901309D01*
X139134207Y-172566489D01*
X139191497Y-172246948D01*
X139209511Y-171981802D01*
X139184974Y-171810168D01*
X139135979Y-171766333D01*
X139088077Y-171843227D01*
X139038612Y-172043813D01*
X139001913Y-172295500D01*
X138923800Y-172842682D01*
X138820014Y-173318310D01*
X138698820Y-173693253D01*
X138568484Y-173938384D01*
X138521402Y-173988833D01*
X138283223Y-174100387D01*
X137975286Y-174137000D01*
X137751341Y-174154214D01*
X137618979Y-174197656D01*
X137603666Y-174221667D01*
X137566902Y-174221667D01*
X137551756Y-174161105D01*
X137553514Y-173877757D01*
X137662635Y-173877757D01*
X137664235Y-173884662D01*
X137772271Y-174007763D01*
X137972560Y-174055392D01*
X138205310Y-174026613D01*
X138410727Y-173920489D01*
X138436586Y-173896746D01*
X138540331Y-173727756D01*
X138648111Y-173451747D01*
X138744577Y-173125327D01*
X138814378Y-172805102D01*
X138842166Y-172547680D01*
X138830937Y-172442421D01*
X138829860Y-172289620D01*
X138870222Y-172234128D01*
X138934076Y-172117822D01*
X138958333Y-171933933D01*
X138938376Y-171773685D01*
X138848477Y-171677990D01*
X138643589Y-171604002D01*
X138598499Y-171591684D01*
X138360562Y-171522238D01*
X138192682Y-171463083D01*
X138161844Y-171448191D01*
X138125742Y-171492929D01*
X138125375Y-171669629D01*
X138139853Y-171801236D01*
X138151214Y-172168856D01*
X138065898Y-172450309D01*
X137939740Y-172735729D01*
X137822085Y-173072068D01*
X137727184Y-173408443D01*
X137669284Y-173693967D01*
X137662635Y-173877757D01*
X137553514Y-173877757D01*
X137553966Y-173804844D01*
X137615399Y-173389219D01*
X137730676Y-172961645D01*
X137799614Y-172775690D01*
X137915369Y-172440382D01*
X137992502Y-172113698D01*
X138027623Y-171830260D01*
X138017346Y-171624693D01*
X137958283Y-171531618D01*
X137921166Y-171533329D01*
X137855431Y-171633941D01*
X137795770Y-171868906D01*
X137756157Y-172154217D01*
X137641456Y-172747889D01*
X137431192Y-173318709D01*
X137147746Y-173817177D01*
X136847561Y-174163935D01*
X136622904Y-174339424D01*
X136419766Y-174452493D01*
X136328425Y-174475667D01*
X136209107Y-174509764D01*
X136027350Y-174509764D01*
X136107712Y-174416086D01*
X136271337Y-174358004D01*
X136600450Y-174212378D01*
X136919849Y-173904942D01*
X137222614Y-173443196D01*
X137351288Y-173187704D01*
X137491304Y-172861014D01*
X137574317Y-172576715D01*
X137616040Y-172262029D01*
X137631313Y-171890797D01*
X137633155Y-171523493D01*
X137617057Y-171290126D01*
X137577550Y-171155761D01*
X137509164Y-171085460D01*
X137504830Y-171082968D01*
X137380286Y-170974243D01*
X137203562Y-170774555D01*
X137058088Y-170587478D01*
X136900464Y-170353509D01*
X136796707Y-170133829D01*
X136726924Y-169870422D01*
X136671219Y-169505275D01*
X136662229Y-169433087D01*
X136627422Y-169011584D01*
X140312999Y-169011584D01*
X140349519Y-169100375D01*
X140443492Y-169290115D01*
X140529506Y-169454686D01*
X140658839Y-169738470D01*
X140719270Y-170008892D01*
X140728259Y-170350209D01*
X140726516Y-170405417D01*
X140722590Y-170708260D01*
X140744671Y-170884630D01*
X140802686Y-170976624D01*
X140869842Y-171013300D01*
X141108161Y-171078357D01*
X141231068Y-171046210D01*
X141244333Y-171001354D01*
X141201416Y-170871807D01*
X141109850Y-170708462D01*
X141019948Y-170424652D01*
X141078491Y-170098628D01*
X141279892Y-169758521D01*
X141304374Y-169728729D01*
X141429389Y-169556844D01*
X141477303Y-169441786D01*
X141472190Y-169425968D01*
X141374719Y-169373989D01*
X141176945Y-169292441D01*
X140926139Y-169198223D01*
X140669575Y-169108235D01*
X140454524Y-169039373D01*
X140328258Y-169008538D01*
X140312999Y-169011584D01*
X136627422Y-169011584D01*
X136612824Y-168834814D01*
X136631241Y-168355131D01*
X136721448Y-167955797D01*
X136844723Y-167674516D01*
X136932178Y-167468579D01*
X137151215Y-167468579D01*
X137233593Y-167524032D01*
X137398743Y-167533000D01*
X137606644Y-167508046D01*
X137730789Y-167447498D01*
X137734147Y-167442700D01*
X137763537Y-167350370D01*
X137691649Y-167281585D01*
X137487830Y-167209782D01*
X137454117Y-167200007D01*
X137272615Y-167163581D01*
X137190302Y-167214993D01*
X137158026Y-167329620D01*
X137151215Y-167468579D01*
X136932178Y-167468579D01*
X136975912Y-167365595D01*
X137002654Y-167136299D01*
X136922833Y-167010153D01*
X136905166Y-167002778D01*
X136754670Y-167004921D01*
X136499284Y-167056739D01*
X136190524Y-167143015D01*
X135879906Y-167248534D01*
X135618948Y-167358083D01*
X135519064Y-167412155D01*
X135189685Y-167652239D01*
X134882197Y-167937441D01*
X134649690Y-168216183D01*
X134588601Y-168316166D01*
X134454141Y-168479624D01*
X134301098Y-168548526D01*
X134177841Y-168515253D01*
X134135634Y-168397286D01*
X134270222Y-168397286D01*
X134342084Y-168390304D01*
X134453337Y-168267616D01*
X134472573Y-168238534D01*
X134644734Y-167995816D01*
X134823062Y-167777740D01*
X135082916Y-167557642D01*
X135453334Y-167331232D01*
X135879151Y-167126960D01*
X136305202Y-166973274D01*
X136461595Y-166932724D01*
X136713912Y-166873641D01*
X136882693Y-166829105D01*
X136926332Y-166812494D01*
X136900575Y-166718877D01*
X136840989Y-166550557D01*
X136774104Y-166377979D01*
X136726447Y-166271583D01*
X136719391Y-166263000D01*
X136610589Y-166303842D01*
X136396335Y-166412254D01*
X136115396Y-166567063D01*
X135806539Y-166747097D01*
X135587262Y-166881316D01*
X135328132Y-167071659D01*
X135050999Y-167320188D01*
X134781279Y-167597651D01*
X134544388Y-167874791D01*
X134365741Y-168122355D01*
X134270755Y-168311088D01*
X134270222Y-168397286D01*
X134135634Y-168397286D01*
X134132332Y-168388056D01*
X134187315Y-168223791D01*
X134331944Y-167979813D01*
X134535745Y-167695759D01*
X134768240Y-167411264D01*
X134998954Y-167165965D01*
X135197411Y-166999497D01*
X135202613Y-166996093D01*
X135381816Y-166866765D01*
X135479795Y-166770198D01*
X135485951Y-166754313D01*
X135449752Y-166651977D01*
X135355747Y-166453050D01*
X135275332Y-166297203D01*
X135155608Y-166055185D01*
X135149799Y-166040993D01*
X136992752Y-166040993D01*
X137010482Y-166115568D01*
X137177697Y-166183505D01*
X137264999Y-166201967D01*
X137516941Y-166242224D01*
X137643860Y-166244036D01*
X137686093Y-166205433D01*
X137688333Y-166181312D01*
X137614599Y-166065556D01*
X137436443Y-165984536D01*
X137218435Y-165962221D01*
X137133538Y-165975352D01*
X136992752Y-166040993D01*
X135149799Y-166040993D01*
X135078876Y-165867713D01*
X135063666Y-165803676D01*
X135143050Y-165752204D01*
X135364926Y-165678950D01*
X135704878Y-165590687D01*
X136138489Y-165494191D01*
X136291472Y-165462992D01*
X137519278Y-165217745D01*
X137730805Y-165416464D01*
G37*
%TO.C,SW4*%
D13*
X72200000Y-73760000D02*
X85200000Y-73760000D01*
X85200000Y-61760000D01*
X72200000Y-61760000D01*
X72200000Y-73760000D01*
D14*
%TO.C,D4*%
X70935000Y-81290062D02*
X70935000Y-84380062D01*
X70935000Y-81290232D02*
G75*
G02*
X76485000Y-82835062I2560000J-1544830D01*
G01*
X76485000Y-82835062D02*
G75*
G02*
X70935000Y-84379892I-2990000J0D01*
G01*
X75995000Y-82835062D02*
G75*
G02*
X70995000Y-82835062I-2500000J0D01*
G01*
X70995000Y-82835062D02*
G75*
G02*
X75995000Y-82835062I2500000J0D01*
G01*
%TD*%
M02*
