M48
; DRILL file {KiCad 9.0.6} date 2026-01-21T03:12:52+1100
; FORMAT={-:-/ absolute / metric / decimal}
; #@! TF.CreationDate,2026-01-21T03:12:52+11:00
; #@! TF.GenerationSoftware,Kicad,Pcbnew,9.0.6
; #@! TF.FileFunction,Plated,1,2,PTH
FMAT,2
METRIC
; #@! TA.AperFunction,Plated,PTH,ComponentDrill
T1C0.800
; #@! TA.AperFunction,Plated,PTH,ComponentDrill
T2C0.900
; #@! TA.AperFunction,Plated,PTH,ComponentDrill
T3C1.000
; #@! TA.AperFunction,Plated,PTH,ComponentDrill
T4C1.200
; #@! TA.AperFunction,Plated,PTH,ComponentDrill
T5C1.500
; #@! TA.AperFunction,Plated,PTH,ComponentDrill
T6C6.000
%
G90
G05
T1
X63.5Y-95.52
X63.5Y-105.68
X64.7Y-40.9
X64.7Y-45.9
X70.92Y-46.985
X70.92Y-50.085
X81.08Y-46.985
X81.08Y-50.085
X82.5Y-95.54
X82.5Y-105.7
X83.32Y-46.985
X83.32Y-50.085
X84.1Y-136.7
X84.1Y-141.7
X84.1Y-144.0
X84.1Y-149.0
X85.7Y-95.54
X85.7Y-105.7
X93.48Y-46.985
X93.48Y-50.085
X100.1Y-40.025
X100.1Y-50.185
X103.72Y-35.8
X104.7Y-95.54
X104.7Y-105.7
X106.2Y-136.7
X106.2Y-141.7
X107.9Y-95.54
X107.9Y-105.7
X108.72Y-35.8
X126.9Y-95.52
X126.9Y-105.68
X128.5Y-136.7
X128.5Y-141.7
X130.1Y-95.52
X130.1Y-105.68
X131.4Y-65.12
X131.4Y-75.28
X131.52Y-35.8
X136.52Y-35.8
X149.1Y-65.22
X149.1Y-75.38
X149.1Y-95.54
X149.1Y-105.7
T2
X69.2Y-40.925
X69.2Y-43.465
X71.835Y-158.2
X74.375Y-158.2
X75.7Y-40.925
X75.7Y-43.465
X82.2Y-40.925
X82.2Y-43.465
X88.7Y-40.925
X88.7Y-43.465
X94.01Y-158.2
X95.2Y-40.925
X95.2Y-43.465
X96.55Y-158.2
X116.035Y-158.2
X118.575Y-158.2
X138.335Y-158.2
X138.76Y-60.68
X140.875Y-158.2
X141.3Y-60.68
T3
X70.46Y-129.0
X73.0Y-129.0
X75.54Y-129.0
X84.52Y-25.66
X84.52Y-28.2
X87.06Y-25.66
X87.06Y-28.2
X89.6Y-25.66
X89.6Y-28.2
X92.2Y-80.812
X92.66Y-129.0
X94.74Y-80.812
X95.2Y-129.0
X97.28Y-80.812
X97.74Y-129.0
X103.52Y-25.76
X103.52Y-28.3
X106.06Y-25.76
X106.06Y-28.3
X107.86Y-40.5
X107.86Y-55.74
X108.6Y-25.76
X108.6Y-28.3
X110.4Y-40.5
X110.4Y-55.74
X112.94Y-40.5
X112.94Y-55.74
X114.56Y-80.8
X114.86Y-129.0
X115.48Y-40.5
X115.48Y-55.74
X117.1Y-80.8
X117.4Y-129.0
X118.02Y-40.5
X118.02Y-55.74
X119.64Y-80.8
X119.94Y-129.0
X120.56Y-40.5
X120.56Y-55.74
X122.8Y-25.76
X122.8Y-28.3
X123.1Y-40.5
X123.1Y-55.74
X125.34Y-25.76
X125.34Y-28.3
X125.64Y-40.5
X125.64Y-55.74
X127.88Y-25.76
X127.88Y-28.3
X128.18Y-40.5
X128.18Y-55.74
X130.72Y-40.5
X130.72Y-55.74
X133.26Y-40.5
X133.26Y-55.74
X135.8Y-40.5
X135.8Y-55.74
X137.06Y-129.0
X138.34Y-40.5
X138.34Y-55.74
X139.6Y-129.0
X140.88Y-40.5
X140.88Y-55.74
X142.14Y-129.0
X143.42Y-40.5
X143.42Y-55.74
T4
X67.87Y-113.112
X72.95Y-113.112
X77.95Y-113.112
X89.66Y-64.9
X90.07Y-113.112
X94.74Y-64.9
X95.15Y-113.112
X99.74Y-64.9
X100.15Y-113.112
X112.02Y-64.9
X112.37Y-113.212
X117.1Y-64.9
X117.45Y-113.212
X122.1Y-64.9
X122.45Y-113.212
X134.52Y-113.4
X139.6Y-113.4
X144.6Y-113.4
T5
X68.75Y-73.36
X69.25Y-142.64
X75.1Y-70.82
X75.6Y-140.1
X91.3Y-142.7
X97.65Y-140.16
X113.51Y-142.7
X119.86Y-140.16
X135.8Y-142.74
X142.15Y-140.2
T6
X73.1Y-100.7
X95.3Y-100.7
X117.2Y-100.7
X139.625Y-100.7
X140.1Y-70.0
T3
G00X133.675Y-82.3
M15
G01X131.925Y-82.3
M16
G05
G00X133.675Y-86.8
M15
G01X131.925Y-86.8
M16
G05
G00X133.675Y-91.3
M15
G01X131.925Y-91.3
M16
G05
M30
