%TF.GenerationSoftware,KiCad,Pcbnew,9.0.6*%
%TF.CreationDate,2026-01-21T23:10:30+11:00*%
%TF.ProjectId,pattern-sequencer,70617474-6572-46e2-9d73-657175656e63,rev?*%
%TF.SameCoordinates,Original*%
%TF.FileFunction,Legend,Top*%
%TF.FilePolarity,Positive*%
%FSLAX46Y46*%
G04 Gerber Fmt 4.6, Leading zero omitted, Abs format (unit mm)*
G04 Created by KiCad (PCBNEW 9.0.6) date 2026-01-21 23:10:30*
%MOMM*%
%LPD*%
G01*
G04 APERTURE LIST*
%ADD10C,0.300000*%
%ADD11C,0.150000*%
%ADD12C,0.100000*%
%ADD13C,0.120000*%
%ADD14C,0.000000*%
G04 APERTURE END LIST*
D10*
X90883082Y-88400828D02*
X91954510Y-88400828D01*
X91311653Y-87757971D02*
X90883082Y-89686542D01*
X91811653Y-89043685D02*
X90740225Y-89043685D01*
X91383082Y-89686542D02*
X91811653Y-87757971D01*
X92383082Y-89329400D02*
X92597368Y-89400828D01*
X92597368Y-89400828D02*
X92954510Y-89400828D01*
X92954510Y-89400828D02*
X93097368Y-89329400D01*
X93097368Y-89329400D02*
X93168796Y-89257971D01*
X93168796Y-89257971D02*
X93240225Y-89115114D01*
X93240225Y-89115114D02*
X93240225Y-88972257D01*
X93240225Y-88972257D02*
X93168796Y-88829400D01*
X93168796Y-88829400D02*
X93097368Y-88757971D01*
X93097368Y-88757971D02*
X92954510Y-88686542D01*
X92954510Y-88686542D02*
X92668796Y-88615114D01*
X92668796Y-88615114D02*
X92525939Y-88543685D01*
X92525939Y-88543685D02*
X92454510Y-88472257D01*
X92454510Y-88472257D02*
X92383082Y-88329400D01*
X92383082Y-88329400D02*
X92383082Y-88186542D01*
X92383082Y-88186542D02*
X92454510Y-88043685D01*
X92454510Y-88043685D02*
X92525939Y-87972257D01*
X92525939Y-87972257D02*
X92668796Y-87900828D01*
X92668796Y-87900828D02*
X93025939Y-87900828D01*
X93025939Y-87900828D02*
X93240225Y-87972257D01*
X93668796Y-87900828D02*
X94525939Y-87900828D01*
X94097367Y-89400828D02*
X94097367Y-87900828D01*
X95025938Y-88615114D02*
X95525938Y-88615114D01*
X95740224Y-89400828D02*
X95025938Y-89400828D01*
X95025938Y-89400828D02*
X95025938Y-87900828D01*
X95025938Y-87900828D02*
X95740224Y-87900828D01*
X96383081Y-89400828D02*
X96383081Y-87900828D01*
X96383081Y-87900828D02*
X96954510Y-87900828D01*
X96954510Y-87900828D02*
X97097367Y-87972257D01*
X97097367Y-87972257D02*
X97168796Y-88043685D01*
X97168796Y-88043685D02*
X97240224Y-88186542D01*
X97240224Y-88186542D02*
X97240224Y-88400828D01*
X97240224Y-88400828D02*
X97168796Y-88543685D01*
X97168796Y-88543685D02*
X97097367Y-88615114D01*
X97097367Y-88615114D02*
X96954510Y-88686542D01*
X96954510Y-88686542D02*
X96383081Y-88686542D01*
X97811653Y-89329400D02*
X98025939Y-89400828D01*
X98025939Y-89400828D02*
X98383081Y-89400828D01*
X98383081Y-89400828D02*
X98525939Y-89329400D01*
X98525939Y-89329400D02*
X98597367Y-89257971D01*
X98597367Y-89257971D02*
X98668796Y-89115114D01*
X98668796Y-89115114D02*
X98668796Y-88972257D01*
X98668796Y-88972257D02*
X98597367Y-88829400D01*
X98597367Y-88829400D02*
X98525939Y-88757971D01*
X98525939Y-88757971D02*
X98383081Y-88686542D01*
X98383081Y-88686542D02*
X98097367Y-88615114D01*
X98097367Y-88615114D02*
X97954510Y-88543685D01*
X97954510Y-88543685D02*
X97883081Y-88472257D01*
X97883081Y-88472257D02*
X97811653Y-88329400D01*
X97811653Y-88329400D02*
X97811653Y-88186542D01*
X97811653Y-88186542D02*
X97883081Y-88043685D01*
X97883081Y-88043685D02*
X97954510Y-87972257D01*
X97954510Y-87972257D02*
X98097367Y-87900828D01*
X98097367Y-87900828D02*
X98454510Y-87900828D01*
X98454510Y-87900828D02*
X98668796Y-87972257D01*
X72211653Y-163657971D02*
X72140225Y-163729400D01*
X72140225Y-163729400D02*
X71925939Y-163800828D01*
X71925939Y-163800828D02*
X71783082Y-163800828D01*
X71783082Y-163800828D02*
X71568796Y-163729400D01*
X71568796Y-163729400D02*
X71425939Y-163586542D01*
X71425939Y-163586542D02*
X71354510Y-163443685D01*
X71354510Y-163443685D02*
X71283082Y-163157971D01*
X71283082Y-163157971D02*
X71283082Y-162943685D01*
X71283082Y-162943685D02*
X71354510Y-162657971D01*
X71354510Y-162657971D02*
X71425939Y-162515114D01*
X71425939Y-162515114D02*
X71568796Y-162372257D01*
X71568796Y-162372257D02*
X71783082Y-162300828D01*
X71783082Y-162300828D02*
X71925939Y-162300828D01*
X71925939Y-162300828D02*
X72140225Y-162372257D01*
X72140225Y-162372257D02*
X72211653Y-162443685D01*
X72854510Y-163800828D02*
X72854510Y-162300828D01*
X72854510Y-163015114D02*
X73711653Y-163015114D01*
X73711653Y-163800828D02*
X73711653Y-162300828D01*
X75211654Y-163800828D02*
X74354511Y-163800828D01*
X74783082Y-163800828D02*
X74783082Y-162300828D01*
X74783082Y-162300828D02*
X74640225Y-162515114D01*
X74640225Y-162515114D02*
X74497368Y-162657971D01*
X74497368Y-162657971D02*
X74354511Y-162729400D01*
X116311653Y-163657971D02*
X116240225Y-163729400D01*
X116240225Y-163729400D02*
X116025939Y-163800828D01*
X116025939Y-163800828D02*
X115883082Y-163800828D01*
X115883082Y-163800828D02*
X115668796Y-163729400D01*
X115668796Y-163729400D02*
X115525939Y-163586542D01*
X115525939Y-163586542D02*
X115454510Y-163443685D01*
X115454510Y-163443685D02*
X115383082Y-163157971D01*
X115383082Y-163157971D02*
X115383082Y-162943685D01*
X115383082Y-162943685D02*
X115454510Y-162657971D01*
X115454510Y-162657971D02*
X115525939Y-162515114D01*
X115525939Y-162515114D02*
X115668796Y-162372257D01*
X115668796Y-162372257D02*
X115883082Y-162300828D01*
X115883082Y-162300828D02*
X116025939Y-162300828D01*
X116025939Y-162300828D02*
X116240225Y-162372257D01*
X116240225Y-162372257D02*
X116311653Y-162443685D01*
X116954510Y-163800828D02*
X116954510Y-162300828D01*
X116954510Y-163015114D02*
X117811653Y-163015114D01*
X117811653Y-163800828D02*
X117811653Y-162300828D01*
X118383082Y-162300828D02*
X119311654Y-162300828D01*
X119311654Y-162300828D02*
X118811654Y-162872257D01*
X118811654Y-162872257D02*
X119025939Y-162872257D01*
X119025939Y-162872257D02*
X119168797Y-162943685D01*
X119168797Y-162943685D02*
X119240225Y-163015114D01*
X119240225Y-163015114D02*
X119311654Y-163157971D01*
X119311654Y-163157971D02*
X119311654Y-163515114D01*
X119311654Y-163515114D02*
X119240225Y-163657971D01*
X119240225Y-163657971D02*
X119168797Y-163729400D01*
X119168797Y-163729400D02*
X119025939Y-163800828D01*
X119025939Y-163800828D02*
X118597368Y-163800828D01*
X118597368Y-163800828D02*
X118454511Y-163729400D01*
X118454511Y-163729400D02*
X118383082Y-163657971D01*
X138554510Y-82215114D02*
X139054510Y-82215114D01*
X139268796Y-83000828D02*
X138554510Y-83000828D01*
X138554510Y-83000828D02*
X138554510Y-81500828D01*
X138554510Y-81500828D02*
X139268796Y-81500828D01*
X139768796Y-81500828D02*
X140768796Y-83000828D01*
X140768796Y-81500828D02*
X139768796Y-83000828D01*
X141125939Y-81500828D02*
X141983082Y-81500828D01*
X141554510Y-83000828D02*
X141554510Y-81500828D01*
X142483081Y-82215114D02*
X142983081Y-82215114D01*
X143197367Y-83000828D02*
X142483081Y-83000828D01*
X142483081Y-83000828D02*
X142483081Y-81500828D01*
X142483081Y-81500828D02*
X143197367Y-81500828D01*
X144697367Y-83000828D02*
X144197367Y-82286542D01*
X143840224Y-83000828D02*
X143840224Y-81500828D01*
X143840224Y-81500828D02*
X144411653Y-81500828D01*
X144411653Y-81500828D02*
X144554510Y-81572257D01*
X144554510Y-81572257D02*
X144625939Y-81643685D01*
X144625939Y-81643685D02*
X144697367Y-81786542D01*
X144697367Y-81786542D02*
X144697367Y-82000828D01*
X144697367Y-82000828D02*
X144625939Y-82143685D01*
X144625939Y-82143685D02*
X144554510Y-82215114D01*
X144554510Y-82215114D02*
X144411653Y-82286542D01*
X144411653Y-82286542D02*
X143840224Y-82286542D01*
X145340224Y-83000828D02*
X145340224Y-81500828D01*
X145340224Y-81500828D02*
X146197367Y-83000828D01*
X146197367Y-83000828D02*
X146197367Y-81500828D01*
X146840225Y-82572257D02*
X147554511Y-82572257D01*
X146697368Y-83000828D02*
X147197368Y-81500828D01*
X147197368Y-81500828D02*
X147697368Y-83000828D01*
X148911653Y-83000828D02*
X148197367Y-83000828D01*
X148197367Y-83000828D02*
X148197367Y-81500828D01*
X138511653Y-163657971D02*
X138440225Y-163729400D01*
X138440225Y-163729400D02*
X138225939Y-163800828D01*
X138225939Y-163800828D02*
X138083082Y-163800828D01*
X138083082Y-163800828D02*
X137868796Y-163729400D01*
X137868796Y-163729400D02*
X137725939Y-163586542D01*
X137725939Y-163586542D02*
X137654510Y-163443685D01*
X137654510Y-163443685D02*
X137583082Y-163157971D01*
X137583082Y-163157971D02*
X137583082Y-162943685D01*
X137583082Y-162943685D02*
X137654510Y-162657971D01*
X137654510Y-162657971D02*
X137725939Y-162515114D01*
X137725939Y-162515114D02*
X137868796Y-162372257D01*
X137868796Y-162372257D02*
X138083082Y-162300828D01*
X138083082Y-162300828D02*
X138225939Y-162300828D01*
X138225939Y-162300828D02*
X138440225Y-162372257D01*
X138440225Y-162372257D02*
X138511653Y-162443685D01*
X139154510Y-163800828D02*
X139154510Y-162300828D01*
X139154510Y-163015114D02*
X140011653Y-163015114D01*
X140011653Y-163800828D02*
X140011653Y-162300828D01*
X141368797Y-162800828D02*
X141368797Y-163800828D01*
X141011654Y-162229400D02*
X140654511Y-163300828D01*
X140654511Y-163300828D02*
X141583082Y-163300828D01*
X113840225Y-87800828D02*
X114697368Y-87800828D01*
X114268796Y-89300828D02*
X114268796Y-87800828D01*
X115197367Y-88515114D02*
X115697367Y-88515114D01*
X115911653Y-89300828D02*
X115197367Y-89300828D01*
X115197367Y-89300828D02*
X115197367Y-87800828D01*
X115197367Y-87800828D02*
X115911653Y-87800828D01*
X116554510Y-89300828D02*
X116554510Y-87800828D01*
X116554510Y-87800828D02*
X117054510Y-88872257D01*
X117054510Y-88872257D02*
X117554510Y-87800828D01*
X117554510Y-87800828D02*
X117554510Y-89300828D01*
X118268796Y-89300828D02*
X118268796Y-87800828D01*
X118268796Y-87800828D02*
X118840225Y-87800828D01*
X118840225Y-87800828D02*
X118983082Y-87872257D01*
X118983082Y-87872257D02*
X119054511Y-87943685D01*
X119054511Y-87943685D02*
X119125939Y-88086542D01*
X119125939Y-88086542D02*
X119125939Y-88300828D01*
X119125939Y-88300828D02*
X119054511Y-88443685D01*
X119054511Y-88443685D02*
X118983082Y-88515114D01*
X118983082Y-88515114D02*
X118840225Y-88586542D01*
X118840225Y-88586542D02*
X118268796Y-88586542D01*
X120054511Y-87800828D02*
X120340225Y-87800828D01*
X120340225Y-87800828D02*
X120483082Y-87872257D01*
X120483082Y-87872257D02*
X120625939Y-88015114D01*
X120625939Y-88015114D02*
X120697368Y-88300828D01*
X120697368Y-88300828D02*
X120697368Y-88800828D01*
X120697368Y-88800828D02*
X120625939Y-89086542D01*
X120625939Y-89086542D02*
X120483082Y-89229400D01*
X120483082Y-89229400D02*
X120340225Y-89300828D01*
X120340225Y-89300828D02*
X120054511Y-89300828D01*
X120054511Y-89300828D02*
X119911654Y-89229400D01*
X119911654Y-89229400D02*
X119768796Y-89086542D01*
X119768796Y-89086542D02*
X119697368Y-88800828D01*
X119697368Y-88800828D02*
X119697368Y-88300828D01*
X119697368Y-88300828D02*
X119768796Y-88015114D01*
X119768796Y-88015114D02*
X119911654Y-87872257D01*
X119911654Y-87872257D02*
X120054511Y-87800828D01*
X94211653Y-163657971D02*
X94140225Y-163729400D01*
X94140225Y-163729400D02*
X93925939Y-163800828D01*
X93925939Y-163800828D02*
X93783082Y-163800828D01*
X93783082Y-163800828D02*
X93568796Y-163729400D01*
X93568796Y-163729400D02*
X93425939Y-163586542D01*
X93425939Y-163586542D02*
X93354510Y-163443685D01*
X93354510Y-163443685D02*
X93283082Y-163157971D01*
X93283082Y-163157971D02*
X93283082Y-162943685D01*
X93283082Y-162943685D02*
X93354510Y-162657971D01*
X93354510Y-162657971D02*
X93425939Y-162515114D01*
X93425939Y-162515114D02*
X93568796Y-162372257D01*
X93568796Y-162372257D02*
X93783082Y-162300828D01*
X93783082Y-162300828D02*
X93925939Y-162300828D01*
X93925939Y-162300828D02*
X94140225Y-162372257D01*
X94140225Y-162372257D02*
X94211653Y-162443685D01*
X94854510Y-163800828D02*
X94854510Y-162300828D01*
X94854510Y-163015114D02*
X95711653Y-163015114D01*
X95711653Y-163800828D02*
X95711653Y-162300828D01*
X96354511Y-162443685D02*
X96425939Y-162372257D01*
X96425939Y-162372257D02*
X96568797Y-162300828D01*
X96568797Y-162300828D02*
X96925939Y-162300828D01*
X96925939Y-162300828D02*
X97068797Y-162372257D01*
X97068797Y-162372257D02*
X97140225Y-162443685D01*
X97140225Y-162443685D02*
X97211654Y-162586542D01*
X97211654Y-162586542D02*
X97211654Y-162729400D01*
X97211654Y-162729400D02*
X97140225Y-162943685D01*
X97140225Y-162943685D02*
X96283082Y-163800828D01*
X96283082Y-163800828D02*
X97211654Y-163800828D01*
X70211653Y-89357971D02*
X70140225Y-89429400D01*
X70140225Y-89429400D02*
X69925939Y-89500828D01*
X69925939Y-89500828D02*
X69783082Y-89500828D01*
X69783082Y-89500828D02*
X69568796Y-89429400D01*
X69568796Y-89429400D02*
X69425939Y-89286542D01*
X69425939Y-89286542D02*
X69354510Y-89143685D01*
X69354510Y-89143685D02*
X69283082Y-88857971D01*
X69283082Y-88857971D02*
X69283082Y-88643685D01*
X69283082Y-88643685D02*
X69354510Y-88357971D01*
X69354510Y-88357971D02*
X69425939Y-88215114D01*
X69425939Y-88215114D02*
X69568796Y-88072257D01*
X69568796Y-88072257D02*
X69783082Y-88000828D01*
X69783082Y-88000828D02*
X69925939Y-88000828D01*
X69925939Y-88000828D02*
X70140225Y-88072257D01*
X70140225Y-88072257D02*
X70211653Y-88143685D01*
X71568796Y-89500828D02*
X70854510Y-89500828D01*
X70854510Y-89500828D02*
X70854510Y-88000828D01*
X72068796Y-88715114D02*
X72568796Y-88715114D01*
X72783082Y-89500828D02*
X72068796Y-89500828D01*
X72068796Y-89500828D02*
X72068796Y-88000828D01*
X72068796Y-88000828D02*
X72783082Y-88000828D01*
X73354511Y-89072257D02*
X74068797Y-89072257D01*
X73211654Y-89500828D02*
X73711654Y-88000828D01*
X73711654Y-88000828D02*
X74211654Y-89500828D01*
X75568796Y-89500828D02*
X75068796Y-88786542D01*
X74711653Y-89500828D02*
X74711653Y-88000828D01*
X74711653Y-88000828D02*
X75283082Y-88000828D01*
X75283082Y-88000828D02*
X75425939Y-88072257D01*
X75425939Y-88072257D02*
X75497368Y-88143685D01*
X75497368Y-88143685D02*
X75568796Y-88286542D01*
X75568796Y-88286542D02*
X75568796Y-88500828D01*
X75568796Y-88500828D02*
X75497368Y-88643685D01*
X75497368Y-88643685D02*
X75425939Y-88715114D01*
X75425939Y-88715114D02*
X75283082Y-88786542D01*
X75283082Y-88786542D02*
X74711653Y-88786542D01*
X137511653Y-78157971D02*
X137440225Y-78229400D01*
X137440225Y-78229400D02*
X137225939Y-78300828D01*
X137225939Y-78300828D02*
X137083082Y-78300828D01*
X137083082Y-78300828D02*
X136868796Y-78229400D01*
X136868796Y-78229400D02*
X136725939Y-78086542D01*
X136725939Y-78086542D02*
X136654510Y-77943685D01*
X136654510Y-77943685D02*
X136583082Y-77657971D01*
X136583082Y-77657971D02*
X136583082Y-77443685D01*
X136583082Y-77443685D02*
X136654510Y-77157971D01*
X136654510Y-77157971D02*
X136725939Y-77015114D01*
X136725939Y-77015114D02*
X136868796Y-76872257D01*
X136868796Y-76872257D02*
X137083082Y-76800828D01*
X137083082Y-76800828D02*
X137225939Y-76800828D01*
X137225939Y-76800828D02*
X137440225Y-76872257D01*
X137440225Y-76872257D02*
X137511653Y-76943685D01*
X138868796Y-78300828D02*
X138154510Y-78300828D01*
X138154510Y-78300828D02*
X138154510Y-76800828D01*
X139654511Y-76800828D02*
X139940225Y-76800828D01*
X139940225Y-76800828D02*
X140083082Y-76872257D01*
X140083082Y-76872257D02*
X140225939Y-77015114D01*
X140225939Y-77015114D02*
X140297368Y-77300828D01*
X140297368Y-77300828D02*
X140297368Y-77800828D01*
X140297368Y-77800828D02*
X140225939Y-78086542D01*
X140225939Y-78086542D02*
X140083082Y-78229400D01*
X140083082Y-78229400D02*
X139940225Y-78300828D01*
X139940225Y-78300828D02*
X139654511Y-78300828D01*
X139654511Y-78300828D02*
X139511654Y-78229400D01*
X139511654Y-78229400D02*
X139368796Y-78086542D01*
X139368796Y-78086542D02*
X139297368Y-77800828D01*
X139297368Y-77800828D02*
X139297368Y-77300828D01*
X139297368Y-77300828D02*
X139368796Y-77015114D01*
X139368796Y-77015114D02*
X139511654Y-76872257D01*
X139511654Y-76872257D02*
X139654511Y-76800828D01*
X141797368Y-78157971D02*
X141725940Y-78229400D01*
X141725940Y-78229400D02*
X141511654Y-78300828D01*
X141511654Y-78300828D02*
X141368797Y-78300828D01*
X141368797Y-78300828D02*
X141154511Y-78229400D01*
X141154511Y-78229400D02*
X141011654Y-78086542D01*
X141011654Y-78086542D02*
X140940225Y-77943685D01*
X140940225Y-77943685D02*
X140868797Y-77657971D01*
X140868797Y-77657971D02*
X140868797Y-77443685D01*
X140868797Y-77443685D02*
X140940225Y-77157971D01*
X140940225Y-77157971D02*
X141011654Y-77015114D01*
X141011654Y-77015114D02*
X141154511Y-76872257D01*
X141154511Y-76872257D02*
X141368797Y-76800828D01*
X141368797Y-76800828D02*
X141511654Y-76800828D01*
X141511654Y-76800828D02*
X141725940Y-76872257D01*
X141725940Y-76872257D02*
X141797368Y-76943685D01*
X142440225Y-78300828D02*
X142440225Y-76800828D01*
X143297368Y-78300828D02*
X142654511Y-77443685D01*
X143297368Y-76800828D02*
X142440225Y-77657971D01*
D11*
X63171428Y-169444875D02*
X63171428Y-168444875D01*
X63171428Y-168444875D02*
X63552380Y-168444875D01*
X63552380Y-168444875D02*
X63647618Y-168492494D01*
X63647618Y-168492494D02*
X63695237Y-168540113D01*
X63695237Y-168540113D02*
X63742856Y-168635351D01*
X63742856Y-168635351D02*
X63742856Y-168778208D01*
X63742856Y-168778208D02*
X63695237Y-168873446D01*
X63695237Y-168873446D02*
X63647618Y-168921065D01*
X63647618Y-168921065D02*
X63552380Y-168968684D01*
X63552380Y-168968684D02*
X63171428Y-168968684D01*
X64123809Y-169159160D02*
X64599999Y-169159160D01*
X64028571Y-169444875D02*
X64361904Y-168444875D01*
X64361904Y-168444875D02*
X64695237Y-169444875D01*
X64885714Y-168444875D02*
X65457142Y-168444875D01*
X65171428Y-169444875D02*
X65171428Y-168444875D01*
X65647619Y-168444875D02*
X66219047Y-168444875D01*
X65933333Y-169444875D02*
X65933333Y-168444875D01*
X66552381Y-168921065D02*
X66885714Y-168921065D01*
X67028571Y-169444875D02*
X66552381Y-169444875D01*
X66552381Y-169444875D02*
X66552381Y-168444875D01*
X66552381Y-168444875D02*
X67028571Y-168444875D01*
X68028571Y-169444875D02*
X67695238Y-168968684D01*
X67457143Y-169444875D02*
X67457143Y-168444875D01*
X67457143Y-168444875D02*
X67838095Y-168444875D01*
X67838095Y-168444875D02*
X67933333Y-168492494D01*
X67933333Y-168492494D02*
X67980952Y-168540113D01*
X67980952Y-168540113D02*
X68028571Y-168635351D01*
X68028571Y-168635351D02*
X68028571Y-168778208D01*
X68028571Y-168778208D02*
X67980952Y-168873446D01*
X67980952Y-168873446D02*
X67933333Y-168921065D01*
X67933333Y-168921065D02*
X67838095Y-168968684D01*
X67838095Y-168968684D02*
X67457143Y-168968684D01*
X68457143Y-169444875D02*
X68457143Y-168444875D01*
X68457143Y-168444875D02*
X69028571Y-169444875D01*
X69028571Y-169444875D02*
X69028571Y-168444875D01*
X61885714Y-171007200D02*
X62028571Y-171054819D01*
X62028571Y-171054819D02*
X62266666Y-171054819D01*
X62266666Y-171054819D02*
X62361904Y-171007200D01*
X62361904Y-171007200D02*
X62409523Y-170959580D01*
X62409523Y-170959580D02*
X62457142Y-170864342D01*
X62457142Y-170864342D02*
X62457142Y-170769104D01*
X62457142Y-170769104D02*
X62409523Y-170673866D01*
X62409523Y-170673866D02*
X62361904Y-170626247D01*
X62361904Y-170626247D02*
X62266666Y-170578628D01*
X62266666Y-170578628D02*
X62076190Y-170531009D01*
X62076190Y-170531009D02*
X61980952Y-170483390D01*
X61980952Y-170483390D02*
X61933333Y-170435771D01*
X61933333Y-170435771D02*
X61885714Y-170340533D01*
X61885714Y-170340533D02*
X61885714Y-170245295D01*
X61885714Y-170245295D02*
X61933333Y-170150057D01*
X61933333Y-170150057D02*
X61980952Y-170102438D01*
X61980952Y-170102438D02*
X62076190Y-170054819D01*
X62076190Y-170054819D02*
X62314285Y-170054819D01*
X62314285Y-170054819D02*
X62457142Y-170102438D01*
X62885714Y-170531009D02*
X63219047Y-170531009D01*
X63361904Y-171054819D02*
X62885714Y-171054819D01*
X62885714Y-171054819D02*
X62885714Y-170054819D01*
X62885714Y-170054819D02*
X63361904Y-170054819D01*
X64457142Y-171150057D02*
X64361904Y-171102438D01*
X64361904Y-171102438D02*
X64266666Y-171007200D01*
X64266666Y-171007200D02*
X64123809Y-170864342D01*
X64123809Y-170864342D02*
X64028571Y-170816723D01*
X64028571Y-170816723D02*
X63933333Y-170816723D01*
X63980952Y-171054819D02*
X63885714Y-171007200D01*
X63885714Y-171007200D02*
X63790476Y-170911961D01*
X63790476Y-170911961D02*
X63742857Y-170721485D01*
X63742857Y-170721485D02*
X63742857Y-170388152D01*
X63742857Y-170388152D02*
X63790476Y-170197676D01*
X63790476Y-170197676D02*
X63885714Y-170102438D01*
X63885714Y-170102438D02*
X63980952Y-170054819D01*
X63980952Y-170054819D02*
X64171428Y-170054819D01*
X64171428Y-170054819D02*
X64266666Y-170102438D01*
X64266666Y-170102438D02*
X64361904Y-170197676D01*
X64361904Y-170197676D02*
X64409523Y-170388152D01*
X64409523Y-170388152D02*
X64409523Y-170721485D01*
X64409523Y-170721485D02*
X64361904Y-170911961D01*
X64361904Y-170911961D02*
X64266666Y-171007200D01*
X64266666Y-171007200D02*
X64171428Y-171054819D01*
X64171428Y-171054819D02*
X63980952Y-171054819D01*
X64838095Y-170054819D02*
X64838095Y-170864342D01*
X64838095Y-170864342D02*
X64885714Y-170959580D01*
X64885714Y-170959580D02*
X64933333Y-171007200D01*
X64933333Y-171007200D02*
X65028571Y-171054819D01*
X65028571Y-171054819D02*
X65219047Y-171054819D01*
X65219047Y-171054819D02*
X65314285Y-171007200D01*
X65314285Y-171007200D02*
X65361904Y-170959580D01*
X65361904Y-170959580D02*
X65409523Y-170864342D01*
X65409523Y-170864342D02*
X65409523Y-170054819D01*
X65885714Y-170531009D02*
X66219047Y-170531009D01*
X66361904Y-171054819D02*
X65885714Y-171054819D01*
X65885714Y-171054819D02*
X65885714Y-170054819D01*
X65885714Y-170054819D02*
X66361904Y-170054819D01*
X66790476Y-171054819D02*
X66790476Y-170054819D01*
X66790476Y-170054819D02*
X67361904Y-171054819D01*
X67361904Y-171054819D02*
X67361904Y-170054819D01*
X68409523Y-170959580D02*
X68361904Y-171007200D01*
X68361904Y-171007200D02*
X68219047Y-171054819D01*
X68219047Y-171054819D02*
X68123809Y-171054819D01*
X68123809Y-171054819D02*
X67980952Y-171007200D01*
X67980952Y-171007200D02*
X67885714Y-170911961D01*
X67885714Y-170911961D02*
X67838095Y-170816723D01*
X67838095Y-170816723D02*
X67790476Y-170626247D01*
X67790476Y-170626247D02*
X67790476Y-170483390D01*
X67790476Y-170483390D02*
X67838095Y-170292914D01*
X67838095Y-170292914D02*
X67885714Y-170197676D01*
X67885714Y-170197676D02*
X67980952Y-170102438D01*
X67980952Y-170102438D02*
X68123809Y-170054819D01*
X68123809Y-170054819D02*
X68219047Y-170054819D01*
X68219047Y-170054819D02*
X68361904Y-170102438D01*
X68361904Y-170102438D02*
X68409523Y-170150057D01*
X68838095Y-170531009D02*
X69171428Y-170531009D01*
X69314285Y-171054819D02*
X68838095Y-171054819D01*
X68838095Y-171054819D02*
X68838095Y-170054819D01*
X68838095Y-170054819D02*
X69314285Y-170054819D01*
X70314285Y-171054819D02*
X69980952Y-170578628D01*
X69742857Y-171054819D02*
X69742857Y-170054819D01*
X69742857Y-170054819D02*
X70123809Y-170054819D01*
X70123809Y-170054819D02*
X70219047Y-170102438D01*
X70219047Y-170102438D02*
X70266666Y-170150057D01*
X70266666Y-170150057D02*
X70314285Y-170245295D01*
X70314285Y-170245295D02*
X70314285Y-170388152D01*
X70314285Y-170388152D02*
X70266666Y-170483390D01*
X70266666Y-170483390D02*
X70219047Y-170531009D01*
X70219047Y-170531009D02*
X70123809Y-170578628D01*
X70123809Y-170578628D02*
X69742857Y-170578628D01*
X65290476Y-171664763D02*
X65623809Y-172664763D01*
X65623809Y-172664763D02*
X65957142Y-171664763D01*
X66814285Y-172664763D02*
X66242857Y-172664763D01*
X66528571Y-172664763D02*
X66528571Y-171664763D01*
X66528571Y-171664763D02*
X66433333Y-171807620D01*
X66433333Y-171807620D02*
X66338095Y-171902858D01*
X66338095Y-171902858D02*
X66242857Y-171950477D01*
D10*
X138654510Y-92100828D02*
X138654510Y-90600828D01*
X139368796Y-92100828D02*
X139368796Y-90600828D01*
X139368796Y-90600828D02*
X140225939Y-92100828D01*
X140225939Y-92100828D02*
X140225939Y-90600828D01*
X140725940Y-90600828D02*
X141583083Y-90600828D01*
X141154511Y-92100828D02*
X141154511Y-90600828D01*
X142083082Y-91315114D02*
X142583082Y-91315114D01*
X142797368Y-92100828D02*
X142083082Y-92100828D01*
X142083082Y-92100828D02*
X142083082Y-90600828D01*
X142083082Y-90600828D02*
X142797368Y-90600828D01*
X144297368Y-92100828D02*
X143797368Y-91386542D01*
X143440225Y-92100828D02*
X143440225Y-90600828D01*
X143440225Y-90600828D02*
X144011654Y-90600828D01*
X144011654Y-90600828D02*
X144154511Y-90672257D01*
X144154511Y-90672257D02*
X144225940Y-90743685D01*
X144225940Y-90743685D02*
X144297368Y-90886542D01*
X144297368Y-90886542D02*
X144297368Y-91100828D01*
X144297368Y-91100828D02*
X144225940Y-91243685D01*
X144225940Y-91243685D02*
X144154511Y-91315114D01*
X144154511Y-91315114D02*
X144011654Y-91386542D01*
X144011654Y-91386542D02*
X143440225Y-91386542D01*
X144940225Y-92100828D02*
X144940225Y-90600828D01*
X144940225Y-90600828D02*
X145797368Y-92100828D01*
X145797368Y-92100828D02*
X145797368Y-90600828D01*
X146440226Y-91672257D02*
X147154512Y-91672257D01*
X146297369Y-92100828D02*
X146797369Y-90600828D01*
X146797369Y-90600828D02*
X147297369Y-92100828D01*
X148511654Y-92100828D02*
X147797368Y-92100828D01*
X147797368Y-92100828D02*
X147797368Y-90600828D01*
D11*
X93776667Y-137773200D02*
X93919524Y-137820819D01*
X93919524Y-137820819D02*
X94157619Y-137820819D01*
X94157619Y-137820819D02*
X94252857Y-137773200D01*
X94252857Y-137773200D02*
X94300476Y-137725580D01*
X94300476Y-137725580D02*
X94348095Y-137630342D01*
X94348095Y-137630342D02*
X94348095Y-137535104D01*
X94348095Y-137535104D02*
X94300476Y-137439866D01*
X94300476Y-137439866D02*
X94252857Y-137392247D01*
X94252857Y-137392247D02*
X94157619Y-137344628D01*
X94157619Y-137344628D02*
X93967143Y-137297009D01*
X93967143Y-137297009D02*
X93871905Y-137249390D01*
X93871905Y-137249390D02*
X93824286Y-137201771D01*
X93824286Y-137201771D02*
X93776667Y-137106533D01*
X93776667Y-137106533D02*
X93776667Y-137011295D01*
X93776667Y-137011295D02*
X93824286Y-136916057D01*
X93824286Y-136916057D02*
X93871905Y-136868438D01*
X93871905Y-136868438D02*
X93967143Y-136820819D01*
X93967143Y-136820819D02*
X94205238Y-136820819D01*
X94205238Y-136820819D02*
X94348095Y-136868438D01*
X94681429Y-136820819D02*
X94919524Y-137820819D01*
X94919524Y-137820819D02*
X95110000Y-137106533D01*
X95110000Y-137106533D02*
X95300476Y-137820819D01*
X95300476Y-137820819D02*
X95538572Y-136820819D01*
X95871905Y-136916057D02*
X95919524Y-136868438D01*
X95919524Y-136868438D02*
X96014762Y-136820819D01*
X96014762Y-136820819D02*
X96252857Y-136820819D01*
X96252857Y-136820819D02*
X96348095Y-136868438D01*
X96348095Y-136868438D02*
X96395714Y-136916057D01*
X96395714Y-136916057D02*
X96443333Y-137011295D01*
X96443333Y-137011295D02*
X96443333Y-137106533D01*
X96443333Y-137106533D02*
X96395714Y-137249390D01*
X96395714Y-137249390D02*
X95824286Y-137820819D01*
X95824286Y-137820819D02*
X96443333Y-137820819D01*
X83901905Y-38419819D02*
X83901905Y-37419819D01*
X83901905Y-37419819D02*
X84140000Y-37419819D01*
X84140000Y-37419819D02*
X84282857Y-37467438D01*
X84282857Y-37467438D02*
X84378095Y-37562676D01*
X84378095Y-37562676D02*
X84425714Y-37657914D01*
X84425714Y-37657914D02*
X84473333Y-37848390D01*
X84473333Y-37848390D02*
X84473333Y-37991247D01*
X84473333Y-37991247D02*
X84425714Y-38181723D01*
X84425714Y-38181723D02*
X84378095Y-38276961D01*
X84378095Y-38276961D02*
X84282857Y-38372200D01*
X84282857Y-38372200D02*
X84140000Y-38419819D01*
X84140000Y-38419819D02*
X83901905Y-38419819D01*
X85044762Y-37848390D02*
X84949524Y-37800771D01*
X84949524Y-37800771D02*
X84901905Y-37753152D01*
X84901905Y-37753152D02*
X84854286Y-37657914D01*
X84854286Y-37657914D02*
X84854286Y-37610295D01*
X84854286Y-37610295D02*
X84901905Y-37515057D01*
X84901905Y-37515057D02*
X84949524Y-37467438D01*
X84949524Y-37467438D02*
X85044762Y-37419819D01*
X85044762Y-37419819D02*
X85235238Y-37419819D01*
X85235238Y-37419819D02*
X85330476Y-37467438D01*
X85330476Y-37467438D02*
X85378095Y-37515057D01*
X85378095Y-37515057D02*
X85425714Y-37610295D01*
X85425714Y-37610295D02*
X85425714Y-37657914D01*
X85425714Y-37657914D02*
X85378095Y-37753152D01*
X85378095Y-37753152D02*
X85330476Y-37800771D01*
X85330476Y-37800771D02*
X85235238Y-37848390D01*
X85235238Y-37848390D02*
X85044762Y-37848390D01*
X85044762Y-37848390D02*
X84949524Y-37896009D01*
X84949524Y-37896009D02*
X84901905Y-37943628D01*
X84901905Y-37943628D02*
X84854286Y-38038866D01*
X84854286Y-38038866D02*
X84854286Y-38229342D01*
X84854286Y-38229342D02*
X84901905Y-38324580D01*
X84901905Y-38324580D02*
X84949524Y-38372200D01*
X84949524Y-38372200D02*
X85044762Y-38419819D01*
X85044762Y-38419819D02*
X85235238Y-38419819D01*
X85235238Y-38419819D02*
X85330476Y-38372200D01*
X85330476Y-38372200D02*
X85378095Y-38324580D01*
X85378095Y-38324580D02*
X85425714Y-38229342D01*
X85425714Y-38229342D02*
X85425714Y-38038866D01*
X85425714Y-38038866D02*
X85378095Y-37943628D01*
X85378095Y-37943628D02*
X85330476Y-37896009D01*
X85330476Y-37896009D02*
X85235238Y-37848390D01*
X130554819Y-100766666D02*
X130078628Y-101099999D01*
X130554819Y-101338094D02*
X129554819Y-101338094D01*
X129554819Y-101338094D02*
X129554819Y-100957142D01*
X129554819Y-100957142D02*
X129602438Y-100861904D01*
X129602438Y-100861904D02*
X129650057Y-100814285D01*
X129650057Y-100814285D02*
X129745295Y-100766666D01*
X129745295Y-100766666D02*
X129888152Y-100766666D01*
X129888152Y-100766666D02*
X129983390Y-100814285D01*
X129983390Y-100814285D02*
X130031009Y-100861904D01*
X130031009Y-100861904D02*
X130078628Y-100957142D01*
X130078628Y-100957142D02*
X130078628Y-101338094D01*
X129554819Y-100433332D02*
X129554819Y-99766666D01*
X129554819Y-99766666D02*
X130554819Y-100195237D01*
X127354819Y-100766666D02*
X126878628Y-101099999D01*
X127354819Y-101338094D02*
X126354819Y-101338094D01*
X126354819Y-101338094D02*
X126354819Y-100957142D01*
X126354819Y-100957142D02*
X126402438Y-100861904D01*
X126402438Y-100861904D02*
X126450057Y-100814285D01*
X126450057Y-100814285D02*
X126545295Y-100766666D01*
X126545295Y-100766666D02*
X126688152Y-100766666D01*
X126688152Y-100766666D02*
X126783390Y-100814285D01*
X126783390Y-100814285D02*
X126831009Y-100861904D01*
X126831009Y-100861904D02*
X126878628Y-100957142D01*
X126878628Y-100957142D02*
X126878628Y-101338094D01*
X126354819Y-99909523D02*
X126354819Y-100099999D01*
X126354819Y-100099999D02*
X126402438Y-100195237D01*
X126402438Y-100195237D02*
X126450057Y-100242856D01*
X126450057Y-100242856D02*
X126592914Y-100338094D01*
X126592914Y-100338094D02*
X126783390Y-100385713D01*
X126783390Y-100385713D02*
X127164342Y-100385713D01*
X127164342Y-100385713D02*
X127259580Y-100338094D01*
X127259580Y-100338094D02*
X127307200Y-100290475D01*
X127307200Y-100290475D02*
X127354819Y-100195237D01*
X127354819Y-100195237D02*
X127354819Y-100004761D01*
X127354819Y-100004761D02*
X127307200Y-99909523D01*
X127307200Y-99909523D02*
X127259580Y-99861904D01*
X127259580Y-99861904D02*
X127164342Y-99814285D01*
X127164342Y-99814285D02*
X126926247Y-99814285D01*
X126926247Y-99814285D02*
X126831009Y-99861904D01*
X126831009Y-99861904D02*
X126783390Y-99909523D01*
X126783390Y-99909523D02*
X126735771Y-100004761D01*
X126735771Y-100004761D02*
X126735771Y-100195237D01*
X126735771Y-100195237D02*
X126783390Y-100290475D01*
X126783390Y-100290475D02*
X126831009Y-100338094D01*
X126831009Y-100338094D02*
X126926247Y-100385713D01*
X128859580Y-139366666D02*
X128907200Y-139414285D01*
X128907200Y-139414285D02*
X128954819Y-139557142D01*
X128954819Y-139557142D02*
X128954819Y-139652380D01*
X128954819Y-139652380D02*
X128907200Y-139795237D01*
X128907200Y-139795237D02*
X128811961Y-139890475D01*
X128811961Y-139890475D02*
X128716723Y-139938094D01*
X128716723Y-139938094D02*
X128526247Y-139985713D01*
X128526247Y-139985713D02*
X128383390Y-139985713D01*
X128383390Y-139985713D02*
X128192914Y-139938094D01*
X128192914Y-139938094D02*
X128097676Y-139890475D01*
X128097676Y-139890475D02*
X128002438Y-139795237D01*
X128002438Y-139795237D02*
X127954819Y-139652380D01*
X127954819Y-139652380D02*
X127954819Y-139557142D01*
X127954819Y-139557142D02*
X128002438Y-139414285D01*
X128002438Y-139414285D02*
X128050057Y-139366666D01*
X127954819Y-138461904D02*
X127954819Y-138938094D01*
X127954819Y-138938094D02*
X128431009Y-138985713D01*
X128431009Y-138985713D02*
X128383390Y-138938094D01*
X128383390Y-138938094D02*
X128335771Y-138842856D01*
X128335771Y-138842856D02*
X128335771Y-138604761D01*
X128335771Y-138604761D02*
X128383390Y-138509523D01*
X128383390Y-138509523D02*
X128431009Y-138461904D01*
X128431009Y-138461904D02*
X128526247Y-138414285D01*
X128526247Y-138414285D02*
X128764342Y-138414285D01*
X128764342Y-138414285D02*
X128859580Y-138461904D01*
X128859580Y-138461904D02*
X128907200Y-138509523D01*
X128907200Y-138509523D02*
X128954819Y-138604761D01*
X128954819Y-138604761D02*
X128954819Y-138842856D01*
X128954819Y-138842856D02*
X128907200Y-138938094D01*
X128907200Y-138938094D02*
X128859580Y-138985713D01*
X77654819Y-27263333D02*
X78369104Y-27263333D01*
X78369104Y-27263333D02*
X78511961Y-27310952D01*
X78511961Y-27310952D02*
X78607200Y-27406190D01*
X78607200Y-27406190D02*
X78654819Y-27549047D01*
X78654819Y-27549047D02*
X78654819Y-27644285D01*
X78654819Y-26263333D02*
X78654819Y-26834761D01*
X78654819Y-26549047D02*
X77654819Y-26549047D01*
X77654819Y-26549047D02*
X77797676Y-26644285D01*
X77797676Y-26644285D02*
X77892914Y-26739523D01*
X77892914Y-26739523D02*
X77940533Y-26834761D01*
D12*
X138790476Y-115357419D02*
X138790476Y-116071704D01*
X138790476Y-116071704D02*
X138742857Y-116214561D01*
X138742857Y-116214561D02*
X138647619Y-116309800D01*
X138647619Y-116309800D02*
X138504762Y-116357419D01*
X138504762Y-116357419D02*
X138409524Y-116357419D01*
X139790476Y-116357419D02*
X139219048Y-116357419D01*
X139504762Y-116357419D02*
X139504762Y-115357419D01*
X139504762Y-115357419D02*
X139409524Y-115500276D01*
X139409524Y-115500276D02*
X139314286Y-115595514D01*
X139314286Y-115595514D02*
X139219048Y-115643133D01*
X140647619Y-115690752D02*
X140647619Y-116357419D01*
X140409524Y-115309800D02*
X140171429Y-116024085D01*
X140171429Y-116024085D02*
X140790476Y-116024085D01*
D11*
X62859580Y-43566666D02*
X62907200Y-43614285D01*
X62907200Y-43614285D02*
X62954819Y-43757142D01*
X62954819Y-43757142D02*
X62954819Y-43852380D01*
X62954819Y-43852380D02*
X62907200Y-43995237D01*
X62907200Y-43995237D02*
X62811961Y-44090475D01*
X62811961Y-44090475D02*
X62716723Y-44138094D01*
X62716723Y-44138094D02*
X62526247Y-44185713D01*
X62526247Y-44185713D02*
X62383390Y-44185713D01*
X62383390Y-44185713D02*
X62192914Y-44138094D01*
X62192914Y-44138094D02*
X62097676Y-44090475D01*
X62097676Y-44090475D02*
X62002438Y-43995237D01*
X62002438Y-43995237D02*
X61954819Y-43852380D01*
X61954819Y-43852380D02*
X61954819Y-43757142D01*
X61954819Y-43757142D02*
X62002438Y-43614285D01*
X62002438Y-43614285D02*
X62050057Y-43566666D01*
X61954819Y-42709523D02*
X61954819Y-42899999D01*
X61954819Y-42899999D02*
X62002438Y-42995237D01*
X62002438Y-42995237D02*
X62050057Y-43042856D01*
X62050057Y-43042856D02*
X62192914Y-43138094D01*
X62192914Y-43138094D02*
X62383390Y-43185713D01*
X62383390Y-43185713D02*
X62764342Y-43185713D01*
X62764342Y-43185713D02*
X62859580Y-43138094D01*
X62859580Y-43138094D02*
X62907200Y-43090475D01*
X62907200Y-43090475D02*
X62954819Y-42995237D01*
X62954819Y-42995237D02*
X62954819Y-42804761D01*
X62954819Y-42804761D02*
X62907200Y-42709523D01*
X62907200Y-42709523D02*
X62859580Y-42661904D01*
X62859580Y-42661904D02*
X62764342Y-42614285D01*
X62764342Y-42614285D02*
X62526247Y-42614285D01*
X62526247Y-42614285D02*
X62431009Y-42661904D01*
X62431009Y-42661904D02*
X62383390Y-42709523D01*
X62383390Y-42709523D02*
X62335771Y-42804761D01*
X62335771Y-42804761D02*
X62335771Y-42995237D01*
X62335771Y-42995237D02*
X62383390Y-43090475D01*
X62383390Y-43090475D02*
X62431009Y-43138094D01*
X62431009Y-43138094D02*
X62526247Y-43185713D01*
X75357142Y-47439819D02*
X75023809Y-46963628D01*
X74785714Y-47439819D02*
X74785714Y-46439819D01*
X74785714Y-46439819D02*
X75166666Y-46439819D01*
X75166666Y-46439819D02*
X75261904Y-46487438D01*
X75261904Y-46487438D02*
X75309523Y-46535057D01*
X75309523Y-46535057D02*
X75357142Y-46630295D01*
X75357142Y-46630295D02*
X75357142Y-46773152D01*
X75357142Y-46773152D02*
X75309523Y-46868390D01*
X75309523Y-46868390D02*
X75261904Y-46916009D01*
X75261904Y-46916009D02*
X75166666Y-46963628D01*
X75166666Y-46963628D02*
X74785714Y-46963628D01*
X76309523Y-47439819D02*
X75738095Y-47439819D01*
X76023809Y-47439819D02*
X76023809Y-46439819D01*
X76023809Y-46439819D02*
X75928571Y-46582676D01*
X75928571Y-46582676D02*
X75833333Y-46677914D01*
X75833333Y-46677914D02*
X75738095Y-46725533D01*
X77261904Y-47439819D02*
X76690476Y-47439819D01*
X76976190Y-47439819D02*
X76976190Y-46439819D01*
X76976190Y-46439819D02*
X76880952Y-46582676D01*
X76880952Y-46582676D02*
X76785714Y-46677914D01*
X76785714Y-46677914D02*
X76690476Y-46725533D01*
X86154819Y-100786666D02*
X85678628Y-101119999D01*
X86154819Y-101358094D02*
X85154819Y-101358094D01*
X85154819Y-101358094D02*
X85154819Y-100977142D01*
X85154819Y-100977142D02*
X85202438Y-100881904D01*
X85202438Y-100881904D02*
X85250057Y-100834285D01*
X85250057Y-100834285D02*
X85345295Y-100786666D01*
X85345295Y-100786666D02*
X85488152Y-100786666D01*
X85488152Y-100786666D02*
X85583390Y-100834285D01*
X85583390Y-100834285D02*
X85631009Y-100881904D01*
X85631009Y-100881904D02*
X85678628Y-100977142D01*
X85678628Y-100977142D02*
X85678628Y-101358094D01*
X85154819Y-100453332D02*
X85154819Y-99834285D01*
X85154819Y-99834285D02*
X85535771Y-100167618D01*
X85535771Y-100167618D02*
X85535771Y-100024761D01*
X85535771Y-100024761D02*
X85583390Y-99929523D01*
X85583390Y-99929523D02*
X85631009Y-99881904D01*
X85631009Y-99881904D02*
X85726247Y-99834285D01*
X85726247Y-99834285D02*
X85964342Y-99834285D01*
X85964342Y-99834285D02*
X86059580Y-99881904D01*
X86059580Y-99881904D02*
X86107200Y-99929523D01*
X86107200Y-99929523D02*
X86154819Y-100024761D01*
X86154819Y-100024761D02*
X86154819Y-100310475D01*
X86154819Y-100310475D02*
X86107200Y-100405713D01*
X86107200Y-100405713D02*
X86059580Y-100453332D01*
X71726667Y-137713200D02*
X71869524Y-137760819D01*
X71869524Y-137760819D02*
X72107619Y-137760819D01*
X72107619Y-137760819D02*
X72202857Y-137713200D01*
X72202857Y-137713200D02*
X72250476Y-137665580D01*
X72250476Y-137665580D02*
X72298095Y-137570342D01*
X72298095Y-137570342D02*
X72298095Y-137475104D01*
X72298095Y-137475104D02*
X72250476Y-137379866D01*
X72250476Y-137379866D02*
X72202857Y-137332247D01*
X72202857Y-137332247D02*
X72107619Y-137284628D01*
X72107619Y-137284628D02*
X71917143Y-137237009D01*
X71917143Y-137237009D02*
X71821905Y-137189390D01*
X71821905Y-137189390D02*
X71774286Y-137141771D01*
X71774286Y-137141771D02*
X71726667Y-137046533D01*
X71726667Y-137046533D02*
X71726667Y-136951295D01*
X71726667Y-136951295D02*
X71774286Y-136856057D01*
X71774286Y-136856057D02*
X71821905Y-136808438D01*
X71821905Y-136808438D02*
X71917143Y-136760819D01*
X71917143Y-136760819D02*
X72155238Y-136760819D01*
X72155238Y-136760819D02*
X72298095Y-136808438D01*
X72631429Y-136760819D02*
X72869524Y-137760819D01*
X72869524Y-137760819D02*
X73060000Y-137046533D01*
X73060000Y-137046533D02*
X73250476Y-137760819D01*
X73250476Y-137760819D02*
X73488572Y-136760819D01*
X74393333Y-137760819D02*
X73821905Y-137760819D01*
X74107619Y-137760819D02*
X74107619Y-136760819D01*
X74107619Y-136760819D02*
X74012381Y-136903676D01*
X74012381Y-136903676D02*
X73917143Y-136998914D01*
X73917143Y-136998914D02*
X73821905Y-137046533D01*
X70961905Y-38319819D02*
X70961905Y-37319819D01*
X70961905Y-37319819D02*
X71200000Y-37319819D01*
X71200000Y-37319819D02*
X71342857Y-37367438D01*
X71342857Y-37367438D02*
X71438095Y-37462676D01*
X71438095Y-37462676D02*
X71485714Y-37557914D01*
X71485714Y-37557914D02*
X71533333Y-37748390D01*
X71533333Y-37748390D02*
X71533333Y-37891247D01*
X71533333Y-37891247D02*
X71485714Y-38081723D01*
X71485714Y-38081723D02*
X71438095Y-38176961D01*
X71438095Y-38176961D02*
X71342857Y-38272200D01*
X71342857Y-38272200D02*
X71200000Y-38319819D01*
X71200000Y-38319819D02*
X70961905Y-38319819D01*
X72390476Y-37319819D02*
X72200000Y-37319819D01*
X72200000Y-37319819D02*
X72104762Y-37367438D01*
X72104762Y-37367438D02*
X72057143Y-37415057D01*
X72057143Y-37415057D02*
X71961905Y-37557914D01*
X71961905Y-37557914D02*
X71914286Y-37748390D01*
X71914286Y-37748390D02*
X71914286Y-38129342D01*
X71914286Y-38129342D02*
X71961905Y-38224580D01*
X71961905Y-38224580D02*
X72009524Y-38272200D01*
X72009524Y-38272200D02*
X72104762Y-38319819D01*
X72104762Y-38319819D02*
X72295238Y-38319819D01*
X72295238Y-38319819D02*
X72390476Y-38272200D01*
X72390476Y-38272200D02*
X72438095Y-38224580D01*
X72438095Y-38224580D02*
X72485714Y-38129342D01*
X72485714Y-38129342D02*
X72485714Y-37891247D01*
X72485714Y-37891247D02*
X72438095Y-37796009D01*
X72438095Y-37796009D02*
X72390476Y-37748390D01*
X72390476Y-37748390D02*
X72295238Y-37700771D01*
X72295238Y-37700771D02*
X72104762Y-37700771D01*
X72104762Y-37700771D02*
X72009524Y-37748390D01*
X72009524Y-37748390D02*
X71961905Y-37796009D01*
X71961905Y-37796009D02*
X71914286Y-37891247D01*
X87757142Y-50539819D02*
X87423809Y-50063628D01*
X87185714Y-50539819D02*
X87185714Y-49539819D01*
X87185714Y-49539819D02*
X87566666Y-49539819D01*
X87566666Y-49539819D02*
X87661904Y-49587438D01*
X87661904Y-49587438D02*
X87709523Y-49635057D01*
X87709523Y-49635057D02*
X87757142Y-49730295D01*
X87757142Y-49730295D02*
X87757142Y-49873152D01*
X87757142Y-49873152D02*
X87709523Y-49968390D01*
X87709523Y-49968390D02*
X87661904Y-50016009D01*
X87661904Y-50016009D02*
X87566666Y-50063628D01*
X87566666Y-50063628D02*
X87185714Y-50063628D01*
X88709523Y-50539819D02*
X88138095Y-50539819D01*
X88423809Y-50539819D02*
X88423809Y-49539819D01*
X88423809Y-49539819D02*
X88328571Y-49682676D01*
X88328571Y-49682676D02*
X88233333Y-49777914D01*
X88233333Y-49777914D02*
X88138095Y-49825533D01*
X89566666Y-49873152D02*
X89566666Y-50539819D01*
X89328571Y-49492200D02*
X89090476Y-50206485D01*
X89090476Y-50206485D02*
X89709523Y-50206485D01*
X84459580Y-139366666D02*
X84507200Y-139414285D01*
X84507200Y-139414285D02*
X84554819Y-139557142D01*
X84554819Y-139557142D02*
X84554819Y-139652380D01*
X84554819Y-139652380D02*
X84507200Y-139795237D01*
X84507200Y-139795237D02*
X84411961Y-139890475D01*
X84411961Y-139890475D02*
X84316723Y-139938094D01*
X84316723Y-139938094D02*
X84126247Y-139985713D01*
X84126247Y-139985713D02*
X83983390Y-139985713D01*
X83983390Y-139985713D02*
X83792914Y-139938094D01*
X83792914Y-139938094D02*
X83697676Y-139890475D01*
X83697676Y-139890475D02*
X83602438Y-139795237D01*
X83602438Y-139795237D02*
X83554819Y-139652380D01*
X83554819Y-139652380D02*
X83554819Y-139557142D01*
X83554819Y-139557142D02*
X83602438Y-139414285D01*
X83602438Y-139414285D02*
X83650057Y-139366666D01*
X83650057Y-138985713D02*
X83602438Y-138938094D01*
X83602438Y-138938094D02*
X83554819Y-138842856D01*
X83554819Y-138842856D02*
X83554819Y-138604761D01*
X83554819Y-138604761D02*
X83602438Y-138509523D01*
X83602438Y-138509523D02*
X83650057Y-138461904D01*
X83650057Y-138461904D02*
X83745295Y-138414285D01*
X83745295Y-138414285D02*
X83840533Y-138414285D01*
X83840533Y-138414285D02*
X83983390Y-138461904D01*
X83983390Y-138461904D02*
X84554819Y-139033332D01*
X84554819Y-139033332D02*
X84554819Y-138414285D01*
X149554819Y-100786666D02*
X149078628Y-101119999D01*
X149554819Y-101358094D02*
X148554819Y-101358094D01*
X148554819Y-101358094D02*
X148554819Y-100977142D01*
X148554819Y-100977142D02*
X148602438Y-100881904D01*
X148602438Y-100881904D02*
X148650057Y-100834285D01*
X148650057Y-100834285D02*
X148745295Y-100786666D01*
X148745295Y-100786666D02*
X148888152Y-100786666D01*
X148888152Y-100786666D02*
X148983390Y-100834285D01*
X148983390Y-100834285D02*
X149031009Y-100881904D01*
X149031009Y-100881904D02*
X149078628Y-100977142D01*
X149078628Y-100977142D02*
X149078628Y-101358094D01*
X148983390Y-100215237D02*
X148935771Y-100310475D01*
X148935771Y-100310475D02*
X148888152Y-100358094D01*
X148888152Y-100358094D02*
X148792914Y-100405713D01*
X148792914Y-100405713D02*
X148745295Y-100405713D01*
X148745295Y-100405713D02*
X148650057Y-100358094D01*
X148650057Y-100358094D02*
X148602438Y-100310475D01*
X148602438Y-100310475D02*
X148554819Y-100215237D01*
X148554819Y-100215237D02*
X148554819Y-100024761D01*
X148554819Y-100024761D02*
X148602438Y-99929523D01*
X148602438Y-99929523D02*
X148650057Y-99881904D01*
X148650057Y-99881904D02*
X148745295Y-99834285D01*
X148745295Y-99834285D02*
X148792914Y-99834285D01*
X148792914Y-99834285D02*
X148888152Y-99881904D01*
X148888152Y-99881904D02*
X148935771Y-99929523D01*
X148935771Y-99929523D02*
X148983390Y-100024761D01*
X148983390Y-100024761D02*
X148983390Y-100215237D01*
X148983390Y-100215237D02*
X149031009Y-100310475D01*
X149031009Y-100310475D02*
X149078628Y-100358094D01*
X149078628Y-100358094D02*
X149173866Y-100405713D01*
X149173866Y-100405713D02*
X149364342Y-100405713D01*
X149364342Y-100405713D02*
X149459580Y-100358094D01*
X149459580Y-100358094D02*
X149507200Y-100310475D01*
X149507200Y-100310475D02*
X149554819Y-100215237D01*
X149554819Y-100215237D02*
X149554819Y-100024761D01*
X149554819Y-100024761D02*
X149507200Y-99929523D01*
X149507200Y-99929523D02*
X149459580Y-99881904D01*
X149459580Y-99881904D02*
X149364342Y-99834285D01*
X149364342Y-99834285D02*
X149173866Y-99834285D01*
X149173866Y-99834285D02*
X149078628Y-99881904D01*
X149078628Y-99881904D02*
X149031009Y-99929523D01*
X149031009Y-99929523D02*
X148983390Y-100024761D01*
X143061905Y-158654819D02*
X143061905Y-157654819D01*
X143061905Y-157654819D02*
X143300000Y-157654819D01*
X143300000Y-157654819D02*
X143442857Y-157702438D01*
X143442857Y-157702438D02*
X143538095Y-157797676D01*
X143538095Y-157797676D02*
X143585714Y-157892914D01*
X143585714Y-157892914D02*
X143633333Y-158083390D01*
X143633333Y-158083390D02*
X143633333Y-158226247D01*
X143633333Y-158226247D02*
X143585714Y-158416723D01*
X143585714Y-158416723D02*
X143538095Y-158511961D01*
X143538095Y-158511961D02*
X143442857Y-158607200D01*
X143442857Y-158607200D02*
X143300000Y-158654819D01*
X143300000Y-158654819D02*
X143061905Y-158654819D01*
X144490476Y-157988152D02*
X144490476Y-158654819D01*
X144252381Y-157607200D02*
X144014286Y-158321485D01*
X144014286Y-158321485D02*
X144633333Y-158321485D01*
X108354819Y-100786666D02*
X107878628Y-101119999D01*
X108354819Y-101358094D02*
X107354819Y-101358094D01*
X107354819Y-101358094D02*
X107354819Y-100977142D01*
X107354819Y-100977142D02*
X107402438Y-100881904D01*
X107402438Y-100881904D02*
X107450057Y-100834285D01*
X107450057Y-100834285D02*
X107545295Y-100786666D01*
X107545295Y-100786666D02*
X107688152Y-100786666D01*
X107688152Y-100786666D02*
X107783390Y-100834285D01*
X107783390Y-100834285D02*
X107831009Y-100881904D01*
X107831009Y-100881904D02*
X107878628Y-100977142D01*
X107878628Y-100977142D02*
X107878628Y-101358094D01*
X107354819Y-99881904D02*
X107354819Y-100358094D01*
X107354819Y-100358094D02*
X107831009Y-100405713D01*
X107831009Y-100405713D02*
X107783390Y-100358094D01*
X107783390Y-100358094D02*
X107735771Y-100262856D01*
X107735771Y-100262856D02*
X107735771Y-100024761D01*
X107735771Y-100024761D02*
X107783390Y-99929523D01*
X107783390Y-99929523D02*
X107831009Y-99881904D01*
X107831009Y-99881904D02*
X107926247Y-99834285D01*
X107926247Y-99834285D02*
X108164342Y-99834285D01*
X108164342Y-99834285D02*
X108259580Y-99881904D01*
X108259580Y-99881904D02*
X108307200Y-99929523D01*
X108307200Y-99929523D02*
X108354819Y-100024761D01*
X108354819Y-100024761D02*
X108354819Y-100262856D01*
X108354819Y-100262856D02*
X108307200Y-100358094D01*
X108307200Y-100358094D02*
X108259580Y-100405713D01*
X115934819Y-27363333D02*
X116649104Y-27363333D01*
X116649104Y-27363333D02*
X116791961Y-27410952D01*
X116791961Y-27410952D02*
X116887200Y-27506190D01*
X116887200Y-27506190D02*
X116934819Y-27649047D01*
X116934819Y-27649047D02*
X116934819Y-27744285D01*
X115934819Y-26982380D02*
X115934819Y-26363333D01*
X115934819Y-26363333D02*
X116315771Y-26696666D01*
X116315771Y-26696666D02*
X116315771Y-26553809D01*
X116315771Y-26553809D02*
X116363390Y-26458571D01*
X116363390Y-26458571D02*
X116411009Y-26410952D01*
X116411009Y-26410952D02*
X116506247Y-26363333D01*
X116506247Y-26363333D02*
X116744342Y-26363333D01*
X116744342Y-26363333D02*
X116839580Y-26410952D01*
X116839580Y-26410952D02*
X116887200Y-26458571D01*
X116887200Y-26458571D02*
X116934819Y-26553809D01*
X116934819Y-26553809D02*
X116934819Y-26839523D01*
X116934819Y-26839523D02*
X116887200Y-26934761D01*
X116887200Y-26934761D02*
X116839580Y-26982380D01*
X115986667Y-137773200D02*
X116129524Y-137820819D01*
X116129524Y-137820819D02*
X116367619Y-137820819D01*
X116367619Y-137820819D02*
X116462857Y-137773200D01*
X116462857Y-137773200D02*
X116510476Y-137725580D01*
X116510476Y-137725580D02*
X116558095Y-137630342D01*
X116558095Y-137630342D02*
X116558095Y-137535104D01*
X116558095Y-137535104D02*
X116510476Y-137439866D01*
X116510476Y-137439866D02*
X116462857Y-137392247D01*
X116462857Y-137392247D02*
X116367619Y-137344628D01*
X116367619Y-137344628D02*
X116177143Y-137297009D01*
X116177143Y-137297009D02*
X116081905Y-137249390D01*
X116081905Y-137249390D02*
X116034286Y-137201771D01*
X116034286Y-137201771D02*
X115986667Y-137106533D01*
X115986667Y-137106533D02*
X115986667Y-137011295D01*
X115986667Y-137011295D02*
X116034286Y-136916057D01*
X116034286Y-136916057D02*
X116081905Y-136868438D01*
X116081905Y-136868438D02*
X116177143Y-136820819D01*
X116177143Y-136820819D02*
X116415238Y-136820819D01*
X116415238Y-136820819D02*
X116558095Y-136868438D01*
X116891429Y-136820819D02*
X117129524Y-137820819D01*
X117129524Y-137820819D02*
X117320000Y-137106533D01*
X117320000Y-137106533D02*
X117510476Y-137820819D01*
X117510476Y-137820819D02*
X117748572Y-136820819D01*
X118034286Y-136820819D02*
X118653333Y-136820819D01*
X118653333Y-136820819D02*
X118320000Y-137201771D01*
X118320000Y-137201771D02*
X118462857Y-137201771D01*
X118462857Y-137201771D02*
X118558095Y-137249390D01*
X118558095Y-137249390D02*
X118605714Y-137297009D01*
X118605714Y-137297009D02*
X118653333Y-137392247D01*
X118653333Y-137392247D02*
X118653333Y-137630342D01*
X118653333Y-137630342D02*
X118605714Y-137725580D01*
X118605714Y-137725580D02*
X118558095Y-137773200D01*
X118558095Y-137773200D02*
X118462857Y-137820819D01*
X118462857Y-137820819D02*
X118177143Y-137820819D01*
X118177143Y-137820819D02*
X118081905Y-137773200D01*
X118081905Y-137773200D02*
X118034286Y-137725580D01*
X149554819Y-70942857D02*
X149078628Y-71276190D01*
X149554819Y-71514285D02*
X148554819Y-71514285D01*
X148554819Y-71514285D02*
X148554819Y-71133333D01*
X148554819Y-71133333D02*
X148602438Y-71038095D01*
X148602438Y-71038095D02*
X148650057Y-70990476D01*
X148650057Y-70990476D02*
X148745295Y-70942857D01*
X148745295Y-70942857D02*
X148888152Y-70942857D01*
X148888152Y-70942857D02*
X148983390Y-70990476D01*
X148983390Y-70990476D02*
X149031009Y-71038095D01*
X149031009Y-71038095D02*
X149078628Y-71133333D01*
X149078628Y-71133333D02*
X149078628Y-71514285D01*
X149554819Y-69990476D02*
X149554819Y-70561904D01*
X149554819Y-70276190D02*
X148554819Y-70276190D01*
X148554819Y-70276190D02*
X148697676Y-70371428D01*
X148697676Y-70371428D02*
X148792914Y-70466666D01*
X148792914Y-70466666D02*
X148840533Y-70561904D01*
X148554819Y-69371428D02*
X148554819Y-69276190D01*
X148554819Y-69276190D02*
X148602438Y-69180952D01*
X148602438Y-69180952D02*
X148650057Y-69133333D01*
X148650057Y-69133333D02*
X148745295Y-69085714D01*
X148745295Y-69085714D02*
X148935771Y-69038095D01*
X148935771Y-69038095D02*
X149173866Y-69038095D01*
X149173866Y-69038095D02*
X149364342Y-69085714D01*
X149364342Y-69085714D02*
X149459580Y-69133333D01*
X149459580Y-69133333D02*
X149507200Y-69180952D01*
X149507200Y-69180952D02*
X149554819Y-69276190D01*
X149554819Y-69276190D02*
X149554819Y-69371428D01*
X149554819Y-69371428D02*
X149507200Y-69466666D01*
X149507200Y-69466666D02*
X149459580Y-69514285D01*
X149459580Y-69514285D02*
X149364342Y-69561904D01*
X149364342Y-69561904D02*
X149173866Y-69609523D01*
X149173866Y-69609523D02*
X148935771Y-69609523D01*
X148935771Y-69609523D02*
X148745295Y-69561904D01*
X148745295Y-69561904D02*
X148650057Y-69514285D01*
X148650057Y-69514285D02*
X148602438Y-69466666D01*
X148602438Y-69466666D02*
X148554819Y-69371428D01*
D12*
X93930476Y-66857419D02*
X93930476Y-67571704D01*
X93930476Y-67571704D02*
X93882857Y-67714561D01*
X93882857Y-67714561D02*
X93787619Y-67809800D01*
X93787619Y-67809800D02*
X93644762Y-67857419D01*
X93644762Y-67857419D02*
X93549524Y-67857419D01*
X94930476Y-67857419D02*
X94359048Y-67857419D01*
X94644762Y-67857419D02*
X94644762Y-66857419D01*
X94644762Y-66857419D02*
X94549524Y-67000276D01*
X94549524Y-67000276D02*
X94454286Y-67095514D01*
X94454286Y-67095514D02*
X94359048Y-67143133D01*
X95549524Y-66857419D02*
X95644762Y-66857419D01*
X95644762Y-66857419D02*
X95740000Y-66905038D01*
X95740000Y-66905038D02*
X95787619Y-66952657D01*
X95787619Y-66952657D02*
X95835238Y-67047895D01*
X95835238Y-67047895D02*
X95882857Y-67238371D01*
X95882857Y-67238371D02*
X95882857Y-67476466D01*
X95882857Y-67476466D02*
X95835238Y-67666942D01*
X95835238Y-67666942D02*
X95787619Y-67762180D01*
X95787619Y-67762180D02*
X95740000Y-67809800D01*
X95740000Y-67809800D02*
X95644762Y-67857419D01*
X95644762Y-67857419D02*
X95549524Y-67857419D01*
X95549524Y-67857419D02*
X95454286Y-67809800D01*
X95454286Y-67809800D02*
X95406667Y-67762180D01*
X95406667Y-67762180D02*
X95359048Y-67666942D01*
X95359048Y-67666942D02*
X95311429Y-67476466D01*
X95311429Y-67476466D02*
X95311429Y-67238371D01*
X95311429Y-67238371D02*
X95359048Y-67047895D01*
X95359048Y-67047895D02*
X95406667Y-66952657D01*
X95406667Y-66952657D02*
X95454286Y-66905038D01*
X95454286Y-66905038D02*
X95549524Y-66857419D01*
D11*
X84459580Y-146666666D02*
X84507200Y-146714285D01*
X84507200Y-146714285D02*
X84554819Y-146857142D01*
X84554819Y-146857142D02*
X84554819Y-146952380D01*
X84554819Y-146952380D02*
X84507200Y-147095237D01*
X84507200Y-147095237D02*
X84411961Y-147190475D01*
X84411961Y-147190475D02*
X84316723Y-147238094D01*
X84316723Y-147238094D02*
X84126247Y-147285713D01*
X84126247Y-147285713D02*
X83983390Y-147285713D01*
X83983390Y-147285713D02*
X83792914Y-147238094D01*
X83792914Y-147238094D02*
X83697676Y-147190475D01*
X83697676Y-147190475D02*
X83602438Y-147095237D01*
X83602438Y-147095237D02*
X83554819Y-146952380D01*
X83554819Y-146952380D02*
X83554819Y-146857142D01*
X83554819Y-146857142D02*
X83602438Y-146714285D01*
X83602438Y-146714285D02*
X83650057Y-146666666D01*
X83554819Y-146333332D02*
X83554819Y-145714285D01*
X83554819Y-145714285D02*
X83935771Y-146047618D01*
X83935771Y-146047618D02*
X83935771Y-145904761D01*
X83935771Y-145904761D02*
X83983390Y-145809523D01*
X83983390Y-145809523D02*
X84031009Y-145761904D01*
X84031009Y-145761904D02*
X84126247Y-145714285D01*
X84126247Y-145714285D02*
X84364342Y-145714285D01*
X84364342Y-145714285D02*
X84459580Y-145761904D01*
X84459580Y-145761904D02*
X84507200Y-145809523D01*
X84507200Y-145809523D02*
X84554819Y-145904761D01*
X84554819Y-145904761D02*
X84554819Y-146190475D01*
X84554819Y-146190475D02*
X84507200Y-146285713D01*
X84507200Y-146285713D02*
X84459580Y-146333332D01*
X143686905Y-61134819D02*
X143686905Y-60134819D01*
X143686905Y-60134819D02*
X143925000Y-60134819D01*
X143925000Y-60134819D02*
X144067857Y-60182438D01*
X144067857Y-60182438D02*
X144163095Y-60277676D01*
X144163095Y-60277676D02*
X144210714Y-60372914D01*
X144210714Y-60372914D02*
X144258333Y-60563390D01*
X144258333Y-60563390D02*
X144258333Y-60706247D01*
X144258333Y-60706247D02*
X144210714Y-60896723D01*
X144210714Y-60896723D02*
X144163095Y-60991961D01*
X144163095Y-60991961D02*
X144067857Y-61087200D01*
X144067857Y-61087200D02*
X143925000Y-61134819D01*
X143925000Y-61134819D02*
X143686905Y-61134819D01*
X145163095Y-60134819D02*
X144686905Y-60134819D01*
X144686905Y-60134819D02*
X144639286Y-60611009D01*
X144639286Y-60611009D02*
X144686905Y-60563390D01*
X144686905Y-60563390D02*
X144782143Y-60515771D01*
X144782143Y-60515771D02*
X145020238Y-60515771D01*
X145020238Y-60515771D02*
X145115476Y-60563390D01*
X145115476Y-60563390D02*
X145163095Y-60611009D01*
X145163095Y-60611009D02*
X145210714Y-60706247D01*
X145210714Y-60706247D02*
X145210714Y-60944342D01*
X145210714Y-60944342D02*
X145163095Y-61039580D01*
X145163095Y-61039580D02*
X145115476Y-61087200D01*
X145115476Y-61087200D02*
X145020238Y-61134819D01*
X145020238Y-61134819D02*
X144782143Y-61134819D01*
X144782143Y-61134819D02*
X144686905Y-61087200D01*
X144686905Y-61087200D02*
X144639286Y-61039580D01*
D12*
X116766666Y-66857419D02*
X116766666Y-67571704D01*
X116766666Y-67571704D02*
X116719047Y-67714561D01*
X116719047Y-67714561D02*
X116623809Y-67809800D01*
X116623809Y-67809800D02*
X116480952Y-67857419D01*
X116480952Y-67857419D02*
X116385714Y-67857419D01*
X117719047Y-66857419D02*
X117242857Y-66857419D01*
X117242857Y-66857419D02*
X117195238Y-67333609D01*
X117195238Y-67333609D02*
X117242857Y-67285990D01*
X117242857Y-67285990D02*
X117338095Y-67238371D01*
X117338095Y-67238371D02*
X117576190Y-67238371D01*
X117576190Y-67238371D02*
X117671428Y-67285990D01*
X117671428Y-67285990D02*
X117719047Y-67333609D01*
X117719047Y-67333609D02*
X117766666Y-67428847D01*
X117766666Y-67428847D02*
X117766666Y-67666942D01*
X117766666Y-67666942D02*
X117719047Y-67762180D01*
X117719047Y-67762180D02*
X117671428Y-67809800D01*
X117671428Y-67809800D02*
X117576190Y-67857419D01*
X117576190Y-67857419D02*
X117338095Y-67857419D01*
X117338095Y-67857419D02*
X117242857Y-67809800D01*
X117242857Y-67809800D02*
X117195238Y-67762180D01*
X93144761Y-84269919D02*
X92811428Y-83793728D01*
X92573333Y-84269919D02*
X92573333Y-83269919D01*
X92573333Y-83269919D02*
X92954285Y-83269919D01*
X92954285Y-83269919D02*
X93049523Y-83317538D01*
X93049523Y-83317538D02*
X93097142Y-83365157D01*
X93097142Y-83365157D02*
X93144761Y-83460395D01*
X93144761Y-83460395D02*
X93144761Y-83603252D01*
X93144761Y-83603252D02*
X93097142Y-83698490D01*
X93097142Y-83698490D02*
X93049523Y-83746109D01*
X93049523Y-83746109D02*
X92954285Y-83793728D01*
X92954285Y-83793728D02*
X92573333Y-83793728D01*
X93430476Y-83269919D02*
X93763809Y-84269919D01*
X93763809Y-84269919D02*
X94097142Y-83269919D01*
X94382857Y-83365157D02*
X94430476Y-83317538D01*
X94430476Y-83317538D02*
X94525714Y-83269919D01*
X94525714Y-83269919D02*
X94763809Y-83269919D01*
X94763809Y-83269919D02*
X94859047Y-83317538D01*
X94859047Y-83317538D02*
X94906666Y-83365157D01*
X94906666Y-83365157D02*
X94954285Y-83460395D01*
X94954285Y-83460395D02*
X94954285Y-83555633D01*
X94954285Y-83555633D02*
X94906666Y-83698490D01*
X94906666Y-83698490D02*
X94335238Y-84269919D01*
X94335238Y-84269919D02*
X94954285Y-84269919D01*
D11*
X120896905Y-158654819D02*
X120896905Y-157654819D01*
X120896905Y-157654819D02*
X121135000Y-157654819D01*
X121135000Y-157654819D02*
X121277857Y-157702438D01*
X121277857Y-157702438D02*
X121373095Y-157797676D01*
X121373095Y-157797676D02*
X121420714Y-157892914D01*
X121420714Y-157892914D02*
X121468333Y-158083390D01*
X121468333Y-158083390D02*
X121468333Y-158226247D01*
X121468333Y-158226247D02*
X121420714Y-158416723D01*
X121420714Y-158416723D02*
X121373095Y-158511961D01*
X121373095Y-158511961D02*
X121277857Y-158607200D01*
X121277857Y-158607200D02*
X121135000Y-158654819D01*
X121135000Y-158654819D02*
X120896905Y-158654819D01*
X121801667Y-157654819D02*
X122420714Y-157654819D01*
X122420714Y-157654819D02*
X122087381Y-158035771D01*
X122087381Y-158035771D02*
X122230238Y-158035771D01*
X122230238Y-158035771D02*
X122325476Y-158083390D01*
X122325476Y-158083390D02*
X122373095Y-158131009D01*
X122373095Y-158131009D02*
X122420714Y-158226247D01*
X122420714Y-158226247D02*
X122420714Y-158464342D01*
X122420714Y-158464342D02*
X122373095Y-158559580D01*
X122373095Y-158559580D02*
X122325476Y-158607200D01*
X122325476Y-158607200D02*
X122230238Y-158654819D01*
X122230238Y-158654819D02*
X121944524Y-158654819D01*
X121944524Y-158654819D02*
X121849286Y-158607200D01*
X121849286Y-158607200D02*
X121801667Y-158559580D01*
X95885714Y-38439819D02*
X95885714Y-37439819D01*
X95885714Y-37439819D02*
X96123809Y-37439819D01*
X96123809Y-37439819D02*
X96266666Y-37487438D01*
X96266666Y-37487438D02*
X96361904Y-37582676D01*
X96361904Y-37582676D02*
X96409523Y-37677914D01*
X96409523Y-37677914D02*
X96457142Y-37868390D01*
X96457142Y-37868390D02*
X96457142Y-38011247D01*
X96457142Y-38011247D02*
X96409523Y-38201723D01*
X96409523Y-38201723D02*
X96361904Y-38296961D01*
X96361904Y-38296961D02*
X96266666Y-38392200D01*
X96266666Y-38392200D02*
X96123809Y-38439819D01*
X96123809Y-38439819D02*
X95885714Y-38439819D01*
X97409523Y-38439819D02*
X96838095Y-38439819D01*
X97123809Y-38439819D02*
X97123809Y-37439819D01*
X97123809Y-37439819D02*
X97028571Y-37582676D01*
X97028571Y-37582676D02*
X96933333Y-37677914D01*
X96933333Y-37677914D02*
X96838095Y-37725533D01*
X98028571Y-37439819D02*
X98123809Y-37439819D01*
X98123809Y-37439819D02*
X98219047Y-37487438D01*
X98219047Y-37487438D02*
X98266666Y-37535057D01*
X98266666Y-37535057D02*
X98314285Y-37630295D01*
X98314285Y-37630295D02*
X98361904Y-37820771D01*
X98361904Y-37820771D02*
X98361904Y-38058866D01*
X98361904Y-38058866D02*
X98314285Y-38249342D01*
X98314285Y-38249342D02*
X98266666Y-38344580D01*
X98266666Y-38344580D02*
X98219047Y-38392200D01*
X98219047Y-38392200D02*
X98123809Y-38439819D01*
X98123809Y-38439819D02*
X98028571Y-38439819D01*
X98028571Y-38439819D02*
X97933333Y-38392200D01*
X97933333Y-38392200D02*
X97885714Y-38344580D01*
X97885714Y-38344580D02*
X97838095Y-38249342D01*
X97838095Y-38249342D02*
X97790476Y-38058866D01*
X97790476Y-38058866D02*
X97790476Y-37820771D01*
X97790476Y-37820771D02*
X97838095Y-37630295D01*
X97838095Y-37630295D02*
X97885714Y-37535057D01*
X97885714Y-37535057D02*
X97933333Y-37487438D01*
X97933333Y-37487438D02*
X98028571Y-37439819D01*
X71226667Y-68433200D02*
X71369524Y-68480819D01*
X71369524Y-68480819D02*
X71607619Y-68480819D01*
X71607619Y-68480819D02*
X71702857Y-68433200D01*
X71702857Y-68433200D02*
X71750476Y-68385580D01*
X71750476Y-68385580D02*
X71798095Y-68290342D01*
X71798095Y-68290342D02*
X71798095Y-68195104D01*
X71798095Y-68195104D02*
X71750476Y-68099866D01*
X71750476Y-68099866D02*
X71702857Y-68052247D01*
X71702857Y-68052247D02*
X71607619Y-68004628D01*
X71607619Y-68004628D02*
X71417143Y-67957009D01*
X71417143Y-67957009D02*
X71321905Y-67909390D01*
X71321905Y-67909390D02*
X71274286Y-67861771D01*
X71274286Y-67861771D02*
X71226667Y-67766533D01*
X71226667Y-67766533D02*
X71226667Y-67671295D01*
X71226667Y-67671295D02*
X71274286Y-67576057D01*
X71274286Y-67576057D02*
X71321905Y-67528438D01*
X71321905Y-67528438D02*
X71417143Y-67480819D01*
X71417143Y-67480819D02*
X71655238Y-67480819D01*
X71655238Y-67480819D02*
X71798095Y-67528438D01*
X72131429Y-67480819D02*
X72369524Y-68480819D01*
X72369524Y-68480819D02*
X72560000Y-67766533D01*
X72560000Y-67766533D02*
X72750476Y-68480819D01*
X72750476Y-68480819D02*
X72988572Y-67480819D01*
X73845714Y-67480819D02*
X73369524Y-67480819D01*
X73369524Y-67480819D02*
X73321905Y-67957009D01*
X73321905Y-67957009D02*
X73369524Y-67909390D01*
X73369524Y-67909390D02*
X73464762Y-67861771D01*
X73464762Y-67861771D02*
X73702857Y-67861771D01*
X73702857Y-67861771D02*
X73798095Y-67909390D01*
X73798095Y-67909390D02*
X73845714Y-67957009D01*
X73845714Y-67957009D02*
X73893333Y-68052247D01*
X73893333Y-68052247D02*
X73893333Y-68290342D01*
X73893333Y-68290342D02*
X73845714Y-68385580D01*
X73845714Y-68385580D02*
X73798095Y-68433200D01*
X73798095Y-68433200D02*
X73702857Y-68480819D01*
X73702857Y-68480819D02*
X73464762Y-68480819D01*
X73464762Y-68480819D02*
X73369524Y-68433200D01*
X73369524Y-68433200D02*
X73321905Y-68385580D01*
X87757142Y-47439819D02*
X87423809Y-46963628D01*
X87185714Y-47439819D02*
X87185714Y-46439819D01*
X87185714Y-46439819D02*
X87566666Y-46439819D01*
X87566666Y-46439819D02*
X87661904Y-46487438D01*
X87661904Y-46487438D02*
X87709523Y-46535057D01*
X87709523Y-46535057D02*
X87757142Y-46630295D01*
X87757142Y-46630295D02*
X87757142Y-46773152D01*
X87757142Y-46773152D02*
X87709523Y-46868390D01*
X87709523Y-46868390D02*
X87661904Y-46916009D01*
X87661904Y-46916009D02*
X87566666Y-46963628D01*
X87566666Y-46963628D02*
X87185714Y-46963628D01*
X88709523Y-47439819D02*
X88138095Y-47439819D01*
X88423809Y-47439819D02*
X88423809Y-46439819D01*
X88423809Y-46439819D02*
X88328571Y-46582676D01*
X88328571Y-46582676D02*
X88233333Y-46677914D01*
X88233333Y-46677914D02*
X88138095Y-46725533D01*
X89042857Y-46439819D02*
X89661904Y-46439819D01*
X89661904Y-46439819D02*
X89328571Y-46820771D01*
X89328571Y-46820771D02*
X89471428Y-46820771D01*
X89471428Y-46820771D02*
X89566666Y-46868390D01*
X89566666Y-46868390D02*
X89614285Y-46916009D01*
X89614285Y-46916009D02*
X89661904Y-47011247D01*
X89661904Y-47011247D02*
X89661904Y-47249342D01*
X89661904Y-47249342D02*
X89614285Y-47344580D01*
X89614285Y-47344580D02*
X89566666Y-47392200D01*
X89566666Y-47392200D02*
X89471428Y-47439819D01*
X89471428Y-47439819D02*
X89185714Y-47439819D01*
X89185714Y-47439819D02*
X89090476Y-47392200D01*
X89090476Y-47392200D02*
X89042857Y-47344580D01*
X105154819Y-100786666D02*
X104678628Y-101119999D01*
X105154819Y-101358094D02*
X104154819Y-101358094D01*
X104154819Y-101358094D02*
X104154819Y-100977142D01*
X104154819Y-100977142D02*
X104202438Y-100881904D01*
X104202438Y-100881904D02*
X104250057Y-100834285D01*
X104250057Y-100834285D02*
X104345295Y-100786666D01*
X104345295Y-100786666D02*
X104488152Y-100786666D01*
X104488152Y-100786666D02*
X104583390Y-100834285D01*
X104583390Y-100834285D02*
X104631009Y-100881904D01*
X104631009Y-100881904D02*
X104678628Y-100977142D01*
X104678628Y-100977142D02*
X104678628Y-101358094D01*
X104488152Y-99929523D02*
X105154819Y-99929523D01*
X104107200Y-100167618D02*
X104821485Y-100405713D01*
X104821485Y-100405713D02*
X104821485Y-99786666D01*
D12*
X122466666Y-105257419D02*
X122466666Y-105971704D01*
X122466666Y-105971704D02*
X122419047Y-106114561D01*
X122419047Y-106114561D02*
X122323809Y-106209800D01*
X122323809Y-106209800D02*
X122180952Y-106257419D01*
X122180952Y-106257419D02*
X122085714Y-106257419D01*
X123085714Y-105685990D02*
X122990476Y-105638371D01*
X122990476Y-105638371D02*
X122942857Y-105590752D01*
X122942857Y-105590752D02*
X122895238Y-105495514D01*
X122895238Y-105495514D02*
X122895238Y-105447895D01*
X122895238Y-105447895D02*
X122942857Y-105352657D01*
X122942857Y-105352657D02*
X122990476Y-105305038D01*
X122990476Y-105305038D02*
X123085714Y-105257419D01*
X123085714Y-105257419D02*
X123276190Y-105257419D01*
X123276190Y-105257419D02*
X123371428Y-105305038D01*
X123371428Y-105305038D02*
X123419047Y-105352657D01*
X123419047Y-105352657D02*
X123466666Y-105447895D01*
X123466666Y-105447895D02*
X123466666Y-105495514D01*
X123466666Y-105495514D02*
X123419047Y-105590752D01*
X123419047Y-105590752D02*
X123371428Y-105638371D01*
X123371428Y-105638371D02*
X123276190Y-105685990D01*
X123276190Y-105685990D02*
X123085714Y-105685990D01*
X123085714Y-105685990D02*
X122990476Y-105733609D01*
X122990476Y-105733609D02*
X122942857Y-105781228D01*
X122942857Y-105781228D02*
X122895238Y-105876466D01*
X122895238Y-105876466D02*
X122895238Y-106066942D01*
X122895238Y-106066942D02*
X122942857Y-106162180D01*
X122942857Y-106162180D02*
X122990476Y-106209800D01*
X122990476Y-106209800D02*
X123085714Y-106257419D01*
X123085714Y-106257419D02*
X123276190Y-106257419D01*
X123276190Y-106257419D02*
X123371428Y-106209800D01*
X123371428Y-106209800D02*
X123419047Y-106162180D01*
X123419047Y-106162180D02*
X123466666Y-106066942D01*
X123466666Y-106066942D02*
X123466666Y-105876466D01*
X123466666Y-105876466D02*
X123419047Y-105781228D01*
X123419047Y-105781228D02*
X123371428Y-105733609D01*
X123371428Y-105733609D02*
X123276190Y-105685990D01*
X93604761Y-132457419D02*
X93271428Y-131981228D01*
X93033333Y-132457419D02*
X93033333Y-131457419D01*
X93033333Y-131457419D02*
X93414285Y-131457419D01*
X93414285Y-131457419D02*
X93509523Y-131505038D01*
X93509523Y-131505038D02*
X93557142Y-131552657D01*
X93557142Y-131552657D02*
X93604761Y-131647895D01*
X93604761Y-131647895D02*
X93604761Y-131790752D01*
X93604761Y-131790752D02*
X93557142Y-131885990D01*
X93557142Y-131885990D02*
X93509523Y-131933609D01*
X93509523Y-131933609D02*
X93414285Y-131981228D01*
X93414285Y-131981228D02*
X93033333Y-131981228D01*
X93890476Y-131457419D02*
X94223809Y-132457419D01*
X94223809Y-132457419D02*
X94557142Y-131457419D01*
X95319047Y-131790752D02*
X95319047Y-132457419D01*
X95080952Y-131409800D02*
X94842857Y-132124085D01*
X94842857Y-132124085D02*
X95461904Y-132124085D01*
X78466666Y-104857419D02*
X78466666Y-105571704D01*
X78466666Y-105571704D02*
X78419047Y-105714561D01*
X78419047Y-105714561D02*
X78323809Y-105809800D01*
X78323809Y-105809800D02*
X78180952Y-105857419D01*
X78180952Y-105857419D02*
X78085714Y-105857419D01*
X79371428Y-104857419D02*
X79180952Y-104857419D01*
X79180952Y-104857419D02*
X79085714Y-104905038D01*
X79085714Y-104905038D02*
X79038095Y-104952657D01*
X79038095Y-104952657D02*
X78942857Y-105095514D01*
X78942857Y-105095514D02*
X78895238Y-105285990D01*
X78895238Y-105285990D02*
X78895238Y-105666942D01*
X78895238Y-105666942D02*
X78942857Y-105762180D01*
X78942857Y-105762180D02*
X78990476Y-105809800D01*
X78990476Y-105809800D02*
X79085714Y-105857419D01*
X79085714Y-105857419D02*
X79276190Y-105857419D01*
X79276190Y-105857419D02*
X79371428Y-105809800D01*
X79371428Y-105809800D02*
X79419047Y-105762180D01*
X79419047Y-105762180D02*
X79466666Y-105666942D01*
X79466666Y-105666942D02*
X79466666Y-105428847D01*
X79466666Y-105428847D02*
X79419047Y-105333609D01*
X79419047Y-105333609D02*
X79371428Y-105285990D01*
X79371428Y-105285990D02*
X79276190Y-105238371D01*
X79276190Y-105238371D02*
X79085714Y-105238371D01*
X79085714Y-105238371D02*
X78990476Y-105285990D01*
X78990476Y-105285990D02*
X78942857Y-105333609D01*
X78942857Y-105333609D02*
X78895238Y-105428847D01*
D11*
X99071905Y-158654819D02*
X99071905Y-157654819D01*
X99071905Y-157654819D02*
X99310000Y-157654819D01*
X99310000Y-157654819D02*
X99452857Y-157702438D01*
X99452857Y-157702438D02*
X99548095Y-157797676D01*
X99548095Y-157797676D02*
X99595714Y-157892914D01*
X99595714Y-157892914D02*
X99643333Y-158083390D01*
X99643333Y-158083390D02*
X99643333Y-158226247D01*
X99643333Y-158226247D02*
X99595714Y-158416723D01*
X99595714Y-158416723D02*
X99548095Y-158511961D01*
X99548095Y-158511961D02*
X99452857Y-158607200D01*
X99452857Y-158607200D02*
X99310000Y-158654819D01*
X99310000Y-158654819D02*
X99071905Y-158654819D01*
X100024286Y-157750057D02*
X100071905Y-157702438D01*
X100071905Y-157702438D02*
X100167143Y-157654819D01*
X100167143Y-157654819D02*
X100405238Y-157654819D01*
X100405238Y-157654819D02*
X100500476Y-157702438D01*
X100500476Y-157702438D02*
X100548095Y-157750057D01*
X100548095Y-157750057D02*
X100595714Y-157845295D01*
X100595714Y-157845295D02*
X100595714Y-157940533D01*
X100595714Y-157940533D02*
X100548095Y-158083390D01*
X100548095Y-158083390D02*
X99976667Y-158654819D01*
X99976667Y-158654819D02*
X100595714Y-158654819D01*
X75357142Y-50539819D02*
X75023809Y-50063628D01*
X74785714Y-50539819D02*
X74785714Y-49539819D01*
X74785714Y-49539819D02*
X75166666Y-49539819D01*
X75166666Y-49539819D02*
X75261904Y-49587438D01*
X75261904Y-49587438D02*
X75309523Y-49635057D01*
X75309523Y-49635057D02*
X75357142Y-49730295D01*
X75357142Y-49730295D02*
X75357142Y-49873152D01*
X75357142Y-49873152D02*
X75309523Y-49968390D01*
X75309523Y-49968390D02*
X75261904Y-50016009D01*
X75261904Y-50016009D02*
X75166666Y-50063628D01*
X75166666Y-50063628D02*
X74785714Y-50063628D01*
X76309523Y-50539819D02*
X75738095Y-50539819D01*
X76023809Y-50539819D02*
X76023809Y-49539819D01*
X76023809Y-49539819D02*
X75928571Y-49682676D01*
X75928571Y-49682676D02*
X75833333Y-49777914D01*
X75833333Y-49777914D02*
X75738095Y-49825533D01*
X76690476Y-49635057D02*
X76738095Y-49587438D01*
X76738095Y-49587438D02*
X76833333Y-49539819D01*
X76833333Y-49539819D02*
X77071428Y-49539819D01*
X77071428Y-49539819D02*
X77166666Y-49587438D01*
X77166666Y-49587438D02*
X77214285Y-49635057D01*
X77214285Y-49635057D02*
X77261904Y-49730295D01*
X77261904Y-49730295D02*
X77261904Y-49825533D01*
X77261904Y-49825533D02*
X77214285Y-49968390D01*
X77214285Y-49968390D02*
X76642857Y-50539819D01*
X76642857Y-50539819D02*
X77261904Y-50539819D01*
X82954819Y-100786666D02*
X82478628Y-101119999D01*
X82954819Y-101358094D02*
X81954819Y-101358094D01*
X81954819Y-101358094D02*
X81954819Y-100977142D01*
X81954819Y-100977142D02*
X82002438Y-100881904D01*
X82002438Y-100881904D02*
X82050057Y-100834285D01*
X82050057Y-100834285D02*
X82145295Y-100786666D01*
X82145295Y-100786666D02*
X82288152Y-100786666D01*
X82288152Y-100786666D02*
X82383390Y-100834285D01*
X82383390Y-100834285D02*
X82431009Y-100881904D01*
X82431009Y-100881904D02*
X82478628Y-100977142D01*
X82478628Y-100977142D02*
X82478628Y-101358094D01*
X82050057Y-100405713D02*
X82002438Y-100358094D01*
X82002438Y-100358094D02*
X81954819Y-100262856D01*
X81954819Y-100262856D02*
X81954819Y-100024761D01*
X81954819Y-100024761D02*
X82002438Y-99929523D01*
X82002438Y-99929523D02*
X82050057Y-99881904D01*
X82050057Y-99881904D02*
X82145295Y-99834285D01*
X82145295Y-99834285D02*
X82240533Y-99834285D01*
X82240533Y-99834285D02*
X82383390Y-99881904D01*
X82383390Y-99881904D02*
X82954819Y-100453332D01*
X82954819Y-100453332D02*
X82954819Y-99834285D01*
X100554819Y-45747857D02*
X100078628Y-46081190D01*
X100554819Y-46319285D02*
X99554819Y-46319285D01*
X99554819Y-46319285D02*
X99554819Y-45938333D01*
X99554819Y-45938333D02*
X99602438Y-45843095D01*
X99602438Y-45843095D02*
X99650057Y-45795476D01*
X99650057Y-45795476D02*
X99745295Y-45747857D01*
X99745295Y-45747857D02*
X99888152Y-45747857D01*
X99888152Y-45747857D02*
X99983390Y-45795476D01*
X99983390Y-45795476D02*
X100031009Y-45843095D01*
X100031009Y-45843095D02*
X100078628Y-45938333D01*
X100078628Y-45938333D02*
X100078628Y-46319285D01*
X100554819Y-44795476D02*
X100554819Y-45366904D01*
X100554819Y-45081190D02*
X99554819Y-45081190D01*
X99554819Y-45081190D02*
X99697676Y-45176428D01*
X99697676Y-45176428D02*
X99792914Y-45271666D01*
X99792914Y-45271666D02*
X99840533Y-45366904D01*
X99554819Y-43890714D02*
X99554819Y-44366904D01*
X99554819Y-44366904D02*
X100031009Y-44414523D01*
X100031009Y-44414523D02*
X99983390Y-44366904D01*
X99983390Y-44366904D02*
X99935771Y-44271666D01*
X99935771Y-44271666D02*
X99935771Y-44033571D01*
X99935771Y-44033571D02*
X99983390Y-43938333D01*
X99983390Y-43938333D02*
X100031009Y-43890714D01*
X100031009Y-43890714D02*
X100126247Y-43843095D01*
X100126247Y-43843095D02*
X100364342Y-43843095D01*
X100364342Y-43843095D02*
X100459580Y-43890714D01*
X100459580Y-43890714D02*
X100507200Y-43938333D01*
X100507200Y-43938333D02*
X100554819Y-44033571D01*
X100554819Y-44033571D02*
X100554819Y-44271666D01*
X100554819Y-44271666D02*
X100507200Y-44366904D01*
X100507200Y-44366904D02*
X100459580Y-44414523D01*
X138276667Y-137813200D02*
X138419524Y-137860819D01*
X138419524Y-137860819D02*
X138657619Y-137860819D01*
X138657619Y-137860819D02*
X138752857Y-137813200D01*
X138752857Y-137813200D02*
X138800476Y-137765580D01*
X138800476Y-137765580D02*
X138848095Y-137670342D01*
X138848095Y-137670342D02*
X138848095Y-137575104D01*
X138848095Y-137575104D02*
X138800476Y-137479866D01*
X138800476Y-137479866D02*
X138752857Y-137432247D01*
X138752857Y-137432247D02*
X138657619Y-137384628D01*
X138657619Y-137384628D02*
X138467143Y-137337009D01*
X138467143Y-137337009D02*
X138371905Y-137289390D01*
X138371905Y-137289390D02*
X138324286Y-137241771D01*
X138324286Y-137241771D02*
X138276667Y-137146533D01*
X138276667Y-137146533D02*
X138276667Y-137051295D01*
X138276667Y-137051295D02*
X138324286Y-136956057D01*
X138324286Y-136956057D02*
X138371905Y-136908438D01*
X138371905Y-136908438D02*
X138467143Y-136860819D01*
X138467143Y-136860819D02*
X138705238Y-136860819D01*
X138705238Y-136860819D02*
X138848095Y-136908438D01*
X139181429Y-136860819D02*
X139419524Y-137860819D01*
X139419524Y-137860819D02*
X139610000Y-137146533D01*
X139610000Y-137146533D02*
X139800476Y-137860819D01*
X139800476Y-137860819D02*
X140038572Y-136860819D01*
X140848095Y-137194152D02*
X140848095Y-137860819D01*
X140610000Y-136813200D02*
X140371905Y-137527485D01*
X140371905Y-137527485D02*
X140990952Y-137527485D01*
D12*
X115804761Y-132457419D02*
X115471428Y-131981228D01*
X115233333Y-132457419D02*
X115233333Y-131457419D01*
X115233333Y-131457419D02*
X115614285Y-131457419D01*
X115614285Y-131457419D02*
X115709523Y-131505038D01*
X115709523Y-131505038D02*
X115757142Y-131552657D01*
X115757142Y-131552657D02*
X115804761Y-131647895D01*
X115804761Y-131647895D02*
X115804761Y-131790752D01*
X115804761Y-131790752D02*
X115757142Y-131885990D01*
X115757142Y-131885990D02*
X115709523Y-131933609D01*
X115709523Y-131933609D02*
X115614285Y-131981228D01*
X115614285Y-131981228D02*
X115233333Y-131981228D01*
X116090476Y-131457419D02*
X116423809Y-132457419D01*
X116423809Y-132457419D02*
X116757142Y-131457419D01*
X117566666Y-131457419D02*
X117090476Y-131457419D01*
X117090476Y-131457419D02*
X117042857Y-131933609D01*
X117042857Y-131933609D02*
X117090476Y-131885990D01*
X117090476Y-131885990D02*
X117185714Y-131838371D01*
X117185714Y-131838371D02*
X117423809Y-131838371D01*
X117423809Y-131838371D02*
X117519047Y-131885990D01*
X117519047Y-131885990D02*
X117566666Y-131933609D01*
X117566666Y-131933609D02*
X117614285Y-132028847D01*
X117614285Y-132028847D02*
X117614285Y-132266942D01*
X117614285Y-132266942D02*
X117566666Y-132362180D01*
X117566666Y-132362180D02*
X117519047Y-132409800D01*
X117519047Y-132409800D02*
X117423809Y-132457419D01*
X117423809Y-132457419D02*
X117185714Y-132457419D01*
X117185714Y-132457419D02*
X117090476Y-132409800D01*
X117090476Y-132409800D02*
X117042857Y-132362180D01*
D11*
X110753333Y-36119580D02*
X110705714Y-36167200D01*
X110705714Y-36167200D02*
X110562857Y-36214819D01*
X110562857Y-36214819D02*
X110467619Y-36214819D01*
X110467619Y-36214819D02*
X110324762Y-36167200D01*
X110324762Y-36167200D02*
X110229524Y-36071961D01*
X110229524Y-36071961D02*
X110181905Y-35976723D01*
X110181905Y-35976723D02*
X110134286Y-35786247D01*
X110134286Y-35786247D02*
X110134286Y-35643390D01*
X110134286Y-35643390D02*
X110181905Y-35452914D01*
X110181905Y-35452914D02*
X110229524Y-35357676D01*
X110229524Y-35357676D02*
X110324762Y-35262438D01*
X110324762Y-35262438D02*
X110467619Y-35214819D01*
X110467619Y-35214819D02*
X110562857Y-35214819D01*
X110562857Y-35214819D02*
X110705714Y-35262438D01*
X110705714Y-35262438D02*
X110753333Y-35310057D01*
X111086667Y-35214819D02*
X111753333Y-35214819D01*
X111753333Y-35214819D02*
X111324762Y-36214819D01*
X76596905Y-158654819D02*
X76596905Y-157654819D01*
X76596905Y-157654819D02*
X76835000Y-157654819D01*
X76835000Y-157654819D02*
X76977857Y-157702438D01*
X76977857Y-157702438D02*
X77073095Y-157797676D01*
X77073095Y-157797676D02*
X77120714Y-157892914D01*
X77120714Y-157892914D02*
X77168333Y-158083390D01*
X77168333Y-158083390D02*
X77168333Y-158226247D01*
X77168333Y-158226247D02*
X77120714Y-158416723D01*
X77120714Y-158416723D02*
X77073095Y-158511961D01*
X77073095Y-158511961D02*
X76977857Y-158607200D01*
X76977857Y-158607200D02*
X76835000Y-158654819D01*
X76835000Y-158654819D02*
X76596905Y-158654819D01*
X78120714Y-158654819D02*
X77549286Y-158654819D01*
X77835000Y-158654819D02*
X77835000Y-157654819D01*
X77835000Y-157654819D02*
X77739762Y-157797676D01*
X77739762Y-157797676D02*
X77644524Y-157892914D01*
X77644524Y-157892914D02*
X77549286Y-157940533D01*
X63954819Y-100766666D02*
X63478628Y-101099999D01*
X63954819Y-101338094D02*
X62954819Y-101338094D01*
X62954819Y-101338094D02*
X62954819Y-100957142D01*
X62954819Y-100957142D02*
X63002438Y-100861904D01*
X63002438Y-100861904D02*
X63050057Y-100814285D01*
X63050057Y-100814285D02*
X63145295Y-100766666D01*
X63145295Y-100766666D02*
X63288152Y-100766666D01*
X63288152Y-100766666D02*
X63383390Y-100814285D01*
X63383390Y-100814285D02*
X63431009Y-100861904D01*
X63431009Y-100861904D02*
X63478628Y-100957142D01*
X63478628Y-100957142D02*
X63478628Y-101338094D01*
X63954819Y-99814285D02*
X63954819Y-100385713D01*
X63954819Y-100099999D02*
X62954819Y-100099999D01*
X62954819Y-100099999D02*
X63097676Y-100195237D01*
X63097676Y-100195237D02*
X63192914Y-100290475D01*
X63192914Y-100290475D02*
X63240533Y-100385713D01*
X131854819Y-70366666D02*
X131378628Y-70699999D01*
X131854819Y-70938094D02*
X130854819Y-70938094D01*
X130854819Y-70938094D02*
X130854819Y-70557142D01*
X130854819Y-70557142D02*
X130902438Y-70461904D01*
X130902438Y-70461904D02*
X130950057Y-70414285D01*
X130950057Y-70414285D02*
X131045295Y-70366666D01*
X131045295Y-70366666D02*
X131188152Y-70366666D01*
X131188152Y-70366666D02*
X131283390Y-70414285D01*
X131283390Y-70414285D02*
X131331009Y-70461904D01*
X131331009Y-70461904D02*
X131378628Y-70557142D01*
X131378628Y-70557142D02*
X131378628Y-70938094D01*
X131854819Y-69890475D02*
X131854819Y-69699999D01*
X131854819Y-69699999D02*
X131807200Y-69604761D01*
X131807200Y-69604761D02*
X131759580Y-69557142D01*
X131759580Y-69557142D02*
X131616723Y-69461904D01*
X131616723Y-69461904D02*
X131426247Y-69414285D01*
X131426247Y-69414285D02*
X131045295Y-69414285D01*
X131045295Y-69414285D02*
X130950057Y-69461904D01*
X130950057Y-69461904D02*
X130902438Y-69509523D01*
X130902438Y-69509523D02*
X130854819Y-69604761D01*
X130854819Y-69604761D02*
X130854819Y-69795237D01*
X130854819Y-69795237D02*
X130902438Y-69890475D01*
X130902438Y-69890475D02*
X130950057Y-69938094D01*
X130950057Y-69938094D02*
X131045295Y-69985713D01*
X131045295Y-69985713D02*
X131283390Y-69985713D01*
X131283390Y-69985713D02*
X131378628Y-69938094D01*
X131378628Y-69938094D02*
X131426247Y-69890475D01*
X131426247Y-69890475D02*
X131473866Y-69795237D01*
X131473866Y-69795237D02*
X131473866Y-69604761D01*
X131473866Y-69604761D02*
X131426247Y-69509523D01*
X131426247Y-69509523D02*
X131378628Y-69461904D01*
X131378628Y-69461904D02*
X131283390Y-69414285D01*
X129253333Y-36159580D02*
X129205714Y-36207200D01*
X129205714Y-36207200D02*
X129062857Y-36254819D01*
X129062857Y-36254819D02*
X128967619Y-36254819D01*
X128967619Y-36254819D02*
X128824762Y-36207200D01*
X128824762Y-36207200D02*
X128729524Y-36111961D01*
X128729524Y-36111961D02*
X128681905Y-36016723D01*
X128681905Y-36016723D02*
X128634286Y-35826247D01*
X128634286Y-35826247D02*
X128634286Y-35683390D01*
X128634286Y-35683390D02*
X128681905Y-35492914D01*
X128681905Y-35492914D02*
X128729524Y-35397676D01*
X128729524Y-35397676D02*
X128824762Y-35302438D01*
X128824762Y-35302438D02*
X128967619Y-35254819D01*
X128967619Y-35254819D02*
X129062857Y-35254819D01*
X129062857Y-35254819D02*
X129205714Y-35302438D01*
X129205714Y-35302438D02*
X129253333Y-35350057D01*
X130205714Y-36254819D02*
X129634286Y-36254819D01*
X129920000Y-36254819D02*
X129920000Y-35254819D01*
X129920000Y-35254819D02*
X129824762Y-35397676D01*
X129824762Y-35397676D02*
X129729524Y-35492914D01*
X129729524Y-35492914D02*
X129634286Y-35540533D01*
D12*
X72140476Y-115069919D02*
X72140476Y-115784204D01*
X72140476Y-115784204D02*
X72092857Y-115927061D01*
X72092857Y-115927061D02*
X71997619Y-116022300D01*
X71997619Y-116022300D02*
X71854762Y-116069919D01*
X71854762Y-116069919D02*
X71759524Y-116069919D01*
X73140476Y-116069919D02*
X72569048Y-116069919D01*
X72854762Y-116069919D02*
X72854762Y-115069919D01*
X72854762Y-115069919D02*
X72759524Y-115212776D01*
X72759524Y-115212776D02*
X72664286Y-115308014D01*
X72664286Y-115308014D02*
X72569048Y-115355633D01*
X74092857Y-116069919D02*
X73521429Y-116069919D01*
X73807143Y-116069919D02*
X73807143Y-115069919D01*
X73807143Y-115069919D02*
X73711905Y-115212776D01*
X73711905Y-115212776D02*
X73616667Y-115308014D01*
X73616667Y-115308014D02*
X73521429Y-115355633D01*
D11*
X103249104Y-50899285D02*
X103249104Y-50423095D01*
X103534819Y-50994523D02*
X102534819Y-50661190D01*
X102534819Y-50661190D02*
X103534819Y-50327857D01*
X103534819Y-49470714D02*
X103534819Y-50042142D01*
X103534819Y-49756428D02*
X102534819Y-49756428D01*
X102534819Y-49756428D02*
X102677676Y-49851666D01*
X102677676Y-49851666D02*
X102772914Y-49946904D01*
X102772914Y-49946904D02*
X102820533Y-50042142D01*
X142874819Y-49381904D02*
X143684342Y-49381904D01*
X143684342Y-49381904D02*
X143779580Y-49334285D01*
X143779580Y-49334285D02*
X143827200Y-49286666D01*
X143827200Y-49286666D02*
X143874819Y-49191428D01*
X143874819Y-49191428D02*
X143874819Y-49000952D01*
X143874819Y-49000952D02*
X143827200Y-48905714D01*
X143827200Y-48905714D02*
X143779580Y-48858095D01*
X143779580Y-48858095D02*
X143684342Y-48810476D01*
X143684342Y-48810476D02*
X142874819Y-48810476D01*
X143827200Y-48381904D02*
X143874819Y-48239047D01*
X143874819Y-48239047D02*
X143874819Y-48000952D01*
X143874819Y-48000952D02*
X143827200Y-47905714D01*
X143827200Y-47905714D02*
X143779580Y-47858095D01*
X143779580Y-47858095D02*
X143684342Y-47810476D01*
X143684342Y-47810476D02*
X143589104Y-47810476D01*
X143589104Y-47810476D02*
X143493866Y-47858095D01*
X143493866Y-47858095D02*
X143446247Y-47905714D01*
X143446247Y-47905714D02*
X143398628Y-48000952D01*
X143398628Y-48000952D02*
X143351009Y-48191428D01*
X143351009Y-48191428D02*
X143303390Y-48286666D01*
X143303390Y-48286666D02*
X143255771Y-48334285D01*
X143255771Y-48334285D02*
X143160533Y-48381904D01*
X143160533Y-48381904D02*
X143065295Y-48381904D01*
X143065295Y-48381904D02*
X142970057Y-48334285D01*
X142970057Y-48334285D02*
X142922438Y-48286666D01*
X142922438Y-48286666D02*
X142874819Y-48191428D01*
X142874819Y-48191428D02*
X142874819Y-47953333D01*
X142874819Y-47953333D02*
X142922438Y-47810476D01*
X143351009Y-47048571D02*
X143398628Y-46905714D01*
X143398628Y-46905714D02*
X143446247Y-46858095D01*
X143446247Y-46858095D02*
X143541485Y-46810476D01*
X143541485Y-46810476D02*
X143684342Y-46810476D01*
X143684342Y-46810476D02*
X143779580Y-46858095D01*
X143779580Y-46858095D02*
X143827200Y-46905714D01*
X143827200Y-46905714D02*
X143874819Y-47000952D01*
X143874819Y-47000952D02*
X143874819Y-47381904D01*
X143874819Y-47381904D02*
X142874819Y-47381904D01*
X142874819Y-47381904D02*
X142874819Y-47048571D01*
X142874819Y-47048571D02*
X142922438Y-46953333D01*
X142922438Y-46953333D02*
X142970057Y-46905714D01*
X142970057Y-46905714D02*
X143065295Y-46858095D01*
X143065295Y-46858095D02*
X143160533Y-46858095D01*
X143160533Y-46858095D02*
X143255771Y-46905714D01*
X143255771Y-46905714D02*
X143303390Y-46953333D01*
X143303390Y-46953333D02*
X143351009Y-47048571D01*
X143351009Y-47048571D02*
X143351009Y-47381904D01*
D12*
X138004761Y-132457419D02*
X137671428Y-131981228D01*
X137433333Y-132457419D02*
X137433333Y-131457419D01*
X137433333Y-131457419D02*
X137814285Y-131457419D01*
X137814285Y-131457419D02*
X137909523Y-131505038D01*
X137909523Y-131505038D02*
X137957142Y-131552657D01*
X137957142Y-131552657D02*
X138004761Y-131647895D01*
X138004761Y-131647895D02*
X138004761Y-131790752D01*
X138004761Y-131790752D02*
X137957142Y-131885990D01*
X137957142Y-131885990D02*
X137909523Y-131933609D01*
X137909523Y-131933609D02*
X137814285Y-131981228D01*
X137814285Y-131981228D02*
X137433333Y-131981228D01*
X138290476Y-131457419D02*
X138623809Y-132457419D01*
X138623809Y-132457419D02*
X138957142Y-131457419D01*
X139719047Y-131457419D02*
X139528571Y-131457419D01*
X139528571Y-131457419D02*
X139433333Y-131505038D01*
X139433333Y-131505038D02*
X139385714Y-131552657D01*
X139385714Y-131552657D02*
X139290476Y-131695514D01*
X139290476Y-131695514D02*
X139242857Y-131885990D01*
X139242857Y-131885990D02*
X139242857Y-132266942D01*
X139242857Y-132266942D02*
X139290476Y-132362180D01*
X139290476Y-132362180D02*
X139338095Y-132409800D01*
X139338095Y-132409800D02*
X139433333Y-132457419D01*
X139433333Y-132457419D02*
X139623809Y-132457419D01*
X139623809Y-132457419D02*
X139719047Y-132409800D01*
X139719047Y-132409800D02*
X139766666Y-132362180D01*
X139766666Y-132362180D02*
X139814285Y-132266942D01*
X139814285Y-132266942D02*
X139814285Y-132028847D01*
X139814285Y-132028847D02*
X139766666Y-131933609D01*
X139766666Y-131933609D02*
X139719047Y-131885990D01*
X139719047Y-131885990D02*
X139623809Y-131838371D01*
X139623809Y-131838371D02*
X139433333Y-131838371D01*
X139433333Y-131838371D02*
X139338095Y-131885990D01*
X139338095Y-131885990D02*
X139290476Y-131933609D01*
X139290476Y-131933609D02*
X139242857Y-132028847D01*
X129809800Y-79933332D02*
X129857419Y-79790475D01*
X129857419Y-79790475D02*
X129857419Y-79552380D01*
X129857419Y-79552380D02*
X129809800Y-79457142D01*
X129809800Y-79457142D02*
X129762180Y-79409523D01*
X129762180Y-79409523D02*
X129666942Y-79361904D01*
X129666942Y-79361904D02*
X129571704Y-79361904D01*
X129571704Y-79361904D02*
X129476466Y-79409523D01*
X129476466Y-79409523D02*
X129428847Y-79457142D01*
X129428847Y-79457142D02*
X129381228Y-79552380D01*
X129381228Y-79552380D02*
X129333609Y-79742856D01*
X129333609Y-79742856D02*
X129285990Y-79838094D01*
X129285990Y-79838094D02*
X129238371Y-79885713D01*
X129238371Y-79885713D02*
X129143133Y-79933332D01*
X129143133Y-79933332D02*
X129047895Y-79933332D01*
X129047895Y-79933332D02*
X128952657Y-79885713D01*
X128952657Y-79885713D02*
X128905038Y-79838094D01*
X128905038Y-79838094D02*
X128857419Y-79742856D01*
X128857419Y-79742856D02*
X128857419Y-79504761D01*
X128857419Y-79504761D02*
X128905038Y-79361904D01*
X128857419Y-79028570D02*
X129857419Y-78790475D01*
X129857419Y-78790475D02*
X129143133Y-78599999D01*
X129143133Y-78599999D02*
X129857419Y-78409523D01*
X129857419Y-78409523D02*
X128857419Y-78171428D01*
X128857419Y-77361904D02*
X128857419Y-77552380D01*
X128857419Y-77552380D02*
X128905038Y-77647618D01*
X128905038Y-77647618D02*
X128952657Y-77695237D01*
X128952657Y-77695237D02*
X129095514Y-77790475D01*
X129095514Y-77790475D02*
X129285990Y-77838094D01*
X129285990Y-77838094D02*
X129666942Y-77838094D01*
X129666942Y-77838094D02*
X129762180Y-77790475D01*
X129762180Y-77790475D02*
X129809800Y-77742856D01*
X129809800Y-77742856D02*
X129857419Y-77647618D01*
X129857419Y-77647618D02*
X129857419Y-77457142D01*
X129857419Y-77457142D02*
X129809800Y-77361904D01*
X129809800Y-77361904D02*
X129762180Y-77314285D01*
X129762180Y-77314285D02*
X129666942Y-77266666D01*
X129666942Y-77266666D02*
X129428847Y-77266666D01*
X129428847Y-77266666D02*
X129333609Y-77314285D01*
X129333609Y-77314285D02*
X129285990Y-77361904D01*
X129285990Y-77361904D02*
X129238371Y-77457142D01*
X129238371Y-77457142D02*
X129238371Y-77647618D01*
X129238371Y-77647618D02*
X129285990Y-77742856D01*
X129285990Y-77742856D02*
X129333609Y-77790475D01*
X129333609Y-77790475D02*
X129428847Y-77838094D01*
D11*
X106559580Y-139366666D02*
X106607200Y-139414285D01*
X106607200Y-139414285D02*
X106654819Y-139557142D01*
X106654819Y-139557142D02*
X106654819Y-139652380D01*
X106654819Y-139652380D02*
X106607200Y-139795237D01*
X106607200Y-139795237D02*
X106511961Y-139890475D01*
X106511961Y-139890475D02*
X106416723Y-139938094D01*
X106416723Y-139938094D02*
X106226247Y-139985713D01*
X106226247Y-139985713D02*
X106083390Y-139985713D01*
X106083390Y-139985713D02*
X105892914Y-139938094D01*
X105892914Y-139938094D02*
X105797676Y-139890475D01*
X105797676Y-139890475D02*
X105702438Y-139795237D01*
X105702438Y-139795237D02*
X105654819Y-139652380D01*
X105654819Y-139652380D02*
X105654819Y-139557142D01*
X105654819Y-139557142D02*
X105702438Y-139414285D01*
X105702438Y-139414285D02*
X105750057Y-139366666D01*
X105988152Y-138509523D02*
X106654819Y-138509523D01*
X105607200Y-138747618D02*
X106321485Y-138985713D01*
X106321485Y-138985713D02*
X106321485Y-138366666D01*
D12*
X144991604Y-104857419D02*
X144991604Y-105571704D01*
X144991604Y-105571704D02*
X144943985Y-105714561D01*
X144943985Y-105714561D02*
X144848747Y-105809800D01*
X144848747Y-105809800D02*
X144705890Y-105857419D01*
X144705890Y-105857419D02*
X144610652Y-105857419D01*
X145515414Y-105857419D02*
X145705890Y-105857419D01*
X145705890Y-105857419D02*
X145801128Y-105809800D01*
X145801128Y-105809800D02*
X145848747Y-105762180D01*
X145848747Y-105762180D02*
X145943985Y-105619323D01*
X145943985Y-105619323D02*
X145991604Y-105428847D01*
X145991604Y-105428847D02*
X145991604Y-105047895D01*
X145991604Y-105047895D02*
X145943985Y-104952657D01*
X145943985Y-104952657D02*
X145896366Y-104905038D01*
X145896366Y-104905038D02*
X145801128Y-104857419D01*
X145801128Y-104857419D02*
X145610652Y-104857419D01*
X145610652Y-104857419D02*
X145515414Y-104905038D01*
X145515414Y-104905038D02*
X145467795Y-104952657D01*
X145467795Y-104952657D02*
X145420176Y-105047895D01*
X145420176Y-105047895D02*
X145420176Y-105285990D01*
X145420176Y-105285990D02*
X145467795Y-105381228D01*
X145467795Y-105381228D02*
X145515414Y-105428847D01*
X145515414Y-105428847D02*
X145610652Y-105476466D01*
X145610652Y-105476466D02*
X145801128Y-105476466D01*
X145801128Y-105476466D02*
X145896366Y-105428847D01*
X145896366Y-105428847D02*
X145943985Y-105381228D01*
X145943985Y-105381228D02*
X145991604Y-105285990D01*
D11*
X90171905Y-38419819D02*
X90171905Y-37419819D01*
X90171905Y-37419819D02*
X90410000Y-37419819D01*
X90410000Y-37419819D02*
X90552857Y-37467438D01*
X90552857Y-37467438D02*
X90648095Y-37562676D01*
X90648095Y-37562676D02*
X90695714Y-37657914D01*
X90695714Y-37657914D02*
X90743333Y-37848390D01*
X90743333Y-37848390D02*
X90743333Y-37991247D01*
X90743333Y-37991247D02*
X90695714Y-38181723D01*
X90695714Y-38181723D02*
X90648095Y-38276961D01*
X90648095Y-38276961D02*
X90552857Y-38372200D01*
X90552857Y-38372200D02*
X90410000Y-38419819D01*
X90410000Y-38419819D02*
X90171905Y-38419819D01*
X91219524Y-38419819D02*
X91410000Y-38419819D01*
X91410000Y-38419819D02*
X91505238Y-38372200D01*
X91505238Y-38372200D02*
X91552857Y-38324580D01*
X91552857Y-38324580D02*
X91648095Y-38181723D01*
X91648095Y-38181723D02*
X91695714Y-37991247D01*
X91695714Y-37991247D02*
X91695714Y-37610295D01*
X91695714Y-37610295D02*
X91648095Y-37515057D01*
X91648095Y-37515057D02*
X91600476Y-37467438D01*
X91600476Y-37467438D02*
X91505238Y-37419819D01*
X91505238Y-37419819D02*
X91314762Y-37419819D01*
X91314762Y-37419819D02*
X91219524Y-37467438D01*
X91219524Y-37467438D02*
X91171905Y-37515057D01*
X91171905Y-37515057D02*
X91124286Y-37610295D01*
X91124286Y-37610295D02*
X91124286Y-37848390D01*
X91124286Y-37848390D02*
X91171905Y-37943628D01*
X91171905Y-37943628D02*
X91219524Y-37991247D01*
X91219524Y-37991247D02*
X91314762Y-38038866D01*
X91314762Y-38038866D02*
X91505238Y-38038866D01*
X91505238Y-38038866D02*
X91600476Y-37991247D01*
X91600476Y-37991247D02*
X91648095Y-37943628D01*
X91648095Y-37943628D02*
X91695714Y-37848390D01*
D12*
X71404761Y-132457419D02*
X71071428Y-131981228D01*
X70833333Y-132457419D02*
X70833333Y-131457419D01*
X70833333Y-131457419D02*
X71214285Y-131457419D01*
X71214285Y-131457419D02*
X71309523Y-131505038D01*
X71309523Y-131505038D02*
X71357142Y-131552657D01*
X71357142Y-131552657D02*
X71404761Y-131647895D01*
X71404761Y-131647895D02*
X71404761Y-131790752D01*
X71404761Y-131790752D02*
X71357142Y-131885990D01*
X71357142Y-131885990D02*
X71309523Y-131933609D01*
X71309523Y-131933609D02*
X71214285Y-131981228D01*
X71214285Y-131981228D02*
X70833333Y-131981228D01*
X71690476Y-131457419D02*
X72023809Y-132457419D01*
X72023809Y-132457419D02*
X72357142Y-131457419D01*
X72595238Y-131457419D02*
X73214285Y-131457419D01*
X73214285Y-131457419D02*
X72880952Y-131838371D01*
X72880952Y-131838371D02*
X73023809Y-131838371D01*
X73023809Y-131838371D02*
X73119047Y-131885990D01*
X73119047Y-131885990D02*
X73166666Y-131933609D01*
X73166666Y-131933609D02*
X73214285Y-132028847D01*
X73214285Y-132028847D02*
X73214285Y-132266942D01*
X73214285Y-132266942D02*
X73166666Y-132362180D01*
X73166666Y-132362180D02*
X73119047Y-132409800D01*
X73119047Y-132409800D02*
X73023809Y-132457419D01*
X73023809Y-132457419D02*
X72738095Y-132457419D01*
X72738095Y-132457419D02*
X72642857Y-132409800D01*
X72642857Y-132409800D02*
X72595238Y-132362180D01*
X94340476Y-115069919D02*
X94340476Y-115784204D01*
X94340476Y-115784204D02*
X94292857Y-115927061D01*
X94292857Y-115927061D02*
X94197619Y-116022300D01*
X94197619Y-116022300D02*
X94054762Y-116069919D01*
X94054762Y-116069919D02*
X93959524Y-116069919D01*
X95340476Y-116069919D02*
X94769048Y-116069919D01*
X95054762Y-116069919D02*
X95054762Y-115069919D01*
X95054762Y-115069919D02*
X94959524Y-115212776D01*
X94959524Y-115212776D02*
X94864286Y-115308014D01*
X94864286Y-115308014D02*
X94769048Y-115355633D01*
X95721429Y-115165157D02*
X95769048Y-115117538D01*
X95769048Y-115117538D02*
X95864286Y-115069919D01*
X95864286Y-115069919D02*
X96102381Y-115069919D01*
X96102381Y-115069919D02*
X96197619Y-115117538D01*
X96197619Y-115117538D02*
X96245238Y-115165157D01*
X96245238Y-115165157D02*
X96292857Y-115260395D01*
X96292857Y-115260395D02*
X96292857Y-115355633D01*
X96292857Y-115355633D02*
X96245238Y-115498490D01*
X96245238Y-115498490D02*
X95673810Y-116069919D01*
X95673810Y-116069919D02*
X96292857Y-116069919D01*
D11*
X96654819Y-27363333D02*
X97369104Y-27363333D01*
X97369104Y-27363333D02*
X97511961Y-27410952D01*
X97511961Y-27410952D02*
X97607200Y-27506190D01*
X97607200Y-27506190D02*
X97654819Y-27649047D01*
X97654819Y-27649047D02*
X97654819Y-27744285D01*
X96750057Y-26934761D02*
X96702438Y-26887142D01*
X96702438Y-26887142D02*
X96654819Y-26791904D01*
X96654819Y-26791904D02*
X96654819Y-26553809D01*
X96654819Y-26553809D02*
X96702438Y-26458571D01*
X96702438Y-26458571D02*
X96750057Y-26410952D01*
X96750057Y-26410952D02*
X96845295Y-26363333D01*
X96845295Y-26363333D02*
X96940533Y-26363333D01*
X96940533Y-26363333D02*
X97083390Y-26410952D01*
X97083390Y-26410952D02*
X97654819Y-26982380D01*
X97654819Y-26982380D02*
X97654819Y-26363333D01*
D12*
X116640476Y-115169919D02*
X116640476Y-115884204D01*
X116640476Y-115884204D02*
X116592857Y-116027061D01*
X116592857Y-116027061D02*
X116497619Y-116122300D01*
X116497619Y-116122300D02*
X116354762Y-116169919D01*
X116354762Y-116169919D02*
X116259524Y-116169919D01*
X117640476Y-116169919D02*
X117069048Y-116169919D01*
X117354762Y-116169919D02*
X117354762Y-115169919D01*
X117354762Y-115169919D02*
X117259524Y-115312776D01*
X117259524Y-115312776D02*
X117164286Y-115408014D01*
X117164286Y-115408014D02*
X117069048Y-115455633D01*
X117973810Y-115169919D02*
X118592857Y-115169919D01*
X118592857Y-115169919D02*
X118259524Y-115550871D01*
X118259524Y-115550871D02*
X118402381Y-115550871D01*
X118402381Y-115550871D02*
X118497619Y-115598490D01*
X118497619Y-115598490D02*
X118545238Y-115646109D01*
X118545238Y-115646109D02*
X118592857Y-115741347D01*
X118592857Y-115741347D02*
X118592857Y-115979442D01*
X118592857Y-115979442D02*
X118545238Y-116074680D01*
X118545238Y-116074680D02*
X118497619Y-116122300D01*
X118497619Y-116122300D02*
X118402381Y-116169919D01*
X118402381Y-116169919D02*
X118116667Y-116169919D01*
X118116667Y-116169919D02*
X118021429Y-116122300D01*
X118021429Y-116122300D02*
X117973810Y-116074680D01*
X135266666Y-63857419D02*
X135266666Y-64571704D01*
X135266666Y-64571704D02*
X135219047Y-64714561D01*
X135219047Y-64714561D02*
X135123809Y-64809800D01*
X135123809Y-64809800D02*
X134980952Y-64857419D01*
X134980952Y-64857419D02*
X134885714Y-64857419D01*
X136171428Y-64190752D02*
X136171428Y-64857419D01*
X135933333Y-63809800D02*
X135695238Y-64524085D01*
X135695238Y-64524085D02*
X136314285Y-64524085D01*
D11*
X77331905Y-38419819D02*
X77331905Y-37419819D01*
X77331905Y-37419819D02*
X77570000Y-37419819D01*
X77570000Y-37419819D02*
X77712857Y-37467438D01*
X77712857Y-37467438D02*
X77808095Y-37562676D01*
X77808095Y-37562676D02*
X77855714Y-37657914D01*
X77855714Y-37657914D02*
X77903333Y-37848390D01*
X77903333Y-37848390D02*
X77903333Y-37991247D01*
X77903333Y-37991247D02*
X77855714Y-38181723D01*
X77855714Y-38181723D02*
X77808095Y-38276961D01*
X77808095Y-38276961D02*
X77712857Y-38372200D01*
X77712857Y-38372200D02*
X77570000Y-38419819D01*
X77570000Y-38419819D02*
X77331905Y-38419819D01*
X78236667Y-37419819D02*
X78903333Y-37419819D01*
X78903333Y-37419819D02*
X78474762Y-38419819D01*
D12*
X101166666Y-104557419D02*
X101166666Y-105271704D01*
X101166666Y-105271704D02*
X101119047Y-105414561D01*
X101119047Y-105414561D02*
X101023809Y-105509800D01*
X101023809Y-105509800D02*
X100880952Y-105557419D01*
X100880952Y-105557419D02*
X100785714Y-105557419D01*
X101547619Y-104557419D02*
X102214285Y-104557419D01*
X102214285Y-104557419D02*
X101785714Y-105557419D01*
X115504761Y-84257419D02*
X115171428Y-83781228D01*
X114933333Y-84257419D02*
X114933333Y-83257419D01*
X114933333Y-83257419D02*
X115314285Y-83257419D01*
X115314285Y-83257419D02*
X115409523Y-83305038D01*
X115409523Y-83305038D02*
X115457142Y-83352657D01*
X115457142Y-83352657D02*
X115504761Y-83447895D01*
X115504761Y-83447895D02*
X115504761Y-83590752D01*
X115504761Y-83590752D02*
X115457142Y-83685990D01*
X115457142Y-83685990D02*
X115409523Y-83733609D01*
X115409523Y-83733609D02*
X115314285Y-83781228D01*
X115314285Y-83781228D02*
X114933333Y-83781228D01*
X115790476Y-83257419D02*
X116123809Y-84257419D01*
X116123809Y-84257419D02*
X116457142Y-83257419D01*
X117314285Y-84257419D02*
X116742857Y-84257419D01*
X117028571Y-84257419D02*
X117028571Y-83257419D01*
X117028571Y-83257419D02*
X116933333Y-83400276D01*
X116933333Y-83400276D02*
X116838095Y-83495514D01*
X116838095Y-83495514D02*
X116742857Y-83543133D01*
D13*
%TO.C,SW2*%
X88125000Y-138255000D02*
X102095000Y-138255000D01*
X88125000Y-152225000D02*
X88125000Y-138255000D01*
X102095000Y-138255000D02*
X102095000Y-152225000D01*
X102095000Y-152225000D02*
X88125000Y-152225000D01*
%TO.C,D8*%
X83745000Y-39635000D02*
X80655000Y-39635000D01*
X82200000Y-45185000D02*
G75*
G02*
X80655170Y-39635000I0J2990000D01*
G01*
X83744830Y-39635000D02*
G75*
G02*
X82200000Y-45185000I-1544830J-2560000D01*
G01*
X84700000Y-42195000D02*
G75*
G02*
X79700000Y-42195000I-2500000J0D01*
G01*
X79700000Y-42195000D02*
G75*
G02*
X84700000Y-42195000I2500000J0D01*
G01*
%TO.C,R7*%
X130100000Y-96560000D02*
X130100000Y-97330000D01*
X130100000Y-104640000D02*
X130100000Y-103870000D01*
X128730000Y-103870000D02*
X131470000Y-103870000D01*
X131470000Y-97330000D01*
X128730000Y-97330000D01*
X128730000Y-103870000D01*
%TO.C,R6*%
X126900000Y-96560000D02*
X126900000Y-97330000D01*
X126900000Y-104640000D02*
X126900000Y-103870000D01*
X125530000Y-103870000D02*
X128270000Y-103870000D01*
X128270000Y-97330000D01*
X125530000Y-97330000D01*
X125530000Y-103870000D01*
%TO.C,C5*%
X127430000Y-141470000D02*
X127430000Y-136930000D01*
X127486000Y-141470000D02*
X127430000Y-141470000D01*
X129514000Y-136930000D02*
X129570000Y-136930000D01*
X129570000Y-136930000D02*
X129570000Y-141470000D01*
%TO.C,J1*%
X79310000Y-22370000D02*
X94810000Y-22370000D01*
X79310000Y-31490000D02*
X79310000Y-22370000D01*
X80610000Y-23680000D02*
X93510000Y-23680000D01*
X80610000Y-30180000D02*
X80610000Y-23680000D01*
X84020000Y-32880000D02*
X85020000Y-32880000D01*
X84520000Y-31880000D02*
X84020000Y-32880000D01*
X85010000Y-30180000D02*
X80610000Y-30180000D01*
X85010000Y-31490000D02*
X85010000Y-30180000D01*
X85020000Y-32880000D02*
X84520000Y-31880000D01*
X89110000Y-30180000D02*
X89110000Y-31490000D01*
X93510000Y-23680000D02*
X93510000Y-30180000D01*
X93510000Y-30180000D02*
X89110000Y-30180000D01*
X94810000Y-22370000D02*
X94810000Y-31490000D01*
X94810000Y-31490000D02*
X79310000Y-31490000D01*
%TO.C,C6*%
X63630000Y-45670000D02*
X63630000Y-41130000D01*
X63686000Y-45670000D02*
X63630000Y-45670000D01*
X65714000Y-41130000D02*
X65770000Y-41130000D01*
X65770000Y-41130000D02*
X65770000Y-45670000D01*
%TO.C,R11*%
X71960000Y-46985000D02*
X72730000Y-46985000D01*
X80040000Y-46985000D02*
X79270000Y-46985000D01*
X72730000Y-45615000D02*
X79270000Y-45615000D01*
X79270000Y-48355000D01*
X72730000Y-48355000D01*
X72730000Y-45615000D01*
%TO.C,R3*%
X85700000Y-96580000D02*
X85700000Y-97350000D01*
X85700000Y-104660000D02*
X85700000Y-103890000D01*
X84330000Y-103890000D02*
X87070000Y-103890000D01*
X87070000Y-97350000D01*
X84330000Y-97350000D01*
X84330000Y-103890000D01*
%TO.C,SW1*%
X66075000Y-138195000D02*
X80045000Y-138195000D01*
X66075000Y-152165000D02*
X66075000Y-138195000D01*
X80045000Y-138195000D02*
X80045000Y-152165000D01*
X80045000Y-152165000D02*
X66075000Y-152165000D01*
%TO.C,D6*%
X70745000Y-39635000D02*
X67655000Y-39635000D01*
X69200000Y-45185000D02*
G75*
G02*
X67655170Y-39635000I0J2990000D01*
G01*
X70744830Y-39635000D02*
G75*
G02*
X69200000Y-45185000I-1544830J-2560000D01*
G01*
X71700000Y-42195000D02*
G75*
G02*
X66700000Y-42195000I-2500000J0D01*
G01*
X66700000Y-42195000D02*
G75*
G02*
X71700000Y-42195000I2500000J0D01*
G01*
%TO.C,R14*%
X84360000Y-50085000D02*
X85130000Y-50085000D01*
X92440000Y-50085000D02*
X91670000Y-50085000D01*
X85130000Y-48715000D02*
X91670000Y-48715000D01*
X91670000Y-51455000D01*
X85130000Y-51455000D01*
X85130000Y-48715000D01*
%TO.C,C2*%
X83030000Y-141470000D02*
X83030000Y-136930000D01*
X83086000Y-141470000D02*
X83030000Y-141470000D01*
X85114000Y-136930000D02*
X85170000Y-136930000D01*
X85170000Y-136930000D02*
X85170000Y-141470000D01*
%TO.C,R8*%
X149100000Y-96580000D02*
X149100000Y-97350000D01*
X149100000Y-104660000D02*
X149100000Y-103890000D01*
X147730000Y-103890000D02*
X150470000Y-103890000D01*
X150470000Y-97350000D01*
X147730000Y-97350000D01*
X147730000Y-103890000D01*
%TO.C,D4*%
X142165000Y-159745000D02*
X142165000Y-156655000D01*
X136615000Y-158200000D02*
G75*
G02*
X142165000Y-156655170I2990000J0D01*
G01*
X142165000Y-159744830D02*
G75*
G02*
X136615000Y-158200000I-2560000J1544830D01*
G01*
X142105000Y-158200000D02*
G75*
G02*
X137105000Y-158200000I-2500000J0D01*
G01*
X137105000Y-158200000D02*
G75*
G02*
X142105000Y-158200000I2500000J0D01*
G01*
%TO.C,R5*%
X107900000Y-96580000D02*
X107900000Y-97350000D01*
X107900000Y-104660000D02*
X107900000Y-103890000D01*
X106530000Y-103890000D02*
X109270000Y-103890000D01*
X109270000Y-97350000D01*
X106530000Y-97350000D01*
X106530000Y-103890000D01*
%TO.C,J3*%
X117590000Y-22470000D02*
X133090000Y-22470000D01*
X117590000Y-31590000D02*
X117590000Y-22470000D01*
X118890000Y-23780000D02*
X131790000Y-23780000D01*
X118890000Y-30280000D02*
X118890000Y-23780000D01*
X122300000Y-32980000D02*
X123300000Y-32980000D01*
X122800000Y-31980000D02*
X122300000Y-32980000D01*
X123290000Y-30280000D02*
X118890000Y-30280000D01*
X123290000Y-31590000D02*
X123290000Y-30280000D01*
X123300000Y-32980000D02*
X122800000Y-31980000D01*
X127390000Y-30280000D02*
X127390000Y-31590000D01*
X131790000Y-23780000D02*
X131790000Y-30280000D01*
X131790000Y-30280000D02*
X127390000Y-30280000D01*
X133090000Y-22470000D02*
X133090000Y-31590000D01*
X133090000Y-31590000D02*
X117590000Y-31590000D01*
%TO.C,SW3*%
X110335000Y-138255000D02*
X124305000Y-138255000D01*
X110335000Y-152225000D02*
X110335000Y-138255000D01*
X124305000Y-138255000D02*
X124305000Y-152225000D01*
X124305000Y-152225000D02*
X110335000Y-152225000D01*
%TO.C,R10*%
X149100000Y-66260000D02*
X149100000Y-67030000D01*
X149100000Y-74340000D02*
X149100000Y-73570000D01*
X150470000Y-67030000D02*
X147730000Y-67030000D01*
X147730000Y-73570000D01*
X150470000Y-73570000D01*
X150470000Y-67030000D01*
%TO.C,C3*%
X83030000Y-148770000D02*
X83030000Y-144230000D01*
X83086000Y-148770000D02*
X83030000Y-148770000D01*
X85114000Y-144230000D02*
X85170000Y-144230000D01*
X85170000Y-144230000D02*
X85170000Y-148770000D01*
%TO.C,D5*%
X142590000Y-62225000D02*
X142590000Y-59135000D01*
X137040000Y-60680000D02*
G75*
G02*
X142590000Y-59135170I2990000J0D01*
G01*
X142590000Y-62224830D02*
G75*
G02*
X137040000Y-60680000I-2560000J1544830D01*
G01*
X142530000Y-60680000D02*
G75*
G02*
X137530000Y-60680000I-2500000J0D01*
G01*
X137530000Y-60680000D02*
G75*
G02*
X142530000Y-60680000I2500000J0D01*
G01*
%TO.C,RV2*%
X90820000Y-82192500D02*
X90820000Y-80812500D01*
X92200000Y-82192500D02*
X90820000Y-82192500D01*
X93470000Y-79432500D02*
X98660000Y-79432500D01*
X93470000Y-82192500D02*
X93470000Y-79432500D01*
X93470000Y-82192500D02*
X98660000Y-82192500D01*
X98660000Y-82192500D02*
X98660000Y-79432500D01*
D12*
X83740000Y-58812500D02*
X105740000Y-58812500D01*
X105740000Y-82812500D01*
X83740000Y-82812500D01*
X83740000Y-58812500D01*
D13*
%TO.C,D3*%
X119865000Y-159745000D02*
X119865000Y-156655000D01*
X114315000Y-158200000D02*
G75*
G02*
X119865000Y-156655170I2990000J0D01*
G01*
X119865000Y-159744830D02*
G75*
G02*
X114315000Y-158200000I-2560000J1544830D01*
G01*
X119805000Y-158200000D02*
G75*
G02*
X114805000Y-158200000I-2500000J0D01*
G01*
X114805000Y-158200000D02*
G75*
G02*
X119805000Y-158200000I2500000J0D01*
G01*
%TO.C,D10*%
X96745000Y-39635000D02*
X93655000Y-39635000D01*
X95200000Y-45185000D02*
G75*
G02*
X93655170Y-39635000I0J2990000D01*
G01*
X96744830Y-39635000D02*
G75*
G02*
X95200000Y-45185000I-1544830J-2560000D01*
G01*
X97700000Y-42195000D02*
G75*
G02*
X92700000Y-42195000I-2500000J0D01*
G01*
X92700000Y-42195000D02*
G75*
G02*
X97700000Y-42195000I2500000J0D01*
G01*
%TO.C,SW5*%
X65575000Y-68915000D02*
X79545000Y-68915000D01*
X65575000Y-82885000D02*
X65575000Y-68915000D01*
X79545000Y-68915000D02*
X79545000Y-82885000D01*
X79545000Y-82885000D02*
X65575000Y-82885000D01*
%TO.C,R13*%
X84360000Y-46985000D02*
X85130000Y-46985000D01*
X92440000Y-46985000D02*
X91670000Y-46985000D01*
X85130000Y-45615000D02*
X91670000Y-45615000D01*
X91670000Y-48355000D01*
X85130000Y-48355000D01*
X85130000Y-45615000D01*
%TO.C,R4*%
X104700000Y-96580000D02*
X104700000Y-97350000D01*
X104700000Y-104660000D02*
X104700000Y-103890000D01*
X103330000Y-103890000D02*
X106070000Y-103890000D01*
X106070000Y-97350000D01*
X103330000Y-97350000D01*
X103330000Y-103890000D01*
D12*
%TO.C,J8*%
X123175062Y-100700000D02*
G75*
G02*
X111175062Y-100700000I-6000000J0D01*
G01*
X111175062Y-100700000D02*
G75*
G02*
X123175062Y-100700000I6000000J0D01*
G01*
D13*
%TO.C,RV4*%
X91280000Y-130380000D02*
X91280000Y-129000000D01*
X92660000Y-130380000D02*
X91280000Y-130380000D01*
X93930000Y-127620000D02*
X99120000Y-127620000D01*
X93930000Y-130380000D02*
X93930000Y-127620000D01*
X93930000Y-130380000D02*
X99120000Y-130380000D01*
X99120000Y-130380000D02*
X99120000Y-127620000D01*
D12*
X84200000Y-107000000D02*
X106200000Y-107000000D01*
X106200000Y-131000000D01*
X84200000Y-131000000D01*
X84200000Y-107000000D01*
%TO.C,J6*%
X79075062Y-100700000D02*
G75*
G02*
X67075062Y-100700000I-6000000J0D01*
G01*
X67075062Y-100700000D02*
G75*
G02*
X79075062Y-100700000I6000000J0D01*
G01*
D13*
%TO.C,D2*%
X97840000Y-159745000D02*
X97840000Y-156655000D01*
X92290000Y-158200000D02*
G75*
G02*
X97840000Y-156655170I2990000J0D01*
G01*
X97840000Y-159744830D02*
G75*
G02*
X92290000Y-158200000I-2560000J1544830D01*
G01*
X97780000Y-158200000D02*
G75*
G02*
X92780000Y-158200000I-2500000J0D01*
G01*
X92780000Y-158200000D02*
G75*
G02*
X97780000Y-158200000I2500000J0D01*
G01*
%TO.C,R12*%
X71960000Y-50085000D02*
X72730000Y-50085000D01*
X80040000Y-50085000D02*
X79270000Y-50085000D01*
X72730000Y-48715000D02*
X79270000Y-48715000D01*
X79270000Y-51455000D01*
X72730000Y-51455000D01*
X72730000Y-48715000D01*
%TO.C,R2*%
X82500000Y-96580000D02*
X82500000Y-97350000D01*
X82500000Y-104660000D02*
X82500000Y-103890000D01*
X81130000Y-103890000D02*
X83870000Y-103890000D01*
X83870000Y-97350000D01*
X81130000Y-97350000D01*
X81130000Y-103890000D01*
%TO.C,R15*%
X100100000Y-41065000D02*
X100100000Y-41835000D01*
X100100000Y-49145000D02*
X100100000Y-48375000D01*
X98730000Y-48375000D02*
X101470000Y-48375000D01*
X101470000Y-41835000D01*
X98730000Y-41835000D01*
X98730000Y-48375000D01*
%TO.C,SW4*%
X132625000Y-138295000D02*
X146595000Y-138295000D01*
X132625000Y-152265000D02*
X132625000Y-138295000D01*
X146595000Y-138295000D02*
X146595000Y-152265000D01*
X146595000Y-152265000D02*
X132625000Y-152265000D01*
%TO.C,RV5*%
X113480000Y-130380000D02*
X113480000Y-129000000D01*
X114860000Y-130380000D02*
X113480000Y-130380000D01*
X116130000Y-127620000D02*
X121320000Y-127620000D01*
X116130000Y-130380000D02*
X116130000Y-127620000D01*
X116130000Y-130380000D02*
X121320000Y-130380000D01*
X121320000Y-130380000D02*
X121320000Y-127620000D01*
D12*
X106400000Y-107000000D02*
X128400000Y-107000000D01*
X128400000Y-131000000D01*
X106400000Y-131000000D01*
X106400000Y-107000000D01*
D13*
%TO.C,C7*%
X103950000Y-34730000D02*
X108490000Y-34730000D01*
X103950000Y-34786000D02*
X103950000Y-34730000D01*
X108490000Y-36814000D02*
X108490000Y-36870000D01*
X108490000Y-36870000D02*
X103950000Y-36870000D01*
%TO.C,D1*%
X75665000Y-159745000D02*
X75665000Y-156655000D01*
X70115000Y-158200000D02*
G75*
G02*
X75665000Y-156655170I2990000J0D01*
G01*
X75665000Y-159744830D02*
G75*
G02*
X70115000Y-158200000I-2560000J1544830D01*
G01*
X75605000Y-158200000D02*
G75*
G02*
X70605000Y-158200000I-2500000J0D01*
G01*
X70605000Y-158200000D02*
G75*
G02*
X75605000Y-158200000I2500000J0D01*
G01*
%TO.C,R1*%
X63500000Y-96560000D02*
X63500000Y-97330000D01*
X63500000Y-104640000D02*
X63500000Y-103870000D01*
X62130000Y-103870000D02*
X64870000Y-103870000D01*
X64870000Y-97330000D01*
X62130000Y-97330000D01*
X62130000Y-103870000D01*
%TO.C,R9*%
X131400000Y-66160000D02*
X131400000Y-66930000D01*
X131400000Y-74240000D02*
X131400000Y-73470000D01*
X130030000Y-73470000D02*
X132770000Y-73470000D01*
X132770000Y-66930000D01*
X130030000Y-66930000D01*
X130030000Y-73470000D01*
%TO.C,C1*%
X131750000Y-34730000D02*
X136290000Y-34730000D01*
X131750000Y-34786000D02*
X131750000Y-34730000D01*
X136290000Y-36814000D02*
X136290000Y-36870000D01*
X136290000Y-36870000D02*
X131750000Y-36870000D01*
%TO.C,A1*%
X103920000Y-39100000D02*
X103920000Y-57140000D01*
X103920000Y-57140000D02*
X106590000Y-57140000D01*
X106590000Y-41770000D02*
X106590000Y-39100000D01*
X106590000Y-41770000D02*
X144690000Y-41770000D01*
X106590000Y-54470000D02*
X106590000Y-57140000D01*
X109130000Y-54470000D02*
X106590000Y-54470000D01*
X109130000Y-54470000D02*
X109130000Y-57140000D01*
X109130000Y-54470000D02*
X144690000Y-54470000D01*
X109130000Y-57140000D02*
X147360000Y-57140000D01*
X139480000Y-44180000D02*
X149900000Y-44180000D01*
X139480000Y-52060000D02*
X139480000Y-44180000D01*
X144690000Y-41770000D02*
X144690000Y-39100000D01*
X144690000Y-54470000D02*
X144690000Y-57140000D01*
X147360000Y-39100000D02*
X103920000Y-39100000D01*
X147360000Y-39100000D02*
X147360000Y-44180000D01*
X147360000Y-57140000D02*
X147360000Y-52060000D01*
X149900000Y-44180000D02*
X149900000Y-52060000D01*
X149900000Y-52060000D02*
X139480000Y-52060000D01*
%TO.C,RV6*%
X135680000Y-130380000D02*
X135680000Y-129000000D01*
X137060000Y-130380000D02*
X135680000Y-130380000D01*
X138330000Y-127620000D02*
X143520000Y-127620000D01*
X138330000Y-130380000D02*
X138330000Y-127620000D01*
X138330000Y-130380000D02*
X143520000Y-130380000D01*
X143520000Y-130380000D02*
X143520000Y-127620000D01*
D12*
X128600000Y-107000000D02*
X150600000Y-107000000D01*
X150600000Y-131000000D01*
X128600000Y-131000000D01*
X128600000Y-107000000D01*
%TO.C,SW6*%
X136800000Y-93300000D02*
X128800000Y-93300000D01*
X128800000Y-80300000D01*
X136800000Y-80300000D01*
X136800000Y-93300000D01*
D13*
%TO.C,C4*%
X105130000Y-141470000D02*
X105130000Y-136930000D01*
X105186000Y-141470000D02*
X105130000Y-141470000D01*
X107214000Y-136930000D02*
X107270000Y-136930000D01*
X107270000Y-136930000D02*
X107270000Y-141470000D01*
D12*
%TO.C,J9*%
X145600000Y-100700000D02*
G75*
G02*
X133600000Y-100700000I-6000000J0D01*
G01*
X133600000Y-100700000D02*
G75*
G02*
X145600000Y-100700000I6000000J0D01*
G01*
D13*
%TO.C,D9*%
X90245000Y-39635000D02*
X87155000Y-39635000D01*
X88700000Y-45185000D02*
G75*
G02*
X87155170Y-39635000I0J2990000D01*
G01*
X90244830Y-39635000D02*
G75*
G02*
X88700000Y-45185000I-1544830J-2560000D01*
G01*
X91200000Y-42195000D02*
G75*
G02*
X86200000Y-42195000I-2500000J0D01*
G01*
X86200000Y-42195000D02*
G75*
G02*
X91200000Y-42195000I2500000J0D01*
G01*
%TO.C,RV3*%
X69080000Y-130380000D02*
X69080000Y-129000000D01*
X70460000Y-130380000D02*
X69080000Y-130380000D01*
X71730000Y-127620000D02*
X76920000Y-127620000D01*
X71730000Y-130380000D02*
X71730000Y-127620000D01*
X71730000Y-130380000D02*
X76920000Y-130380000D01*
X76920000Y-130380000D02*
X76920000Y-127620000D01*
D12*
X62000000Y-107000000D02*
X84000000Y-107000000D01*
X84000000Y-131000000D01*
X62000000Y-131000000D01*
X62000000Y-107000000D01*
D13*
%TO.C,J2*%
X98310000Y-22470000D02*
X113810000Y-22470000D01*
X98310000Y-31590000D02*
X98310000Y-22470000D01*
X99610000Y-23780000D02*
X112510000Y-23780000D01*
X99610000Y-30280000D02*
X99610000Y-23780000D01*
X103020000Y-32980000D02*
X104020000Y-32980000D01*
X103520000Y-31980000D02*
X103020000Y-32980000D01*
X104010000Y-30280000D02*
X99610000Y-30280000D01*
X104010000Y-31590000D02*
X104010000Y-30280000D01*
X104020000Y-32980000D02*
X103520000Y-31980000D01*
X108110000Y-30280000D02*
X108110000Y-31590000D01*
X112510000Y-23780000D02*
X112510000Y-30280000D01*
X112510000Y-30280000D02*
X108110000Y-30280000D01*
X113810000Y-22470000D02*
X113810000Y-31590000D01*
X113810000Y-31590000D02*
X98310000Y-31590000D01*
D14*
%TO.C,G\u002A\u002A\u002A*%
G36*
X147130805Y-163316464D02*
G01*
X147291653Y-163490912D01*
X147336929Y-163587207D01*
X147271977Y-163585986D01*
X147102140Y-163467883D01*
X147091480Y-163458974D01*
X146840627Y-163247895D01*
X146062994Y-163416461D01*
X145592184Y-163520589D01*
X145276520Y-163598892D01*
X145105194Y-163659206D01*
X145067398Y-163709371D01*
X145152324Y-163757223D01*
X145349166Y-163810601D01*
X145478738Y-163840153D01*
X145799579Y-163903246D01*
X146011708Y-163917866D01*
X146168417Y-163884818D01*
X146240738Y-163851667D01*
X146593940Y-163743536D01*
X146915617Y-163799096D01*
X147160197Y-163978823D01*
X147340172Y-164142943D01*
X147529010Y-164237969D01*
X147762627Y-164267261D01*
X148076943Y-164234179D01*
X148507875Y-164142084D01*
X148617970Y-164115209D01*
X149063265Y-164007870D01*
X149377420Y-163944100D01*
X149592959Y-163924025D01*
X149742405Y-163947767D01*
X149858285Y-164015451D01*
X149966686Y-164120333D01*
X150101280Y-164296783D01*
X150102933Y-164379046D01*
X149986918Y-164354821D01*
X149812013Y-164244886D01*
X149559049Y-164057862D01*
X148737072Y-164275605D01*
X148390479Y-164369414D01*
X148113003Y-164448298D01*
X147940121Y-164501950D01*
X147900456Y-164518674D01*
X147846103Y-164595604D01*
X147724281Y-164762856D01*
X147643309Y-164873024D01*
X147459216Y-165146643D01*
X147279232Y-165453514D01*
X147127678Y-165747332D01*
X147028875Y-165981793D01*
X147004020Y-166090167D01*
X147058467Y-166155401D01*
X147238847Y-166157349D01*
X147336260Y-166143817D01*
X147628640Y-166137385D01*
X148020483Y-166181701D01*
X148453861Y-166265040D01*
X148870848Y-166375679D01*
X149213517Y-166501894D01*
X149289666Y-166539175D01*
X149508694Y-166643047D01*
X149827512Y-166779253D01*
X150186637Y-166922634D01*
X150284499Y-166959955D01*
X150673052Y-167123184D01*
X150905560Y-167269577D01*
X150991985Y-167415687D01*
X150942292Y-167578066D01*
X150771333Y-167768748D01*
X150597413Y-168034517D01*
X150575958Y-168350765D01*
X150686666Y-168650333D01*
X150787461Y-168849998D01*
X150787691Y-168965499D01*
X150681024Y-169053364D01*
X150638920Y-169076563D01*
X150444921Y-169123280D01*
X150363754Y-169091770D01*
X150203112Y-169009055D01*
X150069901Y-168966055D01*
X149940982Y-168960562D01*
X149838152Y-169042032D01*
X149723966Y-169243845D01*
X149698601Y-169297050D01*
X149564478Y-169538177D01*
X149440919Y-169645768D01*
X149341700Y-169657843D01*
X149116757Y-169667125D01*
X148950999Y-169699486D01*
X148804944Y-169772341D01*
X148741831Y-169918135D01*
X148729173Y-170072366D01*
X148699268Y-170309569D01*
X148630115Y-170639046D01*
X148536204Y-170992490D01*
X148528578Y-171018024D01*
X148338142Y-171650048D01*
X148517570Y-171769184D01*
X148658022Y-171909052D01*
X148689923Y-172040854D01*
X148607403Y-172116870D01*
X148560941Y-172121667D01*
X148467416Y-172165719D01*
X148485880Y-172269833D01*
X148578743Y-172550650D01*
X148570792Y-172695938D01*
X148462511Y-172705175D01*
X148254384Y-172577837D01*
X148222835Y-172553442D01*
X148090148Y-172460885D01*
X147971591Y-172435695D01*
X147803082Y-172476407D01*
X147630199Y-172539871D01*
X147388578Y-172647717D01*
X147216078Y-172754129D01*
X147174683Y-172796275D01*
X147068147Y-172860473D01*
X146939253Y-172774279D01*
X146807105Y-172551479D01*
X146794216Y-172521670D01*
X146686155Y-172264669D01*
X146529366Y-172510668D01*
X146397949Y-172696624D01*
X146291311Y-172814795D01*
X146285955Y-172818870D01*
X146122253Y-172878248D01*
X145946468Y-172870546D01*
X145831222Y-172804509D01*
X145818333Y-172762555D01*
X145746289Y-172657434D01*
X145628697Y-172614388D01*
X145449726Y-172542730D01*
X145411150Y-172428649D01*
X145427350Y-172409764D01*
X145609107Y-172409764D01*
X145611937Y-172468863D01*
X145733763Y-172522444D01*
X145931788Y-172509609D01*
X146099305Y-172486246D01*
X146126020Y-172518689D01*
X146090853Y-172560346D01*
X146000677Y-172686967D01*
X145987666Y-172734245D01*
X146037784Y-172768886D01*
X146159107Y-172708903D01*
X146308086Y-172584194D01*
X146441174Y-172424656D01*
X146443294Y-172421438D01*
X146602152Y-172244309D01*
X146742167Y-172234382D01*
X146870412Y-172392565D01*
X146911226Y-172481500D01*
X146993462Y-172646293D01*
X147045085Y-172657589D01*
X147062142Y-172612937D01*
X147054692Y-172421586D01*
X147014147Y-172310584D01*
X146966902Y-172121667D01*
X147003666Y-172121667D01*
X147077351Y-172180669D01*
X147255370Y-172206300D01*
X147262663Y-172206333D01*
X147439343Y-172230458D01*
X147464774Y-172298376D01*
X147346228Y-172357302D01*
X147254445Y-172350292D01*
X147143749Y-172352946D01*
X147148676Y-172434404D01*
X147197324Y-172504801D01*
X147292705Y-172517776D01*
X147471409Y-172469002D01*
X147746300Y-172363688D01*
X147969461Y-172297801D01*
X148131219Y-172324463D01*
X148190800Y-172357142D01*
X148317830Y-172408353D01*
X148358333Y-172381381D01*
X148296753Y-172265992D01*
X148273666Y-172248667D01*
X148190351Y-172141453D01*
X148252910Y-172056133D01*
X148358333Y-172037000D01*
X148495913Y-172001544D01*
X148527666Y-171952333D01*
X148459089Y-171877219D01*
X148400666Y-171867667D01*
X148304988Y-171794096D01*
X148275776Y-171589788D01*
X148312102Y-171279351D01*
X148413035Y-170887390D01*
X148440917Y-170801309D01*
X148534207Y-170466489D01*
X148591497Y-170146948D01*
X148609511Y-169881802D01*
X148584974Y-169710168D01*
X148535979Y-169666333D01*
X148488077Y-169743227D01*
X148438612Y-169943813D01*
X148401913Y-170195500D01*
X148323800Y-170742682D01*
X148220014Y-171218310D01*
X148098820Y-171593253D01*
X147968484Y-171838384D01*
X147921402Y-171888833D01*
X147683223Y-172000387D01*
X147375286Y-172037000D01*
X147151341Y-172054214D01*
X147018979Y-172097656D01*
X147003666Y-172121667D01*
X146966902Y-172121667D01*
X146951756Y-172061105D01*
X146953514Y-171777757D01*
X147062635Y-171777757D01*
X147064235Y-171784662D01*
X147172271Y-171907763D01*
X147372560Y-171955392D01*
X147605310Y-171926613D01*
X147810727Y-171820489D01*
X147836586Y-171796746D01*
X147940331Y-171627756D01*
X148048111Y-171351747D01*
X148144577Y-171025327D01*
X148214378Y-170705102D01*
X148242166Y-170447680D01*
X148230937Y-170342421D01*
X148229860Y-170189620D01*
X148270222Y-170134128D01*
X148334076Y-170017822D01*
X148358333Y-169833933D01*
X148338376Y-169673685D01*
X148248477Y-169577990D01*
X148043589Y-169504002D01*
X147998499Y-169491684D01*
X147760562Y-169422238D01*
X147592682Y-169363083D01*
X147561844Y-169348191D01*
X147525742Y-169392929D01*
X147525375Y-169569629D01*
X147539853Y-169701236D01*
X147551214Y-170068856D01*
X147465898Y-170350309D01*
X147339740Y-170635729D01*
X147222085Y-170972068D01*
X147127184Y-171308443D01*
X147069284Y-171593967D01*
X147062635Y-171777757D01*
X146953514Y-171777757D01*
X146953966Y-171704844D01*
X147015399Y-171289219D01*
X147130676Y-170861645D01*
X147199614Y-170675690D01*
X147315369Y-170340382D01*
X147392502Y-170013698D01*
X147427623Y-169730260D01*
X147417346Y-169524693D01*
X147358283Y-169431618D01*
X147321166Y-169433329D01*
X147255431Y-169533941D01*
X147195770Y-169768906D01*
X147156157Y-170054217D01*
X147041456Y-170647889D01*
X146831192Y-171218709D01*
X146547746Y-171717177D01*
X146247561Y-172063935D01*
X146022904Y-172239424D01*
X145819766Y-172352493D01*
X145728425Y-172375667D01*
X145609107Y-172409764D01*
X145427350Y-172409764D01*
X145507712Y-172316086D01*
X145671337Y-172258004D01*
X146000450Y-172112378D01*
X146319849Y-171804942D01*
X146622614Y-171343196D01*
X146751288Y-171087704D01*
X146891304Y-170761014D01*
X146974317Y-170476715D01*
X147016040Y-170162029D01*
X147031313Y-169790797D01*
X147033155Y-169423493D01*
X147017057Y-169190126D01*
X146977550Y-169055761D01*
X146909164Y-168985460D01*
X146904830Y-168982968D01*
X146780286Y-168874243D01*
X146603562Y-168674555D01*
X146458088Y-168487478D01*
X146300464Y-168253509D01*
X146196707Y-168033829D01*
X146126924Y-167770422D01*
X146071219Y-167405275D01*
X146062229Y-167333087D01*
X146027422Y-166911584D01*
X149712999Y-166911584D01*
X149749519Y-167000375D01*
X149843492Y-167190115D01*
X149929506Y-167354686D01*
X150058839Y-167638470D01*
X150119270Y-167908892D01*
X150128259Y-168250209D01*
X150126516Y-168305417D01*
X150122590Y-168608260D01*
X150144671Y-168784630D01*
X150202686Y-168876624D01*
X150269842Y-168913300D01*
X150508161Y-168978357D01*
X150631068Y-168946210D01*
X150644333Y-168901354D01*
X150601416Y-168771807D01*
X150509850Y-168608462D01*
X150419948Y-168324652D01*
X150478491Y-167998628D01*
X150679892Y-167658521D01*
X150704374Y-167628729D01*
X150829389Y-167456844D01*
X150877303Y-167341786D01*
X150872190Y-167325968D01*
X150774719Y-167273989D01*
X150576945Y-167192441D01*
X150326139Y-167098223D01*
X150069575Y-167008235D01*
X149854524Y-166939373D01*
X149728258Y-166908538D01*
X149712999Y-166911584D01*
X146027422Y-166911584D01*
X146012824Y-166734814D01*
X146031241Y-166255131D01*
X146121448Y-165855797D01*
X146244723Y-165574516D01*
X146332178Y-165368579D01*
X146551215Y-165368579D01*
X146633593Y-165424032D01*
X146798743Y-165433000D01*
X147006644Y-165408046D01*
X147130789Y-165347498D01*
X147134147Y-165342700D01*
X147163537Y-165250370D01*
X147091649Y-165181585D01*
X146887830Y-165109782D01*
X146854117Y-165100007D01*
X146672615Y-165063581D01*
X146590302Y-165114993D01*
X146558026Y-165229620D01*
X146551215Y-165368579D01*
X146332178Y-165368579D01*
X146375912Y-165265595D01*
X146402654Y-165036299D01*
X146322833Y-164910153D01*
X146305166Y-164902778D01*
X146154670Y-164904921D01*
X145899284Y-164956739D01*
X145590524Y-165043015D01*
X145279906Y-165148534D01*
X145018948Y-165258083D01*
X144919064Y-165312155D01*
X144589685Y-165552239D01*
X144282197Y-165837441D01*
X144049690Y-166116183D01*
X143988601Y-166216166D01*
X143854141Y-166379624D01*
X143701098Y-166448526D01*
X143577841Y-166415253D01*
X143535634Y-166297286D01*
X143670222Y-166297286D01*
X143742084Y-166290304D01*
X143853337Y-166167616D01*
X143872573Y-166138534D01*
X144044734Y-165895816D01*
X144223062Y-165677740D01*
X144482916Y-165457642D01*
X144853334Y-165231232D01*
X145279151Y-165026960D01*
X145705202Y-164873274D01*
X145861595Y-164832724D01*
X146113912Y-164773641D01*
X146282693Y-164729105D01*
X146326332Y-164712494D01*
X146300575Y-164618877D01*
X146240989Y-164450557D01*
X146174104Y-164277979D01*
X146126447Y-164171583D01*
X146119391Y-164163000D01*
X146010589Y-164203842D01*
X145796335Y-164312254D01*
X145515396Y-164467063D01*
X145206539Y-164647097D01*
X144987262Y-164781316D01*
X144728132Y-164971659D01*
X144450999Y-165220188D01*
X144181279Y-165497651D01*
X143944388Y-165774791D01*
X143765741Y-166022355D01*
X143670755Y-166211088D01*
X143670222Y-166297286D01*
X143535634Y-166297286D01*
X143532332Y-166288056D01*
X143587315Y-166123791D01*
X143731944Y-165879813D01*
X143935745Y-165595759D01*
X144168240Y-165311264D01*
X144398954Y-165065965D01*
X144597411Y-164899497D01*
X144602613Y-164896093D01*
X144781816Y-164766765D01*
X144879795Y-164670198D01*
X144885951Y-164654313D01*
X144849752Y-164551977D01*
X144755747Y-164353050D01*
X144675332Y-164197203D01*
X144555608Y-163955185D01*
X144549799Y-163940993D01*
X146392752Y-163940993D01*
X146410482Y-164015568D01*
X146577697Y-164083505D01*
X146664999Y-164101967D01*
X146916941Y-164142224D01*
X147043860Y-164144036D01*
X147086093Y-164105433D01*
X147088333Y-164081312D01*
X147014599Y-163965556D01*
X146836443Y-163884536D01*
X146618435Y-163862221D01*
X146533538Y-163875352D01*
X146392752Y-163940993D01*
X144549799Y-163940993D01*
X144478876Y-163767713D01*
X144463666Y-163703676D01*
X144543050Y-163652204D01*
X144764926Y-163578950D01*
X145104878Y-163490687D01*
X145538489Y-163394191D01*
X145691472Y-163362992D01*
X146919278Y-163117745D01*
X147130805Y-163316464D01*
G37*
D12*
%TO.C,J4*%
X146100000Y-69975062D02*
G75*
G02*
X134100000Y-69975062I-6000000J0D01*
G01*
X134100000Y-69975062D02*
G75*
G02*
X146100000Y-69975062I6000000J0D01*
G01*
D13*
%TO.C,D7*%
X77245000Y-39635000D02*
X74155000Y-39635000D01*
X75700000Y-45185000D02*
G75*
G02*
X74155170Y-39635000I0J2990000D01*
G01*
X77244830Y-39635000D02*
G75*
G02*
X75700000Y-45185000I-1544830J-2560000D01*
G01*
X78200000Y-42195000D02*
G75*
G02*
X73200000Y-42195000I-2500000J0D01*
G01*
X73200000Y-42195000D02*
G75*
G02*
X78200000Y-42195000I2500000J0D01*
G01*
D12*
%TO.C,J7*%
X101275062Y-100700000D02*
G75*
G02*
X89275062Y-100700000I-6000000J0D01*
G01*
X89275062Y-100700000D02*
G75*
G02*
X101275062Y-100700000I6000000J0D01*
G01*
D13*
%TO.C,RV1*%
X113180000Y-82180000D02*
X113180000Y-80800000D01*
X114560000Y-82180000D02*
X113180000Y-82180000D01*
X115830000Y-79420000D02*
X121020000Y-79420000D01*
X115830000Y-82180000D02*
X115830000Y-79420000D01*
X115830000Y-82180000D02*
X121020000Y-82180000D01*
X121020000Y-82180000D02*
X121020000Y-79420000D01*
D12*
X106100000Y-58800000D02*
X128100000Y-58800000D01*
X128100000Y-82800000D01*
X106100000Y-82800000D01*
X106100000Y-58800000D01*
%TD*%
M02*
