%TF.GenerationSoftware,KiCad,Pcbnew,9.0.7*%
%TF.CreationDate,2026-03-23T00:03:13+11:00*%
%TF.ProjectId,pattern-sequencer,70617474-6572-46e2-9d73-657175656e63,rev?*%
%TF.SameCoordinates,Original*%
%TF.FileFunction,Copper,L2,Bot*%
%TF.FilePolarity,Positive*%
%FSLAX46Y46*%
G04 Gerber Fmt 4.6, Leading zero omitted, Abs format (unit mm)*
G04 Created by KiCad (PCBNEW 9.0.7) date 2026-03-23 00:03:13*
%MOMM*%
%LPD*%
G01*
G04 APERTURE LIST*
G04 Aperture macros list*
%AMRoundRect*
0 Rectangle with rounded corners*
0 $1 Rounding radius*
0 $2 $3 $4 $5 $6 $7 $8 $9 X,Y pos of 4 corners*
0 Add a 4 corners polygon primitive as box body*
4,1,4,$2,$3,$4,$5,$6,$7,$8,$9,$2,$3,0*
0 Add four circle primitives for the rounded corners*
1,1,$1+$1,$2,$3*
1,1,$1+$1,$4,$5*
1,1,$1+$1,$6,$7*
1,1,$1+$1,$8,$9*
0 Add four rect primitives between the rounded corners*
20,1,$1+$1,$2,$3,$4,$5,0*
20,1,$1+$1,$4,$5,$6,$7,0*
20,1,$1+$1,$6,$7,$8,$9,0*
20,1,$1+$1,$8,$9,$2,$3,0*%
G04 Aperture macros list end*
%TA.AperFunction,ComponentPad*%
%ADD10C,1.700000*%
%TD*%
%TA.AperFunction,ComponentPad*%
%ADD11R,1.700000X1.700000*%
%TD*%
%TA.AperFunction,ComponentPad*%
%ADD12R,2.000000X2.000000*%
%TD*%
%TA.AperFunction,ComponentPad*%
%ADD13C,2.000000*%
%TD*%
%TA.AperFunction,ComponentPad*%
%ADD14R,1.800000X1.800000*%
%TD*%
%TA.AperFunction,ComponentPad*%
%ADD15C,1.800000*%
%TD*%
%TA.AperFunction,ComponentPad*%
%ADD16RoundRect,0.250000X0.600000X-0.600000X0.600000X0.600000X-0.600000X0.600000X-0.600000X-0.600000X0*%
%TD*%
%TA.AperFunction,ComponentPad*%
%ADD17C,1.600000*%
%TD*%
%TA.AperFunction,ComponentPad*%
%ADD18C,8.000000*%
%TD*%
%TA.AperFunction,ComponentPad*%
%ADD19R,1.600000X1.600000*%
%TD*%
%TA.AperFunction,ComponentPad*%
%ADD20O,1.600000X1.600000*%
%TD*%
%TA.AperFunction,ComponentPad*%
%ADD21C,2.200000*%
%TD*%
%TA.AperFunction,ComponentPad*%
%ADD22O,3.750000X2.000000*%
%TD*%
%TA.AperFunction,ComponentPad*%
%ADD23O,2.200000X3.750000*%
%TD*%
%TA.AperFunction,Conductor*%
%ADD24C,0.200000*%
%TD*%
G04 APERTURE END LIST*
D10*
%TO.P,RV1,3,3*%
%TO.N,5V*%
X131980000Y-61800000D03*
%TO.P,RV1,2,2*%
%TO.N,Net-(A1-A6)*%
X129440000Y-61800000D03*
D11*
%TO.P,RV1,1,1*%
%TO.N,GND*%
X126900000Y-61800000D03*
%TD*%
D12*
%TO.P,J3,1,Pin_1*%
%TO.N,GND*%
X124365000Y-46445000D03*
D13*
%TO.P,J3,2,Pin_2*%
%TO.N,Net-(A1-A6)*%
X129445000Y-46445000D03*
%TO.P,J3,3,Pin_3*%
%TO.N,5V*%
X134445000Y-46445000D03*
%TD*%
D14*
%TO.P,D5,1,K*%
%TO.N,GND*%
X84625000Y-82835062D03*
D15*
%TO.P,D5,2,A*%
%TO.N,Net-(D5-A)*%
X87165000Y-82835062D03*
%TD*%
D14*
%TO.P,D11,1,K*%
%TO.N,GND*%
X88825000Y-48860000D03*
D15*
%TO.P,D11,2,A*%
%TO.N,Net-(D11-A)*%
X91365000Y-48860000D03*
%TD*%
D16*
%TO.P,J2,1,Pin_1*%
%TO.N,12V*%
X101320000Y-33140000D03*
D10*
%TO.P,J2,2,Pin_2*%
%TO.N,-12V*%
X101320000Y-30600000D03*
%TO.P,J2,3,Pin_3*%
%TO.N,GND*%
X103860000Y-33140000D03*
%TO.P,J2,4,Pin_4*%
X103860000Y-30600000D03*
%TO.P,J2,5,Pin_5*%
%TO.N,5V*%
X106400000Y-33140000D03*
%TO.P,J2,6,Pin_6*%
%TO.N,unconnected-(J2-Pin_6-Pad6)*%
X106400000Y-30600000D03*
%TD*%
D17*
%TO.P,R9,1*%
%TO.N,Net-(D4-A)*%
X78600317Y-77871894D03*
%TO.P,R9,2*%
%TO.N,Net-(A1-A5)*%
X68440317Y-77871894D03*
%TD*%
D18*
%TO.P,J8,1,Pin_1*%
%TO.N,Net-(J8-Pin_1)*%
X126080000Y-144000000D03*
%TD*%
%TO.P,J9,1,Pin_1*%
%TO.N,Net-(J9-Pin_1)*%
X73500000Y-92260000D03*
%TD*%
D17*
%TO.P,R16,1*%
%TO.N,Net-(J11-Pin_1)*%
X103163100Y-100042596D03*
%TO.P,R16,2*%
%TO.N,Net-(A1-A3)*%
X93003100Y-100042596D03*
%TD*%
D18*
%TO.P,J11,1,Pin_1*%
%TO.N,Net-(J11-Pin_1)*%
X98100000Y-92235062D03*
%TD*%
D17*
%TO.P,R22,1*%
%TO.N,Net-(SW4B-B)*%
X70600000Y-62700000D03*
%TO.P,R22,2*%
%TO.N,Net-(A1-D5)*%
X70600000Y-72860000D03*
%TD*%
D14*
%TO.P,D2,1,K*%
%TO.N,GND*%
X102693675Y-134108754D03*
D15*
%TO.P,D2,2,A*%
%TO.N,Net-(D2-A)*%
X105233675Y-134108754D03*
%TD*%
D17*
%TO.P,C5,1*%
%TO.N,Net-(C5-Pad1)*%
X112500000Y-136600000D03*
%TO.P,C5,2*%
%TO.N,GND*%
X117500000Y-136600000D03*
%TD*%
D19*
%TO.P,A1,1,D1/TX*%
%TO.N,Net-(A1-D1{slash}TX)*%
X98980000Y-126200000D03*
D20*
%TO.P,A1,2,D0/RX*%
%TO.N,Net-(A1-D0{slash}RX)*%
X101520000Y-126200000D03*
%TO.P,A1,3,~{RESET}*%
%TO.N,unconnected-(A1-~{RESET}-Pad3)*%
X104060000Y-126200000D03*
%TO.P,A1,4,GND*%
%TO.N,GND*%
X106600000Y-126200000D03*
%TO.P,A1,5,D2*%
%TO.N,Net-(A1-D2)*%
X109140000Y-126200000D03*
%TO.P,A1,6,D3*%
%TO.N,Net-(A1-D3)*%
X111680000Y-126200000D03*
%TO.P,A1,7,D4*%
%TO.N,Net-(A1-D4)*%
X114220000Y-126200000D03*
%TO.P,A1,8,D5*%
%TO.N,Net-(A1-D5)*%
X116760000Y-126200000D03*
%TO.P,A1,9,D6*%
%TO.N,Net-(A1-D6)*%
X119300000Y-126200000D03*
%TO.P,A1,10,D7*%
%TO.N,Net-(A1-D7)*%
X121840000Y-126200000D03*
%TO.P,A1,11,D8*%
%TO.N,Net-(A1-D8)*%
X124380000Y-126200000D03*
%TO.P,A1,12,D9*%
%TO.N,Net-(A1-D9)*%
X126920000Y-126200000D03*
%TO.P,A1,13,D10*%
%TO.N,Net-(A1-D10)*%
X129460000Y-126200000D03*
%TO.P,A1,14,D11*%
%TO.N,Net-(A1-D11)*%
X132000000Y-126200000D03*
%TO.P,A1,15,D12*%
%TO.N,Net-(A1-D12)*%
X134540000Y-126200000D03*
%TO.P,A1,16,D13*%
%TO.N,Net-(A1-D13)*%
X134540000Y-110960000D03*
%TO.P,A1,17,3V3*%
%TO.N,unconnected-(A1-3V3-Pad17)*%
X132000000Y-110960000D03*
%TO.P,A1,18,AREF*%
%TO.N,Net-(A1-AREF)*%
X129460000Y-110960000D03*
%TO.P,A1,19,A0*%
%TO.N,Net-(A1-A0)*%
X126920000Y-110960000D03*
%TO.P,A1,20,A1*%
%TO.N,Net-(A1-A1)*%
X124380000Y-110960000D03*
%TO.P,A1,21,A2*%
%TO.N,Net-(A1-A2)*%
X121840000Y-110960000D03*
%TO.P,A1,22,A3*%
%TO.N,Net-(A1-A3)*%
X119300000Y-110960000D03*
%TO.P,A1,23,A4*%
%TO.N,Net-(A1-A4)*%
X116760000Y-110960000D03*
%TO.P,A1,24,A5*%
%TO.N,Net-(A1-A5)*%
X114220000Y-110960000D03*
%TO.P,A1,25,A6*%
%TO.N,Net-(A1-A6)*%
X111680000Y-110960000D03*
%TO.P,A1,26,A7*%
%TO.N,Net-(A1-A7)*%
X109140000Y-110960000D03*
%TO.P,A1,27,+5V*%
%TO.N,5V*%
X106600000Y-110960000D03*
%TO.P,A1,28,~{RESET}*%
%TO.N,unconnected-(A1-~{RESET}-Pad28)*%
X104060000Y-110960000D03*
%TO.P,A1,29,GND*%
%TO.N,GND*%
X101520000Y-110960000D03*
%TO.P,A1,30,VIN*%
%TO.N,unconnected-(A1-VIN-Pad30)*%
X98980000Y-110960000D03*
%TD*%
D17*
%TO.P,R8,1*%
%TO.N,Net-(C4-Pad1)*%
X110020000Y-133800000D03*
%TO.P,R8,2*%
%TO.N,Net-(A1-D3)*%
X120180000Y-133800000D03*
%TD*%
%TO.P,C3,1*%
%TO.N,GND*%
X124459671Y-108157335D03*
%TO.P,C3,2*%
%TO.N,Net-(A1-AREF)*%
X129459671Y-108157335D03*
%TD*%
D11*
%TO.P,RV2,1,1*%
%TO.N,GND*%
X104055000Y-61790000D03*
D10*
%TO.P,RV2,2,2*%
%TO.N,Net-(A1-A7)*%
X106595000Y-61790000D03*
%TO.P,RV2,3,3*%
%TO.N,5V*%
X109135000Y-61790000D03*
%TD*%
D18*
%TO.P,J7,1,Pin_1*%
%TO.N,Net-(J7-Pin_1)*%
X103968675Y-144033692D03*
%TD*%
D17*
%TO.P,R5,1*%
%TO.N,Net-(J8-Pin_1)*%
X118120000Y-149100000D03*
%TO.P,R5,2*%
%TO.N,Net-(A1-D0{slash}RX)*%
X118120000Y-138940000D03*
%TD*%
%TO.P,R10,1*%
%TO.N,Net-(J9-Pin_1)*%
X78580000Y-100035062D03*
%TO.P,R10,2*%
%TO.N,Net-(A1-A5)*%
X68420000Y-100035062D03*
%TD*%
D14*
%TO.P,D9,1,K*%
%TO.N,GND*%
X109125000Y-82835062D03*
D15*
%TO.P,D9,2,A*%
%TO.N,Net-(D9-A)*%
X111665000Y-82835062D03*
%TD*%
D21*
%TO.P,SW3,1,1*%
%TO.N,GND*%
X128640000Y-155220000D03*
%TO.P,SW3,2,2*%
%TO.N,Net-(C5-Pad1)*%
X122290000Y-157760000D03*
%TD*%
%TO.P,SW6,1,1*%
%TO.N,GND*%
X79460000Y-115400000D03*
%TO.P,SW6,2,2*%
%TO.N,Net-(C6-Pad1)*%
X73110000Y-117940000D03*
%TD*%
D17*
%TO.P,R27,1*%
%TO.N,Net-(SW7-B)*%
X81900000Y-106207850D03*
%TO.P,R27,2*%
%TO.N,Net-(A1-D7)*%
X71740000Y-106207850D03*
%TD*%
%TO.P,R20,1*%
%TO.N,Net-(J12-Pin_1)*%
X115509605Y-100041419D03*
%TO.P,R20,2*%
%TO.N,Net-(A1-A2)*%
X105349605Y-100041419D03*
%TD*%
%TO.P,R6,1*%
%TO.N,Net-(D3-A)*%
X134120000Y-139000000D03*
%TO.P,R6,2*%
%TO.N,Net-(A1-D0{slash}RX)*%
X134120000Y-149160000D03*
%TD*%
D16*
%TO.P,J1,1,Pin_1*%
%TO.N,12V*%
X80400000Y-33160000D03*
D10*
%TO.P,J1,2,Pin_2*%
%TO.N,-12V*%
X80400000Y-30620000D03*
%TO.P,J1,3,Pin_3*%
%TO.N,GND*%
X82940000Y-33160000D03*
%TO.P,J1,4,Pin_4*%
X82940000Y-30620000D03*
%TO.P,J1,5,Pin_5*%
%TO.N,5V*%
X85480000Y-33160000D03*
%TO.P,J1,6,Pin_6*%
%TO.N,unconnected-(J1-Pin_6-Pad6)*%
X85480000Y-30620000D03*
%TD*%
D16*
%TO.P,J6,1,Pin_1*%
%TO.N,12V*%
X122020000Y-33040000D03*
D10*
%TO.P,J6,2,Pin_2*%
%TO.N,-12V*%
X122020000Y-30500000D03*
%TO.P,J6,3,Pin_3*%
%TO.N,GND*%
X124560000Y-33040000D03*
%TO.P,J6,4,Pin_4*%
X124560000Y-30500000D03*
%TO.P,J6,5,Pin_5*%
%TO.N,5V*%
X127100000Y-33040000D03*
%TO.P,J6,6,Pin_6*%
%TO.N,unconnected-(J6-Pin_6-Pad6)*%
X127100000Y-30500000D03*
%TD*%
D17*
%TO.P,C4,1*%
%TO.N,Net-(C4-Pad1)*%
X90400000Y-134100000D03*
%TO.P,C4,2*%
%TO.N,GND*%
X95400000Y-134100000D03*
%TD*%
D22*
%TO.P,SW5,1,C*%
%TO.N,unconnected-(SW5-C-Pad1)*%
X122700000Y-93560000D03*
%TO.P,SW5,2,B*%
%TO.N,Net-(SW5-B)*%
X122700000Y-89060000D03*
%TO.P,SW5,3,A*%
%TO.N,GND*%
X122700000Y-84560000D03*
%TD*%
D17*
%TO.P,R24,1*%
%TO.N,Net-(A1-A1)*%
X130000000Y-100060000D03*
%TO.P,R24,2*%
%TO.N,Net-(J13-Pin_1)*%
X140160000Y-100060000D03*
%TD*%
%TO.P,R21,1*%
%TO.N,Net-(SW4A-B)*%
X86800000Y-62720000D03*
%TO.P,R21,2*%
%TO.N,Net-(A1-D6)*%
X86800000Y-72880000D03*
%TD*%
D18*
%TO.P,J13,1,Pin_1*%
%TO.N,Net-(J13-Pin_1)*%
X135080000Y-92260000D03*
%TD*%
D17*
%TO.P,R18,1*%
%TO.N,Net-(D9-A)*%
X115560000Y-77864584D03*
%TO.P,R18,2*%
%TO.N,Net-(A1-A2)*%
X105400000Y-77864584D03*
%TD*%
%TO.P,C2,1*%
%TO.N,GND*%
X111500000Y-108060000D03*
%TO.P,C2,2*%
%TO.N,5V*%
X106500000Y-108060000D03*
%TD*%
%TO.P,R7,1*%
%TO.N,Net-(C1-Pad1)*%
X87820000Y-131308754D03*
%TO.P,R7,2*%
%TO.N,Net-(A1-D2)*%
X97980000Y-131308754D03*
%TD*%
D18*
%TO.P,J10,1,Pin_1*%
%TO.N,Net-(J10-Pin_1)*%
X85800000Y-92235062D03*
%TD*%
D17*
%TO.P,C1,1*%
%TO.N,Net-(C1-Pad1)*%
X90400000Y-136600000D03*
%TO.P,C1,2*%
%TO.N,GND*%
X95400000Y-136600000D03*
%TD*%
%TO.P,R17,1*%
%TO.N,Net-(D8-A)*%
X78620000Y-40960000D03*
%TO.P,R17,2*%
%TO.N,Net-(A1-D10)*%
X68460000Y-40960000D03*
%TD*%
%TO.P,R11,1*%
%TO.N,Net-(C5-Pad1)*%
X110020000Y-130700000D03*
%TO.P,R11,2*%
%TO.N,Net-(A1-D4)*%
X120180000Y-130700000D03*
%TD*%
D14*
%TO.P,D1,1,K*%
%TO.N,GND*%
X80445000Y-134100000D03*
D15*
%TO.P,D1,2,A*%
%TO.N,Net-(D1-A)*%
X82985000Y-134100000D03*
%TD*%
D17*
%TO.P,R14,1*%
%TO.N,Net-(D6-A)*%
X103231107Y-77865931D03*
%TO.P,R14,2*%
%TO.N,Net-(A1-A3)*%
X93071107Y-77865931D03*
%TD*%
%TO.P,R13,1*%
%TO.N,Net-(J10-Pin_1)*%
X90880000Y-100035062D03*
%TO.P,R13,2*%
%TO.N,Net-(A1-A4)*%
X80720000Y-100035062D03*
%TD*%
%TO.P,R15,1*%
%TO.N,Net-(D7-A)*%
X78620000Y-44060000D03*
%TO.P,R15,2*%
%TO.N,Net-(A1-D11)*%
X68460000Y-44060000D03*
%TD*%
%TO.P,R23,1*%
%TO.N,Net-(D11-A)*%
X92325000Y-40960000D03*
%TO.P,R23,2*%
%TO.N,Net-(A1-D8)*%
X82165000Y-40960000D03*
%TD*%
%TO.P,R2,1*%
%TO.N,Net-(D1-A)*%
X89664115Y-138909656D03*
%TO.P,R2,2*%
%TO.N,Net-(A1-D13)*%
X89664115Y-149069656D03*
%TD*%
%TO.P,R12,1*%
%TO.N,Net-(D5-A)*%
X90906609Y-77866350D03*
%TO.P,R12,2*%
%TO.N,Net-(A1-A4)*%
X80746609Y-77866350D03*
%TD*%
%TO.P,R4,1*%
%TO.N,Net-(D2-A)*%
X111908675Y-138948754D03*
%TO.P,R4,2*%
%TO.N,Net-(A1-D1{slash}TX)*%
X111908675Y-149108754D03*
%TD*%
D14*
%TO.P,D3,1,K*%
%TO.N,GND*%
X124805000Y-134000000D03*
D15*
%TO.P,D3,2,A*%
%TO.N,Net-(D3-A)*%
X127345000Y-134000000D03*
%TD*%
D21*
%TO.P,SW1,1,1*%
%TO.N,GND*%
X84260000Y-155220000D03*
%TO.P,SW1,2,2*%
%TO.N,Net-(C1-Pad1)*%
X77910000Y-157760000D03*
%TD*%
D18*
%TO.P,J5,1,Pin_1*%
%TO.N,Net-(J5-Pin_1)*%
X81720000Y-144024938D03*
%TD*%
%TO.P,J12,1,Pin_1*%
%TO.N,Net-(J12-Pin_1)*%
X110400000Y-92260000D03*
%TD*%
D17*
%TO.P,R26,1*%
%TO.N,Net-(C6-Pad1)*%
X81899832Y-109300000D03*
%TO.P,R26,2*%
%TO.N,Net-(A1-D12)*%
X71739832Y-109300000D03*
%TD*%
D14*
%TO.P,D6,1,K*%
%TO.N,GND*%
X96825000Y-82835062D03*
D15*
%TO.P,D6,2,A*%
%TO.N,Net-(D6-A)*%
X99365000Y-82835062D03*
%TD*%
D17*
%TO.P,R3,1*%
%TO.N,Net-(J7-Pin_1)*%
X96008675Y-149108754D03*
%TO.P,R3,2*%
%TO.N,Net-(A1-D1{slash}TX)*%
X96008675Y-138948754D03*
%TD*%
%TO.P,R28,1*%
%TO.N,Net-(D12-A)*%
X140160000Y-77860000D03*
%TO.P,R28,2*%
%TO.N,Net-(A1-A1)*%
X130000000Y-77860000D03*
%TD*%
D22*
%TO.P,SW7,1,C*%
%TO.N,unconnected-(SW7-C-Pad1)*%
X90700000Y-120400000D03*
%TO.P,SW7,2,B*%
%TO.N,Net-(SW7-B)*%
X90700000Y-115900000D03*
%TO.P,SW7,3,A*%
%TO.N,GND*%
X90700000Y-111400000D03*
%TD*%
D17*
%TO.P,R1,1*%
%TO.N,Net-(J5-Pin_1)*%
X73764115Y-149009656D03*
%TO.P,R1,2*%
%TO.N,Net-(A1-D13)*%
X73764115Y-138849656D03*
%TD*%
D14*
%TO.P,D7,1,K*%
%TO.N,GND*%
X69325000Y-48860000D03*
D15*
%TO.P,D7,2,A*%
%TO.N,Net-(D7-A)*%
X71865000Y-48860000D03*
%TD*%
D17*
%TO.P,R19,1*%
%TO.N,Net-(D10-A)*%
X92325000Y-44060000D03*
%TO.P,R19,2*%
%TO.N,Net-(A1-D9)*%
X82165000Y-44060000D03*
%TD*%
D14*
%TO.P,D12,1,K*%
%TO.N,GND*%
X133805000Y-82860000D03*
D15*
%TO.P,D12,2,A*%
%TO.N,Net-(D12-A)*%
X136345000Y-82860000D03*
%TD*%
D14*
%TO.P,D10,1,K*%
%TO.N,GND*%
X82325000Y-48860000D03*
D15*
%TO.P,D10,2,A*%
%TO.N,Net-(D10-A)*%
X84865000Y-48860000D03*
%TD*%
D17*
%TO.P,C6,1*%
%TO.N,Net-(C6-Pad1)*%
X72200000Y-136000000D03*
%TO.P,C6,2*%
%TO.N,GND*%
X77200000Y-136000000D03*
%TD*%
%TO.P,R25,1*%
%TO.N,Net-(A1-A0)*%
X127860000Y-100060000D03*
%TO.P,R25,2*%
%TO.N,Net-(SW5-B)*%
X117700000Y-100060000D03*
%TD*%
D14*
%TO.P,D8,1,K*%
%TO.N,GND*%
X75825000Y-48860000D03*
D15*
%TO.P,D8,2,A*%
%TO.N,Net-(D8-A)*%
X78365000Y-48860000D03*
%TD*%
D21*
%TO.P,SW2,1,1*%
%TO.N,GND*%
X106460000Y-155220000D03*
%TO.P,SW2,2,2*%
%TO.N,Net-(C4-Pad1)*%
X100110000Y-157760000D03*
%TD*%
D23*
%TO.P,SW4,1,A*%
%TO.N,GND*%
X83200000Y-70260000D03*
%TO.P,SW4,2,B*%
%TO.N,Net-(SW4A-B)*%
X78700000Y-70260000D03*
%TO.P,SW4,3,C*%
%TO.N,unconnected-(SW4A-C-Pad3)*%
X74200000Y-70260000D03*
%TO.P,SW4,4,A*%
%TO.N,GND*%
X83200000Y-65260000D03*
%TO.P,SW4,5,B*%
%TO.N,Net-(SW4B-B)*%
X78700000Y-65260000D03*
%TO.P,SW4,6,C*%
%TO.N,GND*%
X74200000Y-65260000D03*
%TD*%
D14*
%TO.P,D4,1,K*%
%TO.N,GND*%
X72225000Y-82835062D03*
D15*
%TO.P,D4,2,A*%
%TO.N,Net-(D4-A)*%
X74765000Y-82835062D03*
%TD*%
D12*
%TO.P,J4,1,Pin_1*%
%TO.N,GND*%
X101520000Y-46335000D03*
D13*
%TO.P,J4,2,Pin_2*%
%TO.N,Net-(A1-A7)*%
X106600000Y-46335000D03*
%TO.P,J4,3,Pin_3*%
%TO.N,5V*%
X111600000Y-46335000D03*
%TD*%
D24*
%TO.N,Net-(A1-A5)*%
X68420000Y-100035062D02*
X69521000Y-101136062D01*
X69521000Y-101136062D02*
X83718054Y-101136062D01*
X83718054Y-101136062D02*
X95444992Y-112863000D01*
X116414050Y-112863000D02*
X117861000Y-111416050D01*
X95444992Y-112863000D02*
X116414050Y-112863000D01*
X117861000Y-111416050D02*
X117861000Y-110503950D01*
X117861000Y-110503950D02*
X117216050Y-109859000D01*
X117216050Y-109859000D02*
X115321000Y-109859000D01*
X115321000Y-109859000D02*
X114220000Y-110960000D01*
%TO.N,Net-(A1-A4)*%
X116760000Y-110960000D02*
X115258000Y-112462000D01*
X115258000Y-112462000D02*
X98562000Y-112462000D01*
X98562000Y-112462000D02*
X86135062Y-100035062D01*
X86135062Y-100035062D02*
X80720000Y-100035062D01*
%TO.N,GND*%
X101520000Y-110960000D02*
X102621000Y-112061000D01*
X102621000Y-112061000D02*
X109596050Y-112061000D01*
X109596050Y-112061000D02*
X110500000Y-111157050D01*
X110500000Y-111157050D02*
X110500000Y-109060000D01*
X110500000Y-109060000D02*
X111500000Y-108060000D01*
%TO.N,Net-(D4-A)*%
X74765000Y-82835062D02*
X78600317Y-78999745D01*
X78600317Y-78999745D02*
X78600317Y-77871894D01*
%TO.N,Net-(J9-Pin_1)*%
X78580000Y-100035062D02*
X78580000Y-97340000D01*
X78580000Y-97340000D02*
X73500000Y-92260000D01*
%TO.N,Net-(SW7-B)*%
X81900000Y-106207850D02*
X88222742Y-106207850D01*
X88222742Y-106207850D02*
X92876000Y-110861108D01*
X92876000Y-110861108D02*
X92876000Y-113724000D01*
X92876000Y-113724000D02*
X90700000Y-115900000D01*
%TO.N,GND*%
X79460000Y-115400000D02*
X79460000Y-110182782D01*
X79460000Y-110182782D02*
X81443782Y-108199000D01*
X81443782Y-108199000D02*
X83147000Y-108199000D01*
X83147000Y-108199000D02*
X88524000Y-113576000D01*
X90700000Y-111400000D02*
X88524000Y-113576000D01*
X88524000Y-113576000D02*
X88524000Y-124177000D01*
X88524000Y-124177000D02*
X89446000Y-125099000D01*
%TO.N,Net-(C6-Pad1)*%
X73110000Y-117940000D02*
X73110000Y-135090000D01*
X73110000Y-135090000D02*
X72200000Y-136000000D01*
X81899832Y-109300000D02*
X81899832Y-114941482D01*
X81899832Y-114941482D02*
X78901314Y-117940000D01*
X78901314Y-117940000D02*
X73110000Y-117940000D01*
%TO.N,GND*%
X111500000Y-108060000D02*
X124362336Y-108060000D01*
X124362336Y-108060000D02*
X124459671Y-108157335D01*
X122700000Y-84560000D02*
X118801000Y-88459000D01*
X118801000Y-88459000D02*
X118801000Y-100759000D01*
X118801000Y-100759000D02*
X111500000Y-108060000D01*
%TO.N,Net-(A1-A7)*%
X106595000Y-61790000D02*
X112866000Y-68061000D01*
X109140000Y-104853974D02*
X109140000Y-110960000D01*
X112866000Y-68061000D02*
X112866000Y-88643467D01*
X114701000Y-99292974D02*
X109140000Y-104853974D01*
X112866000Y-88643467D02*
X114701000Y-90478467D01*
X114701000Y-90478467D02*
X114701000Y-99292974D01*
%TO.N,GND*%
X83200000Y-70260000D02*
X72225000Y-81235000D01*
X72225000Y-81235000D02*
X72225000Y-82835062D01*
X122700000Y-84560000D02*
X132105000Y-84560000D01*
X132105000Y-84560000D02*
X133805000Y-82860000D01*
X96825000Y-82835062D02*
X98026000Y-84036062D01*
X98026000Y-84036062D02*
X107924000Y-84036062D01*
X107924000Y-84036062D02*
X109125000Y-82835062D01*
X84625000Y-82835062D02*
X85826000Y-84036062D01*
X85826000Y-84036062D02*
X95624000Y-84036062D01*
X95624000Y-84036062D02*
X96825000Y-82835062D01*
X72225000Y-82835062D02*
X73426000Y-84036062D01*
X73426000Y-84036062D02*
X83424000Y-84036062D01*
X83424000Y-84036062D02*
X84625000Y-82835062D01*
%TO.N,12V*%
X101320000Y-33140000D02*
X102471000Y-34291000D01*
X102471000Y-34291000D02*
X120769000Y-34291000D01*
X120769000Y-34291000D02*
X122020000Y-33040000D01*
X80400000Y-33160000D02*
X81551000Y-34311000D01*
X81551000Y-34311000D02*
X100149000Y-34311000D01*
X100149000Y-34311000D02*
X101320000Y-33140000D01*
%TO.N,5V*%
X106400000Y-33140000D02*
X107889000Y-31651000D01*
X107889000Y-31651000D02*
X125711000Y-31651000D01*
X125711000Y-31651000D02*
X127100000Y-33040000D01*
X85480000Y-33160000D02*
X86889000Y-31751000D01*
X86889000Y-31751000D02*
X105011000Y-31751000D01*
X105011000Y-31751000D02*
X106400000Y-33140000D01*
%TO.N,Net-(A1-D1{slash}TX)*%
X98980000Y-126200000D02*
X96478000Y-128702000D01*
X96478000Y-133620950D02*
X96808674Y-133951624D01*
X96478000Y-128702000D02*
X96478000Y-133620950D01*
X96808674Y-133951624D02*
X96808674Y-138148755D01*
X96808674Y-138148755D02*
X96008675Y-138948754D01*
%TO.N,Net-(A1-D0{slash}RX)*%
X118120000Y-138940000D02*
X117027754Y-137847754D01*
X117027754Y-137847754D02*
X102961950Y-137847754D01*
X102961950Y-137847754D02*
X96879000Y-131764804D01*
X96879000Y-131764804D02*
X96879000Y-130841000D01*
X96879000Y-130841000D02*
X101520000Y-126200000D01*
%TO.N,Net-(A1-D2)*%
X109140000Y-126200000D02*
X104031246Y-131308754D01*
X104031246Y-131308754D02*
X97980000Y-131308754D01*
%TO.N,Net-(A1-D13)*%
X135800000Y-127100000D02*
X135400000Y-127500000D01*
X135800000Y-112220000D02*
X135800000Y-127100000D01*
X119221000Y-137194050D02*
X119221000Y-139396050D01*
X105750208Y-139732692D02*
X99001079Y-139732692D01*
X99001079Y-139732692D02*
X89664115Y-149069656D01*
X134540000Y-110960000D02*
X135800000Y-112220000D01*
X128915050Y-127500000D02*
X119221000Y-137194050D01*
X135400000Y-127500000D02*
X128915050Y-127500000D01*
X119221000Y-139396050D02*
X118567296Y-140049754D01*
X118567296Y-140049754D02*
X106067270Y-140049754D01*
X106067270Y-140049754D02*
X105750208Y-139732692D01*
%TO.N,Net-(A1-D4)*%
X114220000Y-126200000D02*
X118720000Y-130700000D01*
X118720000Y-130700000D02*
X120180000Y-130700000D01*
%TO.N,Net-(A1-D3)*%
X111680000Y-126200000D02*
X119280000Y-133800000D01*
X119280000Y-133800000D02*
X120180000Y-133800000D01*
%TO.N,GND*%
X89446000Y-125099000D02*
X80445000Y-134100000D01*
X80445000Y-134100000D02*
X81646000Y-132899000D01*
X81646000Y-132899000D02*
X94199000Y-132899000D01*
X94199000Y-132899000D02*
X95400000Y-134100000D01*
X117500000Y-136600000D02*
X116399000Y-135499000D01*
X116399000Y-135499000D02*
X104083921Y-135499000D01*
X104083921Y-135499000D02*
X102693675Y-134108754D01*
X106600000Y-126200000D02*
X105499000Y-125099000D01*
X105499000Y-125099000D02*
X89446000Y-125099000D01*
%TD*%
M02*
