M48
; DRILL file {KiCad 9.0.7} date 2026-03-23T00:03:15+1100
; FORMAT={-:-/ absolute / metric / decimal}
; #@! TF.CreationDate,2026-03-23T00:03:15+11:00
; #@! TF.GenerationSoftware,Kicad,Pcbnew,9.0.7
; #@! TF.FileFunction,Plated,1,2,PTH
FMAT,2
METRIC
; #@! TA.AperFunction,Plated,PTH,ComponentDrill
T1C0.800
; #@! TA.AperFunction,Plated,PTH,ComponentDrill
T2C0.900
; #@! TA.AperFunction,Plated,PTH,ComponentDrill
T3C1.000
; #@! TA.AperFunction,Plated,PTH,ComponentDrill
T4C1.200
; #@! TA.AperFunction,Plated,PTH,ComponentDrill
T5C1.500
; #@! TA.AperFunction,Plated,PTH,ComponentDrill
T6C6.000
%
G90
G05
T1
X68.42Y-100.035
X68.44Y-77.872
X68.46Y-40.96
X68.46Y-44.06
X70.6Y-62.7
X70.6Y-72.86
X71.74Y-109.3
X71.74Y-106.208
X72.2Y-136.0
X73.764Y-138.85
X73.764Y-149.01
X77.2Y-136.0
X78.58Y-100.035
X78.6Y-77.872
X78.62Y-40.96
X78.62Y-44.06
X80.72Y-100.035
X80.747Y-77.866
X81.9Y-109.3
X81.9Y-106.208
X82.165Y-40.96
X82.165Y-44.06
X86.8Y-62.72
X86.8Y-72.88
X87.82Y-131.309
X89.664Y-138.91
X89.664Y-149.07
X90.4Y-134.1
X90.4Y-136.6
X90.88Y-100.035
X90.907Y-77.866
X92.325Y-40.96
X92.325Y-44.06
X93.003Y-100.043
X93.071Y-77.866
X95.4Y-134.1
X95.4Y-136.6
X96.009Y-138.949
X96.009Y-149.109
X97.98Y-131.309
X103.163Y-100.043
X103.231Y-77.866
X105.35Y-100.041
X105.4Y-77.865
X106.5Y-108.06
X110.02Y-130.7
X110.02Y-133.8
X111.5Y-108.06
X111.909Y-138.949
X111.909Y-149.109
X112.5Y-136.6
X115.51Y-100.041
X115.56Y-77.865
X117.5Y-136.6
X117.7Y-100.06
X118.12Y-138.94
X118.12Y-149.1
X120.18Y-130.7
X120.18Y-133.8
X124.46Y-108.157
X127.86Y-100.06
X129.46Y-108.157
X130.0Y-77.86
X130.0Y-100.06
X134.12Y-139.0
X134.12Y-149.16
X140.16Y-77.86
X140.16Y-100.06
T2
X69.325Y-48.86
X71.865Y-48.86
X72.225Y-82.835
X74.765Y-82.835
X75.825Y-48.86
X78.365Y-48.86
X80.445Y-134.1
X82.325Y-48.86
X82.985Y-134.1
X84.625Y-82.835
X84.865Y-48.86
X87.165Y-82.835
X88.825Y-48.86
X91.365Y-48.86
X96.825Y-82.835
X99.365Y-82.835
X102.694Y-134.109
X105.234Y-134.109
X109.125Y-82.835
X111.665Y-82.835
X124.805Y-134.0
X127.345Y-134.0
X133.805Y-82.86
X136.345Y-82.86
T3
X80.4Y-30.62
X80.4Y-33.16
X82.94Y-30.62
X82.94Y-33.16
X85.48Y-30.62
X85.48Y-33.16
X98.98Y-110.96
X98.98Y-126.2
X101.32Y-30.6
X101.32Y-33.14
X101.52Y-110.96
X101.52Y-126.2
X103.86Y-30.6
X103.86Y-33.14
X104.055Y-61.79
X104.06Y-110.96
X104.06Y-126.2
X106.4Y-30.6
X106.4Y-33.14
X106.595Y-61.79
X106.6Y-110.96
X106.6Y-126.2
X109.135Y-61.79
X109.14Y-110.96
X109.14Y-126.2
X111.68Y-110.96
X111.68Y-126.2
X114.22Y-110.96
X114.22Y-126.2
X116.76Y-110.96
X116.76Y-126.2
X119.3Y-110.96
X119.3Y-126.2
X121.84Y-110.96
X121.84Y-126.2
X122.02Y-30.5
X122.02Y-33.04
X124.38Y-110.96
X124.38Y-126.2
X124.56Y-30.5
X124.56Y-33.04
X126.9Y-61.8
X126.92Y-110.96
X126.92Y-126.2
X127.1Y-30.5
X127.1Y-33.04
X129.44Y-61.8
X129.46Y-110.96
X129.46Y-126.2
X131.98Y-61.8
X132.0Y-110.96
X132.0Y-126.2
X134.54Y-110.96
X134.54Y-126.2
T4
X101.52Y-46.335
X106.6Y-46.335
X111.6Y-46.335
X124.365Y-46.445
X129.445Y-46.445
X134.445Y-46.445
T5
X73.11Y-117.94
X77.91Y-157.76
X79.46Y-115.4
X84.26Y-155.22
X100.11Y-157.76
X106.46Y-155.22
X122.29Y-157.76
X128.64Y-155.22
T6
X73.5Y-92.26
X81.72Y-144.025
X85.8Y-92.235
X98.1Y-92.235
X103.969Y-144.034
X110.4Y-92.26
X126.08Y-144.0
X135.08Y-92.26
T3
G00X89.825Y-111.4
M15
G01X91.575Y-111.4
M16
G05
G00X89.825Y-115.9
M15
G01X91.575Y-115.9
M16
G05
G00X89.825Y-120.4
M15
G01X91.575Y-120.4
M16
G05
G00X121.825Y-84.56
M15
G01X123.575Y-84.56
M16
G05
G00X121.825Y-89.06
M15
G01X123.575Y-89.06
M16
G05
G00X121.825Y-93.56
M15
G01X123.575Y-93.56
M16
G05
T4
G00X74.2Y-66.035
M15
G01X74.2Y-64.485
M16
G05
G00X74.2Y-71.035
M15
G01X74.2Y-69.485
M16
G05
G00X78.7Y-66.035
M15
G01X78.7Y-64.485
M16
G05
G00X78.7Y-71.035
M15
G01X78.7Y-69.485
M16
G05
G00X83.2Y-66.035
M15
G01X83.2Y-64.485
M16
G05
G00X83.2Y-71.035
M15
G01X83.2Y-69.485
M16
G05
M30
