M48
; DRILL file {KiCad 9.0.6} date 2026-01-10T14:45:51+1100
; FORMAT={-:-/ absolute / metric / decimal}
; #@! TF.CreationDate,2026-01-10T14:45:51+11:00
; #@! TF.GenerationSoftware,Kicad,Pcbnew,9.0.6
; #@! TF.FileFunction,Plated,1,2,PTH
FMAT,2
METRIC
; #@! TA.AperFunction,Plated,PTH,ComponentDrill
T1C1.000
%
G90
G05
T1
X52.46Y-77.0
X52.46Y-79.54
X52.46Y-82.08
X52.565Y-58.42
X52.565Y-60.96
X52.565Y-63.5
X55.0Y-77.0
X55.0Y-79.54
X55.0Y-82.08
X55.105Y-58.42
X55.105Y-60.96
X55.105Y-63.5
X64.445Y-77.0
X64.445Y-79.54
X64.445Y-82.08
X64.55Y-58.42
X64.55Y-60.96
X64.55Y-63.5
X66.985Y-77.0
X66.985Y-79.54
X66.985Y-82.08
X67.09Y-58.42
X67.09Y-60.96
X67.09Y-63.5
X76.43Y-77.0
X76.43Y-79.54
X76.43Y-82.08
X76.535Y-58.42
X76.535Y-60.96
X76.535Y-63.5
X78.97Y-77.0
X78.97Y-79.54
X78.97Y-82.08
X79.075Y-58.42
X79.075Y-60.96
X79.075Y-63.5
X88.415Y-77.0
X88.415Y-79.54
X88.415Y-82.08
X88.52Y-58.42
X88.52Y-60.96
X88.52Y-63.5
X90.955Y-77.0
X90.955Y-79.54
X90.955Y-82.08
X91.06Y-58.42
X91.06Y-60.96
X91.06Y-63.5
M30
