%TF.GenerationSoftware,KiCad,Pcbnew,9.0.6*%
%TF.CreationDate,2026-01-10T14:45:50+11:00*%
%TF.ProjectId,power-expander,706f7765-722d-4657-9870-616e6465722e,rev?*%
%TF.SameCoordinates,Original*%
%TF.FileFunction,Legend,Top*%
%TF.FilePolarity,Positive*%
%FSLAX46Y46*%
G04 Gerber Fmt 4.6, Leading zero omitted, Abs format (unit mm)*
G04 Created by KiCad (PCBNEW 9.0.6) date 2026-01-10 14:45:50*
%MOMM*%
%LPD*%
G01*
G04 APERTURE LIST*
%ADD10C,0.150000*%
%ADD11C,0.000000*%
%ADD12C,0.120000*%
G04 APERTURE END LIST*
D10*
X47690476Y-96954819D02*
X47690476Y-95954819D01*
X47690476Y-95954819D02*
X48071428Y-95954819D01*
X48071428Y-95954819D02*
X48166666Y-96002438D01*
X48166666Y-96002438D02*
X48214285Y-96050057D01*
X48214285Y-96050057D02*
X48261904Y-96145295D01*
X48261904Y-96145295D02*
X48261904Y-96288152D01*
X48261904Y-96288152D02*
X48214285Y-96383390D01*
X48214285Y-96383390D02*
X48166666Y-96431009D01*
X48166666Y-96431009D02*
X48071428Y-96478628D01*
X48071428Y-96478628D02*
X47690476Y-96478628D01*
X48880952Y-95954819D02*
X49071428Y-95954819D01*
X49071428Y-95954819D02*
X49166666Y-96002438D01*
X49166666Y-96002438D02*
X49261904Y-96097676D01*
X49261904Y-96097676D02*
X49309523Y-96288152D01*
X49309523Y-96288152D02*
X49309523Y-96621485D01*
X49309523Y-96621485D02*
X49261904Y-96811961D01*
X49261904Y-96811961D02*
X49166666Y-96907200D01*
X49166666Y-96907200D02*
X49071428Y-96954819D01*
X49071428Y-96954819D02*
X48880952Y-96954819D01*
X48880952Y-96954819D02*
X48785714Y-96907200D01*
X48785714Y-96907200D02*
X48690476Y-96811961D01*
X48690476Y-96811961D02*
X48642857Y-96621485D01*
X48642857Y-96621485D02*
X48642857Y-96288152D01*
X48642857Y-96288152D02*
X48690476Y-96097676D01*
X48690476Y-96097676D02*
X48785714Y-96002438D01*
X48785714Y-96002438D02*
X48880952Y-95954819D01*
X49642857Y-95954819D02*
X49880952Y-96954819D01*
X49880952Y-96954819D02*
X50071428Y-96240533D01*
X50071428Y-96240533D02*
X50261904Y-96954819D01*
X50261904Y-96954819D02*
X50500000Y-95954819D01*
X50880952Y-96431009D02*
X51214285Y-96431009D01*
X51357142Y-96954819D02*
X50880952Y-96954819D01*
X50880952Y-96954819D02*
X50880952Y-95954819D01*
X50880952Y-95954819D02*
X51357142Y-95954819D01*
X52357142Y-96954819D02*
X52023809Y-96478628D01*
X51785714Y-96954819D02*
X51785714Y-95954819D01*
X51785714Y-95954819D02*
X52166666Y-95954819D01*
X52166666Y-95954819D02*
X52261904Y-96002438D01*
X52261904Y-96002438D02*
X52309523Y-96050057D01*
X52309523Y-96050057D02*
X52357142Y-96145295D01*
X52357142Y-96145295D02*
X52357142Y-96288152D01*
X52357142Y-96288152D02*
X52309523Y-96383390D01*
X52309523Y-96383390D02*
X52261904Y-96431009D01*
X52261904Y-96431009D02*
X52166666Y-96478628D01*
X52166666Y-96478628D02*
X51785714Y-96478628D01*
X53547619Y-96431009D02*
X53880952Y-96431009D01*
X54023809Y-96954819D02*
X53547619Y-96954819D01*
X53547619Y-96954819D02*
X53547619Y-95954819D01*
X53547619Y-95954819D02*
X54023809Y-95954819D01*
X54357143Y-95954819D02*
X55023809Y-96954819D01*
X55023809Y-95954819D02*
X54357143Y-96954819D01*
X55404762Y-96954819D02*
X55404762Y-95954819D01*
X55404762Y-95954819D02*
X55785714Y-95954819D01*
X55785714Y-95954819D02*
X55880952Y-96002438D01*
X55880952Y-96002438D02*
X55928571Y-96050057D01*
X55928571Y-96050057D02*
X55976190Y-96145295D01*
X55976190Y-96145295D02*
X55976190Y-96288152D01*
X55976190Y-96288152D02*
X55928571Y-96383390D01*
X55928571Y-96383390D02*
X55880952Y-96431009D01*
X55880952Y-96431009D02*
X55785714Y-96478628D01*
X55785714Y-96478628D02*
X55404762Y-96478628D01*
X56357143Y-96669104D02*
X56833333Y-96669104D01*
X56261905Y-96954819D02*
X56595238Y-95954819D01*
X56595238Y-95954819D02*
X56928571Y-96954819D01*
X57261905Y-96954819D02*
X57261905Y-95954819D01*
X57261905Y-95954819D02*
X57833333Y-96954819D01*
X57833333Y-96954819D02*
X57833333Y-95954819D01*
X58309524Y-96954819D02*
X58309524Y-95954819D01*
X58309524Y-95954819D02*
X58547619Y-95954819D01*
X58547619Y-95954819D02*
X58690476Y-96002438D01*
X58690476Y-96002438D02*
X58785714Y-96097676D01*
X58785714Y-96097676D02*
X58833333Y-96192914D01*
X58833333Y-96192914D02*
X58880952Y-96383390D01*
X58880952Y-96383390D02*
X58880952Y-96526247D01*
X58880952Y-96526247D02*
X58833333Y-96716723D01*
X58833333Y-96716723D02*
X58785714Y-96811961D01*
X58785714Y-96811961D02*
X58690476Y-96907200D01*
X58690476Y-96907200D02*
X58547619Y-96954819D01*
X58547619Y-96954819D02*
X58309524Y-96954819D01*
X59309524Y-96431009D02*
X59642857Y-96431009D01*
X59785714Y-96954819D02*
X59309524Y-96954819D01*
X59309524Y-96954819D02*
X59309524Y-95954819D01*
X59309524Y-95954819D02*
X59785714Y-95954819D01*
X60785714Y-96954819D02*
X60452381Y-96478628D01*
X60214286Y-96954819D02*
X60214286Y-95954819D01*
X60214286Y-95954819D02*
X60595238Y-95954819D01*
X60595238Y-95954819D02*
X60690476Y-96002438D01*
X60690476Y-96002438D02*
X60738095Y-96050057D01*
X60738095Y-96050057D02*
X60785714Y-96145295D01*
X60785714Y-96145295D02*
X60785714Y-96288152D01*
X60785714Y-96288152D02*
X60738095Y-96383390D01*
X60738095Y-96383390D02*
X60690476Y-96431009D01*
X60690476Y-96431009D02*
X60595238Y-96478628D01*
X60595238Y-96478628D02*
X60214286Y-96478628D01*
X61833334Y-95954819D02*
X62166667Y-96954819D01*
X62166667Y-96954819D02*
X62500000Y-95954819D01*
X62785715Y-96050057D02*
X62833334Y-96002438D01*
X62833334Y-96002438D02*
X62928572Y-95954819D01*
X62928572Y-95954819D02*
X63166667Y-95954819D01*
X63166667Y-95954819D02*
X63261905Y-96002438D01*
X63261905Y-96002438D02*
X63309524Y-96050057D01*
X63309524Y-96050057D02*
X63357143Y-96145295D01*
X63357143Y-96145295D02*
X63357143Y-96240533D01*
X63357143Y-96240533D02*
X63309524Y-96383390D01*
X63309524Y-96383390D02*
X62738096Y-96954819D01*
X62738096Y-96954819D02*
X63357143Y-96954819D01*
X89351666Y-70354819D02*
X89351666Y-71069104D01*
X89351666Y-71069104D02*
X89304047Y-71211961D01*
X89304047Y-71211961D02*
X89208809Y-71307200D01*
X89208809Y-71307200D02*
X89065952Y-71354819D01*
X89065952Y-71354819D02*
X88970714Y-71354819D01*
X89970714Y-70783390D02*
X89875476Y-70735771D01*
X89875476Y-70735771D02*
X89827857Y-70688152D01*
X89827857Y-70688152D02*
X89780238Y-70592914D01*
X89780238Y-70592914D02*
X89780238Y-70545295D01*
X89780238Y-70545295D02*
X89827857Y-70450057D01*
X89827857Y-70450057D02*
X89875476Y-70402438D01*
X89875476Y-70402438D02*
X89970714Y-70354819D01*
X89970714Y-70354819D02*
X90161190Y-70354819D01*
X90161190Y-70354819D02*
X90256428Y-70402438D01*
X90256428Y-70402438D02*
X90304047Y-70450057D01*
X90304047Y-70450057D02*
X90351666Y-70545295D01*
X90351666Y-70545295D02*
X90351666Y-70592914D01*
X90351666Y-70592914D02*
X90304047Y-70688152D01*
X90304047Y-70688152D02*
X90256428Y-70735771D01*
X90256428Y-70735771D02*
X90161190Y-70783390D01*
X90161190Y-70783390D02*
X89970714Y-70783390D01*
X89970714Y-70783390D02*
X89875476Y-70831009D01*
X89875476Y-70831009D02*
X89827857Y-70878628D01*
X89827857Y-70878628D02*
X89780238Y-70973866D01*
X89780238Y-70973866D02*
X89780238Y-71164342D01*
X89780238Y-71164342D02*
X89827857Y-71259580D01*
X89827857Y-71259580D02*
X89875476Y-71307200D01*
X89875476Y-71307200D02*
X89970714Y-71354819D01*
X89970714Y-71354819D02*
X90161190Y-71354819D01*
X90161190Y-71354819D02*
X90256428Y-71307200D01*
X90256428Y-71307200D02*
X90304047Y-71259580D01*
X90304047Y-71259580D02*
X90351666Y-71164342D01*
X90351666Y-71164342D02*
X90351666Y-70973866D01*
X90351666Y-70973866D02*
X90304047Y-70878628D01*
X90304047Y-70878628D02*
X90256428Y-70831009D01*
X90256428Y-70831009D02*
X90161190Y-70783390D01*
X65381666Y-70354819D02*
X65381666Y-71069104D01*
X65381666Y-71069104D02*
X65334047Y-71211961D01*
X65334047Y-71211961D02*
X65238809Y-71307200D01*
X65238809Y-71307200D02*
X65095952Y-71354819D01*
X65095952Y-71354819D02*
X65000714Y-71354819D01*
X66286428Y-70354819D02*
X66095952Y-70354819D01*
X66095952Y-70354819D02*
X66000714Y-70402438D01*
X66000714Y-70402438D02*
X65953095Y-70450057D01*
X65953095Y-70450057D02*
X65857857Y-70592914D01*
X65857857Y-70592914D02*
X65810238Y-70783390D01*
X65810238Y-70783390D02*
X65810238Y-71164342D01*
X65810238Y-71164342D02*
X65857857Y-71259580D01*
X65857857Y-71259580D02*
X65905476Y-71307200D01*
X65905476Y-71307200D02*
X66000714Y-71354819D01*
X66000714Y-71354819D02*
X66191190Y-71354819D01*
X66191190Y-71354819D02*
X66286428Y-71307200D01*
X66286428Y-71307200D02*
X66334047Y-71259580D01*
X66334047Y-71259580D02*
X66381666Y-71164342D01*
X66381666Y-71164342D02*
X66381666Y-70926247D01*
X66381666Y-70926247D02*
X66334047Y-70831009D01*
X66334047Y-70831009D02*
X66286428Y-70783390D01*
X66286428Y-70783390D02*
X66191190Y-70735771D01*
X66191190Y-70735771D02*
X66000714Y-70735771D01*
X66000714Y-70735771D02*
X65905476Y-70783390D01*
X65905476Y-70783390D02*
X65857857Y-70831009D01*
X65857857Y-70831009D02*
X65810238Y-70926247D01*
X89456666Y-51774819D02*
X89456666Y-52489104D01*
X89456666Y-52489104D02*
X89409047Y-52631961D01*
X89409047Y-52631961D02*
X89313809Y-52727200D01*
X89313809Y-52727200D02*
X89170952Y-52774819D01*
X89170952Y-52774819D02*
X89075714Y-52774819D01*
X90361428Y-52108152D02*
X90361428Y-52774819D01*
X90123333Y-51727200D02*
X89885238Y-52441485D01*
X89885238Y-52441485D02*
X90504285Y-52441485D01*
X77366666Y-70354819D02*
X77366666Y-71069104D01*
X77366666Y-71069104D02*
X77319047Y-71211961D01*
X77319047Y-71211961D02*
X77223809Y-71307200D01*
X77223809Y-71307200D02*
X77080952Y-71354819D01*
X77080952Y-71354819D02*
X76985714Y-71354819D01*
X77747619Y-70354819D02*
X78414285Y-70354819D01*
X78414285Y-70354819D02*
X77985714Y-71354819D01*
X77471666Y-51774819D02*
X77471666Y-52489104D01*
X77471666Y-52489104D02*
X77424047Y-52631961D01*
X77424047Y-52631961D02*
X77328809Y-52727200D01*
X77328809Y-52727200D02*
X77185952Y-52774819D01*
X77185952Y-52774819D02*
X77090714Y-52774819D01*
X77852619Y-51774819D02*
X78471666Y-51774819D01*
X78471666Y-51774819D02*
X78138333Y-52155771D01*
X78138333Y-52155771D02*
X78281190Y-52155771D01*
X78281190Y-52155771D02*
X78376428Y-52203390D01*
X78376428Y-52203390D02*
X78424047Y-52251009D01*
X78424047Y-52251009D02*
X78471666Y-52346247D01*
X78471666Y-52346247D02*
X78471666Y-52584342D01*
X78471666Y-52584342D02*
X78424047Y-52679580D01*
X78424047Y-52679580D02*
X78376428Y-52727200D01*
X78376428Y-52727200D02*
X78281190Y-52774819D01*
X78281190Y-52774819D02*
X77995476Y-52774819D01*
X77995476Y-52774819D02*
X77900238Y-52727200D01*
X77900238Y-52727200D02*
X77852619Y-52679580D01*
X65486666Y-51774819D02*
X65486666Y-52489104D01*
X65486666Y-52489104D02*
X65439047Y-52631961D01*
X65439047Y-52631961D02*
X65343809Y-52727200D01*
X65343809Y-52727200D02*
X65200952Y-52774819D01*
X65200952Y-52774819D02*
X65105714Y-52774819D01*
X65915238Y-51870057D02*
X65962857Y-51822438D01*
X65962857Y-51822438D02*
X66058095Y-51774819D01*
X66058095Y-51774819D02*
X66296190Y-51774819D01*
X66296190Y-51774819D02*
X66391428Y-51822438D01*
X66391428Y-51822438D02*
X66439047Y-51870057D01*
X66439047Y-51870057D02*
X66486666Y-51965295D01*
X66486666Y-51965295D02*
X66486666Y-52060533D01*
X66486666Y-52060533D02*
X66439047Y-52203390D01*
X66439047Y-52203390D02*
X65867619Y-52774819D01*
X65867619Y-52774819D02*
X66486666Y-52774819D01*
X53396666Y-70354819D02*
X53396666Y-71069104D01*
X53396666Y-71069104D02*
X53349047Y-71211961D01*
X53349047Y-71211961D02*
X53253809Y-71307200D01*
X53253809Y-71307200D02*
X53110952Y-71354819D01*
X53110952Y-71354819D02*
X53015714Y-71354819D01*
X54349047Y-70354819D02*
X53872857Y-70354819D01*
X53872857Y-70354819D02*
X53825238Y-70831009D01*
X53825238Y-70831009D02*
X53872857Y-70783390D01*
X53872857Y-70783390D02*
X53968095Y-70735771D01*
X53968095Y-70735771D02*
X54206190Y-70735771D01*
X54206190Y-70735771D02*
X54301428Y-70783390D01*
X54301428Y-70783390D02*
X54349047Y-70831009D01*
X54349047Y-70831009D02*
X54396666Y-70926247D01*
X54396666Y-70926247D02*
X54396666Y-71164342D01*
X54396666Y-71164342D02*
X54349047Y-71259580D01*
X54349047Y-71259580D02*
X54301428Y-71307200D01*
X54301428Y-71307200D02*
X54206190Y-71354819D01*
X54206190Y-71354819D02*
X53968095Y-71354819D01*
X53968095Y-71354819D02*
X53872857Y-71307200D01*
X53872857Y-71307200D02*
X53825238Y-71259580D01*
X53501666Y-51774819D02*
X53501666Y-52489104D01*
X53501666Y-52489104D02*
X53454047Y-52631961D01*
X53454047Y-52631961D02*
X53358809Y-52727200D01*
X53358809Y-52727200D02*
X53215952Y-52774819D01*
X53215952Y-52774819D02*
X53120714Y-52774819D01*
X54501666Y-52774819D02*
X53930238Y-52774819D01*
X54215952Y-52774819D02*
X54215952Y-51774819D01*
X54215952Y-51774819D02*
X54120714Y-51917676D01*
X54120714Y-51917676D02*
X54025476Y-52012914D01*
X54025476Y-52012914D02*
X53930238Y-52060533D01*
D11*
%TO.C,G\u002A\u002A\u002A*%
G36*
X92830805Y-88216464D02*
G01*
X92991653Y-88390912D01*
X93036929Y-88487207D01*
X92971977Y-88485986D01*
X92802140Y-88367883D01*
X92791480Y-88358974D01*
X92540627Y-88147895D01*
X91762994Y-88316461D01*
X91292184Y-88420589D01*
X90976520Y-88498892D01*
X90805194Y-88559206D01*
X90767398Y-88609371D01*
X90852324Y-88657223D01*
X91049166Y-88710601D01*
X91178738Y-88740153D01*
X91499579Y-88803246D01*
X91711708Y-88817866D01*
X91868417Y-88784818D01*
X91940738Y-88751667D01*
X92293940Y-88643536D01*
X92615617Y-88699096D01*
X92860197Y-88878823D01*
X93040172Y-89042943D01*
X93229010Y-89137969D01*
X93462627Y-89167261D01*
X93776943Y-89134179D01*
X94207875Y-89042084D01*
X94317970Y-89015209D01*
X94763265Y-88907870D01*
X95077420Y-88844100D01*
X95292959Y-88824025D01*
X95442405Y-88847767D01*
X95558285Y-88915451D01*
X95666686Y-89020333D01*
X95801280Y-89196783D01*
X95802933Y-89279046D01*
X95686918Y-89254821D01*
X95512013Y-89144886D01*
X95259049Y-88957862D01*
X94437072Y-89175605D01*
X94090479Y-89269414D01*
X93813003Y-89348298D01*
X93640121Y-89401950D01*
X93600456Y-89418674D01*
X93546103Y-89495604D01*
X93424281Y-89662856D01*
X93343309Y-89773024D01*
X93159216Y-90046643D01*
X92979232Y-90353514D01*
X92827678Y-90647332D01*
X92728875Y-90881793D01*
X92704020Y-90990167D01*
X92758467Y-91055401D01*
X92938847Y-91057349D01*
X93036260Y-91043817D01*
X93328640Y-91037385D01*
X93720483Y-91081701D01*
X94153861Y-91165040D01*
X94570848Y-91275679D01*
X94913517Y-91401894D01*
X94989666Y-91439175D01*
X95208694Y-91543047D01*
X95527512Y-91679253D01*
X95886637Y-91822634D01*
X95984499Y-91859955D01*
X96373052Y-92023184D01*
X96605560Y-92169577D01*
X96691985Y-92315687D01*
X96642292Y-92478066D01*
X96471333Y-92668748D01*
X96297413Y-92934517D01*
X96275958Y-93250765D01*
X96386666Y-93550333D01*
X96487461Y-93749998D01*
X96487691Y-93865499D01*
X96381024Y-93953364D01*
X96338920Y-93976563D01*
X96144921Y-94023280D01*
X96063754Y-93991770D01*
X95903112Y-93909055D01*
X95769901Y-93866055D01*
X95640982Y-93860562D01*
X95538152Y-93942032D01*
X95423966Y-94143845D01*
X95398601Y-94197050D01*
X95264478Y-94438177D01*
X95140919Y-94545768D01*
X95041700Y-94557843D01*
X94816757Y-94567125D01*
X94650999Y-94599486D01*
X94504944Y-94672341D01*
X94441831Y-94818135D01*
X94429173Y-94972366D01*
X94399268Y-95209569D01*
X94330115Y-95539046D01*
X94236204Y-95892490D01*
X94228578Y-95918024D01*
X94038142Y-96550048D01*
X94217570Y-96669184D01*
X94358022Y-96809052D01*
X94389923Y-96940854D01*
X94307403Y-97016870D01*
X94260941Y-97021667D01*
X94167416Y-97065719D01*
X94185880Y-97169833D01*
X94278743Y-97450650D01*
X94270792Y-97595938D01*
X94162511Y-97605175D01*
X93954384Y-97477837D01*
X93922835Y-97453442D01*
X93790148Y-97360885D01*
X93671591Y-97335695D01*
X93503082Y-97376407D01*
X93330199Y-97439871D01*
X93088578Y-97547717D01*
X92916078Y-97654129D01*
X92874683Y-97696275D01*
X92768147Y-97760473D01*
X92639253Y-97674279D01*
X92507105Y-97451479D01*
X92494216Y-97421670D01*
X92386155Y-97164669D01*
X92229366Y-97410668D01*
X92097949Y-97596624D01*
X91991311Y-97714795D01*
X91985955Y-97718870D01*
X91822253Y-97778248D01*
X91646468Y-97770546D01*
X91531222Y-97704509D01*
X91518333Y-97662555D01*
X91446289Y-97557434D01*
X91328697Y-97514388D01*
X91149726Y-97442730D01*
X91111150Y-97328649D01*
X91127350Y-97309764D01*
X91309107Y-97309764D01*
X91311937Y-97368863D01*
X91433763Y-97422444D01*
X91631788Y-97409609D01*
X91799305Y-97386246D01*
X91826020Y-97418689D01*
X91790853Y-97460346D01*
X91700677Y-97586967D01*
X91687666Y-97634245D01*
X91737784Y-97668886D01*
X91859107Y-97608903D01*
X92008086Y-97484194D01*
X92141174Y-97324656D01*
X92143294Y-97321438D01*
X92302152Y-97144309D01*
X92442167Y-97134382D01*
X92570412Y-97292565D01*
X92611226Y-97381500D01*
X92693462Y-97546293D01*
X92745085Y-97557589D01*
X92762142Y-97512937D01*
X92754692Y-97321586D01*
X92714147Y-97210584D01*
X92666902Y-97021667D01*
X92703666Y-97021667D01*
X92777351Y-97080669D01*
X92955370Y-97106300D01*
X92962663Y-97106333D01*
X93139343Y-97130458D01*
X93164774Y-97198376D01*
X93046228Y-97257302D01*
X92954445Y-97250292D01*
X92843749Y-97252946D01*
X92848676Y-97334404D01*
X92897324Y-97404801D01*
X92992705Y-97417776D01*
X93171409Y-97369002D01*
X93446300Y-97263688D01*
X93669461Y-97197801D01*
X93831219Y-97224463D01*
X93890800Y-97257142D01*
X94017830Y-97308353D01*
X94058333Y-97281381D01*
X93996753Y-97165992D01*
X93973666Y-97148667D01*
X93890351Y-97041453D01*
X93952910Y-96956133D01*
X94058333Y-96937000D01*
X94195913Y-96901544D01*
X94227666Y-96852333D01*
X94159089Y-96777219D01*
X94100666Y-96767667D01*
X94004988Y-96694096D01*
X93975776Y-96489788D01*
X94012102Y-96179351D01*
X94113035Y-95787390D01*
X94140917Y-95701309D01*
X94234207Y-95366489D01*
X94291497Y-95046948D01*
X94309511Y-94781802D01*
X94284974Y-94610168D01*
X94235979Y-94566333D01*
X94188077Y-94643227D01*
X94138612Y-94843813D01*
X94101913Y-95095500D01*
X94023800Y-95642682D01*
X93920014Y-96118310D01*
X93798820Y-96493253D01*
X93668484Y-96738384D01*
X93621402Y-96788833D01*
X93383223Y-96900387D01*
X93075286Y-96937000D01*
X92851341Y-96954214D01*
X92718979Y-96997656D01*
X92703666Y-97021667D01*
X92666902Y-97021667D01*
X92651756Y-96961105D01*
X92653514Y-96677757D01*
X92762635Y-96677757D01*
X92764235Y-96684662D01*
X92872271Y-96807763D01*
X93072560Y-96855392D01*
X93305310Y-96826613D01*
X93510727Y-96720489D01*
X93536586Y-96696746D01*
X93640331Y-96527756D01*
X93748111Y-96251747D01*
X93844577Y-95925327D01*
X93914378Y-95605102D01*
X93942166Y-95347680D01*
X93930937Y-95242421D01*
X93929860Y-95089620D01*
X93970222Y-95034128D01*
X94034076Y-94917822D01*
X94058333Y-94733933D01*
X94038376Y-94573685D01*
X93948477Y-94477990D01*
X93743589Y-94404002D01*
X93698499Y-94391684D01*
X93460562Y-94322238D01*
X93292682Y-94263083D01*
X93261844Y-94248191D01*
X93225742Y-94292929D01*
X93225375Y-94469629D01*
X93239853Y-94601236D01*
X93251214Y-94968856D01*
X93165898Y-95250309D01*
X93039740Y-95535729D01*
X92922085Y-95872068D01*
X92827184Y-96208443D01*
X92769284Y-96493967D01*
X92762635Y-96677757D01*
X92653514Y-96677757D01*
X92653966Y-96604844D01*
X92715399Y-96189219D01*
X92830676Y-95761645D01*
X92899614Y-95575690D01*
X93015369Y-95240382D01*
X93092502Y-94913698D01*
X93127623Y-94630260D01*
X93117346Y-94424693D01*
X93058283Y-94331618D01*
X93021166Y-94333329D01*
X92955431Y-94433941D01*
X92895770Y-94668906D01*
X92856157Y-94954217D01*
X92741456Y-95547889D01*
X92531192Y-96118709D01*
X92247746Y-96617177D01*
X91947561Y-96963935D01*
X91722904Y-97139424D01*
X91519766Y-97252493D01*
X91428425Y-97275667D01*
X91309107Y-97309764D01*
X91127350Y-97309764D01*
X91207712Y-97216086D01*
X91371337Y-97158004D01*
X91700450Y-97012378D01*
X92019849Y-96704942D01*
X92322614Y-96243196D01*
X92451288Y-95987704D01*
X92591304Y-95661014D01*
X92674317Y-95376715D01*
X92716040Y-95062029D01*
X92731313Y-94690797D01*
X92733155Y-94323493D01*
X92717057Y-94090126D01*
X92677550Y-93955761D01*
X92609164Y-93885460D01*
X92604830Y-93882968D01*
X92480286Y-93774243D01*
X92303562Y-93574555D01*
X92158088Y-93387478D01*
X92000464Y-93153509D01*
X91896707Y-92933829D01*
X91826924Y-92670422D01*
X91771219Y-92305275D01*
X91762229Y-92233087D01*
X91727422Y-91811584D01*
X95412999Y-91811584D01*
X95449519Y-91900375D01*
X95543492Y-92090115D01*
X95629506Y-92254686D01*
X95758839Y-92538470D01*
X95819270Y-92808892D01*
X95828259Y-93150209D01*
X95826516Y-93205417D01*
X95822590Y-93508260D01*
X95844671Y-93684630D01*
X95902686Y-93776624D01*
X95969842Y-93813300D01*
X96208161Y-93878357D01*
X96331068Y-93846210D01*
X96344333Y-93801354D01*
X96301416Y-93671807D01*
X96209850Y-93508462D01*
X96119948Y-93224652D01*
X96178491Y-92898628D01*
X96379892Y-92558521D01*
X96404374Y-92528729D01*
X96529389Y-92356844D01*
X96577303Y-92241786D01*
X96572190Y-92225968D01*
X96474719Y-92173989D01*
X96276945Y-92092441D01*
X96026139Y-91998223D01*
X95769575Y-91908235D01*
X95554524Y-91839373D01*
X95428258Y-91808538D01*
X95412999Y-91811584D01*
X91727422Y-91811584D01*
X91712824Y-91634814D01*
X91731241Y-91155131D01*
X91821448Y-90755797D01*
X91944723Y-90474516D01*
X92032178Y-90268579D01*
X92251215Y-90268579D01*
X92333593Y-90324032D01*
X92498743Y-90333000D01*
X92706644Y-90308046D01*
X92830789Y-90247498D01*
X92834147Y-90242700D01*
X92863537Y-90150370D01*
X92791649Y-90081585D01*
X92587830Y-90009782D01*
X92554117Y-90000007D01*
X92372615Y-89963581D01*
X92290302Y-90014993D01*
X92258026Y-90129620D01*
X92251215Y-90268579D01*
X92032178Y-90268579D01*
X92075912Y-90165595D01*
X92102654Y-89936299D01*
X92022833Y-89810153D01*
X92005166Y-89802778D01*
X91854670Y-89804921D01*
X91599284Y-89856739D01*
X91290524Y-89943015D01*
X90979906Y-90048534D01*
X90718948Y-90158083D01*
X90619064Y-90212155D01*
X90289685Y-90452239D01*
X89982197Y-90737441D01*
X89749690Y-91016183D01*
X89688601Y-91116166D01*
X89554141Y-91279624D01*
X89401098Y-91348526D01*
X89277841Y-91315253D01*
X89235634Y-91197286D01*
X89370222Y-91197286D01*
X89442084Y-91190304D01*
X89553337Y-91067616D01*
X89572573Y-91038534D01*
X89744734Y-90795816D01*
X89923062Y-90577740D01*
X90182916Y-90357642D01*
X90553334Y-90131232D01*
X90979151Y-89926960D01*
X91405202Y-89773274D01*
X91561595Y-89732724D01*
X91813912Y-89673641D01*
X91982693Y-89629105D01*
X92026332Y-89612494D01*
X92000575Y-89518877D01*
X91940989Y-89350557D01*
X91874104Y-89177979D01*
X91826447Y-89071583D01*
X91819391Y-89063000D01*
X91710589Y-89103842D01*
X91496335Y-89212254D01*
X91215396Y-89367063D01*
X90906539Y-89547097D01*
X90687262Y-89681316D01*
X90428132Y-89871659D01*
X90150999Y-90120188D01*
X89881279Y-90397651D01*
X89644388Y-90674791D01*
X89465741Y-90922355D01*
X89370755Y-91111088D01*
X89370222Y-91197286D01*
X89235634Y-91197286D01*
X89232332Y-91188056D01*
X89287315Y-91023791D01*
X89431944Y-90779813D01*
X89635745Y-90495759D01*
X89868240Y-90211264D01*
X90098954Y-89965965D01*
X90297411Y-89799497D01*
X90302613Y-89796093D01*
X90481816Y-89666765D01*
X90579795Y-89570198D01*
X90585951Y-89554313D01*
X90549752Y-89451977D01*
X90455747Y-89253050D01*
X90375332Y-89097203D01*
X90255608Y-88855185D01*
X90249799Y-88840993D01*
X92092752Y-88840993D01*
X92110482Y-88915568D01*
X92277697Y-88983505D01*
X92364999Y-89001967D01*
X92616941Y-89042224D01*
X92743860Y-89044036D01*
X92786093Y-89005433D01*
X92788333Y-88981312D01*
X92714599Y-88865556D01*
X92536443Y-88784536D01*
X92318435Y-88762221D01*
X92233538Y-88775352D01*
X92092752Y-88840993D01*
X90249799Y-88840993D01*
X90178876Y-88667713D01*
X90163666Y-88603676D01*
X90243050Y-88552204D01*
X90464926Y-88478950D01*
X90804878Y-88390687D01*
X91238489Y-88294191D01*
X91391472Y-88262992D01*
X92619278Y-88017745D01*
X92830805Y-88216464D01*
G37*
D12*
%TO.C,J8*%
X83735000Y-76500000D02*
X83735000Y-77500000D01*
X83735000Y-77500000D02*
X84735000Y-77000000D01*
X84735000Y-77000000D02*
X83735000Y-76500000D01*
X85125000Y-71790000D02*
X94245000Y-71790000D01*
X85125000Y-77490000D02*
X86435000Y-77490000D01*
X85125000Y-87290000D02*
X85125000Y-71790000D01*
X86435000Y-73090000D02*
X92935000Y-73090000D01*
X86435000Y-77490000D02*
X86435000Y-73090000D01*
X86435000Y-81590000D02*
X85125000Y-81590000D01*
X86435000Y-85990000D02*
X86435000Y-81590000D01*
X92935000Y-73090000D02*
X92935000Y-85990000D01*
X92935000Y-85990000D02*
X86435000Y-85990000D01*
X94245000Y-71790000D02*
X94245000Y-87290000D01*
X94245000Y-87290000D02*
X85125000Y-87290000D01*
%TO.C,J6*%
X59765000Y-76500000D02*
X59765000Y-77500000D01*
X59765000Y-77500000D02*
X60765000Y-77000000D01*
X60765000Y-77000000D02*
X59765000Y-76500000D01*
X61155000Y-71790000D02*
X70275000Y-71790000D01*
X61155000Y-77490000D02*
X62465000Y-77490000D01*
X61155000Y-87290000D02*
X61155000Y-71790000D01*
X62465000Y-73090000D02*
X68965000Y-73090000D01*
X62465000Y-77490000D02*
X62465000Y-73090000D01*
X62465000Y-81590000D02*
X61155000Y-81590000D01*
X62465000Y-85990000D02*
X62465000Y-81590000D01*
X68965000Y-73090000D02*
X68965000Y-85990000D01*
X68965000Y-85990000D02*
X62465000Y-85990000D01*
X70275000Y-71790000D02*
X70275000Y-87290000D01*
X70275000Y-87290000D02*
X61155000Y-87290000D01*
%TO.C,J4*%
X83840000Y-57920000D02*
X83840000Y-58920000D01*
X83840000Y-58920000D02*
X84840000Y-58420000D01*
X84840000Y-58420000D02*
X83840000Y-57920000D01*
X85230000Y-53210000D02*
X94350000Y-53210000D01*
X85230000Y-58910000D02*
X86540000Y-58910000D01*
X85230000Y-68710000D02*
X85230000Y-53210000D01*
X86540000Y-54510000D02*
X93040000Y-54510000D01*
X86540000Y-58910000D02*
X86540000Y-54510000D01*
X86540000Y-63010000D02*
X85230000Y-63010000D01*
X86540000Y-67410000D02*
X86540000Y-63010000D01*
X93040000Y-54510000D02*
X93040000Y-67410000D01*
X93040000Y-67410000D02*
X86540000Y-67410000D01*
X94350000Y-53210000D02*
X94350000Y-68710000D01*
X94350000Y-68710000D02*
X85230000Y-68710000D01*
%TO.C,J7*%
X71750000Y-76500000D02*
X71750000Y-77500000D01*
X71750000Y-77500000D02*
X72750000Y-77000000D01*
X72750000Y-77000000D02*
X71750000Y-76500000D01*
X73140000Y-71790000D02*
X82260000Y-71790000D01*
X73140000Y-77490000D02*
X74450000Y-77490000D01*
X73140000Y-87290000D02*
X73140000Y-71790000D01*
X74450000Y-73090000D02*
X80950000Y-73090000D01*
X74450000Y-77490000D02*
X74450000Y-73090000D01*
X74450000Y-81590000D02*
X73140000Y-81590000D01*
X74450000Y-85990000D02*
X74450000Y-81590000D01*
X80950000Y-73090000D02*
X80950000Y-85990000D01*
X80950000Y-85990000D02*
X74450000Y-85990000D01*
X82260000Y-71790000D02*
X82260000Y-87290000D01*
X82260000Y-87290000D02*
X73140000Y-87290000D01*
%TO.C,J3*%
X71855000Y-57920000D02*
X71855000Y-58920000D01*
X71855000Y-58920000D02*
X72855000Y-58420000D01*
X72855000Y-58420000D02*
X71855000Y-57920000D01*
X73245000Y-53210000D02*
X82365000Y-53210000D01*
X73245000Y-58910000D02*
X74555000Y-58910000D01*
X73245000Y-68710000D02*
X73245000Y-53210000D01*
X74555000Y-54510000D02*
X81055000Y-54510000D01*
X74555000Y-58910000D02*
X74555000Y-54510000D01*
X74555000Y-63010000D02*
X73245000Y-63010000D01*
X74555000Y-67410000D02*
X74555000Y-63010000D01*
X81055000Y-54510000D02*
X81055000Y-67410000D01*
X81055000Y-67410000D02*
X74555000Y-67410000D01*
X82365000Y-53210000D02*
X82365000Y-68710000D01*
X82365000Y-68710000D02*
X73245000Y-68710000D01*
%TO.C,J2*%
X59870000Y-57920000D02*
X59870000Y-58920000D01*
X59870000Y-58920000D02*
X60870000Y-58420000D01*
X60870000Y-58420000D02*
X59870000Y-57920000D01*
X61260000Y-53210000D02*
X70380000Y-53210000D01*
X61260000Y-58910000D02*
X62570000Y-58910000D01*
X61260000Y-68710000D02*
X61260000Y-53210000D01*
X62570000Y-54510000D02*
X69070000Y-54510000D01*
X62570000Y-58910000D02*
X62570000Y-54510000D01*
X62570000Y-63010000D02*
X61260000Y-63010000D01*
X62570000Y-67410000D02*
X62570000Y-63010000D01*
X69070000Y-54510000D02*
X69070000Y-67410000D01*
X69070000Y-67410000D02*
X62570000Y-67410000D01*
X70380000Y-53210000D02*
X70380000Y-68710000D01*
X70380000Y-68710000D02*
X61260000Y-68710000D01*
%TO.C,J5*%
X47780000Y-76500000D02*
X47780000Y-77500000D01*
X47780000Y-77500000D02*
X48780000Y-77000000D01*
X48780000Y-77000000D02*
X47780000Y-76500000D01*
X49170000Y-71790000D02*
X58290000Y-71790000D01*
X49170000Y-77490000D02*
X50480000Y-77490000D01*
X49170000Y-87290000D02*
X49170000Y-71790000D01*
X50480000Y-73090000D02*
X56980000Y-73090000D01*
X50480000Y-77490000D02*
X50480000Y-73090000D01*
X50480000Y-81590000D02*
X49170000Y-81590000D01*
X50480000Y-85990000D02*
X50480000Y-81590000D01*
X56980000Y-73090000D02*
X56980000Y-85990000D01*
X56980000Y-85990000D02*
X50480000Y-85990000D01*
X58290000Y-71790000D02*
X58290000Y-87290000D01*
X58290000Y-87290000D02*
X49170000Y-87290000D01*
%TO.C,J1*%
X47885000Y-57920000D02*
X47885000Y-58920000D01*
X47885000Y-58920000D02*
X48885000Y-58420000D01*
X48885000Y-58420000D02*
X47885000Y-57920000D01*
X49275000Y-53210000D02*
X58395000Y-53210000D01*
X49275000Y-58910000D02*
X50585000Y-58910000D01*
X49275000Y-68710000D02*
X49275000Y-53210000D01*
X50585000Y-54510000D02*
X57085000Y-54510000D01*
X50585000Y-58910000D02*
X50585000Y-54510000D01*
X50585000Y-63010000D02*
X49275000Y-63010000D01*
X50585000Y-67410000D02*
X50585000Y-63010000D01*
X57085000Y-54510000D02*
X57085000Y-67410000D01*
X57085000Y-67410000D02*
X50585000Y-67410000D01*
X58395000Y-53210000D02*
X58395000Y-68710000D01*
X58395000Y-68710000D02*
X49275000Y-68710000D01*
%TD*%
M02*
