%TF.GenerationSoftware,KiCad,Pcbnew,9.0.5*%
%TF.CreationDate,2025-12-27T20:09:45+11:00*%
%TF.ProjectId,power-expander,706f7765-722d-4657-9870-616e6465722e,rev?*%
%TF.SameCoordinates,Original*%
%TF.FileFunction,Legend,Top*%
%TF.FilePolarity,Positive*%
%FSLAX46Y46*%
G04 Gerber Fmt 4.6, Leading zero omitted, Abs format (unit mm)*
G04 Created by KiCad (PCBNEW 9.0.5) date 2025-12-27 20:09:45*
%MOMM*%
%LPD*%
G01*
G04 APERTURE LIST*
%ADD10C,0.150000*%
%ADD11C,0.120000*%
G04 APERTURE END LIST*
D10*
X47690476Y-96954819D02*
X47690476Y-95954819D01*
X47690476Y-95954819D02*
X48071428Y-95954819D01*
X48071428Y-95954819D02*
X48166666Y-96002438D01*
X48166666Y-96002438D02*
X48214285Y-96050057D01*
X48214285Y-96050057D02*
X48261904Y-96145295D01*
X48261904Y-96145295D02*
X48261904Y-96288152D01*
X48261904Y-96288152D02*
X48214285Y-96383390D01*
X48214285Y-96383390D02*
X48166666Y-96431009D01*
X48166666Y-96431009D02*
X48071428Y-96478628D01*
X48071428Y-96478628D02*
X47690476Y-96478628D01*
X48880952Y-95954819D02*
X49071428Y-95954819D01*
X49071428Y-95954819D02*
X49166666Y-96002438D01*
X49166666Y-96002438D02*
X49261904Y-96097676D01*
X49261904Y-96097676D02*
X49309523Y-96288152D01*
X49309523Y-96288152D02*
X49309523Y-96621485D01*
X49309523Y-96621485D02*
X49261904Y-96811961D01*
X49261904Y-96811961D02*
X49166666Y-96907200D01*
X49166666Y-96907200D02*
X49071428Y-96954819D01*
X49071428Y-96954819D02*
X48880952Y-96954819D01*
X48880952Y-96954819D02*
X48785714Y-96907200D01*
X48785714Y-96907200D02*
X48690476Y-96811961D01*
X48690476Y-96811961D02*
X48642857Y-96621485D01*
X48642857Y-96621485D02*
X48642857Y-96288152D01*
X48642857Y-96288152D02*
X48690476Y-96097676D01*
X48690476Y-96097676D02*
X48785714Y-96002438D01*
X48785714Y-96002438D02*
X48880952Y-95954819D01*
X49642857Y-95954819D02*
X49880952Y-96954819D01*
X49880952Y-96954819D02*
X50071428Y-96240533D01*
X50071428Y-96240533D02*
X50261904Y-96954819D01*
X50261904Y-96954819D02*
X50500000Y-95954819D01*
X50880952Y-96431009D02*
X51214285Y-96431009D01*
X51357142Y-96954819D02*
X50880952Y-96954819D01*
X50880952Y-96954819D02*
X50880952Y-95954819D01*
X50880952Y-95954819D02*
X51357142Y-95954819D01*
X52357142Y-96954819D02*
X52023809Y-96478628D01*
X51785714Y-96954819D02*
X51785714Y-95954819D01*
X51785714Y-95954819D02*
X52166666Y-95954819D01*
X52166666Y-95954819D02*
X52261904Y-96002438D01*
X52261904Y-96002438D02*
X52309523Y-96050057D01*
X52309523Y-96050057D02*
X52357142Y-96145295D01*
X52357142Y-96145295D02*
X52357142Y-96288152D01*
X52357142Y-96288152D02*
X52309523Y-96383390D01*
X52309523Y-96383390D02*
X52261904Y-96431009D01*
X52261904Y-96431009D02*
X52166666Y-96478628D01*
X52166666Y-96478628D02*
X51785714Y-96478628D01*
X53547619Y-96431009D02*
X53880952Y-96431009D01*
X54023809Y-96954819D02*
X53547619Y-96954819D01*
X53547619Y-96954819D02*
X53547619Y-95954819D01*
X53547619Y-95954819D02*
X54023809Y-95954819D01*
X54357143Y-95954819D02*
X55023809Y-96954819D01*
X55023809Y-95954819D02*
X54357143Y-96954819D01*
X55404762Y-96954819D02*
X55404762Y-95954819D01*
X55404762Y-95954819D02*
X55785714Y-95954819D01*
X55785714Y-95954819D02*
X55880952Y-96002438D01*
X55880952Y-96002438D02*
X55928571Y-96050057D01*
X55928571Y-96050057D02*
X55976190Y-96145295D01*
X55976190Y-96145295D02*
X55976190Y-96288152D01*
X55976190Y-96288152D02*
X55928571Y-96383390D01*
X55928571Y-96383390D02*
X55880952Y-96431009D01*
X55880952Y-96431009D02*
X55785714Y-96478628D01*
X55785714Y-96478628D02*
X55404762Y-96478628D01*
X56357143Y-96669104D02*
X56833333Y-96669104D01*
X56261905Y-96954819D02*
X56595238Y-95954819D01*
X56595238Y-95954819D02*
X56928571Y-96954819D01*
X57261905Y-96954819D02*
X57261905Y-95954819D01*
X57261905Y-95954819D02*
X57833333Y-96954819D01*
X57833333Y-96954819D02*
X57833333Y-95954819D01*
X58309524Y-96954819D02*
X58309524Y-95954819D01*
X58309524Y-95954819D02*
X58547619Y-95954819D01*
X58547619Y-95954819D02*
X58690476Y-96002438D01*
X58690476Y-96002438D02*
X58785714Y-96097676D01*
X58785714Y-96097676D02*
X58833333Y-96192914D01*
X58833333Y-96192914D02*
X58880952Y-96383390D01*
X58880952Y-96383390D02*
X58880952Y-96526247D01*
X58880952Y-96526247D02*
X58833333Y-96716723D01*
X58833333Y-96716723D02*
X58785714Y-96811961D01*
X58785714Y-96811961D02*
X58690476Y-96907200D01*
X58690476Y-96907200D02*
X58547619Y-96954819D01*
X58547619Y-96954819D02*
X58309524Y-96954819D01*
X59309524Y-96431009D02*
X59642857Y-96431009D01*
X59785714Y-96954819D02*
X59309524Y-96954819D01*
X59309524Y-96954819D02*
X59309524Y-95954819D01*
X59309524Y-95954819D02*
X59785714Y-95954819D01*
X60785714Y-96954819D02*
X60452381Y-96478628D01*
X60214286Y-96954819D02*
X60214286Y-95954819D01*
X60214286Y-95954819D02*
X60595238Y-95954819D01*
X60595238Y-95954819D02*
X60690476Y-96002438D01*
X60690476Y-96002438D02*
X60738095Y-96050057D01*
X60738095Y-96050057D02*
X60785714Y-96145295D01*
X60785714Y-96145295D02*
X60785714Y-96288152D01*
X60785714Y-96288152D02*
X60738095Y-96383390D01*
X60738095Y-96383390D02*
X60690476Y-96431009D01*
X60690476Y-96431009D02*
X60595238Y-96478628D01*
X60595238Y-96478628D02*
X60214286Y-96478628D01*
X61833334Y-95954819D02*
X62166667Y-96954819D01*
X62166667Y-96954819D02*
X62500000Y-95954819D01*
X63357143Y-96954819D02*
X62785715Y-96954819D01*
X63071429Y-96954819D02*
X63071429Y-95954819D01*
X63071429Y-95954819D02*
X62976191Y-96097676D01*
X62976191Y-96097676D02*
X62880953Y-96192914D01*
X62880953Y-96192914D02*
X62785715Y-96240533D01*
X89351666Y-70354819D02*
X89351666Y-71069104D01*
X89351666Y-71069104D02*
X89304047Y-71211961D01*
X89304047Y-71211961D02*
X89208809Y-71307200D01*
X89208809Y-71307200D02*
X89065952Y-71354819D01*
X89065952Y-71354819D02*
X88970714Y-71354819D01*
X89970714Y-70783390D02*
X89875476Y-70735771D01*
X89875476Y-70735771D02*
X89827857Y-70688152D01*
X89827857Y-70688152D02*
X89780238Y-70592914D01*
X89780238Y-70592914D02*
X89780238Y-70545295D01*
X89780238Y-70545295D02*
X89827857Y-70450057D01*
X89827857Y-70450057D02*
X89875476Y-70402438D01*
X89875476Y-70402438D02*
X89970714Y-70354819D01*
X89970714Y-70354819D02*
X90161190Y-70354819D01*
X90161190Y-70354819D02*
X90256428Y-70402438D01*
X90256428Y-70402438D02*
X90304047Y-70450057D01*
X90304047Y-70450057D02*
X90351666Y-70545295D01*
X90351666Y-70545295D02*
X90351666Y-70592914D01*
X90351666Y-70592914D02*
X90304047Y-70688152D01*
X90304047Y-70688152D02*
X90256428Y-70735771D01*
X90256428Y-70735771D02*
X90161190Y-70783390D01*
X90161190Y-70783390D02*
X89970714Y-70783390D01*
X89970714Y-70783390D02*
X89875476Y-70831009D01*
X89875476Y-70831009D02*
X89827857Y-70878628D01*
X89827857Y-70878628D02*
X89780238Y-70973866D01*
X89780238Y-70973866D02*
X89780238Y-71164342D01*
X89780238Y-71164342D02*
X89827857Y-71259580D01*
X89827857Y-71259580D02*
X89875476Y-71307200D01*
X89875476Y-71307200D02*
X89970714Y-71354819D01*
X89970714Y-71354819D02*
X90161190Y-71354819D01*
X90161190Y-71354819D02*
X90256428Y-71307200D01*
X90256428Y-71307200D02*
X90304047Y-71259580D01*
X90304047Y-71259580D02*
X90351666Y-71164342D01*
X90351666Y-71164342D02*
X90351666Y-70973866D01*
X90351666Y-70973866D02*
X90304047Y-70878628D01*
X90304047Y-70878628D02*
X90256428Y-70831009D01*
X90256428Y-70831009D02*
X90161190Y-70783390D01*
X77366666Y-70354819D02*
X77366666Y-71069104D01*
X77366666Y-71069104D02*
X77319047Y-71211961D01*
X77319047Y-71211961D02*
X77223809Y-71307200D01*
X77223809Y-71307200D02*
X77080952Y-71354819D01*
X77080952Y-71354819D02*
X76985714Y-71354819D01*
X77747619Y-70354819D02*
X78414285Y-70354819D01*
X78414285Y-70354819D02*
X77985714Y-71354819D01*
X65381666Y-70354819D02*
X65381666Y-71069104D01*
X65381666Y-71069104D02*
X65334047Y-71211961D01*
X65334047Y-71211961D02*
X65238809Y-71307200D01*
X65238809Y-71307200D02*
X65095952Y-71354819D01*
X65095952Y-71354819D02*
X65000714Y-71354819D01*
X66286428Y-70354819D02*
X66095952Y-70354819D01*
X66095952Y-70354819D02*
X66000714Y-70402438D01*
X66000714Y-70402438D02*
X65953095Y-70450057D01*
X65953095Y-70450057D02*
X65857857Y-70592914D01*
X65857857Y-70592914D02*
X65810238Y-70783390D01*
X65810238Y-70783390D02*
X65810238Y-71164342D01*
X65810238Y-71164342D02*
X65857857Y-71259580D01*
X65857857Y-71259580D02*
X65905476Y-71307200D01*
X65905476Y-71307200D02*
X66000714Y-71354819D01*
X66000714Y-71354819D02*
X66191190Y-71354819D01*
X66191190Y-71354819D02*
X66286428Y-71307200D01*
X66286428Y-71307200D02*
X66334047Y-71259580D01*
X66334047Y-71259580D02*
X66381666Y-71164342D01*
X66381666Y-71164342D02*
X66381666Y-70926247D01*
X66381666Y-70926247D02*
X66334047Y-70831009D01*
X66334047Y-70831009D02*
X66286428Y-70783390D01*
X66286428Y-70783390D02*
X66191190Y-70735771D01*
X66191190Y-70735771D02*
X66000714Y-70735771D01*
X66000714Y-70735771D02*
X65905476Y-70783390D01*
X65905476Y-70783390D02*
X65857857Y-70831009D01*
X65857857Y-70831009D02*
X65810238Y-70926247D01*
X53396666Y-70354819D02*
X53396666Y-71069104D01*
X53396666Y-71069104D02*
X53349047Y-71211961D01*
X53349047Y-71211961D02*
X53253809Y-71307200D01*
X53253809Y-71307200D02*
X53110952Y-71354819D01*
X53110952Y-71354819D02*
X53015714Y-71354819D01*
X54349047Y-70354819D02*
X53872857Y-70354819D01*
X53872857Y-70354819D02*
X53825238Y-70831009D01*
X53825238Y-70831009D02*
X53872857Y-70783390D01*
X53872857Y-70783390D02*
X53968095Y-70735771D01*
X53968095Y-70735771D02*
X54206190Y-70735771D01*
X54206190Y-70735771D02*
X54301428Y-70783390D01*
X54301428Y-70783390D02*
X54349047Y-70831009D01*
X54349047Y-70831009D02*
X54396666Y-70926247D01*
X54396666Y-70926247D02*
X54396666Y-71164342D01*
X54396666Y-71164342D02*
X54349047Y-71259580D01*
X54349047Y-71259580D02*
X54301428Y-71307200D01*
X54301428Y-71307200D02*
X54206190Y-71354819D01*
X54206190Y-71354819D02*
X53968095Y-71354819D01*
X53968095Y-71354819D02*
X53872857Y-71307200D01*
X53872857Y-71307200D02*
X53825238Y-71259580D01*
X89456666Y-51774819D02*
X89456666Y-52489104D01*
X89456666Y-52489104D02*
X89409047Y-52631961D01*
X89409047Y-52631961D02*
X89313809Y-52727200D01*
X89313809Y-52727200D02*
X89170952Y-52774819D01*
X89170952Y-52774819D02*
X89075714Y-52774819D01*
X90361428Y-52108152D02*
X90361428Y-52774819D01*
X90123333Y-51727200D02*
X89885238Y-52441485D01*
X89885238Y-52441485D02*
X90504285Y-52441485D01*
X77471666Y-51774819D02*
X77471666Y-52489104D01*
X77471666Y-52489104D02*
X77424047Y-52631961D01*
X77424047Y-52631961D02*
X77328809Y-52727200D01*
X77328809Y-52727200D02*
X77185952Y-52774819D01*
X77185952Y-52774819D02*
X77090714Y-52774819D01*
X77852619Y-51774819D02*
X78471666Y-51774819D01*
X78471666Y-51774819D02*
X78138333Y-52155771D01*
X78138333Y-52155771D02*
X78281190Y-52155771D01*
X78281190Y-52155771D02*
X78376428Y-52203390D01*
X78376428Y-52203390D02*
X78424047Y-52251009D01*
X78424047Y-52251009D02*
X78471666Y-52346247D01*
X78471666Y-52346247D02*
X78471666Y-52584342D01*
X78471666Y-52584342D02*
X78424047Y-52679580D01*
X78424047Y-52679580D02*
X78376428Y-52727200D01*
X78376428Y-52727200D02*
X78281190Y-52774819D01*
X78281190Y-52774819D02*
X77995476Y-52774819D01*
X77995476Y-52774819D02*
X77900238Y-52727200D01*
X77900238Y-52727200D02*
X77852619Y-52679580D01*
X65486666Y-51774819D02*
X65486666Y-52489104D01*
X65486666Y-52489104D02*
X65439047Y-52631961D01*
X65439047Y-52631961D02*
X65343809Y-52727200D01*
X65343809Y-52727200D02*
X65200952Y-52774819D01*
X65200952Y-52774819D02*
X65105714Y-52774819D01*
X65915238Y-51870057D02*
X65962857Y-51822438D01*
X65962857Y-51822438D02*
X66058095Y-51774819D01*
X66058095Y-51774819D02*
X66296190Y-51774819D01*
X66296190Y-51774819D02*
X66391428Y-51822438D01*
X66391428Y-51822438D02*
X66439047Y-51870057D01*
X66439047Y-51870057D02*
X66486666Y-51965295D01*
X66486666Y-51965295D02*
X66486666Y-52060533D01*
X66486666Y-52060533D02*
X66439047Y-52203390D01*
X66439047Y-52203390D02*
X65867619Y-52774819D01*
X65867619Y-52774819D02*
X66486666Y-52774819D01*
X53501666Y-51774819D02*
X53501666Y-52489104D01*
X53501666Y-52489104D02*
X53454047Y-52631961D01*
X53454047Y-52631961D02*
X53358809Y-52727200D01*
X53358809Y-52727200D02*
X53215952Y-52774819D01*
X53215952Y-52774819D02*
X53120714Y-52774819D01*
X54501666Y-52774819D02*
X53930238Y-52774819D01*
X54215952Y-52774819D02*
X54215952Y-51774819D01*
X54215952Y-51774819D02*
X54120714Y-51917676D01*
X54120714Y-51917676D02*
X54025476Y-52012914D01*
X54025476Y-52012914D02*
X53930238Y-52060533D01*
D11*
%TO.C,J8*%
X83735000Y-76500000D02*
X83735000Y-77500000D01*
X83735000Y-77500000D02*
X84735000Y-77000000D01*
X84735000Y-77000000D02*
X83735000Y-76500000D01*
X85125000Y-71790000D02*
X94245000Y-71790000D01*
X85125000Y-77490000D02*
X86435000Y-77490000D01*
X85125000Y-87290000D02*
X85125000Y-71790000D01*
X86435000Y-73090000D02*
X92935000Y-73090000D01*
X86435000Y-77490000D02*
X86435000Y-73090000D01*
X86435000Y-81590000D02*
X85125000Y-81590000D01*
X86435000Y-85990000D02*
X86435000Y-81590000D01*
X92935000Y-73090000D02*
X92935000Y-85990000D01*
X92935000Y-85990000D02*
X86435000Y-85990000D01*
X94245000Y-71790000D02*
X94245000Y-87290000D01*
X94245000Y-87290000D02*
X85125000Y-87290000D01*
%TO.C,J7*%
X71750000Y-76500000D02*
X71750000Y-77500000D01*
X71750000Y-77500000D02*
X72750000Y-77000000D01*
X72750000Y-77000000D02*
X71750000Y-76500000D01*
X73140000Y-71790000D02*
X82260000Y-71790000D01*
X73140000Y-77490000D02*
X74450000Y-77490000D01*
X73140000Y-87290000D02*
X73140000Y-71790000D01*
X74450000Y-73090000D02*
X80950000Y-73090000D01*
X74450000Y-77490000D02*
X74450000Y-73090000D01*
X74450000Y-81590000D02*
X73140000Y-81590000D01*
X74450000Y-85990000D02*
X74450000Y-81590000D01*
X80950000Y-73090000D02*
X80950000Y-85990000D01*
X80950000Y-85990000D02*
X74450000Y-85990000D01*
X82260000Y-71790000D02*
X82260000Y-87290000D01*
X82260000Y-87290000D02*
X73140000Y-87290000D01*
%TO.C,J6*%
X59765000Y-76500000D02*
X59765000Y-77500000D01*
X59765000Y-77500000D02*
X60765000Y-77000000D01*
X60765000Y-77000000D02*
X59765000Y-76500000D01*
X61155000Y-71790000D02*
X70275000Y-71790000D01*
X61155000Y-77490000D02*
X62465000Y-77490000D01*
X61155000Y-87290000D02*
X61155000Y-71790000D01*
X62465000Y-73090000D02*
X68965000Y-73090000D01*
X62465000Y-77490000D02*
X62465000Y-73090000D01*
X62465000Y-81590000D02*
X61155000Y-81590000D01*
X62465000Y-85990000D02*
X62465000Y-81590000D01*
X68965000Y-73090000D02*
X68965000Y-85990000D01*
X68965000Y-85990000D02*
X62465000Y-85990000D01*
X70275000Y-71790000D02*
X70275000Y-87290000D01*
X70275000Y-87290000D02*
X61155000Y-87290000D01*
%TO.C,J5*%
X47780000Y-76500000D02*
X47780000Y-77500000D01*
X47780000Y-77500000D02*
X48780000Y-77000000D01*
X48780000Y-77000000D02*
X47780000Y-76500000D01*
X49170000Y-71790000D02*
X58290000Y-71790000D01*
X49170000Y-77490000D02*
X50480000Y-77490000D01*
X49170000Y-87290000D02*
X49170000Y-71790000D01*
X50480000Y-73090000D02*
X56980000Y-73090000D01*
X50480000Y-77490000D02*
X50480000Y-73090000D01*
X50480000Y-81590000D02*
X49170000Y-81590000D01*
X50480000Y-85990000D02*
X50480000Y-81590000D01*
X56980000Y-73090000D02*
X56980000Y-85990000D01*
X56980000Y-85990000D02*
X50480000Y-85990000D01*
X58290000Y-71790000D02*
X58290000Y-87290000D01*
X58290000Y-87290000D02*
X49170000Y-87290000D01*
%TO.C,J4*%
X83840000Y-57920000D02*
X83840000Y-58920000D01*
X83840000Y-58920000D02*
X84840000Y-58420000D01*
X84840000Y-58420000D02*
X83840000Y-57920000D01*
X85230000Y-53210000D02*
X94350000Y-53210000D01*
X85230000Y-58910000D02*
X86540000Y-58910000D01*
X85230000Y-68710000D02*
X85230000Y-53210000D01*
X86540000Y-54510000D02*
X93040000Y-54510000D01*
X86540000Y-58910000D02*
X86540000Y-54510000D01*
X86540000Y-63010000D02*
X85230000Y-63010000D01*
X86540000Y-67410000D02*
X86540000Y-63010000D01*
X93040000Y-54510000D02*
X93040000Y-67410000D01*
X93040000Y-67410000D02*
X86540000Y-67410000D01*
X94350000Y-53210000D02*
X94350000Y-68710000D01*
X94350000Y-68710000D02*
X85230000Y-68710000D01*
%TO.C,J3*%
X71855000Y-57920000D02*
X71855000Y-58920000D01*
X71855000Y-58920000D02*
X72855000Y-58420000D01*
X72855000Y-58420000D02*
X71855000Y-57920000D01*
X73245000Y-53210000D02*
X82365000Y-53210000D01*
X73245000Y-58910000D02*
X74555000Y-58910000D01*
X73245000Y-68710000D02*
X73245000Y-53210000D01*
X74555000Y-54510000D02*
X81055000Y-54510000D01*
X74555000Y-58910000D02*
X74555000Y-54510000D01*
X74555000Y-63010000D02*
X73245000Y-63010000D01*
X74555000Y-67410000D02*
X74555000Y-63010000D01*
X81055000Y-54510000D02*
X81055000Y-67410000D01*
X81055000Y-67410000D02*
X74555000Y-67410000D01*
X82365000Y-53210000D02*
X82365000Y-68710000D01*
X82365000Y-68710000D02*
X73245000Y-68710000D01*
%TO.C,J2*%
X59870000Y-57920000D02*
X59870000Y-58920000D01*
X59870000Y-58920000D02*
X60870000Y-58420000D01*
X60870000Y-58420000D02*
X59870000Y-57920000D01*
X61260000Y-53210000D02*
X70380000Y-53210000D01*
X61260000Y-58910000D02*
X62570000Y-58910000D01*
X61260000Y-68710000D02*
X61260000Y-53210000D01*
X62570000Y-54510000D02*
X69070000Y-54510000D01*
X62570000Y-58910000D02*
X62570000Y-54510000D01*
X62570000Y-63010000D02*
X61260000Y-63010000D01*
X62570000Y-67410000D02*
X62570000Y-63010000D01*
X69070000Y-54510000D02*
X69070000Y-67410000D01*
X69070000Y-67410000D02*
X62570000Y-67410000D01*
X70380000Y-53210000D02*
X70380000Y-68710000D01*
X70380000Y-68710000D02*
X61260000Y-68710000D01*
%TO.C,J1*%
X47885000Y-57920000D02*
X47885000Y-58920000D01*
X47885000Y-58920000D02*
X48885000Y-58420000D01*
X48885000Y-58420000D02*
X47885000Y-57920000D01*
X49275000Y-53210000D02*
X58395000Y-53210000D01*
X49275000Y-58910000D02*
X50585000Y-58910000D01*
X49275000Y-68710000D02*
X49275000Y-53210000D01*
X50585000Y-54510000D02*
X57085000Y-54510000D01*
X50585000Y-58910000D02*
X50585000Y-54510000D01*
X50585000Y-63010000D02*
X49275000Y-63010000D01*
X50585000Y-67410000D02*
X50585000Y-63010000D01*
X57085000Y-54510000D02*
X57085000Y-67410000D01*
X57085000Y-67410000D02*
X50585000Y-67410000D01*
X58395000Y-53210000D02*
X58395000Y-68710000D01*
X58395000Y-68710000D02*
X49275000Y-68710000D01*
%TD*%
M02*
