%TF.GenerationSoftware,KiCad,Pcbnew,9.0.6*%
%TF.CreationDate,2026-01-10T14:45:50+11:00*%
%TF.ProjectId,power-expander,706f7765-722d-4657-9870-616e6465722e,rev?*%
%TF.SameCoordinates,Original*%
%TF.FileFunction,Soldermask,Top*%
%TF.FilePolarity,Negative*%
%FSLAX46Y46*%
G04 Gerber Fmt 4.6, Leading zero omitted, Abs format (unit mm)*
G04 Created by KiCad (PCBNEW 9.0.6) date 2026-01-10 14:45:50*
%MOMM*%
%LPD*%
G01*
G04 APERTURE LIST*
G04 Aperture macros list*
%AMRoundRect*
0 Rectangle with rounded corners*
0 $1 Rounding radius*
0 $2 $3 $4 $5 $6 $7 $8 $9 X,Y pos of 4 corners*
0 Add a 4 corners polygon primitive as box body*
4,1,4,$2,$3,$4,$5,$6,$7,$8,$9,$2,$3,0*
0 Add four circle primitives for the rounded corners*
1,1,$1+$1,$2,$3*
1,1,$1+$1,$4,$5*
1,1,$1+$1,$6,$7*
1,1,$1+$1,$8,$9*
0 Add four rect primitives between the rounded corners*
20,1,$1+$1,$2,$3,$4,$5,0*
20,1,$1+$1,$4,$5,$6,$7,0*
20,1,$1+$1,$6,$7,$8,$9,0*
20,1,$1+$1,$8,$9,$2,$3,0*%
G04 Aperture macros list end*
%ADD10RoundRect,0.250000X-0.600000X-0.600000X0.600000X-0.600000X0.600000X0.600000X-0.600000X0.600000X0*%
%ADD11C,1.700000*%
G04 APERTURE END LIST*
D10*
%TO.C,J8*%
X88415000Y-77000000D03*
D11*
X90955000Y-77000000D03*
X88415000Y-79540000D03*
X90955000Y-79540000D03*
X88415000Y-82080000D03*
X90955000Y-82080000D03*
%TD*%
D10*
%TO.C,J6*%
X64445000Y-77000000D03*
D11*
X66985000Y-77000000D03*
X64445000Y-79540000D03*
X66985000Y-79540000D03*
X64445000Y-82080000D03*
X66985000Y-82080000D03*
%TD*%
D10*
%TO.C,J4*%
X88520000Y-58420000D03*
D11*
X91060000Y-58420000D03*
X88520000Y-60960000D03*
X91060000Y-60960000D03*
X88520000Y-63500000D03*
X91060000Y-63500000D03*
%TD*%
D10*
%TO.C,J7*%
X76430000Y-77000000D03*
D11*
X78970000Y-77000000D03*
X76430000Y-79540000D03*
X78970000Y-79540000D03*
X76430000Y-82080000D03*
X78970000Y-82080000D03*
%TD*%
D10*
%TO.C,J3*%
X76535000Y-58420000D03*
D11*
X79075000Y-58420000D03*
X76535000Y-60960000D03*
X79075000Y-60960000D03*
X76535000Y-63500000D03*
X79075000Y-63500000D03*
%TD*%
D10*
%TO.C,J2*%
X64550000Y-58420000D03*
D11*
X67090000Y-58420000D03*
X64550000Y-60960000D03*
X67090000Y-60960000D03*
X64550000Y-63500000D03*
X67090000Y-63500000D03*
%TD*%
D10*
%TO.C,J5*%
X52460000Y-77000000D03*
D11*
X55000000Y-77000000D03*
X52460000Y-79540000D03*
X55000000Y-79540000D03*
X52460000Y-82080000D03*
X55000000Y-82080000D03*
%TD*%
D10*
%TO.C,J1*%
X52565000Y-58420000D03*
D11*
X55105000Y-58420000D03*
X52565000Y-60960000D03*
X55105000Y-60960000D03*
X52565000Y-63500000D03*
X55105000Y-63500000D03*
%TD*%
M02*
