%TF.GenerationSoftware,KiCad,Pcbnew,9.0.5*%
%TF.CreationDate,2025-11-22T14:27:19+11:00*%
%TF.ProjectId,pot-socket,706f742d-736f-4636-9b65-742e6b696361,rev?*%
%TF.SameCoordinates,Original*%
%TF.FileFunction,Legend,Top*%
%TF.FilePolarity,Positive*%
%FSLAX46Y46*%
G04 Gerber Fmt 4.6, Leading zero omitted, Abs format (unit mm)*
G04 Created by KiCad (PCBNEW 9.0.5) date 2025-11-22 14:27:19*
%MOMM*%
%LPD*%
G01*
G04 APERTURE LIST*
%ADD10C,0.100000*%
%ADD11C,0.150000*%
%ADD12C,0.120000*%
G04 APERTURE END LIST*
D10*
X215303884Y-108872419D02*
X215303884Y-107872419D01*
X215303884Y-107872419D02*
X215684836Y-107872419D01*
X215684836Y-107872419D02*
X215780074Y-107920038D01*
X215780074Y-107920038D02*
X215827693Y-107967657D01*
X215827693Y-107967657D02*
X215875312Y-108062895D01*
X215875312Y-108062895D02*
X215875312Y-108205752D01*
X215875312Y-108205752D02*
X215827693Y-108300990D01*
X215827693Y-108300990D02*
X215780074Y-108348609D01*
X215780074Y-108348609D02*
X215684836Y-108396228D01*
X215684836Y-108396228D02*
X215303884Y-108396228D01*
X216494360Y-107872419D02*
X216684836Y-107872419D01*
X216684836Y-107872419D02*
X216780074Y-107920038D01*
X216780074Y-107920038D02*
X216875312Y-108015276D01*
X216875312Y-108015276D02*
X216922931Y-108205752D01*
X216922931Y-108205752D02*
X216922931Y-108539085D01*
X216922931Y-108539085D02*
X216875312Y-108729561D01*
X216875312Y-108729561D02*
X216780074Y-108824800D01*
X216780074Y-108824800D02*
X216684836Y-108872419D01*
X216684836Y-108872419D02*
X216494360Y-108872419D01*
X216494360Y-108872419D02*
X216399122Y-108824800D01*
X216399122Y-108824800D02*
X216303884Y-108729561D01*
X216303884Y-108729561D02*
X216256265Y-108539085D01*
X216256265Y-108539085D02*
X216256265Y-108205752D01*
X216256265Y-108205752D02*
X216303884Y-108015276D01*
X216303884Y-108015276D02*
X216399122Y-107920038D01*
X216399122Y-107920038D02*
X216494360Y-107872419D01*
X217208646Y-107872419D02*
X217780074Y-107872419D01*
X217494360Y-108872419D02*
X217494360Y-107872419D01*
X218827694Y-108824800D02*
X218970551Y-108872419D01*
X218970551Y-108872419D02*
X219208646Y-108872419D01*
X219208646Y-108872419D02*
X219303884Y-108824800D01*
X219303884Y-108824800D02*
X219351503Y-108777180D01*
X219351503Y-108777180D02*
X219399122Y-108681942D01*
X219399122Y-108681942D02*
X219399122Y-108586704D01*
X219399122Y-108586704D02*
X219351503Y-108491466D01*
X219351503Y-108491466D02*
X219303884Y-108443847D01*
X219303884Y-108443847D02*
X219208646Y-108396228D01*
X219208646Y-108396228D02*
X219018170Y-108348609D01*
X219018170Y-108348609D02*
X218922932Y-108300990D01*
X218922932Y-108300990D02*
X218875313Y-108253371D01*
X218875313Y-108253371D02*
X218827694Y-108158133D01*
X218827694Y-108158133D02*
X218827694Y-108062895D01*
X218827694Y-108062895D02*
X218875313Y-107967657D01*
X218875313Y-107967657D02*
X218922932Y-107920038D01*
X218922932Y-107920038D02*
X219018170Y-107872419D01*
X219018170Y-107872419D02*
X219256265Y-107872419D01*
X219256265Y-107872419D02*
X219399122Y-107920038D01*
X220018170Y-107872419D02*
X220208646Y-107872419D01*
X220208646Y-107872419D02*
X220303884Y-107920038D01*
X220303884Y-107920038D02*
X220399122Y-108015276D01*
X220399122Y-108015276D02*
X220446741Y-108205752D01*
X220446741Y-108205752D02*
X220446741Y-108539085D01*
X220446741Y-108539085D02*
X220399122Y-108729561D01*
X220399122Y-108729561D02*
X220303884Y-108824800D01*
X220303884Y-108824800D02*
X220208646Y-108872419D01*
X220208646Y-108872419D02*
X220018170Y-108872419D01*
X220018170Y-108872419D02*
X219922932Y-108824800D01*
X219922932Y-108824800D02*
X219827694Y-108729561D01*
X219827694Y-108729561D02*
X219780075Y-108539085D01*
X219780075Y-108539085D02*
X219780075Y-108205752D01*
X219780075Y-108205752D02*
X219827694Y-108015276D01*
X219827694Y-108015276D02*
X219922932Y-107920038D01*
X219922932Y-107920038D02*
X220018170Y-107872419D01*
X221446741Y-108777180D02*
X221399122Y-108824800D01*
X221399122Y-108824800D02*
X221256265Y-108872419D01*
X221256265Y-108872419D02*
X221161027Y-108872419D01*
X221161027Y-108872419D02*
X221018170Y-108824800D01*
X221018170Y-108824800D02*
X220922932Y-108729561D01*
X220922932Y-108729561D02*
X220875313Y-108634323D01*
X220875313Y-108634323D02*
X220827694Y-108443847D01*
X220827694Y-108443847D02*
X220827694Y-108300990D01*
X220827694Y-108300990D02*
X220875313Y-108110514D01*
X220875313Y-108110514D02*
X220922932Y-108015276D01*
X220922932Y-108015276D02*
X221018170Y-107920038D01*
X221018170Y-107920038D02*
X221161027Y-107872419D01*
X221161027Y-107872419D02*
X221256265Y-107872419D01*
X221256265Y-107872419D02*
X221399122Y-107920038D01*
X221399122Y-107920038D02*
X221446741Y-107967657D01*
X221875313Y-108872419D02*
X221875313Y-107872419D01*
X222446741Y-108872419D02*
X222018170Y-108300990D01*
X222446741Y-107872419D02*
X221875313Y-108443847D01*
X222875313Y-108348609D02*
X223208646Y-108348609D01*
X223351503Y-108872419D02*
X222875313Y-108872419D01*
X222875313Y-108872419D02*
X222875313Y-107872419D01*
X222875313Y-107872419D02*
X223351503Y-107872419D01*
X223637218Y-107872419D02*
X224208646Y-107872419D01*
X223922932Y-108872419D02*
X223922932Y-107872419D01*
X225161028Y-107872419D02*
X225494361Y-108872419D01*
X225494361Y-108872419D02*
X225827694Y-107872419D01*
X226684837Y-108872419D02*
X226113409Y-108872419D01*
X226399123Y-108872419D02*
X226399123Y-107872419D01*
X226399123Y-107872419D02*
X226303885Y-108015276D01*
X226303885Y-108015276D02*
X226208647Y-108110514D01*
X226208647Y-108110514D02*
X226113409Y-108158133D01*
D11*
X214904761Y-91954819D02*
X214571428Y-91478628D01*
X214333333Y-91954819D02*
X214333333Y-90954819D01*
X214333333Y-90954819D02*
X214714285Y-90954819D01*
X214714285Y-90954819D02*
X214809523Y-91002438D01*
X214809523Y-91002438D02*
X214857142Y-91050057D01*
X214857142Y-91050057D02*
X214904761Y-91145295D01*
X214904761Y-91145295D02*
X214904761Y-91288152D01*
X214904761Y-91288152D02*
X214857142Y-91383390D01*
X214857142Y-91383390D02*
X214809523Y-91431009D01*
X214809523Y-91431009D02*
X214714285Y-91478628D01*
X214714285Y-91478628D02*
X214333333Y-91478628D01*
X215190476Y-90954819D02*
X215523809Y-91954819D01*
X215523809Y-91954819D02*
X215857142Y-90954819D01*
X216714285Y-91954819D02*
X216142857Y-91954819D01*
X216428571Y-91954819D02*
X216428571Y-90954819D01*
X216428571Y-90954819D02*
X216333333Y-91097676D01*
X216333333Y-91097676D02*
X216238095Y-91192914D01*
X216238095Y-91192914D02*
X216142857Y-91240533D01*
X220166666Y-92954819D02*
X220166666Y-93669104D01*
X220166666Y-93669104D02*
X220119047Y-93811961D01*
X220119047Y-93811961D02*
X220023809Y-93907200D01*
X220023809Y-93907200D02*
X219880952Y-93954819D01*
X219880952Y-93954819D02*
X219785714Y-93954819D01*
X221166666Y-93954819D02*
X220595238Y-93954819D01*
X220880952Y-93954819D02*
X220880952Y-92954819D01*
X220880952Y-92954819D02*
X220785714Y-93097676D01*
X220785714Y-93097676D02*
X220690476Y-93192914D01*
X220690476Y-93192914D02*
X220595238Y-93240533D01*
D12*
%TO.C,J1*%
X219120000Y-96080000D02*
X220500000Y-96080000D01*
X219120000Y-97460000D02*
X219120000Y-96080000D01*
X219120000Y-98730000D02*
X219120000Y-103920000D01*
X219120000Y-98730000D02*
X221880000Y-98730000D01*
X219120000Y-103920000D02*
X221880000Y-103920000D01*
X221880000Y-98730000D02*
X221880000Y-103920000D01*
%TD*%
M02*
