%TF.GenerationSoftware,KiCad,Pcbnew,9.0.5*%
%TF.CreationDate,2025-12-11T17:53:33+11:00*%
%TF.ProjectId,pot-socket,706f742d-736f-4636-9b65-742e6b696361,rev?*%
%TF.SameCoordinates,Original*%
%TF.FileFunction,Legend,Top*%
%TF.FilePolarity,Positive*%
%FSLAX46Y46*%
G04 Gerber Fmt 4.6, Leading zero omitted, Abs format (unit mm)*
G04 Created by KiCad (PCBNEW 9.0.5) date 2025-12-11 17:53:33*
%MOMM*%
%LPD*%
G01*
G04 APERTURE LIST*
%ADD10C,0.100000*%
%ADD11C,0.150000*%
G04 APERTURE END LIST*
D10*
X155372419Y-105696115D02*
X154372419Y-105696115D01*
X154372419Y-105696115D02*
X154372419Y-105315163D01*
X154372419Y-105315163D02*
X154420038Y-105219925D01*
X154420038Y-105219925D02*
X154467657Y-105172306D01*
X154467657Y-105172306D02*
X154562895Y-105124687D01*
X154562895Y-105124687D02*
X154705752Y-105124687D01*
X154705752Y-105124687D02*
X154800990Y-105172306D01*
X154800990Y-105172306D02*
X154848609Y-105219925D01*
X154848609Y-105219925D02*
X154896228Y-105315163D01*
X154896228Y-105315163D02*
X154896228Y-105696115D01*
X154372419Y-104505639D02*
X154372419Y-104315163D01*
X154372419Y-104315163D02*
X154420038Y-104219925D01*
X154420038Y-104219925D02*
X154515276Y-104124687D01*
X154515276Y-104124687D02*
X154705752Y-104077068D01*
X154705752Y-104077068D02*
X155039085Y-104077068D01*
X155039085Y-104077068D02*
X155229561Y-104124687D01*
X155229561Y-104124687D02*
X155324800Y-104219925D01*
X155324800Y-104219925D02*
X155372419Y-104315163D01*
X155372419Y-104315163D02*
X155372419Y-104505639D01*
X155372419Y-104505639D02*
X155324800Y-104600877D01*
X155324800Y-104600877D02*
X155229561Y-104696115D01*
X155229561Y-104696115D02*
X155039085Y-104743734D01*
X155039085Y-104743734D02*
X154705752Y-104743734D01*
X154705752Y-104743734D02*
X154515276Y-104696115D01*
X154515276Y-104696115D02*
X154420038Y-104600877D01*
X154420038Y-104600877D02*
X154372419Y-104505639D01*
X154372419Y-103791353D02*
X154372419Y-103219925D01*
X155372419Y-103505639D02*
X154372419Y-103505639D01*
X155324800Y-102172305D02*
X155372419Y-102029448D01*
X155372419Y-102029448D02*
X155372419Y-101791353D01*
X155372419Y-101791353D02*
X155324800Y-101696115D01*
X155324800Y-101696115D02*
X155277180Y-101648496D01*
X155277180Y-101648496D02*
X155181942Y-101600877D01*
X155181942Y-101600877D02*
X155086704Y-101600877D01*
X155086704Y-101600877D02*
X154991466Y-101648496D01*
X154991466Y-101648496D02*
X154943847Y-101696115D01*
X154943847Y-101696115D02*
X154896228Y-101791353D01*
X154896228Y-101791353D02*
X154848609Y-101981829D01*
X154848609Y-101981829D02*
X154800990Y-102077067D01*
X154800990Y-102077067D02*
X154753371Y-102124686D01*
X154753371Y-102124686D02*
X154658133Y-102172305D01*
X154658133Y-102172305D02*
X154562895Y-102172305D01*
X154562895Y-102172305D02*
X154467657Y-102124686D01*
X154467657Y-102124686D02*
X154420038Y-102077067D01*
X154420038Y-102077067D02*
X154372419Y-101981829D01*
X154372419Y-101981829D02*
X154372419Y-101743734D01*
X154372419Y-101743734D02*
X154420038Y-101600877D01*
X154372419Y-100981829D02*
X154372419Y-100791353D01*
X154372419Y-100791353D02*
X154420038Y-100696115D01*
X154420038Y-100696115D02*
X154515276Y-100600877D01*
X154515276Y-100600877D02*
X154705752Y-100553258D01*
X154705752Y-100553258D02*
X155039085Y-100553258D01*
X155039085Y-100553258D02*
X155229561Y-100600877D01*
X155229561Y-100600877D02*
X155324800Y-100696115D01*
X155324800Y-100696115D02*
X155372419Y-100791353D01*
X155372419Y-100791353D02*
X155372419Y-100981829D01*
X155372419Y-100981829D02*
X155324800Y-101077067D01*
X155324800Y-101077067D02*
X155229561Y-101172305D01*
X155229561Y-101172305D02*
X155039085Y-101219924D01*
X155039085Y-101219924D02*
X154705752Y-101219924D01*
X154705752Y-101219924D02*
X154515276Y-101172305D01*
X154515276Y-101172305D02*
X154420038Y-101077067D01*
X154420038Y-101077067D02*
X154372419Y-100981829D01*
X155277180Y-99553258D02*
X155324800Y-99600877D01*
X155324800Y-99600877D02*
X155372419Y-99743734D01*
X155372419Y-99743734D02*
X155372419Y-99838972D01*
X155372419Y-99838972D02*
X155324800Y-99981829D01*
X155324800Y-99981829D02*
X155229561Y-100077067D01*
X155229561Y-100077067D02*
X155134323Y-100124686D01*
X155134323Y-100124686D02*
X154943847Y-100172305D01*
X154943847Y-100172305D02*
X154800990Y-100172305D01*
X154800990Y-100172305D02*
X154610514Y-100124686D01*
X154610514Y-100124686D02*
X154515276Y-100077067D01*
X154515276Y-100077067D02*
X154420038Y-99981829D01*
X154420038Y-99981829D02*
X154372419Y-99838972D01*
X154372419Y-99838972D02*
X154372419Y-99743734D01*
X154372419Y-99743734D02*
X154420038Y-99600877D01*
X154420038Y-99600877D02*
X154467657Y-99553258D01*
X155372419Y-99124686D02*
X154372419Y-99124686D01*
X155372419Y-98553258D02*
X154800990Y-98981829D01*
X154372419Y-98553258D02*
X154943847Y-99124686D01*
X154848609Y-98124686D02*
X154848609Y-97791353D01*
X155372419Y-97648496D02*
X155372419Y-98124686D01*
X155372419Y-98124686D02*
X154372419Y-98124686D01*
X154372419Y-98124686D02*
X154372419Y-97648496D01*
X154372419Y-97362781D02*
X154372419Y-96791353D01*
X155372419Y-97077067D02*
X154372419Y-97077067D01*
X154372419Y-95838971D02*
X155372419Y-95505638D01*
X155372419Y-95505638D02*
X154372419Y-95172305D01*
X155372419Y-94315162D02*
X155372419Y-94886590D01*
X155372419Y-94600876D02*
X154372419Y-94600876D01*
X154372419Y-94600876D02*
X154515276Y-94696114D01*
X154515276Y-94696114D02*
X154610514Y-94791352D01*
X154610514Y-94791352D02*
X154658133Y-94886590D01*
D11*
X147954819Y-109095238D02*
X147478628Y-109428571D01*
X147954819Y-109666666D02*
X146954819Y-109666666D01*
X146954819Y-109666666D02*
X146954819Y-109285714D01*
X146954819Y-109285714D02*
X147002438Y-109190476D01*
X147002438Y-109190476D02*
X147050057Y-109142857D01*
X147050057Y-109142857D02*
X147145295Y-109095238D01*
X147145295Y-109095238D02*
X147288152Y-109095238D01*
X147288152Y-109095238D02*
X147383390Y-109142857D01*
X147383390Y-109142857D02*
X147431009Y-109190476D01*
X147431009Y-109190476D02*
X147478628Y-109285714D01*
X147478628Y-109285714D02*
X147478628Y-109666666D01*
X146954819Y-108809523D02*
X147954819Y-108476190D01*
X147954819Y-108476190D02*
X146954819Y-108142857D01*
X147954819Y-107285714D02*
X147954819Y-107857142D01*
X147954819Y-107571428D02*
X146954819Y-107571428D01*
X146954819Y-107571428D02*
X147097676Y-107666666D01*
X147097676Y-107666666D02*
X147192914Y-107761904D01*
X147192914Y-107761904D02*
X147240533Y-107857142D01*
X149454819Y-105833333D02*
X150169104Y-105833333D01*
X150169104Y-105833333D02*
X150311961Y-105880952D01*
X150311961Y-105880952D02*
X150407200Y-105976190D01*
X150407200Y-105976190D02*
X150454819Y-106119047D01*
X150454819Y-106119047D02*
X150454819Y-106214285D01*
X150454819Y-104833333D02*
X150454819Y-105404761D01*
X150454819Y-105119047D02*
X149454819Y-105119047D01*
X149454819Y-105119047D02*
X149597676Y-105214285D01*
X149597676Y-105214285D02*
X149692914Y-105309523D01*
X149692914Y-105309523D02*
X149740533Y-105404761D01*
M02*
