%TF.GenerationSoftware,KiCad,Pcbnew,9.0.6*%
%TF.CreationDate,2026-01-10T01:49:01+11:00*%
%TF.ProjectId,cv-mixer,63762d6d-6978-4657-922e-6b696361645f,rev?*%
%TF.SameCoordinates,Original*%
%TF.FileFunction,Legend,Top*%
%TF.FilePolarity,Positive*%
%FSLAX46Y46*%
G04 Gerber Fmt 4.6, Leading zero omitted, Abs format (unit mm)*
G04 Created by KiCad (PCBNEW 9.0.6) date 2026-01-10 01:49:01*
%MOMM*%
%LPD*%
G01*
G04 APERTURE LIST*
%ADD10C,0.300000*%
%ADD11C,0.100000*%
%ADD12C,0.150000*%
%ADD13C,0.120000*%
G04 APERTURE END LIST*
D10*
X33554510Y-104300828D02*
X33554510Y-102800828D01*
X34268796Y-104300828D02*
X34268796Y-102800828D01*
X34268796Y-102800828D02*
X35125939Y-104300828D01*
X35125939Y-104300828D02*
X35125939Y-102800828D01*
X35840225Y-104300828D02*
X35840225Y-102800828D01*
X35840225Y-102800828D02*
X36411654Y-102800828D01*
X36411654Y-102800828D02*
X36554511Y-102872257D01*
X36554511Y-102872257D02*
X36625940Y-102943685D01*
X36625940Y-102943685D02*
X36697368Y-103086542D01*
X36697368Y-103086542D02*
X36697368Y-103300828D01*
X36697368Y-103300828D02*
X36625940Y-103443685D01*
X36625940Y-103443685D02*
X36554511Y-103515114D01*
X36554511Y-103515114D02*
X36411654Y-103586542D01*
X36411654Y-103586542D02*
X35840225Y-103586542D01*
X37340225Y-102800828D02*
X37340225Y-104015114D01*
X37340225Y-104015114D02*
X37411654Y-104157971D01*
X37411654Y-104157971D02*
X37483083Y-104229400D01*
X37483083Y-104229400D02*
X37625940Y-104300828D01*
X37625940Y-104300828D02*
X37911654Y-104300828D01*
X37911654Y-104300828D02*
X38054511Y-104229400D01*
X38054511Y-104229400D02*
X38125940Y-104157971D01*
X38125940Y-104157971D02*
X38197368Y-104015114D01*
X38197368Y-104015114D02*
X38197368Y-102800828D01*
X38697369Y-102800828D02*
X39554512Y-102800828D01*
X39125940Y-104300828D02*
X39125940Y-102800828D01*
X41125940Y-103872257D02*
X41840226Y-103872257D01*
X40983083Y-104300828D02*
X41483083Y-102800828D01*
X41483083Y-102800828D02*
X41983083Y-104300828D01*
X42340225Y-102800828D02*
X43268797Y-102800828D01*
X43268797Y-102800828D02*
X42768797Y-103372257D01*
X42768797Y-103372257D02*
X42983082Y-103372257D01*
X42983082Y-103372257D02*
X43125940Y-103443685D01*
X43125940Y-103443685D02*
X43197368Y-103515114D01*
X43197368Y-103515114D02*
X43268797Y-103657971D01*
X43268797Y-103657971D02*
X43268797Y-104015114D01*
X43268797Y-104015114D02*
X43197368Y-104157971D01*
X43197368Y-104157971D02*
X43125940Y-104229400D01*
X43125940Y-104229400D02*
X42983082Y-104300828D01*
X42983082Y-104300828D02*
X42554511Y-104300828D01*
X42554511Y-104300828D02*
X42411654Y-104229400D01*
X42411654Y-104229400D02*
X42340225Y-104157971D01*
X33554510Y-79300828D02*
X33554510Y-77800828D01*
X34268796Y-79300828D02*
X34268796Y-77800828D01*
X34268796Y-77800828D02*
X35125939Y-79300828D01*
X35125939Y-79300828D02*
X35125939Y-77800828D01*
X35840225Y-79300828D02*
X35840225Y-77800828D01*
X35840225Y-77800828D02*
X36411654Y-77800828D01*
X36411654Y-77800828D02*
X36554511Y-77872257D01*
X36554511Y-77872257D02*
X36625940Y-77943685D01*
X36625940Y-77943685D02*
X36697368Y-78086542D01*
X36697368Y-78086542D02*
X36697368Y-78300828D01*
X36697368Y-78300828D02*
X36625940Y-78443685D01*
X36625940Y-78443685D02*
X36554511Y-78515114D01*
X36554511Y-78515114D02*
X36411654Y-78586542D01*
X36411654Y-78586542D02*
X35840225Y-78586542D01*
X37340225Y-77800828D02*
X37340225Y-79015114D01*
X37340225Y-79015114D02*
X37411654Y-79157971D01*
X37411654Y-79157971D02*
X37483083Y-79229400D01*
X37483083Y-79229400D02*
X37625940Y-79300828D01*
X37625940Y-79300828D02*
X37911654Y-79300828D01*
X37911654Y-79300828D02*
X38054511Y-79229400D01*
X38054511Y-79229400D02*
X38125940Y-79157971D01*
X38125940Y-79157971D02*
X38197368Y-79015114D01*
X38197368Y-79015114D02*
X38197368Y-77800828D01*
X38697369Y-77800828D02*
X39554512Y-77800828D01*
X39125940Y-79300828D02*
X39125940Y-77800828D01*
X41125940Y-78872257D02*
X41840226Y-78872257D01*
X40983083Y-79300828D02*
X41483083Y-77800828D01*
X41483083Y-77800828D02*
X41983083Y-79300828D01*
X42411654Y-77943685D02*
X42483082Y-77872257D01*
X42483082Y-77872257D02*
X42625940Y-77800828D01*
X42625940Y-77800828D02*
X42983082Y-77800828D01*
X42983082Y-77800828D02*
X43125940Y-77872257D01*
X43125940Y-77872257D02*
X43197368Y-77943685D01*
X43197368Y-77943685D02*
X43268797Y-78086542D01*
X43268797Y-78086542D02*
X43268797Y-78229400D01*
X43268797Y-78229400D02*
X43197368Y-78443685D01*
X43197368Y-78443685D02*
X42340225Y-79300828D01*
X42340225Y-79300828D02*
X43268797Y-79300828D01*
D11*
X32476190Y-149862180D02*
X32428571Y-149909800D01*
X32428571Y-149909800D02*
X32285714Y-149957419D01*
X32285714Y-149957419D02*
X32190476Y-149957419D01*
X32190476Y-149957419D02*
X32047619Y-149909800D01*
X32047619Y-149909800D02*
X31952381Y-149814561D01*
X31952381Y-149814561D02*
X31904762Y-149719323D01*
X31904762Y-149719323D02*
X31857143Y-149528847D01*
X31857143Y-149528847D02*
X31857143Y-149385990D01*
X31857143Y-149385990D02*
X31904762Y-149195514D01*
X31904762Y-149195514D02*
X31952381Y-149100276D01*
X31952381Y-149100276D02*
X32047619Y-149005038D01*
X32047619Y-149005038D02*
X32190476Y-148957419D01*
X32190476Y-148957419D02*
X32285714Y-148957419D01*
X32285714Y-148957419D02*
X32428571Y-149005038D01*
X32428571Y-149005038D02*
X32476190Y-149052657D01*
X32761905Y-148957419D02*
X33095238Y-149957419D01*
X33095238Y-149957419D02*
X33428571Y-148957419D01*
X34523810Y-149957419D02*
X34523810Y-148957419D01*
X34523810Y-148957419D02*
X34857143Y-149671704D01*
X34857143Y-149671704D02*
X35190476Y-148957419D01*
X35190476Y-148957419D02*
X35190476Y-149957419D01*
X35666667Y-149957419D02*
X35666667Y-148957419D01*
X36047619Y-148957419D02*
X36714285Y-149957419D01*
X36714285Y-148957419D02*
X36047619Y-149957419D01*
X37095238Y-149433609D02*
X37428571Y-149433609D01*
X37571428Y-149957419D02*
X37095238Y-149957419D01*
X37095238Y-149957419D02*
X37095238Y-148957419D01*
X37095238Y-148957419D02*
X37571428Y-148957419D01*
X38571428Y-149957419D02*
X38238095Y-149481228D01*
X38000000Y-149957419D02*
X38000000Y-148957419D01*
X38000000Y-148957419D02*
X38380952Y-148957419D01*
X38380952Y-148957419D02*
X38476190Y-149005038D01*
X38476190Y-149005038D02*
X38523809Y-149052657D01*
X38523809Y-149052657D02*
X38571428Y-149147895D01*
X38571428Y-149147895D02*
X38571428Y-149290752D01*
X38571428Y-149290752D02*
X38523809Y-149385990D01*
X38523809Y-149385990D02*
X38476190Y-149433609D01*
X38476190Y-149433609D02*
X38380952Y-149481228D01*
X38380952Y-149481228D02*
X38000000Y-149481228D01*
X39619048Y-148957419D02*
X39952381Y-149957419D01*
X39952381Y-149957419D02*
X40285714Y-148957419D01*
X40571429Y-149052657D02*
X40619048Y-149005038D01*
X40619048Y-149005038D02*
X40714286Y-148957419D01*
X40714286Y-148957419D02*
X40952381Y-148957419D01*
X40952381Y-148957419D02*
X41047619Y-149005038D01*
X41047619Y-149005038D02*
X41095238Y-149052657D01*
X41095238Y-149052657D02*
X41142857Y-149147895D01*
X41142857Y-149147895D02*
X41142857Y-149243133D01*
X41142857Y-149243133D02*
X41095238Y-149385990D01*
X41095238Y-149385990D02*
X40523810Y-149957419D01*
X40523810Y-149957419D02*
X41142857Y-149957419D01*
D10*
X33840225Y-137300828D02*
X34125939Y-137300828D01*
X34125939Y-137300828D02*
X34268796Y-137372257D01*
X34268796Y-137372257D02*
X34411653Y-137515114D01*
X34411653Y-137515114D02*
X34483082Y-137800828D01*
X34483082Y-137800828D02*
X34483082Y-138300828D01*
X34483082Y-138300828D02*
X34411653Y-138586542D01*
X34411653Y-138586542D02*
X34268796Y-138729400D01*
X34268796Y-138729400D02*
X34125939Y-138800828D01*
X34125939Y-138800828D02*
X33840225Y-138800828D01*
X33840225Y-138800828D02*
X33697368Y-138729400D01*
X33697368Y-138729400D02*
X33554510Y-138586542D01*
X33554510Y-138586542D02*
X33483082Y-138300828D01*
X33483082Y-138300828D02*
X33483082Y-137800828D01*
X33483082Y-137800828D02*
X33554510Y-137515114D01*
X33554510Y-137515114D02*
X33697368Y-137372257D01*
X33697368Y-137372257D02*
X33840225Y-137300828D01*
X35125939Y-137300828D02*
X35125939Y-138515114D01*
X35125939Y-138515114D02*
X35197368Y-138657971D01*
X35197368Y-138657971D02*
X35268797Y-138729400D01*
X35268797Y-138729400D02*
X35411654Y-138800828D01*
X35411654Y-138800828D02*
X35697368Y-138800828D01*
X35697368Y-138800828D02*
X35840225Y-138729400D01*
X35840225Y-138729400D02*
X35911654Y-138657971D01*
X35911654Y-138657971D02*
X35983082Y-138515114D01*
X35983082Y-138515114D02*
X35983082Y-137300828D01*
X36483083Y-137300828D02*
X37340226Y-137300828D01*
X36911654Y-138800828D02*
X36911654Y-137300828D01*
X37840225Y-138800828D02*
X37840225Y-137300828D01*
X37840225Y-137300828D02*
X38411654Y-137300828D01*
X38411654Y-137300828D02*
X38554511Y-137372257D01*
X38554511Y-137372257D02*
X38625940Y-137443685D01*
X38625940Y-137443685D02*
X38697368Y-137586542D01*
X38697368Y-137586542D02*
X38697368Y-137800828D01*
X38697368Y-137800828D02*
X38625940Y-137943685D01*
X38625940Y-137943685D02*
X38554511Y-138015114D01*
X38554511Y-138015114D02*
X38411654Y-138086542D01*
X38411654Y-138086542D02*
X37840225Y-138086542D01*
X39340225Y-137300828D02*
X39340225Y-138515114D01*
X39340225Y-138515114D02*
X39411654Y-138657971D01*
X39411654Y-138657971D02*
X39483083Y-138729400D01*
X39483083Y-138729400D02*
X39625940Y-138800828D01*
X39625940Y-138800828D02*
X39911654Y-138800828D01*
X39911654Y-138800828D02*
X40054511Y-138729400D01*
X40054511Y-138729400D02*
X40125940Y-138657971D01*
X40125940Y-138657971D02*
X40197368Y-138515114D01*
X40197368Y-138515114D02*
X40197368Y-137300828D01*
X40697369Y-137300828D02*
X41554512Y-137300828D01*
X41125940Y-138800828D02*
X41125940Y-137300828D01*
X43125940Y-138372257D02*
X43840226Y-138372257D01*
X42983083Y-138800828D02*
X43483083Y-137300828D01*
X43483083Y-137300828D02*
X43983083Y-138800828D01*
X91554510Y-55300828D02*
X91554510Y-53800828D01*
X92268796Y-55300828D02*
X92268796Y-53800828D01*
X92268796Y-53800828D02*
X93125939Y-55300828D01*
X93125939Y-55300828D02*
X93125939Y-53800828D01*
X93840225Y-55300828D02*
X93840225Y-53800828D01*
X93840225Y-53800828D02*
X94411654Y-53800828D01*
X94411654Y-53800828D02*
X94554511Y-53872257D01*
X94554511Y-53872257D02*
X94625940Y-53943685D01*
X94625940Y-53943685D02*
X94697368Y-54086542D01*
X94697368Y-54086542D02*
X94697368Y-54300828D01*
X94697368Y-54300828D02*
X94625940Y-54443685D01*
X94625940Y-54443685D02*
X94554511Y-54515114D01*
X94554511Y-54515114D02*
X94411654Y-54586542D01*
X94411654Y-54586542D02*
X93840225Y-54586542D01*
X95340225Y-53800828D02*
X95340225Y-55015114D01*
X95340225Y-55015114D02*
X95411654Y-55157971D01*
X95411654Y-55157971D02*
X95483083Y-55229400D01*
X95483083Y-55229400D02*
X95625940Y-55300828D01*
X95625940Y-55300828D02*
X95911654Y-55300828D01*
X95911654Y-55300828D02*
X96054511Y-55229400D01*
X96054511Y-55229400D02*
X96125940Y-55157971D01*
X96125940Y-55157971D02*
X96197368Y-55015114D01*
X96197368Y-55015114D02*
X96197368Y-53800828D01*
X96697369Y-53800828D02*
X97554512Y-53800828D01*
X97125940Y-55300828D02*
X97125940Y-53800828D01*
X99697368Y-54515114D02*
X99911654Y-54586542D01*
X99911654Y-54586542D02*
X99983083Y-54657971D01*
X99983083Y-54657971D02*
X100054511Y-54800828D01*
X100054511Y-54800828D02*
X100054511Y-55015114D01*
X100054511Y-55015114D02*
X99983083Y-55157971D01*
X99983083Y-55157971D02*
X99911654Y-55229400D01*
X99911654Y-55229400D02*
X99768797Y-55300828D01*
X99768797Y-55300828D02*
X99197368Y-55300828D01*
X99197368Y-55300828D02*
X99197368Y-53800828D01*
X99197368Y-53800828D02*
X99697368Y-53800828D01*
X99697368Y-53800828D02*
X99840226Y-53872257D01*
X99840226Y-53872257D02*
X99911654Y-53943685D01*
X99911654Y-53943685D02*
X99983083Y-54086542D01*
X99983083Y-54086542D02*
X99983083Y-54229400D01*
X99983083Y-54229400D02*
X99911654Y-54372257D01*
X99911654Y-54372257D02*
X99840226Y-54443685D01*
X99840226Y-54443685D02*
X99697368Y-54515114D01*
X99697368Y-54515114D02*
X99197368Y-54515114D01*
X101483083Y-55300828D02*
X100625940Y-55300828D01*
X101054511Y-55300828D02*
X101054511Y-53800828D01*
X101054511Y-53800828D02*
X100911654Y-54015114D01*
X100911654Y-54015114D02*
X100768797Y-54157971D01*
X100768797Y-54157971D02*
X100625940Y-54229400D01*
X91500225Y-137300828D02*
X91785939Y-137300828D01*
X91785939Y-137300828D02*
X91928796Y-137372257D01*
X91928796Y-137372257D02*
X92071653Y-137515114D01*
X92071653Y-137515114D02*
X92143082Y-137800828D01*
X92143082Y-137800828D02*
X92143082Y-138300828D01*
X92143082Y-138300828D02*
X92071653Y-138586542D01*
X92071653Y-138586542D02*
X91928796Y-138729400D01*
X91928796Y-138729400D02*
X91785939Y-138800828D01*
X91785939Y-138800828D02*
X91500225Y-138800828D01*
X91500225Y-138800828D02*
X91357368Y-138729400D01*
X91357368Y-138729400D02*
X91214510Y-138586542D01*
X91214510Y-138586542D02*
X91143082Y-138300828D01*
X91143082Y-138300828D02*
X91143082Y-137800828D01*
X91143082Y-137800828D02*
X91214510Y-137515114D01*
X91214510Y-137515114D02*
X91357368Y-137372257D01*
X91357368Y-137372257D02*
X91500225Y-137300828D01*
X92785939Y-137300828D02*
X92785939Y-138515114D01*
X92785939Y-138515114D02*
X92857368Y-138657971D01*
X92857368Y-138657971D02*
X92928797Y-138729400D01*
X92928797Y-138729400D02*
X93071654Y-138800828D01*
X93071654Y-138800828D02*
X93357368Y-138800828D01*
X93357368Y-138800828D02*
X93500225Y-138729400D01*
X93500225Y-138729400D02*
X93571654Y-138657971D01*
X93571654Y-138657971D02*
X93643082Y-138515114D01*
X93643082Y-138515114D02*
X93643082Y-137300828D01*
X94143083Y-137300828D02*
X95000226Y-137300828D01*
X94571654Y-138800828D02*
X94571654Y-137300828D01*
X95500225Y-138800828D02*
X95500225Y-137300828D01*
X95500225Y-137300828D02*
X96071654Y-137300828D01*
X96071654Y-137300828D02*
X96214511Y-137372257D01*
X96214511Y-137372257D02*
X96285940Y-137443685D01*
X96285940Y-137443685D02*
X96357368Y-137586542D01*
X96357368Y-137586542D02*
X96357368Y-137800828D01*
X96357368Y-137800828D02*
X96285940Y-137943685D01*
X96285940Y-137943685D02*
X96214511Y-138015114D01*
X96214511Y-138015114D02*
X96071654Y-138086542D01*
X96071654Y-138086542D02*
X95500225Y-138086542D01*
X97000225Y-137300828D02*
X97000225Y-138515114D01*
X97000225Y-138515114D02*
X97071654Y-138657971D01*
X97071654Y-138657971D02*
X97143083Y-138729400D01*
X97143083Y-138729400D02*
X97285940Y-138800828D01*
X97285940Y-138800828D02*
X97571654Y-138800828D01*
X97571654Y-138800828D02*
X97714511Y-138729400D01*
X97714511Y-138729400D02*
X97785940Y-138657971D01*
X97785940Y-138657971D02*
X97857368Y-138515114D01*
X97857368Y-138515114D02*
X97857368Y-137300828D01*
X98357369Y-137300828D02*
X99214512Y-137300828D01*
X98785940Y-138800828D02*
X98785940Y-137300828D01*
X101357368Y-138015114D02*
X101571654Y-138086542D01*
X101571654Y-138086542D02*
X101643083Y-138157971D01*
X101643083Y-138157971D02*
X101714511Y-138300828D01*
X101714511Y-138300828D02*
X101714511Y-138515114D01*
X101714511Y-138515114D02*
X101643083Y-138657971D01*
X101643083Y-138657971D02*
X101571654Y-138729400D01*
X101571654Y-138729400D02*
X101428797Y-138800828D01*
X101428797Y-138800828D02*
X100857368Y-138800828D01*
X100857368Y-138800828D02*
X100857368Y-137300828D01*
X100857368Y-137300828D02*
X101357368Y-137300828D01*
X101357368Y-137300828D02*
X101500226Y-137372257D01*
X101500226Y-137372257D02*
X101571654Y-137443685D01*
X101571654Y-137443685D02*
X101643083Y-137586542D01*
X101643083Y-137586542D02*
X101643083Y-137729400D01*
X101643083Y-137729400D02*
X101571654Y-137872257D01*
X101571654Y-137872257D02*
X101500226Y-137943685D01*
X101500226Y-137943685D02*
X101357368Y-138015114D01*
X101357368Y-138015114D02*
X100857368Y-138015114D01*
X91554510Y-104300828D02*
X91554510Y-102800828D01*
X92268796Y-104300828D02*
X92268796Y-102800828D01*
X92268796Y-102800828D02*
X93125939Y-104300828D01*
X93125939Y-104300828D02*
X93125939Y-102800828D01*
X93840225Y-104300828D02*
X93840225Y-102800828D01*
X93840225Y-102800828D02*
X94411654Y-102800828D01*
X94411654Y-102800828D02*
X94554511Y-102872257D01*
X94554511Y-102872257D02*
X94625940Y-102943685D01*
X94625940Y-102943685D02*
X94697368Y-103086542D01*
X94697368Y-103086542D02*
X94697368Y-103300828D01*
X94697368Y-103300828D02*
X94625940Y-103443685D01*
X94625940Y-103443685D02*
X94554511Y-103515114D01*
X94554511Y-103515114D02*
X94411654Y-103586542D01*
X94411654Y-103586542D02*
X93840225Y-103586542D01*
X95340225Y-102800828D02*
X95340225Y-104015114D01*
X95340225Y-104015114D02*
X95411654Y-104157971D01*
X95411654Y-104157971D02*
X95483083Y-104229400D01*
X95483083Y-104229400D02*
X95625940Y-104300828D01*
X95625940Y-104300828D02*
X95911654Y-104300828D01*
X95911654Y-104300828D02*
X96054511Y-104229400D01*
X96054511Y-104229400D02*
X96125940Y-104157971D01*
X96125940Y-104157971D02*
X96197368Y-104015114D01*
X96197368Y-104015114D02*
X96197368Y-102800828D01*
X96697369Y-102800828D02*
X97554512Y-102800828D01*
X97125940Y-104300828D02*
X97125940Y-102800828D01*
X99697368Y-103515114D02*
X99911654Y-103586542D01*
X99911654Y-103586542D02*
X99983083Y-103657971D01*
X99983083Y-103657971D02*
X100054511Y-103800828D01*
X100054511Y-103800828D02*
X100054511Y-104015114D01*
X100054511Y-104015114D02*
X99983083Y-104157971D01*
X99983083Y-104157971D02*
X99911654Y-104229400D01*
X99911654Y-104229400D02*
X99768797Y-104300828D01*
X99768797Y-104300828D02*
X99197368Y-104300828D01*
X99197368Y-104300828D02*
X99197368Y-102800828D01*
X99197368Y-102800828D02*
X99697368Y-102800828D01*
X99697368Y-102800828D02*
X99840226Y-102872257D01*
X99840226Y-102872257D02*
X99911654Y-102943685D01*
X99911654Y-102943685D02*
X99983083Y-103086542D01*
X99983083Y-103086542D02*
X99983083Y-103229400D01*
X99983083Y-103229400D02*
X99911654Y-103372257D01*
X99911654Y-103372257D02*
X99840226Y-103443685D01*
X99840226Y-103443685D02*
X99697368Y-103515114D01*
X99697368Y-103515114D02*
X99197368Y-103515114D01*
X100554511Y-102800828D02*
X101483083Y-102800828D01*
X101483083Y-102800828D02*
X100983083Y-103372257D01*
X100983083Y-103372257D02*
X101197368Y-103372257D01*
X101197368Y-103372257D02*
X101340226Y-103443685D01*
X101340226Y-103443685D02*
X101411654Y-103515114D01*
X101411654Y-103515114D02*
X101483083Y-103657971D01*
X101483083Y-103657971D02*
X101483083Y-104015114D01*
X101483083Y-104015114D02*
X101411654Y-104157971D01*
X101411654Y-104157971D02*
X101340226Y-104229400D01*
X101340226Y-104229400D02*
X101197368Y-104300828D01*
X101197368Y-104300828D02*
X100768797Y-104300828D01*
X100768797Y-104300828D02*
X100625940Y-104229400D01*
X100625940Y-104229400D02*
X100554511Y-104157971D01*
X91554510Y-79300828D02*
X91554510Y-77800828D01*
X92268796Y-79300828D02*
X92268796Y-77800828D01*
X92268796Y-77800828D02*
X93125939Y-79300828D01*
X93125939Y-79300828D02*
X93125939Y-77800828D01*
X93840225Y-79300828D02*
X93840225Y-77800828D01*
X93840225Y-77800828D02*
X94411654Y-77800828D01*
X94411654Y-77800828D02*
X94554511Y-77872257D01*
X94554511Y-77872257D02*
X94625940Y-77943685D01*
X94625940Y-77943685D02*
X94697368Y-78086542D01*
X94697368Y-78086542D02*
X94697368Y-78300828D01*
X94697368Y-78300828D02*
X94625940Y-78443685D01*
X94625940Y-78443685D02*
X94554511Y-78515114D01*
X94554511Y-78515114D02*
X94411654Y-78586542D01*
X94411654Y-78586542D02*
X93840225Y-78586542D01*
X95340225Y-77800828D02*
X95340225Y-79015114D01*
X95340225Y-79015114D02*
X95411654Y-79157971D01*
X95411654Y-79157971D02*
X95483083Y-79229400D01*
X95483083Y-79229400D02*
X95625940Y-79300828D01*
X95625940Y-79300828D02*
X95911654Y-79300828D01*
X95911654Y-79300828D02*
X96054511Y-79229400D01*
X96054511Y-79229400D02*
X96125940Y-79157971D01*
X96125940Y-79157971D02*
X96197368Y-79015114D01*
X96197368Y-79015114D02*
X96197368Y-77800828D01*
X96697369Y-77800828D02*
X97554512Y-77800828D01*
X97125940Y-79300828D02*
X97125940Y-77800828D01*
X99697368Y-78515114D02*
X99911654Y-78586542D01*
X99911654Y-78586542D02*
X99983083Y-78657971D01*
X99983083Y-78657971D02*
X100054511Y-78800828D01*
X100054511Y-78800828D02*
X100054511Y-79015114D01*
X100054511Y-79015114D02*
X99983083Y-79157971D01*
X99983083Y-79157971D02*
X99911654Y-79229400D01*
X99911654Y-79229400D02*
X99768797Y-79300828D01*
X99768797Y-79300828D02*
X99197368Y-79300828D01*
X99197368Y-79300828D02*
X99197368Y-77800828D01*
X99197368Y-77800828D02*
X99697368Y-77800828D01*
X99697368Y-77800828D02*
X99840226Y-77872257D01*
X99840226Y-77872257D02*
X99911654Y-77943685D01*
X99911654Y-77943685D02*
X99983083Y-78086542D01*
X99983083Y-78086542D02*
X99983083Y-78229400D01*
X99983083Y-78229400D02*
X99911654Y-78372257D01*
X99911654Y-78372257D02*
X99840226Y-78443685D01*
X99840226Y-78443685D02*
X99697368Y-78515114D01*
X99697368Y-78515114D02*
X99197368Y-78515114D01*
X100625940Y-77943685D02*
X100697368Y-77872257D01*
X100697368Y-77872257D02*
X100840226Y-77800828D01*
X100840226Y-77800828D02*
X101197368Y-77800828D01*
X101197368Y-77800828D02*
X101340226Y-77872257D01*
X101340226Y-77872257D02*
X101411654Y-77943685D01*
X101411654Y-77943685D02*
X101483083Y-78086542D01*
X101483083Y-78086542D02*
X101483083Y-78229400D01*
X101483083Y-78229400D02*
X101411654Y-78443685D01*
X101411654Y-78443685D02*
X100554511Y-79300828D01*
X100554511Y-79300828D02*
X101483083Y-79300828D01*
X33554510Y-55300828D02*
X33554510Y-53800828D01*
X34268796Y-55300828D02*
X34268796Y-53800828D01*
X34268796Y-53800828D02*
X35125939Y-55300828D01*
X35125939Y-55300828D02*
X35125939Y-53800828D01*
X35840225Y-55300828D02*
X35840225Y-53800828D01*
X35840225Y-53800828D02*
X36411654Y-53800828D01*
X36411654Y-53800828D02*
X36554511Y-53872257D01*
X36554511Y-53872257D02*
X36625940Y-53943685D01*
X36625940Y-53943685D02*
X36697368Y-54086542D01*
X36697368Y-54086542D02*
X36697368Y-54300828D01*
X36697368Y-54300828D02*
X36625940Y-54443685D01*
X36625940Y-54443685D02*
X36554511Y-54515114D01*
X36554511Y-54515114D02*
X36411654Y-54586542D01*
X36411654Y-54586542D02*
X35840225Y-54586542D01*
X37340225Y-53800828D02*
X37340225Y-55015114D01*
X37340225Y-55015114D02*
X37411654Y-55157971D01*
X37411654Y-55157971D02*
X37483083Y-55229400D01*
X37483083Y-55229400D02*
X37625940Y-55300828D01*
X37625940Y-55300828D02*
X37911654Y-55300828D01*
X37911654Y-55300828D02*
X38054511Y-55229400D01*
X38054511Y-55229400D02*
X38125940Y-55157971D01*
X38125940Y-55157971D02*
X38197368Y-55015114D01*
X38197368Y-55015114D02*
X38197368Y-53800828D01*
X38697369Y-53800828D02*
X39554512Y-53800828D01*
X39125940Y-55300828D02*
X39125940Y-53800828D01*
X41125940Y-54872257D02*
X41840226Y-54872257D01*
X40983083Y-55300828D02*
X41483083Y-53800828D01*
X41483083Y-53800828D02*
X41983083Y-55300828D01*
X43268797Y-55300828D02*
X42411654Y-55300828D01*
X42840225Y-55300828D02*
X42840225Y-53800828D01*
X42840225Y-53800828D02*
X42697368Y-54015114D01*
X42697368Y-54015114D02*
X42554511Y-54157971D01*
X42554511Y-54157971D02*
X42411654Y-54229400D01*
D12*
X72314819Y-29039523D02*
X73029104Y-29039523D01*
X73029104Y-29039523D02*
X73171961Y-29087142D01*
X73171961Y-29087142D02*
X73267200Y-29182380D01*
X73267200Y-29182380D02*
X73314819Y-29325237D01*
X73314819Y-29325237D02*
X73314819Y-29420475D01*
X73314819Y-28039523D02*
X73314819Y-28610951D01*
X73314819Y-28325237D02*
X72314819Y-28325237D01*
X72314819Y-28325237D02*
X72457676Y-28420475D01*
X72457676Y-28420475D02*
X72552914Y-28515713D01*
X72552914Y-28515713D02*
X72600533Y-28610951D01*
X73314819Y-27563332D02*
X73314819Y-27372856D01*
X73314819Y-27372856D02*
X73267200Y-27277618D01*
X73267200Y-27277618D02*
X73219580Y-27229999D01*
X73219580Y-27229999D02*
X73076723Y-27134761D01*
X73076723Y-27134761D02*
X72886247Y-27087142D01*
X72886247Y-27087142D02*
X72505295Y-27087142D01*
X72505295Y-27087142D02*
X72410057Y-27134761D01*
X72410057Y-27134761D02*
X72362438Y-27182380D01*
X72362438Y-27182380D02*
X72314819Y-27277618D01*
X72314819Y-27277618D02*
X72314819Y-27468094D01*
X72314819Y-27468094D02*
X72362438Y-27563332D01*
X72362438Y-27563332D02*
X72410057Y-27610951D01*
X72410057Y-27610951D02*
X72505295Y-27658570D01*
X72505295Y-27658570D02*
X72743390Y-27658570D01*
X72743390Y-27658570D02*
X72838628Y-27610951D01*
X72838628Y-27610951D02*
X72886247Y-27563332D01*
X72886247Y-27563332D02*
X72933866Y-27468094D01*
X72933866Y-27468094D02*
X72933866Y-27277618D01*
X72933866Y-27277618D02*
X72886247Y-27182380D01*
X72886247Y-27182380D02*
X72838628Y-27134761D01*
X72838628Y-27134761D02*
X72743390Y-27087142D01*
X91413333Y-120454819D02*
X91080000Y-119978628D01*
X90841905Y-120454819D02*
X90841905Y-119454819D01*
X90841905Y-119454819D02*
X91222857Y-119454819D01*
X91222857Y-119454819D02*
X91318095Y-119502438D01*
X91318095Y-119502438D02*
X91365714Y-119550057D01*
X91365714Y-119550057D02*
X91413333Y-119645295D01*
X91413333Y-119645295D02*
X91413333Y-119788152D01*
X91413333Y-119788152D02*
X91365714Y-119883390D01*
X91365714Y-119883390D02*
X91318095Y-119931009D01*
X91318095Y-119931009D02*
X91222857Y-119978628D01*
X91222857Y-119978628D02*
X90841905Y-119978628D01*
X92270476Y-119454819D02*
X92080000Y-119454819D01*
X92080000Y-119454819D02*
X91984762Y-119502438D01*
X91984762Y-119502438D02*
X91937143Y-119550057D01*
X91937143Y-119550057D02*
X91841905Y-119692914D01*
X91841905Y-119692914D02*
X91794286Y-119883390D01*
X91794286Y-119883390D02*
X91794286Y-120264342D01*
X91794286Y-120264342D02*
X91841905Y-120359580D01*
X91841905Y-120359580D02*
X91889524Y-120407200D01*
X91889524Y-120407200D02*
X91984762Y-120454819D01*
X91984762Y-120454819D02*
X92175238Y-120454819D01*
X92175238Y-120454819D02*
X92270476Y-120407200D01*
X92270476Y-120407200D02*
X92318095Y-120359580D01*
X92318095Y-120359580D02*
X92365714Y-120264342D01*
X92365714Y-120264342D02*
X92365714Y-120026247D01*
X92365714Y-120026247D02*
X92318095Y-119931009D01*
X92318095Y-119931009D02*
X92270476Y-119883390D01*
X92270476Y-119883390D02*
X92175238Y-119835771D01*
X92175238Y-119835771D02*
X91984762Y-119835771D01*
X91984762Y-119835771D02*
X91889524Y-119883390D01*
X91889524Y-119883390D02*
X91841905Y-119931009D01*
X91841905Y-119931009D02*
X91794286Y-120026247D01*
D11*
X55746666Y-43457419D02*
X55746666Y-44171704D01*
X55746666Y-44171704D02*
X55699047Y-44314561D01*
X55699047Y-44314561D02*
X55603809Y-44409800D01*
X55603809Y-44409800D02*
X55460952Y-44457419D01*
X55460952Y-44457419D02*
X55365714Y-44457419D01*
X56175238Y-43552657D02*
X56222857Y-43505038D01*
X56222857Y-43505038D02*
X56318095Y-43457419D01*
X56318095Y-43457419D02*
X56556190Y-43457419D01*
X56556190Y-43457419D02*
X56651428Y-43505038D01*
X56651428Y-43505038D02*
X56699047Y-43552657D01*
X56699047Y-43552657D02*
X56746666Y-43647895D01*
X56746666Y-43647895D02*
X56746666Y-43743133D01*
X56746666Y-43743133D02*
X56699047Y-43885990D01*
X56699047Y-43885990D02*
X56127619Y-44457419D01*
X56127619Y-44457419D02*
X56746666Y-44457419D01*
X37666666Y-63457419D02*
X37666666Y-64171704D01*
X37666666Y-64171704D02*
X37619047Y-64314561D01*
X37619047Y-64314561D02*
X37523809Y-64409800D01*
X37523809Y-64409800D02*
X37380952Y-64457419D01*
X37380952Y-64457419D02*
X37285714Y-64457419D01*
X38047619Y-63457419D02*
X38666666Y-63457419D01*
X38666666Y-63457419D02*
X38333333Y-63838371D01*
X38333333Y-63838371D02*
X38476190Y-63838371D01*
X38476190Y-63838371D02*
X38571428Y-63885990D01*
X38571428Y-63885990D02*
X38619047Y-63933609D01*
X38619047Y-63933609D02*
X38666666Y-64028847D01*
X38666666Y-64028847D02*
X38666666Y-64266942D01*
X38666666Y-64266942D02*
X38619047Y-64362180D01*
X38619047Y-64362180D02*
X38571428Y-64409800D01*
X38571428Y-64409800D02*
X38476190Y-64457419D01*
X38476190Y-64457419D02*
X38190476Y-64457419D01*
X38190476Y-64457419D02*
X38095238Y-64409800D01*
X38095238Y-64409800D02*
X38047619Y-64362180D01*
X77770476Y-67957419D02*
X77770476Y-68671704D01*
X77770476Y-68671704D02*
X77722857Y-68814561D01*
X77722857Y-68814561D02*
X77627619Y-68909800D01*
X77627619Y-68909800D02*
X77484762Y-68957419D01*
X77484762Y-68957419D02*
X77389524Y-68957419D01*
X78770476Y-68957419D02*
X78199048Y-68957419D01*
X78484762Y-68957419D02*
X78484762Y-67957419D01*
X78484762Y-67957419D02*
X78389524Y-68100276D01*
X78389524Y-68100276D02*
X78294286Y-68195514D01*
X78294286Y-68195514D02*
X78199048Y-68243133D01*
X79389524Y-67957419D02*
X79484762Y-67957419D01*
X79484762Y-67957419D02*
X79580000Y-68005038D01*
X79580000Y-68005038D02*
X79627619Y-68052657D01*
X79627619Y-68052657D02*
X79675238Y-68147895D01*
X79675238Y-68147895D02*
X79722857Y-68338371D01*
X79722857Y-68338371D02*
X79722857Y-68576466D01*
X79722857Y-68576466D02*
X79675238Y-68766942D01*
X79675238Y-68766942D02*
X79627619Y-68862180D01*
X79627619Y-68862180D02*
X79580000Y-68909800D01*
X79580000Y-68909800D02*
X79484762Y-68957419D01*
X79484762Y-68957419D02*
X79389524Y-68957419D01*
X79389524Y-68957419D02*
X79294286Y-68909800D01*
X79294286Y-68909800D02*
X79246667Y-68862180D01*
X79246667Y-68862180D02*
X79199048Y-68766942D01*
X79199048Y-68766942D02*
X79151429Y-68576466D01*
X79151429Y-68576466D02*
X79151429Y-68338371D01*
X79151429Y-68338371D02*
X79199048Y-68147895D01*
X79199048Y-68147895D02*
X79246667Y-68052657D01*
X79246667Y-68052657D02*
X79294286Y-68005038D01*
X79294286Y-68005038D02*
X79389524Y-67957419D01*
X37666666Y-39457419D02*
X37666666Y-40171704D01*
X37666666Y-40171704D02*
X37619047Y-40314561D01*
X37619047Y-40314561D02*
X37523809Y-40409800D01*
X37523809Y-40409800D02*
X37380952Y-40457419D01*
X37380952Y-40457419D02*
X37285714Y-40457419D01*
X38666666Y-40457419D02*
X38095238Y-40457419D01*
X38380952Y-40457419D02*
X38380952Y-39457419D01*
X38380952Y-39457419D02*
X38285714Y-39600276D01*
X38285714Y-39600276D02*
X38190476Y-39695514D01*
X38190476Y-39695514D02*
X38095238Y-39743133D01*
D12*
X67333333Y-110954819D02*
X67000000Y-110478628D01*
X66761905Y-110954819D02*
X66761905Y-109954819D01*
X66761905Y-109954819D02*
X67142857Y-109954819D01*
X67142857Y-109954819D02*
X67238095Y-110002438D01*
X67238095Y-110002438D02*
X67285714Y-110050057D01*
X67285714Y-110050057D02*
X67333333Y-110145295D01*
X67333333Y-110145295D02*
X67333333Y-110288152D01*
X67333333Y-110288152D02*
X67285714Y-110383390D01*
X67285714Y-110383390D02*
X67238095Y-110431009D01*
X67238095Y-110431009D02*
X67142857Y-110478628D01*
X67142857Y-110478628D02*
X66761905Y-110478628D01*
X67714286Y-110050057D02*
X67761905Y-110002438D01*
X67761905Y-110002438D02*
X67857143Y-109954819D01*
X67857143Y-109954819D02*
X68095238Y-109954819D01*
X68095238Y-109954819D02*
X68190476Y-110002438D01*
X68190476Y-110002438D02*
X68238095Y-110050057D01*
X68238095Y-110050057D02*
X68285714Y-110145295D01*
X68285714Y-110145295D02*
X68285714Y-110240533D01*
X68285714Y-110240533D02*
X68238095Y-110383390D01*
X68238095Y-110383390D02*
X67666667Y-110954819D01*
X67666667Y-110954819D02*
X68285714Y-110954819D01*
D11*
X55746666Y-92457419D02*
X55746666Y-93171704D01*
X55746666Y-93171704D02*
X55699047Y-93314561D01*
X55699047Y-93314561D02*
X55603809Y-93409800D01*
X55603809Y-93409800D02*
X55460952Y-93457419D01*
X55460952Y-93457419D02*
X55365714Y-93457419D01*
X56651428Y-92457419D02*
X56460952Y-92457419D01*
X56460952Y-92457419D02*
X56365714Y-92505038D01*
X56365714Y-92505038D02*
X56318095Y-92552657D01*
X56318095Y-92552657D02*
X56222857Y-92695514D01*
X56222857Y-92695514D02*
X56175238Y-92885990D01*
X56175238Y-92885990D02*
X56175238Y-93266942D01*
X56175238Y-93266942D02*
X56222857Y-93362180D01*
X56222857Y-93362180D02*
X56270476Y-93409800D01*
X56270476Y-93409800D02*
X56365714Y-93457419D01*
X56365714Y-93457419D02*
X56556190Y-93457419D01*
X56556190Y-93457419D02*
X56651428Y-93409800D01*
X56651428Y-93409800D02*
X56699047Y-93362180D01*
X56699047Y-93362180D02*
X56746666Y-93266942D01*
X56746666Y-93266942D02*
X56746666Y-93028847D01*
X56746666Y-93028847D02*
X56699047Y-92933609D01*
X56699047Y-92933609D02*
X56651428Y-92885990D01*
X56651428Y-92885990D02*
X56556190Y-92838371D01*
X56556190Y-92838371D02*
X56365714Y-92838371D01*
X56365714Y-92838371D02*
X56270476Y-92885990D01*
X56270476Y-92885990D02*
X56222857Y-92933609D01*
X56222857Y-92933609D02*
X56175238Y-93028847D01*
X32190476Y-124457419D02*
X32190476Y-125171704D01*
X32190476Y-125171704D02*
X32142857Y-125314561D01*
X32142857Y-125314561D02*
X32047619Y-125409800D01*
X32047619Y-125409800D02*
X31904762Y-125457419D01*
X31904762Y-125457419D02*
X31809524Y-125457419D01*
X33190476Y-125457419D02*
X32619048Y-125457419D01*
X32904762Y-125457419D02*
X32904762Y-124457419D01*
X32904762Y-124457419D02*
X32809524Y-124600276D01*
X32809524Y-124600276D02*
X32714286Y-124695514D01*
X32714286Y-124695514D02*
X32619048Y-124743133D01*
X34047619Y-124790752D02*
X34047619Y-125457419D01*
X33809524Y-124409800D02*
X33571429Y-125124085D01*
X33571429Y-125124085D02*
X34190476Y-125124085D01*
D12*
X31314819Y-113761904D02*
X32124342Y-113761904D01*
X32124342Y-113761904D02*
X32219580Y-113714285D01*
X32219580Y-113714285D02*
X32267200Y-113666666D01*
X32267200Y-113666666D02*
X32314819Y-113571428D01*
X32314819Y-113571428D02*
X32314819Y-113380952D01*
X32314819Y-113380952D02*
X32267200Y-113285714D01*
X32267200Y-113285714D02*
X32219580Y-113238095D01*
X32219580Y-113238095D02*
X32124342Y-113190476D01*
X32124342Y-113190476D02*
X31314819Y-113190476D01*
X32314819Y-112190476D02*
X32314819Y-112761904D01*
X32314819Y-112476190D02*
X31314819Y-112476190D01*
X31314819Y-112476190D02*
X31457676Y-112571428D01*
X31457676Y-112571428D02*
X31552914Y-112666666D01*
X31552914Y-112666666D02*
X31600533Y-112761904D01*
D11*
X96166666Y-63457419D02*
X96166666Y-64171704D01*
X96166666Y-64171704D02*
X96119047Y-64314561D01*
X96119047Y-64314561D02*
X96023809Y-64409800D01*
X96023809Y-64409800D02*
X95880952Y-64457419D01*
X95880952Y-64457419D02*
X95785714Y-64457419D01*
X96690476Y-64457419D02*
X96880952Y-64457419D01*
X96880952Y-64457419D02*
X96976190Y-64409800D01*
X96976190Y-64409800D02*
X97023809Y-64362180D01*
X97023809Y-64362180D02*
X97119047Y-64219323D01*
X97119047Y-64219323D02*
X97166666Y-64028847D01*
X97166666Y-64028847D02*
X97166666Y-63647895D01*
X97166666Y-63647895D02*
X97119047Y-63552657D01*
X97119047Y-63552657D02*
X97071428Y-63505038D01*
X97071428Y-63505038D02*
X96976190Y-63457419D01*
X96976190Y-63457419D02*
X96785714Y-63457419D01*
X96785714Y-63457419D02*
X96690476Y-63505038D01*
X96690476Y-63505038D02*
X96642857Y-63552657D01*
X96642857Y-63552657D02*
X96595238Y-63647895D01*
X96595238Y-63647895D02*
X96595238Y-63885990D01*
X96595238Y-63885990D02*
X96642857Y-63981228D01*
X96642857Y-63981228D02*
X96690476Y-64028847D01*
X96690476Y-64028847D02*
X96785714Y-64076466D01*
X96785714Y-64076466D02*
X96976190Y-64076466D01*
X96976190Y-64076466D02*
X97071428Y-64028847D01*
X97071428Y-64028847D02*
X97119047Y-63981228D01*
X97119047Y-63981228D02*
X97166666Y-63885990D01*
X78246666Y-43457419D02*
X78246666Y-44171704D01*
X78246666Y-44171704D02*
X78199047Y-44314561D01*
X78199047Y-44314561D02*
X78103809Y-44409800D01*
X78103809Y-44409800D02*
X77960952Y-44457419D01*
X77960952Y-44457419D02*
X77865714Y-44457419D01*
X78865714Y-43885990D02*
X78770476Y-43838371D01*
X78770476Y-43838371D02*
X78722857Y-43790752D01*
X78722857Y-43790752D02*
X78675238Y-43695514D01*
X78675238Y-43695514D02*
X78675238Y-43647895D01*
X78675238Y-43647895D02*
X78722857Y-43552657D01*
X78722857Y-43552657D02*
X78770476Y-43505038D01*
X78770476Y-43505038D02*
X78865714Y-43457419D01*
X78865714Y-43457419D02*
X79056190Y-43457419D01*
X79056190Y-43457419D02*
X79151428Y-43505038D01*
X79151428Y-43505038D02*
X79199047Y-43552657D01*
X79199047Y-43552657D02*
X79246666Y-43647895D01*
X79246666Y-43647895D02*
X79246666Y-43695514D01*
X79246666Y-43695514D02*
X79199047Y-43790752D01*
X79199047Y-43790752D02*
X79151428Y-43838371D01*
X79151428Y-43838371D02*
X79056190Y-43885990D01*
X79056190Y-43885990D02*
X78865714Y-43885990D01*
X78865714Y-43885990D02*
X78770476Y-43933609D01*
X78770476Y-43933609D02*
X78722857Y-43981228D01*
X78722857Y-43981228D02*
X78675238Y-44076466D01*
X78675238Y-44076466D02*
X78675238Y-44266942D01*
X78675238Y-44266942D02*
X78722857Y-44362180D01*
X78722857Y-44362180D02*
X78770476Y-44409800D01*
X78770476Y-44409800D02*
X78865714Y-44457419D01*
X78865714Y-44457419D02*
X79056190Y-44457419D01*
X79056190Y-44457419D02*
X79151428Y-44409800D01*
X79151428Y-44409800D02*
X79199047Y-44362180D01*
X79199047Y-44362180D02*
X79246666Y-44266942D01*
X79246666Y-44266942D02*
X79246666Y-44076466D01*
X79246666Y-44076466D02*
X79199047Y-43981228D01*
X79199047Y-43981228D02*
X79151428Y-43933609D01*
X79151428Y-43933609D02*
X79056190Y-43885990D01*
X90404761Y-59457419D02*
X90071428Y-58981228D01*
X89833333Y-59457419D02*
X89833333Y-58457419D01*
X89833333Y-58457419D02*
X90214285Y-58457419D01*
X90214285Y-58457419D02*
X90309523Y-58505038D01*
X90309523Y-58505038D02*
X90357142Y-58552657D01*
X90357142Y-58552657D02*
X90404761Y-58647895D01*
X90404761Y-58647895D02*
X90404761Y-58790752D01*
X90404761Y-58790752D02*
X90357142Y-58885990D01*
X90357142Y-58885990D02*
X90309523Y-58933609D01*
X90309523Y-58933609D02*
X90214285Y-58981228D01*
X90214285Y-58981228D02*
X89833333Y-58981228D01*
X90690476Y-58457419D02*
X91023809Y-59457419D01*
X91023809Y-59457419D02*
X91357142Y-58457419D01*
X92119047Y-58790752D02*
X92119047Y-59457419D01*
X91880952Y-58409800D02*
X91642857Y-59124085D01*
X91642857Y-59124085D02*
X92261904Y-59124085D01*
X55706666Y-67757419D02*
X55706666Y-68471704D01*
X55706666Y-68471704D02*
X55659047Y-68614561D01*
X55659047Y-68614561D02*
X55563809Y-68709800D01*
X55563809Y-68709800D02*
X55420952Y-68757419D01*
X55420952Y-68757419D02*
X55325714Y-68757419D01*
X56611428Y-68090752D02*
X56611428Y-68757419D01*
X56373333Y-67709800D02*
X56135238Y-68424085D01*
X56135238Y-68424085D02*
X56754285Y-68424085D01*
X37666666Y-88457419D02*
X37666666Y-89171704D01*
X37666666Y-89171704D02*
X37619047Y-89314561D01*
X37619047Y-89314561D02*
X37523809Y-89409800D01*
X37523809Y-89409800D02*
X37380952Y-89457419D01*
X37380952Y-89457419D02*
X37285714Y-89457419D01*
X38619047Y-88457419D02*
X38142857Y-88457419D01*
X38142857Y-88457419D02*
X38095238Y-88933609D01*
X38095238Y-88933609D02*
X38142857Y-88885990D01*
X38142857Y-88885990D02*
X38238095Y-88838371D01*
X38238095Y-88838371D02*
X38476190Y-88838371D01*
X38476190Y-88838371D02*
X38571428Y-88885990D01*
X38571428Y-88885990D02*
X38619047Y-88933609D01*
X38619047Y-88933609D02*
X38666666Y-89028847D01*
X38666666Y-89028847D02*
X38666666Y-89266942D01*
X38666666Y-89266942D02*
X38619047Y-89362180D01*
X38619047Y-89362180D02*
X38571428Y-89409800D01*
X38571428Y-89409800D02*
X38476190Y-89457419D01*
X38476190Y-89457419D02*
X38238095Y-89457419D01*
X38238095Y-89457419D02*
X38142857Y-89409800D01*
X38142857Y-89409800D02*
X38095238Y-89362180D01*
X42904761Y-85457419D02*
X42571428Y-84981228D01*
X42333333Y-85457419D02*
X42333333Y-84457419D01*
X42333333Y-84457419D02*
X42714285Y-84457419D01*
X42714285Y-84457419D02*
X42809523Y-84505038D01*
X42809523Y-84505038D02*
X42857142Y-84552657D01*
X42857142Y-84552657D02*
X42904761Y-84647895D01*
X42904761Y-84647895D02*
X42904761Y-84790752D01*
X42904761Y-84790752D02*
X42857142Y-84885990D01*
X42857142Y-84885990D02*
X42809523Y-84933609D01*
X42809523Y-84933609D02*
X42714285Y-84981228D01*
X42714285Y-84981228D02*
X42333333Y-84981228D01*
X43190476Y-84457419D02*
X43523809Y-85457419D01*
X43523809Y-85457419D02*
X43857142Y-84457419D01*
X44095238Y-84457419D02*
X44714285Y-84457419D01*
X44714285Y-84457419D02*
X44380952Y-84838371D01*
X44380952Y-84838371D02*
X44523809Y-84838371D01*
X44523809Y-84838371D02*
X44619047Y-84885990D01*
X44619047Y-84885990D02*
X44666666Y-84933609D01*
X44666666Y-84933609D02*
X44714285Y-85028847D01*
X44714285Y-85028847D02*
X44714285Y-85266942D01*
X44714285Y-85266942D02*
X44666666Y-85362180D01*
X44666666Y-85362180D02*
X44619047Y-85409800D01*
X44619047Y-85409800D02*
X44523809Y-85457419D01*
X44523809Y-85457419D02*
X44238095Y-85457419D01*
X44238095Y-85457419D02*
X44142857Y-85409800D01*
X44142857Y-85409800D02*
X44095238Y-85362180D01*
X45404761Y-117432481D02*
X45071428Y-116956290D01*
X44833333Y-117432481D02*
X44833333Y-116432481D01*
X44833333Y-116432481D02*
X45214285Y-116432481D01*
X45214285Y-116432481D02*
X45309523Y-116480100D01*
X45309523Y-116480100D02*
X45357142Y-116527719D01*
X45357142Y-116527719D02*
X45404761Y-116622957D01*
X45404761Y-116622957D02*
X45404761Y-116765814D01*
X45404761Y-116765814D02*
X45357142Y-116861052D01*
X45357142Y-116861052D02*
X45309523Y-116908671D01*
X45309523Y-116908671D02*
X45214285Y-116956290D01*
X45214285Y-116956290D02*
X44833333Y-116956290D01*
X45690476Y-116432481D02*
X46023809Y-117432481D01*
X46023809Y-117432481D02*
X46357142Y-116432481D01*
X46595238Y-116432481D02*
X47261904Y-116432481D01*
X47261904Y-116432481D02*
X46833333Y-117432481D01*
X90404761Y-85457419D02*
X90071428Y-84981228D01*
X89833333Y-85457419D02*
X89833333Y-84457419D01*
X89833333Y-84457419D02*
X90214285Y-84457419D01*
X90214285Y-84457419D02*
X90309523Y-84505038D01*
X90309523Y-84505038D02*
X90357142Y-84552657D01*
X90357142Y-84552657D02*
X90404761Y-84647895D01*
X90404761Y-84647895D02*
X90404761Y-84790752D01*
X90404761Y-84790752D02*
X90357142Y-84885990D01*
X90357142Y-84885990D02*
X90309523Y-84933609D01*
X90309523Y-84933609D02*
X90214285Y-84981228D01*
X90214285Y-84981228D02*
X89833333Y-84981228D01*
X90690476Y-84457419D02*
X91023809Y-85457419D01*
X91023809Y-85457419D02*
X91357142Y-84457419D01*
X92119047Y-84457419D02*
X91928571Y-84457419D01*
X91928571Y-84457419D02*
X91833333Y-84505038D01*
X91833333Y-84505038D02*
X91785714Y-84552657D01*
X91785714Y-84552657D02*
X91690476Y-84695514D01*
X91690476Y-84695514D02*
X91642857Y-84885990D01*
X91642857Y-84885990D02*
X91642857Y-85266942D01*
X91642857Y-85266942D02*
X91690476Y-85362180D01*
X91690476Y-85362180D02*
X91738095Y-85409800D01*
X91738095Y-85409800D02*
X91833333Y-85457419D01*
X91833333Y-85457419D02*
X92023809Y-85457419D01*
X92023809Y-85457419D02*
X92119047Y-85409800D01*
X92119047Y-85409800D02*
X92166666Y-85362180D01*
X92166666Y-85362180D02*
X92214285Y-85266942D01*
X92214285Y-85266942D02*
X92214285Y-85028847D01*
X92214285Y-85028847D02*
X92166666Y-84933609D01*
X92166666Y-84933609D02*
X92119047Y-84885990D01*
X92119047Y-84885990D02*
X92023809Y-84838371D01*
X92023809Y-84838371D02*
X91833333Y-84838371D01*
X91833333Y-84838371D02*
X91738095Y-84885990D01*
X91738095Y-84885990D02*
X91690476Y-84933609D01*
X91690476Y-84933609D02*
X91642857Y-85028847D01*
X55270476Y-125957419D02*
X55270476Y-126671704D01*
X55270476Y-126671704D02*
X55222857Y-126814561D01*
X55222857Y-126814561D02*
X55127619Y-126909800D01*
X55127619Y-126909800D02*
X54984762Y-126957419D01*
X54984762Y-126957419D02*
X54889524Y-126957419D01*
X56270476Y-126957419D02*
X55699048Y-126957419D01*
X55984762Y-126957419D02*
X55984762Y-125957419D01*
X55984762Y-125957419D02*
X55889524Y-126100276D01*
X55889524Y-126100276D02*
X55794286Y-126195514D01*
X55794286Y-126195514D02*
X55699048Y-126243133D01*
X56603810Y-125957419D02*
X57222857Y-125957419D01*
X57222857Y-125957419D02*
X56889524Y-126338371D01*
X56889524Y-126338371D02*
X57032381Y-126338371D01*
X57032381Y-126338371D02*
X57127619Y-126385990D01*
X57127619Y-126385990D02*
X57175238Y-126433609D01*
X57175238Y-126433609D02*
X57222857Y-126528847D01*
X57222857Y-126528847D02*
X57222857Y-126766942D01*
X57222857Y-126766942D02*
X57175238Y-126862180D01*
X57175238Y-126862180D02*
X57127619Y-126909800D01*
X57127619Y-126909800D02*
X57032381Y-126957419D01*
X57032381Y-126957419D02*
X56746667Y-126957419D01*
X56746667Y-126957419D02*
X56651429Y-126909800D01*
X56651429Y-126909800D02*
X56603810Y-126862180D01*
D12*
X81333333Y-110954819D02*
X81000000Y-110478628D01*
X80761905Y-110954819D02*
X80761905Y-109954819D01*
X80761905Y-109954819D02*
X81142857Y-109954819D01*
X81142857Y-109954819D02*
X81238095Y-110002438D01*
X81238095Y-110002438D02*
X81285714Y-110050057D01*
X81285714Y-110050057D02*
X81333333Y-110145295D01*
X81333333Y-110145295D02*
X81333333Y-110288152D01*
X81333333Y-110288152D02*
X81285714Y-110383390D01*
X81285714Y-110383390D02*
X81238095Y-110431009D01*
X81238095Y-110431009D02*
X81142857Y-110478628D01*
X81142857Y-110478628D02*
X80761905Y-110478628D01*
X81666667Y-109954819D02*
X82285714Y-109954819D01*
X82285714Y-109954819D02*
X81952381Y-110335771D01*
X81952381Y-110335771D02*
X82095238Y-110335771D01*
X82095238Y-110335771D02*
X82190476Y-110383390D01*
X82190476Y-110383390D02*
X82238095Y-110431009D01*
X82238095Y-110431009D02*
X82285714Y-110526247D01*
X82285714Y-110526247D02*
X82285714Y-110764342D01*
X82285714Y-110764342D02*
X82238095Y-110859580D01*
X82238095Y-110859580D02*
X82190476Y-110907200D01*
X82190476Y-110907200D02*
X82095238Y-110954819D01*
X82095238Y-110954819D02*
X81809524Y-110954819D01*
X81809524Y-110954819D02*
X81714286Y-110907200D01*
X81714286Y-110907200D02*
X81666667Y-110859580D01*
X91413333Y-115454819D02*
X91080000Y-114978628D01*
X90841905Y-115454819D02*
X90841905Y-114454819D01*
X90841905Y-114454819D02*
X91222857Y-114454819D01*
X91222857Y-114454819D02*
X91318095Y-114502438D01*
X91318095Y-114502438D02*
X91365714Y-114550057D01*
X91365714Y-114550057D02*
X91413333Y-114645295D01*
X91413333Y-114645295D02*
X91413333Y-114788152D01*
X91413333Y-114788152D02*
X91365714Y-114883390D01*
X91365714Y-114883390D02*
X91318095Y-114931009D01*
X91318095Y-114931009D02*
X91222857Y-114978628D01*
X91222857Y-114978628D02*
X90841905Y-114978628D01*
X92318095Y-114454819D02*
X91841905Y-114454819D01*
X91841905Y-114454819D02*
X91794286Y-114931009D01*
X91794286Y-114931009D02*
X91841905Y-114883390D01*
X91841905Y-114883390D02*
X91937143Y-114835771D01*
X91937143Y-114835771D02*
X92175238Y-114835771D01*
X92175238Y-114835771D02*
X92270476Y-114883390D01*
X92270476Y-114883390D02*
X92318095Y-114931009D01*
X92318095Y-114931009D02*
X92365714Y-115026247D01*
X92365714Y-115026247D02*
X92365714Y-115264342D01*
X92365714Y-115264342D02*
X92318095Y-115359580D01*
X92318095Y-115359580D02*
X92270476Y-115407200D01*
X92270476Y-115407200D02*
X92175238Y-115454819D01*
X92175238Y-115454819D02*
X91937143Y-115454819D01*
X91937143Y-115454819D02*
X91841905Y-115407200D01*
X91841905Y-115407200D02*
X91794286Y-115359580D01*
X43814819Y-29079523D02*
X44529104Y-29079523D01*
X44529104Y-29079523D02*
X44671961Y-29127142D01*
X44671961Y-29127142D02*
X44767200Y-29222380D01*
X44767200Y-29222380D02*
X44814819Y-29365237D01*
X44814819Y-29365237D02*
X44814819Y-29460475D01*
X44814819Y-28079523D02*
X44814819Y-28650951D01*
X44814819Y-28365237D02*
X43814819Y-28365237D01*
X43814819Y-28365237D02*
X43957676Y-28460475D01*
X43957676Y-28460475D02*
X44052914Y-28555713D01*
X44052914Y-28555713D02*
X44100533Y-28650951D01*
X44243390Y-27508094D02*
X44195771Y-27603332D01*
X44195771Y-27603332D02*
X44148152Y-27650951D01*
X44148152Y-27650951D02*
X44052914Y-27698570D01*
X44052914Y-27698570D02*
X44005295Y-27698570D01*
X44005295Y-27698570D02*
X43910057Y-27650951D01*
X43910057Y-27650951D02*
X43862438Y-27603332D01*
X43862438Y-27603332D02*
X43814819Y-27508094D01*
X43814819Y-27508094D02*
X43814819Y-27317618D01*
X43814819Y-27317618D02*
X43862438Y-27222380D01*
X43862438Y-27222380D02*
X43910057Y-27174761D01*
X43910057Y-27174761D02*
X44005295Y-27127142D01*
X44005295Y-27127142D02*
X44052914Y-27127142D01*
X44052914Y-27127142D02*
X44148152Y-27174761D01*
X44148152Y-27174761D02*
X44195771Y-27222380D01*
X44195771Y-27222380D02*
X44243390Y-27317618D01*
X44243390Y-27317618D02*
X44243390Y-27508094D01*
X44243390Y-27508094D02*
X44291009Y-27603332D01*
X44291009Y-27603332D02*
X44338628Y-27650951D01*
X44338628Y-27650951D02*
X44433866Y-27698570D01*
X44433866Y-27698570D02*
X44624342Y-27698570D01*
X44624342Y-27698570D02*
X44719580Y-27650951D01*
X44719580Y-27650951D02*
X44767200Y-27603332D01*
X44767200Y-27603332D02*
X44814819Y-27508094D01*
X44814819Y-27508094D02*
X44814819Y-27317618D01*
X44814819Y-27317618D02*
X44767200Y-27222380D01*
X44767200Y-27222380D02*
X44719580Y-27174761D01*
X44719580Y-27174761D02*
X44624342Y-27127142D01*
X44624342Y-27127142D02*
X44433866Y-27127142D01*
X44433866Y-27127142D02*
X44338628Y-27174761D01*
X44338628Y-27174761D02*
X44291009Y-27222380D01*
X44291009Y-27222380D02*
X44243390Y-27317618D01*
D11*
X77770476Y-92457419D02*
X77770476Y-93171704D01*
X77770476Y-93171704D02*
X77722857Y-93314561D01*
X77722857Y-93314561D02*
X77627619Y-93409800D01*
X77627619Y-93409800D02*
X77484762Y-93457419D01*
X77484762Y-93457419D02*
X77389524Y-93457419D01*
X78770476Y-93457419D02*
X78199048Y-93457419D01*
X78484762Y-93457419D02*
X78484762Y-92457419D01*
X78484762Y-92457419D02*
X78389524Y-92600276D01*
X78389524Y-92600276D02*
X78294286Y-92695514D01*
X78294286Y-92695514D02*
X78199048Y-92743133D01*
X79151429Y-92552657D02*
X79199048Y-92505038D01*
X79199048Y-92505038D02*
X79294286Y-92457419D01*
X79294286Y-92457419D02*
X79532381Y-92457419D01*
X79532381Y-92457419D02*
X79627619Y-92505038D01*
X79627619Y-92505038D02*
X79675238Y-92552657D01*
X79675238Y-92552657D02*
X79722857Y-92647895D01*
X79722857Y-92647895D02*
X79722857Y-92743133D01*
X79722857Y-92743133D02*
X79675238Y-92885990D01*
X79675238Y-92885990D02*
X79103810Y-93457419D01*
X79103810Y-93457419D02*
X79722857Y-93457419D01*
D12*
X37753333Y-123954819D02*
X37420000Y-123478628D01*
X37181905Y-123954819D02*
X37181905Y-122954819D01*
X37181905Y-122954819D02*
X37562857Y-122954819D01*
X37562857Y-122954819D02*
X37658095Y-123002438D01*
X37658095Y-123002438D02*
X37705714Y-123050057D01*
X37705714Y-123050057D02*
X37753333Y-123145295D01*
X37753333Y-123145295D02*
X37753333Y-123288152D01*
X37753333Y-123288152D02*
X37705714Y-123383390D01*
X37705714Y-123383390D02*
X37658095Y-123431009D01*
X37658095Y-123431009D02*
X37562857Y-123478628D01*
X37562857Y-123478628D02*
X37181905Y-123478628D01*
X38086667Y-122954819D02*
X38753333Y-122954819D01*
X38753333Y-122954819D02*
X38324762Y-123954819D01*
D11*
X95690476Y-88457419D02*
X95690476Y-89171704D01*
X95690476Y-89171704D02*
X95642857Y-89314561D01*
X95642857Y-89314561D02*
X95547619Y-89409800D01*
X95547619Y-89409800D02*
X95404762Y-89457419D01*
X95404762Y-89457419D02*
X95309524Y-89457419D01*
X96690476Y-89457419D02*
X96119048Y-89457419D01*
X96404762Y-89457419D02*
X96404762Y-88457419D01*
X96404762Y-88457419D02*
X96309524Y-88600276D01*
X96309524Y-88600276D02*
X96214286Y-88695514D01*
X96214286Y-88695514D02*
X96119048Y-88743133D01*
X97642857Y-89457419D02*
X97071429Y-89457419D01*
X97357143Y-89457419D02*
X97357143Y-88457419D01*
X97357143Y-88457419D02*
X97261905Y-88600276D01*
X97261905Y-88600276D02*
X97166667Y-88695514D01*
X97166667Y-88695514D02*
X97071429Y-88743133D01*
X100690476Y-124457419D02*
X100690476Y-125171704D01*
X100690476Y-125171704D02*
X100642857Y-125314561D01*
X100642857Y-125314561D02*
X100547619Y-125409800D01*
X100547619Y-125409800D02*
X100404762Y-125457419D01*
X100404762Y-125457419D02*
X100309524Y-125457419D01*
X101690476Y-125457419D02*
X101119048Y-125457419D01*
X101404762Y-125457419D02*
X101404762Y-124457419D01*
X101404762Y-124457419D02*
X101309524Y-124600276D01*
X101309524Y-124600276D02*
X101214286Y-124695514D01*
X101214286Y-124695514D02*
X101119048Y-124743133D01*
X102547619Y-124457419D02*
X102357143Y-124457419D01*
X102357143Y-124457419D02*
X102261905Y-124505038D01*
X102261905Y-124505038D02*
X102214286Y-124552657D01*
X102214286Y-124552657D02*
X102119048Y-124695514D01*
X102119048Y-124695514D02*
X102071429Y-124885990D01*
X102071429Y-124885990D02*
X102071429Y-125266942D01*
X102071429Y-125266942D02*
X102119048Y-125362180D01*
X102119048Y-125362180D02*
X102166667Y-125409800D01*
X102166667Y-125409800D02*
X102261905Y-125457419D01*
X102261905Y-125457419D02*
X102452381Y-125457419D01*
X102452381Y-125457419D02*
X102547619Y-125409800D01*
X102547619Y-125409800D02*
X102595238Y-125362180D01*
X102595238Y-125362180D02*
X102642857Y-125266942D01*
X102642857Y-125266942D02*
X102642857Y-125028847D01*
X102642857Y-125028847D02*
X102595238Y-124933609D01*
X102595238Y-124933609D02*
X102547619Y-124885990D01*
X102547619Y-124885990D02*
X102452381Y-124838371D01*
X102452381Y-124838371D02*
X102261905Y-124838371D01*
X102261905Y-124838371D02*
X102166667Y-124885990D01*
X102166667Y-124885990D02*
X102119048Y-124933609D01*
X102119048Y-124933609D02*
X102071429Y-125028847D01*
X96166666Y-39432481D02*
X96166666Y-40146766D01*
X96166666Y-40146766D02*
X96119047Y-40289623D01*
X96119047Y-40289623D02*
X96023809Y-40384862D01*
X96023809Y-40384862D02*
X95880952Y-40432481D01*
X95880952Y-40432481D02*
X95785714Y-40432481D01*
X96547619Y-39432481D02*
X97214285Y-39432481D01*
X97214285Y-39432481D02*
X96785714Y-40432481D01*
X77770476Y-125957419D02*
X77770476Y-126671704D01*
X77770476Y-126671704D02*
X77722857Y-126814561D01*
X77722857Y-126814561D02*
X77627619Y-126909800D01*
X77627619Y-126909800D02*
X77484762Y-126957419D01*
X77484762Y-126957419D02*
X77389524Y-126957419D01*
X78770476Y-126957419D02*
X78199048Y-126957419D01*
X78484762Y-126957419D02*
X78484762Y-125957419D01*
X78484762Y-125957419D02*
X78389524Y-126100276D01*
X78389524Y-126100276D02*
X78294286Y-126195514D01*
X78294286Y-126195514D02*
X78199048Y-126243133D01*
X79675238Y-125957419D02*
X79199048Y-125957419D01*
X79199048Y-125957419D02*
X79151429Y-126433609D01*
X79151429Y-126433609D02*
X79199048Y-126385990D01*
X79199048Y-126385990D02*
X79294286Y-126338371D01*
X79294286Y-126338371D02*
X79532381Y-126338371D01*
X79532381Y-126338371D02*
X79627619Y-126385990D01*
X79627619Y-126385990D02*
X79675238Y-126433609D01*
X79675238Y-126433609D02*
X79722857Y-126528847D01*
X79722857Y-126528847D02*
X79722857Y-126766942D01*
X79722857Y-126766942D02*
X79675238Y-126862180D01*
X79675238Y-126862180D02*
X79627619Y-126909800D01*
X79627619Y-126909800D02*
X79532381Y-126957419D01*
X79532381Y-126957419D02*
X79294286Y-126957419D01*
X79294286Y-126957419D02*
X79199048Y-126909800D01*
X79199048Y-126909800D02*
X79151429Y-126862180D01*
X42904761Y-59457419D02*
X42571428Y-58981228D01*
X42333333Y-59457419D02*
X42333333Y-58457419D01*
X42333333Y-58457419D02*
X42714285Y-58457419D01*
X42714285Y-58457419D02*
X42809523Y-58505038D01*
X42809523Y-58505038D02*
X42857142Y-58552657D01*
X42857142Y-58552657D02*
X42904761Y-58647895D01*
X42904761Y-58647895D02*
X42904761Y-58790752D01*
X42904761Y-58790752D02*
X42857142Y-58885990D01*
X42857142Y-58885990D02*
X42809523Y-58933609D01*
X42809523Y-58933609D02*
X42714285Y-58981228D01*
X42714285Y-58981228D02*
X42333333Y-58981228D01*
X43190476Y-58457419D02*
X43523809Y-59457419D01*
X43523809Y-59457419D02*
X43857142Y-58457419D01*
X44714285Y-59457419D02*
X44142857Y-59457419D01*
X44428571Y-59457419D02*
X44428571Y-58457419D01*
X44428571Y-58457419D02*
X44333333Y-58600276D01*
X44333333Y-58600276D02*
X44238095Y-58695514D01*
X44238095Y-58695514D02*
X44142857Y-58743133D01*
X90404761Y-83957419D02*
X90071428Y-83481228D01*
X89833333Y-83957419D02*
X89833333Y-82957419D01*
X89833333Y-82957419D02*
X90214285Y-82957419D01*
X90214285Y-82957419D02*
X90309523Y-83005038D01*
X90309523Y-83005038D02*
X90357142Y-83052657D01*
X90357142Y-83052657D02*
X90404761Y-83147895D01*
X90404761Y-83147895D02*
X90404761Y-83290752D01*
X90404761Y-83290752D02*
X90357142Y-83385990D01*
X90357142Y-83385990D02*
X90309523Y-83433609D01*
X90309523Y-83433609D02*
X90214285Y-83481228D01*
X90214285Y-83481228D02*
X89833333Y-83481228D01*
X90690476Y-82957419D02*
X91023809Y-83957419D01*
X91023809Y-83957419D02*
X91357142Y-82957419D01*
X92166666Y-82957419D02*
X91690476Y-82957419D01*
X91690476Y-82957419D02*
X91642857Y-83433609D01*
X91642857Y-83433609D02*
X91690476Y-83385990D01*
X91690476Y-83385990D02*
X91785714Y-83338371D01*
X91785714Y-83338371D02*
X92023809Y-83338371D01*
X92023809Y-83338371D02*
X92119047Y-83385990D01*
X92119047Y-83385990D02*
X92166666Y-83433609D01*
X92166666Y-83433609D02*
X92214285Y-83528847D01*
X92214285Y-83528847D02*
X92214285Y-83766942D01*
X92214285Y-83766942D02*
X92166666Y-83862180D01*
X92166666Y-83862180D02*
X92119047Y-83909800D01*
X92119047Y-83909800D02*
X92023809Y-83957419D01*
X92023809Y-83957419D02*
X91785714Y-83957419D01*
X91785714Y-83957419D02*
X91690476Y-83909800D01*
X91690476Y-83909800D02*
X91642857Y-83862180D01*
D12*
X52333333Y-110954819D02*
X52000000Y-110478628D01*
X51761905Y-110954819D02*
X51761905Y-109954819D01*
X51761905Y-109954819D02*
X52142857Y-109954819D01*
X52142857Y-109954819D02*
X52238095Y-110002438D01*
X52238095Y-110002438D02*
X52285714Y-110050057D01*
X52285714Y-110050057D02*
X52333333Y-110145295D01*
X52333333Y-110145295D02*
X52333333Y-110288152D01*
X52333333Y-110288152D02*
X52285714Y-110383390D01*
X52285714Y-110383390D02*
X52238095Y-110431009D01*
X52238095Y-110431009D02*
X52142857Y-110478628D01*
X52142857Y-110478628D02*
X51761905Y-110478628D01*
X53285714Y-110954819D02*
X52714286Y-110954819D01*
X53000000Y-110954819D02*
X53000000Y-109954819D01*
X53000000Y-109954819D02*
X52904762Y-110097676D01*
X52904762Y-110097676D02*
X52809524Y-110192914D01*
X52809524Y-110192914D02*
X52714286Y-110240533D01*
D11*
X42904761Y-83957419D02*
X42571428Y-83481228D01*
X42333333Y-83957419D02*
X42333333Y-82957419D01*
X42333333Y-82957419D02*
X42714285Y-82957419D01*
X42714285Y-82957419D02*
X42809523Y-83005038D01*
X42809523Y-83005038D02*
X42857142Y-83052657D01*
X42857142Y-83052657D02*
X42904761Y-83147895D01*
X42904761Y-83147895D02*
X42904761Y-83290752D01*
X42904761Y-83290752D02*
X42857142Y-83385990D01*
X42857142Y-83385990D02*
X42809523Y-83433609D01*
X42809523Y-83433609D02*
X42714285Y-83481228D01*
X42714285Y-83481228D02*
X42333333Y-83481228D01*
X43190476Y-82957419D02*
X43523809Y-83957419D01*
X43523809Y-83957419D02*
X43857142Y-82957419D01*
X44142857Y-83052657D02*
X44190476Y-83005038D01*
X44190476Y-83005038D02*
X44285714Y-82957419D01*
X44285714Y-82957419D02*
X44523809Y-82957419D01*
X44523809Y-82957419D02*
X44619047Y-83005038D01*
X44619047Y-83005038D02*
X44666666Y-83052657D01*
X44666666Y-83052657D02*
X44714285Y-83147895D01*
X44714285Y-83147895D02*
X44714285Y-83243133D01*
X44714285Y-83243133D02*
X44666666Y-83385990D01*
X44666666Y-83385990D02*
X44095238Y-83957419D01*
X44095238Y-83957419D02*
X44714285Y-83957419D01*
D12*
X91333333Y-125454819D02*
X91000000Y-124978628D01*
X90761905Y-125454819D02*
X90761905Y-124454819D01*
X90761905Y-124454819D02*
X91142857Y-124454819D01*
X91142857Y-124454819D02*
X91238095Y-124502438D01*
X91238095Y-124502438D02*
X91285714Y-124550057D01*
X91285714Y-124550057D02*
X91333333Y-124645295D01*
X91333333Y-124645295D02*
X91333333Y-124788152D01*
X91333333Y-124788152D02*
X91285714Y-124883390D01*
X91285714Y-124883390D02*
X91238095Y-124931009D01*
X91238095Y-124931009D02*
X91142857Y-124978628D01*
X91142857Y-124978628D02*
X90761905Y-124978628D01*
X91904762Y-124883390D02*
X91809524Y-124835771D01*
X91809524Y-124835771D02*
X91761905Y-124788152D01*
X91761905Y-124788152D02*
X91714286Y-124692914D01*
X91714286Y-124692914D02*
X91714286Y-124645295D01*
X91714286Y-124645295D02*
X91761905Y-124550057D01*
X91761905Y-124550057D02*
X91809524Y-124502438D01*
X91809524Y-124502438D02*
X91904762Y-124454819D01*
X91904762Y-124454819D02*
X92095238Y-124454819D01*
X92095238Y-124454819D02*
X92190476Y-124502438D01*
X92190476Y-124502438D02*
X92238095Y-124550057D01*
X92238095Y-124550057D02*
X92285714Y-124645295D01*
X92285714Y-124645295D02*
X92285714Y-124692914D01*
X92285714Y-124692914D02*
X92238095Y-124788152D01*
X92238095Y-124788152D02*
X92190476Y-124835771D01*
X92190476Y-124835771D02*
X92095238Y-124883390D01*
X92095238Y-124883390D02*
X91904762Y-124883390D01*
X91904762Y-124883390D02*
X91809524Y-124931009D01*
X91809524Y-124931009D02*
X91761905Y-124978628D01*
X91761905Y-124978628D02*
X91714286Y-125073866D01*
X91714286Y-125073866D02*
X91714286Y-125264342D01*
X91714286Y-125264342D02*
X91761905Y-125359580D01*
X91761905Y-125359580D02*
X91809524Y-125407200D01*
X91809524Y-125407200D02*
X91904762Y-125454819D01*
X91904762Y-125454819D02*
X92095238Y-125454819D01*
X92095238Y-125454819D02*
X92190476Y-125407200D01*
X92190476Y-125407200D02*
X92238095Y-125359580D01*
X92238095Y-125359580D02*
X92285714Y-125264342D01*
X92285714Y-125264342D02*
X92285714Y-125073866D01*
X92285714Y-125073866D02*
X92238095Y-124978628D01*
X92238095Y-124978628D02*
X92190476Y-124931009D01*
X92190476Y-124931009D02*
X92095238Y-124883390D01*
D11*
X87404761Y-117432481D02*
X87071428Y-116956290D01*
X86833333Y-117432481D02*
X86833333Y-116432481D01*
X86833333Y-116432481D02*
X87214285Y-116432481D01*
X87214285Y-116432481D02*
X87309523Y-116480100D01*
X87309523Y-116480100D02*
X87357142Y-116527719D01*
X87357142Y-116527719D02*
X87404761Y-116622957D01*
X87404761Y-116622957D02*
X87404761Y-116765814D01*
X87404761Y-116765814D02*
X87357142Y-116861052D01*
X87357142Y-116861052D02*
X87309523Y-116908671D01*
X87309523Y-116908671D02*
X87214285Y-116956290D01*
X87214285Y-116956290D02*
X86833333Y-116956290D01*
X87690476Y-116432481D02*
X88023809Y-117432481D01*
X88023809Y-117432481D02*
X88357142Y-116432481D01*
X88833333Y-116861052D02*
X88738095Y-116813433D01*
X88738095Y-116813433D02*
X88690476Y-116765814D01*
X88690476Y-116765814D02*
X88642857Y-116670576D01*
X88642857Y-116670576D02*
X88642857Y-116622957D01*
X88642857Y-116622957D02*
X88690476Y-116527719D01*
X88690476Y-116527719D02*
X88738095Y-116480100D01*
X88738095Y-116480100D02*
X88833333Y-116432481D01*
X88833333Y-116432481D02*
X89023809Y-116432481D01*
X89023809Y-116432481D02*
X89119047Y-116480100D01*
X89119047Y-116480100D02*
X89166666Y-116527719D01*
X89166666Y-116527719D02*
X89214285Y-116622957D01*
X89214285Y-116622957D02*
X89214285Y-116670576D01*
X89214285Y-116670576D02*
X89166666Y-116765814D01*
X89166666Y-116765814D02*
X89119047Y-116813433D01*
X89119047Y-116813433D02*
X89023809Y-116861052D01*
X89023809Y-116861052D02*
X88833333Y-116861052D01*
X88833333Y-116861052D02*
X88738095Y-116908671D01*
X88738095Y-116908671D02*
X88690476Y-116956290D01*
X88690476Y-116956290D02*
X88642857Y-117051528D01*
X88642857Y-117051528D02*
X88642857Y-117242004D01*
X88642857Y-117242004D02*
X88690476Y-117337242D01*
X88690476Y-117337242D02*
X88738095Y-117384862D01*
X88738095Y-117384862D02*
X88833333Y-117432481D01*
X88833333Y-117432481D02*
X89023809Y-117432481D01*
X89023809Y-117432481D02*
X89119047Y-117384862D01*
X89119047Y-117384862D02*
X89166666Y-117337242D01*
X89166666Y-117337242D02*
X89214285Y-117242004D01*
X89214285Y-117242004D02*
X89214285Y-117051528D01*
X89214285Y-117051528D02*
X89166666Y-116956290D01*
X89166666Y-116956290D02*
X89119047Y-116908671D01*
X89119047Y-116908671D02*
X89023809Y-116861052D01*
D12*
X91333333Y-110454819D02*
X91000000Y-109978628D01*
X90761905Y-110454819D02*
X90761905Y-109454819D01*
X90761905Y-109454819D02*
X91142857Y-109454819D01*
X91142857Y-109454819D02*
X91238095Y-109502438D01*
X91238095Y-109502438D02*
X91285714Y-109550057D01*
X91285714Y-109550057D02*
X91333333Y-109645295D01*
X91333333Y-109645295D02*
X91333333Y-109788152D01*
X91333333Y-109788152D02*
X91285714Y-109883390D01*
X91285714Y-109883390D02*
X91238095Y-109931009D01*
X91238095Y-109931009D02*
X91142857Y-109978628D01*
X91142857Y-109978628D02*
X90761905Y-109978628D01*
X92190476Y-109788152D02*
X92190476Y-110454819D01*
X91952381Y-109407200D02*
X91714286Y-110121485D01*
X91714286Y-110121485D02*
X92333333Y-110121485D01*
D13*
%TO.C,J19*%
X73750000Y-23670000D02*
X89250000Y-23670000D01*
X73750000Y-32790000D02*
X73750000Y-23670000D01*
X75050000Y-24980000D02*
X87950000Y-24980000D01*
X75050000Y-31480000D02*
X75050000Y-24980000D01*
X78460000Y-34180000D02*
X79460000Y-34180000D01*
X78960000Y-33180000D02*
X78460000Y-34180000D01*
X79450000Y-31480000D02*
X75050000Y-31480000D01*
X79450000Y-32790000D02*
X79450000Y-31480000D01*
X79460000Y-34180000D02*
X78960000Y-33180000D01*
X83550000Y-31480000D02*
X83550000Y-32790000D01*
X87950000Y-24980000D02*
X87950000Y-31480000D01*
X87950000Y-31480000D02*
X83550000Y-31480000D01*
X89250000Y-23670000D02*
X89250000Y-32790000D01*
X89250000Y-32790000D02*
X73750000Y-32790000D01*
%TO.C,R6*%
X92540000Y-117500000D02*
X93310000Y-117500000D01*
X100620000Y-117500000D02*
X99850000Y-117500000D01*
X99850000Y-118870000D02*
X93310000Y-118870000D01*
X93310000Y-116130000D01*
X99850000Y-116130000D01*
X99850000Y-118870000D01*
D11*
%TO.C,J3*%
X44000000Y-71000000D02*
G75*
G02*
X32000000Y-71000000I-6000000J0D01*
G01*
X32000000Y-71000000D02*
G75*
G02*
X44000000Y-71000000I6000000J0D01*
G01*
%TO.C,J1*%
X44000000Y-47000000D02*
G75*
G02*
X32000000Y-47000000I-6000000J0D01*
G01*
X32000000Y-47000000D02*
G75*
G02*
X44000000Y-47000000I6000000J0D01*
G01*
D13*
%TO.C,R2*%
X62960000Y-113000000D02*
X63730000Y-113000000D01*
X71040000Y-113000000D02*
X70270000Y-113000000D01*
X63730000Y-111630000D02*
X70270000Y-111630000D01*
X70270000Y-114370000D01*
X63730000Y-114370000D01*
X63730000Y-111630000D01*
D11*
%TO.C,J14*%
X44000000Y-130475062D02*
G75*
G02*
X32000000Y-130475062I-6000000J0D01*
G01*
X32000000Y-130475062D02*
G75*
G02*
X44000000Y-130475062I6000000J0D01*
G01*
D13*
%TO.C,U1*%
X32860000Y-110350000D02*
X32860000Y-112000000D01*
X32860000Y-114000000D02*
X32860000Y-115650000D01*
X32860000Y-115650000D02*
X43140000Y-115650000D01*
X43140000Y-110350000D02*
X32860000Y-110350000D01*
X43140000Y-115650000D02*
X43140000Y-110350000D01*
X32800000Y-118140000D02*
X43200000Y-118140000D01*
X43200000Y-107860000D01*
X32800000Y-107860000D01*
X32800000Y-118140000D01*
X32860000Y-112000000D02*
G75*
G02*
X32860000Y-114000000I0J-1000000D01*
G01*
D11*
%TO.C,J9*%
X102500000Y-71000000D02*
G75*
G02*
X90500000Y-71000000I-6000000J0D01*
G01*
X90500000Y-71000000D02*
G75*
G02*
X102500000Y-71000000I6000000J0D01*
G01*
D13*
%TO.C,RV4*%
X74620000Y-58880000D02*
X74620000Y-57500000D01*
X76000000Y-58880000D02*
X74620000Y-58880000D01*
X77270000Y-56120000D02*
X82460000Y-56120000D01*
X77270000Y-58880000D02*
X77270000Y-56120000D01*
X77270000Y-58880000D02*
X82460000Y-58880000D01*
X82460000Y-58880000D02*
X82460000Y-56120000D01*
D11*
X67540000Y-35500000D02*
X89540000Y-35500000D01*
X89540000Y-59500000D01*
X67540000Y-59500000D01*
X67540000Y-35500000D01*
%TO.C,J5*%
X44000000Y-96000000D02*
G75*
G02*
X32000000Y-96000000I-6000000J0D01*
G01*
X32000000Y-96000000D02*
G75*
G02*
X44000000Y-96000000I6000000J0D01*
G01*
D13*
%TO.C,RV3*%
X52030000Y-107880000D02*
X52030000Y-106500000D01*
X53410000Y-107880000D02*
X52030000Y-107880000D01*
X54680000Y-105120000D02*
X59870000Y-105120000D01*
X54680000Y-107880000D02*
X54680000Y-105120000D01*
X54680000Y-107880000D02*
X59870000Y-107880000D01*
X59870000Y-107880000D02*
X59870000Y-105120000D01*
D11*
X44950000Y-84500000D02*
X66950000Y-84500000D01*
X66950000Y-108500000D01*
X44950000Y-108500000D01*
X44950000Y-84500000D01*
D13*
%TO.C,RV7*%
X52030000Y-141380000D02*
X52030000Y-140000000D01*
X53410000Y-141380000D02*
X52030000Y-141380000D01*
X54680000Y-138620000D02*
X59870000Y-138620000D01*
X54680000Y-141380000D02*
X54680000Y-138620000D01*
X54680000Y-141380000D02*
X59870000Y-141380000D01*
X59870000Y-141380000D02*
X59870000Y-138620000D01*
D11*
X44950000Y-118000000D02*
X66950000Y-118000000D01*
X66950000Y-142000000D01*
X44950000Y-142000000D01*
X44950000Y-118000000D01*
D13*
%TO.C,RV6*%
X74580000Y-107880000D02*
X74580000Y-106500000D01*
X75960000Y-107880000D02*
X74580000Y-107880000D01*
X77230000Y-105120000D02*
X82420000Y-105120000D01*
X77230000Y-107880000D02*
X77230000Y-105120000D01*
X77230000Y-107880000D02*
X82420000Y-107880000D01*
X82420000Y-107880000D02*
X82420000Y-105120000D01*
D11*
X67500000Y-84500000D02*
X89500000Y-84500000D01*
X89500000Y-108500000D01*
X67500000Y-108500000D01*
X67500000Y-84500000D01*
D13*
%TO.C,R3*%
X77460000Y-113000000D02*
X78230000Y-113000000D01*
X85540000Y-113000000D02*
X84770000Y-113000000D01*
X78230000Y-111630000D02*
X84770000Y-111630000D01*
X84770000Y-114370000D01*
X78230000Y-114370000D01*
X78230000Y-111630000D01*
%TO.C,R5*%
X92540000Y-112500000D02*
X93310000Y-112500000D01*
X100620000Y-112500000D02*
X99850000Y-112500000D01*
X99850000Y-113870000D02*
X93310000Y-113870000D01*
X93310000Y-111130000D01*
X99850000Y-111130000D01*
X99850000Y-113870000D01*
%TO.C,J18*%
X45250000Y-23710000D02*
X60750000Y-23710000D01*
X45250000Y-32830000D02*
X45250000Y-23710000D01*
X46550000Y-25020000D02*
X59450000Y-25020000D01*
X46550000Y-31520000D02*
X46550000Y-25020000D01*
X49960000Y-34220000D02*
X50960000Y-34220000D01*
X50460000Y-33220000D02*
X49960000Y-34220000D01*
X50950000Y-31520000D02*
X46550000Y-31520000D01*
X50950000Y-32830000D02*
X50950000Y-31520000D01*
X50960000Y-34220000D02*
X50460000Y-33220000D01*
X55050000Y-31520000D02*
X55050000Y-32830000D01*
X59450000Y-25020000D02*
X59450000Y-31520000D01*
X59450000Y-31520000D02*
X55050000Y-31520000D01*
X60750000Y-23710000D02*
X60750000Y-32830000D01*
X60750000Y-32830000D02*
X45250000Y-32830000D01*
%TO.C,R7*%
X33960000Y-121000000D02*
X34730000Y-121000000D01*
X42040000Y-121000000D02*
X41270000Y-121000000D01*
X34730000Y-119630000D02*
X41270000Y-119630000D01*
X41270000Y-122370000D01*
X34730000Y-122370000D01*
X34730000Y-119630000D01*
D11*
%TO.C,J11*%
X102500000Y-96000000D02*
G75*
G02*
X90500000Y-96000000I-6000000J0D01*
G01*
X90500000Y-96000000D02*
G75*
G02*
X102500000Y-96000000I6000000J0D01*
G01*
%TO.C,J16*%
X102500000Y-130500000D02*
G75*
G02*
X90500000Y-130500000I-6000000J0D01*
G01*
X90500000Y-130500000D02*
G75*
G02*
X102500000Y-130500000I6000000J0D01*
G01*
%TO.C,J7*%
X102500000Y-46975062D02*
G75*
G02*
X90500000Y-46975062I-6000000J0D01*
G01*
X90500000Y-46975062D02*
G75*
G02*
X102500000Y-46975062I6000000J0D01*
G01*
D13*
%TO.C,RV1*%
X52040000Y-58880000D02*
X52040000Y-57500000D01*
X53420000Y-58880000D02*
X52040000Y-58880000D01*
X54690000Y-56120000D02*
X59880000Y-56120000D01*
X54690000Y-58880000D02*
X54690000Y-56120000D01*
X54690000Y-58880000D02*
X59880000Y-58880000D01*
X59880000Y-58880000D02*
X59880000Y-56120000D01*
D11*
X44960000Y-35500000D02*
X66960000Y-35500000D01*
X66960000Y-59500000D01*
X44960000Y-59500000D01*
X44960000Y-35500000D01*
D13*
%TO.C,RV5*%
X74580000Y-83380000D02*
X74580000Y-82000000D01*
X75960000Y-83380000D02*
X74580000Y-83380000D01*
X77230000Y-80620000D02*
X82420000Y-80620000D01*
X77230000Y-83380000D02*
X77230000Y-80620000D01*
X77230000Y-83380000D02*
X82420000Y-83380000D01*
X82420000Y-83380000D02*
X82420000Y-80620000D01*
D11*
X67500000Y-60000000D02*
X89500000Y-60000000D01*
X89500000Y-84000000D01*
X67500000Y-84000000D01*
X67500000Y-60000000D01*
D13*
%TO.C,R1*%
X48460000Y-113000000D02*
X49230000Y-113000000D01*
X56540000Y-113000000D02*
X55770000Y-113000000D01*
X49230000Y-111630000D02*
X55770000Y-111630000D01*
X55770000Y-114370000D01*
X49230000Y-114370000D01*
X49230000Y-111630000D01*
%TO.C,RV2*%
X52030000Y-83380000D02*
X52030000Y-82000000D01*
X53410000Y-83380000D02*
X52030000Y-83380000D01*
X54680000Y-80620000D02*
X59870000Y-80620000D01*
X54680000Y-83380000D02*
X54680000Y-80620000D01*
X54680000Y-83380000D02*
X59870000Y-83380000D01*
X59870000Y-83380000D02*
X59870000Y-80620000D01*
D11*
X44950000Y-60000000D02*
X66950000Y-60000000D01*
X66950000Y-84000000D01*
X44950000Y-84000000D01*
X44950000Y-60000000D01*
D13*
%TO.C,R8*%
X92460000Y-122500000D02*
X93230000Y-122500000D01*
X100540000Y-122500000D02*
X99770000Y-122500000D01*
X93230000Y-121130000D02*
X99770000Y-121130000D01*
X99770000Y-123870000D01*
X93230000Y-123870000D01*
X93230000Y-121130000D01*
%TO.C,RV8*%
X74580000Y-141380000D02*
X74580000Y-140000000D01*
X75960000Y-141380000D02*
X74580000Y-141380000D01*
X77230000Y-138620000D02*
X82420000Y-138620000D01*
X77230000Y-141380000D02*
X77230000Y-138620000D01*
X77230000Y-141380000D02*
X82420000Y-141380000D01*
X82420000Y-141380000D02*
X82420000Y-138620000D01*
D11*
X67500000Y-118000000D02*
X89500000Y-118000000D01*
X89500000Y-142000000D01*
X67500000Y-142000000D01*
X67500000Y-118000000D01*
D13*
%TO.C,R4*%
X92460000Y-107500000D02*
X93230000Y-107500000D01*
X100540000Y-107500000D02*
X99770000Y-107500000D01*
X99770000Y-108870000D02*
X93230000Y-108870000D01*
X93230000Y-106130000D01*
X99770000Y-106130000D01*
X99770000Y-108870000D01*
%TD*%
M02*
