%TF.GenerationSoftware,KiCad,Pcbnew,9.0.6*%
%TF.CreationDate,2026-01-10T14:07:08+11:00*%
%TF.ProjectId,cv-mixer,63762d6d-6978-4657-922e-6b696361645f,rev?*%
%TF.SameCoordinates,Original*%
%TF.FileFunction,Legend,Bot*%
%TF.FilePolarity,Positive*%
%FSLAX46Y46*%
G04 Gerber Fmt 4.6, Leading zero omitted, Abs format (unit mm)*
G04 Created by KiCad (PCBNEW 9.0.6) date 2026-01-10 14:07:08*
%MOMM*%
%LPD*%
G01*
G04 APERTURE LIST*
%ADD10C,0.100000*%
G04 APERTURE END LIST*
D10*
X96833333Y-28933609D02*
X97166666Y-28933609D01*
X97166666Y-29457419D02*
X97166666Y-28457419D01*
X97166666Y-28457419D02*
X96690476Y-28457419D01*
X95785714Y-29457419D02*
X96357142Y-29457419D01*
X96071428Y-29457419D02*
X96071428Y-28457419D01*
X96071428Y-28457419D02*
X96166666Y-28600276D01*
X96166666Y-28600276D02*
X96261904Y-28695514D01*
X96261904Y-28695514D02*
X96357142Y-28743133D01*
X38333333Y-142933609D02*
X38666666Y-142933609D01*
X38666666Y-143457419D02*
X38666666Y-142457419D01*
X38666666Y-142457419D02*
X38190476Y-142457419D01*
X37857142Y-142552657D02*
X37809523Y-142505038D01*
X37809523Y-142505038D02*
X37714285Y-142457419D01*
X37714285Y-142457419D02*
X37476190Y-142457419D01*
X37476190Y-142457419D02*
X37380952Y-142505038D01*
X37380952Y-142505038D02*
X37333333Y-142552657D01*
X37333333Y-142552657D02*
X37285714Y-142647895D01*
X37285714Y-142647895D02*
X37285714Y-142743133D01*
X37285714Y-142743133D02*
X37333333Y-142885990D01*
X37333333Y-142885990D02*
X37904761Y-143457419D01*
X37904761Y-143457419D02*
X37285714Y-143457419D01*
X38333333Y-28933609D02*
X38666666Y-28933609D01*
X38666666Y-29457419D02*
X38666666Y-28457419D01*
X38666666Y-28457419D02*
X38190476Y-28457419D01*
X37857142Y-28552657D02*
X37809523Y-28505038D01*
X37809523Y-28505038D02*
X37714285Y-28457419D01*
X37714285Y-28457419D02*
X37476190Y-28457419D01*
X37476190Y-28457419D02*
X37380952Y-28505038D01*
X37380952Y-28505038D02*
X37333333Y-28552657D01*
X37333333Y-28552657D02*
X37285714Y-28647895D01*
X37285714Y-28647895D02*
X37285714Y-28743133D01*
X37285714Y-28743133D02*
X37333333Y-28885990D01*
X37333333Y-28885990D02*
X37904761Y-29457419D01*
X37904761Y-29457419D02*
X37285714Y-29457419D01*
X96833333Y-142933609D02*
X97166666Y-142933609D01*
X97166666Y-143457419D02*
X97166666Y-142457419D01*
X97166666Y-142457419D02*
X96690476Y-142457419D01*
X96357142Y-142552657D02*
X96309523Y-142505038D01*
X96309523Y-142505038D02*
X96214285Y-142457419D01*
X96214285Y-142457419D02*
X95976190Y-142457419D01*
X95976190Y-142457419D02*
X95880952Y-142505038D01*
X95880952Y-142505038D02*
X95833333Y-142552657D01*
X95833333Y-142552657D02*
X95785714Y-142647895D01*
X95785714Y-142647895D02*
X95785714Y-142743133D01*
X95785714Y-142743133D02*
X95833333Y-142885990D01*
X95833333Y-142885990D02*
X96404761Y-143457419D01*
X96404761Y-143457419D02*
X95785714Y-143457419D01*
%TO.C,F1*%
X103000000Y-23000000D02*
X90000000Y-23000000D01*
X90000000Y-36500000D01*
X103000000Y-36500000D01*
X103000000Y-23000000D01*
%TO.C,F2*%
X44500000Y-137000000D02*
X31500000Y-137000000D01*
X31500000Y-150500000D01*
X44500000Y-150500000D01*
X44500000Y-137000000D01*
X44500000Y-23000000D02*
X31500000Y-23000000D01*
X31500000Y-36500000D01*
X44500000Y-36500000D01*
X44500000Y-23000000D01*
X103000000Y-137000000D02*
X90000000Y-137000000D01*
X90000000Y-150500000D01*
X103000000Y-150500000D01*
X103000000Y-137000000D01*
%TD*%
M02*
