%TF.GenerationSoftware,KiCad,Pcbnew,9.0.6*%
%TF.CreationDate,2026-05-23T16:04:55+10:00*%
%TF.ProjectId,cv-mixer,63762d6d-6978-4657-922e-6b696361645f,rev?*%
%TF.SameCoordinates,Original*%
%TF.FileFunction,Legend,Top*%
%TF.FilePolarity,Positive*%
%FSLAX46Y46*%
G04 Gerber Fmt 4.6, Leading zero omitted, Abs format (unit mm)*
G04 Created by KiCad (PCBNEW 9.0.6) date 2026-05-23 16:04:55*
%MOMM*%
%LPD*%
G01*
G04 APERTURE LIST*
%ADD10C,0.100000*%
%ADD11C,0.300000*%
%ADD12C,0.375000*%
%ADD13C,0.150000*%
%ADD14C,0.120000*%
%ADD15C,0.000000*%
G04 APERTURE END LIST*
D10*
X32511904Y-15557208D02*
X32464285Y-15604828D01*
X32464285Y-15604828D02*
X32321428Y-15652447D01*
X32321428Y-15652447D02*
X32226190Y-15652447D01*
X32226190Y-15652447D02*
X32083333Y-15604828D01*
X32083333Y-15604828D02*
X31988095Y-15509589D01*
X31988095Y-15509589D02*
X31940476Y-15414351D01*
X31940476Y-15414351D02*
X31892857Y-15223875D01*
X31892857Y-15223875D02*
X31892857Y-15081018D01*
X31892857Y-15081018D02*
X31940476Y-14890542D01*
X31940476Y-14890542D02*
X31988095Y-14795304D01*
X31988095Y-14795304D02*
X32083333Y-14700066D01*
X32083333Y-14700066D02*
X32226190Y-14652447D01*
X32226190Y-14652447D02*
X32321428Y-14652447D01*
X32321428Y-14652447D02*
X32464285Y-14700066D01*
X32464285Y-14700066D02*
X32511904Y-14747685D01*
X32797619Y-14652447D02*
X33130952Y-15652447D01*
X33130952Y-15652447D02*
X33464285Y-14652447D01*
X34559524Y-15652447D02*
X34559524Y-14652447D01*
X34559524Y-14652447D02*
X34892857Y-15366732D01*
X34892857Y-15366732D02*
X35226190Y-14652447D01*
X35226190Y-14652447D02*
X35226190Y-15652447D01*
X35702381Y-15652447D02*
X35702381Y-14652447D01*
X36083333Y-14652447D02*
X36749999Y-15652447D01*
X36749999Y-14652447D02*
X36083333Y-15652447D01*
X37130952Y-15128637D02*
X37464285Y-15128637D01*
X37607142Y-15652447D02*
X37130952Y-15652447D01*
X37130952Y-15652447D02*
X37130952Y-14652447D01*
X37130952Y-14652447D02*
X37607142Y-14652447D01*
X38607142Y-15652447D02*
X38273809Y-15176256D01*
X38035714Y-15652447D02*
X38035714Y-14652447D01*
X38035714Y-14652447D02*
X38416666Y-14652447D01*
X38416666Y-14652447D02*
X38511904Y-14700066D01*
X38511904Y-14700066D02*
X38559523Y-14747685D01*
X38559523Y-14747685D02*
X38607142Y-14842923D01*
X38607142Y-14842923D02*
X38607142Y-14985780D01*
X38607142Y-14985780D02*
X38559523Y-15081018D01*
X38559523Y-15081018D02*
X38511904Y-15128637D01*
X38511904Y-15128637D02*
X38416666Y-15176256D01*
X38416666Y-15176256D02*
X38035714Y-15176256D01*
X34440476Y-16262391D02*
X34773809Y-17262391D01*
X34773809Y-17262391D02*
X35107142Y-16262391D01*
X35345238Y-16262391D02*
X35964285Y-16262391D01*
X35964285Y-16262391D02*
X35630952Y-16643343D01*
X35630952Y-16643343D02*
X35773809Y-16643343D01*
X35773809Y-16643343D02*
X35869047Y-16690962D01*
X35869047Y-16690962D02*
X35916666Y-16738581D01*
X35916666Y-16738581D02*
X35964285Y-16833819D01*
X35964285Y-16833819D02*
X35964285Y-17071914D01*
X35964285Y-17071914D02*
X35916666Y-17167152D01*
X35916666Y-17167152D02*
X35869047Y-17214772D01*
X35869047Y-17214772D02*
X35773809Y-17262391D01*
X35773809Y-17262391D02*
X35488095Y-17262391D01*
X35488095Y-17262391D02*
X35392857Y-17214772D01*
X35392857Y-17214772D02*
X35345238Y-17167152D01*
D11*
X33304510Y-101550828D02*
X33304510Y-100050828D01*
X34018796Y-101550828D02*
X34018796Y-100050828D01*
X34018796Y-100050828D02*
X34875939Y-101550828D01*
X34875939Y-101550828D02*
X34875939Y-100050828D01*
X35590225Y-101550828D02*
X35590225Y-100050828D01*
X35590225Y-100050828D02*
X36161654Y-100050828D01*
X36161654Y-100050828D02*
X36304511Y-100122257D01*
X36304511Y-100122257D02*
X36375940Y-100193685D01*
X36375940Y-100193685D02*
X36447368Y-100336542D01*
X36447368Y-100336542D02*
X36447368Y-100550828D01*
X36447368Y-100550828D02*
X36375940Y-100693685D01*
X36375940Y-100693685D02*
X36304511Y-100765114D01*
X36304511Y-100765114D02*
X36161654Y-100836542D01*
X36161654Y-100836542D02*
X35590225Y-100836542D01*
X37090225Y-100050828D02*
X37090225Y-101265114D01*
X37090225Y-101265114D02*
X37161654Y-101407971D01*
X37161654Y-101407971D02*
X37233083Y-101479400D01*
X37233083Y-101479400D02*
X37375940Y-101550828D01*
X37375940Y-101550828D02*
X37661654Y-101550828D01*
X37661654Y-101550828D02*
X37804511Y-101479400D01*
X37804511Y-101479400D02*
X37875940Y-101407971D01*
X37875940Y-101407971D02*
X37947368Y-101265114D01*
X37947368Y-101265114D02*
X37947368Y-100050828D01*
X38447369Y-100050828D02*
X39304512Y-100050828D01*
X38875940Y-101550828D02*
X38875940Y-100050828D01*
X40875940Y-101122257D02*
X41590226Y-101122257D01*
X40733083Y-101550828D02*
X41233083Y-100050828D01*
X41233083Y-100050828D02*
X41733083Y-101550828D01*
X42090225Y-100050828D02*
X43018797Y-100050828D01*
X43018797Y-100050828D02*
X42518797Y-100622257D01*
X42518797Y-100622257D02*
X42733082Y-100622257D01*
X42733082Y-100622257D02*
X42875940Y-100693685D01*
X42875940Y-100693685D02*
X42947368Y-100765114D01*
X42947368Y-100765114D02*
X43018797Y-100907971D01*
X43018797Y-100907971D02*
X43018797Y-101265114D01*
X43018797Y-101265114D02*
X42947368Y-101407971D01*
X42947368Y-101407971D02*
X42875940Y-101479400D01*
X42875940Y-101479400D02*
X42733082Y-101550828D01*
X42733082Y-101550828D02*
X42304511Y-101550828D01*
X42304511Y-101550828D02*
X42161654Y-101479400D01*
X42161654Y-101479400D02*
X42090225Y-101407971D01*
X33554510Y-72800828D02*
X33554510Y-71300828D01*
X34268796Y-72800828D02*
X34268796Y-71300828D01*
X34268796Y-71300828D02*
X35125939Y-72800828D01*
X35125939Y-72800828D02*
X35125939Y-71300828D01*
X35840225Y-72800828D02*
X35840225Y-71300828D01*
X35840225Y-71300828D02*
X36411654Y-71300828D01*
X36411654Y-71300828D02*
X36554511Y-71372257D01*
X36554511Y-71372257D02*
X36625940Y-71443685D01*
X36625940Y-71443685D02*
X36697368Y-71586542D01*
X36697368Y-71586542D02*
X36697368Y-71800828D01*
X36697368Y-71800828D02*
X36625940Y-71943685D01*
X36625940Y-71943685D02*
X36554511Y-72015114D01*
X36554511Y-72015114D02*
X36411654Y-72086542D01*
X36411654Y-72086542D02*
X35840225Y-72086542D01*
X37340225Y-71300828D02*
X37340225Y-72515114D01*
X37340225Y-72515114D02*
X37411654Y-72657971D01*
X37411654Y-72657971D02*
X37483083Y-72729400D01*
X37483083Y-72729400D02*
X37625940Y-72800828D01*
X37625940Y-72800828D02*
X37911654Y-72800828D01*
X37911654Y-72800828D02*
X38054511Y-72729400D01*
X38054511Y-72729400D02*
X38125940Y-72657971D01*
X38125940Y-72657971D02*
X38197368Y-72515114D01*
X38197368Y-72515114D02*
X38197368Y-71300828D01*
X38697369Y-71300828D02*
X39554512Y-71300828D01*
X39125940Y-72800828D02*
X39125940Y-71300828D01*
X41125940Y-72372257D02*
X41840226Y-72372257D01*
X40983083Y-72800828D02*
X41483083Y-71300828D01*
X41483083Y-71300828D02*
X41983083Y-72800828D01*
X42411654Y-71443685D02*
X42483082Y-71372257D01*
X42483082Y-71372257D02*
X42625940Y-71300828D01*
X42625940Y-71300828D02*
X42983082Y-71300828D01*
X42983082Y-71300828D02*
X43125940Y-71372257D01*
X43125940Y-71372257D02*
X43197368Y-71443685D01*
X43197368Y-71443685D02*
X43268797Y-71586542D01*
X43268797Y-71586542D02*
X43268797Y-71729400D01*
X43268797Y-71729400D02*
X43197368Y-71943685D01*
X43197368Y-71943685D02*
X42340225Y-72800828D01*
X42340225Y-72800828D02*
X43268797Y-72800828D01*
D12*
X37392857Y-141167726D02*
X37250000Y-141310584D01*
X37250000Y-141310584D02*
X36821428Y-141453441D01*
X36821428Y-141453441D02*
X36535714Y-141453441D01*
X36535714Y-141453441D02*
X36107143Y-141310584D01*
X36107143Y-141310584D02*
X35821428Y-141024869D01*
X35821428Y-141024869D02*
X35678571Y-140739155D01*
X35678571Y-140739155D02*
X35535714Y-140167726D01*
X35535714Y-140167726D02*
X35535714Y-139739155D01*
X35535714Y-139739155D02*
X35678571Y-139167726D01*
X35678571Y-139167726D02*
X35821428Y-138882012D01*
X35821428Y-138882012D02*
X36107143Y-138596298D01*
X36107143Y-138596298D02*
X36535714Y-138453441D01*
X36535714Y-138453441D02*
X36821428Y-138453441D01*
X36821428Y-138453441D02*
X37250000Y-138596298D01*
X37250000Y-138596298D02*
X37392857Y-138739155D01*
X38250000Y-138453441D02*
X39250000Y-141453441D01*
X39250000Y-141453441D02*
X40250000Y-138453441D01*
X31750000Y-146283273D02*
X31750000Y-143283273D01*
X31750000Y-143283273D02*
X32750000Y-145426130D01*
X32750000Y-145426130D02*
X33750000Y-143283273D01*
X33750000Y-143283273D02*
X33750000Y-146283273D01*
X35178571Y-146283273D02*
X35178571Y-143283273D01*
X36321428Y-143283273D02*
X38321428Y-146283273D01*
X38321428Y-143283273D02*
X36321428Y-146283273D01*
X39464285Y-144711844D02*
X40464285Y-144711844D01*
X40892857Y-146283273D02*
X39464285Y-146283273D01*
X39464285Y-146283273D02*
X39464285Y-143283273D01*
X39464285Y-143283273D02*
X40892857Y-143283273D01*
X43892857Y-146283273D02*
X42892857Y-144854701D01*
X42178571Y-146283273D02*
X42178571Y-143283273D01*
X42178571Y-143283273D02*
X43321428Y-143283273D01*
X43321428Y-143283273D02*
X43607143Y-143426130D01*
X43607143Y-143426130D02*
X43750000Y-143568987D01*
X43750000Y-143568987D02*
X43892857Y-143854701D01*
X43892857Y-143854701D02*
X43892857Y-144283273D01*
X43892857Y-144283273D02*
X43750000Y-144568987D01*
X43750000Y-144568987D02*
X43607143Y-144711844D01*
X43607143Y-144711844D02*
X43321428Y-144854701D01*
X43321428Y-144854701D02*
X42178571Y-144854701D01*
D11*
X33340225Y-133800828D02*
X33625939Y-133800828D01*
X33625939Y-133800828D02*
X33768796Y-133872257D01*
X33768796Y-133872257D02*
X33911653Y-134015114D01*
X33911653Y-134015114D02*
X33983082Y-134300828D01*
X33983082Y-134300828D02*
X33983082Y-134800828D01*
X33983082Y-134800828D02*
X33911653Y-135086542D01*
X33911653Y-135086542D02*
X33768796Y-135229400D01*
X33768796Y-135229400D02*
X33625939Y-135300828D01*
X33625939Y-135300828D02*
X33340225Y-135300828D01*
X33340225Y-135300828D02*
X33197368Y-135229400D01*
X33197368Y-135229400D02*
X33054510Y-135086542D01*
X33054510Y-135086542D02*
X32983082Y-134800828D01*
X32983082Y-134800828D02*
X32983082Y-134300828D01*
X32983082Y-134300828D02*
X33054510Y-134015114D01*
X33054510Y-134015114D02*
X33197368Y-133872257D01*
X33197368Y-133872257D02*
X33340225Y-133800828D01*
X34625939Y-133800828D02*
X34625939Y-135015114D01*
X34625939Y-135015114D02*
X34697368Y-135157971D01*
X34697368Y-135157971D02*
X34768797Y-135229400D01*
X34768797Y-135229400D02*
X34911654Y-135300828D01*
X34911654Y-135300828D02*
X35197368Y-135300828D01*
X35197368Y-135300828D02*
X35340225Y-135229400D01*
X35340225Y-135229400D02*
X35411654Y-135157971D01*
X35411654Y-135157971D02*
X35483082Y-135015114D01*
X35483082Y-135015114D02*
X35483082Y-133800828D01*
X35983083Y-133800828D02*
X36840226Y-133800828D01*
X36411654Y-135300828D02*
X36411654Y-133800828D01*
X37340225Y-135300828D02*
X37340225Y-133800828D01*
X37340225Y-133800828D02*
X37911654Y-133800828D01*
X37911654Y-133800828D02*
X38054511Y-133872257D01*
X38054511Y-133872257D02*
X38125940Y-133943685D01*
X38125940Y-133943685D02*
X38197368Y-134086542D01*
X38197368Y-134086542D02*
X38197368Y-134300828D01*
X38197368Y-134300828D02*
X38125940Y-134443685D01*
X38125940Y-134443685D02*
X38054511Y-134515114D01*
X38054511Y-134515114D02*
X37911654Y-134586542D01*
X37911654Y-134586542D02*
X37340225Y-134586542D01*
X38840225Y-133800828D02*
X38840225Y-135015114D01*
X38840225Y-135015114D02*
X38911654Y-135157971D01*
X38911654Y-135157971D02*
X38983083Y-135229400D01*
X38983083Y-135229400D02*
X39125940Y-135300828D01*
X39125940Y-135300828D02*
X39411654Y-135300828D01*
X39411654Y-135300828D02*
X39554511Y-135229400D01*
X39554511Y-135229400D02*
X39625940Y-135157971D01*
X39625940Y-135157971D02*
X39697368Y-135015114D01*
X39697368Y-135015114D02*
X39697368Y-133800828D01*
X40197369Y-133800828D02*
X41054512Y-133800828D01*
X40625940Y-135300828D02*
X40625940Y-133800828D01*
X42625940Y-134872257D02*
X43340226Y-134872257D01*
X42483083Y-135300828D02*
X42983083Y-133800828D01*
X42983083Y-133800828D02*
X43483083Y-135300828D01*
X91554510Y-44800828D02*
X91554510Y-43300828D01*
X92268796Y-44800828D02*
X92268796Y-43300828D01*
X92268796Y-43300828D02*
X93125939Y-44800828D01*
X93125939Y-44800828D02*
X93125939Y-43300828D01*
X93840225Y-44800828D02*
X93840225Y-43300828D01*
X93840225Y-43300828D02*
X94411654Y-43300828D01*
X94411654Y-43300828D02*
X94554511Y-43372257D01*
X94554511Y-43372257D02*
X94625940Y-43443685D01*
X94625940Y-43443685D02*
X94697368Y-43586542D01*
X94697368Y-43586542D02*
X94697368Y-43800828D01*
X94697368Y-43800828D02*
X94625940Y-43943685D01*
X94625940Y-43943685D02*
X94554511Y-44015114D01*
X94554511Y-44015114D02*
X94411654Y-44086542D01*
X94411654Y-44086542D02*
X93840225Y-44086542D01*
X95340225Y-43300828D02*
X95340225Y-44515114D01*
X95340225Y-44515114D02*
X95411654Y-44657971D01*
X95411654Y-44657971D02*
X95483083Y-44729400D01*
X95483083Y-44729400D02*
X95625940Y-44800828D01*
X95625940Y-44800828D02*
X95911654Y-44800828D01*
X95911654Y-44800828D02*
X96054511Y-44729400D01*
X96054511Y-44729400D02*
X96125940Y-44657971D01*
X96125940Y-44657971D02*
X96197368Y-44515114D01*
X96197368Y-44515114D02*
X96197368Y-43300828D01*
X96697369Y-43300828D02*
X97554512Y-43300828D01*
X97125940Y-44800828D02*
X97125940Y-43300828D01*
X99697368Y-44015114D02*
X99911654Y-44086542D01*
X99911654Y-44086542D02*
X99983083Y-44157971D01*
X99983083Y-44157971D02*
X100054511Y-44300828D01*
X100054511Y-44300828D02*
X100054511Y-44515114D01*
X100054511Y-44515114D02*
X99983083Y-44657971D01*
X99983083Y-44657971D02*
X99911654Y-44729400D01*
X99911654Y-44729400D02*
X99768797Y-44800828D01*
X99768797Y-44800828D02*
X99197368Y-44800828D01*
X99197368Y-44800828D02*
X99197368Y-43300828D01*
X99197368Y-43300828D02*
X99697368Y-43300828D01*
X99697368Y-43300828D02*
X99840226Y-43372257D01*
X99840226Y-43372257D02*
X99911654Y-43443685D01*
X99911654Y-43443685D02*
X99983083Y-43586542D01*
X99983083Y-43586542D02*
X99983083Y-43729400D01*
X99983083Y-43729400D02*
X99911654Y-43872257D01*
X99911654Y-43872257D02*
X99840226Y-43943685D01*
X99840226Y-43943685D02*
X99697368Y-44015114D01*
X99697368Y-44015114D02*
X99197368Y-44015114D01*
X101483083Y-44800828D02*
X100625940Y-44800828D01*
X101054511Y-44800828D02*
X101054511Y-43300828D01*
X101054511Y-43300828D02*
X100911654Y-43515114D01*
X100911654Y-43515114D02*
X100768797Y-43657971D01*
X100768797Y-43657971D02*
X100625940Y-43729400D01*
X91580225Y-133800828D02*
X91865939Y-133800828D01*
X91865939Y-133800828D02*
X92008796Y-133872257D01*
X92008796Y-133872257D02*
X92151653Y-134015114D01*
X92151653Y-134015114D02*
X92223082Y-134300828D01*
X92223082Y-134300828D02*
X92223082Y-134800828D01*
X92223082Y-134800828D02*
X92151653Y-135086542D01*
X92151653Y-135086542D02*
X92008796Y-135229400D01*
X92008796Y-135229400D02*
X91865939Y-135300828D01*
X91865939Y-135300828D02*
X91580225Y-135300828D01*
X91580225Y-135300828D02*
X91437368Y-135229400D01*
X91437368Y-135229400D02*
X91294510Y-135086542D01*
X91294510Y-135086542D02*
X91223082Y-134800828D01*
X91223082Y-134800828D02*
X91223082Y-134300828D01*
X91223082Y-134300828D02*
X91294510Y-134015114D01*
X91294510Y-134015114D02*
X91437368Y-133872257D01*
X91437368Y-133872257D02*
X91580225Y-133800828D01*
X92865939Y-133800828D02*
X92865939Y-135015114D01*
X92865939Y-135015114D02*
X92937368Y-135157971D01*
X92937368Y-135157971D02*
X93008797Y-135229400D01*
X93008797Y-135229400D02*
X93151654Y-135300828D01*
X93151654Y-135300828D02*
X93437368Y-135300828D01*
X93437368Y-135300828D02*
X93580225Y-135229400D01*
X93580225Y-135229400D02*
X93651654Y-135157971D01*
X93651654Y-135157971D02*
X93723082Y-135015114D01*
X93723082Y-135015114D02*
X93723082Y-133800828D01*
X94223083Y-133800828D02*
X95080226Y-133800828D01*
X94651654Y-135300828D02*
X94651654Y-133800828D01*
X95580225Y-135300828D02*
X95580225Y-133800828D01*
X95580225Y-133800828D02*
X96151654Y-133800828D01*
X96151654Y-133800828D02*
X96294511Y-133872257D01*
X96294511Y-133872257D02*
X96365940Y-133943685D01*
X96365940Y-133943685D02*
X96437368Y-134086542D01*
X96437368Y-134086542D02*
X96437368Y-134300828D01*
X96437368Y-134300828D02*
X96365940Y-134443685D01*
X96365940Y-134443685D02*
X96294511Y-134515114D01*
X96294511Y-134515114D02*
X96151654Y-134586542D01*
X96151654Y-134586542D02*
X95580225Y-134586542D01*
X97080225Y-133800828D02*
X97080225Y-135015114D01*
X97080225Y-135015114D02*
X97151654Y-135157971D01*
X97151654Y-135157971D02*
X97223083Y-135229400D01*
X97223083Y-135229400D02*
X97365940Y-135300828D01*
X97365940Y-135300828D02*
X97651654Y-135300828D01*
X97651654Y-135300828D02*
X97794511Y-135229400D01*
X97794511Y-135229400D02*
X97865940Y-135157971D01*
X97865940Y-135157971D02*
X97937368Y-135015114D01*
X97937368Y-135015114D02*
X97937368Y-133800828D01*
X98437369Y-133800828D02*
X99294512Y-133800828D01*
X98865940Y-135300828D02*
X98865940Y-133800828D01*
X101437368Y-134515114D02*
X101651654Y-134586542D01*
X101651654Y-134586542D02*
X101723083Y-134657971D01*
X101723083Y-134657971D02*
X101794511Y-134800828D01*
X101794511Y-134800828D02*
X101794511Y-135015114D01*
X101794511Y-135015114D02*
X101723083Y-135157971D01*
X101723083Y-135157971D02*
X101651654Y-135229400D01*
X101651654Y-135229400D02*
X101508797Y-135300828D01*
X101508797Y-135300828D02*
X100937368Y-135300828D01*
X100937368Y-135300828D02*
X100937368Y-133800828D01*
X100937368Y-133800828D02*
X101437368Y-133800828D01*
X101437368Y-133800828D02*
X101580226Y-133872257D01*
X101580226Y-133872257D02*
X101651654Y-133943685D01*
X101651654Y-133943685D02*
X101723083Y-134086542D01*
X101723083Y-134086542D02*
X101723083Y-134229400D01*
X101723083Y-134229400D02*
X101651654Y-134372257D01*
X101651654Y-134372257D02*
X101580226Y-134443685D01*
X101580226Y-134443685D02*
X101437368Y-134515114D01*
X101437368Y-134515114D02*
X100937368Y-134515114D01*
X91304510Y-101550828D02*
X91304510Y-100050828D01*
X92018796Y-101550828D02*
X92018796Y-100050828D01*
X92018796Y-100050828D02*
X92875939Y-101550828D01*
X92875939Y-101550828D02*
X92875939Y-100050828D01*
X93590225Y-101550828D02*
X93590225Y-100050828D01*
X93590225Y-100050828D02*
X94161654Y-100050828D01*
X94161654Y-100050828D02*
X94304511Y-100122257D01*
X94304511Y-100122257D02*
X94375940Y-100193685D01*
X94375940Y-100193685D02*
X94447368Y-100336542D01*
X94447368Y-100336542D02*
X94447368Y-100550828D01*
X94447368Y-100550828D02*
X94375940Y-100693685D01*
X94375940Y-100693685D02*
X94304511Y-100765114D01*
X94304511Y-100765114D02*
X94161654Y-100836542D01*
X94161654Y-100836542D02*
X93590225Y-100836542D01*
X95090225Y-100050828D02*
X95090225Y-101265114D01*
X95090225Y-101265114D02*
X95161654Y-101407971D01*
X95161654Y-101407971D02*
X95233083Y-101479400D01*
X95233083Y-101479400D02*
X95375940Y-101550828D01*
X95375940Y-101550828D02*
X95661654Y-101550828D01*
X95661654Y-101550828D02*
X95804511Y-101479400D01*
X95804511Y-101479400D02*
X95875940Y-101407971D01*
X95875940Y-101407971D02*
X95947368Y-101265114D01*
X95947368Y-101265114D02*
X95947368Y-100050828D01*
X96447369Y-100050828D02*
X97304512Y-100050828D01*
X96875940Y-101550828D02*
X96875940Y-100050828D01*
X99447368Y-100765114D02*
X99661654Y-100836542D01*
X99661654Y-100836542D02*
X99733083Y-100907971D01*
X99733083Y-100907971D02*
X99804511Y-101050828D01*
X99804511Y-101050828D02*
X99804511Y-101265114D01*
X99804511Y-101265114D02*
X99733083Y-101407971D01*
X99733083Y-101407971D02*
X99661654Y-101479400D01*
X99661654Y-101479400D02*
X99518797Y-101550828D01*
X99518797Y-101550828D02*
X98947368Y-101550828D01*
X98947368Y-101550828D02*
X98947368Y-100050828D01*
X98947368Y-100050828D02*
X99447368Y-100050828D01*
X99447368Y-100050828D02*
X99590226Y-100122257D01*
X99590226Y-100122257D02*
X99661654Y-100193685D01*
X99661654Y-100193685D02*
X99733083Y-100336542D01*
X99733083Y-100336542D02*
X99733083Y-100479400D01*
X99733083Y-100479400D02*
X99661654Y-100622257D01*
X99661654Y-100622257D02*
X99590226Y-100693685D01*
X99590226Y-100693685D02*
X99447368Y-100765114D01*
X99447368Y-100765114D02*
X98947368Y-100765114D01*
X100304511Y-100050828D02*
X101233083Y-100050828D01*
X101233083Y-100050828D02*
X100733083Y-100622257D01*
X100733083Y-100622257D02*
X100947368Y-100622257D01*
X100947368Y-100622257D02*
X101090226Y-100693685D01*
X101090226Y-100693685D02*
X101161654Y-100765114D01*
X101161654Y-100765114D02*
X101233083Y-100907971D01*
X101233083Y-100907971D02*
X101233083Y-101265114D01*
X101233083Y-101265114D02*
X101161654Y-101407971D01*
X101161654Y-101407971D02*
X101090226Y-101479400D01*
X101090226Y-101479400D02*
X100947368Y-101550828D01*
X100947368Y-101550828D02*
X100518797Y-101550828D01*
X100518797Y-101550828D02*
X100375940Y-101479400D01*
X100375940Y-101479400D02*
X100304511Y-101407971D01*
X91554510Y-72800828D02*
X91554510Y-71300828D01*
X92268796Y-72800828D02*
X92268796Y-71300828D01*
X92268796Y-71300828D02*
X93125939Y-72800828D01*
X93125939Y-72800828D02*
X93125939Y-71300828D01*
X93840225Y-72800828D02*
X93840225Y-71300828D01*
X93840225Y-71300828D02*
X94411654Y-71300828D01*
X94411654Y-71300828D02*
X94554511Y-71372257D01*
X94554511Y-71372257D02*
X94625940Y-71443685D01*
X94625940Y-71443685D02*
X94697368Y-71586542D01*
X94697368Y-71586542D02*
X94697368Y-71800828D01*
X94697368Y-71800828D02*
X94625940Y-71943685D01*
X94625940Y-71943685D02*
X94554511Y-72015114D01*
X94554511Y-72015114D02*
X94411654Y-72086542D01*
X94411654Y-72086542D02*
X93840225Y-72086542D01*
X95340225Y-71300828D02*
X95340225Y-72515114D01*
X95340225Y-72515114D02*
X95411654Y-72657971D01*
X95411654Y-72657971D02*
X95483083Y-72729400D01*
X95483083Y-72729400D02*
X95625940Y-72800828D01*
X95625940Y-72800828D02*
X95911654Y-72800828D01*
X95911654Y-72800828D02*
X96054511Y-72729400D01*
X96054511Y-72729400D02*
X96125940Y-72657971D01*
X96125940Y-72657971D02*
X96197368Y-72515114D01*
X96197368Y-72515114D02*
X96197368Y-71300828D01*
X96697369Y-71300828D02*
X97554512Y-71300828D01*
X97125940Y-72800828D02*
X97125940Y-71300828D01*
X99697368Y-72015114D02*
X99911654Y-72086542D01*
X99911654Y-72086542D02*
X99983083Y-72157971D01*
X99983083Y-72157971D02*
X100054511Y-72300828D01*
X100054511Y-72300828D02*
X100054511Y-72515114D01*
X100054511Y-72515114D02*
X99983083Y-72657971D01*
X99983083Y-72657971D02*
X99911654Y-72729400D01*
X99911654Y-72729400D02*
X99768797Y-72800828D01*
X99768797Y-72800828D02*
X99197368Y-72800828D01*
X99197368Y-72800828D02*
X99197368Y-71300828D01*
X99197368Y-71300828D02*
X99697368Y-71300828D01*
X99697368Y-71300828D02*
X99840226Y-71372257D01*
X99840226Y-71372257D02*
X99911654Y-71443685D01*
X99911654Y-71443685D02*
X99983083Y-71586542D01*
X99983083Y-71586542D02*
X99983083Y-71729400D01*
X99983083Y-71729400D02*
X99911654Y-71872257D01*
X99911654Y-71872257D02*
X99840226Y-71943685D01*
X99840226Y-71943685D02*
X99697368Y-72015114D01*
X99697368Y-72015114D02*
X99197368Y-72015114D01*
X100625940Y-71443685D02*
X100697368Y-71372257D01*
X100697368Y-71372257D02*
X100840226Y-71300828D01*
X100840226Y-71300828D02*
X101197368Y-71300828D01*
X101197368Y-71300828D02*
X101340226Y-71372257D01*
X101340226Y-71372257D02*
X101411654Y-71443685D01*
X101411654Y-71443685D02*
X101483083Y-71586542D01*
X101483083Y-71586542D02*
X101483083Y-71729400D01*
X101483083Y-71729400D02*
X101411654Y-71943685D01*
X101411654Y-71943685D02*
X100554511Y-72800828D01*
X100554511Y-72800828D02*
X101483083Y-72800828D01*
X33554510Y-44800828D02*
X33554510Y-43300828D01*
X34268796Y-44800828D02*
X34268796Y-43300828D01*
X34268796Y-43300828D02*
X35125939Y-44800828D01*
X35125939Y-44800828D02*
X35125939Y-43300828D01*
X35840225Y-44800828D02*
X35840225Y-43300828D01*
X35840225Y-43300828D02*
X36411654Y-43300828D01*
X36411654Y-43300828D02*
X36554511Y-43372257D01*
X36554511Y-43372257D02*
X36625940Y-43443685D01*
X36625940Y-43443685D02*
X36697368Y-43586542D01*
X36697368Y-43586542D02*
X36697368Y-43800828D01*
X36697368Y-43800828D02*
X36625940Y-43943685D01*
X36625940Y-43943685D02*
X36554511Y-44015114D01*
X36554511Y-44015114D02*
X36411654Y-44086542D01*
X36411654Y-44086542D02*
X35840225Y-44086542D01*
X37340225Y-43300828D02*
X37340225Y-44515114D01*
X37340225Y-44515114D02*
X37411654Y-44657971D01*
X37411654Y-44657971D02*
X37483083Y-44729400D01*
X37483083Y-44729400D02*
X37625940Y-44800828D01*
X37625940Y-44800828D02*
X37911654Y-44800828D01*
X37911654Y-44800828D02*
X38054511Y-44729400D01*
X38054511Y-44729400D02*
X38125940Y-44657971D01*
X38125940Y-44657971D02*
X38197368Y-44515114D01*
X38197368Y-44515114D02*
X38197368Y-43300828D01*
X38697369Y-43300828D02*
X39554512Y-43300828D01*
X39125940Y-44800828D02*
X39125940Y-43300828D01*
X41125940Y-44372257D02*
X41840226Y-44372257D01*
X40983083Y-44800828D02*
X41483083Y-43300828D01*
X41483083Y-43300828D02*
X41983083Y-44800828D01*
X43268797Y-44800828D02*
X42411654Y-44800828D01*
X42840225Y-44800828D02*
X42840225Y-43300828D01*
X42840225Y-43300828D02*
X42697368Y-43515114D01*
X42697368Y-43515114D02*
X42554511Y-43657971D01*
X42554511Y-43657971D02*
X42411654Y-43729400D01*
D13*
X95947142Y-112204819D02*
X95613809Y-111728628D01*
X95375714Y-112204819D02*
X95375714Y-111204819D01*
X95375714Y-111204819D02*
X95756666Y-111204819D01*
X95756666Y-111204819D02*
X95851904Y-111252438D01*
X95851904Y-111252438D02*
X95899523Y-111300057D01*
X95899523Y-111300057D02*
X95947142Y-111395295D01*
X95947142Y-111395295D02*
X95947142Y-111538152D01*
X95947142Y-111538152D02*
X95899523Y-111633390D01*
X95899523Y-111633390D02*
X95851904Y-111681009D01*
X95851904Y-111681009D02*
X95756666Y-111728628D01*
X95756666Y-111728628D02*
X95375714Y-111728628D01*
X96899523Y-112204819D02*
X96328095Y-112204819D01*
X96613809Y-112204819D02*
X96613809Y-111204819D01*
X96613809Y-111204819D02*
X96518571Y-111347676D01*
X96518571Y-111347676D02*
X96423333Y-111442914D01*
X96423333Y-111442914D02*
X96328095Y-111490533D01*
X97851904Y-112204819D02*
X97280476Y-112204819D01*
X97566190Y-112204819D02*
X97566190Y-111204819D01*
X97566190Y-111204819D02*
X97470952Y-111347676D01*
X97470952Y-111347676D02*
X97375714Y-111442914D01*
X97375714Y-111442914D02*
X97280476Y-111490533D01*
X96107142Y-116704819D02*
X95773809Y-116228628D01*
X95535714Y-116704819D02*
X95535714Y-115704819D01*
X95535714Y-115704819D02*
X95916666Y-115704819D01*
X95916666Y-115704819D02*
X96011904Y-115752438D01*
X96011904Y-115752438D02*
X96059523Y-115800057D01*
X96059523Y-115800057D02*
X96107142Y-115895295D01*
X96107142Y-115895295D02*
X96107142Y-116038152D01*
X96107142Y-116038152D02*
X96059523Y-116133390D01*
X96059523Y-116133390D02*
X96011904Y-116181009D01*
X96011904Y-116181009D02*
X95916666Y-116228628D01*
X95916666Y-116228628D02*
X95535714Y-116228628D01*
X97059523Y-116704819D02*
X96488095Y-116704819D01*
X96773809Y-116704819D02*
X96773809Y-115704819D01*
X96773809Y-115704819D02*
X96678571Y-115847676D01*
X96678571Y-115847676D02*
X96583333Y-115942914D01*
X96583333Y-115942914D02*
X96488095Y-115990533D01*
X97440476Y-115800057D02*
X97488095Y-115752438D01*
X97488095Y-115752438D02*
X97583333Y-115704819D01*
X97583333Y-115704819D02*
X97821428Y-115704819D01*
X97821428Y-115704819D02*
X97916666Y-115752438D01*
X97916666Y-115752438D02*
X97964285Y-115800057D01*
X97964285Y-115800057D02*
X98011904Y-115895295D01*
X98011904Y-115895295D02*
X98011904Y-115990533D01*
X98011904Y-115990533D02*
X97964285Y-116133390D01*
X97964285Y-116133390D02*
X97392857Y-116704819D01*
X97392857Y-116704819D02*
X98011904Y-116704819D01*
X31238095Y-102284819D02*
X31238095Y-103094342D01*
X31238095Y-103094342D02*
X31285714Y-103189580D01*
X31285714Y-103189580D02*
X31333333Y-103237200D01*
X31333333Y-103237200D02*
X31428571Y-103284819D01*
X31428571Y-103284819D02*
X31619047Y-103284819D01*
X31619047Y-103284819D02*
X31714285Y-103237200D01*
X31714285Y-103237200D02*
X31761904Y-103189580D01*
X31761904Y-103189580D02*
X31809523Y-103094342D01*
X31809523Y-103094342D02*
X31809523Y-102284819D01*
X32809523Y-103284819D02*
X32238095Y-103284819D01*
X32523809Y-103284819D02*
X32523809Y-102284819D01*
X32523809Y-102284819D02*
X32428571Y-102427676D01*
X32428571Y-102427676D02*
X32333333Y-102522914D01*
X32333333Y-102522914D02*
X32238095Y-102570533D01*
X95607142Y-107704819D02*
X95273809Y-107228628D01*
X95035714Y-107704819D02*
X95035714Y-106704819D01*
X95035714Y-106704819D02*
X95416666Y-106704819D01*
X95416666Y-106704819D02*
X95511904Y-106752438D01*
X95511904Y-106752438D02*
X95559523Y-106800057D01*
X95559523Y-106800057D02*
X95607142Y-106895295D01*
X95607142Y-106895295D02*
X95607142Y-107038152D01*
X95607142Y-107038152D02*
X95559523Y-107133390D01*
X95559523Y-107133390D02*
X95511904Y-107181009D01*
X95511904Y-107181009D02*
X95416666Y-107228628D01*
X95416666Y-107228628D02*
X95035714Y-107228628D01*
X96559523Y-107704819D02*
X95988095Y-107704819D01*
X96273809Y-107704819D02*
X96273809Y-106704819D01*
X96273809Y-106704819D02*
X96178571Y-106847676D01*
X96178571Y-106847676D02*
X96083333Y-106942914D01*
X96083333Y-106942914D02*
X95988095Y-106990533D01*
X97178571Y-106704819D02*
X97273809Y-106704819D01*
X97273809Y-106704819D02*
X97369047Y-106752438D01*
X97369047Y-106752438D02*
X97416666Y-106800057D01*
X97416666Y-106800057D02*
X97464285Y-106895295D01*
X97464285Y-106895295D02*
X97511904Y-107085771D01*
X97511904Y-107085771D02*
X97511904Y-107323866D01*
X97511904Y-107323866D02*
X97464285Y-107514342D01*
X97464285Y-107514342D02*
X97416666Y-107609580D01*
X97416666Y-107609580D02*
X97369047Y-107657200D01*
X97369047Y-107657200D02*
X97273809Y-107704819D01*
X97273809Y-107704819D02*
X97178571Y-107704819D01*
X97178571Y-107704819D02*
X97083333Y-107657200D01*
X97083333Y-107657200D02*
X97035714Y-107609580D01*
X97035714Y-107609580D02*
X96988095Y-107514342D01*
X96988095Y-107514342D02*
X96940476Y-107323866D01*
X96940476Y-107323866D02*
X96940476Y-107085771D01*
X96940476Y-107085771D02*
X96988095Y-106895295D01*
X96988095Y-106895295D02*
X97035714Y-106800057D01*
X97035714Y-106800057D02*
X97083333Y-106752438D01*
X97083333Y-106752438D02*
X97178571Y-106704819D01*
X96833333Y-103204819D02*
X96500000Y-102728628D01*
X96261905Y-103204819D02*
X96261905Y-102204819D01*
X96261905Y-102204819D02*
X96642857Y-102204819D01*
X96642857Y-102204819D02*
X96738095Y-102252438D01*
X96738095Y-102252438D02*
X96785714Y-102300057D01*
X96785714Y-102300057D02*
X96833333Y-102395295D01*
X96833333Y-102395295D02*
X96833333Y-102538152D01*
X96833333Y-102538152D02*
X96785714Y-102633390D01*
X96785714Y-102633390D02*
X96738095Y-102681009D01*
X96738095Y-102681009D02*
X96642857Y-102728628D01*
X96642857Y-102728628D02*
X96261905Y-102728628D01*
X97309524Y-103204819D02*
X97500000Y-103204819D01*
X97500000Y-103204819D02*
X97595238Y-103157200D01*
X97595238Y-103157200D02*
X97642857Y-103109580D01*
X97642857Y-103109580D02*
X97738095Y-102966723D01*
X97738095Y-102966723D02*
X97785714Y-102776247D01*
X97785714Y-102776247D02*
X97785714Y-102395295D01*
X97785714Y-102395295D02*
X97738095Y-102300057D01*
X97738095Y-102300057D02*
X97690476Y-102252438D01*
X97690476Y-102252438D02*
X97595238Y-102204819D01*
X97595238Y-102204819D02*
X97404762Y-102204819D01*
X97404762Y-102204819D02*
X97309524Y-102252438D01*
X97309524Y-102252438D02*
X97261905Y-102300057D01*
X97261905Y-102300057D02*
X97214286Y-102395295D01*
X97214286Y-102395295D02*
X97214286Y-102633390D01*
X97214286Y-102633390D02*
X97261905Y-102728628D01*
X97261905Y-102728628D02*
X97309524Y-102776247D01*
X97309524Y-102776247D02*
X97404762Y-102823866D01*
X97404762Y-102823866D02*
X97595238Y-102823866D01*
X97595238Y-102823866D02*
X97690476Y-102776247D01*
X97690476Y-102776247D02*
X97738095Y-102728628D01*
X97738095Y-102728628D02*
X97785714Y-102633390D01*
X76854819Y-19579523D02*
X77569104Y-19579523D01*
X77569104Y-19579523D02*
X77711961Y-19627142D01*
X77711961Y-19627142D02*
X77807200Y-19722380D01*
X77807200Y-19722380D02*
X77854819Y-19865237D01*
X77854819Y-19865237D02*
X77854819Y-19960475D01*
X77854819Y-18579523D02*
X77854819Y-19150951D01*
X77854819Y-18865237D02*
X76854819Y-18865237D01*
X76854819Y-18865237D02*
X76997676Y-18960475D01*
X76997676Y-18960475D02*
X77092914Y-19055713D01*
X77092914Y-19055713D02*
X77140533Y-19150951D01*
X77854819Y-18103332D02*
X77854819Y-17912856D01*
X77854819Y-17912856D02*
X77807200Y-17817618D01*
X77807200Y-17817618D02*
X77759580Y-17769999D01*
X77759580Y-17769999D02*
X77616723Y-17674761D01*
X77616723Y-17674761D02*
X77426247Y-17627142D01*
X77426247Y-17627142D02*
X77045295Y-17627142D01*
X77045295Y-17627142D02*
X76950057Y-17674761D01*
X76950057Y-17674761D02*
X76902438Y-17722380D01*
X76902438Y-17722380D02*
X76854819Y-17817618D01*
X76854819Y-17817618D02*
X76854819Y-18008094D01*
X76854819Y-18008094D02*
X76902438Y-18103332D01*
X76902438Y-18103332D02*
X76950057Y-18150951D01*
X76950057Y-18150951D02*
X77045295Y-18198570D01*
X77045295Y-18198570D02*
X77283390Y-18198570D01*
X77283390Y-18198570D02*
X77378628Y-18150951D01*
X77378628Y-18150951D02*
X77426247Y-18103332D01*
X77426247Y-18103332D02*
X77473866Y-18008094D01*
X77473866Y-18008094D02*
X77473866Y-17817618D01*
X77473866Y-17817618D02*
X77426247Y-17722380D01*
X77426247Y-17722380D02*
X77378628Y-17674761D01*
X77378628Y-17674761D02*
X77283390Y-17627142D01*
X93954819Y-80836666D02*
X93478628Y-81169999D01*
X93954819Y-81408094D02*
X92954819Y-81408094D01*
X92954819Y-81408094D02*
X92954819Y-81027142D01*
X92954819Y-81027142D02*
X93002438Y-80931904D01*
X93002438Y-80931904D02*
X93050057Y-80884285D01*
X93050057Y-80884285D02*
X93145295Y-80836666D01*
X93145295Y-80836666D02*
X93288152Y-80836666D01*
X93288152Y-80836666D02*
X93383390Y-80884285D01*
X93383390Y-80884285D02*
X93431009Y-80931904D01*
X93431009Y-80931904D02*
X93478628Y-81027142D01*
X93478628Y-81027142D02*
X93478628Y-81408094D01*
X92954819Y-79979523D02*
X92954819Y-80169999D01*
X92954819Y-80169999D02*
X93002438Y-80265237D01*
X93002438Y-80265237D02*
X93050057Y-80312856D01*
X93050057Y-80312856D02*
X93192914Y-80408094D01*
X93192914Y-80408094D02*
X93383390Y-80455713D01*
X93383390Y-80455713D02*
X93764342Y-80455713D01*
X93764342Y-80455713D02*
X93859580Y-80408094D01*
X93859580Y-80408094D02*
X93907200Y-80360475D01*
X93907200Y-80360475D02*
X93954819Y-80265237D01*
X93954819Y-80265237D02*
X93954819Y-80074761D01*
X93954819Y-80074761D02*
X93907200Y-79979523D01*
X93907200Y-79979523D02*
X93859580Y-79931904D01*
X93859580Y-79931904D02*
X93764342Y-79884285D01*
X93764342Y-79884285D02*
X93526247Y-79884285D01*
X93526247Y-79884285D02*
X93431009Y-79931904D01*
X93431009Y-79931904D02*
X93383390Y-79979523D01*
X93383390Y-79979523D02*
X93335771Y-80074761D01*
X93335771Y-80074761D02*
X93335771Y-80265237D01*
X93335771Y-80265237D02*
X93383390Y-80360475D01*
X93383390Y-80360475D02*
X93431009Y-80408094D01*
X93431009Y-80408094D02*
X93526247Y-80455713D01*
D10*
X55746666Y-32457419D02*
X55746666Y-33171704D01*
X55746666Y-33171704D02*
X55699047Y-33314561D01*
X55699047Y-33314561D02*
X55603809Y-33409800D01*
X55603809Y-33409800D02*
X55460952Y-33457419D01*
X55460952Y-33457419D02*
X55365714Y-33457419D01*
X56175238Y-32552657D02*
X56222857Y-32505038D01*
X56222857Y-32505038D02*
X56318095Y-32457419D01*
X56318095Y-32457419D02*
X56556190Y-32457419D01*
X56556190Y-32457419D02*
X56651428Y-32505038D01*
X56651428Y-32505038D02*
X56699047Y-32552657D01*
X56699047Y-32552657D02*
X56746666Y-32647895D01*
X56746666Y-32647895D02*
X56746666Y-32743133D01*
X56746666Y-32743133D02*
X56699047Y-32885990D01*
X56699047Y-32885990D02*
X56127619Y-33457419D01*
X56127619Y-33457419D02*
X56746666Y-33457419D01*
X32166666Y-59707419D02*
X32166666Y-60421704D01*
X32166666Y-60421704D02*
X32119047Y-60564561D01*
X32119047Y-60564561D02*
X32023809Y-60659800D01*
X32023809Y-60659800D02*
X31880952Y-60707419D01*
X31880952Y-60707419D02*
X31785714Y-60707419D01*
X32547619Y-59707419D02*
X33166666Y-59707419D01*
X33166666Y-59707419D02*
X32833333Y-60088371D01*
X32833333Y-60088371D02*
X32976190Y-60088371D01*
X32976190Y-60088371D02*
X33071428Y-60135990D01*
X33071428Y-60135990D02*
X33119047Y-60183609D01*
X33119047Y-60183609D02*
X33166666Y-60278847D01*
X33166666Y-60278847D02*
X33166666Y-60516942D01*
X33166666Y-60516942D02*
X33119047Y-60612180D01*
X33119047Y-60612180D02*
X33071428Y-60659800D01*
X33071428Y-60659800D02*
X32976190Y-60707419D01*
X32976190Y-60707419D02*
X32690476Y-60707419D01*
X32690476Y-60707419D02*
X32595238Y-60659800D01*
X32595238Y-60659800D02*
X32547619Y-60612180D01*
X77770476Y-61457419D02*
X77770476Y-62171704D01*
X77770476Y-62171704D02*
X77722857Y-62314561D01*
X77722857Y-62314561D02*
X77627619Y-62409800D01*
X77627619Y-62409800D02*
X77484762Y-62457419D01*
X77484762Y-62457419D02*
X77389524Y-62457419D01*
X78770476Y-62457419D02*
X78199048Y-62457419D01*
X78484762Y-62457419D02*
X78484762Y-61457419D01*
X78484762Y-61457419D02*
X78389524Y-61600276D01*
X78389524Y-61600276D02*
X78294286Y-61695514D01*
X78294286Y-61695514D02*
X78199048Y-61743133D01*
X79389524Y-61457419D02*
X79484762Y-61457419D01*
X79484762Y-61457419D02*
X79580000Y-61505038D01*
X79580000Y-61505038D02*
X79627619Y-61552657D01*
X79627619Y-61552657D02*
X79675238Y-61647895D01*
X79675238Y-61647895D02*
X79722857Y-61838371D01*
X79722857Y-61838371D02*
X79722857Y-62076466D01*
X79722857Y-62076466D02*
X79675238Y-62266942D01*
X79675238Y-62266942D02*
X79627619Y-62362180D01*
X79627619Y-62362180D02*
X79580000Y-62409800D01*
X79580000Y-62409800D02*
X79484762Y-62457419D01*
X79484762Y-62457419D02*
X79389524Y-62457419D01*
X79389524Y-62457419D02*
X79294286Y-62409800D01*
X79294286Y-62409800D02*
X79246667Y-62362180D01*
X79246667Y-62362180D02*
X79199048Y-62266942D01*
X79199048Y-62266942D02*
X79151429Y-62076466D01*
X79151429Y-62076466D02*
X79151429Y-61838371D01*
X79151429Y-61838371D02*
X79199048Y-61647895D01*
X79199048Y-61647895D02*
X79246667Y-61552657D01*
X79246667Y-61552657D02*
X79294286Y-61505038D01*
X79294286Y-61505038D02*
X79389524Y-61457419D01*
X37666666Y-28957419D02*
X37666666Y-29671704D01*
X37666666Y-29671704D02*
X37619047Y-29814561D01*
X37619047Y-29814561D02*
X37523809Y-29909800D01*
X37523809Y-29909800D02*
X37380952Y-29957419D01*
X37380952Y-29957419D02*
X37285714Y-29957419D01*
X38666666Y-29957419D02*
X38095238Y-29957419D01*
X38380952Y-29957419D02*
X38380952Y-28957419D01*
X38380952Y-28957419D02*
X38285714Y-29100276D01*
X38285714Y-29100276D02*
X38190476Y-29195514D01*
X38190476Y-29195514D02*
X38095238Y-29243133D01*
D13*
X36704819Y-80836666D02*
X36228628Y-81169999D01*
X36704819Y-81408094D02*
X35704819Y-81408094D01*
X35704819Y-81408094D02*
X35704819Y-81027142D01*
X35704819Y-81027142D02*
X35752438Y-80931904D01*
X35752438Y-80931904D02*
X35800057Y-80884285D01*
X35800057Y-80884285D02*
X35895295Y-80836666D01*
X35895295Y-80836666D02*
X36038152Y-80836666D01*
X36038152Y-80836666D02*
X36133390Y-80884285D01*
X36133390Y-80884285D02*
X36181009Y-80931904D01*
X36181009Y-80931904D02*
X36228628Y-81027142D01*
X36228628Y-81027142D02*
X36228628Y-81408094D01*
X35800057Y-80455713D02*
X35752438Y-80408094D01*
X35752438Y-80408094D02*
X35704819Y-80312856D01*
X35704819Y-80312856D02*
X35704819Y-80074761D01*
X35704819Y-80074761D02*
X35752438Y-79979523D01*
X35752438Y-79979523D02*
X35800057Y-79931904D01*
X35800057Y-79931904D02*
X35895295Y-79884285D01*
X35895295Y-79884285D02*
X35990533Y-79884285D01*
X35990533Y-79884285D02*
X36133390Y-79931904D01*
X36133390Y-79931904D02*
X36704819Y-80503332D01*
X36704819Y-80503332D02*
X36704819Y-79884285D01*
X39274819Y-19579523D02*
X39989104Y-19579523D01*
X39989104Y-19579523D02*
X40131961Y-19627142D01*
X40131961Y-19627142D02*
X40227200Y-19722380D01*
X40227200Y-19722380D02*
X40274819Y-19865237D01*
X40274819Y-19865237D02*
X40274819Y-19960475D01*
X40274819Y-18579523D02*
X40274819Y-19150951D01*
X40274819Y-18865237D02*
X39274819Y-18865237D01*
X39274819Y-18865237D02*
X39417676Y-18960475D01*
X39417676Y-18960475D02*
X39512914Y-19055713D01*
X39512914Y-19055713D02*
X39560533Y-19150951D01*
X39274819Y-18246189D02*
X39274819Y-17579523D01*
X39274819Y-17579523D02*
X40274819Y-18008094D01*
D10*
X55746666Y-89957419D02*
X55746666Y-90671704D01*
X55746666Y-90671704D02*
X55699047Y-90814561D01*
X55699047Y-90814561D02*
X55603809Y-90909800D01*
X55603809Y-90909800D02*
X55460952Y-90957419D01*
X55460952Y-90957419D02*
X55365714Y-90957419D01*
X56651428Y-89957419D02*
X56460952Y-89957419D01*
X56460952Y-89957419D02*
X56365714Y-90005038D01*
X56365714Y-90005038D02*
X56318095Y-90052657D01*
X56318095Y-90052657D02*
X56222857Y-90195514D01*
X56222857Y-90195514D02*
X56175238Y-90385990D01*
X56175238Y-90385990D02*
X56175238Y-90766942D01*
X56175238Y-90766942D02*
X56222857Y-90862180D01*
X56222857Y-90862180D02*
X56270476Y-90909800D01*
X56270476Y-90909800D02*
X56365714Y-90957419D01*
X56365714Y-90957419D02*
X56556190Y-90957419D01*
X56556190Y-90957419D02*
X56651428Y-90909800D01*
X56651428Y-90909800D02*
X56699047Y-90862180D01*
X56699047Y-90862180D02*
X56746666Y-90766942D01*
X56746666Y-90766942D02*
X56746666Y-90528847D01*
X56746666Y-90528847D02*
X56699047Y-90433609D01*
X56699047Y-90433609D02*
X56651428Y-90385990D01*
X56651428Y-90385990D02*
X56556190Y-90338371D01*
X56556190Y-90338371D02*
X56365714Y-90338371D01*
X56365714Y-90338371D02*
X56270476Y-90385990D01*
X56270476Y-90385990D02*
X56222857Y-90433609D01*
X56222857Y-90433609D02*
X56175238Y-90528847D01*
X32270476Y-120957419D02*
X32270476Y-121671704D01*
X32270476Y-121671704D02*
X32222857Y-121814561D01*
X32222857Y-121814561D02*
X32127619Y-121909800D01*
X32127619Y-121909800D02*
X31984762Y-121957419D01*
X31984762Y-121957419D02*
X31889524Y-121957419D01*
X33270476Y-121957419D02*
X32699048Y-121957419D01*
X32984762Y-121957419D02*
X32984762Y-120957419D01*
X32984762Y-120957419D02*
X32889524Y-121100276D01*
X32889524Y-121100276D02*
X32794286Y-121195514D01*
X32794286Y-121195514D02*
X32699048Y-121243133D01*
X34127619Y-121290752D02*
X34127619Y-121957419D01*
X33889524Y-120909800D02*
X33651429Y-121624085D01*
X33651429Y-121624085D02*
X34270476Y-121624085D01*
X96166666Y-56957419D02*
X96166666Y-57671704D01*
X96166666Y-57671704D02*
X96119047Y-57814561D01*
X96119047Y-57814561D02*
X96023809Y-57909800D01*
X96023809Y-57909800D02*
X95880952Y-57957419D01*
X95880952Y-57957419D02*
X95785714Y-57957419D01*
X96690476Y-57957419D02*
X96880952Y-57957419D01*
X96880952Y-57957419D02*
X96976190Y-57909800D01*
X96976190Y-57909800D02*
X97023809Y-57862180D01*
X97023809Y-57862180D02*
X97119047Y-57719323D01*
X97119047Y-57719323D02*
X97166666Y-57528847D01*
X97166666Y-57528847D02*
X97166666Y-57147895D01*
X97166666Y-57147895D02*
X97119047Y-57052657D01*
X97119047Y-57052657D02*
X97071428Y-57005038D01*
X97071428Y-57005038D02*
X96976190Y-56957419D01*
X96976190Y-56957419D02*
X96785714Y-56957419D01*
X96785714Y-56957419D02*
X96690476Y-57005038D01*
X96690476Y-57005038D02*
X96642857Y-57052657D01*
X96642857Y-57052657D02*
X96595238Y-57147895D01*
X96595238Y-57147895D02*
X96595238Y-57385990D01*
X96595238Y-57385990D02*
X96642857Y-57481228D01*
X96642857Y-57481228D02*
X96690476Y-57528847D01*
X96690476Y-57528847D02*
X96785714Y-57576466D01*
X96785714Y-57576466D02*
X96976190Y-57576466D01*
X96976190Y-57576466D02*
X97071428Y-57528847D01*
X97071428Y-57528847D02*
X97119047Y-57481228D01*
X97119047Y-57481228D02*
X97166666Y-57385990D01*
X78246666Y-32457419D02*
X78246666Y-33171704D01*
X78246666Y-33171704D02*
X78199047Y-33314561D01*
X78199047Y-33314561D02*
X78103809Y-33409800D01*
X78103809Y-33409800D02*
X77960952Y-33457419D01*
X77960952Y-33457419D02*
X77865714Y-33457419D01*
X78865714Y-32885990D02*
X78770476Y-32838371D01*
X78770476Y-32838371D02*
X78722857Y-32790752D01*
X78722857Y-32790752D02*
X78675238Y-32695514D01*
X78675238Y-32695514D02*
X78675238Y-32647895D01*
X78675238Y-32647895D02*
X78722857Y-32552657D01*
X78722857Y-32552657D02*
X78770476Y-32505038D01*
X78770476Y-32505038D02*
X78865714Y-32457419D01*
X78865714Y-32457419D02*
X79056190Y-32457419D01*
X79056190Y-32457419D02*
X79151428Y-32505038D01*
X79151428Y-32505038D02*
X79199047Y-32552657D01*
X79199047Y-32552657D02*
X79246666Y-32647895D01*
X79246666Y-32647895D02*
X79246666Y-32695514D01*
X79246666Y-32695514D02*
X79199047Y-32790752D01*
X79199047Y-32790752D02*
X79151428Y-32838371D01*
X79151428Y-32838371D02*
X79056190Y-32885990D01*
X79056190Y-32885990D02*
X78865714Y-32885990D01*
X78865714Y-32885990D02*
X78770476Y-32933609D01*
X78770476Y-32933609D02*
X78722857Y-32981228D01*
X78722857Y-32981228D02*
X78675238Y-33076466D01*
X78675238Y-33076466D02*
X78675238Y-33266942D01*
X78675238Y-33266942D02*
X78722857Y-33362180D01*
X78722857Y-33362180D02*
X78770476Y-33409800D01*
X78770476Y-33409800D02*
X78865714Y-33457419D01*
X78865714Y-33457419D02*
X79056190Y-33457419D01*
X79056190Y-33457419D02*
X79151428Y-33409800D01*
X79151428Y-33409800D02*
X79199047Y-33362180D01*
X79199047Y-33362180D02*
X79246666Y-33266942D01*
X79246666Y-33266942D02*
X79246666Y-33076466D01*
X79246666Y-33076466D02*
X79199047Y-32981228D01*
X79199047Y-32981228D02*
X79151428Y-32933609D01*
X79151428Y-32933609D02*
X79056190Y-32885990D01*
X90654761Y-42457419D02*
X90321428Y-41981228D01*
X90083333Y-42457419D02*
X90083333Y-41457419D01*
X90083333Y-41457419D02*
X90464285Y-41457419D01*
X90464285Y-41457419D02*
X90559523Y-41505038D01*
X90559523Y-41505038D02*
X90607142Y-41552657D01*
X90607142Y-41552657D02*
X90654761Y-41647895D01*
X90654761Y-41647895D02*
X90654761Y-41790752D01*
X90654761Y-41790752D02*
X90607142Y-41885990D01*
X90607142Y-41885990D02*
X90559523Y-41933609D01*
X90559523Y-41933609D02*
X90464285Y-41981228D01*
X90464285Y-41981228D02*
X90083333Y-41981228D01*
X90940476Y-41457419D02*
X91273809Y-42457419D01*
X91273809Y-42457419D02*
X91607142Y-41457419D01*
X92369047Y-41790752D02*
X92369047Y-42457419D01*
X92130952Y-41409800D02*
X91892857Y-42124085D01*
X91892857Y-42124085D02*
X92511904Y-42124085D01*
X55706666Y-61257419D02*
X55706666Y-61971704D01*
X55706666Y-61971704D02*
X55659047Y-62114561D01*
X55659047Y-62114561D02*
X55563809Y-62209800D01*
X55563809Y-62209800D02*
X55420952Y-62257419D01*
X55420952Y-62257419D02*
X55325714Y-62257419D01*
X56611428Y-61590752D02*
X56611428Y-62257419D01*
X56373333Y-61209800D02*
X56135238Y-61924085D01*
X56135238Y-61924085D02*
X56754285Y-61924085D01*
D13*
X55583333Y-109859580D02*
X55535714Y-109907200D01*
X55535714Y-109907200D02*
X55392857Y-109954819D01*
X55392857Y-109954819D02*
X55297619Y-109954819D01*
X55297619Y-109954819D02*
X55154762Y-109907200D01*
X55154762Y-109907200D02*
X55059524Y-109811961D01*
X55059524Y-109811961D02*
X55011905Y-109716723D01*
X55011905Y-109716723D02*
X54964286Y-109526247D01*
X54964286Y-109526247D02*
X54964286Y-109383390D01*
X54964286Y-109383390D02*
X55011905Y-109192914D01*
X55011905Y-109192914D02*
X55059524Y-109097676D01*
X55059524Y-109097676D02*
X55154762Y-109002438D01*
X55154762Y-109002438D02*
X55297619Y-108954819D01*
X55297619Y-108954819D02*
X55392857Y-108954819D01*
X55392857Y-108954819D02*
X55535714Y-109002438D01*
X55535714Y-109002438D02*
X55583333Y-109050057D01*
X55964286Y-109050057D02*
X56011905Y-109002438D01*
X56011905Y-109002438D02*
X56107143Y-108954819D01*
X56107143Y-108954819D02*
X56345238Y-108954819D01*
X56345238Y-108954819D02*
X56440476Y-109002438D01*
X56440476Y-109002438D02*
X56488095Y-109050057D01*
X56488095Y-109050057D02*
X56535714Y-109145295D01*
X56535714Y-109145295D02*
X56535714Y-109240533D01*
X56535714Y-109240533D02*
X56488095Y-109383390D01*
X56488095Y-109383390D02*
X55916667Y-109954819D01*
X55916667Y-109954819D02*
X56535714Y-109954819D01*
X48333333Y-111809580D02*
X48285714Y-111857200D01*
X48285714Y-111857200D02*
X48142857Y-111904819D01*
X48142857Y-111904819D02*
X48047619Y-111904819D01*
X48047619Y-111904819D02*
X47904762Y-111857200D01*
X47904762Y-111857200D02*
X47809524Y-111761961D01*
X47809524Y-111761961D02*
X47761905Y-111666723D01*
X47761905Y-111666723D02*
X47714286Y-111476247D01*
X47714286Y-111476247D02*
X47714286Y-111333390D01*
X47714286Y-111333390D02*
X47761905Y-111142914D01*
X47761905Y-111142914D02*
X47809524Y-111047676D01*
X47809524Y-111047676D02*
X47904762Y-110952438D01*
X47904762Y-110952438D02*
X48047619Y-110904819D01*
X48047619Y-110904819D02*
X48142857Y-110904819D01*
X48142857Y-110904819D02*
X48285714Y-110952438D01*
X48285714Y-110952438D02*
X48333333Y-111000057D01*
X49285714Y-111904819D02*
X48714286Y-111904819D01*
X49000000Y-111904819D02*
X49000000Y-110904819D01*
X49000000Y-110904819D02*
X48904762Y-111047676D01*
X48904762Y-111047676D02*
X48809524Y-111142914D01*
X48809524Y-111142914D02*
X48714286Y-111190533D01*
D10*
X32666666Y-87457419D02*
X32666666Y-88171704D01*
X32666666Y-88171704D02*
X32619047Y-88314561D01*
X32619047Y-88314561D02*
X32523809Y-88409800D01*
X32523809Y-88409800D02*
X32380952Y-88457419D01*
X32380952Y-88457419D02*
X32285714Y-88457419D01*
X33619047Y-87457419D02*
X33142857Y-87457419D01*
X33142857Y-87457419D02*
X33095238Y-87933609D01*
X33095238Y-87933609D02*
X33142857Y-87885990D01*
X33142857Y-87885990D02*
X33238095Y-87838371D01*
X33238095Y-87838371D02*
X33476190Y-87838371D01*
X33476190Y-87838371D02*
X33571428Y-87885990D01*
X33571428Y-87885990D02*
X33619047Y-87933609D01*
X33619047Y-87933609D02*
X33666666Y-88028847D01*
X33666666Y-88028847D02*
X33666666Y-88266942D01*
X33666666Y-88266942D02*
X33619047Y-88362180D01*
X33619047Y-88362180D02*
X33571428Y-88409800D01*
X33571428Y-88409800D02*
X33476190Y-88457419D01*
X33476190Y-88457419D02*
X33238095Y-88457419D01*
X33238095Y-88457419D02*
X33142857Y-88409800D01*
X33142857Y-88409800D02*
X33095238Y-88362180D01*
X42654761Y-99207419D02*
X42321428Y-98731228D01*
X42083333Y-99207419D02*
X42083333Y-98207419D01*
X42083333Y-98207419D02*
X42464285Y-98207419D01*
X42464285Y-98207419D02*
X42559523Y-98255038D01*
X42559523Y-98255038D02*
X42607142Y-98302657D01*
X42607142Y-98302657D02*
X42654761Y-98397895D01*
X42654761Y-98397895D02*
X42654761Y-98540752D01*
X42654761Y-98540752D02*
X42607142Y-98635990D01*
X42607142Y-98635990D02*
X42559523Y-98683609D01*
X42559523Y-98683609D02*
X42464285Y-98731228D01*
X42464285Y-98731228D02*
X42083333Y-98731228D01*
X42940476Y-98207419D02*
X43273809Y-99207419D01*
X43273809Y-99207419D02*
X43607142Y-98207419D01*
X43845238Y-98207419D02*
X44464285Y-98207419D01*
X44464285Y-98207419D02*
X44130952Y-98588371D01*
X44130952Y-98588371D02*
X44273809Y-98588371D01*
X44273809Y-98588371D02*
X44369047Y-98635990D01*
X44369047Y-98635990D02*
X44416666Y-98683609D01*
X44416666Y-98683609D02*
X44464285Y-98778847D01*
X44464285Y-98778847D02*
X44464285Y-99016942D01*
X44464285Y-99016942D02*
X44416666Y-99112180D01*
X44416666Y-99112180D02*
X44369047Y-99159800D01*
X44369047Y-99159800D02*
X44273809Y-99207419D01*
X44273809Y-99207419D02*
X43988095Y-99207419D01*
X43988095Y-99207419D02*
X43892857Y-99159800D01*
X43892857Y-99159800D02*
X43845238Y-99112180D01*
X42654761Y-132957419D02*
X42321428Y-132481228D01*
X42083333Y-132957419D02*
X42083333Y-131957419D01*
X42083333Y-131957419D02*
X42464285Y-131957419D01*
X42464285Y-131957419D02*
X42559523Y-132005038D01*
X42559523Y-132005038D02*
X42607142Y-132052657D01*
X42607142Y-132052657D02*
X42654761Y-132147895D01*
X42654761Y-132147895D02*
X42654761Y-132290752D01*
X42654761Y-132290752D02*
X42607142Y-132385990D01*
X42607142Y-132385990D02*
X42559523Y-132433609D01*
X42559523Y-132433609D02*
X42464285Y-132481228D01*
X42464285Y-132481228D02*
X42083333Y-132481228D01*
X42940476Y-131957419D02*
X43273809Y-132957419D01*
X43273809Y-132957419D02*
X43607142Y-131957419D01*
X43845238Y-131957419D02*
X44511904Y-131957419D01*
X44511904Y-131957419D02*
X44083333Y-132957419D01*
X90654761Y-99207419D02*
X90321428Y-98731228D01*
X90083333Y-99207419D02*
X90083333Y-98207419D01*
X90083333Y-98207419D02*
X90464285Y-98207419D01*
X90464285Y-98207419D02*
X90559523Y-98255038D01*
X90559523Y-98255038D02*
X90607142Y-98302657D01*
X90607142Y-98302657D02*
X90654761Y-98397895D01*
X90654761Y-98397895D02*
X90654761Y-98540752D01*
X90654761Y-98540752D02*
X90607142Y-98635990D01*
X90607142Y-98635990D02*
X90559523Y-98683609D01*
X90559523Y-98683609D02*
X90464285Y-98731228D01*
X90464285Y-98731228D02*
X90083333Y-98731228D01*
X90940476Y-98207419D02*
X91273809Y-99207419D01*
X91273809Y-99207419D02*
X91607142Y-98207419D01*
X92369047Y-98207419D02*
X92178571Y-98207419D01*
X92178571Y-98207419D02*
X92083333Y-98255038D01*
X92083333Y-98255038D02*
X92035714Y-98302657D01*
X92035714Y-98302657D02*
X91940476Y-98445514D01*
X91940476Y-98445514D02*
X91892857Y-98635990D01*
X91892857Y-98635990D02*
X91892857Y-99016942D01*
X91892857Y-99016942D02*
X91940476Y-99112180D01*
X91940476Y-99112180D02*
X91988095Y-99159800D01*
X91988095Y-99159800D02*
X92083333Y-99207419D01*
X92083333Y-99207419D02*
X92273809Y-99207419D01*
X92273809Y-99207419D02*
X92369047Y-99159800D01*
X92369047Y-99159800D02*
X92416666Y-99112180D01*
X92416666Y-99112180D02*
X92464285Y-99016942D01*
X92464285Y-99016942D02*
X92464285Y-98778847D01*
X92464285Y-98778847D02*
X92416666Y-98683609D01*
X92416666Y-98683609D02*
X92369047Y-98635990D01*
X92369047Y-98635990D02*
X92273809Y-98588371D01*
X92273809Y-98588371D02*
X92083333Y-98588371D01*
X92083333Y-98588371D02*
X91988095Y-98635990D01*
X91988095Y-98635990D02*
X91940476Y-98683609D01*
X91940476Y-98683609D02*
X91892857Y-98778847D01*
X55350476Y-122457419D02*
X55350476Y-123171704D01*
X55350476Y-123171704D02*
X55302857Y-123314561D01*
X55302857Y-123314561D02*
X55207619Y-123409800D01*
X55207619Y-123409800D02*
X55064762Y-123457419D01*
X55064762Y-123457419D02*
X54969524Y-123457419D01*
X56350476Y-123457419D02*
X55779048Y-123457419D01*
X56064762Y-123457419D02*
X56064762Y-122457419D01*
X56064762Y-122457419D02*
X55969524Y-122600276D01*
X55969524Y-122600276D02*
X55874286Y-122695514D01*
X55874286Y-122695514D02*
X55779048Y-122743133D01*
X56683810Y-122457419D02*
X57302857Y-122457419D01*
X57302857Y-122457419D02*
X56969524Y-122838371D01*
X56969524Y-122838371D02*
X57112381Y-122838371D01*
X57112381Y-122838371D02*
X57207619Y-122885990D01*
X57207619Y-122885990D02*
X57255238Y-122933609D01*
X57255238Y-122933609D02*
X57302857Y-123028847D01*
X57302857Y-123028847D02*
X57302857Y-123266942D01*
X57302857Y-123266942D02*
X57255238Y-123362180D01*
X57255238Y-123362180D02*
X57207619Y-123409800D01*
X57207619Y-123409800D02*
X57112381Y-123457419D01*
X57112381Y-123457419D02*
X56826667Y-123457419D01*
X56826667Y-123457419D02*
X56731429Y-123409800D01*
X56731429Y-123409800D02*
X56683810Y-123362180D01*
D13*
X41454819Y-80336666D02*
X40978628Y-80669999D01*
X41454819Y-80908094D02*
X40454819Y-80908094D01*
X40454819Y-80908094D02*
X40454819Y-80527142D01*
X40454819Y-80527142D02*
X40502438Y-80431904D01*
X40502438Y-80431904D02*
X40550057Y-80384285D01*
X40550057Y-80384285D02*
X40645295Y-80336666D01*
X40645295Y-80336666D02*
X40788152Y-80336666D01*
X40788152Y-80336666D02*
X40883390Y-80384285D01*
X40883390Y-80384285D02*
X40931009Y-80431904D01*
X40931009Y-80431904D02*
X40978628Y-80527142D01*
X40978628Y-80527142D02*
X40978628Y-80908094D01*
X40454819Y-80003332D02*
X40454819Y-79384285D01*
X40454819Y-79384285D02*
X40835771Y-79717618D01*
X40835771Y-79717618D02*
X40835771Y-79574761D01*
X40835771Y-79574761D02*
X40883390Y-79479523D01*
X40883390Y-79479523D02*
X40931009Y-79431904D01*
X40931009Y-79431904D02*
X41026247Y-79384285D01*
X41026247Y-79384285D02*
X41264342Y-79384285D01*
X41264342Y-79384285D02*
X41359580Y-79431904D01*
X41359580Y-79431904D02*
X41407200Y-79479523D01*
X41407200Y-79479523D02*
X41454819Y-79574761D01*
X41454819Y-79574761D02*
X41454819Y-79860475D01*
X41454819Y-79860475D02*
X41407200Y-79955713D01*
X41407200Y-79955713D02*
X41359580Y-80003332D01*
X98704819Y-80836666D02*
X98228628Y-81169999D01*
X98704819Y-81408094D02*
X97704819Y-81408094D01*
X97704819Y-81408094D02*
X97704819Y-81027142D01*
X97704819Y-81027142D02*
X97752438Y-80931904D01*
X97752438Y-80931904D02*
X97800057Y-80884285D01*
X97800057Y-80884285D02*
X97895295Y-80836666D01*
X97895295Y-80836666D02*
X98038152Y-80836666D01*
X98038152Y-80836666D02*
X98133390Y-80884285D01*
X98133390Y-80884285D02*
X98181009Y-80931904D01*
X98181009Y-80931904D02*
X98228628Y-81027142D01*
X98228628Y-81027142D02*
X98228628Y-81408094D01*
X97704819Y-79931904D02*
X97704819Y-80408094D01*
X97704819Y-80408094D02*
X98181009Y-80455713D01*
X98181009Y-80455713D02*
X98133390Y-80408094D01*
X98133390Y-80408094D02*
X98085771Y-80312856D01*
X98085771Y-80312856D02*
X98085771Y-80074761D01*
X98085771Y-80074761D02*
X98133390Y-79979523D01*
X98133390Y-79979523D02*
X98181009Y-79931904D01*
X98181009Y-79931904D02*
X98276247Y-79884285D01*
X98276247Y-79884285D02*
X98514342Y-79884285D01*
X98514342Y-79884285D02*
X98609580Y-79931904D01*
X98609580Y-79931904D02*
X98657200Y-79979523D01*
X98657200Y-79979523D02*
X98704819Y-80074761D01*
X98704819Y-80074761D02*
X98704819Y-80312856D01*
X98704819Y-80312856D02*
X98657200Y-80408094D01*
X98657200Y-80408094D02*
X98609580Y-80455713D01*
X57854819Y-19579523D02*
X58569104Y-19579523D01*
X58569104Y-19579523D02*
X58711961Y-19627142D01*
X58711961Y-19627142D02*
X58807200Y-19722380D01*
X58807200Y-19722380D02*
X58854819Y-19865237D01*
X58854819Y-19865237D02*
X58854819Y-19960475D01*
X58854819Y-18579523D02*
X58854819Y-19150951D01*
X58854819Y-18865237D02*
X57854819Y-18865237D01*
X57854819Y-18865237D02*
X57997676Y-18960475D01*
X57997676Y-18960475D02*
X58092914Y-19055713D01*
X58092914Y-19055713D02*
X58140533Y-19150951D01*
X58283390Y-18008094D02*
X58235771Y-18103332D01*
X58235771Y-18103332D02*
X58188152Y-18150951D01*
X58188152Y-18150951D02*
X58092914Y-18198570D01*
X58092914Y-18198570D02*
X58045295Y-18198570D01*
X58045295Y-18198570D02*
X57950057Y-18150951D01*
X57950057Y-18150951D02*
X57902438Y-18103332D01*
X57902438Y-18103332D02*
X57854819Y-18008094D01*
X57854819Y-18008094D02*
X57854819Y-17817618D01*
X57854819Y-17817618D02*
X57902438Y-17722380D01*
X57902438Y-17722380D02*
X57950057Y-17674761D01*
X57950057Y-17674761D02*
X58045295Y-17627142D01*
X58045295Y-17627142D02*
X58092914Y-17627142D01*
X58092914Y-17627142D02*
X58188152Y-17674761D01*
X58188152Y-17674761D02*
X58235771Y-17722380D01*
X58235771Y-17722380D02*
X58283390Y-17817618D01*
X58283390Y-17817618D02*
X58283390Y-18008094D01*
X58283390Y-18008094D02*
X58331009Y-18103332D01*
X58331009Y-18103332D02*
X58378628Y-18150951D01*
X58378628Y-18150951D02*
X58473866Y-18198570D01*
X58473866Y-18198570D02*
X58664342Y-18198570D01*
X58664342Y-18198570D02*
X58759580Y-18150951D01*
X58759580Y-18150951D02*
X58807200Y-18103332D01*
X58807200Y-18103332D02*
X58854819Y-18008094D01*
X58854819Y-18008094D02*
X58854819Y-17817618D01*
X58854819Y-17817618D02*
X58807200Y-17722380D01*
X58807200Y-17722380D02*
X58759580Y-17674761D01*
X58759580Y-17674761D02*
X58664342Y-17627142D01*
X58664342Y-17627142D02*
X58473866Y-17627142D01*
X58473866Y-17627142D02*
X58378628Y-17674761D01*
X58378628Y-17674761D02*
X58331009Y-17722380D01*
X58331009Y-17722380D02*
X58283390Y-17817618D01*
D10*
X77770476Y-89957419D02*
X77770476Y-90671704D01*
X77770476Y-90671704D02*
X77722857Y-90814561D01*
X77722857Y-90814561D02*
X77627619Y-90909800D01*
X77627619Y-90909800D02*
X77484762Y-90957419D01*
X77484762Y-90957419D02*
X77389524Y-90957419D01*
X78770476Y-90957419D02*
X78199048Y-90957419D01*
X78484762Y-90957419D02*
X78484762Y-89957419D01*
X78484762Y-89957419D02*
X78389524Y-90100276D01*
X78389524Y-90100276D02*
X78294286Y-90195514D01*
X78294286Y-90195514D02*
X78199048Y-90243133D01*
X79151429Y-90052657D02*
X79199048Y-90005038D01*
X79199048Y-90005038D02*
X79294286Y-89957419D01*
X79294286Y-89957419D02*
X79532381Y-89957419D01*
X79532381Y-89957419D02*
X79627619Y-90005038D01*
X79627619Y-90005038D02*
X79675238Y-90052657D01*
X79675238Y-90052657D02*
X79722857Y-90147895D01*
X79722857Y-90147895D02*
X79722857Y-90243133D01*
X79722857Y-90243133D02*
X79675238Y-90385990D01*
X79675238Y-90385990D02*
X79103810Y-90957419D01*
X79103810Y-90957419D02*
X79722857Y-90957419D01*
D13*
X58333333Y-144704819D02*
X58000000Y-144228628D01*
X57761905Y-144704819D02*
X57761905Y-143704819D01*
X57761905Y-143704819D02*
X58142857Y-143704819D01*
X58142857Y-143704819D02*
X58238095Y-143752438D01*
X58238095Y-143752438D02*
X58285714Y-143800057D01*
X58285714Y-143800057D02*
X58333333Y-143895295D01*
X58333333Y-143895295D02*
X58333333Y-144038152D01*
X58333333Y-144038152D02*
X58285714Y-144133390D01*
X58285714Y-144133390D02*
X58238095Y-144181009D01*
X58238095Y-144181009D02*
X58142857Y-144228628D01*
X58142857Y-144228628D02*
X57761905Y-144228628D01*
X58666667Y-143704819D02*
X59333333Y-143704819D01*
X59333333Y-143704819D02*
X58904762Y-144704819D01*
D10*
X90190476Y-87957419D02*
X90190476Y-88671704D01*
X90190476Y-88671704D02*
X90142857Y-88814561D01*
X90142857Y-88814561D02*
X90047619Y-88909800D01*
X90047619Y-88909800D02*
X89904762Y-88957419D01*
X89904762Y-88957419D02*
X89809524Y-88957419D01*
X91190476Y-88957419D02*
X90619048Y-88957419D01*
X90904762Y-88957419D02*
X90904762Y-87957419D01*
X90904762Y-87957419D02*
X90809524Y-88100276D01*
X90809524Y-88100276D02*
X90714286Y-88195514D01*
X90714286Y-88195514D02*
X90619048Y-88243133D01*
X92142857Y-88957419D02*
X91571429Y-88957419D01*
X91857143Y-88957419D02*
X91857143Y-87957419D01*
X91857143Y-87957419D02*
X91761905Y-88100276D01*
X91761905Y-88100276D02*
X91666667Y-88195514D01*
X91666667Y-88195514D02*
X91571429Y-88243133D01*
X90440476Y-121207419D02*
X90440476Y-121921704D01*
X90440476Y-121921704D02*
X90392857Y-122064561D01*
X90392857Y-122064561D02*
X90297619Y-122159800D01*
X90297619Y-122159800D02*
X90154762Y-122207419D01*
X90154762Y-122207419D02*
X90059524Y-122207419D01*
X91440476Y-122207419D02*
X90869048Y-122207419D01*
X91154762Y-122207419D02*
X91154762Y-121207419D01*
X91154762Y-121207419D02*
X91059524Y-121350276D01*
X91059524Y-121350276D02*
X90964286Y-121445514D01*
X90964286Y-121445514D02*
X90869048Y-121493133D01*
X92297619Y-121207419D02*
X92107143Y-121207419D01*
X92107143Y-121207419D02*
X92011905Y-121255038D01*
X92011905Y-121255038D02*
X91964286Y-121302657D01*
X91964286Y-121302657D02*
X91869048Y-121445514D01*
X91869048Y-121445514D02*
X91821429Y-121635990D01*
X91821429Y-121635990D02*
X91821429Y-122016942D01*
X91821429Y-122016942D02*
X91869048Y-122112180D01*
X91869048Y-122112180D02*
X91916667Y-122159800D01*
X91916667Y-122159800D02*
X92011905Y-122207419D01*
X92011905Y-122207419D02*
X92202381Y-122207419D01*
X92202381Y-122207419D02*
X92297619Y-122159800D01*
X92297619Y-122159800D02*
X92345238Y-122112180D01*
X92345238Y-122112180D02*
X92392857Y-122016942D01*
X92392857Y-122016942D02*
X92392857Y-121778847D01*
X92392857Y-121778847D02*
X92345238Y-121683609D01*
X92345238Y-121683609D02*
X92297619Y-121635990D01*
X92297619Y-121635990D02*
X92202381Y-121588371D01*
X92202381Y-121588371D02*
X92011905Y-121588371D01*
X92011905Y-121588371D02*
X91916667Y-121635990D01*
X91916667Y-121635990D02*
X91869048Y-121683609D01*
X91869048Y-121683609D02*
X91821429Y-121778847D01*
X96166666Y-28957419D02*
X96166666Y-29671704D01*
X96166666Y-29671704D02*
X96119047Y-29814561D01*
X96119047Y-29814561D02*
X96023809Y-29909800D01*
X96023809Y-29909800D02*
X95880952Y-29957419D01*
X95880952Y-29957419D02*
X95785714Y-29957419D01*
X96547619Y-28957419D02*
X97214285Y-28957419D01*
X97214285Y-28957419D02*
X96785714Y-29957419D01*
X77850476Y-122457419D02*
X77850476Y-123171704D01*
X77850476Y-123171704D02*
X77802857Y-123314561D01*
X77802857Y-123314561D02*
X77707619Y-123409800D01*
X77707619Y-123409800D02*
X77564762Y-123457419D01*
X77564762Y-123457419D02*
X77469524Y-123457419D01*
X78850476Y-123457419D02*
X78279048Y-123457419D01*
X78564762Y-123457419D02*
X78564762Y-122457419D01*
X78564762Y-122457419D02*
X78469524Y-122600276D01*
X78469524Y-122600276D02*
X78374286Y-122695514D01*
X78374286Y-122695514D02*
X78279048Y-122743133D01*
X79755238Y-122457419D02*
X79279048Y-122457419D01*
X79279048Y-122457419D02*
X79231429Y-122933609D01*
X79231429Y-122933609D02*
X79279048Y-122885990D01*
X79279048Y-122885990D02*
X79374286Y-122838371D01*
X79374286Y-122838371D02*
X79612381Y-122838371D01*
X79612381Y-122838371D02*
X79707619Y-122885990D01*
X79707619Y-122885990D02*
X79755238Y-122933609D01*
X79755238Y-122933609D02*
X79802857Y-123028847D01*
X79802857Y-123028847D02*
X79802857Y-123266942D01*
X79802857Y-123266942D02*
X79755238Y-123362180D01*
X79755238Y-123362180D02*
X79707619Y-123409800D01*
X79707619Y-123409800D02*
X79612381Y-123457419D01*
X79612381Y-123457419D02*
X79374286Y-123457419D01*
X79374286Y-123457419D02*
X79279048Y-123409800D01*
X79279048Y-123409800D02*
X79231429Y-123362180D01*
X42904761Y-42457419D02*
X42571428Y-41981228D01*
X42333333Y-42457419D02*
X42333333Y-41457419D01*
X42333333Y-41457419D02*
X42714285Y-41457419D01*
X42714285Y-41457419D02*
X42809523Y-41505038D01*
X42809523Y-41505038D02*
X42857142Y-41552657D01*
X42857142Y-41552657D02*
X42904761Y-41647895D01*
X42904761Y-41647895D02*
X42904761Y-41790752D01*
X42904761Y-41790752D02*
X42857142Y-41885990D01*
X42857142Y-41885990D02*
X42809523Y-41933609D01*
X42809523Y-41933609D02*
X42714285Y-41981228D01*
X42714285Y-41981228D02*
X42333333Y-41981228D01*
X43190476Y-41457419D02*
X43523809Y-42457419D01*
X43523809Y-42457419D02*
X43857142Y-41457419D01*
X44714285Y-42457419D02*
X44142857Y-42457419D01*
X44428571Y-42457419D02*
X44428571Y-41457419D01*
X44428571Y-41457419D02*
X44333333Y-41600276D01*
X44333333Y-41600276D02*
X44238095Y-41695514D01*
X44238095Y-41695514D02*
X44142857Y-41743133D01*
X90404761Y-70207419D02*
X90071428Y-69731228D01*
X89833333Y-70207419D02*
X89833333Y-69207419D01*
X89833333Y-69207419D02*
X90214285Y-69207419D01*
X90214285Y-69207419D02*
X90309523Y-69255038D01*
X90309523Y-69255038D02*
X90357142Y-69302657D01*
X90357142Y-69302657D02*
X90404761Y-69397895D01*
X90404761Y-69397895D02*
X90404761Y-69540752D01*
X90404761Y-69540752D02*
X90357142Y-69635990D01*
X90357142Y-69635990D02*
X90309523Y-69683609D01*
X90309523Y-69683609D02*
X90214285Y-69731228D01*
X90214285Y-69731228D02*
X89833333Y-69731228D01*
X90690476Y-69207419D02*
X91023809Y-70207419D01*
X91023809Y-70207419D02*
X91357142Y-69207419D01*
X92166666Y-69207419D02*
X91690476Y-69207419D01*
X91690476Y-69207419D02*
X91642857Y-69683609D01*
X91642857Y-69683609D02*
X91690476Y-69635990D01*
X91690476Y-69635990D02*
X91785714Y-69588371D01*
X91785714Y-69588371D02*
X92023809Y-69588371D01*
X92023809Y-69588371D02*
X92119047Y-69635990D01*
X92119047Y-69635990D02*
X92166666Y-69683609D01*
X92166666Y-69683609D02*
X92214285Y-69778847D01*
X92214285Y-69778847D02*
X92214285Y-70016942D01*
X92214285Y-70016942D02*
X92166666Y-70112180D01*
X92166666Y-70112180D02*
X92119047Y-70159800D01*
X92119047Y-70159800D02*
X92023809Y-70207419D01*
X92023809Y-70207419D02*
X91785714Y-70207419D01*
X91785714Y-70207419D02*
X91690476Y-70159800D01*
X91690476Y-70159800D02*
X91642857Y-70112180D01*
D13*
X32204819Y-80006666D02*
X31728628Y-80339999D01*
X32204819Y-80578094D02*
X31204819Y-80578094D01*
X31204819Y-80578094D02*
X31204819Y-80197142D01*
X31204819Y-80197142D02*
X31252438Y-80101904D01*
X31252438Y-80101904D02*
X31300057Y-80054285D01*
X31300057Y-80054285D02*
X31395295Y-80006666D01*
X31395295Y-80006666D02*
X31538152Y-80006666D01*
X31538152Y-80006666D02*
X31633390Y-80054285D01*
X31633390Y-80054285D02*
X31681009Y-80101904D01*
X31681009Y-80101904D02*
X31728628Y-80197142D01*
X31728628Y-80197142D02*
X31728628Y-80578094D01*
X32204819Y-79054285D02*
X32204819Y-79625713D01*
X32204819Y-79339999D02*
X31204819Y-79339999D01*
X31204819Y-79339999D02*
X31347676Y-79435237D01*
X31347676Y-79435237D02*
X31442914Y-79530475D01*
X31442914Y-79530475D02*
X31490533Y-79625713D01*
D10*
X42654761Y-70207419D02*
X42321428Y-69731228D01*
X42083333Y-70207419D02*
X42083333Y-69207419D01*
X42083333Y-69207419D02*
X42464285Y-69207419D01*
X42464285Y-69207419D02*
X42559523Y-69255038D01*
X42559523Y-69255038D02*
X42607142Y-69302657D01*
X42607142Y-69302657D02*
X42654761Y-69397895D01*
X42654761Y-69397895D02*
X42654761Y-69540752D01*
X42654761Y-69540752D02*
X42607142Y-69635990D01*
X42607142Y-69635990D02*
X42559523Y-69683609D01*
X42559523Y-69683609D02*
X42464285Y-69731228D01*
X42464285Y-69731228D02*
X42083333Y-69731228D01*
X42940476Y-69207419D02*
X43273809Y-70207419D01*
X43273809Y-70207419D02*
X43607142Y-69207419D01*
X43892857Y-69302657D02*
X43940476Y-69255038D01*
X43940476Y-69255038D02*
X44035714Y-69207419D01*
X44035714Y-69207419D02*
X44273809Y-69207419D01*
X44273809Y-69207419D02*
X44369047Y-69255038D01*
X44369047Y-69255038D02*
X44416666Y-69302657D01*
X44416666Y-69302657D02*
X44464285Y-69397895D01*
X44464285Y-69397895D02*
X44464285Y-69493133D01*
X44464285Y-69493133D02*
X44416666Y-69635990D01*
X44416666Y-69635990D02*
X43845238Y-70207419D01*
X43845238Y-70207419D02*
X44464285Y-70207419D01*
D13*
X76083333Y-144704819D02*
X75750000Y-144228628D01*
X75511905Y-144704819D02*
X75511905Y-143704819D01*
X75511905Y-143704819D02*
X75892857Y-143704819D01*
X75892857Y-143704819D02*
X75988095Y-143752438D01*
X75988095Y-143752438D02*
X76035714Y-143800057D01*
X76035714Y-143800057D02*
X76083333Y-143895295D01*
X76083333Y-143895295D02*
X76083333Y-144038152D01*
X76083333Y-144038152D02*
X76035714Y-144133390D01*
X76035714Y-144133390D02*
X75988095Y-144181009D01*
X75988095Y-144181009D02*
X75892857Y-144228628D01*
X75892857Y-144228628D02*
X75511905Y-144228628D01*
X76654762Y-144133390D02*
X76559524Y-144085771D01*
X76559524Y-144085771D02*
X76511905Y-144038152D01*
X76511905Y-144038152D02*
X76464286Y-143942914D01*
X76464286Y-143942914D02*
X76464286Y-143895295D01*
X76464286Y-143895295D02*
X76511905Y-143800057D01*
X76511905Y-143800057D02*
X76559524Y-143752438D01*
X76559524Y-143752438D02*
X76654762Y-143704819D01*
X76654762Y-143704819D02*
X76845238Y-143704819D01*
X76845238Y-143704819D02*
X76940476Y-143752438D01*
X76940476Y-143752438D02*
X76988095Y-143800057D01*
X76988095Y-143800057D02*
X77035714Y-143895295D01*
X77035714Y-143895295D02*
X77035714Y-143942914D01*
X77035714Y-143942914D02*
X76988095Y-144038152D01*
X76988095Y-144038152D02*
X76940476Y-144085771D01*
X76940476Y-144085771D02*
X76845238Y-144133390D01*
X76845238Y-144133390D02*
X76654762Y-144133390D01*
X76654762Y-144133390D02*
X76559524Y-144181009D01*
X76559524Y-144181009D02*
X76511905Y-144228628D01*
X76511905Y-144228628D02*
X76464286Y-144323866D01*
X76464286Y-144323866D02*
X76464286Y-144514342D01*
X76464286Y-144514342D02*
X76511905Y-144609580D01*
X76511905Y-144609580D02*
X76559524Y-144657200D01*
X76559524Y-144657200D02*
X76654762Y-144704819D01*
X76654762Y-144704819D02*
X76845238Y-144704819D01*
X76845238Y-144704819D02*
X76940476Y-144657200D01*
X76940476Y-144657200D02*
X76988095Y-144609580D01*
X76988095Y-144609580D02*
X77035714Y-144514342D01*
X77035714Y-144514342D02*
X77035714Y-144323866D01*
X77035714Y-144323866D02*
X76988095Y-144228628D01*
X76988095Y-144228628D02*
X76940476Y-144181009D01*
X76940476Y-144181009D02*
X76845238Y-144133390D01*
D10*
X90654761Y-132957419D02*
X90321428Y-132481228D01*
X90083333Y-132957419D02*
X90083333Y-131957419D01*
X90083333Y-131957419D02*
X90464285Y-131957419D01*
X90464285Y-131957419D02*
X90559523Y-132005038D01*
X90559523Y-132005038D02*
X90607142Y-132052657D01*
X90607142Y-132052657D02*
X90654761Y-132147895D01*
X90654761Y-132147895D02*
X90654761Y-132290752D01*
X90654761Y-132290752D02*
X90607142Y-132385990D01*
X90607142Y-132385990D02*
X90559523Y-132433609D01*
X90559523Y-132433609D02*
X90464285Y-132481228D01*
X90464285Y-132481228D02*
X90083333Y-132481228D01*
X90940476Y-131957419D02*
X91273809Y-132957419D01*
X91273809Y-132957419D02*
X91607142Y-131957419D01*
X92083333Y-132385990D02*
X91988095Y-132338371D01*
X91988095Y-132338371D02*
X91940476Y-132290752D01*
X91940476Y-132290752D02*
X91892857Y-132195514D01*
X91892857Y-132195514D02*
X91892857Y-132147895D01*
X91892857Y-132147895D02*
X91940476Y-132052657D01*
X91940476Y-132052657D02*
X91988095Y-132005038D01*
X91988095Y-132005038D02*
X92083333Y-131957419D01*
X92083333Y-131957419D02*
X92273809Y-131957419D01*
X92273809Y-131957419D02*
X92369047Y-132005038D01*
X92369047Y-132005038D02*
X92416666Y-132052657D01*
X92416666Y-132052657D02*
X92464285Y-132147895D01*
X92464285Y-132147895D02*
X92464285Y-132195514D01*
X92464285Y-132195514D02*
X92416666Y-132290752D01*
X92416666Y-132290752D02*
X92369047Y-132338371D01*
X92369047Y-132338371D02*
X92273809Y-132385990D01*
X92273809Y-132385990D02*
X92083333Y-132385990D01*
X92083333Y-132385990D02*
X91988095Y-132433609D01*
X91988095Y-132433609D02*
X91940476Y-132481228D01*
X91940476Y-132481228D02*
X91892857Y-132576466D01*
X91892857Y-132576466D02*
X91892857Y-132766942D01*
X91892857Y-132766942D02*
X91940476Y-132862180D01*
X91940476Y-132862180D02*
X91988095Y-132909800D01*
X91988095Y-132909800D02*
X92083333Y-132957419D01*
X92083333Y-132957419D02*
X92273809Y-132957419D01*
X92273809Y-132957419D02*
X92369047Y-132909800D01*
X92369047Y-132909800D02*
X92416666Y-132862180D01*
X92416666Y-132862180D02*
X92464285Y-132766942D01*
X92464285Y-132766942D02*
X92464285Y-132576466D01*
X92464285Y-132576466D02*
X92416666Y-132481228D01*
X92416666Y-132481228D02*
X92369047Y-132433609D01*
X92369047Y-132433609D02*
X92273809Y-132385990D01*
D13*
X103204819Y-80836666D02*
X102728628Y-81169999D01*
X103204819Y-81408094D02*
X102204819Y-81408094D01*
X102204819Y-81408094D02*
X102204819Y-81027142D01*
X102204819Y-81027142D02*
X102252438Y-80931904D01*
X102252438Y-80931904D02*
X102300057Y-80884285D01*
X102300057Y-80884285D02*
X102395295Y-80836666D01*
X102395295Y-80836666D02*
X102538152Y-80836666D01*
X102538152Y-80836666D02*
X102633390Y-80884285D01*
X102633390Y-80884285D02*
X102681009Y-80931904D01*
X102681009Y-80931904D02*
X102728628Y-81027142D01*
X102728628Y-81027142D02*
X102728628Y-81408094D01*
X102538152Y-79979523D02*
X103204819Y-79979523D01*
X102157200Y-80217618D02*
X102871485Y-80455713D01*
X102871485Y-80455713D02*
X102871485Y-79836666D01*
%TO.C,R11*%
D14*
X93150000Y-112630000D02*
X99690000Y-112630000D01*
X99690000Y-115370000D01*
X93150000Y-115370000D01*
X93150000Y-112630000D01*
X100460000Y-114000000D02*
X99690000Y-114000000D01*
X92380000Y-114000000D02*
X93150000Y-114000000D01*
%TO.C,R12*%
X93150000Y-117130000D02*
X99690000Y-117130000D01*
X99690000Y-119870000D01*
X93150000Y-119870000D01*
X93150000Y-117130000D01*
X100460000Y-118500000D02*
X99690000Y-118500000D01*
X92380000Y-118500000D02*
X93150000Y-118500000D01*
%TO.C,U1*%
X39310000Y-102420000D02*
G75*
G02*
X37310000Y-102420000I-1000000J0D01*
G01*
X33170000Y-102360000D02*
X43450000Y-102360000D01*
X43450000Y-120380000D01*
X33170000Y-120380000D01*
X33170000Y-102360000D01*
X40960000Y-120320000D02*
X40960000Y-102420000D01*
X40960000Y-102420000D02*
X39310000Y-102420000D01*
X37310000Y-102420000D02*
X35660000Y-102420000D01*
X35660000Y-120320000D02*
X40960000Y-120320000D01*
X35660000Y-102420000D02*
X35660000Y-120320000D01*
%TO.C,R10*%
X92380000Y-109500000D02*
X93150000Y-109500000D01*
X100460000Y-109500000D02*
X99690000Y-109500000D01*
X93150000Y-108130000D02*
X99690000Y-108130000D01*
X99690000Y-110870000D01*
X93150000Y-110870000D01*
X93150000Y-108130000D01*
%TO.C,R9*%
X92380000Y-105000000D02*
X93150000Y-105000000D01*
X100460000Y-105000000D02*
X99690000Y-105000000D01*
X93150000Y-103630000D02*
X99690000Y-103630000D01*
X99690000Y-106370000D01*
X93150000Y-106370000D01*
X93150000Y-103630000D01*
%TO.C,J19*%
X78290000Y-14210000D02*
X93790000Y-14210000D01*
X78290000Y-23330000D02*
X78290000Y-14210000D01*
X79590000Y-15520000D02*
X92490000Y-15520000D01*
X79590000Y-22020000D02*
X79590000Y-15520000D01*
X83000000Y-24720000D02*
X84000000Y-24720000D01*
X83500000Y-23720000D02*
X83000000Y-24720000D01*
X83990000Y-22020000D02*
X79590000Y-22020000D01*
X83990000Y-23330000D02*
X83990000Y-22020000D01*
X84000000Y-24720000D02*
X83500000Y-23720000D01*
X88090000Y-22020000D02*
X88090000Y-23330000D01*
X92490000Y-15520000D02*
X92490000Y-22020000D01*
X92490000Y-22020000D02*
X88090000Y-22020000D01*
X93790000Y-14210000D02*
X93790000Y-23330000D01*
X93790000Y-23330000D02*
X78290000Y-23330000D01*
%TO.C,R6*%
X91250000Y-84380000D02*
X91250000Y-83610000D01*
X91250000Y-76300000D02*
X91250000Y-77070000D01*
X92620000Y-77070000D02*
X89880000Y-77070000D01*
X89880000Y-83610000D01*
X92620000Y-83610000D01*
X92620000Y-77070000D01*
D15*
%TO.C,G\u002A\u002A\u002A*%
G36*
X97330805Y-136966464D02*
G01*
X97491653Y-137140912D01*
X97536929Y-137237207D01*
X97471977Y-137235986D01*
X97302140Y-137117883D01*
X97291480Y-137108974D01*
X97040627Y-136897895D01*
X96262994Y-137066461D01*
X95792184Y-137170589D01*
X95476520Y-137248892D01*
X95305194Y-137309206D01*
X95267398Y-137359371D01*
X95352324Y-137407223D01*
X95549166Y-137460601D01*
X95678738Y-137490153D01*
X95999579Y-137553246D01*
X96211708Y-137567866D01*
X96368417Y-137534818D01*
X96440738Y-137501667D01*
X96793940Y-137393536D01*
X97115617Y-137449096D01*
X97360197Y-137628823D01*
X97540172Y-137792943D01*
X97729010Y-137887969D01*
X97962627Y-137917261D01*
X98276943Y-137884179D01*
X98707875Y-137792084D01*
X98817970Y-137765209D01*
X99263265Y-137657870D01*
X99577420Y-137594100D01*
X99792959Y-137574025D01*
X99942405Y-137597767D01*
X100058285Y-137665451D01*
X100166686Y-137770333D01*
X100301280Y-137946783D01*
X100302933Y-138029046D01*
X100186918Y-138004821D01*
X100012013Y-137894886D01*
X99759049Y-137707862D01*
X98937072Y-137925605D01*
X98590479Y-138019414D01*
X98313003Y-138098298D01*
X98140121Y-138151950D01*
X98100456Y-138168674D01*
X98046103Y-138245604D01*
X97924281Y-138412856D01*
X97843309Y-138523024D01*
X97659216Y-138796643D01*
X97479232Y-139103514D01*
X97327678Y-139397332D01*
X97228875Y-139631793D01*
X97204020Y-139740167D01*
X97258467Y-139805401D01*
X97438847Y-139807349D01*
X97536260Y-139793817D01*
X97828640Y-139787385D01*
X98220483Y-139831701D01*
X98653861Y-139915040D01*
X99070848Y-140025679D01*
X99413517Y-140151894D01*
X99489666Y-140189175D01*
X99708694Y-140293047D01*
X100027512Y-140429253D01*
X100386637Y-140572634D01*
X100484499Y-140609955D01*
X100873052Y-140773184D01*
X101105560Y-140919577D01*
X101191985Y-141065687D01*
X101142292Y-141228066D01*
X100971333Y-141418748D01*
X100797413Y-141684517D01*
X100775958Y-142000765D01*
X100886666Y-142300333D01*
X100987461Y-142499998D01*
X100987691Y-142615499D01*
X100881024Y-142703364D01*
X100838920Y-142726563D01*
X100644921Y-142773280D01*
X100563754Y-142741770D01*
X100403112Y-142659055D01*
X100269901Y-142616055D01*
X100140982Y-142610562D01*
X100038152Y-142692032D01*
X99923966Y-142893845D01*
X99898601Y-142947050D01*
X99764478Y-143188177D01*
X99640919Y-143295768D01*
X99541700Y-143307843D01*
X99316757Y-143317125D01*
X99150999Y-143349486D01*
X99004944Y-143422341D01*
X98941831Y-143568135D01*
X98929173Y-143722366D01*
X98899268Y-143959569D01*
X98830115Y-144289046D01*
X98736204Y-144642490D01*
X98728578Y-144668024D01*
X98538142Y-145300048D01*
X98717570Y-145419184D01*
X98858022Y-145559052D01*
X98889923Y-145690854D01*
X98807403Y-145766870D01*
X98760941Y-145771667D01*
X98667416Y-145815719D01*
X98685880Y-145919833D01*
X98778743Y-146200650D01*
X98770792Y-146345938D01*
X98662511Y-146355175D01*
X98454384Y-146227837D01*
X98422835Y-146203442D01*
X98290148Y-146110885D01*
X98171591Y-146085695D01*
X98003082Y-146126407D01*
X97830199Y-146189871D01*
X97588578Y-146297717D01*
X97416078Y-146404129D01*
X97374683Y-146446275D01*
X97268147Y-146510473D01*
X97139253Y-146424279D01*
X97007105Y-146201479D01*
X96994216Y-146171670D01*
X96886155Y-145914669D01*
X96729366Y-146160668D01*
X96597949Y-146346624D01*
X96491311Y-146464795D01*
X96485955Y-146468870D01*
X96322253Y-146528248D01*
X96146468Y-146520546D01*
X96031222Y-146454509D01*
X96018333Y-146412555D01*
X95946289Y-146307434D01*
X95828697Y-146264388D01*
X95649726Y-146192730D01*
X95611150Y-146078649D01*
X95627350Y-146059764D01*
X95809107Y-146059764D01*
X95811937Y-146118863D01*
X95933763Y-146172444D01*
X96131788Y-146159609D01*
X96299305Y-146136246D01*
X96326020Y-146168689D01*
X96290853Y-146210346D01*
X96200677Y-146336967D01*
X96187666Y-146384245D01*
X96237784Y-146418886D01*
X96359107Y-146358903D01*
X96508086Y-146234194D01*
X96641174Y-146074656D01*
X96643294Y-146071438D01*
X96802152Y-145894309D01*
X96942167Y-145884382D01*
X97070412Y-146042565D01*
X97111226Y-146131500D01*
X97193462Y-146296293D01*
X97245085Y-146307589D01*
X97262142Y-146262937D01*
X97254692Y-146071586D01*
X97214147Y-145960584D01*
X97166902Y-145771667D01*
X97203666Y-145771667D01*
X97277351Y-145830669D01*
X97455370Y-145856300D01*
X97462663Y-145856333D01*
X97639343Y-145880458D01*
X97664774Y-145948376D01*
X97546228Y-146007302D01*
X97454445Y-146000292D01*
X97343749Y-146002946D01*
X97348676Y-146084404D01*
X97397324Y-146154801D01*
X97492705Y-146167776D01*
X97671409Y-146119002D01*
X97946300Y-146013688D01*
X98169461Y-145947801D01*
X98331219Y-145974463D01*
X98390800Y-146007142D01*
X98517830Y-146058353D01*
X98558333Y-146031381D01*
X98496753Y-145915992D01*
X98473666Y-145898667D01*
X98390351Y-145791453D01*
X98452910Y-145706133D01*
X98558333Y-145687000D01*
X98695913Y-145651544D01*
X98727666Y-145602333D01*
X98659089Y-145527219D01*
X98600666Y-145517667D01*
X98504988Y-145444096D01*
X98475776Y-145239788D01*
X98512102Y-144929351D01*
X98613035Y-144537390D01*
X98640917Y-144451309D01*
X98734207Y-144116489D01*
X98791497Y-143796948D01*
X98809511Y-143531802D01*
X98784974Y-143360168D01*
X98735979Y-143316333D01*
X98688077Y-143393227D01*
X98638612Y-143593813D01*
X98601913Y-143845500D01*
X98523800Y-144392682D01*
X98420014Y-144868310D01*
X98298820Y-145243253D01*
X98168484Y-145488384D01*
X98121402Y-145538833D01*
X97883223Y-145650387D01*
X97575286Y-145687000D01*
X97351341Y-145704214D01*
X97218979Y-145747656D01*
X97203666Y-145771667D01*
X97166902Y-145771667D01*
X97151756Y-145711105D01*
X97153514Y-145427757D01*
X97262635Y-145427757D01*
X97264235Y-145434662D01*
X97372271Y-145557763D01*
X97572560Y-145605392D01*
X97805310Y-145576613D01*
X98010727Y-145470489D01*
X98036586Y-145446746D01*
X98140331Y-145277756D01*
X98248111Y-145001747D01*
X98344577Y-144675327D01*
X98414378Y-144355102D01*
X98442166Y-144097680D01*
X98430937Y-143992421D01*
X98429860Y-143839620D01*
X98470222Y-143784128D01*
X98534076Y-143667822D01*
X98558333Y-143483933D01*
X98538376Y-143323685D01*
X98448477Y-143227990D01*
X98243589Y-143154002D01*
X98198499Y-143141684D01*
X97960562Y-143072238D01*
X97792682Y-143013083D01*
X97761844Y-142998191D01*
X97725742Y-143042929D01*
X97725375Y-143219629D01*
X97739853Y-143351236D01*
X97751214Y-143718856D01*
X97665898Y-144000309D01*
X97539740Y-144285729D01*
X97422085Y-144622068D01*
X97327184Y-144958443D01*
X97269284Y-145243967D01*
X97262635Y-145427757D01*
X97153514Y-145427757D01*
X97153966Y-145354844D01*
X97215399Y-144939219D01*
X97330676Y-144511645D01*
X97399614Y-144325690D01*
X97515369Y-143990382D01*
X97592502Y-143663698D01*
X97627623Y-143380260D01*
X97617346Y-143174693D01*
X97558283Y-143081618D01*
X97521166Y-143083329D01*
X97455431Y-143183941D01*
X97395770Y-143418906D01*
X97356157Y-143704217D01*
X97241456Y-144297889D01*
X97031192Y-144868709D01*
X96747746Y-145367177D01*
X96447561Y-145713935D01*
X96222904Y-145889424D01*
X96019766Y-146002493D01*
X95928425Y-146025667D01*
X95809107Y-146059764D01*
X95627350Y-146059764D01*
X95707712Y-145966086D01*
X95871337Y-145908004D01*
X96200450Y-145762378D01*
X96519849Y-145454942D01*
X96822614Y-144993196D01*
X96951288Y-144737704D01*
X97091304Y-144411014D01*
X97174317Y-144126715D01*
X97216040Y-143812029D01*
X97231313Y-143440797D01*
X97233155Y-143073493D01*
X97217057Y-142840126D01*
X97177550Y-142705761D01*
X97109164Y-142635460D01*
X97104830Y-142632968D01*
X96980286Y-142524243D01*
X96803562Y-142324555D01*
X96658088Y-142137478D01*
X96500464Y-141903509D01*
X96396707Y-141683829D01*
X96326924Y-141420422D01*
X96271219Y-141055275D01*
X96262229Y-140983087D01*
X96227422Y-140561584D01*
X99912999Y-140561584D01*
X99949519Y-140650375D01*
X100043492Y-140840115D01*
X100129506Y-141004686D01*
X100258839Y-141288470D01*
X100319270Y-141558892D01*
X100328259Y-141900209D01*
X100326516Y-141955417D01*
X100322590Y-142258260D01*
X100344671Y-142434630D01*
X100402686Y-142526624D01*
X100469842Y-142563300D01*
X100708161Y-142628357D01*
X100831068Y-142596210D01*
X100844333Y-142551354D01*
X100801416Y-142421807D01*
X100709850Y-142258462D01*
X100619948Y-141974652D01*
X100678491Y-141648628D01*
X100879892Y-141308521D01*
X100904374Y-141278729D01*
X101029389Y-141106844D01*
X101077303Y-140991786D01*
X101072190Y-140975968D01*
X100974719Y-140923989D01*
X100776945Y-140842441D01*
X100526139Y-140748223D01*
X100269575Y-140658235D01*
X100054524Y-140589373D01*
X99928258Y-140558538D01*
X99912999Y-140561584D01*
X96227422Y-140561584D01*
X96212824Y-140384814D01*
X96231241Y-139905131D01*
X96321448Y-139505797D01*
X96444723Y-139224516D01*
X96532178Y-139018579D01*
X96751215Y-139018579D01*
X96833593Y-139074032D01*
X96998743Y-139083000D01*
X97206644Y-139058046D01*
X97330789Y-138997498D01*
X97334147Y-138992700D01*
X97363537Y-138900370D01*
X97291649Y-138831585D01*
X97087830Y-138759782D01*
X97054117Y-138750007D01*
X96872615Y-138713581D01*
X96790302Y-138764993D01*
X96758026Y-138879620D01*
X96751215Y-139018579D01*
X96532178Y-139018579D01*
X96575912Y-138915595D01*
X96602654Y-138686299D01*
X96522833Y-138560153D01*
X96505166Y-138552778D01*
X96354670Y-138554921D01*
X96099284Y-138606739D01*
X95790524Y-138693015D01*
X95479906Y-138798534D01*
X95218948Y-138908083D01*
X95119064Y-138962155D01*
X94789685Y-139202239D01*
X94482197Y-139487441D01*
X94249690Y-139766183D01*
X94188601Y-139866166D01*
X94054141Y-140029624D01*
X93901098Y-140098526D01*
X93777841Y-140065253D01*
X93735634Y-139947286D01*
X93870222Y-139947286D01*
X93942084Y-139940304D01*
X94053337Y-139817616D01*
X94072573Y-139788534D01*
X94244734Y-139545816D01*
X94423062Y-139327740D01*
X94682916Y-139107642D01*
X95053334Y-138881232D01*
X95479151Y-138676960D01*
X95905202Y-138523274D01*
X96061595Y-138482724D01*
X96313912Y-138423641D01*
X96482693Y-138379105D01*
X96526332Y-138362494D01*
X96500575Y-138268877D01*
X96440989Y-138100557D01*
X96374104Y-137927979D01*
X96326447Y-137821583D01*
X96319391Y-137813000D01*
X96210589Y-137853842D01*
X95996335Y-137962254D01*
X95715396Y-138117063D01*
X95406539Y-138297097D01*
X95187262Y-138431316D01*
X94928132Y-138621659D01*
X94650999Y-138870188D01*
X94381279Y-139147651D01*
X94144388Y-139424791D01*
X93965741Y-139672355D01*
X93870755Y-139861088D01*
X93870222Y-139947286D01*
X93735634Y-139947286D01*
X93732332Y-139938056D01*
X93787315Y-139773791D01*
X93931944Y-139529813D01*
X94135745Y-139245759D01*
X94368240Y-138961264D01*
X94598954Y-138715965D01*
X94797411Y-138549497D01*
X94802613Y-138546093D01*
X94981816Y-138416765D01*
X95079795Y-138320198D01*
X95085951Y-138304313D01*
X95049752Y-138201977D01*
X94955747Y-138003050D01*
X94875332Y-137847203D01*
X94755608Y-137605185D01*
X94749799Y-137590993D01*
X96592752Y-137590993D01*
X96610482Y-137665568D01*
X96777697Y-137733505D01*
X96864999Y-137751967D01*
X97116941Y-137792224D01*
X97243860Y-137794036D01*
X97286093Y-137755433D01*
X97288333Y-137731312D01*
X97214599Y-137615556D01*
X97036443Y-137534536D01*
X96818435Y-137512221D01*
X96733538Y-137525352D01*
X96592752Y-137590993D01*
X94749799Y-137590993D01*
X94678876Y-137417713D01*
X94663666Y-137353676D01*
X94743050Y-137302204D01*
X94964926Y-137228950D01*
X95304878Y-137140687D01*
X95738489Y-137044191D01*
X95891472Y-137012992D01*
X97119278Y-136767745D01*
X97330805Y-136966464D01*
G37*
D10*
%TO.C,J3*%
X44000000Y-64500000D02*
G75*
G02*
X32000000Y-64500000I-6000000J0D01*
G01*
X32000000Y-64500000D02*
G75*
G02*
X44000000Y-64500000I6000000J0D01*
G01*
%TO.C,J1*%
X44000000Y-36500000D02*
G75*
G02*
X32000000Y-36500000I-6000000J0D01*
G01*
X32000000Y-36500000D02*
G75*
G02*
X44000000Y-36500000I6000000J0D01*
G01*
D14*
%TO.C,R2*%
X38500000Y-76130000D02*
X38500000Y-76900000D01*
X38500000Y-84210000D02*
X38500000Y-83440000D01*
X39870000Y-76900000D02*
X37130000Y-76900000D01*
X37130000Y-83440000D01*
X39870000Y-83440000D01*
X39870000Y-76900000D01*
%TO.C,J17*%
X40710000Y-14210000D02*
X56210000Y-14210000D01*
X40710000Y-23330000D02*
X40710000Y-14210000D01*
X42010000Y-15520000D02*
X54910000Y-15520000D01*
X42010000Y-22020000D02*
X42010000Y-15520000D01*
X45420000Y-24720000D02*
X46420000Y-24720000D01*
X45920000Y-23720000D02*
X45420000Y-24720000D01*
X46410000Y-22020000D02*
X42010000Y-22020000D01*
X46410000Y-23330000D02*
X46410000Y-22020000D01*
X46420000Y-24720000D02*
X45920000Y-23720000D01*
X50510000Y-22020000D02*
X50510000Y-23330000D01*
X54910000Y-15520000D02*
X54910000Y-22020000D01*
X54910000Y-22020000D02*
X50510000Y-22020000D01*
X56210000Y-14210000D02*
X56210000Y-23330000D01*
X56210000Y-23330000D02*
X40710000Y-23330000D01*
D10*
%TO.C,J14*%
X44080000Y-126975062D02*
G75*
G02*
X32080000Y-126975062I-6000000J0D01*
G01*
X32080000Y-126975062D02*
G75*
G02*
X44080000Y-126975062I6000000J0D01*
G01*
%TO.C,J9*%
X102500000Y-64500000D02*
G75*
G02*
X90500000Y-64500000I-6000000J0D01*
G01*
X90500000Y-64500000D02*
G75*
G02*
X102500000Y-64500000I6000000J0D01*
G01*
D14*
%TO.C,RV4*%
X74620000Y-48380000D02*
X74620000Y-47000000D01*
X76000000Y-48380000D02*
X74620000Y-48380000D01*
X77270000Y-45620000D02*
X82460000Y-45620000D01*
X77270000Y-48380000D02*
X77270000Y-45620000D01*
X77270000Y-48380000D02*
X82460000Y-48380000D01*
X82460000Y-48380000D02*
X82460000Y-45620000D01*
D10*
X67540000Y-25000000D02*
X89540000Y-25000000D01*
X89540000Y-49000000D01*
X67540000Y-49000000D01*
X67540000Y-25000000D01*
D14*
%TO.C,C2*%
X53480000Y-110430000D02*
X58020000Y-110430000D01*
X53480000Y-110486000D02*
X53480000Y-110430000D01*
X58020000Y-112514000D02*
X58020000Y-112570000D01*
X58020000Y-112570000D02*
X53480000Y-112570000D01*
%TO.C,C1*%
X46230000Y-110430000D02*
X50770000Y-110430000D01*
X46230000Y-110486000D02*
X46230000Y-110430000D01*
X50770000Y-112514000D02*
X50770000Y-112570000D01*
X50770000Y-112570000D02*
X46230000Y-112570000D01*
D10*
%TO.C,J5*%
X44000000Y-93500000D02*
G75*
G02*
X32000000Y-93500000I-6000000J0D01*
G01*
X32000000Y-93500000D02*
G75*
G02*
X44000000Y-93500000I6000000J0D01*
G01*
D14*
%TO.C,RV3*%
X52030000Y-105380000D02*
X52030000Y-104000000D01*
X53410000Y-105380000D02*
X52030000Y-105380000D01*
X54680000Y-102620000D02*
X59870000Y-102620000D01*
X54680000Y-105380000D02*
X54680000Y-102620000D01*
X54680000Y-105380000D02*
X59870000Y-105380000D01*
X59870000Y-105380000D02*
X59870000Y-102620000D01*
D10*
X44950000Y-82000000D02*
X66950000Y-82000000D01*
X66950000Y-106000000D01*
X44950000Y-106000000D01*
X44950000Y-82000000D01*
%TO.C,RV7*%
X45030000Y-114500000D02*
X67030000Y-114500000D01*
X67030000Y-138500000D01*
X45030000Y-138500000D01*
X45030000Y-114500000D01*
D14*
X59950000Y-137880000D02*
X59950000Y-135120000D01*
X54760000Y-137880000D02*
X59950000Y-137880000D01*
X54760000Y-137880000D02*
X54760000Y-135120000D01*
X54760000Y-135120000D02*
X59950000Y-135120000D01*
X53490000Y-137880000D02*
X52110000Y-137880000D01*
X52110000Y-137880000D02*
X52110000Y-136500000D01*
%TO.C,RV6*%
X74580000Y-105380000D02*
X74580000Y-104000000D01*
X75960000Y-105380000D02*
X74580000Y-105380000D01*
X77230000Y-102620000D02*
X82420000Y-102620000D01*
X77230000Y-105380000D02*
X77230000Y-102620000D01*
X77230000Y-105380000D02*
X82420000Y-105380000D01*
X82420000Y-105380000D02*
X82420000Y-102620000D01*
D10*
X67500000Y-82000000D02*
X89500000Y-82000000D01*
X89500000Y-106000000D01*
X67500000Y-106000000D01*
X67500000Y-82000000D01*
D14*
%TO.C,R3*%
X43250000Y-76130000D02*
X43250000Y-76900000D01*
X43250000Y-84210000D02*
X43250000Y-83440000D01*
X44620000Y-76900000D02*
X41880000Y-76900000D01*
X41880000Y-83440000D01*
X44620000Y-83440000D01*
X44620000Y-76900000D01*
%TO.C,R5*%
X96000000Y-84380000D02*
X96000000Y-83610000D01*
X96000000Y-76300000D02*
X96000000Y-77070000D01*
X97370000Y-77070000D02*
X94630000Y-77070000D01*
X94630000Y-83610000D01*
X97370000Y-83610000D01*
X97370000Y-77070000D01*
%TO.C,J18*%
X59290000Y-14210000D02*
X74790000Y-14210000D01*
X59290000Y-23330000D02*
X59290000Y-14210000D01*
X60590000Y-15520000D02*
X73490000Y-15520000D01*
X60590000Y-22020000D02*
X60590000Y-15520000D01*
X64000000Y-24720000D02*
X65000000Y-24720000D01*
X64500000Y-23720000D02*
X64000000Y-24720000D01*
X64990000Y-22020000D02*
X60590000Y-22020000D01*
X64990000Y-23330000D02*
X64990000Y-22020000D01*
X65000000Y-24720000D02*
X64500000Y-23720000D01*
X69090000Y-22020000D02*
X69090000Y-23330000D01*
X73490000Y-15520000D02*
X73490000Y-22020000D01*
X73490000Y-22020000D02*
X69090000Y-22020000D01*
X74790000Y-14210000D02*
X74790000Y-23330000D01*
X74790000Y-23330000D02*
X59290000Y-23330000D01*
%TO.C,R7*%
X55290000Y-144250000D02*
X54520000Y-144250000D01*
X47210000Y-144250000D02*
X47980000Y-144250000D01*
X54520000Y-145620000D02*
X47980000Y-145620000D01*
X47980000Y-142880000D01*
X54520000Y-142880000D01*
X54520000Y-145620000D01*
D10*
%TO.C,J11*%
X102500000Y-93500000D02*
G75*
G02*
X90500000Y-93500000I-6000000J0D01*
G01*
X90500000Y-93500000D02*
G75*
G02*
X102500000Y-93500000I6000000J0D01*
G01*
%TO.C,J16*%
X102580000Y-127000000D02*
G75*
G02*
X90580000Y-127000000I-6000000J0D01*
G01*
X90580000Y-127000000D02*
G75*
G02*
X102580000Y-127000000I6000000J0D01*
G01*
%TO.C,J7*%
X102500000Y-36475062D02*
G75*
G02*
X90500000Y-36475062I-6000000J0D01*
G01*
X90500000Y-36475062D02*
G75*
G02*
X102500000Y-36475062I6000000J0D01*
G01*
D14*
%TO.C,RV1*%
X52040000Y-48380000D02*
X52040000Y-47000000D01*
X53420000Y-48380000D02*
X52040000Y-48380000D01*
X54690000Y-45620000D02*
X59880000Y-45620000D01*
X54690000Y-48380000D02*
X54690000Y-45620000D01*
X54690000Y-48380000D02*
X59880000Y-48380000D01*
X59880000Y-48380000D02*
X59880000Y-45620000D01*
D10*
X44960000Y-25000000D02*
X66960000Y-25000000D01*
X66960000Y-49000000D01*
X44960000Y-49000000D01*
X44960000Y-25000000D01*
D14*
%TO.C,RV5*%
X74580000Y-76880000D02*
X74580000Y-75500000D01*
X75960000Y-76880000D02*
X74580000Y-76880000D01*
X77230000Y-74120000D02*
X82420000Y-74120000D01*
X77230000Y-76880000D02*
X77230000Y-74120000D01*
X77230000Y-76880000D02*
X82420000Y-76880000D01*
X82420000Y-76880000D02*
X82420000Y-74120000D01*
D10*
X67500000Y-53500000D02*
X89500000Y-53500000D01*
X89500000Y-77500000D01*
X67500000Y-77500000D01*
X67500000Y-53500000D01*
D14*
%TO.C,R1*%
X34000000Y-76130000D02*
X34000000Y-76900000D01*
X34000000Y-84210000D02*
X34000000Y-83440000D01*
X35370000Y-76900000D02*
X32630000Y-76900000D01*
X32630000Y-83440000D01*
X35370000Y-83440000D01*
X35370000Y-76900000D01*
%TO.C,RV2*%
X52030000Y-76880000D02*
X52030000Y-75500000D01*
X53410000Y-76880000D02*
X52030000Y-76880000D01*
X54680000Y-74120000D02*
X59870000Y-74120000D01*
X54680000Y-76880000D02*
X54680000Y-74120000D01*
X54680000Y-76880000D02*
X59870000Y-76880000D01*
X59870000Y-76880000D02*
X59870000Y-74120000D01*
D10*
X44950000Y-53500000D02*
X66950000Y-53500000D01*
X66950000Y-77500000D01*
X44950000Y-77500000D01*
X44950000Y-53500000D01*
D14*
%TO.C,R8*%
X79540000Y-144250000D02*
X80310000Y-144250000D01*
X87620000Y-144250000D02*
X86850000Y-144250000D01*
X80310000Y-142880000D02*
X86850000Y-142880000D01*
X86850000Y-145620000D01*
X80310000Y-145620000D01*
X80310000Y-142880000D01*
%TO.C,RV8*%
D10*
X67580000Y-114500000D02*
X89580000Y-114500000D01*
X89580000Y-138500000D01*
X67580000Y-138500000D01*
X67580000Y-114500000D01*
D14*
X82500000Y-137880000D02*
X82500000Y-135120000D01*
X77310000Y-137880000D02*
X82500000Y-137880000D01*
X77310000Y-137880000D02*
X77310000Y-135120000D01*
X77310000Y-135120000D02*
X82500000Y-135120000D01*
X76040000Y-137880000D02*
X74660000Y-137880000D01*
X74660000Y-137880000D02*
X74660000Y-136500000D01*
%TO.C,R4*%
X100500000Y-84380000D02*
X100500000Y-83610000D01*
X100500000Y-76300000D02*
X100500000Y-77070000D01*
X101870000Y-77070000D02*
X99130000Y-77070000D01*
X99130000Y-83610000D01*
X101870000Y-83610000D01*
X101870000Y-77070000D01*
%TD*%
M02*
