%TF.GenerationSoftware,KiCad,Pcbnew,9.0.6*%
%TF.CreationDate,2026-01-10T01:49:01+11:00*%
%TF.ProjectId,cv-mixer,63762d6d-6978-4657-922e-6b696361645f,rev?*%
%TF.SameCoordinates,Original*%
%TF.FileFunction,Copper,L2,Bot*%
%TF.FilePolarity,Positive*%
%FSLAX46Y46*%
G04 Gerber Fmt 4.6, Leading zero omitted, Abs format (unit mm)*
G04 Created by KiCad (PCBNEW 9.0.6) date 2026-01-10 01:49:01*
%MOMM*%
%LPD*%
G01*
G04 APERTURE LIST*
G04 Aperture macros list*
%AMRoundRect*
0 Rectangle with rounded corners*
0 $1 Rounding radius*
0 $2 $3 $4 $5 $6 $7 $8 $9 X,Y pos of 4 corners*
0 Add a 4 corners polygon primitive as box body*
4,1,4,$2,$3,$4,$5,$6,$7,$8,$9,$2,$3,0*
0 Add four circle primitives for the rounded corners*
1,1,$1+$1,$2,$3*
1,1,$1+$1,$4,$5*
1,1,$1+$1,$6,$7*
1,1,$1+$1,$8,$9*
0 Add four rect primitives between the rounded corners*
20,1,$1+$1,$2,$3,$4,$5,0*
20,1,$1+$1,$4,$5,$6,$7,0*
20,1,$1+$1,$6,$7,$8,$9,0*
20,1,$1+$1,$8,$9,$2,$3,0*%
G04 Aperture macros list end*
%TA.AperFunction,ComponentPad*%
%ADD10RoundRect,0.250000X0.600000X-0.600000X0.600000X0.600000X-0.600000X0.600000X-0.600000X-0.600000X0*%
%TD*%
%TA.AperFunction,ComponentPad*%
%ADD11C,1.700000*%
%TD*%
%TA.AperFunction,ComponentPad*%
%ADD12C,1.600000*%
%TD*%
%TA.AperFunction,ComponentPad*%
%ADD13R,1.700000X1.700000*%
%TD*%
%TA.AperFunction,ComponentPad*%
%ADD14C,8.000000*%
%TD*%
%TA.AperFunction,ComponentPad*%
%ADD15RoundRect,0.250000X0.550000X-0.550000X0.550000X0.550000X-0.550000X0.550000X-0.550000X-0.550000X0*%
%TD*%
%TA.AperFunction,Conductor*%
%ADD16C,0.200000*%
%TD*%
G04 APERTURE END LIST*
D10*
%TO.P,J19,1,Pin_1*%
%TO.N,12V*%
X78960000Y-29500000D03*
D11*
%TO.P,J19,2,Pin_2*%
%TO.N,-12V*%
X78960000Y-26960000D03*
%TO.P,J19,3,Pin_3*%
%TO.N,GND*%
X81500000Y-29500000D03*
%TO.P,J19,4,Pin_4*%
X81500000Y-26960000D03*
%TO.P,J19,5,Pin_5*%
%TO.N,5V*%
X84040000Y-29500000D03*
%TO.P,J19,6,Pin_6*%
%TO.N,unconnected-(J19-Pin_6-Pad6)*%
X84040000Y-26960000D03*
%TD*%
D12*
%TO.P,R6,1*%
%TO.N,Net-(J12-Pin_2)*%
X101660000Y-117500000D03*
%TO.P,R6,2*%
%TO.N,Net-(J15-Pin_3)*%
X91500000Y-117500000D03*
%TD*%
D13*
%TO.P,J2,1,Pin_1*%
%TO.N,Net-(J1-Pin_1)*%
X51000000Y-41500000D03*
D11*
%TO.P,J2,2,Pin_2*%
%TO.N,Net-(J2-Pin_2)*%
X56080000Y-41500000D03*
%TO.P,J2,3,Pin_3*%
%TO.N,GND*%
X61080000Y-41500000D03*
%TD*%
D14*
%TO.P,J3,1,Pin_1*%
%TO.N,Net-(J3-Pin_1)*%
X38000000Y-71024938D03*
%TD*%
D13*
%TO.P,J10,1,Pin_1*%
%TO.N,Net-(J10-Pin_1)*%
X73500000Y-66000000D03*
D11*
%TO.P,J10,2,Pin_2*%
%TO.N,Net-(J10-Pin_2)*%
X78580000Y-66000000D03*
%TO.P,J10,3,Pin_3*%
%TO.N,GND*%
X83580000Y-66000000D03*
%TD*%
D14*
%TO.P,J1,1,Pin_1*%
%TO.N,Net-(J1-Pin_1)*%
X38000000Y-47024938D03*
%TD*%
D12*
%TO.P,R2,1*%
%TO.N,Net-(J4-Pin_2)*%
X61920000Y-113000000D03*
%TO.P,R2,2*%
%TO.N,Net-(J13-Pin_3)*%
X72080000Y-113000000D03*
%TD*%
D13*
%TO.P,J6,1,Pin_1*%
%TO.N,Net-(J5-Pin_1)*%
X51000000Y-90500000D03*
D11*
%TO.P,J6,2,Pin_2*%
%TO.N,Net-(J6-Pin_2)*%
X56080000Y-90500000D03*
%TO.P,J6,3,Pin_3*%
%TO.N,GND*%
X61080000Y-90500000D03*
%TD*%
D14*
%TO.P,J14,1,Pin_1*%
%TO.N,Net-(J14-Pin_1)*%
X38000000Y-130500000D03*
%TD*%
D15*
%TO.P,U1,1*%
%TO.N,Net-(J13-Pin_2)*%
X34190000Y-116810000D03*
D12*
%TO.P,U1,2,-*%
%TO.N,Net-(J13-Pin_3)*%
X36730000Y-116810000D03*
%TO.P,U1,3,+*%
%TO.N,GND*%
X39270000Y-116810000D03*
%TO.P,U1,4,V-*%
%TO.N,-12V*%
X41810000Y-116810000D03*
%TO.P,U1,5,+*%
%TO.N,GND*%
X41810000Y-109190000D03*
%TO.P,U1,6,-*%
%TO.N,Net-(J15-Pin_3)*%
X39270000Y-109190000D03*
%TO.P,U1,7*%
%TO.N,Net-(J15-Pin_2)*%
X36730000Y-109190000D03*
%TO.P,U1,8,V+*%
%TO.N,12V*%
X34190000Y-109190000D03*
%TD*%
D14*
%TO.P,J9,1,Pin_1*%
%TO.N,Net-(J10-Pin_1)*%
X96500000Y-71024938D03*
%TD*%
D13*
%TO.P,J8,1,Pin_1*%
%TO.N,Net-(J7-Pin_1)*%
X73500000Y-41500000D03*
D11*
%TO.P,J8,2,Pin_2*%
%TO.N,Net-(J8-Pin_2)*%
X78580000Y-41500000D03*
%TO.P,J8,3,Pin_3*%
%TO.N,GND*%
X83580000Y-41500000D03*
%TD*%
D13*
%TO.P,RV4,1,1*%
%TO.N,Net-(J7-Pin_1)*%
X76000000Y-57500000D03*
D11*
%TO.P,RV4,2,2*%
%TO.N,Net-(J8-Pin_2)*%
X78540000Y-57500000D03*
%TO.P,RV4,3,3*%
%TO.N,GND*%
X81080000Y-57500000D03*
%TD*%
D13*
%TO.P,J4,1,Pin_1*%
%TO.N,Net-(J3-Pin_1)*%
X50960000Y-65800000D03*
D11*
%TO.P,J4,2,Pin_2*%
%TO.N,Net-(J4-Pin_2)*%
X56040000Y-65800000D03*
%TO.P,J4,3,Pin_3*%
%TO.N,GND*%
X61040000Y-65800000D03*
%TD*%
D14*
%TO.P,J5,1,Pin_1*%
%TO.N,Net-(J5-Pin_1)*%
X38000000Y-96024938D03*
%TD*%
D13*
%TO.P,RV3,1,1*%
%TO.N,Net-(J5-Pin_1)*%
X53410000Y-106500000D03*
D11*
%TO.P,RV3,2,2*%
%TO.N,Net-(J6-Pin_2)*%
X55950000Y-106500000D03*
%TO.P,RV3,3,3*%
%TO.N,GND*%
X58490000Y-106500000D03*
%TD*%
D13*
%TO.P,RV7,1,1*%
%TO.N,unconnected-(RV7-Pad1)*%
X53410000Y-140000000D03*
D11*
%TO.P,RV7,2,2*%
%TO.N,Net-(J13-Pin_2)*%
X55950000Y-140000000D03*
%TO.P,RV7,3,3*%
%TO.N,Net-(J13-Pin_3)*%
X58490000Y-140000000D03*
%TD*%
D13*
%TO.P,RV6,1,1*%
%TO.N,Net-(J11-Pin_1)*%
X75960000Y-106500000D03*
D11*
%TO.P,RV6,2,2*%
%TO.N,Net-(J12-Pin_2)*%
X78500000Y-106500000D03*
%TO.P,RV6,3,3*%
%TO.N,GND*%
X81040000Y-106500000D03*
%TD*%
D13*
%TO.P,J13,1,Pin_1*%
%TO.N,unconnected-(J13-Pin_1-Pad1)*%
X51000000Y-124000000D03*
D11*
%TO.P,J13,2,Pin_2*%
%TO.N,Net-(J13-Pin_2)*%
X56080000Y-124000000D03*
%TO.P,J13,3,Pin_3*%
%TO.N,Net-(J13-Pin_3)*%
X61080000Y-124000000D03*
%TD*%
D12*
%TO.P,R3,1*%
%TO.N,Net-(J6-Pin_2)*%
X76420000Y-113000000D03*
%TO.P,R3,2*%
%TO.N,Net-(J13-Pin_3)*%
X86580000Y-113000000D03*
%TD*%
%TO.P,R5,1*%
%TO.N,Net-(J10-Pin_2)*%
X101660000Y-112500000D03*
%TO.P,R5,2*%
%TO.N,Net-(J15-Pin_3)*%
X91500000Y-112500000D03*
%TD*%
D10*
%TO.P,J18,1,Pin_1*%
%TO.N,12V*%
X50460000Y-29540000D03*
D11*
%TO.P,J18,2,Pin_2*%
%TO.N,-12V*%
X50460000Y-27000000D03*
%TO.P,J18,3,Pin_3*%
%TO.N,GND*%
X53000000Y-29540000D03*
%TO.P,J18,4,Pin_4*%
X53000000Y-27000000D03*
%TO.P,J18,5,Pin_5*%
%TO.N,5V*%
X55540000Y-29540000D03*
%TO.P,J18,6,Pin_6*%
%TO.N,unconnected-(J18-Pin_6-Pad6)*%
X55540000Y-27000000D03*
%TD*%
D13*
%TO.P,J12,1,Pin_1*%
%TO.N,Net-(J11-Pin_1)*%
X73500000Y-90500000D03*
D11*
%TO.P,J12,2,Pin_2*%
%TO.N,Net-(J12-Pin_2)*%
X78580000Y-90500000D03*
%TO.P,J12,3,Pin_3*%
%TO.N,GND*%
X83580000Y-90500000D03*
%TD*%
D12*
%TO.P,R7,1*%
%TO.N,Net-(J13-Pin_2)*%
X32920000Y-121000000D03*
%TO.P,R7,2*%
%TO.N,Net-(J14-Pin_1)*%
X43080000Y-121000000D03*
%TD*%
D14*
%TO.P,J11,1,Pin_1*%
%TO.N,Net-(J11-Pin_1)*%
X96500000Y-96024938D03*
%TD*%
%TO.P,J16,1,Pin_1*%
%TO.N,Net-(J16-Pin_1)*%
X96500000Y-130524938D03*
%TD*%
%TO.P,J7,1,Pin_1*%
%TO.N,Net-(J7-Pin_1)*%
X96500000Y-47000000D03*
%TD*%
D13*
%TO.P,J15,1,Pin_1*%
%TO.N,unconnected-(J15-Pin_1-Pad1)*%
X73500000Y-124000000D03*
D11*
%TO.P,J15,2,Pin_2*%
%TO.N,Net-(J15-Pin_2)*%
X78580000Y-124000000D03*
%TO.P,J15,3,Pin_3*%
%TO.N,Net-(J15-Pin_3)*%
X83580000Y-124000000D03*
%TD*%
D13*
%TO.P,RV1,1,1*%
%TO.N,Net-(J1-Pin_1)*%
X53420000Y-57500000D03*
D11*
%TO.P,RV1,2,2*%
%TO.N,Net-(J2-Pin_2)*%
X55960000Y-57500000D03*
%TO.P,RV1,3,3*%
%TO.N,GND*%
X58500000Y-57500000D03*
%TD*%
D13*
%TO.P,RV5,1,1*%
%TO.N,Net-(J10-Pin_1)*%
X75960000Y-82000000D03*
D11*
%TO.P,RV5,2,2*%
%TO.N,Net-(J10-Pin_2)*%
X78500000Y-82000000D03*
%TO.P,RV5,3,3*%
%TO.N,GND*%
X81040000Y-82000000D03*
%TD*%
D12*
%TO.P,R1,1*%
%TO.N,Net-(J2-Pin_2)*%
X47420000Y-113000000D03*
%TO.P,R1,2*%
%TO.N,Net-(J13-Pin_3)*%
X57580000Y-113000000D03*
%TD*%
D13*
%TO.P,RV2,1,1*%
%TO.N,Net-(J3-Pin_1)*%
X53410000Y-82000000D03*
D11*
%TO.P,RV2,2,2*%
%TO.N,Net-(J4-Pin_2)*%
X55950000Y-82000000D03*
%TO.P,RV2,3,3*%
%TO.N,GND*%
X58490000Y-82000000D03*
%TD*%
D12*
%TO.P,R8,1*%
%TO.N,Net-(J15-Pin_2)*%
X91420000Y-122500000D03*
%TO.P,R8,2*%
%TO.N,Net-(J16-Pin_1)*%
X101580000Y-122500000D03*
%TD*%
D13*
%TO.P,RV8,1,1*%
%TO.N,unconnected-(RV8-Pad1)*%
X75960000Y-140000000D03*
D11*
%TO.P,RV8,2,2*%
%TO.N,Net-(J15-Pin_2)*%
X78500000Y-140000000D03*
%TO.P,RV8,3,3*%
%TO.N,Net-(J15-Pin_3)*%
X81040000Y-140000000D03*
%TD*%
D12*
%TO.P,R4,1*%
%TO.N,Net-(J8-Pin_2)*%
X101580000Y-107500000D03*
%TO.P,R4,2*%
%TO.N,Net-(J15-Pin_3)*%
X91420000Y-107500000D03*
%TD*%
D16*
%TO.N,Net-(J4-Pin_2)*%
X61920000Y-113000000D02*
X59929000Y-111009000D01*
X59929000Y-111009000D02*
X59929000Y-85979000D01*
X59929000Y-85979000D02*
X55950000Y-82000000D01*
%TO.N,Net-(J15-Pin_3)*%
X83580000Y-124000000D02*
X86131370Y-124000000D01*
X86131370Y-124000000D02*
X91500000Y-118631370D01*
X91500000Y-118631370D02*
X91500000Y-117500000D01*
%TO.N,Net-(J15-Pin_2)*%
X36730000Y-109190000D02*
X37831000Y-110291000D01*
X37831000Y-110291000D02*
X39726050Y-110291000D01*
X39726050Y-110291000D02*
X54586050Y-125151000D01*
X54586050Y-125151000D02*
X77429000Y-125151000D01*
X77429000Y-125151000D02*
X78580000Y-124000000D01*
%TO.N,Net-(J15-Pin_3)*%
X39270000Y-109190000D02*
X52929000Y-122849000D01*
X52929000Y-122849000D02*
X82429000Y-122849000D01*
X82429000Y-122849000D02*
X83580000Y-124000000D01*
%TO.N,Net-(J2-Pin_2)*%
X52259000Y-108161000D02*
X47420000Y-113000000D01*
X52259000Y-61201000D02*
X52259000Y-108161000D01*
X55960000Y-57500000D02*
X52259000Y-61201000D01*
%TO.N,Net-(J6-Pin_2)*%
X55950000Y-106500000D02*
X55950000Y-108587050D01*
X55950000Y-108587050D02*
X61463950Y-114101000D01*
X75319000Y-114101000D02*
X76420000Y-113000000D01*
X61463950Y-114101000D02*
X75319000Y-114101000D01*
%TO.N,Net-(J8-Pin_2)*%
X79691000Y-58651000D02*
X90208595Y-58651000D01*
X101580000Y-70022405D02*
X101580000Y-107500000D01*
X90208595Y-58651000D02*
X101580000Y-70022405D01*
X78540000Y-57500000D02*
X79691000Y-58651000D01*
%TO.N,Net-(J10-Pin_2)*%
X100479000Y-111319000D02*
X101660000Y-112500000D01*
X90057595Y-83500000D02*
X101179000Y-94621405D01*
X80000000Y-83500000D02*
X90057595Y-83500000D01*
X101179000Y-94621405D02*
X101179000Y-106343950D01*
X78500000Y-82000000D02*
X80000000Y-83500000D01*
X101179000Y-106343950D02*
X100479000Y-107043950D01*
X100479000Y-107043950D02*
X100479000Y-111319000D01*
%TO.N,Net-(J12-Pin_2)*%
X86500000Y-114500000D02*
X98660000Y-114500000D01*
X78500000Y-106500000D02*
X86500000Y-114500000D01*
X98660000Y-114500000D02*
X101660000Y-117500000D01*
%TO.N,Net-(J7-Pin_1)*%
X86500000Y-47000000D02*
X96500000Y-47000000D01*
X76000000Y-57500000D02*
X86500000Y-47000000D01*
%TO.N,Net-(J10-Pin_1)*%
X96500000Y-71024938D02*
X86935062Y-71024938D01*
X86935062Y-71024938D02*
X75960000Y-82000000D01*
%TO.N,Net-(J11-Pin_1)*%
X86435062Y-96024938D02*
X75960000Y-106500000D01*
X96500000Y-96024938D02*
X86435062Y-96024938D01*
%TO.N,-12V*%
X50460000Y-27000000D02*
X51651000Y-25809000D01*
X51651000Y-25809000D02*
X77809000Y-25809000D01*
X77809000Y-25809000D02*
X78960000Y-26960000D01*
%TO.N,12V*%
X51611000Y-28389000D02*
X77849000Y-28389000D01*
X50460000Y-29540000D02*
X51611000Y-28389000D01*
X77849000Y-28389000D02*
X78960000Y-29500000D01*
%TO.N,5V*%
X56651000Y-30651000D02*
X82889000Y-30651000D01*
X55540000Y-29540000D02*
X56651000Y-30651000D01*
X82889000Y-30651000D02*
X84040000Y-29500000D01*
%TD*%
M02*
