%TF.GenerationSoftware,KiCad,Pcbnew,9.0.6*%
%TF.CreationDate,2026-01-15T14:26:48+11:00*%
%TF.ProjectId,cv-mixer,63762d6d-6978-4657-922e-6b696361645f,rev?*%
%TF.SameCoordinates,Original*%
%TF.FileFunction,Copper,L1,Top*%
%TF.FilePolarity,Positive*%
%FSLAX46Y46*%
G04 Gerber Fmt 4.6, Leading zero omitted, Abs format (unit mm)*
G04 Created by KiCad (PCBNEW 9.0.6) date 2026-01-15 14:26:48*
%MOMM*%
%LPD*%
G01*
G04 APERTURE LIST*
G04 Aperture macros list*
%AMRoundRect*
0 Rectangle with rounded corners*
0 $1 Rounding radius*
0 $2 $3 $4 $5 $6 $7 $8 $9 X,Y pos of 4 corners*
0 Add a 4 corners polygon primitive as box body*
4,1,4,$2,$3,$4,$5,$6,$7,$8,$9,$2,$3,0*
0 Add four circle primitives for the rounded corners*
1,1,$1+$1,$2,$3*
1,1,$1+$1,$4,$5*
1,1,$1+$1,$6,$7*
1,1,$1+$1,$8,$9*
0 Add four rect primitives between the rounded corners*
20,1,$1+$1,$2,$3,$4,$5,0*
20,1,$1+$1,$4,$5,$6,$7,0*
20,1,$1+$1,$6,$7,$8,$9,0*
20,1,$1+$1,$8,$9,$2,$3,0*%
G04 Aperture macros list end*
%TA.AperFunction,ComponentPad*%
%ADD10RoundRect,0.250000X0.600000X-0.600000X0.600000X0.600000X-0.600000X0.600000X-0.600000X-0.600000X0*%
%TD*%
%TA.AperFunction,ComponentPad*%
%ADD11C,1.700000*%
%TD*%
%TA.AperFunction,ComponentPad*%
%ADD12C,1.600000*%
%TD*%
%TA.AperFunction,ComponentPad*%
%ADD13R,2.000000X2.000000*%
%TD*%
%TA.AperFunction,ComponentPad*%
%ADD14C,2.000000*%
%TD*%
%TA.AperFunction,ComponentPad*%
%ADD15C,8.000000*%
%TD*%
%TA.AperFunction,ComponentPad*%
%ADD16RoundRect,0.250000X0.550000X-0.550000X0.550000X0.550000X-0.550000X0.550000X-0.550000X-0.550000X0*%
%TD*%
%TA.AperFunction,ComponentPad*%
%ADD17R,1.700000X1.700000*%
%TD*%
%TA.AperFunction,Conductor*%
%ADD18C,0.200000*%
%TD*%
G04 APERTURE END LIST*
D10*
%TO.P,J19,1,Pin_1*%
%TO.N,12V*%
X83500000Y-20040000D03*
D11*
%TO.P,J19,2,Pin_2*%
%TO.N,-12V*%
X83500000Y-17500000D03*
%TO.P,J19,3,Pin_3*%
%TO.N,GND*%
X86040000Y-20040000D03*
%TO.P,J19,4,Pin_4*%
X86040000Y-17500000D03*
%TO.P,J19,5,Pin_5*%
%TO.N,5V*%
X88580000Y-20040000D03*
%TO.P,J19,6,Pin_6*%
%TO.N,unconnected-(J19-Pin_6-Pad6)*%
X88580000Y-17500000D03*
%TD*%
D12*
%TO.P,R6,1*%
%TO.N,Net-(J12-Pin_2)*%
X101660000Y-117500000D03*
%TO.P,R6,2*%
%TO.N,Net-(J15-Pin_1)*%
X91500000Y-117500000D03*
%TD*%
D13*
%TO.P,J2,1,Pin_1*%
%TO.N,GND*%
X51000000Y-30500000D03*
D14*
%TO.P,J2,2,Pin_2*%
%TO.N,Net-(J2-Pin_2)*%
X56080000Y-30500000D03*
%TO.P,J2,3,Pin_3*%
%TO.N,Net-(J1-Pin_1)*%
X61080000Y-30500000D03*
%TD*%
D15*
%TO.P,J3,1,Pin_1*%
%TO.N,Net-(J3-Pin_1)*%
X38000000Y-64524938D03*
%TD*%
D13*
%TO.P,J10,1,Pin_1*%
%TO.N,GND*%
X73500000Y-59500000D03*
D14*
%TO.P,J10,2,Pin_2*%
%TO.N,Net-(J10-Pin_2)*%
X78580000Y-59500000D03*
%TO.P,J10,3,Pin_3*%
%TO.N,Net-(J10-Pin_3)*%
X83580000Y-59500000D03*
%TD*%
D15*
%TO.P,J1,1,Pin_1*%
%TO.N,Net-(J1-Pin_1)*%
X38000000Y-36524938D03*
%TD*%
D12*
%TO.P,R2,1*%
%TO.N,Net-(J4-Pin_2)*%
X61920000Y-113000000D03*
%TO.P,R2,2*%
%TO.N,Net-(J13-Pin_1)*%
X72080000Y-113000000D03*
%TD*%
D10*
%TO.P,J17,1,Pin_1*%
%TO.N,12V*%
X45920000Y-20040000D03*
D11*
%TO.P,J17,2,Pin_2*%
%TO.N,-12V*%
X45920000Y-17500000D03*
%TO.P,J17,3,Pin_3*%
%TO.N,GND*%
X48460000Y-20040000D03*
%TO.P,J17,4,Pin_4*%
X48460000Y-17500000D03*
%TO.P,J17,5,Pin_5*%
%TO.N,5V*%
X51000000Y-20040000D03*
%TO.P,J17,6,Pin_6*%
%TO.N,unconnected-(J17-Pin_6-Pad6)*%
X51000000Y-17500000D03*
%TD*%
D13*
%TO.P,J6,1,Pin_1*%
%TO.N,GND*%
X51000000Y-88000000D03*
D14*
%TO.P,J6,2,Pin_2*%
%TO.N,Net-(J6-Pin_2)*%
X56080000Y-88000000D03*
%TO.P,J6,3,Pin_3*%
%TO.N,Net-(J5-Pin_1)*%
X61080000Y-88000000D03*
%TD*%
D15*
%TO.P,J14,1,Pin_1*%
%TO.N,Net-(J14-Pin_1)*%
X38000000Y-130500000D03*
%TD*%
D16*
%TO.P,U1,1*%
%TO.N,Net-(J13-Pin_2)*%
X34190000Y-116810000D03*
D12*
%TO.P,U1,2,-*%
%TO.N,Net-(J13-Pin_1)*%
X36730000Y-116810000D03*
%TO.P,U1,3,+*%
%TO.N,GND*%
X39270000Y-116810000D03*
%TO.P,U1,4,V-*%
%TO.N,-12V*%
X41810000Y-116810000D03*
%TO.P,U1,5,+*%
%TO.N,GND*%
X41810000Y-109190000D03*
%TO.P,U1,6,-*%
%TO.N,Net-(J15-Pin_1)*%
X39270000Y-109190000D03*
%TO.P,U1,7*%
%TO.N,Net-(J15-Pin_2)*%
X36730000Y-109190000D03*
%TO.P,U1,8,V+*%
%TO.N,12V*%
X34190000Y-109190000D03*
%TD*%
D15*
%TO.P,J9,1,Pin_1*%
%TO.N,Net-(J10-Pin_3)*%
X96500000Y-64524938D03*
%TD*%
D13*
%TO.P,J8,1,Pin_1*%
%TO.N,GND*%
X73500000Y-30500000D03*
D14*
%TO.P,J8,2,Pin_2*%
%TO.N,Net-(J8-Pin_2)*%
X78580000Y-30500000D03*
%TO.P,J8,3,Pin_3*%
%TO.N,Net-(J7-Pin_1)*%
X83580000Y-30500000D03*
%TD*%
D17*
%TO.P,RV4,1,1*%
%TO.N,GND*%
X76000000Y-47000000D03*
D11*
%TO.P,RV4,2,2*%
%TO.N,Net-(J8-Pin_2)*%
X78540000Y-47000000D03*
%TO.P,RV4,3,3*%
%TO.N,Net-(J7-Pin_1)*%
X81080000Y-47000000D03*
%TD*%
D13*
%TO.P,J4,1,Pin_1*%
%TO.N,GND*%
X50960000Y-59300000D03*
D14*
%TO.P,J4,2,Pin_2*%
%TO.N,Net-(J4-Pin_2)*%
X56040000Y-59300000D03*
%TO.P,J4,3,Pin_3*%
%TO.N,Net-(J3-Pin_1)*%
X61040000Y-59300000D03*
%TD*%
D12*
%TO.P,C2,1*%
%TO.N,GND*%
X44669438Y-111884473D03*
%TO.P,C2,2*%
%TO.N,-12V*%
X44669438Y-116884473D03*
%TD*%
%TO.P,C1,1*%
%TO.N,GND*%
X39286763Y-106389681D03*
%TO.P,C1,2*%
%TO.N,12V*%
X34286763Y-106389681D03*
%TD*%
D15*
%TO.P,J5,1,Pin_1*%
%TO.N,Net-(J5-Pin_1)*%
X38000000Y-93524938D03*
%TD*%
D17*
%TO.P,RV3,1,1*%
%TO.N,GND*%
X53410000Y-104000000D03*
D11*
%TO.P,RV3,2,2*%
%TO.N,Net-(J6-Pin_2)*%
X55950000Y-104000000D03*
%TO.P,RV3,3,3*%
%TO.N,Net-(J5-Pin_1)*%
X58490000Y-104000000D03*
%TD*%
D17*
%TO.P,RV7,1,1*%
%TO.N,Net-(J13-Pin_1)*%
X53410000Y-140000000D03*
D11*
%TO.P,RV7,2,2*%
%TO.N,Net-(J13-Pin_2)*%
X55950000Y-140000000D03*
%TO.P,RV7,3,3*%
%TO.N,unconnected-(RV7-Pad3)*%
X58490000Y-140000000D03*
%TD*%
D17*
%TO.P,RV6,1,1*%
%TO.N,GND*%
X75960000Y-104000000D03*
D11*
%TO.P,RV6,2,2*%
%TO.N,Net-(J12-Pin_2)*%
X78500000Y-104000000D03*
%TO.P,RV6,3,3*%
%TO.N,Net-(J11-Pin_1)*%
X81040000Y-104000000D03*
%TD*%
D13*
%TO.P,J13,1,Pin_1*%
%TO.N,Net-(J13-Pin_1)*%
X51000000Y-124000000D03*
D14*
%TO.P,J13,2,Pin_2*%
%TO.N,Net-(J13-Pin_2)*%
X56080000Y-124000000D03*
%TO.P,J13,3,Pin_3*%
%TO.N,unconnected-(J13-Pin_3-Pad3)*%
X61080000Y-124000000D03*
%TD*%
D12*
%TO.P,R3,1*%
%TO.N,Net-(J6-Pin_2)*%
X76420000Y-113000000D03*
%TO.P,R3,2*%
%TO.N,Net-(J13-Pin_1)*%
X86580000Y-113000000D03*
%TD*%
%TO.P,R5,1*%
%TO.N,Net-(J10-Pin_2)*%
X101660000Y-112500000D03*
%TO.P,R5,2*%
%TO.N,Net-(J15-Pin_1)*%
X91500000Y-112500000D03*
%TD*%
D10*
%TO.P,J18,1,Pin_1*%
%TO.N,12V*%
X64500000Y-20040000D03*
D11*
%TO.P,J18,2,Pin_2*%
%TO.N,-12V*%
X64500000Y-17500000D03*
%TO.P,J18,3,Pin_3*%
%TO.N,GND*%
X67040000Y-20040000D03*
%TO.P,J18,4,Pin_4*%
X67040000Y-17500000D03*
%TO.P,J18,5,Pin_5*%
%TO.N,5V*%
X69580000Y-20040000D03*
%TO.P,J18,6,Pin_6*%
%TO.N,unconnected-(J18-Pin_6-Pad6)*%
X69580000Y-17500000D03*
%TD*%
D13*
%TO.P,J12,1,Pin_1*%
%TO.N,GND*%
X73500000Y-88000000D03*
D14*
%TO.P,J12,2,Pin_2*%
%TO.N,Net-(J12-Pin_2)*%
X78580000Y-88000000D03*
%TO.P,J12,3,Pin_3*%
%TO.N,Net-(J11-Pin_1)*%
X83580000Y-88000000D03*
%TD*%
D12*
%TO.P,R7,1*%
%TO.N,Net-(J13-Pin_2)*%
X32920000Y-121000000D03*
%TO.P,R7,2*%
%TO.N,Net-(J14-Pin_1)*%
X43080000Y-121000000D03*
%TD*%
D15*
%TO.P,J11,1,Pin_1*%
%TO.N,Net-(J11-Pin_1)*%
X96500000Y-93524938D03*
%TD*%
%TO.P,J16,1,Pin_1*%
%TO.N,Net-(J16-Pin_1)*%
X96500000Y-130524938D03*
%TD*%
%TO.P,J7,1,Pin_1*%
%TO.N,Net-(J7-Pin_1)*%
X96500000Y-36500000D03*
%TD*%
D13*
%TO.P,J15,1,Pin_1*%
%TO.N,Net-(J15-Pin_1)*%
X73500000Y-124000000D03*
D14*
%TO.P,J15,2,Pin_2*%
%TO.N,Net-(J15-Pin_2)*%
X78580000Y-124000000D03*
%TO.P,J15,3,Pin_3*%
%TO.N,unconnected-(J15-Pin_3-Pad3)*%
X83580000Y-124000000D03*
%TD*%
D17*
%TO.P,RV1,1,1*%
%TO.N,GND*%
X53420000Y-47000000D03*
D11*
%TO.P,RV1,2,2*%
%TO.N,Net-(J2-Pin_2)*%
X55960000Y-47000000D03*
%TO.P,RV1,3,3*%
%TO.N,Net-(J1-Pin_1)*%
X58500000Y-47000000D03*
%TD*%
D17*
%TO.P,RV5,1,1*%
%TO.N,GND*%
X75960000Y-75500000D03*
D11*
%TO.P,RV5,2,2*%
%TO.N,Net-(J10-Pin_2)*%
X78500000Y-75500000D03*
%TO.P,RV5,3,3*%
%TO.N,Net-(J10-Pin_3)*%
X81040000Y-75500000D03*
%TD*%
D12*
%TO.P,R1,1*%
%TO.N,Net-(J2-Pin_2)*%
X47420000Y-113000000D03*
%TO.P,R1,2*%
%TO.N,Net-(J13-Pin_1)*%
X57580000Y-113000000D03*
%TD*%
D17*
%TO.P,RV2,1,1*%
%TO.N,GND*%
X53410000Y-75500000D03*
D11*
%TO.P,RV2,2,2*%
%TO.N,Net-(J4-Pin_2)*%
X55950000Y-75500000D03*
%TO.P,RV2,3,3*%
%TO.N,Net-(J3-Pin_1)*%
X58490000Y-75500000D03*
%TD*%
D12*
%TO.P,R8,1*%
%TO.N,Net-(J15-Pin_2)*%
X91420000Y-122500000D03*
%TO.P,R8,2*%
%TO.N,Net-(J16-Pin_1)*%
X101580000Y-122500000D03*
%TD*%
D17*
%TO.P,RV8,1,1*%
%TO.N,Net-(J15-Pin_1)*%
X75960000Y-140000000D03*
D11*
%TO.P,RV8,2,2*%
%TO.N,Net-(J15-Pin_2)*%
X78500000Y-140000000D03*
%TO.P,RV8,3,3*%
%TO.N,unconnected-(RV8-Pad3)*%
X81040000Y-140000000D03*
%TD*%
D12*
%TO.P,R4,1*%
%TO.N,Net-(J8-Pin_2)*%
X101580000Y-107500000D03*
%TO.P,R4,2*%
%TO.N,Net-(J15-Pin_1)*%
X91420000Y-107500000D03*
%TD*%
D18*
%TO.N,GND*%
X41810000Y-109190000D02*
X43400000Y-109190000D01*
X43400000Y-109190000D02*
X51000000Y-101590000D01*
%TO.N,Net-(J15-Pin_1)*%
X91500000Y-117500000D02*
X80000000Y-117500000D01*
X80000000Y-117500000D02*
X73500000Y-124000000D01*
%TO.N,Net-(J13-Pin_1)*%
X36730000Y-116810000D02*
X38232000Y-118312000D01*
X38232000Y-118312000D02*
X47530000Y-118312000D01*
X47530000Y-118312000D02*
X51000000Y-121782000D01*
X51000000Y-124000000D02*
X51000000Y-121782000D01*
X51000000Y-121782000D02*
X58681000Y-114101000D01*
X51000000Y-124000000D02*
X51000000Y-137590000D01*
X51000000Y-137590000D02*
X53410000Y-140000000D01*
%TO.N,Net-(J15-Pin_1)*%
X73500000Y-124000000D02*
X73500000Y-137540000D01*
X73500000Y-137540000D02*
X75960000Y-140000000D01*
%TO.N,12V*%
X45920000Y-20040000D02*
X45920000Y-98199394D01*
X45920000Y-98199394D02*
X37729713Y-106389681D01*
X37729713Y-106389681D02*
X34286763Y-106389681D01*
%TO.N,Net-(J13-Pin_1)*%
X72080000Y-113000000D02*
X73181000Y-114101000D01*
X73181000Y-114101000D02*
X85479000Y-114101000D01*
X85479000Y-114101000D02*
X86580000Y-113000000D01*
X57580000Y-113000000D02*
X58681000Y-114101000D01*
X58681000Y-114101000D02*
X70979000Y-114101000D01*
X70979000Y-114101000D02*
X72080000Y-113000000D01*
%TO.N,Net-(J12-Pin_2)*%
X78500000Y-104000000D02*
X80899000Y-106399000D01*
X80899000Y-106399000D02*
X91899000Y-106399000D01*
X91899000Y-106399000D02*
X101660000Y-116160000D01*
X101660000Y-116160000D02*
X101660000Y-117500000D01*
%TO.N,Net-(J15-Pin_1)*%
X91420000Y-107500000D02*
X91420000Y-117420000D01*
X91420000Y-117420000D02*
X91500000Y-117500000D01*
%TO.N,Net-(J10-Pin_2)*%
X78500000Y-75500000D02*
X84881000Y-81881000D01*
X84881000Y-81881000D02*
X84881000Y-95721000D01*
X84881000Y-95721000D02*
X101660000Y-112500000D01*
%TO.N,Net-(J8-Pin_2)*%
X78540000Y-47000000D02*
X86089000Y-54549000D01*
X92606595Y-54549000D02*
X101580000Y-63522405D01*
X86089000Y-54549000D02*
X92606595Y-54549000D01*
X101580000Y-63522405D02*
X101580000Y-107500000D01*
%TO.N,Net-(J4-Pin_2)*%
X61920000Y-113000000D02*
X62719999Y-112200001D01*
X62719999Y-112200001D02*
X62719999Y-82269999D01*
X62719999Y-82269999D02*
X55950000Y-75500000D01*
%TO.N,Net-(J2-Pin_2)*%
X47420000Y-113000000D02*
X54561000Y-105859000D01*
X54561000Y-105859000D02*
X54561000Y-48399000D01*
X54561000Y-48399000D02*
X55960000Y-47000000D01*
%TO.N,GND*%
X75960000Y-75500000D02*
X75960000Y-85540000D01*
X75960000Y-85540000D02*
X73500000Y-88000000D01*
X53410000Y-75500000D02*
X53410000Y-85590000D01*
X53410000Y-85590000D02*
X51000000Y-88000000D01*
X51000000Y-88000000D02*
X51000000Y-101590000D01*
X51000000Y-101590000D02*
X53410000Y-104000000D01*
%TO.N,Net-(J6-Pin_2)*%
X56080000Y-88000000D02*
X56080000Y-103870000D01*
X56080000Y-103870000D02*
X55950000Y-104000000D01*
%TO.N,Net-(J5-Pin_1)*%
X61080000Y-88000000D02*
X58490000Y-90590000D01*
X58490000Y-90590000D02*
X58490000Y-104000000D01*
%TO.N,GND*%
X73500000Y-88000000D02*
X73500000Y-101540000D01*
X73500000Y-101540000D02*
X75960000Y-104000000D01*
%TO.N,Net-(J12-Pin_2)*%
X78580000Y-88000000D02*
X78580000Y-103920000D01*
X78580000Y-103920000D02*
X78500000Y-104000000D01*
%TO.N,Net-(J11-Pin_1)*%
X83580000Y-88000000D02*
X81040000Y-90540000D01*
X81040000Y-90540000D02*
X81040000Y-104000000D01*
%TO.N,Net-(J3-Pin_1)*%
X61040000Y-59300000D02*
X58490000Y-61850000D01*
X58490000Y-61850000D02*
X58490000Y-75500000D01*
%TO.N,Net-(J4-Pin_2)*%
X56040000Y-59300000D02*
X56040000Y-75410000D01*
X56040000Y-75410000D02*
X55950000Y-75500000D01*
%TO.N,GND*%
X50960000Y-59300000D02*
X50960000Y-73050000D01*
X50960000Y-73050000D02*
X53410000Y-75500000D01*
X53420000Y-47000000D02*
X53420000Y-56840000D01*
X53420000Y-56840000D02*
X50960000Y-59300000D01*
X76000000Y-47000000D02*
X76000000Y-57000000D01*
X76000000Y-57000000D02*
X73500000Y-59500000D01*
X73500000Y-59500000D02*
X73500000Y-73040000D01*
X73500000Y-73040000D02*
X75960000Y-75500000D01*
%TO.N,Net-(J10-Pin_2)*%
X78580000Y-59500000D02*
X78580000Y-75420000D01*
X78580000Y-75420000D02*
X78500000Y-75500000D01*
%TO.N,Net-(J10-Pin_3)*%
X83580000Y-59500000D02*
X81040000Y-62040000D01*
X81040000Y-62040000D02*
X81040000Y-75500000D01*
%TO.N,GND*%
X51000000Y-30500000D02*
X51000000Y-44580000D01*
X51000000Y-44580000D02*
X53420000Y-47000000D01*
%TO.N,Net-(J2-Pin_2)*%
X56080000Y-30500000D02*
X56080000Y-46880000D01*
X56080000Y-46880000D02*
X55960000Y-47000000D01*
%TO.N,Net-(J1-Pin_1)*%
X61080000Y-30500000D02*
X58500000Y-33080000D01*
X58500000Y-33080000D02*
X58500000Y-47000000D01*
%TO.N,Net-(J7-Pin_1)*%
X83580000Y-30500000D02*
X81080000Y-33000000D01*
X81080000Y-33000000D02*
X81080000Y-47000000D01*
%TO.N,Net-(J8-Pin_2)*%
X78580000Y-30500000D02*
X78580000Y-46960000D01*
X78580000Y-46960000D02*
X78540000Y-47000000D01*
%TO.N,GND*%
X73500000Y-30500000D02*
X73500000Y-31000000D01*
X73500000Y-31000000D02*
X76000000Y-33500000D01*
X76000000Y-33500000D02*
X76000000Y-47000000D01*
X67040000Y-20040000D02*
X73500000Y-26500000D01*
X73500000Y-26500000D02*
X73500000Y-30500000D01*
X48460000Y-20040000D02*
X51000000Y-22580000D01*
X51000000Y-22580000D02*
X51000000Y-30500000D01*
X67040000Y-17500000D02*
X68191000Y-16349000D01*
X68191000Y-16349000D02*
X84889000Y-16349000D01*
X84889000Y-16349000D02*
X86040000Y-17500000D01*
X48460000Y-17500000D02*
X49611000Y-16349000D01*
X49611000Y-16349000D02*
X65889000Y-16349000D01*
X65889000Y-16349000D02*
X67040000Y-17500000D01*
X86040000Y-17500000D02*
X86040000Y-20040000D01*
X67040000Y-17500000D02*
X67040000Y-20040000D01*
X48460000Y-17500000D02*
X48460000Y-20040000D01*
X44669438Y-111884473D02*
X43075965Y-110291000D01*
X41810000Y-109190000D02*
X42911000Y-110291000D01*
X43075965Y-110291000D02*
X42911000Y-110291000D01*
X42911000Y-117266050D02*
X42266050Y-117911000D01*
X41810000Y-108912918D02*
X41810000Y-109190000D01*
X42266050Y-117911000D02*
X40371000Y-117911000D01*
X40371000Y-117911000D02*
X39270000Y-116810000D01*
X42911000Y-110291000D02*
X42911000Y-117266050D01*
X39286763Y-106389681D02*
X41810000Y-108912918D01*
%TO.N,Net-(J13-Pin_2)*%
X56080000Y-139870000D02*
X55950000Y-140000000D01*
X56080000Y-124000000D02*
X56080000Y-139870000D01*
X34190000Y-119730000D02*
X32920000Y-121000000D01*
X34190000Y-116810000D02*
X34190000Y-119730000D01*
%TO.N,Net-(J14-Pin_1)*%
X43080000Y-121000000D02*
X43080000Y-125420000D01*
X43080000Y-125420000D02*
X38000000Y-130500000D01*
%TO.N,Net-(J15-Pin_2)*%
X78580000Y-124000000D02*
X78580000Y-139920000D01*
X78580000Y-139920000D02*
X78500000Y-140000000D01*
X80080000Y-122500000D02*
X91420000Y-122500000D01*
X78580000Y-124000000D02*
X80080000Y-122500000D01*
%TO.N,Net-(J16-Pin_1)*%
X101580000Y-125444938D02*
X96500000Y-130524938D01*
X101580000Y-122500000D02*
X101580000Y-125444938D01*
%TO.N,12V*%
X34286763Y-106389681D02*
X34286763Y-109093237D01*
X34286763Y-109093237D02*
X34190000Y-109190000D01*
%TD*%
M02*
