M48
; DRILL file {KiCad 9.0.6} date 2026-05-23T16:02:33+1000
; FORMAT={-:-/ absolute / metric / decimal}
; #@! TF.CreationDate,2026-05-23T16:02:33+10:00
; #@! TF.GenerationSoftware,Kicad,Pcbnew,9.0.6
; #@! TF.FileFunction,Plated,1,2,PTH
FMAT,2
METRIC
; #@! TA.AperFunction,Plated,PTH,ComponentDrill
T1C0.800
; #@! TA.AperFunction,Plated,PTH,ComponentDrill
T2C1.000
; #@! TA.AperFunction,Plated,PTH,ComponentDrill
T3C1.200
; #@! TA.AperFunction,Plated,PTH,ComponentDrill
T4C6.000
%
G90
G05
T1
X34.0Y-75.09
X34.0Y-85.25
X34.5Y-103.75
X34.5Y-106.29
X34.5Y-108.83
X34.5Y-111.37
X34.5Y-113.91
X34.5Y-116.45
X34.5Y-118.99
X38.5Y-75.09
X38.5Y-85.25
X42.12Y-103.75
X42.12Y-106.29
X42.12Y-108.83
X42.12Y-111.37
X42.12Y-113.91
X42.12Y-116.45
X42.12Y-118.99
X43.25Y-75.09
X43.25Y-85.25
X46.0Y-111.5
X46.17Y-144.25
X51.0Y-111.5
X53.25Y-111.5
X56.33Y-144.25
X58.25Y-111.5
X78.5Y-144.25
X88.66Y-144.25
X91.25Y-75.26
X91.25Y-85.42
X91.34Y-105.0
X91.34Y-109.5
X91.34Y-114.0
X91.34Y-118.5
X96.0Y-75.26
X96.0Y-85.42
X100.5Y-75.26
X100.5Y-85.42
X101.5Y-105.0
X101.5Y-109.5
X101.5Y-114.0
X101.5Y-118.5
T2
X45.92Y-17.5
X45.92Y-20.04
X48.46Y-17.5
X48.46Y-20.04
X51.0Y-17.5
X51.0Y-20.04
X53.41Y-75.5
X53.41Y-104.0
X53.42Y-47.0
X53.49Y-136.5
X55.95Y-75.5
X55.95Y-104.0
X55.96Y-47.0
X56.03Y-136.5
X58.49Y-75.5
X58.49Y-104.0
X58.5Y-47.0
X58.57Y-136.5
X64.5Y-17.5
X64.5Y-20.04
X67.04Y-17.5
X67.04Y-20.04
X69.58Y-17.5
X69.58Y-20.04
X75.96Y-75.5
X75.96Y-104.0
X76.0Y-47.0
X76.04Y-136.5
X78.5Y-75.5
X78.5Y-104.0
X78.54Y-47.0
X78.58Y-136.5
X81.04Y-75.5
X81.04Y-104.0
X81.08Y-47.0
X81.12Y-136.5
X83.5Y-17.5
X83.5Y-20.04
X86.04Y-17.5
X86.04Y-20.04
X88.58Y-17.5
X88.58Y-20.04
T3
X50.96Y-59.3
X51.0Y-30.5
X51.0Y-88.0
X51.08Y-120.5
X56.04Y-59.3
X56.08Y-30.5
X56.08Y-88.0
X56.16Y-120.5
X61.04Y-59.3
X61.08Y-30.5
X61.08Y-88.0
X61.16Y-120.5
X73.5Y-30.5
X73.5Y-59.5
X73.5Y-88.0
X73.58Y-120.5
X78.58Y-30.5
X78.58Y-59.5
X78.58Y-88.0
X78.66Y-120.5
X83.58Y-30.5
X83.58Y-59.5
X83.58Y-88.0
X83.66Y-120.5
T4
X38.0Y-36.525
X38.0Y-64.525
X38.0Y-93.525
X38.08Y-127.0
X96.5Y-36.5
X96.5Y-64.525
X96.5Y-93.525
X96.58Y-127.025
M30
