M48
; DRILL file {KiCad 9.0.6} date 2026-01-10T14:07:09+1100
; FORMAT={-:-/ absolute / metric / decimal}
; #@! TF.CreationDate,2026-01-10T14:07:09+11:00
; #@! TF.GenerationSoftware,Kicad,Pcbnew,9.0.6
; #@! TF.FileFunction,Plated,1,2,PTH
FMAT,2
METRIC
; #@! TA.AperFunction,Plated,PTH,ComponentDrill
T1C0.800
; #@! TA.AperFunction,Plated,PTH,ComponentDrill
T2C1.000
; #@! TA.AperFunction,Plated,PTH,ComponentDrill
T3C6.000
%
G90
G05
T1
X32.92Y-121.0
X34.19Y-109.19
X34.19Y-116.81
X34.287Y-106.39
X36.73Y-109.19
X36.73Y-116.81
X39.27Y-109.19
X39.27Y-116.81
X39.287Y-106.39
X41.81Y-109.19
X41.81Y-116.81
X43.08Y-121.0
X44.669Y-111.884
X44.669Y-116.884
X47.42Y-113.0
X57.58Y-113.0
X61.92Y-113.0
X72.08Y-113.0
X76.42Y-113.0
X86.58Y-113.0
X91.42Y-107.5
X91.42Y-122.5
X91.5Y-112.5
X91.5Y-117.5
X101.58Y-107.5
X101.58Y-122.5
X101.66Y-112.5
X101.66Y-117.5
T2
X50.46Y-27.0
X50.46Y-29.54
X50.96Y-65.8
X51.0Y-41.5
X51.0Y-90.5
X51.0Y-124.0
X53.0Y-27.0
X53.0Y-29.54
X53.41Y-82.0
X53.41Y-106.5
X53.41Y-140.0
X53.42Y-57.5
X55.54Y-27.0
X55.54Y-29.54
X55.95Y-82.0
X55.95Y-106.5
X55.95Y-140.0
X55.96Y-57.5
X56.04Y-65.8
X56.08Y-41.5
X56.08Y-90.5
X56.08Y-124.0
X58.49Y-82.0
X58.49Y-106.5
X58.49Y-140.0
X58.5Y-57.5
X61.04Y-65.8
X61.08Y-41.5
X61.08Y-90.5
X61.08Y-124.0
X73.5Y-41.5
X73.5Y-66.0
X73.5Y-90.5
X73.5Y-124.0
X75.96Y-82.0
X75.96Y-106.5
X75.96Y-140.0
X76.0Y-57.5
X78.5Y-82.0
X78.5Y-106.5
X78.5Y-140.0
X78.54Y-57.5
X78.58Y-41.5
X78.58Y-66.0
X78.58Y-90.5
X78.58Y-124.0
X78.96Y-26.96
X78.96Y-29.5
X81.04Y-82.0
X81.04Y-106.5
X81.04Y-140.0
X81.08Y-57.5
X81.5Y-26.96
X81.5Y-29.5
X83.58Y-41.5
X83.58Y-66.0
X83.58Y-90.5
X83.58Y-124.0
X84.04Y-26.96
X84.04Y-29.5
T3
X38.0Y-47.025
X38.0Y-71.025
X38.0Y-96.025
X38.0Y-130.5
X96.5Y-47.0
X96.5Y-71.025
X96.5Y-96.025
X96.5Y-130.525
M30
