%TF.GenerationSoftware,KiCad,Pcbnew,9.0.6*%
%TF.CreationDate,2026-05-23T16:04:55+10:00*%
%TF.ProjectId,cv-mixer,63762d6d-6978-4657-922e-6b696361645f,rev?*%
%TF.SameCoordinates,Original*%
%TF.FileFunction,Legend,Bot*%
%TF.FilePolarity,Positive*%
%FSLAX46Y46*%
G04 Gerber Fmt 4.6, Leading zero omitted, Abs format (unit mm)*
G04 Created by KiCad (PCBNEW 9.0.6) date 2026-05-23 16:04:55*
%MOMM*%
%LPD*%
G01*
G04 APERTURE LIST*
%ADD10C,0.100000*%
G04 APERTURE END LIST*
D10*
X96833333Y-19933609D02*
X97166666Y-19933609D01*
X97166666Y-20457419D02*
X97166666Y-19457419D01*
X97166666Y-19457419D02*
X96690476Y-19457419D01*
X95785714Y-20457419D02*
X96357142Y-20457419D01*
X96071428Y-20457419D02*
X96071428Y-19457419D01*
X96071428Y-19457419D02*
X96166666Y-19600276D01*
X96166666Y-19600276D02*
X96261904Y-19695514D01*
X96261904Y-19695514D02*
X96357142Y-19743133D01*
X38413333Y-139433609D02*
X38746666Y-139433609D01*
X38746666Y-139957419D02*
X38746666Y-138957419D01*
X38746666Y-138957419D02*
X38270476Y-138957419D01*
X37984761Y-138957419D02*
X37365714Y-138957419D01*
X37365714Y-138957419D02*
X37699047Y-139338371D01*
X37699047Y-139338371D02*
X37556190Y-139338371D01*
X37556190Y-139338371D02*
X37460952Y-139385990D01*
X37460952Y-139385990D02*
X37413333Y-139433609D01*
X37413333Y-139433609D02*
X37365714Y-139528847D01*
X37365714Y-139528847D02*
X37365714Y-139766942D01*
X37365714Y-139766942D02*
X37413333Y-139862180D01*
X37413333Y-139862180D02*
X37460952Y-139909800D01*
X37460952Y-139909800D02*
X37556190Y-139957419D01*
X37556190Y-139957419D02*
X37841904Y-139957419D01*
X37841904Y-139957419D02*
X37937142Y-139909800D01*
X37937142Y-139909800D02*
X37984761Y-139862180D01*
X38333333Y-19933609D02*
X38666666Y-19933609D01*
X38666666Y-20457419D02*
X38666666Y-19457419D01*
X38666666Y-19457419D02*
X38190476Y-19457419D01*
X37857142Y-19552657D02*
X37809523Y-19505038D01*
X37809523Y-19505038D02*
X37714285Y-19457419D01*
X37714285Y-19457419D02*
X37476190Y-19457419D01*
X37476190Y-19457419D02*
X37380952Y-19505038D01*
X37380952Y-19505038D02*
X37333333Y-19552657D01*
X37333333Y-19552657D02*
X37285714Y-19647895D01*
X37285714Y-19647895D02*
X37285714Y-19743133D01*
X37285714Y-19743133D02*
X37333333Y-19885990D01*
X37333333Y-19885990D02*
X37904761Y-20457419D01*
X37904761Y-20457419D02*
X37285714Y-20457419D01*
X96913333Y-139433609D02*
X97246666Y-139433609D01*
X97246666Y-139957419D02*
X97246666Y-138957419D01*
X97246666Y-138957419D02*
X96770476Y-138957419D01*
X95960952Y-139290752D02*
X95960952Y-139957419D01*
X96199047Y-138909800D02*
X96437142Y-139624085D01*
X96437142Y-139624085D02*
X95818095Y-139624085D01*
%TO.C,F1*%
X103000000Y-14000000D02*
X90000000Y-14000000D01*
X90000000Y-27500000D01*
X103000000Y-27500000D01*
X103000000Y-14000000D01*
%TO.C,F3*%
X44580000Y-133500000D02*
X31580000Y-133500000D01*
X31580000Y-147000000D01*
X44580000Y-147000000D01*
X44580000Y-133500000D01*
%TO.C,F2*%
X44500000Y-14000000D02*
X31500000Y-14000000D01*
X31500000Y-27500000D01*
X44500000Y-27500000D01*
X44500000Y-14000000D01*
%TO.C,F4*%
X103080000Y-133500000D02*
X90080000Y-133500000D01*
X90080000Y-147000000D01*
X103080000Y-147000000D01*
X103080000Y-133500000D01*
%TD*%
M02*
