M48
; DRILL file {KiCad 9.0.6} date 2026-01-21T23:00:29+1100
; FORMAT={-:-/ absolute / metric / decimal}
; #@! TF.CreationDate,2026-01-21T23:00:29+11:00
; #@! TF.GenerationSoftware,Kicad,Pcbnew,9.0.6
; #@! TF.FileFunction,Plated,1,2,PTH
FMAT,2
METRIC
; #@! TA.AperFunction,Plated,PTH,ComponentDrill
T1C0.800
; #@! TA.AperFunction,Plated,PTH,ComponentDrill
T2C1.000
; #@! TA.AperFunction,Plated,PTH,ComponentDrill
T3C1.200
; #@! TA.AperFunction,Plated,PTH,ComponentDrill
T4C6.000
%
G90
G05
T1
X32.92Y-121.0
X34.19Y-109.19
X34.19Y-116.81
X34.287Y-106.39
X36.73Y-109.19
X36.73Y-116.81
X39.27Y-109.19
X39.27Y-116.81
X39.287Y-106.39
X41.81Y-109.19
X41.81Y-116.81
X43.08Y-121.0
X44.669Y-111.884
X44.669Y-116.884
X47.42Y-113.0
X57.58Y-113.0
X61.92Y-113.0
X72.08Y-113.0
X76.42Y-113.0
X86.58Y-113.0
X91.42Y-107.5
X91.42Y-122.5
X91.5Y-112.5
X91.5Y-117.5
X101.58Y-107.5
X101.58Y-122.5
X101.66Y-112.5
X101.66Y-117.5
T2
X45.92Y-17.5
X45.92Y-20.04
X48.46Y-17.5
X48.46Y-20.04
X51.0Y-17.5
X51.0Y-20.04
X53.41Y-75.5
X53.41Y-104.0
X53.41Y-140.0
X53.42Y-47.0
X55.95Y-75.5
X55.95Y-104.0
X55.95Y-140.0
X55.96Y-47.0
X58.49Y-75.5
X58.49Y-104.0
X58.49Y-140.0
X58.5Y-47.0
X64.5Y-17.5
X64.5Y-20.04
X67.04Y-17.5
X67.04Y-20.04
X69.58Y-17.5
X69.58Y-20.04
X75.96Y-75.5
X75.96Y-104.0
X75.96Y-140.0
X76.0Y-47.0
X78.5Y-75.5
X78.5Y-104.0
X78.5Y-140.0
X78.54Y-47.0
X81.04Y-75.5
X81.04Y-104.0
X81.04Y-140.0
X81.08Y-47.0
X83.5Y-17.5
X83.5Y-20.04
X86.04Y-17.5
X86.04Y-20.04
X88.58Y-17.5
X88.58Y-20.04
T3
X50.96Y-59.3
X51.0Y-30.5
X51.0Y-88.0
X51.0Y-124.0
X56.04Y-59.3
X56.08Y-30.5
X56.08Y-88.0
X56.08Y-124.0
X61.04Y-59.3
X61.08Y-30.5
X61.08Y-88.0
X61.08Y-124.0
X73.5Y-30.5
X73.5Y-59.5
X73.5Y-88.0
X73.5Y-124.0
X78.58Y-30.5
X78.58Y-59.5
X78.58Y-88.0
X78.58Y-124.0
X83.58Y-30.5
X83.58Y-59.5
X83.58Y-88.0
X83.58Y-124.0
T4
X38.0Y-36.525
X38.0Y-64.525
X38.0Y-93.525
X38.0Y-130.5
X96.5Y-36.5
X96.5Y-64.525
X96.5Y-93.525
X96.5Y-130.525
M30
