%TF.GenerationSoftware,KiCad,Pcbnew,9.0.6*%
%TF.CreationDate,2026-01-10T01:49:01+11:00*%
%TF.ProjectId,cv-mixer,63762d6d-6978-4657-922e-6b696361645f,rev?*%
%TF.SameCoordinates,Original*%
%TF.FileFunction,Soldermask,Bot*%
%TF.FilePolarity,Negative*%
%FSLAX46Y46*%
G04 Gerber Fmt 4.6, Leading zero omitted, Abs format (unit mm)*
G04 Created by KiCad (PCBNEW 9.0.6) date 2026-01-10 01:49:01*
%MOMM*%
%LPD*%
G01*
G04 APERTURE LIST*
G04 Aperture macros list*
%AMRoundRect*
0 Rectangle with rounded corners*
0 $1 Rounding radius*
0 $2 $3 $4 $5 $6 $7 $8 $9 X,Y pos of 4 corners*
0 Add a 4 corners polygon primitive as box body*
4,1,4,$2,$3,$4,$5,$6,$7,$8,$9,$2,$3,0*
0 Add four circle primitives for the rounded corners*
1,1,$1+$1,$2,$3*
1,1,$1+$1,$4,$5*
1,1,$1+$1,$6,$7*
1,1,$1+$1,$8,$9*
0 Add four rect primitives between the rounded corners*
20,1,$1+$1,$2,$3,$4,$5,0*
20,1,$1+$1,$4,$5,$6,$7,0*
20,1,$1+$1,$6,$7,$8,$9,0*
20,1,$1+$1,$8,$9,$2,$3,0*%
G04 Aperture macros list end*
%ADD10RoundRect,0.250000X0.600000X-0.600000X0.600000X0.600000X-0.600000X0.600000X-0.600000X-0.600000X0*%
%ADD11C,1.700000*%
%ADD12C,1.600000*%
%ADD13R,1.700000X1.700000*%
%ADD14C,8.000000*%
%ADD15RoundRect,0.250000X0.550000X-0.550000X0.550000X0.550000X-0.550000X0.550000X-0.550000X-0.550000X0*%
%ADD16C,2.200000*%
G04 APERTURE END LIST*
D10*
%TO.C,J19*%
X78960000Y-29500000D03*
D11*
X78960000Y-26960000D03*
X81500000Y-29500000D03*
X81500000Y-26960000D03*
X84040000Y-29500000D03*
X84040000Y-26960000D03*
%TD*%
D12*
%TO.C,R6*%
X101660000Y-117500000D03*
X91500000Y-117500000D03*
%TD*%
D13*
%TO.C,J2*%
X51000000Y-41500000D03*
D11*
X56080000Y-41500000D03*
X61080000Y-41500000D03*
%TD*%
D14*
%TO.C,J3*%
X38000000Y-71024938D03*
%TD*%
D13*
%TO.C,J10*%
X73500000Y-66000000D03*
D11*
X78580000Y-66000000D03*
X83580000Y-66000000D03*
%TD*%
D14*
%TO.C,J1*%
X38000000Y-47024938D03*
%TD*%
D12*
%TO.C,R2*%
X61920000Y-113000000D03*
X72080000Y-113000000D03*
%TD*%
D13*
%TO.C,J6*%
X51000000Y-90500000D03*
D11*
X56080000Y-90500000D03*
X61080000Y-90500000D03*
%TD*%
D14*
%TO.C,J14*%
X38000000Y-130500000D03*
%TD*%
D15*
%TO.C,U1*%
X34190000Y-116810000D03*
D12*
X36730000Y-116810000D03*
X39270000Y-116810000D03*
X41810000Y-116810000D03*
X41810000Y-109190000D03*
X39270000Y-109190000D03*
X36730000Y-109190000D03*
X34190000Y-109190000D03*
%TD*%
D14*
%TO.C,J9*%
X96500000Y-71024938D03*
%TD*%
D13*
%TO.C,J8*%
X73500000Y-41500000D03*
D11*
X78580000Y-41500000D03*
X83580000Y-41500000D03*
%TD*%
D16*
%TO.C,RV4*%
X70040000Y-38000000D03*
X87090000Y-38000000D03*
D13*
X76000000Y-57500000D03*
D11*
X78540000Y-57500000D03*
X81080000Y-57500000D03*
%TD*%
D13*
%TO.C,J4*%
X50960000Y-65800000D03*
D11*
X56040000Y-65800000D03*
X61040000Y-65800000D03*
%TD*%
D14*
%TO.C,J5*%
X38000000Y-96024938D03*
%TD*%
D16*
%TO.C,RV3*%
X47450000Y-87000000D03*
X64500000Y-87000000D03*
D13*
X53410000Y-106500000D03*
D11*
X55950000Y-106500000D03*
X58490000Y-106500000D03*
%TD*%
D16*
%TO.C,RV7*%
X47450000Y-120500000D03*
X64500000Y-120500000D03*
D13*
X53410000Y-140000000D03*
D11*
X55950000Y-140000000D03*
X58490000Y-140000000D03*
%TD*%
D16*
%TO.C,RV6*%
X70000000Y-87000000D03*
X87050000Y-87000000D03*
D13*
X75960000Y-106500000D03*
D11*
X78500000Y-106500000D03*
X81040000Y-106500000D03*
%TD*%
D13*
%TO.C,J13*%
X51000000Y-124000000D03*
D11*
X56080000Y-124000000D03*
X61080000Y-124000000D03*
%TD*%
D12*
%TO.C,R3*%
X76420000Y-113000000D03*
X86580000Y-113000000D03*
%TD*%
%TO.C,R5*%
X101660000Y-112500000D03*
X91500000Y-112500000D03*
%TD*%
D10*
%TO.C,J18*%
X50460000Y-29540000D03*
D11*
X50460000Y-27000000D03*
X53000000Y-29540000D03*
X53000000Y-27000000D03*
X55540000Y-29540000D03*
X55540000Y-27000000D03*
%TD*%
D13*
%TO.C,J12*%
X73500000Y-90500000D03*
D11*
X78580000Y-90500000D03*
X83580000Y-90500000D03*
%TD*%
D12*
%TO.C,R7*%
X32920000Y-121000000D03*
X43080000Y-121000000D03*
%TD*%
D14*
%TO.C,J11*%
X96500000Y-96024938D03*
%TD*%
%TO.C,J16*%
X96500000Y-130524938D03*
%TD*%
%TO.C,J7*%
X96500000Y-47000000D03*
%TD*%
D13*
%TO.C,J15*%
X73500000Y-124000000D03*
D11*
X78580000Y-124000000D03*
X83580000Y-124000000D03*
%TD*%
D16*
%TO.C,RV1*%
X47460000Y-38000000D03*
X64510000Y-38000000D03*
D13*
X53420000Y-57500000D03*
D11*
X55960000Y-57500000D03*
X58500000Y-57500000D03*
%TD*%
D16*
%TO.C,RV5*%
X70000000Y-62500000D03*
X87050000Y-62500000D03*
D13*
X75960000Y-82000000D03*
D11*
X78500000Y-82000000D03*
X81040000Y-82000000D03*
%TD*%
D12*
%TO.C,R1*%
X47420000Y-113000000D03*
X57580000Y-113000000D03*
%TD*%
D16*
%TO.C,RV2*%
X47450000Y-62500000D03*
X64500000Y-62500000D03*
D13*
X53410000Y-82000000D03*
D11*
X55950000Y-82000000D03*
X58490000Y-82000000D03*
%TD*%
D12*
%TO.C,R8*%
X91420000Y-122500000D03*
X101580000Y-122500000D03*
%TD*%
D16*
%TO.C,RV8*%
X70000000Y-120500000D03*
X87050000Y-120500000D03*
D13*
X75960000Y-140000000D03*
D11*
X78500000Y-140000000D03*
X81040000Y-140000000D03*
%TD*%
D12*
%TO.C,R4*%
X101580000Y-107500000D03*
X91420000Y-107500000D03*
%TD*%
M02*
