%TF.GenerationSoftware,KiCad,Pcbnew,9.0.6*%
%TF.CreationDate,2026-05-23T16:02:35+10:00*%
%TF.ProjectId,cv-mixer,63762d6d-6978-4657-922e-6b696361645f,rev?*%
%TF.SameCoordinates,Original*%
%TF.FileFunction,Copper,L1,Top*%
%TF.FilePolarity,Positive*%
%FSLAX46Y46*%
G04 Gerber Fmt 4.6, Leading zero omitted, Abs format (unit mm)*
G04 Created by KiCad (PCBNEW 9.0.6) date 2026-05-23 16:02:35*
%MOMM*%
%LPD*%
G01*
G04 APERTURE LIST*
G04 Aperture macros list*
%AMRoundRect*
0 Rectangle with rounded corners*
0 $1 Rounding radius*
0 $2 $3 $4 $5 $6 $7 $8 $9 X,Y pos of 4 corners*
0 Add a 4 corners polygon primitive as box body*
4,1,4,$2,$3,$4,$5,$6,$7,$8,$9,$2,$3,0*
0 Add four circle primitives for the rounded corners*
1,1,$1+$1,$2,$3*
1,1,$1+$1,$4,$5*
1,1,$1+$1,$6,$7*
1,1,$1+$1,$8,$9*
0 Add four rect primitives between the rounded corners*
20,1,$1+$1,$2,$3,$4,$5,0*
20,1,$1+$1,$4,$5,$6,$7,0*
20,1,$1+$1,$6,$7,$8,$9,0*
20,1,$1+$1,$8,$9,$2,$3,0*%
G04 Aperture macros list end*
%TA.AperFunction,ComponentPad*%
%ADD10C,1.600000*%
%TD*%
%TA.AperFunction,ComponentPad*%
%ADD11RoundRect,0.250000X-0.550000X-0.550000X0.550000X-0.550000X0.550000X0.550000X-0.550000X0.550000X0*%
%TD*%
%TA.AperFunction,ComponentPad*%
%ADD12RoundRect,0.250000X0.600000X-0.600000X0.600000X0.600000X-0.600000X0.600000X-0.600000X-0.600000X0*%
%TD*%
%TA.AperFunction,ComponentPad*%
%ADD13C,1.700000*%
%TD*%
%TA.AperFunction,ComponentPad*%
%ADD14R,2.000000X2.000000*%
%TD*%
%TA.AperFunction,ComponentPad*%
%ADD15C,2.000000*%
%TD*%
%TA.AperFunction,ComponentPad*%
%ADD16C,8.000000*%
%TD*%
%TA.AperFunction,ComponentPad*%
%ADD17R,1.700000X1.700000*%
%TD*%
%TA.AperFunction,Conductor*%
%ADD18C,0.200000*%
%TD*%
G04 APERTURE END LIST*
D10*
%TO.P,R11,2*%
%TO.N,Net-(U1C--)*%
X101500000Y-114000000D03*
%TO.P,R11,1*%
%TO.N,Net-(J15-Pin_2)*%
X91340000Y-114000000D03*
%TD*%
%TO.P,R12,2*%
%TO.N,Net-(R12-Pad2)*%
X101500000Y-118500000D03*
%TO.P,R12,1*%
%TO.N,Net-(U1C--)*%
X91340000Y-118500000D03*
%TD*%
%TO.P,U1,14*%
%TO.N,Net-(J15-Pin_2)*%
X42120000Y-103750000D03*
%TO.P,U1,13,-*%
%TO.N,Net-(J15-Pin_1)*%
X42120000Y-106290000D03*
%TO.P,U1,12,+*%
%TO.N,GND*%
X42120000Y-108830000D03*
%TO.P,U1,11,V-*%
%TO.N,-12V*%
X42120000Y-111370000D03*
%TO.P,U1,10,+*%
%TO.N,GND*%
X42120000Y-113910000D03*
%TO.P,U1,9,-*%
%TO.N,Net-(U1C--)*%
X42120000Y-116450000D03*
%TO.P,U1,8*%
%TO.N,Net-(R12-Pad2)*%
X42120000Y-118990000D03*
%TO.P,U1,7*%
%TO.N,Net-(R10-Pad2)*%
X34500000Y-118990000D03*
%TO.P,U1,6,-*%
%TO.N,Net-(U1B--)*%
X34500000Y-116450000D03*
%TO.P,U1,5,+*%
%TO.N,GND*%
X34500000Y-113910000D03*
%TO.P,U1,4,V+*%
%TO.N,12V*%
X34500000Y-111370000D03*
%TO.P,U1,3,+*%
%TO.N,GND*%
X34500000Y-108830000D03*
%TO.P,U1,2,-*%
%TO.N,Net-(J13-Pin_1)*%
X34500000Y-106290000D03*
D11*
%TO.P,U1,1*%
%TO.N,Net-(J13-Pin_2)*%
X34500000Y-103750000D03*
%TD*%
D10*
%TO.P,R10,1*%
%TO.N,Net-(U1B--)*%
X91340000Y-109500000D03*
%TO.P,R10,2*%
%TO.N,Net-(R10-Pad2)*%
X101500000Y-109500000D03*
%TD*%
%TO.P,R9,1*%
%TO.N,Net-(J13-Pin_2)*%
X91340000Y-105000000D03*
%TO.P,R9,2*%
%TO.N,Net-(U1B--)*%
X101500000Y-105000000D03*
%TD*%
D12*
%TO.P,J19,1,Pin_1*%
%TO.N,12V*%
X83500000Y-20040000D03*
D13*
%TO.P,J19,2,Pin_2*%
%TO.N,-12V*%
X83500000Y-17500000D03*
%TO.P,J19,3,Pin_3*%
%TO.N,GND*%
X86040000Y-20040000D03*
%TO.P,J19,4,Pin_4*%
X86040000Y-17500000D03*
%TO.P,J19,5,Pin_5*%
%TO.N,5V*%
X88580000Y-20040000D03*
%TO.P,J19,6,Pin_6*%
%TO.N,unconnected-(J19-Pin_6-Pad6)*%
X88580000Y-17500000D03*
%TD*%
D10*
%TO.P,R6,1*%
%TO.N,Net-(J12-Pin_2)*%
X91250000Y-75260000D03*
%TO.P,R6,2*%
%TO.N,Net-(J15-Pin_1)*%
X91250000Y-85420000D03*
%TD*%
D14*
%TO.P,J2,1,Pin_1*%
%TO.N,GND*%
X51000000Y-30500000D03*
D15*
%TO.P,J2,2,Pin_2*%
%TO.N,Net-(J2-Pin_2)*%
X56080000Y-30500000D03*
%TO.P,J2,3,Pin_3*%
%TO.N,Net-(J1-Pin_1)*%
X61080000Y-30500000D03*
%TD*%
D16*
%TO.P,J3,1,Pin_1*%
%TO.N,Net-(J3-Pin_1)*%
X38000000Y-64524938D03*
%TD*%
D14*
%TO.P,J10,1,Pin_1*%
%TO.N,GND*%
X73500000Y-59500000D03*
D15*
%TO.P,J10,2,Pin_2*%
%TO.N,Net-(J10-Pin_2)*%
X78580000Y-59500000D03*
%TO.P,J10,3,Pin_3*%
%TO.N,Net-(J10-Pin_3)*%
X83580000Y-59500000D03*
%TD*%
D16*
%TO.P,J1,1,Pin_1*%
%TO.N,Net-(J1-Pin_1)*%
X38000000Y-36524938D03*
%TD*%
D10*
%TO.P,R2,1*%
%TO.N,Net-(J4-Pin_2)*%
X38500000Y-75090000D03*
%TO.P,R2,2*%
%TO.N,Net-(J13-Pin_1)*%
X38500000Y-85250000D03*
%TD*%
D12*
%TO.P,J17,1,Pin_1*%
%TO.N,12V*%
X45920000Y-20040000D03*
D13*
%TO.P,J17,2,Pin_2*%
%TO.N,-12V*%
X45920000Y-17500000D03*
%TO.P,J17,3,Pin_3*%
%TO.N,GND*%
X48460000Y-20040000D03*
%TO.P,J17,4,Pin_4*%
X48460000Y-17500000D03*
%TO.P,J17,5,Pin_5*%
%TO.N,5V*%
X51000000Y-20040000D03*
%TO.P,J17,6,Pin_6*%
%TO.N,unconnected-(J17-Pin_6-Pad6)*%
X51000000Y-17500000D03*
%TD*%
D14*
%TO.P,J6,1,Pin_1*%
%TO.N,GND*%
X51000000Y-88000000D03*
D15*
%TO.P,J6,2,Pin_2*%
%TO.N,Net-(J6-Pin_2)*%
X56080000Y-88000000D03*
%TO.P,J6,3,Pin_3*%
%TO.N,Net-(J5-Pin_1)*%
X61080000Y-88000000D03*
%TD*%
D16*
%TO.P,J14,1,Pin_1*%
%TO.N,Net-(J14-Pin_1)*%
X38080000Y-127000000D03*
%TD*%
%TO.P,J9,1,Pin_1*%
%TO.N,Net-(J10-Pin_3)*%
X96500000Y-64524938D03*
%TD*%
D14*
%TO.P,J8,1,Pin_1*%
%TO.N,GND*%
X73500000Y-30500000D03*
D15*
%TO.P,J8,2,Pin_2*%
%TO.N,Net-(J8-Pin_2)*%
X78580000Y-30500000D03*
%TO.P,J8,3,Pin_3*%
%TO.N,Net-(J7-Pin_1)*%
X83580000Y-30500000D03*
%TD*%
D17*
%TO.P,RV4,1,1*%
%TO.N,GND*%
X76000000Y-47000000D03*
D13*
%TO.P,RV4,2,2*%
%TO.N,Net-(J8-Pin_2)*%
X78540000Y-47000000D03*
%TO.P,RV4,3,3*%
%TO.N,Net-(J7-Pin_1)*%
X81080000Y-47000000D03*
%TD*%
D14*
%TO.P,J4,1,Pin_1*%
%TO.N,GND*%
X50960000Y-59300000D03*
D15*
%TO.P,J4,2,Pin_2*%
%TO.N,Net-(J4-Pin_2)*%
X56040000Y-59300000D03*
%TO.P,J4,3,Pin_3*%
%TO.N,Net-(J3-Pin_1)*%
X61040000Y-59300000D03*
%TD*%
D10*
%TO.P,C2,1*%
%TO.N,GND*%
X58250000Y-111500000D03*
%TO.P,C2,2*%
%TO.N,-12V*%
X53250000Y-111500000D03*
%TD*%
%TO.P,C1,1*%
%TO.N,GND*%
X51000000Y-111500000D03*
%TO.P,C1,2*%
%TO.N,12V*%
X46000000Y-111500000D03*
%TD*%
D16*
%TO.P,J5,1,Pin_1*%
%TO.N,Net-(J5-Pin_1)*%
X38000000Y-93524938D03*
%TD*%
D17*
%TO.P,RV3,1,1*%
%TO.N,GND*%
X53410000Y-104000000D03*
D13*
%TO.P,RV3,2,2*%
%TO.N,Net-(J6-Pin_2)*%
X55950000Y-104000000D03*
%TO.P,RV3,3,3*%
%TO.N,Net-(J5-Pin_1)*%
X58490000Y-104000000D03*
%TD*%
%TO.P,RV7,3,3*%
%TO.N,unconnected-(RV7-Pad3)*%
X58570000Y-136500000D03*
%TO.P,RV7,2,2*%
%TO.N,Net-(J13-Pin_2)*%
X56030000Y-136500000D03*
D17*
%TO.P,RV7,1,1*%
%TO.N,Net-(J13-Pin_1)*%
X53490000Y-136500000D03*
%TD*%
%TO.P,RV6,1,1*%
%TO.N,GND*%
X75960000Y-104000000D03*
D13*
%TO.P,RV6,2,2*%
%TO.N,Net-(J12-Pin_2)*%
X78500000Y-104000000D03*
%TO.P,RV6,3,3*%
%TO.N,Net-(J11-Pin_1)*%
X81040000Y-104000000D03*
%TD*%
D15*
%TO.P,J13,3,Pin_3*%
%TO.N,unconnected-(J13-Pin_3-Pad3)*%
X61160000Y-120500000D03*
%TO.P,J13,2,Pin_2*%
%TO.N,Net-(J13-Pin_2)*%
X56160000Y-120500000D03*
D14*
%TO.P,J13,1,Pin_1*%
%TO.N,Net-(J13-Pin_1)*%
X51080000Y-120500000D03*
%TD*%
D10*
%TO.P,R3,1*%
%TO.N,Net-(J6-Pin_2)*%
X43250000Y-75090000D03*
%TO.P,R3,2*%
%TO.N,Net-(J13-Pin_1)*%
X43250000Y-85250000D03*
%TD*%
%TO.P,R5,1*%
%TO.N,Net-(J10-Pin_2)*%
X96000000Y-75260000D03*
%TO.P,R5,2*%
%TO.N,Net-(J15-Pin_1)*%
X96000000Y-85420000D03*
%TD*%
D12*
%TO.P,J18,1,Pin_1*%
%TO.N,12V*%
X64500000Y-20040000D03*
D13*
%TO.P,J18,2,Pin_2*%
%TO.N,-12V*%
X64500000Y-17500000D03*
%TO.P,J18,3,Pin_3*%
%TO.N,GND*%
X67040000Y-20040000D03*
%TO.P,J18,4,Pin_4*%
X67040000Y-17500000D03*
%TO.P,J18,5,Pin_5*%
%TO.N,5V*%
X69580000Y-20040000D03*
%TO.P,J18,6,Pin_6*%
%TO.N,unconnected-(J18-Pin_6-Pad6)*%
X69580000Y-17500000D03*
%TD*%
D14*
%TO.P,J12,1,Pin_1*%
%TO.N,GND*%
X73500000Y-88000000D03*
D15*
%TO.P,J12,2,Pin_2*%
%TO.N,Net-(J12-Pin_2)*%
X78580000Y-88000000D03*
%TO.P,J12,3,Pin_3*%
%TO.N,Net-(J11-Pin_1)*%
X83580000Y-88000000D03*
%TD*%
D10*
%TO.P,R7,1*%
%TO.N,Net-(R10-Pad2)*%
X56330000Y-144250000D03*
%TO.P,R7,2*%
%TO.N,Net-(J14-Pin_1)*%
X46170000Y-144250000D03*
%TD*%
D16*
%TO.P,J11,1,Pin_1*%
%TO.N,Net-(J11-Pin_1)*%
X96500000Y-93524938D03*
%TD*%
%TO.P,J16,1,Pin_1*%
%TO.N,Net-(J16-Pin_1)*%
X96580000Y-127024938D03*
%TD*%
%TO.P,J7,1,Pin_1*%
%TO.N,Net-(J7-Pin_1)*%
X96500000Y-36500000D03*
%TD*%
D15*
%TO.P,J15,3,Pin_3*%
%TO.N,unconnected-(J15-Pin_3-Pad3)*%
X83660000Y-120500000D03*
%TO.P,J15,2,Pin_2*%
%TO.N,Net-(J15-Pin_2)*%
X78660000Y-120500000D03*
D14*
%TO.P,J15,1,Pin_1*%
%TO.N,Net-(J15-Pin_1)*%
X73580000Y-120500000D03*
%TD*%
D17*
%TO.P,RV1,1,1*%
%TO.N,GND*%
X53420000Y-47000000D03*
D13*
%TO.P,RV1,2,2*%
%TO.N,Net-(J2-Pin_2)*%
X55960000Y-47000000D03*
%TO.P,RV1,3,3*%
%TO.N,Net-(J1-Pin_1)*%
X58500000Y-47000000D03*
%TD*%
D17*
%TO.P,RV5,1,1*%
%TO.N,GND*%
X75960000Y-75500000D03*
D13*
%TO.P,RV5,2,2*%
%TO.N,Net-(J10-Pin_2)*%
X78500000Y-75500000D03*
%TO.P,RV5,3,3*%
%TO.N,Net-(J10-Pin_3)*%
X81040000Y-75500000D03*
%TD*%
D10*
%TO.P,R1,1*%
%TO.N,Net-(J2-Pin_2)*%
X34000000Y-75090000D03*
%TO.P,R1,2*%
%TO.N,Net-(J13-Pin_1)*%
X34000000Y-85250000D03*
%TD*%
D17*
%TO.P,RV2,1,1*%
%TO.N,GND*%
X53410000Y-75500000D03*
D13*
%TO.P,RV2,2,2*%
%TO.N,Net-(J4-Pin_2)*%
X55950000Y-75500000D03*
%TO.P,RV2,3,3*%
%TO.N,Net-(J3-Pin_1)*%
X58490000Y-75500000D03*
%TD*%
D10*
%TO.P,R8,1*%
%TO.N,Net-(R12-Pad2)*%
X78500000Y-144250000D03*
%TO.P,R8,2*%
%TO.N,Net-(J16-Pin_1)*%
X88660000Y-144250000D03*
%TD*%
D13*
%TO.P,RV8,3,3*%
%TO.N,unconnected-(RV8-Pad3)*%
X81120000Y-136500000D03*
%TO.P,RV8,2,2*%
%TO.N,Net-(J15-Pin_2)*%
X78580000Y-136500000D03*
D17*
%TO.P,RV8,1,1*%
%TO.N,Net-(J15-Pin_1)*%
X76040000Y-136500000D03*
%TD*%
D10*
%TO.P,R4,1*%
%TO.N,Net-(J8-Pin_2)*%
X100500000Y-75260000D03*
%TO.P,R4,2*%
%TO.N,Net-(J15-Pin_1)*%
X100500000Y-85420000D03*
%TD*%
D18*
%TO.N,Net-(U1B--)*%
X91340000Y-109500000D02*
X97000000Y-109500000D01*
X97000000Y-109500000D02*
X101500000Y-105000000D01*
%TO.N,Net-(U1C--)*%
X91340000Y-118500000D02*
X97000000Y-118500000D01*
X97000000Y-118500000D02*
X101500000Y-114000000D01*
%TO.N,Net-(U1B--)*%
X91340000Y-109500000D02*
X85829000Y-115011000D01*
X85829000Y-115011000D02*
X35939000Y-115011000D01*
X35939000Y-115011000D02*
X34500000Y-116450000D01*
%TO.N,GND*%
X53410000Y-104000000D02*
X53410000Y-109090000D01*
X53410000Y-109090000D02*
X51000000Y-111500000D01*
%TO.N,Net-(U1C--)*%
X42120000Y-116450000D02*
X44170000Y-118500000D01*
X44170000Y-118500000D02*
X91340000Y-118500000D01*
%TO.N,-12V*%
X42120000Y-111370000D02*
X43351000Y-112601000D01*
X43351000Y-112601000D02*
X52149000Y-112601000D01*
X52149000Y-112601000D02*
X53250000Y-111500000D01*
%TO.N,12V*%
X34500000Y-111370000D02*
X35601000Y-110269000D01*
X35601000Y-110269000D02*
X44769000Y-110269000D01*
X44769000Y-110269000D02*
X46000000Y-111500000D01*
%TO.N,GND*%
X34500000Y-113910000D02*
X42120000Y-113910000D01*
X34500000Y-108830000D02*
X42120000Y-108830000D01*
%TO.N,Net-(J14-Pin_1)*%
X46170000Y-144250000D02*
X45180050Y-144250000D01*
X45180050Y-144250000D02*
X38080000Y-137149950D01*
X38080000Y-137149950D02*
X38080000Y-127000000D01*
%TO.N,Net-(R10-Pad2)*%
X56330000Y-144250000D02*
X55229000Y-145351000D01*
X55229000Y-145351000D02*
X45713950Y-145351000D01*
X45713950Y-145351000D02*
X33750000Y-133387050D01*
X33750000Y-133387050D02*
X33750000Y-119740000D01*
X33750000Y-119740000D02*
X34500000Y-118990000D01*
%TO.N,Net-(J16-Pin_1)*%
X88660000Y-144250000D02*
X90182900Y-144250000D01*
X96580000Y-137852900D02*
X96580000Y-127024938D01*
X90182900Y-144250000D02*
X96580000Y-137852900D01*
%TO.N,Net-(R12-Pad2)*%
X79750000Y-145500000D02*
X89500000Y-145500000D01*
X78500000Y-144250000D02*
X79750000Y-145500000D01*
X89500000Y-145500000D02*
X101500000Y-133500000D01*
X101500000Y-133500000D02*
X101500000Y-118500000D01*
%TO.N,-12V*%
X45920000Y-17500000D02*
X31601000Y-31819000D01*
X31601000Y-31819000D02*
X31601000Y-110028050D01*
X31601000Y-110028050D02*
X34043950Y-112471000D01*
X34043950Y-112471000D02*
X41019000Y-112471000D01*
X41019000Y-112471000D02*
X42120000Y-111370000D01*
%TO.N,Net-(J2-Pin_2)*%
X56080000Y-46880000D02*
X55960000Y-47000000D01*
X56080000Y-30500000D02*
X56080000Y-46880000D01*
%TO.N,Net-(J4-Pin_2)*%
X56040000Y-75410000D02*
X55950000Y-75500000D01*
X56040000Y-59300000D02*
X56040000Y-75410000D01*
%TO.N,Net-(J6-Pin_2)*%
X56080000Y-103870000D02*
X55950000Y-104000000D01*
X56080000Y-88000000D02*
X56080000Y-103870000D01*
%TO.N,Net-(J8-Pin_2)*%
X78580000Y-46960000D02*
X78540000Y-47000000D01*
X78580000Y-30500000D02*
X78580000Y-46960000D01*
%TO.N,Net-(J10-Pin_2)*%
X78580000Y-75420000D02*
X78500000Y-75500000D01*
X78580000Y-59500000D02*
X78580000Y-75420000D01*
%TO.N,Net-(J12-Pin_2)*%
X78580000Y-103920000D02*
X78500000Y-104000000D01*
X78580000Y-88000000D02*
X78580000Y-103920000D01*
%TO.N,Net-(J1-Pin_1)*%
X58500000Y-33080000D02*
X58500000Y-47000000D01*
X61080000Y-30500000D02*
X58500000Y-33080000D01*
%TO.N,GND*%
X76000000Y-33500000D02*
X76000000Y-47000000D01*
X73500000Y-26500000D02*
X73500000Y-30500000D01*
X73500000Y-31000000D02*
X76000000Y-33500000D01*
X51000000Y-88000000D02*
X51000000Y-101590000D01*
X76000000Y-57000000D02*
X73500000Y-59500000D01*
X48460000Y-20040000D02*
X51000000Y-22580000D01*
X51000000Y-22580000D02*
X51000000Y-30500000D01*
X75960000Y-85540000D02*
X73500000Y-88000000D01*
X73500000Y-59500000D02*
X73500000Y-73040000D01*
X73500000Y-73040000D02*
X75960000Y-75500000D01*
X53410000Y-85590000D02*
X51000000Y-88000000D01*
X65889000Y-16349000D02*
X67040000Y-17500000D01*
X73500000Y-101540000D02*
X75960000Y-104000000D01*
X75960000Y-75500000D02*
X75960000Y-85540000D01*
X68191000Y-16349000D02*
X84889000Y-16349000D01*
X48460000Y-17500000D02*
X48460000Y-20040000D01*
X48460000Y-17500000D02*
X49611000Y-16349000D01*
X73500000Y-30500000D02*
X73500000Y-31000000D01*
X50960000Y-73050000D02*
X53410000Y-75500000D01*
X73500000Y-88000000D02*
X73500000Y-101540000D01*
X53410000Y-75500000D02*
X53410000Y-85590000D01*
X67040000Y-20040000D02*
X73500000Y-26500000D01*
X67040000Y-17500000D02*
X67040000Y-20040000D01*
X67040000Y-17500000D02*
X68191000Y-16349000D01*
X51000000Y-30500000D02*
X51000000Y-44580000D01*
X76000000Y-47000000D02*
X76000000Y-57000000D01*
X86040000Y-17500000D02*
X86040000Y-20040000D01*
X53420000Y-56840000D02*
X50960000Y-59300000D01*
X84889000Y-16349000D02*
X86040000Y-17500000D01*
X50960000Y-59300000D02*
X50960000Y-73050000D01*
X51000000Y-101590000D02*
X53410000Y-104000000D01*
X53420000Y-47000000D02*
X53420000Y-56840000D01*
X49611000Y-16349000D02*
X65889000Y-16349000D01*
X51000000Y-44580000D02*
X53420000Y-47000000D01*
%TO.N,Net-(J3-Pin_1)*%
X58490000Y-61850000D02*
X58490000Y-75500000D01*
X61040000Y-59300000D02*
X58490000Y-61850000D01*
%TO.N,Net-(J5-Pin_1)*%
X58490000Y-90590000D02*
X58490000Y-104000000D01*
X61080000Y-88000000D02*
X58490000Y-90590000D01*
%TO.N,Net-(J7-Pin_1)*%
X83580000Y-30500000D02*
X81080000Y-33000000D01*
X81080000Y-33000000D02*
X81080000Y-47000000D01*
%TO.N,Net-(J10-Pin_3)*%
X83580000Y-59500000D02*
X81040000Y-62040000D01*
X81040000Y-62040000D02*
X81040000Y-75500000D01*
%TO.N,Net-(J11-Pin_1)*%
X81040000Y-90540000D02*
X81040000Y-104000000D01*
X83580000Y-88000000D02*
X81040000Y-90540000D01*
%TO.N,Net-(J13-Pin_1)*%
X51080000Y-120500000D02*
X51080000Y-134090000D01*
X51080000Y-134090000D02*
X53490000Y-136500000D01*
%TO.N,Net-(J13-Pin_2)*%
X56160000Y-136370000D02*
X56030000Y-136500000D01*
X56160000Y-120500000D02*
X56160000Y-136370000D01*
%TO.N,Net-(J15-Pin_1)*%
X73580000Y-120500000D02*
X73580000Y-134040000D01*
X73580000Y-134040000D02*
X76040000Y-136500000D01*
%TO.N,Net-(J15-Pin_2)*%
X78660000Y-120500000D02*
X78660000Y-136420000D01*
X78660000Y-136420000D02*
X78580000Y-136500000D01*
%TD*%
M02*
