M48
; DRILL file {KiCad 9.0.6} date 2026-01-10T02:04:42+1100
; FORMAT={-:-/ absolute / metric / decimal}
; #@! TF.CreationDate,2026-01-10T02:04:42+11:00
; #@! TF.GenerationSoftware,Kicad,Pcbnew,9.0.6
; #@! TF.FileFunction,Plated,1,2,PTH
FMAT,2
METRIC
; #@! TA.AperFunction,Plated,PTH,ComponentDrill
T1C0.800
; #@! TA.AperFunction,Plated,PTH,ComponentDrill
T2C1.000
; #@! TA.AperFunction,Plated,PTH,ComponentDrill
T3C6.000
%
G90
G05
T1
X52.34Y-107.59
X52.34Y-112.59
X52.367Y-97.34
X52.367Y-102.34
X53.92Y-91.0
X56.46Y-91.0
X59.0Y-91.0
X62.5Y-107.59
X62.5Y-112.59
X62.527Y-97.34
X62.527Y-102.34
X64.34Y-87.25
X64.564Y-92.424
X66.88Y-97.39
X66.88Y-99.93
X66.88Y-102.47
X66.88Y-105.01
X66.88Y-107.55
X66.88Y-110.09
X66.88Y-112.63
X74.5Y-87.25
X74.5Y-97.39
X74.5Y-99.93
X74.5Y-102.47
X74.5Y-105.01
X74.5Y-107.55
X74.5Y-110.09
X74.5Y-112.63
X74.724Y-92.424
X77.5Y-118.92
X77.5Y-129.08
X78.5Y-41.59
X78.5Y-51.75
X78.92Y-107.59
X78.92Y-112.59
X78.979Y-87.254
X79.0Y-92.59
X79.0Y-97.59
X79.0Y-102.59
X80.151Y-37.401
X83.231Y-32.401
X84.0Y-41.59
X84.0Y-51.75
X88.231Y-32.401
X89.017Y-41.551
X89.017Y-51.711
X89.08Y-107.59
X89.08Y-112.59
X89.139Y-87.254
X89.16Y-92.59
X89.16Y-97.59
X89.16Y-102.59
X90.311Y-37.401
X92.42Y-115.75
X93.0Y-118.92
X93.0Y-129.08
X94.0Y-41.59
X94.0Y-51.75
X94.5Y-92.55
X94.5Y-95.09
X94.5Y-97.63
X94.5Y-100.17
X94.5Y-102.71
X94.5Y-105.25
X94.5Y-107.79
X94.5Y-110.33
X96.0Y-84.0
X96.0Y-89.0
X100.0Y-84.0
X100.0Y-89.0
X102.12Y-92.55
X102.12Y-95.09
X102.12Y-97.63
X102.12Y-100.17
X102.12Y-102.71
X102.12Y-105.25
X102.12Y-107.79
X102.12Y-110.33
X102.58Y-115.75
T2
X57.0Y-60.5
X59.31Y-76.75
X61.85Y-76.75
X62.08Y-60.5
X64.39Y-76.75
X65.731Y-30.651
X65.731Y-33.191
X67.08Y-60.5
X68.271Y-30.651
X68.271Y-33.191
X70.811Y-30.651
X70.811Y-33.191
X80.0Y-60.5
X82.41Y-76.75
X84.95Y-76.75
X85.08Y-60.5
X87.49Y-76.75
X90.08Y-60.5
X99.151Y-30.651
X99.151Y-33.191
X101.691Y-30.651
X101.691Y-33.191
X103.095Y-60.5
X104.231Y-30.651
X104.231Y-33.191
X105.51Y-76.75
X108.05Y-76.75
X108.175Y-60.5
X110.59Y-76.75
X113.175Y-60.5
T3
X62.064Y-46.67
X69.5Y-124.025
X85.0Y-124.025
X100.5Y-124.025
X107.996Y-46.573
T2
G00X109.625Y-97.0
M15
G01X111.375Y-97.0
M16
G05
G00X109.625Y-101.5
M15
G01X111.375Y-101.5
M16
G05
G00X109.625Y-106.0
M15
G01X111.375Y-106.0
M16
G05
M30
