%TF.GenerationSoftware,KiCad,Pcbnew,9.0.6*%
%TF.CreationDate,2026-01-21T23:07:25+11:00*%
%TF.ProjectId,oscillator,6f736369-6c6c-4617-946f-722e6b696361,rev?*%
%TF.SameCoordinates,Original*%
%TF.FileFunction,Legend,Bot*%
%TF.FilePolarity,Positive*%
%FSLAX46Y46*%
G04 Gerber Fmt 4.6, Leading zero omitted, Abs format (unit mm)*
G04 Created by KiCad (PCBNEW 9.0.6) date 2026-01-21 23:07:25*
%MOMM*%
%LPD*%
G01*
G04 APERTURE LIST*
%ADD10C,0.100000*%
G04 APERTURE END LIST*
D10*
X56833333Y-32433609D02*
X57166666Y-32433609D01*
X57166666Y-32957419D02*
X57166666Y-31957419D01*
X57166666Y-31957419D02*
X56690476Y-31957419D01*
X55785714Y-32957419D02*
X56357142Y-32957419D01*
X56071428Y-32957419D02*
X56071428Y-31957419D01*
X56071428Y-31957419D02*
X56166666Y-32100276D01*
X56166666Y-32100276D02*
X56261904Y-32195514D01*
X56261904Y-32195514D02*
X56357142Y-32243133D01*
X113833333Y-32433609D02*
X114166666Y-32433609D01*
X114166666Y-32957419D02*
X114166666Y-31957419D01*
X114166666Y-31957419D02*
X113690476Y-31957419D01*
X113357142Y-32052657D02*
X113309523Y-32005038D01*
X113309523Y-32005038D02*
X113214285Y-31957419D01*
X113214285Y-31957419D02*
X112976190Y-31957419D01*
X112976190Y-31957419D02*
X112880952Y-32005038D01*
X112880952Y-32005038D02*
X112833333Y-32052657D01*
X112833333Y-32052657D02*
X112785714Y-32147895D01*
X112785714Y-32147895D02*
X112785714Y-32243133D01*
X112785714Y-32243133D02*
X112833333Y-32385990D01*
X112833333Y-32385990D02*
X113404761Y-32957419D01*
X113404761Y-32957419D02*
X112785714Y-32957419D01*
X113833333Y-125933609D02*
X114166666Y-125933609D01*
X114166666Y-126457419D02*
X114166666Y-125457419D01*
X114166666Y-125457419D02*
X113690476Y-125457419D01*
X112880952Y-125790752D02*
X112880952Y-126457419D01*
X113119047Y-125409800D02*
X113357142Y-126124085D01*
X113357142Y-126124085D02*
X112738095Y-126124085D01*
X56833333Y-125933609D02*
X57166666Y-125933609D01*
X57166666Y-126457419D02*
X57166666Y-125457419D01*
X57166666Y-125457419D02*
X56690476Y-125457419D01*
X56404761Y-125457419D02*
X55785714Y-125457419D01*
X55785714Y-125457419D02*
X56119047Y-125838371D01*
X56119047Y-125838371D02*
X55976190Y-125838371D01*
X55976190Y-125838371D02*
X55880952Y-125885990D01*
X55880952Y-125885990D02*
X55833333Y-125933609D01*
X55833333Y-125933609D02*
X55785714Y-126028847D01*
X55785714Y-126028847D02*
X55785714Y-126266942D01*
X55785714Y-126266942D02*
X55833333Y-126362180D01*
X55833333Y-126362180D02*
X55880952Y-126409800D01*
X55880952Y-126409800D02*
X55976190Y-126457419D01*
X55976190Y-126457419D02*
X56261904Y-126457419D01*
X56261904Y-126457419D02*
X56357142Y-126409800D01*
X56357142Y-126409800D02*
X56404761Y-126362180D01*
%TO.C,F1*%
X63000000Y-26500000D02*
X50000000Y-26500000D01*
X50000000Y-40000000D01*
X63000000Y-40000000D01*
X63000000Y-26500000D01*
%TO.C,F2*%
X120000000Y-26500000D02*
X107000000Y-26500000D01*
X107000000Y-40000000D01*
X120000000Y-40000000D01*
X120000000Y-26500000D01*
%TO.C,F4*%
X120000000Y-120000000D02*
X107000000Y-120000000D01*
X107000000Y-133500000D01*
X120000000Y-133500000D01*
X120000000Y-120000000D01*
%TO.C,F3*%
X63000000Y-120000000D02*
X50000000Y-120000000D01*
X50000000Y-133500000D01*
X63000000Y-133500000D01*
X63000000Y-120000000D01*
%TD*%
M02*
