%TF.GenerationSoftware,KiCad,Pcbnew,9.0.5*%
%TF.CreationDate,2025-12-27T15:29:38+11:00*%
%TF.ProjectId,oscillator,6f736369-6c6c-4617-946f-722e6b696361,rev?*%
%TF.SameCoordinates,Original*%
%TF.FileFunction,Legend,Top*%
%TF.FilePolarity,Positive*%
%FSLAX46Y46*%
G04 Gerber Fmt 4.6, Leading zero omitted, Abs format (unit mm)*
G04 Created by KiCad (PCBNEW 9.0.5) date 2025-12-27 15:29:38*
%MOMM*%
%LPD*%
G01*
G04 APERTURE LIST*
%ADD10C,0.100000*%
%ADD11C,0.150000*%
%ADD12C,0.120000*%
G04 APERTURE END LIST*
D10*
X51661027Y-86872419D02*
X52232455Y-86872419D01*
X51946741Y-87872419D02*
X51946741Y-86872419D01*
X52565789Y-86872419D02*
X52565789Y-87681942D01*
X52565789Y-87681942D02*
X52613408Y-87777180D01*
X52613408Y-87777180D02*
X52661027Y-87824800D01*
X52661027Y-87824800D02*
X52756265Y-87872419D01*
X52756265Y-87872419D02*
X52946741Y-87872419D01*
X52946741Y-87872419D02*
X53041979Y-87824800D01*
X53041979Y-87824800D02*
X53089598Y-87777180D01*
X53089598Y-87777180D02*
X53137217Y-87681942D01*
X53137217Y-87681942D02*
X53137217Y-86872419D01*
X53613408Y-87872419D02*
X53613408Y-86872419D01*
X53613408Y-86872419D02*
X54184836Y-87872419D01*
X54184836Y-87872419D02*
X54184836Y-86872419D01*
X54661027Y-87348609D02*
X54994360Y-87348609D01*
X55137217Y-87872419D02*
X54661027Y-87872419D01*
X54661027Y-87872419D02*
X54661027Y-86872419D01*
X54661027Y-86872419D02*
X55137217Y-86872419D01*
X106661027Y-92872419D02*
X106994360Y-93872419D01*
X106994360Y-93872419D02*
X107327693Y-92872419D01*
X108232455Y-93777180D02*
X108184836Y-93824800D01*
X108184836Y-93824800D02*
X108041979Y-93872419D01*
X108041979Y-93872419D02*
X107946741Y-93872419D01*
X107946741Y-93872419D02*
X107803884Y-93824800D01*
X107803884Y-93824800D02*
X107708646Y-93729561D01*
X107708646Y-93729561D02*
X107661027Y-93634323D01*
X107661027Y-93634323D02*
X107613408Y-93443847D01*
X107613408Y-93443847D02*
X107613408Y-93300990D01*
X107613408Y-93300990D02*
X107661027Y-93110514D01*
X107661027Y-93110514D02*
X107708646Y-93015276D01*
X107708646Y-93015276D02*
X107803884Y-92920038D01*
X107803884Y-92920038D02*
X107946741Y-92872419D01*
X107946741Y-92872419D02*
X108041979Y-92872419D01*
X108041979Y-92872419D02*
X108184836Y-92920038D01*
X108184836Y-92920038D02*
X108232455Y-92967657D01*
X108851503Y-92872419D02*
X109041979Y-92872419D01*
X109041979Y-92872419D02*
X109137217Y-92920038D01*
X109137217Y-92920038D02*
X109232455Y-93015276D01*
X109232455Y-93015276D02*
X109280074Y-93205752D01*
X109280074Y-93205752D02*
X109280074Y-93539085D01*
X109280074Y-93539085D02*
X109232455Y-93729561D01*
X109232455Y-93729561D02*
X109137217Y-93824800D01*
X109137217Y-93824800D02*
X109041979Y-93872419D01*
X109041979Y-93872419D02*
X108851503Y-93872419D01*
X108851503Y-93872419D02*
X108756265Y-93824800D01*
X108756265Y-93824800D02*
X108661027Y-93729561D01*
X108661027Y-93729561D02*
X108613408Y-93539085D01*
X108613408Y-93539085D02*
X108613408Y-93205752D01*
X108613408Y-93205752D02*
X108661027Y-93015276D01*
X108661027Y-93015276D02*
X108756265Y-92920038D01*
X108756265Y-92920038D02*
X108851503Y-92872419D01*
X111184836Y-92824800D02*
X110327694Y-94110514D01*
X112756265Y-93872419D02*
X112280075Y-93872419D01*
X112280075Y-93872419D02*
X112280075Y-92872419D01*
X113422932Y-93348609D02*
X113089599Y-93348609D01*
X113089599Y-93872419D02*
X113089599Y-92872419D01*
X113089599Y-92872419D02*
X113565789Y-92872419D01*
X114137218Y-92872419D02*
X114327694Y-92872419D01*
X114327694Y-92872419D02*
X114422932Y-92920038D01*
X114422932Y-92920038D02*
X114518170Y-93015276D01*
X114518170Y-93015276D02*
X114565789Y-93205752D01*
X114565789Y-93205752D02*
X114565789Y-93539085D01*
X114565789Y-93539085D02*
X114518170Y-93729561D01*
X114518170Y-93729561D02*
X114422932Y-93824800D01*
X114422932Y-93824800D02*
X114327694Y-93872419D01*
X114327694Y-93872419D02*
X114137218Y-93872419D01*
X114137218Y-93872419D02*
X114041980Y-93824800D01*
X114041980Y-93824800D02*
X113946742Y-93729561D01*
X113946742Y-93729561D02*
X113899123Y-93539085D01*
X113899123Y-93539085D02*
X113899123Y-93205752D01*
X113899123Y-93205752D02*
X113946742Y-93015276D01*
X113946742Y-93015276D02*
X114041980Y-92920038D01*
X114041980Y-92920038D02*
X114137218Y-92872419D01*
X57153884Y-82622419D02*
X57153884Y-81622419D01*
X57153884Y-81622419D02*
X57534836Y-81622419D01*
X57534836Y-81622419D02*
X57630074Y-81670038D01*
X57630074Y-81670038D02*
X57677693Y-81717657D01*
X57677693Y-81717657D02*
X57725312Y-81812895D01*
X57725312Y-81812895D02*
X57725312Y-81955752D01*
X57725312Y-81955752D02*
X57677693Y-82050990D01*
X57677693Y-82050990D02*
X57630074Y-82098609D01*
X57630074Y-82098609D02*
X57534836Y-82146228D01*
X57534836Y-82146228D02*
X57153884Y-82146228D01*
X58058646Y-81622419D02*
X58296741Y-82622419D01*
X58296741Y-82622419D02*
X58487217Y-81908133D01*
X58487217Y-81908133D02*
X58677693Y-82622419D01*
X58677693Y-82622419D02*
X58915789Y-81622419D01*
X59296741Y-82622419D02*
X59296741Y-81622419D01*
X59296741Y-81622419D02*
X59630074Y-82336704D01*
X59630074Y-82336704D02*
X59963407Y-81622419D01*
X59963407Y-81622419D02*
X59963407Y-82622419D01*
X61391979Y-81622419D02*
X61582455Y-81622419D01*
X61582455Y-81622419D02*
X61677693Y-81670038D01*
X61677693Y-81670038D02*
X61772931Y-81765276D01*
X61772931Y-81765276D02*
X61820550Y-81955752D01*
X61820550Y-81955752D02*
X61820550Y-82289085D01*
X61820550Y-82289085D02*
X61772931Y-82479561D01*
X61772931Y-82479561D02*
X61677693Y-82574800D01*
X61677693Y-82574800D02*
X61582455Y-82622419D01*
X61582455Y-82622419D02*
X61391979Y-82622419D01*
X61391979Y-82622419D02*
X61296741Y-82574800D01*
X61296741Y-82574800D02*
X61201503Y-82479561D01*
X61201503Y-82479561D02*
X61153884Y-82289085D01*
X61153884Y-82289085D02*
X61153884Y-81955752D01*
X61153884Y-81955752D02*
X61201503Y-81765276D01*
X61201503Y-81765276D02*
X61296741Y-81670038D01*
X61296741Y-81670038D02*
X61391979Y-81622419D01*
X62582455Y-82098609D02*
X62249122Y-82098609D01*
X62249122Y-82622419D02*
X62249122Y-81622419D01*
X62249122Y-81622419D02*
X62725312Y-81622419D01*
X63439598Y-82098609D02*
X63106265Y-82098609D01*
X63106265Y-82622419D02*
X63106265Y-81622419D01*
X63106265Y-81622419D02*
X63582455Y-81622419D01*
X63915789Y-82574800D02*
X64058646Y-82622419D01*
X64058646Y-82622419D02*
X64296741Y-82622419D01*
X64296741Y-82622419D02*
X64391979Y-82574800D01*
X64391979Y-82574800D02*
X64439598Y-82527180D01*
X64439598Y-82527180D02*
X64487217Y-82431942D01*
X64487217Y-82431942D02*
X64487217Y-82336704D01*
X64487217Y-82336704D02*
X64439598Y-82241466D01*
X64439598Y-82241466D02*
X64391979Y-82193847D01*
X64391979Y-82193847D02*
X64296741Y-82146228D01*
X64296741Y-82146228D02*
X64106265Y-82098609D01*
X64106265Y-82098609D02*
X64011027Y-82050990D01*
X64011027Y-82050990D02*
X63963408Y-82003371D01*
X63963408Y-82003371D02*
X63915789Y-81908133D01*
X63915789Y-81908133D02*
X63915789Y-81812895D01*
X63915789Y-81812895D02*
X63963408Y-81717657D01*
X63963408Y-81717657D02*
X64011027Y-81670038D01*
X64011027Y-81670038D02*
X64106265Y-81622419D01*
X64106265Y-81622419D02*
X64344360Y-81622419D01*
X64344360Y-81622419D02*
X64487217Y-81670038D01*
X64915789Y-82098609D02*
X65249122Y-82098609D01*
X65391979Y-82622419D02*
X64915789Y-82622419D01*
X64915789Y-82622419D02*
X64915789Y-81622419D01*
X64915789Y-81622419D02*
X65391979Y-81622419D01*
X65677694Y-81622419D02*
X66249122Y-81622419D01*
X65963408Y-82622419D02*
X65963408Y-81622419D01*
X82256265Y-132824800D02*
X82399122Y-132872419D01*
X82399122Y-132872419D02*
X82637217Y-132872419D01*
X82637217Y-132872419D02*
X82732455Y-132824800D01*
X82732455Y-132824800D02*
X82780074Y-132777180D01*
X82780074Y-132777180D02*
X82827693Y-132681942D01*
X82827693Y-132681942D02*
X82827693Y-132586704D01*
X82827693Y-132586704D02*
X82780074Y-132491466D01*
X82780074Y-132491466D02*
X82732455Y-132443847D01*
X82732455Y-132443847D02*
X82637217Y-132396228D01*
X82637217Y-132396228D02*
X82446741Y-132348609D01*
X82446741Y-132348609D02*
X82351503Y-132300990D01*
X82351503Y-132300990D02*
X82303884Y-132253371D01*
X82303884Y-132253371D02*
X82256265Y-132158133D01*
X82256265Y-132158133D02*
X82256265Y-132062895D01*
X82256265Y-132062895D02*
X82303884Y-131967657D01*
X82303884Y-131967657D02*
X82351503Y-131920038D01*
X82351503Y-131920038D02*
X82446741Y-131872419D01*
X82446741Y-131872419D02*
X82684836Y-131872419D01*
X82684836Y-131872419D02*
X82827693Y-131920038D01*
X83208646Y-132586704D02*
X83684836Y-132586704D01*
X83113408Y-132872419D02*
X83446741Y-131872419D01*
X83446741Y-131872419D02*
X83780074Y-132872419D01*
X84018170Y-131872419D02*
X84256265Y-132872419D01*
X84256265Y-132872419D02*
X84446741Y-132158133D01*
X84446741Y-132158133D02*
X84637217Y-132872419D01*
X84637217Y-132872419D02*
X84875313Y-131872419D01*
X85113408Y-131872419D02*
X85684836Y-131872419D01*
X85399122Y-132872419D02*
X85399122Y-131872419D01*
X86208646Y-131872419D02*
X86399122Y-131872419D01*
X86399122Y-131872419D02*
X86494360Y-131920038D01*
X86494360Y-131920038D02*
X86589598Y-132015276D01*
X86589598Y-132015276D02*
X86637217Y-132205752D01*
X86637217Y-132205752D02*
X86637217Y-132539085D01*
X86637217Y-132539085D02*
X86589598Y-132729561D01*
X86589598Y-132729561D02*
X86494360Y-132824800D01*
X86494360Y-132824800D02*
X86399122Y-132872419D01*
X86399122Y-132872419D02*
X86208646Y-132872419D01*
X86208646Y-132872419D02*
X86113408Y-132824800D01*
X86113408Y-132824800D02*
X86018170Y-132729561D01*
X86018170Y-132729561D02*
X85970551Y-132539085D01*
X85970551Y-132539085D02*
X85970551Y-132205752D01*
X85970551Y-132205752D02*
X86018170Y-132015276D01*
X86018170Y-132015276D02*
X86113408Y-131920038D01*
X86113408Y-131920038D02*
X86208646Y-131872419D01*
X87256265Y-131872419D02*
X87446741Y-131872419D01*
X87446741Y-131872419D02*
X87541979Y-131920038D01*
X87541979Y-131920038D02*
X87637217Y-132015276D01*
X87637217Y-132015276D02*
X87684836Y-132205752D01*
X87684836Y-132205752D02*
X87684836Y-132539085D01*
X87684836Y-132539085D02*
X87637217Y-132729561D01*
X87637217Y-132729561D02*
X87541979Y-132824800D01*
X87541979Y-132824800D02*
X87446741Y-132872419D01*
X87446741Y-132872419D02*
X87256265Y-132872419D01*
X87256265Y-132872419D02*
X87161027Y-132824800D01*
X87161027Y-132824800D02*
X87065789Y-132729561D01*
X87065789Y-132729561D02*
X87018170Y-132539085D01*
X87018170Y-132539085D02*
X87018170Y-132205752D01*
X87018170Y-132205752D02*
X87065789Y-132015276D01*
X87065789Y-132015276D02*
X87161027Y-131920038D01*
X87161027Y-131920038D02*
X87256265Y-131872419D01*
X87970551Y-131872419D02*
X88541979Y-131872419D01*
X88256265Y-132872419D02*
X88256265Y-131872419D01*
X88875313Y-132872419D02*
X88875313Y-131872419D01*
X88875313Y-132348609D02*
X89446741Y-132348609D01*
X89446741Y-132872419D02*
X89446741Y-131872419D01*
X103987217Y-82098609D02*
X103653884Y-82098609D01*
X103653884Y-82622419D02*
X103653884Y-81622419D01*
X103653884Y-81622419D02*
X104130074Y-81622419D01*
X105082455Y-82622419D02*
X104749122Y-82146228D01*
X104511027Y-82622419D02*
X104511027Y-81622419D01*
X104511027Y-81622419D02*
X104891979Y-81622419D01*
X104891979Y-81622419D02*
X104987217Y-81670038D01*
X104987217Y-81670038D02*
X105034836Y-81717657D01*
X105034836Y-81717657D02*
X105082455Y-81812895D01*
X105082455Y-81812895D02*
X105082455Y-81955752D01*
X105082455Y-81955752D02*
X105034836Y-82050990D01*
X105034836Y-82050990D02*
X104987217Y-82098609D01*
X104987217Y-82098609D02*
X104891979Y-82146228D01*
X104891979Y-82146228D02*
X104511027Y-82146228D01*
X105511027Y-82098609D02*
X105844360Y-82098609D01*
X105987217Y-82622419D02*
X105511027Y-82622419D01*
X105511027Y-82622419D02*
X105511027Y-81622419D01*
X105511027Y-81622419D02*
X105987217Y-81622419D01*
X107082455Y-82717657D02*
X106987217Y-82670038D01*
X106987217Y-82670038D02*
X106891979Y-82574800D01*
X106891979Y-82574800D02*
X106749122Y-82431942D01*
X106749122Y-82431942D02*
X106653884Y-82384323D01*
X106653884Y-82384323D02*
X106558646Y-82384323D01*
X106606265Y-82622419D02*
X106511027Y-82574800D01*
X106511027Y-82574800D02*
X106415789Y-82479561D01*
X106415789Y-82479561D02*
X106368170Y-82289085D01*
X106368170Y-82289085D02*
X106368170Y-81955752D01*
X106368170Y-81955752D02*
X106415789Y-81765276D01*
X106415789Y-81765276D02*
X106511027Y-81670038D01*
X106511027Y-81670038D02*
X106606265Y-81622419D01*
X106606265Y-81622419D02*
X106796741Y-81622419D01*
X106796741Y-81622419D02*
X106891979Y-81670038D01*
X106891979Y-81670038D02*
X106987217Y-81765276D01*
X106987217Y-81765276D02*
X107034836Y-81955752D01*
X107034836Y-81955752D02*
X107034836Y-82289085D01*
X107034836Y-82289085D02*
X106987217Y-82479561D01*
X106987217Y-82479561D02*
X106891979Y-82574800D01*
X106891979Y-82574800D02*
X106796741Y-82622419D01*
X106796741Y-82622419D02*
X106606265Y-82622419D01*
X108415789Y-81622419D02*
X108606265Y-81622419D01*
X108606265Y-81622419D02*
X108701503Y-81670038D01*
X108701503Y-81670038D02*
X108796741Y-81765276D01*
X108796741Y-81765276D02*
X108844360Y-81955752D01*
X108844360Y-81955752D02*
X108844360Y-82289085D01*
X108844360Y-82289085D02*
X108796741Y-82479561D01*
X108796741Y-82479561D02*
X108701503Y-82574800D01*
X108701503Y-82574800D02*
X108606265Y-82622419D01*
X108606265Y-82622419D02*
X108415789Y-82622419D01*
X108415789Y-82622419D02*
X108320551Y-82574800D01*
X108320551Y-82574800D02*
X108225313Y-82479561D01*
X108225313Y-82479561D02*
X108177694Y-82289085D01*
X108177694Y-82289085D02*
X108177694Y-81955752D01*
X108177694Y-81955752D02*
X108225313Y-81765276D01*
X108225313Y-81765276D02*
X108320551Y-81670038D01*
X108320551Y-81670038D02*
X108415789Y-81622419D01*
X109606265Y-82098609D02*
X109272932Y-82098609D01*
X109272932Y-82622419D02*
X109272932Y-81622419D01*
X109272932Y-81622419D02*
X109749122Y-81622419D01*
X110463408Y-82098609D02*
X110130075Y-82098609D01*
X110130075Y-82622419D02*
X110130075Y-81622419D01*
X110130075Y-81622419D02*
X110606265Y-81622419D01*
X110939599Y-82574800D02*
X111082456Y-82622419D01*
X111082456Y-82622419D02*
X111320551Y-82622419D01*
X111320551Y-82622419D02*
X111415789Y-82574800D01*
X111415789Y-82574800D02*
X111463408Y-82527180D01*
X111463408Y-82527180D02*
X111511027Y-82431942D01*
X111511027Y-82431942D02*
X111511027Y-82336704D01*
X111511027Y-82336704D02*
X111463408Y-82241466D01*
X111463408Y-82241466D02*
X111415789Y-82193847D01*
X111415789Y-82193847D02*
X111320551Y-82146228D01*
X111320551Y-82146228D02*
X111130075Y-82098609D01*
X111130075Y-82098609D02*
X111034837Y-82050990D01*
X111034837Y-82050990D02*
X110987218Y-82003371D01*
X110987218Y-82003371D02*
X110939599Y-81908133D01*
X110939599Y-81908133D02*
X110939599Y-81812895D01*
X110939599Y-81812895D02*
X110987218Y-81717657D01*
X110987218Y-81717657D02*
X111034837Y-81670038D01*
X111034837Y-81670038D02*
X111130075Y-81622419D01*
X111130075Y-81622419D02*
X111368170Y-81622419D01*
X111368170Y-81622419D02*
X111511027Y-81670038D01*
X111939599Y-82098609D02*
X112272932Y-82098609D01*
X112415789Y-82622419D02*
X111939599Y-82622419D01*
X111939599Y-82622419D02*
X111939599Y-81622419D01*
X111939599Y-81622419D02*
X112415789Y-81622419D01*
X112701504Y-81622419D02*
X113272932Y-81622419D01*
X112987218Y-82622419D02*
X112987218Y-81622419D01*
X79653884Y-82622419D02*
X79653884Y-81622419D01*
X79653884Y-81622419D02*
X80034836Y-81622419D01*
X80034836Y-81622419D02*
X80130074Y-81670038D01*
X80130074Y-81670038D02*
X80177693Y-81717657D01*
X80177693Y-81717657D02*
X80225312Y-81812895D01*
X80225312Y-81812895D02*
X80225312Y-81955752D01*
X80225312Y-81955752D02*
X80177693Y-82050990D01*
X80177693Y-82050990D02*
X80130074Y-82098609D01*
X80130074Y-82098609D02*
X80034836Y-82146228D01*
X80034836Y-82146228D02*
X79653884Y-82146228D01*
X80558646Y-81622419D02*
X80796741Y-82622419D01*
X80796741Y-82622419D02*
X80987217Y-81908133D01*
X80987217Y-81908133D02*
X81177693Y-82622419D01*
X81177693Y-82622419D02*
X81415789Y-81622419D01*
X81796741Y-82622419D02*
X81796741Y-81622419D01*
X81796741Y-81622419D02*
X82130074Y-82336704D01*
X82130074Y-82336704D02*
X82463407Y-81622419D01*
X82463407Y-81622419D02*
X82463407Y-82622419D01*
X84272931Y-82527180D02*
X84225312Y-82574800D01*
X84225312Y-82574800D02*
X84082455Y-82622419D01*
X84082455Y-82622419D02*
X83987217Y-82622419D01*
X83987217Y-82622419D02*
X83844360Y-82574800D01*
X83844360Y-82574800D02*
X83749122Y-82479561D01*
X83749122Y-82479561D02*
X83701503Y-82384323D01*
X83701503Y-82384323D02*
X83653884Y-82193847D01*
X83653884Y-82193847D02*
X83653884Y-82050990D01*
X83653884Y-82050990D02*
X83701503Y-81860514D01*
X83701503Y-81860514D02*
X83749122Y-81765276D01*
X83749122Y-81765276D02*
X83844360Y-81670038D01*
X83844360Y-81670038D02*
X83987217Y-81622419D01*
X83987217Y-81622419D02*
X84082455Y-81622419D01*
X84082455Y-81622419D02*
X84225312Y-81670038D01*
X84225312Y-81670038D02*
X84272931Y-81717657D01*
X84558646Y-81622419D02*
X84891979Y-82622419D01*
X84891979Y-82622419D02*
X85225312Y-81622419D01*
X86272932Y-82574800D02*
X86415789Y-82622419D01*
X86415789Y-82622419D02*
X86653884Y-82622419D01*
X86653884Y-82622419D02*
X86749122Y-82574800D01*
X86749122Y-82574800D02*
X86796741Y-82527180D01*
X86796741Y-82527180D02*
X86844360Y-82431942D01*
X86844360Y-82431942D02*
X86844360Y-82336704D01*
X86844360Y-82336704D02*
X86796741Y-82241466D01*
X86796741Y-82241466D02*
X86749122Y-82193847D01*
X86749122Y-82193847D02*
X86653884Y-82146228D01*
X86653884Y-82146228D02*
X86463408Y-82098609D01*
X86463408Y-82098609D02*
X86368170Y-82050990D01*
X86368170Y-82050990D02*
X86320551Y-82003371D01*
X86320551Y-82003371D02*
X86272932Y-81908133D01*
X86272932Y-81908133D02*
X86272932Y-81812895D01*
X86272932Y-81812895D02*
X86320551Y-81717657D01*
X86320551Y-81717657D02*
X86368170Y-81670038D01*
X86368170Y-81670038D02*
X86463408Y-81622419D01*
X86463408Y-81622419D02*
X86701503Y-81622419D01*
X86701503Y-81622419D02*
X86844360Y-81670038D01*
X87844360Y-82527180D02*
X87796741Y-82574800D01*
X87796741Y-82574800D02*
X87653884Y-82622419D01*
X87653884Y-82622419D02*
X87558646Y-82622419D01*
X87558646Y-82622419D02*
X87415789Y-82574800D01*
X87415789Y-82574800D02*
X87320551Y-82479561D01*
X87320551Y-82479561D02*
X87272932Y-82384323D01*
X87272932Y-82384323D02*
X87225313Y-82193847D01*
X87225313Y-82193847D02*
X87225313Y-82050990D01*
X87225313Y-82050990D02*
X87272932Y-81860514D01*
X87272932Y-81860514D02*
X87320551Y-81765276D01*
X87320551Y-81765276D02*
X87415789Y-81670038D01*
X87415789Y-81670038D02*
X87558646Y-81622419D01*
X87558646Y-81622419D02*
X87653884Y-81622419D01*
X87653884Y-81622419D02*
X87796741Y-81670038D01*
X87796741Y-81670038D02*
X87844360Y-81717657D01*
X88225313Y-82336704D02*
X88701503Y-82336704D01*
X88130075Y-82622419D02*
X88463408Y-81622419D01*
X88463408Y-81622419D02*
X88796741Y-82622419D01*
X89606265Y-82622419D02*
X89130075Y-82622419D01*
X89130075Y-82622419D02*
X89130075Y-81622419D01*
X89939599Y-82098609D02*
X90272932Y-82098609D01*
X90415789Y-82622419D02*
X89939599Y-82622419D01*
X89939599Y-82622419D02*
X89939599Y-81622419D01*
X89939599Y-81622419D02*
X90415789Y-81622419D01*
X116280074Y-107872419D02*
X115803884Y-107872419D01*
X115803884Y-107872419D02*
X115803884Y-106872419D01*
X116946741Y-107348609D02*
X116613408Y-107348609D01*
X116613408Y-107872419D02*
X116613408Y-106872419D01*
X116613408Y-106872419D02*
X117089598Y-106872419D01*
X117661027Y-106872419D02*
X117851503Y-106872419D01*
X117851503Y-106872419D02*
X117946741Y-106920038D01*
X117946741Y-106920038D02*
X118041979Y-107015276D01*
X118041979Y-107015276D02*
X118089598Y-107205752D01*
X118089598Y-107205752D02*
X118089598Y-107539085D01*
X118089598Y-107539085D02*
X118041979Y-107729561D01*
X118041979Y-107729561D02*
X117946741Y-107824800D01*
X117946741Y-107824800D02*
X117851503Y-107872419D01*
X117851503Y-107872419D02*
X117661027Y-107872419D01*
X117661027Y-107872419D02*
X117565789Y-107824800D01*
X117565789Y-107824800D02*
X117470551Y-107729561D01*
X117470551Y-107729561D02*
X117422932Y-107539085D01*
X117422932Y-107539085D02*
X117422932Y-107205752D01*
X117422932Y-107205752D02*
X117470551Y-107015276D01*
X117470551Y-107015276D02*
X117565789Y-106920038D01*
X117565789Y-106920038D02*
X117661027Y-106872419D01*
X115661027Y-94872419D02*
X115994360Y-95872419D01*
X115994360Y-95872419D02*
X116327693Y-94872419D01*
X117232455Y-95777180D02*
X117184836Y-95824800D01*
X117184836Y-95824800D02*
X117041979Y-95872419D01*
X117041979Y-95872419D02*
X116946741Y-95872419D01*
X116946741Y-95872419D02*
X116803884Y-95824800D01*
X116803884Y-95824800D02*
X116708646Y-95729561D01*
X116708646Y-95729561D02*
X116661027Y-95634323D01*
X116661027Y-95634323D02*
X116613408Y-95443847D01*
X116613408Y-95443847D02*
X116613408Y-95300990D01*
X116613408Y-95300990D02*
X116661027Y-95110514D01*
X116661027Y-95110514D02*
X116708646Y-95015276D01*
X116708646Y-95015276D02*
X116803884Y-94920038D01*
X116803884Y-94920038D02*
X116946741Y-94872419D01*
X116946741Y-94872419D02*
X117041979Y-94872419D01*
X117041979Y-94872419D02*
X117184836Y-94920038D01*
X117184836Y-94920038D02*
X117232455Y-94967657D01*
X117851503Y-94872419D02*
X118041979Y-94872419D01*
X118041979Y-94872419D02*
X118137217Y-94920038D01*
X118137217Y-94920038D02*
X118232455Y-95015276D01*
X118232455Y-95015276D02*
X118280074Y-95205752D01*
X118280074Y-95205752D02*
X118280074Y-95539085D01*
X118280074Y-95539085D02*
X118232455Y-95729561D01*
X118232455Y-95729561D02*
X118137217Y-95824800D01*
X118137217Y-95824800D02*
X118041979Y-95872419D01*
X118041979Y-95872419D02*
X117851503Y-95872419D01*
X117851503Y-95872419D02*
X117756265Y-95824800D01*
X117756265Y-95824800D02*
X117661027Y-95729561D01*
X117661027Y-95729561D02*
X117613408Y-95539085D01*
X117613408Y-95539085D02*
X117613408Y-95205752D01*
X117613408Y-95205752D02*
X117661027Y-95015276D01*
X117661027Y-95015276D02*
X117756265Y-94920038D01*
X117756265Y-94920038D02*
X117851503Y-94872419D01*
X51494360Y-131872419D02*
X51684836Y-131872419D01*
X51684836Y-131872419D02*
X51780074Y-131920038D01*
X51780074Y-131920038D02*
X51875312Y-132015276D01*
X51875312Y-132015276D02*
X51922931Y-132205752D01*
X51922931Y-132205752D02*
X51922931Y-132539085D01*
X51922931Y-132539085D02*
X51875312Y-132729561D01*
X51875312Y-132729561D02*
X51780074Y-132824800D01*
X51780074Y-132824800D02*
X51684836Y-132872419D01*
X51684836Y-132872419D02*
X51494360Y-132872419D01*
X51494360Y-132872419D02*
X51399122Y-132824800D01*
X51399122Y-132824800D02*
X51303884Y-132729561D01*
X51303884Y-132729561D02*
X51256265Y-132539085D01*
X51256265Y-132539085D02*
X51256265Y-132205752D01*
X51256265Y-132205752D02*
X51303884Y-132015276D01*
X51303884Y-132015276D02*
X51399122Y-131920038D01*
X51399122Y-131920038D02*
X51494360Y-131872419D01*
X52303884Y-132824800D02*
X52446741Y-132872419D01*
X52446741Y-132872419D02*
X52684836Y-132872419D01*
X52684836Y-132872419D02*
X52780074Y-132824800D01*
X52780074Y-132824800D02*
X52827693Y-132777180D01*
X52827693Y-132777180D02*
X52875312Y-132681942D01*
X52875312Y-132681942D02*
X52875312Y-132586704D01*
X52875312Y-132586704D02*
X52827693Y-132491466D01*
X52827693Y-132491466D02*
X52780074Y-132443847D01*
X52780074Y-132443847D02*
X52684836Y-132396228D01*
X52684836Y-132396228D02*
X52494360Y-132348609D01*
X52494360Y-132348609D02*
X52399122Y-132300990D01*
X52399122Y-132300990D02*
X52351503Y-132253371D01*
X52351503Y-132253371D02*
X52303884Y-132158133D01*
X52303884Y-132158133D02*
X52303884Y-132062895D01*
X52303884Y-132062895D02*
X52351503Y-131967657D01*
X52351503Y-131967657D02*
X52399122Y-131920038D01*
X52399122Y-131920038D02*
X52494360Y-131872419D01*
X52494360Y-131872419D02*
X52732455Y-131872419D01*
X52732455Y-131872419D02*
X52875312Y-131920038D01*
X53875312Y-132777180D02*
X53827693Y-132824800D01*
X53827693Y-132824800D02*
X53684836Y-132872419D01*
X53684836Y-132872419D02*
X53589598Y-132872419D01*
X53589598Y-132872419D02*
X53446741Y-132824800D01*
X53446741Y-132824800D02*
X53351503Y-132729561D01*
X53351503Y-132729561D02*
X53303884Y-132634323D01*
X53303884Y-132634323D02*
X53256265Y-132443847D01*
X53256265Y-132443847D02*
X53256265Y-132300990D01*
X53256265Y-132300990D02*
X53303884Y-132110514D01*
X53303884Y-132110514D02*
X53351503Y-132015276D01*
X53351503Y-132015276D02*
X53446741Y-131920038D01*
X53446741Y-131920038D02*
X53589598Y-131872419D01*
X53589598Y-131872419D02*
X53684836Y-131872419D01*
X53684836Y-131872419D02*
X53827693Y-131920038D01*
X53827693Y-131920038D02*
X53875312Y-131967657D01*
X54303884Y-132872419D02*
X54303884Y-131872419D01*
X55256264Y-132872419D02*
X54780074Y-132872419D01*
X54780074Y-132872419D02*
X54780074Y-131872419D01*
X56065788Y-132872419D02*
X55589598Y-132872419D01*
X55589598Y-132872419D02*
X55589598Y-131872419D01*
X56351503Y-132586704D02*
X56827693Y-132586704D01*
X56256265Y-132872419D02*
X56589598Y-131872419D01*
X56589598Y-131872419D02*
X56922931Y-132872419D01*
X57113408Y-131872419D02*
X57684836Y-131872419D01*
X57399122Y-132872419D02*
X57399122Y-131872419D01*
X58208646Y-131872419D02*
X58399122Y-131872419D01*
X58399122Y-131872419D02*
X58494360Y-131920038D01*
X58494360Y-131920038D02*
X58589598Y-132015276D01*
X58589598Y-132015276D02*
X58637217Y-132205752D01*
X58637217Y-132205752D02*
X58637217Y-132539085D01*
X58637217Y-132539085D02*
X58589598Y-132729561D01*
X58589598Y-132729561D02*
X58494360Y-132824800D01*
X58494360Y-132824800D02*
X58399122Y-132872419D01*
X58399122Y-132872419D02*
X58208646Y-132872419D01*
X58208646Y-132872419D02*
X58113408Y-132824800D01*
X58113408Y-132824800D02*
X58018170Y-132729561D01*
X58018170Y-132729561D02*
X57970551Y-132539085D01*
X57970551Y-132539085D02*
X57970551Y-132205752D01*
X57970551Y-132205752D02*
X58018170Y-132015276D01*
X58018170Y-132015276D02*
X58113408Y-131920038D01*
X58113408Y-131920038D02*
X58208646Y-131872419D01*
X59637217Y-132872419D02*
X59303884Y-132396228D01*
X59065789Y-132872419D02*
X59065789Y-131872419D01*
X59065789Y-131872419D02*
X59446741Y-131872419D01*
X59446741Y-131872419D02*
X59541979Y-131920038D01*
X59541979Y-131920038D02*
X59589598Y-131967657D01*
X59589598Y-131967657D02*
X59637217Y-132062895D01*
X59637217Y-132062895D02*
X59637217Y-132205752D01*
X59637217Y-132205752D02*
X59589598Y-132300990D01*
X59589598Y-132300990D02*
X59541979Y-132348609D01*
X59541979Y-132348609D02*
X59446741Y-132396228D01*
X59446741Y-132396228D02*
X59065789Y-132396228D01*
X60684837Y-131872419D02*
X61018170Y-132872419D01*
X61018170Y-132872419D02*
X61351503Y-131872419D01*
X61637218Y-131967657D02*
X61684837Y-131920038D01*
X61684837Y-131920038D02*
X61780075Y-131872419D01*
X61780075Y-131872419D02*
X62018170Y-131872419D01*
X62018170Y-131872419D02*
X62113408Y-131920038D01*
X62113408Y-131920038D02*
X62161027Y-131967657D01*
X62161027Y-131967657D02*
X62208646Y-132062895D01*
X62208646Y-132062895D02*
X62208646Y-132158133D01*
X62208646Y-132158133D02*
X62161027Y-132300990D01*
X62161027Y-132300990D02*
X61589599Y-132872419D01*
X61589599Y-132872419D02*
X62208646Y-132872419D01*
X105137217Y-39348609D02*
X104803884Y-39348609D01*
X104803884Y-39872419D02*
X104803884Y-38872419D01*
X104803884Y-38872419D02*
X105280074Y-38872419D01*
X106232455Y-39872419D02*
X105899122Y-39396228D01*
X105661027Y-39872419D02*
X105661027Y-38872419D01*
X105661027Y-38872419D02*
X106041979Y-38872419D01*
X106041979Y-38872419D02*
X106137217Y-38920038D01*
X106137217Y-38920038D02*
X106184836Y-38967657D01*
X106184836Y-38967657D02*
X106232455Y-39062895D01*
X106232455Y-39062895D02*
X106232455Y-39205752D01*
X106232455Y-39205752D02*
X106184836Y-39300990D01*
X106184836Y-39300990D02*
X106137217Y-39348609D01*
X106137217Y-39348609D02*
X106041979Y-39396228D01*
X106041979Y-39396228D02*
X105661027Y-39396228D01*
X106661027Y-39348609D02*
X106994360Y-39348609D01*
X107137217Y-39872419D02*
X106661027Y-39872419D01*
X106661027Y-39872419D02*
X106661027Y-38872419D01*
X106661027Y-38872419D02*
X107137217Y-38872419D01*
X108232455Y-39967657D02*
X108137217Y-39920038D01*
X108137217Y-39920038D02*
X108041979Y-39824800D01*
X108041979Y-39824800D02*
X107899122Y-39681942D01*
X107899122Y-39681942D02*
X107803884Y-39634323D01*
X107803884Y-39634323D02*
X107708646Y-39634323D01*
X107756265Y-39872419D02*
X107661027Y-39824800D01*
X107661027Y-39824800D02*
X107565789Y-39729561D01*
X107565789Y-39729561D02*
X107518170Y-39539085D01*
X107518170Y-39539085D02*
X107518170Y-39205752D01*
X107518170Y-39205752D02*
X107565789Y-39015276D01*
X107565789Y-39015276D02*
X107661027Y-38920038D01*
X107661027Y-38920038D02*
X107756265Y-38872419D01*
X107756265Y-38872419D02*
X107946741Y-38872419D01*
X107946741Y-38872419D02*
X108041979Y-38920038D01*
X108041979Y-38920038D02*
X108137217Y-39015276D01*
X108137217Y-39015276D02*
X108184836Y-39205752D01*
X108184836Y-39205752D02*
X108184836Y-39539085D01*
X108184836Y-39539085D02*
X108137217Y-39729561D01*
X108137217Y-39729561D02*
X108041979Y-39824800D01*
X108041979Y-39824800D02*
X107946741Y-39872419D01*
X107946741Y-39872419D02*
X107756265Y-39872419D01*
X109946741Y-39777180D02*
X109899122Y-39824800D01*
X109899122Y-39824800D02*
X109756265Y-39872419D01*
X109756265Y-39872419D02*
X109661027Y-39872419D01*
X109661027Y-39872419D02*
X109518170Y-39824800D01*
X109518170Y-39824800D02*
X109422932Y-39729561D01*
X109422932Y-39729561D02*
X109375313Y-39634323D01*
X109375313Y-39634323D02*
X109327694Y-39443847D01*
X109327694Y-39443847D02*
X109327694Y-39300990D01*
X109327694Y-39300990D02*
X109375313Y-39110514D01*
X109375313Y-39110514D02*
X109422932Y-39015276D01*
X109422932Y-39015276D02*
X109518170Y-38920038D01*
X109518170Y-38920038D02*
X109661027Y-38872419D01*
X109661027Y-38872419D02*
X109756265Y-38872419D01*
X109756265Y-38872419D02*
X109899122Y-38920038D01*
X109899122Y-38920038D02*
X109946741Y-38967657D01*
X110232456Y-38872419D02*
X110565789Y-39872419D01*
X110565789Y-39872419D02*
X110899122Y-38872419D01*
X59303884Y-39872419D02*
X59303884Y-38872419D01*
X59303884Y-38872419D02*
X59684836Y-38872419D01*
X59684836Y-38872419D02*
X59780074Y-38920038D01*
X59780074Y-38920038D02*
X59827693Y-38967657D01*
X59827693Y-38967657D02*
X59875312Y-39062895D01*
X59875312Y-39062895D02*
X59875312Y-39205752D01*
X59875312Y-39205752D02*
X59827693Y-39300990D01*
X59827693Y-39300990D02*
X59780074Y-39348609D01*
X59780074Y-39348609D02*
X59684836Y-39396228D01*
X59684836Y-39396228D02*
X59303884Y-39396228D01*
X60208646Y-38872419D02*
X60446741Y-39872419D01*
X60446741Y-39872419D02*
X60637217Y-39158133D01*
X60637217Y-39158133D02*
X60827693Y-39872419D01*
X60827693Y-39872419D02*
X61065789Y-38872419D01*
X61446741Y-39872419D02*
X61446741Y-38872419D01*
X61446741Y-38872419D02*
X61780074Y-39586704D01*
X61780074Y-39586704D02*
X62113407Y-38872419D01*
X62113407Y-38872419D02*
X62113407Y-39872419D01*
X63922931Y-39777180D02*
X63875312Y-39824800D01*
X63875312Y-39824800D02*
X63732455Y-39872419D01*
X63732455Y-39872419D02*
X63637217Y-39872419D01*
X63637217Y-39872419D02*
X63494360Y-39824800D01*
X63494360Y-39824800D02*
X63399122Y-39729561D01*
X63399122Y-39729561D02*
X63351503Y-39634323D01*
X63351503Y-39634323D02*
X63303884Y-39443847D01*
X63303884Y-39443847D02*
X63303884Y-39300990D01*
X63303884Y-39300990D02*
X63351503Y-39110514D01*
X63351503Y-39110514D02*
X63399122Y-39015276D01*
X63399122Y-39015276D02*
X63494360Y-38920038D01*
X63494360Y-38920038D02*
X63637217Y-38872419D01*
X63637217Y-38872419D02*
X63732455Y-38872419D01*
X63732455Y-38872419D02*
X63875312Y-38920038D01*
X63875312Y-38920038D02*
X63922931Y-38967657D01*
X64208646Y-38872419D02*
X64541979Y-39872419D01*
X64541979Y-39872419D02*
X64875312Y-38872419D01*
X97661027Y-131872419D02*
X98232455Y-131872419D01*
X97946741Y-132872419D02*
X97946741Y-131872419D01*
X99137217Y-132872419D02*
X98803884Y-132396228D01*
X98565789Y-132872419D02*
X98565789Y-131872419D01*
X98565789Y-131872419D02*
X98946741Y-131872419D01*
X98946741Y-131872419D02*
X99041979Y-131920038D01*
X99041979Y-131920038D02*
X99089598Y-131967657D01*
X99089598Y-131967657D02*
X99137217Y-132062895D01*
X99137217Y-132062895D02*
X99137217Y-132205752D01*
X99137217Y-132205752D02*
X99089598Y-132300990D01*
X99089598Y-132300990D02*
X99041979Y-132348609D01*
X99041979Y-132348609D02*
X98946741Y-132396228D01*
X98946741Y-132396228D02*
X98565789Y-132396228D01*
X99565789Y-132872419D02*
X99565789Y-131872419D01*
X99994360Y-132586704D02*
X100470550Y-132586704D01*
X99899122Y-132872419D02*
X100232455Y-131872419D01*
X100232455Y-131872419D02*
X100565788Y-132872419D01*
X100899122Y-132872419D02*
X100899122Y-131872419D01*
X100899122Y-131872419D02*
X101470550Y-132872419D01*
X101470550Y-132872419D02*
X101470550Y-131872419D01*
X102470550Y-131920038D02*
X102375312Y-131872419D01*
X102375312Y-131872419D02*
X102232455Y-131872419D01*
X102232455Y-131872419D02*
X102089598Y-131920038D01*
X102089598Y-131920038D02*
X101994360Y-132015276D01*
X101994360Y-132015276D02*
X101946741Y-132110514D01*
X101946741Y-132110514D02*
X101899122Y-132300990D01*
X101899122Y-132300990D02*
X101899122Y-132443847D01*
X101899122Y-132443847D02*
X101946741Y-132634323D01*
X101946741Y-132634323D02*
X101994360Y-132729561D01*
X101994360Y-132729561D02*
X102089598Y-132824800D01*
X102089598Y-132824800D02*
X102232455Y-132872419D01*
X102232455Y-132872419D02*
X102327693Y-132872419D01*
X102327693Y-132872419D02*
X102470550Y-132824800D01*
X102470550Y-132824800D02*
X102518169Y-132777180D01*
X102518169Y-132777180D02*
X102518169Y-132443847D01*
X102518169Y-132443847D02*
X102327693Y-132443847D01*
X103422931Y-132872419D02*
X102946741Y-132872419D01*
X102946741Y-132872419D02*
X102946741Y-131872419D01*
X103756265Y-132348609D02*
X104089598Y-132348609D01*
X104232455Y-132872419D02*
X103756265Y-132872419D01*
X103756265Y-132872419D02*
X103756265Y-131872419D01*
X103756265Y-131872419D02*
X104232455Y-131872419D01*
X67803884Y-133034888D02*
X67803884Y-132034888D01*
X67803884Y-132034888D02*
X68184836Y-132034888D01*
X68184836Y-132034888D02*
X68280074Y-132082507D01*
X68280074Y-132082507D02*
X68327693Y-132130126D01*
X68327693Y-132130126D02*
X68375312Y-132225364D01*
X68375312Y-132225364D02*
X68375312Y-132368221D01*
X68375312Y-132368221D02*
X68327693Y-132463459D01*
X68327693Y-132463459D02*
X68280074Y-132511078D01*
X68280074Y-132511078D02*
X68184836Y-132558697D01*
X68184836Y-132558697D02*
X67803884Y-132558697D01*
X68803884Y-132034888D02*
X68803884Y-132844411D01*
X68803884Y-132844411D02*
X68851503Y-132939649D01*
X68851503Y-132939649D02*
X68899122Y-132987269D01*
X68899122Y-132987269D02*
X68994360Y-133034888D01*
X68994360Y-133034888D02*
X69184836Y-133034888D01*
X69184836Y-133034888D02*
X69280074Y-132987269D01*
X69280074Y-132987269D02*
X69327693Y-132939649D01*
X69327693Y-132939649D02*
X69375312Y-132844411D01*
X69375312Y-132844411D02*
X69375312Y-132034888D01*
X70327693Y-133034888D02*
X69851503Y-133034888D01*
X69851503Y-133034888D02*
X69851503Y-132034888D01*
X70613408Y-132987269D02*
X70756265Y-133034888D01*
X70756265Y-133034888D02*
X70994360Y-133034888D01*
X70994360Y-133034888D02*
X71089598Y-132987269D01*
X71089598Y-132987269D02*
X71137217Y-132939649D01*
X71137217Y-132939649D02*
X71184836Y-132844411D01*
X71184836Y-132844411D02*
X71184836Y-132749173D01*
X71184836Y-132749173D02*
X71137217Y-132653935D01*
X71137217Y-132653935D02*
X71089598Y-132606316D01*
X71089598Y-132606316D02*
X70994360Y-132558697D01*
X70994360Y-132558697D02*
X70803884Y-132511078D01*
X70803884Y-132511078D02*
X70708646Y-132463459D01*
X70708646Y-132463459D02*
X70661027Y-132415840D01*
X70661027Y-132415840D02*
X70613408Y-132320602D01*
X70613408Y-132320602D02*
X70613408Y-132225364D01*
X70613408Y-132225364D02*
X70661027Y-132130126D01*
X70661027Y-132130126D02*
X70708646Y-132082507D01*
X70708646Y-132082507D02*
X70803884Y-132034888D01*
X70803884Y-132034888D02*
X71041979Y-132034888D01*
X71041979Y-132034888D02*
X71184836Y-132082507D01*
X71613408Y-132511078D02*
X71946741Y-132511078D01*
X72089598Y-133034888D02*
X71613408Y-133034888D01*
X71613408Y-133034888D02*
X71613408Y-132034888D01*
X71613408Y-132034888D02*
X72089598Y-132034888D01*
X109088405Y-109981256D02*
X109231262Y-110028875D01*
X109231262Y-110028875D02*
X109469357Y-110028875D01*
X109469357Y-110028875D02*
X109564595Y-109981256D01*
X109564595Y-109981256D02*
X109612214Y-109933636D01*
X109612214Y-109933636D02*
X109659833Y-109838398D01*
X109659833Y-109838398D02*
X109659833Y-109743160D01*
X109659833Y-109743160D02*
X109612214Y-109647922D01*
X109612214Y-109647922D02*
X109564595Y-109600303D01*
X109564595Y-109600303D02*
X109469357Y-109552684D01*
X109469357Y-109552684D02*
X109278881Y-109505065D01*
X109278881Y-109505065D02*
X109183643Y-109457446D01*
X109183643Y-109457446D02*
X109136024Y-109409827D01*
X109136024Y-109409827D02*
X109088405Y-109314589D01*
X109088405Y-109314589D02*
X109088405Y-109219351D01*
X109088405Y-109219351D02*
X109136024Y-109124113D01*
X109136024Y-109124113D02*
X109183643Y-109076494D01*
X109183643Y-109076494D02*
X109278881Y-109028875D01*
X109278881Y-109028875D02*
X109516976Y-109028875D01*
X109516976Y-109028875D02*
X109659833Y-109076494D01*
X109993167Y-109028875D02*
X110231262Y-110028875D01*
X110231262Y-110028875D02*
X110421738Y-109314589D01*
X110421738Y-109314589D02*
X110612214Y-110028875D01*
X110612214Y-110028875D02*
X110850310Y-109028875D01*
X111755071Y-110028875D02*
X111183643Y-110028875D01*
X111469357Y-110028875D02*
X111469357Y-109028875D01*
X111469357Y-109028875D02*
X111374119Y-109171732D01*
X111374119Y-109171732D02*
X111278881Y-109266970D01*
X111278881Y-109266970D02*
X111183643Y-109314589D01*
D11*
X59404761Y-87954819D02*
X59071428Y-87478628D01*
X58833333Y-87954819D02*
X58833333Y-86954819D01*
X58833333Y-86954819D02*
X59214285Y-86954819D01*
X59214285Y-86954819D02*
X59309523Y-87002438D01*
X59309523Y-87002438D02*
X59357142Y-87050057D01*
X59357142Y-87050057D02*
X59404761Y-87145295D01*
X59404761Y-87145295D02*
X59404761Y-87288152D01*
X59404761Y-87288152D02*
X59357142Y-87383390D01*
X59357142Y-87383390D02*
X59309523Y-87431009D01*
X59309523Y-87431009D02*
X59214285Y-87478628D01*
X59214285Y-87478628D02*
X58833333Y-87478628D01*
X59690476Y-86954819D02*
X60023809Y-87954819D01*
X60023809Y-87954819D02*
X60357142Y-86954819D01*
X61214285Y-87954819D02*
X60642857Y-87954819D01*
X60928571Y-87954819D02*
X60928571Y-86954819D01*
X60928571Y-86954819D02*
X60833333Y-87097676D01*
X60833333Y-87097676D02*
X60738095Y-87192914D01*
X60738095Y-87192914D02*
X60642857Y-87240533D01*
X83913333Y-105544819D02*
X83580000Y-105068628D01*
X83341905Y-105544819D02*
X83341905Y-104544819D01*
X83341905Y-104544819D02*
X83722857Y-104544819D01*
X83722857Y-104544819D02*
X83818095Y-104592438D01*
X83818095Y-104592438D02*
X83865714Y-104640057D01*
X83865714Y-104640057D02*
X83913333Y-104735295D01*
X83913333Y-104735295D02*
X83913333Y-104878152D01*
X83913333Y-104878152D02*
X83865714Y-104973390D01*
X83865714Y-104973390D02*
X83818095Y-105021009D01*
X83818095Y-105021009D02*
X83722857Y-105068628D01*
X83722857Y-105068628D02*
X83341905Y-105068628D01*
X84246667Y-104544819D02*
X84913333Y-104544819D01*
X84913333Y-104544819D02*
X84484762Y-105544819D01*
X56763800Y-100294446D02*
X56430467Y-99818255D01*
X56192372Y-100294446D02*
X56192372Y-99294446D01*
X56192372Y-99294446D02*
X56573324Y-99294446D01*
X56573324Y-99294446D02*
X56668562Y-99342065D01*
X56668562Y-99342065D02*
X56716181Y-99389684D01*
X56716181Y-99389684D02*
X56763800Y-99484922D01*
X56763800Y-99484922D02*
X56763800Y-99627779D01*
X56763800Y-99627779D02*
X56716181Y-99723017D01*
X56716181Y-99723017D02*
X56668562Y-99770636D01*
X56668562Y-99770636D02*
X56573324Y-99818255D01*
X56573324Y-99818255D02*
X56192372Y-99818255D01*
X57716181Y-100294446D02*
X57144753Y-100294446D01*
X57430467Y-100294446D02*
X57430467Y-99294446D01*
X57430467Y-99294446D02*
X57335229Y-99437303D01*
X57335229Y-99437303D02*
X57239991Y-99532541D01*
X57239991Y-99532541D02*
X57144753Y-99580160D01*
X58620943Y-99294446D02*
X58144753Y-99294446D01*
X58144753Y-99294446D02*
X58097134Y-99770636D01*
X58097134Y-99770636D02*
X58144753Y-99723017D01*
X58144753Y-99723017D02*
X58239991Y-99675398D01*
X58239991Y-99675398D02*
X58478086Y-99675398D01*
X58478086Y-99675398D02*
X58573324Y-99723017D01*
X58573324Y-99723017D02*
X58620943Y-99770636D01*
X58620943Y-99770636D02*
X58668562Y-99865874D01*
X58668562Y-99865874D02*
X58668562Y-100103969D01*
X58668562Y-100103969D02*
X58620943Y-100199207D01*
X58620943Y-100199207D02*
X58573324Y-100246827D01*
X58573324Y-100246827D02*
X58478086Y-100294446D01*
X58478086Y-100294446D02*
X58239991Y-100294446D01*
X58239991Y-100294446D02*
X58144753Y-100246827D01*
X58144753Y-100246827D02*
X58097134Y-100199207D01*
X90954819Y-119222857D02*
X90478628Y-119556190D01*
X90954819Y-119794285D02*
X89954819Y-119794285D01*
X89954819Y-119794285D02*
X89954819Y-119413333D01*
X89954819Y-119413333D02*
X90002438Y-119318095D01*
X90002438Y-119318095D02*
X90050057Y-119270476D01*
X90050057Y-119270476D02*
X90145295Y-119222857D01*
X90145295Y-119222857D02*
X90288152Y-119222857D01*
X90288152Y-119222857D02*
X90383390Y-119270476D01*
X90383390Y-119270476D02*
X90431009Y-119318095D01*
X90431009Y-119318095D02*
X90478628Y-119413333D01*
X90478628Y-119413333D02*
X90478628Y-119794285D01*
X90954819Y-118270476D02*
X90954819Y-118841904D01*
X90954819Y-118556190D02*
X89954819Y-118556190D01*
X89954819Y-118556190D02*
X90097676Y-118651428D01*
X90097676Y-118651428D02*
X90192914Y-118746666D01*
X90192914Y-118746666D02*
X90240533Y-118841904D01*
X89954819Y-117937142D02*
X89954819Y-117270476D01*
X89954819Y-117270476D02*
X90954819Y-117699047D01*
X68857142Y-85204819D02*
X68523809Y-84728628D01*
X68285714Y-85204819D02*
X68285714Y-84204819D01*
X68285714Y-84204819D02*
X68666666Y-84204819D01*
X68666666Y-84204819D02*
X68761904Y-84252438D01*
X68761904Y-84252438D02*
X68809523Y-84300057D01*
X68809523Y-84300057D02*
X68857142Y-84395295D01*
X68857142Y-84395295D02*
X68857142Y-84538152D01*
X68857142Y-84538152D02*
X68809523Y-84633390D01*
X68809523Y-84633390D02*
X68761904Y-84681009D01*
X68761904Y-84681009D02*
X68666666Y-84728628D01*
X68666666Y-84728628D02*
X68285714Y-84728628D01*
X69809523Y-85204819D02*
X69238095Y-85204819D01*
X69523809Y-85204819D02*
X69523809Y-84204819D01*
X69523809Y-84204819D02*
X69428571Y-84347676D01*
X69428571Y-84347676D02*
X69333333Y-84442914D01*
X69333333Y-84442914D02*
X69238095Y-84490533D01*
X70142857Y-84204819D02*
X70761904Y-84204819D01*
X70761904Y-84204819D02*
X70428571Y-84585771D01*
X70428571Y-84585771D02*
X70571428Y-84585771D01*
X70571428Y-84585771D02*
X70666666Y-84633390D01*
X70666666Y-84633390D02*
X70714285Y-84681009D01*
X70714285Y-84681009D02*
X70761904Y-84776247D01*
X70761904Y-84776247D02*
X70761904Y-85014342D01*
X70761904Y-85014342D02*
X70714285Y-85109580D01*
X70714285Y-85109580D02*
X70666666Y-85157200D01*
X70666666Y-85157200D02*
X70571428Y-85204819D01*
X70571428Y-85204819D02*
X70285714Y-85204819D01*
X70285714Y-85204819D02*
X70190476Y-85157200D01*
X70190476Y-85157200D02*
X70142857Y-85109580D01*
D10*
X84841666Y-57752419D02*
X84841666Y-58466704D01*
X84841666Y-58466704D02*
X84794047Y-58609561D01*
X84794047Y-58609561D02*
X84698809Y-58704800D01*
X84698809Y-58704800D02*
X84555952Y-58752419D01*
X84555952Y-58752419D02*
X84460714Y-58752419D01*
X85365476Y-58752419D02*
X85555952Y-58752419D01*
X85555952Y-58752419D02*
X85651190Y-58704800D01*
X85651190Y-58704800D02*
X85698809Y-58657180D01*
X85698809Y-58657180D02*
X85794047Y-58514323D01*
X85794047Y-58514323D02*
X85841666Y-58323847D01*
X85841666Y-58323847D02*
X85841666Y-57942895D01*
X85841666Y-57942895D02*
X85794047Y-57847657D01*
X85794047Y-57847657D02*
X85746428Y-57800038D01*
X85746428Y-57800038D02*
X85651190Y-57752419D01*
X85651190Y-57752419D02*
X85460714Y-57752419D01*
X85460714Y-57752419D02*
X85365476Y-57800038D01*
X85365476Y-57800038D02*
X85317857Y-57847657D01*
X85317857Y-57847657D02*
X85270238Y-57942895D01*
X85270238Y-57942895D02*
X85270238Y-58180990D01*
X85270238Y-58180990D02*
X85317857Y-58276228D01*
X85317857Y-58276228D02*
X85365476Y-58323847D01*
X85365476Y-58323847D02*
X85460714Y-58371466D01*
X85460714Y-58371466D02*
X85651190Y-58371466D01*
X85651190Y-58371466D02*
X85746428Y-58323847D01*
X85746428Y-58323847D02*
X85794047Y-58276228D01*
X85794047Y-58276228D02*
X85841666Y-58180990D01*
D11*
X81954819Y-46756666D02*
X81478628Y-47089999D01*
X81954819Y-47328094D02*
X80954819Y-47328094D01*
X80954819Y-47328094D02*
X80954819Y-46947142D01*
X80954819Y-46947142D02*
X81002438Y-46851904D01*
X81002438Y-46851904D02*
X81050057Y-46804285D01*
X81050057Y-46804285D02*
X81145295Y-46756666D01*
X81145295Y-46756666D02*
X81288152Y-46756666D01*
X81288152Y-46756666D02*
X81383390Y-46804285D01*
X81383390Y-46804285D02*
X81431009Y-46851904D01*
X81431009Y-46851904D02*
X81478628Y-46947142D01*
X81478628Y-46947142D02*
X81478628Y-47328094D01*
X80954819Y-45899523D02*
X80954819Y-46089999D01*
X80954819Y-46089999D02*
X81002438Y-46185237D01*
X81002438Y-46185237D02*
X81050057Y-46232856D01*
X81050057Y-46232856D02*
X81192914Y-46328094D01*
X81192914Y-46328094D02*
X81383390Y-46375713D01*
X81383390Y-46375713D02*
X81764342Y-46375713D01*
X81764342Y-46375713D02*
X81859580Y-46328094D01*
X81859580Y-46328094D02*
X81907200Y-46280475D01*
X81907200Y-46280475D02*
X81954819Y-46185237D01*
X81954819Y-46185237D02*
X81954819Y-45994761D01*
X81954819Y-45994761D02*
X81907200Y-45899523D01*
X81907200Y-45899523D02*
X81859580Y-45851904D01*
X81859580Y-45851904D02*
X81764342Y-45804285D01*
X81764342Y-45804285D02*
X81526247Y-45804285D01*
X81526247Y-45804285D02*
X81431009Y-45851904D01*
X81431009Y-45851904D02*
X81383390Y-45899523D01*
X81383390Y-45899523D02*
X81335771Y-45994761D01*
X81335771Y-45994761D02*
X81335771Y-46185237D01*
X81335771Y-46185237D02*
X81383390Y-46280475D01*
X81383390Y-46280475D02*
X81431009Y-46328094D01*
X81431009Y-46328094D02*
X81526247Y-46375713D01*
X84508142Y-35355819D02*
X84174809Y-34879628D01*
X83936714Y-35355819D02*
X83936714Y-34355819D01*
X83936714Y-34355819D02*
X84317666Y-34355819D01*
X84317666Y-34355819D02*
X84412904Y-34403438D01*
X84412904Y-34403438D02*
X84460523Y-34451057D01*
X84460523Y-34451057D02*
X84508142Y-34546295D01*
X84508142Y-34546295D02*
X84508142Y-34689152D01*
X84508142Y-34689152D02*
X84460523Y-34784390D01*
X84460523Y-34784390D02*
X84412904Y-34832009D01*
X84412904Y-34832009D02*
X84317666Y-34879628D01*
X84317666Y-34879628D02*
X83936714Y-34879628D01*
X85460523Y-35355819D02*
X84889095Y-35355819D01*
X85174809Y-35355819D02*
X85174809Y-34355819D01*
X85174809Y-34355819D02*
X85079571Y-34498676D01*
X85079571Y-34498676D02*
X84984333Y-34593914D01*
X84984333Y-34593914D02*
X84889095Y-34641533D01*
X86079571Y-34355819D02*
X86174809Y-34355819D01*
X86174809Y-34355819D02*
X86270047Y-34403438D01*
X86270047Y-34403438D02*
X86317666Y-34451057D01*
X86317666Y-34451057D02*
X86365285Y-34546295D01*
X86365285Y-34546295D02*
X86412904Y-34736771D01*
X86412904Y-34736771D02*
X86412904Y-34974866D01*
X86412904Y-34974866D02*
X86365285Y-35165342D01*
X86365285Y-35165342D02*
X86317666Y-35260580D01*
X86317666Y-35260580D02*
X86270047Y-35308200D01*
X86270047Y-35308200D02*
X86174809Y-35355819D01*
X86174809Y-35355819D02*
X86079571Y-35355819D01*
X86079571Y-35355819D02*
X85984333Y-35308200D01*
X85984333Y-35308200D02*
X85936714Y-35260580D01*
X85936714Y-35260580D02*
X85889095Y-35165342D01*
X85889095Y-35165342D02*
X85841476Y-34974866D01*
X85841476Y-34974866D02*
X85841476Y-34736771D01*
X85841476Y-34736771D02*
X85889095Y-34546295D01*
X85889095Y-34546295D02*
X85936714Y-34451057D01*
X85936714Y-34451057D02*
X85984333Y-34403438D01*
X85984333Y-34403438D02*
X86079571Y-34355819D01*
X76454819Y-46756666D02*
X75978628Y-47089999D01*
X76454819Y-47328094D02*
X75454819Y-47328094D01*
X75454819Y-47328094D02*
X75454819Y-46947142D01*
X75454819Y-46947142D02*
X75502438Y-46851904D01*
X75502438Y-46851904D02*
X75550057Y-46804285D01*
X75550057Y-46804285D02*
X75645295Y-46756666D01*
X75645295Y-46756666D02*
X75788152Y-46756666D01*
X75788152Y-46756666D02*
X75883390Y-46804285D01*
X75883390Y-46804285D02*
X75931009Y-46851904D01*
X75931009Y-46851904D02*
X75978628Y-46947142D01*
X75978628Y-46947142D02*
X75978628Y-47328094D01*
X75454819Y-45851904D02*
X75454819Y-46328094D01*
X75454819Y-46328094D02*
X75931009Y-46375713D01*
X75931009Y-46375713D02*
X75883390Y-46328094D01*
X75883390Y-46328094D02*
X75835771Y-46232856D01*
X75835771Y-46232856D02*
X75835771Y-45994761D01*
X75835771Y-45994761D02*
X75883390Y-45899523D01*
X75883390Y-45899523D02*
X75931009Y-45851904D01*
X75931009Y-45851904D02*
X76026247Y-45804285D01*
X76026247Y-45804285D02*
X76264342Y-45804285D01*
X76264342Y-45804285D02*
X76359580Y-45851904D01*
X76359580Y-45851904D02*
X76407200Y-45899523D01*
X76407200Y-45899523D02*
X76454819Y-45994761D01*
X76454819Y-45994761D02*
X76454819Y-46232856D01*
X76454819Y-46232856D02*
X76407200Y-46328094D01*
X76407200Y-46328094D02*
X76359580Y-46375713D01*
D10*
X107666666Y-52957419D02*
X107666666Y-53671704D01*
X107666666Y-53671704D02*
X107619047Y-53814561D01*
X107619047Y-53814561D02*
X107523809Y-53909800D01*
X107523809Y-53909800D02*
X107380952Y-53957419D01*
X107380952Y-53957419D02*
X107285714Y-53957419D01*
X108571428Y-52957419D02*
X108380952Y-52957419D01*
X108380952Y-52957419D02*
X108285714Y-53005038D01*
X108285714Y-53005038D02*
X108238095Y-53052657D01*
X108238095Y-53052657D02*
X108142857Y-53195514D01*
X108142857Y-53195514D02*
X108095238Y-53385990D01*
X108095238Y-53385990D02*
X108095238Y-53766942D01*
X108095238Y-53766942D02*
X108142857Y-53862180D01*
X108142857Y-53862180D02*
X108190476Y-53909800D01*
X108190476Y-53909800D02*
X108285714Y-53957419D01*
X108285714Y-53957419D02*
X108476190Y-53957419D01*
X108476190Y-53957419D02*
X108571428Y-53909800D01*
X108571428Y-53909800D02*
X108619047Y-53862180D01*
X108619047Y-53862180D02*
X108666666Y-53766942D01*
X108666666Y-53766942D02*
X108666666Y-53528847D01*
X108666666Y-53528847D02*
X108619047Y-53433609D01*
X108619047Y-53433609D02*
X108571428Y-53385990D01*
X108571428Y-53385990D02*
X108476190Y-53338371D01*
X108476190Y-53338371D02*
X108285714Y-53338371D01*
X108285714Y-53338371D02*
X108190476Y-53385990D01*
X108190476Y-53385990D02*
X108142857Y-53433609D01*
X108142857Y-53433609D02*
X108095238Y-53528847D01*
D11*
X83913333Y-95674819D02*
X83580000Y-95198628D01*
X83341905Y-95674819D02*
X83341905Y-94674819D01*
X83341905Y-94674819D02*
X83722857Y-94674819D01*
X83722857Y-94674819D02*
X83818095Y-94722438D01*
X83818095Y-94722438D02*
X83865714Y-94770057D01*
X83865714Y-94770057D02*
X83913333Y-94865295D01*
X83913333Y-94865295D02*
X83913333Y-95008152D01*
X83913333Y-95008152D02*
X83865714Y-95103390D01*
X83865714Y-95103390D02*
X83818095Y-95151009D01*
X83818095Y-95151009D02*
X83722857Y-95198628D01*
X83722857Y-95198628D02*
X83341905Y-95198628D01*
X84246667Y-94674819D02*
X84865714Y-94674819D01*
X84865714Y-94674819D02*
X84532381Y-95055771D01*
X84532381Y-95055771D02*
X84675238Y-95055771D01*
X84675238Y-95055771D02*
X84770476Y-95103390D01*
X84770476Y-95103390D02*
X84818095Y-95151009D01*
X84818095Y-95151009D02*
X84865714Y-95246247D01*
X84865714Y-95246247D02*
X84865714Y-95484342D01*
X84865714Y-95484342D02*
X84818095Y-95579580D01*
X84818095Y-95579580D02*
X84770476Y-95627200D01*
X84770476Y-95627200D02*
X84675238Y-95674819D01*
X84675238Y-95674819D02*
X84389524Y-95674819D01*
X84389524Y-95674819D02*
X84294286Y-95627200D01*
X84294286Y-95627200D02*
X84246667Y-95579580D01*
X93357142Y-113454819D02*
X93023809Y-112978628D01*
X92785714Y-113454819D02*
X92785714Y-112454819D01*
X92785714Y-112454819D02*
X93166666Y-112454819D01*
X93166666Y-112454819D02*
X93261904Y-112502438D01*
X93261904Y-112502438D02*
X93309523Y-112550057D01*
X93309523Y-112550057D02*
X93357142Y-112645295D01*
X93357142Y-112645295D02*
X93357142Y-112788152D01*
X93357142Y-112788152D02*
X93309523Y-112883390D01*
X93309523Y-112883390D02*
X93261904Y-112931009D01*
X93261904Y-112931009D02*
X93166666Y-112978628D01*
X93166666Y-112978628D02*
X92785714Y-112978628D01*
X93738095Y-112550057D02*
X93785714Y-112502438D01*
X93785714Y-112502438D02*
X93880952Y-112454819D01*
X93880952Y-112454819D02*
X94119047Y-112454819D01*
X94119047Y-112454819D02*
X94214285Y-112502438D01*
X94214285Y-112502438D02*
X94261904Y-112550057D01*
X94261904Y-112550057D02*
X94309523Y-112645295D01*
X94309523Y-112645295D02*
X94309523Y-112740533D01*
X94309523Y-112740533D02*
X94261904Y-112883390D01*
X94261904Y-112883390D02*
X93690476Y-113454819D01*
X93690476Y-113454819D02*
X94309523Y-113454819D01*
X94928571Y-112454819D02*
X95023809Y-112454819D01*
X95023809Y-112454819D02*
X95119047Y-112502438D01*
X95119047Y-112502438D02*
X95166666Y-112550057D01*
X95166666Y-112550057D02*
X95214285Y-112645295D01*
X95214285Y-112645295D02*
X95261904Y-112835771D01*
X95261904Y-112835771D02*
X95261904Y-113073866D01*
X95261904Y-113073866D02*
X95214285Y-113264342D01*
X95214285Y-113264342D02*
X95166666Y-113359580D01*
X95166666Y-113359580D02*
X95119047Y-113407200D01*
X95119047Y-113407200D02*
X95023809Y-113454819D01*
X95023809Y-113454819D02*
X94928571Y-113454819D01*
X94928571Y-113454819D02*
X94833333Y-113407200D01*
X94833333Y-113407200D02*
X94785714Y-113359580D01*
X94785714Y-113359580D02*
X94738095Y-113264342D01*
X94738095Y-113264342D02*
X94690476Y-113073866D01*
X94690476Y-113073866D02*
X94690476Y-112835771D01*
X94690476Y-112835771D02*
X94738095Y-112645295D01*
X94738095Y-112645295D02*
X94785714Y-112550057D01*
X94785714Y-112550057D02*
X94833333Y-112502438D01*
X94833333Y-112502438D02*
X94928571Y-112454819D01*
X75454819Y-119142857D02*
X74978628Y-119476190D01*
X75454819Y-119714285D02*
X74454819Y-119714285D01*
X74454819Y-119714285D02*
X74454819Y-119333333D01*
X74454819Y-119333333D02*
X74502438Y-119238095D01*
X74502438Y-119238095D02*
X74550057Y-119190476D01*
X74550057Y-119190476D02*
X74645295Y-119142857D01*
X74645295Y-119142857D02*
X74788152Y-119142857D01*
X74788152Y-119142857D02*
X74883390Y-119190476D01*
X74883390Y-119190476D02*
X74931009Y-119238095D01*
X74931009Y-119238095D02*
X74978628Y-119333333D01*
X74978628Y-119333333D02*
X74978628Y-119714285D01*
X75454819Y-118190476D02*
X75454819Y-118761904D01*
X75454819Y-118476190D02*
X74454819Y-118476190D01*
X74454819Y-118476190D02*
X74597676Y-118571428D01*
X74597676Y-118571428D02*
X74692914Y-118666666D01*
X74692914Y-118666666D02*
X74740533Y-118761904D01*
X74788152Y-117333333D02*
X75454819Y-117333333D01*
X74407200Y-117571428D02*
X75121485Y-117809523D01*
X75121485Y-117809523D02*
X75121485Y-117190476D01*
D10*
X61666666Y-52957419D02*
X61666666Y-53671704D01*
X61666666Y-53671704D02*
X61619047Y-53814561D01*
X61619047Y-53814561D02*
X61523809Y-53909800D01*
X61523809Y-53909800D02*
X61380952Y-53957419D01*
X61380952Y-53957419D02*
X61285714Y-53957419D01*
X62047619Y-52957419D02*
X62714285Y-52957419D01*
X62714285Y-52957419D02*
X62285714Y-53957419D01*
D11*
X85564333Y-30260580D02*
X85516714Y-30308200D01*
X85516714Y-30308200D02*
X85373857Y-30355819D01*
X85373857Y-30355819D02*
X85278619Y-30355819D01*
X85278619Y-30355819D02*
X85135762Y-30308200D01*
X85135762Y-30308200D02*
X85040524Y-30212961D01*
X85040524Y-30212961D02*
X84992905Y-30117723D01*
X84992905Y-30117723D02*
X84945286Y-29927247D01*
X84945286Y-29927247D02*
X84945286Y-29784390D01*
X84945286Y-29784390D02*
X84992905Y-29593914D01*
X84992905Y-29593914D02*
X85040524Y-29498676D01*
X85040524Y-29498676D02*
X85135762Y-29403438D01*
X85135762Y-29403438D02*
X85278619Y-29355819D01*
X85278619Y-29355819D02*
X85373857Y-29355819D01*
X85373857Y-29355819D02*
X85516714Y-29403438D01*
X85516714Y-29403438D02*
X85564333Y-29451057D01*
X86516714Y-30355819D02*
X85945286Y-30355819D01*
X86231000Y-30355819D02*
X86231000Y-29355819D01*
X86231000Y-29355819D02*
X86135762Y-29498676D01*
X86135762Y-29498676D02*
X86040524Y-29593914D01*
X86040524Y-29593914D02*
X85945286Y-29641533D01*
D10*
X61254761Y-80207419D02*
X60921428Y-79731228D01*
X60683333Y-80207419D02*
X60683333Y-79207419D01*
X60683333Y-79207419D02*
X61064285Y-79207419D01*
X61064285Y-79207419D02*
X61159523Y-79255038D01*
X61159523Y-79255038D02*
X61207142Y-79302657D01*
X61207142Y-79302657D02*
X61254761Y-79397895D01*
X61254761Y-79397895D02*
X61254761Y-79540752D01*
X61254761Y-79540752D02*
X61207142Y-79635990D01*
X61207142Y-79635990D02*
X61159523Y-79683609D01*
X61159523Y-79683609D02*
X61064285Y-79731228D01*
X61064285Y-79731228D02*
X60683333Y-79731228D01*
X61540476Y-79207419D02*
X61873809Y-80207419D01*
X61873809Y-80207419D02*
X62207142Y-79207419D01*
X62492857Y-79302657D02*
X62540476Y-79255038D01*
X62540476Y-79255038D02*
X62635714Y-79207419D01*
X62635714Y-79207419D02*
X62873809Y-79207419D01*
X62873809Y-79207419D02*
X62969047Y-79255038D01*
X62969047Y-79255038D02*
X63016666Y-79302657D01*
X63016666Y-79302657D02*
X63064285Y-79397895D01*
X63064285Y-79397895D02*
X63064285Y-79493133D01*
X63064285Y-79493133D02*
X63016666Y-79635990D01*
X63016666Y-79635990D02*
X62445238Y-80207419D01*
X62445238Y-80207419D02*
X63064285Y-80207419D01*
D11*
X56817142Y-105544819D02*
X56483809Y-105068628D01*
X56245714Y-105544819D02*
X56245714Y-104544819D01*
X56245714Y-104544819D02*
X56626666Y-104544819D01*
X56626666Y-104544819D02*
X56721904Y-104592438D01*
X56721904Y-104592438D02*
X56769523Y-104640057D01*
X56769523Y-104640057D02*
X56817142Y-104735295D01*
X56817142Y-104735295D02*
X56817142Y-104878152D01*
X56817142Y-104878152D02*
X56769523Y-104973390D01*
X56769523Y-104973390D02*
X56721904Y-105021009D01*
X56721904Y-105021009D02*
X56626666Y-105068628D01*
X56626666Y-105068628D02*
X56245714Y-105068628D01*
X57769523Y-105544819D02*
X57198095Y-105544819D01*
X57483809Y-105544819D02*
X57483809Y-104544819D01*
X57483809Y-104544819D02*
X57388571Y-104687676D01*
X57388571Y-104687676D02*
X57293333Y-104782914D01*
X57293333Y-104782914D02*
X57198095Y-104830533D01*
X58340952Y-104973390D02*
X58245714Y-104925771D01*
X58245714Y-104925771D02*
X58198095Y-104878152D01*
X58198095Y-104878152D02*
X58150476Y-104782914D01*
X58150476Y-104782914D02*
X58150476Y-104735295D01*
X58150476Y-104735295D02*
X58198095Y-104640057D01*
X58198095Y-104640057D02*
X58245714Y-104592438D01*
X58245714Y-104592438D02*
X58340952Y-104544819D01*
X58340952Y-104544819D02*
X58531428Y-104544819D01*
X58531428Y-104544819D02*
X58626666Y-104592438D01*
X58626666Y-104592438D02*
X58674285Y-104640057D01*
X58674285Y-104640057D02*
X58721904Y-104735295D01*
X58721904Y-104735295D02*
X58721904Y-104782914D01*
X58721904Y-104782914D02*
X58674285Y-104878152D01*
X58674285Y-104878152D02*
X58626666Y-104925771D01*
X58626666Y-104925771D02*
X58531428Y-104973390D01*
X58531428Y-104973390D02*
X58340952Y-104973390D01*
X58340952Y-104973390D02*
X58245714Y-105021009D01*
X58245714Y-105021009D02*
X58198095Y-105068628D01*
X58198095Y-105068628D02*
X58150476Y-105163866D01*
X58150476Y-105163866D02*
X58150476Y-105354342D01*
X58150476Y-105354342D02*
X58198095Y-105449580D01*
X58198095Y-105449580D02*
X58245714Y-105497200D01*
X58245714Y-105497200D02*
X58340952Y-105544819D01*
X58340952Y-105544819D02*
X58531428Y-105544819D01*
X58531428Y-105544819D02*
X58626666Y-105497200D01*
X58626666Y-105497200D02*
X58674285Y-105449580D01*
X58674285Y-105449580D02*
X58721904Y-105354342D01*
X58721904Y-105354342D02*
X58721904Y-105163866D01*
X58721904Y-105163866D02*
X58674285Y-105068628D01*
X58674285Y-105068628D02*
X58626666Y-105021009D01*
X58626666Y-105021009D02*
X58531428Y-104973390D01*
X59085819Y-32254333D02*
X59800104Y-32254333D01*
X59800104Y-32254333D02*
X59942961Y-32301952D01*
X59942961Y-32301952D02*
X60038200Y-32397190D01*
X60038200Y-32397190D02*
X60085819Y-32540047D01*
X60085819Y-32540047D02*
X60085819Y-32635285D01*
X59181057Y-31825761D02*
X59133438Y-31778142D01*
X59133438Y-31778142D02*
X59085819Y-31682904D01*
X59085819Y-31682904D02*
X59085819Y-31444809D01*
X59085819Y-31444809D02*
X59133438Y-31349571D01*
X59133438Y-31349571D02*
X59181057Y-31301952D01*
X59181057Y-31301952D02*
X59276295Y-31254333D01*
X59276295Y-31254333D02*
X59371533Y-31254333D01*
X59371533Y-31254333D02*
X59514390Y-31301952D01*
X59514390Y-31301952D02*
X60085819Y-31873380D01*
X60085819Y-31873380D02*
X60085819Y-31254333D01*
X86971368Y-46877475D02*
X86495177Y-47210808D01*
X86971368Y-47448903D02*
X85971368Y-47448903D01*
X85971368Y-47448903D02*
X85971368Y-47067951D01*
X85971368Y-47067951D02*
X86018987Y-46972713D01*
X86018987Y-46972713D02*
X86066606Y-46925094D01*
X86066606Y-46925094D02*
X86161844Y-46877475D01*
X86161844Y-46877475D02*
X86304701Y-46877475D01*
X86304701Y-46877475D02*
X86399939Y-46925094D01*
X86399939Y-46925094D02*
X86447558Y-46972713D01*
X86447558Y-46972713D02*
X86495177Y-47067951D01*
X86495177Y-47067951D02*
X86495177Y-47448903D01*
X86971368Y-46401284D02*
X86971368Y-46210808D01*
X86971368Y-46210808D02*
X86923749Y-46115570D01*
X86923749Y-46115570D02*
X86876129Y-46067951D01*
X86876129Y-46067951D02*
X86733272Y-45972713D01*
X86733272Y-45972713D02*
X86542796Y-45925094D01*
X86542796Y-45925094D02*
X86161844Y-45925094D01*
X86161844Y-45925094D02*
X86066606Y-45972713D01*
X86066606Y-45972713D02*
X86018987Y-46020332D01*
X86018987Y-46020332D02*
X85971368Y-46115570D01*
X85971368Y-46115570D02*
X85971368Y-46306046D01*
X85971368Y-46306046D02*
X86018987Y-46401284D01*
X86018987Y-46401284D02*
X86066606Y-46448903D01*
X86066606Y-46448903D02*
X86161844Y-46496522D01*
X86161844Y-46496522D02*
X86399939Y-46496522D01*
X86399939Y-46496522D02*
X86495177Y-46448903D01*
X86495177Y-46448903D02*
X86542796Y-46401284D01*
X86542796Y-46401284D02*
X86590415Y-46306046D01*
X86590415Y-46306046D02*
X86590415Y-46115570D01*
X86590415Y-46115570D02*
X86542796Y-46020332D01*
X86542796Y-46020332D02*
X86495177Y-45972713D01*
X86495177Y-45972713D02*
X86399939Y-45925094D01*
D10*
X84254761Y-80207419D02*
X83921428Y-79731228D01*
X83683333Y-80207419D02*
X83683333Y-79207419D01*
X83683333Y-79207419D02*
X84064285Y-79207419D01*
X84064285Y-79207419D02*
X84159523Y-79255038D01*
X84159523Y-79255038D02*
X84207142Y-79302657D01*
X84207142Y-79302657D02*
X84254761Y-79397895D01*
X84254761Y-79397895D02*
X84254761Y-79540752D01*
X84254761Y-79540752D02*
X84207142Y-79635990D01*
X84207142Y-79635990D02*
X84159523Y-79683609D01*
X84159523Y-79683609D02*
X84064285Y-79731228D01*
X84064285Y-79731228D02*
X83683333Y-79731228D01*
X84540476Y-79207419D02*
X84873809Y-80207419D01*
X84873809Y-80207419D02*
X85207142Y-79207419D01*
X85445238Y-79207419D02*
X86064285Y-79207419D01*
X86064285Y-79207419D02*
X85730952Y-79588371D01*
X85730952Y-79588371D02*
X85873809Y-79588371D01*
X85873809Y-79588371D02*
X85969047Y-79635990D01*
X85969047Y-79635990D02*
X86016666Y-79683609D01*
X86016666Y-79683609D02*
X86064285Y-79778847D01*
X86064285Y-79778847D02*
X86064285Y-80016942D01*
X86064285Y-80016942D02*
X86016666Y-80112180D01*
X86016666Y-80112180D02*
X85969047Y-80159800D01*
X85969047Y-80159800D02*
X85873809Y-80207419D01*
X85873809Y-80207419D02*
X85588095Y-80207419D01*
X85588095Y-80207419D02*
X85492857Y-80159800D01*
X85492857Y-80159800D02*
X85445238Y-80112180D01*
X61841666Y-57752419D02*
X61841666Y-58466704D01*
X61841666Y-58466704D02*
X61794047Y-58609561D01*
X61794047Y-58609561D02*
X61698809Y-58704800D01*
X61698809Y-58704800D02*
X61555952Y-58752419D01*
X61555952Y-58752419D02*
X61460714Y-58752419D01*
X62460714Y-58180990D02*
X62365476Y-58133371D01*
X62365476Y-58133371D02*
X62317857Y-58085752D01*
X62317857Y-58085752D02*
X62270238Y-57990514D01*
X62270238Y-57990514D02*
X62270238Y-57942895D01*
X62270238Y-57942895D02*
X62317857Y-57847657D01*
X62317857Y-57847657D02*
X62365476Y-57800038D01*
X62365476Y-57800038D02*
X62460714Y-57752419D01*
X62460714Y-57752419D02*
X62651190Y-57752419D01*
X62651190Y-57752419D02*
X62746428Y-57800038D01*
X62746428Y-57800038D02*
X62794047Y-57847657D01*
X62794047Y-57847657D02*
X62841666Y-57942895D01*
X62841666Y-57942895D02*
X62841666Y-57990514D01*
X62841666Y-57990514D02*
X62794047Y-58085752D01*
X62794047Y-58085752D02*
X62746428Y-58133371D01*
X62746428Y-58133371D02*
X62651190Y-58180990D01*
X62651190Y-58180990D02*
X62460714Y-58180990D01*
X62460714Y-58180990D02*
X62365476Y-58228609D01*
X62365476Y-58228609D02*
X62317857Y-58276228D01*
X62317857Y-58276228D02*
X62270238Y-58371466D01*
X62270238Y-58371466D02*
X62270238Y-58561942D01*
X62270238Y-58561942D02*
X62317857Y-58657180D01*
X62317857Y-58657180D02*
X62365476Y-58704800D01*
X62365476Y-58704800D02*
X62460714Y-58752419D01*
X62460714Y-58752419D02*
X62651190Y-58752419D01*
X62651190Y-58752419D02*
X62746428Y-58704800D01*
X62746428Y-58704800D02*
X62794047Y-58657180D01*
X62794047Y-58657180D02*
X62841666Y-58561942D01*
X62841666Y-58561942D02*
X62841666Y-58371466D01*
X62841666Y-58371466D02*
X62794047Y-58276228D01*
X62794047Y-58276228D02*
X62746428Y-58228609D01*
X62746428Y-58228609D02*
X62651190Y-58180990D01*
D11*
X69081386Y-90379212D02*
X68748053Y-89903021D01*
X68509958Y-90379212D02*
X68509958Y-89379212D01*
X68509958Y-89379212D02*
X68890910Y-89379212D01*
X68890910Y-89379212D02*
X68986148Y-89426831D01*
X68986148Y-89426831D02*
X69033767Y-89474450D01*
X69033767Y-89474450D02*
X69081386Y-89569688D01*
X69081386Y-89569688D02*
X69081386Y-89712545D01*
X69081386Y-89712545D02*
X69033767Y-89807783D01*
X69033767Y-89807783D02*
X68986148Y-89855402D01*
X68986148Y-89855402D02*
X68890910Y-89903021D01*
X68890910Y-89903021D02*
X68509958Y-89903021D01*
X70033767Y-90379212D02*
X69462339Y-90379212D01*
X69748053Y-90379212D02*
X69748053Y-89379212D01*
X69748053Y-89379212D02*
X69652815Y-89522069D01*
X69652815Y-89522069D02*
X69557577Y-89617307D01*
X69557577Y-89617307D02*
X69462339Y-89664926D01*
X70414720Y-89474450D02*
X70462339Y-89426831D01*
X70462339Y-89426831D02*
X70557577Y-89379212D01*
X70557577Y-89379212D02*
X70795672Y-89379212D01*
X70795672Y-89379212D02*
X70890910Y-89426831D01*
X70890910Y-89426831D02*
X70938529Y-89474450D01*
X70938529Y-89474450D02*
X70986148Y-89569688D01*
X70986148Y-89569688D02*
X70986148Y-89664926D01*
X70986148Y-89664926D02*
X70938529Y-89807783D01*
X70938529Y-89807783D02*
X70367101Y-90379212D01*
X70367101Y-90379212D02*
X70986148Y-90379212D01*
X97954819Y-113761904D02*
X98764342Y-113761904D01*
X98764342Y-113761904D02*
X98859580Y-113714285D01*
X98859580Y-113714285D02*
X98907200Y-113666666D01*
X98907200Y-113666666D02*
X98954819Y-113571428D01*
X98954819Y-113571428D02*
X98954819Y-113380952D01*
X98954819Y-113380952D02*
X98907200Y-113285714D01*
X98907200Y-113285714D02*
X98859580Y-113238095D01*
X98859580Y-113238095D02*
X98764342Y-113190476D01*
X98764342Y-113190476D02*
X97954819Y-113190476D01*
X98954819Y-112190476D02*
X98954819Y-112761904D01*
X98954819Y-112476190D02*
X97954819Y-112476190D01*
X97954819Y-112476190D02*
X98097676Y-112571428D01*
X98097676Y-112571428D02*
X98192914Y-112666666D01*
X98192914Y-112666666D02*
X98240533Y-112761904D01*
D10*
X100256666Y-130544950D02*
X100256666Y-131259235D01*
X100256666Y-131259235D02*
X100209047Y-131402092D01*
X100209047Y-131402092D02*
X100113809Y-131497331D01*
X100113809Y-131497331D02*
X99970952Y-131544950D01*
X99970952Y-131544950D02*
X99875714Y-131544950D01*
X100637619Y-130544950D02*
X101256666Y-130544950D01*
X101256666Y-130544950D02*
X100923333Y-130925902D01*
X100923333Y-130925902D02*
X101066190Y-130925902D01*
X101066190Y-130925902D02*
X101161428Y-130973521D01*
X101161428Y-130973521D02*
X101209047Y-131021140D01*
X101209047Y-131021140D02*
X101256666Y-131116378D01*
X101256666Y-131116378D02*
X101256666Y-131354473D01*
X101256666Y-131354473D02*
X101209047Y-131449711D01*
X101209047Y-131449711D02*
X101161428Y-131497331D01*
X101161428Y-131497331D02*
X101066190Y-131544950D01*
X101066190Y-131544950D02*
X100780476Y-131544950D01*
X100780476Y-131544950D02*
X100685238Y-131497331D01*
X100685238Y-131497331D02*
X100637619Y-131449711D01*
D11*
X56817142Y-110544819D02*
X56483809Y-110068628D01*
X56245714Y-110544819D02*
X56245714Y-109544819D01*
X56245714Y-109544819D02*
X56626666Y-109544819D01*
X56626666Y-109544819D02*
X56721904Y-109592438D01*
X56721904Y-109592438D02*
X56769523Y-109640057D01*
X56769523Y-109640057D02*
X56817142Y-109735295D01*
X56817142Y-109735295D02*
X56817142Y-109878152D01*
X56817142Y-109878152D02*
X56769523Y-109973390D01*
X56769523Y-109973390D02*
X56721904Y-110021009D01*
X56721904Y-110021009D02*
X56626666Y-110068628D01*
X56626666Y-110068628D02*
X56245714Y-110068628D01*
X57769523Y-110544819D02*
X57198095Y-110544819D01*
X57483809Y-110544819D02*
X57483809Y-109544819D01*
X57483809Y-109544819D02*
X57388571Y-109687676D01*
X57388571Y-109687676D02*
X57293333Y-109782914D01*
X57293333Y-109782914D02*
X57198095Y-109830533D01*
X58245714Y-110544819D02*
X58436190Y-110544819D01*
X58436190Y-110544819D02*
X58531428Y-110497200D01*
X58531428Y-110497200D02*
X58579047Y-110449580D01*
X58579047Y-110449580D02*
X58674285Y-110306723D01*
X58674285Y-110306723D02*
X58721904Y-110116247D01*
X58721904Y-110116247D02*
X58721904Y-109735295D01*
X58721904Y-109735295D02*
X58674285Y-109640057D01*
X58674285Y-109640057D02*
X58626666Y-109592438D01*
X58626666Y-109592438D02*
X58531428Y-109544819D01*
X58531428Y-109544819D02*
X58340952Y-109544819D01*
X58340952Y-109544819D02*
X58245714Y-109592438D01*
X58245714Y-109592438D02*
X58198095Y-109640057D01*
X58198095Y-109640057D02*
X58150476Y-109735295D01*
X58150476Y-109735295D02*
X58150476Y-109973390D01*
X58150476Y-109973390D02*
X58198095Y-110068628D01*
X58198095Y-110068628D02*
X58245714Y-110116247D01*
X58245714Y-110116247D02*
X58340952Y-110163866D01*
X58340952Y-110163866D02*
X58531428Y-110163866D01*
X58531428Y-110163866D02*
X58626666Y-110116247D01*
X58626666Y-110116247D02*
X58674285Y-110068628D01*
X58674285Y-110068628D02*
X58721904Y-109973390D01*
X70354819Y-116511904D02*
X71164342Y-116511904D01*
X71164342Y-116511904D02*
X71259580Y-116464285D01*
X71259580Y-116464285D02*
X71307200Y-116416666D01*
X71307200Y-116416666D02*
X71354819Y-116321428D01*
X71354819Y-116321428D02*
X71354819Y-116130952D01*
X71354819Y-116130952D02*
X71307200Y-116035714D01*
X71307200Y-116035714D02*
X71259580Y-115988095D01*
X71259580Y-115988095D02*
X71164342Y-115940476D01*
X71164342Y-115940476D02*
X70354819Y-115940476D01*
X70450057Y-115511904D02*
X70402438Y-115464285D01*
X70402438Y-115464285D02*
X70354819Y-115369047D01*
X70354819Y-115369047D02*
X70354819Y-115130952D01*
X70354819Y-115130952D02*
X70402438Y-115035714D01*
X70402438Y-115035714D02*
X70450057Y-114988095D01*
X70450057Y-114988095D02*
X70545295Y-114940476D01*
X70545295Y-114940476D02*
X70640533Y-114940476D01*
X70640533Y-114940476D02*
X70783390Y-114988095D01*
X70783390Y-114988095D02*
X71354819Y-115559523D01*
X71354819Y-115559523D02*
X71354819Y-114940476D01*
D10*
X107754761Y-80207419D02*
X107421428Y-79731228D01*
X107183333Y-80207419D02*
X107183333Y-79207419D01*
X107183333Y-79207419D02*
X107564285Y-79207419D01*
X107564285Y-79207419D02*
X107659523Y-79255038D01*
X107659523Y-79255038D02*
X107707142Y-79302657D01*
X107707142Y-79302657D02*
X107754761Y-79397895D01*
X107754761Y-79397895D02*
X107754761Y-79540752D01*
X107754761Y-79540752D02*
X107707142Y-79635990D01*
X107707142Y-79635990D02*
X107659523Y-79683609D01*
X107659523Y-79683609D02*
X107564285Y-79731228D01*
X107564285Y-79731228D02*
X107183333Y-79731228D01*
X108040476Y-79207419D02*
X108373809Y-80207419D01*
X108373809Y-80207419D02*
X108707142Y-79207419D01*
X109469047Y-79540752D02*
X109469047Y-80207419D01*
X109230952Y-79159800D02*
X108992857Y-79874085D01*
X108992857Y-79874085D02*
X109611904Y-79874085D01*
D11*
X83416255Y-85209177D02*
X83082922Y-84732986D01*
X82844827Y-85209177D02*
X82844827Y-84209177D01*
X82844827Y-84209177D02*
X83225779Y-84209177D01*
X83225779Y-84209177D02*
X83321017Y-84256796D01*
X83321017Y-84256796D02*
X83368636Y-84304415D01*
X83368636Y-84304415D02*
X83416255Y-84399653D01*
X83416255Y-84399653D02*
X83416255Y-84542510D01*
X83416255Y-84542510D02*
X83368636Y-84637748D01*
X83368636Y-84637748D02*
X83321017Y-84685367D01*
X83321017Y-84685367D02*
X83225779Y-84732986D01*
X83225779Y-84732986D02*
X82844827Y-84732986D01*
X84368636Y-85209177D02*
X83797208Y-85209177D01*
X84082922Y-85209177D02*
X84082922Y-84209177D01*
X84082922Y-84209177D02*
X83987684Y-84352034D01*
X83987684Y-84352034D02*
X83892446Y-84447272D01*
X83892446Y-84447272D02*
X83797208Y-84494891D01*
X85321017Y-85209177D02*
X84749589Y-85209177D01*
X85035303Y-85209177D02*
X85035303Y-84209177D01*
X85035303Y-84209177D02*
X84940065Y-84352034D01*
X84940065Y-84352034D02*
X84844827Y-84447272D01*
X84844827Y-84447272D02*
X84749589Y-84494891D01*
X91954819Y-46916666D02*
X91478628Y-47249999D01*
X91954819Y-47488094D02*
X90954819Y-47488094D01*
X90954819Y-47488094D02*
X90954819Y-47107142D01*
X90954819Y-47107142D02*
X91002438Y-47011904D01*
X91002438Y-47011904D02*
X91050057Y-46964285D01*
X91050057Y-46964285D02*
X91145295Y-46916666D01*
X91145295Y-46916666D02*
X91288152Y-46916666D01*
X91288152Y-46916666D02*
X91383390Y-46964285D01*
X91383390Y-46964285D02*
X91431009Y-47011904D01*
X91431009Y-47011904D02*
X91478628Y-47107142D01*
X91478628Y-47107142D02*
X91478628Y-47488094D01*
X91383390Y-46345237D02*
X91335771Y-46440475D01*
X91335771Y-46440475D02*
X91288152Y-46488094D01*
X91288152Y-46488094D02*
X91192914Y-46535713D01*
X91192914Y-46535713D02*
X91145295Y-46535713D01*
X91145295Y-46535713D02*
X91050057Y-46488094D01*
X91050057Y-46488094D02*
X91002438Y-46440475D01*
X91002438Y-46440475D02*
X90954819Y-46345237D01*
X90954819Y-46345237D02*
X90954819Y-46154761D01*
X90954819Y-46154761D02*
X91002438Y-46059523D01*
X91002438Y-46059523D02*
X91050057Y-46011904D01*
X91050057Y-46011904D02*
X91145295Y-45964285D01*
X91145295Y-45964285D02*
X91192914Y-45964285D01*
X91192914Y-45964285D02*
X91288152Y-46011904D01*
X91288152Y-46011904D02*
X91335771Y-46059523D01*
X91335771Y-46059523D02*
X91383390Y-46154761D01*
X91383390Y-46154761D02*
X91383390Y-46345237D01*
X91383390Y-46345237D02*
X91431009Y-46440475D01*
X91431009Y-46440475D02*
X91478628Y-46488094D01*
X91478628Y-46488094D02*
X91573866Y-46535713D01*
X91573866Y-46535713D02*
X91764342Y-46535713D01*
X91764342Y-46535713D02*
X91859580Y-46488094D01*
X91859580Y-46488094D02*
X91907200Y-46440475D01*
X91907200Y-46440475D02*
X91954819Y-46345237D01*
X91954819Y-46345237D02*
X91954819Y-46154761D01*
X91954819Y-46154761D02*
X91907200Y-46059523D01*
X91907200Y-46059523D02*
X91859580Y-46011904D01*
X91859580Y-46011904D02*
X91764342Y-45964285D01*
X91764342Y-45964285D02*
X91573866Y-45964285D01*
X91573866Y-45964285D02*
X91478628Y-46011904D01*
X91478628Y-46011904D02*
X91431009Y-46059523D01*
X91431009Y-46059523D02*
X91383390Y-46154761D01*
D10*
X107365476Y-57752419D02*
X107365476Y-58466704D01*
X107365476Y-58466704D02*
X107317857Y-58609561D01*
X107317857Y-58609561D02*
X107222619Y-58704800D01*
X107222619Y-58704800D02*
X107079762Y-58752419D01*
X107079762Y-58752419D02*
X106984524Y-58752419D01*
X108365476Y-58752419D02*
X107794048Y-58752419D01*
X108079762Y-58752419D02*
X108079762Y-57752419D01*
X108079762Y-57752419D02*
X107984524Y-57895276D01*
X107984524Y-57895276D02*
X107889286Y-57990514D01*
X107889286Y-57990514D02*
X107794048Y-58038133D01*
X108984524Y-57752419D02*
X109079762Y-57752419D01*
X109079762Y-57752419D02*
X109175000Y-57800038D01*
X109175000Y-57800038D02*
X109222619Y-57847657D01*
X109222619Y-57847657D02*
X109270238Y-57942895D01*
X109270238Y-57942895D02*
X109317857Y-58133371D01*
X109317857Y-58133371D02*
X109317857Y-58371466D01*
X109317857Y-58371466D02*
X109270238Y-58561942D01*
X109270238Y-58561942D02*
X109222619Y-58657180D01*
X109222619Y-58657180D02*
X109175000Y-58704800D01*
X109175000Y-58704800D02*
X109079762Y-58752419D01*
X109079762Y-58752419D02*
X108984524Y-58752419D01*
X108984524Y-58752419D02*
X108889286Y-58704800D01*
X108889286Y-58704800D02*
X108841667Y-58657180D01*
X108841667Y-58657180D02*
X108794048Y-58561942D01*
X108794048Y-58561942D02*
X108746429Y-58371466D01*
X108746429Y-58371466D02*
X108746429Y-58133371D01*
X108746429Y-58133371D02*
X108794048Y-57942895D01*
X108794048Y-57942895D02*
X108841667Y-57847657D01*
X108841667Y-57847657D02*
X108889286Y-57800038D01*
X108889286Y-57800038D02*
X108984524Y-57752419D01*
D11*
X83913333Y-100674819D02*
X83580000Y-100198628D01*
X83341905Y-100674819D02*
X83341905Y-99674819D01*
X83341905Y-99674819D02*
X83722857Y-99674819D01*
X83722857Y-99674819D02*
X83818095Y-99722438D01*
X83818095Y-99722438D02*
X83865714Y-99770057D01*
X83865714Y-99770057D02*
X83913333Y-99865295D01*
X83913333Y-99865295D02*
X83913333Y-100008152D01*
X83913333Y-100008152D02*
X83865714Y-100103390D01*
X83865714Y-100103390D02*
X83818095Y-100151009D01*
X83818095Y-100151009D02*
X83722857Y-100198628D01*
X83722857Y-100198628D02*
X83341905Y-100198628D01*
X84294286Y-99770057D02*
X84341905Y-99722438D01*
X84341905Y-99722438D02*
X84437143Y-99674819D01*
X84437143Y-99674819D02*
X84675238Y-99674819D01*
X84675238Y-99674819D02*
X84770476Y-99722438D01*
X84770476Y-99722438D02*
X84818095Y-99770057D01*
X84818095Y-99770057D02*
X84865714Y-99865295D01*
X84865714Y-99865295D02*
X84865714Y-99960533D01*
X84865714Y-99960533D02*
X84818095Y-100103390D01*
X84818095Y-100103390D02*
X84246667Y-100674819D01*
X84246667Y-100674819D02*
X84865714Y-100674819D01*
X92505819Y-32254333D02*
X93220104Y-32254333D01*
X93220104Y-32254333D02*
X93362961Y-32301952D01*
X93362961Y-32301952D02*
X93458200Y-32397190D01*
X93458200Y-32397190D02*
X93505819Y-32540047D01*
X93505819Y-32540047D02*
X93505819Y-32635285D01*
X93505819Y-31254333D02*
X93505819Y-31825761D01*
X93505819Y-31540047D02*
X92505819Y-31540047D01*
X92505819Y-31540047D02*
X92648676Y-31635285D01*
X92648676Y-31635285D02*
X92743914Y-31730523D01*
X92743914Y-31730523D02*
X92791533Y-31825761D01*
X83913333Y-110544819D02*
X83580000Y-110068628D01*
X83341905Y-110544819D02*
X83341905Y-109544819D01*
X83341905Y-109544819D02*
X83722857Y-109544819D01*
X83722857Y-109544819D02*
X83818095Y-109592438D01*
X83818095Y-109592438D02*
X83865714Y-109640057D01*
X83865714Y-109640057D02*
X83913333Y-109735295D01*
X83913333Y-109735295D02*
X83913333Y-109878152D01*
X83913333Y-109878152D02*
X83865714Y-109973390D01*
X83865714Y-109973390D02*
X83818095Y-110021009D01*
X83818095Y-110021009D02*
X83722857Y-110068628D01*
X83722857Y-110068628D02*
X83341905Y-110068628D01*
X84770476Y-109878152D02*
X84770476Y-110544819D01*
X84532381Y-109497200D02*
X84294286Y-110211485D01*
X84294286Y-110211485D02*
X84913333Y-110211485D01*
D10*
X84756666Y-130544950D02*
X84756666Y-131259235D01*
X84756666Y-131259235D02*
X84709047Y-131402092D01*
X84709047Y-131402092D02*
X84613809Y-131497331D01*
X84613809Y-131497331D02*
X84470952Y-131544950D01*
X84470952Y-131544950D02*
X84375714Y-131544950D01*
X85661428Y-130878283D02*
X85661428Y-131544950D01*
X85423333Y-130497331D02*
X85185238Y-131211616D01*
X85185238Y-131211616D02*
X85804285Y-131211616D01*
D11*
X102859580Y-86666666D02*
X102907200Y-86714285D01*
X102907200Y-86714285D02*
X102954819Y-86857142D01*
X102954819Y-86857142D02*
X102954819Y-86952380D01*
X102954819Y-86952380D02*
X102907200Y-87095237D01*
X102907200Y-87095237D02*
X102811961Y-87190475D01*
X102811961Y-87190475D02*
X102716723Y-87238094D01*
X102716723Y-87238094D02*
X102526247Y-87285713D01*
X102526247Y-87285713D02*
X102383390Y-87285713D01*
X102383390Y-87285713D02*
X102192914Y-87238094D01*
X102192914Y-87238094D02*
X102097676Y-87190475D01*
X102097676Y-87190475D02*
X102002438Y-87095237D01*
X102002438Y-87095237D02*
X101954819Y-86952380D01*
X101954819Y-86952380D02*
X101954819Y-86857142D01*
X101954819Y-86857142D02*
X102002438Y-86714285D01*
X102002438Y-86714285D02*
X102050057Y-86666666D01*
X102050057Y-86285713D02*
X102002438Y-86238094D01*
X102002438Y-86238094D02*
X101954819Y-86142856D01*
X101954819Y-86142856D02*
X101954819Y-85904761D01*
X101954819Y-85904761D02*
X102002438Y-85809523D01*
X102002438Y-85809523D02*
X102050057Y-85761904D01*
X102050057Y-85761904D02*
X102145295Y-85714285D01*
X102145295Y-85714285D02*
X102240533Y-85714285D01*
X102240533Y-85714285D02*
X102383390Y-85761904D01*
X102383390Y-85761904D02*
X102954819Y-86333332D01*
X102954819Y-86333332D02*
X102954819Y-85714285D01*
D10*
X69256666Y-130544950D02*
X69256666Y-131259235D01*
X69256666Y-131259235D02*
X69209047Y-131402092D01*
X69209047Y-131402092D02*
X69113809Y-131497331D01*
X69113809Y-131497331D02*
X68970952Y-131544950D01*
X68970952Y-131544950D02*
X68875714Y-131544950D01*
X70209047Y-130544950D02*
X69732857Y-130544950D01*
X69732857Y-130544950D02*
X69685238Y-131021140D01*
X69685238Y-131021140D02*
X69732857Y-130973521D01*
X69732857Y-130973521D02*
X69828095Y-130925902D01*
X69828095Y-130925902D02*
X70066190Y-130925902D01*
X70066190Y-130925902D02*
X70161428Y-130973521D01*
X70161428Y-130973521D02*
X70209047Y-131021140D01*
X70209047Y-131021140D02*
X70256666Y-131116378D01*
X70256666Y-131116378D02*
X70256666Y-131354473D01*
X70256666Y-131354473D02*
X70209047Y-131449711D01*
X70209047Y-131449711D02*
X70161428Y-131497331D01*
X70161428Y-131497331D02*
X70066190Y-131544950D01*
X70066190Y-131544950D02*
X69828095Y-131544950D01*
X69828095Y-131544950D02*
X69732857Y-131497331D01*
X69732857Y-131497331D02*
X69685238Y-131449711D01*
D11*
X93859580Y-86666666D02*
X93907200Y-86714285D01*
X93907200Y-86714285D02*
X93954819Y-86857142D01*
X93954819Y-86857142D02*
X93954819Y-86952380D01*
X93954819Y-86952380D02*
X93907200Y-87095237D01*
X93907200Y-87095237D02*
X93811961Y-87190475D01*
X93811961Y-87190475D02*
X93716723Y-87238094D01*
X93716723Y-87238094D02*
X93526247Y-87285713D01*
X93526247Y-87285713D02*
X93383390Y-87285713D01*
X93383390Y-87285713D02*
X93192914Y-87238094D01*
X93192914Y-87238094D02*
X93097676Y-87190475D01*
X93097676Y-87190475D02*
X93002438Y-87095237D01*
X93002438Y-87095237D02*
X92954819Y-86952380D01*
X92954819Y-86952380D02*
X92954819Y-86857142D01*
X92954819Y-86857142D02*
X93002438Y-86714285D01*
X93002438Y-86714285D02*
X93050057Y-86666666D01*
X92954819Y-86333332D02*
X92954819Y-85714285D01*
X92954819Y-85714285D02*
X93335771Y-86047618D01*
X93335771Y-86047618D02*
X93335771Y-85904761D01*
X93335771Y-85904761D02*
X93383390Y-85809523D01*
X93383390Y-85809523D02*
X93431009Y-85761904D01*
X93431009Y-85761904D02*
X93526247Y-85714285D01*
X93526247Y-85714285D02*
X93764342Y-85714285D01*
X93764342Y-85714285D02*
X93859580Y-85761904D01*
X93859580Y-85761904D02*
X93907200Y-85809523D01*
X93907200Y-85809523D02*
X93954819Y-85904761D01*
X93954819Y-85904761D02*
X93954819Y-86190475D01*
X93954819Y-86190475D02*
X93907200Y-86285713D01*
X93907200Y-86285713D02*
X93859580Y-86333332D01*
X56763800Y-95294446D02*
X56430467Y-94818255D01*
X56192372Y-95294446D02*
X56192372Y-94294446D01*
X56192372Y-94294446D02*
X56573324Y-94294446D01*
X56573324Y-94294446D02*
X56668562Y-94342065D01*
X56668562Y-94342065D02*
X56716181Y-94389684D01*
X56716181Y-94389684D02*
X56763800Y-94484922D01*
X56763800Y-94484922D02*
X56763800Y-94627779D01*
X56763800Y-94627779D02*
X56716181Y-94723017D01*
X56716181Y-94723017D02*
X56668562Y-94770636D01*
X56668562Y-94770636D02*
X56573324Y-94818255D01*
X56573324Y-94818255D02*
X56192372Y-94818255D01*
X57716181Y-95294446D02*
X57144753Y-95294446D01*
X57430467Y-95294446D02*
X57430467Y-94294446D01*
X57430467Y-94294446D02*
X57335229Y-94437303D01*
X57335229Y-94437303D02*
X57239991Y-94532541D01*
X57239991Y-94532541D02*
X57144753Y-94580160D01*
X58573324Y-94294446D02*
X58382848Y-94294446D01*
X58382848Y-94294446D02*
X58287610Y-94342065D01*
X58287610Y-94342065D02*
X58239991Y-94389684D01*
X58239991Y-94389684D02*
X58144753Y-94532541D01*
X58144753Y-94532541D02*
X58097134Y-94723017D01*
X58097134Y-94723017D02*
X58097134Y-95103969D01*
X58097134Y-95103969D02*
X58144753Y-95199207D01*
X58144753Y-95199207D02*
X58192372Y-95246827D01*
X58192372Y-95246827D02*
X58287610Y-95294446D01*
X58287610Y-95294446D02*
X58478086Y-95294446D01*
X58478086Y-95294446D02*
X58573324Y-95246827D01*
X58573324Y-95246827D02*
X58620943Y-95199207D01*
X58620943Y-95199207D02*
X58668562Y-95103969D01*
X58668562Y-95103969D02*
X58668562Y-94865874D01*
X58668562Y-94865874D02*
X58620943Y-94770636D01*
X58620943Y-94770636D02*
X58573324Y-94723017D01*
X58573324Y-94723017D02*
X58478086Y-94675398D01*
X58478086Y-94675398D02*
X58287610Y-94675398D01*
X58287610Y-94675398D02*
X58192372Y-94723017D01*
X58192372Y-94723017D02*
X58144753Y-94770636D01*
X58144753Y-94770636D02*
X58097134Y-94865874D01*
X83913333Y-90674819D02*
X83580000Y-90198628D01*
X83341905Y-90674819D02*
X83341905Y-89674819D01*
X83341905Y-89674819D02*
X83722857Y-89674819D01*
X83722857Y-89674819D02*
X83818095Y-89722438D01*
X83818095Y-89722438D02*
X83865714Y-89770057D01*
X83865714Y-89770057D02*
X83913333Y-89865295D01*
X83913333Y-89865295D02*
X83913333Y-90008152D01*
X83913333Y-90008152D02*
X83865714Y-90103390D01*
X83865714Y-90103390D02*
X83818095Y-90151009D01*
X83818095Y-90151009D02*
X83722857Y-90198628D01*
X83722857Y-90198628D02*
X83341905Y-90198628D01*
X84865714Y-90674819D02*
X84294286Y-90674819D01*
X84580000Y-90674819D02*
X84580000Y-89674819D01*
X84580000Y-89674819D02*
X84484762Y-89817676D01*
X84484762Y-89817676D02*
X84389524Y-89912914D01*
X84389524Y-89912914D02*
X84294286Y-89960533D01*
%TO.C,SW1*%
D10*
X106421738Y-95071456D02*
X114421738Y-95071456D01*
X114421738Y-108071456D01*
X106421738Y-108071456D01*
X106421738Y-95071456D01*
D12*
%TO.C,RV1*%
X51585000Y-88480000D02*
X61335000Y-88480000D01*
X51585000Y-93530000D02*
X51585000Y-88480000D01*
X61335000Y-88480000D02*
X61335000Y-93530000D01*
X61335000Y-93530000D02*
X51585000Y-93530000D01*
%TO.C,R7*%
X88040000Y-107590000D02*
X87270000Y-107590000D01*
X79960000Y-107590000D02*
X80730000Y-107590000D01*
X87270000Y-108960000D02*
X80730000Y-108960000D01*
X80730000Y-106220000D01*
X87270000Y-106220000D01*
X87270000Y-108960000D01*
%TO.C,R15*%
X53406658Y-102339627D02*
X54176658Y-102339627D01*
X61486658Y-102339627D02*
X60716658Y-102339627D01*
X54176658Y-100969627D02*
X60716658Y-100969627D01*
X60716658Y-103709627D01*
X54176658Y-103709627D01*
X54176658Y-100969627D01*
%TO.C,R17*%
X93000000Y-119960000D02*
X93000000Y-120730000D01*
X93000000Y-128040000D02*
X93000000Y-127270000D01*
X94370000Y-120730000D02*
X91630000Y-120730000D01*
X91630000Y-127270000D01*
X94370000Y-127270000D01*
X94370000Y-120730000D01*
%TO.C,R13*%
X73460000Y-87250000D02*
X72690000Y-87250000D01*
X65380000Y-87250000D02*
X66150000Y-87250000D01*
X72690000Y-88620000D02*
X66150000Y-88620000D01*
X66150000Y-85880000D01*
X72690000Y-85880000D01*
X72690000Y-88620000D01*
%TO.C,R6*%
X84000000Y-42630000D02*
X84000000Y-43400000D01*
X84000000Y-50710000D02*
X84000000Y-49940000D01*
X85370000Y-43400000D02*
X82630000Y-43400000D01*
X82630000Y-49940000D01*
X85370000Y-49940000D01*
X85370000Y-43400000D01*
%TO.C,R10*%
X81191000Y-37401000D02*
X81961000Y-37401000D01*
X89271000Y-37401000D02*
X88501000Y-37401000D01*
X81961000Y-36031000D02*
X88501000Y-36031000D01*
X88501000Y-38771000D01*
X81961000Y-38771000D01*
X81961000Y-36031000D01*
%TO.C,R5*%
X78500000Y-42630000D02*
X78500000Y-43400000D01*
X78500000Y-50710000D02*
X78500000Y-49940000D01*
X79870000Y-43400000D02*
X77130000Y-43400000D01*
X77130000Y-49940000D01*
X79870000Y-49940000D01*
X79870000Y-43400000D01*
D10*
%TO.C,J6*%
X113995676Y-46548247D02*
G75*
G02*
X101995676Y-46548247I-6000000J0D01*
G01*
X101995676Y-46548247D02*
G75*
G02*
X113995676Y-46548247I6000000J0D01*
G01*
D12*
%TO.C,R3*%
X80040000Y-97590000D02*
X80810000Y-97590000D01*
X88120000Y-97590000D02*
X87350000Y-97590000D01*
X80810000Y-96220000D02*
X87350000Y-96220000D01*
X87350000Y-98960000D01*
X80810000Y-98960000D01*
X80810000Y-96220000D01*
%TO.C,R20*%
X93460000Y-115750000D02*
X94230000Y-115750000D01*
X101540000Y-115750000D02*
X100770000Y-115750000D01*
X94230000Y-114380000D02*
X100770000Y-114380000D01*
X100770000Y-117120000D01*
X94230000Y-117120000D01*
X94230000Y-114380000D01*
%TO.C,R14*%
X77500000Y-128040000D02*
X77500000Y-127270000D01*
X77500000Y-119960000D02*
X77500000Y-120730000D01*
X76130000Y-127270000D02*
X78870000Y-127270000D01*
X78870000Y-120730000D01*
X76130000Y-120730000D01*
X76130000Y-127270000D01*
D10*
%TO.C,J7*%
X68063928Y-46644742D02*
G75*
G02*
X56063928Y-46644742I-6000000J0D01*
G01*
X56063928Y-46644742D02*
G75*
G02*
X68063928Y-46644742I6000000J0D01*
G01*
D12*
%TO.C,C1*%
X83111000Y-31031000D02*
X88351000Y-31031000D01*
X83111000Y-31368000D02*
X83111000Y-31031000D01*
X83111000Y-33771000D02*
X83111000Y-33434000D01*
X88351000Y-31031000D02*
X88351000Y-31368000D01*
X88351000Y-33434000D02*
X88351000Y-33771000D01*
X88351000Y-33771000D02*
X83111000Y-33771000D01*
%TO.C,RV2*%
X57930000Y-78130000D02*
X57930000Y-76750000D01*
X59310000Y-78130000D02*
X57930000Y-78130000D01*
X60580000Y-75370000D02*
X65770000Y-75370000D01*
X60580000Y-78130000D02*
X60580000Y-75370000D01*
X60580000Y-78130000D02*
X65770000Y-78130000D01*
X65770000Y-78130000D02*
X65770000Y-75370000D01*
D10*
X50850000Y-54750000D02*
X72850000Y-54750000D01*
X72850000Y-78750000D01*
X50850000Y-78750000D01*
X50850000Y-54750000D01*
D12*
%TO.C,R18*%
X61460000Y-107590000D02*
X60690000Y-107590000D01*
X53380000Y-107590000D02*
X54150000Y-107590000D01*
X60690000Y-108960000D02*
X54150000Y-108960000D01*
X54150000Y-106220000D01*
X60690000Y-106220000D01*
X60690000Y-108960000D01*
%TO.C,J2*%
X65231000Y-37871000D02*
X66231000Y-37871000D01*
X66231000Y-37871000D02*
X65731000Y-36871000D01*
X65731000Y-36871000D02*
X65231000Y-37871000D01*
X60521000Y-36481000D02*
X60521000Y-27361000D01*
X66221000Y-36481000D02*
X66221000Y-35171000D01*
X76021000Y-36481000D02*
X60521000Y-36481000D01*
X61821000Y-35171000D02*
X61821000Y-28671000D01*
X66221000Y-35171000D02*
X61821000Y-35171000D01*
X70321000Y-35171000D02*
X70321000Y-36481000D01*
X74721000Y-35171000D02*
X70321000Y-35171000D01*
X61821000Y-28671000D02*
X74721000Y-28671000D01*
X74721000Y-28671000D02*
X74721000Y-35171000D01*
X60521000Y-27361000D02*
X76021000Y-27361000D01*
X76021000Y-27361000D02*
X76021000Y-36481000D01*
%TO.C,R9*%
X89016549Y-50670809D02*
X89016549Y-49900809D01*
X89016549Y-42590809D02*
X89016549Y-43360809D01*
X87646549Y-49900809D02*
X90386549Y-49900809D01*
X90386549Y-43360809D01*
X87646549Y-43360809D01*
X87646549Y-49900809D01*
%TO.C,RV3*%
X81030000Y-78130000D02*
X81030000Y-76750000D01*
X82410000Y-78130000D02*
X81030000Y-78130000D01*
X83680000Y-75370000D02*
X88870000Y-75370000D01*
X83680000Y-78130000D02*
X83680000Y-75370000D01*
X83680000Y-78130000D02*
X88870000Y-78130000D01*
X88870000Y-78130000D02*
X88870000Y-75370000D01*
D10*
X73950000Y-54750000D02*
X95950000Y-54750000D01*
X95950000Y-78750000D01*
X73950000Y-78750000D01*
X73950000Y-54750000D01*
D12*
%TO.C,R12*%
X73684244Y-92424393D02*
X72914244Y-92424393D01*
X65604244Y-92424393D02*
X66374244Y-92424393D01*
X72914244Y-93794393D02*
X66374244Y-93794393D01*
X66374244Y-91054393D01*
X72914244Y-91054393D01*
X72914244Y-93794393D01*
%TO.C,U1*%
X95660000Y-91220000D02*
X95660000Y-111660000D01*
X95660000Y-111660000D02*
X100960000Y-111660000D01*
X97310000Y-91220000D02*
X95660000Y-91220000D01*
X100960000Y-91220000D02*
X99310000Y-91220000D01*
X100960000Y-111660000D02*
X100960000Y-91220000D01*
X93170000Y-91160000D02*
X103450000Y-91160000D01*
X103450000Y-111720000D01*
X93170000Y-111720000D01*
X93170000Y-91160000D01*
X99310000Y-91220000D02*
G75*
G02*
X97310000Y-91220000I-1000000J0D01*
G01*
D10*
%TO.C,J3*%
X106500000Y-124000000D02*
G75*
G02*
X94500000Y-124000000I-6000000J0D01*
G01*
X94500000Y-124000000D02*
G75*
G02*
X106500000Y-124000000I6000000J0D01*
G01*
D12*
%TO.C,R19*%
X53380000Y-112590000D02*
X54150000Y-112590000D01*
X61460000Y-112590000D02*
X60690000Y-112590000D01*
X54150000Y-111220000D02*
X60690000Y-111220000D01*
X60690000Y-113960000D01*
X54150000Y-113960000D01*
X54150000Y-111220000D01*
%TO.C,U2*%
X73340000Y-113960000D02*
X73340000Y-96060000D01*
X73340000Y-96060000D02*
X68040000Y-96060000D01*
X71690000Y-113960000D02*
X73340000Y-113960000D01*
X68040000Y-113960000D02*
X69690000Y-113960000D01*
X68040000Y-96060000D02*
X68040000Y-113960000D01*
X75830000Y-114020000D02*
X65550000Y-114020000D01*
X65550000Y-96000000D01*
X75830000Y-96000000D01*
X75830000Y-114020000D01*
X69690000Y-113960000D02*
G75*
G02*
X71690000Y-113960000I1000000J0D01*
G01*
%TO.C,RV4*%
X104130000Y-78130000D02*
X104130000Y-76750000D01*
X105510000Y-78130000D02*
X104130000Y-78130000D01*
X106780000Y-75370000D02*
X111970000Y-75370000D01*
X106780000Y-78130000D02*
X106780000Y-75370000D01*
X106780000Y-78130000D02*
X111970000Y-78130000D01*
X111970000Y-78130000D02*
X111970000Y-75370000D01*
D10*
X97050000Y-54750000D02*
X119050000Y-54750000D01*
X119050000Y-78750000D01*
X97050000Y-78750000D01*
X97050000Y-54750000D01*
D12*
%TO.C,R11*%
X88099113Y-87254358D02*
X87329113Y-87254358D01*
X80019113Y-87254358D02*
X80789113Y-87254358D01*
X87329113Y-88624358D02*
X80789113Y-88624358D01*
X80789113Y-85884358D01*
X87329113Y-85884358D01*
X87329113Y-88624358D01*
%TO.C,R8*%
X94000000Y-50710000D02*
X94000000Y-49940000D01*
X94000000Y-42630000D02*
X94000000Y-43400000D01*
X92630000Y-49940000D02*
X95370000Y-49940000D01*
X95370000Y-43400000D01*
X92630000Y-43400000D01*
X92630000Y-49940000D01*
%TO.C,R2*%
X80040000Y-102590000D02*
X80810000Y-102590000D01*
X88120000Y-102590000D02*
X87350000Y-102590000D01*
X80810000Y-101220000D02*
X87350000Y-101220000D01*
X87350000Y-103960000D01*
X80810000Y-103960000D01*
X80810000Y-101220000D01*
%TO.C,J1*%
X98651000Y-37871000D02*
X99651000Y-37871000D01*
X99651000Y-37871000D02*
X99151000Y-36871000D01*
X99151000Y-36871000D02*
X98651000Y-37871000D01*
X93941000Y-36481000D02*
X93941000Y-27361000D01*
X99641000Y-36481000D02*
X99641000Y-35171000D01*
X109441000Y-36481000D02*
X93941000Y-36481000D01*
X95241000Y-35171000D02*
X95241000Y-28671000D01*
X99641000Y-35171000D02*
X95241000Y-35171000D01*
X103741000Y-35171000D02*
X103741000Y-36481000D01*
X108141000Y-35171000D02*
X103741000Y-35171000D01*
X95241000Y-28671000D02*
X108141000Y-28671000D01*
X108141000Y-28671000D02*
X108141000Y-35171000D01*
X93941000Y-27361000D02*
X109441000Y-27361000D01*
X109441000Y-27361000D02*
X109441000Y-36481000D01*
%TO.C,R4*%
X88040000Y-112590000D02*
X87270000Y-112590000D01*
X79960000Y-112590000D02*
X80730000Y-112590000D01*
X87270000Y-113960000D02*
X80730000Y-113960000D01*
X80730000Y-111220000D01*
X87270000Y-111220000D01*
X87270000Y-113960000D01*
D10*
%TO.C,J4*%
X91000000Y-124000000D02*
G75*
G02*
X79000000Y-124000000I-6000000J0D01*
G01*
X79000000Y-124000000D02*
G75*
G02*
X91000000Y-124000000I6000000J0D01*
G01*
D12*
%TO.C,C2*%
X98630000Y-89120000D02*
X98630000Y-83880000D01*
X98967000Y-89120000D02*
X98630000Y-89120000D01*
X101370000Y-89120000D02*
X101033000Y-89120000D01*
X98630000Y-83880000D02*
X98967000Y-83880000D01*
X101033000Y-83880000D02*
X101370000Y-83880000D01*
X101370000Y-83880000D02*
X101370000Y-89120000D01*
D10*
%TO.C,J5*%
X75500000Y-124000000D02*
G75*
G02*
X63500000Y-124000000I-6000000J0D01*
G01*
X63500000Y-124000000D02*
G75*
G02*
X75500000Y-124000000I6000000J0D01*
G01*
D12*
%TO.C,C3*%
X94630000Y-89120000D02*
X94630000Y-83880000D01*
X94967000Y-89120000D02*
X94630000Y-89120000D01*
X97370000Y-89120000D02*
X97033000Y-89120000D01*
X94630000Y-83880000D02*
X94967000Y-83880000D01*
X97033000Y-83880000D02*
X97370000Y-83880000D01*
X97370000Y-83880000D02*
X97370000Y-89120000D01*
%TO.C,R16*%
X53406658Y-97339627D02*
X54176658Y-97339627D01*
X61486658Y-97339627D02*
X60716658Y-97339627D01*
X54176658Y-95969627D02*
X60716658Y-95969627D01*
X60716658Y-98709627D01*
X54176658Y-98709627D01*
X54176658Y-95969627D01*
%TO.C,R1*%
X80040000Y-92590000D02*
X80810000Y-92590000D01*
X88120000Y-92590000D02*
X87350000Y-92590000D01*
X80810000Y-91220000D02*
X87350000Y-91220000D01*
X87350000Y-93960000D01*
X80810000Y-93960000D01*
X80810000Y-91220000D01*
%TD*%
M02*
