%TF.GenerationSoftware,KiCad,Pcbnew,9.0.6*%
%TF.CreationDate,2026-01-21T23:07:25+11:00*%
%TF.ProjectId,oscillator,6f736369-6c6c-4617-946f-722e6b696361,rev?*%
%TF.SameCoordinates,Original*%
%TF.FileFunction,Soldermask,Bot*%
%TF.FilePolarity,Negative*%
%FSLAX46Y46*%
G04 Gerber Fmt 4.6, Leading zero omitted, Abs format (unit mm)*
G04 Created by KiCad (PCBNEW 9.0.6) date 2026-01-21 23:07:25*
%MOMM*%
%LPD*%
G01*
G04 APERTURE LIST*
G04 Aperture macros list*
%AMRoundRect*
0 Rectangle with rounded corners*
0 $1 Rounding radius*
0 $2 $3 $4 $5 $6 $7 $8 $9 X,Y pos of 4 corners*
0 Add a 4 corners polygon primitive as box body*
4,1,4,$2,$3,$4,$5,$6,$7,$8,$9,$2,$3,0*
0 Add four circle primitives for the rounded corners*
1,1,$1+$1,$2,$3*
1,1,$1+$1,$4,$5*
1,1,$1+$1,$6,$7*
1,1,$1+$1,$8,$9*
0 Add four rect primitives between the rounded corners*
20,1,$1+$1,$2,$3,$4,$5,0*
20,1,$1+$1,$4,$5,$6,$7,0*
20,1,$1+$1,$6,$7,$8,$9,0*
20,1,$1+$1,$8,$9,$2,$3,0*%
G04 Aperture macros list end*
%ADD10C,1.600000*%
%ADD11R,2.000000X2.000000*%
%ADD12C,2.000000*%
%ADD13C,8.000000*%
%ADD14C,2.200000*%
%ADD15R,1.700000X1.700000*%
%ADD16C,1.700000*%
%ADD17RoundRect,0.250000X0.600000X-0.600000X0.600000X0.600000X-0.600000X0.600000X-0.600000X-0.600000X0*%
%ADD18O,3.750000X2.000000*%
%ADD19C,1.440000*%
%ADD20RoundRect,0.250000X-0.550000X-0.550000X0.550000X-0.550000X0.550000X0.550000X-0.550000X0.550000X0*%
%ADD21RoundRect,0.250000X0.550000X0.550000X-0.550000X0.550000X-0.550000X-0.550000X0.550000X-0.550000X0*%
G04 APERTURE END LIST*
D10*
%TO.C,C7*%
X104986294Y-105321825D03*
X104986294Y-110321825D03*
%TD*%
%TO.C,R7*%
X89080000Y-109500000D03*
X78920000Y-109500000D03*
%TD*%
%TO.C,C6*%
X105000000Y-93500000D03*
X105000000Y-98500000D03*
%TD*%
%TO.C,R15*%
X52366658Y-102339627D03*
X62526658Y-102339627D03*
%TD*%
%TO.C,C4*%
X64049373Y-110017956D03*
X64049373Y-105017956D03*
%TD*%
%TO.C,R17*%
X92976806Y-119000000D03*
X92976806Y-129160000D03*
%TD*%
%TO.C,R13*%
X74500000Y-87250000D03*
X64340000Y-87250000D03*
%TD*%
D11*
%TO.C,J9*%
X80000000Y-60500000D03*
D12*
X85080000Y-60500000D03*
X90080000Y-60500000D03*
%TD*%
D10*
%TO.C,R6*%
X82000000Y-43000000D03*
X82000000Y-53160000D03*
%TD*%
%TO.C,R10*%
X88000000Y-43000000D03*
X88000000Y-53160000D03*
%TD*%
%TO.C,R5*%
X65095193Y-43001691D03*
X65095193Y-53161691D03*
%TD*%
D13*
%TO.C,J12*%
X96500000Y-46500000D03*
%TD*%
%TO.C,J6*%
X113500000Y-46524938D03*
%TD*%
D10*
%TO.C,R3*%
X79000000Y-97590000D03*
X89160000Y-97590000D03*
%TD*%
%TO.C,R20*%
X92420000Y-115750000D03*
X102580000Y-115750000D03*
%TD*%
%TO.C,R14*%
X77283810Y-129160000D03*
X77283810Y-119000000D03*
%TD*%
D13*
%TO.C,J7*%
X56500000Y-46500000D03*
%TD*%
D10*
%TO.C,C8*%
X85653753Y-106024555D03*
X90653753Y-106024555D03*
%TD*%
%TO.C,C1*%
X102316405Y-84453030D03*
X102316405Y-89453030D03*
%TD*%
D14*
%TO.C,RV2*%
X53350000Y-57250000D03*
X70400000Y-57250000D03*
D15*
X59310000Y-76750000D03*
D16*
X61850000Y-76750000D03*
X64390000Y-76750000D03*
%TD*%
D10*
%TO.C,R18*%
X59000000Y-116080000D03*
X59000000Y-105920000D03*
%TD*%
D17*
%TO.C,J2*%
X82500000Y-33000000D03*
D16*
X82500000Y-30460000D03*
X85040000Y-33000000D03*
X85040000Y-30460000D03*
X87580000Y-33000000D03*
X87580000Y-30460000D03*
%TD*%
D10*
%TO.C,R9*%
X85000000Y-53160000D03*
X85000000Y-43000000D03*
%TD*%
D14*
%TO.C,RV3*%
X76450000Y-57250000D03*
X93500000Y-57250000D03*
D15*
X82410000Y-76750000D03*
D16*
X84950000Y-76750000D03*
X87490000Y-76750000D03*
%TD*%
D18*
%TO.C,SW1*%
X110500000Y-106000000D03*
X110500000Y-101500000D03*
X110500000Y-97000000D03*
%TD*%
D19*
%TO.C,RV1*%
X59000000Y-91000000D03*
X56460000Y-91000000D03*
X53920000Y-91000000D03*
%TD*%
D11*
%TO.C,J8*%
X57000000Y-60500000D03*
D12*
X62080000Y-60500000D03*
X67080000Y-60500000D03*
%TD*%
D10*
%TO.C,R12*%
X74724244Y-92424393D03*
X64564244Y-92424393D03*
%TD*%
D20*
%TO.C,U1*%
X94500000Y-92550000D03*
D10*
X94500000Y-95090000D03*
X94500000Y-97630000D03*
X94500000Y-100170000D03*
X94500000Y-102710000D03*
X94500000Y-105250000D03*
X94500000Y-107790000D03*
X94500000Y-110330000D03*
X102120000Y-110330000D03*
X102120000Y-107790000D03*
X102120000Y-105250000D03*
X102120000Y-102710000D03*
X102120000Y-100170000D03*
X102120000Y-97630000D03*
X102120000Y-95090000D03*
X102120000Y-92550000D03*
%TD*%
D13*
%TO.C,J3*%
X100500000Y-124024938D03*
%TD*%
D10*
%TO.C,R19*%
X52369805Y-105918816D03*
X52369805Y-116078816D03*
%TD*%
D21*
%TO.C,U2*%
X74500000Y-112630000D03*
D10*
X74500000Y-110090000D03*
X74500000Y-107550000D03*
X74500000Y-105010000D03*
X74500000Y-102470000D03*
X74500000Y-99930000D03*
X74500000Y-97390000D03*
X66880000Y-97390000D03*
X66880000Y-99930000D03*
X66880000Y-102470000D03*
X66880000Y-105010000D03*
X66880000Y-107550000D03*
X66880000Y-110090000D03*
X66880000Y-112630000D03*
%TD*%
D14*
%TO.C,RV4*%
X99550000Y-57250000D03*
X116600000Y-57250000D03*
D15*
X105510000Y-76750000D03*
D16*
X108050000Y-76750000D03*
X110590000Y-76750000D03*
%TD*%
D10*
%TO.C,R11*%
X89139113Y-87254358D03*
X78979113Y-87254358D03*
%TD*%
%TO.C,R8*%
X105000000Y-53160000D03*
X105000000Y-43000000D03*
%TD*%
D13*
%TO.C,J13*%
X73500000Y-46500000D03*
%TD*%
D10*
%TO.C,C5*%
X78153753Y-106024555D03*
X83153753Y-106024555D03*
%TD*%
D11*
%TO.C,J10*%
X103095000Y-60500000D03*
D12*
X108175000Y-60500000D03*
X113175000Y-60500000D03*
%TD*%
D10*
%TO.C,R2*%
X79000000Y-102590000D03*
X89160000Y-102590000D03*
%TD*%
D17*
%TO.C,J1*%
X64500000Y-33040000D03*
D16*
X64500000Y-30500000D03*
X67040000Y-33040000D03*
X67040000Y-30500000D03*
X69580000Y-33040000D03*
X69580000Y-30500000D03*
%TD*%
D10*
%TO.C,R4*%
X89080000Y-112590000D03*
X78920000Y-112590000D03*
%TD*%
D17*
%TO.C,J11*%
X100500000Y-33000000D03*
D16*
X100500000Y-30460000D03*
X103040000Y-33000000D03*
X103040000Y-30460000D03*
X105580000Y-33000000D03*
X105580000Y-30460000D03*
%TD*%
D13*
%TO.C,J4*%
X85000000Y-124024938D03*
%TD*%
D10*
%TO.C,C2*%
X98316405Y-89453030D03*
X98316405Y-84453030D03*
%TD*%
D13*
%TO.C,J5*%
X69500000Y-124024938D03*
%TD*%
D10*
%TO.C,C3*%
X94316405Y-89453030D03*
X94316405Y-84453030D03*
%TD*%
%TO.C,R16*%
X52366658Y-97339627D03*
X62526658Y-97339627D03*
%TD*%
%TO.C,R1*%
X79000000Y-92590000D03*
X89160000Y-92590000D03*
%TD*%
M02*
