%TF.GenerationSoftware,KiCad,Pcbnew,9.0.6*%
%TF.CreationDate,2026-01-18T01:49:04+11:00*%
%TF.ProjectId,oscillator,6f736369-6c6c-4617-946f-722e6b696361,rev?*%
%TF.SameCoordinates,Original*%
%TF.FileFunction,Copper,L1,Top*%
%TF.FilePolarity,Positive*%
%FSLAX46Y46*%
G04 Gerber Fmt 4.6, Leading zero omitted, Abs format (unit mm)*
G04 Created by KiCad (PCBNEW 9.0.6) date 2026-01-18 01:49:04*
%MOMM*%
%LPD*%
G01*
G04 APERTURE LIST*
G04 Aperture macros list*
%AMRoundRect*
0 Rectangle with rounded corners*
0 $1 Rounding radius*
0 $2 $3 $4 $5 $6 $7 $8 $9 X,Y pos of 4 corners*
0 Add a 4 corners polygon primitive as box body*
4,1,4,$2,$3,$4,$5,$6,$7,$8,$9,$2,$3,0*
0 Add four circle primitives for the rounded corners*
1,1,$1+$1,$2,$3*
1,1,$1+$1,$4,$5*
1,1,$1+$1,$6,$7*
1,1,$1+$1,$8,$9*
0 Add four rect primitives between the rounded corners*
20,1,$1+$1,$2,$3,$4,$5,0*
20,1,$1+$1,$4,$5,$6,$7,0*
20,1,$1+$1,$6,$7,$8,$9,0*
20,1,$1+$1,$8,$9,$2,$3,0*%
G04 Aperture macros list end*
%TA.AperFunction,ComponentPad*%
%ADD10C,8.000000*%
%TD*%
%TA.AperFunction,ComponentPad*%
%ADD11C,1.700000*%
%TD*%
%TA.AperFunction,ComponentPad*%
%ADD12R,1.700000X1.700000*%
%TD*%
%TA.AperFunction,ComponentPad*%
%ADD13C,1.600000*%
%TD*%
%TA.AperFunction,ComponentPad*%
%ADD14R,2.000000X2.000000*%
%TD*%
%TA.AperFunction,ComponentPad*%
%ADD15C,2.000000*%
%TD*%
%TA.AperFunction,ComponentPad*%
%ADD16RoundRect,0.250000X0.600000X-0.600000X0.600000X0.600000X-0.600000X0.600000X-0.600000X-0.600000X0*%
%TD*%
%TA.AperFunction,ComponentPad*%
%ADD17O,3.750000X2.000000*%
%TD*%
%TA.AperFunction,ComponentPad*%
%ADD18C,1.440000*%
%TD*%
%TA.AperFunction,ComponentPad*%
%ADD19RoundRect,0.250000X-0.550000X-0.550000X0.550000X-0.550000X0.550000X0.550000X-0.550000X0.550000X0*%
%TD*%
%TA.AperFunction,ComponentPad*%
%ADD20RoundRect,0.250000X0.550000X0.550000X-0.550000X0.550000X-0.550000X-0.550000X0.550000X-0.550000X0*%
%TD*%
%TA.AperFunction,Conductor*%
%ADD21C,0.200000*%
%TD*%
G04 APERTURE END LIST*
D10*
%TO.P,J3,1,Pin_1*%
%TO.N,Net-(J3-Pin_1)*%
X100500000Y-124024938D03*
%TD*%
D11*
%TO.P,RV3,3,3*%
%TO.N,Net-(J7-Pin_1)*%
X87490000Y-76750000D03*
%TO.P,RV3,2,2*%
%TO.N,Net-(J9-Pin_2)*%
X84950000Y-76750000D03*
D12*
%TO.P,RV3,1,1*%
%TO.N,GND*%
X82410000Y-76750000D03*
%TD*%
D10*
%TO.P,J13,1,Pin_1*%
%TO.N,Net-(J13-Pin_1)*%
X73500000Y-46500000D03*
%TD*%
%TO.P,J12,1,Pin_1*%
%TO.N,Net-(J12-Pin_1)*%
X96500000Y-46500000D03*
%TD*%
D13*
%TO.P,C8,1*%
%TO.N,Net-(J13-Pin_1)*%
X85653753Y-106024555D03*
%TO.P,C8,2*%
%TO.N,Net-(U1-VHSI)*%
X90653753Y-106024555D03*
%TD*%
%TO.P,C7,1*%
%TO.N,Net-(J12-Pin_1)*%
X104986294Y-105321825D03*
%TO.P,C7,2*%
%TO.N,Net-(U1-VSSI)*%
X104986294Y-110321825D03*
%TD*%
%TO.P,R7,1*%
%TO.N,Net-(U1-VPWM)*%
X89080000Y-109500000D03*
%TO.P,R7,2*%
%TO.N,Net-(U2B--)*%
X78920000Y-109500000D03*
%TD*%
%TO.P,C6,1*%
%TO.N,12V*%
X105000000Y-93500000D03*
%TO.P,C6,2*%
%TO.N,GND*%
X105000000Y-98500000D03*
%TD*%
%TO.P,R15,1*%
%TO.N,GND*%
X52366658Y-102339627D03*
%TO.P,R15,2*%
%TO.N,Net-(U2C--)*%
X62526658Y-102339627D03*
%TD*%
%TO.P,C4,1*%
%TO.N,GND*%
X64049373Y-110017956D03*
%TO.P,C4,2*%
%TO.N,-12V*%
X64049373Y-105017956D03*
%TD*%
%TO.P,R17,1*%
%TO.N,Net-(R16-Pad2)*%
X92976806Y-119000000D03*
%TO.P,R17,2*%
%TO.N,Net-(J4-Pin_1)*%
X92976806Y-129160000D03*
%TD*%
%TO.P,R13,1*%
%TO.N,Net-(U1-VLFI)*%
X74500000Y-87250000D03*
%TO.P,R13,2*%
%TO.N,GND*%
X64340000Y-87250000D03*
%TD*%
D14*
%TO.P,J9,1,Pin_1*%
%TO.N,GND*%
X80000000Y-60500000D03*
D15*
%TO.P,J9,2,Pin_2*%
%TO.N,Net-(J9-Pin_2)*%
X85080000Y-60500000D03*
%TO.P,J9,3,Pin_3*%
%TO.N,Net-(J7-Pin_1)*%
X90080000Y-60500000D03*
%TD*%
D13*
%TO.P,R6,1*%
%TO.N,Net-(U2B-+)*%
X82000000Y-43000000D03*
%TO.P,R6,2*%
%TO.N,Net-(J9-Pin_2)*%
X82000000Y-53160000D03*
%TD*%
%TO.P,R10,1*%
%TO.N,Net-(C1-Pad1)*%
X88000000Y-43000000D03*
%TO.P,R10,2*%
%TO.N,Net-(U1-VFCI)*%
X88000000Y-53160000D03*
%TD*%
%TO.P,R5,1*%
%TO.N,Net-(U2B-+)*%
X65095193Y-43001691D03*
%TO.P,R5,2*%
%TO.N,Net-(J8-Pin_2)*%
X65095193Y-53161691D03*
%TD*%
D10*
%TO.P,J6,1,Pin_1*%
%TO.N,Net-(J6-Pin_1)*%
X113500000Y-46524938D03*
%TD*%
D13*
%TO.P,R3,1*%
%TO.N,-12V*%
X79000000Y-97590000D03*
%TO.P,R3,2*%
%TO.N,Net-(U1-VEE)*%
X89160000Y-97590000D03*
%TD*%
%TO.P,R20,1*%
%TO.N,Net-(R19-Pad2)*%
X92420000Y-115750000D03*
%TO.P,R20,2*%
%TO.N,Net-(J3-Pin_1)*%
X102580000Y-115750000D03*
%TD*%
%TO.P,R14,1*%
%TO.N,Net-(J5-Pin_1)*%
X77283810Y-129160000D03*
%TO.P,R14,2*%
%TO.N,Net-(U2A--)*%
X77283810Y-119000000D03*
%TD*%
D10*
%TO.P,J7,1,Pin_1*%
%TO.N,Net-(J7-Pin_1)*%
X56500000Y-46500000D03*
%TD*%
D13*
%TO.P,C1,1*%
%TO.N,Net-(C1-Pad1)*%
X102316405Y-84453030D03*
%TO.P,C1,2*%
%TO.N,GND*%
X102316405Y-89453030D03*
%TD*%
D12*
%TO.P,RV2,1,1*%
%TO.N,GND*%
X59310000Y-76750000D03*
D11*
%TO.P,RV2,2,2*%
%TO.N,Net-(J8-Pin_2)*%
X61850000Y-76750000D03*
%TO.P,RV2,3,3*%
%TO.N,12V*%
X64390000Y-76750000D03*
%TD*%
D13*
%TO.P,R18,1*%
%TO.N,GND*%
X59000000Y-116080000D03*
%TO.P,R18,2*%
%TO.N,Net-(U2D--)*%
X59000000Y-105920000D03*
%TD*%
D16*
%TO.P,J2,1,Pin_1*%
%TO.N,12V*%
X82500000Y-33000000D03*
D11*
%TO.P,J2,2,Pin_2*%
%TO.N,-12V*%
X82500000Y-30460000D03*
%TO.P,J2,3,Pin_3*%
%TO.N,GND*%
X85040000Y-33000000D03*
%TO.P,J2,4,Pin_4*%
X85040000Y-30460000D03*
%TO.P,J2,5,Pin_5*%
%TO.N,5V*%
X87580000Y-33000000D03*
%TO.P,J2,6,Pin_6*%
%TO.N,unconnected-(J2-Pin_6-Pad6)*%
X87580000Y-30460000D03*
%TD*%
D13*
%TO.P,R9,1*%
%TO.N,Net-(J10-Pin_2)*%
X85000000Y-53160000D03*
%TO.P,R9,2*%
%TO.N,Net-(U1-VFCI)*%
X85000000Y-43000000D03*
%TD*%
D17*
%TO.P,SW1,1,C*%
%TO.N,Net-(SW1-C)*%
X110500000Y-106000000D03*
%TO.P,SW1,2,B*%
%TO.N,Net-(SW1-B)*%
X110500000Y-101500000D03*
%TO.P,SW1,3,A*%
%TO.N,Net-(SW1-A)*%
X110500000Y-97000000D03*
%TD*%
D18*
%TO.P,RV1,1,1*%
%TO.N,Net-(R1-Pad1)*%
X59000000Y-91000000D03*
%TO.P,RV1,2,2*%
%TO.N,Net-(U1-VEE)*%
X56460000Y-91000000D03*
%TO.P,RV1,3,3*%
X53920000Y-91000000D03*
%TD*%
D14*
%TO.P,J8,1,Pin_1*%
%TO.N,GND*%
X57000000Y-60500000D03*
D15*
%TO.P,J8,2,Pin_2*%
%TO.N,Net-(J8-Pin_2)*%
X62080000Y-60500000D03*
%TO.P,J8,3,Pin_3*%
%TO.N,12V*%
X67080000Y-60500000D03*
%TD*%
D13*
%TO.P,R12,1*%
%TO.N,Net-(U1-VLFI)*%
X74724244Y-92424393D03*
%TO.P,R12,2*%
%TO.N,12V*%
X64564244Y-92424393D03*
%TD*%
D19*
%TO.P,U1,1,SCALE1*%
%TO.N,Net-(U1-SCALE1)*%
X94500000Y-92550000D03*
D13*
%TO.P,U1,2,SCALE2*%
%TO.N,Net-(U1-SCALE2)*%
X94500000Y-95090000D03*
%TO.P,U1,3,VEE*%
%TO.N,Net-(U1-VEE)*%
X94500000Y-97630000D03*
%TO.P,U1,4,VP*%
%TO.N,Net-(U1-VP)*%
X94500000Y-100170000D03*
%TO.P,U1,5,VPWM*%
%TO.N,Net-(U1-VPWM)*%
X94500000Y-102710000D03*
%TO.P,U1,6,VHSI*%
%TO.N,Net-(U1-VHSI)*%
X94500000Y-105250000D03*
%TO.P,U1,7,VHFT*%
%TO.N,unconnected-(U1-VHFT-Pad7)*%
X94500000Y-107790000D03*
%TO.P,U1,8,VSO*%
%TO.N,Net-(U1-VSO)*%
X94500000Y-110330000D03*
%TO.P,U1,9,VSSI*%
%TO.N,Net-(U1-VSSI)*%
X102120000Y-110330000D03*
%TO.P,U1,10,VTO*%
%TO.N,Net-(U1-VTO)*%
X102120000Y-107790000D03*
%TO.P,U1,11,CAP*%
%TO.N,Net-(SW1-B)*%
X102120000Y-105250000D03*
%TO.P,U1,12,GND*%
%TO.N,GND*%
X102120000Y-102710000D03*
%TO.P,U1,13,VLFI*%
%TO.N,Net-(U1-VLFI)*%
X102120000Y-100170000D03*
%TO.P,U1,14,VS*%
%TO.N,Net-(U1-VS)*%
X102120000Y-97630000D03*
%TO.P,U1,15,VFCI*%
%TO.N,Net-(U1-VFCI)*%
X102120000Y-95090000D03*
%TO.P,U1,16,VCC*%
%TO.N,12V*%
X102120000Y-92550000D03*
%TD*%
%TO.P,R19,1*%
%TO.N,Net-(U2D--)*%
X52369805Y-105918816D03*
%TO.P,R19,2*%
%TO.N,Net-(R19-Pad2)*%
X52369805Y-116078816D03*
%TD*%
D20*
%TO.P,U2,1*%
%TO.N,Net-(U2A--)*%
X74500000Y-112630000D03*
D13*
%TO.P,U2,2,-*%
X74500000Y-110090000D03*
%TO.P,U2,3,+*%
%TO.N,Net-(U1-VP)*%
X74500000Y-107550000D03*
%TO.P,U2,4,V+*%
%TO.N,12V*%
X74500000Y-105010000D03*
%TO.P,U2,5,+*%
%TO.N,Net-(U2B-+)*%
X74500000Y-102470000D03*
%TO.P,U2,6,-*%
%TO.N,Net-(U2B--)*%
X74500000Y-99930000D03*
%TO.P,U2,7*%
X74500000Y-97390000D03*
%TO.P,U2,8*%
%TO.N,Net-(R16-Pad2)*%
X66880000Y-97390000D03*
%TO.P,U2,9,-*%
%TO.N,Net-(U2C--)*%
X66880000Y-99930000D03*
%TO.P,U2,10,+*%
%TO.N,Net-(U1-VSO)*%
X66880000Y-102470000D03*
%TO.P,U2,11,V-*%
%TO.N,-12V*%
X66880000Y-105010000D03*
%TO.P,U2,12,+*%
%TO.N,Net-(U1-VTO)*%
X66880000Y-107550000D03*
%TO.P,U2,13,-*%
%TO.N,Net-(U2D--)*%
X66880000Y-110090000D03*
%TO.P,U2,14*%
%TO.N,Net-(R19-Pad2)*%
X66880000Y-112630000D03*
%TD*%
D12*
%TO.P,RV4,1,1*%
%TO.N,unconnected-(RV4-Pad1)*%
X105510000Y-76750000D03*
D11*
%TO.P,RV4,2,2*%
%TO.N,Net-(J10-Pin_2)*%
X108050000Y-76750000D03*
%TO.P,RV4,3,3*%
%TO.N,12V*%
X110590000Y-76750000D03*
%TD*%
D13*
%TO.P,R11,1*%
%TO.N,Net-(U1-VS)*%
X89139113Y-87254358D03*
%TO.P,R11,2*%
%TO.N,GND*%
X78979113Y-87254358D03*
%TD*%
%TO.P,R8,1*%
%TO.N,Net-(J6-Pin_1)*%
X105000000Y-53160000D03*
%TO.P,R8,2*%
%TO.N,Net-(U1-VFCI)*%
X105000000Y-43000000D03*
%TD*%
%TO.P,C5,1*%
%TO.N,12V*%
X78153753Y-106024555D03*
%TO.P,C5,2*%
%TO.N,GND*%
X83153753Y-106024555D03*
%TD*%
D14*
%TO.P,J10,1,Pin_1*%
%TO.N,unconnected-(J10-Pin_1-Pad1)*%
X103095000Y-60500000D03*
D15*
%TO.P,J10,2,Pin_2*%
%TO.N,Net-(J10-Pin_2)*%
X108175000Y-60500000D03*
%TO.P,J10,3,Pin_3*%
%TO.N,12V*%
X113175000Y-60500000D03*
%TD*%
D13*
%TO.P,R2,1*%
%TO.N,Net-(U1-VEE)*%
X79000000Y-102590000D03*
%TO.P,R2,2*%
%TO.N,Net-(U1-SCALE2)*%
X89160000Y-102590000D03*
%TD*%
D16*
%TO.P,J1,1,Pin_1*%
%TO.N,12V*%
X64500000Y-33040000D03*
D11*
%TO.P,J1,2,Pin_2*%
%TO.N,-12V*%
X64500000Y-30500000D03*
%TO.P,J1,3,Pin_3*%
%TO.N,GND*%
X67040000Y-33040000D03*
%TO.P,J1,4,Pin_4*%
X67040000Y-30500000D03*
%TO.P,J1,5,Pin_5*%
%TO.N,5V*%
X69580000Y-33040000D03*
%TO.P,J1,6,Pin_6*%
%TO.N,unconnected-(J1-Pin_6-Pad6)*%
X69580000Y-30500000D03*
%TD*%
D13*
%TO.P,R4,1*%
%TO.N,GND*%
X89080000Y-112590000D03*
%TO.P,R4,2*%
%TO.N,Net-(U1-VP)*%
X78920000Y-112590000D03*
%TD*%
D16*
%TO.P,J11,1,Pin_1*%
%TO.N,12V*%
X100500000Y-33000000D03*
D11*
%TO.P,J11,2,Pin_2*%
%TO.N,-12V*%
X100500000Y-30460000D03*
%TO.P,J11,3,Pin_3*%
%TO.N,GND*%
X103040000Y-33000000D03*
%TO.P,J11,4,Pin_4*%
X103040000Y-30460000D03*
%TO.P,J11,5,Pin_5*%
%TO.N,5V*%
X105580000Y-33000000D03*
%TO.P,J11,6,Pin_6*%
%TO.N,unconnected-(J11-Pin_6-Pad6)*%
X105580000Y-30460000D03*
%TD*%
D10*
%TO.P,J4,1,Pin_1*%
%TO.N,Net-(J4-Pin_1)*%
X85000000Y-124024938D03*
%TD*%
D13*
%TO.P,C2,1*%
%TO.N,Net-(SW1-A)*%
X98316405Y-89453030D03*
%TO.P,C2,2*%
%TO.N,GND*%
X98316405Y-84453030D03*
%TD*%
D10*
%TO.P,J5,1,Pin_1*%
%TO.N,Net-(J5-Pin_1)*%
X69500000Y-124024938D03*
%TD*%
D13*
%TO.P,C3,1*%
%TO.N,Net-(SW1-C)*%
X94316405Y-89453030D03*
%TO.P,C3,2*%
%TO.N,GND*%
X94316405Y-84453030D03*
%TD*%
%TO.P,R16,1*%
%TO.N,Net-(U2C--)*%
X52366658Y-97339627D03*
%TO.P,R16,2*%
%TO.N,Net-(R16-Pad2)*%
X62526658Y-97339627D03*
%TD*%
%TO.P,R1,1*%
%TO.N,Net-(R1-Pad1)*%
X79000000Y-92590000D03*
%TO.P,R1,2*%
%TO.N,Net-(U1-SCALE1)*%
X89160000Y-92590000D03*
%TD*%
D21*
%TO.N,Net-(J10-Pin_2)*%
X85000000Y-53160000D02*
X86101000Y-54261000D01*
X86101000Y-54261000D02*
X101936000Y-54261000D01*
X101936000Y-54261000D02*
X108175000Y-60500000D01*
%TO.N,Net-(J6-Pin_1)*%
X105000000Y-53160000D02*
X106864938Y-53160000D01*
X106864938Y-53160000D02*
X113500000Y-46524938D01*
%TO.N,Net-(U1-VFCI)*%
X85000000Y-43000000D02*
X87000000Y-41000000D01*
X87000000Y-41000000D02*
X103000000Y-41000000D01*
X103000000Y-41000000D02*
X105000000Y-43000000D01*
X85000000Y-43000000D02*
X85000000Y-50160000D01*
X85000000Y-50160000D02*
X88000000Y-53160000D01*
%TO.N,Net-(J9-Pin_2)*%
X82000000Y-53160000D02*
X82000000Y-57420000D01*
X82000000Y-57420000D02*
X85080000Y-60500000D01*
%TO.N,Net-(J13-Pin_1)*%
X85653753Y-106024555D02*
X85653753Y-80214007D01*
X88641000Y-77226760D02*
X88641000Y-71743000D01*
X85653753Y-80214007D02*
X88641000Y-77226760D01*
X88641000Y-71743000D02*
X73500000Y-56602000D01*
X73500000Y-56602000D02*
X73500000Y-46500000D01*
%TO.N,Net-(J7-Pin_1)*%
X56500000Y-46500000D02*
X56500000Y-52156854D01*
X86339000Y-75599000D02*
X87490000Y-76750000D01*
X56500000Y-52156854D02*
X79942146Y-75599000D01*
X79942146Y-75599000D02*
X86339000Y-75599000D01*
%TO.N,Net-(SW1-A)*%
X110500000Y-97000000D02*
X110500000Y-96079575D01*
X99417405Y-88352030D02*
X98316405Y-89453030D01*
X110500000Y-96079575D02*
X102772455Y-88352030D01*
X102772455Y-88352030D02*
X99417405Y-88352030D01*
%TO.N,Net-(SW1-C)*%
X110500000Y-106000000D02*
X107500000Y-103000000D01*
X107500000Y-103000000D02*
X107500000Y-94442950D01*
X107500000Y-94442950D02*
X103611080Y-90554030D01*
X103611080Y-90554030D02*
X95417405Y-90554030D01*
X95417405Y-90554030D02*
X94316405Y-89453030D01*
%TO.N,12V*%
X78153753Y-106024555D02*
X79254753Y-104923555D01*
X84552753Y-105568505D02*
X84552753Y-106480605D01*
X79254753Y-104923555D02*
X83907803Y-104923555D01*
X101019000Y-95208050D02*
X101019000Y-93651000D01*
X83907803Y-104923555D02*
X84552753Y-105568505D01*
X87995703Y-107125555D02*
X93850258Y-101271000D01*
X93850258Y-101271000D02*
X94956050Y-101271000D01*
X84552753Y-106480605D02*
X85197703Y-107125555D01*
X85197703Y-107125555D02*
X87995703Y-107125555D01*
X94956050Y-101271000D02*
X101019000Y-95208050D01*
X101019000Y-93651000D02*
X102120000Y-92550000D01*
%TO.N,Net-(U1-VHSI)*%
X90653753Y-106024555D02*
X93725445Y-106024555D01*
X93725445Y-106024555D02*
X94500000Y-105250000D01*
%TO.N,Net-(U1-VSSI)*%
X102120000Y-110330000D02*
X104978119Y-110330000D01*
X104978119Y-110330000D02*
X104986294Y-110321825D01*
%TO.N,12V*%
X64500000Y-33040000D02*
X67080000Y-35620000D01*
X67080000Y-35620000D02*
X67080000Y-60500000D01*
%TO.N,GND*%
X85040000Y-33000000D02*
X80000000Y-38040000D01*
X80000000Y-38040000D02*
X80000000Y-60500000D01*
X67040000Y-30651000D02*
X67040000Y-33191000D01*
X78979113Y-87254358D02*
X78979113Y-80180887D01*
X102120000Y-102710000D02*
X105000000Y-99830000D01*
X101889000Y-29309000D02*
X103040000Y-30460000D01*
X68231000Y-29309000D02*
X83889000Y-29309000D01*
X82500000Y-106000000D02*
X89080000Y-112580000D01*
X67040000Y-30500000D02*
X68231000Y-29309000D01*
X78979113Y-80180887D02*
X82410000Y-76750000D01*
X86191000Y-29309000D02*
X101889000Y-29309000D01*
X105000000Y-99830000D02*
X105000000Y-98500000D01*
X85040000Y-30460000D02*
X86191000Y-29309000D01*
X77882471Y-88351000D02*
X65441000Y-88351000D01*
X78979113Y-87254358D02*
X77882471Y-88351000D01*
X85040000Y-30651000D02*
X85040000Y-33191000D01*
X103040000Y-30460000D02*
X103040000Y-33000000D01*
X65441000Y-88351000D02*
X64340000Y-87250000D01*
X83889000Y-29309000D02*
X85040000Y-30460000D01*
X89080000Y-112580000D02*
X89080000Y-112590000D01*
%TO.N,Net-(R1-Pad1)*%
X59000000Y-91000000D02*
X77410000Y-91000000D01*
X77410000Y-91000000D02*
X79000000Y-92590000D01*
%TO.N,Net-(U1-VEE)*%
X75479000Y-106111000D02*
X79000000Y-102590000D01*
X94460000Y-97590000D02*
X94500000Y-97630000D01*
X71811575Y-99433475D02*
X67336050Y-103909000D01*
X61460000Y-96000000D02*
X71552950Y-96000000D01*
X66423950Y-106111000D02*
X75479000Y-106111000D01*
X89160000Y-97590000D02*
X94460000Y-97590000D01*
X56460000Y-91000000D02*
X61460000Y-96000000D01*
X67336050Y-103909000D02*
X66423950Y-103909000D01*
X71552950Y-96000000D02*
X71811575Y-96258625D01*
X65779000Y-104553950D02*
X65779000Y-105466050D01*
X66423950Y-103909000D02*
X65779000Y-104553950D01*
X71811575Y-96258625D02*
X71811575Y-99433475D01*
X53920000Y-91000000D02*
X56460000Y-91000000D01*
X65779000Y-105466050D02*
X66423950Y-106111000D01*
%TO.N,-12V*%
X51265658Y-43885342D02*
X64500000Y-30651000D01*
X57637050Y-103000000D02*
X56469981Y-103000000D01*
X59655006Y-105017956D02*
X57637050Y-103000000D01*
X70859000Y-101031000D02*
X66880000Y-105010000D01*
X64049373Y-105017956D02*
X59655006Y-105017956D01*
X56469981Y-103000000D02*
X51265658Y-97795677D01*
X79000000Y-97590000D02*
X75559000Y-101031000D01*
X51265658Y-97795677D02*
X51265658Y-43885342D01*
X75559000Y-101031000D02*
X70859000Y-101031000D01*
%TO.N,Net-(U2B--)*%
X74500000Y-97390000D02*
X74500000Y-99930000D01*
%TO.N,12V*%
X104050000Y-92550000D02*
X105000000Y-93500000D01*
X102120000Y-92550000D02*
X104050000Y-92550000D01*
%TO.N,Net-(U2C--)*%
X57366658Y-102339627D02*
X52366658Y-97339627D01*
X64936285Y-99930000D02*
X62526658Y-102339627D01*
X66880000Y-99930000D02*
X64936285Y-99930000D01*
X62526658Y-102339627D02*
X57366658Y-102339627D01*
%TO.N,Net-(R16-Pad2)*%
X62526658Y-97339627D02*
X66829627Y-97339627D01*
X66829627Y-97339627D02*
X66880000Y-97390000D01*
%TO.N,Net-(U2D--)*%
X58998816Y-105918816D02*
X59000000Y-105920000D01*
X59000000Y-105920000D02*
X62710000Y-105920000D01*
X52369805Y-105918816D02*
X58998816Y-105918816D01*
X62710000Y-105920000D02*
X66880000Y-110090000D01*
%TO.N,Net-(U2A--)*%
X74500000Y-115920000D02*
X77500000Y-118920000D01*
X74500000Y-112630000D02*
X74500000Y-115920000D01*
X74500000Y-110090000D02*
X74500000Y-112630000D01*
%TO.N,Net-(R19-Pad2)*%
X52369805Y-116078816D02*
X55818621Y-112630000D01*
X55818621Y-112630000D02*
X66880000Y-112630000D01*
%TO.N,Net-(U1-VTO)*%
X67981000Y-108651000D02*
X66880000Y-107550000D01*
X102120000Y-107790000D02*
X96219000Y-113691000D01*
X84668050Y-113691000D02*
X79376050Y-108399000D01*
X79376050Y-108399000D02*
X75208050Y-108399000D01*
X74956050Y-108651000D02*
X67981000Y-108651000D01*
X96219000Y-113691000D02*
X84668050Y-113691000D01*
X75208050Y-108399000D02*
X74956050Y-108651000D01*
%TO.N,Net-(J3-Pin_1)*%
X102580000Y-121920000D02*
X100500000Y-124000000D01*
X102580000Y-115750000D02*
X102580000Y-121920000D01*
%TO.N,Net-(J4-Pin_1)*%
X93000000Y-129080000D02*
X90080000Y-129080000D01*
X90080000Y-129080000D02*
X85000000Y-124000000D01*
%TO.N,Net-(J5-Pin_1)*%
X74580000Y-129080000D02*
X69500000Y-124000000D01*
X77500000Y-129080000D02*
X74580000Y-129080000D01*
%TD*%
M02*
