%TF.GenerationSoftware,KiCad,Pcbnew,9.0.5*%
%TF.CreationDate,2025-12-11T21:52:36+11:00*%
%TF.ProjectId,oscillator,6f736369-6c6c-4617-946f-722e6b696361,rev?*%
%TF.SameCoordinates,Original*%
%TF.FileFunction,Copper,L2,Bot*%
%TF.FilePolarity,Positive*%
%FSLAX46Y46*%
G04 Gerber Fmt 4.6, Leading zero omitted, Abs format (unit mm)*
G04 Created by KiCad (PCBNEW 9.0.5) date 2025-12-11 21:52:36*
%MOMM*%
%LPD*%
G01*
G04 APERTURE LIST*
G04 Aperture macros list*
%AMRoundRect*
0 Rectangle with rounded corners*
0 $1 Rounding radius*
0 $2 $3 $4 $5 $6 $7 $8 $9 X,Y pos of 4 corners*
0 Add a 4 corners polygon primitive as box body*
4,1,4,$2,$3,$4,$5,$6,$7,$8,$9,$2,$3,0*
0 Add four circle primitives for the rounded corners*
1,1,$1+$1,$2,$3*
1,1,$1+$1,$4,$5*
1,1,$1+$1,$6,$7*
1,1,$1+$1,$8,$9*
0 Add four rect primitives between the rounded corners*
20,1,$1+$1,$2,$3,$4,$5,0*
20,1,$1+$1,$4,$5,$6,$7,0*
20,1,$1+$1,$6,$7,$8,$9,0*
20,1,$1+$1,$8,$9,$2,$3,0*%
G04 Aperture macros list end*
%TA.AperFunction,ComponentPad*%
%ADD10C,8.000000*%
%TD*%
%TA.AperFunction,ComponentPad*%
%ADD11C,1.700000*%
%TD*%
%TA.AperFunction,ComponentPad*%
%ADD12R,1.700000X1.700000*%
%TD*%
%TA.AperFunction,ComponentPad*%
%ADD13C,1.600000*%
%TD*%
%TA.AperFunction,ComponentPad*%
%ADD14RoundRect,0.250000X-0.550000X-0.550000X0.550000X-0.550000X0.550000X0.550000X-0.550000X0.550000X0*%
%TD*%
%TA.AperFunction,ComponentPad*%
%ADD15RoundRect,0.250000X-0.600000X0.600000X-0.600000X-0.600000X0.600000X-0.600000X0.600000X0.600000X0*%
%TD*%
%TA.AperFunction,ComponentPad*%
%ADD16O,3.750000X2.000000*%
%TD*%
%TA.AperFunction,ComponentPad*%
%ADD17C,1.440000*%
%TD*%
%TA.AperFunction,Conductor*%
%ADD18C,0.200000*%
%TD*%
G04 APERTURE END LIST*
D10*
%TO.P,J6,1,Pin_1*%
%TO.N,Net-(J6-Pin_1)*%
X126500000Y-55550000D03*
%TD*%
%TO.P,J7,1,Pin_1*%
%TO.N,Net-(J7-Pin_1)*%
X77162469Y-55050000D03*
%TD*%
%TO.P,J5,1,Pin_1*%
%TO.N,Net-(J5-Pin_1)*%
X80000000Y-166000000D03*
%TD*%
%TO.P,J3,1,Pin_1*%
%TO.N,Net-(J3-Pin_1)*%
X102000000Y-166000000D03*
%TD*%
%TO.P,J4,1,Pin_1*%
%TO.N,Net-(J4-Pin_1)*%
X124000000Y-166000000D03*
%TD*%
D11*
%TO.P,RV2,3,3*%
%TO.N,GND*%
X79940000Y-86050000D03*
%TO.P,RV2,2,2*%
%TO.N,Net-(R5-Pad2)*%
X77400000Y-86050000D03*
D12*
%TO.P,RV2,1,1*%
%TO.N,12V*%
X74860000Y-86050000D03*
%TD*%
D11*
%TO.P,RV4,3,3*%
%TO.N,unconnected-(RV4-Pad3)*%
X129040000Y-86050000D03*
%TO.P,RV4,2,2*%
%TO.N,Net-(R9-Pad1)*%
X126500000Y-86050000D03*
D12*
%TO.P,RV4,1,1*%
%TO.N,12V*%
X123960000Y-86050000D03*
%TD*%
%TO.P,RV3,1,1*%
%TO.N,Net-(J7-Pin_1)*%
X99410000Y-86050000D03*
D11*
%TO.P,RV3,2,2*%
%TO.N,Net-(R6-Pad2)*%
X101950000Y-86050000D03*
%TO.P,RV3,3,3*%
%TO.N,GND*%
X104490000Y-86050000D03*
%TD*%
D13*
%TO.P,U2,14*%
%TO.N,Net-(R17-Pad2)*%
X94370000Y-127800000D03*
%TO.P,U2,13,-*%
%TO.N,Net-(U2D--)*%
X94370000Y-130340000D03*
%TO.P,U2,12,+*%
%TO.N,Net-(U1-VTO)*%
X94370000Y-132880000D03*
%TO.P,U2,11,V-*%
%TO.N,-12V*%
X94370000Y-135420000D03*
%TO.P,U2,10,+*%
%TO.N,Net-(U1-VSO)*%
X94370000Y-137960000D03*
%TO.P,U2,9,-*%
%TO.N,Net-(U2C--)*%
X94370000Y-140500000D03*
%TO.P,U2,8*%
%TO.N,Net-(R15-Pad2)*%
X94370000Y-143040000D03*
%TO.P,U2,7*%
%TO.N,Net-(U2B--)*%
X86750000Y-143040000D03*
%TO.P,U2,6,-*%
X86750000Y-140500000D03*
%TO.P,U2,5,+*%
%TO.N,Net-(U2B-+)*%
X86750000Y-137960000D03*
%TO.P,U2,4,V+*%
%TO.N,12V*%
X86750000Y-135420000D03*
%TO.P,U2,3,+*%
%TO.N,Net-(U1-VP)*%
X86750000Y-132880000D03*
%TO.P,U2,2,-*%
%TO.N,Net-(U2A--)*%
X86750000Y-130340000D03*
D14*
%TO.P,U2,1*%
X86750000Y-127800000D03*
%TD*%
D13*
%TO.P,R20,2*%
%TO.N,Net-(J3-Pin_1)*%
X114750000Y-154460000D03*
%TO.P,R20,1*%
%TO.N,Net-(R17-Pad2)*%
X114750000Y-144300000D03*
%TD*%
D15*
%TO.P,J2,1,Pin_1*%
%TO.N,12V*%
X103830000Y-39750000D03*
D11*
%TO.P,J2,2,Pin_2*%
%TO.N,-12V*%
X103830000Y-42290000D03*
%TO.P,J2,3,Pin_3*%
%TO.N,GND*%
X101290000Y-39750000D03*
%TO.P,J2,4,Pin_4*%
X101290000Y-42290000D03*
%TO.P,J2,5,Pin_5*%
%TO.N,unconnected-(J2-Pin_5-Pad5)*%
X98750000Y-39750000D03*
%TO.P,J2,6,Pin_6*%
%TO.N,unconnected-(J2-Pin_6-Pad6)*%
X98750000Y-42290000D03*
%TD*%
D15*
%TO.P,J1,1,Pin_1*%
%TO.N,12V*%
X77080000Y-39750000D03*
D11*
%TO.P,J1,2,Pin_2*%
%TO.N,-12V*%
X77080000Y-42290000D03*
%TO.P,J1,3,Pin_3*%
%TO.N,GND*%
X74540000Y-39750000D03*
%TO.P,J1,4,Pin_4*%
X74540000Y-42290000D03*
%TO.P,J1,5,Pin_5*%
%TO.N,unconnected-(J1-Pin_5-Pad5)*%
X72000000Y-39750000D03*
%TO.P,J1,6,Pin_6*%
%TO.N,unconnected-(J1-Pin_6-Pad6)*%
X72000000Y-42290000D03*
%TD*%
D13*
%TO.P,R18,1*%
%TO.N,GND*%
X109000000Y-130550000D03*
%TO.P,R18,2*%
%TO.N,Net-(U2D--)*%
X109000000Y-140710000D03*
%TD*%
%TO.P,R8,1*%
%TO.N,Net-(J6-Pin_1)*%
X120289472Y-93022318D03*
%TO.P,R8,2*%
%TO.N,Net-(U1-VFCI)*%
X120289472Y-103182318D03*
%TD*%
%TO.P,R3,1*%
%TO.N,-12V*%
X85357311Y-112559947D03*
%TO.P,R3,2*%
%TO.N,Net-(U1-VEE)*%
X95517311Y-112559947D03*
%TD*%
%TO.P,R17,1*%
%TO.N,Net-(U2D--)*%
X102990702Y-140729735D03*
%TO.P,R17,2*%
%TO.N,Net-(R17-Pad2)*%
X102990702Y-130569735D03*
%TD*%
%TO.P,R2,1*%
%TO.N,Net-(U1-VEE)*%
X85340000Y-107300000D03*
%TO.P,R2,2*%
%TO.N,Net-(U1-SCALE2)*%
X95500000Y-107300000D03*
%TD*%
%TO.P,R10,1*%
%TO.N,Net-(C1-Pad1)*%
X125029054Y-93029710D03*
%TO.P,R10,2*%
%TO.N,Net-(U1-VFCI)*%
X125029054Y-103189710D03*
%TD*%
%TO.P,C4,1*%
%TO.N,Net-(SW1-C)*%
X120250000Y-126050000D03*
%TO.P,C4,2*%
%TO.N,GND*%
X115250000Y-126050000D03*
%TD*%
D14*
%TO.P,U1,1,SCALE1*%
%TO.N,Net-(U1-SCALE1)*%
X102880000Y-108300000D03*
D13*
%TO.P,U1,2,SCALE2*%
%TO.N,Net-(U1-SCALE2)*%
X102880000Y-110840000D03*
%TO.P,U1,3,VEE*%
%TO.N,Net-(U1-VEE)*%
X102880000Y-113380000D03*
%TO.P,U1,4,VP*%
%TO.N,Net-(U1-VP)*%
X102880000Y-115920000D03*
%TO.P,U1,5,VPWM*%
%TO.N,Net-(U1-VPWM)*%
X102880000Y-118460000D03*
%TO.P,U1,6,VHSI*%
%TO.N,unconnected-(U1-VHSI-Pad6)*%
X102880000Y-121000000D03*
%TO.P,U1,7,VHFT*%
%TO.N,unconnected-(U1-VHFT-Pad7)*%
X102880000Y-123540000D03*
%TO.P,U1,8,VSO*%
%TO.N,Net-(U1-VSO)*%
X102880000Y-126080000D03*
%TO.P,U1,9,VSSI*%
%TO.N,unconnected-(U1-VSSI-Pad9)*%
X110500000Y-126080000D03*
%TO.P,U1,10,VTO*%
%TO.N,Net-(U1-VTO)*%
X110500000Y-123540000D03*
%TO.P,U1,11,CAP*%
%TO.N,Net-(SW1-B)*%
X110500000Y-121000000D03*
%TO.P,U1,12,GND*%
%TO.N,GND*%
X110500000Y-118460000D03*
%TO.P,U1,13,VLFI*%
%TO.N,Net-(U1-VLFI)*%
X110500000Y-115920000D03*
%TO.P,U1,14,VS*%
%TO.N,Net-(U1-VS)*%
X110500000Y-113380000D03*
%TO.P,U1,15,VFCI*%
%TO.N,Net-(U1-VFCI)*%
X110500000Y-110840000D03*
%TO.P,U1,16,VCC*%
%TO.N,12V*%
X110500000Y-108300000D03*
%TD*%
D16*
%TO.P,SW1,1,C*%
%TO.N,Net-(SW1-C)*%
X128250000Y-127050000D03*
%TO.P,SW1,2,B*%
%TO.N,Net-(SW1-B)*%
X128250000Y-131550000D03*
%TO.P,SW1,3,A*%
%TO.N,Net-(SW1-A)*%
X128250000Y-136050000D03*
%TD*%
D13*
%TO.P,C1,1*%
%TO.N,Net-(C1-Pad1)*%
X128000000Y-107550000D03*
%TO.P,C1,2*%
%TO.N,GND*%
X123000000Y-107550000D03*
%TD*%
%TO.P,R4,1*%
%TO.N,GND*%
X85420000Y-117300000D03*
%TO.P,R4,2*%
%TO.N,Net-(U1-VP)*%
X95580000Y-117300000D03*
%TD*%
%TO.P,R11,1*%
%TO.N,Net-(U1-VS)*%
X120420000Y-112300000D03*
%TO.P,R11,2*%
%TO.N,GND*%
X130580000Y-112300000D03*
%TD*%
D17*
%TO.P,RV1,1,1*%
%TO.N,Net-(R1-Pad1)*%
X77500000Y-102300000D03*
%TO.P,RV1,2,2*%
%TO.N,Net-(U1-VEE)*%
X77500000Y-104840000D03*
%TO.P,RV1,3,3*%
X77500000Y-107380000D03*
%TD*%
D13*
%TO.P,R1,1*%
%TO.N,Net-(R1-Pad1)*%
X85340000Y-102300000D03*
%TO.P,R1,2*%
%TO.N,Net-(U1-SCALE1)*%
X95500000Y-102300000D03*
%TD*%
%TO.P,R6,1*%
%TO.N,Net-(U2B-+)*%
X91806782Y-95234642D03*
%TO.P,R6,2*%
%TO.N,Net-(R6-Pad2)*%
X101966782Y-95234642D03*
%TD*%
%TO.P,R19,1*%
%TO.N,Net-(J5-Pin_1)*%
X79500000Y-140460000D03*
%TO.P,R19,2*%
%TO.N,Net-(U2A--)*%
X79500000Y-130300000D03*
%TD*%
%TO.P,C3,1*%
%TO.N,Net-(SW1-A)*%
X120250000Y-132300000D03*
%TO.P,C3,2*%
%TO.N,GND*%
X115250000Y-132300000D03*
%TD*%
%TO.P,R12,1*%
%TO.N,Net-(U1-VLFI)*%
X115744311Y-117100524D03*
%TO.P,R12,2*%
%TO.N,12V*%
X115744311Y-106940524D03*
%TD*%
%TO.P,R13,1*%
%TO.N,Net-(U1-VLFI)*%
X120437327Y-117098934D03*
%TO.P,R13,2*%
%TO.N,GND*%
X130597327Y-117098934D03*
%TD*%
%TO.P,R16,1*%
%TO.N,GND*%
X108990702Y-154309735D03*
%TO.P,R16,2*%
%TO.N,Net-(U2C--)*%
X108990702Y-144149735D03*
%TD*%
%TO.P,R21,1*%
%TO.N,Net-(R15-Pad2)*%
X120250000Y-144300000D03*
%TO.P,R21,2*%
%TO.N,Net-(J4-Pin_1)*%
X120250000Y-154460000D03*
%TD*%
%TO.P,R5,1*%
%TO.N,Net-(U2B-+)*%
X87582784Y-95267859D03*
%TO.P,R5,2*%
%TO.N,Net-(R5-Pad2)*%
X77422784Y-95267859D03*
%TD*%
%TO.P,R9,1*%
%TO.N,Net-(R9-Pad1)*%
X115750000Y-92970000D03*
%TO.P,R9,2*%
%TO.N,Net-(U1-VFCI)*%
X115750000Y-103130000D03*
%TD*%
%TO.P,R7,1*%
%TO.N,Net-(U1-VPWM)*%
X95500000Y-122050000D03*
%TO.P,R7,2*%
%TO.N,Net-(U2B--)*%
X85340000Y-122050000D03*
%TD*%
%TO.P,R15,1*%
%TO.N,Net-(U2C--)*%
X102990702Y-144069735D03*
%TO.P,R15,2*%
%TO.N,Net-(R15-Pad2)*%
X102990702Y-154229735D03*
%TD*%
D18*
%TO.N,-12V*%
X77080000Y-42290000D02*
X72460469Y-46909531D01*
X88683784Y-109233474D02*
X85357311Y-112559947D01*
X72460469Y-46909531D02*
X72460469Y-87748012D01*
X72460469Y-87748012D02*
X81619987Y-87748012D01*
X88683784Y-94811809D02*
X88683784Y-109233474D01*
X81619987Y-87748012D02*
X88683784Y-94811809D01*
%TO.N,12V*%
X77080000Y-39750000D02*
X78250000Y-40920000D01*
X78250000Y-40920000D02*
X78250000Y-42750000D01*
X78250000Y-42750000D02*
X72861469Y-48138531D01*
X72861469Y-48138531D02*
X72861469Y-84051469D01*
X72861469Y-84051469D02*
X74860000Y-86050000D01*
%TO.N,Net-(C1-Pad1)*%
X125029054Y-93029710D02*
X128000000Y-96000656D01*
X128000000Y-96000656D02*
X128000000Y-107550000D01*
%TO.N,Net-(R9-Pad1)*%
X115750000Y-92970000D02*
X116798682Y-91921318D01*
X116798682Y-91921318D02*
X120628682Y-91921318D01*
X120628682Y-91921318D02*
X126500000Y-86050000D01*
%TO.N,Net-(U2B-+)*%
X87582784Y-95267859D02*
X83899000Y-98951643D01*
X83899000Y-98951643D02*
X83899000Y-135109000D01*
X83899000Y-135109000D02*
X86750000Y-137960000D01*
%TO.N,Net-(U1-VP)*%
X86750000Y-132880000D02*
X86750000Y-132465850D01*
X86750000Y-132465850D02*
X94399000Y-124816850D01*
X94399000Y-124816850D02*
X94399000Y-118481000D01*
X94399000Y-118481000D02*
X95580000Y-117300000D01*
%TO.N,12V*%
X86750000Y-135420000D02*
X93269000Y-128901000D01*
X102998050Y-117359000D02*
X109399000Y-110958050D01*
X109399000Y-109401000D02*
X110500000Y-108300000D01*
X93269000Y-128901000D02*
X93269000Y-126513950D01*
X93269000Y-126513950D02*
X102423950Y-117359000D01*
X102423950Y-117359000D02*
X102998050Y-117359000D01*
X109399000Y-110958050D02*
X109399000Y-109401000D01*
%TO.N,Net-(U1-VSO)*%
X94370000Y-137960000D02*
X101500000Y-130830000D01*
X101500000Y-130830000D02*
X101500000Y-127460000D01*
X101500000Y-127460000D02*
X102880000Y-126080000D01*
%TO.N,Net-(U1-VTO)*%
X94370000Y-132880000D02*
X102450000Y-124800000D01*
X102450000Y-124800000D02*
X109240000Y-124800000D01*
X109240000Y-124800000D02*
X110500000Y-123540000D01*
%TO.N,12V*%
X115744311Y-106940524D02*
X111859476Y-106940524D01*
X111859476Y-106940524D02*
X110500000Y-108300000D01*
%TO.N,GND*%
X109000000Y-130550000D02*
X113649000Y-135199000D01*
X113649000Y-135199000D02*
X113649000Y-149651437D01*
X113649000Y-149651437D02*
X108990702Y-154309735D01*
X115250000Y-132300000D02*
X110750000Y-132300000D01*
X110750000Y-132300000D02*
X109000000Y-130550000D01*
X115250000Y-126050000D02*
X115250000Y-132300000D01*
X110500000Y-118460000D02*
X115250000Y-123210000D01*
X115250000Y-123210000D02*
X115250000Y-126050000D01*
X110500000Y-118460000D02*
X112090000Y-118460000D01*
X112090000Y-118460000D02*
X123000000Y-107550000D01*
X130580000Y-112300000D02*
X130580000Y-117081607D01*
X130580000Y-117081607D02*
X130597327Y-117098934D01*
X123000000Y-107550000D02*
X125830000Y-107550000D01*
X125830000Y-107550000D02*
X130580000Y-112300000D01*
X104490000Y-86050000D02*
X104490000Y-89040000D01*
X104490000Y-89040000D02*
X123000000Y-107550000D01*
%TO.N,12V*%
X74860000Y-86050000D02*
X76412000Y-84498000D01*
X76412000Y-84498000D02*
X122408000Y-84498000D01*
X122408000Y-84498000D02*
X123960000Y-86050000D01*
%TO.N,GND*%
X79940000Y-86050000D02*
X81091000Y-84899000D01*
X81091000Y-84899000D02*
X103339000Y-84899000D01*
X103339000Y-84899000D02*
X104490000Y-86050000D01*
%TD*%
M02*
