M48
; DRILL file {KiCad 9.0.6} date 2026-01-18T01:49:06+1100
; FORMAT={-:-/ absolute / metric / decimal}
; #@! TF.CreationDate,2026-01-18T01:49:06+11:00
; #@! TF.GenerationSoftware,Kicad,Pcbnew,9.0.6
; #@! TF.FileFunction,Plated,1,2,PTH
FMAT,2
METRIC
; #@! TA.AperFunction,Plated,PTH,ComponentDrill
T1C0.800
; #@! TA.AperFunction,Plated,PTH,ComponentDrill
T2C1.000
; #@! TA.AperFunction,Plated,PTH,ComponentDrill
T3C1.200
; #@! TA.AperFunction,Plated,PTH,ComponentDrill
T4C6.000
%
G90
G05
T1
X52.367Y-97.34
X52.367Y-102.34
X52.37Y-105.919
X52.37Y-116.079
X53.92Y-91.0
X56.46Y-91.0
X59.0Y-91.0
X59.0Y-105.92
X59.0Y-116.08
X62.527Y-97.34
X62.527Y-102.34
X64.049Y-105.018
X64.049Y-110.018
X64.34Y-87.25
X64.564Y-92.424
X65.095Y-43.002
X65.095Y-53.162
X66.88Y-97.39
X66.88Y-99.93
X66.88Y-102.47
X66.88Y-105.01
X66.88Y-107.55
X66.88Y-110.09
X66.88Y-112.63
X74.5Y-87.25
X74.5Y-97.39
X74.5Y-99.93
X74.5Y-102.47
X74.5Y-105.01
X74.5Y-107.55
X74.5Y-110.09
X74.5Y-112.63
X74.724Y-92.424
X77.284Y-119.0
X77.284Y-129.16
X78.154Y-106.025
X78.92Y-109.5
X78.92Y-112.59
X78.979Y-87.254
X79.0Y-92.59
X79.0Y-97.59
X79.0Y-102.59
X82.0Y-43.0
X82.0Y-53.16
X83.154Y-106.025
X85.0Y-43.0
X85.0Y-53.16
X85.654Y-106.025
X88.0Y-43.0
X88.0Y-53.16
X89.08Y-109.5
X89.08Y-112.59
X89.139Y-87.254
X89.16Y-92.59
X89.16Y-97.59
X89.16Y-102.59
X90.654Y-106.025
X92.42Y-115.75
X92.977Y-119.0
X92.977Y-129.16
X94.316Y-84.453
X94.316Y-89.453
X94.5Y-92.55
X94.5Y-95.09
X94.5Y-97.63
X94.5Y-100.17
X94.5Y-102.71
X94.5Y-105.25
X94.5Y-107.79
X94.5Y-110.33
X98.316Y-84.453
X98.316Y-89.453
X102.12Y-92.55
X102.12Y-95.09
X102.12Y-97.63
X102.12Y-100.17
X102.12Y-102.71
X102.12Y-105.25
X102.12Y-107.79
X102.12Y-110.33
X102.316Y-84.453
X102.316Y-89.453
X102.58Y-115.75
X104.986Y-105.322
X104.986Y-110.322
X105.0Y-43.0
X105.0Y-53.16
X105.0Y-93.5
X105.0Y-98.5
T2
X59.31Y-76.75
X61.85Y-76.75
X64.39Y-76.75
X64.5Y-30.5
X64.5Y-33.04
X67.04Y-30.5
X67.04Y-33.04
X69.58Y-30.5
X69.58Y-33.04
X82.41Y-76.75
X82.5Y-30.46
X82.5Y-33.0
X84.95Y-76.75
X85.04Y-30.46
X85.04Y-33.0
X87.49Y-76.75
X87.58Y-30.46
X87.58Y-33.0
X100.5Y-30.46
X100.5Y-33.0
X103.04Y-30.46
X103.04Y-33.0
X105.51Y-76.75
X105.58Y-30.46
X105.58Y-33.0
X108.05Y-76.75
X110.59Y-76.75
T3
X57.0Y-60.5
X62.08Y-60.5
X67.08Y-60.5
X80.0Y-60.5
X85.08Y-60.5
X90.08Y-60.5
X103.095Y-60.5
X108.175Y-60.5
X113.175Y-60.5
T4
X56.5Y-46.5
X69.5Y-124.025
X73.5Y-46.5
X85.0Y-124.025
X96.5Y-46.5
X100.5Y-124.025
X113.5Y-46.525
T2
G00X109.625Y-97.0
M15
G01X111.375Y-97.0
M16
G05
G00X109.625Y-101.5
M15
G01X111.375Y-101.5
M16
G05
G00X109.625Y-106.0
M15
G01X111.375Y-106.0
M16
G05
M30
