%TF.GenerationSoftware,KiCad,Pcbnew,9.0.6*%
%TF.CreationDate,2026-01-21T23:07:25+11:00*%
%TF.ProjectId,oscillator,6f736369-6c6c-4617-946f-722e6b696361,rev?*%
%TF.SameCoordinates,Original*%
%TF.FileFunction,Copper,L2,Bot*%
%TF.FilePolarity,Positive*%
%FSLAX46Y46*%
G04 Gerber Fmt 4.6, Leading zero omitted, Abs format (unit mm)*
G04 Created by KiCad (PCBNEW 9.0.6) date 2026-01-21 23:07:25*
%MOMM*%
%LPD*%
G01*
G04 APERTURE LIST*
G04 Aperture macros list*
%AMRoundRect*
0 Rectangle with rounded corners*
0 $1 Rounding radius*
0 $2 $3 $4 $5 $6 $7 $8 $9 X,Y pos of 4 corners*
0 Add a 4 corners polygon primitive as box body*
4,1,4,$2,$3,$4,$5,$6,$7,$8,$9,$2,$3,0*
0 Add four circle primitives for the rounded corners*
1,1,$1+$1,$2,$3*
1,1,$1+$1,$4,$5*
1,1,$1+$1,$6,$7*
1,1,$1+$1,$8,$9*
0 Add four rect primitives between the rounded corners*
20,1,$1+$1,$2,$3,$4,$5,0*
20,1,$1+$1,$4,$5,$6,$7,0*
20,1,$1+$1,$6,$7,$8,$9,0*
20,1,$1+$1,$8,$9,$2,$3,0*%
G04 Aperture macros list end*
%TA.AperFunction,ComponentPad*%
%ADD10C,1.600000*%
%TD*%
%TA.AperFunction,ComponentPad*%
%ADD11R,2.000000X2.000000*%
%TD*%
%TA.AperFunction,ComponentPad*%
%ADD12C,2.000000*%
%TD*%
%TA.AperFunction,ComponentPad*%
%ADD13C,8.000000*%
%TD*%
%TA.AperFunction,ComponentPad*%
%ADD14R,1.700000X1.700000*%
%TD*%
%TA.AperFunction,ComponentPad*%
%ADD15C,1.700000*%
%TD*%
%TA.AperFunction,ComponentPad*%
%ADD16RoundRect,0.250000X0.600000X-0.600000X0.600000X0.600000X-0.600000X0.600000X-0.600000X-0.600000X0*%
%TD*%
%TA.AperFunction,ComponentPad*%
%ADD17O,3.750000X2.000000*%
%TD*%
%TA.AperFunction,ComponentPad*%
%ADD18C,1.440000*%
%TD*%
%TA.AperFunction,ComponentPad*%
%ADD19RoundRect,0.250000X-0.550000X-0.550000X0.550000X-0.550000X0.550000X0.550000X-0.550000X0.550000X0*%
%TD*%
%TA.AperFunction,ComponentPad*%
%ADD20RoundRect,0.250000X0.550000X0.550000X-0.550000X0.550000X-0.550000X-0.550000X0.550000X-0.550000X0*%
%TD*%
%TA.AperFunction,Conductor*%
%ADD21C,0.200000*%
%TD*%
G04 APERTURE END LIST*
D10*
%TO.P,C7,1*%
%TO.N,Net-(J12-Pin_1)*%
X104986294Y-105321825D03*
%TO.P,C7,2*%
%TO.N,Net-(U1-VSSI)*%
X104986294Y-110321825D03*
%TD*%
%TO.P,R7,1*%
%TO.N,Net-(U1-VPWM)*%
X89080000Y-109500000D03*
%TO.P,R7,2*%
%TO.N,Net-(U2B--)*%
X78920000Y-109500000D03*
%TD*%
%TO.P,C6,1*%
%TO.N,12V*%
X105000000Y-93500000D03*
%TO.P,C6,2*%
%TO.N,GND*%
X105000000Y-98500000D03*
%TD*%
%TO.P,R15,1*%
%TO.N,GND*%
X52366658Y-102339627D03*
%TO.P,R15,2*%
%TO.N,Net-(U2C--)*%
X62526658Y-102339627D03*
%TD*%
%TO.P,C4,1*%
%TO.N,GND*%
X64049373Y-110017956D03*
%TO.P,C4,2*%
%TO.N,-12V*%
X64049373Y-105017956D03*
%TD*%
%TO.P,R17,1*%
%TO.N,Net-(R16-Pad2)*%
X92976806Y-119000000D03*
%TO.P,R17,2*%
%TO.N,Net-(J4-Pin_1)*%
X92976806Y-129160000D03*
%TD*%
%TO.P,R13,1*%
%TO.N,Net-(U1-VLFI)*%
X74500000Y-87250000D03*
%TO.P,R13,2*%
%TO.N,GND*%
X64340000Y-87250000D03*
%TD*%
D11*
%TO.P,J9,1,Pin_1*%
%TO.N,GND*%
X80000000Y-60500000D03*
D12*
%TO.P,J9,2,Pin_2*%
%TO.N,Net-(J9-Pin_2)*%
X85080000Y-60500000D03*
%TO.P,J9,3,Pin_3*%
%TO.N,Net-(J7-Pin_1)*%
X90080000Y-60500000D03*
%TD*%
D10*
%TO.P,R6,1*%
%TO.N,Net-(U2B-+)*%
X82000000Y-43000000D03*
%TO.P,R6,2*%
%TO.N,Net-(J9-Pin_2)*%
X82000000Y-53160000D03*
%TD*%
%TO.P,R10,1*%
%TO.N,Net-(C1-Pad1)*%
X88000000Y-43000000D03*
%TO.P,R10,2*%
%TO.N,Net-(U1-VFCI)*%
X88000000Y-53160000D03*
%TD*%
%TO.P,R5,1*%
%TO.N,Net-(U2B-+)*%
X65095193Y-43001691D03*
%TO.P,R5,2*%
%TO.N,Net-(J8-Pin_2)*%
X65095193Y-53161691D03*
%TD*%
D13*
%TO.P,J12,1,Pin_1*%
%TO.N,Net-(J12-Pin_1)*%
X96500000Y-46500000D03*
%TD*%
%TO.P,J6,1,Pin_1*%
%TO.N,Net-(J6-Pin_1)*%
X113500000Y-46524938D03*
%TD*%
D10*
%TO.P,R3,1*%
%TO.N,-12V*%
X79000000Y-97590000D03*
%TO.P,R3,2*%
%TO.N,Net-(U1-VEE)*%
X89160000Y-97590000D03*
%TD*%
%TO.P,R20,1*%
%TO.N,Net-(R19-Pad2)*%
X92420000Y-115750000D03*
%TO.P,R20,2*%
%TO.N,Net-(J3-Pin_1)*%
X102580000Y-115750000D03*
%TD*%
%TO.P,R14,1*%
%TO.N,Net-(J5-Pin_1)*%
X77283810Y-129160000D03*
%TO.P,R14,2*%
%TO.N,Net-(U2A--)*%
X77283810Y-119000000D03*
%TD*%
D13*
%TO.P,J7,1,Pin_1*%
%TO.N,Net-(J7-Pin_1)*%
X56500000Y-46500000D03*
%TD*%
D10*
%TO.P,C8,1*%
%TO.N,Net-(J13-Pin_1)*%
X85653753Y-106024555D03*
%TO.P,C8,2*%
%TO.N,Net-(U1-VHSI)*%
X90653753Y-106024555D03*
%TD*%
%TO.P,C1,1*%
%TO.N,Net-(C1-Pad1)*%
X102316405Y-84453030D03*
%TO.P,C1,2*%
%TO.N,GND*%
X102316405Y-89453030D03*
%TD*%
D14*
%TO.P,RV2,1,1*%
%TO.N,GND*%
X59310000Y-76750000D03*
D15*
%TO.P,RV2,2,2*%
%TO.N,Net-(J8-Pin_2)*%
X61850000Y-76750000D03*
%TO.P,RV2,3,3*%
%TO.N,12V*%
X64390000Y-76750000D03*
%TD*%
D10*
%TO.P,R18,1*%
%TO.N,GND*%
X59000000Y-116080000D03*
%TO.P,R18,2*%
%TO.N,Net-(U2D--)*%
X59000000Y-105920000D03*
%TD*%
D16*
%TO.P,J2,1,Pin_1*%
%TO.N,12V*%
X82500000Y-33000000D03*
D15*
%TO.P,J2,2,Pin_2*%
%TO.N,-12V*%
X82500000Y-30460000D03*
%TO.P,J2,3,Pin_3*%
%TO.N,GND*%
X85040000Y-33000000D03*
%TO.P,J2,4,Pin_4*%
X85040000Y-30460000D03*
%TO.P,J2,5,Pin_5*%
%TO.N,5V*%
X87580000Y-33000000D03*
%TO.P,J2,6,Pin_6*%
%TO.N,unconnected-(J2-Pin_6-Pad6)*%
X87580000Y-30460000D03*
%TD*%
D10*
%TO.P,R9,1*%
%TO.N,Net-(J10-Pin_2)*%
X85000000Y-53160000D03*
%TO.P,R9,2*%
%TO.N,Net-(U1-VFCI)*%
X85000000Y-43000000D03*
%TD*%
D14*
%TO.P,RV3,1,1*%
%TO.N,GND*%
X82410000Y-76750000D03*
D15*
%TO.P,RV3,2,2*%
%TO.N,Net-(J9-Pin_2)*%
X84950000Y-76750000D03*
%TO.P,RV3,3,3*%
%TO.N,Net-(J7-Pin_1)*%
X87490000Y-76750000D03*
%TD*%
D17*
%TO.P,SW1,1,C*%
%TO.N,Net-(SW1-C)*%
X110500000Y-106000000D03*
%TO.P,SW1,2,B*%
%TO.N,Net-(SW1-B)*%
X110500000Y-101500000D03*
%TO.P,SW1,3,A*%
%TO.N,Net-(SW1-A)*%
X110500000Y-97000000D03*
%TD*%
D18*
%TO.P,RV1,1,1*%
%TO.N,Net-(R1-Pad1)*%
X59000000Y-91000000D03*
%TO.P,RV1,2,2*%
%TO.N,Net-(U1-VEE)*%
X56460000Y-91000000D03*
%TO.P,RV1,3,3*%
X53920000Y-91000000D03*
%TD*%
D11*
%TO.P,J8,1,Pin_1*%
%TO.N,GND*%
X57000000Y-60500000D03*
D12*
%TO.P,J8,2,Pin_2*%
%TO.N,Net-(J8-Pin_2)*%
X62080000Y-60500000D03*
%TO.P,J8,3,Pin_3*%
%TO.N,12V*%
X67080000Y-60500000D03*
%TD*%
D10*
%TO.P,R12,1*%
%TO.N,Net-(U1-VLFI)*%
X74724244Y-92424393D03*
%TO.P,R12,2*%
%TO.N,12V*%
X64564244Y-92424393D03*
%TD*%
D19*
%TO.P,U1,1,SCALE1*%
%TO.N,Net-(U1-SCALE1)*%
X94500000Y-92550000D03*
D10*
%TO.P,U1,2,SCALE2*%
%TO.N,Net-(U1-SCALE2)*%
X94500000Y-95090000D03*
%TO.P,U1,3,VEE*%
%TO.N,Net-(U1-VEE)*%
X94500000Y-97630000D03*
%TO.P,U1,4,VP*%
%TO.N,Net-(U1-VP)*%
X94500000Y-100170000D03*
%TO.P,U1,5,VPWM*%
%TO.N,Net-(U1-VPWM)*%
X94500000Y-102710000D03*
%TO.P,U1,6,VHSI*%
%TO.N,Net-(U1-VHSI)*%
X94500000Y-105250000D03*
%TO.P,U1,7,VHFT*%
%TO.N,unconnected-(U1-VHFT-Pad7)*%
X94500000Y-107790000D03*
%TO.P,U1,8,VSO*%
%TO.N,Net-(U1-VSO)*%
X94500000Y-110330000D03*
%TO.P,U1,9,VSSI*%
%TO.N,Net-(U1-VSSI)*%
X102120000Y-110330000D03*
%TO.P,U1,10,VTO*%
%TO.N,Net-(U1-VTO)*%
X102120000Y-107790000D03*
%TO.P,U1,11,CAP*%
%TO.N,Net-(SW1-B)*%
X102120000Y-105250000D03*
%TO.P,U1,12,GND*%
%TO.N,GND*%
X102120000Y-102710000D03*
%TO.P,U1,13,VLFI*%
%TO.N,Net-(U1-VLFI)*%
X102120000Y-100170000D03*
%TO.P,U1,14,VS*%
%TO.N,Net-(U1-VS)*%
X102120000Y-97630000D03*
%TO.P,U1,15,VFCI*%
%TO.N,Net-(U1-VFCI)*%
X102120000Y-95090000D03*
%TO.P,U1,16,VCC*%
%TO.N,12V*%
X102120000Y-92550000D03*
%TD*%
D13*
%TO.P,J3,1,Pin_1*%
%TO.N,Net-(J3-Pin_1)*%
X100500000Y-124024938D03*
%TD*%
D10*
%TO.P,R19,1*%
%TO.N,Net-(U2D--)*%
X52369805Y-105918816D03*
%TO.P,R19,2*%
%TO.N,Net-(R19-Pad2)*%
X52369805Y-116078816D03*
%TD*%
D20*
%TO.P,U2,1*%
%TO.N,Net-(U2A--)*%
X74500000Y-112630000D03*
D10*
%TO.P,U2,2,-*%
X74500000Y-110090000D03*
%TO.P,U2,3,+*%
%TO.N,Net-(U1-VP)*%
X74500000Y-107550000D03*
%TO.P,U2,4,V+*%
%TO.N,12V*%
X74500000Y-105010000D03*
%TO.P,U2,5,+*%
%TO.N,Net-(U2B-+)*%
X74500000Y-102470000D03*
%TO.P,U2,6,-*%
%TO.N,Net-(U2B--)*%
X74500000Y-99930000D03*
%TO.P,U2,7*%
X74500000Y-97390000D03*
%TO.P,U2,8*%
%TO.N,Net-(R16-Pad2)*%
X66880000Y-97390000D03*
%TO.P,U2,9,-*%
%TO.N,Net-(U2C--)*%
X66880000Y-99930000D03*
%TO.P,U2,10,+*%
%TO.N,Net-(U1-VSO)*%
X66880000Y-102470000D03*
%TO.P,U2,11,V-*%
%TO.N,-12V*%
X66880000Y-105010000D03*
%TO.P,U2,12,+*%
%TO.N,Net-(U1-VTO)*%
X66880000Y-107550000D03*
%TO.P,U2,13,-*%
%TO.N,Net-(U2D--)*%
X66880000Y-110090000D03*
%TO.P,U2,14*%
%TO.N,Net-(R19-Pad2)*%
X66880000Y-112630000D03*
%TD*%
D14*
%TO.P,RV4,1,1*%
%TO.N,unconnected-(RV4-Pad1)*%
X105510000Y-76750000D03*
D15*
%TO.P,RV4,2,2*%
%TO.N,Net-(J10-Pin_2)*%
X108050000Y-76750000D03*
%TO.P,RV4,3,3*%
%TO.N,12V*%
X110590000Y-76750000D03*
%TD*%
D10*
%TO.P,R11,1*%
%TO.N,Net-(U1-VS)*%
X89139113Y-87254358D03*
%TO.P,R11,2*%
%TO.N,GND*%
X78979113Y-87254358D03*
%TD*%
%TO.P,R8,1*%
%TO.N,Net-(J6-Pin_1)*%
X105000000Y-53160000D03*
%TO.P,R8,2*%
%TO.N,Net-(U1-VFCI)*%
X105000000Y-43000000D03*
%TD*%
D13*
%TO.P,J13,1,Pin_1*%
%TO.N,Net-(J13-Pin_1)*%
X73500000Y-46500000D03*
%TD*%
D10*
%TO.P,C5,1*%
%TO.N,12V*%
X78153753Y-106024555D03*
%TO.P,C5,2*%
%TO.N,GND*%
X83153753Y-106024555D03*
%TD*%
D11*
%TO.P,J10,1,Pin_1*%
%TO.N,unconnected-(J10-Pin_1-Pad1)*%
X103095000Y-60500000D03*
D12*
%TO.P,J10,2,Pin_2*%
%TO.N,Net-(J10-Pin_2)*%
X108175000Y-60500000D03*
%TO.P,J10,3,Pin_3*%
%TO.N,12V*%
X113175000Y-60500000D03*
%TD*%
D10*
%TO.P,R2,1*%
%TO.N,Net-(U1-VEE)*%
X79000000Y-102590000D03*
%TO.P,R2,2*%
%TO.N,Net-(U1-SCALE2)*%
X89160000Y-102590000D03*
%TD*%
D16*
%TO.P,J1,1,Pin_1*%
%TO.N,12V*%
X64500000Y-33040000D03*
D15*
%TO.P,J1,2,Pin_2*%
%TO.N,-12V*%
X64500000Y-30500000D03*
%TO.P,J1,3,Pin_3*%
%TO.N,GND*%
X67040000Y-33040000D03*
%TO.P,J1,4,Pin_4*%
X67040000Y-30500000D03*
%TO.P,J1,5,Pin_5*%
%TO.N,5V*%
X69580000Y-33040000D03*
%TO.P,J1,6,Pin_6*%
%TO.N,unconnected-(J1-Pin_6-Pad6)*%
X69580000Y-30500000D03*
%TD*%
D10*
%TO.P,R4,1*%
%TO.N,GND*%
X89080000Y-112590000D03*
%TO.P,R4,2*%
%TO.N,Net-(U1-VP)*%
X78920000Y-112590000D03*
%TD*%
D16*
%TO.P,J11,1,Pin_1*%
%TO.N,12V*%
X100500000Y-33000000D03*
D15*
%TO.P,J11,2,Pin_2*%
%TO.N,-12V*%
X100500000Y-30460000D03*
%TO.P,J11,3,Pin_3*%
%TO.N,GND*%
X103040000Y-33000000D03*
%TO.P,J11,4,Pin_4*%
X103040000Y-30460000D03*
%TO.P,J11,5,Pin_5*%
%TO.N,5V*%
X105580000Y-33000000D03*
%TO.P,J11,6,Pin_6*%
%TO.N,unconnected-(J11-Pin_6-Pad6)*%
X105580000Y-30460000D03*
%TD*%
D13*
%TO.P,J4,1,Pin_1*%
%TO.N,Net-(J4-Pin_1)*%
X85000000Y-124024938D03*
%TD*%
D10*
%TO.P,C2,1*%
%TO.N,Net-(SW1-A)*%
X98316405Y-89453030D03*
%TO.P,C2,2*%
%TO.N,GND*%
X98316405Y-84453030D03*
%TD*%
D13*
%TO.P,J5,1,Pin_1*%
%TO.N,Net-(J5-Pin_1)*%
X69500000Y-124024938D03*
%TD*%
D10*
%TO.P,C3,1*%
%TO.N,Net-(SW1-C)*%
X94316405Y-89453030D03*
%TO.P,C3,2*%
%TO.N,GND*%
X94316405Y-84453030D03*
%TD*%
%TO.P,R16,1*%
%TO.N,Net-(U2C--)*%
X52366658Y-97339627D03*
%TO.P,R16,2*%
%TO.N,Net-(R16-Pad2)*%
X62526658Y-97339627D03*
%TD*%
%TO.P,R1,1*%
%TO.N,Net-(R1-Pad1)*%
X79000000Y-92590000D03*
%TO.P,R1,2*%
%TO.N,Net-(U1-SCALE1)*%
X89160000Y-92590000D03*
%TD*%
D21*
%TO.N,Net-(C1-Pad1)*%
X101516406Y-61268430D02*
X101516406Y-83653031D01*
X101516406Y-83653031D02*
X102316405Y-84453030D01*
X88000000Y-47752024D02*
X101516406Y-61268430D01*
X88000000Y-43000000D02*
X88000000Y-47752024D01*
%TO.N,GND*%
X92441000Y-109229000D02*
X95601000Y-109229000D01*
X80000000Y-74340000D02*
X82410000Y-76750000D01*
X103500000Y-90636625D02*
X103500000Y-97000000D01*
X100481450Y-94018550D02*
X100481450Y-95008500D01*
X57000000Y-74440000D02*
X59310000Y-76750000D01*
X52366658Y-102339627D02*
X60044987Y-110017956D01*
X95601000Y-109229000D02*
X102120000Y-102710000D01*
X64340000Y-87250000D02*
X64340000Y-90366285D01*
X103500000Y-97000000D02*
X105000000Y-98500000D01*
X64340000Y-90366285D02*
X52366658Y-102339627D01*
X94316405Y-84453030D02*
X98316405Y-84453030D01*
X59310000Y-82220000D02*
X64340000Y-87250000D01*
X80000000Y-60500000D02*
X80000000Y-74340000D01*
X102001950Y-96529000D02*
X103029000Y-96529000D01*
X100481450Y-95008500D02*
X102001950Y-96529000D01*
X59310000Y-76750000D02*
X59310000Y-82220000D01*
X83212900Y-76750000D02*
X100481450Y-94018550D01*
X98316405Y-84453030D02*
X102316405Y-88453030D01*
X89080000Y-112590000D02*
X92441000Y-109229000D01*
X59000000Y-116080000D02*
X59000000Y-111062943D01*
X82410000Y-76750000D02*
X83212900Y-76750000D01*
X59000000Y-111062943D02*
X60044987Y-110017956D01*
X57000000Y-60500000D02*
X57000000Y-74440000D01*
X60044987Y-110017956D02*
X64049373Y-110017956D01*
X102316405Y-89453030D02*
X103500000Y-90636625D01*
X102316405Y-88453030D02*
X102316405Y-89453030D01*
X103029000Y-96529000D02*
X105000000Y-98500000D01*
%TO.N,Net-(U1-SCALE1)*%
X89160000Y-92590000D02*
X94460000Y-92590000D01*
X94460000Y-92590000D02*
X94500000Y-92550000D01*
%TO.N,Net-(U1-VEE)*%
X93399000Y-99908050D02*
X93399000Y-98731000D01*
X93399000Y-98731000D02*
X94500000Y-97630000D01*
X89616050Y-103691000D02*
X93399000Y-99908050D01*
X79000000Y-102590000D02*
X80101000Y-103691000D01*
X80101000Y-103691000D02*
X89616050Y-103691000D01*
%TO.N,Net-(U1-SCALE2)*%
X89160000Y-100430000D02*
X94500000Y-95090000D01*
X89160000Y-102590000D02*
X89160000Y-100430000D01*
%TO.N,-12V*%
X65651000Y-29349000D02*
X64500000Y-30500000D01*
X81389000Y-29349000D02*
X65651000Y-29349000D01*
X100500000Y-30460000D02*
X99349000Y-29309000D01*
X82500000Y-30460000D02*
X81389000Y-29349000D01*
X99349000Y-29309000D02*
X83651000Y-29309000D01*
X64049373Y-105017956D02*
X66872044Y-105017956D01*
X66872044Y-105017956D02*
X66880000Y-105010000D01*
X83651000Y-29309000D02*
X82500000Y-30460000D01*
%TO.N,Net-(U1-VP)*%
X74500000Y-107550000D02*
X78920000Y-111970000D01*
X82080000Y-112590000D02*
X94500000Y-100170000D01*
X78920000Y-112590000D02*
X82080000Y-112590000D01*
X78920000Y-111970000D02*
X78920000Y-112590000D01*
%TO.N,Net-(U2B-+)*%
X81199000Y-42199000D02*
X82000000Y-43000000D01*
X74500000Y-102470000D02*
X72500000Y-100470000D01*
X65095193Y-44595193D02*
X65095193Y-43001691D01*
X65095193Y-43001691D02*
X65897884Y-42199000D01*
X72500000Y-100470000D02*
X72500000Y-52000000D01*
X72500000Y-52000000D02*
X65095193Y-44595193D01*
X65897884Y-42199000D02*
X81199000Y-42199000D01*
%TO.N,Net-(U1-VPWM)*%
X89080000Y-109500000D02*
X91754753Y-106825247D01*
X91754753Y-105455247D02*
X94500000Y-102710000D01*
X91754753Y-106825247D02*
X91754753Y-105455247D01*
%TO.N,Net-(U2B--)*%
X78920000Y-109500000D02*
X79719999Y-108700001D01*
X79719999Y-108700001D02*
X79719999Y-105149999D01*
X79719999Y-105149999D02*
X74500000Y-99930000D01*
%TO.N,Net-(U1-VFCI)*%
X93215405Y-86185405D02*
X93215405Y-59506775D01*
X93215405Y-59506775D02*
X88000000Y-54291370D01*
X102120000Y-95090000D02*
X93215405Y-86185405D01*
X88000000Y-54291370D02*
X88000000Y-53160000D01*
%TO.N,Net-(U1-VS)*%
X89139113Y-87254358D02*
X93333755Y-91449000D01*
X95939000Y-91449000D02*
X102120000Y-97630000D01*
X93333755Y-91449000D02*
X95939000Y-91449000D01*
%TO.N,12V*%
X100500000Y-33000000D02*
X99158000Y-34342000D01*
X65441000Y-77801000D02*
X65441000Y-91547637D01*
X110590000Y-63085000D02*
X110590000Y-76750000D01*
X74500000Y-105010000D02*
X76510000Y-105010000D01*
X64564244Y-92424393D02*
X70000000Y-97860149D01*
X64390000Y-63190000D02*
X64390000Y-76750000D01*
X105000000Y-93500000D02*
X105000000Y-82340000D01*
X65441000Y-91547637D02*
X64564244Y-92424393D01*
X99158000Y-34342000D02*
X83651000Y-34342000D01*
X65651000Y-34342000D02*
X64500000Y-33191000D01*
X70000000Y-100510000D02*
X74500000Y-105010000D01*
X113175000Y-60500000D02*
X110590000Y-63085000D01*
X70000000Y-97860149D02*
X70000000Y-100510000D01*
X67080000Y-60500000D02*
X64390000Y-63190000D01*
X82500000Y-33191000D02*
X81349000Y-34342000D01*
X105000000Y-82340000D02*
X110590000Y-76750000D01*
X76510000Y-105010000D02*
X77500000Y-106000000D01*
X81349000Y-34342000D02*
X65651000Y-34342000D01*
X83651000Y-34342000D02*
X82500000Y-33191000D01*
X64390000Y-76750000D02*
X65441000Y-77801000D01*
%TO.N,Net-(U1-VLFI)*%
X95939000Y-93989000D02*
X102120000Y-100170000D01*
X74500000Y-92200149D02*
X74724244Y-92424393D01*
X74724244Y-92424393D02*
X76288851Y-93989000D01*
X76288851Y-93989000D02*
X95939000Y-93989000D01*
X74500000Y-87250000D02*
X74500000Y-92200149D01*
%TO.N,5V*%
X104429000Y-31849000D02*
X105580000Y-33000000D01*
X88922000Y-31849000D02*
X104429000Y-31849000D01*
X86191000Y-31802000D02*
X87580000Y-33191000D01*
X69580000Y-33191000D02*
X70969000Y-31802000D01*
X70969000Y-31802000D02*
X86191000Y-31802000D01*
X87580000Y-33191000D02*
X88922000Y-31849000D01*
%TO.N,Net-(R16-Pad2)*%
X62948373Y-107359906D02*
X65150373Y-109561906D01*
X65150373Y-112650373D02*
X70319000Y-117819000D01*
X91899000Y-117819000D02*
X93000000Y-118920000D01*
X65150373Y-109561906D02*
X65150373Y-112650373D01*
X65779000Y-101731279D02*
X62948373Y-104561906D01*
X66880000Y-97390000D02*
X65779000Y-98491000D01*
X62948373Y-104561906D02*
X62948373Y-107359906D01*
X70319000Y-117819000D02*
X91899000Y-117819000D01*
X65779000Y-98491000D02*
X65779000Y-101731279D01*
%TO.N,Net-(R19-Pad2)*%
X70000000Y-115750000D02*
X92420000Y-115750000D01*
X66880000Y-112630000D02*
X70000000Y-115750000D01*
%TO.N,Net-(SW1-B)*%
X110500000Y-101500000D02*
X105577175Y-106422825D01*
X103292825Y-106422825D02*
X102120000Y-105250000D01*
X105577175Y-106422825D02*
X103292825Y-106422825D01*
%TO.N,Net-(U1-VSO)*%
X74956050Y-108651000D02*
X77819000Y-111513950D01*
X66880000Y-102470000D02*
X73061000Y-108651000D01*
X77819000Y-111513950D02*
X77819000Y-113046050D01*
X77819000Y-113046050D02*
X78463950Y-113691000D01*
X73061000Y-108651000D02*
X74956050Y-108651000D01*
X91139000Y-113691000D02*
X94500000Y-110330000D01*
X78463950Y-113691000D02*
X91139000Y-113691000D01*
%TO.N,Net-(J12-Pin_1)*%
X114476000Y-74726000D02*
X114476000Y-59961108D01*
X101014892Y-46500000D02*
X96500000Y-46500000D01*
X114476000Y-59961108D02*
X101014892Y-46500000D01*
X106101000Y-104207119D02*
X106101000Y-83101000D01*
X104986294Y-105321825D02*
X106101000Y-104207119D01*
X106101000Y-83101000D02*
X114476000Y-74726000D01*
%TO.N,Net-(J8-Pin_2)*%
X62080000Y-76520000D02*
X61850000Y-76750000D01*
X62080000Y-60500000D02*
X62080000Y-76520000D01*
X65095193Y-57484807D02*
X65095193Y-53161691D01*
X62080000Y-60500000D02*
X65095193Y-57484807D01*
%TO.N,Net-(J7-Pin_1)*%
X90080000Y-60500000D02*
X87490000Y-63090000D01*
X87490000Y-63090000D02*
X87490000Y-76750000D01*
%TO.N,Net-(J9-Pin_2)*%
X85080000Y-76620000D02*
X84950000Y-76750000D01*
X85080000Y-60500000D02*
X85080000Y-76620000D01*
%TO.N,Net-(J10-Pin_2)*%
X108175000Y-60500000D02*
X108175000Y-76625000D01*
X108175000Y-76625000D02*
X108050000Y-76750000D01*
%TD*%
M02*
