%TF.GenerationSoftware,KiCad,Pcbnew,9.0.5*%
%TF.CreationDate,2025-12-11T21:52:36+11:00*%
%TF.ProjectId,oscillator,6f736369-6c6c-4617-946f-722e6b696361,rev?*%
%TF.SameCoordinates,Original*%
%TF.FileFunction,Legend,Top*%
%TF.FilePolarity,Positive*%
%FSLAX46Y46*%
G04 Gerber Fmt 4.6, Leading zero omitted, Abs format (unit mm)*
G04 Created by KiCad (PCBNEW 9.0.5) date 2025-12-11 21:52:36*
%MOMM*%
%LPD*%
G01*
G04 APERTURE LIST*
%ADD10C,0.100000*%
%ADD11C,0.150000*%
%ADD12C,0.120000*%
G04 APERTURE END LIST*
D10*
X120744360Y-40372419D02*
X120934836Y-40372419D01*
X120934836Y-40372419D02*
X121030074Y-40420038D01*
X121030074Y-40420038D02*
X121125312Y-40515276D01*
X121125312Y-40515276D02*
X121172931Y-40705752D01*
X121172931Y-40705752D02*
X121172931Y-41039085D01*
X121172931Y-41039085D02*
X121125312Y-41229561D01*
X121125312Y-41229561D02*
X121030074Y-41324800D01*
X121030074Y-41324800D02*
X120934836Y-41372419D01*
X120934836Y-41372419D02*
X120744360Y-41372419D01*
X120744360Y-41372419D02*
X120649122Y-41324800D01*
X120649122Y-41324800D02*
X120553884Y-41229561D01*
X120553884Y-41229561D02*
X120506265Y-41039085D01*
X120506265Y-41039085D02*
X120506265Y-40705752D01*
X120506265Y-40705752D02*
X120553884Y-40515276D01*
X120553884Y-40515276D02*
X120649122Y-40420038D01*
X120649122Y-40420038D02*
X120744360Y-40372419D01*
X121553884Y-41324800D02*
X121696741Y-41372419D01*
X121696741Y-41372419D02*
X121934836Y-41372419D01*
X121934836Y-41372419D02*
X122030074Y-41324800D01*
X122030074Y-41324800D02*
X122077693Y-41277180D01*
X122077693Y-41277180D02*
X122125312Y-41181942D01*
X122125312Y-41181942D02*
X122125312Y-41086704D01*
X122125312Y-41086704D02*
X122077693Y-40991466D01*
X122077693Y-40991466D02*
X122030074Y-40943847D01*
X122030074Y-40943847D02*
X121934836Y-40896228D01*
X121934836Y-40896228D02*
X121744360Y-40848609D01*
X121744360Y-40848609D02*
X121649122Y-40800990D01*
X121649122Y-40800990D02*
X121601503Y-40753371D01*
X121601503Y-40753371D02*
X121553884Y-40658133D01*
X121553884Y-40658133D02*
X121553884Y-40562895D01*
X121553884Y-40562895D02*
X121601503Y-40467657D01*
X121601503Y-40467657D02*
X121649122Y-40420038D01*
X121649122Y-40420038D02*
X121744360Y-40372419D01*
X121744360Y-40372419D02*
X121982455Y-40372419D01*
X121982455Y-40372419D02*
X122125312Y-40420038D01*
X123125312Y-41277180D02*
X123077693Y-41324800D01*
X123077693Y-41324800D02*
X122934836Y-41372419D01*
X122934836Y-41372419D02*
X122839598Y-41372419D01*
X122839598Y-41372419D02*
X122696741Y-41324800D01*
X122696741Y-41324800D02*
X122601503Y-41229561D01*
X122601503Y-41229561D02*
X122553884Y-41134323D01*
X122553884Y-41134323D02*
X122506265Y-40943847D01*
X122506265Y-40943847D02*
X122506265Y-40800990D01*
X122506265Y-40800990D02*
X122553884Y-40610514D01*
X122553884Y-40610514D02*
X122601503Y-40515276D01*
X122601503Y-40515276D02*
X122696741Y-40420038D01*
X122696741Y-40420038D02*
X122839598Y-40372419D01*
X122839598Y-40372419D02*
X122934836Y-40372419D01*
X122934836Y-40372419D02*
X123077693Y-40420038D01*
X123077693Y-40420038D02*
X123125312Y-40467657D01*
X123553884Y-41372419D02*
X123553884Y-40372419D01*
X124506264Y-41372419D02*
X124030074Y-41372419D01*
X124030074Y-41372419D02*
X124030074Y-40372419D01*
X125315788Y-41372419D02*
X124839598Y-41372419D01*
X124839598Y-41372419D02*
X124839598Y-40372419D01*
X125601503Y-41086704D02*
X126077693Y-41086704D01*
X125506265Y-41372419D02*
X125839598Y-40372419D01*
X125839598Y-40372419D02*
X126172931Y-41372419D01*
X126363408Y-40372419D02*
X126934836Y-40372419D01*
X126649122Y-41372419D02*
X126649122Y-40372419D01*
X127458646Y-40372419D02*
X127649122Y-40372419D01*
X127649122Y-40372419D02*
X127744360Y-40420038D01*
X127744360Y-40420038D02*
X127839598Y-40515276D01*
X127839598Y-40515276D02*
X127887217Y-40705752D01*
X127887217Y-40705752D02*
X127887217Y-41039085D01*
X127887217Y-41039085D02*
X127839598Y-41229561D01*
X127839598Y-41229561D02*
X127744360Y-41324800D01*
X127744360Y-41324800D02*
X127649122Y-41372419D01*
X127649122Y-41372419D02*
X127458646Y-41372419D01*
X127458646Y-41372419D02*
X127363408Y-41324800D01*
X127363408Y-41324800D02*
X127268170Y-41229561D01*
X127268170Y-41229561D02*
X127220551Y-41039085D01*
X127220551Y-41039085D02*
X127220551Y-40705752D01*
X127220551Y-40705752D02*
X127268170Y-40515276D01*
X127268170Y-40515276D02*
X127363408Y-40420038D01*
X127363408Y-40420038D02*
X127458646Y-40372419D01*
X128887217Y-41372419D02*
X128553884Y-40896228D01*
X128315789Y-41372419D02*
X128315789Y-40372419D01*
X128315789Y-40372419D02*
X128696741Y-40372419D01*
X128696741Y-40372419D02*
X128791979Y-40420038D01*
X128791979Y-40420038D02*
X128839598Y-40467657D01*
X128839598Y-40467657D02*
X128887217Y-40562895D01*
X128887217Y-40562895D02*
X128887217Y-40705752D01*
X128887217Y-40705752D02*
X128839598Y-40800990D01*
X128839598Y-40800990D02*
X128791979Y-40848609D01*
X128791979Y-40848609D02*
X128696741Y-40896228D01*
X128696741Y-40896228D02*
X128315789Y-40896228D01*
X129934837Y-40372419D02*
X130268170Y-41372419D01*
X130268170Y-41372419D02*
X130601503Y-40372419D01*
X131458646Y-41372419D02*
X130887218Y-41372419D01*
X131172932Y-41372419D02*
X131172932Y-40372419D01*
X131172932Y-40372419D02*
X131077694Y-40515276D01*
X131077694Y-40515276D02*
X130982456Y-40610514D01*
X130982456Y-40610514D02*
X130887218Y-40658133D01*
X133127580Y-127780074D02*
X133127580Y-127303884D01*
X133127580Y-127303884D02*
X134127580Y-127303884D01*
X133651390Y-128446741D02*
X133651390Y-128113408D01*
X133127580Y-128113408D02*
X134127580Y-128113408D01*
X134127580Y-128113408D02*
X134127580Y-128589598D01*
X134127580Y-129161027D02*
X134127580Y-129351503D01*
X134127580Y-129351503D02*
X134079961Y-129446741D01*
X134079961Y-129446741D02*
X133984723Y-129541979D01*
X133984723Y-129541979D02*
X133794247Y-129589598D01*
X133794247Y-129589598D02*
X133460914Y-129589598D01*
X133460914Y-129589598D02*
X133270438Y-129541979D01*
X133270438Y-129541979D02*
X133175200Y-129446741D01*
X133175200Y-129446741D02*
X133127580Y-129351503D01*
X133127580Y-129351503D02*
X133127580Y-129161027D01*
X133127580Y-129161027D02*
X133175200Y-129065789D01*
X133175200Y-129065789D02*
X133270438Y-128970551D01*
X133270438Y-128970551D02*
X133460914Y-128922932D01*
X133460914Y-128922932D02*
X133794247Y-128922932D01*
X133794247Y-128922932D02*
X133984723Y-128970551D01*
X133984723Y-128970551D02*
X134079961Y-129065789D01*
X134079961Y-129065789D02*
X134127580Y-129161027D01*
X134127580Y-130637218D02*
X134127580Y-131208646D01*
X133127580Y-130922932D02*
X134127580Y-130922932D01*
X134127580Y-131732456D02*
X134127580Y-131922932D01*
X134127580Y-131922932D02*
X134079961Y-132018170D01*
X134079961Y-132018170D02*
X133984723Y-132113408D01*
X133984723Y-132113408D02*
X133794247Y-132161027D01*
X133794247Y-132161027D02*
X133460914Y-132161027D01*
X133460914Y-132161027D02*
X133270438Y-132113408D01*
X133270438Y-132113408D02*
X133175200Y-132018170D01*
X133175200Y-132018170D02*
X133127580Y-131922932D01*
X133127580Y-131922932D02*
X133127580Y-131732456D01*
X133127580Y-131732456D02*
X133175200Y-131637218D01*
X133175200Y-131637218D02*
X133270438Y-131541980D01*
X133270438Y-131541980D02*
X133460914Y-131494361D01*
X133460914Y-131494361D02*
X133794247Y-131494361D01*
X133794247Y-131494361D02*
X133984723Y-131541980D01*
X133984723Y-131541980D02*
X134079961Y-131637218D01*
X134079961Y-131637218D02*
X134127580Y-131732456D01*
X134079961Y-133113408D02*
X134127580Y-133018170D01*
X134127580Y-133018170D02*
X134127580Y-132875313D01*
X134127580Y-132875313D02*
X134079961Y-132732456D01*
X134079961Y-132732456D02*
X133984723Y-132637218D01*
X133984723Y-132637218D02*
X133889485Y-132589599D01*
X133889485Y-132589599D02*
X133699009Y-132541980D01*
X133699009Y-132541980D02*
X133556152Y-132541980D01*
X133556152Y-132541980D02*
X133365676Y-132589599D01*
X133365676Y-132589599D02*
X133270438Y-132637218D01*
X133270438Y-132637218D02*
X133175200Y-132732456D01*
X133175200Y-132732456D02*
X133127580Y-132875313D01*
X133127580Y-132875313D02*
X133127580Y-132970551D01*
X133127580Y-132970551D02*
X133175200Y-133113408D01*
X133175200Y-133113408D02*
X133222819Y-133161027D01*
X133222819Y-133161027D02*
X133556152Y-133161027D01*
X133556152Y-133161027D02*
X133556152Y-132970551D01*
X134079961Y-134113408D02*
X134127580Y-134018170D01*
X134127580Y-134018170D02*
X134127580Y-133875313D01*
X134127580Y-133875313D02*
X134079961Y-133732456D01*
X134079961Y-133732456D02*
X133984723Y-133637218D01*
X133984723Y-133637218D02*
X133889485Y-133589599D01*
X133889485Y-133589599D02*
X133699009Y-133541980D01*
X133699009Y-133541980D02*
X133556152Y-133541980D01*
X133556152Y-133541980D02*
X133365676Y-133589599D01*
X133365676Y-133589599D02*
X133270438Y-133637218D01*
X133270438Y-133637218D02*
X133175200Y-133732456D01*
X133175200Y-133732456D02*
X133127580Y-133875313D01*
X133127580Y-133875313D02*
X133127580Y-133970551D01*
X133127580Y-133970551D02*
X133175200Y-134113408D01*
X133175200Y-134113408D02*
X133222819Y-134161027D01*
X133222819Y-134161027D02*
X133556152Y-134161027D01*
X133556152Y-134161027D02*
X133556152Y-133970551D01*
X133127580Y-135065789D02*
X133127580Y-134589599D01*
X133127580Y-134589599D02*
X134127580Y-134589599D01*
X133651390Y-135399123D02*
X133651390Y-135732456D01*
X133127580Y-135875313D02*
X133127580Y-135399123D01*
X133127580Y-135399123D02*
X134127580Y-135399123D01*
X134127580Y-135399123D02*
X134127580Y-135875313D01*
X66703884Y-89922419D02*
X66703884Y-88922419D01*
X66703884Y-88922419D02*
X67084836Y-88922419D01*
X67084836Y-88922419D02*
X67180074Y-88970038D01*
X67180074Y-88970038D02*
X67227693Y-89017657D01*
X67227693Y-89017657D02*
X67275312Y-89112895D01*
X67275312Y-89112895D02*
X67275312Y-89255752D01*
X67275312Y-89255752D02*
X67227693Y-89350990D01*
X67227693Y-89350990D02*
X67180074Y-89398609D01*
X67180074Y-89398609D02*
X67084836Y-89446228D01*
X67084836Y-89446228D02*
X66703884Y-89446228D01*
X67608646Y-88922419D02*
X67846741Y-89922419D01*
X67846741Y-89922419D02*
X68037217Y-89208133D01*
X68037217Y-89208133D02*
X68227693Y-89922419D01*
X68227693Y-89922419D02*
X68465789Y-88922419D01*
X68846741Y-89922419D02*
X68846741Y-88922419D01*
X68846741Y-88922419D02*
X69180074Y-89636704D01*
X69180074Y-89636704D02*
X69513407Y-88922419D01*
X69513407Y-88922419D02*
X69513407Y-89922419D01*
X70941979Y-88922419D02*
X71132455Y-88922419D01*
X71132455Y-88922419D02*
X71227693Y-88970038D01*
X71227693Y-88970038D02*
X71322931Y-89065276D01*
X71322931Y-89065276D02*
X71370550Y-89255752D01*
X71370550Y-89255752D02*
X71370550Y-89589085D01*
X71370550Y-89589085D02*
X71322931Y-89779561D01*
X71322931Y-89779561D02*
X71227693Y-89874800D01*
X71227693Y-89874800D02*
X71132455Y-89922419D01*
X71132455Y-89922419D02*
X70941979Y-89922419D01*
X70941979Y-89922419D02*
X70846741Y-89874800D01*
X70846741Y-89874800D02*
X70751503Y-89779561D01*
X70751503Y-89779561D02*
X70703884Y-89589085D01*
X70703884Y-89589085D02*
X70703884Y-89255752D01*
X70703884Y-89255752D02*
X70751503Y-89065276D01*
X70751503Y-89065276D02*
X70846741Y-88970038D01*
X70846741Y-88970038D02*
X70941979Y-88922419D01*
X72132455Y-89398609D02*
X71799122Y-89398609D01*
X71799122Y-89922419D02*
X71799122Y-88922419D01*
X71799122Y-88922419D02*
X72275312Y-88922419D01*
X72989598Y-89398609D02*
X72656265Y-89398609D01*
X72656265Y-89922419D02*
X72656265Y-88922419D01*
X72656265Y-88922419D02*
X73132455Y-88922419D01*
X73465789Y-89874800D02*
X73608646Y-89922419D01*
X73608646Y-89922419D02*
X73846741Y-89922419D01*
X73846741Y-89922419D02*
X73941979Y-89874800D01*
X73941979Y-89874800D02*
X73989598Y-89827180D01*
X73989598Y-89827180D02*
X74037217Y-89731942D01*
X74037217Y-89731942D02*
X74037217Y-89636704D01*
X74037217Y-89636704D02*
X73989598Y-89541466D01*
X73989598Y-89541466D02*
X73941979Y-89493847D01*
X73941979Y-89493847D02*
X73846741Y-89446228D01*
X73846741Y-89446228D02*
X73656265Y-89398609D01*
X73656265Y-89398609D02*
X73561027Y-89350990D01*
X73561027Y-89350990D02*
X73513408Y-89303371D01*
X73513408Y-89303371D02*
X73465789Y-89208133D01*
X73465789Y-89208133D02*
X73465789Y-89112895D01*
X73465789Y-89112895D02*
X73513408Y-89017657D01*
X73513408Y-89017657D02*
X73561027Y-88970038D01*
X73561027Y-88970038D02*
X73656265Y-88922419D01*
X73656265Y-88922419D02*
X73894360Y-88922419D01*
X73894360Y-88922419D02*
X74037217Y-88970038D01*
X74465789Y-89398609D02*
X74799122Y-89398609D01*
X74941979Y-89922419D02*
X74465789Y-89922419D01*
X74465789Y-89922419D02*
X74465789Y-88922419D01*
X74465789Y-88922419D02*
X74941979Y-88922419D01*
X75227694Y-88922419D02*
X75799122Y-88922419D01*
X75513408Y-89922419D02*
X75513408Y-88922419D01*
X84053884Y-54622419D02*
X84053884Y-53622419D01*
X84053884Y-53622419D02*
X84434836Y-53622419D01*
X84434836Y-53622419D02*
X84530074Y-53670038D01*
X84530074Y-53670038D02*
X84577693Y-53717657D01*
X84577693Y-53717657D02*
X84625312Y-53812895D01*
X84625312Y-53812895D02*
X84625312Y-53955752D01*
X84625312Y-53955752D02*
X84577693Y-54050990D01*
X84577693Y-54050990D02*
X84530074Y-54098609D01*
X84530074Y-54098609D02*
X84434836Y-54146228D01*
X84434836Y-54146228D02*
X84053884Y-54146228D01*
X84958646Y-53622419D02*
X85196741Y-54622419D01*
X85196741Y-54622419D02*
X85387217Y-53908133D01*
X85387217Y-53908133D02*
X85577693Y-54622419D01*
X85577693Y-54622419D02*
X85815789Y-53622419D01*
X86196741Y-54622419D02*
X86196741Y-53622419D01*
X86196741Y-53622419D02*
X86530074Y-54336704D01*
X86530074Y-54336704D02*
X86863407Y-53622419D01*
X86863407Y-53622419D02*
X86863407Y-54622419D01*
X88672931Y-54527180D02*
X88625312Y-54574800D01*
X88625312Y-54574800D02*
X88482455Y-54622419D01*
X88482455Y-54622419D02*
X88387217Y-54622419D01*
X88387217Y-54622419D02*
X88244360Y-54574800D01*
X88244360Y-54574800D02*
X88149122Y-54479561D01*
X88149122Y-54479561D02*
X88101503Y-54384323D01*
X88101503Y-54384323D02*
X88053884Y-54193847D01*
X88053884Y-54193847D02*
X88053884Y-54050990D01*
X88053884Y-54050990D02*
X88101503Y-53860514D01*
X88101503Y-53860514D02*
X88149122Y-53765276D01*
X88149122Y-53765276D02*
X88244360Y-53670038D01*
X88244360Y-53670038D02*
X88387217Y-53622419D01*
X88387217Y-53622419D02*
X88482455Y-53622419D01*
X88482455Y-53622419D02*
X88625312Y-53670038D01*
X88625312Y-53670038D02*
X88672931Y-53717657D01*
X88958646Y-53622419D02*
X89291979Y-54622419D01*
X89291979Y-54622419D02*
X89625312Y-53622419D01*
X91253884Y-89922419D02*
X91253884Y-88922419D01*
X91253884Y-88922419D02*
X91634836Y-88922419D01*
X91634836Y-88922419D02*
X91730074Y-88970038D01*
X91730074Y-88970038D02*
X91777693Y-89017657D01*
X91777693Y-89017657D02*
X91825312Y-89112895D01*
X91825312Y-89112895D02*
X91825312Y-89255752D01*
X91825312Y-89255752D02*
X91777693Y-89350990D01*
X91777693Y-89350990D02*
X91730074Y-89398609D01*
X91730074Y-89398609D02*
X91634836Y-89446228D01*
X91634836Y-89446228D02*
X91253884Y-89446228D01*
X92158646Y-88922419D02*
X92396741Y-89922419D01*
X92396741Y-89922419D02*
X92587217Y-89208133D01*
X92587217Y-89208133D02*
X92777693Y-89922419D01*
X92777693Y-89922419D02*
X93015789Y-88922419D01*
X93396741Y-89922419D02*
X93396741Y-88922419D01*
X93396741Y-88922419D02*
X93730074Y-89636704D01*
X93730074Y-89636704D02*
X94063407Y-88922419D01*
X94063407Y-88922419D02*
X94063407Y-89922419D01*
X95872931Y-89827180D02*
X95825312Y-89874800D01*
X95825312Y-89874800D02*
X95682455Y-89922419D01*
X95682455Y-89922419D02*
X95587217Y-89922419D01*
X95587217Y-89922419D02*
X95444360Y-89874800D01*
X95444360Y-89874800D02*
X95349122Y-89779561D01*
X95349122Y-89779561D02*
X95301503Y-89684323D01*
X95301503Y-89684323D02*
X95253884Y-89493847D01*
X95253884Y-89493847D02*
X95253884Y-89350990D01*
X95253884Y-89350990D02*
X95301503Y-89160514D01*
X95301503Y-89160514D02*
X95349122Y-89065276D01*
X95349122Y-89065276D02*
X95444360Y-88970038D01*
X95444360Y-88970038D02*
X95587217Y-88922419D01*
X95587217Y-88922419D02*
X95682455Y-88922419D01*
X95682455Y-88922419D02*
X95825312Y-88970038D01*
X95825312Y-88970038D02*
X95872931Y-89017657D01*
X96158646Y-88922419D02*
X96491979Y-89922419D01*
X96491979Y-89922419D02*
X96825312Y-88922419D01*
X97872932Y-89874800D02*
X98015789Y-89922419D01*
X98015789Y-89922419D02*
X98253884Y-89922419D01*
X98253884Y-89922419D02*
X98349122Y-89874800D01*
X98349122Y-89874800D02*
X98396741Y-89827180D01*
X98396741Y-89827180D02*
X98444360Y-89731942D01*
X98444360Y-89731942D02*
X98444360Y-89636704D01*
X98444360Y-89636704D02*
X98396741Y-89541466D01*
X98396741Y-89541466D02*
X98349122Y-89493847D01*
X98349122Y-89493847D02*
X98253884Y-89446228D01*
X98253884Y-89446228D02*
X98063408Y-89398609D01*
X98063408Y-89398609D02*
X97968170Y-89350990D01*
X97968170Y-89350990D02*
X97920551Y-89303371D01*
X97920551Y-89303371D02*
X97872932Y-89208133D01*
X97872932Y-89208133D02*
X97872932Y-89112895D01*
X97872932Y-89112895D02*
X97920551Y-89017657D01*
X97920551Y-89017657D02*
X97968170Y-88970038D01*
X97968170Y-88970038D02*
X98063408Y-88922419D01*
X98063408Y-88922419D02*
X98301503Y-88922419D01*
X98301503Y-88922419D02*
X98444360Y-88970038D01*
X99444360Y-89827180D02*
X99396741Y-89874800D01*
X99396741Y-89874800D02*
X99253884Y-89922419D01*
X99253884Y-89922419D02*
X99158646Y-89922419D01*
X99158646Y-89922419D02*
X99015789Y-89874800D01*
X99015789Y-89874800D02*
X98920551Y-89779561D01*
X98920551Y-89779561D02*
X98872932Y-89684323D01*
X98872932Y-89684323D02*
X98825313Y-89493847D01*
X98825313Y-89493847D02*
X98825313Y-89350990D01*
X98825313Y-89350990D02*
X98872932Y-89160514D01*
X98872932Y-89160514D02*
X98920551Y-89065276D01*
X98920551Y-89065276D02*
X99015789Y-88970038D01*
X99015789Y-88970038D02*
X99158646Y-88922419D01*
X99158646Y-88922419D02*
X99253884Y-88922419D01*
X99253884Y-88922419D02*
X99396741Y-88970038D01*
X99396741Y-88970038D02*
X99444360Y-89017657D01*
X99825313Y-89636704D02*
X100301503Y-89636704D01*
X99730075Y-89922419D02*
X100063408Y-88922419D01*
X100063408Y-88922419D02*
X100396741Y-89922419D01*
X101206265Y-89922419D02*
X100730075Y-89922419D01*
X100730075Y-89922419D02*
X100730075Y-88922419D01*
X101539599Y-89398609D02*
X101872932Y-89398609D01*
X102015789Y-89922419D02*
X101539599Y-89922419D01*
X101539599Y-89922419D02*
X101539599Y-88922419D01*
X101539599Y-88922419D02*
X102015789Y-88922419D01*
X116137217Y-89398609D02*
X115803884Y-89398609D01*
X115803884Y-89922419D02*
X115803884Y-88922419D01*
X115803884Y-88922419D02*
X116280074Y-88922419D01*
X117232455Y-89922419D02*
X116899122Y-89446228D01*
X116661027Y-89922419D02*
X116661027Y-88922419D01*
X116661027Y-88922419D02*
X117041979Y-88922419D01*
X117041979Y-88922419D02*
X117137217Y-88970038D01*
X117137217Y-88970038D02*
X117184836Y-89017657D01*
X117184836Y-89017657D02*
X117232455Y-89112895D01*
X117232455Y-89112895D02*
X117232455Y-89255752D01*
X117232455Y-89255752D02*
X117184836Y-89350990D01*
X117184836Y-89350990D02*
X117137217Y-89398609D01*
X117137217Y-89398609D02*
X117041979Y-89446228D01*
X117041979Y-89446228D02*
X116661027Y-89446228D01*
X117661027Y-89398609D02*
X117994360Y-89398609D01*
X118137217Y-89922419D02*
X117661027Y-89922419D01*
X117661027Y-89922419D02*
X117661027Y-88922419D01*
X117661027Y-88922419D02*
X118137217Y-88922419D01*
X119232455Y-90017657D02*
X119137217Y-89970038D01*
X119137217Y-89970038D02*
X119041979Y-89874800D01*
X119041979Y-89874800D02*
X118899122Y-89731942D01*
X118899122Y-89731942D02*
X118803884Y-89684323D01*
X118803884Y-89684323D02*
X118708646Y-89684323D01*
X118756265Y-89922419D02*
X118661027Y-89874800D01*
X118661027Y-89874800D02*
X118565789Y-89779561D01*
X118565789Y-89779561D02*
X118518170Y-89589085D01*
X118518170Y-89589085D02*
X118518170Y-89255752D01*
X118518170Y-89255752D02*
X118565789Y-89065276D01*
X118565789Y-89065276D02*
X118661027Y-88970038D01*
X118661027Y-88970038D02*
X118756265Y-88922419D01*
X118756265Y-88922419D02*
X118946741Y-88922419D01*
X118946741Y-88922419D02*
X119041979Y-88970038D01*
X119041979Y-88970038D02*
X119137217Y-89065276D01*
X119137217Y-89065276D02*
X119184836Y-89255752D01*
X119184836Y-89255752D02*
X119184836Y-89589085D01*
X119184836Y-89589085D02*
X119137217Y-89779561D01*
X119137217Y-89779561D02*
X119041979Y-89874800D01*
X119041979Y-89874800D02*
X118946741Y-89922419D01*
X118946741Y-89922419D02*
X118756265Y-89922419D01*
X119613408Y-88922419D02*
X119613408Y-89731942D01*
X119613408Y-89731942D02*
X119661027Y-89827180D01*
X119661027Y-89827180D02*
X119708646Y-89874800D01*
X119708646Y-89874800D02*
X119803884Y-89922419D01*
X119803884Y-89922419D02*
X119994360Y-89922419D01*
X119994360Y-89922419D02*
X120089598Y-89874800D01*
X120089598Y-89874800D02*
X120137217Y-89827180D01*
X120137217Y-89827180D02*
X120184836Y-89731942D01*
X120184836Y-89731942D02*
X120184836Y-88922419D01*
X120661027Y-89398609D02*
X120994360Y-89398609D01*
X121137217Y-89922419D02*
X120661027Y-89922419D01*
X120661027Y-89922419D02*
X120661027Y-88922419D01*
X120661027Y-88922419D02*
X121137217Y-88922419D01*
X121565789Y-89922419D02*
X121565789Y-88922419D01*
X121565789Y-88922419D02*
X122137217Y-89922419D01*
X122137217Y-89922419D02*
X122137217Y-88922419D01*
X123184836Y-89827180D02*
X123137217Y-89874800D01*
X123137217Y-89874800D02*
X122994360Y-89922419D01*
X122994360Y-89922419D02*
X122899122Y-89922419D01*
X122899122Y-89922419D02*
X122756265Y-89874800D01*
X122756265Y-89874800D02*
X122661027Y-89779561D01*
X122661027Y-89779561D02*
X122613408Y-89684323D01*
X122613408Y-89684323D02*
X122565789Y-89493847D01*
X122565789Y-89493847D02*
X122565789Y-89350990D01*
X122565789Y-89350990D02*
X122613408Y-89160514D01*
X122613408Y-89160514D02*
X122661027Y-89065276D01*
X122661027Y-89065276D02*
X122756265Y-88970038D01*
X122756265Y-88970038D02*
X122899122Y-88922419D01*
X122899122Y-88922419D02*
X122994360Y-88922419D01*
X122994360Y-88922419D02*
X123137217Y-88970038D01*
X123137217Y-88970038D02*
X123184836Y-89017657D01*
X123803884Y-89446228D02*
X123803884Y-89922419D01*
X123470551Y-88922419D02*
X123803884Y-89446228D01*
X123803884Y-89446228D02*
X124137217Y-88922419D01*
X125422932Y-88922419D02*
X125613408Y-88922419D01*
X125613408Y-88922419D02*
X125708646Y-88970038D01*
X125708646Y-88970038D02*
X125803884Y-89065276D01*
X125803884Y-89065276D02*
X125851503Y-89255752D01*
X125851503Y-89255752D02*
X125851503Y-89589085D01*
X125851503Y-89589085D02*
X125803884Y-89779561D01*
X125803884Y-89779561D02*
X125708646Y-89874800D01*
X125708646Y-89874800D02*
X125613408Y-89922419D01*
X125613408Y-89922419D02*
X125422932Y-89922419D01*
X125422932Y-89922419D02*
X125327694Y-89874800D01*
X125327694Y-89874800D02*
X125232456Y-89779561D01*
X125232456Y-89779561D02*
X125184837Y-89589085D01*
X125184837Y-89589085D02*
X125184837Y-89255752D01*
X125184837Y-89255752D02*
X125232456Y-89065276D01*
X125232456Y-89065276D02*
X125327694Y-88970038D01*
X125327694Y-88970038D02*
X125422932Y-88922419D01*
X126613408Y-89398609D02*
X126280075Y-89398609D01*
X126280075Y-89922419D02*
X126280075Y-88922419D01*
X126280075Y-88922419D02*
X126756265Y-88922419D01*
X127470551Y-89398609D02*
X127137218Y-89398609D01*
X127137218Y-89922419D02*
X127137218Y-88922419D01*
X127137218Y-88922419D02*
X127613408Y-88922419D01*
X127946742Y-89874800D02*
X128089599Y-89922419D01*
X128089599Y-89922419D02*
X128327694Y-89922419D01*
X128327694Y-89922419D02*
X128422932Y-89874800D01*
X128422932Y-89874800D02*
X128470551Y-89827180D01*
X128470551Y-89827180D02*
X128518170Y-89731942D01*
X128518170Y-89731942D02*
X128518170Y-89636704D01*
X128518170Y-89636704D02*
X128470551Y-89541466D01*
X128470551Y-89541466D02*
X128422932Y-89493847D01*
X128422932Y-89493847D02*
X128327694Y-89446228D01*
X128327694Y-89446228D02*
X128137218Y-89398609D01*
X128137218Y-89398609D02*
X128041980Y-89350990D01*
X128041980Y-89350990D02*
X127994361Y-89303371D01*
X127994361Y-89303371D02*
X127946742Y-89208133D01*
X127946742Y-89208133D02*
X127946742Y-89112895D01*
X127946742Y-89112895D02*
X127994361Y-89017657D01*
X127994361Y-89017657D02*
X128041980Y-88970038D01*
X128041980Y-88970038D02*
X128137218Y-88922419D01*
X128137218Y-88922419D02*
X128375313Y-88922419D01*
X128375313Y-88922419D02*
X128518170Y-88970038D01*
X128946742Y-89398609D02*
X129280075Y-89398609D01*
X129422932Y-89922419D02*
X128946742Y-89922419D01*
X128946742Y-89922419D02*
X128946742Y-88922419D01*
X128946742Y-88922419D02*
X129422932Y-88922419D01*
X129708647Y-88922419D02*
X130280075Y-88922419D01*
X129994361Y-89922419D02*
X129994361Y-88922419D01*
X109137217Y-54598609D02*
X108803884Y-54598609D01*
X108803884Y-55122419D02*
X108803884Y-54122419D01*
X108803884Y-54122419D02*
X109280074Y-54122419D01*
X110232455Y-55122419D02*
X109899122Y-54646228D01*
X109661027Y-55122419D02*
X109661027Y-54122419D01*
X109661027Y-54122419D02*
X110041979Y-54122419D01*
X110041979Y-54122419D02*
X110137217Y-54170038D01*
X110137217Y-54170038D02*
X110184836Y-54217657D01*
X110184836Y-54217657D02*
X110232455Y-54312895D01*
X110232455Y-54312895D02*
X110232455Y-54455752D01*
X110232455Y-54455752D02*
X110184836Y-54550990D01*
X110184836Y-54550990D02*
X110137217Y-54598609D01*
X110137217Y-54598609D02*
X110041979Y-54646228D01*
X110041979Y-54646228D02*
X109661027Y-54646228D01*
X110661027Y-54598609D02*
X110994360Y-54598609D01*
X111137217Y-55122419D02*
X110661027Y-55122419D01*
X110661027Y-55122419D02*
X110661027Y-54122419D01*
X110661027Y-54122419D02*
X111137217Y-54122419D01*
X112232455Y-55217657D02*
X112137217Y-55170038D01*
X112137217Y-55170038D02*
X112041979Y-55074800D01*
X112041979Y-55074800D02*
X111899122Y-54931942D01*
X111899122Y-54931942D02*
X111803884Y-54884323D01*
X111803884Y-54884323D02*
X111708646Y-54884323D01*
X111756265Y-55122419D02*
X111661027Y-55074800D01*
X111661027Y-55074800D02*
X111565789Y-54979561D01*
X111565789Y-54979561D02*
X111518170Y-54789085D01*
X111518170Y-54789085D02*
X111518170Y-54455752D01*
X111518170Y-54455752D02*
X111565789Y-54265276D01*
X111565789Y-54265276D02*
X111661027Y-54170038D01*
X111661027Y-54170038D02*
X111756265Y-54122419D01*
X111756265Y-54122419D02*
X111946741Y-54122419D01*
X111946741Y-54122419D02*
X112041979Y-54170038D01*
X112041979Y-54170038D02*
X112137217Y-54265276D01*
X112137217Y-54265276D02*
X112184836Y-54455752D01*
X112184836Y-54455752D02*
X112184836Y-54789085D01*
X112184836Y-54789085D02*
X112137217Y-54979561D01*
X112137217Y-54979561D02*
X112041979Y-55074800D01*
X112041979Y-55074800D02*
X111946741Y-55122419D01*
X111946741Y-55122419D02*
X111756265Y-55122419D01*
X112613408Y-54122419D02*
X112613408Y-54931942D01*
X112613408Y-54931942D02*
X112661027Y-55027180D01*
X112661027Y-55027180D02*
X112708646Y-55074800D01*
X112708646Y-55074800D02*
X112803884Y-55122419D01*
X112803884Y-55122419D02*
X112994360Y-55122419D01*
X112994360Y-55122419D02*
X113089598Y-55074800D01*
X113089598Y-55074800D02*
X113137217Y-55027180D01*
X113137217Y-55027180D02*
X113184836Y-54931942D01*
X113184836Y-54931942D02*
X113184836Y-54122419D01*
X113661027Y-54598609D02*
X113994360Y-54598609D01*
X114137217Y-55122419D02*
X113661027Y-55122419D01*
X113661027Y-55122419D02*
X113661027Y-54122419D01*
X113661027Y-54122419D02*
X114137217Y-54122419D01*
X114565789Y-55122419D02*
X114565789Y-54122419D01*
X114565789Y-54122419D02*
X115137217Y-55122419D01*
X115137217Y-55122419D02*
X115137217Y-54122419D01*
X116184836Y-55027180D02*
X116137217Y-55074800D01*
X116137217Y-55074800D02*
X115994360Y-55122419D01*
X115994360Y-55122419D02*
X115899122Y-55122419D01*
X115899122Y-55122419D02*
X115756265Y-55074800D01*
X115756265Y-55074800D02*
X115661027Y-54979561D01*
X115661027Y-54979561D02*
X115613408Y-54884323D01*
X115613408Y-54884323D02*
X115565789Y-54693847D01*
X115565789Y-54693847D02*
X115565789Y-54550990D01*
X115565789Y-54550990D02*
X115613408Y-54360514D01*
X115613408Y-54360514D02*
X115661027Y-54265276D01*
X115661027Y-54265276D02*
X115756265Y-54170038D01*
X115756265Y-54170038D02*
X115899122Y-54122419D01*
X115899122Y-54122419D02*
X115994360Y-54122419D01*
X115994360Y-54122419D02*
X116137217Y-54170038D01*
X116137217Y-54170038D02*
X116184836Y-54217657D01*
X116803884Y-54646228D02*
X116803884Y-55122419D01*
X116470551Y-54122419D02*
X116803884Y-54646228D01*
X116803884Y-54646228D02*
X117137217Y-54122419D01*
X118803884Y-55027180D02*
X118756265Y-55074800D01*
X118756265Y-55074800D02*
X118613408Y-55122419D01*
X118613408Y-55122419D02*
X118518170Y-55122419D01*
X118518170Y-55122419D02*
X118375313Y-55074800D01*
X118375313Y-55074800D02*
X118280075Y-54979561D01*
X118280075Y-54979561D02*
X118232456Y-54884323D01*
X118232456Y-54884323D02*
X118184837Y-54693847D01*
X118184837Y-54693847D02*
X118184837Y-54550990D01*
X118184837Y-54550990D02*
X118232456Y-54360514D01*
X118232456Y-54360514D02*
X118280075Y-54265276D01*
X118280075Y-54265276D02*
X118375313Y-54170038D01*
X118375313Y-54170038D02*
X118518170Y-54122419D01*
X118518170Y-54122419D02*
X118613408Y-54122419D01*
X118613408Y-54122419D02*
X118756265Y-54170038D01*
X118756265Y-54170038D02*
X118803884Y-54217657D01*
X119089599Y-54122419D02*
X119422932Y-55122419D01*
X119422932Y-55122419D02*
X119756265Y-54122419D01*
X78303884Y-175572419D02*
X78303884Y-174572419D01*
X78303884Y-174572419D02*
X78684836Y-174572419D01*
X78684836Y-174572419D02*
X78780074Y-174620038D01*
X78780074Y-174620038D02*
X78827693Y-174667657D01*
X78827693Y-174667657D02*
X78875312Y-174762895D01*
X78875312Y-174762895D02*
X78875312Y-174905752D01*
X78875312Y-174905752D02*
X78827693Y-175000990D01*
X78827693Y-175000990D02*
X78780074Y-175048609D01*
X78780074Y-175048609D02*
X78684836Y-175096228D01*
X78684836Y-175096228D02*
X78303884Y-175096228D01*
X79303884Y-174572419D02*
X79303884Y-175381942D01*
X79303884Y-175381942D02*
X79351503Y-175477180D01*
X79351503Y-175477180D02*
X79399122Y-175524800D01*
X79399122Y-175524800D02*
X79494360Y-175572419D01*
X79494360Y-175572419D02*
X79684836Y-175572419D01*
X79684836Y-175572419D02*
X79780074Y-175524800D01*
X79780074Y-175524800D02*
X79827693Y-175477180D01*
X79827693Y-175477180D02*
X79875312Y-175381942D01*
X79875312Y-175381942D02*
X79875312Y-174572419D01*
X80827693Y-175572419D02*
X80351503Y-175572419D01*
X80351503Y-175572419D02*
X80351503Y-174572419D01*
X81113408Y-175524800D02*
X81256265Y-175572419D01*
X81256265Y-175572419D02*
X81494360Y-175572419D01*
X81494360Y-175572419D02*
X81589598Y-175524800D01*
X81589598Y-175524800D02*
X81637217Y-175477180D01*
X81637217Y-175477180D02*
X81684836Y-175381942D01*
X81684836Y-175381942D02*
X81684836Y-175286704D01*
X81684836Y-175286704D02*
X81637217Y-175191466D01*
X81637217Y-175191466D02*
X81589598Y-175143847D01*
X81589598Y-175143847D02*
X81494360Y-175096228D01*
X81494360Y-175096228D02*
X81303884Y-175048609D01*
X81303884Y-175048609D02*
X81208646Y-175000990D01*
X81208646Y-175000990D02*
X81161027Y-174953371D01*
X81161027Y-174953371D02*
X81113408Y-174858133D01*
X81113408Y-174858133D02*
X81113408Y-174762895D01*
X81113408Y-174762895D02*
X81161027Y-174667657D01*
X81161027Y-174667657D02*
X81208646Y-174620038D01*
X81208646Y-174620038D02*
X81303884Y-174572419D01*
X81303884Y-174572419D02*
X81541979Y-174572419D01*
X81541979Y-174572419D02*
X81684836Y-174620038D01*
X82113408Y-175048609D02*
X82446741Y-175048609D01*
X82589598Y-175572419D02*
X82113408Y-175572419D01*
X82113408Y-175572419D02*
X82113408Y-174572419D01*
X82113408Y-174572419D02*
X82589598Y-174572419D01*
X121256265Y-175524800D02*
X121399122Y-175572419D01*
X121399122Y-175572419D02*
X121637217Y-175572419D01*
X121637217Y-175572419D02*
X121732455Y-175524800D01*
X121732455Y-175524800D02*
X121780074Y-175477180D01*
X121780074Y-175477180D02*
X121827693Y-175381942D01*
X121827693Y-175381942D02*
X121827693Y-175286704D01*
X121827693Y-175286704D02*
X121780074Y-175191466D01*
X121780074Y-175191466D02*
X121732455Y-175143847D01*
X121732455Y-175143847D02*
X121637217Y-175096228D01*
X121637217Y-175096228D02*
X121446741Y-175048609D01*
X121446741Y-175048609D02*
X121351503Y-175000990D01*
X121351503Y-175000990D02*
X121303884Y-174953371D01*
X121303884Y-174953371D02*
X121256265Y-174858133D01*
X121256265Y-174858133D02*
X121256265Y-174762895D01*
X121256265Y-174762895D02*
X121303884Y-174667657D01*
X121303884Y-174667657D02*
X121351503Y-174620038D01*
X121351503Y-174620038D02*
X121446741Y-174572419D01*
X121446741Y-174572419D02*
X121684836Y-174572419D01*
X121684836Y-174572419D02*
X121827693Y-174620038D01*
X122208646Y-175286704D02*
X122684836Y-175286704D01*
X122113408Y-175572419D02*
X122446741Y-174572419D01*
X122446741Y-174572419D02*
X122780074Y-175572419D01*
X123018170Y-174572419D02*
X123256265Y-175572419D01*
X123256265Y-175572419D02*
X123446741Y-174858133D01*
X123446741Y-174858133D02*
X123637217Y-175572419D01*
X123637217Y-175572419D02*
X123875313Y-174572419D01*
X124113408Y-174572419D02*
X124684836Y-174572419D01*
X124399122Y-175572419D02*
X124399122Y-174572419D01*
X125208646Y-174572419D02*
X125399122Y-174572419D01*
X125399122Y-174572419D02*
X125494360Y-174620038D01*
X125494360Y-174620038D02*
X125589598Y-174715276D01*
X125589598Y-174715276D02*
X125637217Y-174905752D01*
X125637217Y-174905752D02*
X125637217Y-175239085D01*
X125637217Y-175239085D02*
X125589598Y-175429561D01*
X125589598Y-175429561D02*
X125494360Y-175524800D01*
X125494360Y-175524800D02*
X125399122Y-175572419D01*
X125399122Y-175572419D02*
X125208646Y-175572419D01*
X125208646Y-175572419D02*
X125113408Y-175524800D01*
X125113408Y-175524800D02*
X125018170Y-175429561D01*
X125018170Y-175429561D02*
X124970551Y-175239085D01*
X124970551Y-175239085D02*
X124970551Y-174905752D01*
X124970551Y-174905752D02*
X125018170Y-174715276D01*
X125018170Y-174715276D02*
X125113408Y-174620038D01*
X125113408Y-174620038D02*
X125208646Y-174572419D01*
X126256265Y-174572419D02*
X126446741Y-174572419D01*
X126446741Y-174572419D02*
X126541979Y-174620038D01*
X126541979Y-174620038D02*
X126637217Y-174715276D01*
X126637217Y-174715276D02*
X126684836Y-174905752D01*
X126684836Y-174905752D02*
X126684836Y-175239085D01*
X126684836Y-175239085D02*
X126637217Y-175429561D01*
X126637217Y-175429561D02*
X126541979Y-175524800D01*
X126541979Y-175524800D02*
X126446741Y-175572419D01*
X126446741Y-175572419D02*
X126256265Y-175572419D01*
X126256265Y-175572419D02*
X126161027Y-175524800D01*
X126161027Y-175524800D02*
X126065789Y-175429561D01*
X126065789Y-175429561D02*
X126018170Y-175239085D01*
X126018170Y-175239085D02*
X126018170Y-174905752D01*
X126018170Y-174905752D02*
X126065789Y-174715276D01*
X126065789Y-174715276D02*
X126161027Y-174620038D01*
X126161027Y-174620038D02*
X126256265Y-174572419D01*
X126970551Y-174572419D02*
X127541979Y-174572419D01*
X127256265Y-175572419D02*
X127256265Y-174572419D01*
X127875313Y-175572419D02*
X127875313Y-174572419D01*
X127875313Y-175048609D02*
X128446741Y-175048609D01*
X128446741Y-175572419D02*
X128446741Y-174572419D01*
X98661027Y-174572419D02*
X99232455Y-174572419D01*
X98946741Y-175572419D02*
X98946741Y-174572419D01*
X100137217Y-175572419D02*
X99803884Y-175096228D01*
X99565789Y-175572419D02*
X99565789Y-174572419D01*
X99565789Y-174572419D02*
X99946741Y-174572419D01*
X99946741Y-174572419D02*
X100041979Y-174620038D01*
X100041979Y-174620038D02*
X100089598Y-174667657D01*
X100089598Y-174667657D02*
X100137217Y-174762895D01*
X100137217Y-174762895D02*
X100137217Y-174905752D01*
X100137217Y-174905752D02*
X100089598Y-175000990D01*
X100089598Y-175000990D02*
X100041979Y-175048609D01*
X100041979Y-175048609D02*
X99946741Y-175096228D01*
X99946741Y-175096228D02*
X99565789Y-175096228D01*
X100565789Y-175572419D02*
X100565789Y-174572419D01*
X100994360Y-175286704D02*
X101470550Y-175286704D01*
X100899122Y-175572419D02*
X101232455Y-174572419D01*
X101232455Y-174572419D02*
X101565788Y-175572419D01*
X101899122Y-175572419D02*
X101899122Y-174572419D01*
X101899122Y-174572419D02*
X102470550Y-175572419D01*
X102470550Y-175572419D02*
X102470550Y-174572419D01*
X103470550Y-174620038D02*
X103375312Y-174572419D01*
X103375312Y-174572419D02*
X103232455Y-174572419D01*
X103232455Y-174572419D02*
X103089598Y-174620038D01*
X103089598Y-174620038D02*
X102994360Y-174715276D01*
X102994360Y-174715276D02*
X102946741Y-174810514D01*
X102946741Y-174810514D02*
X102899122Y-175000990D01*
X102899122Y-175000990D02*
X102899122Y-175143847D01*
X102899122Y-175143847D02*
X102946741Y-175334323D01*
X102946741Y-175334323D02*
X102994360Y-175429561D01*
X102994360Y-175429561D02*
X103089598Y-175524800D01*
X103089598Y-175524800D02*
X103232455Y-175572419D01*
X103232455Y-175572419D02*
X103327693Y-175572419D01*
X103327693Y-175572419D02*
X103470550Y-175524800D01*
X103470550Y-175524800D02*
X103518169Y-175477180D01*
X103518169Y-175477180D02*
X103518169Y-175143847D01*
X103518169Y-175143847D02*
X103327693Y-175143847D01*
X104422931Y-175572419D02*
X103946741Y-175572419D01*
X103946741Y-175572419D02*
X103946741Y-174572419D01*
X104756265Y-175048609D02*
X105089598Y-175048609D01*
X105232455Y-175572419D02*
X104756265Y-175572419D01*
X104756265Y-175572419D02*
X104756265Y-174572419D01*
X104756265Y-174572419D02*
X105232455Y-174572419D01*
X118666666Y-55957419D02*
X118666666Y-56671704D01*
X118666666Y-56671704D02*
X118619047Y-56814561D01*
X118619047Y-56814561D02*
X118523809Y-56909800D01*
X118523809Y-56909800D02*
X118380952Y-56957419D01*
X118380952Y-56957419D02*
X118285714Y-56957419D01*
X119571428Y-55957419D02*
X119380952Y-55957419D01*
X119380952Y-55957419D02*
X119285714Y-56005038D01*
X119285714Y-56005038D02*
X119238095Y-56052657D01*
X119238095Y-56052657D02*
X119142857Y-56195514D01*
X119142857Y-56195514D02*
X119095238Y-56385990D01*
X119095238Y-56385990D02*
X119095238Y-56766942D01*
X119095238Y-56766942D02*
X119142857Y-56862180D01*
X119142857Y-56862180D02*
X119190476Y-56909800D01*
X119190476Y-56909800D02*
X119285714Y-56957419D01*
X119285714Y-56957419D02*
X119476190Y-56957419D01*
X119476190Y-56957419D02*
X119571428Y-56909800D01*
X119571428Y-56909800D02*
X119619047Y-56862180D01*
X119619047Y-56862180D02*
X119666666Y-56766942D01*
X119666666Y-56766942D02*
X119666666Y-56528847D01*
X119666666Y-56528847D02*
X119619047Y-56433609D01*
X119619047Y-56433609D02*
X119571428Y-56385990D01*
X119571428Y-56385990D02*
X119476190Y-56338371D01*
X119476190Y-56338371D02*
X119285714Y-56338371D01*
X119285714Y-56338371D02*
X119190476Y-56385990D01*
X119190476Y-56385990D02*
X119142857Y-56433609D01*
X119142857Y-56433609D02*
X119095238Y-56528847D01*
X84416666Y-55457419D02*
X84416666Y-56171704D01*
X84416666Y-56171704D02*
X84369047Y-56314561D01*
X84369047Y-56314561D02*
X84273809Y-56409800D01*
X84273809Y-56409800D02*
X84130952Y-56457419D01*
X84130952Y-56457419D02*
X84035714Y-56457419D01*
X84797619Y-55457419D02*
X85464285Y-55457419D01*
X85464285Y-55457419D02*
X85035714Y-56457419D01*
X79666666Y-172907419D02*
X79666666Y-173621704D01*
X79666666Y-173621704D02*
X79619047Y-173764561D01*
X79619047Y-173764561D02*
X79523809Y-173859800D01*
X79523809Y-173859800D02*
X79380952Y-173907419D01*
X79380952Y-173907419D02*
X79285714Y-173907419D01*
X80619047Y-172907419D02*
X80142857Y-172907419D01*
X80142857Y-172907419D02*
X80095238Y-173383609D01*
X80095238Y-173383609D02*
X80142857Y-173335990D01*
X80142857Y-173335990D02*
X80238095Y-173288371D01*
X80238095Y-173288371D02*
X80476190Y-173288371D01*
X80476190Y-173288371D02*
X80571428Y-173335990D01*
X80571428Y-173335990D02*
X80619047Y-173383609D01*
X80619047Y-173383609D02*
X80666666Y-173478847D01*
X80666666Y-173478847D02*
X80666666Y-173716942D01*
X80666666Y-173716942D02*
X80619047Y-173812180D01*
X80619047Y-173812180D02*
X80571428Y-173859800D01*
X80571428Y-173859800D02*
X80476190Y-173907419D01*
X80476190Y-173907419D02*
X80238095Y-173907419D01*
X80238095Y-173907419D02*
X80142857Y-173859800D01*
X80142857Y-173859800D02*
X80095238Y-173812180D01*
X101416666Y-172907419D02*
X101416666Y-173621704D01*
X101416666Y-173621704D02*
X101369047Y-173764561D01*
X101369047Y-173764561D02*
X101273809Y-173859800D01*
X101273809Y-173859800D02*
X101130952Y-173907419D01*
X101130952Y-173907419D02*
X101035714Y-173907419D01*
X101797619Y-172907419D02*
X102416666Y-172907419D01*
X102416666Y-172907419D02*
X102083333Y-173288371D01*
X102083333Y-173288371D02*
X102226190Y-173288371D01*
X102226190Y-173288371D02*
X102321428Y-173335990D01*
X102321428Y-173335990D02*
X102369047Y-173383609D01*
X102369047Y-173383609D02*
X102416666Y-173478847D01*
X102416666Y-173478847D02*
X102416666Y-173716942D01*
X102416666Y-173716942D02*
X102369047Y-173812180D01*
X102369047Y-173812180D02*
X102321428Y-173859800D01*
X102321428Y-173859800D02*
X102226190Y-173907419D01*
X102226190Y-173907419D02*
X101940476Y-173907419D01*
X101940476Y-173907419D02*
X101845238Y-173859800D01*
X101845238Y-173859800D02*
X101797619Y-173812180D01*
X123916666Y-172907419D02*
X123916666Y-173621704D01*
X123916666Y-173621704D02*
X123869047Y-173764561D01*
X123869047Y-173764561D02*
X123773809Y-173859800D01*
X123773809Y-173859800D02*
X123630952Y-173907419D01*
X123630952Y-173907419D02*
X123535714Y-173907419D01*
X124821428Y-173240752D02*
X124821428Y-173907419D01*
X124583333Y-172859800D02*
X124345238Y-173574085D01*
X124345238Y-173574085D02*
X124964285Y-173574085D01*
X86304761Y-90007419D02*
X85971428Y-89531228D01*
X85733333Y-90007419D02*
X85733333Y-89007419D01*
X85733333Y-89007419D02*
X86114285Y-89007419D01*
X86114285Y-89007419D02*
X86209523Y-89055038D01*
X86209523Y-89055038D02*
X86257142Y-89102657D01*
X86257142Y-89102657D02*
X86304761Y-89197895D01*
X86304761Y-89197895D02*
X86304761Y-89340752D01*
X86304761Y-89340752D02*
X86257142Y-89435990D01*
X86257142Y-89435990D02*
X86209523Y-89483609D01*
X86209523Y-89483609D02*
X86114285Y-89531228D01*
X86114285Y-89531228D02*
X85733333Y-89531228D01*
X86590476Y-89007419D02*
X86923809Y-90007419D01*
X86923809Y-90007419D02*
X87257142Y-89007419D01*
X87542857Y-89102657D02*
X87590476Y-89055038D01*
X87590476Y-89055038D02*
X87685714Y-89007419D01*
X87685714Y-89007419D02*
X87923809Y-89007419D01*
X87923809Y-89007419D02*
X88019047Y-89055038D01*
X88019047Y-89055038D02*
X88066666Y-89102657D01*
X88066666Y-89102657D02*
X88114285Y-89197895D01*
X88114285Y-89197895D02*
X88114285Y-89293133D01*
X88114285Y-89293133D02*
X88066666Y-89435990D01*
X88066666Y-89435990D02*
X87495238Y-90007419D01*
X87495238Y-90007419D02*
X88114285Y-90007419D01*
X135404761Y-90007419D02*
X135071428Y-89531228D01*
X134833333Y-90007419D02*
X134833333Y-89007419D01*
X134833333Y-89007419D02*
X135214285Y-89007419D01*
X135214285Y-89007419D02*
X135309523Y-89055038D01*
X135309523Y-89055038D02*
X135357142Y-89102657D01*
X135357142Y-89102657D02*
X135404761Y-89197895D01*
X135404761Y-89197895D02*
X135404761Y-89340752D01*
X135404761Y-89340752D02*
X135357142Y-89435990D01*
X135357142Y-89435990D02*
X135309523Y-89483609D01*
X135309523Y-89483609D02*
X135214285Y-89531228D01*
X135214285Y-89531228D02*
X134833333Y-89531228D01*
X135690476Y-89007419D02*
X136023809Y-90007419D01*
X136023809Y-90007419D02*
X136357142Y-89007419D01*
X137119047Y-89340752D02*
X137119047Y-90007419D01*
X136880952Y-88959800D02*
X136642857Y-89674085D01*
X136642857Y-89674085D02*
X137261904Y-89674085D01*
X110854761Y-90007419D02*
X110521428Y-89531228D01*
X110283333Y-90007419D02*
X110283333Y-89007419D01*
X110283333Y-89007419D02*
X110664285Y-89007419D01*
X110664285Y-89007419D02*
X110759523Y-89055038D01*
X110759523Y-89055038D02*
X110807142Y-89102657D01*
X110807142Y-89102657D02*
X110854761Y-89197895D01*
X110854761Y-89197895D02*
X110854761Y-89340752D01*
X110854761Y-89340752D02*
X110807142Y-89435990D01*
X110807142Y-89435990D02*
X110759523Y-89483609D01*
X110759523Y-89483609D02*
X110664285Y-89531228D01*
X110664285Y-89531228D02*
X110283333Y-89531228D01*
X111140476Y-89007419D02*
X111473809Y-90007419D01*
X111473809Y-90007419D02*
X111807142Y-89007419D01*
X112045238Y-89007419D02*
X112664285Y-89007419D01*
X112664285Y-89007419D02*
X112330952Y-89388371D01*
X112330952Y-89388371D02*
X112473809Y-89388371D01*
X112473809Y-89388371D02*
X112569047Y-89435990D01*
X112569047Y-89435990D02*
X112616666Y-89483609D01*
X112616666Y-89483609D02*
X112664285Y-89578847D01*
X112664285Y-89578847D02*
X112664285Y-89816942D01*
X112664285Y-89816942D02*
X112616666Y-89912180D01*
X112616666Y-89912180D02*
X112569047Y-89959800D01*
X112569047Y-89959800D02*
X112473809Y-90007419D01*
X112473809Y-90007419D02*
X112188095Y-90007419D01*
X112188095Y-90007419D02*
X112092857Y-89959800D01*
X112092857Y-89959800D02*
X112045238Y-89912180D01*
D11*
X89798095Y-124924819D02*
X89798095Y-125734342D01*
X89798095Y-125734342D02*
X89845714Y-125829580D01*
X89845714Y-125829580D02*
X89893333Y-125877200D01*
X89893333Y-125877200D02*
X89988571Y-125924819D01*
X89988571Y-125924819D02*
X90179047Y-125924819D01*
X90179047Y-125924819D02*
X90274285Y-125877200D01*
X90274285Y-125877200D02*
X90321904Y-125829580D01*
X90321904Y-125829580D02*
X90369523Y-125734342D01*
X90369523Y-125734342D02*
X90369523Y-124924819D01*
X90798095Y-125020057D02*
X90845714Y-124972438D01*
X90845714Y-124972438D02*
X90940952Y-124924819D01*
X90940952Y-124924819D02*
X91179047Y-124924819D01*
X91179047Y-124924819D02*
X91274285Y-124972438D01*
X91274285Y-124972438D02*
X91321904Y-125020057D01*
X91321904Y-125020057D02*
X91369523Y-125115295D01*
X91369523Y-125115295D02*
X91369523Y-125210533D01*
X91369523Y-125210533D02*
X91321904Y-125353390D01*
X91321904Y-125353390D02*
X90750476Y-125924819D01*
X90750476Y-125924819D02*
X91369523Y-125924819D01*
X117574819Y-150022857D02*
X117098628Y-150356190D01*
X117574819Y-150594285D02*
X116574819Y-150594285D01*
X116574819Y-150594285D02*
X116574819Y-150213333D01*
X116574819Y-150213333D02*
X116622438Y-150118095D01*
X116622438Y-150118095D02*
X116670057Y-150070476D01*
X116670057Y-150070476D02*
X116765295Y-150022857D01*
X116765295Y-150022857D02*
X116908152Y-150022857D01*
X116908152Y-150022857D02*
X117003390Y-150070476D01*
X117003390Y-150070476D02*
X117051009Y-150118095D01*
X117051009Y-150118095D02*
X117098628Y-150213333D01*
X117098628Y-150213333D02*
X117098628Y-150594285D01*
X116670057Y-149641904D02*
X116622438Y-149594285D01*
X116622438Y-149594285D02*
X116574819Y-149499047D01*
X116574819Y-149499047D02*
X116574819Y-149260952D01*
X116574819Y-149260952D02*
X116622438Y-149165714D01*
X116622438Y-149165714D02*
X116670057Y-149118095D01*
X116670057Y-149118095D02*
X116765295Y-149070476D01*
X116765295Y-149070476D02*
X116860533Y-149070476D01*
X116860533Y-149070476D02*
X117003390Y-149118095D01*
X117003390Y-149118095D02*
X117574819Y-149689523D01*
X117574819Y-149689523D02*
X117574819Y-149070476D01*
X116574819Y-148451428D02*
X116574819Y-148356190D01*
X116574819Y-148356190D02*
X116622438Y-148260952D01*
X116622438Y-148260952D02*
X116670057Y-148213333D01*
X116670057Y-148213333D02*
X116765295Y-148165714D01*
X116765295Y-148165714D02*
X116955771Y-148118095D01*
X116955771Y-148118095D02*
X117193866Y-148118095D01*
X117193866Y-148118095D02*
X117384342Y-148165714D01*
X117384342Y-148165714D02*
X117479580Y-148213333D01*
X117479580Y-148213333D02*
X117527200Y-148260952D01*
X117527200Y-148260952D02*
X117574819Y-148356190D01*
X117574819Y-148356190D02*
X117574819Y-148451428D01*
X117574819Y-148451428D02*
X117527200Y-148546666D01*
X117527200Y-148546666D02*
X117479580Y-148594285D01*
X117479580Y-148594285D02*
X117384342Y-148641904D01*
X117384342Y-148641904D02*
X117193866Y-148689523D01*
X117193866Y-148689523D02*
X116955771Y-148689523D01*
X116955771Y-148689523D02*
X116765295Y-148641904D01*
X116765295Y-148641904D02*
X116670057Y-148594285D01*
X116670057Y-148594285D02*
X116622438Y-148546666D01*
X116622438Y-148546666D02*
X116574819Y-148451428D01*
X101166666Y-46454819D02*
X101166666Y-47169104D01*
X101166666Y-47169104D02*
X101119047Y-47311961D01*
X101119047Y-47311961D02*
X101023809Y-47407200D01*
X101023809Y-47407200D02*
X100880952Y-47454819D01*
X100880952Y-47454819D02*
X100785714Y-47454819D01*
X101595238Y-46550057D02*
X101642857Y-46502438D01*
X101642857Y-46502438D02*
X101738095Y-46454819D01*
X101738095Y-46454819D02*
X101976190Y-46454819D01*
X101976190Y-46454819D02*
X102071428Y-46502438D01*
X102071428Y-46502438D02*
X102119047Y-46550057D01*
X102119047Y-46550057D02*
X102166666Y-46645295D01*
X102166666Y-46645295D02*
X102166666Y-46740533D01*
X102166666Y-46740533D02*
X102119047Y-46883390D01*
X102119047Y-46883390D02*
X101547619Y-47454819D01*
X101547619Y-47454819D02*
X102166666Y-47454819D01*
X73666666Y-46454819D02*
X73666666Y-47169104D01*
X73666666Y-47169104D02*
X73619047Y-47311961D01*
X73619047Y-47311961D02*
X73523809Y-47407200D01*
X73523809Y-47407200D02*
X73380952Y-47454819D01*
X73380952Y-47454819D02*
X73285714Y-47454819D01*
X74666666Y-47454819D02*
X74095238Y-47454819D01*
X74380952Y-47454819D02*
X74380952Y-46454819D01*
X74380952Y-46454819D02*
X74285714Y-46597676D01*
X74285714Y-46597676D02*
X74190476Y-46692914D01*
X74190476Y-46692914D02*
X74095238Y-46740533D01*
X111824819Y-136272857D02*
X111348628Y-136606190D01*
X111824819Y-136844285D02*
X110824819Y-136844285D01*
X110824819Y-136844285D02*
X110824819Y-136463333D01*
X110824819Y-136463333D02*
X110872438Y-136368095D01*
X110872438Y-136368095D02*
X110920057Y-136320476D01*
X110920057Y-136320476D02*
X111015295Y-136272857D01*
X111015295Y-136272857D02*
X111158152Y-136272857D01*
X111158152Y-136272857D02*
X111253390Y-136320476D01*
X111253390Y-136320476D02*
X111301009Y-136368095D01*
X111301009Y-136368095D02*
X111348628Y-136463333D01*
X111348628Y-136463333D02*
X111348628Y-136844285D01*
X111824819Y-135320476D02*
X111824819Y-135891904D01*
X111824819Y-135606190D02*
X110824819Y-135606190D01*
X110824819Y-135606190D02*
X110967676Y-135701428D01*
X110967676Y-135701428D02*
X111062914Y-135796666D01*
X111062914Y-135796666D02*
X111110533Y-135891904D01*
X111253390Y-134749047D02*
X111205771Y-134844285D01*
X111205771Y-134844285D02*
X111158152Y-134891904D01*
X111158152Y-134891904D02*
X111062914Y-134939523D01*
X111062914Y-134939523D02*
X111015295Y-134939523D01*
X111015295Y-134939523D02*
X110920057Y-134891904D01*
X110920057Y-134891904D02*
X110872438Y-134844285D01*
X110872438Y-134844285D02*
X110824819Y-134749047D01*
X110824819Y-134749047D02*
X110824819Y-134558571D01*
X110824819Y-134558571D02*
X110872438Y-134463333D01*
X110872438Y-134463333D02*
X110920057Y-134415714D01*
X110920057Y-134415714D02*
X111015295Y-134368095D01*
X111015295Y-134368095D02*
X111062914Y-134368095D01*
X111062914Y-134368095D02*
X111158152Y-134415714D01*
X111158152Y-134415714D02*
X111205771Y-134463333D01*
X111205771Y-134463333D02*
X111253390Y-134558571D01*
X111253390Y-134558571D02*
X111253390Y-134749047D01*
X111253390Y-134749047D02*
X111301009Y-134844285D01*
X111301009Y-134844285D02*
X111348628Y-134891904D01*
X111348628Y-134891904D02*
X111443866Y-134939523D01*
X111443866Y-134939523D02*
X111634342Y-134939523D01*
X111634342Y-134939523D02*
X111729580Y-134891904D01*
X111729580Y-134891904D02*
X111777200Y-134844285D01*
X111777200Y-134844285D02*
X111824819Y-134749047D01*
X111824819Y-134749047D02*
X111824819Y-134558571D01*
X111824819Y-134558571D02*
X111777200Y-134463333D01*
X111777200Y-134463333D02*
X111729580Y-134415714D01*
X111729580Y-134415714D02*
X111634342Y-134368095D01*
X111634342Y-134368095D02*
X111443866Y-134368095D01*
X111443866Y-134368095D02*
X111348628Y-134415714D01*
X111348628Y-134415714D02*
X111301009Y-134463333D01*
X111301009Y-134463333D02*
X111253390Y-134558571D01*
X118454819Y-98216666D02*
X117978628Y-98549999D01*
X118454819Y-98788094D02*
X117454819Y-98788094D01*
X117454819Y-98788094D02*
X117454819Y-98407142D01*
X117454819Y-98407142D02*
X117502438Y-98311904D01*
X117502438Y-98311904D02*
X117550057Y-98264285D01*
X117550057Y-98264285D02*
X117645295Y-98216666D01*
X117645295Y-98216666D02*
X117788152Y-98216666D01*
X117788152Y-98216666D02*
X117883390Y-98264285D01*
X117883390Y-98264285D02*
X117931009Y-98311904D01*
X117931009Y-98311904D02*
X117978628Y-98407142D01*
X117978628Y-98407142D02*
X117978628Y-98788094D01*
X117883390Y-97645237D02*
X117835771Y-97740475D01*
X117835771Y-97740475D02*
X117788152Y-97788094D01*
X117788152Y-97788094D02*
X117692914Y-97835713D01*
X117692914Y-97835713D02*
X117645295Y-97835713D01*
X117645295Y-97835713D02*
X117550057Y-97788094D01*
X117550057Y-97788094D02*
X117502438Y-97740475D01*
X117502438Y-97740475D02*
X117454819Y-97645237D01*
X117454819Y-97645237D02*
X117454819Y-97454761D01*
X117454819Y-97454761D02*
X117502438Y-97359523D01*
X117502438Y-97359523D02*
X117550057Y-97311904D01*
X117550057Y-97311904D02*
X117645295Y-97264285D01*
X117645295Y-97264285D02*
X117692914Y-97264285D01*
X117692914Y-97264285D02*
X117788152Y-97311904D01*
X117788152Y-97311904D02*
X117835771Y-97359523D01*
X117835771Y-97359523D02*
X117883390Y-97454761D01*
X117883390Y-97454761D02*
X117883390Y-97645237D01*
X117883390Y-97645237D02*
X117931009Y-97740475D01*
X117931009Y-97740475D02*
X117978628Y-97788094D01*
X117978628Y-97788094D02*
X118073866Y-97835713D01*
X118073866Y-97835713D02*
X118264342Y-97835713D01*
X118264342Y-97835713D02*
X118359580Y-97788094D01*
X118359580Y-97788094D02*
X118407200Y-97740475D01*
X118407200Y-97740475D02*
X118454819Y-97645237D01*
X118454819Y-97645237D02*
X118454819Y-97454761D01*
X118454819Y-97454761D02*
X118407200Y-97359523D01*
X118407200Y-97359523D02*
X118359580Y-97311904D01*
X118359580Y-97311904D02*
X118264342Y-97264285D01*
X118264342Y-97264285D02*
X118073866Y-97264285D01*
X118073866Y-97264285D02*
X117978628Y-97311904D01*
X117978628Y-97311904D02*
X117931009Y-97359523D01*
X117931009Y-97359523D02*
X117883390Y-97454761D01*
X90270644Y-110644766D02*
X89937311Y-110168575D01*
X89699216Y-110644766D02*
X89699216Y-109644766D01*
X89699216Y-109644766D02*
X90080168Y-109644766D01*
X90080168Y-109644766D02*
X90175406Y-109692385D01*
X90175406Y-109692385D02*
X90223025Y-109740004D01*
X90223025Y-109740004D02*
X90270644Y-109835242D01*
X90270644Y-109835242D02*
X90270644Y-109978099D01*
X90270644Y-109978099D02*
X90223025Y-110073337D01*
X90223025Y-110073337D02*
X90175406Y-110120956D01*
X90175406Y-110120956D02*
X90080168Y-110168575D01*
X90080168Y-110168575D02*
X89699216Y-110168575D01*
X90603978Y-109644766D02*
X91223025Y-109644766D01*
X91223025Y-109644766D02*
X90889692Y-110025718D01*
X90889692Y-110025718D02*
X91032549Y-110025718D01*
X91032549Y-110025718D02*
X91127787Y-110073337D01*
X91127787Y-110073337D02*
X91175406Y-110120956D01*
X91175406Y-110120956D02*
X91223025Y-110216194D01*
X91223025Y-110216194D02*
X91223025Y-110454289D01*
X91223025Y-110454289D02*
X91175406Y-110549527D01*
X91175406Y-110549527D02*
X91127787Y-110597147D01*
X91127787Y-110597147D02*
X91032549Y-110644766D01*
X91032549Y-110644766D02*
X90746835Y-110644766D01*
X90746835Y-110644766D02*
X90651597Y-110597147D01*
X90651597Y-110597147D02*
X90603978Y-110549527D01*
X105704819Y-136392857D02*
X105228628Y-136726190D01*
X105704819Y-136964285D02*
X104704819Y-136964285D01*
X104704819Y-136964285D02*
X104704819Y-136583333D01*
X104704819Y-136583333D02*
X104752438Y-136488095D01*
X104752438Y-136488095D02*
X104800057Y-136440476D01*
X104800057Y-136440476D02*
X104895295Y-136392857D01*
X104895295Y-136392857D02*
X105038152Y-136392857D01*
X105038152Y-136392857D02*
X105133390Y-136440476D01*
X105133390Y-136440476D02*
X105181009Y-136488095D01*
X105181009Y-136488095D02*
X105228628Y-136583333D01*
X105228628Y-136583333D02*
X105228628Y-136964285D01*
X105704819Y-135440476D02*
X105704819Y-136011904D01*
X105704819Y-135726190D02*
X104704819Y-135726190D01*
X104704819Y-135726190D02*
X104847676Y-135821428D01*
X104847676Y-135821428D02*
X104942914Y-135916666D01*
X104942914Y-135916666D02*
X104990533Y-136011904D01*
X104704819Y-135107142D02*
X104704819Y-134440476D01*
X104704819Y-134440476D02*
X105704819Y-134869047D01*
X90253333Y-105384819D02*
X89920000Y-104908628D01*
X89681905Y-105384819D02*
X89681905Y-104384819D01*
X89681905Y-104384819D02*
X90062857Y-104384819D01*
X90062857Y-104384819D02*
X90158095Y-104432438D01*
X90158095Y-104432438D02*
X90205714Y-104480057D01*
X90205714Y-104480057D02*
X90253333Y-104575295D01*
X90253333Y-104575295D02*
X90253333Y-104718152D01*
X90253333Y-104718152D02*
X90205714Y-104813390D01*
X90205714Y-104813390D02*
X90158095Y-104861009D01*
X90158095Y-104861009D02*
X90062857Y-104908628D01*
X90062857Y-104908628D02*
X89681905Y-104908628D01*
X90634286Y-104480057D02*
X90681905Y-104432438D01*
X90681905Y-104432438D02*
X90777143Y-104384819D01*
X90777143Y-104384819D02*
X91015238Y-104384819D01*
X91015238Y-104384819D02*
X91110476Y-104432438D01*
X91110476Y-104432438D02*
X91158095Y-104480057D01*
X91158095Y-104480057D02*
X91205714Y-104575295D01*
X91205714Y-104575295D02*
X91205714Y-104670533D01*
X91205714Y-104670533D02*
X91158095Y-104813390D01*
X91158095Y-104813390D02*
X90586667Y-105384819D01*
X90586667Y-105384819D02*
X91205714Y-105384819D01*
X123244291Y-98752567D02*
X122768100Y-99085900D01*
X123244291Y-99323995D02*
X122244291Y-99323995D01*
X122244291Y-99323995D02*
X122244291Y-98943043D01*
X122244291Y-98943043D02*
X122291910Y-98847805D01*
X122291910Y-98847805D02*
X122339529Y-98800186D01*
X122339529Y-98800186D02*
X122434767Y-98752567D01*
X122434767Y-98752567D02*
X122577624Y-98752567D01*
X122577624Y-98752567D02*
X122672862Y-98800186D01*
X122672862Y-98800186D02*
X122720481Y-98847805D01*
X122720481Y-98847805D02*
X122768100Y-98943043D01*
X122768100Y-98943043D02*
X122768100Y-99323995D01*
X123244291Y-97800186D02*
X123244291Y-98371614D01*
X123244291Y-98085900D02*
X122244291Y-98085900D01*
X122244291Y-98085900D02*
X122387148Y-98181138D01*
X122387148Y-98181138D02*
X122482386Y-98276376D01*
X122482386Y-98276376D02*
X122530005Y-98371614D01*
X122244291Y-97181138D02*
X122244291Y-97085900D01*
X122244291Y-97085900D02*
X122291910Y-96990662D01*
X122291910Y-96990662D02*
X122339529Y-96943043D01*
X122339529Y-96943043D02*
X122434767Y-96895424D01*
X122434767Y-96895424D02*
X122625243Y-96847805D01*
X122625243Y-96847805D02*
X122863338Y-96847805D01*
X122863338Y-96847805D02*
X123053814Y-96895424D01*
X123053814Y-96895424D02*
X123149052Y-96943043D01*
X123149052Y-96943043D02*
X123196672Y-96990662D01*
X123196672Y-96990662D02*
X123244291Y-97085900D01*
X123244291Y-97085900D02*
X123244291Y-97181138D01*
X123244291Y-97181138D02*
X123196672Y-97276376D01*
X123196672Y-97276376D02*
X123149052Y-97323995D01*
X123149052Y-97323995D02*
X123053814Y-97371614D01*
X123053814Y-97371614D02*
X122863338Y-97419233D01*
X122863338Y-97419233D02*
X122625243Y-97419233D01*
X122625243Y-97419233D02*
X122434767Y-97371614D01*
X122434767Y-97371614D02*
X122339529Y-97323995D01*
X122339529Y-97323995D02*
X122291910Y-97276376D01*
X122291910Y-97276376D02*
X122244291Y-97181138D01*
X117583333Y-128909580D02*
X117535714Y-128957200D01*
X117535714Y-128957200D02*
X117392857Y-129004819D01*
X117392857Y-129004819D02*
X117297619Y-129004819D01*
X117297619Y-129004819D02*
X117154762Y-128957200D01*
X117154762Y-128957200D02*
X117059524Y-128861961D01*
X117059524Y-128861961D02*
X117011905Y-128766723D01*
X117011905Y-128766723D02*
X116964286Y-128576247D01*
X116964286Y-128576247D02*
X116964286Y-128433390D01*
X116964286Y-128433390D02*
X117011905Y-128242914D01*
X117011905Y-128242914D02*
X117059524Y-128147676D01*
X117059524Y-128147676D02*
X117154762Y-128052438D01*
X117154762Y-128052438D02*
X117297619Y-128004819D01*
X117297619Y-128004819D02*
X117392857Y-128004819D01*
X117392857Y-128004819D02*
X117535714Y-128052438D01*
X117535714Y-128052438D02*
X117583333Y-128100057D01*
X118440476Y-128338152D02*
X118440476Y-129004819D01*
X118202381Y-127957200D02*
X117964286Y-128671485D01*
X117964286Y-128671485D02*
X118583333Y-128671485D01*
X105928095Y-105424819D02*
X105928095Y-106234342D01*
X105928095Y-106234342D02*
X105975714Y-106329580D01*
X105975714Y-106329580D02*
X106023333Y-106377200D01*
X106023333Y-106377200D02*
X106118571Y-106424819D01*
X106118571Y-106424819D02*
X106309047Y-106424819D01*
X106309047Y-106424819D02*
X106404285Y-106377200D01*
X106404285Y-106377200D02*
X106451904Y-106329580D01*
X106451904Y-106329580D02*
X106499523Y-106234342D01*
X106499523Y-106234342D02*
X106499523Y-105424819D01*
X107499523Y-106424819D02*
X106928095Y-106424819D01*
X107213809Y-106424819D02*
X107213809Y-105424819D01*
X107213809Y-105424819D02*
X107118571Y-105567676D01*
X107118571Y-105567676D02*
X107023333Y-105662914D01*
X107023333Y-105662914D02*
X106928095Y-105710533D01*
D10*
X126916667Y-139959800D02*
X127059524Y-140007419D01*
X127059524Y-140007419D02*
X127297619Y-140007419D01*
X127297619Y-140007419D02*
X127392857Y-139959800D01*
X127392857Y-139959800D02*
X127440476Y-139912180D01*
X127440476Y-139912180D02*
X127488095Y-139816942D01*
X127488095Y-139816942D02*
X127488095Y-139721704D01*
X127488095Y-139721704D02*
X127440476Y-139626466D01*
X127440476Y-139626466D02*
X127392857Y-139578847D01*
X127392857Y-139578847D02*
X127297619Y-139531228D01*
X127297619Y-139531228D02*
X127107143Y-139483609D01*
X127107143Y-139483609D02*
X127011905Y-139435990D01*
X127011905Y-139435990D02*
X126964286Y-139388371D01*
X126964286Y-139388371D02*
X126916667Y-139293133D01*
X126916667Y-139293133D02*
X126916667Y-139197895D01*
X126916667Y-139197895D02*
X126964286Y-139102657D01*
X126964286Y-139102657D02*
X127011905Y-139055038D01*
X127011905Y-139055038D02*
X127107143Y-139007419D01*
X127107143Y-139007419D02*
X127345238Y-139007419D01*
X127345238Y-139007419D02*
X127488095Y-139055038D01*
X127821429Y-139007419D02*
X128059524Y-140007419D01*
X128059524Y-140007419D02*
X128250000Y-139293133D01*
X128250000Y-139293133D02*
X128440476Y-140007419D01*
X128440476Y-140007419D02*
X128678572Y-139007419D01*
X129583333Y-140007419D02*
X129011905Y-140007419D01*
X129297619Y-140007419D02*
X129297619Y-139007419D01*
X129297619Y-139007419D02*
X129202381Y-139150276D01*
X129202381Y-139150276D02*
X129107143Y-139245514D01*
X129107143Y-139245514D02*
X129011905Y-139293133D01*
D11*
X125333333Y-105659580D02*
X125285714Y-105707200D01*
X125285714Y-105707200D02*
X125142857Y-105754819D01*
X125142857Y-105754819D02*
X125047619Y-105754819D01*
X125047619Y-105754819D02*
X124904762Y-105707200D01*
X124904762Y-105707200D02*
X124809524Y-105611961D01*
X124809524Y-105611961D02*
X124761905Y-105516723D01*
X124761905Y-105516723D02*
X124714286Y-105326247D01*
X124714286Y-105326247D02*
X124714286Y-105183390D01*
X124714286Y-105183390D02*
X124761905Y-104992914D01*
X124761905Y-104992914D02*
X124809524Y-104897676D01*
X124809524Y-104897676D02*
X124904762Y-104802438D01*
X124904762Y-104802438D02*
X125047619Y-104754819D01*
X125047619Y-104754819D02*
X125142857Y-104754819D01*
X125142857Y-104754819D02*
X125285714Y-104802438D01*
X125285714Y-104802438D02*
X125333333Y-104850057D01*
X126285714Y-105754819D02*
X125714286Y-105754819D01*
X126000000Y-105754819D02*
X126000000Y-104754819D01*
X126000000Y-104754819D02*
X125904762Y-104897676D01*
X125904762Y-104897676D02*
X125809524Y-104992914D01*
X125809524Y-104992914D02*
X125714286Y-105040533D01*
X90333333Y-115384819D02*
X90000000Y-114908628D01*
X89761905Y-115384819D02*
X89761905Y-114384819D01*
X89761905Y-114384819D02*
X90142857Y-114384819D01*
X90142857Y-114384819D02*
X90238095Y-114432438D01*
X90238095Y-114432438D02*
X90285714Y-114480057D01*
X90285714Y-114480057D02*
X90333333Y-114575295D01*
X90333333Y-114575295D02*
X90333333Y-114718152D01*
X90333333Y-114718152D02*
X90285714Y-114813390D01*
X90285714Y-114813390D02*
X90238095Y-114861009D01*
X90238095Y-114861009D02*
X90142857Y-114908628D01*
X90142857Y-114908628D02*
X89761905Y-114908628D01*
X91190476Y-114718152D02*
X91190476Y-115384819D01*
X90952381Y-114337200D02*
X90714286Y-115051485D01*
X90714286Y-115051485D02*
X91333333Y-115051485D01*
X124857142Y-110384819D02*
X124523809Y-109908628D01*
X124285714Y-110384819D02*
X124285714Y-109384819D01*
X124285714Y-109384819D02*
X124666666Y-109384819D01*
X124666666Y-109384819D02*
X124761904Y-109432438D01*
X124761904Y-109432438D02*
X124809523Y-109480057D01*
X124809523Y-109480057D02*
X124857142Y-109575295D01*
X124857142Y-109575295D02*
X124857142Y-109718152D01*
X124857142Y-109718152D02*
X124809523Y-109813390D01*
X124809523Y-109813390D02*
X124761904Y-109861009D01*
X124761904Y-109861009D02*
X124666666Y-109908628D01*
X124666666Y-109908628D02*
X124285714Y-109908628D01*
X125809523Y-110384819D02*
X125238095Y-110384819D01*
X125523809Y-110384819D02*
X125523809Y-109384819D01*
X125523809Y-109384819D02*
X125428571Y-109527676D01*
X125428571Y-109527676D02*
X125333333Y-109622914D01*
X125333333Y-109622914D02*
X125238095Y-109670533D01*
X126761904Y-110384819D02*
X126190476Y-110384819D01*
X126476190Y-110384819D02*
X126476190Y-109384819D01*
X126476190Y-109384819D02*
X126380952Y-109527676D01*
X126380952Y-109527676D02*
X126285714Y-109622914D01*
X126285714Y-109622914D02*
X126190476Y-109670533D01*
X74294819Y-105435238D02*
X73818628Y-105768571D01*
X74294819Y-106006666D02*
X73294819Y-106006666D01*
X73294819Y-106006666D02*
X73294819Y-105625714D01*
X73294819Y-105625714D02*
X73342438Y-105530476D01*
X73342438Y-105530476D02*
X73390057Y-105482857D01*
X73390057Y-105482857D02*
X73485295Y-105435238D01*
X73485295Y-105435238D02*
X73628152Y-105435238D01*
X73628152Y-105435238D02*
X73723390Y-105482857D01*
X73723390Y-105482857D02*
X73771009Y-105530476D01*
X73771009Y-105530476D02*
X73818628Y-105625714D01*
X73818628Y-105625714D02*
X73818628Y-106006666D01*
X73294819Y-105149523D02*
X74294819Y-104816190D01*
X74294819Y-104816190D02*
X73294819Y-104482857D01*
X74294819Y-103625714D02*
X74294819Y-104197142D01*
X74294819Y-103911428D02*
X73294819Y-103911428D01*
X73294819Y-103911428D02*
X73437676Y-104006666D01*
X73437676Y-104006666D02*
X73532914Y-104101904D01*
X73532914Y-104101904D02*
X73580533Y-104197142D01*
X90253333Y-100384819D02*
X89920000Y-99908628D01*
X89681905Y-100384819D02*
X89681905Y-99384819D01*
X89681905Y-99384819D02*
X90062857Y-99384819D01*
X90062857Y-99384819D02*
X90158095Y-99432438D01*
X90158095Y-99432438D02*
X90205714Y-99480057D01*
X90205714Y-99480057D02*
X90253333Y-99575295D01*
X90253333Y-99575295D02*
X90253333Y-99718152D01*
X90253333Y-99718152D02*
X90205714Y-99813390D01*
X90205714Y-99813390D02*
X90158095Y-99861009D01*
X90158095Y-99861009D02*
X90062857Y-99908628D01*
X90062857Y-99908628D02*
X89681905Y-99908628D01*
X91205714Y-100384819D02*
X90634286Y-100384819D01*
X90920000Y-100384819D02*
X90920000Y-99384819D01*
X90920000Y-99384819D02*
X90824762Y-99527676D01*
X90824762Y-99527676D02*
X90729524Y-99622914D01*
X90729524Y-99622914D02*
X90634286Y-99670533D01*
X96720115Y-93319461D02*
X96386782Y-92843270D01*
X96148687Y-93319461D02*
X96148687Y-92319461D01*
X96148687Y-92319461D02*
X96529639Y-92319461D01*
X96529639Y-92319461D02*
X96624877Y-92367080D01*
X96624877Y-92367080D02*
X96672496Y-92414699D01*
X96672496Y-92414699D02*
X96720115Y-92509937D01*
X96720115Y-92509937D02*
X96720115Y-92652794D01*
X96720115Y-92652794D02*
X96672496Y-92748032D01*
X96672496Y-92748032D02*
X96624877Y-92795651D01*
X96624877Y-92795651D02*
X96529639Y-92843270D01*
X96529639Y-92843270D02*
X96148687Y-92843270D01*
X97577258Y-92319461D02*
X97386782Y-92319461D01*
X97386782Y-92319461D02*
X97291544Y-92367080D01*
X97291544Y-92367080D02*
X97243925Y-92414699D01*
X97243925Y-92414699D02*
X97148687Y-92557556D01*
X97148687Y-92557556D02*
X97101068Y-92748032D01*
X97101068Y-92748032D02*
X97101068Y-93128984D01*
X97101068Y-93128984D02*
X97148687Y-93224222D01*
X97148687Y-93224222D02*
X97196306Y-93271842D01*
X97196306Y-93271842D02*
X97291544Y-93319461D01*
X97291544Y-93319461D02*
X97482020Y-93319461D01*
X97482020Y-93319461D02*
X97577258Y-93271842D01*
X97577258Y-93271842D02*
X97624877Y-93224222D01*
X97624877Y-93224222D02*
X97672496Y-93128984D01*
X97672496Y-93128984D02*
X97672496Y-92890889D01*
X97672496Y-92890889D02*
X97624877Y-92795651D01*
X97624877Y-92795651D02*
X97577258Y-92748032D01*
X97577258Y-92748032D02*
X97482020Y-92700413D01*
X97482020Y-92700413D02*
X97291544Y-92700413D01*
X97291544Y-92700413D02*
X97196306Y-92748032D01*
X97196306Y-92748032D02*
X97148687Y-92795651D01*
X97148687Y-92795651D02*
X97101068Y-92890889D01*
X77584819Y-136022857D02*
X77108628Y-136356190D01*
X77584819Y-136594285D02*
X76584819Y-136594285D01*
X76584819Y-136594285D02*
X76584819Y-136213333D01*
X76584819Y-136213333D02*
X76632438Y-136118095D01*
X76632438Y-136118095D02*
X76680057Y-136070476D01*
X76680057Y-136070476D02*
X76775295Y-136022857D01*
X76775295Y-136022857D02*
X76918152Y-136022857D01*
X76918152Y-136022857D02*
X77013390Y-136070476D01*
X77013390Y-136070476D02*
X77061009Y-136118095D01*
X77061009Y-136118095D02*
X77108628Y-136213333D01*
X77108628Y-136213333D02*
X77108628Y-136594285D01*
X77584819Y-135070476D02*
X77584819Y-135641904D01*
X77584819Y-135356190D02*
X76584819Y-135356190D01*
X76584819Y-135356190D02*
X76727676Y-135451428D01*
X76727676Y-135451428D02*
X76822914Y-135546666D01*
X76822914Y-135546666D02*
X76870533Y-135641904D01*
X77584819Y-134594285D02*
X77584819Y-134403809D01*
X77584819Y-134403809D02*
X77537200Y-134308571D01*
X77537200Y-134308571D02*
X77489580Y-134260952D01*
X77489580Y-134260952D02*
X77346723Y-134165714D01*
X77346723Y-134165714D02*
X77156247Y-134118095D01*
X77156247Y-134118095D02*
X76775295Y-134118095D01*
X76775295Y-134118095D02*
X76680057Y-134165714D01*
X76680057Y-134165714D02*
X76632438Y-134213333D01*
X76632438Y-134213333D02*
X76584819Y-134308571D01*
X76584819Y-134308571D02*
X76584819Y-134499047D01*
X76584819Y-134499047D02*
X76632438Y-134594285D01*
X76632438Y-134594285D02*
X76680057Y-134641904D01*
X76680057Y-134641904D02*
X76775295Y-134689523D01*
X76775295Y-134689523D02*
X77013390Y-134689523D01*
X77013390Y-134689523D02*
X77108628Y-134641904D01*
X77108628Y-134641904D02*
X77156247Y-134594285D01*
X77156247Y-134594285D02*
X77203866Y-134499047D01*
X77203866Y-134499047D02*
X77203866Y-134308571D01*
X77203866Y-134308571D02*
X77156247Y-134213333D01*
X77156247Y-134213333D02*
X77108628Y-134165714D01*
X77108628Y-134165714D02*
X77013390Y-134118095D01*
X117583333Y-135159580D02*
X117535714Y-135207200D01*
X117535714Y-135207200D02*
X117392857Y-135254819D01*
X117392857Y-135254819D02*
X117297619Y-135254819D01*
X117297619Y-135254819D02*
X117154762Y-135207200D01*
X117154762Y-135207200D02*
X117059524Y-135111961D01*
X117059524Y-135111961D02*
X117011905Y-135016723D01*
X117011905Y-135016723D02*
X116964286Y-134826247D01*
X116964286Y-134826247D02*
X116964286Y-134683390D01*
X116964286Y-134683390D02*
X117011905Y-134492914D01*
X117011905Y-134492914D02*
X117059524Y-134397676D01*
X117059524Y-134397676D02*
X117154762Y-134302438D01*
X117154762Y-134302438D02*
X117297619Y-134254819D01*
X117297619Y-134254819D02*
X117392857Y-134254819D01*
X117392857Y-134254819D02*
X117535714Y-134302438D01*
X117535714Y-134302438D02*
X117583333Y-134350057D01*
X117916667Y-134254819D02*
X118535714Y-134254819D01*
X118535714Y-134254819D02*
X118202381Y-134635771D01*
X118202381Y-134635771D02*
X118345238Y-134635771D01*
X118345238Y-134635771D02*
X118440476Y-134683390D01*
X118440476Y-134683390D02*
X118488095Y-134731009D01*
X118488095Y-134731009D02*
X118535714Y-134826247D01*
X118535714Y-134826247D02*
X118535714Y-135064342D01*
X118535714Y-135064342D02*
X118488095Y-135159580D01*
X118488095Y-135159580D02*
X118440476Y-135207200D01*
X118440476Y-135207200D02*
X118345238Y-135254819D01*
X118345238Y-135254819D02*
X118059524Y-135254819D01*
X118059524Y-135254819D02*
X117964286Y-135207200D01*
X117964286Y-135207200D02*
X117916667Y-135159580D01*
X113829130Y-112663381D02*
X113352939Y-112996714D01*
X113829130Y-113234809D02*
X112829130Y-113234809D01*
X112829130Y-113234809D02*
X112829130Y-112853857D01*
X112829130Y-112853857D02*
X112876749Y-112758619D01*
X112876749Y-112758619D02*
X112924368Y-112711000D01*
X112924368Y-112711000D02*
X113019606Y-112663381D01*
X113019606Y-112663381D02*
X113162463Y-112663381D01*
X113162463Y-112663381D02*
X113257701Y-112711000D01*
X113257701Y-112711000D02*
X113305320Y-112758619D01*
X113305320Y-112758619D02*
X113352939Y-112853857D01*
X113352939Y-112853857D02*
X113352939Y-113234809D01*
X113829130Y-111711000D02*
X113829130Y-112282428D01*
X113829130Y-111996714D02*
X112829130Y-111996714D01*
X112829130Y-111996714D02*
X112971987Y-112091952D01*
X112971987Y-112091952D02*
X113067225Y-112187190D01*
X113067225Y-112187190D02*
X113114844Y-112282428D01*
X112924368Y-111330047D02*
X112876749Y-111282428D01*
X112876749Y-111282428D02*
X112829130Y-111187190D01*
X112829130Y-111187190D02*
X112829130Y-110949095D01*
X112829130Y-110949095D02*
X112876749Y-110853857D01*
X112876749Y-110853857D02*
X112924368Y-110806238D01*
X112924368Y-110806238D02*
X113019606Y-110758619D01*
X113019606Y-110758619D02*
X113114844Y-110758619D01*
X113114844Y-110758619D02*
X113257701Y-110806238D01*
X113257701Y-110806238D02*
X113829130Y-111377666D01*
X113829130Y-111377666D02*
X113829130Y-110758619D01*
X124874469Y-115183753D02*
X124541136Y-114707562D01*
X124303041Y-115183753D02*
X124303041Y-114183753D01*
X124303041Y-114183753D02*
X124683993Y-114183753D01*
X124683993Y-114183753D02*
X124779231Y-114231372D01*
X124779231Y-114231372D02*
X124826850Y-114278991D01*
X124826850Y-114278991D02*
X124874469Y-114374229D01*
X124874469Y-114374229D02*
X124874469Y-114517086D01*
X124874469Y-114517086D02*
X124826850Y-114612324D01*
X124826850Y-114612324D02*
X124779231Y-114659943D01*
X124779231Y-114659943D02*
X124683993Y-114707562D01*
X124683993Y-114707562D02*
X124303041Y-114707562D01*
X125826850Y-115183753D02*
X125255422Y-115183753D01*
X125541136Y-115183753D02*
X125541136Y-114183753D01*
X125541136Y-114183753D02*
X125445898Y-114326610D01*
X125445898Y-114326610D02*
X125350660Y-114421848D01*
X125350660Y-114421848D02*
X125255422Y-114469467D01*
X126160184Y-114183753D02*
X126779231Y-114183753D01*
X126779231Y-114183753D02*
X126445898Y-114564705D01*
X126445898Y-114564705D02*
X126588755Y-114564705D01*
X126588755Y-114564705D02*
X126683993Y-114612324D01*
X126683993Y-114612324D02*
X126731612Y-114659943D01*
X126731612Y-114659943D02*
X126779231Y-114755181D01*
X126779231Y-114755181D02*
X126779231Y-114993276D01*
X126779231Y-114993276D02*
X126731612Y-115088514D01*
X126731612Y-115088514D02*
X126683993Y-115136134D01*
X126683993Y-115136134D02*
X126588755Y-115183753D01*
X126588755Y-115183753D02*
X126303041Y-115183753D01*
X126303041Y-115183753D02*
X126207803Y-115136134D01*
X126207803Y-115136134D02*
X126160184Y-115088514D01*
X111945521Y-149872592D02*
X111469330Y-150205925D01*
X111945521Y-150444020D02*
X110945521Y-150444020D01*
X110945521Y-150444020D02*
X110945521Y-150063068D01*
X110945521Y-150063068D02*
X110993140Y-149967830D01*
X110993140Y-149967830D02*
X111040759Y-149920211D01*
X111040759Y-149920211D02*
X111135997Y-149872592D01*
X111135997Y-149872592D02*
X111278854Y-149872592D01*
X111278854Y-149872592D02*
X111374092Y-149920211D01*
X111374092Y-149920211D02*
X111421711Y-149967830D01*
X111421711Y-149967830D02*
X111469330Y-150063068D01*
X111469330Y-150063068D02*
X111469330Y-150444020D01*
X111945521Y-148920211D02*
X111945521Y-149491639D01*
X111945521Y-149205925D02*
X110945521Y-149205925D01*
X110945521Y-149205925D02*
X111088378Y-149301163D01*
X111088378Y-149301163D02*
X111183616Y-149396401D01*
X111183616Y-149396401D02*
X111231235Y-149491639D01*
X110945521Y-148063068D02*
X110945521Y-148253544D01*
X110945521Y-148253544D02*
X110993140Y-148348782D01*
X110993140Y-148348782D02*
X111040759Y-148396401D01*
X111040759Y-148396401D02*
X111183616Y-148491639D01*
X111183616Y-148491639D02*
X111374092Y-148539258D01*
X111374092Y-148539258D02*
X111755044Y-148539258D01*
X111755044Y-148539258D02*
X111850282Y-148491639D01*
X111850282Y-148491639D02*
X111897902Y-148444020D01*
X111897902Y-148444020D02*
X111945521Y-148348782D01*
X111945521Y-148348782D02*
X111945521Y-148158306D01*
X111945521Y-148158306D02*
X111897902Y-148063068D01*
X111897902Y-148063068D02*
X111850282Y-148015449D01*
X111850282Y-148015449D02*
X111755044Y-147967830D01*
X111755044Y-147967830D02*
X111516949Y-147967830D01*
X111516949Y-147967830D02*
X111421711Y-148015449D01*
X111421711Y-148015449D02*
X111374092Y-148063068D01*
X111374092Y-148063068D02*
X111326473Y-148158306D01*
X111326473Y-148158306D02*
X111326473Y-148348782D01*
X111326473Y-148348782D02*
X111374092Y-148444020D01*
X111374092Y-148444020D02*
X111421711Y-148491639D01*
X111421711Y-148491639D02*
X111516949Y-148539258D01*
X123074819Y-150022857D02*
X122598628Y-150356190D01*
X123074819Y-150594285D02*
X122074819Y-150594285D01*
X122074819Y-150594285D02*
X122074819Y-150213333D01*
X122074819Y-150213333D02*
X122122438Y-150118095D01*
X122122438Y-150118095D02*
X122170057Y-150070476D01*
X122170057Y-150070476D02*
X122265295Y-150022857D01*
X122265295Y-150022857D02*
X122408152Y-150022857D01*
X122408152Y-150022857D02*
X122503390Y-150070476D01*
X122503390Y-150070476D02*
X122551009Y-150118095D01*
X122551009Y-150118095D02*
X122598628Y-150213333D01*
X122598628Y-150213333D02*
X122598628Y-150594285D01*
X122170057Y-149641904D02*
X122122438Y-149594285D01*
X122122438Y-149594285D02*
X122074819Y-149499047D01*
X122074819Y-149499047D02*
X122074819Y-149260952D01*
X122074819Y-149260952D02*
X122122438Y-149165714D01*
X122122438Y-149165714D02*
X122170057Y-149118095D01*
X122170057Y-149118095D02*
X122265295Y-149070476D01*
X122265295Y-149070476D02*
X122360533Y-149070476D01*
X122360533Y-149070476D02*
X122503390Y-149118095D01*
X122503390Y-149118095D02*
X123074819Y-149689523D01*
X123074819Y-149689523D02*
X123074819Y-149070476D01*
X123074819Y-148118095D02*
X123074819Y-148689523D01*
X123074819Y-148403809D02*
X122074819Y-148403809D01*
X122074819Y-148403809D02*
X122217676Y-148499047D01*
X122217676Y-148499047D02*
X122312914Y-148594285D01*
X122312914Y-148594285D02*
X122360533Y-148689523D01*
X82333333Y-93454819D02*
X82000000Y-92978628D01*
X81761905Y-93454819D02*
X81761905Y-92454819D01*
X81761905Y-92454819D02*
X82142857Y-92454819D01*
X82142857Y-92454819D02*
X82238095Y-92502438D01*
X82238095Y-92502438D02*
X82285714Y-92550057D01*
X82285714Y-92550057D02*
X82333333Y-92645295D01*
X82333333Y-92645295D02*
X82333333Y-92788152D01*
X82333333Y-92788152D02*
X82285714Y-92883390D01*
X82285714Y-92883390D02*
X82238095Y-92931009D01*
X82238095Y-92931009D02*
X82142857Y-92978628D01*
X82142857Y-92978628D02*
X81761905Y-92978628D01*
X83238095Y-92454819D02*
X82761905Y-92454819D01*
X82761905Y-92454819D02*
X82714286Y-92931009D01*
X82714286Y-92931009D02*
X82761905Y-92883390D01*
X82761905Y-92883390D02*
X82857143Y-92835771D01*
X82857143Y-92835771D02*
X83095238Y-92835771D01*
X83095238Y-92835771D02*
X83190476Y-92883390D01*
X83190476Y-92883390D02*
X83238095Y-92931009D01*
X83238095Y-92931009D02*
X83285714Y-93026247D01*
X83285714Y-93026247D02*
X83285714Y-93264342D01*
X83285714Y-93264342D02*
X83238095Y-93359580D01*
X83238095Y-93359580D02*
X83190476Y-93407200D01*
X83190476Y-93407200D02*
X83095238Y-93454819D01*
X83095238Y-93454819D02*
X82857143Y-93454819D01*
X82857143Y-93454819D02*
X82761905Y-93407200D01*
X82761905Y-93407200D02*
X82714286Y-93359580D01*
X113704819Y-98136666D02*
X113228628Y-98469999D01*
X113704819Y-98708094D02*
X112704819Y-98708094D01*
X112704819Y-98708094D02*
X112704819Y-98327142D01*
X112704819Y-98327142D02*
X112752438Y-98231904D01*
X112752438Y-98231904D02*
X112800057Y-98184285D01*
X112800057Y-98184285D02*
X112895295Y-98136666D01*
X112895295Y-98136666D02*
X113038152Y-98136666D01*
X113038152Y-98136666D02*
X113133390Y-98184285D01*
X113133390Y-98184285D02*
X113181009Y-98231904D01*
X113181009Y-98231904D02*
X113228628Y-98327142D01*
X113228628Y-98327142D02*
X113228628Y-98708094D01*
X113704819Y-97660475D02*
X113704819Y-97469999D01*
X113704819Y-97469999D02*
X113657200Y-97374761D01*
X113657200Y-97374761D02*
X113609580Y-97327142D01*
X113609580Y-97327142D02*
X113466723Y-97231904D01*
X113466723Y-97231904D02*
X113276247Y-97184285D01*
X113276247Y-97184285D02*
X112895295Y-97184285D01*
X112895295Y-97184285D02*
X112800057Y-97231904D01*
X112800057Y-97231904D02*
X112752438Y-97279523D01*
X112752438Y-97279523D02*
X112704819Y-97374761D01*
X112704819Y-97374761D02*
X112704819Y-97565237D01*
X112704819Y-97565237D02*
X112752438Y-97660475D01*
X112752438Y-97660475D02*
X112800057Y-97708094D01*
X112800057Y-97708094D02*
X112895295Y-97755713D01*
X112895295Y-97755713D02*
X113133390Y-97755713D01*
X113133390Y-97755713D02*
X113228628Y-97708094D01*
X113228628Y-97708094D02*
X113276247Y-97660475D01*
X113276247Y-97660475D02*
X113323866Y-97565237D01*
X113323866Y-97565237D02*
X113323866Y-97374761D01*
X113323866Y-97374761D02*
X113276247Y-97279523D01*
X113276247Y-97279523D02*
X113228628Y-97231904D01*
X113228628Y-97231904D02*
X113133390Y-97184285D01*
X90253333Y-120254819D02*
X89920000Y-119778628D01*
X89681905Y-120254819D02*
X89681905Y-119254819D01*
X89681905Y-119254819D02*
X90062857Y-119254819D01*
X90062857Y-119254819D02*
X90158095Y-119302438D01*
X90158095Y-119302438D02*
X90205714Y-119350057D01*
X90205714Y-119350057D02*
X90253333Y-119445295D01*
X90253333Y-119445295D02*
X90253333Y-119588152D01*
X90253333Y-119588152D02*
X90205714Y-119683390D01*
X90205714Y-119683390D02*
X90158095Y-119731009D01*
X90158095Y-119731009D02*
X90062857Y-119778628D01*
X90062857Y-119778628D02*
X89681905Y-119778628D01*
X90586667Y-119254819D02*
X91253333Y-119254819D01*
X91253333Y-119254819D02*
X90824762Y-120254819D01*
X105704819Y-150392857D02*
X105228628Y-150726190D01*
X105704819Y-150964285D02*
X104704819Y-150964285D01*
X104704819Y-150964285D02*
X104704819Y-150583333D01*
X104704819Y-150583333D02*
X104752438Y-150488095D01*
X104752438Y-150488095D02*
X104800057Y-150440476D01*
X104800057Y-150440476D02*
X104895295Y-150392857D01*
X104895295Y-150392857D02*
X105038152Y-150392857D01*
X105038152Y-150392857D02*
X105133390Y-150440476D01*
X105133390Y-150440476D02*
X105181009Y-150488095D01*
X105181009Y-150488095D02*
X105228628Y-150583333D01*
X105228628Y-150583333D02*
X105228628Y-150964285D01*
X105704819Y-149440476D02*
X105704819Y-150011904D01*
X105704819Y-149726190D02*
X104704819Y-149726190D01*
X104704819Y-149726190D02*
X104847676Y-149821428D01*
X104847676Y-149821428D02*
X104942914Y-149916666D01*
X104942914Y-149916666D02*
X104990533Y-150011904D01*
X104704819Y-148535714D02*
X104704819Y-149011904D01*
X104704819Y-149011904D02*
X105181009Y-149059523D01*
X105181009Y-149059523D02*
X105133390Y-149011904D01*
X105133390Y-149011904D02*
X105085771Y-148916666D01*
X105085771Y-148916666D02*
X105085771Y-148678571D01*
X105085771Y-148678571D02*
X105133390Y-148583333D01*
X105133390Y-148583333D02*
X105181009Y-148535714D01*
X105181009Y-148535714D02*
X105276247Y-148488095D01*
X105276247Y-148488095D02*
X105514342Y-148488095D01*
X105514342Y-148488095D02*
X105609580Y-148535714D01*
X105609580Y-148535714D02*
X105657200Y-148583333D01*
X105657200Y-148583333D02*
X105704819Y-148678571D01*
X105704819Y-148678571D02*
X105704819Y-148916666D01*
X105704819Y-148916666D02*
X105657200Y-149011904D01*
X105657200Y-149011904D02*
X105609580Y-149059523D01*
D10*
%TO.C,J6*%
X132524938Y-55550000D02*
G75*
G02*
X120524938Y-55550000I-6000000J0D01*
G01*
X120524938Y-55550000D02*
G75*
G02*
X132524938Y-55550000I6000000J0D01*
G01*
%TO.C,J7*%
X83137531Y-55050000D02*
G75*
G02*
X71137531Y-55050000I-6000000J0D01*
G01*
X71137531Y-55050000D02*
G75*
G02*
X83137531Y-55050000I6000000J0D01*
G01*
%TO.C,J5*%
X86000000Y-165975062D02*
G75*
G02*
X74000000Y-165975062I-6000000J0D01*
G01*
X74000000Y-165975062D02*
G75*
G02*
X86000000Y-165975062I6000000J0D01*
G01*
%TO.C,J3*%
X108000000Y-165975062D02*
G75*
G02*
X96000000Y-165975062I-6000000J0D01*
G01*
X96000000Y-165975062D02*
G75*
G02*
X108000000Y-165975062I6000000J0D01*
G01*
%TO.C,J4*%
X130000000Y-165975062D02*
G75*
G02*
X118000000Y-165975062I-6000000J0D01*
G01*
X118000000Y-165975062D02*
G75*
G02*
X130000000Y-165975062I6000000J0D01*
G01*
%TO.C,RV2*%
X66400000Y-64050000D02*
X88400000Y-64050000D01*
X88400000Y-88050000D01*
X66400000Y-88050000D01*
X66400000Y-64050000D01*
D12*
X81320000Y-87430000D02*
X81320000Y-84670000D01*
X76130000Y-87430000D02*
X81320000Y-87430000D01*
X76130000Y-87430000D02*
X76130000Y-84670000D01*
X76130000Y-84670000D02*
X81320000Y-84670000D01*
X74860000Y-87430000D02*
X73480000Y-87430000D01*
X73480000Y-87430000D02*
X73480000Y-86050000D01*
%TO.C,RV4*%
D10*
X115500000Y-64050000D02*
X137500000Y-64050000D01*
X137500000Y-88050000D01*
X115500000Y-88050000D01*
X115500000Y-64050000D01*
D12*
X130420000Y-87430000D02*
X130420000Y-84670000D01*
X125230000Y-87430000D02*
X130420000Y-87430000D01*
X125230000Y-87430000D02*
X125230000Y-84670000D01*
X125230000Y-84670000D02*
X130420000Y-84670000D01*
X123960000Y-87430000D02*
X122580000Y-87430000D01*
X122580000Y-87430000D02*
X122580000Y-86050000D01*
%TO.C,RV3*%
X98030000Y-87430000D02*
X98030000Y-86050000D01*
X99410000Y-87430000D02*
X98030000Y-87430000D01*
X100680000Y-84670000D02*
X105870000Y-84670000D01*
X100680000Y-87430000D02*
X100680000Y-84670000D01*
X100680000Y-87430000D02*
X105870000Y-87430000D01*
X105870000Y-87430000D02*
X105870000Y-84670000D01*
D10*
X90950000Y-64050000D02*
X112950000Y-64050000D01*
X112950000Y-88050000D01*
X90950000Y-88050000D01*
X90950000Y-64050000D01*
D12*
%TO.C,U2*%
X91560000Y-126470000D02*
G75*
G02*
X89560000Y-126470000I-1000000J0D01*
G01*
X85420000Y-126410000D02*
X95700000Y-126410000D01*
X95700000Y-144430000D01*
X85420000Y-144430000D01*
X85420000Y-126410000D01*
X93210000Y-144370000D02*
X93210000Y-126470000D01*
X93210000Y-126470000D02*
X91560000Y-126470000D01*
X89560000Y-126470000D02*
X87910000Y-126470000D01*
X87910000Y-144370000D02*
X93210000Y-144370000D01*
X87910000Y-126470000D02*
X87910000Y-144370000D01*
%TO.C,R20*%
X116120000Y-146110000D02*
X113380000Y-146110000D01*
X113380000Y-152650000D01*
X116120000Y-152650000D01*
X116120000Y-146110000D01*
X114750000Y-153420000D02*
X114750000Y-152650000D01*
X114750000Y-145340000D02*
X114750000Y-146110000D01*
%TO.C,J2*%
X104330000Y-35070000D02*
X103330000Y-35070000D01*
X103330000Y-35070000D02*
X103830000Y-36070000D01*
X103830000Y-36070000D02*
X104330000Y-35070000D01*
X109040000Y-36460000D02*
X109040000Y-45580000D01*
X103340000Y-36460000D02*
X103340000Y-37770000D01*
X93540000Y-36460000D02*
X109040000Y-36460000D01*
X107740000Y-37770000D02*
X107740000Y-44270000D01*
X103340000Y-37770000D02*
X107740000Y-37770000D01*
X99240000Y-37770000D02*
X99240000Y-36460000D01*
X94840000Y-37770000D02*
X99240000Y-37770000D01*
X107740000Y-44270000D02*
X94840000Y-44270000D01*
X94840000Y-44270000D02*
X94840000Y-37770000D01*
X109040000Y-45580000D02*
X93540000Y-45580000D01*
X93540000Y-45580000D02*
X93540000Y-36460000D01*
%TO.C,J1*%
X77580000Y-35070000D02*
X76580000Y-35070000D01*
X76580000Y-35070000D02*
X77080000Y-36070000D01*
X77080000Y-36070000D02*
X77580000Y-35070000D01*
X82290000Y-36460000D02*
X82290000Y-45580000D01*
X76590000Y-36460000D02*
X76590000Y-37770000D01*
X66790000Y-36460000D02*
X82290000Y-36460000D01*
X80990000Y-37770000D02*
X80990000Y-44270000D01*
X76590000Y-37770000D02*
X80990000Y-37770000D01*
X72490000Y-37770000D02*
X72490000Y-36460000D01*
X68090000Y-37770000D02*
X72490000Y-37770000D01*
X80990000Y-44270000D02*
X68090000Y-44270000D01*
X68090000Y-44270000D02*
X68090000Y-37770000D01*
X82290000Y-45580000D02*
X66790000Y-45580000D01*
X66790000Y-45580000D02*
X66790000Y-36460000D01*
%TO.C,R18*%
X109000000Y-131590000D02*
X109000000Y-132360000D01*
X109000000Y-139670000D02*
X109000000Y-138900000D01*
X110370000Y-132360000D02*
X107630000Y-132360000D01*
X107630000Y-138900000D01*
X110370000Y-138900000D01*
X110370000Y-132360000D01*
%TO.C,R8*%
X120289472Y-94062318D02*
X120289472Y-94832318D01*
X120289472Y-102142318D02*
X120289472Y-101372318D01*
X121659472Y-94832318D02*
X118919472Y-94832318D01*
X118919472Y-101372318D01*
X121659472Y-101372318D01*
X121659472Y-94832318D01*
%TO.C,R3*%
X86397311Y-112559947D02*
X87167311Y-112559947D01*
X94477311Y-112559947D02*
X93707311Y-112559947D01*
X87167311Y-111189947D02*
X93707311Y-111189947D01*
X93707311Y-113929947D01*
X87167311Y-113929947D01*
X87167311Y-111189947D01*
%TO.C,R17*%
X102990702Y-139689735D02*
X102990702Y-138919735D01*
X102990702Y-131609735D02*
X102990702Y-132379735D01*
X101620702Y-138919735D02*
X104360702Y-138919735D01*
X104360702Y-132379735D01*
X101620702Y-132379735D01*
X101620702Y-138919735D01*
%TO.C,R2*%
X86380000Y-107300000D02*
X87150000Y-107300000D01*
X94460000Y-107300000D02*
X93690000Y-107300000D01*
X87150000Y-105930000D02*
X93690000Y-105930000D01*
X93690000Y-108670000D01*
X87150000Y-108670000D01*
X87150000Y-105930000D01*
%TO.C,R10*%
X125029054Y-94069710D02*
X125029054Y-94839710D01*
X125029054Y-102149710D02*
X125029054Y-101379710D01*
X126399054Y-94839710D02*
X123659054Y-94839710D01*
X123659054Y-101379710D01*
X126399054Y-101379710D01*
X126399054Y-94839710D01*
%TO.C,C4*%
X120370000Y-127420000D02*
X115130000Y-127420000D01*
X120370000Y-127083000D02*
X120370000Y-127420000D01*
X120370000Y-124680000D02*
X120370000Y-125017000D01*
X115130000Y-127420000D02*
X115130000Y-127083000D01*
X115130000Y-125017000D02*
X115130000Y-124680000D01*
X115130000Y-124680000D02*
X120370000Y-124680000D01*
%TO.C,U1*%
X104040000Y-106970000D02*
X104040000Y-127410000D01*
X104040000Y-127410000D02*
X109340000Y-127410000D01*
X105690000Y-106970000D02*
X104040000Y-106970000D01*
X109340000Y-106970000D02*
X107690000Y-106970000D01*
X109340000Y-127410000D02*
X109340000Y-106970000D01*
X101550000Y-106910000D02*
X111830000Y-106910000D01*
X111830000Y-127470000D01*
X101550000Y-127470000D01*
X101550000Y-106910000D01*
X107690000Y-106970000D02*
G75*
G02*
X105690000Y-106970000I-1000000J0D01*
G01*
%TO.C,C1*%
X128120000Y-108920000D02*
X122880000Y-108920000D01*
X128120000Y-108583000D02*
X128120000Y-108920000D01*
X128120000Y-106180000D02*
X128120000Y-106517000D01*
X122880000Y-108920000D02*
X122880000Y-108583000D01*
X122880000Y-106517000D02*
X122880000Y-106180000D01*
X122880000Y-106180000D02*
X128120000Y-106180000D01*
%TO.C,R4*%
X86460000Y-117300000D02*
X87230000Y-117300000D01*
X94540000Y-117300000D02*
X93770000Y-117300000D01*
X87230000Y-115930000D02*
X93770000Y-115930000D01*
X93770000Y-118670000D01*
X87230000Y-118670000D01*
X87230000Y-115930000D01*
%TO.C,R11*%
X121460000Y-112300000D02*
X122230000Y-112300000D01*
X129540000Y-112300000D02*
X128770000Y-112300000D01*
X122230000Y-110930000D02*
X128770000Y-110930000D01*
X128770000Y-113670000D01*
X122230000Y-113670000D01*
X122230000Y-110930000D01*
%TO.C,RV1*%
X74980000Y-109715000D02*
X74980000Y-99965000D01*
X80030000Y-109715000D02*
X74980000Y-109715000D01*
X74980000Y-99965000D02*
X80030000Y-99965000D01*
X80030000Y-99965000D02*
X80030000Y-109715000D01*
%TO.C,R1*%
X86380000Y-102300000D02*
X87150000Y-102300000D01*
X94460000Y-102300000D02*
X93690000Y-102300000D01*
X87150000Y-100930000D02*
X93690000Y-100930000D01*
X93690000Y-103670000D01*
X87150000Y-103670000D01*
X87150000Y-100930000D01*
%TO.C,R6*%
X92846782Y-95234642D02*
X93616782Y-95234642D01*
X100926782Y-95234642D02*
X100156782Y-95234642D01*
X93616782Y-93864642D02*
X100156782Y-93864642D01*
X100156782Y-96604642D01*
X93616782Y-96604642D01*
X93616782Y-93864642D01*
%TO.C,R19*%
X79500000Y-139420000D02*
X79500000Y-138650000D01*
X79500000Y-131340000D02*
X79500000Y-132110000D01*
X78130000Y-138650000D02*
X80870000Y-138650000D01*
X80870000Y-132110000D01*
X78130000Y-132110000D01*
X78130000Y-138650000D01*
%TO.C,C3*%
X120370000Y-133670000D02*
X115130000Y-133670000D01*
X120370000Y-133333000D02*
X120370000Y-133670000D01*
X120370000Y-130930000D02*
X120370000Y-131267000D01*
X115130000Y-133670000D02*
X115130000Y-133333000D01*
X115130000Y-131267000D02*
X115130000Y-130930000D01*
X115130000Y-130930000D02*
X120370000Y-130930000D01*
%TO.C,R12*%
X115744311Y-116060524D02*
X115744311Y-115290524D01*
X115744311Y-107980524D02*
X115744311Y-108750524D01*
X114374311Y-115290524D02*
X117114311Y-115290524D01*
X117114311Y-108750524D01*
X114374311Y-108750524D01*
X114374311Y-115290524D01*
%TO.C,R13*%
X121477327Y-117098934D02*
X122247327Y-117098934D01*
X129557327Y-117098934D02*
X128787327Y-117098934D01*
X122247327Y-115728934D02*
X128787327Y-115728934D01*
X128787327Y-118468934D01*
X122247327Y-118468934D01*
X122247327Y-115728934D01*
%TO.C,R16*%
X108990702Y-153269735D02*
X108990702Y-152499735D01*
X108990702Y-145189735D02*
X108990702Y-145959735D01*
X107620702Y-152499735D02*
X110360702Y-152499735D01*
X110360702Y-145959735D01*
X107620702Y-145959735D01*
X107620702Y-152499735D01*
%TO.C,R21*%
X120250000Y-145340000D02*
X120250000Y-146110000D01*
X120250000Y-153420000D02*
X120250000Y-152650000D01*
X121620000Y-146110000D02*
X118880000Y-146110000D01*
X118880000Y-152650000D01*
X121620000Y-152650000D01*
X121620000Y-146110000D01*
%TO.C,R5*%
X86542784Y-95267859D02*
X85772784Y-95267859D01*
X78462784Y-95267859D02*
X79232784Y-95267859D01*
X85772784Y-96637859D02*
X79232784Y-96637859D01*
X79232784Y-93897859D01*
X85772784Y-93897859D01*
X85772784Y-96637859D01*
%TO.C,R9*%
X115750000Y-94010000D02*
X115750000Y-94780000D01*
X115750000Y-102090000D02*
X115750000Y-101320000D01*
X117120000Y-94780000D02*
X114380000Y-94780000D01*
X114380000Y-101320000D01*
X117120000Y-101320000D01*
X117120000Y-94780000D01*
%TO.C,R7*%
X94460000Y-122050000D02*
X93690000Y-122050000D01*
X86380000Y-122050000D02*
X87150000Y-122050000D01*
X93690000Y-123420000D02*
X87150000Y-123420000D01*
X87150000Y-120680000D01*
X93690000Y-120680000D01*
X93690000Y-123420000D01*
%TO.C,R15*%
X102990702Y-145109735D02*
X102990702Y-145879735D01*
X102990702Y-153189735D02*
X102990702Y-152419735D01*
X104360702Y-145879735D02*
X101620702Y-145879735D01*
X101620702Y-152419735D01*
X104360702Y-152419735D01*
X104360702Y-145879735D01*
%TD*%
M02*
