M48
; DRILL file {KiCad 9.0.5} date 2025-12-11T21:52:39+1100
; FORMAT={-:-/ absolute / metric / decimal}
; #@! TF.CreationDate,2025-12-11T21:52:39+11:00
; #@! TF.GenerationSoftware,Kicad,Pcbnew,9.0.5
; #@! TF.FileFunction,Plated,1,2,PTH
FMAT,2
METRIC
; #@! TA.AperFunction,Plated,PTH,ComponentDrill
T1C0.800
; #@! TA.AperFunction,Plated,PTH,ComponentDrill
T2C1.000
; #@! TA.AperFunction,Plated,PTH,ComponentDrill
T3C6.000
%
G90
G05
T1
X77.423Y-95.268
X77.5Y-102.3
X77.5Y-104.84
X77.5Y-107.38
X79.5Y-130.3
X79.5Y-140.46
X85.34Y-102.3
X85.34Y-107.3
X85.34Y-122.05
X85.357Y-112.56
X85.42Y-117.3
X86.75Y-127.8
X86.75Y-130.34
X86.75Y-132.88
X86.75Y-135.42
X86.75Y-137.96
X86.75Y-140.5
X86.75Y-143.04
X87.583Y-95.268
X91.807Y-95.235
X94.37Y-127.8
X94.37Y-130.34
X94.37Y-132.88
X94.37Y-135.42
X94.37Y-137.96
X94.37Y-140.5
X94.37Y-143.04
X95.5Y-102.3
X95.5Y-107.3
X95.5Y-122.05
X95.517Y-112.56
X95.58Y-117.3
X101.967Y-95.235
X102.88Y-108.3
X102.88Y-110.84
X102.88Y-113.38
X102.88Y-115.92
X102.88Y-118.46
X102.88Y-121.0
X102.88Y-123.54
X102.88Y-126.08
X102.991Y-130.57
X102.991Y-140.73
X102.991Y-144.07
X102.991Y-154.23
X108.991Y-144.15
X108.991Y-154.31
X109.0Y-130.55
X109.0Y-140.71
X110.5Y-108.3
X110.5Y-110.84
X110.5Y-113.38
X110.5Y-115.92
X110.5Y-118.46
X110.5Y-121.0
X110.5Y-123.54
X110.5Y-126.08
X114.75Y-144.3
X114.75Y-154.46
X115.25Y-126.05
X115.25Y-132.3
X115.744Y-106.941
X115.744Y-117.101
X115.75Y-92.97
X115.75Y-103.13
X120.25Y-126.05
X120.25Y-132.3
X120.25Y-144.3
X120.25Y-154.46
X120.289Y-93.022
X120.289Y-103.182
X120.42Y-112.3
X120.437Y-117.099
X123.0Y-107.55
X125.029Y-93.03
X125.029Y-103.19
X128.0Y-107.55
X130.58Y-112.3
X130.597Y-117.099
T2
X72.0Y-39.75
X72.0Y-42.29
X74.54Y-39.75
X74.54Y-42.29
X74.86Y-86.05
X77.08Y-39.75
X77.08Y-42.29
X77.4Y-86.05
X79.94Y-86.05
X98.75Y-39.75
X98.75Y-42.29
X99.41Y-86.05
X101.29Y-39.75
X101.29Y-42.29
X101.95Y-86.05
X103.83Y-39.75
X103.83Y-42.29
X104.49Y-86.05
X123.96Y-86.05
X126.5Y-86.05
X129.04Y-86.05
T3
X77.162Y-55.05
X80.0Y-166.0
X102.0Y-166.0
X124.0Y-166.0
X126.5Y-55.55
T2
G00X129.125Y-127.05
M15
G01X127.375Y-127.05
M16
G05
G00X129.125Y-131.55
M15
G01X127.375Y-131.55
M16
G05
G00X129.125Y-136.05
M15
G01X127.375Y-136.05
M16
G05
M30
