%TF.GenerationSoftware,KiCad,Pcbnew,9.0.5*%
%TF.CreationDate,2025-12-27T15:29:38+11:00*%
%TF.ProjectId,oscillator,6f736369-6c6c-4617-946f-722e6b696361,rev?*%
%TF.SameCoordinates,Original*%
%TF.FileFunction,Soldermask,Top*%
%TF.FilePolarity,Negative*%
%FSLAX46Y46*%
G04 Gerber Fmt 4.6, Leading zero omitted, Abs format (unit mm)*
G04 Created by KiCad (PCBNEW 9.0.5) date 2025-12-27 15:29:38*
%MOMM*%
%LPD*%
G01*
G04 APERTURE LIST*
G04 Aperture macros list*
%AMRoundRect*
0 Rectangle with rounded corners*
0 $1 Rounding radius*
0 $2 $3 $4 $5 $6 $7 $8 $9 X,Y pos of 4 corners*
0 Add a 4 corners polygon primitive as box body*
4,1,4,$2,$3,$4,$5,$6,$7,$8,$9,$2,$3,0*
0 Add four circle primitives for the rounded corners*
1,1,$1+$1,$2,$3*
1,1,$1+$1,$4,$5*
1,1,$1+$1,$6,$7*
1,1,$1+$1,$8,$9*
0 Add four rect primitives between the rounded corners*
20,1,$1+$1,$2,$3,$4,$5,0*
20,1,$1+$1,$4,$5,$6,$7,0*
20,1,$1+$1,$6,$7,$8,$9,0*
20,1,$1+$1,$8,$9,$2,$3,0*%
G04 Aperture macros list end*
%ADD10O,3.750000X2.000000*%
%ADD11C,1.440000*%
%ADD12C,1.600000*%
%ADD13R,1.700000X1.700000*%
%ADD14C,1.700000*%
%ADD15C,8.000000*%
%ADD16C,2.200000*%
%ADD17RoundRect,0.250000X0.600000X-0.600000X0.600000X0.600000X-0.600000X0.600000X-0.600000X-0.600000X0*%
%ADD18RoundRect,0.250000X-0.550000X-0.550000X0.550000X-0.550000X0.550000X0.550000X-0.550000X0.550000X0*%
%ADD19RoundRect,0.250000X0.550000X0.550000X-0.550000X0.550000X-0.550000X-0.550000X0.550000X-0.550000X0*%
G04 APERTURE END LIST*
D10*
%TO.C,SW1*%
X110421738Y-97071456D03*
X110421738Y-101571456D03*
X110421738Y-106071456D03*
%TD*%
D11*
%TO.C,RV1*%
X59000000Y-91000000D03*
X56460000Y-91000000D03*
X53920000Y-91000000D03*
%TD*%
D12*
%TO.C,R7*%
X89080000Y-107590000D03*
X78920000Y-107590000D03*
%TD*%
%TO.C,R15*%
X52366658Y-102339627D03*
X62526658Y-102339627D03*
%TD*%
%TO.C,R17*%
X93000000Y-118920000D03*
X93000000Y-129080000D03*
%TD*%
%TO.C,R13*%
X74500000Y-87250000D03*
X64340000Y-87250000D03*
%TD*%
D13*
%TO.C,J9*%
X80095000Y-55795000D03*
D14*
X85175000Y-55795000D03*
X90175000Y-55795000D03*
%TD*%
D12*
%TO.C,R6*%
X84000000Y-41590000D03*
X84000000Y-51750000D03*
%TD*%
%TO.C,R10*%
X80151000Y-37401000D03*
X90311000Y-37401000D03*
%TD*%
%TO.C,R5*%
X78500000Y-41590000D03*
X78500000Y-51750000D03*
%TD*%
D15*
%TO.C,J6*%
X107995676Y-46573185D03*
%TD*%
D12*
%TO.C,R3*%
X79000000Y-97590000D03*
X89160000Y-97590000D03*
%TD*%
%TO.C,R20*%
X92420000Y-115750000D03*
X102580000Y-115750000D03*
%TD*%
%TO.C,R14*%
X77500000Y-129080000D03*
X77500000Y-118920000D03*
%TD*%
D15*
%TO.C,J7*%
X62063928Y-46669680D03*
%TD*%
D12*
%TO.C,C1*%
X83231000Y-32401000D03*
X88231000Y-32401000D03*
%TD*%
D16*
%TO.C,RV2*%
X53350000Y-57250000D03*
X70400000Y-57250000D03*
D13*
X59310000Y-76750000D03*
D14*
X61850000Y-76750000D03*
X64390000Y-76750000D03*
%TD*%
D12*
%TO.C,R18*%
X62500000Y-107590000D03*
X52340000Y-107590000D03*
%TD*%
D17*
%TO.C,J2*%
X65731000Y-33191000D03*
D14*
X65731000Y-30651000D03*
X68271000Y-33191000D03*
X68271000Y-30651000D03*
X70811000Y-33191000D03*
X70811000Y-30651000D03*
%TD*%
D12*
%TO.C,R9*%
X89016549Y-51710809D03*
X89016549Y-41550809D03*
%TD*%
D16*
%TO.C,RV3*%
X76450000Y-57250000D03*
X93500000Y-57250000D03*
D13*
X82410000Y-76750000D03*
D14*
X84950000Y-76750000D03*
X87490000Y-76750000D03*
%TD*%
D13*
%TO.C,J8*%
X57095000Y-55795000D03*
D14*
X62175000Y-55795000D03*
X67175000Y-55795000D03*
%TD*%
D12*
%TO.C,R12*%
X74724244Y-92424393D03*
X64564244Y-92424393D03*
%TD*%
D18*
%TO.C,U1*%
X94500000Y-92550000D03*
D12*
X94500000Y-95090000D03*
X94500000Y-97630000D03*
X94500000Y-100170000D03*
X94500000Y-102710000D03*
X94500000Y-105250000D03*
X94500000Y-107790000D03*
X94500000Y-110330000D03*
X102120000Y-110330000D03*
X102120000Y-107790000D03*
X102120000Y-105250000D03*
X102120000Y-102710000D03*
X102120000Y-100170000D03*
X102120000Y-97630000D03*
X102120000Y-95090000D03*
X102120000Y-92550000D03*
%TD*%
D15*
%TO.C,J3*%
X100500000Y-124024938D03*
%TD*%
D12*
%TO.C,R19*%
X52340000Y-112590000D03*
X62500000Y-112590000D03*
%TD*%
D19*
%TO.C,U2*%
X74500000Y-112630000D03*
D12*
X74500000Y-110090000D03*
X74500000Y-107550000D03*
X74500000Y-105010000D03*
X74500000Y-102470000D03*
X74500000Y-99930000D03*
X74500000Y-97390000D03*
X66880000Y-97390000D03*
X66880000Y-99930000D03*
X66880000Y-102470000D03*
X66880000Y-105010000D03*
X66880000Y-107550000D03*
X66880000Y-110090000D03*
X66880000Y-112630000D03*
%TD*%
D16*
%TO.C,RV4*%
X99550000Y-57250000D03*
X116600000Y-57250000D03*
D13*
X105510000Y-76750000D03*
D14*
X108050000Y-76750000D03*
X110590000Y-76750000D03*
%TD*%
D12*
%TO.C,R11*%
X89139113Y-87254358D03*
X78979113Y-87254358D03*
%TD*%
%TO.C,R8*%
X94000000Y-51750000D03*
X94000000Y-41590000D03*
%TD*%
D13*
%TO.C,J10*%
X103095000Y-55795000D03*
D14*
X108175000Y-55795000D03*
X113175000Y-55795000D03*
%TD*%
D12*
%TO.C,R2*%
X79000000Y-102590000D03*
X89160000Y-102590000D03*
%TD*%
D17*
%TO.C,J1*%
X99151000Y-33191000D03*
D14*
X99151000Y-30651000D03*
X101691000Y-33191000D03*
X101691000Y-30651000D03*
X104231000Y-33191000D03*
X104231000Y-30651000D03*
%TD*%
D12*
%TO.C,R4*%
X89080000Y-112590000D03*
X78920000Y-112590000D03*
%TD*%
D15*
%TO.C,J4*%
X85000000Y-124024938D03*
%TD*%
D12*
%TO.C,C2*%
X100000000Y-89000000D03*
X100000000Y-84000000D03*
%TD*%
D15*
%TO.C,J5*%
X69500000Y-124024938D03*
%TD*%
D12*
%TO.C,C3*%
X96000000Y-89000000D03*
X96000000Y-84000000D03*
%TD*%
%TO.C,R16*%
X52366658Y-97339627D03*
X62526658Y-97339627D03*
%TD*%
%TO.C,R1*%
X79000000Y-92590000D03*
X89160000Y-92590000D03*
%TD*%
M02*
