%TF.GenerationSoftware,KiCad,Pcbnew,9.0.5*%
%TF.CreationDate,2025-12-11T21:52:37+11:00*%
%TF.ProjectId,oscillator,6f736369-6c6c-4617-946f-722e6b696361,rev?*%
%TF.SameCoordinates,Original*%
%TF.FileFunction,Soldermask,Bot*%
%TF.FilePolarity,Negative*%
%FSLAX46Y46*%
G04 Gerber Fmt 4.6, Leading zero omitted, Abs format (unit mm)*
G04 Created by KiCad (PCBNEW 9.0.5) date 2025-12-11 21:52:37*
%MOMM*%
%LPD*%
G01*
G04 APERTURE LIST*
G04 Aperture macros list*
%AMRoundRect*
0 Rectangle with rounded corners*
0 $1 Rounding radius*
0 $2 $3 $4 $5 $6 $7 $8 $9 X,Y pos of 4 corners*
0 Add a 4 corners polygon primitive as box body*
4,1,4,$2,$3,$4,$5,$6,$7,$8,$9,$2,$3,0*
0 Add four circle primitives for the rounded corners*
1,1,$1+$1,$2,$3*
1,1,$1+$1,$4,$5*
1,1,$1+$1,$6,$7*
1,1,$1+$1,$8,$9*
0 Add four rect primitives between the rounded corners*
20,1,$1+$1,$2,$3,$4,$5,0*
20,1,$1+$1,$4,$5,$6,$7,0*
20,1,$1+$1,$6,$7,$8,$9,0*
20,1,$1+$1,$8,$9,$2,$3,0*%
G04 Aperture macros list end*
%ADD10C,8.000000*%
%ADD11C,1.700000*%
%ADD12R,1.700000X1.700000*%
%ADD13C,2.200000*%
%ADD14C,1.600000*%
%ADD15RoundRect,0.250000X-0.550000X-0.550000X0.550000X-0.550000X0.550000X0.550000X-0.550000X0.550000X0*%
%ADD16RoundRect,0.250000X-0.600000X0.600000X-0.600000X-0.600000X0.600000X-0.600000X0.600000X0.600000X0*%
%ADD17O,3.750000X2.000000*%
%ADD18C,1.440000*%
G04 APERTURE END LIST*
D10*
%TO.C,J6*%
X126500000Y-55550000D03*
%TD*%
%TO.C,J7*%
X77162469Y-55050000D03*
%TD*%
%TO.C,J5*%
X80000000Y-166000000D03*
%TD*%
%TO.C,J3*%
X102000000Y-166000000D03*
%TD*%
%TO.C,J4*%
X124000000Y-166000000D03*
%TD*%
D11*
%TO.C,RV2*%
X79940000Y-86050000D03*
X77400000Y-86050000D03*
D12*
X74860000Y-86050000D03*
D13*
X85950000Y-66550000D03*
X68900000Y-66550000D03*
%TD*%
D11*
%TO.C,RV4*%
X129040000Y-86050000D03*
X126500000Y-86050000D03*
D12*
X123960000Y-86050000D03*
D13*
X135050000Y-66550000D03*
X118000000Y-66550000D03*
%TD*%
%TO.C,RV3*%
X93450000Y-66550000D03*
X110500000Y-66550000D03*
D12*
X99410000Y-86050000D03*
D11*
X101950000Y-86050000D03*
X104490000Y-86050000D03*
%TD*%
D14*
%TO.C,U2*%
X94370000Y-127800000D03*
X94370000Y-130340000D03*
X94370000Y-132880000D03*
X94370000Y-135420000D03*
X94370000Y-137960000D03*
X94370000Y-140500000D03*
X94370000Y-143040000D03*
X86750000Y-143040000D03*
X86750000Y-140500000D03*
X86750000Y-137960000D03*
X86750000Y-135420000D03*
X86750000Y-132880000D03*
X86750000Y-130340000D03*
D15*
X86750000Y-127800000D03*
%TD*%
D14*
%TO.C,R20*%
X114750000Y-154460000D03*
X114750000Y-144300000D03*
%TD*%
D16*
%TO.C,J2*%
X103830000Y-39750000D03*
D11*
X103830000Y-42290000D03*
X101290000Y-39750000D03*
X101290000Y-42290000D03*
X98750000Y-39750000D03*
X98750000Y-42290000D03*
%TD*%
D16*
%TO.C,J1*%
X77080000Y-39750000D03*
D11*
X77080000Y-42290000D03*
X74540000Y-39750000D03*
X74540000Y-42290000D03*
X72000000Y-39750000D03*
X72000000Y-42290000D03*
%TD*%
D14*
%TO.C,R18*%
X109000000Y-130550000D03*
X109000000Y-140710000D03*
%TD*%
%TO.C,R8*%
X120289472Y-93022318D03*
X120289472Y-103182318D03*
%TD*%
%TO.C,R3*%
X85357311Y-112559947D03*
X95517311Y-112559947D03*
%TD*%
%TO.C,R17*%
X102990702Y-140729735D03*
X102990702Y-130569735D03*
%TD*%
%TO.C,R2*%
X85340000Y-107300000D03*
X95500000Y-107300000D03*
%TD*%
%TO.C,R10*%
X125029054Y-93029710D03*
X125029054Y-103189710D03*
%TD*%
%TO.C,C4*%
X120250000Y-126050000D03*
X115250000Y-126050000D03*
%TD*%
D15*
%TO.C,U1*%
X102880000Y-108300000D03*
D14*
X102880000Y-110840000D03*
X102880000Y-113380000D03*
X102880000Y-115920000D03*
X102880000Y-118460000D03*
X102880000Y-121000000D03*
X102880000Y-123540000D03*
X102880000Y-126080000D03*
X110500000Y-126080000D03*
X110500000Y-123540000D03*
X110500000Y-121000000D03*
X110500000Y-118460000D03*
X110500000Y-115920000D03*
X110500000Y-113380000D03*
X110500000Y-110840000D03*
X110500000Y-108300000D03*
%TD*%
D17*
%TO.C,SW1*%
X128250000Y-127050000D03*
X128250000Y-131550000D03*
X128250000Y-136050000D03*
%TD*%
D14*
%TO.C,C1*%
X128000000Y-107550000D03*
X123000000Y-107550000D03*
%TD*%
%TO.C,R4*%
X85420000Y-117300000D03*
X95580000Y-117300000D03*
%TD*%
%TO.C,R11*%
X120420000Y-112300000D03*
X130580000Y-112300000D03*
%TD*%
D18*
%TO.C,RV1*%
X77500000Y-102300000D03*
X77500000Y-104840000D03*
X77500000Y-107380000D03*
%TD*%
D14*
%TO.C,R1*%
X85340000Y-102300000D03*
X95500000Y-102300000D03*
%TD*%
%TO.C,R6*%
X91806782Y-95234642D03*
X101966782Y-95234642D03*
%TD*%
%TO.C,R19*%
X79500000Y-140460000D03*
X79500000Y-130300000D03*
%TD*%
%TO.C,C3*%
X120250000Y-132300000D03*
X115250000Y-132300000D03*
%TD*%
%TO.C,R12*%
X115744311Y-117100524D03*
X115744311Y-106940524D03*
%TD*%
%TO.C,R13*%
X120437327Y-117098934D03*
X130597327Y-117098934D03*
%TD*%
%TO.C,R16*%
X108990702Y-154309735D03*
X108990702Y-144149735D03*
%TD*%
%TO.C,R21*%
X120250000Y-144300000D03*
X120250000Y-154460000D03*
%TD*%
%TO.C,R5*%
X87582784Y-95267859D03*
X77422784Y-95267859D03*
%TD*%
%TO.C,R9*%
X115750000Y-92970000D03*
X115750000Y-103130000D03*
%TD*%
%TO.C,R7*%
X95500000Y-122050000D03*
X85340000Y-122050000D03*
%TD*%
%TO.C,R15*%
X102990702Y-144069735D03*
X102990702Y-154229735D03*
%TD*%
M02*
