%TF.GenerationSoftware,KiCad,Pcbnew,9.0.5*%
%TF.CreationDate,2025-12-27T15:29:38+11:00*%
%TF.ProjectId,oscillator,6f736369-6c6c-4617-946f-722e6b696361,rev?*%
%TF.SameCoordinates,Original*%
%TF.FileFunction,Copper,L2,Bot*%
%TF.FilePolarity,Positive*%
%FSLAX46Y46*%
G04 Gerber Fmt 4.6, Leading zero omitted, Abs format (unit mm)*
G04 Created by KiCad (PCBNEW 9.0.5) date 2025-12-27 15:29:38*
%MOMM*%
%LPD*%
G01*
G04 APERTURE LIST*
G04 Aperture macros list*
%AMRoundRect*
0 Rectangle with rounded corners*
0 $1 Rounding radius*
0 $2 $3 $4 $5 $6 $7 $8 $9 X,Y pos of 4 corners*
0 Add a 4 corners polygon primitive as box body*
4,1,4,$2,$3,$4,$5,$6,$7,$8,$9,$2,$3,0*
0 Add four circle primitives for the rounded corners*
1,1,$1+$1,$2,$3*
1,1,$1+$1,$4,$5*
1,1,$1+$1,$6,$7*
1,1,$1+$1,$8,$9*
0 Add four rect primitives between the rounded corners*
20,1,$1+$1,$2,$3,$4,$5,0*
20,1,$1+$1,$4,$5,$6,$7,0*
20,1,$1+$1,$6,$7,$8,$9,0*
20,1,$1+$1,$8,$9,$2,$3,0*%
G04 Aperture macros list end*
%TA.AperFunction,ComponentPad*%
%ADD10O,3.750000X2.000000*%
%TD*%
%TA.AperFunction,ComponentPad*%
%ADD11C,1.440000*%
%TD*%
%TA.AperFunction,ComponentPad*%
%ADD12C,1.600000*%
%TD*%
%TA.AperFunction,ComponentPad*%
%ADD13R,1.700000X1.700000*%
%TD*%
%TA.AperFunction,ComponentPad*%
%ADD14C,1.700000*%
%TD*%
%TA.AperFunction,ComponentPad*%
%ADD15C,8.000000*%
%TD*%
%TA.AperFunction,ComponentPad*%
%ADD16RoundRect,0.250000X0.600000X-0.600000X0.600000X0.600000X-0.600000X0.600000X-0.600000X-0.600000X0*%
%TD*%
%TA.AperFunction,ComponentPad*%
%ADD17RoundRect,0.250000X-0.550000X-0.550000X0.550000X-0.550000X0.550000X0.550000X-0.550000X0.550000X0*%
%TD*%
%TA.AperFunction,ComponentPad*%
%ADD18RoundRect,0.250000X0.550000X0.550000X-0.550000X0.550000X-0.550000X-0.550000X0.550000X-0.550000X0*%
%TD*%
%TA.AperFunction,Conductor*%
%ADD19C,0.200000*%
%TD*%
G04 APERTURE END LIST*
D10*
%TO.P,SW1,3,A*%
%TO.N,Net-(SW1-A)*%
X110421738Y-97071456D03*
%TO.P,SW1,2,B*%
%TO.N,Net-(SW1-B)*%
X110421738Y-101571456D03*
%TO.P,SW1,1,C*%
%TO.N,Net-(SW1-C)*%
X110421738Y-106071456D03*
%TD*%
D11*
%TO.P,RV1,1,1*%
%TO.N,Net-(R1-Pad1)*%
X59000000Y-91000000D03*
%TO.P,RV1,2,2*%
%TO.N,Net-(U1-VEE)*%
X56460000Y-91000000D03*
%TO.P,RV1,3,3*%
X53920000Y-91000000D03*
%TD*%
D12*
%TO.P,R7,1*%
%TO.N,Net-(U1-VPWM)*%
X89080000Y-107590000D03*
%TO.P,R7,2*%
%TO.N,Net-(U2B--)*%
X78920000Y-107590000D03*
%TD*%
%TO.P,R15,1*%
%TO.N,GND*%
X52366658Y-102339627D03*
%TO.P,R15,2*%
%TO.N,Net-(U2C--)*%
X62526658Y-102339627D03*
%TD*%
%TO.P,R17,1*%
%TO.N,Net-(R16-Pad2)*%
X93000000Y-118920000D03*
%TO.P,R17,2*%
%TO.N,Net-(J4-Pin_1)*%
X93000000Y-129080000D03*
%TD*%
%TO.P,R13,1*%
%TO.N,Net-(U1-VLFI)*%
X74500000Y-87250000D03*
%TO.P,R13,2*%
%TO.N,GND*%
X64340000Y-87250000D03*
%TD*%
D13*
%TO.P,J9,1,Pin_1*%
%TO.N,GND*%
X80095000Y-55795000D03*
D14*
%TO.P,J9,2,Pin_2*%
%TO.N,Net-(J9-Pin_2)*%
X85175000Y-55795000D03*
%TO.P,J9,3,Pin_3*%
%TO.N,Net-(J7-Pin_1)*%
X90175000Y-55795000D03*
%TD*%
D12*
%TO.P,R6,1*%
%TO.N,Net-(U2B-+)*%
X84000000Y-41590000D03*
%TO.P,R6,2*%
%TO.N,Net-(J9-Pin_2)*%
X84000000Y-51750000D03*
%TD*%
%TO.P,R10,1*%
%TO.N,Net-(C1-Pad1)*%
X80151000Y-37401000D03*
%TO.P,R10,2*%
%TO.N,Net-(U1-VFCI)*%
X90311000Y-37401000D03*
%TD*%
%TO.P,R5,1*%
%TO.N,Net-(U2B-+)*%
X78500000Y-41590000D03*
%TO.P,R5,2*%
%TO.N,Net-(J8-Pin_2)*%
X78500000Y-51750000D03*
%TD*%
D15*
%TO.P,J6,1,Pin_1*%
%TO.N,Net-(J6-Pin_1)*%
X107995676Y-46573185D03*
%TD*%
D12*
%TO.P,R3,1*%
%TO.N,-12V*%
X79000000Y-97590000D03*
%TO.P,R3,2*%
%TO.N,Net-(U1-VEE)*%
X89160000Y-97590000D03*
%TD*%
%TO.P,R20,1*%
%TO.N,Net-(R19-Pad2)*%
X92420000Y-115750000D03*
%TO.P,R20,2*%
%TO.N,Net-(J3-Pin_1)*%
X102580000Y-115750000D03*
%TD*%
%TO.P,R14,1*%
%TO.N,Net-(J5-Pin_1)*%
X77500000Y-129080000D03*
%TO.P,R14,2*%
%TO.N,Net-(U2A--)*%
X77500000Y-118920000D03*
%TD*%
D15*
%TO.P,J7,1,Pin_1*%
%TO.N,Net-(J7-Pin_1)*%
X62063928Y-46669680D03*
%TD*%
D12*
%TO.P,C1,1*%
%TO.N,Net-(C1-Pad1)*%
X83231000Y-32401000D03*
%TO.P,C1,2*%
%TO.N,GND*%
X88231000Y-32401000D03*
%TD*%
D13*
%TO.P,RV2,1,1*%
%TO.N,GND*%
X59310000Y-76750000D03*
D14*
%TO.P,RV2,2,2*%
%TO.N,Net-(J8-Pin_2)*%
X61850000Y-76750000D03*
%TO.P,RV2,3,3*%
%TO.N,12V*%
X64390000Y-76750000D03*
%TD*%
D12*
%TO.P,R18,1*%
%TO.N,GND*%
X62500000Y-107590000D03*
%TO.P,R18,2*%
%TO.N,Net-(U2D--)*%
X52340000Y-107590000D03*
%TD*%
D16*
%TO.P,J2,1,Pin_1*%
%TO.N,12V*%
X65731000Y-33191000D03*
D14*
%TO.P,J2,2,Pin_2*%
%TO.N,-12V*%
X65731000Y-30651000D03*
%TO.P,J2,3,Pin_3*%
%TO.N,GND*%
X68271000Y-33191000D03*
%TO.P,J2,4,Pin_4*%
X68271000Y-30651000D03*
%TO.P,J2,5,Pin_5*%
%TO.N,5V*%
X70811000Y-33191000D03*
%TO.P,J2,6,Pin_6*%
%TO.N,unconnected-(J2-Pin_6-Pad6)*%
X70811000Y-30651000D03*
%TD*%
D12*
%TO.P,R9,1*%
%TO.N,Net-(J10-Pin_2)*%
X89016549Y-51710809D03*
%TO.P,R9,2*%
%TO.N,Net-(U1-VFCI)*%
X89016549Y-41550809D03*
%TD*%
D13*
%TO.P,RV3,1,1*%
%TO.N,GND*%
X82410000Y-76750000D03*
D14*
%TO.P,RV3,2,2*%
%TO.N,Net-(J9-Pin_2)*%
X84950000Y-76750000D03*
%TO.P,RV3,3,3*%
%TO.N,Net-(J7-Pin_1)*%
X87490000Y-76750000D03*
%TD*%
D13*
%TO.P,J8,1,Pin_1*%
%TO.N,GND*%
X57095000Y-55795000D03*
D14*
%TO.P,J8,2,Pin_2*%
%TO.N,Net-(J8-Pin_2)*%
X62175000Y-55795000D03*
%TO.P,J8,3,Pin_3*%
%TO.N,12V*%
X67175000Y-55795000D03*
%TD*%
D12*
%TO.P,R12,1*%
%TO.N,Net-(U1-VLFI)*%
X74724244Y-92424393D03*
%TO.P,R12,2*%
%TO.N,12V*%
X64564244Y-92424393D03*
%TD*%
D17*
%TO.P,U1,1,SCALE1*%
%TO.N,Net-(U1-SCALE1)*%
X94500000Y-92550000D03*
D12*
%TO.P,U1,2,SCALE2*%
%TO.N,Net-(U1-SCALE2)*%
X94500000Y-95090000D03*
%TO.P,U1,3,VEE*%
%TO.N,Net-(U1-VEE)*%
X94500000Y-97630000D03*
%TO.P,U1,4,VP*%
%TO.N,Net-(U1-VP)*%
X94500000Y-100170000D03*
%TO.P,U1,5,VPWM*%
%TO.N,Net-(U1-VPWM)*%
X94500000Y-102710000D03*
%TO.P,U1,6,VHSI*%
%TO.N,unconnected-(U1-VHSI-Pad6)*%
X94500000Y-105250000D03*
%TO.P,U1,7,VHFT*%
%TO.N,unconnected-(U1-VHFT-Pad7)*%
X94500000Y-107790000D03*
%TO.P,U1,8,VSO*%
%TO.N,Net-(U1-VSO)*%
X94500000Y-110330000D03*
%TO.P,U1,9,VSSI*%
%TO.N,unconnected-(U1-VSSI-Pad9)*%
X102120000Y-110330000D03*
%TO.P,U1,10,VTO*%
%TO.N,Net-(U1-VTO)*%
X102120000Y-107790000D03*
%TO.P,U1,11,CAP*%
%TO.N,Net-(SW1-B)*%
X102120000Y-105250000D03*
%TO.P,U1,12,GND*%
%TO.N,GND*%
X102120000Y-102710000D03*
%TO.P,U1,13,VLFI*%
%TO.N,Net-(U1-VLFI)*%
X102120000Y-100170000D03*
%TO.P,U1,14,VS*%
%TO.N,Net-(U1-VS)*%
X102120000Y-97630000D03*
%TO.P,U1,15,VFCI*%
%TO.N,Net-(U1-VFCI)*%
X102120000Y-95090000D03*
%TO.P,U1,16,VCC*%
%TO.N,12V*%
X102120000Y-92550000D03*
%TD*%
D15*
%TO.P,J3,1,Pin_1*%
%TO.N,Net-(J3-Pin_1)*%
X100500000Y-124024938D03*
%TD*%
D12*
%TO.P,R19,1*%
%TO.N,Net-(U2D--)*%
X52340000Y-112590000D03*
%TO.P,R19,2*%
%TO.N,Net-(R19-Pad2)*%
X62500000Y-112590000D03*
%TD*%
D18*
%TO.P,U2,1*%
%TO.N,Net-(U2A--)*%
X74500000Y-112630000D03*
D12*
%TO.P,U2,2,-*%
X74500000Y-110090000D03*
%TO.P,U2,3,+*%
%TO.N,Net-(U1-VP)*%
X74500000Y-107550000D03*
%TO.P,U2,4,V+*%
%TO.N,12V*%
X74500000Y-105010000D03*
%TO.P,U2,5,+*%
%TO.N,Net-(U2B-+)*%
X74500000Y-102470000D03*
%TO.P,U2,6,-*%
%TO.N,Net-(U2B--)*%
X74500000Y-99930000D03*
%TO.P,U2,7*%
X74500000Y-97390000D03*
%TO.P,U2,8*%
%TO.N,Net-(R16-Pad2)*%
X66880000Y-97390000D03*
%TO.P,U2,9,-*%
%TO.N,Net-(U2C--)*%
X66880000Y-99930000D03*
%TO.P,U2,10,+*%
%TO.N,Net-(U1-VSO)*%
X66880000Y-102470000D03*
%TO.P,U2,11,V-*%
%TO.N,-12V*%
X66880000Y-105010000D03*
%TO.P,U2,12,+*%
%TO.N,Net-(U1-VTO)*%
X66880000Y-107550000D03*
%TO.P,U2,13,-*%
%TO.N,Net-(U2D--)*%
X66880000Y-110090000D03*
%TO.P,U2,14*%
%TO.N,Net-(R19-Pad2)*%
X66880000Y-112630000D03*
%TD*%
D13*
%TO.P,RV4,1,1*%
%TO.N,unconnected-(RV4-Pad1)*%
X105510000Y-76750000D03*
D14*
%TO.P,RV4,2,2*%
%TO.N,Net-(J10-Pin_2)*%
X108050000Y-76750000D03*
%TO.P,RV4,3,3*%
%TO.N,12V*%
X110590000Y-76750000D03*
%TD*%
D12*
%TO.P,R11,1*%
%TO.N,Net-(U1-VS)*%
X89139113Y-87254358D03*
%TO.P,R11,2*%
%TO.N,GND*%
X78979113Y-87254358D03*
%TD*%
%TO.P,R8,1*%
%TO.N,Net-(J6-Pin_1)*%
X94000000Y-51750000D03*
%TO.P,R8,2*%
%TO.N,Net-(U1-VFCI)*%
X94000000Y-41590000D03*
%TD*%
D13*
%TO.P,J10,1,Pin_1*%
%TO.N,unconnected-(J10-Pin_1-Pad1)*%
X103095000Y-55795000D03*
D14*
%TO.P,J10,2,Pin_2*%
%TO.N,Net-(J10-Pin_2)*%
X108175000Y-55795000D03*
%TO.P,J10,3,Pin_3*%
%TO.N,12V*%
X113175000Y-55795000D03*
%TD*%
D12*
%TO.P,R2,1*%
%TO.N,Net-(U1-VEE)*%
X79000000Y-102590000D03*
%TO.P,R2,2*%
%TO.N,Net-(U1-SCALE2)*%
X89160000Y-102590000D03*
%TD*%
D16*
%TO.P,J1,1,Pin_1*%
%TO.N,12V*%
X99151000Y-33191000D03*
D14*
%TO.P,J1,2,Pin_2*%
%TO.N,-12V*%
X99151000Y-30651000D03*
%TO.P,J1,3,Pin_3*%
%TO.N,GND*%
X101691000Y-33191000D03*
%TO.P,J1,4,Pin_4*%
X101691000Y-30651000D03*
%TO.P,J1,5,Pin_5*%
%TO.N,5V*%
X104231000Y-33191000D03*
%TO.P,J1,6,Pin_6*%
%TO.N,unconnected-(J1-Pin_6-Pad6)*%
X104231000Y-30651000D03*
%TD*%
D12*
%TO.P,R4,1*%
%TO.N,GND*%
X89080000Y-112590000D03*
%TO.P,R4,2*%
%TO.N,Net-(U1-VP)*%
X78920000Y-112590000D03*
%TD*%
D15*
%TO.P,J4,1,Pin_1*%
%TO.N,Net-(J4-Pin_1)*%
X85000000Y-124024938D03*
%TD*%
D12*
%TO.P,C2,1*%
%TO.N,Net-(SW1-A)*%
X100000000Y-89000000D03*
%TO.P,C2,2*%
%TO.N,GND*%
X100000000Y-84000000D03*
%TD*%
D15*
%TO.P,J5,1,Pin_1*%
%TO.N,Net-(J5-Pin_1)*%
X69500000Y-124024938D03*
%TD*%
D12*
%TO.P,C3,1*%
%TO.N,Net-(SW1-C)*%
X96000000Y-89000000D03*
%TO.P,C3,2*%
%TO.N,GND*%
X96000000Y-84000000D03*
%TD*%
%TO.P,R16,1*%
%TO.N,Net-(U2C--)*%
X52366658Y-97339627D03*
%TO.P,R16,2*%
%TO.N,Net-(R16-Pad2)*%
X62526658Y-97339627D03*
%TD*%
%TO.P,R1,1*%
%TO.N,Net-(R1-Pad1)*%
X79000000Y-92590000D03*
%TO.P,R1,2*%
%TO.N,Net-(U1-SCALE1)*%
X89160000Y-92590000D03*
%TD*%
D19*
%TO.N,12V*%
X65731000Y-33191000D02*
X66364928Y-33824928D01*
X66364928Y-33824928D02*
X66364928Y-54984928D01*
X66364928Y-54984928D02*
X67175000Y-55795000D01*
%TO.N,Net-(SW1-B)*%
X110421738Y-101571456D02*
X105798544Y-101571456D01*
X105798544Y-101571456D02*
X102120000Y-105250000D01*
%TO.N,GND*%
X96000000Y-84000000D02*
X97101000Y-85101000D01*
X97101000Y-85101000D02*
X97101000Y-97691000D01*
X97101000Y-97691000D02*
X102120000Y-102710000D01*
%TO.N,Net-(C1-Pad1)*%
X83231000Y-34321000D02*
X80151000Y-37401000D01*
X83231000Y-32401000D02*
X83231000Y-34321000D01*
%TO.N,GND*%
X92441000Y-109229000D02*
X95601000Y-109229000D01*
X80095000Y-40537000D02*
X80095000Y-55795000D01*
X95601000Y-109229000D02*
X102120000Y-102710000D01*
X64340000Y-87250000D02*
X64340000Y-90366285D01*
X88231000Y-32401000D02*
X80095000Y-40537000D01*
X64340000Y-90366285D02*
X52366658Y-102339627D01*
X59310000Y-82220000D02*
X64340000Y-87250000D01*
X59310000Y-76750000D02*
X59310000Y-82220000D01*
X89080000Y-112590000D02*
X92441000Y-109229000D01*
%TO.N,Net-(U1-SCALE1)*%
X89160000Y-92590000D02*
X94460000Y-92590000D01*
X94460000Y-92590000D02*
X94500000Y-92550000D01*
%TO.N,Net-(U1-VEE)*%
X93399000Y-99908050D02*
X93399000Y-98731000D01*
X93399000Y-98731000D02*
X94500000Y-97630000D01*
X89616050Y-103691000D02*
X93399000Y-99908050D01*
X79000000Y-102590000D02*
X80101000Y-103691000D01*
X80101000Y-103691000D02*
X89616050Y-103691000D01*
%TO.N,Net-(U1-SCALE2)*%
X89160000Y-100430000D02*
X94500000Y-95090000D01*
X89160000Y-102590000D02*
X89160000Y-100430000D01*
%TO.N,-12V*%
X67000000Y-31920000D02*
X67000000Y-38667467D01*
X65731000Y-30651000D02*
X66882000Y-29500000D01*
X74999000Y-46666467D02*
X74999000Y-86191950D01*
X77899000Y-89091950D02*
X77899000Y-96489000D01*
X74999000Y-86191950D02*
X77899000Y-89091950D01*
X65731000Y-30651000D02*
X67000000Y-31920000D01*
X67000000Y-38667467D02*
X74999000Y-46666467D01*
X77899000Y-96489000D02*
X79000000Y-97590000D01*
X66882000Y-29500000D02*
X98000000Y-29500000D01*
X98000000Y-29500000D02*
X99151000Y-30651000D01*
%TO.N,Net-(U1-VP)*%
X74500000Y-107550000D02*
X78920000Y-111970000D01*
X82080000Y-112590000D02*
X94500000Y-100170000D01*
X78920000Y-112590000D02*
X82080000Y-112590000D01*
X78920000Y-111970000D02*
X78920000Y-112590000D01*
%TO.N,Net-(U2B-+)*%
X78944000Y-56946000D02*
X78944000Y-54644000D01*
X79694000Y-42784000D02*
X78500000Y-41590000D01*
X81246000Y-59248000D02*
X78944000Y-56946000D01*
X79694000Y-53894000D02*
X79694000Y-42784000D01*
X74500000Y-102470000D02*
X75677050Y-102470000D01*
X75677050Y-102470000D02*
X81246000Y-96901050D01*
X78944000Y-54644000D02*
X79694000Y-53894000D01*
X81246000Y-96901050D02*
X81246000Y-59248000D01*
%TO.N,Net-(U1-VPWM)*%
X89080000Y-107590000D02*
X93960000Y-102710000D01*
X93960000Y-102710000D02*
X94500000Y-102710000D01*
%TO.N,Net-(U2B--)*%
X73399000Y-101031000D02*
X74500000Y-99930000D01*
X74043950Y-103571000D02*
X73399000Y-102926050D01*
X74901000Y-103571000D02*
X74043950Y-103571000D01*
X78920000Y-107590000D02*
X74901000Y-103571000D01*
X73399000Y-102926050D02*
X73399000Y-101031000D01*
%TO.N,Net-(U1-VFCI)*%
X98099000Y-91069000D02*
X102120000Y-95090000D01*
X94000000Y-41590000D02*
X98099000Y-45689000D01*
X98099000Y-45689000D02*
X98099000Y-91069000D01*
%TO.N,12V*%
X110590000Y-76750000D02*
X102120000Y-85220000D01*
X102120000Y-85220000D02*
X102120000Y-92550000D01*
X65441000Y-77801000D02*
X65441000Y-91547637D01*
X64564244Y-92424393D02*
X70000000Y-97860149D01*
X65441000Y-91547637D02*
X64564244Y-92424393D01*
X70000000Y-100510000D02*
X74500000Y-105010000D01*
X70000000Y-97860149D02*
X70000000Y-100510000D01*
X64390000Y-76750000D02*
X65441000Y-77801000D01*
%TO.N,Net-(U1-VLFI)*%
X74500000Y-92200149D02*
X74724244Y-92424393D01*
X74500000Y-87250000D02*
X74500000Y-92200149D01*
%TO.N,5V*%
X98172240Y-31300000D02*
X98773240Y-31901000D01*
X70811000Y-33191000D02*
X72702000Y-31300000D01*
X102941000Y-31901000D02*
X104231000Y-33191000D01*
X98773240Y-31901000D02*
X102941000Y-31901000D01*
X72702000Y-31300000D02*
X98172240Y-31300000D01*
%TO.N,Net-(R16-Pad2)*%
X66880000Y-97390000D02*
X66880000Y-97957100D01*
X66880000Y-97390000D02*
X65779000Y-98491000D01*
X65779000Y-98491000D02*
X65779000Y-113086050D01*
X65779000Y-113086050D02*
X70192950Y-117500000D01*
X91580000Y-117500000D02*
X93000000Y-118920000D01*
X70192950Y-117500000D02*
X91580000Y-117500000D01*
%TO.N,Net-(R19-Pad2)*%
X70000000Y-115750000D02*
X92420000Y-115750000D01*
X66880000Y-112630000D02*
X70000000Y-115750000D01*
%TO.N,Net-(U1-VSO)*%
X74956050Y-108651000D02*
X77819000Y-111513950D01*
X66880000Y-102470000D02*
X73061000Y-108651000D01*
X77819000Y-111513950D02*
X77819000Y-113046050D01*
X77819000Y-113046050D02*
X78463950Y-113691000D01*
X73061000Y-108651000D02*
X74956050Y-108651000D01*
X91139000Y-113691000D02*
X94500000Y-110330000D01*
X78463950Y-113691000D02*
X91139000Y-113691000D01*
%TD*%
M02*
