%TF.GenerationSoftware,KiCad,Pcbnew,9.0.6*%
%TF.CreationDate,2026-05-22T00:00:16+10:00*%
%TF.ProjectId,gate-sequencer,67617465-2d73-4657-9175-656e6365722e,rev?*%
%TF.SameCoordinates,Original*%
%TF.FileFunction,Copper,L1,Top*%
%TF.FilePolarity,Positive*%
%FSLAX46Y46*%
G04 Gerber Fmt 4.6, Leading zero omitted, Abs format (unit mm)*
G04 Created by KiCad (PCBNEW 9.0.6) date 2026-05-22 00:00:16*
%MOMM*%
%LPD*%
G01*
G04 APERTURE LIST*
G04 Aperture macros list*
%AMRoundRect*
0 Rectangle with rounded corners*
0 $1 Rounding radius*
0 $2 $3 $4 $5 $6 $7 $8 $9 X,Y pos of 4 corners*
0 Add a 4 corners polygon primitive as box body*
4,1,4,$2,$3,$4,$5,$6,$7,$8,$9,$2,$3,0*
0 Add four circle primitives for the rounded corners*
1,1,$1+$1,$2,$3*
1,1,$1+$1,$4,$5*
1,1,$1+$1,$6,$7*
1,1,$1+$1,$8,$9*
0 Add four rect primitives between the rounded corners*
20,1,$1+$1,$2,$3,$4,$5,0*
20,1,$1+$1,$4,$5,$6,$7,0*
20,1,$1+$1,$6,$7,$8,$9,0*
20,1,$1+$1,$8,$9,$2,$3,0*%
G04 Aperture macros list end*
%TA.AperFunction,ComponentPad*%
%ADD10C,8.000000*%
%TD*%
%TA.AperFunction,ComponentPad*%
%ADD11R,1.800000X1.800000*%
%TD*%
%TA.AperFunction,ComponentPad*%
%ADD12C,1.800000*%
%TD*%
%TA.AperFunction,ComponentPad*%
%ADD13RoundRect,0.250000X0.550000X-0.550000X0.550000X0.550000X-0.550000X0.550000X-0.550000X-0.550000X0*%
%TD*%
%TA.AperFunction,ComponentPad*%
%ADD14C,1.600000*%
%TD*%
%TA.AperFunction,ComponentPad*%
%ADD15C,2.200000*%
%TD*%
%TA.AperFunction,ComponentPad*%
%ADD16RoundRect,0.250000X-0.550000X0.550000X-0.550000X-0.550000X0.550000X-0.550000X0.550000X0.550000X0*%
%TD*%
%TA.AperFunction,ComponentPad*%
%ADD17RoundRect,0.750000X0.750000X-1.250000X0.750000X1.250000X-0.750000X1.250000X-0.750000X-1.250000X0*%
%TD*%
%TA.AperFunction,ComponentPad*%
%ADD18RoundRect,0.250000X0.600000X-0.600000X0.600000X0.600000X-0.600000X0.600000X-0.600000X-0.600000X0*%
%TD*%
%TA.AperFunction,ComponentPad*%
%ADD19C,1.700000*%
%TD*%
%TA.AperFunction,ComponentPad*%
%ADD20R,1.600000X1.600000*%
%TD*%
%TA.AperFunction,ComponentPad*%
%ADD21O,1.600000X1.600000*%
%TD*%
%TA.AperFunction,ComponentPad*%
%ADD22O,3.750000X2.000000*%
%TD*%
%TA.AperFunction,ComponentPad*%
%ADD23R,1.700000X1.700000*%
%TD*%
%TA.AperFunction,Conductor*%
%ADD24C,0.200000*%
%TD*%
G04 APERTURE END LIST*
D10*
%TO.P,J15,1,Pin_1*%
%TO.N,Net-(J15-Pin_1)*%
X73500000Y-132750000D03*
%TD*%
D11*
%TO.P,D14,1,K*%
%TO.N,GND*%
X128910714Y-94024938D03*
D12*
%TO.P,D14,2,A*%
%TO.N,Net-(D14-A)*%
X131450714Y-94024938D03*
%TD*%
D13*
%TO.P,D4,1,K*%
%TO.N,Net-(A1-D11)*%
X100500000Y-54451840D03*
D14*
%TO.P,D4,2,A*%
%TO.N,Net-(D4-A)*%
X100500000Y-46831840D03*
%TD*%
D10*
%TO.P,J14,1,Pin_1*%
%TO.N,Net-(J14-Pin_1)*%
X53644286Y-132750000D03*
%TD*%
D14*
%TO.P,R9,1*%
%TO.N,Net-(D20-A)*%
X162527633Y-86114938D03*
%TO.P,R9,2*%
%TO.N,Net-(U1-S7)*%
X162527633Y-96274938D03*
%TD*%
D15*
%TO.P,SW17,1,1*%
%TO.N,Net-(D24-A)*%
X56017143Y-155420000D03*
%TO.P,SW17,2,2*%
%TO.N,Net-(A1-D4)*%
X49667143Y-157960000D03*
%TD*%
D13*
%TO.P,D1,1,K*%
%TO.N,Net-(A1-D9)*%
X61735642Y-54451840D03*
D14*
%TO.P,D1,2,A*%
%TO.N,Net-(D1-A)*%
X61735642Y-46831840D03*
%TD*%
%TO.P,R11,1*%
%TO.N,Net-(J21-Pin_5)*%
X56420190Y-99274938D03*
%TO.P,R11,2*%
%TO.N,Net-(U1-S1)*%
X46260190Y-99274938D03*
%TD*%
D10*
%TO.P,J5,1,Pin_1*%
%TO.N,Net-(J21-Pin_1)*%
X34210000Y-82774938D03*
%TD*%
D15*
%TO.P,SW21,1,1*%
%TO.N,Net-(D30-A)*%
X133085714Y-155420000D03*
%TO.P,SW21,2,2*%
%TO.N,Net-(A1-D3)*%
X126735714Y-157960000D03*
%TD*%
D16*
%TO.P,D19,1,K*%
%TO.N,Net-(A1-D11)*%
X174598000Y-91714938D03*
D14*
%TO.P,D19,2,A*%
%TO.N,Net-(D19-A)*%
X174598000Y-99334938D03*
%TD*%
D11*
%TO.P,RV2,1,1*%
%TO.N,GND*%
X70244286Y-37001840D03*
D12*
%TO.P,RV2,2,2*%
%TO.N,Net-(A1-A6)*%
X72744286Y-37001840D03*
%TO.P,RV2,3,3*%
%TO.N,5V*%
X75244286Y-37001840D03*
D17*
%TO.P,RV2,MP*%
%TO.N,N/C*%
X68344286Y-30001840D03*
X77144286Y-30001840D03*
%TD*%
D15*
%TO.P,SW16,1,1*%
%TO.N,Net-(D23-A)*%
X36750000Y-155420000D03*
%TO.P,SW16,2,2*%
%TO.N,Net-(A1-D4)*%
X30400000Y-157960000D03*
%TD*%
D14*
%TO.P,R8,1*%
%TO.N,Net-(D17-A)*%
X143166543Y-86114938D03*
%TO.P,R8,2*%
%TO.N,Net-(U1-S6)*%
X143166543Y-96274938D03*
%TD*%
D10*
%TO.P,J4,1,Pin_1*%
%TO.N,Net-(J21-Pin_33)*%
X170985642Y-30976778D03*
%TD*%
D11*
%TO.P,D22,1,K*%
%TO.N,GND*%
X52041571Y-144000000D03*
D12*
%TO.P,D22,2,A*%
%TO.N,Net-(D22-A)*%
X54581571Y-144000000D03*
%TD*%
D14*
%TO.P,R13,1*%
%TO.N,Net-(J21-Pin_13)*%
X94940571Y-99274938D03*
%TO.P,R13,2*%
%TO.N,Net-(U1-S3)*%
X84780571Y-99274938D03*
%TD*%
D11*
%TO.P,D9,1,K*%
%TO.N,GND*%
X70972572Y-94024938D03*
D12*
%TO.P,D9,2,A*%
%TO.N,Net-(D9-A)*%
X73512572Y-94024938D03*
%TD*%
D13*
%TO.P,U1,1,STROBE*%
%TO.N,Net-(A1-A5)*%
X25510642Y-71761840D03*
D14*
%TO.P,U1,2,A*%
%TO.N,Net-(A1-A0)*%
X28050642Y-71761840D03*
%TO.P,U1,3,B*%
%TO.N,Net-(A1-A1)*%
X30590642Y-71761840D03*
%TO.P,U1,4,S7*%
%TO.N,Net-(U1-S7)*%
X33130642Y-71761840D03*
%TO.P,U1,5,S6*%
%TO.N,Net-(U1-S6)*%
X35670642Y-71761840D03*
%TO.P,U1,6,S5*%
%TO.N,Net-(U1-S5)*%
X38210642Y-71761840D03*
%TO.P,U1,7,S4*%
%TO.N,Net-(U1-S4)*%
X40750642Y-71761840D03*
%TO.P,U1,8,S3*%
%TO.N,Net-(U1-S3)*%
X43290642Y-71761840D03*
%TO.P,U1,9,S1*%
%TO.N,Net-(U1-S1)*%
X45830642Y-71761840D03*
%TO.P,U1,10,S2*%
%TO.N,Net-(U1-S2)*%
X48370642Y-71761840D03*
%TO.P,U1,11,S0*%
%TO.N,Net-(U1-S0)*%
X50910642Y-71761840D03*
%TO.P,U1,12,GND*%
%TO.N,GND*%
X53450642Y-71761840D03*
%TO.P,U1,13,S13*%
%TO.N,Net-(U1-S13)*%
X53450642Y-64141840D03*
%TO.P,U1,14,S12*%
%TO.N,Net-(U1-S12)*%
X50910642Y-64141840D03*
%TO.P,U1,15,S15*%
%TO.N,Net-(U1-S15)*%
X48370642Y-64141840D03*
%TO.P,U1,16,S14*%
%TO.N,Net-(U1-S14)*%
X45830642Y-64141840D03*
%TO.P,U1,17,S9*%
%TO.N,Net-(U1-S9)*%
X43290642Y-64141840D03*
%TO.P,U1,18,S8*%
%TO.N,Net-(U1-S8)*%
X40750642Y-64141840D03*
%TO.P,U1,19,S11*%
%TO.N,Net-(U1-S11)*%
X38210642Y-64141840D03*
%TO.P,U1,20,S10*%
%TO.N,Net-(U1-S10)*%
X35670642Y-64141840D03*
%TO.P,U1,21,C*%
%TO.N,Net-(A1-A2)*%
X33130642Y-64141840D03*
%TO.P,U1,22,D*%
%TO.N,Net-(A1-A3)*%
X30590642Y-64141840D03*
%TO.P,U1,23,INHIBIT*%
%TO.N,Net-(A1-A4)*%
X28050642Y-64141840D03*
%TO.P,U1,24,Vcc*%
%TO.N,5V*%
X25510642Y-64141840D03*
%TD*%
D16*
%TO.P,D8,1,K*%
%TO.N,Net-(A1-D9)*%
X59014000Y-91714938D03*
D14*
%TO.P,D8,2,A*%
%TO.N,Net-(D8-A)*%
X59014000Y-99334938D03*
%TD*%
%TO.P,C1,1*%
%TO.N,GND*%
X144985642Y-43663465D03*
%TO.P,C1,2*%
%TO.N,5V*%
X149985642Y-43663465D03*
%TD*%
D15*
%TO.P,SW18,1,1*%
%TO.N,Net-(D26-A)*%
X75284286Y-155420000D03*
%TO.P,SW18,2,2*%
%TO.N,Net-(A1-D4)*%
X68934286Y-157960000D03*
%TD*%
D11*
%TO.P,RV1,1,1*%
%TO.N,GND*%
X31710000Y-37001840D03*
D12*
%TO.P,RV1,2,2*%
%TO.N,Net-(A1-A7)*%
X34210000Y-37001840D03*
%TO.P,RV1,3,3*%
%TO.N,5V*%
X36710000Y-37001840D03*
D17*
%TO.P,RV1,MP*%
%TO.N,N/C*%
X29810000Y-30001840D03*
X38610000Y-30001840D03*
%TD*%
D18*
%TO.P,J2,1,Pin_1*%
%TO.N,12V*%
X99100000Y-14000000D03*
D19*
%TO.P,J2,2,Pin_2*%
%TO.N,-12V*%
X99100000Y-11460000D03*
%TO.P,J2,3,Pin_3*%
%TO.N,GND*%
X101640000Y-14000000D03*
%TO.P,J2,4,Pin_4*%
X101640000Y-11460000D03*
%TO.P,J2,5,Pin_5*%
%TO.N,5V*%
X104180000Y-14000000D03*
%TO.P,J2,6,Pin_6*%
%TO.N,unconnected-(J2-Pin_6-Pad6)*%
X104180000Y-11460000D03*
%TD*%
D16*
%TO.P,D32,1,K*%
%TO.N,Net-(A1-D8)*%
X116798000Y-141690000D03*
D14*
%TO.P,D32,2,A*%
%TO.N,Net-(D32-A)*%
X116798000Y-149310000D03*
%TD*%
D10*
%TO.P,J11,1,Pin_1*%
%TO.N,Net-(J11-Pin_1)*%
X149812857Y-82774938D03*
%TD*%
D20*
%TO.P,A1,1,D1/TX*%
%TO.N,Net-(A1-D1{slash}TX)*%
X142435642Y-61773465D03*
D21*
%TO.P,A1,2,D0/RX*%
%TO.N,Net-(A1-D0{slash}RX)*%
X144975642Y-61773465D03*
%TO.P,A1,3,~{RESET}*%
%TO.N,unconnected-(A1-~{RESET}-Pad3)*%
X147515642Y-61773465D03*
%TO.P,A1,4,GND*%
%TO.N,GND*%
X150055642Y-61773465D03*
%TO.P,A1,5,D2*%
%TO.N,Net-(A1-D2)*%
X152595642Y-61773465D03*
%TO.P,A1,6,D3*%
%TO.N,Net-(A1-D3)*%
X155135642Y-61773465D03*
%TO.P,A1,7,D4*%
%TO.N,Net-(A1-D4)*%
X157675642Y-61773465D03*
%TO.P,A1,8,D5*%
%TO.N,Net-(A1-D5)*%
X160215642Y-61773465D03*
%TO.P,A1,9,D6*%
%TO.N,Net-(A1-D6)*%
X162755642Y-61773465D03*
%TO.P,A1,10,D7*%
%TO.N,Net-(A1-D7)*%
X165295642Y-61773465D03*
%TO.P,A1,11,D8*%
%TO.N,Net-(A1-D8)*%
X167835642Y-61773465D03*
%TO.P,A1,12,D9*%
%TO.N,Net-(A1-D9)*%
X170375642Y-61773465D03*
%TO.P,A1,13,D10*%
%TO.N,Net-(A1-D10)*%
X172915642Y-61773465D03*
%TO.P,A1,14,D11*%
%TO.N,Net-(A1-D11)*%
X175455642Y-61773465D03*
%TO.P,A1,15,D12*%
%TO.N,Net-(A1-D12)*%
X177995642Y-61773465D03*
%TO.P,A1,16,D13*%
%TO.N,unconnected-(A1-D13-Pad16)*%
X177995642Y-46533465D03*
%TO.P,A1,17,3V3*%
%TO.N,unconnected-(A1-3V3-Pad17)*%
X175455642Y-46533465D03*
%TO.P,A1,18,AREF*%
%TO.N,Net-(A1-AREF)*%
X172915642Y-46533465D03*
%TO.P,A1,19,A0*%
%TO.N,Net-(A1-A0)*%
X170375642Y-46533465D03*
%TO.P,A1,20,A1*%
%TO.N,Net-(A1-A1)*%
X167835642Y-46533465D03*
%TO.P,A1,21,A2*%
%TO.N,Net-(A1-A2)*%
X165295642Y-46533465D03*
%TO.P,A1,22,A3*%
%TO.N,Net-(A1-A3)*%
X162755642Y-46533465D03*
%TO.P,A1,23,A4*%
%TO.N,Net-(A1-A4)*%
X160215642Y-46533465D03*
%TO.P,A1,24,A5*%
%TO.N,Net-(A1-A5)*%
X157675642Y-46533465D03*
%TO.P,A1,25,A6*%
%TO.N,Net-(A1-A6)*%
X155135642Y-46533465D03*
%TO.P,A1,26,A7*%
%TO.N,Net-(A1-A7)*%
X152595642Y-46533465D03*
%TO.P,A1,27,+5V*%
%TO.N,5V*%
X150055642Y-46533465D03*
%TO.P,A1,28,~{RESET}*%
%TO.N,unconnected-(A1-~{RESET}-Pad28)*%
X147515642Y-46533465D03*
%TO.P,A1,29,GND*%
%TO.N,GND*%
X144975642Y-46533465D03*
%TO.P,A1,30,VIN*%
%TO.N,unconnected-(A1-VIN-Pad30)*%
X142435642Y-46533465D03*
%TD*%
D14*
%TO.P,R2,1*%
%TO.N,Net-(D5-A)*%
X27000000Y-86114938D03*
%TO.P,R2,2*%
%TO.N,Net-(U1-S0)*%
X27000000Y-96274938D03*
%TD*%
D15*
%TO.P,SW10,1,1*%
%TO.N,Net-(D10-A)*%
X75284286Y-105444938D03*
%TO.P,SW10,2,2*%
%TO.N,Net-(A1-D6)*%
X68934286Y-107984938D03*
%TD*%
D14*
%TO.P,R17,1*%
%TO.N,Net-(J12-Pin_1)*%
X171981333Y-99274938D03*
%TO.P,R17,2*%
%TO.N,Net-(U1-S7)*%
X161821333Y-99274938D03*
%TD*%
D16*
%TO.P,D23,1,K*%
%TO.N,Net-(A1-D8)*%
X39742000Y-141690000D03*
D14*
%TO.P,D23,2,A*%
%TO.N,Net-(D23-A)*%
X39742000Y-149310000D03*
%TD*%
%TO.P,R32,1*%
%TO.N,Net-(J19-Pin_1)*%
X152682667Y-149250000D03*
%TO.P,R32,2*%
%TO.N,Net-(U1-S14)*%
X142522667Y-149250000D03*
%TD*%
D15*
%TO.P,SW5,1,1*%
%TO.N,Net-(D1-A)*%
X56017143Y-46891840D03*
%TO.P,SW5,2,2*%
%TO.N,Net-(A1-D7)*%
X49667143Y-49431840D03*
%TD*%
D16*
%TO.P,D13,1,K*%
%TO.N,Net-(A1-D11)*%
X97542000Y-91714938D03*
D14*
%TO.P,D13,2,A*%
%TO.N,Net-(D13-A)*%
X97542000Y-99334938D03*
%TD*%
D16*
%TO.P,D18,1,K*%
%TO.N,Net-(A1-D10)*%
X155334000Y-91714938D03*
D14*
%TO.P,D18,2,A*%
%TO.N,Net-(D18-A)*%
X155334000Y-99334938D03*
%TD*%
%TO.P,R10,1*%
%TO.N,Net-(J21-Pin_1)*%
X37160000Y-99274938D03*
%TO.P,R10,2*%
%TO.N,Net-(U1-S0)*%
X27000000Y-99274938D03*
%TD*%
D16*
%TO.P,D16,1,K*%
%TO.N,Net-(A1-D8)*%
X116806000Y-91714938D03*
D14*
%TO.P,D16,2,A*%
%TO.N,Net-(D16-A)*%
X116806000Y-99334938D03*
%TD*%
%TO.P,R16,1*%
%TO.N,Net-(J11-Pin_1)*%
X152721143Y-99274938D03*
%TO.P,R16,2*%
%TO.N,Net-(U1-S6)*%
X142561143Y-99274938D03*
%TD*%
D10*
%TO.P,J20,1,Pin_1*%
%TO.N,Net-(J20-Pin_1)*%
X170250000Y-132750000D03*
%TD*%
D14*
%TO.P,R26,1*%
%TO.N,Net-(J13-Pin_1)*%
X37121524Y-149250000D03*
%TO.P,R26,2*%
%TO.N,Net-(U1-S8)*%
X26961524Y-149250000D03*
%TD*%
%TO.P,R33,1*%
%TO.N,Net-(J20-Pin_1)*%
X171942857Y-149250000D03*
%TO.P,R33,2*%
%TO.N,Net-(U1-S15)*%
X161782857Y-149250000D03*
%TD*%
D11*
%TO.P,D28,1,K*%
%TO.N,GND*%
X90667000Y-144000000D03*
D12*
%TO.P,D28,2,A*%
%TO.N,Net-(D28-A)*%
X93207000Y-144000000D03*
%TD*%
D16*
%TO.P,D34,1,K*%
%TO.N,Net-(A1-D10)*%
X155326000Y-141690000D03*
D14*
%TO.P,D34,2,A*%
%TO.N,Net-(D34-A)*%
X155326000Y-149310000D03*
%TD*%
D18*
%TO.P,J3,1,Pin_1*%
%TO.N,12V*%
X147267857Y-14000000D03*
D19*
%TO.P,J3,2,Pin_2*%
%TO.N,-12V*%
X147267857Y-11460000D03*
%TO.P,J3,3,Pin_3*%
%TO.N,GND*%
X149807857Y-14000000D03*
%TO.P,J3,4,Pin_4*%
X149807857Y-11460000D03*
%TO.P,J3,5,Pin_5*%
%TO.N,5V*%
X152347857Y-14000000D03*
%TO.P,J3,6,Pin_6*%
%TO.N,unconnected-(J3-Pin_6-Pad6)*%
X152347857Y-11460000D03*
%TD*%
D15*
%TO.P,SW9,1,1*%
%TO.N,Net-(D8-A)*%
X56017143Y-105444938D03*
%TO.P,SW9,2,2*%
%TO.N,Net-(A1-D6)*%
X49667143Y-107984938D03*
%TD*%
D14*
%TO.P,R25,1*%
%TO.N,Net-(D36-A)*%
X161942857Y-136090000D03*
%TO.P,R25,2*%
%TO.N,Net-(U1-S15)*%
X161942857Y-146250000D03*
%TD*%
D11*
%TO.P,D20,1,K*%
%TO.N,GND*%
X167536143Y-94024938D03*
D12*
%TO.P,D20,2,A*%
%TO.N,Net-(D20-A)*%
X170076143Y-94024938D03*
%TD*%
D11*
%TO.P,D25,1,K*%
%TO.N,GND*%
X71354286Y-144000000D03*
D12*
%TO.P,D25,2,A*%
%TO.N,Net-(D25-A)*%
X73894286Y-144000000D03*
%TD*%
D11*
%TO.P,D5,1,K*%
%TO.N,GND*%
X32347143Y-94024938D03*
D12*
%TO.P,D5,2,A*%
%TO.N,Net-(D5-A)*%
X34887143Y-94024938D03*
%TD*%
D15*
%TO.P,SW20,1,1*%
%TO.N,Net-(D32-A)*%
X113818571Y-155420000D03*
%TO.P,SW20,2,2*%
%TO.N,Net-(A1-D3)*%
X107468571Y-157960000D03*
%TD*%
D11*
%TO.P,D29,1,K*%
%TO.N,GND*%
X109979714Y-144000000D03*
D12*
%TO.P,D29,2,A*%
%TO.N,Net-(D29-A)*%
X112519714Y-144000000D03*
%TD*%
D14*
%TO.P,R15,1*%
%TO.N,Net-(J10-Pin_1)*%
X133460952Y-99274938D03*
%TO.P,R15,2*%
%TO.N,Net-(U1-S5)*%
X123300952Y-99274938D03*
%TD*%
D11*
%TO.P,D12,1,K*%
%TO.N,GND*%
X90285286Y-94024938D03*
D12*
%TO.P,D12,2,A*%
%TO.N,Net-(D12-A)*%
X92825286Y-94024938D03*
%TD*%
D13*
%TO.P,D2,1,K*%
%TO.N,Net-(A1-D8)*%
X42485642Y-54451840D03*
D14*
%TO.P,D2,2,A*%
%TO.N,Net-(D2-A)*%
X42485642Y-46831840D03*
%TD*%
D15*
%TO.P,SW7,1,1*%
%TO.N,Net-(D4-A)*%
X94551429Y-46891840D03*
%TO.P,SW7,2,2*%
%TO.N,Net-(A1-D7)*%
X88201429Y-49431840D03*
%TD*%
D14*
%TO.P,R24,1*%
%TO.N,Net-(D33-A)*%
X142581767Y-136090000D03*
%TO.P,R24,2*%
%TO.N,Net-(U1-S14)*%
X142581767Y-146250000D03*
%TD*%
D11*
%TO.P,D17,1,K*%
%TO.N,GND*%
X148223429Y-94024938D03*
D12*
%TO.P,D17,2,A*%
%TO.N,Net-(D17-A)*%
X150763429Y-94024938D03*
%TD*%
D14*
%TO.P,R21,1*%
%TO.N,Net-(D25-A)*%
X65137405Y-136090000D03*
%TO.P,R21,2*%
%TO.N,Net-(U1-S10)*%
X65137405Y-146250000D03*
%TD*%
%TO.P,R22,1*%
%TO.N,Net-(D29-A)*%
X103859586Y-136090000D03*
%TO.P,R22,2*%
%TO.N,Net-(U1-S12)*%
X103859586Y-146250000D03*
%TD*%
%TO.P,R5,1*%
%TO.N,Net-(D9-A)*%
X65722181Y-86114938D03*
%TO.P,R5,2*%
%TO.N,Net-(U1-S2)*%
X65722181Y-96274938D03*
%TD*%
%TO.P,R7,1*%
%TO.N,Net-(D14-A)*%
X123805452Y-86114938D03*
%TO.P,R7,2*%
%TO.N,Net-(U1-S5)*%
X123805452Y-96274938D03*
%TD*%
D10*
%TO.P,J7,1,Pin_1*%
%TO.N,Net-(J21-Pin_9)*%
X72744286Y-82774938D03*
%TD*%
D11*
%TO.P,D31,1,K*%
%TO.N,GND*%
X129292428Y-144000000D03*
D12*
%TO.P,D31,2,A*%
%TO.N,Net-(D31-A)*%
X131832428Y-144000000D03*
%TD*%
D16*
%TO.P,D30,1,K*%
%TO.N,Net-(A1-D9)*%
X136062000Y-141690000D03*
D14*
%TO.P,D30,2,A*%
%TO.N,Net-(D30-A)*%
X136062000Y-149310000D03*
%TD*%
D22*
%TO.P,SW3,1,C*%
%TO.N,unconnected-(SW3-C-Pad1)*%
X155391284Y-35451840D03*
%TO.P,SW3,2,B*%
%TO.N,Net-(A1-D0{slash}RX)*%
X155391284Y-30951840D03*
%TO.P,SW3,3,A*%
%TO.N,GND*%
X155391284Y-26451840D03*
%TD*%
D10*
%TO.P,J10,1,Pin_1*%
%TO.N,Net-(J10-Pin_1)*%
X130545714Y-82774938D03*
%TD*%
D22*
%TO.P,SW1,1,C*%
%TO.N,unconnected-(SW1-C-Pad1)*%
X113000000Y-35500000D03*
%TO.P,SW1,2,B*%
%TO.N,Net-(A1-D12)*%
X113000000Y-31000000D03*
%TO.P,SW1,3,A*%
%TO.N,GND*%
X113000000Y-26500000D03*
%TD*%
D14*
%TO.P,R18,1*%
%TO.N,Net-(D21-A)*%
X26735642Y-136041840D03*
%TO.P,R18,2*%
%TO.N,Net-(U1-S8)*%
X26735642Y-146201840D03*
%TD*%
%TO.P,R12,1*%
%TO.N,Net-(J21-Pin_9)*%
X75680381Y-99274938D03*
%TO.P,R12,2*%
%TO.N,Net-(U1-S2)*%
X65520381Y-99274938D03*
%TD*%
D10*
%TO.P,J17,1,Pin_1*%
%TO.N,Net-(J17-Pin_1)*%
X92512857Y-132750000D03*
%TD*%
D16*
%TO.P,D15,1,K*%
%TO.N,Net-(A1-D9)*%
X136070000Y-91714938D03*
D14*
%TO.P,D15,2,A*%
%TO.N,Net-(D15-A)*%
X136070000Y-99334938D03*
%TD*%
D11*
%TO.P,D21,1,K*%
%TO.N,GND*%
X32728857Y-144000000D03*
D12*
%TO.P,D21,2,A*%
%TO.N,Net-(D21-A)*%
X35268857Y-144000000D03*
%TD*%
D16*
%TO.P,D26,1,K*%
%TO.N,Net-(A1-D10)*%
X78270000Y-141690000D03*
D14*
%TO.P,D26,2,A*%
%TO.N,Net-(D26-A)*%
X78270000Y-149310000D03*
%TD*%
D10*
%TO.P,J9,1,Pin_1*%
%TO.N,Net-(J21-Pin_13)*%
X92011429Y-82774938D03*
%TD*%
%TO.P,J19,1,Pin_1*%
%TO.N,Net-(J19-Pin_1)*%
X150815714Y-132750000D03*
%TD*%
D14*
%TO.P,R28,1*%
%TO.N,Net-(J15-Pin_1)*%
X75641905Y-149250000D03*
%TO.P,R28,2*%
%TO.N,Net-(U1-S10)*%
X65481905Y-149250000D03*
%TD*%
D16*
%TO.P,D7,1,K*%
%TO.N,Net-(A1-D8)*%
X39750000Y-91714938D03*
D14*
%TO.P,D7,2,A*%
%TO.N,Net-(D7-A)*%
X39750000Y-99334938D03*
%TD*%
D18*
%TO.P,J1,1,Pin_1*%
%TO.N,12V*%
X50932143Y-14000000D03*
D19*
%TO.P,J1,2,Pin_2*%
%TO.N,-12V*%
X50932143Y-11460000D03*
%TO.P,J1,3,Pin_3*%
%TO.N,GND*%
X53472143Y-14000000D03*
%TO.P,J1,4,Pin_4*%
X53472143Y-11460000D03*
%TO.P,J1,5,Pin_5*%
%TO.N,5V*%
X56012143Y-14000000D03*
%TO.P,J1,6,Pin_6*%
%TO.N,unconnected-(J1-Pin_6-Pad6)*%
X56012143Y-11460000D03*
%TD*%
D14*
%TO.P,R19,1*%
%TO.N,Net-(D22-A)*%
X45776314Y-136090000D03*
%TO.P,R19,2*%
%TO.N,Net-(U1-S9)*%
X45776314Y-146250000D03*
%TD*%
D22*
%TO.P,SW2,1,C*%
%TO.N,unconnected-(SW2-C-Pad1)*%
X128000000Y-35500000D03*
%TO.P,SW2,2,B*%
%TO.N,Net-(A1-D1{slash}TX)*%
X128000000Y-31000000D03*
%TO.P,SW2,3,A*%
%TO.N,GND*%
X128000000Y-26500000D03*
%TD*%
D10*
%TO.P,J16,1,Pin_1*%
%TO.N,Net-(J16-Pin_1)*%
X111947143Y-132750000D03*
%TD*%
D11*
%TO.P,D36,1,K*%
%TO.N,GND*%
X167917857Y-144000000D03*
D12*
%TO.P,D36,2,A*%
%TO.N,Net-(D36-A)*%
X170457857Y-144000000D03*
%TD*%
D13*
%TO.P,D3,1,K*%
%TO.N,Net-(A1-D10)*%
X80985642Y-54451840D03*
D14*
%TO.P,D3,2,A*%
%TO.N,Net-(D3-A)*%
X80985642Y-46831840D03*
%TD*%
D15*
%TO.P,SW8,1,1*%
%TO.N,Net-(D7-A)*%
X36750000Y-105444938D03*
%TO.P,SW8,2,2*%
%TO.N,Net-(A1-D6)*%
X30400000Y-107984938D03*
%TD*%
%TO.P,SW14,1,1*%
%TO.N,Net-(D18-A)*%
X152352857Y-105444938D03*
%TO.P,SW14,2,2*%
%TO.N,Net-(A1-D5)*%
X146002857Y-107984938D03*
%TD*%
D14*
%TO.P,R4,1*%
%TO.N,Net-(D12-A)*%
X85083271Y-86114938D03*
%TO.P,R4,2*%
%TO.N,Net-(U1-S3)*%
X85083271Y-96274938D03*
%TD*%
D16*
%TO.P,D35,1,K*%
%TO.N,Net-(A1-D11)*%
X174590000Y-141690000D03*
D14*
%TO.P,D35,2,A*%
%TO.N,Net-(D35-A)*%
X174590000Y-149310000D03*
%TD*%
D15*
%TO.P,SW4,1,1*%
%TO.N,Net-(D2-A)*%
X36750000Y-46891840D03*
%TO.P,SW4,2,2*%
%TO.N,Net-(A1-D7)*%
X30400000Y-49431840D03*
%TD*%
D14*
%TO.P,R1,1*%
%TO.N,Net-(J21-Pin_33)*%
X162891284Y-36031840D03*
%TO.P,R1,2*%
%TO.N,Net-(A1-D2)*%
X162891284Y-25871840D03*
%TD*%
%TO.P,R23,1*%
%TO.N,Net-(D31-A)*%
X123220676Y-136090000D03*
%TO.P,R23,2*%
%TO.N,Net-(U1-S13)*%
X123220676Y-146250000D03*
%TD*%
%TO.P,R14,1*%
%TO.N,Net-(J21-Pin_17)*%
X114200762Y-99274938D03*
%TO.P,R14,2*%
%TO.N,Net-(U1-S4)*%
X104040762Y-99274938D03*
%TD*%
D15*
%TO.P,SW22,1,1*%
%TO.N,Net-(D34-A)*%
X152352857Y-155420000D03*
%TO.P,SW22,2,2*%
%TO.N,Net-(A1-D3)*%
X146002857Y-157960000D03*
%TD*%
D14*
%TO.P,C2,1*%
%TO.N,GND*%
X177964295Y-43781940D03*
%TO.P,C2,2*%
%TO.N,Net-(A1-AREF)*%
X172964295Y-43781940D03*
%TD*%
D15*
%TO.P,SW12,1,1*%
%TO.N,Net-(D16-A)*%
X113818571Y-105444938D03*
%TO.P,SW12,2,2*%
%TO.N,Net-(A1-D5)*%
X107468571Y-107984938D03*
%TD*%
D10*
%TO.P,J6,1,Pin_1*%
%TO.N,Net-(J21-Pin_5)*%
X53477143Y-82774938D03*
%TD*%
D14*
%TO.P,R31,1*%
%TO.N,Net-(J18-Pin_1)*%
X133422476Y-149250000D03*
%TO.P,R31,2*%
%TO.N,Net-(U1-S13)*%
X123262476Y-149250000D03*
%TD*%
%TO.P,R27,1*%
%TO.N,Net-(J14-Pin_1)*%
X56381714Y-149250000D03*
%TO.P,R27,2*%
%TO.N,Net-(U1-S9)*%
X46221714Y-149250000D03*
%TD*%
D16*
%TO.P,D24,1,K*%
%TO.N,Net-(A1-D9)*%
X59006000Y-141690000D03*
D14*
%TO.P,D24,2,A*%
%TO.N,Net-(D24-A)*%
X59006000Y-149310000D03*
%TD*%
D16*
%TO.P,D27,1,K*%
%TO.N,Net-(A1-D11)*%
X97534000Y-141690000D03*
D14*
%TO.P,D27,2,A*%
%TO.N,Net-(D27-A)*%
X97534000Y-149310000D03*
%TD*%
%TO.P,R20,1*%
%TO.N,Net-(D28-A)*%
X84498495Y-136090000D03*
%TO.P,R20,2*%
%TO.N,Net-(U1-S11)*%
X84498495Y-146250000D03*
%TD*%
D15*
%TO.P,SW13,1,1*%
%TO.N,Net-(D15-A)*%
X133085714Y-105444938D03*
%TO.P,SW13,2,2*%
%TO.N,Net-(A1-D5)*%
X126735714Y-107984938D03*
%TD*%
%TO.P,SW23,1,1*%
%TO.N,Net-(D35-A)*%
X171620000Y-155420000D03*
%TO.P,SW23,2,2*%
%TO.N,Net-(A1-D3)*%
X165270000Y-157960000D03*
%TD*%
%TO.P,SW11,1,1*%
%TO.N,Net-(D13-A)*%
X94551429Y-105444938D03*
%TO.P,SW11,2,2*%
%TO.N,Net-(A1-D6)*%
X88201429Y-107984938D03*
%TD*%
D14*
%TO.P,R6,1*%
%TO.N,Net-(D11-A)*%
X104444362Y-86114938D03*
%TO.P,R6,2*%
%TO.N,Net-(U1-S4)*%
X104444362Y-96274938D03*
%TD*%
D23*
%TO.P,J21,1,Pin_1*%
%TO.N,Net-(J21-Pin_1)*%
X61180000Y-173500000D03*
D19*
%TO.P,J21,2,Pin_2*%
%TO.N,Net-(D5-A)*%
X63720000Y-173500000D03*
%TO.P,J21,3,Pin_3*%
%TO.N,Net-(J13-Pin_1)*%
X66260000Y-173500000D03*
%TO.P,J21,4,Pin_4*%
%TO.N,Net-(D21-A)*%
X68800000Y-173500000D03*
%TO.P,J21,5,Pin_5*%
%TO.N,Net-(J21-Pin_5)*%
X71340000Y-173500000D03*
%TO.P,J21,6,Pin_6*%
%TO.N,Net-(D6-A)*%
X73880000Y-173500000D03*
%TO.P,J21,7,Pin_7*%
%TO.N,Net-(J14-Pin_1)*%
X76420000Y-173500000D03*
%TO.P,J21,8,Pin_8*%
%TO.N,Net-(D22-A)*%
X78960000Y-173500000D03*
%TO.P,J21,9,Pin_9*%
%TO.N,Net-(J21-Pin_9)*%
X81500000Y-173500000D03*
%TO.P,J21,10,Pin_10*%
%TO.N,Net-(D9-A)*%
X84040000Y-173500000D03*
%TO.P,J21,11,Pin_11*%
%TO.N,Net-(J15-Pin_1)*%
X86580000Y-173500000D03*
%TO.P,J21,12,Pin_12*%
%TO.N,Net-(D25-A)*%
X89120000Y-173500000D03*
%TO.P,J21,13,Pin_13*%
%TO.N,Net-(J21-Pin_13)*%
X91660000Y-173500000D03*
%TO.P,J21,14,Pin_14*%
%TO.N,Net-(D12-A)*%
X94200000Y-173500000D03*
%TO.P,J21,15,Pin_15*%
%TO.N,Net-(J17-Pin_1)*%
X96740000Y-173500000D03*
%TO.P,J21,16,Pin_16*%
%TO.N,Net-(D28-A)*%
X99280000Y-173500000D03*
%TO.P,J21,17,Pin_17*%
%TO.N,Net-(J21-Pin_17)*%
X101820000Y-173500000D03*
%TO.P,J21,18,Pin_18*%
%TO.N,Net-(D11-A)*%
X104360000Y-173500000D03*
%TO.P,J21,19,Pin_19*%
%TO.N,Net-(J16-Pin_1)*%
X106900000Y-173500000D03*
%TO.P,J21,20,Pin_20*%
%TO.N,Net-(D29-A)*%
X109440000Y-173500000D03*
%TO.P,J21,21,Pin_21*%
%TO.N,Net-(J10-Pin_1)*%
X111980000Y-173500000D03*
%TO.P,J21,22,Pin_22*%
%TO.N,Net-(D14-A)*%
X114520000Y-173500000D03*
%TO.P,J21,23,Pin_23*%
%TO.N,Net-(J18-Pin_1)*%
X117060000Y-173500000D03*
%TO.P,J21,24,Pin_24*%
%TO.N,Net-(D31-A)*%
X119600000Y-173500000D03*
%TO.P,J21,25,Pin_25*%
%TO.N,Net-(J11-Pin_1)*%
X122140000Y-173500000D03*
%TO.P,J21,26,Pin_26*%
%TO.N,Net-(D17-A)*%
X124680000Y-173500000D03*
%TO.P,J21,27,Pin_27*%
%TO.N,Net-(J19-Pin_1)*%
X127220000Y-173500000D03*
%TO.P,J21,28,Pin_28*%
%TO.N,Net-(D33-A)*%
X129760000Y-173500000D03*
%TO.P,J21,29,Pin_29*%
%TO.N,Net-(J12-Pin_1)*%
X132300000Y-173500000D03*
%TO.P,J21,30,Pin_30*%
%TO.N,Net-(D20-A)*%
X134840000Y-173500000D03*
%TO.P,J21,31,Pin_31*%
%TO.N,Net-(J20-Pin_1)*%
X137380000Y-173500000D03*
%TO.P,J21,32,Pin_32*%
%TO.N,Net-(D36-A)*%
X139920000Y-173500000D03*
%TO.P,J21,33,Pin_33*%
%TO.N,Net-(J21-Pin_33)*%
X142460000Y-173500000D03*
%TO.P,J21,34,Pin_34*%
%TO.N,GND*%
X145000000Y-173500000D03*
%TD*%
D11*
%TO.P,D6,1,K*%
%TO.N,GND*%
X51659857Y-94024938D03*
D12*
%TO.P,D6,2,A*%
%TO.N,Net-(D6-A)*%
X54199857Y-94024938D03*
%TD*%
D14*
%TO.P,R3,1*%
%TO.N,Net-(D6-A)*%
X46361090Y-86114938D03*
%TO.P,R3,2*%
%TO.N,Net-(U1-S1)*%
X46361090Y-96274938D03*
%TD*%
%TO.P,R30,1*%
%TO.N,Net-(J16-Pin_1)*%
X114162286Y-149250000D03*
%TO.P,R30,2*%
%TO.N,Net-(U1-S12)*%
X104002286Y-149250000D03*
%TD*%
D10*
%TO.P,J12,1,Pin_1*%
%TO.N,Net-(J12-Pin_1)*%
X169080000Y-82774938D03*
%TD*%
D16*
%TO.P,D10,1,K*%
%TO.N,Net-(A1-D10)*%
X78278000Y-91714938D03*
D14*
%TO.P,D10,2,A*%
%TO.N,Net-(D10-A)*%
X78278000Y-99334938D03*
%TD*%
D10*
%TO.P,J13,1,Pin_1*%
%TO.N,Net-(J13-Pin_1)*%
X34210000Y-132750000D03*
%TD*%
%TO.P,J18,1,Pin_1*%
%TO.N,Net-(J18-Pin_1)*%
X131381429Y-132750000D03*
%TD*%
D11*
%TO.P,D33,1,K*%
%TO.N,GND*%
X148605143Y-144000000D03*
D12*
%TO.P,D33,2,A*%
%TO.N,Net-(D33-A)*%
X151145143Y-144000000D03*
%TD*%
D10*
%TO.P,J8,1,Pin_1*%
%TO.N,Net-(J21-Pin_17)*%
X111278571Y-82774938D03*
%TD*%
D11*
%TO.P,D11,1,K*%
%TO.N,GND*%
X109598000Y-94024938D03*
D12*
%TO.P,D11,2,A*%
%TO.N,Net-(D11-A)*%
X112138000Y-94024938D03*
%TD*%
D15*
%TO.P,SW19,1,1*%
%TO.N,Net-(D27-A)*%
X94551429Y-155420000D03*
%TO.P,SW19,2,2*%
%TO.N,Net-(A1-D4)*%
X88201429Y-157960000D03*
%TD*%
%TO.P,SW6,1,1*%
%TO.N,Net-(D3-A)*%
X75284286Y-46891840D03*
%TO.P,SW6,2,2*%
%TO.N,Net-(A1-D7)*%
X68934286Y-49431840D03*
%TD*%
D14*
%TO.P,R29,1*%
%TO.N,Net-(J17-Pin_1)*%
X94902095Y-149250000D03*
%TO.P,R29,2*%
%TO.N,Net-(U1-S11)*%
X84742095Y-149250000D03*
%TD*%
D15*
%TO.P,SW15,1,1*%
%TO.N,Net-(D19-A)*%
X171620000Y-105444938D03*
%TO.P,SW15,2,2*%
%TO.N,Net-(A1-D5)*%
X165270000Y-107984938D03*
%TD*%
D24*
%TO.N,Net-(A1-D12)*%
X113000000Y-31000000D02*
X121644840Y-39644840D01*
X165044067Y-39644840D02*
X171476642Y-46077415D01*
X171476642Y-46077415D02*
X171476642Y-55254465D01*
X171476642Y-55254465D02*
X177995642Y-61773465D01*
X121644840Y-39644840D02*
X165044067Y-39644840D01*
%TO.N,GND*%
X178451692Y-139714468D02*
X175375160Y-142791000D01*
X37416592Y-65242840D02*
X46931642Y-65242840D01*
X54623143Y-10309000D02*
X100489000Y-10309000D01*
X102791000Y-10309000D02*
X148656857Y-10309000D01*
X177708271Y-43781940D02*
X160378171Y-26451840D01*
X144163465Y-43663465D02*
X143352840Y-42852840D01*
X35636692Y-62550840D02*
X36771642Y-63685790D01*
X31710000Y-37001840D02*
X32911000Y-38202840D01*
X26584642Y-62550840D02*
X35636692Y-62550840D01*
X36771642Y-64597890D02*
X37416592Y-65242840D01*
X25911642Y-61877840D02*
X26584642Y-62550840D01*
X101640000Y-11460000D02*
X101640000Y-14000000D01*
X150055642Y-61773465D02*
X150055642Y-51613465D01*
X171658857Y-147976950D02*
X166671000Y-152964807D01*
X101640000Y-11460000D02*
X102791000Y-10309000D01*
X177964295Y-43781940D02*
X179096642Y-44914287D01*
X69043286Y-38202840D02*
X70244286Y-37001840D01*
X169118857Y-142799000D02*
X170955328Y-142799000D01*
X169126857Y-142791000D02*
X167917857Y-144000000D01*
X166671000Y-152964807D02*
X166671000Y-160333582D01*
X149807857Y-11460000D02*
X149807857Y-14000000D01*
X179096642Y-62229515D02*
X178451692Y-62874465D01*
X175375160Y-142791000D02*
X169126857Y-142791000D01*
X144985642Y-46523465D02*
X144975642Y-46533465D01*
X32911000Y-38202840D02*
X69043286Y-38202840D01*
X53472143Y-11460000D02*
X54623143Y-10309000D01*
X145000000Y-173500000D02*
X153504582Y-173500000D01*
X144985642Y-43663465D02*
X144985642Y-46523465D01*
X170955328Y-142799000D02*
X171658857Y-143502529D01*
X153504582Y-173500000D02*
X166671000Y-160333582D01*
X144985642Y-43663465D02*
X144163465Y-43663465D01*
X46931642Y-65242840D02*
X53450642Y-71761840D01*
X143352840Y-42852840D02*
X28844642Y-42852840D01*
X171658857Y-143502529D02*
X171658857Y-147976950D01*
X25911642Y-45785840D02*
X28844642Y-42852840D01*
X53472143Y-11460000D02*
X53472143Y-14000000D01*
X179096642Y-44914287D02*
X179096642Y-62229515D01*
X178451692Y-62874465D02*
X178451692Y-139714468D01*
X150055642Y-51613465D02*
X144975642Y-46533465D01*
X100489000Y-10309000D02*
X101640000Y-11460000D01*
X148656857Y-10309000D02*
X149807857Y-11460000D01*
X160378171Y-26451840D02*
X155391284Y-26451840D01*
X177964295Y-43781940D02*
X177708271Y-43781940D01*
X167917857Y-144000000D02*
X169118857Y-142799000D01*
X36771642Y-63685790D02*
X36771642Y-64597890D01*
X25911642Y-45785840D02*
X25911642Y-61877840D01*
%TO.N,Net-(A1-A5)*%
X34231642Y-64597890D02*
X31691642Y-67137890D01*
X153193017Y-42050840D02*
X28512442Y-42050840D01*
X34231642Y-63685790D02*
X34231642Y-64597890D01*
X33497692Y-62951840D02*
X34231642Y-63685790D01*
X25109642Y-45453640D02*
X25109642Y-62951840D01*
X31691642Y-72217890D02*
X31046692Y-72862840D01*
X25054592Y-65242840D02*
X26382542Y-65242840D01*
X24409642Y-63651840D02*
X24409642Y-64597890D01*
X27683592Y-62951840D02*
X33497692Y-62951840D01*
X24409642Y-64597890D02*
X25054592Y-65242840D01*
X26949642Y-64675740D02*
X26949642Y-63685790D01*
X25109642Y-62951840D02*
X24409642Y-63651840D01*
X28512442Y-42050840D02*
X25109642Y-45453640D01*
X31691642Y-67137890D02*
X31691642Y-72217890D01*
X157675642Y-46533465D02*
X153193017Y-42050840D01*
X26382542Y-65242840D02*
X26949642Y-64675740D01*
X31046692Y-72862840D02*
X26611642Y-72862840D01*
X26949642Y-63685790D02*
X27683592Y-62951840D01*
X26611642Y-72862840D02*
X25510642Y-71761840D01*
%TO.N,5V*%
X148774017Y-42451840D02*
X28678542Y-42451840D01*
X103029000Y-15151000D02*
X104180000Y-14000000D01*
X37911000Y-35800840D02*
X74043286Y-35800840D01*
X74043286Y-35800840D02*
X75244286Y-37001840D01*
X57163143Y-15151000D02*
X103029000Y-15151000D01*
X149985642Y-43663465D02*
X149985642Y-46463465D01*
X105331000Y-15151000D02*
X151196857Y-15151000D01*
X36710000Y-37001840D02*
X37911000Y-35800840D01*
X151196857Y-15151000D02*
X152347857Y-14000000D01*
X28678542Y-42451840D02*
X25510642Y-45619740D01*
X25510642Y-45619740D02*
X25510642Y-64141840D01*
X149985642Y-43663465D02*
X148774017Y-42451840D01*
X56012143Y-14000000D02*
X57163143Y-15151000D01*
X104180000Y-14000000D02*
X105331000Y-15151000D01*
X149985642Y-46463465D02*
X150055642Y-46533465D01*
%TO.N,Net-(A1-A0)*%
X170375642Y-46533465D02*
X163888017Y-40045840D01*
X24224092Y-67247840D02*
X25509542Y-67247840D01*
X28050642Y-69788940D02*
X28050642Y-71761840D01*
X163888017Y-40045840D02*
X27623242Y-40045840D01*
X25509542Y-67247840D02*
X28050642Y-69788940D01*
X22404642Y-65428390D02*
X24224092Y-67247840D01*
X23084642Y-62084440D02*
X22404642Y-62764440D01*
X22404642Y-62764440D02*
X22404642Y-65428390D01*
X23084642Y-44584440D02*
X23084642Y-62084440D01*
X27623242Y-40045840D02*
X23084642Y-44584440D01*
%TO.N,Net-(A1-A1)*%
X25675642Y-66846840D02*
X30590642Y-71761840D01*
X27789342Y-40446840D02*
X23485642Y-44750540D01*
X161749017Y-40446840D02*
X27789342Y-40446840D01*
X24390192Y-66846840D02*
X25675642Y-66846840D01*
X22805642Y-62930540D02*
X22805642Y-65262290D01*
X23485642Y-44750540D02*
X23485642Y-62250540D01*
X22805642Y-65262290D02*
X24390192Y-66846840D01*
X23485642Y-62250540D02*
X22805642Y-62930540D01*
X167835642Y-46533465D02*
X161749017Y-40446840D01*
%TO.N,Net-(A1-AREF)*%
X172915642Y-46533465D02*
X172915642Y-43830593D01*
X172915642Y-43830593D02*
X172964295Y-43781940D01*
%TO.N,Net-(A1-A4)*%
X24888492Y-65643840D02*
X26548642Y-65643840D01*
X26548642Y-65643840D02*
X28050642Y-64141840D01*
X155332017Y-41649840D02*
X28287642Y-41649840D01*
X24708642Y-62728840D02*
X24008642Y-63428840D01*
X24008642Y-63428840D02*
X24008642Y-64763990D01*
X24008642Y-64763990D02*
X24888492Y-65643840D01*
X160215642Y-46533465D02*
X155332017Y-41649840D01*
X28287642Y-41649840D02*
X24708642Y-45228840D01*
X24708642Y-45228840D02*
X24708642Y-62728840D01*
%TO.N,Net-(A1-A3)*%
X28687642Y-66044840D02*
X24722392Y-66044840D01*
X24307642Y-62562740D02*
X24307642Y-45062740D01*
X28121542Y-41248840D02*
X157471017Y-41248840D01*
X24307642Y-45062740D02*
X28121542Y-41248840D01*
X23607642Y-63262740D02*
X24307642Y-62562740D01*
X157471017Y-41248840D02*
X162755642Y-46533465D01*
X30590642Y-64141840D02*
X28687642Y-66044840D01*
X24722392Y-66044840D02*
X23607642Y-64930090D01*
X23607642Y-64930090D02*
X23607642Y-63262740D01*
%TO.N,Net-(A1-A2)*%
X23906642Y-44896640D02*
X23906642Y-62396640D01*
X159610017Y-40847840D02*
X27955442Y-40847840D01*
X165295642Y-46533465D02*
X159610017Y-40847840D01*
X24556292Y-66445840D02*
X30826642Y-66445840D01*
X30826642Y-66445840D02*
X33130642Y-64141840D01*
X23206642Y-63096640D02*
X23206642Y-65096190D01*
X23906642Y-62396640D02*
X23206642Y-63096640D01*
X27955442Y-40847840D02*
X23906642Y-44896640D01*
X23206642Y-65096190D02*
X24556292Y-66445840D01*
%TO.N,Net-(A1-D10)*%
X80985642Y-54451840D02*
X80985642Y-89007296D01*
X80985642Y-89007296D02*
X78278000Y-91714938D01*
X155334000Y-90296984D02*
X155334000Y-91714938D01*
X79379000Y-140581000D02*
X78270000Y-141690000D01*
X167179144Y-78451840D02*
X155334000Y-90296984D01*
X172485642Y-78451840D02*
X167179144Y-78451840D01*
X79379000Y-92815938D02*
X79379000Y-140581000D01*
X173505458Y-61773465D02*
X174197000Y-62465007D01*
X172915642Y-61773465D02*
X173505458Y-61773465D01*
X174197000Y-76740482D02*
X172485642Y-78451840D01*
X174197000Y-62465007D02*
X174197000Y-76740482D01*
X156435000Y-92815938D02*
X156435000Y-140581000D01*
X78278000Y-91714938D02*
X79379000Y-92815938D01*
X155334000Y-91714938D02*
X156435000Y-92815938D01*
X156435000Y-140581000D02*
X155326000Y-141690000D01*
%TO.N,Net-(A1-D11)*%
X174598000Y-91714938D02*
X174598000Y-62631107D01*
X98643000Y-92815938D02*
X98643000Y-140581000D01*
X175699000Y-92815938D02*
X175699000Y-140581000D01*
X174598000Y-91714938D02*
X175699000Y-92815938D01*
X175699000Y-140581000D02*
X174590000Y-141690000D01*
X174598000Y-62631107D02*
X175455642Y-61773465D01*
X97542000Y-91714938D02*
X97542000Y-57145482D01*
X97542000Y-57145482D02*
X100235642Y-54451840D01*
X97542000Y-91714938D02*
X98643000Y-92815938D01*
X98643000Y-140581000D02*
X97534000Y-141690000D01*
%TO.N,Net-(D5-A)*%
X25634642Y-150001840D02*
X27084642Y-151451840D01*
X27084642Y-151451840D02*
X27084642Y-161718842D01*
X27084642Y-161718842D02*
X34865800Y-169500000D01*
X25634642Y-103277439D02*
X25634642Y-150001840D01*
X34887143Y-94024938D02*
X25634642Y-103277439D01*
X34865800Y-169500000D02*
X59690000Y-169500000D01*
X27000000Y-86114938D02*
X34887143Y-94002081D01*
X34887143Y-94002081D02*
X34887143Y-94024938D01*
X59690000Y-169500000D02*
X63665000Y-173475000D01*
%TO.N,Net-(D6-A)*%
X52500000Y-167500000D02*
X46334642Y-161334642D01*
X44675314Y-103549481D02*
X54199857Y-94024938D01*
X44675314Y-149542512D02*
X44675314Y-103549481D01*
X46361090Y-86114938D02*
X54199857Y-93953705D01*
X54199857Y-93953705D02*
X54199857Y-94024938D01*
X46334642Y-161334642D02*
X46334642Y-151201840D01*
X73825000Y-173475000D02*
X67850000Y-167500000D01*
X46334642Y-151201840D02*
X44675314Y-149542512D01*
X67850000Y-167500000D02*
X52500000Y-167500000D01*
%TO.N,Net-(D7-A)*%
X39750000Y-102444938D02*
X36750000Y-105444938D01*
X39750000Y-99334938D02*
X39750000Y-102444938D01*
%TO.N,Net-(D8-A)*%
X59014000Y-102448081D02*
X56017143Y-105444938D01*
X59014000Y-99334938D02*
X59014000Y-102448081D01*
%TO.N,Net-(D9-A)*%
X70029616Y-165698000D02*
X76208000Y-165698000D01*
X65584642Y-161253026D02*
X70029616Y-165698000D01*
X64036405Y-149903603D02*
X65584642Y-151451840D01*
X65722181Y-86114938D02*
X65722181Y-86234547D01*
X76208000Y-165698000D02*
X83985000Y-173475000D01*
X65722181Y-86234547D02*
X73512572Y-94024938D01*
X64036405Y-103501105D02*
X64036405Y-149903603D01*
X73512572Y-94024938D02*
X64036405Y-103501105D01*
X65584642Y-151451840D02*
X65584642Y-161253026D01*
%TO.N,Net-(D10-A)*%
X78278000Y-102451224D02*
X75284286Y-105444938D01*
X78278000Y-99334938D02*
X78278000Y-102451224D01*
%TO.N,Net-(D11-A)*%
X104305000Y-173475000D02*
X104195571Y-173365571D01*
X112138000Y-93808576D02*
X112138000Y-94024938D01*
X104195571Y-151451840D02*
X100279000Y-147535269D01*
X100279000Y-105883938D02*
X112138000Y-94024938D01*
X104444362Y-86114938D02*
X112138000Y-93808576D01*
X104195571Y-173365571D02*
X104195571Y-151451840D01*
X100279000Y-147535269D02*
X100279000Y-105883938D01*
%TO.N,Net-(D12-A)*%
X85083271Y-86114938D02*
X92825286Y-93856953D01*
X83397495Y-103452729D02*
X92825286Y-94024938D01*
X84928429Y-164258429D02*
X84928429Y-151451840D01*
X84928429Y-151451840D02*
X83397495Y-149920906D01*
X94145000Y-173475000D02*
X84928429Y-164258429D01*
X83397495Y-149920906D02*
X83397495Y-103452729D01*
X92825286Y-93856953D02*
X92825286Y-94024938D01*
%TO.N,Net-(D13-A)*%
X97542000Y-102454367D02*
X94551429Y-105444938D01*
X97542000Y-99334938D02*
X97542000Y-102454367D01*
%TO.N,Net-(D14-A)*%
X123334642Y-151451840D02*
X121735642Y-149852840D01*
X121735642Y-103740010D02*
X131450714Y-94024938D01*
X131450714Y-93760200D02*
X131450714Y-94024938D01*
X123805452Y-86114938D02*
X131450714Y-93760200D01*
X121735642Y-149852840D02*
X121735642Y-103740010D01*
X123334642Y-164605358D02*
X123334642Y-151451840D01*
X114465000Y-173475000D02*
X123334642Y-164605358D01*
%TO.N,Net-(D15-A)*%
X136070000Y-102460652D02*
X133085714Y-105444938D01*
X136070000Y-99334938D02*
X136070000Y-102460652D01*
%TO.N,Net-(D16-A)*%
X116806000Y-102457509D02*
X113818571Y-105444938D01*
X116806000Y-99334938D02*
X116806000Y-102457509D01*
%TO.N,Net-(D17-A)*%
X143166543Y-86114938D02*
X150763429Y-93711824D01*
X141421667Y-149706050D02*
X141421667Y-103366700D01*
X142584642Y-150869025D02*
X141421667Y-149706050D01*
X150763429Y-93711824D02*
X150763429Y-94024938D01*
X142584642Y-161677158D02*
X142584642Y-150869025D01*
X130006000Y-168094000D02*
X136167800Y-168094000D01*
X136167800Y-168094000D02*
X142584642Y-161677158D01*
X141421667Y-103366700D02*
X150763429Y-94024938D01*
X124625000Y-173475000D02*
X130006000Y-168094000D01*
%TO.N,Net-(D18-A)*%
X155334000Y-99334938D02*
X155334000Y-102463795D01*
X155334000Y-102463795D02*
X152352857Y-105444938D01*
%TO.N,Net-(D19-A)*%
X174598000Y-102466938D02*
X171620000Y-105444938D01*
X174598000Y-99334938D02*
X174598000Y-102466938D01*
%TO.N,Net-(D20-A)*%
X149885482Y-169698000D02*
X161933642Y-157649840D01*
X160681857Y-150200055D02*
X160681857Y-103419224D01*
X138562000Y-169698000D02*
X149885482Y-169698000D01*
X161933642Y-151451840D02*
X160681857Y-150200055D01*
X161933642Y-157649840D02*
X161933642Y-151451840D01*
X134785000Y-173475000D02*
X138562000Y-169698000D01*
X160681857Y-103419224D02*
X170076143Y-94024938D01*
X162527633Y-86114938D02*
X170076143Y-93663448D01*
X170076143Y-93663448D02*
X170076143Y-94024938D01*
%TO.N,Net-(D21-A)*%
X27929000Y-151339857D02*
X27929000Y-161429000D01*
X27929000Y-161429000D02*
X35000000Y-168500000D01*
X35000000Y-168500000D02*
X63770000Y-168500000D01*
X63770000Y-168500000D02*
X68745000Y-173475000D01*
X35268857Y-144000000D02*
X27929000Y-151339857D01*
%TO.N,Net-(D22-A)*%
X52698673Y-166500000D02*
X47196143Y-160997470D01*
X71930000Y-166500000D02*
X52698673Y-166500000D01*
X78905000Y-173475000D02*
X71930000Y-166500000D01*
X47196143Y-151385428D02*
X54581571Y-144000000D01*
X47196143Y-160997470D02*
X47196143Y-151385428D01*
%TO.N,Net-(D23-A)*%
X39742000Y-152428000D02*
X36750000Y-155420000D01*
X39742000Y-149310000D02*
X39742000Y-152428000D01*
%TO.N,Net-(D24-A)*%
X59006000Y-152431143D02*
X56017143Y-155420000D01*
X59006000Y-149310000D02*
X59006000Y-152431143D01*
%TO.N,Net-(D25-A)*%
X66463286Y-151431000D02*
X73894286Y-144000000D01*
X70361816Y-164896000D02*
X66463286Y-160997470D01*
X66463286Y-160997470D02*
X66463286Y-151431000D01*
X89065000Y-173475000D02*
X80486000Y-164896000D01*
X80486000Y-164896000D02*
X70361816Y-164896000D01*
%TO.N,Net-(D26-A)*%
X78270000Y-152434286D02*
X75284286Y-155420000D01*
X78270000Y-149310000D02*
X78270000Y-152434286D01*
%TO.N,Net-(D27-A)*%
X97534000Y-152437429D02*
X94551429Y-155420000D01*
X97534000Y-149310000D02*
X97534000Y-152437429D01*
%TO.N,Net-(D28-A)*%
X87232959Y-162500000D02*
X85730429Y-160997470D01*
X99225000Y-173475000D02*
X88250000Y-162500000D01*
X85730429Y-160997470D02*
X85730429Y-151476571D01*
X93207000Y-144000000D02*
X85730429Y-151476571D01*
X88250000Y-162500000D02*
X87232959Y-162500000D01*
%TO.N,Net-(D29-A)*%
X109385000Y-173475000D02*
X104997571Y-169087571D01*
X104997571Y-151522143D02*
X112519714Y-144000000D01*
X104997571Y-169087571D02*
X104997571Y-151522143D01*
%TO.N,Net-(D30-A)*%
X136062000Y-152443714D02*
X133085714Y-155420000D01*
X136062000Y-149310000D02*
X136062000Y-152443714D01*
%TO.N,Net-(D31-A)*%
X124264714Y-168755286D02*
X124264714Y-151567714D01*
X124264714Y-151567714D02*
X131832428Y-144000000D01*
X119545000Y-173475000D02*
X124264714Y-168755286D01*
%TO.N,Net-(D32-A)*%
X116798000Y-152440571D02*
X113818571Y-155420000D01*
X116798000Y-149310000D02*
X116798000Y-152440571D01*
%TO.N,Net-(D33-A)*%
X143485642Y-151659501D02*
X151145143Y-144000000D01*
X143485642Y-161910358D02*
X143485642Y-151659501D01*
X129705000Y-173475000D02*
X134284000Y-168896000D01*
X134284000Y-168896000D02*
X136500000Y-168896000D01*
X136500000Y-168896000D02*
X143485642Y-161910358D01*
%TO.N,Net-(D34-A)*%
X155326000Y-152446857D02*
X152352857Y-155420000D01*
X155326000Y-149310000D02*
X155326000Y-152446857D01*
%TO.N,Net-(D35-A)*%
X174590000Y-152450000D02*
X171620000Y-155420000D01*
X174590000Y-149310000D02*
X174590000Y-152450000D01*
%TO.N,Net-(D36-A)*%
X150858841Y-169858841D02*
X150876801Y-169858841D01*
X170457857Y-144000000D02*
X162735642Y-151722215D01*
X162735642Y-151722215D02*
X162735642Y-158000000D01*
X142840000Y-170500000D02*
X150217682Y-170500000D01*
X139865000Y-173475000D02*
X142840000Y-170500000D01*
X150217682Y-170500000D02*
X150858841Y-169858841D01*
X150876801Y-169858841D02*
X162735642Y-158000000D01*
%TO.N,Net-(J10-Pin_1)*%
X111925000Y-173475000D02*
X122933642Y-162466358D01*
X133460952Y-99274938D02*
X133460952Y-85690176D01*
X121071616Y-149755914D02*
X121071616Y-86592182D01*
X122933642Y-151617940D02*
X121071616Y-149755914D01*
X124888860Y-82774938D02*
X130545714Y-82774938D01*
X122933642Y-162466358D02*
X122933642Y-151617940D01*
X133460952Y-85690176D02*
X130545714Y-82774938D01*
X121071616Y-86592182D02*
X124888860Y-82774938D01*
%TO.N,Net-(J11-Pin_1)*%
X141020667Y-149872150D02*
X141020667Y-85910274D01*
X152721143Y-99274938D02*
X152721143Y-85683224D01*
X141020667Y-85910274D02*
X144156003Y-82774938D01*
X136011681Y-167683019D02*
X142183642Y-161511058D01*
X122085000Y-173475000D02*
X127876981Y-167683019D01*
X144156003Y-82774938D02*
X149812857Y-82774938D01*
X142183642Y-151035125D02*
X141020667Y-149872150D01*
X127876981Y-167683019D02*
X136011681Y-167683019D01*
X142183642Y-161511058D02*
X142183642Y-151035125D01*
X152721143Y-85683224D02*
X149812857Y-82774938D01*
%TO.N,Net-(J12-Pin_1)*%
X161485642Y-157451840D02*
X161485642Y-151570940D01*
X136423000Y-169297000D02*
X149640482Y-169297000D01*
X161485642Y-151570940D02*
X160235642Y-150320940D01*
X149640482Y-169297000D02*
X161485642Y-157451840D01*
X171981333Y-85676271D02*
X169080000Y-82774938D01*
X171981333Y-99274938D02*
X171981333Y-85676271D01*
X132245000Y-173475000D02*
X136423000Y-169297000D01*
X160235642Y-150320940D02*
X160235642Y-85962442D01*
X163423146Y-82774938D02*
X169080000Y-82774938D01*
X160235642Y-85962442D02*
X163423146Y-82774938D01*
%TO.N,Net-(J13-Pin_1)*%
X27485642Y-151216115D02*
X28062524Y-150639233D01*
X37121524Y-135661524D02*
X34210000Y-132750000D01*
X28062524Y-150639233D02*
X28062524Y-138897476D01*
X34932900Y-169000000D02*
X27485642Y-161552742D01*
X37121524Y-149250000D02*
X37121524Y-135661524D01*
X61730000Y-169000000D02*
X34932900Y-169000000D01*
X27485642Y-161552742D02*
X27485642Y-151216115D01*
X28062524Y-138897476D02*
X34210000Y-132750000D01*
X66205000Y-173475000D02*
X61730000Y-169000000D01*
%TO.N,Net-(J14-Pin_1)*%
X69890000Y-167000000D02*
X76365000Y-173475000D01*
X56381714Y-149250000D02*
X56381714Y-135487428D01*
X53644286Y-132750000D02*
X47322714Y-139071572D01*
X52631573Y-167000000D02*
X69890000Y-167000000D01*
X46735642Y-161104069D02*
X52631573Y-167000000D01*
X47322714Y-139071572D02*
X47322714Y-150691757D01*
X47322714Y-150691757D02*
X46735642Y-151278829D01*
X46735642Y-151278829D02*
X46735642Y-161104069D01*
X56381714Y-135487428D02*
X53644286Y-132750000D01*
%TO.N,Net-(J15-Pin_1)*%
X66582905Y-139245666D02*
X66582905Y-150744281D01*
X75641905Y-149250000D02*
X75641905Y-143608103D01*
X66582905Y-150744281D02*
X65985642Y-151341544D01*
X65985642Y-161086926D02*
X70195716Y-165297000D01*
X73078571Y-132750000D02*
X66582905Y-139245666D01*
X73078571Y-141044769D02*
X73078571Y-132750000D01*
X65985642Y-151341544D02*
X65985642Y-161086926D01*
X75641905Y-143608103D02*
X73078571Y-141044769D01*
X78347000Y-165297000D02*
X86525000Y-173475000D01*
X70195716Y-165297000D02*
X78347000Y-165297000D01*
%TO.N,Net-(J16-Pin_1)*%
X114162286Y-149250000D02*
X114162286Y-134965143D01*
X104596571Y-151356043D02*
X105103286Y-150849328D01*
X106845000Y-173475000D02*
X104596571Y-171226571D01*
X105103286Y-139593857D02*
X111947143Y-132750000D01*
X114162286Y-134965143D02*
X111947143Y-132750000D01*
X105103286Y-150849328D02*
X105103286Y-139593857D01*
X104596571Y-171226571D02*
X104596571Y-151356043D01*
%TO.N,Net-(U1-S3)*%
X85083271Y-96274938D02*
X85083271Y-98972238D01*
X85083271Y-98972238D02*
X84780571Y-99274938D01*
%TO.N,Net-(U1-S7)*%
X162527633Y-96274938D02*
X162527633Y-98568638D01*
X162527633Y-98568638D02*
X161821333Y-99274938D01*
%TO.N,Net-(U1-S11)*%
X84742095Y-146493600D02*
X84498495Y-146250000D01*
X84742095Y-149250000D02*
X84742095Y-146493600D01*
%TO.N,Net-(U1-S15)*%
X161942857Y-149090000D02*
X161782857Y-149250000D01*
X161942857Y-146250000D02*
X161942857Y-149090000D01*
%TO.N,Net-(U1-S2)*%
X65722181Y-96274938D02*
X65722181Y-99073138D01*
X65722181Y-99073138D02*
X65520381Y-99274938D01*
%TO.N,Net-(U1-S6)*%
X143166543Y-96274938D02*
X143166543Y-98669538D01*
X143166543Y-98669538D02*
X142561143Y-99274938D01*
%TO.N,Net-(U1-S10)*%
X65137405Y-146250000D02*
X65137405Y-148905500D01*
X65137405Y-148905500D02*
X65481905Y-149250000D01*
%TO.N,Net-(U1-S14)*%
X142581767Y-149190900D02*
X142522667Y-149250000D01*
X142581767Y-146250000D02*
X142581767Y-149190900D01*
%TO.N,Net-(U1-S1)*%
X46361090Y-96274938D02*
X46361090Y-99174038D01*
X46361090Y-99174038D02*
X46260190Y-99274938D01*
%TO.N,Net-(U1-S5)*%
X123805452Y-98770438D02*
X123300952Y-99274938D01*
X123805452Y-96274938D02*
X123805452Y-98770438D01*
%TO.N,Net-(U1-S9)*%
X45776314Y-148804600D02*
X46221714Y-149250000D01*
X45776314Y-146250000D02*
X45776314Y-148804600D01*
%TO.N,Net-(U1-S13)*%
X123220676Y-149208200D02*
X123262476Y-149250000D01*
X123220676Y-146250000D02*
X123220676Y-149208200D01*
%TO.N,Net-(U1-S0)*%
X27000000Y-96274938D02*
X27000000Y-99274938D01*
%TO.N,Net-(U1-S4)*%
X104444362Y-96274938D02*
X104444362Y-98871338D01*
X104444362Y-98871338D02*
X104040762Y-99274938D01*
%TO.N,Net-(U1-S8)*%
X26961524Y-149250000D02*
X26961524Y-146427722D01*
X26961524Y-146427722D02*
X26735642Y-146201840D01*
%TO.N,Net-(U1-S12)*%
X103859586Y-149107300D02*
X104002286Y-149250000D01*
X103859586Y-146250000D02*
X103859586Y-149107300D01*
%TO.N,Net-(A1-D8)*%
X49809642Y-61775840D02*
X49809642Y-66563790D01*
X116806000Y-91714938D02*
X117907000Y-92815938D01*
X173395000Y-76408282D02*
X172252442Y-77550840D01*
X172252442Y-77550840D02*
X129545858Y-77550840D01*
X173395000Y-67332823D02*
X173395000Y-76408282D01*
X129545858Y-77550840D02*
X116806000Y-90290698D01*
X116806000Y-90290698D02*
X116806000Y-91714938D01*
X42485642Y-54451840D02*
X49809642Y-61775840D01*
X40851000Y-140581000D02*
X39742000Y-141690000D01*
X117907000Y-92815938D02*
X117907000Y-140581000D01*
X49809642Y-66563790D02*
X54551642Y-71305790D01*
X54551642Y-75476485D02*
X39750000Y-90278127D01*
X117907000Y-140581000D02*
X116798000Y-141690000D01*
X167835642Y-61773465D02*
X173395000Y-67332823D01*
X39750000Y-90278127D02*
X39750000Y-91714938D01*
X54551642Y-71305790D02*
X54551642Y-75476485D01*
X39750000Y-91714938D02*
X40851000Y-92815938D01*
X40851000Y-92815938D02*
X40851000Y-140581000D01*
%TO.N,Net-(J17-Pin_1)*%
X86235642Y-139027215D02*
X92512857Y-132750000D01*
X94902095Y-135139238D02*
X92512857Y-132750000D01*
X94902095Y-149250000D02*
X94902095Y-135139238D01*
X96685000Y-173475000D02*
X85329429Y-162119429D01*
X86235642Y-150404258D02*
X86235642Y-139027215D01*
X85329429Y-162119429D02*
X85329429Y-151310471D01*
X85329429Y-151310471D02*
X86235642Y-150404258D01*
%TO.N,Net-(A1-D9)*%
X137235642Y-92880580D02*
X137235642Y-140516358D01*
X59014000Y-91714938D02*
X59014000Y-90480198D01*
X136070000Y-91714938D02*
X136070000Y-90293841D01*
X136070000Y-90293841D02*
X148412001Y-77951840D01*
X148412001Y-77951840D02*
X172418542Y-77951840D01*
X137235642Y-140516358D02*
X136062000Y-141690000D01*
X173796000Y-76574382D02*
X173796000Y-65193823D01*
X60115000Y-92815938D02*
X60115000Y-140581000D01*
X172418542Y-77951840D02*
X173796000Y-76574382D01*
X170375642Y-61773465D02*
X173796000Y-65193823D01*
X60115000Y-140581000D02*
X59006000Y-141690000D01*
X59014000Y-91714938D02*
X60115000Y-92815938D01*
X61735642Y-87758556D02*
X61735642Y-54451840D01*
X59014000Y-90480198D02*
X61735642Y-87758556D01*
X136070000Y-91714938D02*
X137235642Y-92880580D01*
%TO.N,Net-(J21-Pin_33)*%
X163349000Y-174651000D02*
X143611000Y-174651000D01*
X182951000Y-48201545D02*
X182951000Y-155049000D01*
X143611000Y-174651000D02*
X142460000Y-173500000D01*
X179065295Y-39056431D02*
X179065295Y-44315840D01*
X170985642Y-30976778D02*
X179065295Y-39056431D01*
X182951000Y-155049000D02*
X163349000Y-174651000D01*
X179065295Y-44315840D02*
X182951000Y-48201545D01*
%TO.N,Net-(J21-Pin_1)*%
X26683642Y-161884942D02*
X26683642Y-151649840D01*
X37160000Y-85724938D02*
X34210000Y-82774938D01*
X57401000Y-169901000D02*
X34699700Y-169901000D01*
X37160000Y-99274938D02*
X37160000Y-85724938D01*
X61125000Y-173475000D02*
X60975000Y-173475000D01*
X60975000Y-173475000D02*
X57401000Y-169901000D01*
X25233642Y-150199840D02*
X25233642Y-86094442D01*
X26683642Y-151649840D02*
X25233642Y-150199840D01*
X34699700Y-169901000D02*
X26683642Y-161884942D01*
X25233642Y-86094442D02*
X28553146Y-82774938D01*
X28553146Y-82774938D02*
X34210000Y-82774938D01*
%TO.N,Net-(J21-Pin_5)*%
X56420190Y-99274938D02*
X56420190Y-85717985D01*
X44274314Y-86320913D02*
X44274314Y-149708612D01*
X56420190Y-85717985D02*
X53477143Y-82774938D01*
X65810000Y-168000000D02*
X71285000Y-173475000D01*
X45933642Y-161500742D02*
X52432900Y-168000000D01*
X52432900Y-168000000D02*
X65810000Y-168000000D01*
X45933642Y-151367940D02*
X45933642Y-161500742D01*
X47820289Y-82774938D02*
X44274314Y-86320913D01*
X53477143Y-82774938D02*
X47820289Y-82774938D01*
X44274314Y-149708612D02*
X45933642Y-151367940D01*
%TO.N,Net-(J21-Pin_9)*%
X63235642Y-149669940D02*
X65183642Y-151617940D01*
X65183642Y-151617940D02*
X65183642Y-161419126D01*
X65183642Y-161419126D02*
X69863516Y-166099000D01*
X75680381Y-99274938D02*
X75680381Y-85711033D01*
X75680381Y-85711033D02*
X72744286Y-82774938D01*
X72744286Y-82774938D02*
X67087432Y-82774938D01*
X67087432Y-82774938D02*
X63235642Y-86626728D01*
X69863516Y-166099000D02*
X74069000Y-166099000D01*
X63235642Y-86626728D02*
X63235642Y-149669940D01*
X74069000Y-166099000D02*
X81445000Y-173475000D01*
%TO.N,Net-(J21-Pin_17)*%
X114200762Y-85697129D02*
X111278571Y-82774938D01*
X99878000Y-89124250D02*
X99878000Y-147785268D01*
X114200762Y-99274938D02*
X114200762Y-85697129D01*
X106227312Y-82774938D02*
X99878000Y-89124250D01*
X103794571Y-151701839D02*
X103794571Y-171445429D01*
X99878000Y-147785268D02*
X103794571Y-151701839D01*
X103794571Y-171445429D02*
X101765000Y-173475000D01*
X111278571Y-82774938D02*
X106227312Y-82774938D01*
%TO.N,Net-(J21-Pin_13)*%
X94940571Y-85704080D02*
X92011429Y-82774938D01*
X94940571Y-99274938D02*
X94940571Y-85704080D01*
X84527429Y-151617940D02*
X82996495Y-150087006D01*
X82996495Y-86133018D02*
X86354575Y-82774938D01*
X84527429Y-166397429D02*
X84527429Y-151617940D01*
X82996495Y-150087006D02*
X82996495Y-86133018D01*
X86354575Y-82774938D02*
X92011429Y-82774938D01*
X91605000Y-173475000D02*
X84527429Y-166397429D01*
%TO.N,Net-(J18-Pin_1)*%
X117005000Y-173475000D02*
X123735642Y-166744358D01*
X123735642Y-151529686D02*
X124735642Y-150529686D01*
X131381429Y-140597627D02*
X131381429Y-132750000D01*
X133422476Y-149250000D02*
X133422476Y-142638674D01*
X133422476Y-142638674D02*
X131381429Y-140597627D01*
X124735642Y-139395787D02*
X131381429Y-132750000D01*
X124735642Y-150529686D02*
X124735642Y-139395787D01*
X123735642Y-166744358D02*
X123735642Y-151529686D01*
%TO.N,Net-(J19-Pin_1)*%
X152682667Y-149250000D02*
X152682667Y-134616953D01*
X142985642Y-151592401D02*
X143985642Y-150592401D01*
X142985642Y-161843258D02*
X142985642Y-151592401D01*
X152682667Y-134616953D02*
X150815714Y-132750000D01*
X127165000Y-173475000D02*
X132145000Y-168495000D01*
X143985642Y-139580072D02*
X150815714Y-132750000D01*
X136333900Y-168495000D02*
X142985642Y-161843258D01*
X132145000Y-168495000D02*
X136333900Y-168495000D01*
X143985642Y-150592401D02*
X143985642Y-139580072D01*
%TO.N,Net-(J20-Pin_1)*%
X140701000Y-170099000D02*
X150051582Y-170099000D01*
X162334642Y-151556115D02*
X163485642Y-150405115D01*
X163485642Y-139514358D02*
X170250000Y-132750000D01*
X163485642Y-150405115D02*
X163485642Y-139514358D01*
X150051582Y-170099000D02*
X162334642Y-157815940D01*
X162334642Y-157815940D02*
X162334642Y-151556115D01*
X137325000Y-173475000D02*
X140701000Y-170099000D01*
%TD*%
M02*
