M48
; DRILL file {KiCad 9.0.6} date 2026-05-22T00:00:19+1000
; FORMAT={-:-/ absolute / metric / decimal}
; #@! TF.CreationDate,2026-05-22T00:00:19+10:00
; #@! TF.GenerationSoftware,Kicad,Pcbnew,9.0.6
; #@! TF.FileFunction,Plated,1,2,PTH
FMAT,2
METRIC
; #@! TA.AperFunction,Plated,PTH,ComponentDrill
T1C0.800
; #@! TA.AperFunction,Plated,PTH,ComponentDrill
T2C0.900
; #@! TA.AperFunction,Plated,PTH,ComponentDrill
T3C1.000
; #@! TA.AperFunction,Plated,PTH,ComponentDrill
T4C1.500
; #@! TA.AperFunction,Plated,PTH,ComponentDrill
T5C1.800
; #@! TA.AperFunction,Plated,PTH,ComponentDrill
T6C6.000
%
G90
G05
T1
X25.511Y-64.142
X25.511Y-71.762
X26.736Y-136.042
X26.736Y-146.202
X26.962Y-149.25
X27.0Y-86.115
X27.0Y-96.275
X27.0Y-99.275
X28.051Y-64.142
X28.051Y-71.762
X30.591Y-64.142
X30.591Y-71.762
X33.131Y-64.142
X33.131Y-71.762
X35.671Y-64.142
X35.671Y-71.762
X37.122Y-149.25
X37.16Y-99.275
X38.211Y-64.142
X38.211Y-71.762
X39.742Y-141.69
X39.742Y-149.31
X39.75Y-91.715
X39.75Y-99.335
X40.751Y-64.142
X40.751Y-71.762
X42.486Y-46.832
X42.486Y-54.452
X43.291Y-64.142
X43.291Y-71.762
X45.776Y-136.09
X45.776Y-146.25
X45.831Y-64.142
X45.831Y-71.762
X46.222Y-149.25
X46.26Y-99.275
X46.361Y-86.115
X46.361Y-96.275
X48.371Y-64.142
X48.371Y-71.762
X50.911Y-64.142
X50.911Y-71.762
X53.451Y-64.142
X53.451Y-71.762
X56.382Y-149.25
X56.42Y-99.275
X59.006Y-141.69
X59.006Y-149.31
X59.014Y-91.715
X59.014Y-99.335
X61.736Y-46.832
X61.736Y-54.452
X65.137Y-136.09
X65.137Y-146.25
X65.482Y-149.25
X65.52Y-99.275
X65.722Y-86.115
X65.722Y-96.275
X75.642Y-149.25
X75.68Y-99.275
X78.27Y-141.69
X78.27Y-149.31
X78.278Y-91.715
X78.278Y-99.335
X80.986Y-46.832
X80.986Y-54.452
X84.498Y-136.09
X84.498Y-146.25
X84.742Y-149.25
X84.781Y-99.275
X85.083Y-86.115
X85.083Y-96.275
X94.902Y-149.25
X94.941Y-99.275
X97.534Y-141.69
X97.534Y-149.31
X97.542Y-91.715
X97.542Y-99.335
X100.5Y-46.832
X100.5Y-54.452
X103.86Y-136.09
X103.86Y-146.25
X104.002Y-149.25
X104.041Y-99.275
X104.444Y-86.115
X104.444Y-96.275
X114.162Y-149.25
X114.201Y-99.275
X116.798Y-141.69
X116.798Y-149.31
X116.806Y-91.715
X116.806Y-99.335
X123.221Y-136.09
X123.221Y-146.25
X123.262Y-149.25
X123.301Y-99.275
X123.805Y-86.115
X123.805Y-96.275
X133.422Y-149.25
X133.461Y-99.275
X136.062Y-141.69
X136.062Y-149.31
X136.07Y-91.715
X136.07Y-99.335
X142.523Y-149.25
X142.561Y-99.275
X142.582Y-136.09
X142.582Y-146.25
X143.167Y-86.115
X143.167Y-96.275
X144.986Y-43.663
X149.986Y-43.663
X152.683Y-149.25
X152.721Y-99.275
X155.326Y-141.69
X155.326Y-149.31
X155.334Y-91.715
X155.334Y-99.335
X161.783Y-149.25
X161.821Y-99.275
X161.943Y-136.09
X161.943Y-146.25
X162.528Y-86.115
X162.528Y-96.275
X162.891Y-25.872
X162.891Y-36.032
X171.943Y-149.25
X171.981Y-99.275
X172.964Y-43.782
X174.59Y-141.69
X174.59Y-149.31
X174.598Y-91.715
X174.598Y-99.335
X177.964Y-43.782
T2
X32.347Y-94.025
X32.729Y-144.0
X34.887Y-94.025
X35.269Y-144.0
X51.66Y-94.025
X52.042Y-144.0
X54.2Y-94.025
X54.582Y-144.0
X70.973Y-94.025
X71.354Y-144.0
X73.513Y-94.025
X73.894Y-144.0
X90.285Y-94.025
X90.667Y-144.0
X92.825Y-94.025
X93.207Y-144.0
X109.598Y-94.025
X109.98Y-144.0
X112.138Y-94.025
X112.52Y-144.0
X128.911Y-94.025
X129.292Y-144.0
X131.451Y-94.025
X131.832Y-144.0
X148.223Y-94.025
X148.605Y-144.0
X150.763Y-94.025
X151.145Y-144.0
X167.536Y-94.025
X167.918Y-144.0
X170.076Y-94.025
X170.458Y-144.0
T3
X31.71Y-37.002
X34.21Y-37.002
X36.71Y-37.002
X50.932Y-11.46
X50.932Y-14.0
X53.472Y-11.46
X53.472Y-14.0
X56.012Y-11.46
X56.012Y-14.0
X61.18Y-173.5
X63.72Y-173.5
X66.26Y-173.5
X68.8Y-173.5
X70.244Y-37.002
X71.34Y-173.5
X72.744Y-37.002
X73.88Y-173.5
X75.244Y-37.002
X76.42Y-173.5
X78.96Y-173.5
X81.5Y-173.5
X84.04Y-173.5
X86.58Y-173.5
X89.12Y-173.5
X91.66Y-173.5
X94.2Y-173.5
X96.74Y-173.5
X99.1Y-11.46
X99.1Y-14.0
X99.28Y-173.5
X101.64Y-11.46
X101.64Y-14.0
X101.82Y-173.5
X104.18Y-11.46
X104.18Y-14.0
X104.36Y-173.5
X106.9Y-173.5
X109.44Y-173.5
X111.98Y-173.5
X114.52Y-173.5
X117.06Y-173.5
X119.6Y-173.5
X122.14Y-173.5
X124.68Y-173.5
X127.22Y-173.5
X129.76Y-173.5
X132.3Y-173.5
X134.84Y-173.5
X137.38Y-173.5
X139.92Y-173.5
X142.436Y-46.533
X142.436Y-61.773
X142.46Y-173.5
X144.976Y-46.533
X144.976Y-61.773
X145.0Y-173.5
X147.268Y-11.46
X147.268Y-14.0
X147.516Y-46.533
X147.516Y-61.773
X149.808Y-11.46
X149.808Y-14.0
X150.056Y-46.533
X150.056Y-61.773
X152.348Y-11.46
X152.348Y-14.0
X152.596Y-46.533
X152.596Y-61.773
X155.136Y-46.533
X155.136Y-61.773
X157.676Y-46.533
X157.676Y-61.773
X160.216Y-46.533
X160.216Y-61.773
X162.756Y-46.533
X162.756Y-61.773
X165.296Y-46.533
X165.296Y-61.773
X167.836Y-46.533
X167.836Y-61.773
X170.376Y-46.533
X170.376Y-61.773
X172.916Y-46.533
X172.916Y-61.773
X175.456Y-46.533
X175.456Y-61.773
X177.996Y-46.533
X177.996Y-61.773
T4
X30.4Y-49.432
X30.4Y-107.985
X30.4Y-157.96
X36.75Y-46.892
X36.75Y-105.445
X36.75Y-155.42
X49.667Y-49.432
X49.667Y-107.985
X49.667Y-157.96
X56.017Y-46.892
X56.017Y-105.445
X56.017Y-155.42
X68.934Y-49.432
X68.934Y-107.985
X68.934Y-157.96
X75.284Y-46.892
X75.284Y-105.445
X75.284Y-155.42
X88.201Y-49.432
X88.201Y-107.985
X88.201Y-157.96
X94.551Y-46.892
X94.551Y-105.445
X94.551Y-155.42
X107.469Y-107.985
X107.469Y-157.96
X113.819Y-105.445
X113.819Y-155.42
X126.736Y-107.985
X126.736Y-157.96
X133.086Y-105.445
X133.086Y-155.42
X146.003Y-107.985
X146.003Y-157.96
X152.353Y-105.445
X152.353Y-155.42
X165.27Y-107.985
X165.27Y-157.96
X171.62Y-105.445
X171.62Y-155.42
T6
X34.21Y-82.775
X34.21Y-132.75
X53.477Y-82.775
X53.644Y-132.75
X72.744Y-82.775
X73.5Y-132.75
X92.011Y-82.775
X92.513Y-132.75
X111.279Y-82.775
X111.947Y-132.75
X130.546Y-82.775
X131.381Y-132.75
X149.813Y-82.775
X150.816Y-132.75
X169.08Y-82.775
X170.25Y-132.75
X170.986Y-30.977
T3
G00X112.125Y-26.5
M15
G01X113.875Y-26.5
M16
G05
G00X112.125Y-31.0
M15
G01X113.875Y-31.0
M16
G05
G00X112.125Y-35.5
M15
G01X113.875Y-35.5
M16
G05
G00X127.125Y-26.5
M15
G01X128.875Y-26.5
M16
G05
G00X127.125Y-31.0
M15
G01X128.875Y-31.0
M16
G05
G00X127.125Y-35.5
M15
G01X128.875Y-35.5
M16
G05
G00X154.516Y-26.452
M15
G01X156.266Y-26.452
M16
G05
G00X154.516Y-30.952
M15
G01X156.266Y-30.952
M16
G05
G00X154.516Y-35.452
M15
G01X156.266Y-35.452
M16
G05
T5
G00X29.81Y-30.152
M15
G01X29.81Y-29.852
M16
G05
G00X38.61Y-30.152
M15
G01X38.61Y-29.852
M16
G05
G00X68.344Y-30.152
M15
G01X68.344Y-29.852
M16
G05
G00X77.144Y-30.152
M15
G01X77.144Y-29.852
M16
G05
M30
