%TF.GenerationSoftware,KiCad,Pcbnew,9.0.6*%
%TF.CreationDate,2026-05-22T00:00:17+10:00*%
%TF.ProjectId,gate-sequencer,67617465-2d73-4657-9175-656e6365722e,rev?*%
%TF.SameCoordinates,Original*%
%TF.FileFunction,Soldermask,Top*%
%TF.FilePolarity,Negative*%
%FSLAX46Y46*%
G04 Gerber Fmt 4.6, Leading zero omitted, Abs format (unit mm)*
G04 Created by KiCad (PCBNEW 9.0.6) date 2026-05-22 00:00:17*
%MOMM*%
%LPD*%
G01*
G04 APERTURE LIST*
G04 Aperture macros list*
%AMRoundRect*
0 Rectangle with rounded corners*
0 $1 Rounding radius*
0 $2 $3 $4 $5 $6 $7 $8 $9 X,Y pos of 4 corners*
0 Add a 4 corners polygon primitive as box body*
4,1,4,$2,$3,$4,$5,$6,$7,$8,$9,$2,$3,0*
0 Add four circle primitives for the rounded corners*
1,1,$1+$1,$2,$3*
1,1,$1+$1,$4,$5*
1,1,$1+$1,$6,$7*
1,1,$1+$1,$8,$9*
0 Add four rect primitives between the rounded corners*
20,1,$1+$1,$2,$3,$4,$5,0*
20,1,$1+$1,$4,$5,$6,$7,0*
20,1,$1+$1,$6,$7,$8,$9,0*
20,1,$1+$1,$8,$9,$2,$3,0*%
G04 Aperture macros list end*
%ADD10C,8.000000*%
%ADD11R,1.800000X1.800000*%
%ADD12C,1.800000*%
%ADD13RoundRect,0.250000X0.550000X-0.550000X0.550000X0.550000X-0.550000X0.550000X-0.550000X-0.550000X0*%
%ADD14C,1.600000*%
%ADD15C,1.700000*%
%ADD16C,4.000000*%
%ADD17C,2.200000*%
%ADD18RoundRect,0.250000X-0.550000X0.550000X-0.550000X-0.550000X0.550000X-0.550000X0.550000X0.550000X0*%
%ADD19RoundRect,0.750000X0.750000X-1.250000X0.750000X1.250000X-0.750000X1.250000X-0.750000X-1.250000X0*%
%ADD20RoundRect,0.250000X0.600000X-0.600000X0.600000X0.600000X-0.600000X0.600000X-0.600000X-0.600000X0*%
%ADD21R,1.600000X1.600000*%
%ADD22O,1.600000X1.600000*%
%ADD23C,3.200000*%
%ADD24O,3.750000X2.000000*%
%ADD25R,1.700000X1.700000*%
G04 APERTURE END LIST*
D10*
%TO.C,J15*%
X73500000Y-132750000D03*
%TD*%
D11*
%TO.C,D14*%
X128910714Y-94024938D03*
D12*
X131450714Y-94024938D03*
%TD*%
D13*
%TO.C,D4*%
X100500000Y-54451840D03*
D14*
X100500000Y-46831840D03*
%TD*%
D10*
%TO.C,J14*%
X53644286Y-132750000D03*
%TD*%
D14*
%TO.C,R9*%
X162527633Y-86114938D03*
X162527633Y-96274938D03*
%TD*%
D15*
%TO.C,SW17*%
X48397143Y-160500000D03*
D16*
X53477143Y-160500000D03*
D15*
X58557143Y-160500000D03*
D17*
X56017143Y-155420000D03*
X49667143Y-157960000D03*
%TD*%
D13*
%TO.C,D1*%
X61735642Y-54451840D03*
D14*
X61735642Y-46831840D03*
%TD*%
%TO.C,R11*%
X56420190Y-99274938D03*
X46260190Y-99274938D03*
%TD*%
D10*
%TO.C,J5*%
X34210000Y-82774938D03*
%TD*%
D15*
%TO.C,SW21*%
X125465714Y-160500000D03*
D16*
X130545714Y-160500000D03*
D15*
X135625714Y-160500000D03*
D17*
X133085714Y-155420000D03*
X126735714Y-157960000D03*
%TD*%
D18*
%TO.C,D19*%
X174598000Y-91714938D03*
D14*
X174598000Y-99334938D03*
%TD*%
D11*
%TO.C,RV2*%
X70244286Y-37001840D03*
D12*
X72744286Y-37001840D03*
X75244286Y-37001840D03*
D19*
X68344286Y-30001840D03*
X77144286Y-30001840D03*
%TD*%
D15*
%TO.C,SW16*%
X29130000Y-160500000D03*
D16*
X34210000Y-160500000D03*
D15*
X39290000Y-160500000D03*
D17*
X36750000Y-155420000D03*
X30400000Y-157960000D03*
%TD*%
D14*
%TO.C,R8*%
X143166543Y-86114938D03*
X143166543Y-96274938D03*
%TD*%
D10*
%TO.C,J4*%
X170985642Y-30976778D03*
%TD*%
D11*
%TO.C,D22*%
X52041571Y-144000000D03*
D12*
X54581571Y-144000000D03*
%TD*%
D14*
%TO.C,R13*%
X94940571Y-99274938D03*
X84780571Y-99274938D03*
%TD*%
D11*
%TO.C,D9*%
X70972572Y-94024938D03*
D12*
X73512572Y-94024938D03*
%TD*%
D13*
%TO.C,U1*%
X25510642Y-71761840D03*
D14*
X28050642Y-71761840D03*
X30590642Y-71761840D03*
X33130642Y-71761840D03*
X35670642Y-71761840D03*
X38210642Y-71761840D03*
X40750642Y-71761840D03*
X43290642Y-71761840D03*
X45830642Y-71761840D03*
X48370642Y-71761840D03*
X50910642Y-71761840D03*
X53450642Y-71761840D03*
X53450642Y-64141840D03*
X50910642Y-64141840D03*
X48370642Y-64141840D03*
X45830642Y-64141840D03*
X43290642Y-64141840D03*
X40750642Y-64141840D03*
X38210642Y-64141840D03*
X35670642Y-64141840D03*
X33130642Y-64141840D03*
X30590642Y-64141840D03*
X28050642Y-64141840D03*
X25510642Y-64141840D03*
%TD*%
D18*
%TO.C,D8*%
X59014000Y-91714938D03*
D14*
X59014000Y-99334938D03*
%TD*%
%TO.C,C1*%
X144985642Y-43663465D03*
X149985642Y-43663465D03*
%TD*%
D15*
%TO.C,SW18*%
X67664286Y-160500000D03*
D16*
X72744286Y-160500000D03*
D15*
X77824286Y-160500000D03*
D17*
X75284286Y-155420000D03*
X68934286Y-157960000D03*
%TD*%
D11*
%TO.C,RV1*%
X31710000Y-37001840D03*
D12*
X34210000Y-37001840D03*
X36710000Y-37001840D03*
D19*
X29810000Y-30001840D03*
X38610000Y-30001840D03*
%TD*%
D20*
%TO.C,J2*%
X99100000Y-14000000D03*
D15*
X99100000Y-11460000D03*
X101640000Y-14000000D03*
X101640000Y-11460000D03*
X104180000Y-14000000D03*
X104180000Y-11460000D03*
%TD*%
D18*
%TO.C,D32*%
X116798000Y-141690000D03*
D14*
X116798000Y-149310000D03*
%TD*%
D10*
%TO.C,J11*%
X149812857Y-82774938D03*
%TD*%
D21*
%TO.C,A1*%
X142435642Y-61773465D03*
D22*
X144975642Y-61773465D03*
X147515642Y-61773465D03*
X150055642Y-61773465D03*
X152595642Y-61773465D03*
X155135642Y-61773465D03*
X157675642Y-61773465D03*
X160215642Y-61773465D03*
X162755642Y-61773465D03*
X165295642Y-61773465D03*
X167835642Y-61773465D03*
X170375642Y-61773465D03*
X172915642Y-61773465D03*
X175455642Y-61773465D03*
X177995642Y-61773465D03*
X177995642Y-46533465D03*
X175455642Y-46533465D03*
X172915642Y-46533465D03*
X170375642Y-46533465D03*
X167835642Y-46533465D03*
X165295642Y-46533465D03*
X162755642Y-46533465D03*
X160215642Y-46533465D03*
X157675642Y-46533465D03*
X155135642Y-46533465D03*
X152595642Y-46533465D03*
X150055642Y-46533465D03*
X147515642Y-46533465D03*
X144975642Y-46533465D03*
X142435642Y-46533465D03*
%TD*%
D23*
%TO.C,REF\u002A\u002A*%
X22500000Y-23000000D03*
%TD*%
D14*
%TO.C,R2*%
X27000000Y-86114938D03*
X27000000Y-96274938D03*
%TD*%
D15*
%TO.C,SW10*%
X67664286Y-110524938D03*
D16*
X72744286Y-110524938D03*
D15*
X77824286Y-110524938D03*
D17*
X75284286Y-105444938D03*
X68934286Y-107984938D03*
%TD*%
D14*
%TO.C,R17*%
X171981333Y-99274938D03*
X161821333Y-99274938D03*
%TD*%
D23*
%TO.C,REF\u002A\u002A*%
X102230000Y-127000000D03*
%TD*%
D18*
%TO.C,D23*%
X39742000Y-141690000D03*
D14*
X39742000Y-149310000D03*
%TD*%
%TO.C,R32*%
X152682667Y-149250000D03*
X142522667Y-149250000D03*
%TD*%
D15*
%TO.C,SW5*%
X48397143Y-51971840D03*
D16*
X53477143Y-51971840D03*
D15*
X58557143Y-51971840D03*
D17*
X56017143Y-46891840D03*
X49667143Y-49431840D03*
%TD*%
D18*
%TO.C,D13*%
X97542000Y-91714938D03*
D14*
X97542000Y-99334938D03*
%TD*%
D18*
%TO.C,D18*%
X155334000Y-91714938D03*
D14*
X155334000Y-99334938D03*
%TD*%
%TO.C,R10*%
X37160000Y-99274938D03*
X27000000Y-99274938D03*
%TD*%
D18*
%TO.C,D16*%
X116806000Y-91714938D03*
D14*
X116806000Y-99334938D03*
%TD*%
D23*
%TO.C,REF\u002A\u002A*%
X181000000Y-69500000D03*
%TD*%
D14*
%TO.C,R16*%
X152721143Y-99274938D03*
X142561143Y-99274938D03*
%TD*%
D10*
%TO.C,J20*%
X170250000Y-132750000D03*
%TD*%
D14*
%TO.C,R26*%
X37121524Y-149250000D03*
X26961524Y-149250000D03*
%TD*%
%TO.C,R33*%
X171942857Y-149250000D03*
X161782857Y-149250000D03*
%TD*%
D11*
%TO.C,D28*%
X90667000Y-144000000D03*
D12*
X93207000Y-144000000D03*
%TD*%
D18*
%TO.C,D34*%
X155326000Y-141690000D03*
D14*
X155326000Y-149310000D03*
%TD*%
D20*
%TO.C,J3*%
X147267857Y-14000000D03*
D15*
X147267857Y-11460000D03*
X149807857Y-14000000D03*
X149807857Y-11460000D03*
X152347857Y-14000000D03*
X152347857Y-11460000D03*
%TD*%
%TO.C,SW9*%
X48397143Y-110524938D03*
D16*
X53477143Y-110524938D03*
D15*
X58557143Y-110524938D03*
D17*
X56017143Y-105444938D03*
X49667143Y-107984938D03*
%TD*%
D14*
%TO.C,R25*%
X161942857Y-136090000D03*
X161942857Y-146250000D03*
%TD*%
D11*
%TO.C,D20*%
X167536143Y-94024938D03*
D12*
X170076143Y-94024938D03*
%TD*%
D11*
%TO.C,D25*%
X71354286Y-144000000D03*
D12*
X73894286Y-144000000D03*
%TD*%
D23*
%TO.C,REF\u002A\u002A*%
X22500000Y-176000000D03*
%TD*%
D11*
%TO.C,D5*%
X32347143Y-94024938D03*
D12*
X34887143Y-94024938D03*
%TD*%
D15*
%TO.C,SW20*%
X106198571Y-160500000D03*
D16*
X111278571Y-160500000D03*
D15*
X116358571Y-160500000D03*
D17*
X113818571Y-155420000D03*
X107468571Y-157960000D03*
%TD*%
D11*
%TO.C,D29*%
X109979714Y-144000000D03*
D12*
X112519714Y-144000000D03*
%TD*%
D14*
%TO.C,R15*%
X133460952Y-99274938D03*
X123300952Y-99274938D03*
%TD*%
D11*
%TO.C,D12*%
X90285286Y-94024938D03*
D12*
X92825286Y-94024938D03*
%TD*%
D13*
%TO.C,D2*%
X42485642Y-54451840D03*
D14*
X42485642Y-46831840D03*
%TD*%
D15*
%TO.C,SW7*%
X86931429Y-51971840D03*
D16*
X92011429Y-51971840D03*
D15*
X97091429Y-51971840D03*
D17*
X94551429Y-46891840D03*
X88201429Y-49431840D03*
%TD*%
D14*
%TO.C,R24*%
X142581767Y-136090000D03*
X142581767Y-146250000D03*
%TD*%
D11*
%TO.C,D17*%
X148223429Y-94024938D03*
D12*
X150763429Y-94024938D03*
%TD*%
D14*
%TO.C,R21*%
X65137405Y-136090000D03*
X65137405Y-146250000D03*
%TD*%
%TO.C,R22*%
X103859586Y-136090000D03*
X103859586Y-146250000D03*
%TD*%
%TO.C,R5*%
X65722181Y-86114938D03*
X65722181Y-96274938D03*
%TD*%
%TO.C,R7*%
X123805452Y-86114938D03*
X123805452Y-96274938D03*
%TD*%
D10*
%TO.C,J7*%
X72744286Y-82774938D03*
%TD*%
D23*
%TO.C,REF\u002A\u002A*%
X181000000Y-23000000D03*
%TD*%
D11*
%TO.C,D31*%
X129292428Y-144000000D03*
D12*
X131832428Y-144000000D03*
%TD*%
D18*
%TO.C,D30*%
X136062000Y-141690000D03*
D14*
X136062000Y-149310000D03*
%TD*%
D24*
%TO.C,SW3*%
X155391284Y-35451840D03*
X155391284Y-30951840D03*
X155391284Y-26451840D03*
%TD*%
D10*
%TO.C,J10*%
X130545714Y-82774938D03*
%TD*%
D24*
%TO.C,SW1*%
X113000000Y-35500000D03*
X113000000Y-31000000D03*
X113000000Y-26500000D03*
%TD*%
D14*
%TO.C,R18*%
X26735642Y-136041840D03*
X26735642Y-146201840D03*
%TD*%
%TO.C,R12*%
X75680381Y-99274938D03*
X65520381Y-99274938D03*
%TD*%
D10*
%TO.C,J17*%
X92512857Y-132750000D03*
%TD*%
D18*
%TO.C,D15*%
X136070000Y-91714938D03*
D14*
X136070000Y-99334938D03*
%TD*%
D11*
%TO.C,D21*%
X32728857Y-144000000D03*
D12*
X35268857Y-144000000D03*
%TD*%
D18*
%TO.C,D26*%
X78270000Y-141690000D03*
D14*
X78270000Y-149310000D03*
%TD*%
D10*
%TO.C,J9*%
X92011429Y-82774938D03*
%TD*%
%TO.C,J19*%
X150815714Y-132750000D03*
%TD*%
D14*
%TO.C,R28*%
X75641905Y-149250000D03*
X65481905Y-149250000D03*
%TD*%
D18*
%TO.C,D7*%
X39750000Y-91714938D03*
D14*
X39750000Y-99334938D03*
%TD*%
D20*
%TO.C,J1*%
X50932143Y-14000000D03*
D15*
X50932143Y-11460000D03*
X53472143Y-14000000D03*
X53472143Y-11460000D03*
X56012143Y-14000000D03*
X56012143Y-11460000D03*
%TD*%
D14*
%TO.C,R19*%
X45776314Y-136090000D03*
X45776314Y-146250000D03*
%TD*%
D24*
%TO.C,SW2*%
X128000000Y-35500000D03*
X128000000Y-31000000D03*
X128000000Y-26500000D03*
%TD*%
D23*
%TO.C,REF\u002A\u002A*%
X77561072Y-69500000D03*
%TD*%
D10*
%TO.C,J16*%
X111947143Y-132750000D03*
%TD*%
D11*
%TO.C,D36*%
X167917857Y-144000000D03*
D12*
X170457857Y-144000000D03*
%TD*%
D13*
%TO.C,D3*%
X80985642Y-54451840D03*
D14*
X80985642Y-46831840D03*
%TD*%
D15*
%TO.C,SW8*%
X29130000Y-110524938D03*
D16*
X34210000Y-110524938D03*
D15*
X39290000Y-110524938D03*
D17*
X36750000Y-105444938D03*
X30400000Y-107984938D03*
%TD*%
D15*
%TO.C,SW14*%
X144732857Y-110524938D03*
D16*
X149812857Y-110524938D03*
D15*
X154892857Y-110524938D03*
D17*
X152352857Y-105444938D03*
X146002857Y-107984938D03*
%TD*%
D14*
%TO.C,R4*%
X85083271Y-86114938D03*
X85083271Y-96274938D03*
%TD*%
D18*
%TO.C,D35*%
X174590000Y-141690000D03*
D14*
X174590000Y-149310000D03*
%TD*%
D15*
%TO.C,SW4*%
X29130000Y-51971840D03*
D16*
X34210000Y-51971840D03*
D15*
X39290000Y-51971840D03*
D17*
X36750000Y-46891840D03*
X30400000Y-49431840D03*
%TD*%
D14*
%TO.C,R1*%
X162891284Y-36031840D03*
X162891284Y-25871840D03*
%TD*%
%TO.C,R23*%
X123220676Y-136090000D03*
X123220676Y-146250000D03*
%TD*%
%TO.C,R14*%
X114200762Y-99274938D03*
X104040762Y-99274938D03*
%TD*%
D15*
%TO.C,SW22*%
X144732857Y-160500000D03*
D16*
X149812857Y-160500000D03*
D15*
X154892857Y-160500000D03*
D17*
X152352857Y-155420000D03*
X146002857Y-157960000D03*
%TD*%
D14*
%TO.C,C2*%
X177964295Y-43781940D03*
X172964295Y-43781940D03*
%TD*%
D15*
%TO.C,SW12*%
X106198571Y-110524938D03*
D16*
X111278571Y-110524938D03*
D15*
X116358571Y-110524938D03*
D17*
X113818571Y-105444938D03*
X107468571Y-107984938D03*
%TD*%
D10*
%TO.C,J6*%
X53477143Y-82774938D03*
%TD*%
D23*
%TO.C,REF\u002A\u002A*%
X125728929Y-69500000D03*
%TD*%
D14*
%TO.C,R31*%
X133422476Y-149250000D03*
X123262476Y-149250000D03*
%TD*%
%TO.C,R27*%
X56381714Y-149250000D03*
X46221714Y-149250000D03*
%TD*%
D18*
%TO.C,D24*%
X59006000Y-141690000D03*
D14*
X59006000Y-149310000D03*
%TD*%
D18*
%TO.C,D27*%
X97534000Y-141690000D03*
D14*
X97534000Y-149310000D03*
%TD*%
%TO.C,R20*%
X84498495Y-136090000D03*
X84498495Y-146250000D03*
%TD*%
D15*
%TO.C,SW13*%
X125465714Y-110524938D03*
D16*
X130545714Y-110524938D03*
D15*
X135625714Y-110524938D03*
D17*
X133085714Y-105444938D03*
X126735714Y-107984938D03*
%TD*%
D15*
%TO.C,SW23*%
X164000000Y-160500000D03*
D16*
X169080000Y-160500000D03*
D15*
X174160000Y-160500000D03*
D17*
X171620000Y-155420000D03*
X165270000Y-157960000D03*
%TD*%
D15*
%TO.C,SW11*%
X86931429Y-110524938D03*
D16*
X92011429Y-110524938D03*
D15*
X97091429Y-110524938D03*
D17*
X94551429Y-105444938D03*
X88201429Y-107984938D03*
%TD*%
D14*
%TO.C,R6*%
X104444362Y-86114938D03*
X104444362Y-96274938D03*
%TD*%
D25*
%TO.C,J21*%
X61180000Y-173500000D03*
D15*
X63720000Y-173500000D03*
X66260000Y-173500000D03*
X68800000Y-173500000D03*
X71340000Y-173500000D03*
X73880000Y-173500000D03*
X76420000Y-173500000D03*
X78960000Y-173500000D03*
X81500000Y-173500000D03*
X84040000Y-173500000D03*
X86580000Y-173500000D03*
X89120000Y-173500000D03*
X91660000Y-173500000D03*
X94200000Y-173500000D03*
X96740000Y-173500000D03*
X99280000Y-173500000D03*
X101820000Y-173500000D03*
X104360000Y-173500000D03*
X106900000Y-173500000D03*
X109440000Y-173500000D03*
X111980000Y-173500000D03*
X114520000Y-173500000D03*
X117060000Y-173500000D03*
X119600000Y-173500000D03*
X122140000Y-173500000D03*
X124680000Y-173500000D03*
X127220000Y-173500000D03*
X129760000Y-173500000D03*
X132300000Y-173500000D03*
X134840000Y-173500000D03*
X137380000Y-173500000D03*
X139920000Y-173500000D03*
X142460000Y-173500000D03*
X145000000Y-173500000D03*
%TD*%
D11*
%TO.C,D6*%
X51659857Y-94024938D03*
D12*
X54199857Y-94024938D03*
%TD*%
D23*
%TO.C,REF\u002A\u002A*%
X181000000Y-38500000D03*
%TD*%
D14*
%TO.C,R3*%
X46361090Y-86114938D03*
X46361090Y-96274938D03*
%TD*%
%TO.C,R30*%
X114162286Y-149250000D03*
X104002286Y-149250000D03*
%TD*%
D10*
%TO.C,J12*%
X169080000Y-82774938D03*
%TD*%
D23*
%TO.C,REF\u002A\u002A*%
X181000000Y-177000000D03*
%TD*%
D18*
%TO.C,D10*%
X78278000Y-91714938D03*
D14*
X78278000Y-99334938D03*
%TD*%
D10*
%TO.C,J13*%
X34210000Y-132750000D03*
%TD*%
%TO.C,J18*%
X131381429Y-132750000D03*
%TD*%
D11*
%TO.C,D33*%
X148605143Y-144000000D03*
D12*
X151145143Y-144000000D03*
%TD*%
D10*
%TO.C,J8*%
X111278571Y-82774938D03*
%TD*%
D11*
%TO.C,D11*%
X109598000Y-94024938D03*
D12*
X112138000Y-94024938D03*
%TD*%
D15*
%TO.C,SW19*%
X86931429Y-160500000D03*
D16*
X92011429Y-160500000D03*
D15*
X97091429Y-160500000D03*
D17*
X94551429Y-155420000D03*
X88201429Y-157960000D03*
%TD*%
D15*
%TO.C,SW6*%
X67664286Y-51971840D03*
D16*
X72744286Y-51971840D03*
D15*
X77824286Y-51971840D03*
D17*
X75284286Y-46891840D03*
X68934286Y-49431840D03*
%TD*%
D14*
%TO.C,R29*%
X94902095Y-149250000D03*
X84742095Y-149250000D03*
%TD*%
D15*
%TO.C,SW15*%
X164000000Y-110524938D03*
D16*
X169080000Y-110524938D03*
D15*
X174160000Y-110524938D03*
D17*
X171620000Y-105444938D03*
X165270000Y-107984938D03*
%TD*%
M02*
