M48
; DRILL file {KiCad 9.0.6} date 2026-05-22T00:00:19+1000
; FORMAT={-:-/ absolute / metric / decimal}
; #@! TF.CreationDate,2026-05-22T00:00:19+10:00
; #@! TF.GenerationSoftware,Kicad,Pcbnew,9.0.6
; #@! TF.FileFunction,NonPlated,1,2,NPTH
FMAT,2
METRIC
; #@! TA.AperFunction,NonPlated,NPTH,ComponentDrill
T1C1.700
; #@! TA.AperFunction,NonPlated,NPTH,ComponentDrill
T2C3.200
; #@! TA.AperFunction,NonPlated,NPTH,ComponentDrill
T3C4.000
%
G90
G05
T1
X29.13Y-51.972
X29.13Y-110.525
X29.13Y-160.5
X39.29Y-51.972
X39.29Y-110.525
X39.29Y-160.5
X48.397Y-51.972
X48.397Y-110.525
X48.397Y-160.5
X58.557Y-51.972
X58.557Y-110.525
X58.557Y-160.5
X67.664Y-51.972
X67.664Y-110.525
X67.664Y-160.5
X77.824Y-51.972
X77.824Y-110.525
X77.824Y-160.5
X86.931Y-51.972
X86.931Y-110.525
X86.931Y-160.5
X97.091Y-51.972
X97.091Y-110.525
X97.091Y-160.5
X106.199Y-110.525
X106.199Y-160.5
X116.359Y-110.525
X116.359Y-160.5
X125.466Y-110.525
X125.466Y-160.5
X135.626Y-110.525
X135.626Y-160.5
X144.733Y-110.525
X144.733Y-160.5
X154.893Y-110.525
X154.893Y-160.5
X164.0Y-110.525
X164.0Y-160.5
X174.16Y-110.525
X174.16Y-160.5
T2
X22.5Y-23.0
X22.5Y-176.0
X77.561Y-69.5
X102.23Y-127.0
X125.729Y-69.5
X181.0Y-23.0
X181.0Y-38.5
X181.0Y-69.5
X181.0Y-177.0
T3
X34.21Y-51.972
X34.21Y-110.525
X34.21Y-160.5
X53.477Y-51.972
X53.477Y-110.525
X53.477Y-160.5
X72.744Y-51.972
X72.744Y-110.525
X72.744Y-160.5
X92.011Y-51.972
X92.011Y-110.525
X92.011Y-160.5
X111.279Y-110.525
X111.279Y-160.5
X130.546Y-110.525
X130.546Y-160.5
X149.813Y-110.525
X149.813Y-160.5
X169.08Y-110.525
X169.08Y-160.5
M30
