%TF.GenerationSoftware,KiCad,Pcbnew,9.0.6*%
%TF.CreationDate,2026-05-21T23:58:44+10:00*%
%TF.ProjectId,note-sequencer,6e6f7465-2d73-4657-9175-656e6365722e,rev?*%
%TF.SameCoordinates,Original*%
%TF.FileFunction,Legend,Top*%
%TF.FilePolarity,Positive*%
%FSLAX46Y46*%
G04 Gerber Fmt 4.6, Leading zero omitted, Abs format (unit mm)*
G04 Created by KiCad (PCBNEW 9.0.6) date 2026-05-21 23:58:44*
%MOMM*%
%LPD*%
G01*
G04 APERTURE LIST*
%ADD10C,0.120000*%
%ADD11C,0.100000*%
G04 APERTURE END LIST*
D10*
%TO.C,J14*%
X69117502Y-241097069D02*
X70497502Y-241097069D01*
X69117502Y-242477069D02*
X69117502Y-241097069D01*
X69117502Y-243747069D02*
X69117502Y-256557069D01*
X69117502Y-243747069D02*
X71877502Y-243747069D01*
X69117502Y-256557069D02*
X71877502Y-256557069D01*
X71877502Y-243747069D02*
X71877502Y-256557069D01*
D11*
%TO.C,J10*%
X63772437Y-237324034D02*
G75*
G02*
X51772437Y-237324034I-6000000J0D01*
G01*
X51772437Y-237324034D02*
G75*
G02*
X63772437Y-237324034I6000000J0D01*
G01*
%TO.C,J11*%
X35022437Y-264574034D02*
G75*
G02*
X23022437Y-264574034I-6000000J0D01*
G01*
X23022437Y-264574034D02*
G75*
G02*
X35022437Y-264574034I6000000J0D01*
G01*
D10*
%TO.C,J13*%
X64485414Y-244737078D02*
X65865414Y-244737078D01*
X64485414Y-246117078D02*
X64485414Y-244737078D01*
X64485414Y-247387078D02*
X64485414Y-250037078D01*
X64485414Y-247387078D02*
X67245414Y-247387078D01*
X64485414Y-250037078D02*
X67245414Y-250037078D01*
X67245414Y-247387078D02*
X67245414Y-250037078D01*
D11*
%TO.C,J12*%
X63772437Y-264574034D02*
G75*
G02*
X51772437Y-264574034I-6000000J0D01*
G01*
X51772437Y-264574034D02*
G75*
G02*
X63772437Y-264574034I6000000J0D01*
G01*
%TO.C,J9*%
X35022437Y-237324034D02*
G75*
G02*
X23022437Y-237324034I-6000000J0D01*
G01*
X23022437Y-237324034D02*
G75*
G02*
X35022437Y-237324034I6000000J0D01*
G01*
%TD*%
M02*
