%TF.GenerationSoftware,KiCad,Pcbnew,9.0.6*%
%TF.CreationDate,2026-05-21T23:58:44+10:00*%
%TF.ProjectId,note-sequencer,6e6f7465-2d73-4657-9175-656e6365722e,rev?*%
%TF.SameCoordinates,Original*%
%TF.FileFunction,Copper,L2,Bot*%
%TF.FilePolarity,Positive*%
%FSLAX46Y46*%
G04 Gerber Fmt 4.6, Leading zero omitted, Abs format (unit mm)*
G04 Created by KiCad (PCBNEW 9.0.6) date 2026-05-21 23:58:44*
%MOMM*%
%LPD*%
G01*
G04 APERTURE LIST*
%TA.AperFunction,ComponentPad*%
%ADD10R,1.700000X1.700000*%
%TD*%
%TA.AperFunction,ComponentPad*%
%ADD11C,1.700000*%
%TD*%
%TA.AperFunction,ComponentPad*%
%ADD12C,8.000000*%
%TD*%
%TA.AperFunction,Conductor*%
%ADD13C,0.200000*%
%TD*%
G04 APERTURE END LIST*
D10*
%TO.P,J14,1,Pin_1*%
%TO.N,Net-(J14-Pin_1)*%
X70497502Y-242477069D03*
D11*
%TO.P,J14,2,Pin_2*%
%TO.N,Net-(J12-Pin_1)*%
X70497502Y-245017069D03*
%TO.P,J14,3,Pin_3*%
%TO.N,Net-(J11-Pin_1)*%
X70497502Y-247557069D03*
%TO.P,J14,4,Pin_4*%
%TO.N,Net-(J10-Pin_1)*%
X70497502Y-250097069D03*
%TO.P,J14,5,Pin_5*%
%TO.N,Net-(J13-Pin_1)*%
X70497502Y-252637069D03*
%TO.P,J14,6,Pin_6*%
%TO.N,Net-(J13-Pin_2)*%
X70497502Y-255177069D03*
%TD*%
D12*
%TO.P,J10,1,Pin_1*%
%TO.N,Net-(J10-Pin_1)*%
X57772437Y-237348972D03*
%TD*%
%TO.P,J11,1,Pin_1*%
%TO.N,Net-(J11-Pin_1)*%
X29022437Y-264598972D03*
%TD*%
D10*
%TO.P,J13,1,Pin_1*%
%TO.N,Net-(J13-Pin_1)*%
X65865414Y-246117078D03*
D11*
%TO.P,J13,2,Pin_2*%
%TO.N,Net-(J13-Pin_2)*%
X65865414Y-248657078D03*
%TD*%
D12*
%TO.P,J12,1,Pin_1*%
%TO.N,Net-(J12-Pin_1)*%
X57772437Y-264598972D03*
%TD*%
%TO.P,J9,1,Pin_1*%
%TO.N,Net-(J14-Pin_1)*%
X29022437Y-237348972D03*
%TD*%
D13*
%TO.N,Net-(J10-Pin_1)*%
X59322308Y-237348972D02*
X57772437Y-237348972D01*
X69346502Y-248946069D02*
X69346502Y-247373166D01*
%TO.N,Net-(J12-Pin_1)*%
X72049502Y-246569069D02*
X70497502Y-245017069D01*
%TO.N,Net-(J10-Pin_1)*%
X70497502Y-250097069D02*
X69346502Y-248946069D01*
%TO.N,Net-(J12-Pin_1)*%
X57772437Y-264598972D02*
X63429291Y-264598972D01*
X63429291Y-264598972D02*
X72049502Y-255978761D01*
%TO.N,Net-(J11-Pin_1)*%
X70974262Y-256328069D02*
X37293340Y-256328069D01*
%TO.N,Net-(J12-Pin_1)*%
X72049502Y-255978761D02*
X72049502Y-246569069D01*
%TO.N,Net-(J10-Pin_1)*%
X69346502Y-247373166D02*
X59322308Y-237348972D01*
%TO.N,Net-(J13-Pin_1)*%
X67016414Y-249155981D02*
X67016414Y-247268078D01*
X67016414Y-247268078D02*
X65865414Y-246117078D01*
%TO.N,Net-(J11-Pin_1)*%
X37293340Y-256328069D02*
X29022437Y-264598972D01*
%TO.N,Net-(J13-Pin_1)*%
X70497502Y-252637069D02*
X67016414Y-249155981D01*
%TO.N,Net-(J14-Pin_1)*%
X70497502Y-242477069D02*
X61068405Y-233047972D01*
X61068405Y-233047972D02*
X33323437Y-233047972D01*
X33323437Y-233047972D02*
X29022437Y-237348972D01*
%TO.N,Net-(J13-Pin_2)*%
X70497502Y-255177069D02*
X65865414Y-250544981D01*
X65865414Y-250544981D02*
X65865414Y-248657078D01*
%TO.N,Net-(J11-Pin_1)*%
X71648502Y-255653829D02*
X70974262Y-256328069D01*
X70497502Y-247557069D02*
X71648502Y-248708069D01*
X71648502Y-248708069D02*
X71648502Y-255653829D01*
%TD*%
M02*
