M48
; DRILL file {KiCad 9.0.5} date 2025-12-27T19:44:22+1100
; FORMAT={-:-/ absolute / metric / decimal}
; #@! TF.CreationDate,2025-12-27T19:44:22+11:00
; #@! TF.GenerationSoftware,Kicad,Pcbnew,9.0.5
; #@! TF.FileFunction,Plated,1,2,PTH
FMAT,2
METRIC
; #@! TA.AperFunction,Plated,PTH,ComponentDrill
T1C0.800
; #@! TA.AperFunction,Plated,PTH,ComponentDrill
T2C1.000
; #@! TA.AperFunction,Plated,PTH,ComponentDrill
T3C6.000
%
G90
G05
T1
X32.92Y-135.025
X43.08Y-135.025
X49.3Y-128.0
X50.38Y-113.88
X50.38Y-121.5
X52.92Y-113.88
X52.92Y-121.5
X55.46Y-113.88
X55.46Y-121.5
X58.0Y-113.88
X58.0Y-121.5
X59.46Y-128.0
X64.5Y-111.0
X64.5Y-116.0
X64.5Y-119.0
X64.5Y-129.16
X68.5Y-111.0
X68.5Y-116.0
X68.5Y-119.0
X68.5Y-129.16
X68.84Y-165.5
X72.5Y-111.0
X72.5Y-116.0
X72.5Y-119.0
X72.5Y-129.16
X76.5Y-111.0
X76.5Y-116.0
X76.5Y-119.0
X76.5Y-129.16
X79.0Y-165.5
X80.5Y-111.0
X80.5Y-116.0
X80.5Y-119.0
X80.5Y-129.16
X84.5Y-111.0
X84.5Y-116.0
X84.5Y-119.0
X84.5Y-129.16
X91.58Y-135.025
X101.74Y-135.025
T2
X50.46Y-27.0
X50.46Y-29.54
X51.0Y-36.5
X51.0Y-61.0
X51.0Y-85.5
X51.0Y-134.525
X53.0Y-27.0
X53.0Y-29.54
X53.41Y-82.0
X53.41Y-106.5
X53.41Y-155.525
X53.42Y-57.5
X55.54Y-27.0
X55.54Y-29.54
X55.95Y-82.0
X55.95Y-106.5
X55.95Y-155.525
X55.96Y-57.5
X56.08Y-36.5
X56.08Y-61.0
X56.08Y-85.5
X56.08Y-134.525
X58.49Y-82.0
X58.49Y-106.5
X58.49Y-155.525
X58.5Y-57.5
X61.08Y-36.5
X61.08Y-61.0
X61.08Y-85.5
X61.08Y-134.525
X63.0Y-162.0
X63.0Y-164.54
X63.0Y-167.08
X63.0Y-169.62
X73.5Y-36.5
X73.5Y-61.0
X73.5Y-85.5
X73.5Y-134.525
X75.96Y-82.0
X75.96Y-106.5
X75.96Y-155.525
X76.0Y-57.5
X78.5Y-82.0
X78.5Y-106.5
X78.5Y-155.525
X78.54Y-57.5
X78.58Y-36.5
X78.58Y-61.0
X78.58Y-85.5
X78.58Y-134.525
X78.96Y-26.96
X78.96Y-29.5
X81.04Y-82.0
X81.04Y-106.5
X81.04Y-155.525
X81.08Y-57.5
X81.5Y-26.96
X81.5Y-29.5
X83.58Y-36.5
X83.58Y-61.0
X83.58Y-85.5
X83.58Y-134.525
X84.04Y-26.96
X84.04Y-29.5
T3
X38.0Y-47.025
X38.0Y-71.025
X38.0Y-96.025
X38.0Y-146.025
X96.5Y-47.0
X96.5Y-71.025
X96.5Y-96.025
X96.5Y-146.025
T2
G00X84.625Y-161.0
M15
G01X86.375Y-161.0
M16
G05
G00X84.625Y-165.5
M15
G01X86.375Y-165.5
M16
G05
G00X84.625Y-170.0
M15
G01X86.375Y-170.0
M16
G05
M30
