M48
; DRILL file {KiCad 9.0.6} date 2026-01-10T01:38:59+1100
; FORMAT={-:-/ absolute / metric / decimal}
; #@! TF.CreationDate,2026-01-10T01:38:59+11:00
; #@! TF.GenerationSoftware,Kicad,Pcbnew,9.0.6
; #@! TF.FileFunction,Plated,1,2,PTH
FMAT,2
METRIC
; #@! TA.AperFunction,Plated,PTH,ComponentDrill
T1C0.800
; #@! TA.AperFunction,Plated,PTH,ComponentDrill
T2C1.000
; #@! TA.AperFunction,Plated,PTH,ComponentDrill
T3C6.000
%
G90
G05
T1
X32.92Y-126.5
X34.92Y-116.5
X34.92Y-120.0
X35.0Y-113.0
X39.92Y-116.5
X39.92Y-120.0
X40.0Y-113.0
X43.08Y-126.5
X44.92Y-116.5
X44.92Y-120.0
X45.0Y-113.0
X55.08Y-116.5
X55.08Y-120.0
X55.16Y-113.0
X60.183Y-113.161
X60.183Y-118.161
X63.61Y-113.19
X63.61Y-120.81
X66.15Y-113.19
X66.15Y-120.81
X68.69Y-113.19
X68.69Y-120.81
X68.84Y-153.475
X68.84Y-156.975
X71.23Y-113.19
X71.23Y-120.81
X74.607Y-115.825
X74.607Y-120.825
X79.0Y-153.475
X79.0Y-156.975
X79.5Y-113.5
X79.5Y-117.0
X79.5Y-120.5
X89.66Y-113.5
X89.66Y-117.0
X89.66Y-120.5
X91.58Y-126.5
X94.66Y-113.5
X94.66Y-117.0
X94.66Y-120.5
X99.66Y-113.5
X99.66Y-117.0
X99.66Y-120.5
X101.74Y-126.5
T2
X50.46Y-27.0
X50.46Y-29.54
X50.96Y-90.5
X51.0Y-41.5
X51.0Y-66.0
X51.0Y-130.975
X53.0Y-27.0
X53.0Y-29.54
X53.41Y-82.0
X53.41Y-106.5
X53.41Y-147.0
X53.42Y-57.5
X55.54Y-27.0
X55.54Y-29.54
X55.95Y-82.0
X55.95Y-106.5
X55.95Y-147.0
X55.96Y-57.5
X56.04Y-90.5
X56.08Y-41.5
X56.08Y-66.0
X56.08Y-130.975
X58.49Y-82.0
X58.49Y-106.5
X58.49Y-147.0
X58.5Y-57.5
X61.04Y-90.5
X61.08Y-41.5
X61.08Y-66.0
X61.08Y-130.975
X63.0Y-153.475
X63.0Y-156.015
X63.0Y-158.555
X63.0Y-161.095
X73.46Y-65.8
X73.5Y-41.5
X73.5Y-90.5
X73.5Y-130.975
X75.96Y-82.0
X75.96Y-106.5
X75.96Y-147.0
X76.0Y-57.5
X78.5Y-82.0
X78.5Y-106.5
X78.5Y-147.0
X78.54Y-57.5
X78.54Y-65.8
X78.58Y-41.5
X78.58Y-90.5
X78.58Y-130.975
X78.96Y-26.96
X78.96Y-29.5
X81.04Y-82.0
X81.04Y-106.5
X81.04Y-147.0
X81.08Y-57.5
X81.5Y-26.96
X81.5Y-29.5
X83.54Y-65.8
X83.58Y-41.5
X83.58Y-90.5
X83.58Y-130.975
X84.04Y-26.96
X84.04Y-29.5
T3
X38.0Y-47.025
X38.0Y-71.025
X38.0Y-96.025
X38.0Y-137.5
X96.5Y-47.0
X96.5Y-71.025
X96.5Y-96.025
X96.5Y-137.5
T2
G00X84.125Y-152.5
M15
G01X85.875Y-152.5
M16
G05
G00X84.125Y-157.0
M15
G01X85.875Y-157.0
M16
G05
G00X84.125Y-161.5
M15
G01X85.875Y-161.5
M16
G05
M30
