%TF.GenerationSoftware,KiCad,Pcbnew,9.0.5*%
%TF.CreationDate,2025-12-27T19:44:07+11:00*%
%TF.ProjectId,audio-mixer,61756469-6f2d-46d6-9978-65722e6b6963,rev?*%
%TF.SameCoordinates,Original*%
%TF.FileFunction,Legend,Top*%
%TF.FilePolarity,Positive*%
%FSLAX46Y46*%
G04 Gerber Fmt 4.6, Leading zero omitted, Abs format (unit mm)*
G04 Created by KiCad (PCBNEW 9.0.5) date 2025-12-27 19:44:07*
%MOMM*%
%LPD*%
G01*
G04 APERTURE LIST*
%ADD10C,0.100000*%
%ADD11C,0.300000*%
%ADD12C,0.150000*%
%ADD13C,0.120000*%
G04 APERTURE END LIST*
D10*
X32071429Y-170671704D02*
X32547619Y-170671704D01*
X31976191Y-170957419D02*
X32309524Y-169957419D01*
X32309524Y-169957419D02*
X32642857Y-170957419D01*
X32976191Y-169957419D02*
X32976191Y-170766942D01*
X32976191Y-170766942D02*
X33023810Y-170862180D01*
X33023810Y-170862180D02*
X33071429Y-170909800D01*
X33071429Y-170909800D02*
X33166667Y-170957419D01*
X33166667Y-170957419D02*
X33357143Y-170957419D01*
X33357143Y-170957419D02*
X33452381Y-170909800D01*
X33452381Y-170909800D02*
X33500000Y-170862180D01*
X33500000Y-170862180D02*
X33547619Y-170766942D01*
X33547619Y-170766942D02*
X33547619Y-169957419D01*
X34023810Y-170957419D02*
X34023810Y-169957419D01*
X34023810Y-169957419D02*
X34261905Y-169957419D01*
X34261905Y-169957419D02*
X34404762Y-170005038D01*
X34404762Y-170005038D02*
X34500000Y-170100276D01*
X34500000Y-170100276D02*
X34547619Y-170195514D01*
X34547619Y-170195514D02*
X34595238Y-170385990D01*
X34595238Y-170385990D02*
X34595238Y-170528847D01*
X34595238Y-170528847D02*
X34547619Y-170719323D01*
X34547619Y-170719323D02*
X34500000Y-170814561D01*
X34500000Y-170814561D02*
X34404762Y-170909800D01*
X34404762Y-170909800D02*
X34261905Y-170957419D01*
X34261905Y-170957419D02*
X34023810Y-170957419D01*
X35023810Y-170957419D02*
X35023810Y-169957419D01*
X35690476Y-169957419D02*
X35880952Y-169957419D01*
X35880952Y-169957419D02*
X35976190Y-170005038D01*
X35976190Y-170005038D02*
X36071428Y-170100276D01*
X36071428Y-170100276D02*
X36119047Y-170290752D01*
X36119047Y-170290752D02*
X36119047Y-170624085D01*
X36119047Y-170624085D02*
X36071428Y-170814561D01*
X36071428Y-170814561D02*
X35976190Y-170909800D01*
X35976190Y-170909800D02*
X35880952Y-170957419D01*
X35880952Y-170957419D02*
X35690476Y-170957419D01*
X35690476Y-170957419D02*
X35595238Y-170909800D01*
X35595238Y-170909800D02*
X35500000Y-170814561D01*
X35500000Y-170814561D02*
X35452381Y-170624085D01*
X35452381Y-170624085D02*
X35452381Y-170290752D01*
X35452381Y-170290752D02*
X35500000Y-170100276D01*
X35500000Y-170100276D02*
X35595238Y-170005038D01*
X35595238Y-170005038D02*
X35690476Y-169957419D01*
X37309524Y-170957419D02*
X37309524Y-169957419D01*
X37309524Y-169957419D02*
X37642857Y-170671704D01*
X37642857Y-170671704D02*
X37976190Y-169957419D01*
X37976190Y-169957419D02*
X37976190Y-170957419D01*
X38452381Y-170957419D02*
X38452381Y-169957419D01*
X38833333Y-169957419D02*
X39499999Y-170957419D01*
X39499999Y-169957419D02*
X38833333Y-170957419D01*
X39880952Y-170433609D02*
X40214285Y-170433609D01*
X40357142Y-170957419D02*
X39880952Y-170957419D01*
X39880952Y-170957419D02*
X39880952Y-169957419D01*
X39880952Y-169957419D02*
X40357142Y-169957419D01*
X41357142Y-170957419D02*
X41023809Y-170481228D01*
X40785714Y-170957419D02*
X40785714Y-169957419D01*
X40785714Y-169957419D02*
X41166666Y-169957419D01*
X41166666Y-169957419D02*
X41261904Y-170005038D01*
X41261904Y-170005038D02*
X41309523Y-170052657D01*
X41309523Y-170052657D02*
X41357142Y-170147895D01*
X41357142Y-170147895D02*
X41357142Y-170290752D01*
X41357142Y-170290752D02*
X41309523Y-170385990D01*
X41309523Y-170385990D02*
X41261904Y-170433609D01*
X41261904Y-170433609D02*
X41166666Y-170481228D01*
X41166666Y-170481228D02*
X40785714Y-170481228D01*
X42404762Y-169957419D02*
X42738095Y-170957419D01*
X42738095Y-170957419D02*
X43071428Y-169957419D01*
X43928571Y-170957419D02*
X43357143Y-170957419D01*
X43642857Y-170957419D02*
X43642857Y-169957419D01*
X43642857Y-169957419D02*
X43547619Y-170100276D01*
X43547619Y-170100276D02*
X43452381Y-170195514D01*
X43452381Y-170195514D02*
X43357143Y-170243133D01*
D11*
X90483082Y-160729400D02*
X90697368Y-160800828D01*
X90697368Y-160800828D02*
X91054510Y-160800828D01*
X91054510Y-160800828D02*
X91197368Y-160729400D01*
X91197368Y-160729400D02*
X91268796Y-160657971D01*
X91268796Y-160657971D02*
X91340225Y-160515114D01*
X91340225Y-160515114D02*
X91340225Y-160372257D01*
X91340225Y-160372257D02*
X91268796Y-160229400D01*
X91268796Y-160229400D02*
X91197368Y-160157971D01*
X91197368Y-160157971D02*
X91054510Y-160086542D01*
X91054510Y-160086542D02*
X90768796Y-160015114D01*
X90768796Y-160015114D02*
X90625939Y-159943685D01*
X90625939Y-159943685D02*
X90554510Y-159872257D01*
X90554510Y-159872257D02*
X90483082Y-159729400D01*
X90483082Y-159729400D02*
X90483082Y-159586542D01*
X90483082Y-159586542D02*
X90554510Y-159443685D01*
X90554510Y-159443685D02*
X90625939Y-159372257D01*
X90625939Y-159372257D02*
X90768796Y-159300828D01*
X90768796Y-159300828D02*
X91125939Y-159300828D01*
X91125939Y-159300828D02*
X91340225Y-159372257D01*
X91768796Y-159300828D02*
X92625939Y-159300828D01*
X92197367Y-160800828D02*
X92197367Y-159300828D01*
X93125938Y-160015114D02*
X93625938Y-160015114D01*
X93840224Y-160800828D02*
X93125938Y-160800828D01*
X93125938Y-160800828D02*
X93125938Y-159300828D01*
X93125938Y-159300828D02*
X93840224Y-159300828D01*
X95340224Y-160800828D02*
X94840224Y-160086542D01*
X94483081Y-160800828D02*
X94483081Y-159300828D01*
X94483081Y-159300828D02*
X95054510Y-159300828D01*
X95054510Y-159300828D02*
X95197367Y-159372257D01*
X95197367Y-159372257D02*
X95268796Y-159443685D01*
X95268796Y-159443685D02*
X95340224Y-159586542D01*
X95340224Y-159586542D02*
X95340224Y-159800828D01*
X95340224Y-159800828D02*
X95268796Y-159943685D01*
X95268796Y-159943685D02*
X95197367Y-160015114D01*
X95197367Y-160015114D02*
X95054510Y-160086542D01*
X95054510Y-160086542D02*
X94483081Y-160086542D01*
X95983081Y-160015114D02*
X96483081Y-160015114D01*
X96697367Y-160800828D02*
X95983081Y-160800828D01*
X95983081Y-160800828D02*
X95983081Y-159300828D01*
X95983081Y-159300828D02*
X96697367Y-159300828D01*
X97625939Y-159300828D02*
X97911653Y-159300828D01*
X97911653Y-159300828D02*
X98054510Y-159372257D01*
X98054510Y-159372257D02*
X98197367Y-159515114D01*
X98197367Y-159515114D02*
X98268796Y-159800828D01*
X98268796Y-159800828D02*
X98268796Y-160300828D01*
X98268796Y-160300828D02*
X98197367Y-160586542D01*
X98197367Y-160586542D02*
X98054510Y-160729400D01*
X98054510Y-160729400D02*
X97911653Y-160800828D01*
X97911653Y-160800828D02*
X97625939Y-160800828D01*
X97625939Y-160800828D02*
X97483082Y-160729400D01*
X97483082Y-160729400D02*
X97340224Y-160586542D01*
X97340224Y-160586542D02*
X97268796Y-160300828D01*
X97268796Y-160300828D02*
X97268796Y-159800828D01*
X97268796Y-159800828D02*
X97340224Y-159515114D01*
X97340224Y-159515114D02*
X97483082Y-159372257D01*
X97483082Y-159372257D02*
X97625939Y-159300828D01*
X90554510Y-171800828D02*
X90554510Y-170300828D01*
X90554510Y-170300828D02*
X91054510Y-171372257D01*
X91054510Y-171372257D02*
X91554510Y-170300828D01*
X91554510Y-170300828D02*
X91554510Y-171800828D01*
X92554511Y-170300828D02*
X92840225Y-170300828D01*
X92840225Y-170300828D02*
X92983082Y-170372257D01*
X92983082Y-170372257D02*
X93125939Y-170515114D01*
X93125939Y-170515114D02*
X93197368Y-170800828D01*
X93197368Y-170800828D02*
X93197368Y-171300828D01*
X93197368Y-171300828D02*
X93125939Y-171586542D01*
X93125939Y-171586542D02*
X92983082Y-171729400D01*
X92983082Y-171729400D02*
X92840225Y-171800828D01*
X92840225Y-171800828D02*
X92554511Y-171800828D01*
X92554511Y-171800828D02*
X92411654Y-171729400D01*
X92411654Y-171729400D02*
X92268796Y-171586542D01*
X92268796Y-171586542D02*
X92197368Y-171300828D01*
X92197368Y-171300828D02*
X92197368Y-170800828D01*
X92197368Y-170800828D02*
X92268796Y-170515114D01*
X92268796Y-170515114D02*
X92411654Y-170372257D01*
X92411654Y-170372257D02*
X92554511Y-170300828D01*
X93840225Y-171800828D02*
X93840225Y-170300828D01*
X93840225Y-170300828D02*
X94697368Y-171800828D01*
X94697368Y-171800828D02*
X94697368Y-170300828D01*
X95697369Y-170300828D02*
X95983083Y-170300828D01*
X95983083Y-170300828D02*
X96125940Y-170372257D01*
X96125940Y-170372257D02*
X96268797Y-170515114D01*
X96268797Y-170515114D02*
X96340226Y-170800828D01*
X96340226Y-170800828D02*
X96340226Y-171300828D01*
X96340226Y-171300828D02*
X96268797Y-171586542D01*
X96268797Y-171586542D02*
X96125940Y-171729400D01*
X96125940Y-171729400D02*
X95983083Y-171800828D01*
X95983083Y-171800828D02*
X95697369Y-171800828D01*
X95697369Y-171800828D02*
X95554512Y-171729400D01*
X95554512Y-171729400D02*
X95411654Y-171586542D01*
X95411654Y-171586542D02*
X95340226Y-171300828D01*
X95340226Y-171300828D02*
X95340226Y-170800828D01*
X95340226Y-170800828D02*
X95411654Y-170515114D01*
X95411654Y-170515114D02*
X95554512Y-170372257D01*
X95554512Y-170372257D02*
X95697369Y-170300828D01*
D10*
X65214286Y-169909800D02*
X65357143Y-169957419D01*
X65357143Y-169957419D02*
X65595238Y-169957419D01*
X65595238Y-169957419D02*
X65690476Y-169909800D01*
X65690476Y-169909800D02*
X65738095Y-169862180D01*
X65738095Y-169862180D02*
X65785714Y-169766942D01*
X65785714Y-169766942D02*
X65785714Y-169671704D01*
X65785714Y-169671704D02*
X65738095Y-169576466D01*
X65738095Y-169576466D02*
X65690476Y-169528847D01*
X65690476Y-169528847D02*
X65595238Y-169481228D01*
X65595238Y-169481228D02*
X65404762Y-169433609D01*
X65404762Y-169433609D02*
X65309524Y-169385990D01*
X65309524Y-169385990D02*
X65261905Y-169338371D01*
X65261905Y-169338371D02*
X65214286Y-169243133D01*
X65214286Y-169243133D02*
X65214286Y-169147895D01*
X65214286Y-169147895D02*
X65261905Y-169052657D01*
X65261905Y-169052657D02*
X65309524Y-169005038D01*
X65309524Y-169005038D02*
X65404762Y-168957419D01*
X65404762Y-168957419D02*
X65642857Y-168957419D01*
X65642857Y-168957419D02*
X65785714Y-169005038D01*
X65833333Y-167457419D02*
X65500000Y-166981228D01*
X65261905Y-167457419D02*
X65261905Y-166457419D01*
X65261905Y-166457419D02*
X65642857Y-166457419D01*
X65642857Y-166457419D02*
X65738095Y-166505038D01*
X65738095Y-166505038D02*
X65785714Y-166552657D01*
X65785714Y-166552657D02*
X65833333Y-166647895D01*
X65833333Y-166647895D02*
X65833333Y-166790752D01*
X65833333Y-166790752D02*
X65785714Y-166885990D01*
X65785714Y-166885990D02*
X65738095Y-166933609D01*
X65738095Y-166933609D02*
X65642857Y-166981228D01*
X65642857Y-166981228D02*
X65261905Y-166981228D01*
X66214286Y-166552657D02*
X66261905Y-166505038D01*
X66261905Y-166505038D02*
X66357143Y-166457419D01*
X66357143Y-166457419D02*
X66595238Y-166457419D01*
X66595238Y-166457419D02*
X66690476Y-166505038D01*
X66690476Y-166505038D02*
X66738095Y-166552657D01*
X66738095Y-166552657D02*
X66785714Y-166647895D01*
X66785714Y-166647895D02*
X66785714Y-166743133D01*
X66785714Y-166743133D02*
X66738095Y-166885990D01*
X66738095Y-166885990D02*
X66166667Y-167457419D01*
X66166667Y-167457419D02*
X66785714Y-167457419D01*
X65833333Y-164957419D02*
X65500000Y-164481228D01*
X65261905Y-164957419D02*
X65261905Y-163957419D01*
X65261905Y-163957419D02*
X65642857Y-163957419D01*
X65642857Y-163957419D02*
X65738095Y-164005038D01*
X65738095Y-164005038D02*
X65785714Y-164052657D01*
X65785714Y-164052657D02*
X65833333Y-164147895D01*
X65833333Y-164147895D02*
X65833333Y-164290752D01*
X65833333Y-164290752D02*
X65785714Y-164385990D01*
X65785714Y-164385990D02*
X65738095Y-164433609D01*
X65738095Y-164433609D02*
X65642857Y-164481228D01*
X65642857Y-164481228D02*
X65261905Y-164481228D01*
X66785714Y-164957419D02*
X66214286Y-164957419D01*
X66500000Y-164957419D02*
X66500000Y-163957419D01*
X66500000Y-163957419D02*
X66404762Y-164100276D01*
X66404762Y-164100276D02*
X66309524Y-164195514D01*
X66309524Y-164195514D02*
X66214286Y-164243133D01*
X65214286Y-161457419D02*
X65785714Y-161457419D01*
X65500000Y-162457419D02*
X65500000Y-161457419D01*
D11*
X33340225Y-152800828D02*
X33625939Y-152800828D01*
X33625939Y-152800828D02*
X33768796Y-152872257D01*
X33768796Y-152872257D02*
X33911653Y-153015114D01*
X33911653Y-153015114D02*
X33983082Y-153300828D01*
X33983082Y-153300828D02*
X33983082Y-153800828D01*
X33983082Y-153800828D02*
X33911653Y-154086542D01*
X33911653Y-154086542D02*
X33768796Y-154229400D01*
X33768796Y-154229400D02*
X33625939Y-154300828D01*
X33625939Y-154300828D02*
X33340225Y-154300828D01*
X33340225Y-154300828D02*
X33197368Y-154229400D01*
X33197368Y-154229400D02*
X33054510Y-154086542D01*
X33054510Y-154086542D02*
X32983082Y-153800828D01*
X32983082Y-153800828D02*
X32983082Y-153300828D01*
X32983082Y-153300828D02*
X33054510Y-153015114D01*
X33054510Y-153015114D02*
X33197368Y-152872257D01*
X33197368Y-152872257D02*
X33340225Y-152800828D01*
X34625939Y-152800828D02*
X34625939Y-154015114D01*
X34625939Y-154015114D02*
X34697368Y-154157971D01*
X34697368Y-154157971D02*
X34768797Y-154229400D01*
X34768797Y-154229400D02*
X34911654Y-154300828D01*
X34911654Y-154300828D02*
X35197368Y-154300828D01*
X35197368Y-154300828D02*
X35340225Y-154229400D01*
X35340225Y-154229400D02*
X35411654Y-154157971D01*
X35411654Y-154157971D02*
X35483082Y-154015114D01*
X35483082Y-154015114D02*
X35483082Y-152800828D01*
X35983083Y-152800828D02*
X36840226Y-152800828D01*
X36411654Y-154300828D02*
X36411654Y-152800828D01*
X37340225Y-154300828D02*
X37340225Y-152800828D01*
X37340225Y-152800828D02*
X37911654Y-152800828D01*
X37911654Y-152800828D02*
X38054511Y-152872257D01*
X38054511Y-152872257D02*
X38125940Y-152943685D01*
X38125940Y-152943685D02*
X38197368Y-153086542D01*
X38197368Y-153086542D02*
X38197368Y-153300828D01*
X38197368Y-153300828D02*
X38125940Y-153443685D01*
X38125940Y-153443685D02*
X38054511Y-153515114D01*
X38054511Y-153515114D02*
X37911654Y-153586542D01*
X37911654Y-153586542D02*
X37340225Y-153586542D01*
X38840225Y-152800828D02*
X38840225Y-154015114D01*
X38840225Y-154015114D02*
X38911654Y-154157971D01*
X38911654Y-154157971D02*
X38983083Y-154229400D01*
X38983083Y-154229400D02*
X39125940Y-154300828D01*
X39125940Y-154300828D02*
X39411654Y-154300828D01*
X39411654Y-154300828D02*
X39554511Y-154229400D01*
X39554511Y-154229400D02*
X39625940Y-154157971D01*
X39625940Y-154157971D02*
X39697368Y-154015114D01*
X39697368Y-154015114D02*
X39697368Y-152800828D01*
X40197369Y-152800828D02*
X41054512Y-152800828D01*
X40625940Y-154300828D02*
X40625940Y-152800828D01*
X42625940Y-153872257D02*
X43340226Y-153872257D01*
X42483083Y-154300828D02*
X42983083Y-152800828D01*
X42983083Y-152800828D02*
X43483083Y-154300828D01*
X91840225Y-152800828D02*
X92125939Y-152800828D01*
X92125939Y-152800828D02*
X92268796Y-152872257D01*
X92268796Y-152872257D02*
X92411653Y-153015114D01*
X92411653Y-153015114D02*
X92483082Y-153300828D01*
X92483082Y-153300828D02*
X92483082Y-153800828D01*
X92483082Y-153800828D02*
X92411653Y-154086542D01*
X92411653Y-154086542D02*
X92268796Y-154229400D01*
X92268796Y-154229400D02*
X92125939Y-154300828D01*
X92125939Y-154300828D02*
X91840225Y-154300828D01*
X91840225Y-154300828D02*
X91697368Y-154229400D01*
X91697368Y-154229400D02*
X91554510Y-154086542D01*
X91554510Y-154086542D02*
X91483082Y-153800828D01*
X91483082Y-153800828D02*
X91483082Y-153300828D01*
X91483082Y-153300828D02*
X91554510Y-153015114D01*
X91554510Y-153015114D02*
X91697368Y-152872257D01*
X91697368Y-152872257D02*
X91840225Y-152800828D01*
X93125939Y-152800828D02*
X93125939Y-154015114D01*
X93125939Y-154015114D02*
X93197368Y-154157971D01*
X93197368Y-154157971D02*
X93268797Y-154229400D01*
X93268797Y-154229400D02*
X93411654Y-154300828D01*
X93411654Y-154300828D02*
X93697368Y-154300828D01*
X93697368Y-154300828D02*
X93840225Y-154229400D01*
X93840225Y-154229400D02*
X93911654Y-154157971D01*
X93911654Y-154157971D02*
X93983082Y-154015114D01*
X93983082Y-154015114D02*
X93983082Y-152800828D01*
X94483083Y-152800828D02*
X95340226Y-152800828D01*
X94911654Y-154300828D02*
X94911654Y-152800828D01*
X95840225Y-154300828D02*
X95840225Y-152800828D01*
X95840225Y-152800828D02*
X96411654Y-152800828D01*
X96411654Y-152800828D02*
X96554511Y-152872257D01*
X96554511Y-152872257D02*
X96625940Y-152943685D01*
X96625940Y-152943685D02*
X96697368Y-153086542D01*
X96697368Y-153086542D02*
X96697368Y-153300828D01*
X96697368Y-153300828D02*
X96625940Y-153443685D01*
X96625940Y-153443685D02*
X96554511Y-153515114D01*
X96554511Y-153515114D02*
X96411654Y-153586542D01*
X96411654Y-153586542D02*
X95840225Y-153586542D01*
X97340225Y-152800828D02*
X97340225Y-154015114D01*
X97340225Y-154015114D02*
X97411654Y-154157971D01*
X97411654Y-154157971D02*
X97483083Y-154229400D01*
X97483083Y-154229400D02*
X97625940Y-154300828D01*
X97625940Y-154300828D02*
X97911654Y-154300828D01*
X97911654Y-154300828D02*
X98054511Y-154229400D01*
X98054511Y-154229400D02*
X98125940Y-154157971D01*
X98125940Y-154157971D02*
X98197368Y-154015114D01*
X98197368Y-154015114D02*
X98197368Y-152800828D01*
X98697369Y-152800828D02*
X99554512Y-152800828D01*
X99125940Y-154300828D02*
X99125940Y-152800828D01*
X101697368Y-153515114D02*
X101911654Y-153586542D01*
X101911654Y-153586542D02*
X101983083Y-153657971D01*
X101983083Y-153657971D02*
X102054511Y-153800828D01*
X102054511Y-153800828D02*
X102054511Y-154015114D01*
X102054511Y-154015114D02*
X101983083Y-154157971D01*
X101983083Y-154157971D02*
X101911654Y-154229400D01*
X101911654Y-154229400D02*
X101768797Y-154300828D01*
X101768797Y-154300828D02*
X101197368Y-154300828D01*
X101197368Y-154300828D02*
X101197368Y-152800828D01*
X101197368Y-152800828D02*
X101697368Y-152800828D01*
X101697368Y-152800828D02*
X101840226Y-152872257D01*
X101840226Y-152872257D02*
X101911654Y-152943685D01*
X101911654Y-152943685D02*
X101983083Y-153086542D01*
X101983083Y-153086542D02*
X101983083Y-153229400D01*
X101983083Y-153229400D02*
X101911654Y-153372257D01*
X101911654Y-153372257D02*
X101840226Y-153443685D01*
X101840226Y-153443685D02*
X101697368Y-153515114D01*
X101697368Y-153515114D02*
X101197368Y-153515114D01*
X91554510Y-104300828D02*
X91554510Y-102800828D01*
X92268796Y-104300828D02*
X92268796Y-102800828D01*
X92268796Y-102800828D02*
X93125939Y-104300828D01*
X93125939Y-104300828D02*
X93125939Y-102800828D01*
X93840225Y-104300828D02*
X93840225Y-102800828D01*
X93840225Y-102800828D02*
X94411654Y-102800828D01*
X94411654Y-102800828D02*
X94554511Y-102872257D01*
X94554511Y-102872257D02*
X94625940Y-102943685D01*
X94625940Y-102943685D02*
X94697368Y-103086542D01*
X94697368Y-103086542D02*
X94697368Y-103300828D01*
X94697368Y-103300828D02*
X94625940Y-103443685D01*
X94625940Y-103443685D02*
X94554511Y-103515114D01*
X94554511Y-103515114D02*
X94411654Y-103586542D01*
X94411654Y-103586542D02*
X93840225Y-103586542D01*
X95340225Y-102800828D02*
X95340225Y-104015114D01*
X95340225Y-104015114D02*
X95411654Y-104157971D01*
X95411654Y-104157971D02*
X95483083Y-104229400D01*
X95483083Y-104229400D02*
X95625940Y-104300828D01*
X95625940Y-104300828D02*
X95911654Y-104300828D01*
X95911654Y-104300828D02*
X96054511Y-104229400D01*
X96054511Y-104229400D02*
X96125940Y-104157971D01*
X96125940Y-104157971D02*
X96197368Y-104015114D01*
X96197368Y-104015114D02*
X96197368Y-102800828D01*
X96697369Y-102800828D02*
X97554512Y-102800828D01*
X97125940Y-104300828D02*
X97125940Y-102800828D01*
X99697368Y-103515114D02*
X99911654Y-103586542D01*
X99911654Y-103586542D02*
X99983083Y-103657971D01*
X99983083Y-103657971D02*
X100054511Y-103800828D01*
X100054511Y-103800828D02*
X100054511Y-104015114D01*
X100054511Y-104015114D02*
X99983083Y-104157971D01*
X99983083Y-104157971D02*
X99911654Y-104229400D01*
X99911654Y-104229400D02*
X99768797Y-104300828D01*
X99768797Y-104300828D02*
X99197368Y-104300828D01*
X99197368Y-104300828D02*
X99197368Y-102800828D01*
X99197368Y-102800828D02*
X99697368Y-102800828D01*
X99697368Y-102800828D02*
X99840226Y-102872257D01*
X99840226Y-102872257D02*
X99911654Y-102943685D01*
X99911654Y-102943685D02*
X99983083Y-103086542D01*
X99983083Y-103086542D02*
X99983083Y-103229400D01*
X99983083Y-103229400D02*
X99911654Y-103372257D01*
X99911654Y-103372257D02*
X99840226Y-103443685D01*
X99840226Y-103443685D02*
X99697368Y-103515114D01*
X99697368Y-103515114D02*
X99197368Y-103515114D01*
X100554511Y-102800828D02*
X101483083Y-102800828D01*
X101483083Y-102800828D02*
X100983083Y-103372257D01*
X100983083Y-103372257D02*
X101197368Y-103372257D01*
X101197368Y-103372257D02*
X101340226Y-103443685D01*
X101340226Y-103443685D02*
X101411654Y-103515114D01*
X101411654Y-103515114D02*
X101483083Y-103657971D01*
X101483083Y-103657971D02*
X101483083Y-104015114D01*
X101483083Y-104015114D02*
X101411654Y-104157971D01*
X101411654Y-104157971D02*
X101340226Y-104229400D01*
X101340226Y-104229400D02*
X101197368Y-104300828D01*
X101197368Y-104300828D02*
X100768797Y-104300828D01*
X100768797Y-104300828D02*
X100625940Y-104229400D01*
X100625940Y-104229400D02*
X100554511Y-104157971D01*
X91554510Y-55300828D02*
X91554510Y-53800828D01*
X92268796Y-55300828D02*
X92268796Y-53800828D01*
X92268796Y-53800828D02*
X93125939Y-55300828D01*
X93125939Y-55300828D02*
X93125939Y-53800828D01*
X93840225Y-55300828D02*
X93840225Y-53800828D01*
X93840225Y-53800828D02*
X94411654Y-53800828D01*
X94411654Y-53800828D02*
X94554511Y-53872257D01*
X94554511Y-53872257D02*
X94625940Y-53943685D01*
X94625940Y-53943685D02*
X94697368Y-54086542D01*
X94697368Y-54086542D02*
X94697368Y-54300828D01*
X94697368Y-54300828D02*
X94625940Y-54443685D01*
X94625940Y-54443685D02*
X94554511Y-54515114D01*
X94554511Y-54515114D02*
X94411654Y-54586542D01*
X94411654Y-54586542D02*
X93840225Y-54586542D01*
X95340225Y-53800828D02*
X95340225Y-55015114D01*
X95340225Y-55015114D02*
X95411654Y-55157971D01*
X95411654Y-55157971D02*
X95483083Y-55229400D01*
X95483083Y-55229400D02*
X95625940Y-55300828D01*
X95625940Y-55300828D02*
X95911654Y-55300828D01*
X95911654Y-55300828D02*
X96054511Y-55229400D01*
X96054511Y-55229400D02*
X96125940Y-55157971D01*
X96125940Y-55157971D02*
X96197368Y-55015114D01*
X96197368Y-55015114D02*
X96197368Y-53800828D01*
X96697369Y-53800828D02*
X97554512Y-53800828D01*
X97125940Y-55300828D02*
X97125940Y-53800828D01*
X99697368Y-54515114D02*
X99911654Y-54586542D01*
X99911654Y-54586542D02*
X99983083Y-54657971D01*
X99983083Y-54657971D02*
X100054511Y-54800828D01*
X100054511Y-54800828D02*
X100054511Y-55015114D01*
X100054511Y-55015114D02*
X99983083Y-55157971D01*
X99983083Y-55157971D02*
X99911654Y-55229400D01*
X99911654Y-55229400D02*
X99768797Y-55300828D01*
X99768797Y-55300828D02*
X99197368Y-55300828D01*
X99197368Y-55300828D02*
X99197368Y-53800828D01*
X99197368Y-53800828D02*
X99697368Y-53800828D01*
X99697368Y-53800828D02*
X99840226Y-53872257D01*
X99840226Y-53872257D02*
X99911654Y-53943685D01*
X99911654Y-53943685D02*
X99983083Y-54086542D01*
X99983083Y-54086542D02*
X99983083Y-54229400D01*
X99983083Y-54229400D02*
X99911654Y-54372257D01*
X99911654Y-54372257D02*
X99840226Y-54443685D01*
X99840226Y-54443685D02*
X99697368Y-54515114D01*
X99697368Y-54515114D02*
X99197368Y-54515114D01*
X101483083Y-55300828D02*
X100625940Y-55300828D01*
X101054511Y-55300828D02*
X101054511Y-53800828D01*
X101054511Y-53800828D02*
X100911654Y-54015114D01*
X100911654Y-54015114D02*
X100768797Y-54157971D01*
X100768797Y-54157971D02*
X100625940Y-54229400D01*
X91554510Y-79300828D02*
X91554510Y-77800828D01*
X92268796Y-79300828D02*
X92268796Y-77800828D01*
X92268796Y-77800828D02*
X93125939Y-79300828D01*
X93125939Y-79300828D02*
X93125939Y-77800828D01*
X93840225Y-79300828D02*
X93840225Y-77800828D01*
X93840225Y-77800828D02*
X94411654Y-77800828D01*
X94411654Y-77800828D02*
X94554511Y-77872257D01*
X94554511Y-77872257D02*
X94625940Y-77943685D01*
X94625940Y-77943685D02*
X94697368Y-78086542D01*
X94697368Y-78086542D02*
X94697368Y-78300828D01*
X94697368Y-78300828D02*
X94625940Y-78443685D01*
X94625940Y-78443685D02*
X94554511Y-78515114D01*
X94554511Y-78515114D02*
X94411654Y-78586542D01*
X94411654Y-78586542D02*
X93840225Y-78586542D01*
X95340225Y-77800828D02*
X95340225Y-79015114D01*
X95340225Y-79015114D02*
X95411654Y-79157971D01*
X95411654Y-79157971D02*
X95483083Y-79229400D01*
X95483083Y-79229400D02*
X95625940Y-79300828D01*
X95625940Y-79300828D02*
X95911654Y-79300828D01*
X95911654Y-79300828D02*
X96054511Y-79229400D01*
X96054511Y-79229400D02*
X96125940Y-79157971D01*
X96125940Y-79157971D02*
X96197368Y-79015114D01*
X96197368Y-79015114D02*
X96197368Y-77800828D01*
X96697369Y-77800828D02*
X97554512Y-77800828D01*
X97125940Y-79300828D02*
X97125940Y-77800828D01*
X99697368Y-78515114D02*
X99911654Y-78586542D01*
X99911654Y-78586542D02*
X99983083Y-78657971D01*
X99983083Y-78657971D02*
X100054511Y-78800828D01*
X100054511Y-78800828D02*
X100054511Y-79015114D01*
X100054511Y-79015114D02*
X99983083Y-79157971D01*
X99983083Y-79157971D02*
X99911654Y-79229400D01*
X99911654Y-79229400D02*
X99768797Y-79300828D01*
X99768797Y-79300828D02*
X99197368Y-79300828D01*
X99197368Y-79300828D02*
X99197368Y-77800828D01*
X99197368Y-77800828D02*
X99697368Y-77800828D01*
X99697368Y-77800828D02*
X99840226Y-77872257D01*
X99840226Y-77872257D02*
X99911654Y-77943685D01*
X99911654Y-77943685D02*
X99983083Y-78086542D01*
X99983083Y-78086542D02*
X99983083Y-78229400D01*
X99983083Y-78229400D02*
X99911654Y-78372257D01*
X99911654Y-78372257D02*
X99840226Y-78443685D01*
X99840226Y-78443685D02*
X99697368Y-78515114D01*
X99697368Y-78515114D02*
X99197368Y-78515114D01*
X100625940Y-77943685D02*
X100697368Y-77872257D01*
X100697368Y-77872257D02*
X100840226Y-77800828D01*
X100840226Y-77800828D02*
X101197368Y-77800828D01*
X101197368Y-77800828D02*
X101340226Y-77872257D01*
X101340226Y-77872257D02*
X101411654Y-77943685D01*
X101411654Y-77943685D02*
X101483083Y-78086542D01*
X101483083Y-78086542D02*
X101483083Y-78229400D01*
X101483083Y-78229400D02*
X101411654Y-78443685D01*
X101411654Y-78443685D02*
X100554511Y-79300828D01*
X100554511Y-79300828D02*
X101483083Y-79300828D01*
X33554510Y-104300828D02*
X33554510Y-102800828D01*
X34268796Y-104300828D02*
X34268796Y-102800828D01*
X34268796Y-102800828D02*
X35125939Y-104300828D01*
X35125939Y-104300828D02*
X35125939Y-102800828D01*
X35840225Y-104300828D02*
X35840225Y-102800828D01*
X35840225Y-102800828D02*
X36411654Y-102800828D01*
X36411654Y-102800828D02*
X36554511Y-102872257D01*
X36554511Y-102872257D02*
X36625940Y-102943685D01*
X36625940Y-102943685D02*
X36697368Y-103086542D01*
X36697368Y-103086542D02*
X36697368Y-103300828D01*
X36697368Y-103300828D02*
X36625940Y-103443685D01*
X36625940Y-103443685D02*
X36554511Y-103515114D01*
X36554511Y-103515114D02*
X36411654Y-103586542D01*
X36411654Y-103586542D02*
X35840225Y-103586542D01*
X37340225Y-102800828D02*
X37340225Y-104015114D01*
X37340225Y-104015114D02*
X37411654Y-104157971D01*
X37411654Y-104157971D02*
X37483083Y-104229400D01*
X37483083Y-104229400D02*
X37625940Y-104300828D01*
X37625940Y-104300828D02*
X37911654Y-104300828D01*
X37911654Y-104300828D02*
X38054511Y-104229400D01*
X38054511Y-104229400D02*
X38125940Y-104157971D01*
X38125940Y-104157971D02*
X38197368Y-104015114D01*
X38197368Y-104015114D02*
X38197368Y-102800828D01*
X38697369Y-102800828D02*
X39554512Y-102800828D01*
X39125940Y-104300828D02*
X39125940Y-102800828D01*
X41125940Y-103872257D02*
X41840226Y-103872257D01*
X40983083Y-104300828D02*
X41483083Y-102800828D01*
X41483083Y-102800828D02*
X41983083Y-104300828D01*
X42340225Y-102800828D02*
X43268797Y-102800828D01*
X43268797Y-102800828D02*
X42768797Y-103372257D01*
X42768797Y-103372257D02*
X42983082Y-103372257D01*
X42983082Y-103372257D02*
X43125940Y-103443685D01*
X43125940Y-103443685D02*
X43197368Y-103515114D01*
X43197368Y-103515114D02*
X43268797Y-103657971D01*
X43268797Y-103657971D02*
X43268797Y-104015114D01*
X43268797Y-104015114D02*
X43197368Y-104157971D01*
X43197368Y-104157971D02*
X43125940Y-104229400D01*
X43125940Y-104229400D02*
X42983082Y-104300828D01*
X42983082Y-104300828D02*
X42554511Y-104300828D01*
X42554511Y-104300828D02*
X42411654Y-104229400D01*
X42411654Y-104229400D02*
X42340225Y-104157971D01*
X33554510Y-79300828D02*
X33554510Y-77800828D01*
X34268796Y-79300828D02*
X34268796Y-77800828D01*
X34268796Y-77800828D02*
X35125939Y-79300828D01*
X35125939Y-79300828D02*
X35125939Y-77800828D01*
X35840225Y-79300828D02*
X35840225Y-77800828D01*
X35840225Y-77800828D02*
X36411654Y-77800828D01*
X36411654Y-77800828D02*
X36554511Y-77872257D01*
X36554511Y-77872257D02*
X36625940Y-77943685D01*
X36625940Y-77943685D02*
X36697368Y-78086542D01*
X36697368Y-78086542D02*
X36697368Y-78300828D01*
X36697368Y-78300828D02*
X36625940Y-78443685D01*
X36625940Y-78443685D02*
X36554511Y-78515114D01*
X36554511Y-78515114D02*
X36411654Y-78586542D01*
X36411654Y-78586542D02*
X35840225Y-78586542D01*
X37340225Y-77800828D02*
X37340225Y-79015114D01*
X37340225Y-79015114D02*
X37411654Y-79157971D01*
X37411654Y-79157971D02*
X37483083Y-79229400D01*
X37483083Y-79229400D02*
X37625940Y-79300828D01*
X37625940Y-79300828D02*
X37911654Y-79300828D01*
X37911654Y-79300828D02*
X38054511Y-79229400D01*
X38054511Y-79229400D02*
X38125940Y-79157971D01*
X38125940Y-79157971D02*
X38197368Y-79015114D01*
X38197368Y-79015114D02*
X38197368Y-77800828D01*
X38697369Y-77800828D02*
X39554512Y-77800828D01*
X39125940Y-79300828D02*
X39125940Y-77800828D01*
X41125940Y-78872257D02*
X41840226Y-78872257D01*
X40983083Y-79300828D02*
X41483083Y-77800828D01*
X41483083Y-77800828D02*
X41983083Y-79300828D01*
X42411654Y-77943685D02*
X42483082Y-77872257D01*
X42483082Y-77872257D02*
X42625940Y-77800828D01*
X42625940Y-77800828D02*
X42983082Y-77800828D01*
X42983082Y-77800828D02*
X43125940Y-77872257D01*
X43125940Y-77872257D02*
X43197368Y-77943685D01*
X43197368Y-77943685D02*
X43268797Y-78086542D01*
X43268797Y-78086542D02*
X43268797Y-78229400D01*
X43268797Y-78229400D02*
X43197368Y-78443685D01*
X43197368Y-78443685D02*
X42340225Y-79300828D01*
X42340225Y-79300828D02*
X43268797Y-79300828D01*
X33554510Y-55300828D02*
X33554510Y-53800828D01*
X34268796Y-55300828D02*
X34268796Y-53800828D01*
X34268796Y-53800828D02*
X35125939Y-55300828D01*
X35125939Y-55300828D02*
X35125939Y-53800828D01*
X35840225Y-55300828D02*
X35840225Y-53800828D01*
X35840225Y-53800828D02*
X36411654Y-53800828D01*
X36411654Y-53800828D02*
X36554511Y-53872257D01*
X36554511Y-53872257D02*
X36625940Y-53943685D01*
X36625940Y-53943685D02*
X36697368Y-54086542D01*
X36697368Y-54086542D02*
X36697368Y-54300828D01*
X36697368Y-54300828D02*
X36625940Y-54443685D01*
X36625940Y-54443685D02*
X36554511Y-54515114D01*
X36554511Y-54515114D02*
X36411654Y-54586542D01*
X36411654Y-54586542D02*
X35840225Y-54586542D01*
X37340225Y-53800828D02*
X37340225Y-55015114D01*
X37340225Y-55015114D02*
X37411654Y-55157971D01*
X37411654Y-55157971D02*
X37483083Y-55229400D01*
X37483083Y-55229400D02*
X37625940Y-55300828D01*
X37625940Y-55300828D02*
X37911654Y-55300828D01*
X37911654Y-55300828D02*
X38054511Y-55229400D01*
X38054511Y-55229400D02*
X38125940Y-55157971D01*
X38125940Y-55157971D02*
X38197368Y-55015114D01*
X38197368Y-55015114D02*
X38197368Y-53800828D01*
X38697369Y-53800828D02*
X39554512Y-53800828D01*
X39125940Y-55300828D02*
X39125940Y-53800828D01*
X41125940Y-54872257D02*
X41840226Y-54872257D01*
X40983083Y-55300828D02*
X41483083Y-53800828D01*
X41483083Y-53800828D02*
X41983083Y-55300828D01*
X43268797Y-55300828D02*
X42411654Y-55300828D01*
X42840225Y-55300828D02*
X42840225Y-53800828D01*
X42840225Y-53800828D02*
X42697368Y-54015114D01*
X42697368Y-54015114D02*
X42554511Y-54157971D01*
X42554511Y-54157971D02*
X42411654Y-54229400D01*
D10*
X77770476Y-136482357D02*
X77770476Y-137196642D01*
X77770476Y-137196642D02*
X77722857Y-137339499D01*
X77722857Y-137339499D02*
X77627619Y-137434738D01*
X77627619Y-137434738D02*
X77484762Y-137482357D01*
X77484762Y-137482357D02*
X77389524Y-137482357D01*
X78770476Y-137482357D02*
X78199048Y-137482357D01*
X78484762Y-137482357D02*
X78484762Y-136482357D01*
X78484762Y-136482357D02*
X78389524Y-136625214D01*
X78389524Y-136625214D02*
X78294286Y-136720452D01*
X78294286Y-136720452D02*
X78199048Y-136768071D01*
X79675238Y-136482357D02*
X79199048Y-136482357D01*
X79199048Y-136482357D02*
X79151429Y-136958547D01*
X79151429Y-136958547D02*
X79199048Y-136910928D01*
X79199048Y-136910928D02*
X79294286Y-136863309D01*
X79294286Y-136863309D02*
X79532381Y-136863309D01*
X79532381Y-136863309D02*
X79627619Y-136910928D01*
X79627619Y-136910928D02*
X79675238Y-136958547D01*
X79675238Y-136958547D02*
X79722857Y-137053785D01*
X79722857Y-137053785D02*
X79722857Y-137291880D01*
X79722857Y-137291880D02*
X79675238Y-137387118D01*
X79675238Y-137387118D02*
X79627619Y-137434738D01*
X79627619Y-137434738D02*
X79532381Y-137482357D01*
X79532381Y-137482357D02*
X79294286Y-137482357D01*
X79294286Y-137482357D02*
X79199048Y-137434738D01*
X79199048Y-137434738D02*
X79151429Y-137387118D01*
X95770476Y-138482357D02*
X95770476Y-139196642D01*
X95770476Y-139196642D02*
X95722857Y-139339499D01*
X95722857Y-139339499D02*
X95627619Y-139434738D01*
X95627619Y-139434738D02*
X95484762Y-139482357D01*
X95484762Y-139482357D02*
X95389524Y-139482357D01*
X96770476Y-139482357D02*
X96199048Y-139482357D01*
X96484762Y-139482357D02*
X96484762Y-138482357D01*
X96484762Y-138482357D02*
X96389524Y-138625214D01*
X96389524Y-138625214D02*
X96294286Y-138720452D01*
X96294286Y-138720452D02*
X96199048Y-138768071D01*
X97627619Y-138482357D02*
X97437143Y-138482357D01*
X97437143Y-138482357D02*
X97341905Y-138529976D01*
X97341905Y-138529976D02*
X97294286Y-138577595D01*
X97294286Y-138577595D02*
X97199048Y-138720452D01*
X97199048Y-138720452D02*
X97151429Y-138910928D01*
X97151429Y-138910928D02*
X97151429Y-139291880D01*
X97151429Y-139291880D02*
X97199048Y-139387118D01*
X97199048Y-139387118D02*
X97246667Y-139434738D01*
X97246667Y-139434738D02*
X97341905Y-139482357D01*
X97341905Y-139482357D02*
X97532381Y-139482357D01*
X97532381Y-139482357D02*
X97627619Y-139434738D01*
X97627619Y-139434738D02*
X97675238Y-139387118D01*
X97675238Y-139387118D02*
X97722857Y-139291880D01*
X97722857Y-139291880D02*
X97722857Y-139053785D01*
X97722857Y-139053785D02*
X97675238Y-138958547D01*
X97675238Y-138958547D02*
X97627619Y-138910928D01*
X97627619Y-138910928D02*
X97532381Y-138863309D01*
X97532381Y-138863309D02*
X97341905Y-138863309D01*
X97341905Y-138863309D02*
X97246667Y-138910928D01*
X97246667Y-138910928D02*
X97199048Y-138958547D01*
X97199048Y-138958547D02*
X97151429Y-139053785D01*
D12*
X37913333Y-132979757D02*
X37580000Y-132503566D01*
X37341905Y-132979757D02*
X37341905Y-131979757D01*
X37341905Y-131979757D02*
X37722857Y-131979757D01*
X37722857Y-131979757D02*
X37818095Y-132027376D01*
X37818095Y-132027376D02*
X37865714Y-132074995D01*
X37865714Y-132074995D02*
X37913333Y-132170233D01*
X37913333Y-132170233D02*
X37913333Y-132313090D01*
X37913333Y-132313090D02*
X37865714Y-132408328D01*
X37865714Y-132408328D02*
X37818095Y-132455947D01*
X37818095Y-132455947D02*
X37722857Y-132503566D01*
X37722857Y-132503566D02*
X37341905Y-132503566D01*
X38246667Y-131979757D02*
X38913333Y-131979757D01*
X38913333Y-131979757D02*
X38484762Y-132979757D01*
X96493333Y-133109757D02*
X96160000Y-132633566D01*
X95921905Y-133109757D02*
X95921905Y-132109757D01*
X95921905Y-132109757D02*
X96302857Y-132109757D01*
X96302857Y-132109757D02*
X96398095Y-132157376D01*
X96398095Y-132157376D02*
X96445714Y-132204995D01*
X96445714Y-132204995D02*
X96493333Y-132300233D01*
X96493333Y-132300233D02*
X96493333Y-132443090D01*
X96493333Y-132443090D02*
X96445714Y-132538328D01*
X96445714Y-132538328D02*
X96398095Y-132585947D01*
X96398095Y-132585947D02*
X96302857Y-132633566D01*
X96302857Y-132633566D02*
X95921905Y-132633566D01*
X97064762Y-132538328D02*
X96969524Y-132490709D01*
X96969524Y-132490709D02*
X96921905Y-132443090D01*
X96921905Y-132443090D02*
X96874286Y-132347852D01*
X96874286Y-132347852D02*
X96874286Y-132300233D01*
X96874286Y-132300233D02*
X96921905Y-132204995D01*
X96921905Y-132204995D02*
X96969524Y-132157376D01*
X96969524Y-132157376D02*
X97064762Y-132109757D01*
X97064762Y-132109757D02*
X97255238Y-132109757D01*
X97255238Y-132109757D02*
X97350476Y-132157376D01*
X97350476Y-132157376D02*
X97398095Y-132204995D01*
X97398095Y-132204995D02*
X97445714Y-132300233D01*
X97445714Y-132300233D02*
X97445714Y-132347852D01*
X97445714Y-132347852D02*
X97398095Y-132443090D01*
X97398095Y-132443090D02*
X97350476Y-132490709D01*
X97350476Y-132490709D02*
X97255238Y-132538328D01*
X97255238Y-132538328D02*
X97064762Y-132538328D01*
X97064762Y-132538328D02*
X96969524Y-132585947D01*
X96969524Y-132585947D02*
X96921905Y-132633566D01*
X96921905Y-132633566D02*
X96874286Y-132728804D01*
X96874286Y-132728804D02*
X96874286Y-132919280D01*
X96874286Y-132919280D02*
X96921905Y-133014518D01*
X96921905Y-133014518D02*
X96969524Y-133062138D01*
X96969524Y-133062138D02*
X97064762Y-133109757D01*
X97064762Y-133109757D02*
X97255238Y-133109757D01*
X97255238Y-133109757D02*
X97350476Y-133062138D01*
X97350476Y-133062138D02*
X97398095Y-133014518D01*
X97398095Y-133014518D02*
X97445714Y-132919280D01*
X97445714Y-132919280D02*
X97445714Y-132728804D01*
X97445714Y-132728804D02*
X97398095Y-132633566D01*
X97398095Y-132633566D02*
X97350476Y-132585947D01*
X97350476Y-132585947D02*
X97255238Y-132538328D01*
D10*
X55270476Y-136482357D02*
X55270476Y-137196642D01*
X55270476Y-137196642D02*
X55222857Y-137339499D01*
X55222857Y-137339499D02*
X55127619Y-137434738D01*
X55127619Y-137434738D02*
X54984762Y-137482357D01*
X54984762Y-137482357D02*
X54889524Y-137482357D01*
X56270476Y-137482357D02*
X55699048Y-137482357D01*
X55984762Y-137482357D02*
X55984762Y-136482357D01*
X55984762Y-136482357D02*
X55889524Y-136625214D01*
X55889524Y-136625214D02*
X55794286Y-136720452D01*
X55794286Y-136720452D02*
X55699048Y-136768071D01*
X56603810Y-136482357D02*
X57222857Y-136482357D01*
X57222857Y-136482357D02*
X56889524Y-136863309D01*
X56889524Y-136863309D02*
X57032381Y-136863309D01*
X57032381Y-136863309D02*
X57127619Y-136910928D01*
X57127619Y-136910928D02*
X57175238Y-136958547D01*
X57175238Y-136958547D02*
X57222857Y-137053785D01*
X57222857Y-137053785D02*
X57222857Y-137291880D01*
X57222857Y-137291880D02*
X57175238Y-137387118D01*
X57175238Y-137387118D02*
X57127619Y-137434738D01*
X57127619Y-137434738D02*
X57032381Y-137482357D01*
X57032381Y-137482357D02*
X56746667Y-137482357D01*
X56746667Y-137482357D02*
X56651429Y-137434738D01*
X56651429Y-137434738D02*
X56603810Y-137387118D01*
X42904761Y-157482357D02*
X42571428Y-157006166D01*
X42333333Y-157482357D02*
X42333333Y-156482357D01*
X42333333Y-156482357D02*
X42714285Y-156482357D01*
X42714285Y-156482357D02*
X42809523Y-156529976D01*
X42809523Y-156529976D02*
X42857142Y-156577595D01*
X42857142Y-156577595D02*
X42904761Y-156672833D01*
X42904761Y-156672833D02*
X42904761Y-156815690D01*
X42904761Y-156815690D02*
X42857142Y-156910928D01*
X42857142Y-156910928D02*
X42809523Y-156958547D01*
X42809523Y-156958547D02*
X42714285Y-157006166D01*
X42714285Y-157006166D02*
X42333333Y-157006166D01*
X43190476Y-156482357D02*
X43523809Y-157482357D01*
X43523809Y-157482357D02*
X43857142Y-156482357D01*
X44095238Y-156482357D02*
X44761904Y-156482357D01*
X44761904Y-156482357D02*
X44333333Y-157482357D01*
X90404761Y-157482357D02*
X90071428Y-157006166D01*
X89833333Y-157482357D02*
X89833333Y-156482357D01*
X89833333Y-156482357D02*
X90214285Y-156482357D01*
X90214285Y-156482357D02*
X90309523Y-156529976D01*
X90309523Y-156529976D02*
X90357142Y-156577595D01*
X90357142Y-156577595D02*
X90404761Y-156672833D01*
X90404761Y-156672833D02*
X90404761Y-156815690D01*
X90404761Y-156815690D02*
X90357142Y-156910928D01*
X90357142Y-156910928D02*
X90309523Y-156958547D01*
X90309523Y-156958547D02*
X90214285Y-157006166D01*
X90214285Y-157006166D02*
X89833333Y-157006166D01*
X90690476Y-156482357D02*
X91023809Y-157482357D01*
X91023809Y-157482357D02*
X91357142Y-156482357D01*
X91833333Y-156910928D02*
X91738095Y-156863309D01*
X91738095Y-156863309D02*
X91690476Y-156815690D01*
X91690476Y-156815690D02*
X91642857Y-156720452D01*
X91642857Y-156720452D02*
X91642857Y-156672833D01*
X91642857Y-156672833D02*
X91690476Y-156577595D01*
X91690476Y-156577595D02*
X91738095Y-156529976D01*
X91738095Y-156529976D02*
X91833333Y-156482357D01*
X91833333Y-156482357D02*
X92023809Y-156482357D01*
X92023809Y-156482357D02*
X92119047Y-156529976D01*
X92119047Y-156529976D02*
X92166666Y-156577595D01*
X92166666Y-156577595D02*
X92214285Y-156672833D01*
X92214285Y-156672833D02*
X92214285Y-156720452D01*
X92214285Y-156720452D02*
X92166666Y-156815690D01*
X92166666Y-156815690D02*
X92119047Y-156863309D01*
X92119047Y-156863309D02*
X92023809Y-156910928D01*
X92023809Y-156910928D02*
X91833333Y-156910928D01*
X91833333Y-156910928D02*
X91738095Y-156958547D01*
X91738095Y-156958547D02*
X91690476Y-157006166D01*
X91690476Y-157006166D02*
X91642857Y-157101404D01*
X91642857Y-157101404D02*
X91642857Y-157291880D01*
X91642857Y-157291880D02*
X91690476Y-157387118D01*
X91690476Y-157387118D02*
X91738095Y-157434738D01*
X91738095Y-157434738D02*
X91833333Y-157482357D01*
X91833333Y-157482357D02*
X92023809Y-157482357D01*
X92023809Y-157482357D02*
X92119047Y-157434738D01*
X92119047Y-157434738D02*
X92166666Y-157387118D01*
X92166666Y-157387118D02*
X92214285Y-157291880D01*
X92214285Y-157291880D02*
X92214285Y-157101404D01*
X92214285Y-157101404D02*
X92166666Y-157006166D01*
X92166666Y-157006166D02*
X92119047Y-156958547D01*
X92119047Y-156958547D02*
X92023809Y-156910928D01*
X37270476Y-138482357D02*
X37270476Y-139196642D01*
X37270476Y-139196642D02*
X37222857Y-139339499D01*
X37222857Y-139339499D02*
X37127619Y-139434738D01*
X37127619Y-139434738D02*
X36984762Y-139482357D01*
X36984762Y-139482357D02*
X36889524Y-139482357D01*
X38270476Y-139482357D02*
X37699048Y-139482357D01*
X37984762Y-139482357D02*
X37984762Y-138482357D01*
X37984762Y-138482357D02*
X37889524Y-138625214D01*
X37889524Y-138625214D02*
X37794286Y-138720452D01*
X37794286Y-138720452D02*
X37699048Y-138768071D01*
X39127619Y-138815690D02*
X39127619Y-139482357D01*
X38889524Y-138434738D02*
X38651429Y-139149023D01*
X38651429Y-139149023D02*
X39270476Y-139149023D01*
D12*
X81954819Y-131666666D02*
X81478628Y-131999999D01*
X81954819Y-132238094D02*
X80954819Y-132238094D01*
X80954819Y-132238094D02*
X80954819Y-131857142D01*
X80954819Y-131857142D02*
X81002438Y-131761904D01*
X81002438Y-131761904D02*
X81050057Y-131714285D01*
X81050057Y-131714285D02*
X81145295Y-131666666D01*
X81145295Y-131666666D02*
X81288152Y-131666666D01*
X81288152Y-131666666D02*
X81383390Y-131714285D01*
X81383390Y-131714285D02*
X81431009Y-131761904D01*
X81431009Y-131761904D02*
X81478628Y-131857142D01*
X81478628Y-131857142D02*
X81478628Y-132238094D01*
X80954819Y-130761904D02*
X80954819Y-131238094D01*
X80954819Y-131238094D02*
X81431009Y-131285713D01*
X81431009Y-131285713D02*
X81383390Y-131238094D01*
X81383390Y-131238094D02*
X81335771Y-131142856D01*
X81335771Y-131142856D02*
X81335771Y-130904761D01*
X81335771Y-130904761D02*
X81383390Y-130809523D01*
X81383390Y-130809523D02*
X81431009Y-130761904D01*
X81431009Y-130761904D02*
X81526247Y-130714285D01*
X81526247Y-130714285D02*
X81764342Y-130714285D01*
X81764342Y-130714285D02*
X81859580Y-130761904D01*
X81859580Y-130761904D02*
X81907200Y-130809523D01*
X81907200Y-130809523D02*
X81954819Y-130904761D01*
X81954819Y-130904761D02*
X81954819Y-131142856D01*
X81954819Y-131142856D02*
X81907200Y-131238094D01*
X81907200Y-131238094D02*
X81859580Y-131285713D01*
D10*
X62190476Y-158957419D02*
X62190476Y-159671704D01*
X62190476Y-159671704D02*
X62142857Y-159814561D01*
X62142857Y-159814561D02*
X62047619Y-159909800D01*
X62047619Y-159909800D02*
X61904762Y-159957419D01*
X61904762Y-159957419D02*
X61809524Y-159957419D01*
X63190476Y-159957419D02*
X62619048Y-159957419D01*
X62904762Y-159957419D02*
X62904762Y-158957419D01*
X62904762Y-158957419D02*
X62809524Y-159100276D01*
X62809524Y-159100276D02*
X62714286Y-159195514D01*
X62714286Y-159195514D02*
X62619048Y-159243133D01*
X63523810Y-158957419D02*
X64190476Y-158957419D01*
X64190476Y-158957419D02*
X63761905Y-159957419D01*
D12*
X47504819Y-118451904D02*
X48314342Y-118451904D01*
X48314342Y-118451904D02*
X48409580Y-118404285D01*
X48409580Y-118404285D02*
X48457200Y-118356666D01*
X48457200Y-118356666D02*
X48504819Y-118261428D01*
X48504819Y-118261428D02*
X48504819Y-118070952D01*
X48504819Y-118070952D02*
X48457200Y-117975714D01*
X48457200Y-117975714D02*
X48409580Y-117928095D01*
X48409580Y-117928095D02*
X48314342Y-117880476D01*
X48314342Y-117880476D02*
X47504819Y-117880476D01*
X48504819Y-116880476D02*
X48504819Y-117451904D01*
X48504819Y-117166190D02*
X47504819Y-117166190D01*
X47504819Y-117166190D02*
X47647676Y-117261428D01*
X47647676Y-117261428D02*
X47742914Y-117356666D01*
X47742914Y-117356666D02*
X47790533Y-117451904D01*
D10*
X78166667Y-171409800D02*
X78309524Y-171457419D01*
X78309524Y-171457419D02*
X78547619Y-171457419D01*
X78547619Y-171457419D02*
X78642857Y-171409800D01*
X78642857Y-171409800D02*
X78690476Y-171362180D01*
X78690476Y-171362180D02*
X78738095Y-171266942D01*
X78738095Y-171266942D02*
X78738095Y-171171704D01*
X78738095Y-171171704D02*
X78690476Y-171076466D01*
X78690476Y-171076466D02*
X78642857Y-171028847D01*
X78642857Y-171028847D02*
X78547619Y-170981228D01*
X78547619Y-170981228D02*
X78357143Y-170933609D01*
X78357143Y-170933609D02*
X78261905Y-170885990D01*
X78261905Y-170885990D02*
X78214286Y-170838371D01*
X78214286Y-170838371D02*
X78166667Y-170743133D01*
X78166667Y-170743133D02*
X78166667Y-170647895D01*
X78166667Y-170647895D02*
X78214286Y-170552657D01*
X78214286Y-170552657D02*
X78261905Y-170505038D01*
X78261905Y-170505038D02*
X78357143Y-170457419D01*
X78357143Y-170457419D02*
X78595238Y-170457419D01*
X78595238Y-170457419D02*
X78738095Y-170505038D01*
X79071429Y-170457419D02*
X79309524Y-171457419D01*
X79309524Y-171457419D02*
X79500000Y-170743133D01*
X79500000Y-170743133D02*
X79690476Y-171457419D01*
X79690476Y-171457419D02*
X79928572Y-170457419D01*
X80833333Y-171457419D02*
X80261905Y-171457419D01*
X80547619Y-171457419D02*
X80547619Y-170457419D01*
X80547619Y-170457419D02*
X80452381Y-170600276D01*
X80452381Y-170600276D02*
X80357143Y-170695514D01*
X80357143Y-170695514D02*
X80261905Y-170743133D01*
X90404761Y-108457419D02*
X90071428Y-107981228D01*
X89833333Y-108457419D02*
X89833333Y-107457419D01*
X89833333Y-107457419D02*
X90214285Y-107457419D01*
X90214285Y-107457419D02*
X90309523Y-107505038D01*
X90309523Y-107505038D02*
X90357142Y-107552657D01*
X90357142Y-107552657D02*
X90404761Y-107647895D01*
X90404761Y-107647895D02*
X90404761Y-107790752D01*
X90404761Y-107790752D02*
X90357142Y-107885990D01*
X90357142Y-107885990D02*
X90309523Y-107933609D01*
X90309523Y-107933609D02*
X90214285Y-107981228D01*
X90214285Y-107981228D02*
X89833333Y-107981228D01*
X90690476Y-107457419D02*
X91023809Y-108457419D01*
X91023809Y-108457419D02*
X91357142Y-107457419D01*
X92119047Y-107457419D02*
X91928571Y-107457419D01*
X91928571Y-107457419D02*
X91833333Y-107505038D01*
X91833333Y-107505038D02*
X91785714Y-107552657D01*
X91785714Y-107552657D02*
X91690476Y-107695514D01*
X91690476Y-107695514D02*
X91642857Y-107885990D01*
X91642857Y-107885990D02*
X91642857Y-108266942D01*
X91642857Y-108266942D02*
X91690476Y-108362180D01*
X91690476Y-108362180D02*
X91738095Y-108409800D01*
X91738095Y-108409800D02*
X91833333Y-108457419D01*
X91833333Y-108457419D02*
X92023809Y-108457419D01*
X92023809Y-108457419D02*
X92119047Y-108409800D01*
X92119047Y-108409800D02*
X92166666Y-108362180D01*
X92166666Y-108362180D02*
X92214285Y-108266942D01*
X92214285Y-108266942D02*
X92214285Y-108028847D01*
X92214285Y-108028847D02*
X92166666Y-107933609D01*
X92166666Y-107933609D02*
X92119047Y-107885990D01*
X92119047Y-107885990D02*
X92023809Y-107838371D01*
X92023809Y-107838371D02*
X91833333Y-107838371D01*
X91833333Y-107838371D02*
X91738095Y-107885990D01*
X91738095Y-107885990D02*
X91690476Y-107933609D01*
X91690476Y-107933609D02*
X91642857Y-108028847D01*
X90404761Y-83957419D02*
X90071428Y-83481228D01*
X89833333Y-83957419D02*
X89833333Y-82957419D01*
X89833333Y-82957419D02*
X90214285Y-82957419D01*
X90214285Y-82957419D02*
X90309523Y-83005038D01*
X90309523Y-83005038D02*
X90357142Y-83052657D01*
X90357142Y-83052657D02*
X90404761Y-83147895D01*
X90404761Y-83147895D02*
X90404761Y-83290752D01*
X90404761Y-83290752D02*
X90357142Y-83385990D01*
X90357142Y-83385990D02*
X90309523Y-83433609D01*
X90309523Y-83433609D02*
X90214285Y-83481228D01*
X90214285Y-83481228D02*
X89833333Y-83481228D01*
X90690476Y-82957419D02*
X91023809Y-83957419D01*
X91023809Y-83957419D02*
X91357142Y-82957419D01*
X92166666Y-82957419D02*
X91690476Y-82957419D01*
X91690476Y-82957419D02*
X91642857Y-83433609D01*
X91642857Y-83433609D02*
X91690476Y-83385990D01*
X91690476Y-83385990D02*
X91785714Y-83338371D01*
X91785714Y-83338371D02*
X92023809Y-83338371D01*
X92023809Y-83338371D02*
X92119047Y-83385990D01*
X92119047Y-83385990D02*
X92166666Y-83433609D01*
X92166666Y-83433609D02*
X92214285Y-83528847D01*
X92214285Y-83528847D02*
X92214285Y-83766942D01*
X92214285Y-83766942D02*
X92166666Y-83862180D01*
X92166666Y-83862180D02*
X92119047Y-83909800D01*
X92119047Y-83909800D02*
X92023809Y-83957419D01*
X92023809Y-83957419D02*
X91785714Y-83957419D01*
X91785714Y-83957419D02*
X91690476Y-83909800D01*
X91690476Y-83909800D02*
X91642857Y-83862180D01*
X90404761Y-59457419D02*
X90071428Y-58981228D01*
X89833333Y-59457419D02*
X89833333Y-58457419D01*
X89833333Y-58457419D02*
X90214285Y-58457419D01*
X90214285Y-58457419D02*
X90309523Y-58505038D01*
X90309523Y-58505038D02*
X90357142Y-58552657D01*
X90357142Y-58552657D02*
X90404761Y-58647895D01*
X90404761Y-58647895D02*
X90404761Y-58790752D01*
X90404761Y-58790752D02*
X90357142Y-58885990D01*
X90357142Y-58885990D02*
X90309523Y-58933609D01*
X90309523Y-58933609D02*
X90214285Y-58981228D01*
X90214285Y-58981228D02*
X89833333Y-58981228D01*
X90690476Y-58457419D02*
X91023809Y-59457419D01*
X91023809Y-59457419D02*
X91357142Y-58457419D01*
X92119047Y-58790752D02*
X92119047Y-59457419D01*
X91880952Y-58409800D02*
X91642857Y-59124085D01*
X91642857Y-59124085D02*
X92261904Y-59124085D01*
X42904761Y-108457419D02*
X42571428Y-107981228D01*
X42333333Y-108457419D02*
X42333333Y-107457419D01*
X42333333Y-107457419D02*
X42714285Y-107457419D01*
X42714285Y-107457419D02*
X42809523Y-107505038D01*
X42809523Y-107505038D02*
X42857142Y-107552657D01*
X42857142Y-107552657D02*
X42904761Y-107647895D01*
X42904761Y-107647895D02*
X42904761Y-107790752D01*
X42904761Y-107790752D02*
X42857142Y-107885990D01*
X42857142Y-107885990D02*
X42809523Y-107933609D01*
X42809523Y-107933609D02*
X42714285Y-107981228D01*
X42714285Y-107981228D02*
X42333333Y-107981228D01*
X43190476Y-107457419D02*
X43523809Y-108457419D01*
X43523809Y-108457419D02*
X43857142Y-107457419D01*
X44095238Y-107457419D02*
X44714285Y-107457419D01*
X44714285Y-107457419D02*
X44380952Y-107838371D01*
X44380952Y-107838371D02*
X44523809Y-107838371D01*
X44523809Y-107838371D02*
X44619047Y-107885990D01*
X44619047Y-107885990D02*
X44666666Y-107933609D01*
X44666666Y-107933609D02*
X44714285Y-108028847D01*
X44714285Y-108028847D02*
X44714285Y-108266942D01*
X44714285Y-108266942D02*
X44666666Y-108362180D01*
X44666666Y-108362180D02*
X44619047Y-108409800D01*
X44619047Y-108409800D02*
X44523809Y-108457419D01*
X44523809Y-108457419D02*
X44238095Y-108457419D01*
X44238095Y-108457419D02*
X44142857Y-108409800D01*
X44142857Y-108409800D02*
X44095238Y-108362180D01*
X42904761Y-83957419D02*
X42571428Y-83481228D01*
X42333333Y-83957419D02*
X42333333Y-82957419D01*
X42333333Y-82957419D02*
X42714285Y-82957419D01*
X42714285Y-82957419D02*
X42809523Y-83005038D01*
X42809523Y-83005038D02*
X42857142Y-83052657D01*
X42857142Y-83052657D02*
X42904761Y-83147895D01*
X42904761Y-83147895D02*
X42904761Y-83290752D01*
X42904761Y-83290752D02*
X42857142Y-83385990D01*
X42857142Y-83385990D02*
X42809523Y-83433609D01*
X42809523Y-83433609D02*
X42714285Y-83481228D01*
X42714285Y-83481228D02*
X42333333Y-83481228D01*
X43190476Y-82957419D02*
X43523809Y-83957419D01*
X43523809Y-83957419D02*
X43857142Y-82957419D01*
X44142857Y-83052657D02*
X44190476Y-83005038D01*
X44190476Y-83005038D02*
X44285714Y-82957419D01*
X44285714Y-82957419D02*
X44523809Y-82957419D01*
X44523809Y-82957419D02*
X44619047Y-83005038D01*
X44619047Y-83005038D02*
X44666666Y-83052657D01*
X44666666Y-83052657D02*
X44714285Y-83147895D01*
X44714285Y-83147895D02*
X44714285Y-83243133D01*
X44714285Y-83243133D02*
X44666666Y-83385990D01*
X44666666Y-83385990D02*
X44095238Y-83957419D01*
X44095238Y-83957419D02*
X44714285Y-83957419D01*
X42904761Y-59457419D02*
X42571428Y-58981228D01*
X42333333Y-59457419D02*
X42333333Y-58457419D01*
X42333333Y-58457419D02*
X42714285Y-58457419D01*
X42714285Y-58457419D02*
X42809523Y-58505038D01*
X42809523Y-58505038D02*
X42857142Y-58552657D01*
X42857142Y-58552657D02*
X42904761Y-58647895D01*
X42904761Y-58647895D02*
X42904761Y-58790752D01*
X42904761Y-58790752D02*
X42857142Y-58885990D01*
X42857142Y-58885990D02*
X42809523Y-58933609D01*
X42809523Y-58933609D02*
X42714285Y-58981228D01*
X42714285Y-58981228D02*
X42333333Y-58981228D01*
X43190476Y-58457419D02*
X43523809Y-59457419D01*
X43523809Y-59457419D02*
X43857142Y-58457419D01*
X44714285Y-59457419D02*
X44142857Y-59457419D01*
X44428571Y-59457419D02*
X44428571Y-58457419D01*
X44428571Y-58457419D02*
X44333333Y-58600276D01*
X44333333Y-58600276D02*
X44238095Y-58695514D01*
X44238095Y-58695514D02*
X44142857Y-58743133D01*
D12*
X73277142Y-163454819D02*
X72943809Y-162978628D01*
X72705714Y-163454819D02*
X72705714Y-162454819D01*
X72705714Y-162454819D02*
X73086666Y-162454819D01*
X73086666Y-162454819D02*
X73181904Y-162502438D01*
X73181904Y-162502438D02*
X73229523Y-162550057D01*
X73229523Y-162550057D02*
X73277142Y-162645295D01*
X73277142Y-162645295D02*
X73277142Y-162788152D01*
X73277142Y-162788152D02*
X73229523Y-162883390D01*
X73229523Y-162883390D02*
X73181904Y-162931009D01*
X73181904Y-162931009D02*
X73086666Y-162978628D01*
X73086666Y-162978628D02*
X72705714Y-162978628D01*
X74229523Y-163454819D02*
X73658095Y-163454819D01*
X73943809Y-163454819D02*
X73943809Y-162454819D01*
X73943809Y-162454819D02*
X73848571Y-162597676D01*
X73848571Y-162597676D02*
X73753333Y-162692914D01*
X73753333Y-162692914D02*
X73658095Y-162740533D01*
X74848571Y-162454819D02*
X74943809Y-162454819D01*
X74943809Y-162454819D02*
X75039047Y-162502438D01*
X75039047Y-162502438D02*
X75086666Y-162550057D01*
X75086666Y-162550057D02*
X75134285Y-162645295D01*
X75134285Y-162645295D02*
X75181904Y-162835771D01*
X75181904Y-162835771D02*
X75181904Y-163073866D01*
X75181904Y-163073866D02*
X75134285Y-163264342D01*
X75134285Y-163264342D02*
X75086666Y-163359580D01*
X75086666Y-163359580D02*
X75039047Y-163407200D01*
X75039047Y-163407200D02*
X74943809Y-163454819D01*
X74943809Y-163454819D02*
X74848571Y-163454819D01*
X74848571Y-163454819D02*
X74753333Y-163407200D01*
X74753333Y-163407200D02*
X74705714Y-163359580D01*
X74705714Y-163359580D02*
X74658095Y-163264342D01*
X74658095Y-163264342D02*
X74610476Y-163073866D01*
X74610476Y-163073866D02*
X74610476Y-162835771D01*
X74610476Y-162835771D02*
X74658095Y-162645295D01*
X74658095Y-162645295D02*
X74705714Y-162550057D01*
X74705714Y-162550057D02*
X74753333Y-162502438D01*
X74753333Y-162502438D02*
X74848571Y-162454819D01*
X54213333Y-125954819D02*
X53880000Y-125478628D01*
X53641905Y-125954819D02*
X53641905Y-124954819D01*
X53641905Y-124954819D02*
X54022857Y-124954819D01*
X54022857Y-124954819D02*
X54118095Y-125002438D01*
X54118095Y-125002438D02*
X54165714Y-125050057D01*
X54165714Y-125050057D02*
X54213333Y-125145295D01*
X54213333Y-125145295D02*
X54213333Y-125288152D01*
X54213333Y-125288152D02*
X54165714Y-125383390D01*
X54165714Y-125383390D02*
X54118095Y-125431009D01*
X54118095Y-125431009D02*
X54022857Y-125478628D01*
X54022857Y-125478628D02*
X53641905Y-125478628D01*
X54689524Y-125954819D02*
X54880000Y-125954819D01*
X54880000Y-125954819D02*
X54975238Y-125907200D01*
X54975238Y-125907200D02*
X55022857Y-125859580D01*
X55022857Y-125859580D02*
X55118095Y-125716723D01*
X55118095Y-125716723D02*
X55165714Y-125526247D01*
X55165714Y-125526247D02*
X55165714Y-125145295D01*
X55165714Y-125145295D02*
X55118095Y-125050057D01*
X55118095Y-125050057D02*
X55070476Y-125002438D01*
X55070476Y-125002438D02*
X54975238Y-124954819D01*
X54975238Y-124954819D02*
X54784762Y-124954819D01*
X54784762Y-124954819D02*
X54689524Y-125002438D01*
X54689524Y-125002438D02*
X54641905Y-125050057D01*
X54641905Y-125050057D02*
X54594286Y-125145295D01*
X54594286Y-125145295D02*
X54594286Y-125383390D01*
X54594286Y-125383390D02*
X54641905Y-125478628D01*
X54641905Y-125478628D02*
X54689524Y-125526247D01*
X54689524Y-125526247D02*
X54784762Y-125573866D01*
X54784762Y-125573866D02*
X54975238Y-125573866D01*
X54975238Y-125573866D02*
X55070476Y-125526247D01*
X55070476Y-125526247D02*
X55118095Y-125478628D01*
X55118095Y-125478628D02*
X55165714Y-125383390D01*
X85954819Y-131666666D02*
X85478628Y-131999999D01*
X85954819Y-132238094D02*
X84954819Y-132238094D01*
X84954819Y-132238094D02*
X84954819Y-131857142D01*
X84954819Y-131857142D02*
X85002438Y-131761904D01*
X85002438Y-131761904D02*
X85050057Y-131714285D01*
X85050057Y-131714285D02*
X85145295Y-131666666D01*
X85145295Y-131666666D02*
X85288152Y-131666666D01*
X85288152Y-131666666D02*
X85383390Y-131714285D01*
X85383390Y-131714285D02*
X85431009Y-131761904D01*
X85431009Y-131761904D02*
X85478628Y-131857142D01*
X85478628Y-131857142D02*
X85478628Y-132238094D01*
X84954819Y-130809523D02*
X84954819Y-130999999D01*
X84954819Y-130999999D02*
X85002438Y-131095237D01*
X85002438Y-131095237D02*
X85050057Y-131142856D01*
X85050057Y-131142856D02*
X85192914Y-131238094D01*
X85192914Y-131238094D02*
X85383390Y-131285713D01*
X85383390Y-131285713D02*
X85764342Y-131285713D01*
X85764342Y-131285713D02*
X85859580Y-131238094D01*
X85859580Y-131238094D02*
X85907200Y-131190475D01*
X85907200Y-131190475D02*
X85954819Y-131095237D01*
X85954819Y-131095237D02*
X85954819Y-130904761D01*
X85954819Y-130904761D02*
X85907200Y-130809523D01*
X85907200Y-130809523D02*
X85859580Y-130761904D01*
X85859580Y-130761904D02*
X85764342Y-130714285D01*
X85764342Y-130714285D02*
X85526247Y-130714285D01*
X85526247Y-130714285D02*
X85431009Y-130761904D01*
X85431009Y-130761904D02*
X85383390Y-130809523D01*
X85383390Y-130809523D02*
X85335771Y-130904761D01*
X85335771Y-130904761D02*
X85335771Y-131095237D01*
X85335771Y-131095237D02*
X85383390Y-131190475D01*
X85383390Y-131190475D02*
X85431009Y-131238094D01*
X85431009Y-131238094D02*
X85526247Y-131285713D01*
X77954819Y-131666666D02*
X77478628Y-131999999D01*
X77954819Y-132238094D02*
X76954819Y-132238094D01*
X76954819Y-132238094D02*
X76954819Y-131857142D01*
X76954819Y-131857142D02*
X77002438Y-131761904D01*
X77002438Y-131761904D02*
X77050057Y-131714285D01*
X77050057Y-131714285D02*
X77145295Y-131666666D01*
X77145295Y-131666666D02*
X77288152Y-131666666D01*
X77288152Y-131666666D02*
X77383390Y-131714285D01*
X77383390Y-131714285D02*
X77431009Y-131761904D01*
X77431009Y-131761904D02*
X77478628Y-131857142D01*
X77478628Y-131857142D02*
X77478628Y-132238094D01*
X77288152Y-130809523D02*
X77954819Y-130809523D01*
X76907200Y-131047618D02*
X77621485Y-131285713D01*
X77621485Y-131285713D02*
X77621485Y-130666666D01*
X73954819Y-131666666D02*
X73478628Y-131999999D01*
X73954819Y-132238094D02*
X72954819Y-132238094D01*
X72954819Y-132238094D02*
X72954819Y-131857142D01*
X72954819Y-131857142D02*
X73002438Y-131761904D01*
X73002438Y-131761904D02*
X73050057Y-131714285D01*
X73050057Y-131714285D02*
X73145295Y-131666666D01*
X73145295Y-131666666D02*
X73288152Y-131666666D01*
X73288152Y-131666666D02*
X73383390Y-131714285D01*
X73383390Y-131714285D02*
X73431009Y-131761904D01*
X73431009Y-131761904D02*
X73478628Y-131857142D01*
X73478628Y-131857142D02*
X73478628Y-132238094D01*
X72954819Y-131333332D02*
X72954819Y-130714285D01*
X72954819Y-130714285D02*
X73335771Y-131047618D01*
X73335771Y-131047618D02*
X73335771Y-130904761D01*
X73335771Y-130904761D02*
X73383390Y-130809523D01*
X73383390Y-130809523D02*
X73431009Y-130761904D01*
X73431009Y-130761904D02*
X73526247Y-130714285D01*
X73526247Y-130714285D02*
X73764342Y-130714285D01*
X73764342Y-130714285D02*
X73859580Y-130761904D01*
X73859580Y-130761904D02*
X73907200Y-130809523D01*
X73907200Y-130809523D02*
X73954819Y-130904761D01*
X73954819Y-130904761D02*
X73954819Y-131190475D01*
X73954819Y-131190475D02*
X73907200Y-131285713D01*
X73907200Y-131285713D02*
X73859580Y-131333332D01*
X69954819Y-131666666D02*
X69478628Y-131999999D01*
X69954819Y-132238094D02*
X68954819Y-132238094D01*
X68954819Y-132238094D02*
X68954819Y-131857142D01*
X68954819Y-131857142D02*
X69002438Y-131761904D01*
X69002438Y-131761904D02*
X69050057Y-131714285D01*
X69050057Y-131714285D02*
X69145295Y-131666666D01*
X69145295Y-131666666D02*
X69288152Y-131666666D01*
X69288152Y-131666666D02*
X69383390Y-131714285D01*
X69383390Y-131714285D02*
X69431009Y-131761904D01*
X69431009Y-131761904D02*
X69478628Y-131857142D01*
X69478628Y-131857142D02*
X69478628Y-132238094D01*
X69050057Y-131285713D02*
X69002438Y-131238094D01*
X69002438Y-131238094D02*
X68954819Y-131142856D01*
X68954819Y-131142856D02*
X68954819Y-130904761D01*
X68954819Y-130904761D02*
X69002438Y-130809523D01*
X69002438Y-130809523D02*
X69050057Y-130761904D01*
X69050057Y-130761904D02*
X69145295Y-130714285D01*
X69145295Y-130714285D02*
X69240533Y-130714285D01*
X69240533Y-130714285D02*
X69383390Y-130761904D01*
X69383390Y-130761904D02*
X69954819Y-131333332D01*
X69954819Y-131333332D02*
X69954819Y-130714285D01*
X65954819Y-131666666D02*
X65478628Y-131999999D01*
X65954819Y-132238094D02*
X64954819Y-132238094D01*
X64954819Y-132238094D02*
X64954819Y-131857142D01*
X64954819Y-131857142D02*
X65002438Y-131761904D01*
X65002438Y-131761904D02*
X65050057Y-131714285D01*
X65050057Y-131714285D02*
X65145295Y-131666666D01*
X65145295Y-131666666D02*
X65288152Y-131666666D01*
X65288152Y-131666666D02*
X65383390Y-131714285D01*
X65383390Y-131714285D02*
X65431009Y-131761904D01*
X65431009Y-131761904D02*
X65478628Y-131857142D01*
X65478628Y-131857142D02*
X65478628Y-132238094D01*
X65954819Y-130714285D02*
X65954819Y-131285713D01*
X65954819Y-130999999D02*
X64954819Y-130999999D01*
X64954819Y-130999999D02*
X65097676Y-131095237D01*
X65097676Y-131095237D02*
X65192914Y-131190475D01*
X65192914Y-131190475D02*
X65240533Y-131285713D01*
X72314819Y-29039523D02*
X73029104Y-29039523D01*
X73029104Y-29039523D02*
X73171961Y-29087142D01*
X73171961Y-29087142D02*
X73267200Y-29182380D01*
X73267200Y-29182380D02*
X73314819Y-29325237D01*
X73314819Y-29325237D02*
X73314819Y-29420475D01*
X73314819Y-28039523D02*
X73314819Y-28610951D01*
X73314819Y-28325237D02*
X72314819Y-28325237D01*
X72314819Y-28325237D02*
X72457676Y-28420475D01*
X72457676Y-28420475D02*
X72552914Y-28515713D01*
X72552914Y-28515713D02*
X72600533Y-28610951D01*
X73314819Y-27563332D02*
X73314819Y-27372856D01*
X73314819Y-27372856D02*
X73267200Y-27277618D01*
X73267200Y-27277618D02*
X73219580Y-27229999D01*
X73219580Y-27229999D02*
X73076723Y-27134761D01*
X73076723Y-27134761D02*
X72886247Y-27087142D01*
X72886247Y-27087142D02*
X72505295Y-27087142D01*
X72505295Y-27087142D02*
X72410057Y-27134761D01*
X72410057Y-27134761D02*
X72362438Y-27182380D01*
X72362438Y-27182380D02*
X72314819Y-27277618D01*
X72314819Y-27277618D02*
X72314819Y-27468094D01*
X72314819Y-27468094D02*
X72362438Y-27563332D01*
X72362438Y-27563332D02*
X72410057Y-27610951D01*
X72410057Y-27610951D02*
X72505295Y-27658570D01*
X72505295Y-27658570D02*
X72743390Y-27658570D01*
X72743390Y-27658570D02*
X72838628Y-27610951D01*
X72838628Y-27610951D02*
X72886247Y-27563332D01*
X72886247Y-27563332D02*
X72933866Y-27468094D01*
X72933866Y-27468094D02*
X72933866Y-27277618D01*
X72933866Y-27277618D02*
X72886247Y-27182380D01*
X72886247Y-27182380D02*
X72838628Y-27134761D01*
X72838628Y-27134761D02*
X72743390Y-27087142D01*
X43814819Y-29079523D02*
X44529104Y-29079523D01*
X44529104Y-29079523D02*
X44671961Y-29127142D01*
X44671961Y-29127142D02*
X44767200Y-29222380D01*
X44767200Y-29222380D02*
X44814819Y-29365237D01*
X44814819Y-29365237D02*
X44814819Y-29460475D01*
X44814819Y-28079523D02*
X44814819Y-28650951D01*
X44814819Y-28365237D02*
X43814819Y-28365237D01*
X43814819Y-28365237D02*
X43957676Y-28460475D01*
X43957676Y-28460475D02*
X44052914Y-28555713D01*
X44052914Y-28555713D02*
X44100533Y-28650951D01*
X44243390Y-27508094D02*
X44195771Y-27603332D01*
X44195771Y-27603332D02*
X44148152Y-27650951D01*
X44148152Y-27650951D02*
X44052914Y-27698570D01*
X44052914Y-27698570D02*
X44005295Y-27698570D01*
X44005295Y-27698570D02*
X43910057Y-27650951D01*
X43910057Y-27650951D02*
X43862438Y-27603332D01*
X43862438Y-27603332D02*
X43814819Y-27508094D01*
X43814819Y-27508094D02*
X43814819Y-27317618D01*
X43814819Y-27317618D02*
X43862438Y-27222380D01*
X43862438Y-27222380D02*
X43910057Y-27174761D01*
X43910057Y-27174761D02*
X44005295Y-27127142D01*
X44005295Y-27127142D02*
X44052914Y-27127142D01*
X44052914Y-27127142D02*
X44148152Y-27174761D01*
X44148152Y-27174761D02*
X44195771Y-27222380D01*
X44195771Y-27222380D02*
X44243390Y-27317618D01*
X44243390Y-27317618D02*
X44243390Y-27508094D01*
X44243390Y-27508094D02*
X44291009Y-27603332D01*
X44291009Y-27603332D02*
X44338628Y-27650951D01*
X44338628Y-27650951D02*
X44433866Y-27698570D01*
X44433866Y-27698570D02*
X44624342Y-27698570D01*
X44624342Y-27698570D02*
X44719580Y-27650951D01*
X44719580Y-27650951D02*
X44767200Y-27603332D01*
X44767200Y-27603332D02*
X44814819Y-27508094D01*
X44814819Y-27508094D02*
X44814819Y-27317618D01*
X44814819Y-27317618D02*
X44767200Y-27222380D01*
X44767200Y-27222380D02*
X44719580Y-27174761D01*
X44719580Y-27174761D02*
X44624342Y-27127142D01*
X44624342Y-27127142D02*
X44433866Y-27127142D01*
X44433866Y-27127142D02*
X44338628Y-27174761D01*
X44338628Y-27174761D02*
X44291009Y-27222380D01*
X44291009Y-27222380D02*
X44243390Y-27317618D01*
D10*
X77770476Y-87457419D02*
X77770476Y-88171704D01*
X77770476Y-88171704D02*
X77722857Y-88314561D01*
X77722857Y-88314561D02*
X77627619Y-88409800D01*
X77627619Y-88409800D02*
X77484762Y-88457419D01*
X77484762Y-88457419D02*
X77389524Y-88457419D01*
X78770476Y-88457419D02*
X78199048Y-88457419D01*
X78484762Y-88457419D02*
X78484762Y-87457419D01*
X78484762Y-87457419D02*
X78389524Y-87600276D01*
X78389524Y-87600276D02*
X78294286Y-87695514D01*
X78294286Y-87695514D02*
X78199048Y-87743133D01*
X79151429Y-87552657D02*
X79199048Y-87505038D01*
X79199048Y-87505038D02*
X79294286Y-87457419D01*
X79294286Y-87457419D02*
X79532381Y-87457419D01*
X79532381Y-87457419D02*
X79627619Y-87505038D01*
X79627619Y-87505038D02*
X79675238Y-87552657D01*
X79675238Y-87552657D02*
X79722857Y-87647895D01*
X79722857Y-87647895D02*
X79722857Y-87743133D01*
X79722857Y-87743133D02*
X79675238Y-87885990D01*
X79675238Y-87885990D02*
X79103810Y-88457419D01*
X79103810Y-88457419D02*
X79722857Y-88457419D01*
X95690476Y-88457419D02*
X95690476Y-89171704D01*
X95690476Y-89171704D02*
X95642857Y-89314561D01*
X95642857Y-89314561D02*
X95547619Y-89409800D01*
X95547619Y-89409800D02*
X95404762Y-89457419D01*
X95404762Y-89457419D02*
X95309524Y-89457419D01*
X96690476Y-89457419D02*
X96119048Y-89457419D01*
X96404762Y-89457419D02*
X96404762Y-88457419D01*
X96404762Y-88457419D02*
X96309524Y-88600276D01*
X96309524Y-88600276D02*
X96214286Y-88695514D01*
X96214286Y-88695514D02*
X96119048Y-88743133D01*
X97642857Y-89457419D02*
X97071429Y-89457419D01*
X97357143Y-89457419D02*
X97357143Y-88457419D01*
X97357143Y-88457419D02*
X97261905Y-88600276D01*
X97261905Y-88600276D02*
X97166667Y-88695514D01*
X97166667Y-88695514D02*
X97071429Y-88743133D01*
X77770476Y-62957419D02*
X77770476Y-63671704D01*
X77770476Y-63671704D02*
X77722857Y-63814561D01*
X77722857Y-63814561D02*
X77627619Y-63909800D01*
X77627619Y-63909800D02*
X77484762Y-63957419D01*
X77484762Y-63957419D02*
X77389524Y-63957419D01*
X78770476Y-63957419D02*
X78199048Y-63957419D01*
X78484762Y-63957419D02*
X78484762Y-62957419D01*
X78484762Y-62957419D02*
X78389524Y-63100276D01*
X78389524Y-63100276D02*
X78294286Y-63195514D01*
X78294286Y-63195514D02*
X78199048Y-63243133D01*
X79389524Y-62957419D02*
X79484762Y-62957419D01*
X79484762Y-62957419D02*
X79580000Y-63005038D01*
X79580000Y-63005038D02*
X79627619Y-63052657D01*
X79627619Y-63052657D02*
X79675238Y-63147895D01*
X79675238Y-63147895D02*
X79722857Y-63338371D01*
X79722857Y-63338371D02*
X79722857Y-63576466D01*
X79722857Y-63576466D02*
X79675238Y-63766942D01*
X79675238Y-63766942D02*
X79627619Y-63862180D01*
X79627619Y-63862180D02*
X79580000Y-63909800D01*
X79580000Y-63909800D02*
X79484762Y-63957419D01*
X79484762Y-63957419D02*
X79389524Y-63957419D01*
X79389524Y-63957419D02*
X79294286Y-63909800D01*
X79294286Y-63909800D02*
X79246667Y-63862180D01*
X79246667Y-63862180D02*
X79199048Y-63766942D01*
X79199048Y-63766942D02*
X79151429Y-63576466D01*
X79151429Y-63576466D02*
X79151429Y-63338371D01*
X79151429Y-63338371D02*
X79199048Y-63147895D01*
X79199048Y-63147895D02*
X79246667Y-63052657D01*
X79246667Y-63052657D02*
X79294286Y-63005038D01*
X79294286Y-63005038D02*
X79389524Y-62957419D01*
X96166666Y-63457419D02*
X96166666Y-64171704D01*
X96166666Y-64171704D02*
X96119047Y-64314561D01*
X96119047Y-64314561D02*
X96023809Y-64409800D01*
X96023809Y-64409800D02*
X95880952Y-64457419D01*
X95880952Y-64457419D02*
X95785714Y-64457419D01*
X96690476Y-64457419D02*
X96880952Y-64457419D01*
X96880952Y-64457419D02*
X96976190Y-64409800D01*
X96976190Y-64409800D02*
X97023809Y-64362180D01*
X97023809Y-64362180D02*
X97119047Y-64219323D01*
X97119047Y-64219323D02*
X97166666Y-64028847D01*
X97166666Y-64028847D02*
X97166666Y-63647895D01*
X97166666Y-63647895D02*
X97119047Y-63552657D01*
X97119047Y-63552657D02*
X97071428Y-63505038D01*
X97071428Y-63505038D02*
X96976190Y-63457419D01*
X96976190Y-63457419D02*
X96785714Y-63457419D01*
X96785714Y-63457419D02*
X96690476Y-63505038D01*
X96690476Y-63505038D02*
X96642857Y-63552657D01*
X96642857Y-63552657D02*
X96595238Y-63647895D01*
X96595238Y-63647895D02*
X96595238Y-63885990D01*
X96595238Y-63885990D02*
X96642857Y-63981228D01*
X96642857Y-63981228D02*
X96690476Y-64028847D01*
X96690476Y-64028847D02*
X96785714Y-64076466D01*
X96785714Y-64076466D02*
X96976190Y-64076466D01*
X96976190Y-64076466D02*
X97071428Y-64028847D01*
X97071428Y-64028847D02*
X97119047Y-63981228D01*
X97119047Y-63981228D02*
X97166666Y-63885990D01*
X78246666Y-38457419D02*
X78246666Y-39171704D01*
X78246666Y-39171704D02*
X78199047Y-39314561D01*
X78199047Y-39314561D02*
X78103809Y-39409800D01*
X78103809Y-39409800D02*
X77960952Y-39457419D01*
X77960952Y-39457419D02*
X77865714Y-39457419D01*
X78865714Y-38885990D02*
X78770476Y-38838371D01*
X78770476Y-38838371D02*
X78722857Y-38790752D01*
X78722857Y-38790752D02*
X78675238Y-38695514D01*
X78675238Y-38695514D02*
X78675238Y-38647895D01*
X78675238Y-38647895D02*
X78722857Y-38552657D01*
X78722857Y-38552657D02*
X78770476Y-38505038D01*
X78770476Y-38505038D02*
X78865714Y-38457419D01*
X78865714Y-38457419D02*
X79056190Y-38457419D01*
X79056190Y-38457419D02*
X79151428Y-38505038D01*
X79151428Y-38505038D02*
X79199047Y-38552657D01*
X79199047Y-38552657D02*
X79246666Y-38647895D01*
X79246666Y-38647895D02*
X79246666Y-38695514D01*
X79246666Y-38695514D02*
X79199047Y-38790752D01*
X79199047Y-38790752D02*
X79151428Y-38838371D01*
X79151428Y-38838371D02*
X79056190Y-38885990D01*
X79056190Y-38885990D02*
X78865714Y-38885990D01*
X78865714Y-38885990D02*
X78770476Y-38933609D01*
X78770476Y-38933609D02*
X78722857Y-38981228D01*
X78722857Y-38981228D02*
X78675238Y-39076466D01*
X78675238Y-39076466D02*
X78675238Y-39266942D01*
X78675238Y-39266942D02*
X78722857Y-39362180D01*
X78722857Y-39362180D02*
X78770476Y-39409800D01*
X78770476Y-39409800D02*
X78865714Y-39457419D01*
X78865714Y-39457419D02*
X79056190Y-39457419D01*
X79056190Y-39457419D02*
X79151428Y-39409800D01*
X79151428Y-39409800D02*
X79199047Y-39362180D01*
X79199047Y-39362180D02*
X79246666Y-39266942D01*
X79246666Y-39266942D02*
X79246666Y-39076466D01*
X79246666Y-39076466D02*
X79199047Y-38981228D01*
X79199047Y-38981228D02*
X79151428Y-38933609D01*
X79151428Y-38933609D02*
X79056190Y-38885990D01*
X96166666Y-39432481D02*
X96166666Y-40146766D01*
X96166666Y-40146766D02*
X96119047Y-40289623D01*
X96119047Y-40289623D02*
X96023809Y-40384862D01*
X96023809Y-40384862D02*
X95880952Y-40432481D01*
X95880952Y-40432481D02*
X95785714Y-40432481D01*
X96547619Y-39432481D02*
X97214285Y-39432481D01*
X97214285Y-39432481D02*
X96785714Y-40432481D01*
X55746666Y-87457419D02*
X55746666Y-88171704D01*
X55746666Y-88171704D02*
X55699047Y-88314561D01*
X55699047Y-88314561D02*
X55603809Y-88409800D01*
X55603809Y-88409800D02*
X55460952Y-88457419D01*
X55460952Y-88457419D02*
X55365714Y-88457419D01*
X56651428Y-87457419D02*
X56460952Y-87457419D01*
X56460952Y-87457419D02*
X56365714Y-87505038D01*
X56365714Y-87505038D02*
X56318095Y-87552657D01*
X56318095Y-87552657D02*
X56222857Y-87695514D01*
X56222857Y-87695514D02*
X56175238Y-87885990D01*
X56175238Y-87885990D02*
X56175238Y-88266942D01*
X56175238Y-88266942D02*
X56222857Y-88362180D01*
X56222857Y-88362180D02*
X56270476Y-88409800D01*
X56270476Y-88409800D02*
X56365714Y-88457419D01*
X56365714Y-88457419D02*
X56556190Y-88457419D01*
X56556190Y-88457419D02*
X56651428Y-88409800D01*
X56651428Y-88409800D02*
X56699047Y-88362180D01*
X56699047Y-88362180D02*
X56746666Y-88266942D01*
X56746666Y-88266942D02*
X56746666Y-88028847D01*
X56746666Y-88028847D02*
X56699047Y-87933609D01*
X56699047Y-87933609D02*
X56651428Y-87885990D01*
X56651428Y-87885990D02*
X56556190Y-87838371D01*
X56556190Y-87838371D02*
X56365714Y-87838371D01*
X56365714Y-87838371D02*
X56270476Y-87885990D01*
X56270476Y-87885990D02*
X56222857Y-87933609D01*
X56222857Y-87933609D02*
X56175238Y-88028847D01*
X37666666Y-88457419D02*
X37666666Y-89171704D01*
X37666666Y-89171704D02*
X37619047Y-89314561D01*
X37619047Y-89314561D02*
X37523809Y-89409800D01*
X37523809Y-89409800D02*
X37380952Y-89457419D01*
X37380952Y-89457419D02*
X37285714Y-89457419D01*
X38619047Y-88457419D02*
X38142857Y-88457419D01*
X38142857Y-88457419D02*
X38095238Y-88933609D01*
X38095238Y-88933609D02*
X38142857Y-88885990D01*
X38142857Y-88885990D02*
X38238095Y-88838371D01*
X38238095Y-88838371D02*
X38476190Y-88838371D01*
X38476190Y-88838371D02*
X38571428Y-88885990D01*
X38571428Y-88885990D02*
X38619047Y-88933609D01*
X38619047Y-88933609D02*
X38666666Y-89028847D01*
X38666666Y-89028847D02*
X38666666Y-89266942D01*
X38666666Y-89266942D02*
X38619047Y-89362180D01*
X38619047Y-89362180D02*
X38571428Y-89409800D01*
X38571428Y-89409800D02*
X38476190Y-89457419D01*
X38476190Y-89457419D02*
X38238095Y-89457419D01*
X38238095Y-89457419D02*
X38142857Y-89409800D01*
X38142857Y-89409800D02*
X38095238Y-89362180D01*
X55746666Y-62957419D02*
X55746666Y-63671704D01*
X55746666Y-63671704D02*
X55699047Y-63814561D01*
X55699047Y-63814561D02*
X55603809Y-63909800D01*
X55603809Y-63909800D02*
X55460952Y-63957419D01*
X55460952Y-63957419D02*
X55365714Y-63957419D01*
X56651428Y-63290752D02*
X56651428Y-63957419D01*
X56413333Y-62909800D02*
X56175238Y-63624085D01*
X56175238Y-63624085D02*
X56794285Y-63624085D01*
X37666666Y-63457419D02*
X37666666Y-64171704D01*
X37666666Y-64171704D02*
X37619047Y-64314561D01*
X37619047Y-64314561D02*
X37523809Y-64409800D01*
X37523809Y-64409800D02*
X37380952Y-64457419D01*
X37380952Y-64457419D02*
X37285714Y-64457419D01*
X38047619Y-63457419D02*
X38666666Y-63457419D01*
X38666666Y-63457419D02*
X38333333Y-63838371D01*
X38333333Y-63838371D02*
X38476190Y-63838371D01*
X38476190Y-63838371D02*
X38571428Y-63885990D01*
X38571428Y-63885990D02*
X38619047Y-63933609D01*
X38619047Y-63933609D02*
X38666666Y-64028847D01*
X38666666Y-64028847D02*
X38666666Y-64266942D01*
X38666666Y-64266942D02*
X38619047Y-64362180D01*
X38619047Y-64362180D02*
X38571428Y-64409800D01*
X38571428Y-64409800D02*
X38476190Y-64457419D01*
X38476190Y-64457419D02*
X38190476Y-64457419D01*
X38190476Y-64457419D02*
X38095238Y-64409800D01*
X38095238Y-64409800D02*
X38047619Y-64362180D01*
X55746666Y-38457419D02*
X55746666Y-39171704D01*
X55746666Y-39171704D02*
X55699047Y-39314561D01*
X55699047Y-39314561D02*
X55603809Y-39409800D01*
X55603809Y-39409800D02*
X55460952Y-39457419D01*
X55460952Y-39457419D02*
X55365714Y-39457419D01*
X56175238Y-38552657D02*
X56222857Y-38505038D01*
X56222857Y-38505038D02*
X56318095Y-38457419D01*
X56318095Y-38457419D02*
X56556190Y-38457419D01*
X56556190Y-38457419D02*
X56651428Y-38505038D01*
X56651428Y-38505038D02*
X56699047Y-38552657D01*
X56699047Y-38552657D02*
X56746666Y-38647895D01*
X56746666Y-38647895D02*
X56746666Y-38743133D01*
X56746666Y-38743133D02*
X56699047Y-38885990D01*
X56699047Y-38885990D02*
X56127619Y-39457419D01*
X56127619Y-39457419D02*
X56746666Y-39457419D01*
X37666666Y-39457419D02*
X37666666Y-40171704D01*
X37666666Y-40171704D02*
X37619047Y-40314561D01*
X37619047Y-40314561D02*
X37523809Y-40409800D01*
X37523809Y-40409800D02*
X37380952Y-40457419D01*
X37380952Y-40457419D02*
X37285714Y-40457419D01*
X38666666Y-40457419D02*
X38095238Y-40457419D01*
X38380952Y-40457419D02*
X38380952Y-39457419D01*
X38380952Y-39457419D02*
X38285714Y-39600276D01*
X38285714Y-39600276D02*
X38190476Y-39695514D01*
X38190476Y-39695514D02*
X38095238Y-39743133D01*
D12*
X82859580Y-113666666D02*
X82907200Y-113714285D01*
X82907200Y-113714285D02*
X82954819Y-113857142D01*
X82954819Y-113857142D02*
X82954819Y-113952380D01*
X82954819Y-113952380D02*
X82907200Y-114095237D01*
X82907200Y-114095237D02*
X82811961Y-114190475D01*
X82811961Y-114190475D02*
X82716723Y-114238094D01*
X82716723Y-114238094D02*
X82526247Y-114285713D01*
X82526247Y-114285713D02*
X82383390Y-114285713D01*
X82383390Y-114285713D02*
X82192914Y-114238094D01*
X82192914Y-114238094D02*
X82097676Y-114190475D01*
X82097676Y-114190475D02*
X82002438Y-114095237D01*
X82002438Y-114095237D02*
X81954819Y-113952380D01*
X81954819Y-113952380D02*
X81954819Y-113857142D01*
X81954819Y-113857142D02*
X82002438Y-113714285D01*
X82002438Y-113714285D02*
X82050057Y-113666666D01*
X81954819Y-112809523D02*
X81954819Y-112999999D01*
X81954819Y-112999999D02*
X82002438Y-113095237D01*
X82002438Y-113095237D02*
X82050057Y-113142856D01*
X82050057Y-113142856D02*
X82192914Y-113238094D01*
X82192914Y-113238094D02*
X82383390Y-113285713D01*
X82383390Y-113285713D02*
X82764342Y-113285713D01*
X82764342Y-113285713D02*
X82859580Y-113238094D01*
X82859580Y-113238094D02*
X82907200Y-113190475D01*
X82907200Y-113190475D02*
X82954819Y-113095237D01*
X82954819Y-113095237D02*
X82954819Y-112904761D01*
X82954819Y-112904761D02*
X82907200Y-112809523D01*
X82907200Y-112809523D02*
X82859580Y-112761904D01*
X82859580Y-112761904D02*
X82764342Y-112714285D01*
X82764342Y-112714285D02*
X82526247Y-112714285D01*
X82526247Y-112714285D02*
X82431009Y-112761904D01*
X82431009Y-112761904D02*
X82383390Y-112809523D01*
X82383390Y-112809523D02*
X82335771Y-112904761D01*
X82335771Y-112904761D02*
X82335771Y-113095237D01*
X82335771Y-113095237D02*
X82383390Y-113190475D01*
X82383390Y-113190475D02*
X82431009Y-113238094D01*
X82431009Y-113238094D02*
X82526247Y-113285713D01*
X78859580Y-113666666D02*
X78907200Y-113714285D01*
X78907200Y-113714285D02*
X78954819Y-113857142D01*
X78954819Y-113857142D02*
X78954819Y-113952380D01*
X78954819Y-113952380D02*
X78907200Y-114095237D01*
X78907200Y-114095237D02*
X78811961Y-114190475D01*
X78811961Y-114190475D02*
X78716723Y-114238094D01*
X78716723Y-114238094D02*
X78526247Y-114285713D01*
X78526247Y-114285713D02*
X78383390Y-114285713D01*
X78383390Y-114285713D02*
X78192914Y-114238094D01*
X78192914Y-114238094D02*
X78097676Y-114190475D01*
X78097676Y-114190475D02*
X78002438Y-114095237D01*
X78002438Y-114095237D02*
X77954819Y-113952380D01*
X77954819Y-113952380D02*
X77954819Y-113857142D01*
X77954819Y-113857142D02*
X78002438Y-113714285D01*
X78002438Y-113714285D02*
X78050057Y-113666666D01*
X77954819Y-112761904D02*
X77954819Y-113238094D01*
X77954819Y-113238094D02*
X78431009Y-113285713D01*
X78431009Y-113285713D02*
X78383390Y-113238094D01*
X78383390Y-113238094D02*
X78335771Y-113142856D01*
X78335771Y-113142856D02*
X78335771Y-112904761D01*
X78335771Y-112904761D02*
X78383390Y-112809523D01*
X78383390Y-112809523D02*
X78431009Y-112761904D01*
X78431009Y-112761904D02*
X78526247Y-112714285D01*
X78526247Y-112714285D02*
X78764342Y-112714285D01*
X78764342Y-112714285D02*
X78859580Y-112761904D01*
X78859580Y-112761904D02*
X78907200Y-112809523D01*
X78907200Y-112809523D02*
X78954819Y-112904761D01*
X78954819Y-112904761D02*
X78954819Y-113142856D01*
X78954819Y-113142856D02*
X78907200Y-113238094D01*
X78907200Y-113238094D02*
X78859580Y-113285713D01*
X74859580Y-113666666D02*
X74907200Y-113714285D01*
X74907200Y-113714285D02*
X74954819Y-113857142D01*
X74954819Y-113857142D02*
X74954819Y-113952380D01*
X74954819Y-113952380D02*
X74907200Y-114095237D01*
X74907200Y-114095237D02*
X74811961Y-114190475D01*
X74811961Y-114190475D02*
X74716723Y-114238094D01*
X74716723Y-114238094D02*
X74526247Y-114285713D01*
X74526247Y-114285713D02*
X74383390Y-114285713D01*
X74383390Y-114285713D02*
X74192914Y-114238094D01*
X74192914Y-114238094D02*
X74097676Y-114190475D01*
X74097676Y-114190475D02*
X74002438Y-114095237D01*
X74002438Y-114095237D02*
X73954819Y-113952380D01*
X73954819Y-113952380D02*
X73954819Y-113857142D01*
X73954819Y-113857142D02*
X74002438Y-113714285D01*
X74002438Y-113714285D02*
X74050057Y-113666666D01*
X74288152Y-112809523D02*
X74954819Y-112809523D01*
X73907200Y-113047618D02*
X74621485Y-113285713D01*
X74621485Y-113285713D02*
X74621485Y-112666666D01*
X70859580Y-113666666D02*
X70907200Y-113714285D01*
X70907200Y-113714285D02*
X70954819Y-113857142D01*
X70954819Y-113857142D02*
X70954819Y-113952380D01*
X70954819Y-113952380D02*
X70907200Y-114095237D01*
X70907200Y-114095237D02*
X70811961Y-114190475D01*
X70811961Y-114190475D02*
X70716723Y-114238094D01*
X70716723Y-114238094D02*
X70526247Y-114285713D01*
X70526247Y-114285713D02*
X70383390Y-114285713D01*
X70383390Y-114285713D02*
X70192914Y-114238094D01*
X70192914Y-114238094D02*
X70097676Y-114190475D01*
X70097676Y-114190475D02*
X70002438Y-114095237D01*
X70002438Y-114095237D02*
X69954819Y-113952380D01*
X69954819Y-113952380D02*
X69954819Y-113857142D01*
X69954819Y-113857142D02*
X70002438Y-113714285D01*
X70002438Y-113714285D02*
X70050057Y-113666666D01*
X69954819Y-113333332D02*
X69954819Y-112714285D01*
X69954819Y-112714285D02*
X70335771Y-113047618D01*
X70335771Y-113047618D02*
X70335771Y-112904761D01*
X70335771Y-112904761D02*
X70383390Y-112809523D01*
X70383390Y-112809523D02*
X70431009Y-112761904D01*
X70431009Y-112761904D02*
X70526247Y-112714285D01*
X70526247Y-112714285D02*
X70764342Y-112714285D01*
X70764342Y-112714285D02*
X70859580Y-112761904D01*
X70859580Y-112761904D02*
X70907200Y-112809523D01*
X70907200Y-112809523D02*
X70954819Y-112904761D01*
X70954819Y-112904761D02*
X70954819Y-113190475D01*
X70954819Y-113190475D02*
X70907200Y-113285713D01*
X70907200Y-113285713D02*
X70859580Y-113333332D01*
X66859580Y-113666666D02*
X66907200Y-113714285D01*
X66907200Y-113714285D02*
X66954819Y-113857142D01*
X66954819Y-113857142D02*
X66954819Y-113952380D01*
X66954819Y-113952380D02*
X66907200Y-114095237D01*
X66907200Y-114095237D02*
X66811961Y-114190475D01*
X66811961Y-114190475D02*
X66716723Y-114238094D01*
X66716723Y-114238094D02*
X66526247Y-114285713D01*
X66526247Y-114285713D02*
X66383390Y-114285713D01*
X66383390Y-114285713D02*
X66192914Y-114238094D01*
X66192914Y-114238094D02*
X66097676Y-114190475D01*
X66097676Y-114190475D02*
X66002438Y-114095237D01*
X66002438Y-114095237D02*
X65954819Y-113952380D01*
X65954819Y-113952380D02*
X65954819Y-113857142D01*
X65954819Y-113857142D02*
X66002438Y-113714285D01*
X66002438Y-113714285D02*
X66050057Y-113666666D01*
X66050057Y-113285713D02*
X66002438Y-113238094D01*
X66002438Y-113238094D02*
X65954819Y-113142856D01*
X65954819Y-113142856D02*
X65954819Y-112904761D01*
X65954819Y-112904761D02*
X66002438Y-112809523D01*
X66002438Y-112809523D02*
X66050057Y-112761904D01*
X66050057Y-112761904D02*
X66145295Y-112714285D01*
X66145295Y-112714285D02*
X66240533Y-112714285D01*
X66240533Y-112714285D02*
X66383390Y-112761904D01*
X66383390Y-112761904D02*
X66954819Y-113333332D01*
X66954819Y-113333332D02*
X66954819Y-112714285D01*
X62859580Y-113666666D02*
X62907200Y-113714285D01*
X62907200Y-113714285D02*
X62954819Y-113857142D01*
X62954819Y-113857142D02*
X62954819Y-113952380D01*
X62954819Y-113952380D02*
X62907200Y-114095237D01*
X62907200Y-114095237D02*
X62811961Y-114190475D01*
X62811961Y-114190475D02*
X62716723Y-114238094D01*
X62716723Y-114238094D02*
X62526247Y-114285713D01*
X62526247Y-114285713D02*
X62383390Y-114285713D01*
X62383390Y-114285713D02*
X62192914Y-114238094D01*
X62192914Y-114238094D02*
X62097676Y-114190475D01*
X62097676Y-114190475D02*
X62002438Y-114095237D01*
X62002438Y-114095237D02*
X61954819Y-113952380D01*
X61954819Y-113952380D02*
X61954819Y-113857142D01*
X61954819Y-113857142D02*
X62002438Y-113714285D01*
X62002438Y-113714285D02*
X62050057Y-113666666D01*
X62954819Y-112714285D02*
X62954819Y-113285713D01*
X62954819Y-112999999D02*
X61954819Y-112999999D01*
X61954819Y-112999999D02*
X62097676Y-113095237D01*
X62097676Y-113095237D02*
X62192914Y-113190475D01*
X62192914Y-113190475D02*
X62240533Y-113285713D01*
D10*
%TO.C,J16*%
X102500000Y-146000000D02*
G75*
G02*
X90500000Y-146000000I-6000000J0D01*
G01*
X90500000Y-146000000D02*
G75*
G02*
X102500000Y-146000000I6000000J0D01*
G01*
D13*
%TO.C,R7*%
X42040000Y-135024938D02*
X41270000Y-135024938D01*
X33960000Y-135024938D02*
X34730000Y-135024938D01*
X41270000Y-136394938D02*
X34730000Y-136394938D01*
X34730000Y-133654938D01*
X41270000Y-133654938D01*
X41270000Y-136394938D01*
%TO.C,R8*%
X92620000Y-135024938D02*
X93390000Y-135024938D01*
X100700000Y-135024938D02*
X99930000Y-135024938D01*
X93390000Y-133654938D02*
X99930000Y-133654938D01*
X99930000Y-136394938D01*
X93390000Y-136394938D01*
X93390000Y-133654938D01*
%TO.C,RV7*%
X52030000Y-156904938D02*
X52030000Y-155524938D01*
X53410000Y-156904938D02*
X52030000Y-156904938D01*
X54680000Y-154144938D02*
X59870000Y-154144938D01*
X54680000Y-156904938D02*
X54680000Y-154144938D01*
X54680000Y-156904938D02*
X59870000Y-156904938D01*
X59870000Y-156904938D02*
X59870000Y-154144938D01*
D10*
X44950000Y-133524938D02*
X66950000Y-133524938D01*
X66950000Y-157524938D01*
X44950000Y-157524938D01*
X44950000Y-133524938D01*
D13*
%TO.C,RV8*%
X74580000Y-156904938D02*
X74580000Y-155524938D01*
X75960000Y-156904938D02*
X74580000Y-156904938D01*
X77230000Y-154144938D02*
X82420000Y-154144938D01*
X77230000Y-156904938D02*
X77230000Y-154144938D01*
X77230000Y-156904938D02*
X82420000Y-156904938D01*
X82420000Y-156904938D02*
X82420000Y-154144938D01*
D10*
X67500000Y-133524938D02*
X89500000Y-133524938D01*
X89500000Y-157524938D01*
X67500000Y-157524938D01*
X67500000Y-133524938D01*
%TO.C,J14*%
X44000000Y-146000000D02*
G75*
G02*
X32000000Y-146000000I-6000000J0D01*
G01*
X32000000Y-146000000D02*
G75*
G02*
X44000000Y-146000000I6000000J0D01*
G01*
D13*
%TO.C,R5*%
X80500000Y-120040000D02*
X80500000Y-120810000D01*
X80500000Y-128120000D02*
X80500000Y-127350000D01*
X81870000Y-120810000D02*
X79130000Y-120810000D01*
X79130000Y-127350000D01*
X81870000Y-127350000D01*
X81870000Y-120810000D01*
%TO.C,J17*%
X61620000Y-160620000D02*
X63000000Y-160620000D01*
X61620000Y-162000000D02*
X61620000Y-160620000D01*
X61620000Y-163270000D02*
X61620000Y-171000000D01*
X61620000Y-163270000D02*
X64380000Y-163270000D01*
X61620000Y-171000000D02*
X64380000Y-171000000D01*
X64380000Y-163270000D02*
X64380000Y-171000000D01*
%TO.C,U1*%
X49050000Y-116690000D02*
G75*
G02*
X49050000Y-118690000I0J-1000000D01*
G01*
X48990000Y-122830000D02*
X59390000Y-122830000D01*
X59390000Y-112550000D01*
X48990000Y-112550000D01*
X48990000Y-122830000D01*
X59330000Y-115040000D02*
X49050000Y-115040000D01*
X49050000Y-115040000D02*
X49050000Y-116690000D01*
X49050000Y-118690000D02*
X49050000Y-120340000D01*
X59330000Y-120340000D02*
X59330000Y-115040000D01*
X49050000Y-120340000D02*
X59330000Y-120340000D01*
%TO.C,SW1*%
D10*
X81500000Y-159000000D02*
X89500000Y-159000000D01*
X89500000Y-172000000D01*
X81500000Y-172000000D01*
X81500000Y-159000000D01*
%TO.C,RV6*%
X67500000Y-84500000D02*
X89500000Y-84500000D01*
X89500000Y-108500000D01*
X67500000Y-108500000D01*
X67500000Y-84500000D01*
D13*
X82420000Y-107880000D02*
X82420000Y-105120000D01*
X77230000Y-107880000D02*
X82420000Y-107880000D01*
X77230000Y-107880000D02*
X77230000Y-105120000D01*
X77230000Y-105120000D02*
X82420000Y-105120000D01*
X75960000Y-107880000D02*
X74580000Y-107880000D01*
X74580000Y-107880000D02*
X74580000Y-106500000D01*
%TO.C,RV5*%
D10*
X67500000Y-60000000D02*
X89500000Y-60000000D01*
X89500000Y-84000000D01*
X67500000Y-84000000D01*
X67500000Y-60000000D01*
D13*
X82420000Y-83380000D02*
X82420000Y-80620000D01*
X77230000Y-83380000D02*
X82420000Y-83380000D01*
X77230000Y-83380000D02*
X77230000Y-80620000D01*
X77230000Y-80620000D02*
X82420000Y-80620000D01*
X75960000Y-83380000D02*
X74580000Y-83380000D01*
X74580000Y-83380000D02*
X74580000Y-82000000D01*
%TO.C,RV4*%
D10*
X67540000Y-35500000D02*
X89540000Y-35500000D01*
X89540000Y-59500000D01*
X67540000Y-59500000D01*
X67540000Y-35500000D01*
D13*
X82460000Y-58880000D02*
X82460000Y-56120000D01*
X77270000Y-58880000D02*
X82460000Y-58880000D01*
X77270000Y-58880000D02*
X77270000Y-56120000D01*
X77270000Y-56120000D02*
X82460000Y-56120000D01*
X76000000Y-58880000D02*
X74620000Y-58880000D01*
X74620000Y-58880000D02*
X74620000Y-57500000D01*
%TO.C,RV3*%
D10*
X44950000Y-84500000D02*
X66950000Y-84500000D01*
X66950000Y-108500000D01*
X44950000Y-108500000D01*
X44950000Y-84500000D01*
D13*
X59870000Y-107880000D02*
X59870000Y-105120000D01*
X54680000Y-107880000D02*
X59870000Y-107880000D01*
X54680000Y-107880000D02*
X54680000Y-105120000D01*
X54680000Y-105120000D02*
X59870000Y-105120000D01*
X53410000Y-107880000D02*
X52030000Y-107880000D01*
X52030000Y-107880000D02*
X52030000Y-106500000D01*
%TO.C,RV2*%
D10*
X44950000Y-60000000D02*
X66950000Y-60000000D01*
X66950000Y-84000000D01*
X44950000Y-84000000D01*
X44950000Y-60000000D01*
D13*
X59870000Y-83380000D02*
X59870000Y-80620000D01*
X54680000Y-83380000D02*
X59870000Y-83380000D01*
X54680000Y-83380000D02*
X54680000Y-80620000D01*
X54680000Y-80620000D02*
X59870000Y-80620000D01*
X53410000Y-83380000D02*
X52030000Y-83380000D01*
X52030000Y-83380000D02*
X52030000Y-82000000D01*
%TO.C,RV1*%
D10*
X44960000Y-35500000D02*
X66960000Y-35500000D01*
X66960000Y-59500000D01*
X44960000Y-59500000D01*
X44960000Y-35500000D01*
D13*
X59880000Y-58880000D02*
X59880000Y-56120000D01*
X54690000Y-58880000D02*
X59880000Y-58880000D01*
X54690000Y-58880000D02*
X54690000Y-56120000D01*
X54690000Y-56120000D02*
X59880000Y-56120000D01*
X53420000Y-58880000D02*
X52040000Y-58880000D01*
X52040000Y-58880000D02*
X52040000Y-57500000D01*
%TO.C,R10*%
X77190000Y-166870000D02*
X70650000Y-166870000D01*
X70650000Y-164130000D01*
X77190000Y-164130000D01*
X77190000Y-166870000D01*
X69880000Y-165500000D02*
X70650000Y-165500000D01*
X77960000Y-165500000D02*
X77190000Y-165500000D01*
%TO.C,R9*%
X51110000Y-126630000D02*
X57650000Y-126630000D01*
X57650000Y-129370000D01*
X51110000Y-129370000D01*
X51110000Y-126630000D01*
X58420000Y-128000000D02*
X57650000Y-128000000D01*
X50340000Y-128000000D02*
X51110000Y-128000000D01*
%TO.C,R6*%
X85870000Y-120810000D02*
X83130000Y-120810000D01*
X83130000Y-127350000D01*
X85870000Y-127350000D01*
X85870000Y-120810000D01*
X84500000Y-128120000D02*
X84500000Y-127350000D01*
X84500000Y-120040000D02*
X84500000Y-120810000D01*
%TO.C,R4*%
X77870000Y-120810000D02*
X75130000Y-120810000D01*
X75130000Y-127350000D01*
X77870000Y-127350000D01*
X77870000Y-120810000D01*
X76500000Y-128120000D02*
X76500000Y-127350000D01*
X76500000Y-120040000D02*
X76500000Y-120810000D01*
%TO.C,R3*%
X73870000Y-120810000D02*
X71130000Y-120810000D01*
X71130000Y-127350000D01*
X73870000Y-127350000D01*
X73870000Y-120810000D01*
X72500000Y-128120000D02*
X72500000Y-127350000D01*
X72500000Y-120040000D02*
X72500000Y-120810000D01*
%TO.C,R2*%
X69870000Y-120810000D02*
X67130000Y-120810000D01*
X67130000Y-127350000D01*
X69870000Y-127350000D01*
X69870000Y-120810000D01*
X68500000Y-128120000D02*
X68500000Y-127350000D01*
X68500000Y-120040000D02*
X68500000Y-120810000D01*
%TO.C,R1*%
X65870000Y-120810000D02*
X63130000Y-120810000D01*
X63130000Y-127350000D01*
X65870000Y-127350000D01*
X65870000Y-120810000D01*
X64500000Y-128120000D02*
X64500000Y-127350000D01*
X64500000Y-120040000D02*
X64500000Y-120810000D01*
%TO.C,J19*%
X89250000Y-23670000D02*
X89250000Y-32790000D01*
X73750000Y-23670000D02*
X89250000Y-23670000D01*
X87950000Y-24980000D02*
X87950000Y-31480000D01*
X75050000Y-24980000D02*
X87950000Y-24980000D01*
X87950000Y-31480000D02*
X83550000Y-31480000D01*
X83550000Y-31480000D02*
X83550000Y-32790000D01*
X79450000Y-31480000D02*
X75050000Y-31480000D01*
X75050000Y-31480000D02*
X75050000Y-24980000D01*
X89250000Y-32790000D02*
X73750000Y-32790000D01*
X79450000Y-32790000D02*
X79450000Y-31480000D01*
X73750000Y-32790000D02*
X73750000Y-23670000D01*
X78960000Y-33180000D02*
X78460000Y-34180000D01*
X79460000Y-34180000D02*
X78960000Y-33180000D01*
X78460000Y-34180000D02*
X79460000Y-34180000D01*
%TO.C,J18*%
X60750000Y-23710000D02*
X60750000Y-32830000D01*
X45250000Y-23710000D02*
X60750000Y-23710000D01*
X59450000Y-25020000D02*
X59450000Y-31520000D01*
X46550000Y-25020000D02*
X59450000Y-25020000D01*
X59450000Y-31520000D02*
X55050000Y-31520000D01*
X55050000Y-31520000D02*
X55050000Y-32830000D01*
X50950000Y-31520000D02*
X46550000Y-31520000D01*
X46550000Y-31520000D02*
X46550000Y-25020000D01*
X60750000Y-32830000D02*
X45250000Y-32830000D01*
X50950000Y-32830000D02*
X50950000Y-31520000D01*
X45250000Y-32830000D02*
X45250000Y-23710000D01*
X50460000Y-33220000D02*
X49960000Y-34220000D01*
X50960000Y-34220000D02*
X50460000Y-33220000D01*
X49960000Y-34220000D02*
X50960000Y-34220000D01*
D10*
%TO.C,J11*%
X102500000Y-96000000D02*
G75*
G02*
X90500000Y-96000000I-6000000J0D01*
G01*
X90500000Y-96000000D02*
G75*
G02*
X102500000Y-96000000I6000000J0D01*
G01*
%TO.C,J9*%
X102500000Y-71000000D02*
G75*
G02*
X90500000Y-71000000I-6000000J0D01*
G01*
X90500000Y-71000000D02*
G75*
G02*
X102500000Y-71000000I6000000J0D01*
G01*
%TO.C,J7*%
X102500000Y-46975062D02*
G75*
G02*
X90500000Y-46975062I-6000000J0D01*
G01*
X90500000Y-46975062D02*
G75*
G02*
X102500000Y-46975062I6000000J0D01*
G01*
%TO.C,J5*%
X44000000Y-96000000D02*
G75*
G02*
X32000000Y-96000000I-6000000J0D01*
G01*
X32000000Y-96000000D02*
G75*
G02*
X44000000Y-96000000I6000000J0D01*
G01*
%TO.C,J3*%
X44000000Y-71000000D02*
G75*
G02*
X32000000Y-71000000I-6000000J0D01*
G01*
X32000000Y-71000000D02*
G75*
G02*
X44000000Y-71000000I6000000J0D01*
G01*
%TO.C,J1*%
X44000000Y-47000000D02*
G75*
G02*
X32000000Y-47000000I-6000000J0D01*
G01*
X32000000Y-47000000D02*
G75*
G02*
X44000000Y-47000000I6000000J0D01*
G01*
D13*
%TO.C,C6*%
X83430000Y-115770000D02*
X83430000Y-111230000D01*
X83486000Y-115770000D02*
X83430000Y-115770000D01*
X85514000Y-111230000D02*
X85570000Y-111230000D01*
X85570000Y-111230000D02*
X85570000Y-115770000D01*
%TO.C,C5*%
X79430000Y-115770000D02*
X79430000Y-111230000D01*
X79486000Y-115770000D02*
X79430000Y-115770000D01*
X81514000Y-111230000D02*
X81570000Y-111230000D01*
X81570000Y-111230000D02*
X81570000Y-115770000D01*
%TO.C,C4*%
X75430000Y-115770000D02*
X75430000Y-111230000D01*
X75486000Y-115770000D02*
X75430000Y-115770000D01*
X77514000Y-111230000D02*
X77570000Y-111230000D01*
X77570000Y-111230000D02*
X77570000Y-115770000D01*
%TO.C,C3*%
X71430000Y-115770000D02*
X71430000Y-111230000D01*
X71486000Y-115770000D02*
X71430000Y-115770000D01*
X73514000Y-111230000D02*
X73570000Y-111230000D01*
X73570000Y-111230000D02*
X73570000Y-115770000D01*
%TO.C,C2*%
X67430000Y-115770000D02*
X67430000Y-111230000D01*
X67486000Y-115770000D02*
X67430000Y-115770000D01*
X69514000Y-111230000D02*
X69570000Y-111230000D01*
X69570000Y-111230000D02*
X69570000Y-115770000D01*
%TO.C,C1*%
X63430000Y-115770000D02*
X63430000Y-111230000D01*
X63486000Y-115770000D02*
X63430000Y-115770000D01*
X65514000Y-111230000D02*
X65570000Y-111230000D01*
X65570000Y-111230000D02*
X65570000Y-115770000D01*
%TD*%
M02*
