%TF.GenerationSoftware,KiCad,Pcbnew,9.0.6*%
%TF.CreationDate,2026-01-15T14:03:54+11:00*%
%TF.ProjectId,audio-mixer,61756469-6f2d-46d6-9978-65722e6b6963,rev?*%
%TF.SameCoordinates,Original*%
%TF.FileFunction,Legend,Bot*%
%TF.FilePolarity,Positive*%
%FSLAX46Y46*%
G04 Gerber Fmt 4.6, Leading zero omitted, Abs format (unit mm)*
G04 Created by KiCad (PCBNEW 9.0.6) date 2026-01-15 14:03:54*
%MOMM*%
%LPD*%
G01*
G04 APERTURE LIST*
%ADD10C,0.100000*%
G04 APERTURE END LIST*
D10*
X37914837Y-31013247D02*
X38248170Y-31013247D01*
X38248170Y-31537057D02*
X38248170Y-30537057D01*
X38248170Y-30537057D02*
X37771980Y-30537057D01*
X37438646Y-30632295D02*
X37391027Y-30584676D01*
X37391027Y-30584676D02*
X37295789Y-30537057D01*
X37295789Y-30537057D02*
X37057694Y-30537057D01*
X37057694Y-30537057D02*
X36962456Y-30584676D01*
X36962456Y-30584676D02*
X36914837Y-30632295D01*
X36914837Y-30632295D02*
X36867218Y-30727533D01*
X36867218Y-30727533D02*
X36867218Y-30822771D01*
X36867218Y-30822771D02*
X36914837Y-30965628D01*
X36914837Y-30965628D02*
X37486265Y-31537057D01*
X37486265Y-31537057D02*
X36867218Y-31537057D01*
X96544981Y-31013247D02*
X96878314Y-31013247D01*
X96878314Y-31537057D02*
X96878314Y-30537057D01*
X96878314Y-30537057D02*
X96402124Y-30537057D01*
X95497362Y-31537057D02*
X96068790Y-31537057D01*
X95783076Y-31537057D02*
X95783076Y-30537057D01*
X95783076Y-30537057D02*
X95878314Y-30679914D01*
X95878314Y-30679914D02*
X95973552Y-30775152D01*
X95973552Y-30775152D02*
X96068790Y-30822771D01*
X96468333Y-171318609D02*
X96801666Y-171318609D01*
X96801666Y-171842419D02*
X96801666Y-170842419D01*
X96801666Y-170842419D02*
X96325476Y-170842419D01*
X96039761Y-170842419D02*
X95420714Y-170842419D01*
X95420714Y-170842419D02*
X95754047Y-171223371D01*
X95754047Y-171223371D02*
X95611190Y-171223371D01*
X95611190Y-171223371D02*
X95515952Y-171270990D01*
X95515952Y-171270990D02*
X95468333Y-171318609D01*
X95468333Y-171318609D02*
X95420714Y-171413847D01*
X95420714Y-171413847D02*
X95420714Y-171651942D01*
X95420714Y-171651942D02*
X95468333Y-171747180D01*
X95468333Y-171747180D02*
X95515952Y-171794800D01*
X95515952Y-171794800D02*
X95611190Y-171842419D01*
X95611190Y-171842419D02*
X95896904Y-171842419D01*
X95896904Y-171842419D02*
X95992142Y-171794800D01*
X95992142Y-171794800D02*
X96039761Y-171747180D01*
X37968333Y-170568609D02*
X38301666Y-170568609D01*
X38301666Y-171092419D02*
X38301666Y-170092419D01*
X38301666Y-170092419D02*
X37825476Y-170092419D01*
X37015952Y-170425752D02*
X37015952Y-171092419D01*
X37254047Y-170044800D02*
X37492142Y-170759085D01*
X37492142Y-170759085D02*
X36873095Y-170759085D01*
%TO.C,F2*%
X44081504Y-25079638D02*
X31081504Y-25079638D01*
X31081504Y-38579638D01*
X44081504Y-38579638D01*
X44081504Y-25079638D01*
%TO.C,F1*%
X102711648Y-25079638D02*
X89711648Y-25079638D01*
X89711648Y-38579638D01*
X102711648Y-38579638D01*
X102711648Y-25079638D01*
%TO.C,F3*%
X102635000Y-164635000D02*
X89635000Y-164635000D01*
X89635000Y-178135000D01*
X102635000Y-178135000D01*
X102635000Y-164635000D01*
%TO.C,F4*%
X44135000Y-164635000D02*
X31135000Y-164635000D01*
X31135000Y-178135000D01*
X44135000Y-178135000D01*
X44135000Y-164635000D01*
%TD*%
M02*
