%TF.GenerationSoftware,KiCad,Pcbnew,9.0.5*%
%TF.CreationDate,2025-12-27T19:44:07+11:00*%
%TF.ProjectId,audio-mixer,61756469-6f2d-46d6-9978-65722e6b6963,rev?*%
%TF.SameCoordinates,Original*%
%TF.FileFunction,Copper,L1,Top*%
%TF.FilePolarity,Positive*%
%FSLAX46Y46*%
G04 Gerber Fmt 4.6, Leading zero omitted, Abs format (unit mm)*
G04 Created by KiCad (PCBNEW 9.0.5) date 2025-12-27 19:44:07*
%MOMM*%
%LPD*%
G01*
G04 APERTURE LIST*
G04 Aperture macros list*
%AMRoundRect*
0 Rectangle with rounded corners*
0 $1 Rounding radius*
0 $2 $3 $4 $5 $6 $7 $8 $9 X,Y pos of 4 corners*
0 Add a 4 corners polygon primitive as box body*
4,1,4,$2,$3,$4,$5,$6,$7,$8,$9,$2,$3,0*
0 Add four circle primitives for the rounded corners*
1,1,$1+$1,$2,$3*
1,1,$1+$1,$4,$5*
1,1,$1+$1,$6,$7*
1,1,$1+$1,$8,$9*
0 Add four rect primitives between the rounded corners*
20,1,$1+$1,$2,$3,$4,$5,0*
20,1,$1+$1,$4,$5,$6,$7,0*
20,1,$1+$1,$6,$7,$8,$9,0*
20,1,$1+$1,$8,$9,$2,$3,0*%
G04 Aperture macros list end*
%TA.AperFunction,ComponentPad*%
%ADD10R,1.700000X1.700000*%
%TD*%
%TA.AperFunction,ComponentPad*%
%ADD11C,1.700000*%
%TD*%
%TA.AperFunction,ComponentPad*%
%ADD12C,8.000000*%
%TD*%
%TA.AperFunction,ComponentPad*%
%ADD13C,1.600000*%
%TD*%
%TA.AperFunction,ComponentPad*%
%ADD14RoundRect,0.250000X0.550000X-0.550000X0.550000X0.550000X-0.550000X0.550000X-0.550000X-0.550000X0*%
%TD*%
%TA.AperFunction,ComponentPad*%
%ADD15O,3.750000X2.000000*%
%TD*%
%TA.AperFunction,ComponentPad*%
%ADD16RoundRect,0.250000X0.600000X-0.600000X0.600000X0.600000X-0.600000X0.600000X-0.600000X-0.600000X0*%
%TD*%
%TA.AperFunction,Conductor*%
%ADD17C,0.200000*%
%TD*%
G04 APERTURE END LIST*
D10*
%TO.P,J15,1,Pin_1*%
%TO.N,unconnected-(J15-Pin_1-Pad1)*%
X73500000Y-134524938D03*
D11*
%TO.P,J15,2,Pin_2*%
%TO.N,Net-(J15-Pin_2)*%
X78580000Y-134524938D03*
%TO.P,J15,3,Pin_3*%
%TO.N,Net-(J15-Pin_3)*%
X83580000Y-134524938D03*
%TD*%
D12*
%TO.P,J16,1,Pin_1*%
%TO.N,Net-(J16-Pin_1)*%
X96500000Y-146024938D03*
%TD*%
D13*
%TO.P,R7,1*%
%TO.N,Net-(J13-Pin_2)*%
X43080000Y-135024938D03*
%TO.P,R7,2*%
%TO.N,Net-(J14-Pin_1)*%
X32920000Y-135024938D03*
%TD*%
%TO.P,R8,1*%
%TO.N,Net-(J15-Pin_2)*%
X91580000Y-135024938D03*
%TO.P,R8,2*%
%TO.N,Net-(J16-Pin_1)*%
X101740000Y-135024938D03*
%TD*%
D10*
%TO.P,J13,1,Pin_1*%
%TO.N,unconnected-(J13-Pin_1-Pad1)*%
X51000000Y-134524938D03*
D11*
%TO.P,J13,2,Pin_2*%
%TO.N,Net-(J13-Pin_2)*%
X56080000Y-134524938D03*
%TO.P,J13,3,Pin_3*%
%TO.N,Net-(J13-Pin_3)*%
X61080000Y-134524938D03*
%TD*%
D10*
%TO.P,RV7,1,1*%
%TO.N,unconnected-(RV7-Pad1)*%
X53410000Y-155524938D03*
D11*
%TO.P,RV7,2,2*%
%TO.N,Net-(J13-Pin_2)*%
X55950000Y-155524938D03*
%TO.P,RV7,3,3*%
%TO.N,Net-(J13-Pin_3)*%
X58490000Y-155524938D03*
%TD*%
D10*
%TO.P,RV8,1,1*%
%TO.N,unconnected-(RV8-Pad1)*%
X75960000Y-155524938D03*
D11*
%TO.P,RV8,2,2*%
%TO.N,Net-(J15-Pin_2)*%
X78500000Y-155524938D03*
%TO.P,RV8,3,3*%
%TO.N,Net-(J15-Pin_3)*%
X81040000Y-155524938D03*
%TD*%
D12*
%TO.P,J14,1,Pin_1*%
%TO.N,Net-(J14-Pin_1)*%
X38000000Y-146024938D03*
%TD*%
D13*
%TO.P,R5,1*%
%TO.N,Net-(C5-Pad2)*%
X80500000Y-119000000D03*
%TO.P,R5,2*%
%TO.N,Net-(J15-Pin_3)*%
X80500000Y-129160000D03*
%TD*%
D11*
%TO.P,J17,R1*%
%TO.N,Net-(J17-PadR1)*%
X63000000Y-164540000D03*
%TO.P,J17,R2*%
%TO.N,unconnected-(J17-PadR2)*%
X63000000Y-167080000D03*
%TO.P,J17,S*%
%TO.N,GND*%
X63000000Y-169620000D03*
D10*
%TO.P,J17,T*%
%TO.N,Net-(J17-PadT)*%
X63000000Y-162000000D03*
%TD*%
D13*
%TO.P,U1,8,V+*%
%TO.N,12V*%
X50380000Y-113880000D03*
%TO.P,U1,7*%
%TO.N,Net-(J15-Pin_2)*%
X52920000Y-113880000D03*
%TO.P,U1,6,-*%
%TO.N,Net-(J15-Pin_3)*%
X55460000Y-113880000D03*
%TO.P,U1,5,+*%
%TO.N,GND*%
X58000000Y-113880000D03*
%TO.P,U1,4,V-*%
%TO.N,-12V*%
X58000000Y-121500000D03*
%TO.P,U1,3,+*%
%TO.N,GND*%
X55460000Y-121500000D03*
%TO.P,U1,2,-*%
%TO.N,Net-(J13-Pin_3)*%
X52920000Y-121500000D03*
D14*
%TO.P,U1,1*%
%TO.N,Net-(J13-Pin_2)*%
X50380000Y-121500000D03*
%TD*%
D15*
%TO.P,SW1,3,A*%
%TO.N,Net-(J15-Pin_2)*%
X85500000Y-161000000D03*
%TO.P,SW1,2,B*%
%TO.N,Net-(SW1-B)*%
X85500000Y-165500000D03*
%TO.P,SW1,1,C*%
%TO.N,Net-(J13-Pin_2)*%
X85500000Y-170000000D03*
%TD*%
D11*
%TO.P,RV6,3,3*%
%TO.N,GND*%
X81040000Y-106500000D03*
%TO.P,RV6,2,2*%
%TO.N,Net-(J12-Pin_2)*%
X78500000Y-106500000D03*
D10*
%TO.P,RV6,1,1*%
%TO.N,Net-(J11-Pin_1)*%
X75960000Y-106500000D03*
%TD*%
D11*
%TO.P,RV5,3,3*%
%TO.N,GND*%
X81040000Y-82000000D03*
%TO.P,RV5,2,2*%
%TO.N,Net-(J10-Pin_2)*%
X78500000Y-82000000D03*
D10*
%TO.P,RV5,1,1*%
%TO.N,Net-(J10-Pin_1)*%
X75960000Y-82000000D03*
%TD*%
D11*
%TO.P,RV4,3,3*%
%TO.N,GND*%
X81080000Y-57500000D03*
%TO.P,RV4,2,2*%
%TO.N,Net-(J8-Pin_2)*%
X78540000Y-57500000D03*
D10*
%TO.P,RV4,1,1*%
%TO.N,Net-(J7-Pin_1)*%
X76000000Y-57500000D03*
%TD*%
D11*
%TO.P,RV3,3,3*%
%TO.N,GND*%
X58490000Y-106500000D03*
%TO.P,RV3,2,2*%
%TO.N,Net-(J6-Pin_2)*%
X55950000Y-106500000D03*
D10*
%TO.P,RV3,1,1*%
%TO.N,Net-(J5-Pin_1)*%
X53410000Y-106500000D03*
%TD*%
D11*
%TO.P,RV2,3,3*%
%TO.N,GND*%
X58490000Y-82000000D03*
%TO.P,RV2,2,2*%
%TO.N,Net-(J4-Pin_2)*%
X55950000Y-82000000D03*
D10*
%TO.P,RV2,1,1*%
%TO.N,Net-(J3-Pin_1)*%
X53410000Y-82000000D03*
%TD*%
D11*
%TO.P,RV1,3,3*%
%TO.N,GND*%
X58500000Y-57500000D03*
%TO.P,RV1,2,2*%
%TO.N,Net-(J2-Pin_2)*%
X55960000Y-57500000D03*
D10*
%TO.P,RV1,1,1*%
%TO.N,Net-(J1-Pin_1)*%
X53420000Y-57500000D03*
%TD*%
D13*
%TO.P,R10,2*%
%TO.N,Net-(J17-PadR1)*%
X68840000Y-165500000D03*
%TO.P,R10,1*%
%TO.N,Net-(SW1-B)*%
X79000000Y-165500000D03*
%TD*%
%TO.P,R9,2*%
%TO.N,Net-(J17-PadT)*%
X59460000Y-128000000D03*
%TO.P,R9,1*%
%TO.N,Net-(J13-Pin_2)*%
X49300000Y-128000000D03*
%TD*%
%TO.P,R6,2*%
%TO.N,Net-(J15-Pin_3)*%
X84500000Y-129160000D03*
%TO.P,R6,1*%
%TO.N,Net-(C6-Pad2)*%
X84500000Y-119000000D03*
%TD*%
%TO.P,R4,2*%
%TO.N,Net-(J15-Pin_3)*%
X76500000Y-129160000D03*
%TO.P,R4,1*%
%TO.N,Net-(C4-Pad2)*%
X76500000Y-119000000D03*
%TD*%
%TO.P,R3,2*%
%TO.N,Net-(J13-Pin_3)*%
X72500000Y-129160000D03*
%TO.P,R3,1*%
%TO.N,Net-(C3-Pad2)*%
X72500000Y-119000000D03*
%TD*%
%TO.P,R2,2*%
%TO.N,Net-(J13-Pin_3)*%
X68500000Y-129160000D03*
%TO.P,R2,1*%
%TO.N,Net-(C2-Pad2)*%
X68500000Y-119000000D03*
%TD*%
%TO.P,R1,2*%
%TO.N,Net-(J13-Pin_3)*%
X64500000Y-129160000D03*
%TO.P,R1,1*%
%TO.N,Net-(C1-Pad2)*%
X64500000Y-119000000D03*
%TD*%
D11*
%TO.P,J19,6,Pin_6*%
%TO.N,unconnected-(J19-Pin_6-Pad6)*%
X84040000Y-26960000D03*
%TO.P,J19,5,Pin_5*%
%TO.N,5V*%
X84040000Y-29500000D03*
%TO.P,J19,4,Pin_4*%
%TO.N,GND*%
X81500000Y-26960000D03*
%TO.P,J19,3,Pin_3*%
X81500000Y-29500000D03*
%TO.P,J19,2,Pin_2*%
%TO.N,-12V*%
X78960000Y-26960000D03*
D16*
%TO.P,J19,1,Pin_1*%
%TO.N,12V*%
X78960000Y-29500000D03*
%TD*%
D11*
%TO.P,J18,6,Pin_6*%
%TO.N,unconnected-(J18-Pin_6-Pad6)*%
X55540000Y-27000000D03*
%TO.P,J18,5,Pin_5*%
%TO.N,5V*%
X55540000Y-29540000D03*
%TO.P,J18,4,Pin_4*%
%TO.N,GND*%
X53000000Y-27000000D03*
%TO.P,J18,3,Pin_3*%
X53000000Y-29540000D03*
%TO.P,J18,2,Pin_2*%
%TO.N,-12V*%
X50460000Y-27000000D03*
D16*
%TO.P,J18,1,Pin_1*%
%TO.N,12V*%
X50460000Y-29540000D03*
%TD*%
D11*
%TO.P,J12,3,Pin_3*%
%TO.N,GND*%
X83580000Y-85500000D03*
%TO.P,J12,2,Pin_2*%
%TO.N,Net-(J12-Pin_2)*%
X78580000Y-85500000D03*
D10*
%TO.P,J12,1,Pin_1*%
%TO.N,Net-(J11-Pin_1)*%
X73500000Y-85500000D03*
%TD*%
D12*
%TO.P,J11,1,Pin_1*%
%TO.N,Net-(J11-Pin_1)*%
X96500000Y-96024938D03*
%TD*%
D11*
%TO.P,J10,3,Pin_3*%
%TO.N,GND*%
X83580000Y-61000000D03*
%TO.P,J10,2,Pin_2*%
%TO.N,Net-(J10-Pin_2)*%
X78580000Y-61000000D03*
D10*
%TO.P,J10,1,Pin_1*%
%TO.N,Net-(J10-Pin_1)*%
X73500000Y-61000000D03*
%TD*%
D12*
%TO.P,J9,1,Pin_1*%
%TO.N,Net-(J10-Pin_1)*%
X96500000Y-71024938D03*
%TD*%
D11*
%TO.P,J8,3,Pin_3*%
%TO.N,GND*%
X83580000Y-36500000D03*
%TO.P,J8,2,Pin_2*%
%TO.N,Net-(J8-Pin_2)*%
X78580000Y-36500000D03*
D10*
%TO.P,J8,1,Pin_1*%
%TO.N,Net-(J7-Pin_1)*%
X73500000Y-36500000D03*
%TD*%
D12*
%TO.P,J7,1,Pin_1*%
%TO.N,Net-(J7-Pin_1)*%
X96500000Y-47000000D03*
%TD*%
D11*
%TO.P,J6,3,Pin_3*%
%TO.N,GND*%
X61080000Y-85500000D03*
%TO.P,J6,2,Pin_2*%
%TO.N,Net-(J6-Pin_2)*%
X56080000Y-85500000D03*
D10*
%TO.P,J6,1,Pin_1*%
%TO.N,Net-(J5-Pin_1)*%
X51000000Y-85500000D03*
%TD*%
D12*
%TO.P,J5,1,Pin_1*%
%TO.N,Net-(J5-Pin_1)*%
X38000000Y-96024938D03*
%TD*%
D11*
%TO.P,J4,3,Pin_3*%
%TO.N,GND*%
X61080000Y-61000000D03*
%TO.P,J4,2,Pin_2*%
%TO.N,Net-(J4-Pin_2)*%
X56080000Y-61000000D03*
D10*
%TO.P,J4,1,Pin_1*%
%TO.N,Net-(J3-Pin_1)*%
X51000000Y-61000000D03*
%TD*%
D12*
%TO.P,J3,1,Pin_1*%
%TO.N,Net-(J3-Pin_1)*%
X38000000Y-71024938D03*
%TD*%
D11*
%TO.P,J2,3,Pin_3*%
%TO.N,GND*%
X61080000Y-36500000D03*
%TO.P,J2,2,Pin_2*%
%TO.N,Net-(J2-Pin_2)*%
X56080000Y-36500000D03*
D10*
%TO.P,J2,1,Pin_1*%
%TO.N,Net-(J1-Pin_1)*%
X51000000Y-36500000D03*
%TD*%
D12*
%TO.P,J1,1,Pin_1*%
%TO.N,Net-(J1-Pin_1)*%
X38000000Y-47024938D03*
%TD*%
D13*
%TO.P,C6,2*%
%TO.N,Net-(C6-Pad2)*%
X84500000Y-116000000D03*
%TO.P,C6,1*%
%TO.N,Net-(J12-Pin_2)*%
X84500000Y-111000000D03*
%TD*%
%TO.P,C5,2*%
%TO.N,Net-(C5-Pad2)*%
X80500000Y-116000000D03*
%TO.P,C5,1*%
%TO.N,Net-(J10-Pin_2)*%
X80500000Y-111000000D03*
%TD*%
%TO.P,C4,2*%
%TO.N,Net-(C4-Pad2)*%
X76500000Y-116000000D03*
%TO.P,C4,1*%
%TO.N,Net-(J8-Pin_2)*%
X76500000Y-111000000D03*
%TD*%
%TO.P,C3,2*%
%TO.N,Net-(C3-Pad2)*%
X72500000Y-116000000D03*
%TO.P,C3,1*%
%TO.N,Net-(J6-Pin_2)*%
X72500000Y-111000000D03*
%TD*%
%TO.P,C2,2*%
%TO.N,Net-(C2-Pad2)*%
X68500000Y-116000000D03*
%TO.P,C2,1*%
%TO.N,Net-(J4-Pin_2)*%
X68500000Y-111000000D03*
%TD*%
%TO.P,C1,2*%
%TO.N,Net-(C1-Pad2)*%
X64500000Y-116000000D03*
%TO.P,C1,1*%
%TO.N,Net-(J2-Pin_2)*%
X64500000Y-111000000D03*
%TD*%
D17*
%TO.N,Net-(J17-PadR1)*%
X63000000Y-164540000D02*
X63960000Y-165500000D01*
X63960000Y-165500000D02*
X68840000Y-165500000D01*
%TO.N,Net-(SW1-B)*%
X85500000Y-165500000D02*
X79000000Y-165500000D01*
%TO.N,Net-(J15-Pin_2)*%
X78500000Y-155524938D02*
X83975062Y-161000000D01*
X83975062Y-161000000D02*
X85500000Y-161000000D01*
%TO.N,Net-(J17-PadT)*%
X59460000Y-128000000D02*
X63000000Y-131540000D01*
X63000000Y-131540000D02*
X63000000Y-162000000D01*
%TO.N,GND*%
X55460000Y-121500000D02*
X57339000Y-123379000D01*
X57339000Y-123379000D02*
X57339000Y-163959000D01*
X57339000Y-163959000D02*
X63000000Y-169620000D01*
%TO.N,Net-(J15-Pin_3)*%
X84500000Y-129160000D02*
X84500000Y-133604938D01*
X84500000Y-133604938D02*
X83580000Y-134524938D01*
%TO.N,Net-(J13-Pin_2)*%
X49300000Y-128000000D02*
X49555062Y-128000000D01*
X49555062Y-128000000D02*
X56080000Y-134524938D01*
X49300000Y-128000000D02*
X49300000Y-128804938D01*
X49300000Y-128804938D02*
X43080000Y-135024938D01*
%TO.N,Net-(J16-Pin_1)*%
X101740000Y-140784938D02*
X96500000Y-146024938D01*
X101740000Y-135024938D02*
X101740000Y-140784938D01*
%TO.N,Net-(J14-Pin_1)*%
X32920000Y-135024938D02*
X32920000Y-140944938D01*
%TO.N,Net-(J15-Pin_3)*%
X83580000Y-134524938D02*
X83580000Y-152984938D01*
%TO.N,Net-(J15-Pin_2)*%
X78500000Y-135104938D02*
X78500000Y-155524938D01*
%TO.N,Net-(J13-Pin_2)*%
X56080000Y-155394938D02*
X55950000Y-155524938D01*
%TO.N,Net-(J13-Pin_3)*%
X58490000Y-137114938D02*
X58490000Y-155524938D01*
%TO.N,Net-(J15-Pin_2)*%
X78580000Y-134524938D02*
X78580000Y-135024938D01*
X78580000Y-135024938D02*
X78500000Y-135104938D01*
%TO.N,Net-(J13-Pin_2)*%
X56080000Y-134524938D02*
X56080000Y-155394938D01*
%TO.N,Net-(J15-Pin_3)*%
X83580000Y-152984938D02*
X81040000Y-155524938D01*
%TO.N,Net-(J14-Pin_1)*%
X32920000Y-140944938D02*
X38000000Y-146024938D01*
%TO.N,Net-(J13-Pin_3)*%
X61080000Y-134524938D02*
X58490000Y-137114938D01*
%TO.N,Net-(J13-Pin_2)*%
X50380000Y-121500000D02*
X50380000Y-126920000D01*
X50380000Y-126920000D02*
X49300000Y-128000000D01*
%TO.N,Net-(J15-Pin_3)*%
X80500000Y-129160000D02*
X84099000Y-129160000D01*
X76500000Y-129160000D02*
X80500000Y-129160000D01*
%TO.N,GND*%
X58490000Y-106500000D02*
X58490000Y-106990000D01*
X58490000Y-106990000D02*
X58000000Y-107480000D01*
X58000000Y-107480000D02*
X58000000Y-113880000D01*
X58000000Y-113880000D02*
X58000000Y-118960000D01*
X58000000Y-118960000D02*
X55460000Y-121500000D01*
X53000000Y-27000000D02*
X54191000Y-25809000D01*
X54191000Y-25809000D02*
X80349000Y-25809000D01*
X80349000Y-25809000D02*
X81500000Y-26960000D01*
X81500000Y-29500000D02*
X83580000Y-31580000D01*
X83580000Y-31580000D02*
X83580000Y-36500000D01*
X53000000Y-29540000D02*
X59960000Y-36500000D01*
X59960000Y-36500000D02*
X61080000Y-36500000D01*
X81500000Y-26960000D02*
X81500000Y-29500000D01*
X53000000Y-27000000D02*
X53000000Y-29540000D01*
%TO.N,Net-(J5-Pin_1)*%
X51000000Y-85500000D02*
X51000000Y-104000000D01*
X38000000Y-96024938D02*
X45975062Y-104000000D01*
X45975062Y-104000000D02*
X51000000Y-104000000D01*
%TO.N,Net-(J3-Pin_1)*%
X38000000Y-71024938D02*
X46565062Y-79590000D01*
X46565062Y-79590000D02*
X51000000Y-79590000D01*
%TO.N,Net-(J1-Pin_1)*%
X51000000Y-36500000D02*
X51000000Y-55000000D01*
X38000000Y-47024938D02*
X45975062Y-55000000D01*
X45975062Y-55000000D02*
X51000000Y-55000000D01*
%TO.N,GND*%
X81080000Y-57500000D02*
X83580000Y-60000000D01*
X83580000Y-60000000D02*
X83580000Y-61000000D01*
X81040000Y-82000000D02*
X81040000Y-82960000D01*
X81040000Y-82960000D02*
X83580000Y-85500000D01*
X58490000Y-82000000D02*
X61080000Y-84590000D01*
X61080000Y-84590000D02*
X61080000Y-85500000D01*
X83580000Y-85500000D02*
X81040000Y-88040000D01*
X81040000Y-88040000D02*
X81040000Y-106500000D01*
%TO.N,Net-(J12-Pin_2)*%
X78580000Y-85500000D02*
X78580000Y-106420000D01*
X78580000Y-106420000D02*
X78500000Y-106500000D01*
%TO.N,Net-(J11-Pin_1)*%
X73500000Y-85500000D02*
X73500000Y-104040000D01*
X73500000Y-104040000D02*
X75960000Y-106500000D01*
%TO.N,GND*%
X61080000Y-85500000D02*
X58490000Y-88090000D01*
X58490000Y-88090000D02*
X58490000Y-106500000D01*
%TO.N,Net-(J6-Pin_2)*%
X56080000Y-85500000D02*
X56080000Y-106370000D01*
X56080000Y-106370000D02*
X55950000Y-106500000D01*
%TO.N,Net-(J5-Pin_1)*%
X51000000Y-104000000D02*
X51000000Y-104090000D01*
X51000000Y-104090000D02*
X53410000Y-106500000D01*
%TO.N,GND*%
X83580000Y-61000000D02*
X81040000Y-63540000D01*
X81040000Y-63540000D02*
X81040000Y-82000000D01*
%TO.N,Net-(J10-Pin_2)*%
X78580000Y-61000000D02*
X78580000Y-81920000D01*
X78580000Y-81920000D02*
X78500000Y-82000000D01*
%TO.N,Net-(J10-Pin_1)*%
X73500000Y-61000000D02*
X73500000Y-79540000D01*
X73500000Y-79540000D02*
X75960000Y-82000000D01*
%TO.N,GND*%
X58500000Y-57500000D02*
X61080000Y-60080000D01*
X61080000Y-60080000D02*
X61080000Y-61000000D01*
X61080000Y-61000000D02*
X58490000Y-63590000D01*
X58490000Y-63590000D02*
X58490000Y-82000000D01*
%TO.N,Net-(J4-Pin_2)*%
X56080000Y-61000000D02*
X56080000Y-81870000D01*
X56080000Y-81870000D02*
X55950000Y-82000000D01*
%TO.N,Net-(J3-Pin_1)*%
X51000000Y-61000000D02*
X51000000Y-79590000D01*
X51000000Y-79590000D02*
X53410000Y-82000000D01*
%TO.N,GND*%
X83580000Y-36500000D02*
X81080000Y-39000000D01*
X81080000Y-39000000D02*
X81080000Y-57500000D01*
%TO.N,Net-(J8-Pin_2)*%
X78580000Y-36500000D02*
X78580000Y-57460000D01*
X78580000Y-57460000D02*
X78540000Y-57500000D01*
%TO.N,Net-(J7-Pin_1)*%
X73500000Y-36500000D02*
X73500000Y-55000000D01*
X73500000Y-55000000D02*
X76000000Y-57500000D01*
%TO.N,GND*%
X61080000Y-36500000D02*
X58500000Y-39080000D01*
X58500000Y-39080000D02*
X58500000Y-57500000D01*
%TO.N,Net-(J2-Pin_2)*%
X56080000Y-36500000D02*
X56080000Y-57380000D01*
X56080000Y-57380000D02*
X55960000Y-57500000D01*
%TO.N,Net-(J1-Pin_1)*%
X51000000Y-55000000D02*
X51000000Y-55080000D01*
X51000000Y-55080000D02*
X53420000Y-57500000D01*
%TO.N,Net-(C6-Pad2)*%
X84500000Y-116000000D02*
X84500000Y-119000000D01*
%TO.N,Net-(C5-Pad2)*%
X80500000Y-116000000D02*
X80500000Y-119000000D01*
%TO.N,Net-(C4-Pad2)*%
X76500000Y-116000000D02*
X76500000Y-119000000D01*
%TO.N,Net-(C3-Pad2)*%
X72500000Y-116000000D02*
X72500000Y-119000000D01*
%TO.N,Net-(C2-Pad2)*%
X68500000Y-116000000D02*
X68500000Y-119000000D01*
%TO.N,Net-(C1-Pad2)*%
X64500000Y-116000000D02*
X64500000Y-119000000D01*
%TO.N,Net-(J13-Pin_3)*%
X64500000Y-129160000D02*
X72500000Y-129160000D01*
%TD*%
M02*
