M48
; DRILL file {KiCad 9.0.6} date 2026-01-15T14:16:47+1100
; FORMAT={-:-/ absolute / metric / decimal}
; #@! TF.CreationDate,2026-01-15T14:16:47+11:00
; #@! TF.GenerationSoftware,Kicad,Pcbnew,9.0.6
; #@! TF.FileFunction,Plated,1,2,PTH
FMAT,2
METRIC
; #@! TA.AperFunction,Plated,PTH,ComponentDrill
T1C0.800
; #@! TA.AperFunction,Plated,PTH,ComponentDrill
T2C1.000
; #@! TA.AperFunction,Plated,PTH,ComponentDrill
T3C1.200
; #@! TA.AperFunction,Plated,PTH,ComponentDrill
T4C6.000
%
G90
G05
T1
X32.555Y-138.185
X34.373Y-129.842
X34.373Y-133.342
X34.453Y-126.342
X39.373Y-129.842
X39.373Y-133.342
X39.453Y-126.342
X42.715Y-138.185
X44.373Y-129.842
X44.373Y-133.342
X44.453Y-126.342
X54.533Y-129.842
X54.533Y-133.342
X54.613Y-126.342
X59.636Y-126.503
X59.636Y-131.503
X61.975Y-168.135
X61.975Y-171.635
X63.063Y-126.532
X63.063Y-134.152
X65.603Y-126.532
X65.603Y-134.152
X68.143Y-126.532
X68.143Y-134.152
X70.683Y-126.532
X70.683Y-134.152
X72.135Y-168.135
X72.135Y-171.635
X74.06Y-129.168
X74.06Y-134.168
X78.953Y-126.842
X78.953Y-130.342
X78.953Y-133.842
X89.113Y-126.842
X89.113Y-130.342
X89.113Y-133.842
X91.215Y-138.185
X94.113Y-126.842
X94.113Y-130.342
X94.113Y-133.842
X99.113Y-126.842
X99.113Y-130.342
X99.113Y-133.842
X101.375Y-138.185
T2
X45.42Y-29.0
X45.42Y-31.54
X47.96Y-29.0
X47.96Y-31.54
X50.5Y-29.0
X50.5Y-31.54
X53.045Y-158.685
X53.141Y-61.512
X53.141Y-118.525
X53.181Y-90.013
X55.585Y-158.685
X55.681Y-61.512
X55.681Y-118.525
X55.721Y-90.013
X56.135Y-168.135
X56.135Y-170.675
X56.135Y-173.215
X56.135Y-175.755
X58.125Y-158.685
X58.221Y-61.512
X58.221Y-118.525
X58.261Y-90.013
X64.42Y-29.015
X64.42Y-31.555
X66.96Y-29.015
X66.96Y-31.555
X69.5Y-29.015
X69.5Y-31.555
X75.595Y-158.685
X75.641Y-61.525
X75.641Y-90.013
X75.641Y-118.512
X78.135Y-158.685
X78.181Y-61.525
X78.181Y-90.013
X78.181Y-118.512
X80.675Y-158.685
X80.721Y-61.525
X80.721Y-90.013
X80.721Y-118.512
X83.5Y-29.0
X83.5Y-31.54
X86.04Y-29.0
X86.04Y-31.54
X88.58Y-29.0
X88.58Y-31.54
T3
X50.42Y-103.0
X50.5Y-46.0
X50.5Y-74.5
X50.635Y-142.66
X55.5Y-103.0
X55.58Y-46.0
X55.58Y-74.5
X55.715Y-142.66
X60.5Y-103.0
X60.58Y-46.0
X60.58Y-74.5
X60.715Y-142.66
X72.92Y-46.0
X72.92Y-74.5
X73.0Y-103.0
X73.135Y-142.66
X78.0Y-46.0
X78.0Y-74.5
X78.08Y-103.0
X78.215Y-142.66
X83.0Y-46.0
X83.0Y-74.5
X83.08Y-103.0
X83.215Y-142.66
T4
X37.5Y-51.969
X37.5Y-80.469
X37.5Y-108.469
X37.635Y-149.185
X96.135Y-149.185
X96.5Y-51.969
X96.5Y-80.469
X96.5Y-108.469
T2
G00X77.26Y-167.16
M15
G01X79.01Y-167.16
M16
G05
G00X77.26Y-171.66
M15
G01X79.01Y-171.66
M16
G05
G00X77.26Y-176.16
M15
G01X79.01Y-176.16
M16
G05
M30
