%TF.GenerationSoftware,KiCad,Pcbnew,9.0.5*%
%TF.CreationDate,2025-12-27T19:44:07+11:00*%
%TF.ProjectId,audio-mixer,61756469-6f2d-46d6-9978-65722e6b6963,rev?*%
%TF.SameCoordinates,Original*%
%TF.FileFunction,Soldermask,Bot*%
%TF.FilePolarity,Negative*%
%FSLAX46Y46*%
G04 Gerber Fmt 4.6, Leading zero omitted, Abs format (unit mm)*
G04 Created by KiCad (PCBNEW 9.0.5) date 2025-12-27 19:44:07*
%MOMM*%
%LPD*%
G01*
G04 APERTURE LIST*
G04 Aperture macros list*
%AMRoundRect*
0 Rectangle with rounded corners*
0 $1 Rounding radius*
0 $2 $3 $4 $5 $6 $7 $8 $9 X,Y pos of 4 corners*
0 Add a 4 corners polygon primitive as box body*
4,1,4,$2,$3,$4,$5,$6,$7,$8,$9,$2,$3,0*
0 Add four circle primitives for the rounded corners*
1,1,$1+$1,$2,$3*
1,1,$1+$1,$4,$5*
1,1,$1+$1,$6,$7*
1,1,$1+$1,$8,$9*
0 Add four rect primitives between the rounded corners*
20,1,$1+$1,$2,$3,$4,$5,0*
20,1,$1+$1,$4,$5,$6,$7,0*
20,1,$1+$1,$6,$7,$8,$9,0*
20,1,$1+$1,$8,$9,$2,$3,0*%
G04 Aperture macros list end*
%ADD10R,1.700000X1.700000*%
%ADD11C,1.700000*%
%ADD12C,8.000000*%
%ADD13C,1.600000*%
%ADD14C,2.200000*%
%ADD15RoundRect,0.250000X0.550000X-0.550000X0.550000X0.550000X-0.550000X0.550000X-0.550000X-0.550000X0*%
%ADD16O,3.750000X2.000000*%
%ADD17RoundRect,0.250000X0.600000X-0.600000X0.600000X0.600000X-0.600000X0.600000X-0.600000X-0.600000X0*%
G04 APERTURE END LIST*
D10*
%TO.C,J15*%
X73500000Y-134524938D03*
D11*
X78580000Y-134524938D03*
X83580000Y-134524938D03*
%TD*%
D12*
%TO.C,J16*%
X96500000Y-146024938D03*
%TD*%
D13*
%TO.C,R7*%
X43080000Y-135024938D03*
X32920000Y-135024938D03*
%TD*%
%TO.C,R8*%
X91580000Y-135024938D03*
X101740000Y-135024938D03*
%TD*%
D10*
%TO.C,J13*%
X51000000Y-134524938D03*
D11*
X56080000Y-134524938D03*
X61080000Y-134524938D03*
%TD*%
D14*
%TO.C,RV7*%
X47450000Y-136024938D03*
X64500000Y-136024938D03*
D10*
X53410000Y-155524938D03*
D11*
X55950000Y-155524938D03*
X58490000Y-155524938D03*
%TD*%
D14*
%TO.C,RV8*%
X70000000Y-136024938D03*
X87050000Y-136024938D03*
D10*
X75960000Y-155524938D03*
D11*
X78500000Y-155524938D03*
X81040000Y-155524938D03*
%TD*%
D12*
%TO.C,J14*%
X38000000Y-146024938D03*
%TD*%
D13*
%TO.C,R5*%
X80500000Y-119000000D03*
X80500000Y-129160000D03*
%TD*%
D11*
%TO.C,J17*%
X63000000Y-164540000D03*
X63000000Y-167080000D03*
X63000000Y-169620000D03*
D10*
X63000000Y-162000000D03*
%TD*%
D13*
%TO.C,U1*%
X50380000Y-113880000D03*
X52920000Y-113880000D03*
X55460000Y-113880000D03*
X58000000Y-113880000D03*
X58000000Y-121500000D03*
X55460000Y-121500000D03*
X52920000Y-121500000D03*
D15*
X50380000Y-121500000D03*
%TD*%
D16*
%TO.C,SW1*%
X85500000Y-161000000D03*
X85500000Y-165500000D03*
X85500000Y-170000000D03*
%TD*%
D11*
%TO.C,RV6*%
X81040000Y-106500000D03*
X78500000Y-106500000D03*
D10*
X75960000Y-106500000D03*
D14*
X87050000Y-87000000D03*
X70000000Y-87000000D03*
%TD*%
D11*
%TO.C,RV5*%
X81040000Y-82000000D03*
X78500000Y-82000000D03*
D10*
X75960000Y-82000000D03*
D14*
X87050000Y-62500000D03*
X70000000Y-62500000D03*
%TD*%
D11*
%TO.C,RV4*%
X81080000Y-57500000D03*
X78540000Y-57500000D03*
D10*
X76000000Y-57500000D03*
D14*
X87090000Y-38000000D03*
X70040000Y-38000000D03*
%TD*%
D11*
%TO.C,RV3*%
X58490000Y-106500000D03*
X55950000Y-106500000D03*
D10*
X53410000Y-106500000D03*
D14*
X64500000Y-87000000D03*
X47450000Y-87000000D03*
%TD*%
D11*
%TO.C,RV2*%
X58490000Y-82000000D03*
X55950000Y-82000000D03*
D10*
X53410000Y-82000000D03*
D14*
X64500000Y-62500000D03*
X47450000Y-62500000D03*
%TD*%
D11*
%TO.C,RV1*%
X58500000Y-57500000D03*
X55960000Y-57500000D03*
D10*
X53420000Y-57500000D03*
D14*
X64510000Y-38000000D03*
X47460000Y-38000000D03*
%TD*%
D13*
%TO.C,R10*%
X68840000Y-165500000D03*
X79000000Y-165500000D03*
%TD*%
%TO.C,R9*%
X59460000Y-128000000D03*
X49300000Y-128000000D03*
%TD*%
%TO.C,R6*%
X84500000Y-129160000D03*
X84500000Y-119000000D03*
%TD*%
%TO.C,R4*%
X76500000Y-129160000D03*
X76500000Y-119000000D03*
%TD*%
%TO.C,R3*%
X72500000Y-129160000D03*
X72500000Y-119000000D03*
%TD*%
%TO.C,R2*%
X68500000Y-129160000D03*
X68500000Y-119000000D03*
%TD*%
%TO.C,R1*%
X64500000Y-129160000D03*
X64500000Y-119000000D03*
%TD*%
D11*
%TO.C,J19*%
X84040000Y-26960000D03*
X84040000Y-29500000D03*
X81500000Y-26960000D03*
X81500000Y-29500000D03*
X78960000Y-26960000D03*
D17*
X78960000Y-29500000D03*
%TD*%
D11*
%TO.C,J18*%
X55540000Y-27000000D03*
X55540000Y-29540000D03*
X53000000Y-27000000D03*
X53000000Y-29540000D03*
X50460000Y-27000000D03*
D17*
X50460000Y-29540000D03*
%TD*%
D11*
%TO.C,J12*%
X83580000Y-85500000D03*
X78580000Y-85500000D03*
D10*
X73500000Y-85500000D03*
%TD*%
D12*
%TO.C,J11*%
X96500000Y-96024938D03*
%TD*%
D11*
%TO.C,J10*%
X83580000Y-61000000D03*
X78580000Y-61000000D03*
D10*
X73500000Y-61000000D03*
%TD*%
D12*
%TO.C,J9*%
X96500000Y-71024938D03*
%TD*%
D11*
%TO.C,J8*%
X83580000Y-36500000D03*
X78580000Y-36500000D03*
D10*
X73500000Y-36500000D03*
%TD*%
D12*
%TO.C,J7*%
X96500000Y-47000000D03*
%TD*%
D11*
%TO.C,J6*%
X61080000Y-85500000D03*
X56080000Y-85500000D03*
D10*
X51000000Y-85500000D03*
%TD*%
D12*
%TO.C,J5*%
X38000000Y-96024938D03*
%TD*%
D11*
%TO.C,J4*%
X61080000Y-61000000D03*
X56080000Y-61000000D03*
D10*
X51000000Y-61000000D03*
%TD*%
D12*
%TO.C,J3*%
X38000000Y-71024938D03*
%TD*%
D11*
%TO.C,J2*%
X61080000Y-36500000D03*
X56080000Y-36500000D03*
D10*
X51000000Y-36500000D03*
%TD*%
D12*
%TO.C,J1*%
X38000000Y-47024938D03*
%TD*%
D13*
%TO.C,C6*%
X84500000Y-116000000D03*
X84500000Y-111000000D03*
%TD*%
%TO.C,C5*%
X80500000Y-116000000D03*
X80500000Y-111000000D03*
%TD*%
%TO.C,C4*%
X76500000Y-116000000D03*
X76500000Y-111000000D03*
%TD*%
%TO.C,C3*%
X72500000Y-116000000D03*
X72500000Y-111000000D03*
%TD*%
%TO.C,C2*%
X68500000Y-116000000D03*
X68500000Y-111000000D03*
%TD*%
%TO.C,C1*%
X64500000Y-116000000D03*
X64500000Y-111000000D03*
%TD*%
M02*
