%TF.GenerationSoftware,KiCad,Pcbnew,9.0.6*%
%TF.CreationDate,2026-01-10T14:09:44+11:00*%
%TF.ProjectId,audio-mixer,61756469-6f2d-46d6-9978-65722e6b6963,rev?*%
%TF.SameCoordinates,Original*%
%TF.FileFunction,Legend,Top*%
%TF.FilePolarity,Positive*%
%FSLAX46Y46*%
G04 Gerber Fmt 4.6, Leading zero omitted, Abs format (unit mm)*
G04 Created by KiCad (PCBNEW 9.0.6) date 2026-01-10 14:09:44*
%MOMM*%
%LPD*%
G01*
G04 APERTURE LIST*
%ADD10C,0.300000*%
%ADD11C,0.100000*%
%ADD12C,0.150000*%
%ADD13C,0.120000*%
%ADD14C,0.000000*%
G04 APERTURE END LIST*
D10*
X90554510Y-163275890D02*
X90554510Y-161775890D01*
X90554510Y-161775890D02*
X91054510Y-162847319D01*
X91054510Y-162847319D02*
X91554510Y-161775890D01*
X91554510Y-161775890D02*
X91554510Y-163275890D01*
X92554511Y-161775890D02*
X92840225Y-161775890D01*
X92840225Y-161775890D02*
X92983082Y-161847319D01*
X92983082Y-161847319D02*
X93125939Y-161990176D01*
X93125939Y-161990176D02*
X93197368Y-162275890D01*
X93197368Y-162275890D02*
X93197368Y-162775890D01*
X93197368Y-162775890D02*
X93125939Y-163061604D01*
X93125939Y-163061604D02*
X92983082Y-163204462D01*
X92983082Y-163204462D02*
X92840225Y-163275890D01*
X92840225Y-163275890D02*
X92554511Y-163275890D01*
X92554511Y-163275890D02*
X92411654Y-163204462D01*
X92411654Y-163204462D02*
X92268796Y-163061604D01*
X92268796Y-163061604D02*
X92197368Y-162775890D01*
X92197368Y-162775890D02*
X92197368Y-162275890D01*
X92197368Y-162275890D02*
X92268796Y-161990176D01*
X92268796Y-161990176D02*
X92411654Y-161847319D01*
X92411654Y-161847319D02*
X92554511Y-161775890D01*
X93840225Y-163275890D02*
X93840225Y-161775890D01*
X93840225Y-161775890D02*
X94697368Y-163275890D01*
X94697368Y-163275890D02*
X94697368Y-161775890D01*
X95697369Y-161775890D02*
X95983083Y-161775890D01*
X95983083Y-161775890D02*
X96125940Y-161847319D01*
X96125940Y-161847319D02*
X96268797Y-161990176D01*
X96268797Y-161990176D02*
X96340226Y-162275890D01*
X96340226Y-162275890D02*
X96340226Y-162775890D01*
X96340226Y-162775890D02*
X96268797Y-163061604D01*
X96268797Y-163061604D02*
X96125940Y-163204462D01*
X96125940Y-163204462D02*
X95983083Y-163275890D01*
X95983083Y-163275890D02*
X95697369Y-163275890D01*
X95697369Y-163275890D02*
X95554512Y-163204462D01*
X95554512Y-163204462D02*
X95411654Y-163061604D01*
X95411654Y-163061604D02*
X95340226Y-162775890D01*
X95340226Y-162775890D02*
X95340226Y-162275890D01*
X95340226Y-162275890D02*
X95411654Y-161990176D01*
X95411654Y-161990176D02*
X95554512Y-161847319D01*
X95554512Y-161847319D02*
X95697369Y-161775890D01*
D11*
X65833333Y-158932481D02*
X65500000Y-158456290D01*
X65261905Y-158932481D02*
X65261905Y-157932481D01*
X65261905Y-157932481D02*
X65642857Y-157932481D01*
X65642857Y-157932481D02*
X65738095Y-157980100D01*
X65738095Y-157980100D02*
X65785714Y-158027719D01*
X65785714Y-158027719D02*
X65833333Y-158122957D01*
X65833333Y-158122957D02*
X65833333Y-158265814D01*
X65833333Y-158265814D02*
X65785714Y-158361052D01*
X65785714Y-158361052D02*
X65738095Y-158408671D01*
X65738095Y-158408671D02*
X65642857Y-158456290D01*
X65642857Y-158456290D02*
X65261905Y-158456290D01*
X66214286Y-158027719D02*
X66261905Y-157980100D01*
X66261905Y-157980100D02*
X66357143Y-157932481D01*
X66357143Y-157932481D02*
X66595238Y-157932481D01*
X66595238Y-157932481D02*
X66690476Y-157980100D01*
X66690476Y-157980100D02*
X66738095Y-158027719D01*
X66738095Y-158027719D02*
X66785714Y-158122957D01*
X66785714Y-158122957D02*
X66785714Y-158218195D01*
X66785714Y-158218195D02*
X66738095Y-158361052D01*
X66738095Y-158361052D02*
X66166667Y-158932481D01*
X66166667Y-158932481D02*
X66785714Y-158932481D01*
D10*
X33554510Y-104300828D02*
X33554510Y-102800828D01*
X34268796Y-104300828D02*
X34268796Y-102800828D01*
X34268796Y-102800828D02*
X35125939Y-104300828D01*
X35125939Y-104300828D02*
X35125939Y-102800828D01*
X35840225Y-104300828D02*
X35840225Y-102800828D01*
X35840225Y-102800828D02*
X36411654Y-102800828D01*
X36411654Y-102800828D02*
X36554511Y-102872257D01*
X36554511Y-102872257D02*
X36625940Y-102943685D01*
X36625940Y-102943685D02*
X36697368Y-103086542D01*
X36697368Y-103086542D02*
X36697368Y-103300828D01*
X36697368Y-103300828D02*
X36625940Y-103443685D01*
X36625940Y-103443685D02*
X36554511Y-103515114D01*
X36554511Y-103515114D02*
X36411654Y-103586542D01*
X36411654Y-103586542D02*
X35840225Y-103586542D01*
X37340225Y-102800828D02*
X37340225Y-104015114D01*
X37340225Y-104015114D02*
X37411654Y-104157971D01*
X37411654Y-104157971D02*
X37483083Y-104229400D01*
X37483083Y-104229400D02*
X37625940Y-104300828D01*
X37625940Y-104300828D02*
X37911654Y-104300828D01*
X37911654Y-104300828D02*
X38054511Y-104229400D01*
X38054511Y-104229400D02*
X38125940Y-104157971D01*
X38125940Y-104157971D02*
X38197368Y-104015114D01*
X38197368Y-104015114D02*
X38197368Y-102800828D01*
X38697369Y-102800828D02*
X39554512Y-102800828D01*
X39125940Y-104300828D02*
X39125940Y-102800828D01*
X41125940Y-103872257D02*
X41840226Y-103872257D01*
X40983083Y-104300828D02*
X41483083Y-102800828D01*
X41483083Y-102800828D02*
X41983083Y-104300828D01*
X42340225Y-102800828D02*
X43268797Y-102800828D01*
X43268797Y-102800828D02*
X42768797Y-103372257D01*
X42768797Y-103372257D02*
X42983082Y-103372257D01*
X42983082Y-103372257D02*
X43125940Y-103443685D01*
X43125940Y-103443685D02*
X43197368Y-103515114D01*
X43197368Y-103515114D02*
X43268797Y-103657971D01*
X43268797Y-103657971D02*
X43268797Y-104015114D01*
X43268797Y-104015114D02*
X43197368Y-104157971D01*
X43197368Y-104157971D02*
X43125940Y-104229400D01*
X43125940Y-104229400D02*
X42983082Y-104300828D01*
X42983082Y-104300828D02*
X42554511Y-104300828D01*
X42554511Y-104300828D02*
X42411654Y-104229400D01*
X42411654Y-104229400D02*
X42340225Y-104157971D01*
X33554510Y-79300828D02*
X33554510Y-77800828D01*
X34268796Y-79300828D02*
X34268796Y-77800828D01*
X34268796Y-77800828D02*
X35125939Y-79300828D01*
X35125939Y-79300828D02*
X35125939Y-77800828D01*
X35840225Y-79300828D02*
X35840225Y-77800828D01*
X35840225Y-77800828D02*
X36411654Y-77800828D01*
X36411654Y-77800828D02*
X36554511Y-77872257D01*
X36554511Y-77872257D02*
X36625940Y-77943685D01*
X36625940Y-77943685D02*
X36697368Y-78086542D01*
X36697368Y-78086542D02*
X36697368Y-78300828D01*
X36697368Y-78300828D02*
X36625940Y-78443685D01*
X36625940Y-78443685D02*
X36554511Y-78515114D01*
X36554511Y-78515114D02*
X36411654Y-78586542D01*
X36411654Y-78586542D02*
X35840225Y-78586542D01*
X37340225Y-77800828D02*
X37340225Y-79015114D01*
X37340225Y-79015114D02*
X37411654Y-79157971D01*
X37411654Y-79157971D02*
X37483083Y-79229400D01*
X37483083Y-79229400D02*
X37625940Y-79300828D01*
X37625940Y-79300828D02*
X37911654Y-79300828D01*
X37911654Y-79300828D02*
X38054511Y-79229400D01*
X38054511Y-79229400D02*
X38125940Y-79157971D01*
X38125940Y-79157971D02*
X38197368Y-79015114D01*
X38197368Y-79015114D02*
X38197368Y-77800828D01*
X38697369Y-77800828D02*
X39554512Y-77800828D01*
X39125940Y-79300828D02*
X39125940Y-77800828D01*
X41125940Y-78872257D02*
X41840226Y-78872257D01*
X40983083Y-79300828D02*
X41483083Y-77800828D01*
X41483083Y-77800828D02*
X41983083Y-79300828D01*
X42411654Y-77943685D02*
X42483082Y-77872257D01*
X42483082Y-77872257D02*
X42625940Y-77800828D01*
X42625940Y-77800828D02*
X42983082Y-77800828D01*
X42983082Y-77800828D02*
X43125940Y-77872257D01*
X43125940Y-77872257D02*
X43197368Y-77943685D01*
X43197368Y-77943685D02*
X43268797Y-78086542D01*
X43268797Y-78086542D02*
X43268797Y-78229400D01*
X43268797Y-78229400D02*
X43197368Y-78443685D01*
X43197368Y-78443685D02*
X42340225Y-79300828D01*
X42340225Y-79300828D02*
X43268797Y-79300828D01*
D11*
X65833333Y-156432481D02*
X65500000Y-155956290D01*
X65261905Y-156432481D02*
X65261905Y-155432481D01*
X65261905Y-155432481D02*
X65642857Y-155432481D01*
X65642857Y-155432481D02*
X65738095Y-155480100D01*
X65738095Y-155480100D02*
X65785714Y-155527719D01*
X65785714Y-155527719D02*
X65833333Y-155622957D01*
X65833333Y-155622957D02*
X65833333Y-155765814D01*
X65833333Y-155765814D02*
X65785714Y-155861052D01*
X65785714Y-155861052D02*
X65738095Y-155908671D01*
X65738095Y-155908671D02*
X65642857Y-155956290D01*
X65642857Y-155956290D02*
X65261905Y-155956290D01*
X66785714Y-156432481D02*
X66214286Y-156432481D01*
X66500000Y-156432481D02*
X66500000Y-155432481D01*
X66500000Y-155432481D02*
X66404762Y-155575338D01*
X66404762Y-155575338D02*
X66309524Y-155670576D01*
X66309524Y-155670576D02*
X66214286Y-155718195D01*
X32071429Y-162146766D02*
X32547619Y-162146766D01*
X31976191Y-162432481D02*
X32309524Y-161432481D01*
X32309524Y-161432481D02*
X32642857Y-162432481D01*
X32976191Y-161432481D02*
X32976191Y-162242004D01*
X32976191Y-162242004D02*
X33023810Y-162337242D01*
X33023810Y-162337242D02*
X33071429Y-162384862D01*
X33071429Y-162384862D02*
X33166667Y-162432481D01*
X33166667Y-162432481D02*
X33357143Y-162432481D01*
X33357143Y-162432481D02*
X33452381Y-162384862D01*
X33452381Y-162384862D02*
X33500000Y-162337242D01*
X33500000Y-162337242D02*
X33547619Y-162242004D01*
X33547619Y-162242004D02*
X33547619Y-161432481D01*
X34023810Y-162432481D02*
X34023810Y-161432481D01*
X34023810Y-161432481D02*
X34261905Y-161432481D01*
X34261905Y-161432481D02*
X34404762Y-161480100D01*
X34404762Y-161480100D02*
X34500000Y-161575338D01*
X34500000Y-161575338D02*
X34547619Y-161670576D01*
X34547619Y-161670576D02*
X34595238Y-161861052D01*
X34595238Y-161861052D02*
X34595238Y-162003909D01*
X34595238Y-162003909D02*
X34547619Y-162194385D01*
X34547619Y-162194385D02*
X34500000Y-162289623D01*
X34500000Y-162289623D02*
X34404762Y-162384862D01*
X34404762Y-162384862D02*
X34261905Y-162432481D01*
X34261905Y-162432481D02*
X34023810Y-162432481D01*
X35023810Y-162432481D02*
X35023810Y-161432481D01*
X35690476Y-161432481D02*
X35880952Y-161432481D01*
X35880952Y-161432481D02*
X35976190Y-161480100D01*
X35976190Y-161480100D02*
X36071428Y-161575338D01*
X36071428Y-161575338D02*
X36119047Y-161765814D01*
X36119047Y-161765814D02*
X36119047Y-162099147D01*
X36119047Y-162099147D02*
X36071428Y-162289623D01*
X36071428Y-162289623D02*
X35976190Y-162384862D01*
X35976190Y-162384862D02*
X35880952Y-162432481D01*
X35880952Y-162432481D02*
X35690476Y-162432481D01*
X35690476Y-162432481D02*
X35595238Y-162384862D01*
X35595238Y-162384862D02*
X35500000Y-162289623D01*
X35500000Y-162289623D02*
X35452381Y-162099147D01*
X35452381Y-162099147D02*
X35452381Y-161765814D01*
X35452381Y-161765814D02*
X35500000Y-161575338D01*
X35500000Y-161575338D02*
X35595238Y-161480100D01*
X35595238Y-161480100D02*
X35690476Y-161432481D01*
X37309524Y-162432481D02*
X37309524Y-161432481D01*
X37309524Y-161432481D02*
X37642857Y-162146766D01*
X37642857Y-162146766D02*
X37976190Y-161432481D01*
X37976190Y-161432481D02*
X37976190Y-162432481D01*
X38452381Y-162432481D02*
X38452381Y-161432481D01*
X38833333Y-161432481D02*
X39499999Y-162432481D01*
X39499999Y-161432481D02*
X38833333Y-162432481D01*
X39880952Y-161908671D02*
X40214285Y-161908671D01*
X40357142Y-162432481D02*
X39880952Y-162432481D01*
X39880952Y-162432481D02*
X39880952Y-161432481D01*
X39880952Y-161432481D02*
X40357142Y-161432481D01*
X41357142Y-162432481D02*
X41023809Y-161956290D01*
X40785714Y-162432481D02*
X40785714Y-161432481D01*
X40785714Y-161432481D02*
X41166666Y-161432481D01*
X41166666Y-161432481D02*
X41261904Y-161480100D01*
X41261904Y-161480100D02*
X41309523Y-161527719D01*
X41309523Y-161527719D02*
X41357142Y-161622957D01*
X41357142Y-161622957D02*
X41357142Y-161765814D01*
X41357142Y-161765814D02*
X41309523Y-161861052D01*
X41309523Y-161861052D02*
X41261904Y-161908671D01*
X41261904Y-161908671D02*
X41166666Y-161956290D01*
X41166666Y-161956290D02*
X40785714Y-161956290D01*
X42404762Y-161432481D02*
X42738095Y-162432481D01*
X42738095Y-162432481D02*
X43071428Y-161432481D01*
X43357143Y-161527719D02*
X43404762Y-161480100D01*
X43404762Y-161480100D02*
X43500000Y-161432481D01*
X43500000Y-161432481D02*
X43738095Y-161432481D01*
X43738095Y-161432481D02*
X43833333Y-161480100D01*
X43833333Y-161480100D02*
X43880952Y-161527719D01*
X43880952Y-161527719D02*
X43928571Y-161622957D01*
X43928571Y-161622957D02*
X43928571Y-161718195D01*
X43928571Y-161718195D02*
X43880952Y-161861052D01*
X43880952Y-161861052D02*
X43309524Y-162432481D01*
X43309524Y-162432481D02*
X43928571Y-162432481D01*
X65214286Y-152932481D02*
X65785714Y-152932481D01*
X65500000Y-153932481D02*
X65500000Y-152932481D01*
D10*
X33340225Y-144275890D02*
X33625939Y-144275890D01*
X33625939Y-144275890D02*
X33768796Y-144347319D01*
X33768796Y-144347319D02*
X33911653Y-144490176D01*
X33911653Y-144490176D02*
X33983082Y-144775890D01*
X33983082Y-144775890D02*
X33983082Y-145275890D01*
X33983082Y-145275890D02*
X33911653Y-145561604D01*
X33911653Y-145561604D02*
X33768796Y-145704462D01*
X33768796Y-145704462D02*
X33625939Y-145775890D01*
X33625939Y-145775890D02*
X33340225Y-145775890D01*
X33340225Y-145775890D02*
X33197368Y-145704462D01*
X33197368Y-145704462D02*
X33054510Y-145561604D01*
X33054510Y-145561604D02*
X32983082Y-145275890D01*
X32983082Y-145275890D02*
X32983082Y-144775890D01*
X32983082Y-144775890D02*
X33054510Y-144490176D01*
X33054510Y-144490176D02*
X33197368Y-144347319D01*
X33197368Y-144347319D02*
X33340225Y-144275890D01*
X34625939Y-144275890D02*
X34625939Y-145490176D01*
X34625939Y-145490176D02*
X34697368Y-145633033D01*
X34697368Y-145633033D02*
X34768797Y-145704462D01*
X34768797Y-145704462D02*
X34911654Y-145775890D01*
X34911654Y-145775890D02*
X35197368Y-145775890D01*
X35197368Y-145775890D02*
X35340225Y-145704462D01*
X35340225Y-145704462D02*
X35411654Y-145633033D01*
X35411654Y-145633033D02*
X35483082Y-145490176D01*
X35483082Y-145490176D02*
X35483082Y-144275890D01*
X35983083Y-144275890D02*
X36840226Y-144275890D01*
X36411654Y-145775890D02*
X36411654Y-144275890D01*
X37340225Y-145775890D02*
X37340225Y-144275890D01*
X37340225Y-144275890D02*
X37911654Y-144275890D01*
X37911654Y-144275890D02*
X38054511Y-144347319D01*
X38054511Y-144347319D02*
X38125940Y-144418747D01*
X38125940Y-144418747D02*
X38197368Y-144561604D01*
X38197368Y-144561604D02*
X38197368Y-144775890D01*
X38197368Y-144775890D02*
X38125940Y-144918747D01*
X38125940Y-144918747D02*
X38054511Y-144990176D01*
X38054511Y-144990176D02*
X37911654Y-145061604D01*
X37911654Y-145061604D02*
X37340225Y-145061604D01*
X38840225Y-144275890D02*
X38840225Y-145490176D01*
X38840225Y-145490176D02*
X38911654Y-145633033D01*
X38911654Y-145633033D02*
X38983083Y-145704462D01*
X38983083Y-145704462D02*
X39125940Y-145775890D01*
X39125940Y-145775890D02*
X39411654Y-145775890D01*
X39411654Y-145775890D02*
X39554511Y-145704462D01*
X39554511Y-145704462D02*
X39625940Y-145633033D01*
X39625940Y-145633033D02*
X39697368Y-145490176D01*
X39697368Y-145490176D02*
X39697368Y-144275890D01*
X40197369Y-144275890D02*
X41054512Y-144275890D01*
X40625940Y-145775890D02*
X40625940Y-144275890D01*
X42625940Y-145347319D02*
X43340226Y-145347319D01*
X42483083Y-145775890D02*
X42983083Y-144275890D01*
X42983083Y-144275890D02*
X43483083Y-145775890D01*
X91554510Y-55300828D02*
X91554510Y-53800828D01*
X92268796Y-55300828D02*
X92268796Y-53800828D01*
X92268796Y-53800828D02*
X93125939Y-55300828D01*
X93125939Y-55300828D02*
X93125939Y-53800828D01*
X93840225Y-55300828D02*
X93840225Y-53800828D01*
X93840225Y-53800828D02*
X94411654Y-53800828D01*
X94411654Y-53800828D02*
X94554511Y-53872257D01*
X94554511Y-53872257D02*
X94625940Y-53943685D01*
X94625940Y-53943685D02*
X94697368Y-54086542D01*
X94697368Y-54086542D02*
X94697368Y-54300828D01*
X94697368Y-54300828D02*
X94625940Y-54443685D01*
X94625940Y-54443685D02*
X94554511Y-54515114D01*
X94554511Y-54515114D02*
X94411654Y-54586542D01*
X94411654Y-54586542D02*
X93840225Y-54586542D01*
X95340225Y-53800828D02*
X95340225Y-55015114D01*
X95340225Y-55015114D02*
X95411654Y-55157971D01*
X95411654Y-55157971D02*
X95483083Y-55229400D01*
X95483083Y-55229400D02*
X95625940Y-55300828D01*
X95625940Y-55300828D02*
X95911654Y-55300828D01*
X95911654Y-55300828D02*
X96054511Y-55229400D01*
X96054511Y-55229400D02*
X96125940Y-55157971D01*
X96125940Y-55157971D02*
X96197368Y-55015114D01*
X96197368Y-55015114D02*
X96197368Y-53800828D01*
X96697369Y-53800828D02*
X97554512Y-53800828D01*
X97125940Y-55300828D02*
X97125940Y-53800828D01*
X99697368Y-54515114D02*
X99911654Y-54586542D01*
X99911654Y-54586542D02*
X99983083Y-54657971D01*
X99983083Y-54657971D02*
X100054511Y-54800828D01*
X100054511Y-54800828D02*
X100054511Y-55015114D01*
X100054511Y-55015114D02*
X99983083Y-55157971D01*
X99983083Y-55157971D02*
X99911654Y-55229400D01*
X99911654Y-55229400D02*
X99768797Y-55300828D01*
X99768797Y-55300828D02*
X99197368Y-55300828D01*
X99197368Y-55300828D02*
X99197368Y-53800828D01*
X99197368Y-53800828D02*
X99697368Y-53800828D01*
X99697368Y-53800828D02*
X99840226Y-53872257D01*
X99840226Y-53872257D02*
X99911654Y-53943685D01*
X99911654Y-53943685D02*
X99983083Y-54086542D01*
X99983083Y-54086542D02*
X99983083Y-54229400D01*
X99983083Y-54229400D02*
X99911654Y-54372257D01*
X99911654Y-54372257D02*
X99840226Y-54443685D01*
X99840226Y-54443685D02*
X99697368Y-54515114D01*
X99697368Y-54515114D02*
X99197368Y-54515114D01*
X101483083Y-55300828D02*
X100625940Y-55300828D01*
X101054511Y-55300828D02*
X101054511Y-53800828D01*
X101054511Y-53800828D02*
X100911654Y-54015114D01*
X100911654Y-54015114D02*
X100768797Y-54157971D01*
X100768797Y-54157971D02*
X100625940Y-54229400D01*
X91840225Y-144275890D02*
X92125939Y-144275890D01*
X92125939Y-144275890D02*
X92268796Y-144347319D01*
X92268796Y-144347319D02*
X92411653Y-144490176D01*
X92411653Y-144490176D02*
X92483082Y-144775890D01*
X92483082Y-144775890D02*
X92483082Y-145275890D01*
X92483082Y-145275890D02*
X92411653Y-145561604D01*
X92411653Y-145561604D02*
X92268796Y-145704462D01*
X92268796Y-145704462D02*
X92125939Y-145775890D01*
X92125939Y-145775890D02*
X91840225Y-145775890D01*
X91840225Y-145775890D02*
X91697368Y-145704462D01*
X91697368Y-145704462D02*
X91554510Y-145561604D01*
X91554510Y-145561604D02*
X91483082Y-145275890D01*
X91483082Y-145275890D02*
X91483082Y-144775890D01*
X91483082Y-144775890D02*
X91554510Y-144490176D01*
X91554510Y-144490176D02*
X91697368Y-144347319D01*
X91697368Y-144347319D02*
X91840225Y-144275890D01*
X93125939Y-144275890D02*
X93125939Y-145490176D01*
X93125939Y-145490176D02*
X93197368Y-145633033D01*
X93197368Y-145633033D02*
X93268797Y-145704462D01*
X93268797Y-145704462D02*
X93411654Y-145775890D01*
X93411654Y-145775890D02*
X93697368Y-145775890D01*
X93697368Y-145775890D02*
X93840225Y-145704462D01*
X93840225Y-145704462D02*
X93911654Y-145633033D01*
X93911654Y-145633033D02*
X93983082Y-145490176D01*
X93983082Y-145490176D02*
X93983082Y-144275890D01*
X94483083Y-144275890D02*
X95340226Y-144275890D01*
X94911654Y-145775890D02*
X94911654Y-144275890D01*
X95840225Y-145775890D02*
X95840225Y-144275890D01*
X95840225Y-144275890D02*
X96411654Y-144275890D01*
X96411654Y-144275890D02*
X96554511Y-144347319D01*
X96554511Y-144347319D02*
X96625940Y-144418747D01*
X96625940Y-144418747D02*
X96697368Y-144561604D01*
X96697368Y-144561604D02*
X96697368Y-144775890D01*
X96697368Y-144775890D02*
X96625940Y-144918747D01*
X96625940Y-144918747D02*
X96554511Y-144990176D01*
X96554511Y-144990176D02*
X96411654Y-145061604D01*
X96411654Y-145061604D02*
X95840225Y-145061604D01*
X97340225Y-144275890D02*
X97340225Y-145490176D01*
X97340225Y-145490176D02*
X97411654Y-145633033D01*
X97411654Y-145633033D02*
X97483083Y-145704462D01*
X97483083Y-145704462D02*
X97625940Y-145775890D01*
X97625940Y-145775890D02*
X97911654Y-145775890D01*
X97911654Y-145775890D02*
X98054511Y-145704462D01*
X98054511Y-145704462D02*
X98125940Y-145633033D01*
X98125940Y-145633033D02*
X98197368Y-145490176D01*
X98197368Y-145490176D02*
X98197368Y-144275890D01*
X98697369Y-144275890D02*
X99554512Y-144275890D01*
X99125940Y-145775890D02*
X99125940Y-144275890D01*
X101697368Y-144990176D02*
X101911654Y-145061604D01*
X101911654Y-145061604D02*
X101983083Y-145133033D01*
X101983083Y-145133033D02*
X102054511Y-145275890D01*
X102054511Y-145275890D02*
X102054511Y-145490176D01*
X102054511Y-145490176D02*
X101983083Y-145633033D01*
X101983083Y-145633033D02*
X101911654Y-145704462D01*
X101911654Y-145704462D02*
X101768797Y-145775890D01*
X101768797Y-145775890D02*
X101197368Y-145775890D01*
X101197368Y-145775890D02*
X101197368Y-144275890D01*
X101197368Y-144275890D02*
X101697368Y-144275890D01*
X101697368Y-144275890D02*
X101840226Y-144347319D01*
X101840226Y-144347319D02*
X101911654Y-144418747D01*
X101911654Y-144418747D02*
X101983083Y-144561604D01*
X101983083Y-144561604D02*
X101983083Y-144704462D01*
X101983083Y-144704462D02*
X101911654Y-144847319D01*
X101911654Y-144847319D02*
X101840226Y-144918747D01*
X101840226Y-144918747D02*
X101697368Y-144990176D01*
X101697368Y-144990176D02*
X101197368Y-144990176D01*
X91554510Y-104300828D02*
X91554510Y-102800828D01*
X92268796Y-104300828D02*
X92268796Y-102800828D01*
X92268796Y-102800828D02*
X93125939Y-104300828D01*
X93125939Y-104300828D02*
X93125939Y-102800828D01*
X93840225Y-104300828D02*
X93840225Y-102800828D01*
X93840225Y-102800828D02*
X94411654Y-102800828D01*
X94411654Y-102800828D02*
X94554511Y-102872257D01*
X94554511Y-102872257D02*
X94625940Y-102943685D01*
X94625940Y-102943685D02*
X94697368Y-103086542D01*
X94697368Y-103086542D02*
X94697368Y-103300828D01*
X94697368Y-103300828D02*
X94625940Y-103443685D01*
X94625940Y-103443685D02*
X94554511Y-103515114D01*
X94554511Y-103515114D02*
X94411654Y-103586542D01*
X94411654Y-103586542D02*
X93840225Y-103586542D01*
X95340225Y-102800828D02*
X95340225Y-104015114D01*
X95340225Y-104015114D02*
X95411654Y-104157971D01*
X95411654Y-104157971D02*
X95483083Y-104229400D01*
X95483083Y-104229400D02*
X95625940Y-104300828D01*
X95625940Y-104300828D02*
X95911654Y-104300828D01*
X95911654Y-104300828D02*
X96054511Y-104229400D01*
X96054511Y-104229400D02*
X96125940Y-104157971D01*
X96125940Y-104157971D02*
X96197368Y-104015114D01*
X96197368Y-104015114D02*
X96197368Y-102800828D01*
X96697369Y-102800828D02*
X97554512Y-102800828D01*
X97125940Y-104300828D02*
X97125940Y-102800828D01*
X99697368Y-103515114D02*
X99911654Y-103586542D01*
X99911654Y-103586542D02*
X99983083Y-103657971D01*
X99983083Y-103657971D02*
X100054511Y-103800828D01*
X100054511Y-103800828D02*
X100054511Y-104015114D01*
X100054511Y-104015114D02*
X99983083Y-104157971D01*
X99983083Y-104157971D02*
X99911654Y-104229400D01*
X99911654Y-104229400D02*
X99768797Y-104300828D01*
X99768797Y-104300828D02*
X99197368Y-104300828D01*
X99197368Y-104300828D02*
X99197368Y-102800828D01*
X99197368Y-102800828D02*
X99697368Y-102800828D01*
X99697368Y-102800828D02*
X99840226Y-102872257D01*
X99840226Y-102872257D02*
X99911654Y-102943685D01*
X99911654Y-102943685D02*
X99983083Y-103086542D01*
X99983083Y-103086542D02*
X99983083Y-103229400D01*
X99983083Y-103229400D02*
X99911654Y-103372257D01*
X99911654Y-103372257D02*
X99840226Y-103443685D01*
X99840226Y-103443685D02*
X99697368Y-103515114D01*
X99697368Y-103515114D02*
X99197368Y-103515114D01*
X100554511Y-102800828D02*
X101483083Y-102800828D01*
X101483083Y-102800828D02*
X100983083Y-103372257D01*
X100983083Y-103372257D02*
X101197368Y-103372257D01*
X101197368Y-103372257D02*
X101340226Y-103443685D01*
X101340226Y-103443685D02*
X101411654Y-103515114D01*
X101411654Y-103515114D02*
X101483083Y-103657971D01*
X101483083Y-103657971D02*
X101483083Y-104015114D01*
X101483083Y-104015114D02*
X101411654Y-104157971D01*
X101411654Y-104157971D02*
X101340226Y-104229400D01*
X101340226Y-104229400D02*
X101197368Y-104300828D01*
X101197368Y-104300828D02*
X100768797Y-104300828D01*
X100768797Y-104300828D02*
X100625940Y-104229400D01*
X100625940Y-104229400D02*
X100554511Y-104157971D01*
X91554510Y-79300828D02*
X91554510Y-77800828D01*
X92268796Y-79300828D02*
X92268796Y-77800828D01*
X92268796Y-77800828D02*
X93125939Y-79300828D01*
X93125939Y-79300828D02*
X93125939Y-77800828D01*
X93840225Y-79300828D02*
X93840225Y-77800828D01*
X93840225Y-77800828D02*
X94411654Y-77800828D01*
X94411654Y-77800828D02*
X94554511Y-77872257D01*
X94554511Y-77872257D02*
X94625940Y-77943685D01*
X94625940Y-77943685D02*
X94697368Y-78086542D01*
X94697368Y-78086542D02*
X94697368Y-78300828D01*
X94697368Y-78300828D02*
X94625940Y-78443685D01*
X94625940Y-78443685D02*
X94554511Y-78515114D01*
X94554511Y-78515114D02*
X94411654Y-78586542D01*
X94411654Y-78586542D02*
X93840225Y-78586542D01*
X95340225Y-77800828D02*
X95340225Y-79015114D01*
X95340225Y-79015114D02*
X95411654Y-79157971D01*
X95411654Y-79157971D02*
X95483083Y-79229400D01*
X95483083Y-79229400D02*
X95625940Y-79300828D01*
X95625940Y-79300828D02*
X95911654Y-79300828D01*
X95911654Y-79300828D02*
X96054511Y-79229400D01*
X96054511Y-79229400D02*
X96125940Y-79157971D01*
X96125940Y-79157971D02*
X96197368Y-79015114D01*
X96197368Y-79015114D02*
X96197368Y-77800828D01*
X96697369Y-77800828D02*
X97554512Y-77800828D01*
X97125940Y-79300828D02*
X97125940Y-77800828D01*
X99697368Y-78515114D02*
X99911654Y-78586542D01*
X99911654Y-78586542D02*
X99983083Y-78657971D01*
X99983083Y-78657971D02*
X100054511Y-78800828D01*
X100054511Y-78800828D02*
X100054511Y-79015114D01*
X100054511Y-79015114D02*
X99983083Y-79157971D01*
X99983083Y-79157971D02*
X99911654Y-79229400D01*
X99911654Y-79229400D02*
X99768797Y-79300828D01*
X99768797Y-79300828D02*
X99197368Y-79300828D01*
X99197368Y-79300828D02*
X99197368Y-77800828D01*
X99197368Y-77800828D02*
X99697368Y-77800828D01*
X99697368Y-77800828D02*
X99840226Y-77872257D01*
X99840226Y-77872257D02*
X99911654Y-77943685D01*
X99911654Y-77943685D02*
X99983083Y-78086542D01*
X99983083Y-78086542D02*
X99983083Y-78229400D01*
X99983083Y-78229400D02*
X99911654Y-78372257D01*
X99911654Y-78372257D02*
X99840226Y-78443685D01*
X99840226Y-78443685D02*
X99697368Y-78515114D01*
X99697368Y-78515114D02*
X99197368Y-78515114D01*
X100625940Y-77943685D02*
X100697368Y-77872257D01*
X100697368Y-77872257D02*
X100840226Y-77800828D01*
X100840226Y-77800828D02*
X101197368Y-77800828D01*
X101197368Y-77800828D02*
X101340226Y-77872257D01*
X101340226Y-77872257D02*
X101411654Y-77943685D01*
X101411654Y-77943685D02*
X101483083Y-78086542D01*
X101483083Y-78086542D02*
X101483083Y-78229400D01*
X101483083Y-78229400D02*
X101411654Y-78443685D01*
X101411654Y-78443685D02*
X100554511Y-79300828D01*
X100554511Y-79300828D02*
X101483083Y-79300828D01*
X33554510Y-55300828D02*
X33554510Y-53800828D01*
X34268796Y-55300828D02*
X34268796Y-53800828D01*
X34268796Y-53800828D02*
X35125939Y-55300828D01*
X35125939Y-55300828D02*
X35125939Y-53800828D01*
X35840225Y-55300828D02*
X35840225Y-53800828D01*
X35840225Y-53800828D02*
X36411654Y-53800828D01*
X36411654Y-53800828D02*
X36554511Y-53872257D01*
X36554511Y-53872257D02*
X36625940Y-53943685D01*
X36625940Y-53943685D02*
X36697368Y-54086542D01*
X36697368Y-54086542D02*
X36697368Y-54300828D01*
X36697368Y-54300828D02*
X36625940Y-54443685D01*
X36625940Y-54443685D02*
X36554511Y-54515114D01*
X36554511Y-54515114D02*
X36411654Y-54586542D01*
X36411654Y-54586542D02*
X35840225Y-54586542D01*
X37340225Y-53800828D02*
X37340225Y-55015114D01*
X37340225Y-55015114D02*
X37411654Y-55157971D01*
X37411654Y-55157971D02*
X37483083Y-55229400D01*
X37483083Y-55229400D02*
X37625940Y-55300828D01*
X37625940Y-55300828D02*
X37911654Y-55300828D01*
X37911654Y-55300828D02*
X38054511Y-55229400D01*
X38054511Y-55229400D02*
X38125940Y-55157971D01*
X38125940Y-55157971D02*
X38197368Y-55015114D01*
X38197368Y-55015114D02*
X38197368Y-53800828D01*
X38697369Y-53800828D02*
X39554512Y-53800828D01*
X39125940Y-55300828D02*
X39125940Y-53800828D01*
X41125940Y-54872257D02*
X41840226Y-54872257D01*
X40983083Y-55300828D02*
X41483083Y-53800828D01*
X41483083Y-53800828D02*
X41983083Y-55300828D01*
X43268797Y-55300828D02*
X42411654Y-55300828D01*
X42840225Y-55300828D02*
X42840225Y-53800828D01*
X42840225Y-53800828D02*
X42697368Y-54015114D01*
X42697368Y-54015114D02*
X42554511Y-54157971D01*
X42554511Y-54157971D02*
X42411654Y-54229400D01*
D11*
X65214286Y-161384862D02*
X65357143Y-161432481D01*
X65357143Y-161432481D02*
X65595238Y-161432481D01*
X65595238Y-161432481D02*
X65690476Y-161384862D01*
X65690476Y-161384862D02*
X65738095Y-161337242D01*
X65738095Y-161337242D02*
X65785714Y-161242004D01*
X65785714Y-161242004D02*
X65785714Y-161146766D01*
X65785714Y-161146766D02*
X65738095Y-161051528D01*
X65738095Y-161051528D02*
X65690476Y-161003909D01*
X65690476Y-161003909D02*
X65595238Y-160956290D01*
X65595238Y-160956290D02*
X65404762Y-160908671D01*
X65404762Y-160908671D02*
X65309524Y-160861052D01*
X65309524Y-160861052D02*
X65261905Y-160813433D01*
X65261905Y-160813433D02*
X65214286Y-160718195D01*
X65214286Y-160718195D02*
X65214286Y-160622957D01*
X65214286Y-160622957D02*
X65261905Y-160527719D01*
X65261905Y-160527719D02*
X65309524Y-160480100D01*
X65309524Y-160480100D02*
X65404762Y-160432481D01*
X65404762Y-160432481D02*
X65642857Y-160432481D01*
X65642857Y-160432481D02*
X65785714Y-160480100D01*
D10*
X90483082Y-152204462D02*
X90697368Y-152275890D01*
X90697368Y-152275890D02*
X91054510Y-152275890D01*
X91054510Y-152275890D02*
X91197368Y-152204462D01*
X91197368Y-152204462D02*
X91268796Y-152133033D01*
X91268796Y-152133033D02*
X91340225Y-151990176D01*
X91340225Y-151990176D02*
X91340225Y-151847319D01*
X91340225Y-151847319D02*
X91268796Y-151704462D01*
X91268796Y-151704462D02*
X91197368Y-151633033D01*
X91197368Y-151633033D02*
X91054510Y-151561604D01*
X91054510Y-151561604D02*
X90768796Y-151490176D01*
X90768796Y-151490176D02*
X90625939Y-151418747D01*
X90625939Y-151418747D02*
X90554510Y-151347319D01*
X90554510Y-151347319D02*
X90483082Y-151204462D01*
X90483082Y-151204462D02*
X90483082Y-151061604D01*
X90483082Y-151061604D02*
X90554510Y-150918747D01*
X90554510Y-150918747D02*
X90625939Y-150847319D01*
X90625939Y-150847319D02*
X90768796Y-150775890D01*
X90768796Y-150775890D02*
X91125939Y-150775890D01*
X91125939Y-150775890D02*
X91340225Y-150847319D01*
X91768796Y-150775890D02*
X92625939Y-150775890D01*
X92197367Y-152275890D02*
X92197367Y-150775890D01*
X93125938Y-151490176D02*
X93625938Y-151490176D01*
X93840224Y-152275890D02*
X93125938Y-152275890D01*
X93125938Y-152275890D02*
X93125938Y-150775890D01*
X93125938Y-150775890D02*
X93840224Y-150775890D01*
X95340224Y-152275890D02*
X94840224Y-151561604D01*
X94483081Y-152275890D02*
X94483081Y-150775890D01*
X94483081Y-150775890D02*
X95054510Y-150775890D01*
X95054510Y-150775890D02*
X95197367Y-150847319D01*
X95197367Y-150847319D02*
X95268796Y-150918747D01*
X95268796Y-150918747D02*
X95340224Y-151061604D01*
X95340224Y-151061604D02*
X95340224Y-151275890D01*
X95340224Y-151275890D02*
X95268796Y-151418747D01*
X95268796Y-151418747D02*
X95197367Y-151490176D01*
X95197367Y-151490176D02*
X95054510Y-151561604D01*
X95054510Y-151561604D02*
X94483081Y-151561604D01*
X95983081Y-151490176D02*
X96483081Y-151490176D01*
X96697367Y-152275890D02*
X95983081Y-152275890D01*
X95983081Y-152275890D02*
X95983081Y-150775890D01*
X95983081Y-150775890D02*
X96697367Y-150775890D01*
X97625939Y-150775890D02*
X97911653Y-150775890D01*
X97911653Y-150775890D02*
X98054510Y-150847319D01*
X98054510Y-150847319D02*
X98197367Y-150990176D01*
X98197367Y-150990176D02*
X98268796Y-151275890D01*
X98268796Y-151275890D02*
X98268796Y-151775890D01*
X98268796Y-151775890D02*
X98197367Y-152061604D01*
X98197367Y-152061604D02*
X98054510Y-152204462D01*
X98054510Y-152204462D02*
X97911653Y-152275890D01*
X97911653Y-152275890D02*
X97625939Y-152275890D01*
X97625939Y-152275890D02*
X97483082Y-152204462D01*
X97483082Y-152204462D02*
X97340224Y-152061604D01*
X97340224Y-152061604D02*
X97268796Y-151775890D01*
X97268796Y-151775890D02*
X97268796Y-151275890D01*
X97268796Y-151275890D02*
X97340224Y-150990176D01*
X97340224Y-150990176D02*
X97483082Y-150847319D01*
X97483082Y-150847319D02*
X97625939Y-150775890D01*
D12*
X72314819Y-29039523D02*
X73029104Y-29039523D01*
X73029104Y-29039523D02*
X73171961Y-29087142D01*
X73171961Y-29087142D02*
X73267200Y-29182380D01*
X73267200Y-29182380D02*
X73314819Y-29325237D01*
X73314819Y-29325237D02*
X73314819Y-29420475D01*
X73314819Y-28039523D02*
X73314819Y-28610951D01*
X73314819Y-28325237D02*
X72314819Y-28325237D01*
X72314819Y-28325237D02*
X72457676Y-28420475D01*
X72457676Y-28420475D02*
X72552914Y-28515713D01*
X72552914Y-28515713D02*
X72600533Y-28610951D01*
X73314819Y-27563332D02*
X73314819Y-27372856D01*
X73314819Y-27372856D02*
X73267200Y-27277618D01*
X73267200Y-27277618D02*
X73219580Y-27229999D01*
X73219580Y-27229999D02*
X73076723Y-27134761D01*
X73076723Y-27134761D02*
X72886247Y-27087142D01*
X72886247Y-27087142D02*
X72505295Y-27087142D01*
X72505295Y-27087142D02*
X72410057Y-27134761D01*
X72410057Y-27134761D02*
X72362438Y-27182380D01*
X72362438Y-27182380D02*
X72314819Y-27277618D01*
X72314819Y-27277618D02*
X72314819Y-27468094D01*
X72314819Y-27468094D02*
X72362438Y-27563332D01*
X72362438Y-27563332D02*
X72410057Y-27610951D01*
X72410057Y-27610951D02*
X72505295Y-27658570D01*
X72505295Y-27658570D02*
X72743390Y-27658570D01*
X72743390Y-27658570D02*
X72838628Y-27610951D01*
X72838628Y-27610951D02*
X72886247Y-27563332D01*
X72886247Y-27563332D02*
X72933866Y-27468094D01*
X72933866Y-27468094D02*
X72933866Y-27277618D01*
X72933866Y-27277618D02*
X72886247Y-27182380D01*
X72886247Y-27182380D02*
X72838628Y-27134761D01*
X72838628Y-27134761D02*
X72743390Y-27087142D01*
X84413333Y-120954819D02*
X84080000Y-120478628D01*
X83841905Y-120954819D02*
X83841905Y-119954819D01*
X83841905Y-119954819D02*
X84222857Y-119954819D01*
X84222857Y-119954819D02*
X84318095Y-120002438D01*
X84318095Y-120002438D02*
X84365714Y-120050057D01*
X84365714Y-120050057D02*
X84413333Y-120145295D01*
X84413333Y-120145295D02*
X84413333Y-120288152D01*
X84413333Y-120288152D02*
X84365714Y-120383390D01*
X84365714Y-120383390D02*
X84318095Y-120431009D01*
X84318095Y-120431009D02*
X84222857Y-120478628D01*
X84222857Y-120478628D02*
X83841905Y-120478628D01*
X85270476Y-119954819D02*
X85080000Y-119954819D01*
X85080000Y-119954819D02*
X84984762Y-120002438D01*
X84984762Y-120002438D02*
X84937143Y-120050057D01*
X84937143Y-120050057D02*
X84841905Y-120192914D01*
X84841905Y-120192914D02*
X84794286Y-120383390D01*
X84794286Y-120383390D02*
X84794286Y-120764342D01*
X84794286Y-120764342D02*
X84841905Y-120859580D01*
X84841905Y-120859580D02*
X84889524Y-120907200D01*
X84889524Y-120907200D02*
X84984762Y-120954819D01*
X84984762Y-120954819D02*
X85175238Y-120954819D01*
X85175238Y-120954819D02*
X85270476Y-120907200D01*
X85270476Y-120907200D02*
X85318095Y-120859580D01*
X85318095Y-120859580D02*
X85365714Y-120764342D01*
X85365714Y-120764342D02*
X85365714Y-120526247D01*
X85365714Y-120526247D02*
X85318095Y-120431009D01*
X85318095Y-120431009D02*
X85270476Y-120383390D01*
X85270476Y-120383390D02*
X85175238Y-120335771D01*
X85175238Y-120335771D02*
X84984762Y-120335771D01*
X84984762Y-120335771D02*
X84889524Y-120383390D01*
X84889524Y-120383390D02*
X84841905Y-120431009D01*
X84841905Y-120431009D02*
X84794286Y-120526247D01*
X77166931Y-118492137D02*
X77214551Y-118539756D01*
X77214551Y-118539756D02*
X77262170Y-118682613D01*
X77262170Y-118682613D02*
X77262170Y-118777851D01*
X77262170Y-118777851D02*
X77214551Y-118920708D01*
X77214551Y-118920708D02*
X77119312Y-119015946D01*
X77119312Y-119015946D02*
X77024074Y-119063565D01*
X77024074Y-119063565D02*
X76833598Y-119111184D01*
X76833598Y-119111184D02*
X76690741Y-119111184D01*
X76690741Y-119111184D02*
X76500265Y-119063565D01*
X76500265Y-119063565D02*
X76405027Y-119015946D01*
X76405027Y-119015946D02*
X76309789Y-118920708D01*
X76309789Y-118920708D02*
X76262170Y-118777851D01*
X76262170Y-118777851D02*
X76262170Y-118682613D01*
X76262170Y-118682613D02*
X76309789Y-118539756D01*
X76309789Y-118539756D02*
X76357408Y-118492137D01*
X76690741Y-117920708D02*
X76643122Y-118015946D01*
X76643122Y-118015946D02*
X76595503Y-118063565D01*
X76595503Y-118063565D02*
X76500265Y-118111184D01*
X76500265Y-118111184D02*
X76452646Y-118111184D01*
X76452646Y-118111184D02*
X76357408Y-118063565D01*
X76357408Y-118063565D02*
X76309789Y-118015946D01*
X76309789Y-118015946D02*
X76262170Y-117920708D01*
X76262170Y-117920708D02*
X76262170Y-117730232D01*
X76262170Y-117730232D02*
X76309789Y-117634994D01*
X76309789Y-117634994D02*
X76357408Y-117587375D01*
X76357408Y-117587375D02*
X76452646Y-117539756D01*
X76452646Y-117539756D02*
X76500265Y-117539756D01*
X76500265Y-117539756D02*
X76595503Y-117587375D01*
X76595503Y-117587375D02*
X76643122Y-117634994D01*
X76643122Y-117634994D02*
X76690741Y-117730232D01*
X76690741Y-117730232D02*
X76690741Y-117920708D01*
X76690741Y-117920708D02*
X76738360Y-118015946D01*
X76738360Y-118015946D02*
X76785979Y-118063565D01*
X76785979Y-118063565D02*
X76881217Y-118111184D01*
X76881217Y-118111184D02*
X77071693Y-118111184D01*
X77071693Y-118111184D02*
X77166931Y-118063565D01*
X77166931Y-118063565D02*
X77214551Y-118015946D01*
X77214551Y-118015946D02*
X77262170Y-117920708D01*
X77262170Y-117920708D02*
X77262170Y-117730232D01*
X77262170Y-117730232D02*
X77214551Y-117634994D01*
X77214551Y-117634994D02*
X77166931Y-117587375D01*
X77166931Y-117587375D02*
X77071693Y-117539756D01*
X77071693Y-117539756D02*
X76881217Y-117539756D01*
X76881217Y-117539756D02*
X76785979Y-117587375D01*
X76785979Y-117587375D02*
X76738360Y-117634994D01*
X76738360Y-117634994D02*
X76690741Y-117730232D01*
D11*
X77666667Y-163409800D02*
X77809524Y-163457419D01*
X77809524Y-163457419D02*
X78047619Y-163457419D01*
X78047619Y-163457419D02*
X78142857Y-163409800D01*
X78142857Y-163409800D02*
X78190476Y-163362180D01*
X78190476Y-163362180D02*
X78238095Y-163266942D01*
X78238095Y-163266942D02*
X78238095Y-163171704D01*
X78238095Y-163171704D02*
X78190476Y-163076466D01*
X78190476Y-163076466D02*
X78142857Y-163028847D01*
X78142857Y-163028847D02*
X78047619Y-162981228D01*
X78047619Y-162981228D02*
X77857143Y-162933609D01*
X77857143Y-162933609D02*
X77761905Y-162885990D01*
X77761905Y-162885990D02*
X77714286Y-162838371D01*
X77714286Y-162838371D02*
X77666667Y-162743133D01*
X77666667Y-162743133D02*
X77666667Y-162647895D01*
X77666667Y-162647895D02*
X77714286Y-162552657D01*
X77714286Y-162552657D02*
X77761905Y-162505038D01*
X77761905Y-162505038D02*
X77857143Y-162457419D01*
X77857143Y-162457419D02*
X78095238Y-162457419D01*
X78095238Y-162457419D02*
X78238095Y-162505038D01*
X78571429Y-162457419D02*
X78809524Y-163457419D01*
X78809524Y-163457419D02*
X79000000Y-162743133D01*
X79000000Y-162743133D02*
X79190476Y-163457419D01*
X79190476Y-163457419D02*
X79428572Y-162457419D01*
X80333333Y-163457419D02*
X79761905Y-163457419D01*
X80047619Y-163457419D02*
X80047619Y-162457419D01*
X80047619Y-162457419D02*
X79952381Y-162600276D01*
X79952381Y-162600276D02*
X79857143Y-162695514D01*
X79857143Y-162695514D02*
X79761905Y-162743133D01*
X55746666Y-43457419D02*
X55746666Y-44171704D01*
X55746666Y-44171704D02*
X55699047Y-44314561D01*
X55699047Y-44314561D02*
X55603809Y-44409800D01*
X55603809Y-44409800D02*
X55460952Y-44457419D01*
X55460952Y-44457419D02*
X55365714Y-44457419D01*
X56175238Y-43552657D02*
X56222857Y-43505038D01*
X56222857Y-43505038D02*
X56318095Y-43457419D01*
X56318095Y-43457419D02*
X56556190Y-43457419D01*
X56556190Y-43457419D02*
X56651428Y-43505038D01*
X56651428Y-43505038D02*
X56699047Y-43552657D01*
X56699047Y-43552657D02*
X56746666Y-43647895D01*
X56746666Y-43647895D02*
X56746666Y-43743133D01*
X56746666Y-43743133D02*
X56699047Y-43885990D01*
X56699047Y-43885990D02*
X56127619Y-44457419D01*
X56127619Y-44457419D02*
X56746666Y-44457419D01*
D12*
X37253333Y-116859580D02*
X37205714Y-116907200D01*
X37205714Y-116907200D02*
X37062857Y-116954819D01*
X37062857Y-116954819D02*
X36967619Y-116954819D01*
X36967619Y-116954819D02*
X36824762Y-116907200D01*
X36824762Y-116907200D02*
X36729524Y-116811961D01*
X36729524Y-116811961D02*
X36681905Y-116716723D01*
X36681905Y-116716723D02*
X36634286Y-116526247D01*
X36634286Y-116526247D02*
X36634286Y-116383390D01*
X36634286Y-116383390D02*
X36681905Y-116192914D01*
X36681905Y-116192914D02*
X36729524Y-116097676D01*
X36729524Y-116097676D02*
X36824762Y-116002438D01*
X36824762Y-116002438D02*
X36967619Y-115954819D01*
X36967619Y-115954819D02*
X37062857Y-115954819D01*
X37062857Y-115954819D02*
X37205714Y-116002438D01*
X37205714Y-116002438D02*
X37253333Y-116050057D01*
X37634286Y-116050057D02*
X37681905Y-116002438D01*
X37681905Y-116002438D02*
X37777143Y-115954819D01*
X37777143Y-115954819D02*
X38015238Y-115954819D01*
X38015238Y-115954819D02*
X38110476Y-116002438D01*
X38110476Y-116002438D02*
X38158095Y-116050057D01*
X38158095Y-116050057D02*
X38205714Y-116145295D01*
X38205714Y-116145295D02*
X38205714Y-116240533D01*
X38205714Y-116240533D02*
X38158095Y-116383390D01*
X38158095Y-116383390D02*
X37586667Y-116954819D01*
X37586667Y-116954819D02*
X38205714Y-116954819D01*
X37253333Y-120359580D02*
X37205714Y-120407200D01*
X37205714Y-120407200D02*
X37062857Y-120454819D01*
X37062857Y-120454819D02*
X36967619Y-120454819D01*
X36967619Y-120454819D02*
X36824762Y-120407200D01*
X36824762Y-120407200D02*
X36729524Y-120311961D01*
X36729524Y-120311961D02*
X36681905Y-120216723D01*
X36681905Y-120216723D02*
X36634286Y-120026247D01*
X36634286Y-120026247D02*
X36634286Y-119883390D01*
X36634286Y-119883390D02*
X36681905Y-119692914D01*
X36681905Y-119692914D02*
X36729524Y-119597676D01*
X36729524Y-119597676D02*
X36824762Y-119502438D01*
X36824762Y-119502438D02*
X36967619Y-119454819D01*
X36967619Y-119454819D02*
X37062857Y-119454819D01*
X37062857Y-119454819D02*
X37205714Y-119502438D01*
X37205714Y-119502438D02*
X37253333Y-119550057D01*
X37586667Y-119454819D02*
X38205714Y-119454819D01*
X38205714Y-119454819D02*
X37872381Y-119835771D01*
X37872381Y-119835771D02*
X38015238Y-119835771D01*
X38015238Y-119835771D02*
X38110476Y-119883390D01*
X38110476Y-119883390D02*
X38158095Y-119931009D01*
X38158095Y-119931009D02*
X38205714Y-120026247D01*
X38205714Y-120026247D02*
X38205714Y-120264342D01*
X38205714Y-120264342D02*
X38158095Y-120359580D01*
X38158095Y-120359580D02*
X38110476Y-120407200D01*
X38110476Y-120407200D02*
X38015238Y-120454819D01*
X38015238Y-120454819D02*
X37729524Y-120454819D01*
X37729524Y-120454819D02*
X37634286Y-120407200D01*
X37634286Y-120407200D02*
X37586667Y-120359580D01*
X37333333Y-113359580D02*
X37285714Y-113407200D01*
X37285714Y-113407200D02*
X37142857Y-113454819D01*
X37142857Y-113454819D02*
X37047619Y-113454819D01*
X37047619Y-113454819D02*
X36904762Y-113407200D01*
X36904762Y-113407200D02*
X36809524Y-113311961D01*
X36809524Y-113311961D02*
X36761905Y-113216723D01*
X36761905Y-113216723D02*
X36714286Y-113026247D01*
X36714286Y-113026247D02*
X36714286Y-112883390D01*
X36714286Y-112883390D02*
X36761905Y-112692914D01*
X36761905Y-112692914D02*
X36809524Y-112597676D01*
X36809524Y-112597676D02*
X36904762Y-112502438D01*
X36904762Y-112502438D02*
X37047619Y-112454819D01*
X37047619Y-112454819D02*
X37142857Y-112454819D01*
X37142857Y-112454819D02*
X37285714Y-112502438D01*
X37285714Y-112502438D02*
X37333333Y-112550057D01*
X38285714Y-113454819D02*
X37714286Y-113454819D01*
X38000000Y-113454819D02*
X38000000Y-112454819D01*
X38000000Y-112454819D02*
X37904762Y-112597676D01*
X37904762Y-112597676D02*
X37809524Y-112692914D01*
X37809524Y-112692914D02*
X37714286Y-112740533D01*
D11*
X37666666Y-63457419D02*
X37666666Y-64171704D01*
X37666666Y-64171704D02*
X37619047Y-64314561D01*
X37619047Y-64314561D02*
X37523809Y-64409800D01*
X37523809Y-64409800D02*
X37380952Y-64457419D01*
X37380952Y-64457419D02*
X37285714Y-64457419D01*
X38047619Y-63457419D02*
X38666666Y-63457419D01*
X38666666Y-63457419D02*
X38333333Y-63838371D01*
X38333333Y-63838371D02*
X38476190Y-63838371D01*
X38476190Y-63838371D02*
X38571428Y-63885990D01*
X38571428Y-63885990D02*
X38619047Y-63933609D01*
X38619047Y-63933609D02*
X38666666Y-64028847D01*
X38666666Y-64028847D02*
X38666666Y-64266942D01*
X38666666Y-64266942D02*
X38619047Y-64362180D01*
X38619047Y-64362180D02*
X38571428Y-64409800D01*
X38571428Y-64409800D02*
X38476190Y-64457419D01*
X38476190Y-64457419D02*
X38190476Y-64457419D01*
X38190476Y-64457419D02*
X38095238Y-64409800D01*
X38095238Y-64409800D02*
X38047619Y-64362180D01*
X77730476Y-67757419D02*
X77730476Y-68471704D01*
X77730476Y-68471704D02*
X77682857Y-68614561D01*
X77682857Y-68614561D02*
X77587619Y-68709800D01*
X77587619Y-68709800D02*
X77444762Y-68757419D01*
X77444762Y-68757419D02*
X77349524Y-68757419D01*
X78730476Y-68757419D02*
X78159048Y-68757419D01*
X78444762Y-68757419D02*
X78444762Y-67757419D01*
X78444762Y-67757419D02*
X78349524Y-67900276D01*
X78349524Y-67900276D02*
X78254286Y-67995514D01*
X78254286Y-67995514D02*
X78159048Y-68043133D01*
X79349524Y-67757419D02*
X79444762Y-67757419D01*
X79444762Y-67757419D02*
X79540000Y-67805038D01*
X79540000Y-67805038D02*
X79587619Y-67852657D01*
X79587619Y-67852657D02*
X79635238Y-67947895D01*
X79635238Y-67947895D02*
X79682857Y-68138371D01*
X79682857Y-68138371D02*
X79682857Y-68376466D01*
X79682857Y-68376466D02*
X79635238Y-68566942D01*
X79635238Y-68566942D02*
X79587619Y-68662180D01*
X79587619Y-68662180D02*
X79540000Y-68709800D01*
X79540000Y-68709800D02*
X79444762Y-68757419D01*
X79444762Y-68757419D02*
X79349524Y-68757419D01*
X79349524Y-68757419D02*
X79254286Y-68709800D01*
X79254286Y-68709800D02*
X79206667Y-68662180D01*
X79206667Y-68662180D02*
X79159048Y-68566942D01*
X79159048Y-68566942D02*
X79111429Y-68376466D01*
X79111429Y-68376466D02*
X79111429Y-68138371D01*
X79111429Y-68138371D02*
X79159048Y-67947895D01*
X79159048Y-67947895D02*
X79206667Y-67852657D01*
X79206667Y-67852657D02*
X79254286Y-67805038D01*
X79254286Y-67805038D02*
X79349524Y-67757419D01*
X62190476Y-150432481D02*
X62190476Y-151146766D01*
X62190476Y-151146766D02*
X62142857Y-151289623D01*
X62142857Y-151289623D02*
X62047619Y-151384862D01*
X62047619Y-151384862D02*
X61904762Y-151432481D01*
X61904762Y-151432481D02*
X61809524Y-151432481D01*
X63190476Y-151432481D02*
X62619048Y-151432481D01*
X62904762Y-151432481D02*
X62904762Y-150432481D01*
X62904762Y-150432481D02*
X62809524Y-150575338D01*
X62809524Y-150575338D02*
X62714286Y-150670576D01*
X62714286Y-150670576D02*
X62619048Y-150718195D01*
X63523810Y-150432481D02*
X64190476Y-150432481D01*
X64190476Y-150432481D02*
X63761905Y-151432481D01*
X37666666Y-39457419D02*
X37666666Y-40171704D01*
X37666666Y-40171704D02*
X37619047Y-40314561D01*
X37619047Y-40314561D02*
X37523809Y-40409800D01*
X37523809Y-40409800D02*
X37380952Y-40457419D01*
X37380952Y-40457419D02*
X37285714Y-40457419D01*
X38666666Y-40457419D02*
X38095238Y-40457419D01*
X38380952Y-40457419D02*
X38380952Y-39457419D01*
X38380952Y-39457419D02*
X38285714Y-39600276D01*
X38285714Y-39600276D02*
X38190476Y-39695514D01*
X38190476Y-39695514D02*
X38095238Y-39743133D01*
D12*
X58343054Y-115827434D02*
X58390674Y-115875053D01*
X58390674Y-115875053D02*
X58438293Y-116017910D01*
X58438293Y-116017910D02*
X58438293Y-116113148D01*
X58438293Y-116113148D02*
X58390674Y-116256005D01*
X58390674Y-116256005D02*
X58295435Y-116351243D01*
X58295435Y-116351243D02*
X58200197Y-116398862D01*
X58200197Y-116398862D02*
X58009721Y-116446481D01*
X58009721Y-116446481D02*
X57866864Y-116446481D01*
X57866864Y-116446481D02*
X57676388Y-116398862D01*
X57676388Y-116398862D02*
X57581150Y-116351243D01*
X57581150Y-116351243D02*
X57485912Y-116256005D01*
X57485912Y-116256005D02*
X57438293Y-116113148D01*
X57438293Y-116113148D02*
X57438293Y-116017910D01*
X57438293Y-116017910D02*
X57485912Y-115875053D01*
X57485912Y-115875053D02*
X57533531Y-115827434D01*
X57438293Y-115494100D02*
X57438293Y-114827434D01*
X57438293Y-114827434D02*
X58438293Y-115256005D01*
X49833333Y-116954819D02*
X49500000Y-116478628D01*
X49261905Y-116954819D02*
X49261905Y-115954819D01*
X49261905Y-115954819D02*
X49642857Y-115954819D01*
X49642857Y-115954819D02*
X49738095Y-116002438D01*
X49738095Y-116002438D02*
X49785714Y-116050057D01*
X49785714Y-116050057D02*
X49833333Y-116145295D01*
X49833333Y-116145295D02*
X49833333Y-116288152D01*
X49833333Y-116288152D02*
X49785714Y-116383390D01*
X49785714Y-116383390D02*
X49738095Y-116431009D01*
X49738095Y-116431009D02*
X49642857Y-116478628D01*
X49642857Y-116478628D02*
X49261905Y-116478628D01*
X50214286Y-116050057D02*
X50261905Y-116002438D01*
X50261905Y-116002438D02*
X50357143Y-115954819D01*
X50357143Y-115954819D02*
X50595238Y-115954819D01*
X50595238Y-115954819D02*
X50690476Y-116002438D01*
X50690476Y-116002438D02*
X50738095Y-116050057D01*
X50738095Y-116050057D02*
X50785714Y-116145295D01*
X50785714Y-116145295D02*
X50785714Y-116240533D01*
X50785714Y-116240533D02*
X50738095Y-116383390D01*
X50738095Y-116383390D02*
X50166667Y-116954819D01*
X50166667Y-116954819D02*
X50785714Y-116954819D01*
X73277142Y-157429881D02*
X72943809Y-156953690D01*
X72705714Y-157429881D02*
X72705714Y-156429881D01*
X72705714Y-156429881D02*
X73086666Y-156429881D01*
X73086666Y-156429881D02*
X73181904Y-156477500D01*
X73181904Y-156477500D02*
X73229523Y-156525119D01*
X73229523Y-156525119D02*
X73277142Y-156620357D01*
X73277142Y-156620357D02*
X73277142Y-156763214D01*
X73277142Y-156763214D02*
X73229523Y-156858452D01*
X73229523Y-156858452D02*
X73181904Y-156906071D01*
X73181904Y-156906071D02*
X73086666Y-156953690D01*
X73086666Y-156953690D02*
X72705714Y-156953690D01*
X74229523Y-157429881D02*
X73658095Y-157429881D01*
X73943809Y-157429881D02*
X73943809Y-156429881D01*
X73943809Y-156429881D02*
X73848571Y-156572738D01*
X73848571Y-156572738D02*
X73753333Y-156667976D01*
X73753333Y-156667976D02*
X73658095Y-156715595D01*
X74848571Y-156429881D02*
X74943809Y-156429881D01*
X74943809Y-156429881D02*
X75039047Y-156477500D01*
X75039047Y-156477500D02*
X75086666Y-156525119D01*
X75086666Y-156525119D02*
X75134285Y-156620357D01*
X75134285Y-156620357D02*
X75181904Y-156810833D01*
X75181904Y-156810833D02*
X75181904Y-157048928D01*
X75181904Y-157048928D02*
X75134285Y-157239404D01*
X75134285Y-157239404D02*
X75086666Y-157334642D01*
X75086666Y-157334642D02*
X75039047Y-157382262D01*
X75039047Y-157382262D02*
X74943809Y-157429881D01*
X74943809Y-157429881D02*
X74848571Y-157429881D01*
X74848571Y-157429881D02*
X74753333Y-157382262D01*
X74753333Y-157382262D02*
X74705714Y-157334642D01*
X74705714Y-157334642D02*
X74658095Y-157239404D01*
X74658095Y-157239404D02*
X74610476Y-157048928D01*
X74610476Y-157048928D02*
X74610476Y-156810833D01*
X74610476Y-156810833D02*
X74658095Y-156620357D01*
X74658095Y-156620357D02*
X74705714Y-156525119D01*
X74705714Y-156525119D02*
X74753333Y-156477500D01*
X74753333Y-156477500D02*
X74848571Y-156429881D01*
D11*
X55706666Y-92457419D02*
X55706666Y-93171704D01*
X55706666Y-93171704D02*
X55659047Y-93314561D01*
X55659047Y-93314561D02*
X55563809Y-93409800D01*
X55563809Y-93409800D02*
X55420952Y-93457419D01*
X55420952Y-93457419D02*
X55325714Y-93457419D01*
X56611428Y-92457419D02*
X56420952Y-92457419D01*
X56420952Y-92457419D02*
X56325714Y-92505038D01*
X56325714Y-92505038D02*
X56278095Y-92552657D01*
X56278095Y-92552657D02*
X56182857Y-92695514D01*
X56182857Y-92695514D02*
X56135238Y-92885990D01*
X56135238Y-92885990D02*
X56135238Y-93266942D01*
X56135238Y-93266942D02*
X56182857Y-93362180D01*
X56182857Y-93362180D02*
X56230476Y-93409800D01*
X56230476Y-93409800D02*
X56325714Y-93457419D01*
X56325714Y-93457419D02*
X56516190Y-93457419D01*
X56516190Y-93457419D02*
X56611428Y-93409800D01*
X56611428Y-93409800D02*
X56659047Y-93362180D01*
X56659047Y-93362180D02*
X56706666Y-93266942D01*
X56706666Y-93266942D02*
X56706666Y-93028847D01*
X56706666Y-93028847D02*
X56659047Y-92933609D01*
X56659047Y-92933609D02*
X56611428Y-92885990D01*
X56611428Y-92885990D02*
X56516190Y-92838371D01*
X56516190Y-92838371D02*
X56325714Y-92838371D01*
X56325714Y-92838371D02*
X56230476Y-92885990D01*
X56230476Y-92885990D02*
X56182857Y-92933609D01*
X56182857Y-92933609D02*
X56135238Y-93028847D01*
X37270476Y-129957419D02*
X37270476Y-130671704D01*
X37270476Y-130671704D02*
X37222857Y-130814561D01*
X37222857Y-130814561D02*
X37127619Y-130909800D01*
X37127619Y-130909800D02*
X36984762Y-130957419D01*
X36984762Y-130957419D02*
X36889524Y-130957419D01*
X38270476Y-130957419D02*
X37699048Y-130957419D01*
X37984762Y-130957419D02*
X37984762Y-129957419D01*
X37984762Y-129957419D02*
X37889524Y-130100276D01*
X37889524Y-130100276D02*
X37794286Y-130195514D01*
X37794286Y-130195514D02*
X37699048Y-130243133D01*
X39127619Y-130290752D02*
X39127619Y-130957419D01*
X38889524Y-129909800D02*
X38651429Y-130624085D01*
X38651429Y-130624085D02*
X39270476Y-130624085D01*
D12*
X66738095Y-110454819D02*
X66738095Y-111264342D01*
X66738095Y-111264342D02*
X66785714Y-111359580D01*
X66785714Y-111359580D02*
X66833333Y-111407200D01*
X66833333Y-111407200D02*
X66928571Y-111454819D01*
X66928571Y-111454819D02*
X67119047Y-111454819D01*
X67119047Y-111454819D02*
X67214285Y-111407200D01*
X67214285Y-111407200D02*
X67261904Y-111359580D01*
X67261904Y-111359580D02*
X67309523Y-111264342D01*
X67309523Y-111264342D02*
X67309523Y-110454819D01*
X68309523Y-111454819D02*
X67738095Y-111454819D01*
X68023809Y-111454819D02*
X68023809Y-110454819D01*
X68023809Y-110454819D02*
X67928571Y-110597676D01*
X67928571Y-110597676D02*
X67833333Y-110692914D01*
X67833333Y-110692914D02*
X67738095Y-110740533D01*
D11*
X96166666Y-63457419D02*
X96166666Y-64171704D01*
X96166666Y-64171704D02*
X96119047Y-64314561D01*
X96119047Y-64314561D02*
X96023809Y-64409800D01*
X96023809Y-64409800D02*
X95880952Y-64457419D01*
X95880952Y-64457419D02*
X95785714Y-64457419D01*
X96690476Y-64457419D02*
X96880952Y-64457419D01*
X96880952Y-64457419D02*
X96976190Y-64409800D01*
X96976190Y-64409800D02*
X97023809Y-64362180D01*
X97023809Y-64362180D02*
X97119047Y-64219323D01*
X97119047Y-64219323D02*
X97166666Y-64028847D01*
X97166666Y-64028847D02*
X97166666Y-63647895D01*
X97166666Y-63647895D02*
X97119047Y-63552657D01*
X97119047Y-63552657D02*
X97071428Y-63505038D01*
X97071428Y-63505038D02*
X96976190Y-63457419D01*
X96976190Y-63457419D02*
X96785714Y-63457419D01*
X96785714Y-63457419D02*
X96690476Y-63505038D01*
X96690476Y-63505038D02*
X96642857Y-63552657D01*
X96642857Y-63552657D02*
X96595238Y-63647895D01*
X96595238Y-63647895D02*
X96595238Y-63885990D01*
X96595238Y-63885990D02*
X96642857Y-63981228D01*
X96642857Y-63981228D02*
X96690476Y-64028847D01*
X96690476Y-64028847D02*
X96785714Y-64076466D01*
X96785714Y-64076466D02*
X96976190Y-64076466D01*
X96976190Y-64076466D02*
X97071428Y-64028847D01*
X97071428Y-64028847D02*
X97119047Y-63981228D01*
X97119047Y-63981228D02*
X97166666Y-63885990D01*
X78246666Y-43457419D02*
X78246666Y-44171704D01*
X78246666Y-44171704D02*
X78199047Y-44314561D01*
X78199047Y-44314561D02*
X78103809Y-44409800D01*
X78103809Y-44409800D02*
X77960952Y-44457419D01*
X77960952Y-44457419D02*
X77865714Y-44457419D01*
X78865714Y-43885990D02*
X78770476Y-43838371D01*
X78770476Y-43838371D02*
X78722857Y-43790752D01*
X78722857Y-43790752D02*
X78675238Y-43695514D01*
X78675238Y-43695514D02*
X78675238Y-43647895D01*
X78675238Y-43647895D02*
X78722857Y-43552657D01*
X78722857Y-43552657D02*
X78770476Y-43505038D01*
X78770476Y-43505038D02*
X78865714Y-43457419D01*
X78865714Y-43457419D02*
X79056190Y-43457419D01*
X79056190Y-43457419D02*
X79151428Y-43505038D01*
X79151428Y-43505038D02*
X79199047Y-43552657D01*
X79199047Y-43552657D02*
X79246666Y-43647895D01*
X79246666Y-43647895D02*
X79246666Y-43695514D01*
X79246666Y-43695514D02*
X79199047Y-43790752D01*
X79199047Y-43790752D02*
X79151428Y-43838371D01*
X79151428Y-43838371D02*
X79056190Y-43885990D01*
X79056190Y-43885990D02*
X78865714Y-43885990D01*
X78865714Y-43885990D02*
X78770476Y-43933609D01*
X78770476Y-43933609D02*
X78722857Y-43981228D01*
X78722857Y-43981228D02*
X78675238Y-44076466D01*
X78675238Y-44076466D02*
X78675238Y-44266942D01*
X78675238Y-44266942D02*
X78722857Y-44362180D01*
X78722857Y-44362180D02*
X78770476Y-44409800D01*
X78770476Y-44409800D02*
X78865714Y-44457419D01*
X78865714Y-44457419D02*
X79056190Y-44457419D01*
X79056190Y-44457419D02*
X79151428Y-44409800D01*
X79151428Y-44409800D02*
X79199047Y-44362180D01*
X79199047Y-44362180D02*
X79246666Y-44266942D01*
X79246666Y-44266942D02*
X79246666Y-44076466D01*
X79246666Y-44076466D02*
X79199047Y-43981228D01*
X79199047Y-43981228D02*
X79151428Y-43933609D01*
X79151428Y-43933609D02*
X79056190Y-43885990D01*
D12*
X96993333Y-120859580D02*
X96945714Y-120907200D01*
X96945714Y-120907200D02*
X96802857Y-120954819D01*
X96802857Y-120954819D02*
X96707619Y-120954819D01*
X96707619Y-120954819D02*
X96564762Y-120907200D01*
X96564762Y-120907200D02*
X96469524Y-120811961D01*
X96469524Y-120811961D02*
X96421905Y-120716723D01*
X96421905Y-120716723D02*
X96374286Y-120526247D01*
X96374286Y-120526247D02*
X96374286Y-120383390D01*
X96374286Y-120383390D02*
X96421905Y-120192914D01*
X96421905Y-120192914D02*
X96469524Y-120097676D01*
X96469524Y-120097676D02*
X96564762Y-120002438D01*
X96564762Y-120002438D02*
X96707619Y-119954819D01*
X96707619Y-119954819D02*
X96802857Y-119954819D01*
X96802857Y-119954819D02*
X96945714Y-120002438D01*
X96945714Y-120002438D02*
X96993333Y-120050057D01*
X97850476Y-119954819D02*
X97660000Y-119954819D01*
X97660000Y-119954819D02*
X97564762Y-120002438D01*
X97564762Y-120002438D02*
X97517143Y-120050057D01*
X97517143Y-120050057D02*
X97421905Y-120192914D01*
X97421905Y-120192914D02*
X97374286Y-120383390D01*
X97374286Y-120383390D02*
X97374286Y-120764342D01*
X97374286Y-120764342D02*
X97421905Y-120859580D01*
X97421905Y-120859580D02*
X97469524Y-120907200D01*
X97469524Y-120907200D02*
X97564762Y-120954819D01*
X97564762Y-120954819D02*
X97755238Y-120954819D01*
X97755238Y-120954819D02*
X97850476Y-120907200D01*
X97850476Y-120907200D02*
X97898095Y-120859580D01*
X97898095Y-120859580D02*
X97945714Y-120764342D01*
X97945714Y-120764342D02*
X97945714Y-120526247D01*
X97945714Y-120526247D02*
X97898095Y-120431009D01*
X97898095Y-120431009D02*
X97850476Y-120383390D01*
X97850476Y-120383390D02*
X97755238Y-120335771D01*
X97755238Y-120335771D02*
X97564762Y-120335771D01*
X97564762Y-120335771D02*
X97469524Y-120383390D01*
X97469524Y-120383390D02*
X97421905Y-120431009D01*
X97421905Y-120431009D02*
X97374286Y-120526247D01*
D11*
X90404761Y-59457419D02*
X90071428Y-58981228D01*
X89833333Y-59457419D02*
X89833333Y-58457419D01*
X89833333Y-58457419D02*
X90214285Y-58457419D01*
X90214285Y-58457419D02*
X90309523Y-58505038D01*
X90309523Y-58505038D02*
X90357142Y-58552657D01*
X90357142Y-58552657D02*
X90404761Y-58647895D01*
X90404761Y-58647895D02*
X90404761Y-58790752D01*
X90404761Y-58790752D02*
X90357142Y-58885990D01*
X90357142Y-58885990D02*
X90309523Y-58933609D01*
X90309523Y-58933609D02*
X90214285Y-58981228D01*
X90214285Y-58981228D02*
X89833333Y-58981228D01*
X90690476Y-58457419D02*
X91023809Y-59457419D01*
X91023809Y-59457419D02*
X91357142Y-58457419D01*
X92119047Y-58790752D02*
X92119047Y-59457419D01*
X91880952Y-58409800D02*
X91642857Y-59124085D01*
X91642857Y-59124085D02*
X92261904Y-59124085D01*
X55746666Y-67957419D02*
X55746666Y-68671704D01*
X55746666Y-68671704D02*
X55699047Y-68814561D01*
X55699047Y-68814561D02*
X55603809Y-68909800D01*
X55603809Y-68909800D02*
X55460952Y-68957419D01*
X55460952Y-68957419D02*
X55365714Y-68957419D01*
X56651428Y-68290752D02*
X56651428Y-68957419D01*
X56413333Y-67909800D02*
X56175238Y-68624085D01*
X56175238Y-68624085D02*
X56794285Y-68624085D01*
D12*
X96993333Y-117359580D02*
X96945714Y-117407200D01*
X96945714Y-117407200D02*
X96802857Y-117454819D01*
X96802857Y-117454819D02*
X96707619Y-117454819D01*
X96707619Y-117454819D02*
X96564762Y-117407200D01*
X96564762Y-117407200D02*
X96469524Y-117311961D01*
X96469524Y-117311961D02*
X96421905Y-117216723D01*
X96421905Y-117216723D02*
X96374286Y-117026247D01*
X96374286Y-117026247D02*
X96374286Y-116883390D01*
X96374286Y-116883390D02*
X96421905Y-116692914D01*
X96421905Y-116692914D02*
X96469524Y-116597676D01*
X96469524Y-116597676D02*
X96564762Y-116502438D01*
X96564762Y-116502438D02*
X96707619Y-116454819D01*
X96707619Y-116454819D02*
X96802857Y-116454819D01*
X96802857Y-116454819D02*
X96945714Y-116502438D01*
X96945714Y-116502438D02*
X96993333Y-116550057D01*
X97898095Y-116454819D02*
X97421905Y-116454819D01*
X97421905Y-116454819D02*
X97374286Y-116931009D01*
X97374286Y-116931009D02*
X97421905Y-116883390D01*
X97421905Y-116883390D02*
X97517143Y-116835771D01*
X97517143Y-116835771D02*
X97755238Y-116835771D01*
X97755238Y-116835771D02*
X97850476Y-116883390D01*
X97850476Y-116883390D02*
X97898095Y-116931009D01*
X97898095Y-116931009D02*
X97945714Y-117026247D01*
X97945714Y-117026247D02*
X97945714Y-117264342D01*
X97945714Y-117264342D02*
X97898095Y-117359580D01*
X97898095Y-117359580D02*
X97850476Y-117407200D01*
X97850476Y-117407200D02*
X97755238Y-117454819D01*
X97755238Y-117454819D02*
X97517143Y-117454819D01*
X97517143Y-117454819D02*
X97421905Y-117407200D01*
X97421905Y-117407200D02*
X97374286Y-117359580D01*
D11*
X37666666Y-88457419D02*
X37666666Y-89171704D01*
X37666666Y-89171704D02*
X37619047Y-89314561D01*
X37619047Y-89314561D02*
X37523809Y-89409800D01*
X37523809Y-89409800D02*
X37380952Y-89457419D01*
X37380952Y-89457419D02*
X37285714Y-89457419D01*
X38619047Y-88457419D02*
X38142857Y-88457419D01*
X38142857Y-88457419D02*
X38095238Y-88933609D01*
X38095238Y-88933609D02*
X38142857Y-88885990D01*
X38142857Y-88885990D02*
X38238095Y-88838371D01*
X38238095Y-88838371D02*
X38476190Y-88838371D01*
X38476190Y-88838371D02*
X38571428Y-88885990D01*
X38571428Y-88885990D02*
X38619047Y-88933609D01*
X38619047Y-88933609D02*
X38666666Y-89028847D01*
X38666666Y-89028847D02*
X38666666Y-89266942D01*
X38666666Y-89266942D02*
X38619047Y-89362180D01*
X38619047Y-89362180D02*
X38571428Y-89409800D01*
X38571428Y-89409800D02*
X38476190Y-89457419D01*
X38476190Y-89457419D02*
X38238095Y-89457419D01*
X38238095Y-89457419D02*
X38142857Y-89409800D01*
X38142857Y-89409800D02*
X38095238Y-89362180D01*
D12*
X73753333Y-153929881D02*
X73420000Y-153453690D01*
X73181905Y-153929881D02*
X73181905Y-152929881D01*
X73181905Y-152929881D02*
X73562857Y-152929881D01*
X73562857Y-152929881D02*
X73658095Y-152977500D01*
X73658095Y-152977500D02*
X73705714Y-153025119D01*
X73705714Y-153025119D02*
X73753333Y-153120357D01*
X73753333Y-153120357D02*
X73753333Y-153263214D01*
X73753333Y-153263214D02*
X73705714Y-153358452D01*
X73705714Y-153358452D02*
X73658095Y-153406071D01*
X73658095Y-153406071D02*
X73562857Y-153453690D01*
X73562857Y-153453690D02*
X73181905Y-153453690D01*
X74229524Y-153929881D02*
X74420000Y-153929881D01*
X74420000Y-153929881D02*
X74515238Y-153882262D01*
X74515238Y-153882262D02*
X74562857Y-153834642D01*
X74562857Y-153834642D02*
X74658095Y-153691785D01*
X74658095Y-153691785D02*
X74705714Y-153501309D01*
X74705714Y-153501309D02*
X74705714Y-153120357D01*
X74705714Y-153120357D02*
X74658095Y-153025119D01*
X74658095Y-153025119D02*
X74610476Y-152977500D01*
X74610476Y-152977500D02*
X74515238Y-152929881D01*
X74515238Y-152929881D02*
X74324762Y-152929881D01*
X74324762Y-152929881D02*
X74229524Y-152977500D01*
X74229524Y-152977500D02*
X74181905Y-153025119D01*
X74181905Y-153025119D02*
X74134286Y-153120357D01*
X74134286Y-153120357D02*
X74134286Y-153358452D01*
X74134286Y-153358452D02*
X74181905Y-153453690D01*
X74181905Y-153453690D02*
X74229524Y-153501309D01*
X74229524Y-153501309D02*
X74324762Y-153548928D01*
X74324762Y-153548928D02*
X74515238Y-153548928D01*
X74515238Y-153548928D02*
X74610476Y-153501309D01*
X74610476Y-153501309D02*
X74658095Y-153453690D01*
X74658095Y-153453690D02*
X74705714Y-153358452D01*
D11*
X42904761Y-108457419D02*
X42571428Y-107981228D01*
X42333333Y-108457419D02*
X42333333Y-107457419D01*
X42333333Y-107457419D02*
X42714285Y-107457419D01*
X42714285Y-107457419D02*
X42809523Y-107505038D01*
X42809523Y-107505038D02*
X42857142Y-107552657D01*
X42857142Y-107552657D02*
X42904761Y-107647895D01*
X42904761Y-107647895D02*
X42904761Y-107790752D01*
X42904761Y-107790752D02*
X42857142Y-107885990D01*
X42857142Y-107885990D02*
X42809523Y-107933609D01*
X42809523Y-107933609D02*
X42714285Y-107981228D01*
X42714285Y-107981228D02*
X42333333Y-107981228D01*
X43190476Y-107457419D02*
X43523809Y-108457419D01*
X43523809Y-108457419D02*
X43857142Y-107457419D01*
X44095238Y-107457419D02*
X44714285Y-107457419D01*
X44714285Y-107457419D02*
X44380952Y-107838371D01*
X44380952Y-107838371D02*
X44523809Y-107838371D01*
X44523809Y-107838371D02*
X44619047Y-107885990D01*
X44619047Y-107885990D02*
X44666666Y-107933609D01*
X44666666Y-107933609D02*
X44714285Y-108028847D01*
X44714285Y-108028847D02*
X44714285Y-108266942D01*
X44714285Y-108266942D02*
X44666666Y-108362180D01*
X44666666Y-108362180D02*
X44619047Y-108409800D01*
X44619047Y-108409800D02*
X44523809Y-108457419D01*
X44523809Y-108457419D02*
X44238095Y-108457419D01*
X44238095Y-108457419D02*
X44142857Y-108409800D01*
X44142857Y-108409800D02*
X44095238Y-108362180D01*
X42904761Y-148957419D02*
X42571428Y-148481228D01*
X42333333Y-148957419D02*
X42333333Y-147957419D01*
X42333333Y-147957419D02*
X42714285Y-147957419D01*
X42714285Y-147957419D02*
X42809523Y-148005038D01*
X42809523Y-148005038D02*
X42857142Y-148052657D01*
X42857142Y-148052657D02*
X42904761Y-148147895D01*
X42904761Y-148147895D02*
X42904761Y-148290752D01*
X42904761Y-148290752D02*
X42857142Y-148385990D01*
X42857142Y-148385990D02*
X42809523Y-148433609D01*
X42809523Y-148433609D02*
X42714285Y-148481228D01*
X42714285Y-148481228D02*
X42333333Y-148481228D01*
X43190476Y-147957419D02*
X43523809Y-148957419D01*
X43523809Y-148957419D02*
X43857142Y-147957419D01*
X44095238Y-147957419D02*
X44761904Y-147957419D01*
X44761904Y-147957419D02*
X44333333Y-148957419D01*
X90404761Y-108457419D02*
X90071428Y-107981228D01*
X89833333Y-108457419D02*
X89833333Y-107457419D01*
X89833333Y-107457419D02*
X90214285Y-107457419D01*
X90214285Y-107457419D02*
X90309523Y-107505038D01*
X90309523Y-107505038D02*
X90357142Y-107552657D01*
X90357142Y-107552657D02*
X90404761Y-107647895D01*
X90404761Y-107647895D02*
X90404761Y-107790752D01*
X90404761Y-107790752D02*
X90357142Y-107885990D01*
X90357142Y-107885990D02*
X90309523Y-107933609D01*
X90309523Y-107933609D02*
X90214285Y-107981228D01*
X90214285Y-107981228D02*
X89833333Y-107981228D01*
X90690476Y-107457419D02*
X91023809Y-108457419D01*
X91023809Y-108457419D02*
X91357142Y-107457419D01*
X92119047Y-107457419D02*
X91928571Y-107457419D01*
X91928571Y-107457419D02*
X91833333Y-107505038D01*
X91833333Y-107505038D02*
X91785714Y-107552657D01*
X91785714Y-107552657D02*
X91690476Y-107695514D01*
X91690476Y-107695514D02*
X91642857Y-107885990D01*
X91642857Y-107885990D02*
X91642857Y-108266942D01*
X91642857Y-108266942D02*
X91690476Y-108362180D01*
X91690476Y-108362180D02*
X91738095Y-108409800D01*
X91738095Y-108409800D02*
X91833333Y-108457419D01*
X91833333Y-108457419D02*
X92023809Y-108457419D01*
X92023809Y-108457419D02*
X92119047Y-108409800D01*
X92119047Y-108409800D02*
X92166666Y-108362180D01*
X92166666Y-108362180D02*
X92214285Y-108266942D01*
X92214285Y-108266942D02*
X92214285Y-108028847D01*
X92214285Y-108028847D02*
X92166666Y-107933609D01*
X92166666Y-107933609D02*
X92119047Y-107885990D01*
X92119047Y-107885990D02*
X92023809Y-107838371D01*
X92023809Y-107838371D02*
X91833333Y-107838371D01*
X91833333Y-107838371D02*
X91738095Y-107885990D01*
X91738095Y-107885990D02*
X91690476Y-107933609D01*
X91690476Y-107933609D02*
X91642857Y-108028847D01*
X55270476Y-132932481D02*
X55270476Y-133646766D01*
X55270476Y-133646766D02*
X55222857Y-133789623D01*
X55222857Y-133789623D02*
X55127619Y-133884862D01*
X55127619Y-133884862D02*
X54984762Y-133932481D01*
X54984762Y-133932481D02*
X54889524Y-133932481D01*
X56270476Y-133932481D02*
X55699048Y-133932481D01*
X55984762Y-133932481D02*
X55984762Y-132932481D01*
X55984762Y-132932481D02*
X55889524Y-133075338D01*
X55889524Y-133075338D02*
X55794286Y-133170576D01*
X55794286Y-133170576D02*
X55699048Y-133218195D01*
X56603810Y-132932481D02*
X57222857Y-132932481D01*
X57222857Y-132932481D02*
X56889524Y-133313433D01*
X56889524Y-133313433D02*
X57032381Y-133313433D01*
X57032381Y-133313433D02*
X57127619Y-133361052D01*
X57127619Y-133361052D02*
X57175238Y-133408671D01*
X57175238Y-133408671D02*
X57222857Y-133503909D01*
X57222857Y-133503909D02*
X57222857Y-133742004D01*
X57222857Y-133742004D02*
X57175238Y-133837242D01*
X57175238Y-133837242D02*
X57127619Y-133884862D01*
X57127619Y-133884862D02*
X57032381Y-133932481D01*
X57032381Y-133932481D02*
X56746667Y-133932481D01*
X56746667Y-133932481D02*
X56651429Y-133884862D01*
X56651429Y-133884862D02*
X56603810Y-133837242D01*
D12*
X49833333Y-120454819D02*
X49500000Y-119978628D01*
X49261905Y-120454819D02*
X49261905Y-119454819D01*
X49261905Y-119454819D02*
X49642857Y-119454819D01*
X49642857Y-119454819D02*
X49738095Y-119502438D01*
X49738095Y-119502438D02*
X49785714Y-119550057D01*
X49785714Y-119550057D02*
X49833333Y-119645295D01*
X49833333Y-119645295D02*
X49833333Y-119788152D01*
X49833333Y-119788152D02*
X49785714Y-119883390D01*
X49785714Y-119883390D02*
X49738095Y-119931009D01*
X49738095Y-119931009D02*
X49642857Y-119978628D01*
X49642857Y-119978628D02*
X49261905Y-119978628D01*
X50166667Y-119454819D02*
X50785714Y-119454819D01*
X50785714Y-119454819D02*
X50452381Y-119835771D01*
X50452381Y-119835771D02*
X50595238Y-119835771D01*
X50595238Y-119835771D02*
X50690476Y-119883390D01*
X50690476Y-119883390D02*
X50738095Y-119931009D01*
X50738095Y-119931009D02*
X50785714Y-120026247D01*
X50785714Y-120026247D02*
X50785714Y-120264342D01*
X50785714Y-120264342D02*
X50738095Y-120359580D01*
X50738095Y-120359580D02*
X50690476Y-120407200D01*
X50690476Y-120407200D02*
X50595238Y-120454819D01*
X50595238Y-120454819D02*
X50309524Y-120454819D01*
X50309524Y-120454819D02*
X50214286Y-120407200D01*
X50214286Y-120407200D02*
X50166667Y-120359580D01*
X84413333Y-117454819D02*
X84080000Y-116978628D01*
X83841905Y-117454819D02*
X83841905Y-116454819D01*
X83841905Y-116454819D02*
X84222857Y-116454819D01*
X84222857Y-116454819D02*
X84318095Y-116502438D01*
X84318095Y-116502438D02*
X84365714Y-116550057D01*
X84365714Y-116550057D02*
X84413333Y-116645295D01*
X84413333Y-116645295D02*
X84413333Y-116788152D01*
X84413333Y-116788152D02*
X84365714Y-116883390D01*
X84365714Y-116883390D02*
X84318095Y-116931009D01*
X84318095Y-116931009D02*
X84222857Y-116978628D01*
X84222857Y-116978628D02*
X83841905Y-116978628D01*
X85318095Y-116454819D02*
X84841905Y-116454819D01*
X84841905Y-116454819D02*
X84794286Y-116931009D01*
X84794286Y-116931009D02*
X84841905Y-116883390D01*
X84841905Y-116883390D02*
X84937143Y-116835771D01*
X84937143Y-116835771D02*
X85175238Y-116835771D01*
X85175238Y-116835771D02*
X85270476Y-116883390D01*
X85270476Y-116883390D02*
X85318095Y-116931009D01*
X85318095Y-116931009D02*
X85365714Y-117026247D01*
X85365714Y-117026247D02*
X85365714Y-117264342D01*
X85365714Y-117264342D02*
X85318095Y-117359580D01*
X85318095Y-117359580D02*
X85270476Y-117407200D01*
X85270476Y-117407200D02*
X85175238Y-117454819D01*
X85175238Y-117454819D02*
X84937143Y-117454819D01*
X84937143Y-117454819D02*
X84841905Y-117407200D01*
X84841905Y-117407200D02*
X84794286Y-117359580D01*
X43814819Y-29079523D02*
X44529104Y-29079523D01*
X44529104Y-29079523D02*
X44671961Y-29127142D01*
X44671961Y-29127142D02*
X44767200Y-29222380D01*
X44767200Y-29222380D02*
X44814819Y-29365237D01*
X44814819Y-29365237D02*
X44814819Y-29460475D01*
X44814819Y-28079523D02*
X44814819Y-28650951D01*
X44814819Y-28365237D02*
X43814819Y-28365237D01*
X43814819Y-28365237D02*
X43957676Y-28460475D01*
X43957676Y-28460475D02*
X44052914Y-28555713D01*
X44052914Y-28555713D02*
X44100533Y-28650951D01*
X44243390Y-27508094D02*
X44195771Y-27603332D01*
X44195771Y-27603332D02*
X44148152Y-27650951D01*
X44148152Y-27650951D02*
X44052914Y-27698570D01*
X44052914Y-27698570D02*
X44005295Y-27698570D01*
X44005295Y-27698570D02*
X43910057Y-27650951D01*
X43910057Y-27650951D02*
X43862438Y-27603332D01*
X43862438Y-27603332D02*
X43814819Y-27508094D01*
X43814819Y-27508094D02*
X43814819Y-27317618D01*
X43814819Y-27317618D02*
X43862438Y-27222380D01*
X43862438Y-27222380D02*
X43910057Y-27174761D01*
X43910057Y-27174761D02*
X44005295Y-27127142D01*
X44005295Y-27127142D02*
X44052914Y-27127142D01*
X44052914Y-27127142D02*
X44148152Y-27174761D01*
X44148152Y-27174761D02*
X44195771Y-27222380D01*
X44195771Y-27222380D02*
X44243390Y-27317618D01*
X44243390Y-27317618D02*
X44243390Y-27508094D01*
X44243390Y-27508094D02*
X44291009Y-27603332D01*
X44291009Y-27603332D02*
X44338628Y-27650951D01*
X44338628Y-27650951D02*
X44433866Y-27698570D01*
X44433866Y-27698570D02*
X44624342Y-27698570D01*
X44624342Y-27698570D02*
X44719580Y-27650951D01*
X44719580Y-27650951D02*
X44767200Y-27603332D01*
X44767200Y-27603332D02*
X44814819Y-27508094D01*
X44814819Y-27508094D02*
X44814819Y-27317618D01*
X44814819Y-27317618D02*
X44767200Y-27222380D01*
X44767200Y-27222380D02*
X44719580Y-27174761D01*
X44719580Y-27174761D02*
X44624342Y-27127142D01*
X44624342Y-27127142D02*
X44433866Y-27127142D01*
X44433866Y-27127142D02*
X44338628Y-27174761D01*
X44338628Y-27174761D02*
X44291009Y-27222380D01*
X44291009Y-27222380D02*
X44243390Y-27317618D01*
D11*
X77770476Y-92457419D02*
X77770476Y-93171704D01*
X77770476Y-93171704D02*
X77722857Y-93314561D01*
X77722857Y-93314561D02*
X77627619Y-93409800D01*
X77627619Y-93409800D02*
X77484762Y-93457419D01*
X77484762Y-93457419D02*
X77389524Y-93457419D01*
X78770476Y-93457419D02*
X78199048Y-93457419D01*
X78484762Y-93457419D02*
X78484762Y-92457419D01*
X78484762Y-92457419D02*
X78389524Y-92600276D01*
X78389524Y-92600276D02*
X78294286Y-92695514D01*
X78294286Y-92695514D02*
X78199048Y-92743133D01*
X79151429Y-92552657D02*
X79199048Y-92505038D01*
X79199048Y-92505038D02*
X79294286Y-92457419D01*
X79294286Y-92457419D02*
X79532381Y-92457419D01*
X79532381Y-92457419D02*
X79627619Y-92505038D01*
X79627619Y-92505038D02*
X79675238Y-92552657D01*
X79675238Y-92552657D02*
X79722857Y-92647895D01*
X79722857Y-92647895D02*
X79722857Y-92743133D01*
X79722857Y-92743133D02*
X79675238Y-92885990D01*
X79675238Y-92885990D02*
X79103810Y-93457419D01*
X79103810Y-93457419D02*
X79722857Y-93457419D01*
D12*
X37913333Y-124454819D02*
X37580000Y-123978628D01*
X37341905Y-124454819D02*
X37341905Y-123454819D01*
X37341905Y-123454819D02*
X37722857Y-123454819D01*
X37722857Y-123454819D02*
X37818095Y-123502438D01*
X37818095Y-123502438D02*
X37865714Y-123550057D01*
X37865714Y-123550057D02*
X37913333Y-123645295D01*
X37913333Y-123645295D02*
X37913333Y-123788152D01*
X37913333Y-123788152D02*
X37865714Y-123883390D01*
X37865714Y-123883390D02*
X37818095Y-123931009D01*
X37818095Y-123931009D02*
X37722857Y-123978628D01*
X37722857Y-123978628D02*
X37341905Y-123978628D01*
X38246667Y-123454819D02*
X38913333Y-123454819D01*
X38913333Y-123454819D02*
X38484762Y-124454819D01*
D11*
X95690476Y-88457419D02*
X95690476Y-89171704D01*
X95690476Y-89171704D02*
X95642857Y-89314561D01*
X95642857Y-89314561D02*
X95547619Y-89409800D01*
X95547619Y-89409800D02*
X95404762Y-89457419D01*
X95404762Y-89457419D02*
X95309524Y-89457419D01*
X96690476Y-89457419D02*
X96119048Y-89457419D01*
X96404762Y-89457419D02*
X96404762Y-88457419D01*
X96404762Y-88457419D02*
X96309524Y-88600276D01*
X96309524Y-88600276D02*
X96214286Y-88695514D01*
X96214286Y-88695514D02*
X96119048Y-88743133D01*
X97642857Y-89457419D02*
X97071429Y-89457419D01*
X97357143Y-89457419D02*
X97357143Y-88457419D01*
X97357143Y-88457419D02*
X97261905Y-88600276D01*
X97261905Y-88600276D02*
X97166667Y-88695514D01*
X97166667Y-88695514D02*
X97071429Y-88743133D01*
X95770476Y-129957419D02*
X95770476Y-130671704D01*
X95770476Y-130671704D02*
X95722857Y-130814561D01*
X95722857Y-130814561D02*
X95627619Y-130909800D01*
X95627619Y-130909800D02*
X95484762Y-130957419D01*
X95484762Y-130957419D02*
X95389524Y-130957419D01*
X96770476Y-130957419D02*
X96199048Y-130957419D01*
X96484762Y-130957419D02*
X96484762Y-129957419D01*
X96484762Y-129957419D02*
X96389524Y-130100276D01*
X96389524Y-130100276D02*
X96294286Y-130195514D01*
X96294286Y-130195514D02*
X96199048Y-130243133D01*
X97627619Y-129957419D02*
X97437143Y-129957419D01*
X97437143Y-129957419D02*
X97341905Y-130005038D01*
X97341905Y-130005038D02*
X97294286Y-130052657D01*
X97294286Y-130052657D02*
X97199048Y-130195514D01*
X97199048Y-130195514D02*
X97151429Y-130385990D01*
X97151429Y-130385990D02*
X97151429Y-130766942D01*
X97151429Y-130766942D02*
X97199048Y-130862180D01*
X97199048Y-130862180D02*
X97246667Y-130909800D01*
X97246667Y-130909800D02*
X97341905Y-130957419D01*
X97341905Y-130957419D02*
X97532381Y-130957419D01*
X97532381Y-130957419D02*
X97627619Y-130909800D01*
X97627619Y-130909800D02*
X97675238Y-130862180D01*
X97675238Y-130862180D02*
X97722857Y-130766942D01*
X97722857Y-130766942D02*
X97722857Y-130528847D01*
X97722857Y-130528847D02*
X97675238Y-130433609D01*
X97675238Y-130433609D02*
X97627619Y-130385990D01*
X97627619Y-130385990D02*
X97532381Y-130338371D01*
X97532381Y-130338371D02*
X97341905Y-130338371D01*
X97341905Y-130338371D02*
X97246667Y-130385990D01*
X97246667Y-130385990D02*
X97199048Y-130433609D01*
X97199048Y-130433609D02*
X97151429Y-130528847D01*
X96166666Y-39432481D02*
X96166666Y-40146766D01*
X96166666Y-40146766D02*
X96119047Y-40289623D01*
X96119047Y-40289623D02*
X96023809Y-40384862D01*
X96023809Y-40384862D02*
X95880952Y-40432481D01*
X95880952Y-40432481D02*
X95785714Y-40432481D01*
X96547619Y-39432481D02*
X97214285Y-39432481D01*
X97214285Y-39432481D02*
X96785714Y-40432481D01*
D12*
X96993333Y-113859580D02*
X96945714Y-113907200D01*
X96945714Y-113907200D02*
X96802857Y-113954819D01*
X96802857Y-113954819D02*
X96707619Y-113954819D01*
X96707619Y-113954819D02*
X96564762Y-113907200D01*
X96564762Y-113907200D02*
X96469524Y-113811961D01*
X96469524Y-113811961D02*
X96421905Y-113716723D01*
X96421905Y-113716723D02*
X96374286Y-113526247D01*
X96374286Y-113526247D02*
X96374286Y-113383390D01*
X96374286Y-113383390D02*
X96421905Y-113192914D01*
X96421905Y-113192914D02*
X96469524Y-113097676D01*
X96469524Y-113097676D02*
X96564762Y-113002438D01*
X96564762Y-113002438D02*
X96707619Y-112954819D01*
X96707619Y-112954819D02*
X96802857Y-112954819D01*
X96802857Y-112954819D02*
X96945714Y-113002438D01*
X96945714Y-113002438D02*
X96993333Y-113050057D01*
X97850476Y-113288152D02*
X97850476Y-113954819D01*
X97612381Y-112907200D02*
X97374286Y-113621485D01*
X97374286Y-113621485D02*
X97993333Y-113621485D01*
D11*
X77770476Y-132932481D02*
X77770476Y-133646766D01*
X77770476Y-133646766D02*
X77722857Y-133789623D01*
X77722857Y-133789623D02*
X77627619Y-133884862D01*
X77627619Y-133884862D02*
X77484762Y-133932481D01*
X77484762Y-133932481D02*
X77389524Y-133932481D01*
X78770476Y-133932481D02*
X78199048Y-133932481D01*
X78484762Y-133932481D02*
X78484762Y-132932481D01*
X78484762Y-132932481D02*
X78389524Y-133075338D01*
X78389524Y-133075338D02*
X78294286Y-133170576D01*
X78294286Y-133170576D02*
X78199048Y-133218195D01*
X79675238Y-132932481D02*
X79199048Y-132932481D01*
X79199048Y-132932481D02*
X79151429Y-133408671D01*
X79151429Y-133408671D02*
X79199048Y-133361052D01*
X79199048Y-133361052D02*
X79294286Y-133313433D01*
X79294286Y-133313433D02*
X79532381Y-133313433D01*
X79532381Y-133313433D02*
X79627619Y-133361052D01*
X79627619Y-133361052D02*
X79675238Y-133408671D01*
X79675238Y-133408671D02*
X79722857Y-133503909D01*
X79722857Y-133503909D02*
X79722857Y-133742004D01*
X79722857Y-133742004D02*
X79675238Y-133837242D01*
X79675238Y-133837242D02*
X79627619Y-133884862D01*
X79627619Y-133884862D02*
X79532381Y-133932481D01*
X79532381Y-133932481D02*
X79294286Y-133932481D01*
X79294286Y-133932481D02*
X79199048Y-133884862D01*
X79199048Y-133884862D02*
X79151429Y-133837242D01*
X42904761Y-59457419D02*
X42571428Y-58981228D01*
X42333333Y-59457419D02*
X42333333Y-58457419D01*
X42333333Y-58457419D02*
X42714285Y-58457419D01*
X42714285Y-58457419D02*
X42809523Y-58505038D01*
X42809523Y-58505038D02*
X42857142Y-58552657D01*
X42857142Y-58552657D02*
X42904761Y-58647895D01*
X42904761Y-58647895D02*
X42904761Y-58790752D01*
X42904761Y-58790752D02*
X42857142Y-58885990D01*
X42857142Y-58885990D02*
X42809523Y-58933609D01*
X42809523Y-58933609D02*
X42714285Y-58981228D01*
X42714285Y-58981228D02*
X42333333Y-58981228D01*
X43190476Y-58457419D02*
X43523809Y-59457419D01*
X43523809Y-59457419D02*
X43857142Y-58457419D01*
X44714285Y-59457419D02*
X44142857Y-59457419D01*
X44428571Y-59457419D02*
X44428571Y-58457419D01*
X44428571Y-58457419D02*
X44333333Y-58600276D01*
X44333333Y-58600276D02*
X44238095Y-58695514D01*
X44238095Y-58695514D02*
X44142857Y-58743133D01*
X90404761Y-83957419D02*
X90071428Y-83481228D01*
X89833333Y-83957419D02*
X89833333Y-82957419D01*
X89833333Y-82957419D02*
X90214285Y-82957419D01*
X90214285Y-82957419D02*
X90309523Y-83005038D01*
X90309523Y-83005038D02*
X90357142Y-83052657D01*
X90357142Y-83052657D02*
X90404761Y-83147895D01*
X90404761Y-83147895D02*
X90404761Y-83290752D01*
X90404761Y-83290752D02*
X90357142Y-83385990D01*
X90357142Y-83385990D02*
X90309523Y-83433609D01*
X90309523Y-83433609D02*
X90214285Y-83481228D01*
X90214285Y-83481228D02*
X89833333Y-83481228D01*
X90690476Y-82957419D02*
X91023809Y-83957419D01*
X91023809Y-83957419D02*
X91357142Y-82957419D01*
X92166666Y-82957419D02*
X91690476Y-82957419D01*
X91690476Y-82957419D02*
X91642857Y-83433609D01*
X91642857Y-83433609D02*
X91690476Y-83385990D01*
X91690476Y-83385990D02*
X91785714Y-83338371D01*
X91785714Y-83338371D02*
X92023809Y-83338371D01*
X92023809Y-83338371D02*
X92119047Y-83385990D01*
X92119047Y-83385990D02*
X92166666Y-83433609D01*
X92166666Y-83433609D02*
X92214285Y-83528847D01*
X92214285Y-83528847D02*
X92214285Y-83766942D01*
X92214285Y-83766942D02*
X92166666Y-83862180D01*
X92166666Y-83862180D02*
X92119047Y-83909800D01*
X92119047Y-83909800D02*
X92023809Y-83957419D01*
X92023809Y-83957419D02*
X91785714Y-83957419D01*
X91785714Y-83957419D02*
X91690476Y-83909800D01*
X91690476Y-83909800D02*
X91642857Y-83862180D01*
D12*
X49913333Y-113454819D02*
X49580000Y-112978628D01*
X49341905Y-113454819D02*
X49341905Y-112454819D01*
X49341905Y-112454819D02*
X49722857Y-112454819D01*
X49722857Y-112454819D02*
X49818095Y-112502438D01*
X49818095Y-112502438D02*
X49865714Y-112550057D01*
X49865714Y-112550057D02*
X49913333Y-112645295D01*
X49913333Y-112645295D02*
X49913333Y-112788152D01*
X49913333Y-112788152D02*
X49865714Y-112883390D01*
X49865714Y-112883390D02*
X49818095Y-112931009D01*
X49818095Y-112931009D02*
X49722857Y-112978628D01*
X49722857Y-112978628D02*
X49341905Y-112978628D01*
X50865714Y-113454819D02*
X50294286Y-113454819D01*
X50580000Y-113454819D02*
X50580000Y-112454819D01*
X50580000Y-112454819D02*
X50484762Y-112597676D01*
X50484762Y-112597676D02*
X50389524Y-112692914D01*
X50389524Y-112692914D02*
X50294286Y-112740533D01*
D11*
X42904761Y-83957419D02*
X42571428Y-83481228D01*
X42333333Y-83957419D02*
X42333333Y-82957419D01*
X42333333Y-82957419D02*
X42714285Y-82957419D01*
X42714285Y-82957419D02*
X42809523Y-83005038D01*
X42809523Y-83005038D02*
X42857142Y-83052657D01*
X42857142Y-83052657D02*
X42904761Y-83147895D01*
X42904761Y-83147895D02*
X42904761Y-83290752D01*
X42904761Y-83290752D02*
X42857142Y-83385990D01*
X42857142Y-83385990D02*
X42809523Y-83433609D01*
X42809523Y-83433609D02*
X42714285Y-83481228D01*
X42714285Y-83481228D02*
X42333333Y-83481228D01*
X43190476Y-82957419D02*
X43523809Y-83957419D01*
X43523809Y-83957419D02*
X43857142Y-82957419D01*
X44142857Y-83052657D02*
X44190476Y-83005038D01*
X44190476Y-83005038D02*
X44285714Y-82957419D01*
X44285714Y-82957419D02*
X44523809Y-82957419D01*
X44523809Y-82957419D02*
X44619047Y-83005038D01*
X44619047Y-83005038D02*
X44666666Y-83052657D01*
X44666666Y-83052657D02*
X44714285Y-83147895D01*
X44714285Y-83147895D02*
X44714285Y-83243133D01*
X44714285Y-83243133D02*
X44666666Y-83385990D01*
X44666666Y-83385990D02*
X44095238Y-83957419D01*
X44095238Y-83957419D02*
X44714285Y-83957419D01*
D12*
X96493333Y-124584819D02*
X96160000Y-124108628D01*
X95921905Y-124584819D02*
X95921905Y-123584819D01*
X95921905Y-123584819D02*
X96302857Y-123584819D01*
X96302857Y-123584819D02*
X96398095Y-123632438D01*
X96398095Y-123632438D02*
X96445714Y-123680057D01*
X96445714Y-123680057D02*
X96493333Y-123775295D01*
X96493333Y-123775295D02*
X96493333Y-123918152D01*
X96493333Y-123918152D02*
X96445714Y-124013390D01*
X96445714Y-124013390D02*
X96398095Y-124061009D01*
X96398095Y-124061009D02*
X96302857Y-124108628D01*
X96302857Y-124108628D02*
X95921905Y-124108628D01*
X97064762Y-124013390D02*
X96969524Y-123965771D01*
X96969524Y-123965771D02*
X96921905Y-123918152D01*
X96921905Y-123918152D02*
X96874286Y-123822914D01*
X96874286Y-123822914D02*
X96874286Y-123775295D01*
X96874286Y-123775295D02*
X96921905Y-123680057D01*
X96921905Y-123680057D02*
X96969524Y-123632438D01*
X96969524Y-123632438D02*
X97064762Y-123584819D01*
X97064762Y-123584819D02*
X97255238Y-123584819D01*
X97255238Y-123584819D02*
X97350476Y-123632438D01*
X97350476Y-123632438D02*
X97398095Y-123680057D01*
X97398095Y-123680057D02*
X97445714Y-123775295D01*
X97445714Y-123775295D02*
X97445714Y-123822914D01*
X97445714Y-123822914D02*
X97398095Y-123918152D01*
X97398095Y-123918152D02*
X97350476Y-123965771D01*
X97350476Y-123965771D02*
X97255238Y-124013390D01*
X97255238Y-124013390D02*
X97064762Y-124013390D01*
X97064762Y-124013390D02*
X96969524Y-124061009D01*
X96969524Y-124061009D02*
X96921905Y-124108628D01*
X96921905Y-124108628D02*
X96874286Y-124203866D01*
X96874286Y-124203866D02*
X96874286Y-124394342D01*
X96874286Y-124394342D02*
X96921905Y-124489580D01*
X96921905Y-124489580D02*
X96969524Y-124537200D01*
X96969524Y-124537200D02*
X97064762Y-124584819D01*
X97064762Y-124584819D02*
X97255238Y-124584819D01*
X97255238Y-124584819D02*
X97350476Y-124537200D01*
X97350476Y-124537200D02*
X97398095Y-124489580D01*
X97398095Y-124489580D02*
X97445714Y-124394342D01*
X97445714Y-124394342D02*
X97445714Y-124203866D01*
X97445714Y-124203866D02*
X97398095Y-124108628D01*
X97398095Y-124108628D02*
X97350476Y-124061009D01*
X97350476Y-124061009D02*
X97255238Y-124013390D01*
D11*
X90404761Y-148957419D02*
X90071428Y-148481228D01*
X89833333Y-148957419D02*
X89833333Y-147957419D01*
X89833333Y-147957419D02*
X90214285Y-147957419D01*
X90214285Y-147957419D02*
X90309523Y-148005038D01*
X90309523Y-148005038D02*
X90357142Y-148052657D01*
X90357142Y-148052657D02*
X90404761Y-148147895D01*
X90404761Y-148147895D02*
X90404761Y-148290752D01*
X90404761Y-148290752D02*
X90357142Y-148385990D01*
X90357142Y-148385990D02*
X90309523Y-148433609D01*
X90309523Y-148433609D02*
X90214285Y-148481228D01*
X90214285Y-148481228D02*
X89833333Y-148481228D01*
X90690476Y-147957419D02*
X91023809Y-148957419D01*
X91023809Y-148957419D02*
X91357142Y-147957419D01*
X91833333Y-148385990D02*
X91738095Y-148338371D01*
X91738095Y-148338371D02*
X91690476Y-148290752D01*
X91690476Y-148290752D02*
X91642857Y-148195514D01*
X91642857Y-148195514D02*
X91642857Y-148147895D01*
X91642857Y-148147895D02*
X91690476Y-148052657D01*
X91690476Y-148052657D02*
X91738095Y-148005038D01*
X91738095Y-148005038D02*
X91833333Y-147957419D01*
X91833333Y-147957419D02*
X92023809Y-147957419D01*
X92023809Y-147957419D02*
X92119047Y-148005038D01*
X92119047Y-148005038D02*
X92166666Y-148052657D01*
X92166666Y-148052657D02*
X92214285Y-148147895D01*
X92214285Y-148147895D02*
X92214285Y-148195514D01*
X92214285Y-148195514D02*
X92166666Y-148290752D01*
X92166666Y-148290752D02*
X92119047Y-148338371D01*
X92119047Y-148338371D02*
X92023809Y-148385990D01*
X92023809Y-148385990D02*
X91833333Y-148385990D01*
X91833333Y-148385990D02*
X91738095Y-148433609D01*
X91738095Y-148433609D02*
X91690476Y-148481228D01*
X91690476Y-148481228D02*
X91642857Y-148576466D01*
X91642857Y-148576466D02*
X91642857Y-148766942D01*
X91642857Y-148766942D02*
X91690476Y-148862180D01*
X91690476Y-148862180D02*
X91738095Y-148909800D01*
X91738095Y-148909800D02*
X91833333Y-148957419D01*
X91833333Y-148957419D02*
X92023809Y-148957419D01*
X92023809Y-148957419D02*
X92119047Y-148909800D01*
X92119047Y-148909800D02*
X92166666Y-148862180D01*
X92166666Y-148862180D02*
X92214285Y-148766942D01*
X92214285Y-148766942D02*
X92214285Y-148576466D01*
X92214285Y-148576466D02*
X92166666Y-148481228D01*
X92166666Y-148481228D02*
X92119047Y-148433609D01*
X92119047Y-148433609D02*
X92023809Y-148385990D01*
D12*
X84413333Y-113954819D02*
X84080000Y-113478628D01*
X83841905Y-113954819D02*
X83841905Y-112954819D01*
X83841905Y-112954819D02*
X84222857Y-112954819D01*
X84222857Y-112954819D02*
X84318095Y-113002438D01*
X84318095Y-113002438D02*
X84365714Y-113050057D01*
X84365714Y-113050057D02*
X84413333Y-113145295D01*
X84413333Y-113145295D02*
X84413333Y-113288152D01*
X84413333Y-113288152D02*
X84365714Y-113383390D01*
X84365714Y-113383390D02*
X84318095Y-113431009D01*
X84318095Y-113431009D02*
X84222857Y-113478628D01*
X84222857Y-113478628D02*
X83841905Y-113478628D01*
X85270476Y-113288152D02*
X85270476Y-113954819D01*
X85032381Y-112907200D02*
X84794286Y-113621485D01*
X84794286Y-113621485D02*
X85413333Y-113621485D01*
D13*
%TO.C,J19*%
X73750000Y-23670000D02*
X89250000Y-23670000D01*
X73750000Y-32790000D02*
X73750000Y-23670000D01*
X75050000Y-24980000D02*
X87950000Y-24980000D01*
X75050000Y-31480000D02*
X75050000Y-24980000D01*
X78460000Y-34180000D02*
X79460000Y-34180000D01*
X78960000Y-33180000D02*
X78460000Y-34180000D01*
X79450000Y-31480000D02*
X75050000Y-31480000D01*
X79450000Y-32790000D02*
X79450000Y-31480000D01*
X79460000Y-34180000D02*
X78960000Y-33180000D01*
X83550000Y-31480000D02*
X83550000Y-32790000D01*
X87950000Y-24980000D02*
X87950000Y-31480000D01*
X87950000Y-31480000D02*
X83550000Y-31480000D01*
X89250000Y-23670000D02*
X89250000Y-32790000D01*
X89250000Y-32790000D02*
X73750000Y-32790000D01*
%TO.C,R6*%
X80540000Y-120500000D02*
X81310000Y-120500000D01*
X88620000Y-120500000D02*
X87850000Y-120500000D01*
X87850000Y-121870000D02*
X81310000Y-121870000D01*
X81310000Y-119130000D01*
X87850000Y-119130000D01*
X87850000Y-121870000D01*
%TO.C,C8*%
X73537351Y-120595471D02*
X73537351Y-116055471D01*
X73593351Y-120595471D02*
X73537351Y-120595471D01*
X75621351Y-116055471D02*
X75677351Y-116055471D01*
X75677351Y-116055471D02*
X75677351Y-120595471D01*
%TO.C,SW1*%
D11*
X81000000Y-150500000D02*
X89000000Y-150500000D01*
X89000000Y-163500000D01*
X81000000Y-163500000D01*
X81000000Y-150500000D01*
D13*
%TO.C,C2*%
X35150000Y-115430000D02*
X39690000Y-115430000D01*
X35150000Y-115486000D02*
X35150000Y-115430000D01*
X39690000Y-117514000D02*
X39690000Y-117570000D01*
X39690000Y-117570000D02*
X35150000Y-117570000D01*
%TO.C,C3*%
X35150000Y-118930000D02*
X39690000Y-118930000D01*
X35150000Y-118986000D02*
X35150000Y-118930000D01*
X39690000Y-121014000D02*
X39690000Y-121070000D01*
X39690000Y-121070000D02*
X35150000Y-121070000D01*
%TO.C,C1*%
X35230000Y-111930000D02*
X39770000Y-111930000D01*
X35230000Y-111986000D02*
X35230000Y-111930000D01*
X39770000Y-114014000D02*
X39770000Y-114070000D01*
X39770000Y-114070000D02*
X35230000Y-114070000D01*
D11*
%TO.C,J3*%
X44000000Y-71000000D02*
G75*
G02*
X32000000Y-71000000I-6000000J0D01*
G01*
X32000000Y-71000000D02*
G75*
G02*
X44000000Y-71000000I6000000J0D01*
G01*
D13*
%TO.C,J17*%
X61620000Y-152095062D02*
X63000000Y-152095062D01*
X61620000Y-153475062D02*
X61620000Y-152095062D01*
X61620000Y-154745062D02*
X61620000Y-162475062D01*
X61620000Y-154745062D02*
X64380000Y-154745062D01*
X61620000Y-162475062D02*
X64380000Y-162475062D01*
X64380000Y-154745062D02*
X64380000Y-162475062D01*
D11*
%TO.C,J1*%
X44000000Y-47000000D02*
G75*
G02*
X32000000Y-47000000I-6000000J0D01*
G01*
X32000000Y-47000000D02*
G75*
G02*
X44000000Y-47000000I6000000J0D01*
G01*
D13*
%TO.C,C7*%
X59113474Y-117930768D02*
X59113474Y-113390768D01*
X59169474Y-117930768D02*
X59113474Y-117930768D01*
X61197474Y-113390768D02*
X61253474Y-113390768D01*
X61253474Y-113390768D02*
X61253474Y-117930768D01*
%TO.C,R2*%
X45960000Y-116500000D02*
X46730000Y-116500000D01*
X54040000Y-116500000D02*
X53270000Y-116500000D01*
X46730000Y-115130000D02*
X53270000Y-115130000D01*
X53270000Y-117870000D01*
X46730000Y-117870000D01*
X46730000Y-115130000D01*
%TO.C,R10*%
X69880000Y-156975062D02*
X70650000Y-156975062D01*
X77960000Y-156975062D02*
X77190000Y-156975062D01*
X77190000Y-158345062D02*
X70650000Y-158345062D01*
X70650000Y-155605062D01*
X77190000Y-155605062D01*
X77190000Y-158345062D01*
D11*
%TO.C,J14*%
X44000000Y-137475062D02*
G75*
G02*
X32000000Y-137475062I-6000000J0D01*
G01*
X32000000Y-137475062D02*
G75*
G02*
X44000000Y-137475062I6000000J0D01*
G01*
D13*
%TO.C,U1*%
X62280000Y-114350000D02*
X62280000Y-116000000D01*
X62280000Y-118000000D02*
X62280000Y-119650000D01*
X62280000Y-119650000D02*
X72560000Y-119650000D01*
X72560000Y-114350000D02*
X62280000Y-114350000D01*
X72560000Y-119650000D02*
X72560000Y-114350000D01*
X62220000Y-122140000D02*
X72620000Y-122140000D01*
X72620000Y-111860000D01*
X62220000Y-111860000D01*
X62220000Y-122140000D01*
X62280000Y-116000000D02*
G75*
G02*
X62280000Y-118000000I0J-1000000D01*
G01*
D11*
%TO.C,J9*%
X102500000Y-71000000D02*
G75*
G02*
X90500000Y-71000000I-6000000J0D01*
G01*
X90500000Y-71000000D02*
G75*
G02*
X102500000Y-71000000I6000000J0D01*
G01*
D14*
%TO.C,G\u002A\u002A\u002A*%
G36*
X99330805Y-154216464D02*
G01*
X99491653Y-154390912D01*
X99536929Y-154487207D01*
X99471977Y-154485986D01*
X99302140Y-154367883D01*
X99291480Y-154358974D01*
X99040627Y-154147895D01*
X98262994Y-154316461D01*
X97792184Y-154420589D01*
X97476520Y-154498892D01*
X97305194Y-154559206D01*
X97267398Y-154609371D01*
X97352324Y-154657223D01*
X97549166Y-154710601D01*
X97678738Y-154740153D01*
X97999579Y-154803246D01*
X98211708Y-154817866D01*
X98368417Y-154784818D01*
X98440738Y-154751667D01*
X98793940Y-154643536D01*
X99115617Y-154699096D01*
X99360197Y-154878823D01*
X99540172Y-155042943D01*
X99729010Y-155137969D01*
X99962627Y-155167261D01*
X100276943Y-155134179D01*
X100707875Y-155042084D01*
X100817970Y-155015209D01*
X101263265Y-154907870D01*
X101577420Y-154844100D01*
X101792959Y-154824025D01*
X101942405Y-154847767D01*
X102058285Y-154915451D01*
X102166686Y-155020333D01*
X102301280Y-155196783D01*
X102302933Y-155279046D01*
X102186918Y-155254821D01*
X102012013Y-155144886D01*
X101759049Y-154957862D01*
X100937072Y-155175605D01*
X100590479Y-155269414D01*
X100313003Y-155348298D01*
X100140121Y-155401950D01*
X100100456Y-155418674D01*
X100046103Y-155495604D01*
X99924281Y-155662856D01*
X99843309Y-155773024D01*
X99659216Y-156046643D01*
X99479232Y-156353514D01*
X99327678Y-156647332D01*
X99228875Y-156881793D01*
X99204020Y-156990167D01*
X99258467Y-157055401D01*
X99438847Y-157057349D01*
X99536260Y-157043817D01*
X99828640Y-157037385D01*
X100220483Y-157081701D01*
X100653861Y-157165040D01*
X101070848Y-157275679D01*
X101413517Y-157401894D01*
X101489666Y-157439175D01*
X101708694Y-157543047D01*
X102027512Y-157679253D01*
X102386637Y-157822634D01*
X102484499Y-157859955D01*
X102873052Y-158023184D01*
X103105560Y-158169577D01*
X103191985Y-158315687D01*
X103142292Y-158478066D01*
X102971333Y-158668748D01*
X102797413Y-158934517D01*
X102775958Y-159250765D01*
X102886666Y-159550333D01*
X102987461Y-159749998D01*
X102987691Y-159865499D01*
X102881024Y-159953364D01*
X102838920Y-159976563D01*
X102644921Y-160023280D01*
X102563754Y-159991770D01*
X102403112Y-159909055D01*
X102269901Y-159866055D01*
X102140982Y-159860562D01*
X102038152Y-159942032D01*
X101923966Y-160143845D01*
X101898601Y-160197050D01*
X101764478Y-160438177D01*
X101640919Y-160545768D01*
X101541700Y-160557843D01*
X101316757Y-160567125D01*
X101150999Y-160599486D01*
X101004944Y-160672341D01*
X100941831Y-160818135D01*
X100929173Y-160972366D01*
X100899268Y-161209569D01*
X100830115Y-161539046D01*
X100736204Y-161892490D01*
X100728578Y-161918024D01*
X100538142Y-162550048D01*
X100717570Y-162669184D01*
X100858022Y-162809052D01*
X100889923Y-162940854D01*
X100807403Y-163016870D01*
X100760941Y-163021667D01*
X100667416Y-163065719D01*
X100685880Y-163169833D01*
X100778743Y-163450650D01*
X100770792Y-163595938D01*
X100662511Y-163605175D01*
X100454384Y-163477837D01*
X100422835Y-163453442D01*
X100290148Y-163360885D01*
X100171591Y-163335695D01*
X100003082Y-163376407D01*
X99830199Y-163439871D01*
X99588578Y-163547717D01*
X99416078Y-163654129D01*
X99374683Y-163696275D01*
X99268147Y-163760473D01*
X99139253Y-163674279D01*
X99007105Y-163451479D01*
X98994216Y-163421670D01*
X98886155Y-163164669D01*
X98729366Y-163410668D01*
X98597949Y-163596624D01*
X98491311Y-163714795D01*
X98485955Y-163718870D01*
X98322253Y-163778248D01*
X98146468Y-163770546D01*
X98031222Y-163704509D01*
X98018333Y-163662555D01*
X97946289Y-163557434D01*
X97828697Y-163514388D01*
X97649726Y-163442730D01*
X97611150Y-163328649D01*
X97627350Y-163309764D01*
X97809107Y-163309764D01*
X97811937Y-163368863D01*
X97933763Y-163422444D01*
X98131788Y-163409609D01*
X98299305Y-163386246D01*
X98326020Y-163418689D01*
X98290853Y-163460346D01*
X98200677Y-163586967D01*
X98187666Y-163634245D01*
X98237784Y-163668886D01*
X98359107Y-163608903D01*
X98508086Y-163484194D01*
X98641174Y-163324656D01*
X98643294Y-163321438D01*
X98802152Y-163144309D01*
X98942167Y-163134382D01*
X99070412Y-163292565D01*
X99111226Y-163381500D01*
X99193462Y-163546293D01*
X99245085Y-163557589D01*
X99262142Y-163512937D01*
X99254692Y-163321586D01*
X99214147Y-163210584D01*
X99166902Y-163021667D01*
X99203666Y-163021667D01*
X99277351Y-163080669D01*
X99455370Y-163106300D01*
X99462663Y-163106333D01*
X99639343Y-163130458D01*
X99664774Y-163198376D01*
X99546228Y-163257302D01*
X99454445Y-163250292D01*
X99343749Y-163252946D01*
X99348676Y-163334404D01*
X99397324Y-163404801D01*
X99492705Y-163417776D01*
X99671409Y-163369002D01*
X99946300Y-163263688D01*
X100169461Y-163197801D01*
X100331219Y-163224463D01*
X100390800Y-163257142D01*
X100517830Y-163308353D01*
X100558333Y-163281381D01*
X100496753Y-163165992D01*
X100473666Y-163148667D01*
X100390351Y-163041453D01*
X100452910Y-162956133D01*
X100558333Y-162937000D01*
X100695913Y-162901544D01*
X100727666Y-162852333D01*
X100659089Y-162777219D01*
X100600666Y-162767667D01*
X100504988Y-162694096D01*
X100475776Y-162489788D01*
X100512102Y-162179351D01*
X100613035Y-161787390D01*
X100640917Y-161701309D01*
X100734207Y-161366489D01*
X100791497Y-161046948D01*
X100809511Y-160781802D01*
X100784974Y-160610168D01*
X100735979Y-160566333D01*
X100688077Y-160643227D01*
X100638612Y-160843813D01*
X100601913Y-161095500D01*
X100523800Y-161642682D01*
X100420014Y-162118310D01*
X100298820Y-162493253D01*
X100168484Y-162738384D01*
X100121402Y-162788833D01*
X99883223Y-162900387D01*
X99575286Y-162937000D01*
X99351341Y-162954214D01*
X99218979Y-162997656D01*
X99203666Y-163021667D01*
X99166902Y-163021667D01*
X99151756Y-162961105D01*
X99153514Y-162677757D01*
X99262635Y-162677757D01*
X99264235Y-162684662D01*
X99372271Y-162807763D01*
X99572560Y-162855392D01*
X99805310Y-162826613D01*
X100010727Y-162720489D01*
X100036586Y-162696746D01*
X100140331Y-162527756D01*
X100248111Y-162251747D01*
X100344577Y-161925327D01*
X100414378Y-161605102D01*
X100442166Y-161347680D01*
X100430937Y-161242421D01*
X100429860Y-161089620D01*
X100470222Y-161034128D01*
X100534076Y-160917822D01*
X100558333Y-160733933D01*
X100538376Y-160573685D01*
X100448477Y-160477990D01*
X100243589Y-160404002D01*
X100198499Y-160391684D01*
X99960562Y-160322238D01*
X99792682Y-160263083D01*
X99761844Y-160248191D01*
X99725742Y-160292929D01*
X99725375Y-160469629D01*
X99739853Y-160601236D01*
X99751214Y-160968856D01*
X99665898Y-161250309D01*
X99539740Y-161535729D01*
X99422085Y-161872068D01*
X99327184Y-162208443D01*
X99269284Y-162493967D01*
X99262635Y-162677757D01*
X99153514Y-162677757D01*
X99153966Y-162604844D01*
X99215399Y-162189219D01*
X99330676Y-161761645D01*
X99399614Y-161575690D01*
X99515369Y-161240382D01*
X99592502Y-160913698D01*
X99627623Y-160630260D01*
X99617346Y-160424693D01*
X99558283Y-160331618D01*
X99521166Y-160333329D01*
X99455431Y-160433941D01*
X99395770Y-160668906D01*
X99356157Y-160954217D01*
X99241456Y-161547889D01*
X99031192Y-162118709D01*
X98747746Y-162617177D01*
X98447561Y-162963935D01*
X98222904Y-163139424D01*
X98019766Y-163252493D01*
X97928425Y-163275667D01*
X97809107Y-163309764D01*
X97627350Y-163309764D01*
X97707712Y-163216086D01*
X97871337Y-163158004D01*
X98200450Y-163012378D01*
X98519849Y-162704942D01*
X98822614Y-162243196D01*
X98951288Y-161987704D01*
X99091304Y-161661014D01*
X99174317Y-161376715D01*
X99216040Y-161062029D01*
X99231313Y-160690797D01*
X99233155Y-160323493D01*
X99217057Y-160090126D01*
X99177550Y-159955761D01*
X99109164Y-159885460D01*
X99104830Y-159882968D01*
X98980286Y-159774243D01*
X98803562Y-159574555D01*
X98658088Y-159387478D01*
X98500464Y-159153509D01*
X98396707Y-158933829D01*
X98326924Y-158670422D01*
X98271219Y-158305275D01*
X98262229Y-158233087D01*
X98227422Y-157811584D01*
X101912999Y-157811584D01*
X101949519Y-157900375D01*
X102043492Y-158090115D01*
X102129506Y-158254686D01*
X102258839Y-158538470D01*
X102319270Y-158808892D01*
X102328259Y-159150209D01*
X102326516Y-159205417D01*
X102322590Y-159508260D01*
X102344671Y-159684630D01*
X102402686Y-159776624D01*
X102469842Y-159813300D01*
X102708161Y-159878357D01*
X102831068Y-159846210D01*
X102844333Y-159801354D01*
X102801416Y-159671807D01*
X102709850Y-159508462D01*
X102619948Y-159224652D01*
X102678491Y-158898628D01*
X102879892Y-158558521D01*
X102904374Y-158528729D01*
X103029389Y-158356844D01*
X103077303Y-158241786D01*
X103072190Y-158225968D01*
X102974719Y-158173989D01*
X102776945Y-158092441D01*
X102526139Y-157998223D01*
X102269575Y-157908235D01*
X102054524Y-157839373D01*
X101928258Y-157808538D01*
X101912999Y-157811584D01*
X98227422Y-157811584D01*
X98212824Y-157634814D01*
X98231241Y-157155131D01*
X98321448Y-156755797D01*
X98444723Y-156474516D01*
X98532178Y-156268579D01*
X98751215Y-156268579D01*
X98833593Y-156324032D01*
X98998743Y-156333000D01*
X99206644Y-156308046D01*
X99330789Y-156247498D01*
X99334147Y-156242700D01*
X99363537Y-156150370D01*
X99291649Y-156081585D01*
X99087830Y-156009782D01*
X99054117Y-156000007D01*
X98872615Y-155963581D01*
X98790302Y-156014993D01*
X98758026Y-156129620D01*
X98751215Y-156268579D01*
X98532178Y-156268579D01*
X98575912Y-156165595D01*
X98602654Y-155936299D01*
X98522833Y-155810153D01*
X98505166Y-155802778D01*
X98354670Y-155804921D01*
X98099284Y-155856739D01*
X97790524Y-155943015D01*
X97479906Y-156048534D01*
X97218948Y-156158083D01*
X97119064Y-156212155D01*
X96789685Y-156452239D01*
X96482197Y-156737441D01*
X96249690Y-157016183D01*
X96188601Y-157116166D01*
X96054141Y-157279624D01*
X95901098Y-157348526D01*
X95777841Y-157315253D01*
X95735634Y-157197286D01*
X95870222Y-157197286D01*
X95942084Y-157190304D01*
X96053337Y-157067616D01*
X96072573Y-157038534D01*
X96244734Y-156795816D01*
X96423062Y-156577740D01*
X96682916Y-156357642D01*
X97053334Y-156131232D01*
X97479151Y-155926960D01*
X97905202Y-155773274D01*
X98061595Y-155732724D01*
X98313912Y-155673641D01*
X98482693Y-155629105D01*
X98526332Y-155612494D01*
X98500575Y-155518877D01*
X98440989Y-155350557D01*
X98374104Y-155177979D01*
X98326447Y-155071583D01*
X98319391Y-155063000D01*
X98210589Y-155103842D01*
X97996335Y-155212254D01*
X97715396Y-155367063D01*
X97406539Y-155547097D01*
X97187262Y-155681316D01*
X96928132Y-155871659D01*
X96650999Y-156120188D01*
X96381279Y-156397651D01*
X96144388Y-156674791D01*
X95965741Y-156922355D01*
X95870755Y-157111088D01*
X95870222Y-157197286D01*
X95735634Y-157197286D01*
X95732332Y-157188056D01*
X95787315Y-157023791D01*
X95931944Y-156779813D01*
X96135745Y-156495759D01*
X96368240Y-156211264D01*
X96598954Y-155965965D01*
X96797411Y-155799497D01*
X96802613Y-155796093D01*
X96981816Y-155666765D01*
X97079795Y-155570198D01*
X97085951Y-155554313D01*
X97049752Y-155451977D01*
X96955747Y-155253050D01*
X96875332Y-155097203D01*
X96755608Y-154855185D01*
X96749799Y-154840993D01*
X98592752Y-154840993D01*
X98610482Y-154915568D01*
X98777697Y-154983505D01*
X98864999Y-155001967D01*
X99116941Y-155042224D01*
X99243860Y-155044036D01*
X99286093Y-155005433D01*
X99288333Y-154981312D01*
X99214599Y-154865556D01*
X99036443Y-154784536D01*
X98818435Y-154762221D01*
X98733538Y-154775352D01*
X98592752Y-154840993D01*
X96749799Y-154840993D01*
X96678876Y-154667713D01*
X96663666Y-154603676D01*
X96743050Y-154552204D01*
X96964926Y-154478950D01*
X97304878Y-154390687D01*
X97738489Y-154294191D01*
X97891472Y-154262992D01*
X99119278Y-154017745D01*
X99330805Y-154216464D01*
G37*
D13*
%TO.C,C6*%
X94890000Y-119430000D02*
X99430000Y-119430000D01*
X94890000Y-119486000D02*
X94890000Y-119430000D01*
X99430000Y-121514000D02*
X99430000Y-121570000D01*
X99430000Y-121570000D02*
X94890000Y-121570000D01*
%TO.C,RV4*%
X74620000Y-58880000D02*
X74620000Y-57500000D01*
X76000000Y-58880000D02*
X74620000Y-58880000D01*
X77270000Y-56120000D02*
X82460000Y-56120000D01*
X77270000Y-58880000D02*
X77270000Y-56120000D01*
X77270000Y-58880000D02*
X82460000Y-58880000D01*
X82460000Y-58880000D02*
X82460000Y-56120000D01*
D11*
X67540000Y-35500000D02*
X89540000Y-35500000D01*
X89540000Y-59500000D01*
X67540000Y-59500000D01*
X67540000Y-35500000D01*
D13*
%TO.C,C5*%
X94890000Y-115930000D02*
X99430000Y-115930000D01*
X94890000Y-115986000D02*
X94890000Y-115930000D01*
X99430000Y-118014000D02*
X99430000Y-118070000D01*
X99430000Y-118070000D02*
X94890000Y-118070000D01*
D11*
%TO.C,J5*%
X44000000Y-96000000D02*
G75*
G02*
X32000000Y-96000000I-6000000J0D01*
G01*
X32000000Y-96000000D02*
G75*
G02*
X44000000Y-96000000I6000000J0D01*
G01*
D13*
%TO.C,R9*%
X69880000Y-153475062D02*
X70650000Y-153475062D01*
X77960000Y-153475062D02*
X77190000Y-153475062D01*
X77190000Y-154845062D02*
X70650000Y-154845062D01*
X70650000Y-152105062D01*
X77190000Y-152105062D01*
X77190000Y-154845062D01*
%TO.C,RV3*%
X52030000Y-107880000D02*
X52030000Y-106500000D01*
X53410000Y-107880000D02*
X52030000Y-107880000D01*
X54680000Y-105120000D02*
X59870000Y-105120000D01*
X54680000Y-107880000D02*
X54680000Y-105120000D01*
X54680000Y-107880000D02*
X59870000Y-107880000D01*
X59870000Y-107880000D02*
X59870000Y-105120000D01*
D11*
X44950000Y-84500000D02*
X66950000Y-84500000D01*
X66950000Y-108500000D01*
X44950000Y-108500000D01*
X44950000Y-84500000D01*
D13*
%TO.C,RV7*%
X52030000Y-148380000D02*
X52030000Y-147000000D01*
X53410000Y-148380000D02*
X52030000Y-148380000D01*
X54680000Y-145620000D02*
X59870000Y-145620000D01*
X54680000Y-148380000D02*
X54680000Y-145620000D01*
X54680000Y-148380000D02*
X59870000Y-148380000D01*
X59870000Y-148380000D02*
X59870000Y-145620000D01*
D11*
X44950000Y-125000000D02*
X66950000Y-125000000D01*
X66950000Y-149000000D01*
X44950000Y-149000000D01*
X44950000Y-125000000D01*
D13*
%TO.C,RV6*%
X74580000Y-107880000D02*
X74580000Y-106500000D01*
X75960000Y-107880000D02*
X74580000Y-107880000D01*
X77230000Y-105120000D02*
X82420000Y-105120000D01*
X77230000Y-107880000D02*
X77230000Y-105120000D01*
X77230000Y-107880000D02*
X82420000Y-107880000D01*
X82420000Y-107880000D02*
X82420000Y-105120000D01*
D11*
X67500000Y-84500000D02*
X89500000Y-84500000D01*
X89500000Y-108500000D01*
X67500000Y-108500000D01*
X67500000Y-84500000D01*
D13*
%TO.C,R3*%
X45960000Y-120000000D02*
X46730000Y-120000000D01*
X54040000Y-120000000D02*
X53270000Y-120000000D01*
X46730000Y-118630000D02*
X53270000Y-118630000D01*
X53270000Y-121370000D01*
X46730000Y-121370000D01*
X46730000Y-118630000D01*
%TO.C,R5*%
X80540000Y-117000000D02*
X81310000Y-117000000D01*
X88620000Y-117000000D02*
X87850000Y-117000000D01*
X87850000Y-118370000D02*
X81310000Y-118370000D01*
X81310000Y-115630000D01*
X87850000Y-115630000D01*
X87850000Y-118370000D01*
%TO.C,J18*%
X45250000Y-23710000D02*
X60750000Y-23710000D01*
X45250000Y-32830000D02*
X45250000Y-23710000D01*
X46550000Y-25020000D02*
X59450000Y-25020000D01*
X46550000Y-31520000D02*
X46550000Y-25020000D01*
X49960000Y-34220000D02*
X50960000Y-34220000D01*
X50460000Y-33220000D02*
X49960000Y-34220000D01*
X50950000Y-31520000D02*
X46550000Y-31520000D01*
X50950000Y-32830000D02*
X50950000Y-31520000D01*
X50960000Y-34220000D02*
X50460000Y-33220000D01*
X55050000Y-31520000D02*
X55050000Y-32830000D01*
X59450000Y-25020000D02*
X59450000Y-31520000D01*
X59450000Y-31520000D02*
X55050000Y-31520000D01*
X60750000Y-23710000D02*
X60750000Y-32830000D01*
X60750000Y-32830000D02*
X45250000Y-32830000D01*
%TO.C,R7*%
X33960000Y-126500000D02*
X34730000Y-126500000D01*
X42040000Y-126500000D02*
X41270000Y-126500000D01*
X41270000Y-127870000D02*
X34730000Y-127870000D01*
X34730000Y-125130000D01*
X41270000Y-125130000D01*
X41270000Y-127870000D01*
D11*
%TO.C,J11*%
X102500000Y-96000000D02*
G75*
G02*
X90500000Y-96000000I-6000000J0D01*
G01*
X90500000Y-96000000D02*
G75*
G02*
X102500000Y-96000000I6000000J0D01*
G01*
%TO.C,J16*%
X102500000Y-137475062D02*
G75*
G02*
X90500000Y-137475062I-6000000J0D01*
G01*
X90500000Y-137475062D02*
G75*
G02*
X102500000Y-137475062I6000000J0D01*
G01*
%TO.C,J7*%
X102500000Y-46975062D02*
G75*
G02*
X90500000Y-46975062I-6000000J0D01*
G01*
X90500000Y-46975062D02*
G75*
G02*
X102500000Y-46975062I6000000J0D01*
G01*
D13*
%TO.C,C4*%
X94890000Y-112430000D02*
X99430000Y-112430000D01*
X94890000Y-112486000D02*
X94890000Y-112430000D01*
X99430000Y-114514000D02*
X99430000Y-114570000D01*
X99430000Y-114570000D02*
X94890000Y-114570000D01*
%TO.C,RV1*%
X52040000Y-58880000D02*
X52040000Y-57500000D01*
X53420000Y-58880000D02*
X52040000Y-58880000D01*
X54690000Y-56120000D02*
X59880000Y-56120000D01*
X54690000Y-58880000D02*
X54690000Y-56120000D01*
X54690000Y-58880000D02*
X59880000Y-58880000D01*
X59880000Y-58880000D02*
X59880000Y-56120000D01*
D11*
X44960000Y-35500000D02*
X66960000Y-35500000D01*
X66960000Y-59500000D01*
X44960000Y-59500000D01*
X44960000Y-35500000D01*
D13*
%TO.C,RV5*%
X74580000Y-83380000D02*
X74580000Y-82000000D01*
X75960000Y-83380000D02*
X74580000Y-83380000D01*
X77230000Y-80620000D02*
X82420000Y-80620000D01*
X77230000Y-83380000D02*
X77230000Y-80620000D01*
X77230000Y-83380000D02*
X82420000Y-83380000D01*
X82420000Y-83380000D02*
X82420000Y-80620000D01*
D11*
X67500000Y-60000000D02*
X89500000Y-60000000D01*
X89500000Y-84000000D01*
X67500000Y-84000000D01*
X67500000Y-60000000D01*
D13*
%TO.C,R1*%
X46040000Y-113000000D02*
X46810000Y-113000000D01*
X54120000Y-113000000D02*
X53350000Y-113000000D01*
X46810000Y-111630000D02*
X53350000Y-111630000D01*
X53350000Y-114370000D01*
X46810000Y-114370000D01*
X46810000Y-111630000D01*
%TO.C,RV2*%
X52030000Y-83380000D02*
X52030000Y-82000000D01*
X53410000Y-83380000D02*
X52030000Y-83380000D01*
X54680000Y-80620000D02*
X59870000Y-80620000D01*
X54680000Y-83380000D02*
X54680000Y-80620000D01*
X54680000Y-83380000D02*
X59870000Y-83380000D01*
X59870000Y-83380000D02*
X59870000Y-80620000D01*
D11*
X44950000Y-60000000D02*
X66950000Y-60000000D01*
X66950000Y-84000000D01*
X44950000Y-84000000D01*
X44950000Y-60000000D01*
D13*
%TO.C,R8*%
X92620000Y-126500000D02*
X93390000Y-126500000D01*
X100700000Y-126500000D02*
X99930000Y-126500000D01*
X93390000Y-125130000D02*
X99930000Y-125130000D01*
X99930000Y-127870000D01*
X93390000Y-127870000D01*
X93390000Y-125130000D01*
%TO.C,RV8*%
X74580000Y-148380000D02*
X74580000Y-147000000D01*
X75960000Y-148380000D02*
X74580000Y-148380000D01*
X77230000Y-145620000D02*
X82420000Y-145620000D01*
X77230000Y-148380000D02*
X77230000Y-145620000D01*
X77230000Y-148380000D02*
X82420000Y-148380000D01*
X82420000Y-148380000D02*
X82420000Y-145620000D01*
D11*
X67500000Y-125000000D02*
X89500000Y-125000000D01*
X89500000Y-149000000D01*
X67500000Y-149000000D01*
X67500000Y-125000000D01*
D13*
%TO.C,R4*%
X80540000Y-113500000D02*
X81310000Y-113500000D01*
X88620000Y-113500000D02*
X87850000Y-113500000D01*
X87850000Y-114870000D02*
X81310000Y-114870000D01*
X81310000Y-112130000D01*
X87850000Y-112130000D01*
X87850000Y-114870000D01*
%TD*%
M02*
