M48
; DRILL file {KiCad 9.0.6} date 2026-05-24T02:22:39+1000
; FORMAT={-:-/ absolute / metric / decimal}
; #@! TF.CreationDate,2026-05-24T02:22:39+10:00
; #@! TF.GenerationSoftware,Kicad,Pcbnew,9.0.6
; #@! TF.FileFunction,Plated,1,2,PTH
FMAT,2
METRIC
; #@! TA.AperFunction,Plated,PTH,ComponentDrill
T1C0.800
; #@! TA.AperFunction,Plated,PTH,ComponentDrill
T2C1.000
; #@! TA.AperFunction,Plated,PTH,ComponentDrill
T3C1.200
; #@! TA.AperFunction,Plated,PTH,ComponentDrill
T4C6.000
%
G90
G05
T1
X32.42Y-138.25
X33.75Y-65.0
X33.75Y-70.0
X33.75Y-90.75
X33.75Y-100.91
X33.94Y-119.135
X33.94Y-121.675
X33.94Y-124.215
X33.94Y-126.755
X33.94Y-129.295
X33.94Y-131.835
X33.94Y-134.375
X38.375Y-90.75
X38.375Y-100.91
X38.5Y-65.0
X38.5Y-70.0
X41.56Y-119.135
X41.56Y-121.675
X41.56Y-124.215
X41.56Y-126.755
X41.56Y-129.295
X41.56Y-131.835
X41.56Y-134.375
X42.58Y-138.25
X43.0Y-65.0
X43.0Y-70.0
X43.0Y-90.75
X43.0Y-100.91
X44.5Y-128.25
X44.5Y-130.75
X49.5Y-128.25
X49.5Y-130.75
X61.42Y-171.25
X61.67Y-166.0
X71.58Y-171.25
X71.83Y-166.0
X90.92Y-121.75
X90.92Y-124.75
X90.92Y-127.75
X90.92Y-130.75
X91.0Y-64.5
X91.0Y-69.5
X91.09Y-138.25
X91.25Y-91.25
X91.25Y-101.41
X95.75Y-91.25
X95.75Y-101.41
X96.0Y-64.5
X96.0Y-69.5
X100.25Y-91.25
X100.25Y-101.41
X100.5Y-64.5
X100.5Y-69.5
X101.08Y-121.75
X101.08Y-124.75
X101.08Y-127.75
X101.08Y-130.75
X101.25Y-138.25
T2
X45.42Y-29.0
X45.42Y-31.54
X47.96Y-29.0
X47.96Y-31.54
X50.5Y-29.0
X50.5Y-31.54
X53.045Y-155.935
X53.141Y-61.512
X53.141Y-118.525
X53.181Y-90.013
X55.585Y-155.935
X55.681Y-61.512
X55.681Y-118.525
X55.721Y-90.013
X56.135Y-165.385
X56.135Y-167.925
X56.135Y-170.465
X56.135Y-173.005
X58.125Y-155.935
X58.221Y-61.512
X58.221Y-118.525
X58.261Y-90.013
X64.42Y-29.015
X64.42Y-31.555
X66.96Y-29.015
X66.96Y-31.555
X69.5Y-29.015
X69.5Y-31.555
X75.595Y-155.935
X75.641Y-61.525
X75.641Y-90.013
X75.641Y-118.512
X78.135Y-155.935
X78.181Y-61.525
X78.181Y-90.013
X78.181Y-118.512
X80.675Y-155.935
X80.721Y-61.525
X80.721Y-90.013
X80.721Y-118.512
X83.5Y-29.0
X83.5Y-31.54
X86.04Y-29.0
X86.04Y-31.54
X88.58Y-29.0
X88.58Y-31.54
T3
X50.42Y-103.0
X50.5Y-46.0
X50.5Y-74.5
X50.635Y-139.91
X55.5Y-103.0
X55.58Y-46.0
X55.58Y-74.5
X55.715Y-139.91
X60.5Y-103.0
X60.58Y-46.0
X60.58Y-74.5
X60.715Y-139.91
X72.92Y-46.0
X72.92Y-74.5
X73.0Y-103.0
X73.135Y-139.91
X78.0Y-46.0
X78.0Y-74.5
X78.08Y-103.0
X78.215Y-139.91
X83.0Y-46.0
X83.0Y-74.5
X83.08Y-103.0
X83.215Y-139.91
T4
X37.5Y-51.969
X37.5Y-80.469
X37.5Y-108.469
X37.635Y-146.435
X96.135Y-146.435
X96.5Y-51.969
X96.5Y-80.469
X96.5Y-108.469
T2
G00X77.26Y-164.41
M15
G01X79.01Y-164.41
M16
G05
G00X77.26Y-168.91
M15
G01X79.01Y-168.91
M16
G05
G00X77.26Y-173.41
M15
G01X79.01Y-173.41
M16
G05
M30
