%TF.GenerationSoftware,KiCad,Pcbnew,9.0.6*%
%TF.CreationDate,2026-05-24T02:22:37+10:00*%
%TF.ProjectId,audio-mixer,61756469-6f2d-46d6-9978-65722e6b6963,rev?*%
%TF.SameCoordinates,Original*%
%TF.FileFunction,Copper,L2,Bot*%
%TF.FilePolarity,Positive*%
%FSLAX46Y46*%
G04 Gerber Fmt 4.6, Leading zero omitted, Abs format (unit mm)*
G04 Created by KiCad (PCBNEW 9.0.6) date 2026-05-24 02:22:37*
%MOMM*%
%LPD*%
G01*
G04 APERTURE LIST*
G04 Aperture macros list*
%AMRoundRect*
0 Rectangle with rounded corners*
0 $1 Rounding radius*
0 $2 $3 $4 $5 $6 $7 $8 $9 X,Y pos of 4 corners*
0 Add a 4 corners polygon primitive as box body*
4,1,4,$2,$3,$4,$5,$6,$7,$8,$9,$2,$3,0*
0 Add four circle primitives for the rounded corners*
1,1,$1+$1,$2,$3*
1,1,$1+$1,$4,$5*
1,1,$1+$1,$6,$7*
1,1,$1+$1,$8,$9*
0 Add four rect primitives between the rounded corners*
20,1,$1+$1,$2,$3,$4,$5,0*
20,1,$1+$1,$4,$5,$6,$7,0*
20,1,$1+$1,$6,$7,$8,$9,0*
20,1,$1+$1,$8,$9,$2,$3,0*%
G04 Aperture macros list end*
%TA.AperFunction,ComponentPad*%
%ADD10C,1.600000*%
%TD*%
%TA.AperFunction,ComponentPad*%
%ADD11RoundRect,0.250000X-0.550000X-0.550000X0.550000X-0.550000X0.550000X0.550000X-0.550000X0.550000X0*%
%TD*%
%TA.AperFunction,ComponentPad*%
%ADD12R,2.000000X2.000000*%
%TD*%
%TA.AperFunction,ComponentPad*%
%ADD13C,2.000000*%
%TD*%
%TA.AperFunction,ComponentPad*%
%ADD14RoundRect,0.250000X0.600000X-0.600000X0.600000X0.600000X-0.600000X0.600000X-0.600000X-0.600000X0*%
%TD*%
%TA.AperFunction,ComponentPad*%
%ADD15C,1.700000*%
%TD*%
%TA.AperFunction,ComponentPad*%
%ADD16O,3.750000X2.000000*%
%TD*%
%TA.AperFunction,ComponentPad*%
%ADD17C,8.000000*%
%TD*%
%TA.AperFunction,ComponentPad*%
%ADD18R,1.700000X1.700000*%
%TD*%
%TA.AperFunction,Conductor*%
%ADD19C,0.200000*%
%TD*%
G04 APERTURE END LIST*
D10*
%TO.P,R6,2*%
%TO.N,Net-(J15-Pin_1)*%
X91250000Y-101410000D03*
%TO.P,R6,1*%
%TO.N,Net-(C6-Pad2)*%
X91250000Y-91250000D03*
%TD*%
%TO.P,R2,2*%
%TO.N,Net-(J13-Pin_1)*%
X38375000Y-100910000D03*
%TO.P,R2,1*%
%TO.N,Net-(C2-Pad2)*%
X38375000Y-90750000D03*
%TD*%
D11*
%TO.P,U1,1*%
%TO.N,Net-(J13-Pin_2)*%
X33940000Y-119135000D03*
D10*
%TO.P,U1,2,-*%
%TO.N,Net-(J13-Pin_1)*%
X33940000Y-121675000D03*
%TO.P,U1,3,+*%
%TO.N,GND*%
X33940000Y-124215000D03*
%TO.P,U1,4,V+*%
%TO.N,12V*%
X33940000Y-126755000D03*
%TO.P,U1,5,+*%
%TO.N,GND*%
X33940000Y-129295000D03*
%TO.P,U1,6,-*%
%TO.N,Net-(U1B--)*%
X33940000Y-131835000D03*
%TO.P,U1,7*%
%TO.N,Net-(SW1-C)*%
X33940000Y-134375000D03*
%TO.P,U1,8*%
%TO.N,Net-(SW1-A)*%
X41560000Y-134375000D03*
%TO.P,U1,9,-*%
%TO.N,Net-(U1C--)*%
X41560000Y-131835000D03*
%TO.P,U1,10,+*%
%TO.N,GND*%
X41560000Y-129295000D03*
%TO.P,U1,11,V-*%
%TO.N,-12V*%
X41560000Y-126755000D03*
%TO.P,U1,12,+*%
%TO.N,GND*%
X41560000Y-124215000D03*
%TO.P,U1,13,-*%
%TO.N,Net-(J15-Pin_1)*%
X41560000Y-121675000D03*
%TO.P,U1,14*%
%TO.N,Net-(J15-Pin_2)*%
X41560000Y-119135000D03*
%TD*%
%TO.P,R14,1*%
%TO.N,Net-(U1C--)*%
X90920000Y-121750000D03*
%TO.P,R14,2*%
%TO.N,Net-(SW1-A)*%
X101080000Y-121750000D03*
%TD*%
%TO.P,R13,1*%
%TO.N,Net-(J15-Pin_2)*%
X101080000Y-124750000D03*
%TO.P,R13,2*%
%TO.N,Net-(U1C--)*%
X90920000Y-124750000D03*
%TD*%
%TO.P,R12,1*%
%TO.N,Net-(U1B--)*%
X101080000Y-127750000D03*
%TO.P,R12,2*%
%TO.N,Net-(SW1-C)*%
X90920000Y-127750000D03*
%TD*%
%TO.P,R11,1*%
%TO.N,Net-(J13-Pin_2)*%
X101080000Y-130750000D03*
%TO.P,R11,2*%
%TO.N,Net-(U1B--)*%
X90920000Y-130750000D03*
%TD*%
D12*
%TO.P,J12,1,Pin_1*%
%TO.N,GND*%
X73000000Y-103000000D03*
D13*
%TO.P,J12,2,Pin_2*%
%TO.N,Net-(J12-Pin_2)*%
X78080000Y-103000000D03*
%TO.P,J12,3,Pin_3*%
%TO.N,Net-(J11-Pin_1)*%
X83080000Y-103000000D03*
%TD*%
D14*
%TO.P,J19,1,Pin_1*%
%TO.N,12V*%
X64420000Y-31555500D03*
D15*
%TO.P,J19,2,Pin_2*%
%TO.N,-12V*%
X64420000Y-29015500D03*
%TO.P,J19,3,Pin_3*%
%TO.N,GND*%
X66960000Y-31555500D03*
%TO.P,J19,4,Pin_4*%
X66960000Y-29015500D03*
%TO.P,J19,5,Pin_5*%
%TO.N,5V*%
X69500000Y-31555500D03*
%TO.P,J19,6,Pin_6*%
%TO.N,unconnected-(J19-Pin_6-Pad6)*%
X69500000Y-29015500D03*
%TD*%
D10*
%TO.P,C8,1*%
%TO.N,GND*%
X49500000Y-128250000D03*
%TO.P,C8,2*%
%TO.N,-12V*%
X44500000Y-128250000D03*
%TD*%
D16*
%TO.P,SW1,1,C*%
%TO.N,Net-(SW1-C)*%
X78135000Y-173409938D03*
%TO.P,SW1,2,B*%
%TO.N,Net-(SW1-B)*%
X78135000Y-168909938D03*
%TO.P,SW1,3,A*%
%TO.N,Net-(SW1-A)*%
X78135000Y-164409938D03*
%TD*%
D12*
%TO.P,J2,1,Pin_1*%
%TO.N,GND*%
X50500000Y-46000000D03*
D13*
%TO.P,J2,2,Pin_2*%
%TO.N,Net-(J2-Pin_2)*%
X55580000Y-46000000D03*
%TO.P,J2,3,Pin_3*%
%TO.N,Net-(J1-Pin_1)*%
X60580000Y-46000000D03*
%TD*%
D10*
%TO.P,C2,1*%
%TO.N,Net-(J4-Pin_2)*%
X38500000Y-65000000D03*
%TO.P,C2,2*%
%TO.N,Net-(C2-Pad2)*%
X38500000Y-70000000D03*
%TD*%
%TO.P,C3,1*%
%TO.N,Net-(J6-Pin_2)*%
X43000000Y-65000000D03*
%TO.P,C3,2*%
%TO.N,Net-(C3-Pad2)*%
X43000000Y-70000000D03*
%TD*%
%TO.P,C1,1*%
%TO.N,Net-(J2-Pin_2)*%
X33750000Y-65000000D03*
%TO.P,C1,2*%
%TO.N,Net-(C1-Pad2)*%
X33750000Y-70000000D03*
%TD*%
D17*
%TO.P,J3,1,Pin_1*%
%TO.N,Net-(J3-Pin_1)*%
X37500000Y-80468588D03*
%TD*%
%TO.P,J5,1,Pin_1*%
%TO.N,Net-(J5-Pin_1)*%
X37500000Y-108468588D03*
%TD*%
D15*
%TO.P,J17,R1*%
%TO.N,Net-(J17-PadR1)*%
X56135000Y-167925000D03*
%TO.P,J17,R2*%
%TO.N,unconnected-(J17-PadR2)*%
X56135000Y-170465000D03*
%TO.P,J17,S*%
%TO.N,GND*%
X56135000Y-173005000D03*
D18*
%TO.P,J17,T*%
%TO.N,Net-(J17-PadT)*%
X56135000Y-165385000D03*
%TD*%
D17*
%TO.P,J1,1,Pin_1*%
%TO.N,Net-(J1-Pin_1)*%
X37500000Y-51968588D03*
%TD*%
D10*
%TO.P,C7,1*%
%TO.N,GND*%
X49500000Y-130750000D03*
%TO.P,C7,2*%
%TO.N,12V*%
X44500000Y-130750000D03*
%TD*%
%TO.P,R10,1*%
%TO.N,Net-(SW1-B)*%
X71580000Y-171250000D03*
%TO.P,R10,2*%
%TO.N,Net-(J17-PadR1)*%
X61420000Y-171250000D03*
%TD*%
D18*
%TO.P,RV6,1,1*%
%TO.N,GND*%
X75641169Y-118512500D03*
D15*
%TO.P,RV6,2,2*%
%TO.N,Net-(J12-Pin_2)*%
X78181169Y-118512500D03*
%TO.P,RV6,3,3*%
%TO.N,Net-(J11-Pin_1)*%
X80721169Y-118512500D03*
%TD*%
D12*
%TO.P,J10,1,Pin_1*%
%TO.N,GND*%
X72920000Y-74500000D03*
D13*
%TO.P,J10,2,Pin_2*%
%TO.N,Net-(J10-Pin_2)*%
X78000000Y-74500000D03*
%TO.P,J10,3,Pin_3*%
%TO.N,Net-(J10-Pin_3)*%
X83000000Y-74500000D03*
%TD*%
D17*
%TO.P,J14,1,Pin_1*%
%TO.N,Net-(J14-Pin_1)*%
X37635000Y-146434876D03*
%TD*%
D18*
%TO.P,RV3,1,1*%
%TO.N,GND*%
X53141169Y-118525000D03*
D15*
%TO.P,RV3,2,2*%
%TO.N,Net-(J6-Pin_2)*%
X55681169Y-118525000D03*
%TO.P,RV3,3,3*%
%TO.N,Net-(J5-Pin_1)*%
X58221169Y-118525000D03*
%TD*%
D17*
%TO.P,J11,1,Pin_1*%
%TO.N,Net-(J11-Pin_1)*%
X96500000Y-108468588D03*
%TD*%
%TO.P,J9,1,Pin_1*%
%TO.N,Net-(J10-Pin_3)*%
X96500000Y-80468588D03*
%TD*%
D10*
%TO.P,C6,1*%
%TO.N,Net-(J12-Pin_2)*%
X91000000Y-64500000D03*
%TO.P,C6,2*%
%TO.N,Net-(C6-Pad2)*%
X91000000Y-69500000D03*
%TD*%
D17*
%TO.P,J7,1,Pin_1*%
%TO.N,Net-(J7-Pin_1)*%
X96500000Y-51968588D03*
%TD*%
D10*
%TO.P,C5,1*%
%TO.N,Net-(J10-Pin_2)*%
X96000000Y-64500000D03*
%TO.P,C5,2*%
%TO.N,Net-(C5-Pad2)*%
X96000000Y-69500000D03*
%TD*%
%TO.P,R9,1*%
%TO.N,Net-(SW1-C)*%
X71830000Y-166000000D03*
%TO.P,R9,2*%
%TO.N,Net-(J17-PadT)*%
X61670000Y-166000000D03*
%TD*%
D18*
%TO.P,RV7,1,1*%
%TO.N,Net-(J13-Pin_1)*%
X53045000Y-155934876D03*
D15*
%TO.P,RV7,2,2*%
%TO.N,Net-(J13-Pin_2)*%
X55585000Y-155934876D03*
%TO.P,RV7,3,3*%
%TO.N,unconnected-(RV7-Pad3)*%
X58125000Y-155934876D03*
%TD*%
D12*
%TO.P,J13,1,Pin_1*%
%TO.N,Net-(J13-Pin_1)*%
X50635000Y-139909938D03*
D13*
%TO.P,J13,2,Pin_2*%
%TO.N,Net-(J13-Pin_2)*%
X55715000Y-139909938D03*
%TO.P,J13,3,Pin_3*%
%TO.N,unconnected-(J13-Pin_3-Pad3)*%
X60715000Y-139909938D03*
%TD*%
D10*
%TO.P,R3,1*%
%TO.N,Net-(C3-Pad2)*%
X43000000Y-90750000D03*
%TO.P,R3,2*%
%TO.N,Net-(J13-Pin_1)*%
X43000000Y-100910000D03*
%TD*%
D14*
%TO.P,J20,1,Pin_1*%
%TO.N,12V*%
X83500000Y-31540000D03*
D15*
%TO.P,J20,2,Pin_2*%
%TO.N,-12V*%
X83500000Y-29000000D03*
%TO.P,J20,3,Pin_3*%
%TO.N,GND*%
X86040000Y-31540000D03*
%TO.P,J20,4,Pin_4*%
X86040000Y-29000000D03*
%TO.P,J20,5,Pin_5*%
%TO.N,5V*%
X88580000Y-31540000D03*
%TO.P,J20,6,Pin_6*%
%TO.N,unconnected-(J20-Pin_6-Pad6)*%
X88580000Y-29000000D03*
%TD*%
D10*
%TO.P,R5,1*%
%TO.N,Net-(C5-Pad2)*%
X95750000Y-91250000D03*
%TO.P,R5,2*%
%TO.N,Net-(J15-Pin_1)*%
X95750000Y-101410000D03*
%TD*%
D14*
%TO.P,J18,1,Pin_1*%
%TO.N,12V*%
X45420000Y-31540000D03*
D15*
%TO.P,J18,2,Pin_2*%
%TO.N,-12V*%
X45420000Y-29000000D03*
%TO.P,J18,3,Pin_3*%
%TO.N,GND*%
X47960000Y-31540000D03*
%TO.P,J18,4,Pin_4*%
X47960000Y-29000000D03*
%TO.P,J18,5,Pin_5*%
%TO.N,5V*%
X50500000Y-31540000D03*
%TO.P,J18,6,Pin_6*%
%TO.N,unconnected-(J18-Pin_6-Pad6)*%
X50500000Y-29000000D03*
%TD*%
D10*
%TO.P,R7,1*%
%TO.N,Net-(SW1-C)*%
X32420000Y-138250000D03*
%TO.P,R7,2*%
%TO.N,Net-(J14-Pin_1)*%
X42580000Y-138250000D03*
%TD*%
D17*
%TO.P,J16,1,Pin_1*%
%TO.N,Net-(J16-Pin_1)*%
X96135000Y-146434876D03*
%TD*%
D12*
%TO.P,J8,1,Pin_1*%
%TO.N,GND*%
X72920000Y-46000000D03*
D13*
%TO.P,J8,2,Pin_2*%
%TO.N,Net-(J8-Pin_2)*%
X78000000Y-46000000D03*
%TO.P,J8,3,Pin_3*%
%TO.N,Net-(J7-Pin_1)*%
X83000000Y-46000000D03*
%TD*%
D10*
%TO.P,C4,1*%
%TO.N,Net-(J8-Pin_2)*%
X100500000Y-64500000D03*
%TO.P,C4,2*%
%TO.N,Net-(C4-Pad2)*%
X100500000Y-69500000D03*
%TD*%
D12*
%TO.P,J4,1,Pin_1*%
%TO.N,GND*%
X50500000Y-74500000D03*
D13*
%TO.P,J4,2,Pin_2*%
%TO.N,Net-(J4-Pin_2)*%
X55580000Y-74500000D03*
%TO.P,J4,3,Pin_3*%
%TO.N,Net-(J3-Pin_1)*%
X60580000Y-74500000D03*
%TD*%
D12*
%TO.P,J15,1,Pin_1*%
%TO.N,Net-(J15-Pin_1)*%
X73135000Y-139909938D03*
D13*
%TO.P,J15,2,Pin_2*%
%TO.N,Net-(J15-Pin_2)*%
X78215000Y-139909938D03*
%TO.P,J15,3,Pin_3*%
%TO.N,unconnected-(J15-Pin_3-Pad3)*%
X83215000Y-139909938D03*
%TD*%
D18*
%TO.P,RV1,1,1*%
%TO.N,GND*%
X53141169Y-61512500D03*
D15*
%TO.P,RV1,2,2*%
%TO.N,Net-(J2-Pin_2)*%
X55681169Y-61512500D03*
%TO.P,RV1,3,3*%
%TO.N,Net-(J1-Pin_1)*%
X58221169Y-61512500D03*
%TD*%
D12*
%TO.P,J6,1,Pin_1*%
%TO.N,GND*%
X50420000Y-103000000D03*
D13*
%TO.P,J6,2,Pin_2*%
%TO.N,Net-(J6-Pin_2)*%
X55500000Y-103000000D03*
%TO.P,J6,3,Pin_3*%
%TO.N,Net-(J5-Pin_1)*%
X60500000Y-103000000D03*
%TD*%
D10*
%TO.P,R1,1*%
%TO.N,Net-(C1-Pad2)*%
X33750000Y-90750000D03*
%TO.P,R1,2*%
%TO.N,Net-(J13-Pin_1)*%
X33750000Y-100910000D03*
%TD*%
D18*
%TO.P,RV4,1,1*%
%TO.N,GND*%
X75641169Y-61525000D03*
D15*
%TO.P,RV4,2,2*%
%TO.N,Net-(J8-Pin_2)*%
X78181169Y-61525000D03*
%TO.P,RV4,3,3*%
%TO.N,Net-(J7-Pin_1)*%
X80721169Y-61525000D03*
%TD*%
D10*
%TO.P,R8,1*%
%TO.N,Net-(SW1-A)*%
X91090000Y-138250000D03*
%TO.P,R8,2*%
%TO.N,Net-(J16-Pin_1)*%
X101250000Y-138250000D03*
%TD*%
D18*
%TO.P,RV8,1,1*%
%TO.N,Net-(J15-Pin_1)*%
X75595000Y-155934876D03*
D15*
%TO.P,RV8,2,2*%
%TO.N,Net-(J15-Pin_2)*%
X78135000Y-155934876D03*
%TO.P,RV8,3,3*%
%TO.N,unconnected-(RV8-Pad3)*%
X80675000Y-155934876D03*
%TD*%
D18*
%TO.P,RV5,1,1*%
%TO.N,GND*%
X75641169Y-90012500D03*
D15*
%TO.P,RV5,2,2*%
%TO.N,Net-(J10-Pin_2)*%
X78181169Y-90012500D03*
%TO.P,RV5,3,3*%
%TO.N,Net-(J10-Pin_3)*%
X80721169Y-90012500D03*
%TD*%
D10*
%TO.P,R4,1*%
%TO.N,Net-(C4-Pad2)*%
X100250000Y-91250000D03*
%TO.P,R4,2*%
%TO.N,Net-(J15-Pin_1)*%
X100250000Y-101410000D03*
%TD*%
D18*
%TO.P,RV2,1,1*%
%TO.N,GND*%
X53181169Y-90012500D03*
D15*
%TO.P,RV2,2,2*%
%TO.N,Net-(J4-Pin_2)*%
X55721169Y-90012500D03*
%TO.P,RV2,3,3*%
%TO.N,Net-(J3-Pin_1)*%
X58261169Y-90012500D03*
%TD*%
D19*
%TO.N,Net-(SW1-A)*%
X41560000Y-134375000D02*
X43681000Y-136496000D01*
X43681000Y-136496000D02*
X43681000Y-162178760D01*
X43681000Y-162178760D02*
X56213178Y-174710938D01*
X66562012Y-174710938D02*
X76863012Y-164409938D01*
X56213178Y-174710938D02*
X66562012Y-174710938D01*
X76863012Y-164409938D02*
X78135000Y-164409938D01*
X91090000Y-138250000D02*
X91090000Y-151454938D01*
X91090000Y-151454938D02*
X78135000Y-164409938D01*
X101080000Y-121750000D02*
X102181000Y-122851000D01*
X102181000Y-122851000D02*
X102181000Y-131206050D01*
X102181000Y-131206050D02*
X95137050Y-138250000D01*
X95137050Y-138250000D02*
X91090000Y-138250000D01*
%TO.N,Net-(J15-Pin_2)*%
X78215000Y-139909938D02*
X88475938Y-129649000D01*
X88475938Y-129649000D02*
X96181000Y-129649000D01*
X96181000Y-129649000D02*
X101080000Y-124750000D01*
%TO.N,Net-(U1B--)*%
X90920000Y-130750000D02*
X98080000Y-130750000D01*
X98080000Y-130750000D02*
X101080000Y-127750000D01*
%TO.N,Net-(SW1-B)*%
X71580000Y-171250000D02*
X75794938Y-171250000D01*
X75794938Y-171250000D02*
X78135000Y-168909938D01*
%TO.N,Net-(J17-PadR1)*%
X56135000Y-167925000D02*
X59460000Y-171250000D01*
X59460000Y-171250000D02*
X61420000Y-171250000D01*
%TO.N,Net-(J17-PadT)*%
X56135000Y-165385000D02*
X61055000Y-165385000D01*
X61055000Y-165385000D02*
X61670000Y-166000000D01*
%TO.N,Net-(J14-Pin_1)*%
X42580000Y-138250000D02*
X42580000Y-141489876D01*
X42580000Y-141489876D02*
X37635000Y-146434876D01*
%TO.N,Net-(SW1-C)*%
X33940000Y-134375000D02*
X33940000Y-136730000D01*
X33940000Y-136730000D02*
X32420000Y-138250000D01*
%TO.N,GND*%
X49500000Y-130750000D02*
X51936000Y-133186000D01*
X51936000Y-133186000D02*
X51936000Y-154783876D01*
X51936000Y-154783876D02*
X51750000Y-154969876D01*
X51750000Y-154969876D02*
X51750000Y-168620000D01*
X51750000Y-168620000D02*
X56135000Y-173005000D01*
%TO.N,Net-(J13-Pin_1)*%
X33940000Y-121675000D02*
X40250000Y-127985000D01*
X40250000Y-129542050D02*
X41441950Y-130734000D01*
X40250000Y-127985000D02*
X40250000Y-129542050D01*
X50635000Y-137932852D02*
X50635000Y-139909938D01*
X41441950Y-130734000D02*
X42234100Y-130734000D01*
X42234100Y-130734000D02*
X46483976Y-134983876D01*
X46483976Y-134983876D02*
X47686024Y-134983876D01*
X47686024Y-134983876D02*
X50635000Y-137932852D01*
%TO.N,Net-(J13-Pin_2)*%
X33940000Y-119135000D02*
X40305000Y-125500000D01*
X48500000Y-125500000D02*
X55750000Y-132750000D01*
X40305000Y-125500000D02*
X48500000Y-125500000D01*
X55750000Y-132750000D02*
X55750000Y-138250000D01*
X55750000Y-138250000D02*
X55715000Y-138285000D01*
X55715000Y-138285000D02*
X55715000Y-139909938D01*
%TO.N,GND*%
X41560000Y-124215000D02*
X40459000Y-123114000D01*
X40459000Y-123114000D02*
X40459000Y-120880950D01*
X40459000Y-120880950D02*
X41103950Y-120236000D01*
X41103950Y-120236000D02*
X51430169Y-120236000D01*
X51430169Y-120236000D02*
X53141169Y-118525000D01*
%TO.N,Net-(J15-Pin_1)*%
X41560000Y-121675000D02*
X57175000Y-121675000D01*
X57175000Y-121675000D02*
X73135000Y-137635000D01*
X73135000Y-137635000D02*
X73135000Y-139909938D01*
X91250000Y-101410000D02*
X89819000Y-102841000D01*
X89819000Y-102841000D02*
X89819000Y-123225938D01*
X89819000Y-123225938D02*
X73135000Y-139909938D01*
%TO.N,Net-(J12-Pin_2)*%
X78080000Y-103000000D02*
X79408550Y-101671450D01*
X79408550Y-101671450D02*
X79408550Y-74960080D01*
X79408550Y-74960080D02*
X89868630Y-64500000D01*
X89868630Y-64500000D02*
X91000000Y-64500000D01*
%TO.N,Net-(J10-Pin_2)*%
X78000000Y-74500000D02*
X90000000Y-62500000D01*
X90000000Y-62500000D02*
X94000000Y-62500000D01*
X94000000Y-62500000D02*
X96000000Y-64500000D01*
%TO.N,Net-(J8-Pin_2)*%
X78181169Y-61525000D02*
X79332169Y-60374000D01*
X96374000Y-60374000D02*
X100500000Y-64500000D01*
X79332169Y-60374000D02*
X96374000Y-60374000D01*
%TO.N,GND*%
X33940000Y-124215000D02*
X35041000Y-125316000D01*
X35041000Y-125316000D02*
X35041000Y-128194000D01*
X35041000Y-128194000D02*
X33940000Y-129295000D01*
%TO.N,Net-(J6-Pin_2)*%
X43000000Y-65000000D02*
X43760693Y-65000000D01*
X43760693Y-65000000D02*
X59412169Y-80651476D01*
X59412169Y-80651476D02*
X59412169Y-99087831D01*
X59412169Y-99087831D02*
X55500000Y-103000000D01*
%TO.N,Net-(J4-Pin_2)*%
X44580000Y-63500000D02*
X41250000Y-63500000D01*
X55580000Y-74500000D02*
X44580000Y-63500000D01*
X41250000Y-63500000D02*
X39750000Y-65000000D01*
X39750000Y-65000000D02*
X38500000Y-65000000D01*
%TO.N,Net-(J2-Pin_2)*%
X55681169Y-61512500D02*
X54530169Y-60361500D01*
X54530169Y-60361500D02*
X38388500Y-60361500D01*
X38388500Y-60361500D02*
X33750000Y-65000000D01*
%TO.N,12V*%
X45420000Y-31540000D02*
X31236000Y-45724000D01*
X31236000Y-124051000D02*
X33940000Y-126755000D01*
X31236000Y-45724000D02*
X31236000Y-124051000D01*
%TO.N,Net-(J1-Pin_1)*%
X48677257Y-51968588D02*
X37500000Y-51968588D01*
X58221169Y-61512500D02*
X48677257Y-51968588D01*
%TO.N,Net-(J3-Pin_1)*%
X48717257Y-80468588D02*
X37500000Y-80468588D01*
X58261169Y-90012500D02*
X48717257Y-80468588D01*
%TO.N,Net-(J5-Pin_1)*%
X48164757Y-108468588D02*
X37500000Y-108468588D01*
X58221169Y-118525000D02*
X48164757Y-108468588D01*
%TO.N,Net-(J7-Pin_1)*%
X88968588Y-51968588D02*
X96500000Y-51968588D01*
X83000000Y-46000000D02*
X88968588Y-51968588D01*
%TO.N,-12V*%
X64420000Y-29015500D02*
X62404500Y-27000000D01*
X83500000Y-29000000D02*
X82364500Y-27864500D01*
X65571000Y-27864500D02*
X64420000Y-29015500D01*
X82364500Y-27864500D02*
X65571000Y-27864500D01*
X62404500Y-27000000D02*
X47420000Y-27000000D01*
X47420000Y-27000000D02*
X45420000Y-29000000D01*
%TO.N,12V*%
X82333500Y-32706500D02*
X65571000Y-32706500D01*
X65571000Y-32706500D02*
X64420000Y-31555500D01*
X46571000Y-32691000D02*
X63284500Y-32691000D01*
X45420000Y-31540000D02*
X46571000Y-32691000D01*
X63284500Y-32691000D02*
X64420000Y-31555500D01*
X83500000Y-31540000D02*
X82333500Y-32706500D01*
%TO.N,5V*%
X69500000Y-31555500D02*
X70666500Y-30389000D01*
X51635500Y-30404500D02*
X68349000Y-30404500D01*
X87429000Y-30389000D02*
X88580000Y-31540000D01*
X50500000Y-31540000D02*
X51635500Y-30404500D01*
X70666500Y-30389000D02*
X87429000Y-30389000D01*
X68349000Y-30404500D02*
X69500000Y-31555500D01*
%TO.N,Net-(J10-Pin_3)*%
X83000000Y-74500000D02*
X88968588Y-80468588D01*
X88968588Y-80468588D02*
X96500000Y-80468588D01*
%TD*%
M02*
